<svg width="115" height="44" viewBox="0 0 115 44" fill="none" xmlns="http://www.w3.org/2000/svg">
<rect width="113.695" height="43.8972" transform="translate(0.5 -0.00976562)" fill="white"/>
<path d="M8.38658 5.15972L106.999 1.71611C108.353 1.66882 108.878 3.45809 107.713 4.14983C106.745 4.72431 106.905 6.17127 107.975 6.51994L108.749 6.77207C110.101 7.21256 110.267 9.05761 109.016 9.73267L108.909 9.79013C107.66 10.4639 107.877 12.3176 109.247 12.686C110.646 13.0621 110.831 14.9714 109.531 15.6096L109.126 15.8082C107.778 16.4695 107.846 18.4132 109.237 18.9789L110.075 19.3201C111.32 19.8266 111.31 21.593 110.06 22.0852L109.766 22.2009C108.523 22.6899 108.624 24.4805 109.913 24.8271C111.175 25.1662 111.309 26.9031 110.114 27.4312L109.165 27.8505C108.003 28.364 108.032 30.0222 109.21 30.4959L109.564 30.6382C110.728 31.106 110.602 32.7923 109.392 33.1211C108.265 33.4274 108.072 34.9622 109.105 35.5076C110.271 36.1234 109.867 37.8861 108.549 37.9321L9.17644 41.4023C7.79858 41.4504 7.412 39.5335 8.70082 39.0438C9.90177 38.5875 9.67157 36.8239 8.39372 36.6912L7.93194 36.6432C6.54925 36.4996 6.36569 34.5597 7.69689 34.1593C9.0077 33.765 8.85664 31.8624 7.50004 31.6799L7.18546 31.6376C5.77657 31.448 5.59225 29.4845 6.94126 29.0361L7.66356 28.796C9.14365 28.304 9.00701 26.167 7.47632 25.8675L7.086 25.7912C5.50136 25.4811 5.35992 23.2689 6.89217 22.7595L7.19791 22.6579C8.67484 22.167 8.50611 20.0257 6.97052 19.7722C5.43493 19.5186 5.26621 17.3774 6.74314 16.8864L7.3756 16.6762C8.94306 16.1552 8.86472 13.9118 7.26473 13.5014L6.80579 13.3837C5.21267 12.975 5.21585 10.7112 6.81012 10.307L8.05024 9.99261C9.27939 9.68099 9.30636 7.94447 8.08747 7.59483C6.72799 7.20487 6.97314 5.20907 8.38658 5.15972Z" fill="#059E93"/>
<path d="M23.4445 17.0175C23.7819 17.6061 23.9637 18.2751 23.9899 19.0246L26.8879 18.9234L26.9673 21.1969L24.0443 21.2989C23.9878 22.068 23.7032 22.7533 23.1906 23.3549C22.694 23.9392 22.0177 24.388 21.1615 24.7014L21.1623 24.7264C21.7242 25.057 22.1801 25.458 22.5301 25.9293C22.88 26.4007 23.185 27.0154 23.4449 27.7734L25.001 32.2216L22.003 32.3262L20.5306 28.1253C20.2724 27.4173 19.9026 26.8549 19.4211 26.4381C18.9563 26.0208 18.4407 25.822 17.8744 25.8418L13.2525 26.0032L13.1635 23.4549L18.7098 23.2612C19.3594 23.2385 19.8952 23.0614 20.3172 22.7298C20.7558 22.3976 21.0155 21.955 21.0963 21.4019L13.1016 21.6811L13.0222 19.4076L21.0668 19.1267C21.0321 18.6109 20.8344 18.2009 20.4736 17.8967C20.1294 17.5919 19.6742 17.4493 19.1079 17.4691L12.962 17.6837L12.873 15.1354L26.7388 14.6512L26.8173 16.8997L23.4445 17.0175ZM32.0605 17.6421L28.1089 19.8063L28.0138 17.0831L32.5743 14.4475L34.8728 14.3672L35.4835 31.8555L32.5604 31.9576L32.0605 17.6421ZM43.1847 31.7867C41.5525 31.8437 40.2537 31.4221 39.2884 30.522C38.3226 29.6052 37.8112 28.3307 37.7542 26.6984L40.6272 26.5981C40.6563 27.4309 40.8875 28.0815 41.3207 28.55C41.7707 29.0178 42.362 29.239 43.0949 29.2134L45.4933 29.1296C46.2927 29.1017 46.9261 28.8545 47.3934 28.3879C47.8768 27.9041 48.1051 27.2791 48.0784 26.513L48.0286 25.0889C48.0048 24.4061 47.7358 23.8651 47.2216 23.4662C46.7074 23.0673 46.0339 22.8823 45.2011 22.9114L38.2307 23.1548L37.9202 14.2608L49.9121 13.842L50.002 16.4153L40.9331 16.732L41.0631 20.4545L45.1103 20.3132C46.2263 20.2742 47.2162 20.4481 48.0802 20.8348C48.9602 21.2043 49.6462 21.7473 50.1382 22.4639C50.6468 23.1798 50.9179 24.0208 50.9517 24.9869L51.0014 26.4109C51.0363 27.4102 50.8342 28.3094 50.3952 29.1085C49.9556 29.891 49.3187 30.5136 48.4844 30.9763C47.6495 31.4223 46.6824 31.6645 45.5831 31.7029L43.1847 31.7867ZM51.1419 33.4099L51.7481 32.8634C52.6213 32.0825 53.0385 31.1341 52.9995 30.0182L52.9463 28.4942L55.8194 28.3938L55.8726 29.9178C55.9459 32.0164 55.2281 33.6674 53.7193 34.8707L53.0139 35.4456L51.1419 33.4099ZM63.0769 31.092C62.0276 31.1287 61.0962 30.9611 60.2828 30.5893C59.4855 30.2002 58.8578 29.6552 58.3997 28.9541C57.9411 28.2364 57.6949 27.3945 57.6612 26.4285L60.5342 26.3281C60.5581 27.011 60.7938 27.5531 61.2414 27.9544C61.689 28.3556 62.2709 28.5438 62.987 28.5187L65.1356 28.4437C65.9351 28.4158 66.5673 28.1352 67.0323 27.6021C67.4967 27.0522 67.7135 26.3359 67.6826 25.4532L67.6006 23.1047C67.1833 23.5696 66.6711 23.946 66.0642 24.234C65.4567 24.5053 64.8364 24.6521 64.2035 24.6742L62.5297 24.7326C61.447 24.7704 60.4901 24.5871 59.6589 24.1825C58.8276 23.778 58.1735 23.1921 57.6965 22.425C57.2188 21.6413 56.962 20.7331 56.9259 19.7004L56.891 18.7011C56.8544 17.6518 57.072 16.7187 57.5437 15.9018C58.0154 15.0849 58.6935 14.4442 59.5777 13.9797C60.4614 13.4986 61.4946 13.2374 62.6771 13.1961L64.4259 13.1351C65.5585 13.0955 66.5657 13.2855 67.4475 13.7049C68.3453 14.1071 69.0417 14.7082 69.5366 15.508C70.0475 16.2906 70.3213 17.2065 70.3579 18.2558L70.6057 25.3511C70.6441 26.4504 70.4446 27.4245 70.0074 28.2736C69.5862 29.1054 68.9587 29.761 68.125 30.2404C67.3079 30.7192 66.3414 30.978 65.2255 31.017L63.0769 31.092ZM64.1671 22.1991C64.9833 22.1706 65.6913 21.9124 66.2913 21.4245C66.9073 20.9194 67.3022 20.2886 67.4759 19.5321L67.4279 18.1581C67.4006 17.3752 67.1203 16.7513 66.5871 16.2864C66.0533 15.8047 65.3617 15.5787 64.5123 15.6084L62.7635 15.6695C61.8474 15.7015 61.1153 15.9855 60.567 16.5216C60.0354 17.0571 59.7844 17.7496 59.8141 18.599L59.849 19.5984C59.8781 20.4311 60.1262 21.0895 60.5933 21.5735C61.0605 22.0574 61.6688 22.2863 62.4183 22.2602L64.1671 22.1991ZM78.2894 30.5608C77.2401 30.5974 76.3087 30.4299 75.4953 30.058C74.698 29.669 74.0703 29.1239 73.6122 28.4229C73.1536 27.7051 72.9074 26.8633 72.8737 25.8972L75.7467 25.7969C75.7706 26.4798 76.0063 27.0219 76.4539 27.4231C76.9015 27.8244 77.4833 28.0125 78.1995 27.9875L80.3481 27.9125C81.1476 27.8846 81.7798 27.604 82.2448 27.0708C82.7092 26.521 82.926 25.8047 82.8951 24.9219L82.8131 22.5735C82.3958 23.0383 81.8836 23.4147 81.2767 23.7028C80.6692 23.9741 80.0489 24.1208 79.416 24.1429L77.7421 24.2014C76.6595 24.2392 75.7026 24.0558 74.8714 23.6513C74.0401 23.2467 73.386 22.6609 72.9089 21.8938C72.4313 21.11 72.1745 20.2018 72.1384 19.1692L72.1035 18.1699C72.0669 17.1206 72.2844 16.1875 72.7562 15.3705C73.2279 14.5536 73.906 13.913 74.7902 13.4485C75.6739 12.9674 76.707 12.7062 77.8896 12.6649L79.6384 12.6038C80.771 12.5643 81.7782 12.7542 82.66 13.1737C83.5578 13.5759 84.2542 14.1769 84.749 14.9768C85.26 15.7594 85.5338 16.6753 85.5704 17.7246L85.8182 24.8199C85.8566 25.9191 85.6571 26.8933 85.2198 27.7424C84.7986 28.5742 84.1712 29.2298 83.3375 29.7091C82.5204 30.1879 81.5539 30.4468 80.438 30.4858L78.2894 30.5608ZM79.3796 21.6678C80.1957 21.6393 80.9038 21.3812 81.5038 20.8933C82.1198 20.3882 82.5147 19.7574 82.6884 19.0009L82.6404 17.6268C82.613 16.844 82.3328 16.2201 81.7996 15.7551C81.2658 15.2735 80.5742 15.0475 79.7248 15.0772L77.976 15.1382C77.0599 15.1702 76.3277 15.4543 75.7795 15.9904C75.2479 16.5259 74.9969 17.2184 75.0266 18.0678L75.0615 19.0671C75.0906 19.8999 75.3387 20.5583 75.8058 21.0422C76.273 21.5262 76.8813 21.7551 77.6308 21.7289L79.3796 21.6678ZM93.5019 30.0296C92.4526 30.0662 91.5212 29.8986 90.7078 29.5268C89.9105 29.1378 89.2828 28.5927 88.8247 27.8916C88.3661 27.1739 88.1199 26.332 88.0861 25.366L90.9592 25.2657C90.9831 25.9486 91.2188 26.4906 91.6664 26.8919C92.114 27.2932 92.6958 27.4813 93.412 27.4563L95.5606 27.3813C96.3601 27.3533 96.9923 27.0728 97.4573 26.5396C97.9217 25.9897 98.1385 25.2735 98.1076 24.3907L98.0256 22.0423C97.6083 22.5071 97.0961 22.8835 96.4892 23.1715C95.8817 23.4429 95.2614 23.5896 94.6285 23.6117L92.9546 23.6702C91.872 23.708 90.9151 23.5246 90.0839 23.1201C89.2526 22.7155 88.5985 22.1297 88.1214 21.3626C87.6438 20.5788 87.387 19.6706 87.3509 18.638L87.316 17.6386C87.2794 16.5893 87.4969 15.6562 87.9687 14.8393C88.4404 14.0224 89.1184 13.3817 90.0027 12.9173C90.8864 12.4362 91.9195 12.175 93.1021 12.1337L94.8509 12.0726C95.9835 12.033 96.9907 12.223 97.8725 12.6425C98.7703 13.0447 99.4667 13.6457 99.9615 14.4455C100.472 15.2281 100.746 16.1441 100.783 17.1934L101.031 24.2886C101.069 25.3879 100.87 26.3621 100.432 27.2111C100.011 28.043 99.3837 28.6985 98.5499 29.1779C97.7329 29.6567 96.7664 29.9156 95.6505 29.9545L93.5019 30.0296ZM94.5921 21.1366C95.4082 21.1081 96.1163 20.8499 96.7163 20.3621C97.3323 19.8569 97.7272 19.2261 97.9009 18.4697L97.8529 17.0956C97.8255 16.3128 97.5453 15.6889 97.0121 15.2239C96.4783 14.7423 95.7867 14.5163 94.9373 14.5459L93.1884 14.607C92.2724 14.639 91.5402 14.923 90.992 15.4591C90.4604 15.9947 90.2094 16.6871 90.2391 17.5366L90.274 18.5359C90.3031 19.3687 90.5512 20.027 91.0183 20.511C91.4855 20.995 92.0938 21.2239 92.8433 21.1977L94.5921 21.1366Z" fill="white"/>
<ellipse cx="57.0987" cy="4.1866" rx="2.17486" ry="2.17488" fill="white"/>
<ellipse cx="57.0987" cy="39.7091" rx="2.17486" ry="2.17488" fill="white"/>
</svg>
