<svg width="99" height="38" viewBox="0 0 99 38" fill="none" xmlns="http://www.w3.org/2000/svg">
<rect x="3" y="2.99121" width="93.3612" height="32" rx="5.63583" fill="#DB2B63"/>
<rect x="1.94328" y="1.93449" width="95.4747" height="34.1134" rx="6.69255" stroke="#DB2B63" stroke-opacity="0.5" stroke-width="2.11344"/>
<path d="M22.9773 12.8892C24.0399 13.5027 24.9238 14.3831 25.5415 15.4432C26.1593 16.5033 26.4894 17.7063 26.4993 18.9332C26.5092 20.1601 26.1986 21.3683 25.598 22.4382C24.9975 23.5082 24.1279 24.4027 23.0754 25.0333C22.0229 25.6639 20.824 26.0086 19.5973 26.0335C18.3706 26.0583 17.1587 25.7623 16.0816 25.1748C15.0044 24.5873 14.0994 23.7287 13.4561 22.684C12.8127 21.6392 12.4534 20.4446 12.4137 19.2183L12.4102 18.99L12.4137 18.7618C12.4531 17.5451 12.8072 16.3595 13.4413 15.3204C14.0754 14.2813 14.9679 13.4243 16.0318 12.8328C17.0957 12.2413 18.2948 11.9357 19.512 11.9455C20.7293 11.9554 21.9232 12.2806 22.9773 12.8892ZM19.4549 14.7632C19.2824 14.7632 19.1159 14.8265 18.9869 14.9412C18.858 15.0558 18.7756 15.2138 18.7554 15.3852L18.7505 15.4676V18.99L18.7568 19.0823C18.7729 19.2045 18.8207 19.3204 18.8956 19.4183L18.9569 19.4888L21.0703 21.6022L21.1365 21.66C21.2601 21.7559 21.412 21.8079 21.5684 21.8079C21.7248 21.8079 21.8767 21.7559 22.0002 21.66L22.0664 21.6015L22.1249 21.5353C22.2208 21.4118 22.2728 21.2598 22.2728 21.1035C22.2728 20.9471 22.2208 20.7952 22.1249 20.6716L22.0664 20.6054L20.1594 18.6977V15.4676L20.1545 15.3852C20.1343 15.2138 20.0519 15.0558 19.923 14.9412C19.794 14.8265 19.6275 14.7632 19.4549 14.7632Z" fill="white"/>
<path d="M36.9054 22.7452C36.9054 22.2039 37.0034 21.7372 37.1994 21.3452C37.4047 20.9439 37.7407 20.5892 38.2074 20.2812L41.6794 18.0272C41.866 17.9059 42.0107 17.7519 42.1134 17.5652C42.2254 17.3785 42.2814 17.1872 42.2814 16.9912V16.5432C42.2814 16.2445 42.1694 16.0019 41.9454 15.8152C41.7307 15.6192 41.4507 15.5212 41.1054 15.5212H39.8174C39.4067 15.5212 39.0847 15.6705 38.8514 15.9692C38.618 16.2585 38.5014 16.6599 38.5014 17.1732H36.8634C36.8634 16.2119 37.1247 15.4559 37.6474 14.9052C38.17 14.3545 38.884 14.0792 39.7894 14.0792H41.1054C41.656 14.0792 42.146 14.1819 42.5754 14.3872C43.0047 14.5925 43.336 14.8819 43.5694 15.2552C43.8027 15.6285 43.9194 16.0579 43.9194 16.5432V16.9912C43.9194 17.4579 43.8167 17.8685 43.6114 18.2232C43.4154 18.5779 43.1027 18.8859 42.6734 19.1472L39.2994 21.2892C39.038 21.4572 38.8467 21.6392 38.7254 21.8352C38.6134 22.0219 38.5574 22.2645 38.5574 22.5632H44.0034V23.9912H36.9054V22.7452ZM50.4926 23.9912C50.1939 23.9912 49.9466 23.9119 49.7506 23.7532C49.5546 23.5945 49.4193 23.3285 49.3446 22.9552L47.6366 14.1912H49.2886L50.5906 21.6532H50.6186L52.7886 14.7092H53.4046C53.8433 14.7092 54.1419 14.9612 54.3006 15.4652L56.1626 21.6392H56.1906L57.4926 14.1912H59.1446L57.4226 22.9552C57.3479 23.3099 57.2173 23.5712 57.0306 23.7392C56.8533 23.9072 56.6059 23.9912 56.2886 23.9912H55.6166L53.4326 16.8792H53.4046L51.1646 23.9912H50.4926ZM61.9457 24.1032C61.3764 24.1032 60.8724 23.9959 60.4337 23.7812C60.0044 23.5665 59.6684 23.2632 59.4257 22.8712C59.1924 22.4792 59.0757 22.0265 59.0757 21.5132V19.6372C59.0757 19.0959 59.1924 18.6199 59.4257 18.2092C59.6684 17.7892 60.0044 17.4672 60.4337 17.2432C60.8724 17.0099 61.3764 16.8932 61.9457 16.8932H63.0657C63.915 16.8932 64.5964 17.1405 65.1097 17.6352C65.623 18.1299 65.8797 18.7879 65.8797 19.6092V21.0092H60.6857V21.5132C60.6857 21.8865 60.7977 22.1852 61.0217 22.4092C61.255 22.6332 61.563 22.7452 61.9457 22.7452H63.0237C63.397 22.7452 63.6957 22.6565 63.9197 22.4792C64.153 22.2925 64.2697 22.0499 64.2697 21.7512H65.8517C65.8517 22.4605 65.5904 23.0299 65.0677 23.4592C64.545 23.8885 63.859 24.1032 63.0097 24.1032H61.9457ZM64.2977 19.8052V19.6092C64.2977 19.1985 64.1857 18.8672 63.9617 18.6152C63.7377 18.3632 63.4437 18.2372 63.0797 18.2372H61.9457C61.563 18.2372 61.2504 18.3725 61.0077 18.6432C60.7744 18.9045 60.6577 19.2499 60.6577 19.6792V19.8052H64.2977ZM69.4264 24.1032C68.8571 24.1032 68.3531 23.9959 67.9144 23.7812C67.4851 23.5665 67.1491 23.2632 66.9064 22.8712C66.6731 22.4792 66.5564 22.0265 66.5564 21.5132V19.6372C66.5564 19.0959 66.6731 18.6199 66.9064 18.2092C67.1491 17.7892 67.4851 17.4672 67.9144 17.2432C68.3531 17.0099 68.8571 16.8932 69.4264 16.8932H70.5464C71.3957 16.8932 72.0771 17.1405 72.5904 17.6352C73.1037 18.1299 73.3604 18.7879 73.3604 19.6092V21.0092H68.1664V21.5132C68.1664 21.8865 68.2784 22.1852 68.5024 22.4092C68.7357 22.6332 69.0437 22.7452 69.4264 22.7452H70.5044C70.8777 22.7452 71.1764 22.6565 71.4004 22.4792C71.6337 22.2925 71.7504 22.0499 71.7504 21.7512H73.3324C73.3324 22.4605 73.0711 23.0299 72.5484 23.4592C72.0257 23.8885 71.3397 24.1032 70.4904 24.1032H69.4264ZM71.7784 19.8052V19.6092C71.7784 19.1985 71.6664 18.8672 71.4424 18.6152C71.2184 18.3632 70.9244 18.2372 70.5604 18.2372H69.4264C69.0437 18.2372 68.7311 18.3725 68.4884 18.6432C68.2551 18.9045 68.1384 19.2499 68.1384 19.6792V19.8052H71.7784ZM79.1051 23.9912L76.7391 21.0232L75.9271 21.8352V23.9912H74.3171V14.1912H75.9271V20.0012L78.9091 17.0052H80.7991L77.7891 19.9872L80.9531 23.9912H79.1051ZM83.4789 24.1032C82.6762 24.1032 82.0322 23.8885 81.5469 23.4592C81.0616 23.0299 80.8189 22.4605 80.8189 21.7512H82.4009C82.4009 22.0499 82.4989 22.2925 82.6949 22.4792C82.8909 22.6565 83.1522 22.7452 83.4789 22.7452H84.7249C85.0422 22.7452 85.2896 22.6939 85.4669 22.5912C85.6536 22.4792 85.7469 22.3299 85.7469 22.1432V21.8352C85.7469 21.7045 85.6909 21.5925 85.5789 21.4992C85.4762 21.4059 85.3316 21.3405 85.1449 21.3032L82.7229 20.8832C82.1816 20.7899 81.7522 20.5939 81.4349 20.2952C81.1176 19.9872 80.9589 19.6325 80.9589 19.2312V18.7692C80.9589 18.1905 81.1876 17.7332 81.6449 17.3972C82.1116 17.0612 82.7509 16.8932 83.5629 16.8932H84.6829C85.4202 16.8932 86.0176 17.0939 86.4749 17.4952C86.9322 17.8965 87.1609 18.4239 87.1609 19.0772H85.5789C85.5789 18.8252 85.4949 18.6245 85.3269 18.4752C85.1682 18.3259 84.9536 18.2512 84.6829 18.2512H83.5769C83.2502 18.2512 82.9982 18.3025 82.8209 18.4052C82.6436 18.5079 82.5549 18.6525 82.5549 18.8392V19.1192C82.5549 19.2499 82.6062 19.3619 82.7089 19.4552C82.8209 19.5485 82.9656 19.6092 83.1429 19.6372L85.6489 20.0852C86.1622 20.1879 86.5729 20.3839 86.8809 20.6732C87.1889 20.9625 87.3429 21.3032 87.3429 21.6952V22.2132C87.3429 22.7919 87.1049 23.2539 86.6289 23.5992C86.1529 23.9352 85.5182 24.1032 84.7249 24.1032H83.4789Z" fill="white"/>
</svg>
