<svg width="324" height="79" viewBox="0 0 324 79" fill="none" xmlns="http://www.w3.org/2000/svg">
<path d="M293.94 5H7.92041C5.71127 5 3.92041 6.79086 3.92041 9V75C3.92041 77.2091 5.71126 79 7.9204 79H293.94C295.193 79 296.374 78.4127 297.13 77.4133L322.095 44.4133C323.175 42.9857 323.175 41.0143 322.095 39.5868L297.13 6.58675C296.374 5.58732 295.193 5 293.94 5Z" fill="#035E57"/>
<path d="M4 0.5H290.02C291.116 0.5 292.15 1.01391 292.811 1.8884L317.776 34.8884C318.721 36.1375 318.721 37.8624 317.776 39.1116L292.811 72.1116C292.15 72.9861 291.116 73.5 290.02 73.5H3.99999C2.067 73.5 0.5 71.933 0.5 70V4C0.5 2.06701 2.067 0.5 4 0.5Z" fill="#059E93" stroke="#035E57"/>
<path d="M14.4745 43.1006C14.3425 43.1006 14.2405 43.0646 14.1685 42.9926C14.0965 42.9086 14.0605 42.8066 14.0605 42.6866V30.9326C14.0605 30.8006 14.0965 30.6986 14.1685 30.6266C14.2405 30.5426 14.3425 30.5006 14.4745 30.5006H19.4065C20.3065 30.5006 21.0385 30.6506 21.6025 30.9506C22.1785 31.2386 22.5985 31.6346 22.8625 32.1386C23.1385 32.6426 23.2765 33.2066 23.2765 33.8306C23.2765 34.3226 23.1925 34.7486 23.0245 35.1086C22.8685 35.4566 22.6705 35.7446 22.4305 35.9726C22.1905 36.1886 21.9565 36.3566 21.7285 36.4766C22.1965 36.7046 22.6105 37.0766 22.9705 37.5926C23.3425 38.1086 23.5285 38.7326 23.5285 39.4646C23.5285 40.1246 23.3785 40.7306 23.0785 41.2826C22.7785 41.8346 22.3285 42.2786 21.7285 42.6146C21.1405 42.9386 20.4085 43.1006 19.5325 43.1006H14.4745ZM15.8245 41.6426H19.2985C20.0785 41.6426 20.6785 41.4326 21.0985 41.0126C21.5185 40.5926 21.7285 40.0766 21.7285 39.4646C21.7285 38.8286 21.5185 38.3066 21.0985 37.8986C20.6785 37.4786 20.0785 37.2686 19.2985 37.2686H15.8245V41.6426ZM15.8245 35.8286H19.1365C19.9045 35.8286 20.4865 35.6546 20.8825 35.3066C21.2785 34.9466 21.4765 34.4606 21.4765 33.8486C21.4765 33.2366 21.2785 32.7686 20.8825 32.4446C20.4865 32.1206 19.9045 31.9586 19.1365 31.9586H15.8245V35.8286ZM25.922 43.1006C25.802 43.1006 25.7 43.0646 25.616 42.9926C25.544 42.9086 25.508 42.8066 25.508 42.6866V30.7346C25.508 30.6146 25.544 30.5186 25.616 30.4466C25.7 30.3626 25.802 30.3206 25.922 30.3206H26.768C26.9 30.3206 27.002 30.3626 27.074 30.4466C27.146 30.5186 27.182 30.6146 27.182 30.7346V42.6866C27.182 42.8066 27.146 42.9086 27.074 42.9926C27.002 43.0646 26.9 43.1006 26.768 43.1006H25.922ZM33.3409 43.2806C32.4289 43.2806 31.6669 43.1066 31.0549 42.7586C30.4429 42.4106 29.9749 41.9306 29.6509 41.3186C29.3269 40.6946 29.1469 39.9866 29.1109 39.1946C29.0989 38.9906 29.0929 38.7326 29.0929 38.4206C29.0929 38.0966 29.0989 37.8386 29.1109 37.6466C29.1469 36.8426 29.3269 36.1346 29.6509 35.5226C29.9869 34.9106 30.4609 34.4306 31.0729 34.0826C31.6849 33.7346 32.4409 33.5606 33.3409 33.5606C34.2409 33.5606 34.9969 33.7346 35.6089 34.0826C36.2209 34.4306 36.6889 34.9106 37.0129 35.5226C37.3489 36.1346 37.5349 36.8426 37.5709 37.6466C37.5829 37.8386 37.5889 38.0966 37.5889 38.4206C37.5889 38.7326 37.5829 38.9906 37.5709 39.1946C37.5349 39.9866 37.3549 40.6946 37.0309 41.3186C36.7069 41.9306 36.2389 42.4106 35.6269 42.7586C35.0149 43.1066 34.2529 43.2806 33.3409 43.2806ZM33.3409 41.8946C34.0849 41.8946 34.6789 41.6606 35.1229 41.1926C35.5669 40.7126 35.8069 40.0166 35.8429 39.1046C35.8549 38.9246 35.8609 38.6966 35.8609 38.4206C35.8609 38.1446 35.8549 37.9166 35.8429 37.7366C35.8069 36.8246 35.5669 36.1346 35.1229 35.6666C34.6789 35.1866 34.0849 34.9466 33.3409 34.9466C32.5969 34.9466 31.9969 35.1866 31.5409 35.6666C31.0969 36.1346 30.8629 36.8246 30.8389 37.7366C30.8269 37.9166 30.8209 38.1446 30.8209 38.4206C30.8209 38.6966 30.8269 38.9246 30.8389 39.1046C30.8629 40.0166 31.0969 40.7126 31.5409 41.1926C31.9969 41.6606 32.5969 41.8946 33.3409 41.8946ZM43.2629 43.2806C42.4109 43.2806 41.6729 43.1186 41.0489 42.7946C40.4369 42.4586 39.9629 41.9846 39.6269 41.3726C39.2909 40.7486 39.1109 40.0046 39.0869 39.1406C39.0749 38.9606 39.0689 38.7206 39.0689 38.4206C39.0689 38.1206 39.0749 37.8806 39.0869 37.7006C39.1109 36.8366 39.2909 36.0986 39.6269 35.4866C39.9629 34.8626 40.4369 34.3886 41.0489 34.0646C41.6729 33.7286 42.4109 33.5606 43.2629 33.5606C43.9589 33.5606 44.5529 33.6566 45.0449 33.8486C45.5489 34.0406 45.9629 34.2866 46.2869 34.5866C46.6109 34.8866 46.8509 35.2106 47.0069 35.5586C47.1749 35.9066 47.2649 36.2366 47.2769 36.5486C47.2889 36.6686 47.2529 36.7646 47.1689 36.8366C47.0849 36.9086 46.9829 36.9446 46.8629 36.9446H45.9989C45.8789 36.9446 45.7889 36.9206 45.7289 36.8726C45.6689 36.8126 45.6089 36.7166 45.5489 36.5846C45.3329 35.9966 45.0389 35.5826 44.6669 35.3426C44.2949 35.1026 43.8329 34.9826 43.2809 34.9826C42.5609 34.9826 41.9729 35.2046 41.5169 35.6486C41.0729 36.0926 40.8329 36.8066 40.7969 37.7906C40.7849 38.2226 40.7849 38.6426 40.7969 39.0506C40.8329 40.0466 41.0729 40.7666 41.5169 41.2106C41.9729 41.6426 42.5609 41.8586 43.2809 41.8586C43.8329 41.8586 44.2949 41.7386 44.6669 41.4986C45.0389 41.2586 45.3329 40.8446 45.5489 40.2566C45.6089 40.1246 45.6689 40.0346 45.7289 39.9866C45.7889 39.9266 45.8789 39.8966 45.9989 39.8966H46.8629C46.9829 39.8966 47.0849 39.9326 47.1689 40.0046C47.2529 40.0766 47.2889 40.1726 47.2769 40.2926C47.2649 40.5446 47.2109 40.8026 47.1149 41.0666C47.0189 41.3306 46.8629 41.6006 46.6469 41.8766C46.4429 42.1406 46.1849 42.3806 45.8729 42.5966C45.5609 42.8006 45.1829 42.9686 44.7389 43.1006C44.3069 43.2206 43.8149 43.2806 43.2629 43.2806ZM49.4865 43.1006C49.3665 43.1006 49.2645 43.0646 49.1805 42.9926C49.1085 42.9086 49.0725 42.8066 49.0725 42.6866V30.7346C49.0725 30.6146 49.1085 30.5186 49.1805 30.4466C49.2645 30.3626 49.3665 30.3206 49.4865 30.3206H50.3325C50.4525 30.3206 50.5485 30.3626 50.6205 30.4466C50.7045 30.5186 50.7465 30.6146 50.7465 30.7346V36.9986L54.2925 34.0466C54.4365 33.9266 54.5445 33.8486 54.6165 33.8126C54.7005 33.7646 54.8325 33.7406 55.0125 33.7406H55.9665C56.0745 33.7406 56.1645 33.7766 56.2365 33.8486C56.3085 33.9206 56.3445 34.0106 56.3445 34.1186C56.3445 34.1666 56.3265 34.2206 56.2905 34.2806C56.2665 34.3406 56.2125 34.4006 56.1285 34.4606L51.9705 37.9166L56.5785 42.3986C56.7225 42.5186 56.7945 42.6266 56.7945 42.7226C56.7945 42.8306 56.7585 42.9206 56.6865 42.9926C56.6145 43.0646 56.5245 43.1006 56.4165 43.1006H55.4805C55.3005 43.1006 55.1685 43.0826 55.0845 43.0466C55.0005 42.9986 54.8925 42.9146 54.7605 42.7946L50.7465 38.9606V42.6866C50.7465 42.8066 50.7045 42.9086 50.6205 42.9926C50.5485 43.0646 50.4525 43.1006 50.3325 43.1006H49.4865ZM61.3163 43.2806C60.4643 43.2806 59.7263 43.1186 59.1023 42.7946C58.4903 42.4586 58.0163 41.9846 57.6803 41.3726C57.3443 40.7486 57.1643 40.0046 57.1403 39.1406C57.1283 38.9606 57.1223 38.7206 57.1223 38.4206C57.1223 38.1206 57.1283 37.8806 57.1403 37.7006C57.1643 36.8366 57.3443 36.0986 57.6803 35.4866C58.0163 34.8626 58.4903 34.3886 59.1023 34.0646C59.7263 33.7286 60.4643 33.5606 61.3163 33.5606C62.0123 33.5606 62.6063 33.6566 63.0983 33.8486C63.6023 34.0406 64.0163 34.2866 64.3403 34.5866C64.6643 34.8866 64.9043 35.2106 65.0603 35.5586C65.2283 35.9066 65.3183 36.2366 65.3303 36.5486C65.3423 36.6686 65.3063 36.7646 65.2223 36.8366C65.1383 36.9086 65.0363 36.9446 64.9163 36.9446H64.0523C63.9323 36.9446 63.8423 36.9206 63.7823 36.8726C63.7223 36.8126 63.6623 36.7166 63.6023 36.5846C63.3863 35.9966 63.0923 35.5826 62.7203 35.3426C62.3483 35.1026 61.8863 34.9826 61.3343 34.9826C60.6143 34.9826 60.0263 35.2046 59.5703 35.6486C59.1263 36.0926 58.8863 36.8066 58.8503 37.7906C58.8383 38.2226 58.8383 38.6426 58.8503 39.0506C58.8863 40.0466 59.1263 40.7666 59.5703 41.2106C60.0263 41.6426 60.6143 41.8586 61.3343 41.8586C61.8863 41.8586 62.3483 41.7386 62.7203 41.4986C63.0923 41.2586 63.3863 40.8446 63.6023 40.2566C63.6623 40.1246 63.7223 40.0346 63.7823 39.9866C63.8423 39.9266 63.9323 39.8966 64.0523 39.8966H64.9163C65.0363 39.8966 65.1383 39.9326 65.2223 40.0046C65.3063 40.0766 65.3423 40.1726 65.3303 40.2926C65.3183 40.5446 65.2643 40.8026 65.1683 41.0666C65.0723 41.3306 64.9163 41.6006 64.7003 41.8766C64.4963 42.1406 64.2383 42.3806 63.9263 42.5966C63.6143 42.8006 63.2363 42.9686 62.7923 43.1006C62.3603 43.2206 61.8683 43.2806 61.3163 43.2806ZM67.5399 43.1006C67.4199 43.1006 67.3179 43.0646 67.2339 42.9926C67.1619 42.9086 67.1259 42.8066 67.1259 42.6866V30.7346C67.1259 30.6146 67.1619 30.5186 67.2339 30.4466C67.3179 30.3626 67.4199 30.3206 67.5399 30.3206H68.4399C68.5719 30.3206 68.6739 30.3626 68.7459 30.4466C68.8179 30.5186 68.8539 30.6146 68.8539 30.7346V34.9286C69.1779 34.5206 69.5739 34.1906 70.0419 33.9386C70.5099 33.6866 71.1039 33.5606 71.8239 33.5606C72.6039 33.5606 73.2639 33.7346 73.8039 34.0826C74.3559 34.4186 74.7699 34.8926 75.0459 35.5046C75.3339 36.1046 75.4779 36.8066 75.4779 37.6106V42.6866C75.4779 42.8066 75.4419 42.9086 75.3699 42.9926C75.2979 43.0646 75.1959 43.1006 75.0639 43.1006H74.1639C74.0439 43.1006 73.9419 43.0646 73.8579 42.9926C73.7859 42.9086 73.7499 42.8066 73.7499 42.6866V37.7006C73.7499 36.8606 73.5459 36.2066 73.1379 35.7386C72.7299 35.2586 72.1299 35.0186 71.3379 35.0186C70.5939 35.0186 69.9939 35.2586 69.5379 35.7386C69.0819 36.2066 68.8539 36.8606 68.8539 37.7006V42.6866C68.8539 42.8066 68.8179 42.9086 68.7459 42.9926C68.6739 43.0646 68.5719 43.1006 68.4399 43.1006H67.5399ZM80.3267 43.2806C79.7267 43.2806 79.1807 43.1606 78.6887 42.9206C78.1967 42.6806 77.8007 42.3566 77.5007 41.9486C77.2007 41.5406 77.0507 41.0786 77.0507 40.5626C77.0507 39.7346 77.3867 39.0746 78.0587 38.5826C78.7307 38.0906 79.6067 37.7666 80.6867 37.6106L83.3687 37.2326V36.7106C83.3687 36.1346 83.2007 35.6846 82.8647 35.3606C82.5407 35.0366 82.0067 34.8746 81.2627 34.8746C80.7227 34.8746 80.2847 34.9826 79.9487 35.1986C79.6247 35.4146 79.3967 35.6906 79.2647 36.0266C79.1927 36.2066 79.0667 36.2966 78.8867 36.2966H78.0767C77.9447 36.2966 77.8427 36.2606 77.7707 36.1886C77.7107 36.1046 77.6807 36.0086 77.6807 35.9006C77.6807 35.7206 77.7467 35.4986 77.8787 35.2346C78.0227 34.9706 78.2387 34.7126 78.5267 34.4606C78.8147 34.2086 79.1807 33.9986 79.6247 33.8306C80.0807 33.6506 80.6327 33.5606 81.2807 33.5606C82.0007 33.5606 82.6067 33.6566 83.0987 33.8486C83.5907 34.0286 83.9747 34.2746 84.2507 34.5866C84.5387 34.8986 84.7427 35.2526 84.8627 35.6486C84.9947 36.0446 85.0607 36.4466 85.0607 36.8546V42.6866C85.0607 42.8066 85.0187 42.9086 84.9347 42.9926C84.8627 43.0646 84.7667 43.1006 84.6467 43.1006H83.8187C83.6867 43.1006 83.5847 43.0646 83.5127 42.9926C83.4407 42.9086 83.4047 42.8066 83.4047 42.6866V41.9126C83.2487 42.1286 83.0387 42.3446 82.7747 42.5606C82.5107 42.7646 82.1807 42.9386 81.7847 43.0826C81.3887 43.2146 80.9027 43.2806 80.3267 43.2806ZM80.7047 41.9306C81.1967 41.9306 81.6467 41.8286 82.0547 41.6246C82.4627 41.4086 82.7807 41.0786 83.0087 40.6346C83.2487 40.1906 83.3687 39.6326 83.3687 38.9606V38.4566L81.2807 38.7626C80.4287 38.8826 79.7867 39.0866 79.3547 39.3746C78.9227 39.6506 78.7067 40.0046 78.7067 40.4366C78.7067 40.7726 78.8027 41.0546 78.9947 41.2826C79.1987 41.4986 79.4507 41.6606 79.7507 41.7686C80.0627 41.8766 80.3807 41.9306 80.7047 41.9306ZM87.7023 43.1006C87.5823 43.1006 87.4803 43.0646 87.3963 42.9926C87.3243 42.9086 87.2883 42.8066 87.2883 42.6866V34.1546C87.2883 34.0346 87.3243 33.9386 87.3963 33.8666C87.4803 33.7826 87.5823 33.7406 87.7023 33.7406H88.5663C88.6863 33.7406 88.7823 33.7826 88.8543 33.8666C88.9263 33.9386 88.9623 34.0346 88.9623 34.1546V42.6866C88.9623 42.8066 88.9263 42.9086 88.8543 42.9926C88.7823 43.0646 88.6863 43.1006 88.5663 43.1006H87.7023ZM87.5583 31.9946C87.4383 31.9946 87.3363 31.9586 87.2523 31.8866C87.1803 31.8026 87.1443 31.7006 87.1443 31.5806V30.6086C87.1443 30.4886 87.1803 30.3926 87.2523 30.3206C87.3363 30.2366 87.4383 30.1946 87.5583 30.1946H88.6923C88.8123 30.1946 88.9083 30.2366 88.9803 30.3206C89.0643 30.3926 89.1063 30.4886 89.1063 30.6086V31.5806C89.1063 31.7006 89.0643 31.8026 88.9803 31.8866C88.9083 31.9586 88.8123 31.9946 88.6923 31.9946H87.5583ZM91.7017 43.1006C91.5817 43.1006 91.4797 43.0646 91.3957 42.9926C91.3237 42.9086 91.2877 42.8066 91.2877 42.6866V34.1546C91.2877 34.0346 91.3237 33.9386 91.3957 33.8666C91.4797 33.7826 91.5817 33.7406 91.7017 33.7406H92.5477C92.6677 33.7406 92.7637 33.7826 92.8357 33.8666C92.9197 33.9386 92.9617 34.0346 92.9617 34.1546V34.9466C93.2737 34.5386 93.6637 34.2086 94.1317 33.9566C94.6117 33.6926 95.2237 33.5606 95.9677 33.5606C96.7477 33.5606 97.4077 33.7346 97.9477 34.0826C98.4997 34.4186 98.9137 34.8926 99.1897 35.5046C99.4657 36.1046 99.6037 36.8066 99.6037 37.6106V42.6866C99.6037 42.8066 99.5677 42.9086 99.4957 42.9926C99.4237 43.0646 99.3277 43.1006 99.2077 43.1006H98.3077C98.1877 43.1006 98.0857 43.0646 98.0017 42.9926C97.9297 42.9086 97.8937 42.8066 97.8937 42.6866V37.7006C97.8937 36.8606 97.6897 36.2066 97.2817 35.7386C96.8737 35.2586 96.2737 35.0186 95.4817 35.0186C94.7377 35.0186 94.1377 35.2586 93.6817 35.7386C93.2377 36.2066 93.0157 36.8606 93.0157 37.7006V42.6866C93.0157 42.8066 92.9737 42.9086 92.8897 42.9926C92.8177 43.0646 92.7217 43.1006 92.6017 43.1006H91.7017ZM106.544 43.1006C106.412 43.1006 106.31 43.0646 106.238 42.9926C106.166 42.9086 106.13 42.8066 106.13 42.6866V30.9326C106.13 30.8006 106.166 30.6986 106.238 30.6266C106.31 30.5426 106.412 30.5006 106.544 30.5006H111.116C112.004 30.5006 112.772 30.6446 113.42 30.9326C114.08 31.2206 114.59 31.6526 114.95 32.2286C115.31 32.7926 115.49 33.5006 115.49 34.3526C115.49 35.2046 115.31 35.9126 114.95 36.4766C114.59 37.0406 114.08 37.4666 113.42 37.7546C112.772 38.0426 112.004 38.1866 111.116 38.1866H107.93V42.6866C107.93 42.8066 107.888 42.9086 107.804 42.9926C107.732 43.0646 107.63 43.1006 107.498 43.1006H106.544ZM107.912 36.6746H111.026C111.914 36.6746 112.58 36.4766 113.024 36.0806C113.468 35.6846 113.69 35.1086 113.69 34.3526C113.69 33.6086 113.474 33.0326 113.042 32.6246C112.61 32.2166 111.938 32.0126 111.026 32.0126H107.912V36.6746ZM117.499 43.1006C117.379 43.1006 117.277 43.0646 117.193 42.9926C117.121 42.9086 117.085 42.8066 117.085 42.6866V34.1726C117.085 34.0526 117.121 33.9506 117.193 33.8666C117.277 33.7826 117.379 33.7406 117.499 33.7406H118.327C118.447 33.7406 118.549 33.7826 118.633 33.8666C118.717 33.9506 118.759 34.0526 118.759 34.1726V34.9646C118.999 34.5566 119.329 34.2506 119.749 34.0466C120.169 33.8426 120.673 33.7406 121.261 33.7406H121.981C122.101 33.7406 122.197 33.7826 122.269 33.8666C122.341 33.9386 122.377 34.0346 122.377 34.1546V34.8926C122.377 35.0126 122.341 35.1086 122.269 35.1806C122.197 35.2526 122.101 35.2886 121.981 35.2886H120.901C120.253 35.2886 119.743 35.4806 119.371 35.8646C118.999 36.2366 118.813 36.7466 118.813 37.3946V42.6866C118.813 42.8066 118.771 42.9086 118.687 42.9926C118.603 43.0646 118.501 43.1006 118.381 43.1006H117.499ZM127.221 43.2806C126.309 43.2806 125.547 43.1066 124.935 42.7586C124.323 42.4106 123.855 41.9306 123.531 41.3186C123.207 40.6946 123.027 39.9866 122.991 39.1946C122.979 38.9906 122.973 38.7326 122.973 38.4206C122.973 38.0966 122.979 37.8386 122.991 37.6466C123.027 36.8426 123.207 36.1346 123.531 35.5226C123.867 34.9106 124.341 34.4306 124.953 34.0826C125.565 33.7346 126.321 33.5606 127.221 33.5606C128.121 33.5606 128.877 33.7346 129.489 34.0826C130.101 34.4306 130.569 34.9106 130.893 35.5226C131.229 36.1346 131.415 36.8426 131.451 37.6466C131.463 37.8386 131.469 38.0966 131.469 38.4206C131.469 38.7326 131.463 38.9906 131.451 39.1946C131.415 39.9866 131.235 40.6946 130.911 41.3186C130.587 41.9306 130.119 42.4106 129.507 42.7586C128.895 43.1066 128.133 43.2806 127.221 43.2806ZM127.221 41.8946C127.965 41.8946 128.559 41.6606 129.003 41.1926C129.447 40.7126 129.687 40.0166 129.723 39.1046C129.735 38.9246 129.741 38.6966 129.741 38.4206C129.741 38.1446 129.735 37.9166 129.723 37.7366C129.687 36.8246 129.447 36.1346 129.003 35.6666C128.559 35.1866 127.965 34.9466 127.221 34.9466C126.477 34.9466 125.877 35.1866 125.421 35.6666C124.977 36.1346 124.743 36.8246 124.719 37.7366C124.707 37.9166 124.701 38.1446 124.701 38.4206C124.701 38.6966 124.707 38.9246 124.719 39.1046C124.743 40.0166 124.977 40.7126 125.421 41.1926C125.877 41.6606 126.477 41.8946 127.221 41.8946ZM134.607 43.1006C134.487 43.1006 134.385 43.0646 134.301 42.9926C134.229 42.9086 134.193 42.8066 134.193 42.6866V35.1806H132.663C132.543 35.1806 132.441 35.1446 132.357 35.0726C132.285 34.9886 132.249 34.8866 132.249 34.7666V34.1546C132.249 34.0346 132.285 33.9386 132.357 33.8666C132.441 33.7826 132.543 33.7406 132.663 33.7406H134.193V32.8406C134.193 32.2286 134.295 31.6946 134.499 31.2386C134.703 30.7706 135.027 30.4106 135.471 30.1586C135.927 29.9066 136.533 29.7806 137.289 29.7806H140.061C140.181 29.7806 140.277 29.8226 140.349 29.9066C140.433 29.9786 140.475 30.0746 140.475 30.1946V30.8066C140.475 30.9266 140.433 31.0286 140.349 31.1126C140.277 31.1846 140.181 31.2206 140.061 31.2206H137.325C136.761 31.2206 136.377 31.3706 136.173 31.6706C135.969 31.9586 135.867 32.3786 135.867 32.9306V33.7406H140.061C140.181 33.7406 140.277 33.7826 140.349 33.8666C140.433 33.9386 140.475 34.0346 140.475 34.1546V42.6866C140.475 42.8066 140.433 42.9086 140.349 42.9926C140.277 43.0646 140.181 43.1006 140.061 43.1006H139.233C139.101 43.1006 138.999 43.0646 138.927 42.9926C138.855 42.9086 138.819 42.8066 138.819 42.6866V35.1806H135.867V42.6866C135.867 42.8066 135.825 42.9086 135.741 42.9926C135.669 43.0646 135.573 43.1006 135.453 43.1006H134.607ZM146.556 43.2806C145.704 43.2806 144.966 43.1186 144.342 42.7946C143.73 42.4586 143.256 41.9846 142.92 41.3726C142.584 40.7486 142.404 40.0046 142.38 39.1406C142.368 38.9606 142.362 38.7206 142.362 38.4206C142.362 38.1206 142.368 37.8806 142.38 37.7006C142.404 36.8366 142.584 36.0986 142.92 35.4866C143.256 34.8626 143.73 34.3886 144.342 34.0646C144.966 33.7286 145.704 33.5606 146.556 33.5606C147.252 33.5606 147.846 33.6566 148.338 33.8486C148.842 34.0406 149.256 34.2866 149.58 34.5866C149.904 34.8866 150.144 35.2106 150.3 35.5586C150.468 35.9066 150.558 36.2366 150.57 36.5486C150.582 36.6686 150.546 36.7646 150.462 36.8366C150.378 36.9086 150.276 36.9446 150.156 36.9446H149.292C149.172 36.9446 149.082 36.9206 149.022 36.8726C148.962 36.8126 148.902 36.7166 148.842 36.5846C148.626 35.9966 148.332 35.5826 147.96 35.3426C147.588 35.1026 147.126 34.9826 146.574 34.9826C145.854 34.9826 145.266 35.2046 144.81 35.6486C144.366 36.0926 144.126 36.8066 144.09 37.7906C144.078 38.2226 144.078 38.6426 144.09 39.0506C144.126 40.0466 144.366 40.7666 144.81 41.2106C145.266 41.6426 145.854 41.8586 146.574 41.8586C147.126 41.8586 147.588 41.7386 147.96 41.4986C148.332 41.2586 148.626 40.8446 148.842 40.2566C148.902 40.1246 148.962 40.0346 149.022 39.9866C149.082 39.9266 149.172 39.8966 149.292 39.8966H150.156C150.276 39.8966 150.378 39.9326 150.462 40.0046C150.546 40.0766 150.582 40.1726 150.57 40.2926C150.558 40.5446 150.504 40.8026 150.408 41.0666C150.312 41.3306 150.156 41.6006 149.94 41.8766C149.736 42.1406 149.478 42.3806 149.166 42.5966C148.854 42.8006 148.476 42.9686 148.032 43.1006C147.6 43.2206 147.108 43.2806 146.556 43.2806ZM152.762 43.1006C152.642 43.1006 152.54 43.0646 152.456 42.9926C152.384 42.9086 152.348 42.8066 152.348 42.6866V34.1546C152.348 34.0346 152.384 33.9386 152.456 33.8666C152.54 33.7826 152.642 33.7406 152.762 33.7406H153.626C153.746 33.7406 153.842 33.7826 153.914 33.8666C153.986 33.9386 154.022 34.0346 154.022 34.1546V42.6866C154.022 42.8066 153.986 42.9086 153.914 42.9926C153.842 43.0646 153.746 43.1006 153.626 43.1006H152.762ZM152.618 31.9946C152.498 31.9946 152.396 31.9586 152.312 31.8866C152.24 31.8026 152.204 31.7006 152.204 31.5806V30.6086C152.204 30.4886 152.24 30.3926 152.312 30.3206C152.396 30.2366 152.498 30.1946 152.618 30.1946H153.752C153.872 30.1946 153.968 30.2366 154.04 30.3206C154.124 30.3926 154.166 30.4886 154.166 30.6086V31.5806C154.166 31.7006 154.124 31.8026 154.04 31.8866C153.968 31.9586 153.872 31.9946 153.752 31.9946H152.618ZM160.073 43.2806C158.837 43.2806 157.853 42.9026 157.121 42.1466C156.389 41.3786 155.987 40.3346 155.915 39.0146C155.903 38.8586 155.897 38.6606 155.897 38.4206C155.897 38.1686 155.903 37.9646 155.915 37.8086C155.963 36.9566 156.161 36.2126 156.509 35.5766C156.857 34.9286 157.331 34.4306 157.931 34.0826C158.543 33.7346 159.257 33.5606 160.073 33.5606C160.985 33.5606 161.747 33.7526 162.359 34.1366C162.983 34.5206 163.457 35.0666 163.781 35.7746C164.105 36.4826 164.267 37.3106 164.267 38.2586V38.5646C164.267 38.6966 164.225 38.7986 164.141 38.8706C164.069 38.9426 163.973 38.9786 163.853 38.9786H157.625C157.625 38.9906 157.625 39.0146 157.625 39.0506C157.625 39.0866 157.625 39.1166 157.625 39.1406C157.649 39.6326 157.757 40.0946 157.949 40.5266C158.141 40.9466 158.417 41.2886 158.777 41.5526C159.137 41.8166 159.569 41.9486 160.073 41.9486C160.505 41.9486 160.865 41.8826 161.153 41.7506C161.441 41.6186 161.675 41.4746 161.855 41.3186C162.035 41.1506 162.155 41.0246 162.215 40.9406C162.323 40.7846 162.407 40.6946 162.467 40.6706C162.527 40.6346 162.623 40.6166 162.755 40.6166H163.619C163.739 40.6166 163.835 40.6526 163.907 40.7246C163.991 40.7846 164.027 40.8746 164.015 40.9946C164.003 41.1746 163.907 41.3966 163.727 41.6606C163.547 41.9126 163.289 42.1646 162.953 42.4166C162.617 42.6686 162.209 42.8786 161.729 43.0466C161.249 43.2026 160.697 43.2806 160.073 43.2806ZM157.625 37.7366H162.557V37.6826C162.557 37.1426 162.455 36.6626 162.251 36.2426C162.059 35.8226 161.777 35.4926 161.405 35.2526C161.033 35.0006 160.589 34.8746 160.073 34.8746C159.557 34.8746 159.113 35.0006 158.741 35.2526C158.381 35.4926 158.105 35.8226 157.913 36.2426C157.721 36.6626 157.625 37.1426 157.625 37.6826V37.7366ZM166.473 43.1006C166.353 43.1006 166.251 43.0646 166.167 42.9926C166.095 42.9086 166.059 42.8066 166.059 42.6866V34.1546C166.059 34.0346 166.095 33.9386 166.167 33.8666C166.251 33.7826 166.353 33.7406 166.473 33.7406H167.319C167.439 33.7406 167.535 33.7826 167.607 33.8666C167.691 33.9386 167.733 34.0346 167.733 34.1546V34.9466C168.045 34.5386 168.435 34.2086 168.903 33.9566C169.383 33.6926 169.995 33.5606 170.739 33.5606C171.519 33.5606 172.179 33.7346 172.719 34.0826C173.271 34.4186 173.685 34.8926 173.961 35.5046C174.237 36.1046 174.375 36.8066 174.375 37.6106V42.6866C174.375 42.8066 174.339 42.9086 174.267 42.9926C174.195 43.0646 174.099 43.1006 173.979 43.1006H173.079C172.959 43.1006 172.857 43.0646 172.773 42.9926C172.701 42.9086 172.665 42.8066 172.665 42.6866V37.7006C172.665 36.8606 172.461 36.2066 172.053 35.7386C171.645 35.2586 171.045 35.0186 170.253 35.0186C169.509 35.0186 168.909 35.2586 168.453 35.7386C168.009 36.2066 167.787 36.8606 167.787 37.7006V42.6866C167.787 42.8066 167.745 42.9086 167.661 42.9926C167.589 43.0646 167.493 43.1006 167.373 43.1006H166.473ZM180.395 43.2806C179.543 43.2806 178.805 43.1186 178.181 42.7946C177.569 42.4586 177.095 41.9846 176.759 41.3726C176.423 40.7486 176.243 40.0046 176.219 39.1406C176.207 38.9606 176.201 38.7206 176.201 38.4206C176.201 38.1206 176.207 37.8806 176.219 37.7006C176.243 36.8366 176.423 36.0986 176.759 35.4866C177.095 34.8626 177.569 34.3886 178.181 34.0646C178.805 33.7286 179.543 33.5606 180.395 33.5606C181.091 33.5606 181.685 33.6566 182.177 33.8486C182.681 34.0406 183.095 34.2866 183.419 34.5866C183.743 34.8866 183.983 35.2106 184.139 35.5586C184.307 35.9066 184.397 36.2366 184.409 36.5486C184.421 36.6686 184.385 36.7646 184.301 36.8366C184.217 36.9086 184.115 36.9446 183.995 36.9446H183.131C183.011 36.9446 182.921 36.9206 182.861 36.8726C182.801 36.8126 182.741 36.7166 182.681 36.5846C182.465 35.9966 182.171 35.5826 181.799 35.3426C181.427 35.1026 180.965 34.9826 180.413 34.9826C179.693 34.9826 179.105 35.2046 178.649 35.6486C178.205 36.0926 177.965 36.8066 177.929 37.7906C177.917 38.2226 177.917 38.6426 177.929 39.0506C177.965 40.0466 178.205 40.7666 178.649 41.2106C179.105 41.6426 179.693 41.8586 180.413 41.8586C180.965 41.8586 181.427 41.7386 181.799 41.4986C182.171 41.2586 182.465 40.8446 182.681 40.2566C182.741 40.1246 182.801 40.0346 182.861 39.9866C182.921 39.9266 183.011 39.8966 183.131 39.8966H183.995C184.115 39.8966 184.217 39.9326 184.301 40.0046C184.385 40.0766 184.421 40.1726 184.409 40.2926C184.397 40.5446 184.343 40.8026 184.247 41.0666C184.151 41.3306 183.995 41.6006 183.779 41.8766C183.575 42.1406 183.317 42.3806 183.005 42.5966C182.693 42.8006 182.315 42.9686 181.871 43.1006C181.439 43.2206 180.947 43.2806 180.395 43.2806ZM187.561 46.5206C187.465 46.5206 187.381 46.4846 187.309 46.4126C187.237 46.3406 187.201 46.2566 187.201 46.1606C187.201 46.1126 187.207 46.0646 187.219 46.0166C187.231 45.9686 187.255 45.9086 187.291 45.8366L188.677 42.5426L185.239 34.4246C185.179 34.2806 185.149 34.1786 185.149 34.1186C185.149 34.0106 185.185 33.9206 185.257 33.8486C185.329 33.7766 185.419 33.7406 185.527 33.7406H186.409C186.529 33.7406 186.625 33.7706 186.697 33.8306C186.769 33.8906 186.817 33.9626 186.841 34.0466L189.577 40.5986L192.385 34.0466C192.421 33.9626 192.469 33.8906 192.529 33.8306C192.601 33.7706 192.703 33.7406 192.835 33.7406H193.681C193.789 33.7406 193.879 33.7766 193.951 33.8486C194.023 33.9206 194.059 34.0046 194.059 34.1006C194.059 34.1606 194.029 34.2686 193.969 34.4246L188.857 46.2146C188.821 46.2986 188.767 46.3706 188.695 46.4306C188.635 46.4906 188.539 46.5206 188.407 46.5206H187.561Z" fill="white"/>
<rect x="248" y="16.6006" width="40" height="40" rx="20" fill="white"/>
<path d="M269.118 42.6006C268.998 42.6006 268.896 42.5646 268.812 42.4926C268.74 42.4086 268.704 42.3066 268.704 42.1866V32.1066L265.716 34.4106C265.62 34.4826 265.518 34.5126 265.41 34.5006C265.302 34.4886 265.212 34.4346 265.14 34.3386L264.672 33.7446C264.6 33.6366 264.57 33.5286 264.582 33.4206C264.606 33.3126 264.666 33.2226 264.762 33.1506L268.686 30.1266C268.77 30.0666 268.848 30.0306 268.92 30.0186C268.992 30.0066 269.07 30.0006 269.154 30.0006H270.072C270.192 30.0006 270.288 30.0426 270.36 30.1266C270.432 30.1986 270.468 30.2946 270.468 30.4146V42.1866C270.468 42.3066 270.432 42.4086 270.36 42.4926C270.288 42.5646 270.192 42.6006 270.072 42.6006H269.118Z" fill="#059E93"/>
</svg>
