<svg width="320" height="79" viewBox="0 0 320 79" fill="none" xmlns="http://www.w3.org/2000/svg">
<path d="M290.02 5H7.37953C4.20397 5 2.29463 8.5225 4.02793 11.1833L22.6803 39.8167C23.5449 41.1439 23.5449 42.8561 22.6803 44.1833L4.02793 72.8167C2.29463 75.4775 4.20396 79 7.37951 79H290.02C291.273 79 292.454 78.4127 293.21 77.4133L318.174 44.4132C319.254 42.9857 319.254 41.0143 318.174 39.5868L293.21 6.58675C292.454 5.58732 291.273 5 290.02 5Z" fill="#B9431D"/>
<path d="M290.02 0H7.37953C4.20397 0 2.29463 3.5225 4.02793 6.1833L22.6803 34.8167C23.5449 36.1439 23.5449 37.8561 22.6803 39.1833L4.02793 67.8167C2.29463 70.4775 4.20396 74 7.37951 74H290.02C291.273 74 292.454 73.4127 293.21 72.4133L318.174 39.4132C319.254 37.9857 319.254 36.0143 318.174 34.5868L293.21 1.58675C292.454 0.587322 291.273 0 290.02 0Z" fill="#EB714A"/>
<path d="M34.3594 43.1006C34.2274 43.1006 34.1254 43.0646 34.0534 42.9926C33.9814 42.9086 33.9454 42.8066 33.9454 42.6866V30.9326C33.9454 30.8006 33.9814 30.6986 34.0534 30.6266C34.1254 30.5426 34.2274 30.5006 34.3594 30.5006H38.9314C39.8194 30.5006 40.5874 30.6446 41.2354 30.9326C41.8954 31.2206 42.4054 31.6526 42.7654 32.2286C43.1254 32.7926 43.3054 33.5006 43.3054 34.3526C43.3054 35.2046 43.1254 35.9126 42.7654 36.4766C42.4054 37.0406 41.8954 37.4666 41.2354 37.7546C40.5874 38.0426 39.8194 38.1866 38.9314 38.1866H35.7454V42.6866C35.7454 42.8066 35.7034 42.9086 35.6194 42.9926C35.5474 43.0646 35.4454 43.1006 35.3134 43.1006H34.3594ZM35.7274 36.6746H38.8414C39.7294 36.6746 40.3954 36.4766 40.8394 36.0806C41.2834 35.6846 41.5054 35.1086 41.5054 34.3526C41.5054 33.6086 41.2894 33.0326 40.8574 32.6246C40.4254 32.2166 39.7534 32.0126 38.8414 32.0126H35.7274V36.6746ZM45.3322 43.1006C45.2122 43.1006 45.1102 43.0646 45.0262 42.9926C44.9542 42.9086 44.9182 42.8066 44.9182 42.6866V30.7346C44.9182 30.6146 44.9542 30.5186 45.0262 30.4466C45.1102 30.3626 45.2122 30.3206 45.3322 30.3206H46.1782C46.3102 30.3206 46.4122 30.3626 46.4842 30.4466C46.5562 30.5186 46.5922 30.6146 46.5922 30.7346V42.6866C46.5922 42.8066 46.5562 42.9086 46.4842 42.9926C46.4122 43.0646 46.3102 43.1006 46.1782 43.1006H45.3322ZM51.5272 43.2806C50.9272 43.2806 50.3812 43.1606 49.8892 42.9206C49.3972 42.6806 49.0012 42.3566 48.7012 41.9486C48.4012 41.5406 48.2512 41.0786 48.2512 40.5626C48.2512 39.7346 48.5872 39.0746 49.2592 38.5826C49.9312 38.0906 50.8072 37.7666 51.8872 37.6106L54.5692 37.2326V36.7106C54.5692 36.1346 54.4012 35.6846 54.0652 35.3606C53.7412 35.0366 53.2072 34.8746 52.4632 34.8746C51.9232 34.8746 51.4852 34.9826 51.1492 35.1986C50.8252 35.4146 50.5972 35.6906 50.4652 36.0266C50.3932 36.2066 50.2672 36.2966 50.0872 36.2966H49.2772C49.1452 36.2966 49.0432 36.2606 48.9712 36.1886C48.9112 36.1046 48.8812 36.0086 48.8812 35.9006C48.8812 35.7206 48.9472 35.4986 49.0792 35.2346C49.2232 34.9706 49.4392 34.7126 49.7272 34.4606C50.0152 34.2086 50.3812 33.9986 50.8252 33.8306C51.2812 33.6506 51.8332 33.5606 52.4812 33.5606C53.2012 33.5606 53.8072 33.6566 54.2992 33.8486C54.7912 34.0286 55.1752 34.2746 55.4512 34.5866C55.7392 34.8986 55.9432 35.2526 56.0632 35.6486C56.1952 36.0446 56.2612 36.4466 56.2612 36.8546V42.6866C56.2612 42.8066 56.2192 42.9086 56.1352 42.9926C56.0632 43.0646 55.9672 43.1006 55.8472 43.1006H55.0192C54.8872 43.1006 54.7852 43.0646 54.7132 42.9926C54.6412 42.9086 54.6052 42.8066 54.6052 42.6866V41.9126C54.4492 42.1286 54.2392 42.3446 53.9752 42.5606C53.7112 42.7646 53.3812 42.9386 52.9852 43.0826C52.5892 43.2146 52.1032 43.2806 51.5272 43.2806ZM51.9052 41.9306C52.3972 41.9306 52.8472 41.8286 53.2552 41.6246C53.6632 41.4086 53.9812 41.0786 54.2092 40.6346C54.4492 40.1906 54.5692 39.6326 54.5692 38.9606V38.4566L52.4812 38.7626C51.6292 38.8826 50.9872 39.0866 50.5552 39.3746C50.1232 39.6506 49.9072 40.0046 49.9072 40.4366C49.9072 40.7726 50.0032 41.0546 50.1952 41.2826C50.3992 41.4986 50.6512 41.6606 50.9512 41.7686C51.2632 41.8766 51.5812 41.9306 51.9052 41.9306ZM62.2688 43.2806C61.4168 43.2806 60.6788 43.1186 60.0548 42.7946C59.4428 42.4586 58.9688 41.9846 58.6328 41.3726C58.2968 40.7486 58.1168 40.0046 58.0928 39.1406C58.0808 38.9606 58.0748 38.7206 58.0748 38.4206C58.0748 38.1206 58.0808 37.8806 58.0928 37.7006C58.1168 36.8366 58.2968 36.0986 58.6328 35.4866C58.9688 34.8626 59.4428 34.3886 60.0548 34.0646C60.6788 33.7286 61.4168 33.5606 62.2688 33.5606C62.9648 33.5606 63.5588 33.6566 64.0508 33.8486C64.5548 34.0406 64.9688 34.2866 65.2928 34.5866C65.6168 34.8866 65.8568 35.2106 66.0128 35.5586C66.1808 35.9066 66.2708 36.2366 66.2828 36.5486C66.2948 36.6686 66.2588 36.7646 66.1748 36.8366C66.0908 36.9086 65.9888 36.9446 65.8688 36.9446H65.0048C64.8848 36.9446 64.7948 36.9206 64.7348 36.8726C64.6748 36.8126 64.6148 36.7166 64.5548 36.5846C64.3388 35.9966 64.0448 35.5826 63.6728 35.3426C63.3008 35.1026 62.8388 34.9826 62.2868 34.9826C61.5668 34.9826 60.9788 35.2046 60.5228 35.6486C60.0788 36.0926 59.8388 36.8066 59.8028 37.7906C59.7908 38.2226 59.7908 38.6426 59.8028 39.0506C59.8388 40.0466 60.0788 40.7666 60.5228 41.2106C60.9788 41.6426 61.5668 41.8586 62.2868 41.8586C62.8388 41.8586 63.3008 41.7386 63.6728 41.4986C64.0448 41.2586 64.3388 40.8446 64.5548 40.2566C64.6148 40.1246 64.6748 40.0346 64.7348 39.9866C64.7948 39.9266 64.8848 39.8966 65.0048 39.8966H65.8688C65.9888 39.8966 66.0908 39.9326 66.1748 40.0046C66.2588 40.0766 66.2948 40.1726 66.2828 40.2926C66.2708 40.5446 66.2168 40.8026 66.1208 41.0666C66.0248 41.3306 65.8688 41.6006 65.6528 41.8766C65.4488 42.1406 65.1908 42.3806 64.8788 42.5966C64.5668 42.8006 64.1888 42.9686 63.7448 43.1006C63.3128 43.2206 62.8208 43.2806 62.2688 43.2806ZM71.7865 43.2806C70.5505 43.2806 69.5665 42.9026 68.8345 42.1466C68.1025 41.3786 67.7005 40.3346 67.6285 39.0146C67.6165 38.8586 67.6105 38.6606 67.6105 38.4206C67.6105 38.1686 67.6165 37.9646 67.6285 37.8086C67.6765 36.9566 67.8745 36.2126 68.2225 35.5766C68.5705 34.9286 69.0445 34.4306 69.6445 34.0826C70.2565 33.7346 70.9705 33.5606 71.7865 33.5606C72.6985 33.5606 73.4605 33.7526 74.0725 34.1366C74.6965 34.5206 75.1705 35.0666 75.4945 35.7746C75.8185 36.4826 75.9805 37.3106 75.9805 38.2586V38.5646C75.9805 38.6966 75.9385 38.7986 75.8545 38.8706C75.7825 38.9426 75.6865 38.9786 75.5665 38.9786H69.3385C69.3385 38.9906 69.3385 39.0146 69.3385 39.0506C69.3385 39.0866 69.3385 39.1166 69.3385 39.1406C69.3625 39.6326 69.4705 40.0946 69.6625 40.5266C69.8545 40.9466 70.1305 41.2886 70.4905 41.5526C70.8505 41.8166 71.2825 41.9486 71.7865 41.9486C72.2185 41.9486 72.5785 41.8826 72.8665 41.7506C73.1545 41.6186 73.3885 41.4746 73.5685 41.3186C73.7485 41.1506 73.8685 41.0246 73.9285 40.9406C74.0365 40.7846 74.1205 40.6946 74.1805 40.6706C74.2405 40.6346 74.3365 40.6166 74.4685 40.6166H75.3325C75.4525 40.6166 75.5485 40.6526 75.6205 40.7246C75.7045 40.7846 75.7405 40.8746 75.7285 40.9946C75.7165 41.1746 75.6205 41.3966 75.4405 41.6606C75.2605 41.9126 75.0025 42.1646 74.6665 42.4166C74.3305 42.6686 73.9225 42.8786 73.4425 43.0466C72.9625 43.2026 72.4105 43.2806 71.7865 43.2806ZM69.3385 37.7366H74.2705V37.6826C74.2705 37.1426 74.1685 36.6626 73.9645 36.2426C73.7725 35.8226 73.4905 35.4926 73.1185 35.2526C72.7465 35.0006 72.3025 34.8746 71.7865 34.8746C71.2705 34.8746 70.8265 35.0006 70.4545 35.2526C70.0945 35.4926 69.8185 35.8226 69.6265 36.2426C69.4345 36.6626 69.3385 37.1426 69.3385 37.6826V37.7366ZM78.1867 43.1006C78.0667 43.1006 77.9647 43.0646 77.8807 42.9926C77.8087 42.9086 77.7727 42.8066 77.7727 42.6866V34.1546C77.7727 34.0346 77.8087 33.9386 77.8807 33.8666C77.9647 33.7826 78.0667 33.7406 78.1867 33.7406H78.9967C79.1167 33.7406 79.2127 33.7826 79.2847 33.8666C79.3687 33.9386 79.4107 34.0346 79.4107 34.1546V34.7846C79.6867 34.4126 80.0347 34.1186 80.4547 33.9026C80.8747 33.6746 81.3787 33.5606 81.9667 33.5606C83.3227 33.5486 84.2827 34.1006 84.8467 35.2166C85.1227 34.7126 85.5247 34.3106 86.0527 34.0106C86.5807 33.7106 87.1807 33.5606 87.8527 33.5606C88.4767 33.5606 89.0407 33.7046 89.5447 33.9926C90.0607 34.2806 90.4627 34.7186 90.7507 35.3066C91.0507 35.8826 91.2007 36.6086 91.2007 37.4846V42.6866C91.2007 42.8066 91.1587 42.9086 91.0747 42.9926C91.0027 43.0646 90.9067 43.1006 90.7867 43.1006H89.9407C89.8207 43.1006 89.7187 43.0646 89.6347 42.9926C89.5627 42.9086 89.5267 42.8066 89.5267 42.6866V37.6466C89.5267 36.9746 89.4307 36.4466 89.2387 36.0626C89.0467 35.6786 88.7887 35.4086 88.4647 35.2526C88.1407 35.0966 87.7867 35.0186 87.4027 35.0186C87.0907 35.0186 86.7727 35.0966 86.4487 35.2526C86.1247 35.4086 85.8547 35.6786 85.6387 36.0626C85.4347 36.4466 85.3327 36.9746 85.3327 37.6466V42.6866C85.3327 42.8066 85.2907 42.9086 85.2067 42.9926C85.1347 43.0646 85.0387 43.1006 84.9187 43.1006H84.0727C83.9527 43.1006 83.8507 43.0646 83.7667 42.9926C83.6947 42.9086 83.6587 42.8066 83.6587 42.6866V37.6466C83.6587 36.9746 83.5567 36.4466 83.3527 36.0626C83.1487 35.6786 82.8847 35.4086 82.5607 35.2526C82.2367 35.0966 81.8947 35.0186 81.5347 35.0186C81.2227 35.0186 80.9047 35.0966 80.5807 35.2526C80.2567 35.4086 79.9867 35.6786 79.7707 36.0626C79.5667 36.4466 79.4647 36.9686 79.4647 37.6286V42.6866C79.4647 42.8066 79.4227 42.9086 79.3387 42.9926C79.2667 43.0646 79.1707 43.1006 79.0507 43.1006H78.1867ZM97.1348 43.2806C95.8988 43.2806 94.9148 42.9026 94.1828 42.1466C93.4508 41.3786 93.0488 40.3346 92.9768 39.0146C92.9648 38.8586 92.9588 38.6606 92.9588 38.4206C92.9588 38.1686 92.9648 37.9646 92.9768 37.8086C93.0248 36.9566 93.2228 36.2126 93.5708 35.5766C93.9188 34.9286 94.3928 34.4306 94.9928 34.0826C95.6048 33.7346 96.3188 33.5606 97.1348 33.5606C98.0468 33.5606 98.8088 33.7526 99.4208 34.1366C100.045 34.5206 100.519 35.0666 100.843 35.7746C101.167 36.4826 101.329 37.3106 101.329 38.2586V38.5646C101.329 38.6966 101.287 38.7986 101.203 38.8706C101.131 38.9426 101.035 38.9786 100.915 38.9786H94.6868C94.6868 38.9906 94.6868 39.0146 94.6868 39.0506C94.6868 39.0866 94.6868 39.1166 94.6868 39.1406C94.7108 39.6326 94.8188 40.0946 95.0108 40.5266C95.2028 40.9466 95.4788 41.2886 95.8388 41.5526C96.1988 41.8166 96.6308 41.9486 97.1348 41.9486C97.5668 41.9486 97.9268 41.8826 98.2148 41.7506C98.5028 41.6186 98.7368 41.4746 98.9168 41.3186C99.0968 41.1506 99.2168 41.0246 99.2768 40.9406C99.3848 40.7846 99.4688 40.6946 99.5288 40.6706C99.5888 40.6346 99.6848 40.6166 99.8168 40.6166H100.681C100.801 40.6166 100.897 40.6526 100.969 40.7246C101.053 40.7846 101.089 40.8746 101.077 40.9946C101.065 41.1746 100.969 41.3966 100.789 41.6606C100.609 41.9126 100.351 42.1646 100.015 42.4166C99.6788 42.6686 99.2708 42.8786 98.7908 43.0466C98.3108 43.2026 97.7588 43.2806 97.1348 43.2806ZM94.6868 37.7366H99.6188V37.6826C99.6188 37.1426 99.5168 36.6626 99.3128 36.2426C99.1208 35.8226 98.8388 35.4926 98.4668 35.2526C98.0948 35.0006 97.6508 34.8746 97.1348 34.8746C96.6188 34.8746 96.1748 35.0006 95.8028 35.2526C95.4428 35.4926 95.1668 35.8226 94.9748 36.2426C94.7828 36.6626 94.6868 37.1426 94.6868 37.6826V37.7366ZM103.535 43.1006C103.415 43.1006 103.313 43.0646 103.229 42.9926C103.157 42.9086 103.121 42.8066 103.121 42.6866V34.1546C103.121 34.0346 103.157 33.9386 103.229 33.8666C103.313 33.7826 103.415 33.7406 103.535 33.7406H104.381C104.501 33.7406 104.597 33.7826 104.669 33.8666C104.753 33.9386 104.795 34.0346 104.795 34.1546V34.9466C105.107 34.5386 105.497 34.2086 105.965 33.9566C106.445 33.6926 107.057 33.5606 107.801 33.5606C108.581 33.5606 109.241 33.7346 109.781 34.0826C110.333 34.4186 110.747 34.8926 111.023 35.5046C111.299 36.1046 111.437 36.8066 111.437 37.6106V42.6866C111.437 42.8066 111.401 42.9086 111.329 42.9926C111.257 43.0646 111.161 43.1006 111.041 43.1006H110.141C110.021 43.1006 109.919 43.0646 109.835 42.9926C109.763 42.9086 109.727 42.8066 109.727 42.6866V37.7006C109.727 36.8606 109.523 36.2066 109.115 35.7386C108.707 35.2586 108.107 35.0186 107.315 35.0186C106.571 35.0186 105.971 35.2586 105.515 35.7386C105.071 36.2066 104.849 36.8606 104.849 37.7006V42.6866C104.849 42.8066 104.807 42.9086 104.723 42.9926C104.651 43.0646 104.555 43.1006 104.435 43.1006H103.535ZM117.208 43.1006C116.536 43.1006 115.99 42.9746 115.57 42.7226C115.15 42.4586 114.844 42.0926 114.652 41.6246C114.46 41.1446 114.364 40.5806 114.364 39.9326V35.1806H112.96C112.84 35.1806 112.738 35.1446 112.654 35.0726C112.582 34.9886 112.546 34.8866 112.546 34.7666V34.1546C112.546 34.0346 112.582 33.9386 112.654 33.8666C112.738 33.7826 112.84 33.7406 112.96 33.7406H114.364V30.7346C114.364 30.6146 114.4 30.5186 114.472 30.4466C114.556 30.3626 114.658 30.3206 114.778 30.3206H115.624C115.744 30.3206 115.84 30.3626 115.912 30.4466C115.996 30.5186 116.038 30.6146 116.038 30.7346V33.7406H118.27C118.39 33.7406 118.486 33.7826 118.558 33.8666C118.642 33.9386 118.684 34.0346 118.684 34.1546V34.7666C118.684 34.8866 118.642 34.9886 118.558 35.0726C118.486 35.1446 118.39 35.1806 118.27 35.1806H116.038V39.8066C116.038 40.3706 116.134 40.8146 116.326 41.1386C116.518 41.4626 116.86 41.6246 117.352 41.6246H118.45C118.57 41.6246 118.666 41.6666 118.738 41.7506C118.822 41.8226 118.864 41.9186 118.864 42.0386V42.6866C118.864 42.8066 118.822 42.9086 118.738 42.9926C118.666 43.0646 118.57 43.1006 118.45 43.1006H117.208ZM128.561 43.2806C127.517 43.2806 126.641 43.1246 125.933 42.8126C125.225 42.4886 124.679 42.0746 124.295 41.5706C123.923 41.0546 123.725 40.5086 123.701 39.9326C123.701 39.8366 123.737 39.7526 123.809 39.6806C123.893 39.5966 123.989 39.5546 124.097 39.5546H125.015C125.159 39.5546 125.267 39.5906 125.339 39.6626C125.411 39.7346 125.459 39.8186 125.483 39.9146C125.543 40.2026 125.687 40.4906 125.915 40.7786C126.155 41.0546 126.485 41.2886 126.905 41.4806C127.337 41.6606 127.889 41.7506 128.561 41.7506C129.593 41.7506 130.349 41.5706 130.829 41.2106C131.321 40.8386 131.567 40.3466 131.567 39.7346C131.567 39.3146 131.435 38.9786 131.171 38.7266C130.919 38.4626 130.529 38.2286 130.001 38.0246C129.473 37.8206 128.789 37.5986 127.949 37.3586C127.073 37.1066 126.347 36.8306 125.771 36.5306C125.195 36.2306 124.763 35.8586 124.475 35.4146C124.199 34.9706 124.061 34.4066 124.061 33.7226C124.061 33.0746 124.235 32.4986 124.583 31.9946C124.931 31.4786 125.429 31.0706 126.077 30.7706C126.737 30.4706 127.535 30.3206 128.471 30.3206C129.215 30.3206 129.863 30.4226 130.415 30.6266C130.979 30.8186 131.447 31.0826 131.819 31.4186C132.191 31.7426 132.473 32.0966 132.665 32.4806C132.857 32.8526 132.959 33.2186 132.971 33.5786C132.971 33.6626 132.941 33.7466 132.881 33.8306C132.821 33.9026 132.725 33.9386 132.593 33.9386H131.639C131.555 33.9386 131.465 33.9146 131.369 33.8666C131.285 33.8186 131.219 33.7286 131.171 33.5966C131.099 33.1046 130.823 32.6906 130.343 32.3546C129.863 32.0186 129.239 31.8506 128.471 31.8506C127.691 31.8506 127.055 32.0006 126.563 32.3006C126.083 32.6006 125.843 33.0686 125.843 33.7046C125.843 34.1126 125.957 34.4546 126.185 34.7306C126.413 34.9946 126.773 35.2286 127.265 35.4326C127.757 35.6366 128.399 35.8526 129.191 36.0806C130.151 36.3446 130.937 36.6266 131.549 36.9266C132.161 37.2146 132.611 37.5806 132.899 38.0246C133.199 38.4566 133.349 39.0146 133.349 39.6986C133.349 40.4546 133.151 41.1026 132.755 41.6426C132.359 42.1706 131.801 42.5786 131.081 42.8666C130.373 43.1426 129.533 43.2806 128.561 43.2806ZM138.607 43.2806C137.839 43.2806 137.185 43.1126 136.645 42.7766C136.117 42.4286 135.715 41.9486 135.439 41.3366C135.163 40.7246 135.025 40.0226 135.025 39.2306V34.1546C135.025 34.0346 135.061 33.9386 135.133 33.8666C135.217 33.7826 135.319 33.7406 135.439 33.7406H136.339C136.459 33.7406 136.555 33.7826 136.627 33.8666C136.711 33.9386 136.753 34.0346 136.753 34.1546V39.1406C136.753 40.9286 137.533 41.8226 139.093 41.8226C139.837 41.8226 140.431 41.5886 140.875 41.1206C141.331 40.6406 141.559 39.9806 141.559 39.1406V34.1546C141.559 34.0346 141.595 33.9386 141.667 33.8666C141.751 33.7826 141.853 33.7406 141.973 33.7406H142.855C142.987 33.7406 143.089 33.7826 143.161 33.8666C143.233 33.9386 143.269 34.0346 143.269 34.1546V42.6866C143.269 42.8066 143.233 42.9086 143.161 42.9926C143.089 43.0646 142.987 43.1006 142.855 43.1006H142.027C141.907 43.1006 141.805 43.0646 141.721 42.9926C141.649 42.9086 141.613 42.8066 141.613 42.6866V41.8946C141.289 42.3146 140.893 42.6506 140.425 42.9026C139.969 43.1546 139.363 43.2806 138.607 43.2806ZM146.015 46.5206C145.895 46.5206 145.793 46.4786 145.709 46.3946C145.637 46.3226 145.601 46.2266 145.601 46.1066V34.1546C145.601 34.0346 145.637 33.9386 145.709 33.8666C145.793 33.7826 145.895 33.7406 146.015 33.7406H146.843C146.963 33.7406 147.059 33.7826 147.131 33.8666C147.215 33.9386 147.257 34.0346 147.257 34.1546V34.9466C147.545 34.5506 147.929 34.2206 148.409 33.9566C148.889 33.6926 149.489 33.5606 150.209 33.5606C150.881 33.5606 151.451 33.6746 151.919 33.9026C152.399 34.1306 152.789 34.4426 153.089 34.8386C153.401 35.2346 153.635 35.6846 153.791 36.1886C153.947 36.6926 154.031 37.2326 154.043 37.8086C154.055 38.0006 154.061 38.2046 154.061 38.4206C154.061 38.6366 154.055 38.8406 154.043 39.0326C154.031 39.5966 153.947 40.1366 153.791 40.6526C153.635 41.1566 153.401 41.6066 153.089 42.0026C152.789 42.3866 152.399 42.6986 151.919 42.9386C151.451 43.1666 150.881 43.2806 150.209 43.2806C149.513 43.2806 148.925 43.1546 148.445 42.9026C147.977 42.6386 147.593 42.3146 147.293 41.9306V46.1066C147.293 46.2266 147.257 46.3226 147.185 46.3946C147.113 46.4786 147.011 46.5206 146.879 46.5206H146.015ZM149.831 41.8226C150.455 41.8226 150.941 41.6906 151.289 41.4266C151.649 41.1506 151.907 40.7966 152.063 40.3646C152.219 39.9206 152.309 39.4466 152.333 38.9426C152.345 38.5946 152.345 38.2466 152.333 37.8986C152.309 37.3946 152.219 36.9266 152.063 36.4946C151.907 36.0506 151.649 35.6966 151.289 35.4326C150.941 35.1566 150.455 35.0186 149.831 35.0186C149.243 35.0186 148.763 35.1566 148.391 35.4326C148.031 35.7086 147.761 36.0626 147.581 36.4946C147.413 36.9146 147.317 37.3466 147.293 37.7906C147.281 37.9826 147.275 38.2106 147.275 38.4746C147.275 38.7386 147.281 38.9726 147.293 39.1766C147.305 39.5966 147.401 40.0106 147.581 40.4186C147.773 40.8266 148.055 41.1626 148.427 41.4266C148.799 41.6906 149.267 41.8226 149.831 41.8226ZM156.377 46.5206C156.257 46.5206 156.155 46.4786 156.071 46.3946C155.999 46.3226 155.963 46.2266 155.963 46.1066V34.1546C155.963 34.0346 155.999 33.9386 156.071 33.8666C156.155 33.7826 156.257 33.7406 156.377 33.7406H157.205C157.325 33.7406 157.421 33.7826 157.493 33.8666C157.577 33.9386 157.619 34.0346 157.619 34.1546V34.9466C157.907 34.5506 158.291 34.2206 158.771 33.9566C159.251 33.6926 159.851 33.5606 160.571 33.5606C161.243 33.5606 161.813 33.6746 162.281 33.9026C162.761 34.1306 163.151 34.4426 163.451 34.8386C163.763 35.2346 163.997 35.6846 164.153 36.1886C164.309 36.6926 164.393 37.2326 164.405 37.8086C164.417 38.0006 164.423 38.2046 164.423 38.4206C164.423 38.6366 164.417 38.8406 164.405 39.0326C164.393 39.5966 164.309 40.1366 164.153 40.6526C163.997 41.1566 163.763 41.6066 163.451 42.0026C163.151 42.3866 162.761 42.6986 162.281 42.9386C161.813 43.1666 161.243 43.2806 160.571 43.2806C159.875 43.2806 159.287 43.1546 158.807 42.9026C158.339 42.6386 157.955 42.3146 157.655 41.9306V46.1066C157.655 46.2266 157.619 46.3226 157.547 46.3946C157.475 46.4786 157.373 46.5206 157.241 46.5206H156.377ZM160.193 41.8226C160.817 41.8226 161.303 41.6906 161.651 41.4266C162.011 41.1506 162.269 40.7966 162.425 40.3646C162.581 39.9206 162.671 39.4466 162.695 38.9426C162.707 38.5946 162.707 38.2466 162.695 37.8986C162.671 37.3946 162.581 36.9266 162.425 36.4946C162.269 36.0506 162.011 35.6966 161.651 35.4326C161.303 35.1566 160.817 35.0186 160.193 35.0186C159.605 35.0186 159.125 35.1566 158.753 35.4326C158.393 35.7086 158.123 36.0626 157.943 36.4946C157.775 36.9146 157.679 37.3466 157.655 37.7906C157.643 37.9826 157.637 38.2106 157.637 38.4746C157.637 38.7386 157.643 38.9726 157.655 39.1766C157.667 39.5966 157.763 40.0106 157.943 40.4186C158.135 40.8266 158.417 41.1626 158.789 41.4266C159.161 41.6906 159.629 41.8226 160.193 41.8226ZM170.142 43.2806C169.23 43.2806 168.468 43.1066 167.856 42.7586C167.244 42.4106 166.776 41.9306 166.452 41.3186C166.128 40.6946 165.948 39.9866 165.912 39.1946C165.9 38.9906 165.894 38.7326 165.894 38.4206C165.894 38.0966 165.9 37.8386 165.912 37.6466C165.948 36.8426 166.128 36.1346 166.452 35.5226C166.788 34.9106 167.262 34.4306 167.874 34.0826C168.486 33.7346 169.242 33.5606 170.142 33.5606C171.042 33.5606 171.798 33.7346 172.41 34.0826C173.022 34.4306 173.49 34.9106 173.814 35.5226C174.15 36.1346 174.336 36.8426 174.372 37.6466C174.384 37.8386 174.39 38.0966 174.39 38.4206C174.39 38.7326 174.384 38.9906 174.372 39.1946C174.336 39.9866 174.156 40.6946 173.832 41.3186C173.508 41.9306 173.04 42.4106 172.428 42.7586C171.816 43.1066 171.054 43.2806 170.142 43.2806ZM170.142 41.8946C170.886 41.8946 171.48 41.6606 171.924 41.1926C172.368 40.7126 172.608 40.0166 172.644 39.1046C172.656 38.9246 172.662 38.6966 172.662 38.4206C172.662 38.1446 172.656 37.9166 172.644 37.7366C172.608 36.8246 172.368 36.1346 171.924 35.6666C171.48 35.1866 170.886 34.9466 170.142 34.9466C169.398 34.9466 168.798 35.1866 168.342 35.6666C167.898 36.1346 167.664 36.8246 167.64 37.7366C167.628 37.9166 167.622 38.1446 167.622 38.4206C167.622 38.6966 167.628 38.9246 167.64 39.1046C167.664 40.0166 167.898 40.7126 168.342 41.1926C168.798 41.6606 169.398 41.8946 170.142 41.8946ZM176.698 43.1006C176.578 43.1006 176.476 43.0646 176.392 42.9926C176.32 42.9086 176.284 42.8066 176.284 42.6866V34.1726C176.284 34.0526 176.32 33.9506 176.392 33.8666C176.476 33.7826 176.578 33.7406 176.698 33.7406H177.526C177.646 33.7406 177.748 33.7826 177.832 33.8666C177.916 33.9506 177.958 34.0526 177.958 34.1726V34.9646C178.198 34.5566 178.528 34.2506 178.948 34.0466C179.368 33.8426 179.872 33.7406 180.46 33.7406H181.18C181.3 33.7406 181.396 33.7826 181.468 33.8666C181.54 33.9386 181.576 34.0346 181.576 34.1546V34.8926C181.576 35.0126 181.54 35.1086 181.468 35.1806C181.396 35.2526 181.3 35.2886 181.18 35.2886H180.1C179.452 35.2886 178.942 35.4806 178.57 35.8646C178.198 36.2366 178.012 36.7466 178.012 37.3946V42.6866C178.012 42.8066 177.97 42.9086 177.886 42.9926C177.802 43.0646 177.7 43.1006 177.58 43.1006H176.698ZM186.416 43.1006C185.744 43.1006 185.198 42.9746 184.778 42.7226C184.358 42.4586 184.052 42.0926 183.86 41.6246C183.668 41.1446 183.572 40.5806 183.572 39.9326V35.1806H182.168C182.048 35.1806 181.946 35.1446 181.862 35.0726C181.79 34.9886 181.754 34.8866 181.754 34.7666V34.1546C181.754 34.0346 181.79 33.9386 181.862 33.8666C181.946 33.7826 182.048 33.7406 182.168 33.7406H183.572V30.7346C183.572 30.6146 183.608 30.5186 183.68 30.4466C183.764 30.3626 183.866 30.3206 183.986 30.3206H184.832C184.952 30.3206 185.048 30.3626 185.12 30.4466C185.204 30.5186 185.246 30.6146 185.246 30.7346V33.7406H187.478C187.598 33.7406 187.694 33.7826 187.766 33.8666C187.85 33.9386 187.892 34.0346 187.892 34.1546V34.7666C187.892 34.8866 187.85 34.9886 187.766 35.0726C187.694 35.1446 187.598 35.1806 187.478 35.1806H185.246V39.8066C185.246 40.3706 185.342 40.8146 185.534 41.1386C185.726 41.4626 186.068 41.6246 186.56 41.6246H187.658C187.778 41.6246 187.874 41.6666 187.946 41.7506C188.03 41.8226 188.072 41.9186 188.072 42.0386V42.6866C188.072 42.8066 188.03 42.9086 187.946 42.9926C187.874 43.0646 187.778 43.1006 187.658 43.1006H186.416Z" fill="white"/>
<rect x="247.92" y="16.6006" width="40" height="40" rx="20" fill="white"/>
<path d="M269.548 43.6006C269.428 43.6006 269.326 43.5646 269.242 43.4926C269.17 43.4086 269.134 43.3066 269.134 43.1866V40.5946H263.302C263.182 40.5946 263.08 40.5586 262.996 40.4866C262.924 40.4026 262.888 40.3006 262.888 40.1806V39.4606C262.888 39.4126 262.9 39.3406 262.924 39.2446C262.96 39.1366 263.014 39.0286 263.086 38.9206L268.486 31.3066C268.63 31.1026 268.852 31.0006 269.152 31.0006H270.448C270.568 31.0006 270.664 31.0426 270.736 31.1266C270.82 31.1986 270.862 31.2946 270.862 31.4146V39.0286H272.482C272.614 39.0286 272.716 39.0706 272.788 39.1546C272.872 39.2266 272.914 39.3226 272.914 39.4426V40.1806C272.914 40.3006 272.872 40.4026 272.788 40.4866C272.716 40.5586 272.62 40.5946 272.5 40.5946H270.862V43.1866C270.862 43.3066 270.82 43.4086 270.736 43.4926C270.664 43.5646 270.568 43.6006 270.448 43.6006H269.548ZM264.814 39.0646H269.152V32.8906L264.814 39.0646Z" fill="#EB714A"/>
</svg>
