<svg width="320" height="79" viewBox="0 0 320 79" fill="none" xmlns="http://www.w3.org/2000/svg">
<path d="M290.02 5H7.37953C4.20397 5 2.29463 8.5225 4.02793 11.1833L22.6803 39.8167C23.5449 41.1439 23.5449 42.8561 22.6803 44.1833L4.02793 72.8167C2.29463 75.4775 4.20396 79 7.37951 79H290.02C291.273 79 292.454 78.4127 293.21 77.4133L318.174 44.4132C319.254 42.9857 319.254 41.0143 318.174 39.5868L293.21 6.58675C292.454 5.58732 291.273 5 290.02 5Z" fill="#AD1848"/>
<path d="M290.02 0H7.37953C4.20397 0 2.29463 3.5225 4.02793 6.1833L22.6803 34.8167C23.5449 36.1439 23.5449 37.8561 22.6803 39.1833L4.02793 67.8167C2.29463 70.4775 4.20396 74 7.37951 74H290.02C291.273 74 292.454 73.4127 293.21 72.4133L318.174 39.4132C319.254 37.9857 319.254 36.0143 318.174 34.5868L293.21 1.58675C292.454 0.587322 291.273 0 290.02 0Z" fill="#DB2B63"/>
<path d="M34.1653 43.9004C34.0333 43.9004 33.9313 43.8644 33.8593 43.7924C33.7873 43.7084 33.7513 43.6064 33.7513 43.4864V31.7324C33.7513 31.6004 33.7873 31.4984 33.8593 31.4264C33.9313 31.3424 34.0333 31.3004 34.1653 31.3004H41.5093C41.6413 31.3004 41.7433 31.3424 41.8153 31.4264C41.8873 31.4984 41.9233 31.6004 41.9233 31.7324V32.4524C41.9233 32.5844 41.8873 32.6864 41.8153 32.7584C41.7433 32.8304 41.6413 32.8664 41.5093 32.8664H35.4973V37.0604H41.1493C41.2813 37.0604 41.3833 37.1024 41.4553 37.1864C41.5273 37.2584 41.5633 37.3604 41.5633 37.4924V38.2124C41.5633 38.3324 41.5273 38.4344 41.4553 38.5184C41.3833 38.5904 41.2813 38.6264 41.1493 38.6264H35.4973V43.4864C35.4973 43.6064 35.4553 43.7084 35.3713 43.7924C35.2993 43.8644 35.1973 43.9004 35.0653 43.9004H34.1653ZM46.9677 44.0804C46.1997 44.0804 45.5457 43.9124 45.0057 43.5764C44.4777 43.2284 44.0757 42.7484 43.7997 42.1364C43.5237 41.5244 43.3857 40.8224 43.3857 40.0304V34.9544C43.3857 34.8344 43.4217 34.7384 43.4937 34.6664C43.5777 34.5824 43.6797 34.5404 43.7997 34.5404H44.6997C44.8197 34.5404 44.9157 34.5824 44.9877 34.6664C45.0717 34.7384 45.1137 34.8344 45.1137 34.9544V39.9404C45.1137 41.7284 45.8937 42.6224 47.4537 42.6224C48.1977 42.6224 48.7917 42.3884 49.2357 41.9204C49.6917 41.4404 49.9197 40.7804 49.9197 39.9404V34.9544C49.9197 34.8344 49.9557 34.7384 50.0277 34.6664C50.1117 34.5824 50.2137 34.5404 50.3337 34.5404H51.2157C51.3477 34.5404 51.4497 34.5824 51.5217 34.6664C51.5937 34.7384 51.6297 34.8344 51.6297 34.9544V43.4864C51.6297 43.6064 51.5937 43.7084 51.5217 43.7924C51.4497 43.8644 51.3477 43.9004 51.2157 43.9004H50.3877C50.2677 43.9004 50.1657 43.8644 50.0817 43.7924C50.0097 43.7084 49.9737 43.6064 49.9737 43.4864V42.6944C49.6497 43.1144 49.2537 43.4504 48.7857 43.7024C48.3297 43.9544 47.7237 44.0804 46.9677 44.0804ZM54.3758 43.9004C54.2558 43.9004 54.1538 43.8644 54.0698 43.7924C53.9978 43.7084 53.9618 43.6064 53.9618 43.4864V31.5344C53.9618 31.4144 53.9978 31.3184 54.0698 31.2464C54.1538 31.1624 54.2558 31.1204 54.3758 31.1204H55.2218C55.3538 31.1204 55.4558 31.1624 55.5278 31.2464C55.5998 31.3184 55.6358 31.4144 55.6358 31.5344V43.4864C55.6358 43.6064 55.5998 43.7084 55.5278 43.7924C55.4558 43.8644 55.3538 43.9004 55.2218 43.9004H54.3758ZM58.3928 43.9004C58.2728 43.9004 58.1708 43.8644 58.0868 43.7924C58.0148 43.7084 57.9788 43.6064 57.9788 43.4864V31.5344C57.9788 31.4144 58.0148 31.3184 58.0868 31.2464C58.1708 31.1624 58.2728 31.1204 58.3928 31.1204H59.2388C59.3708 31.1204 59.4728 31.1624 59.5448 31.2464C59.6168 31.3184 59.6528 31.4144 59.6528 31.5344V43.4864C59.6528 43.6064 59.6168 43.7084 59.5448 43.7924C59.4728 43.8644 59.3708 43.9004 59.2388 43.9004H58.3928ZM65.2177 44.0804C64.5457 44.0804 63.9697 43.9964 63.4897 43.8284C63.0097 43.6604 62.6197 43.4564 62.3197 43.2164C62.0197 42.9764 61.7917 42.7364 61.6357 42.4964C61.4917 42.2564 61.4137 42.0644 61.4017 41.9204C61.3897 41.7884 61.4317 41.6864 61.5277 41.6144C61.6237 41.5424 61.7197 41.5064 61.8157 41.5064H62.6077C62.6797 41.5064 62.7337 41.5184 62.7697 41.5424C62.8177 41.5544 62.8777 41.6024 62.9497 41.6864C63.1057 41.8544 63.2797 42.0224 63.4717 42.1904C63.6637 42.3584 63.8977 42.4964 64.1737 42.6044C64.4617 42.7124 64.8157 42.7664 65.2357 42.7664C65.8477 42.7664 66.3517 42.6524 66.7477 42.4244C67.1437 42.1844 67.3417 41.8364 67.3417 41.3804C67.3417 41.0804 67.2577 40.8404 67.0897 40.6604C66.9337 40.4804 66.6457 40.3184 66.2257 40.1744C65.8177 40.0304 65.2537 39.8804 64.5337 39.7244C63.8137 39.5564 63.2437 39.3524 62.8237 39.1124C62.4037 38.8604 62.1037 38.5664 61.9237 38.2304C61.7437 37.8824 61.6537 37.4924 61.6537 37.0604C61.6537 36.6164 61.7857 36.1904 62.0497 35.7824C62.3137 35.3624 62.6977 35.0204 63.2017 34.7564C63.7177 34.4924 64.3597 34.3604 65.1277 34.3604C65.7517 34.3604 66.2857 34.4384 66.7297 34.5944C67.1737 34.7504 67.5397 34.9484 67.8277 35.1884C68.1157 35.4164 68.3317 35.6444 68.4757 35.8724C68.6197 36.1004 68.6977 36.2924 68.7097 36.4484C68.7217 36.5684 68.6857 36.6704 68.6017 36.7544C68.5177 36.8264 68.4217 36.8624 68.3137 36.8624H67.5577C67.4737 36.8624 67.4017 36.8444 67.3417 36.8084C67.2937 36.7724 67.2457 36.7304 67.1977 36.6824C67.0777 36.5264 66.9337 36.3704 66.7657 36.2144C66.6097 36.0584 66.3997 35.9324 66.1357 35.8364C65.8837 35.7284 65.5477 35.6744 65.1277 35.6744C64.5277 35.6744 64.0777 35.8004 63.7777 36.0524C63.4777 36.3044 63.3277 36.6224 63.3277 37.0064C63.3277 37.2344 63.3937 37.4384 63.5257 37.6184C63.6577 37.7984 63.9097 37.9604 64.2817 38.1044C64.6537 38.2484 65.2057 38.4044 65.9377 38.5724C66.7297 38.7284 67.3537 38.9384 67.8097 39.2024C68.2657 39.4664 68.5897 39.7724 68.7817 40.1204C68.9737 40.4684 69.0697 40.8704 69.0697 41.3264C69.0697 41.8304 68.9197 42.2924 68.6197 42.7124C68.3317 43.1324 67.8997 43.4684 67.3237 43.7204C66.7597 43.9604 66.0577 44.0804 65.2177 44.0804ZM74.4299 43.9004C73.7579 43.9004 73.2119 43.7744 72.7919 43.5224C72.3719 43.2584 72.0659 42.8924 71.8739 42.4244C71.6819 41.9444 71.5859 41.3804 71.5859 40.7324V35.9804H70.1819C70.0619 35.9804 69.9599 35.9444 69.8759 35.8724C69.8039 35.7884 69.7679 35.6864 69.7679 35.5664V34.9544C69.7679 34.8344 69.8039 34.7384 69.8759 34.6664C69.9599 34.5824 70.0619 34.5404 70.1819 34.5404H71.5859V31.5344C71.5859 31.4144 71.6219 31.3184 71.6939 31.2464C71.7779 31.1624 71.8799 31.1204 71.9999 31.1204H72.8459C72.9659 31.1204 73.0619 31.1624 73.1339 31.2464C73.2179 31.3184 73.2599 31.4144 73.2599 31.5344V34.5404H75.4919C75.6119 34.5404 75.7079 34.5824 75.7799 34.6664C75.8639 34.7384 75.9059 34.8344 75.9059 34.9544V35.5664C75.9059 35.6864 75.8639 35.7884 75.7799 35.8724C75.7079 35.9444 75.6119 35.9804 75.4919 35.9804H73.2599V40.6064C73.2599 41.1704 73.3559 41.6144 73.5479 41.9384C73.7399 42.2624 74.0819 42.4244 74.5739 42.4244H75.6719C75.7919 42.4244 75.8879 42.4664 75.9599 42.5504C76.0439 42.6224 76.0859 42.7184 76.0859 42.8384V43.4864C76.0859 43.6064 76.0439 43.7084 75.9599 43.7924C75.8879 43.8644 75.7919 43.9004 75.6719 43.9004H74.4299ZM80.0572 44.0804C79.4572 44.0804 78.9112 43.9604 78.4192 43.7204C77.9272 43.4804 77.5312 43.1564 77.2312 42.7484C76.9312 42.3404 76.7812 41.8784 76.7812 41.3624C76.7812 40.5344 77.1172 39.8744 77.7892 39.3824C78.4612 38.8904 79.3372 38.5664 80.4172 38.4104L83.0992 38.0324V37.5104C83.0992 36.9344 82.9312 36.4844 82.5952 36.1604C82.2712 35.8364 81.7372 35.6744 80.9932 35.6744C80.4532 35.6744 80.0152 35.7824 79.6792 35.9984C79.3552 36.2144 79.1272 36.4904 78.9952 36.8264C78.9232 37.0064 78.7972 37.0964 78.6172 37.0964H77.8072C77.6752 37.0964 77.5732 37.0604 77.5012 36.9884C77.4412 36.9044 77.4112 36.8084 77.4112 36.7004C77.4112 36.5204 77.4772 36.2984 77.6092 36.0344C77.7532 35.7704 77.9692 35.5124 78.2572 35.2604C78.5452 35.0084 78.9112 34.7984 79.3552 34.6304C79.8112 34.4504 80.3632 34.3604 81.0112 34.3604C81.7312 34.3604 82.3372 34.4564 82.8292 34.6484C83.3212 34.8284 83.7052 35.0744 83.9812 35.3864C84.2692 35.6984 84.4732 36.0524 84.5932 36.4484C84.7252 36.8444 84.7912 37.2464 84.7912 37.6544V43.4864C84.7912 43.6064 84.7492 43.7084 84.6652 43.7924C84.5932 43.8644 84.4972 43.9004 84.3772 43.9004H83.5492C83.4172 43.9004 83.3152 43.8644 83.2432 43.7924C83.1712 43.7084 83.1352 43.6064 83.1352 43.4864V42.7124C82.9792 42.9284 82.7692 43.1444 82.5052 43.3604C82.2412 43.5644 81.9112 43.7384 81.5152 43.8824C81.1192 44.0144 80.6332 44.0804 80.0572 44.0804ZM80.4352 42.7304C80.9272 42.7304 81.3772 42.6284 81.7852 42.4244C82.1932 42.2084 82.5112 41.8784 82.7392 41.4344C82.9792 40.9904 83.0992 40.4324 83.0992 39.7604V39.2564L81.0112 39.5624C80.1592 39.6824 79.5172 39.8864 79.0852 40.1744C78.6532 40.4504 78.4372 40.8044 78.4372 41.2364C78.4372 41.5724 78.5332 41.8544 78.7252 42.0824C78.9292 42.2984 79.1812 42.4604 79.4812 42.5684C79.7932 42.6764 80.1112 42.7304 80.4352 42.7304ZM90.7988 44.0804C89.9468 44.0804 89.2088 43.9184 88.5848 43.5944C87.9728 43.2584 87.4988 42.7844 87.1628 42.1724C86.8268 41.5484 86.6468 40.8044 86.6228 39.9404C86.6108 39.7604 86.6048 39.5204 86.6048 39.2204C86.6048 38.9204 86.6108 38.6804 86.6228 38.5004C86.6468 37.6364 86.8268 36.8984 87.1628 36.2864C87.4988 35.6624 87.9728 35.1884 88.5848 34.8644C89.2088 34.5284 89.9468 34.3604 90.7988 34.3604C91.4948 34.3604 92.0888 34.4564 92.5808 34.6484C93.0848 34.8404 93.4988 35.0864 93.8228 35.3864C94.1468 35.6864 94.3868 36.0104 94.5428 36.3584C94.7108 36.7064 94.8008 37.0364 94.8128 37.3484C94.8248 37.4684 94.7888 37.5644 94.7048 37.6364C94.6208 37.7084 94.5188 37.7444 94.3988 37.7444H93.5348C93.4148 37.7444 93.3248 37.7204 93.2648 37.6724C93.2048 37.6124 93.1448 37.5164 93.0848 37.3844C92.8688 36.7964 92.5748 36.3824 92.2028 36.1424C91.8308 35.9024 91.3688 35.7824 90.8168 35.7824C90.0968 35.7824 89.5088 36.0044 89.0528 36.4484C88.6088 36.8924 88.3688 37.6064 88.3328 38.5904C88.3208 39.0224 88.3208 39.4424 88.3328 39.8504C88.3688 40.8464 88.6088 41.5664 89.0528 42.0104C89.5088 42.4424 90.0968 42.6584 90.8168 42.6584C91.3688 42.6584 91.8308 42.5384 92.2028 42.2984C92.5748 42.0584 92.8688 41.6444 93.0848 41.0564C93.1448 40.9244 93.2048 40.8344 93.2648 40.7864C93.3248 40.7264 93.4148 40.6964 93.5348 40.6964H94.3988C94.5188 40.6964 94.6208 40.7324 94.7048 40.8044C94.7888 40.8764 94.8248 40.9724 94.8128 41.0924C94.8008 41.3444 94.7468 41.6024 94.6508 41.8664C94.5548 42.1304 94.3988 42.4004 94.1828 42.6764C93.9788 42.9404 93.7208 43.1804 93.4088 43.3964C93.0968 43.6004 92.7188 43.7684 92.2748 43.9004C91.8428 44.0204 91.3508 44.0804 90.7988 44.0804ZM97.0224 43.9004C96.9024 43.9004 96.8004 43.8644 96.7164 43.7924C96.6444 43.7084 96.6084 43.6064 96.6084 43.4864V31.5344C96.6084 31.4144 96.6444 31.3184 96.7164 31.2464C96.8004 31.1624 96.9024 31.1204 97.0224 31.1204H97.8684C97.9884 31.1204 98.0844 31.1624 98.1564 31.2464C98.2404 31.3184 98.2824 31.4144 98.2824 31.5344V37.7984L101.828 34.8464C101.972 34.7264 102.08 34.6484 102.152 34.6124C102.236 34.5644 102.368 34.5404 102.548 34.5404H103.502C103.61 34.5404 103.7 34.5764 103.772 34.6484C103.844 34.7204 103.88 34.8104 103.88 34.9184C103.88 34.9664 103.862 35.0204 103.826 35.0804C103.802 35.1404 103.748 35.2004 103.664 35.2604L99.5064 38.7164L104.114 43.1984C104.258 43.3184 104.33 43.4264 104.33 43.5224C104.33 43.6304 104.294 43.7204 104.222 43.7924C104.15 43.8644 104.06 43.9004 103.952 43.9004H103.016C102.836 43.9004 102.704 43.8824 102.62 43.8464C102.536 43.7984 102.428 43.7144 102.296 43.5944L98.2824 39.7604V43.4864C98.2824 43.6064 98.2404 43.7084 98.1564 43.7924C98.0844 43.8644 97.9884 43.9004 97.8684 43.9004H97.0224ZM110.036 43.9004C109.904 43.9004 109.802 43.8644 109.73 43.7924C109.658 43.7084 109.622 43.6064 109.622 43.4864V31.7324C109.622 31.6004 109.658 31.4984 109.73 31.4264C109.802 31.3424 109.904 31.3004 110.036 31.3004H114.122C115.358 31.3004 116.354 31.4864 117.11 31.8584C117.866 32.2304 118.418 32.7824 118.766 33.5144C119.114 34.2344 119.294 35.1224 119.306 36.1784C119.318 36.7184 119.324 37.1924 119.324 37.6004C119.324 38.0084 119.318 38.4764 119.306 39.0044C119.282 40.1084 119.096 41.0264 118.748 41.7584C118.412 42.4784 117.872 43.0184 117.128 43.3784C116.396 43.7264 115.424 43.9004 114.212 43.9004H110.036ZM111.386 42.3704H114.122C114.95 42.3704 115.61 42.2564 116.102 42.0284C116.594 41.8004 116.948 41.4344 117.164 40.9304C117.392 40.4264 117.512 39.7604 117.524 38.9324C117.548 38.5724 117.56 38.2604 117.56 37.9964C117.56 37.7204 117.56 37.4504 117.56 37.1864C117.56 36.9104 117.548 36.5984 117.524 36.2504C117.5 35.0864 117.224 34.2284 116.696 33.6764C116.168 33.1124 115.28 32.8304 114.032 32.8304H111.386V42.3704ZM125.164 44.0804C123.928 44.0804 122.944 43.7024 122.212 42.9464C121.48 42.1784 121.078 41.1344 121.006 39.8144C120.994 39.6584 120.988 39.4604 120.988 39.2204C120.988 38.9684 120.994 38.7644 121.006 38.6084C121.054 37.7564 121.252 37.0124 121.6 36.3764C121.948 35.7284 122.422 35.2304 123.022 34.8824C123.634 34.5344 124.348 34.3604 125.164 34.3604C126.076 34.3604 126.838 34.5524 127.45 34.9364C128.074 35.3204 128.548 35.8664 128.872 36.5744C129.196 37.2824 129.358 38.1104 129.358 39.0584V39.3644C129.358 39.4964 129.316 39.5984 129.232 39.6704C129.16 39.7424 129.064 39.7784 128.944 39.7784H122.716C122.716 39.7904 122.716 39.8144 122.716 39.8504C122.716 39.8864 122.716 39.9164 122.716 39.9404C122.74 40.4324 122.848 40.8944 123.04 41.3264C123.232 41.7464 123.508 42.0884 123.868 42.3524C124.228 42.6164 124.66 42.7484 125.164 42.7484C125.596 42.7484 125.956 42.6824 126.244 42.5504C126.532 42.4184 126.766 42.2744 126.946 42.1184C127.126 41.9504 127.246 41.8244 127.306 41.7404C127.414 41.5844 127.498 41.4944 127.558 41.4704C127.618 41.4344 127.714 41.4164 127.846 41.4164H128.71C128.83 41.4164 128.926 41.4524 128.998 41.5244C129.082 41.5844 129.118 41.6744 129.106 41.7944C129.094 41.9744 128.998 42.1964 128.818 42.4604C128.638 42.7124 128.38 42.9644 128.044 43.2164C127.708 43.4684 127.3 43.6784 126.82 43.8464C126.34 44.0024 125.788 44.0804 125.164 44.0804ZM122.716 38.5364H127.648V38.4824C127.648 37.9424 127.546 37.4624 127.342 37.0424C127.15 36.6224 126.868 36.2924 126.496 36.0524C126.124 35.8004 125.68 35.6744 125.164 35.6744C124.648 35.6744 124.204 35.8004 123.832 36.0524C123.472 36.2924 123.196 36.6224 123.004 37.0424C122.812 37.4624 122.716 37.9424 122.716 38.4824V38.5364ZM134.092 43.9004C133.912 43.9004 133.768 43.8584 133.66 43.7744C133.564 43.6904 133.486 43.5824 133.426 43.4504L130.096 35.0984C130.072 35.0384 130.06 34.9784 130.06 34.9184C130.06 34.8104 130.096 34.7204 130.168 34.6484C130.24 34.5764 130.33 34.5404 130.438 34.5404H131.302C131.434 34.5404 131.536 34.5764 131.608 34.6484C131.68 34.7204 131.722 34.7864 131.734 34.8464L134.488 41.9384L137.224 34.8464C137.248 34.7864 137.29 34.7204 137.35 34.6484C137.422 34.5764 137.524 34.5404 137.656 34.5404H138.538C138.634 34.5404 138.718 34.5764 138.79 34.6484C138.874 34.7204 138.916 34.8104 138.916 34.9184C138.916 34.9784 138.904 35.0384 138.88 35.0984L135.532 43.4504C135.484 43.5824 135.406 43.6904 135.298 43.7744C135.202 43.8584 135.058 43.9004 134.866 43.9004H134.092ZM143.833 44.0804C142.597 44.0804 141.613 43.7024 140.881 42.9464C140.149 42.1784 139.747 41.1344 139.675 39.8144C139.663 39.6584 139.657 39.4604 139.657 39.2204C139.657 38.9684 139.663 38.7644 139.675 38.6084C139.723 37.7564 139.921 37.0124 140.269 36.3764C140.617 35.7284 141.091 35.2304 141.691 34.8824C142.303 34.5344 143.017 34.3604 143.833 34.3604C144.745 34.3604 145.507 34.5524 146.119 34.9364C146.743 35.3204 147.217 35.8664 147.541 36.5744C147.865 37.2824 148.027 38.1104 148.027 39.0584V39.3644C148.027 39.4964 147.985 39.5984 147.901 39.6704C147.829 39.7424 147.733 39.7784 147.613 39.7784H141.385C141.385 39.7904 141.385 39.8144 141.385 39.8504C141.385 39.8864 141.385 39.9164 141.385 39.9404C141.409 40.4324 141.517 40.8944 141.709 41.3264C141.901 41.7464 142.177 42.0884 142.537 42.3524C142.897 42.6164 143.329 42.7484 143.833 42.7484C144.265 42.7484 144.625 42.6824 144.913 42.5504C145.201 42.4184 145.435 42.2744 145.615 42.1184C145.795 41.9504 145.915 41.8244 145.975 41.7404C146.083 41.5844 146.167 41.4944 146.227 41.4704C146.287 41.4344 146.383 41.4164 146.515 41.4164H147.379C147.499 41.4164 147.595 41.4524 147.667 41.5244C147.751 41.5844 147.787 41.6744 147.775 41.7944C147.763 41.9744 147.667 42.1964 147.487 42.4604C147.307 42.7124 147.049 42.9644 146.713 43.2164C146.377 43.4684 145.969 43.6784 145.489 43.8464C145.009 44.0024 144.457 44.0804 143.833 44.0804ZM141.385 38.5364H146.317V38.4824C146.317 37.9424 146.215 37.4624 146.011 37.0424C145.819 36.6224 145.537 36.2924 145.165 36.0524C144.793 35.8004 144.349 35.6744 143.833 35.6744C143.317 35.6744 142.873 35.8004 142.501 36.0524C142.141 36.2924 141.865 36.6224 141.673 37.0424C141.481 37.4624 141.385 37.9424 141.385 38.4824V38.5364ZM150.251 43.9004C150.131 43.9004 150.029 43.8644 149.945 43.7924C149.873 43.7084 149.837 43.6064 149.837 43.4864V31.5344C149.837 31.4144 149.873 31.3184 149.945 31.2464C150.029 31.1624 150.131 31.1204 150.251 31.1204H151.097C151.229 31.1204 151.331 31.1624 151.403 31.2464C151.475 31.3184 151.511 31.4144 151.511 31.5344V43.4864C151.511 43.6064 151.475 43.7084 151.403 43.7924C151.331 43.8644 151.229 43.9004 151.097 43.9004H150.251ZM157.67 44.0804C156.758 44.0804 155.996 43.9064 155.384 43.5584C154.772 43.2104 154.304 42.7304 153.98 42.1184C153.656 41.4944 153.476 40.7864 153.44 39.9944C153.428 39.7904 153.422 39.5324 153.422 39.2204C153.422 38.8964 153.428 38.6384 153.44 38.4464C153.476 37.6424 153.656 36.9344 153.98 36.3224C154.316 35.7104 154.79 35.2304 155.402 34.8824C156.014 34.5344 156.77 34.3604 157.67 34.3604C158.57 34.3604 159.326 34.5344 159.938 34.8824C160.55 35.2304 161.018 35.7104 161.342 36.3224C161.678 36.9344 161.864 37.6424 161.9 38.4464C161.912 38.6384 161.918 38.8964 161.918 39.2204C161.918 39.5324 161.912 39.7904 161.9 39.9944C161.864 40.7864 161.684 41.4944 161.36 42.1184C161.036 42.7304 160.568 43.2104 159.956 43.5584C159.344 43.9064 158.582 44.0804 157.67 44.0804ZM157.67 42.6944C158.414 42.6944 159.008 42.4604 159.452 41.9924C159.896 41.5124 160.136 40.8164 160.172 39.9044C160.184 39.7244 160.19 39.4964 160.19 39.2204C160.19 38.9444 160.184 38.7164 160.172 38.5364C160.136 37.6244 159.896 36.9344 159.452 36.4664C159.008 35.9864 158.414 35.7464 157.67 35.7464C156.926 35.7464 156.326 35.9864 155.87 36.4664C155.426 36.9344 155.192 37.6244 155.168 38.5364C155.156 38.7164 155.15 38.9444 155.15 39.2204C155.15 39.4964 155.156 39.7244 155.168 39.9044C155.192 40.8164 155.426 41.5124 155.87 41.9924C156.326 42.4604 156.926 42.6944 157.67 42.6944ZM164.244 47.3204C164.124 47.3204 164.022 47.2784 163.938 47.1944C163.866 47.1224 163.83 47.0264 163.83 46.9064V34.9544C163.83 34.8344 163.866 34.7384 163.938 34.6664C164.022 34.5824 164.124 34.5404 164.244 34.5404H165.072C165.192 34.5404 165.288 34.5824 165.36 34.6664C165.444 34.7384 165.486 34.8344 165.486 34.9544V35.7464C165.774 35.3504 166.158 35.0204 166.638 34.7564C167.118 34.4924 167.718 34.3604 168.438 34.3604C169.11 34.3604 169.68 34.4744 170.148 34.7024C170.628 34.9304 171.018 35.2424 171.318 35.6384C171.63 36.0344 171.864 36.4844 172.02 36.9884C172.176 37.4924 172.26 38.0324 172.272 38.6084C172.284 38.8004 172.29 39.0044 172.29 39.2204C172.29 39.4364 172.284 39.6404 172.272 39.8324C172.26 40.3964 172.176 40.9364 172.02 41.4524C171.864 41.9564 171.63 42.4064 171.318 42.8024C171.018 43.1864 170.628 43.4984 170.148 43.7384C169.68 43.9664 169.11 44.0804 168.438 44.0804C167.742 44.0804 167.154 43.9544 166.674 43.7024C166.206 43.4384 165.822 43.1144 165.522 42.7304V46.9064C165.522 47.0264 165.486 47.1224 165.414 47.1944C165.342 47.2784 165.24 47.3204 165.108 47.3204H164.244ZM168.06 42.6224C168.684 42.6224 169.17 42.4904 169.518 42.2264C169.878 41.9504 170.136 41.5964 170.292 41.1644C170.448 40.7204 170.538 40.2464 170.562 39.7424C170.574 39.3944 170.574 39.0464 170.562 38.6984C170.538 38.1944 170.448 37.7264 170.292 37.2944C170.136 36.8504 169.878 36.4964 169.518 36.2324C169.17 35.9564 168.684 35.8184 168.06 35.8184C167.472 35.8184 166.992 35.9564 166.62 36.2324C166.26 36.5084 165.99 36.8624 165.81 37.2944C165.642 37.7144 165.546 38.1464 165.522 38.5904C165.51 38.7824 165.504 39.0104 165.504 39.2744C165.504 39.5384 165.51 39.7724 165.522 39.9764C165.534 40.3964 165.63 40.8104 165.81 41.2184C166.002 41.6264 166.284 41.9624 166.656 42.2264C167.028 42.4904 167.496 42.6224 168.06 42.6224ZM174.589 43.9004C174.469 43.9004 174.367 43.8644 174.283 43.7924C174.211 43.7084 174.175 43.6064 174.175 43.4864V34.9544C174.175 34.8344 174.211 34.7384 174.283 34.6664C174.367 34.5824 174.469 34.5404 174.589 34.5404H175.399C175.519 34.5404 175.615 34.5824 175.687 34.6664C175.771 34.7384 175.813 34.8344 175.813 34.9544V35.5844C176.089 35.2124 176.437 34.9184 176.857 34.7024C177.277 34.4744 177.781 34.3604 178.369 34.3604C179.725 34.3484 180.685 34.9004 181.249 36.0164C181.525 35.5124 181.927 35.1104 182.455 34.8104C182.983 34.5104 183.583 34.3604 184.255 34.3604C184.879 34.3604 185.443 34.5044 185.947 34.7924C186.463 35.0804 186.865 35.5184 187.153 36.1064C187.453 36.6824 187.603 37.4084 187.603 38.2844V43.4864C187.603 43.6064 187.561 43.7084 187.477 43.7924C187.405 43.8644 187.309 43.9004 187.189 43.9004H186.343C186.223 43.9004 186.121 43.8644 186.037 43.7924C185.965 43.7084 185.929 43.6064 185.929 43.4864V38.4464C185.929 37.7744 185.833 37.2464 185.641 36.8624C185.449 36.4784 185.191 36.2084 184.867 36.0524C184.543 35.8964 184.189 35.8184 183.805 35.8184C183.493 35.8184 183.175 35.8964 182.851 36.0524C182.527 36.2084 182.257 36.4784 182.041 36.8624C181.837 37.2464 181.735 37.7744 181.735 38.4464V43.4864C181.735 43.6064 181.693 43.7084 181.609 43.7924C181.537 43.8644 181.441 43.9004 181.321 43.9004H180.475C180.355 43.9004 180.253 43.8644 180.169 43.7924C180.097 43.7084 180.061 43.6064 180.061 43.4864V38.4464C180.061 37.7744 179.959 37.2464 179.755 36.8624C179.551 36.4784 179.287 36.2084 178.963 36.0524C178.639 35.8964 178.297 35.8184 177.937 35.8184C177.625 35.8184 177.307 35.8964 176.983 36.0524C176.659 36.2084 176.389 36.4784 176.173 36.8624C175.969 37.2464 175.867 37.7684 175.867 38.4284V43.4864C175.867 43.6064 175.825 43.7084 175.741 43.7924C175.669 43.8644 175.573 43.9004 175.453 43.9004H174.589ZM193.537 44.0804C192.301 44.0804 191.317 43.7024 190.585 42.9464C189.853 42.1784 189.451 41.1344 189.379 39.8144C189.367 39.6584 189.361 39.4604 189.361 39.2204C189.361 38.9684 189.367 38.7644 189.379 38.6084C189.427 37.7564 189.625 37.0124 189.973 36.3764C190.321 35.7284 190.795 35.2304 191.395 34.8824C192.007 34.5344 192.721 34.3604 193.537 34.3604C194.449 34.3604 195.211 34.5524 195.823 34.9364C196.447 35.3204 196.921 35.8664 197.245 36.5744C197.569 37.2824 197.731 38.1104 197.731 39.0584V39.3644C197.731 39.4964 197.689 39.5984 197.605 39.6704C197.533 39.7424 197.437 39.7784 197.317 39.7784H191.089C191.089 39.7904 191.089 39.8144 191.089 39.8504C191.089 39.8864 191.089 39.9164 191.089 39.9404C191.113 40.4324 191.221 40.8944 191.413 41.3264C191.605 41.7464 191.881 42.0884 192.241 42.3524C192.601 42.6164 193.033 42.7484 193.537 42.7484C193.969 42.7484 194.329 42.6824 194.617 42.5504C194.905 42.4184 195.139 42.2744 195.319 42.1184C195.499 41.9504 195.619 41.8244 195.679 41.7404C195.787 41.5844 195.871 41.4944 195.931 41.4704C195.991 41.4344 196.087 41.4164 196.219 41.4164H197.083C197.203 41.4164 197.299 41.4524 197.371 41.5244C197.455 41.5844 197.491 41.6744 197.479 41.7944C197.467 41.9744 197.371 42.1964 197.191 42.4604C197.011 42.7124 196.753 42.9644 196.417 43.2164C196.081 43.4684 195.673 43.6784 195.193 43.8464C194.713 44.0024 194.161 44.0804 193.537 44.0804ZM191.089 38.5364H196.021V38.4824C196.021 37.9424 195.919 37.4624 195.715 37.0424C195.523 36.6224 195.241 36.2924 194.869 36.0524C194.497 35.8004 194.053 35.6744 193.537 35.6744C193.021 35.6744 192.577 35.8004 192.205 36.0524C191.845 36.2924 191.569 36.6224 191.377 37.0424C191.185 37.4624 191.089 37.9424 191.089 38.4824V38.5364ZM199.937 43.9004C199.817 43.9004 199.715 43.8644 199.631 43.7924C199.559 43.7084 199.523 43.6064 199.523 43.4864V34.9544C199.523 34.8344 199.559 34.7384 199.631 34.6664C199.715 34.5824 199.817 34.5404 199.937 34.5404H200.783C200.903 34.5404 200.999 34.5824 201.071 34.6664C201.155 34.7384 201.197 34.8344 201.197 34.9544V35.7464C201.509 35.3384 201.899 35.0084 202.367 34.7564C202.847 34.4924 203.459 34.3604 204.203 34.3604C204.983 34.3604 205.643 34.5344 206.183 34.8824C206.735 35.2184 207.149 35.6924 207.425 36.3044C207.701 36.9044 207.839 37.6064 207.839 38.4104V43.4864C207.839 43.6064 207.803 43.7084 207.731 43.7924C207.659 43.8644 207.563 43.9004 207.443 43.9004H206.543C206.423 43.9004 206.321 43.8644 206.237 43.7924C206.165 43.7084 206.129 43.6064 206.129 43.4864V38.5004C206.129 37.6604 205.925 37.0064 205.517 36.5384C205.109 36.0584 204.509 35.8184 203.717 35.8184C202.973 35.8184 202.373 36.0584 201.917 36.5384C201.473 37.0064 201.251 37.6604 201.251 38.5004V43.4864C201.251 43.6064 201.209 43.7084 201.125 43.7924C201.053 43.8644 200.957 43.9004 200.837 43.9004H199.937ZM213.61 43.9004C212.938 43.9004 212.392 43.7744 211.972 43.5224C211.552 43.2584 211.246 42.8924 211.054 42.4244C210.862 41.9444 210.766 41.3804 210.766 40.7324V35.9804H209.362C209.242 35.9804 209.14 35.9444 209.056 35.8724C208.984 35.7884 208.948 35.6864 208.948 35.5664V34.9544C208.948 34.8344 208.984 34.7384 209.056 34.6664C209.14 34.5824 209.242 34.5404 209.362 34.5404H210.766V31.5344C210.766 31.4144 210.802 31.3184 210.874 31.2464C210.958 31.1624 211.06 31.1204 211.18 31.1204H212.026C212.146 31.1204 212.242 31.1624 212.314 31.2464C212.398 31.3184 212.44 31.4144 212.44 31.5344V34.5404H214.672C214.792 34.5404 214.888 34.5824 214.96 34.6664C215.044 34.7384 215.086 34.8344 215.086 34.9544V35.5664C215.086 35.6864 215.044 35.7884 214.96 35.8724C214.888 35.9444 214.792 35.9804 214.672 35.9804H212.44V40.6064C212.44 41.1704 212.536 41.6144 212.728 41.9384C212.92 42.2624 213.262 42.4244 213.754 42.4244H214.852C214.972 42.4244 215.068 42.4664 215.14 42.5504C215.224 42.6224 215.266 42.7184 215.266 42.8384V43.4864C215.266 43.6064 215.224 43.7084 215.14 43.7924C215.068 43.8644 214.972 43.9004 214.852 43.9004H213.61Z" fill="white"/>
<rect x="247.92" y="17.4004" width="40" height="40" rx="20" fill="white"/>
<path d="M264.434 44.4004C264.314 44.4004 264.212 44.3644 264.128 44.2924C264.056 44.2084 264.02 44.1064 264.02 43.9864V43.4104C264.02 43.3024 264.05 43.1824 264.11 43.0504C264.17 42.9184 264.29 42.7744 264.47 42.6184L268.286 38.8024C268.898 38.2864 269.378 37.8484 269.726 37.4884C270.086 37.1164 270.338 36.7624 270.482 36.4264C270.638 36.0904 270.716 35.7424 270.716 35.3824C270.716 34.6984 270.524 34.1584 270.14 33.7624C269.756 33.3544 269.186 33.1504 268.43 33.1504C267.95 33.1504 267.536 33.2524 267.188 33.4564C266.84 33.6484 266.57 33.9184 266.378 34.2664C266.186 34.6024 266.054 34.9864 265.982 35.4184C265.958 35.5744 265.892 35.6824 265.784 35.7424C265.688 35.8024 265.598 35.8324 265.514 35.8324H264.578C264.47 35.8324 264.38 35.8024 264.308 35.7424C264.236 35.6704 264.2 35.5864 264.2 35.4904C264.212 35.0344 264.308 34.5784 264.488 34.1224C264.668 33.6544 264.932 33.2344 265.28 32.8624C265.64 32.4784 266.078 32.1724 266.594 31.9444C267.122 31.7164 267.734 31.6024 268.43 31.6024C269.378 31.6024 270.152 31.7764 270.752 32.1244C271.364 32.4604 271.814 32.9104 272.102 33.4744C272.39 34.0384 272.534 34.6564 272.534 35.3284C272.534 35.8564 272.444 36.3424 272.264 36.7864C272.084 37.2184 271.82 37.6444 271.472 38.0644C271.136 38.4724 270.716 38.8924 270.212 39.3244L266.756 42.8344H272.372C272.504 42.8344 272.606 42.8704 272.678 42.9424C272.762 43.0144 272.804 43.1164 272.804 43.2484V43.9864C272.804 44.1064 272.762 44.2084 272.678 44.2924C272.606 44.3644 272.504 44.4004 272.372 44.4004H264.434Z" fill="#DB2B63"/>
</svg>
