<svg width="320" height="79" viewBox="0 0 320 79" fill="none" xmlns="http://www.w3.org/2000/svg">
<path d="M290.02 5H7.37953C4.20397 5 2.29463 8.5225 4.02793 11.1833L22.6803 39.8167C23.5449 41.1439 23.5449 42.8561 22.6803 44.1833L4.02793 72.8167C2.29463 75.4775 4.20396 79 7.37951 79H290.02C291.273 79 292.454 78.4127 293.21 77.4133L318.174 44.4132C319.254 42.9857 319.254 41.0143 318.174 39.5868L293.21 6.58675C292.454 5.58732 291.273 5 290.02 5Z" fill="#6222B5"/>
<path d="M290.02 0H7.37953C4.20397 0 2.29463 3.5225 4.02793 6.1833L22.6803 34.8167C23.5449 36.1439 23.5449 37.8561 22.6803 39.1833L4.02793 67.8167C2.29463 70.4775 4.20396 74 7.37951 74H290.02C291.273 74 292.454 73.4127 293.21 72.4133L318.174 39.4132C319.254 37.9857 319.254 36.0143 318.174 34.5868L293.21 1.58675C292.454 0.587322 291.273 0 290.02 0Z" fill="#9747FF"/>
<path d="M34.3275 43.9004C34.1955 43.9004 34.0935 43.8644 34.0215 43.7924C33.9495 43.7084 33.9135 43.6064 33.9135 43.4864V31.7324C33.9135 31.6004 33.9495 31.4984 34.0215 31.4264C34.0935 31.3424 34.1955 31.3004 34.3275 31.3004H39.2595C40.1595 31.3004 40.8915 31.4504 41.4555 31.7504C42.0315 32.0384 42.4515 32.4344 42.7155 32.9384C42.9915 33.4424 43.1295 34.0064 43.1295 34.6304C43.1295 35.1224 43.0455 35.5484 42.8775 35.9084C42.7215 36.2564 42.5235 36.5444 42.2835 36.7724C42.0435 36.9884 41.8095 37.1564 41.5815 37.2764C42.0495 37.5044 42.4635 37.8764 42.8235 38.3924C43.1955 38.9084 43.3815 39.5324 43.3815 40.2644C43.3815 40.9244 43.2315 41.5304 42.9315 42.0824C42.6315 42.6344 42.1815 43.0784 41.5815 43.4144C40.9935 43.7384 40.2615 43.9004 39.3855 43.9004H34.3275ZM35.6775 42.4424H39.1515C39.9315 42.4424 40.5315 42.2324 40.9515 41.8124C41.3715 41.3924 41.5815 40.8764 41.5815 40.2644C41.5815 39.6284 41.3715 39.1064 40.9515 38.6984C40.5315 38.2784 39.9315 38.0684 39.1515 38.0684H35.6775V42.4424ZM35.6775 36.6284H38.9895C39.7575 36.6284 40.3395 36.4544 40.7355 36.1064C41.1315 35.7464 41.3295 35.2604 41.3295 34.6484C41.3295 34.0364 41.1315 33.5684 40.7355 33.2444C40.3395 32.9204 39.7575 32.7584 38.9895 32.7584H35.6775V36.6284ZM45.7749 43.9004C45.6549 43.9004 45.5529 43.8644 45.4689 43.7924C45.3969 43.7084 45.3609 43.6064 45.3609 43.4864V31.5344C45.3609 31.4144 45.3969 31.3184 45.4689 31.2464C45.5529 31.1624 45.6549 31.1204 45.7749 31.1204H46.6209C46.7529 31.1204 46.8549 31.1624 46.9269 31.2464C46.9989 31.3184 47.0349 31.4144 47.0349 31.5344V43.4864C47.0349 43.6064 46.9989 43.7084 46.9269 43.7924C46.8549 43.8644 46.7529 43.9004 46.6209 43.9004H45.7749ZM53.1939 44.0804C52.2819 44.0804 51.5199 43.9064 50.9079 43.5584C50.2959 43.2104 49.8279 42.7304 49.5039 42.1184C49.1799 41.4944 48.9999 40.7864 48.9639 39.9944C48.9519 39.7904 48.9459 39.5324 48.9459 39.2204C48.9459 38.8964 48.9519 38.6384 48.9639 38.4464C48.9999 37.6424 49.1799 36.9344 49.5039 36.3224C49.8399 35.7104 50.3139 35.2304 50.9259 34.8824C51.5379 34.5344 52.2939 34.3604 53.1939 34.3604C54.0939 34.3604 54.8499 34.5344 55.4619 34.8824C56.0739 35.2304 56.5419 35.7104 56.8659 36.3224C57.2019 36.9344 57.3879 37.6424 57.4239 38.4464C57.4359 38.6384 57.4419 38.8964 57.4419 39.2204C57.4419 39.5324 57.4359 39.7904 57.4239 39.9944C57.3879 40.7864 57.2079 41.4944 56.8839 42.1184C56.5599 42.7304 56.0919 43.2104 55.4799 43.5584C54.8679 43.9064 54.1059 44.0804 53.1939 44.0804ZM53.1939 42.6944C53.9379 42.6944 54.5319 42.4604 54.9759 41.9924C55.4199 41.5124 55.6599 40.8164 55.6959 39.9044C55.7079 39.7244 55.7139 39.4964 55.7139 39.2204C55.7139 38.9444 55.7079 38.7164 55.6959 38.5364C55.6599 37.6244 55.4199 36.9344 54.9759 36.4664C54.5319 35.9864 53.9379 35.7464 53.1939 35.7464C52.4499 35.7464 51.8499 35.9864 51.3939 36.4664C50.9499 36.9344 50.7159 37.6244 50.6919 38.5364C50.6799 38.7164 50.6739 38.9444 50.6739 39.2204C50.6739 39.4964 50.6799 39.7244 50.6919 39.9044C50.7159 40.8164 50.9499 41.5124 51.3939 41.9924C51.8499 42.4604 52.4499 42.6944 53.1939 42.6944ZM63.1158 44.0804C62.2638 44.0804 61.5258 43.9184 60.9018 43.5944C60.2898 43.2584 59.8158 42.7844 59.4798 42.1724C59.1438 41.5484 58.9638 40.8044 58.9398 39.9404C58.9278 39.7604 58.9218 39.5204 58.9218 39.2204C58.9218 38.9204 58.9278 38.6804 58.9398 38.5004C58.9638 37.6364 59.1438 36.8984 59.4798 36.2864C59.8158 35.6624 60.2898 35.1884 60.9018 34.8644C61.5258 34.5284 62.2638 34.3604 63.1158 34.3604C63.8118 34.3604 64.4058 34.4564 64.8978 34.6484C65.4018 34.8404 65.8158 35.0864 66.1398 35.3864C66.4638 35.6864 66.7038 36.0104 66.8598 36.3584C67.0278 36.7064 67.1178 37.0364 67.1298 37.3484C67.1418 37.4684 67.1058 37.5644 67.0218 37.6364C66.9378 37.7084 66.8358 37.7444 66.7158 37.7444H65.8518C65.7318 37.7444 65.6418 37.7204 65.5818 37.6724C65.5218 37.6124 65.4618 37.5164 65.4018 37.3844C65.1858 36.7964 64.8918 36.3824 64.5198 36.1424C64.1478 35.9024 63.6858 35.7824 63.1338 35.7824C62.4138 35.7824 61.8258 36.0044 61.3698 36.4484C60.9258 36.8924 60.6858 37.6064 60.6498 38.5904C60.6378 39.0224 60.6378 39.4424 60.6498 39.8504C60.6858 40.8464 60.9258 41.5664 61.3698 42.0104C61.8258 42.4424 62.4138 42.6584 63.1338 42.6584C63.6858 42.6584 64.1478 42.5384 64.5198 42.2984C64.8918 42.0584 65.1858 41.6444 65.4018 41.0564C65.4618 40.9244 65.5218 40.8344 65.5818 40.7864C65.6418 40.7264 65.7318 40.6964 65.8518 40.6964H66.7158C66.8358 40.6964 66.9378 40.7324 67.0218 40.8044C67.1058 40.8764 67.1418 40.9724 67.1298 41.0924C67.1178 41.3444 67.0638 41.6024 66.9678 41.8664C66.8718 42.1304 66.7158 42.4004 66.4998 42.6764C66.2958 42.9404 66.0378 43.1804 65.7258 43.3964C65.4138 43.6004 65.0358 43.7684 64.5918 43.9004C64.1598 44.0204 63.6678 44.0804 63.1158 44.0804ZM69.3394 43.9004C69.2194 43.9004 69.1174 43.8644 69.0334 43.7924C68.9614 43.7084 68.9254 43.6064 68.9254 43.4864V31.5344C68.9254 31.4144 68.9614 31.3184 69.0334 31.2464C69.1174 31.1624 69.2194 31.1204 69.3394 31.1204H70.1854C70.3054 31.1204 70.4014 31.1624 70.4734 31.2464C70.5574 31.3184 70.5994 31.4144 70.5994 31.5344V37.7984L74.1454 34.8464C74.2894 34.7264 74.3974 34.6484 74.4694 34.6124C74.5534 34.5644 74.6854 34.5404 74.8654 34.5404H75.8194C75.9274 34.5404 76.0174 34.5764 76.0894 34.6484C76.1614 34.7204 76.1974 34.8104 76.1974 34.9184C76.1974 34.9664 76.1794 35.0204 76.1434 35.0804C76.1194 35.1404 76.0654 35.2004 75.9814 35.2604L71.8234 38.7164L76.4314 43.1984C76.5754 43.3184 76.6474 43.4264 76.6474 43.5224C76.6474 43.6304 76.6114 43.7204 76.5394 43.7924C76.4674 43.8644 76.3774 43.9004 76.2694 43.9004H75.3334C75.1534 43.9004 75.0214 43.8824 74.9374 43.8464C74.8534 43.7984 74.7454 43.7144 74.6134 43.5944L70.5994 39.7604V43.4864C70.5994 43.6064 70.5574 43.7084 70.4734 43.7924C70.4014 43.8644 70.3054 43.9004 70.1854 43.9004H69.3394ZM81.1692 44.0804C80.3172 44.0804 79.5792 43.9184 78.9552 43.5944C78.3432 43.2584 77.8692 42.7844 77.5332 42.1724C77.1972 41.5484 77.0172 40.8044 76.9932 39.9404C76.9812 39.7604 76.9752 39.5204 76.9752 39.2204C76.9752 38.9204 76.9812 38.6804 76.9932 38.5004C77.0172 37.6364 77.1972 36.8984 77.5332 36.2864C77.8692 35.6624 78.3432 35.1884 78.9552 34.8644C79.5792 34.5284 80.3172 34.3604 81.1692 34.3604C81.8652 34.3604 82.4592 34.4564 82.9512 34.6484C83.4552 34.8404 83.8692 35.0864 84.1932 35.3864C84.5172 35.6864 84.7572 36.0104 84.9132 36.3584C85.0812 36.7064 85.1712 37.0364 85.1832 37.3484C85.1952 37.4684 85.1592 37.5644 85.0752 37.6364C84.9912 37.7084 84.8892 37.7444 84.7692 37.7444H83.9052C83.7852 37.7444 83.6952 37.7204 83.6352 37.6724C83.5752 37.6124 83.5152 37.5164 83.4552 37.3844C83.2392 36.7964 82.9452 36.3824 82.5732 36.1424C82.2012 35.9024 81.7392 35.7824 81.1872 35.7824C80.4672 35.7824 79.8792 36.0044 79.4232 36.4484C78.9792 36.8924 78.7392 37.6064 78.7032 38.5904C78.6912 39.0224 78.6912 39.4424 78.7032 39.8504C78.7392 40.8464 78.9792 41.5664 79.4232 42.0104C79.8792 42.4424 80.4672 42.6584 81.1872 42.6584C81.7392 42.6584 82.2012 42.5384 82.5732 42.2984C82.9452 42.0584 83.2392 41.6444 83.4552 41.0564C83.5152 40.9244 83.5752 40.8344 83.6352 40.7864C83.6952 40.7264 83.7852 40.6964 83.9052 40.6964H84.7692C84.8892 40.6964 84.9912 40.7324 85.0752 40.8044C85.1592 40.8764 85.1952 40.9724 85.1832 41.0924C85.1712 41.3444 85.1172 41.6024 85.0212 41.8664C84.9252 42.1304 84.7692 42.4004 84.5532 42.6764C84.3492 42.9404 84.0912 43.1804 83.7792 43.3964C83.4672 43.6004 83.0892 43.7684 82.6452 43.9004C82.2132 44.0204 81.7212 44.0804 81.1692 44.0804ZM87.3929 43.9004C87.2729 43.9004 87.1709 43.8644 87.0869 43.7924C87.0149 43.7084 86.9789 43.6064 86.9789 43.4864V31.5344C86.9789 31.4144 87.0149 31.3184 87.0869 31.2464C87.1709 31.1624 87.2729 31.1204 87.3929 31.1204H88.2929C88.4249 31.1204 88.5269 31.1624 88.5989 31.2464C88.6709 31.3184 88.7069 31.4144 88.7069 31.5344V35.7284C89.0309 35.3204 89.4269 34.9904 89.8949 34.7384C90.3629 34.4864 90.9569 34.3604 91.6769 34.3604C92.4569 34.3604 93.1169 34.5344 93.6569 34.8824C94.2089 35.2184 94.6229 35.6924 94.8989 36.3044C95.1869 36.9044 95.3309 37.6064 95.3309 38.4104V43.4864C95.3309 43.6064 95.2949 43.7084 95.2229 43.7924C95.1509 43.8644 95.0489 43.9004 94.9169 43.9004H94.0169C93.8969 43.9004 93.7949 43.8644 93.7109 43.7924C93.6389 43.7084 93.6029 43.6064 93.6029 43.4864V38.5004C93.6029 37.6604 93.3989 37.0064 92.9909 36.5384C92.5829 36.0584 91.9829 35.8184 91.1909 35.8184C90.4469 35.8184 89.8469 36.0584 89.3909 36.5384C88.9349 37.0064 88.7069 37.6604 88.7069 38.5004V43.4864C88.7069 43.6064 88.6709 43.7084 88.5989 43.7924C88.5269 43.8644 88.4249 43.9004 88.2929 43.9004H87.3929ZM100.18 44.0804C99.5796 44.0804 99.0336 43.9604 98.5416 43.7204C98.0496 43.4804 97.6536 43.1564 97.3536 42.7484C97.0536 42.3404 96.9036 41.8784 96.9036 41.3624C96.9036 40.5344 97.2396 39.8744 97.9116 39.3824C98.5836 38.8904 99.4596 38.5664 100.54 38.4104L103.222 38.0324V37.5104C103.222 36.9344 103.054 36.4844 102.718 36.1604C102.394 35.8364 101.86 35.6744 101.116 35.6744C100.576 35.6744 100.138 35.7824 99.8016 35.9984C99.4776 36.2144 99.2496 36.4904 99.1176 36.8264C99.0456 37.0064 98.9196 37.0964 98.7396 37.0964H97.9296C97.7976 37.0964 97.6956 37.0604 97.6236 36.9884C97.5636 36.9044 97.5336 36.8084 97.5336 36.7004C97.5336 36.5204 97.5996 36.2984 97.7316 36.0344C97.8756 35.7704 98.0916 35.5124 98.3796 35.2604C98.6676 35.0084 99.0336 34.7984 99.4776 34.6304C99.9336 34.4504 100.486 34.3604 101.134 34.3604C101.854 34.3604 102.46 34.4564 102.952 34.6484C103.444 34.8284 103.828 35.0744 104.104 35.3864C104.392 35.6984 104.596 36.0524 104.716 36.4484C104.848 36.8444 104.914 37.2464 104.914 37.6544V43.4864C104.914 43.6064 104.872 43.7084 104.788 43.7924C104.716 43.8644 104.62 43.9004 104.5 43.9004H103.672C103.54 43.9004 103.438 43.8644 103.366 43.7924C103.294 43.7084 103.258 43.6064 103.258 43.4864V42.7124C103.102 42.9284 102.892 43.1444 102.628 43.3604C102.364 43.5644 102.034 43.7384 101.638 43.8824C101.242 44.0144 100.756 44.0804 100.18 44.0804ZM100.558 42.7304C101.05 42.7304 101.5 42.6284 101.908 42.4244C102.316 42.2084 102.634 41.8784 102.862 41.4344C103.102 40.9904 103.222 40.4324 103.222 39.7604V39.2564L101.134 39.5624C100.282 39.6824 99.6396 39.8864 99.2076 40.1744C98.7756 40.4504 98.5596 40.8044 98.5596 41.2364C98.5596 41.5724 98.6556 41.8544 98.8476 42.0824C99.0516 42.2984 99.3036 42.4604 99.6036 42.5684C99.9156 42.6764 100.234 42.7304 100.558 42.7304ZM107.555 43.9004C107.435 43.9004 107.333 43.8644 107.249 43.7924C107.177 43.7084 107.141 43.6064 107.141 43.4864V34.9544C107.141 34.8344 107.177 34.7384 107.249 34.6664C107.333 34.5824 107.435 34.5404 107.555 34.5404H108.419C108.539 34.5404 108.635 34.5824 108.707 34.6664C108.779 34.7384 108.815 34.8344 108.815 34.9544V43.4864C108.815 43.6064 108.779 43.7084 108.707 43.7924C108.635 43.8644 108.539 43.9004 108.419 43.9004H107.555ZM107.411 32.7944C107.291 32.7944 107.189 32.7584 107.105 32.6864C107.033 32.6024 106.997 32.5004 106.997 32.3804V31.4084C106.997 31.2884 107.033 31.1924 107.105 31.1204C107.189 31.0364 107.291 30.9944 107.411 30.9944H108.545C108.665 30.9944 108.761 31.0364 108.833 31.1204C108.917 31.1924 108.959 31.2884 108.959 31.4084V32.3804C108.959 32.5004 108.917 32.6024 108.833 32.6864C108.761 32.7584 108.665 32.7944 108.545 32.7944H107.411ZM111.555 43.9004C111.435 43.9004 111.333 43.8644 111.249 43.7924C111.177 43.7084 111.141 43.6064 111.141 43.4864V34.9544C111.141 34.8344 111.177 34.7384 111.249 34.6664C111.333 34.5824 111.435 34.5404 111.555 34.5404H112.401C112.521 34.5404 112.617 34.5824 112.689 34.6664C112.773 34.7384 112.815 34.8344 112.815 34.9544V35.7464C113.127 35.3384 113.517 35.0084 113.985 34.7564C114.465 34.4924 115.077 34.3604 115.821 34.3604C116.601 34.3604 117.261 34.5344 117.801 34.8824C118.353 35.2184 118.767 35.6924 119.043 36.3044C119.319 36.9044 119.457 37.6064 119.457 38.4104V43.4864C119.457 43.6064 119.421 43.7084 119.349 43.7924C119.277 43.8644 119.181 43.9004 119.061 43.9004H118.161C118.041 43.9004 117.939 43.8644 117.855 43.7924C117.783 43.7084 117.747 43.6064 117.747 43.4864V38.5004C117.747 37.6604 117.543 37.0064 117.135 36.5384C116.727 36.0584 116.127 35.8184 115.335 35.8184C114.591 35.8184 113.991 36.0584 113.535 36.5384C113.091 37.0064 112.869 37.6604 112.869 38.5004V43.4864C112.869 43.6064 112.827 43.7084 112.743 43.7924C112.671 43.8644 112.575 43.9004 112.455 43.9004H111.555ZM126.397 43.9004C126.277 43.9004 126.175 43.8644 126.091 43.7924C126.019 43.7084 125.983 43.6064 125.983 43.4864V31.7324C125.983 31.6004 126.019 31.4984 126.091 31.4264C126.175 31.3424 126.277 31.3004 126.397 31.3004H127.297C127.441 31.3004 127.549 31.3364 127.621 31.4084C127.693 31.4804 127.735 31.5404 127.747 31.5884L131.563 38.8604L135.397 31.5884C135.421 31.5404 135.463 31.4804 135.523 31.4084C135.595 31.3364 135.703 31.3004 135.847 31.3004H136.729C136.861 31.3004 136.963 31.3424 137.035 31.4264C137.119 31.4984 137.161 31.6004 137.161 31.7324V43.4864C137.161 43.6064 137.119 43.7084 137.035 43.7924C136.963 43.8644 136.861 43.9004 136.729 43.9004H135.847C135.727 43.9004 135.625 43.8644 135.541 43.7924C135.469 43.7084 135.433 43.6064 135.433 43.4864V34.6304L132.427 40.4984C132.379 40.6184 132.307 40.7144 132.211 40.7864C132.115 40.8464 131.995 40.8764 131.851 40.8764H131.293C131.137 40.8764 131.011 40.8464 130.915 40.7864C130.831 40.7144 130.759 40.6184 130.699 40.4984L127.693 34.6304V43.4864C127.693 43.6064 127.651 43.7084 127.567 43.7924C127.495 43.8644 127.399 43.9004 127.279 43.9004H126.397ZM142.29 44.0804C141.69 44.0804 141.144 43.9604 140.652 43.7204C140.16 43.4804 139.764 43.1564 139.464 42.7484C139.164 42.3404 139.014 41.8784 139.014 41.3624C139.014 40.5344 139.35 39.8744 140.022 39.3824C140.694 38.8904 141.57 38.5664 142.65 38.4104L145.332 38.0324V37.5104C145.332 36.9344 145.164 36.4844 144.828 36.1604C144.504 35.8364 143.97 35.6744 143.226 35.6744C142.686 35.6744 142.248 35.7824 141.912 35.9984C141.588 36.2144 141.36 36.4904 141.228 36.8264C141.156 37.0064 141.03 37.0964 140.85 37.0964H140.04C139.908 37.0964 139.806 37.0604 139.734 36.9884C139.674 36.9044 139.644 36.8084 139.644 36.7004C139.644 36.5204 139.71 36.2984 139.842 36.0344C139.986 35.7704 140.202 35.5124 140.49 35.2604C140.778 35.0084 141.144 34.7984 141.588 34.6304C142.044 34.4504 142.596 34.3604 143.244 34.3604C143.964 34.3604 144.57 34.4564 145.062 34.6484C145.554 34.8284 145.938 35.0744 146.214 35.3864C146.502 35.6984 146.706 36.0524 146.826 36.4484C146.958 36.8444 147.024 37.2464 147.024 37.6544V43.4864C147.024 43.6064 146.982 43.7084 146.898 43.7924C146.826 43.8644 146.73 43.9004 146.61 43.9004H145.782C145.65 43.9004 145.548 43.8644 145.476 43.7924C145.404 43.7084 145.368 43.6064 145.368 43.4864V42.7124C145.212 42.9284 145.002 43.1444 144.738 43.3604C144.474 43.5644 144.144 43.7384 143.748 43.8824C143.352 44.0144 142.866 44.0804 142.29 44.0804ZM142.668 42.7304C143.16 42.7304 143.61 42.6284 144.018 42.4244C144.426 42.2084 144.744 41.8784 144.972 41.4344C145.212 40.9904 145.332 40.4324 145.332 39.7604V39.2564L143.244 39.5624C142.392 39.6824 141.75 39.8864 141.318 40.1744C140.886 40.4504 140.67 40.8044 140.67 41.2364C140.67 41.5724 140.766 41.8544 140.958 42.0824C141.162 42.2984 141.414 42.4604 141.714 42.5684C142.026 42.6764 142.344 42.7304 142.668 42.7304ZM152.491 44.0804C151.819 44.0804 151.243 43.9964 150.763 43.8284C150.283 43.6604 149.893 43.4564 149.593 43.2164C149.293 42.9764 149.065 42.7364 148.909 42.4964C148.765 42.2564 148.687 42.0644 148.675 41.9204C148.663 41.7884 148.705 41.6864 148.801 41.6144C148.897 41.5424 148.993 41.5064 149.089 41.5064H149.881C149.953 41.5064 150.007 41.5184 150.043 41.5424C150.091 41.5544 150.151 41.6024 150.223 41.6864C150.379 41.8544 150.553 42.0224 150.745 42.1904C150.937 42.3584 151.171 42.4964 151.447 42.6044C151.735 42.7124 152.089 42.7664 152.509 42.7664C153.121 42.7664 153.625 42.6524 154.021 42.4244C154.417 42.1844 154.615 41.8364 154.615 41.3804C154.615 41.0804 154.531 40.8404 154.363 40.6604C154.207 40.4804 153.919 40.3184 153.499 40.1744C153.091 40.0304 152.527 39.8804 151.807 39.7244C151.087 39.5564 150.517 39.3524 150.097 39.1124C149.677 38.8604 149.377 38.5664 149.197 38.2304C149.017 37.8824 148.927 37.4924 148.927 37.0604C148.927 36.6164 149.059 36.1904 149.323 35.7824C149.587 35.3624 149.971 35.0204 150.475 34.7564C150.991 34.4924 151.633 34.3604 152.401 34.3604C153.025 34.3604 153.559 34.4384 154.003 34.5944C154.447 34.7504 154.813 34.9484 155.101 35.1884C155.389 35.4164 155.605 35.6444 155.749 35.8724C155.893 36.1004 155.971 36.2924 155.983 36.4484C155.995 36.5684 155.959 36.6704 155.875 36.7544C155.791 36.8264 155.695 36.8624 155.587 36.8624H154.831C154.747 36.8624 154.675 36.8444 154.615 36.8084C154.567 36.7724 154.519 36.7304 154.471 36.6824C154.351 36.5264 154.207 36.3704 154.039 36.2144C153.883 36.0584 153.673 35.9324 153.409 35.8364C153.157 35.7284 152.821 35.6744 152.401 35.6744C151.801 35.6744 151.351 35.8004 151.051 36.0524C150.751 36.3044 150.601 36.6224 150.601 37.0064C150.601 37.2344 150.667 37.4384 150.799 37.6184C150.931 37.7984 151.183 37.9604 151.555 38.1044C151.927 38.2484 152.479 38.4044 153.211 38.5724C154.003 38.7284 154.627 38.9384 155.083 39.2024C155.539 39.4664 155.863 39.7724 156.055 40.1204C156.247 40.4684 156.343 40.8704 156.343 41.3264C156.343 41.8304 156.193 42.2924 155.893 42.7124C155.605 43.1324 155.173 43.4684 154.597 43.7204C154.033 43.9604 153.331 44.0804 152.491 44.0804ZM161.704 43.9004C161.032 43.9004 160.486 43.7744 160.066 43.5224C159.646 43.2584 159.34 42.8924 159.148 42.4244C158.956 41.9444 158.86 41.3804 158.86 40.7324V35.9804H157.456C157.336 35.9804 157.234 35.9444 157.15 35.8724C157.078 35.7884 157.042 35.6864 157.042 35.5664V34.9544C157.042 34.8344 157.078 34.7384 157.15 34.6664C157.234 34.5824 157.336 34.5404 157.456 34.5404H158.86V31.5344C158.86 31.4144 158.896 31.3184 158.968 31.2464C159.052 31.1624 159.154 31.1204 159.274 31.1204H160.12C160.24 31.1204 160.336 31.1624 160.408 31.2464C160.492 31.3184 160.534 31.4144 160.534 31.5344V34.5404H162.766C162.886 34.5404 162.982 34.5824 163.054 34.6664C163.138 34.7384 163.18 34.8344 163.18 34.9544V35.5664C163.18 35.6864 163.138 35.7884 163.054 35.8724C162.982 35.9444 162.886 35.9804 162.766 35.9804H160.534V40.6064C160.534 41.1704 160.63 41.6144 160.822 41.9384C161.014 42.2624 161.356 42.4244 161.848 42.4244H162.946C163.066 42.4244 163.162 42.4664 163.234 42.5504C163.318 42.6224 163.36 42.7184 163.36 42.8384V43.4864C163.36 43.6064 163.318 43.7084 163.234 43.7924C163.162 43.8644 163.066 43.9004 162.946 43.9004H161.704ZM168.447 44.0804C167.211 44.0804 166.227 43.7024 165.495 42.9464C164.763 42.1784 164.361 41.1344 164.289 39.8144C164.277 39.6584 164.271 39.4604 164.271 39.2204C164.271 38.9684 164.277 38.7644 164.289 38.6084C164.337 37.7564 164.535 37.0124 164.883 36.3764C165.231 35.7284 165.705 35.2304 166.305 34.8824C166.917 34.5344 167.631 34.3604 168.447 34.3604C169.359 34.3604 170.121 34.5524 170.733 34.9364C171.357 35.3204 171.831 35.8664 172.155 36.5744C172.479 37.2824 172.641 38.1104 172.641 39.0584V39.3644C172.641 39.4964 172.599 39.5984 172.515 39.6704C172.443 39.7424 172.347 39.7784 172.227 39.7784H165.999C165.999 39.7904 165.999 39.8144 165.999 39.8504C165.999 39.8864 165.999 39.9164 165.999 39.9404C166.023 40.4324 166.131 40.8944 166.323 41.3264C166.515 41.7464 166.791 42.0884 167.151 42.3524C167.511 42.6164 167.943 42.7484 168.447 42.7484C168.879 42.7484 169.239 42.6824 169.527 42.5504C169.815 42.4184 170.049 42.2744 170.229 42.1184C170.409 41.9504 170.529 41.8244 170.589 41.7404C170.697 41.5844 170.781 41.4944 170.841 41.4704C170.901 41.4344 170.997 41.4164 171.129 41.4164H171.993C172.113 41.4164 172.209 41.4524 172.281 41.5244C172.365 41.5844 172.401 41.6744 172.389 41.7944C172.377 41.9744 172.281 42.1964 172.101 42.4604C171.921 42.7124 171.663 42.9644 171.327 43.2164C170.991 43.4684 170.583 43.6784 170.103 43.8464C169.623 44.0024 169.071 44.0804 168.447 44.0804ZM165.999 38.5364H170.931V38.4824C170.931 37.9424 170.829 37.4624 170.625 37.0424C170.433 36.6224 170.151 36.2924 169.779 36.0524C169.407 35.8004 168.963 35.6744 168.447 35.6744C167.931 35.6744 167.487 35.8004 167.115 36.0524C166.755 36.2924 166.479 36.6224 166.287 37.0424C166.095 37.4624 165.999 37.9424 165.999 38.4824V38.5364ZM174.847 43.9004C174.727 43.9004 174.625 43.8644 174.541 43.7924C174.469 43.7084 174.433 43.6064 174.433 43.4864V34.9724C174.433 34.8524 174.469 34.7504 174.541 34.6664C174.625 34.5824 174.727 34.5404 174.847 34.5404H175.675C175.795 34.5404 175.897 34.5824 175.981 34.6664C176.065 34.7504 176.107 34.8524 176.107 34.9724V35.7644C176.347 35.3564 176.677 35.0504 177.097 34.8464C177.517 34.6424 178.021 34.5404 178.609 34.5404H179.329C179.449 34.5404 179.545 34.5824 179.617 34.6664C179.689 34.7384 179.725 34.8344 179.725 34.9544V35.6924C179.725 35.8124 179.689 35.9084 179.617 35.9804C179.545 36.0524 179.449 36.0884 179.329 36.0884H178.249C177.601 36.0884 177.091 36.2804 176.719 36.6644C176.347 37.0364 176.161 37.5464 176.161 38.1944V43.4864C176.161 43.6064 176.119 43.7084 176.035 43.7924C175.951 43.8644 175.849 43.9004 175.729 43.9004H174.847ZM182.549 47.3204C182.453 47.3204 182.369 47.2844 182.297 47.2124C182.225 47.1404 182.189 47.0564 182.189 46.9604C182.189 46.9124 182.195 46.8644 182.207 46.8164C182.219 46.7684 182.243 46.7084 182.279 46.6364L183.665 43.3424L180.227 35.2244C180.167 35.0804 180.137 34.9784 180.137 34.9184C180.137 34.8104 180.173 34.7204 180.245 34.6484C180.317 34.5764 180.407 34.5404 180.515 34.5404H181.397C181.517 34.5404 181.613 34.5704 181.685 34.6304C181.757 34.6904 181.805 34.7624 181.829 34.8464L184.565 41.3984L187.373 34.8464C187.409 34.7624 187.457 34.6904 187.517 34.6304C187.589 34.5704 187.691 34.5404 187.823 34.5404H188.669C188.777 34.5404 188.867 34.5764 188.939 34.6484C189.011 34.7204 189.047 34.8044 189.047 34.9004C189.047 34.9604 189.017 35.0684 188.957 35.2244L183.845 47.0144C183.809 47.0984 183.755 47.1704 183.683 47.2304C183.623 47.2904 183.527 47.3204 183.395 47.3204H182.549Z" fill="white"/>
<rect x="247.92" y="17.4004" width="40" height="40" rx="20" fill="white"/>
<path d="M268.379 44.5804C267.623 44.5804 266.963 44.4904 266.399 44.3104C265.835 44.1184 265.361 43.8664 264.977 43.5544C264.593 43.2424 264.299 42.9004 264.095 42.5284C263.903 42.1564 263.801 41.7724 263.789 41.3764C263.789 41.2684 263.825 41.1844 263.897 41.1244C263.969 41.0644 264.059 41.0344 264.167 41.0344H265.049C265.157 41.0344 265.253 41.0584 265.337 41.1064C265.421 41.1544 265.493 41.2564 265.553 41.4124C265.673 41.8444 265.877 42.1804 266.165 42.4204C266.465 42.6604 266.807 42.8284 267.191 42.9244C267.587 43.0084 267.983 43.0504 268.379 43.0504C269.207 43.0504 269.879 42.8524 270.395 42.4564C270.911 42.0604 271.169 41.4784 271.169 40.7104C271.169 39.9304 270.935 39.3724 270.467 39.0364C269.999 38.7004 269.351 38.5324 268.523 38.5324H266.813C266.693 38.5324 266.591 38.4964 266.507 38.4244C266.435 38.3524 266.399 38.2504 266.399 38.1184V37.6324C266.399 37.5244 266.417 37.4344 266.453 37.3624C266.501 37.2784 266.549 37.2064 266.597 37.1464L270.089 33.3304H264.779C264.659 33.3304 264.557 33.2944 264.473 33.2224C264.401 33.1504 264.365 33.0484 264.365 32.9164V32.2324C264.365 32.1004 264.401 31.9984 264.473 31.9264C264.557 31.8424 264.659 31.8004 264.779 31.8004H271.961C272.093 31.8004 272.195 31.8424 272.267 31.9264C272.351 31.9984 272.393 32.1004 272.393 32.2324V32.8804C272.393 32.9644 272.369 33.0424 272.321 33.1144C272.285 33.1744 272.243 33.2344 272.195 33.2944L268.721 37.1644L269.009 37.1824C269.801 37.2064 270.491 37.3504 271.079 37.6144C271.679 37.8784 272.141 38.2744 272.465 38.8024C272.801 39.3184 272.969 39.9724 272.969 40.7644C272.969 41.5684 272.771 42.2584 272.375 42.8344C271.979 43.3984 271.433 43.8304 270.737 44.1304C270.041 44.4304 269.255 44.5804 268.379 44.5804Z" fill="#9747FF"/>
</svg>
