<svg width="113" height="31" viewBox="0 0 113 31" fill="none" xmlns="http://www.w3.org/2000/svg">
<path d="M31.2382 0H15.857L12.5425 3.28899H3.3145V12.3531L0 15.642V30.99H15.3812L18.6957 27.701H27.912V18.6447L31.2265 15.3557L31.2382 0ZM26.3211 26.1184H4.92496V4.88511H26.3211V26.1184Z" fill="#00368C"/>
<path d="M39.8652 4.59092H36.5059V3.34497H44.6615V4.59092H41.3021V13.8543H39.8652V4.59092Z" fill="#00368C"/>
<path d="M45.9941 3.34518H47.4311V13.8545H45.9941V3.34518Z" fill="#00368C"/>
<path d="M49.5234 3.34518H50.8551L54.5322 10.0857L58.1177 3.34518H59.4494V13.8545H58.0417V6.017L55.2536 11.1826C55.1684 11.3557 55.0536 11.5128 54.9144 11.647C54.812 11.7359 54.68 11.7841 54.5439 11.7824H54.1345L50.9428 6.017V13.8545H49.5234V3.34518Z" fill="#00368C"/>
<path d="M61.6906 13.5546C61.5844 13.4454 61.5021 13.3157 61.4488 13.1736C61.3954 13.0315 61.3722 12.8799 61.3806 12.7285V3.34518H68.8109V4.59113H62.8175V7.86464H68.3566V9.09317H62.8175V12.6085H68.8109V13.8545H62.5309C62.3778 13.8623 62.2246 13.8398 62.0804 13.7883C61.9361 13.7368 61.8036 13.6574 61.6906 13.5546Z" fill="#00368C"/>
<path d="M71.6073 13.4943C71.0629 13.1738 70.6241 12.7033 70.3439 12.14C70.0359 11.5065 69.8829 10.8099 69.8974 10.1067V7.0982C69.8828 6.39349 70.0386 5.69557 70.3517 5.06289C70.6374 4.49847 71.0816 4.02814 71.6307 3.7086C72.2134 3.37971 72.8751 3.21388 73.5453 3.2288H75.148C75.7845 3.21727 76.4131 3.37136 76.971 3.67571C77.492 3.96181 77.9181 4.39198 78.1973 4.91392C78.4928 5.4794 78.6409 6.10925 78.6282 6.74608H77.2205C77.2475 6.15292 77.0445 5.57204 76.6532 5.12287C76.4618 4.91876 76.2282 4.7581 75.9684 4.65191C75.7086 4.54573 75.4287 4.49651 75.148 4.50763H73.5453C73.2407 4.49684 72.9377 4.55579 72.6598 4.67993C72.3819 4.80407 72.1365 4.99006 71.9427 5.22347C71.5332 5.70328 71.3292 6.3385 71.3305 7.12915V10.0699C71.3305 10.8618 71.5254 11.4977 71.9154 11.9775C72.1005 12.2104 72.338 12.3969 72.6088 12.5222C72.8797 12.6476 73.1764 12.7081 73.4751 12.6991H75.109C75.4029 12.71 75.6954 12.6539 75.9641 12.5352C76.2328 12.4165 76.4705 12.2383 76.659 12.0143C77.0663 11.5064 77.2741 10.8692 77.2439 10.2208H78.6516C78.6677 10.9013 78.5199 11.5758 78.2207 12.1884C77.9448 12.7392 77.5133 13.1983 76.9788 13.5098C76.4121 13.8277 75.7695 13.9881 75.1187 13.9741H73.4849C72.8267 13.9863 72.1777 13.8205 71.6073 13.4943Z" fill="#00368C"/>
<path d="M80.0215 3.34497H81.4584V7.93214H86.9975V3.34497H88.4501V13.8543H86.9975V9.19937H81.4584V13.8543H80.0215V3.34497Z" fill="#00368C"/>
<path d="M96.4546 11.0917H92.0366L91.0071 13.8545H89.5098L93.6042 3.34518H94.2534C94.6882 3.34518 94.9962 3.57928 95.1776 4.05135L98.9756 13.8545H97.4919L96.4546 11.0917ZM92.4597 9.89027H96.0315L94.2593 5.14639H94.2456L92.4597 9.89027Z" fill="#00368C"/>
<path d="M100.189 3.34497H101.628V13.8543H100.189V3.34497Z" fill="#00368C"/>
<path d="M103.725 3.34497H105.054L110.646 11.5578V3.34497H112.054V13.8543H110.744L105.123 5.67241V13.8543H103.725V3.34497Z" fill="#00368C"/>
<path d="M43.7553 24.7964H39.3002L38.263 27.5805H36.752L40.8873 16.9861H41.5424C41.9791 16.9861 42.2911 17.2221 42.4724 17.6961L46.3016 27.5805H44.8062L43.7553 24.7964ZM39.7272 23.5853H43.3283L41.5424 18.8028H41.5307L39.7272 23.5853Z" fill="#00368C"/>
<path d="M49.5332 27.2193C48.9829 26.8961 48.5403 26.4199 48.26 25.8496C47.9489 25.2101 47.7946 24.5067 47.8096 23.7968V20.771C47.7942 20.0602 47.9514 19.3561 48.2678 18.7183C48.5539 18.1469 49.0018 17.6709 49.5566 17.3485C50.1438 17.0181 50.8099 16.851 51.4848 16.8648H53.1031C53.7441 16.8525 54.3772 17.0065 54.9397 17.3117C55.4649 17.6 55.8944 18.0336 56.1758 18.5596C56.4744 19.1297 56.6239 19.765 56.6106 20.4073H55.1932C55.2231 19.8074 55.0177 19.2193 54.62 18.7666C54.4278 18.5599 54.1925 18.3973 53.9306 18.29C53.6686 18.1828 53.3862 18.1335 53.1031 18.1456H51.4848C51.1785 18.1365 50.8741 18.1973 50.5952 18.3234C50.3163 18.4496 50.0704 18.6376 49.8763 18.873C49.4656 19.3567 49.2596 19.9971 49.2583 20.7942V23.762C49.2583 24.5591 49.4532 25.1995 49.8432 25.6832C50.0294 25.9181 50.2686 26.1063 50.5415 26.2327C50.8145 26.3591 51.1136 26.42 51.4146 26.4106H53.0621C53.3577 26.4207 53.6518 26.364 53.922 26.2447C54.1923 26.1253 54.4316 25.9466 54.6219 25.7219C55.0306 25.2087 55.2383 24.5662 55.2068 23.9129H56.6262C56.6397 24.5995 56.4879 25.2793 56.1836 25.896C55.9072 26.4521 55.4719 26.915 54.9319 27.2271C54.3609 27.5489 53.7128 27.7113 53.0563 27.6972H51.4088C50.7516 27.709 50.1034 27.5438 49.5332 27.2193Z" fill="#00368C"/>
<path d="M64.9096 24.7964H60.4565L59.4192 27.5805H57.9062L62.0435 16.9861H62.6986C63.1354 16.9861 63.4454 17.2227 63.6286 17.6961L67.4598 27.5805H65.9644L64.9096 24.7964ZM60.8835 23.5853H64.4826L62.6986 18.8028H62.683L60.8835 23.5853Z" fill="#00368C"/>
<path d="M69.8312 27.2798C69.7239 27.1701 69.6406 27.0396 69.5866 26.8964C69.5325 26.7532 69.5089 26.6005 69.5173 26.4479V16.9872H74.1693C74.8739 16.9713 75.5722 17.1219 76.2067 17.4264C76.7756 17.6999 77.2503 18.134 77.5715 18.6743C77.8989 19.2371 78.0654 19.8779 78.0531 20.5277V23.7374C78.0531 24.9988 77.7281 25.9552 77.0782 26.6065C76.4283 27.2579 75.4801 27.5803 74.2336 27.5739H70.6773C70.5237 27.5832 70.3697 27.562 70.2243 27.5115C70.079 27.461 69.9454 27.3823 69.8312 27.2798ZM74.1849 26.295C74.979 26.295 75.5789 26.0784 75.9844 25.645C76.39 25.2116 76.5934 24.5667 76.5947 23.7103V20.5587C76.6074 20.2503 76.5534 19.9427 76.4363 19.6567C76.3193 19.3708 76.142 19.113 75.9162 18.9006C75.4241 18.468 74.7812 18.2431 74.1244 18.2738H70.9698V26.295H74.1849Z" fill="#00368C"/>
<path d="M81.0266 27.2787C80.9196 27.1688 80.8367 27.0382 80.783 26.895C80.7293 26.7519 80.7061 26.5993 80.7146 26.4467V16.9861H88.2035V18.2417H82.1594V21.5423H87.7433V22.7824H82.1633V26.3249H88.2073V27.5805H81.8727C81.7186 27.588 81.5645 27.5653 81.4193 27.5135C81.274 27.4617 81.1406 27.3819 81.0266 27.2787Z" fill="#00368C"/>
<path d="M90.7812 16.9861H92.1227L95.8271 23.7827L99.4458 16.9861H100.787V27.5805H99.3678V19.6792L96.5621 24.8874C96.4756 25.0618 96.3596 25.2202 96.219 25.3556C96.1155 25.4455 95.9822 25.4944 95.8446 25.4929H95.4333L92.2201 19.6792V27.5805H90.7871L90.7812 16.9861Z" fill="#00368C"/>
<path d="M106.784 23.4953L102.848 16.987H104.419L107.515 22.1778L110.613 16.987H112.173L108.248 23.4953V27.5814H106.784V23.4953Z" fill="#00368C"/>
<path d="M22.8362 12.2582C22.8362 12.3162 22.768 12.3259 22.7251 12.3472L18.9797 14.3167C17.9093 14.8816 16.835 15.4446 15.7705 16.0251C15.6086 16.1121 15.5151 16.0251 15.3942 15.9825C15.0042 15.7716 14.6143 15.5549 14.2243 15.3518C14.0879 15.2802 14.1132 15.2318 14.1951 15.1332C14.8632 14.3451 15.5255 13.5519 16.1819 12.7535C16.3024 12.6047 16.3605 12.4154 16.3439 12.2252C16.3273 12.0349 16.2373 11.8584 16.0927 11.7324C15.9481 11.6064 15.7601 11.5406 15.5678 11.5488C15.3756 11.557 15.1939 11.6386 15.0608 11.7765C14.6318 12.2601 14.2224 12.7632 13.8071 13.2604C13.4744 13.655 13.1429 14.0517 12.8128 14.4502C12.8006 14.47 12.7844 14.487 12.7652 14.5003C12.746 14.5135 12.7242 14.5226 12.7013 14.5269C12.6783 14.5313 12.6547 14.5309 12.6319 14.5256C12.6092 14.5204 12.5877 14.5106 12.569 14.4966C11.2146 13.7769 9.85765 13.0592 8.49805 12.3433C8.46101 12.322 8.40642 12.3104 8.40252 12.2621C8.39862 12.2137 8.46101 12.1885 8.50195 12.1653C9.37152 11.7087 10.245 11.2599 11.1087 10.7936C12.2239 10.19 13.3606 9.63281 14.4642 9.00597C14.8229 8.8125 15.1992 8.63257 15.5638 8.44297C15.6457 8.39847 15.6925 8.44297 15.7588 8.4836L17.3185 9.30004L20.7812 11.1341L22.7309 12.1653C22.7738 12.1885 22.8382 12.1982 22.8362 12.2582Z" fill="#09E0CF"/>
<path d="M12.0879 20.4501C12.0879 20.6048 12.0626 20.6435 11.9144 20.5584C11.2788 20.214 10.6373 19.8793 9.99394 19.5446C9.94993 19.5288 9.9131 19.4979 9.89019 19.4574C9.86729 19.4169 9.85982 19.3696 9.86916 19.3241C9.9858 18.3077 10.2126 17.3069 10.5457 16.3388C10.6412 16.0583 10.7621 15.772 10.8655 15.4779C10.9161 15.3386 10.9824 15.3328 11.1033 15.3986C11.3763 15.5495 11.6531 15.6939 11.9339 15.8319C11.9849 15.8497 12.0281 15.8845 12.0562 15.9304C12.0843 15.9762 12.0955 16.0303 12.0879 16.0835C12.0879 16.8128 12.0879 17.5403 12.0879 18.2677C12.0879 18.9952 12.0879 19.7226 12.0879 20.4501Z" fill="#09E0CF"/>
<path d="M21.3753 19.3477C21.3909 19.4483 21.3363 19.4947 21.2603 19.5411L19.9852 20.2183L17.5169 21.5145C17.472 21.5377 17.4311 21.5687 17.3882 21.5938C16.8637 21.8705 16.3353 22.1433 15.8128 22.4258C15.7616 22.4625 15.7004 22.4833 15.6372 22.4853C15.574 22.4874 15.5116 22.4707 15.458 22.4374C14.8731 22.1201 14.2882 21.8241 13.7032 21.5242C13.6636 21.5101 13.6297 21.4836 13.6065 21.4487C13.5833 21.4138 13.5721 21.3724 13.5746 21.3307C13.5746 19.8488 13.5746 18.3655 13.5746 16.8809C13.5746 16.6875 13.6545 16.7494 13.75 16.7997L15.1148 17.5232C15.1972 17.5808 15.292 17.6186 15.3917 17.6335C15.6958 17.7515 15.9513 17.6006 16.2047 17.4729C16.7175 17.2195 17.2244 16.9448 17.743 16.6758L20.11 15.4299C20.3186 15.3196 20.3166 15.3235 20.4024 15.5305C20.7899 16.4881 21.0748 17.4835 21.2525 18.5003C21.3071 18.7808 21.3324 19.0633 21.3753 19.3477Z" fill="#09E0CF"/>
</svg>
