<svg width="134" height="40" viewBox="0 0 134 40" fill="none" xmlns="http://www.w3.org/2000/svg">
<path fill-rule="evenodd" clip-rule="evenodd" d="M83.0965 31.2828C75.4042 36.9706 64.2154 40.0009 54.5651 40.0009C41.0453 40.0009 28.924 35.0125 19.6933 26.714C18.994 26.0613 19.6 25.1755 20.4858 25.6883C30.4159 31.4693 42.677 34.9192 55.3576 34.9192C63.8891 34.9192 73.3063 33.1476 81.9777 29.4646C83.283 28.9518 84.3553 30.3504 83.0965 31.2828Z" fill="#FF9900"/>
<path fill-rule="evenodd" clip-rule="evenodd" d="M86.3137 27.5996C85.3346 26.3409 79.7868 26.9936 77.316 27.3199C76.5701 27.4132 76.4302 26.7605 77.1295 26.2943C81.5584 23.1707 88.7845 24.1031 89.6237 25.1287C90.4628 26.1544 89.3906 33.4273 85.2414 36.8772C84.5887 37.39 83.9826 37.1103 84.2624 36.411C85.1948 34.0799 87.2927 28.905 86.3137 27.5996Z" fill="#FF9900"/>
<path fill-rule="evenodd" clip-rule="evenodd" d="M77.4544 4.38235V1.352C77.4544 0.885792 77.7807 0.606065 78.2003 0.606065H91.7201C92.1397 0.606065 92.5127 0.932413 92.5127 1.352V3.91614C92.5127 4.33573 92.1397 4.89518 91.487 5.8276L84.494 15.8044C87.1048 15.7578 89.8553 16.1308 92.1863 17.4362C92.6992 17.7159 92.839 18.1821 92.8856 18.6017V21.8185C92.8856 22.2847 92.4194 22.7976 91.9066 22.5178C87.7574 20.3267 82.2097 20.0936 77.6409 22.5645C77.1747 22.7976 76.6619 22.3314 76.6619 21.8652V18.7882C76.6619 18.322 76.6619 17.4828 77.1747 16.7369L85.2866 5.12829H78.2469C77.8274 5.12829 77.4544 4.80194 77.4544 4.38235ZM28.177 23.1705H24.0744C23.7015 23.1239 23.3751 22.8442 23.3285 22.4712V1.39862C23.3285 0.979037 23.7015 0.652688 24.1211 0.652688H27.9439C28.3635 0.652688 28.6432 0.979034 28.6898 1.352V4.10262H28.7831C29.7621 1.44524 31.6735 0.18648 34.191 0.18648C36.7551 0.18648 38.3868 1.44524 39.5057 4.10262C40.4847 1.44524 42.7691 0.18648 45.1933 0.18648C46.9183 0.18648 48.7831 0.885792 49.9486 2.51752C51.2539 4.28911 50.9742 6.85326 50.9742 9.13768V22.4712C50.9742 22.8908 50.6013 23.2172 50.1817 23.2172H46.1257C45.7061 23.1705 45.3798 22.8442 45.3798 22.4712V11.2822C45.3798 10.3964 45.4731 8.15863 45.2866 7.31946C44.9602 5.92083 44.0744 5.50125 42.8623 5.50125C41.8833 5.50125 40.811 6.15395 40.3915 7.22622C39.9719 8.2985 40.0185 10.0701 40.0185 11.2822V22.4712C40.0185 22.8908 39.6455 23.2172 39.226 23.2172H35.1234C34.7038 23.1705 34.3775 22.8442 34.3775 22.4712V11.2822C34.3775 8.95118 34.7504 5.45462 31.86 5.45462C28.9229 5.45462 29.0162 8.81132 29.0162 11.2822V22.4712C28.9695 22.8442 28.6432 23.1705 28.177 23.1705ZM104.168 0.18648C110.275 0.18648 113.585 5.40801 113.585 12.0748C113.585 18.5085 109.949 23.6367 104.168 23.6367C98.2003 23.6367 94.9369 18.4152 94.9369 11.8883C94.8903 5.31477 98.2003 0.18648 104.168 0.18648ZM104.168 4.52221C101.137 4.52221 100.951 8.67147 100.951 11.2356C100.951 13.7998 100.904 19.301 104.121 19.301C107.291 19.301 107.478 14.872 107.478 12.168C107.478 10.3964 107.384 8.25188 106.872 6.57354C106.405 5.08167 105.473 4.52221 104.168 4.52221ZM121.464 23.1705H117.361C116.942 23.1239 116.615 22.7976 116.615 22.4246V1.30538C116.662 0.93241 116.988 0.606065 117.408 0.606065H121.231C121.604 0.606065 121.883 0.885798 121.977 1.21214V4.42898H122.07C123.235 1.53849 124.82 0.18648 127.664 0.18648C129.482 0.18648 131.301 0.839166 132.466 2.65738C133.538 4.33573 133.538 7.1796 133.538 9.23091V22.5178C133.492 22.8908 133.165 23.1705 132.746 23.1705H128.643C128.27 23.1239 127.944 22.8442 127.897 22.5178V11.0491C127.897 8.71808 128.177 5.36139 125.333 5.36139C124.354 5.36139 123.422 6.01409 122.956 7.03974C122.396 8.34513 122.303 9.60388 122.303 11.0491V22.4246C122.256 22.8442 121.883 23.1705 121.464 23.1705ZM66.6852 13.1004C66.6852 14.6856 66.7318 16.0376 65.9393 17.4828C65.2866 18.6483 64.2609 19.3476 63.0954 19.3476C61.5103 19.3476 60.5779 18.1355 60.5779 16.3639C60.5779 12.8673 63.7015 12.2146 66.6852 12.2146V13.1004ZM70.8344 23.1239C70.5546 23.357 70.1817 23.4036 69.8553 23.2172C68.5033 22.0983 68.2236 21.5388 67.4777 20.4665C65.2399 22.7509 63.6082 23.4503 60.7178 23.4503C57.2679 23.4503 54.564 21.3057 54.564 17.0632C54.564 13.7065 56.3821 11.4687 58.9462 10.3498C61.184 9.37077 64.3076 9.1843 66.6852 8.90458V8.39174C66.6852 7.41271 66.7784 6.24719 66.1723 5.40802C65.6595 4.66208 64.7271 4.33573 63.888 4.33573C62.3029 4.33573 60.9043 5.12829 60.5779 6.80664C60.4847 7.17961 60.2516 7.55256 59.8786 7.55256L55.9159 7.13298C55.5896 7.03973 55.2166 6.80664 55.3099 6.29381C56.2423 1.44524 60.5779 0 64.494 0C66.4987 0 69.1094 0.512826 70.6945 2.05131C72.6992 3.91614 72.5127 6.43367 72.5127 9.13768V15.5247C72.5127 17.4362 73.3052 18.2754 74.0511 19.3476C74.3309 19.7206 74.3775 20.1868 74.0511 20.4199C73.1654 21.1192 71.6735 22.4246 70.8344 23.1239ZM12.839 13.1004C12.839 14.6856 12.8856 16.0376 12.0931 17.4828C11.4404 18.6483 10.4148 19.3476 9.24926 19.3476C7.66418 19.3476 6.73178 18.1355 6.73178 16.3639C6.73178 12.8673 9.85533 12.2146 12.839 12.2146V13.1004ZM16.9416 23.1239C16.6618 23.357 16.2889 23.4036 15.9626 23.2172C14.6106 22.0983 14.3308 21.5388 13.5849 20.4665C11.3472 22.7509 9.71546 23.4503 6.82502 23.4503C3.37513 23.4503 0.671173 21.3057 0.671173 17.0632C0.671173 13.7065 2.48935 11.4687 5.05346 10.3498C7.29122 9.37077 10.4148 9.1843 12.7924 8.90458V8.39174C12.7924 7.41271 12.8856 6.24719 12.2796 5.40802C11.7667 4.66208 10.8343 4.33573 9.99518 4.33573C8.4101 4.33573 7.0115 5.12829 6.68516 6.80664C6.59192 7.17961 6.35882 7.55256 5.98586 7.55256L2.02315 7.13298C1.69681 7.03973 1.32386 6.80664 1.4171 6.29381C2.3495 1.44524 6.68516 0 10.6012 0C12.6059 0 15.2166 0.512826 16.8017 2.05131C18.8064 3.91614 18.6199 6.43367 18.6199 9.13768V15.5247C18.6199 17.4362 19.4124 18.2754 20.1584 19.3476C20.4381 19.7206 20.4847 20.1868 20.1584 20.4199C19.2726 21.1192 17.7807 22.4246 16.9416 23.1239Z" fill="black"/>
</svg>
