<svg width="206" height="65" viewBox="0 0 206 65" fill="none" xmlns="http://www.w3.org/2000/svg">
<rect y="20.918" width="240" height="44" rx="22" transform="rotate(-5 0 20.918)" fill="#17A9AC"/>
<rect x="0.541675" y="21.3725" width="239" height="43" rx="21.5" transform="rotate(-5 0.541675 21.3725)" stroke="black" stroke-opacity="0.05"/>
<path d="M35.986 46.3784C35.8903 46.3868 35.7975 46.3588 35.7076 46.2943C35.6296 46.2289 35.5859 46.1424 35.5764 46.0348C35.5723 45.987 35.5795 45.9321 35.5982 45.8703L38.9078 33.9264C38.9332 33.8037 38.9901 33.6963 39.0784 33.6043C39.1776 33.4992 39.3169 33.4389 39.4962 33.4232L41.4507 33.2522C41.63 33.2365 41.7717 33.2723 41.8757 33.3595C41.9787 33.4349 42.0593 33.5302 42.1175 33.6456L47.4509 44.8333C47.4681 44.892 47.4788 44.9453 47.483 44.9931C47.4924 45.1007 47.4644 45.1935 47.3989 45.2715C47.3335 45.3495 47.2529 45.3927 47.1573 45.401L45.5972 45.5375C45.4299 45.5522 45.3012 45.5273 45.2113 45.4629C45.1322 45.3855 45.0776 45.312 45.0474 45.2423L44.0132 43.1284L38.6876 43.5943L38.0362 45.8557C38.0186 45.9295 37.9716 46.012 37.8952 46.103C37.8298 46.181 37.7134 46.2273 37.546 46.2419L35.986 46.3784ZM39.1348 41.4773L43.2052 41.1212L40.6763 35.7592L39.1348 41.4773ZM52.523 45.1123C51.8057 45.175 51.1828 45.1452 50.6541 45.0228C50.1374 44.8994 49.7066 44.7263 49.3619 44.5035C49.0172 44.2807 48.7561 44.0506 48.5788 43.8131C48.4014 43.5757 48.2994 43.3738 48.2728 43.2075C48.2494 43.077 48.2763 42.9723 48.3537 42.8932C48.442 42.8012 48.54 42.7504 48.6476 42.741L50.0642 42.6171C50.112 42.6129 50.1544 42.6152 50.1913 42.624C50.2282 42.6329 50.2791 42.6645 50.3441 42.7191C50.511 42.837 50.6845 42.9603 50.8644 43.0892C51.0562 43.2169 51.2764 43.3241 51.5249 43.4108C51.7724 43.4855 52.0754 43.5072 52.434 43.4758C52.9003 43.435 53.2809 43.3114 53.5761 43.1049C53.8821 42.8854 54.0199 42.6023 53.9896 42.2556C53.9676 42.0046 53.8781 41.8076 53.7211 41.6647C53.576 41.5208 53.3129 41.4053 52.9319 41.3182C52.5498 41.2191 52.0118 41.1277 51.3178 41.0438C50.6348 40.947 50.0617 40.7984 49.5984 40.598C49.1352 40.3976 48.7803 40.1275 48.5338 39.7877C48.2872 39.4479 48.143 39.0389 48.1012 38.5607C48.0604 38.0945 48.1592 37.6402 48.3975 37.1977C48.6468 36.7423 49.0343 36.353 49.5601 36.03C50.0979 35.7059 50.7793 35.5077 51.6041 35.4356C52.2497 35.3791 52.8188 35.4136 53.3116 35.5391C53.8034 35.6527 54.2152 35.8154 54.5469 36.0273C54.8906 36.2382 55.1571 36.4618 55.3464 36.6982C55.5347 36.9226 55.6426 37.124 55.6703 37.3023C55.6937 37.4327 55.6673 37.5434 55.5909 37.6344C55.5135 37.7135 55.421 37.7577 55.3134 37.7671L53.9865 37.8832C53.9267 37.8885 53.8719 37.8812 53.822 37.8615C53.7721 37.8418 53.7217 37.8161 53.6707 37.7844C53.5287 37.6763 53.3743 37.5634 53.2074 37.4455C53.0405 37.3276 52.8393 37.2307 52.6038 37.155C52.3792 37.0662 52.0876 37.0375 51.729 37.0689C51.2747 37.1086 50.9369 37.2406 50.7156 37.4647C50.4932 37.6769 50.3951 37.9324 50.4213 38.2313C50.4391 38.4345 50.5085 38.6091 50.6297 38.7551C50.7618 38.8881 51.007 39.0052 51.3651 39.1063C51.7233 39.2075 52.2613 39.299 52.9792 39.3807C53.7927 39.4541 54.4451 39.6138 54.9364 39.86C55.4386 40.0931 55.8016 40.3866 56.0253 40.7404C56.2599 41.0813 56.3965 41.4728 56.4352 41.9151C56.4823 42.4531 56.3633 42.9514 56.0782 43.41C55.805 43.8675 55.3686 44.249 54.7689 44.5544C54.1802 44.8468 53.4315 45.0328 52.523 45.1123ZM59.2648 47.7748C59.1452 47.7853 59.04 47.7523 58.949 47.676C58.858 47.5996 58.8072 47.5017 58.7968 47.3821L57.7582 35.5115C57.7478 35.3919 57.7807 35.2867 57.8571 35.1957C57.9334 35.1047 58.0314 35.0539 58.1509 35.0435L59.5675 34.9195C59.699 34.908 59.8043 34.941 59.8833 35.0184C59.9743 35.0947 60.0251 35.1927 60.0355 35.3122L60.0983 36.0295C60.3517 35.6219 60.7006 35.2721 61.1448 34.9803C61.5891 34.6885 62.1579 34.5122 62.8512 34.4516C63.4848 34.3961 64.0436 34.4496 64.5276 34.6121C65.0116 34.7745 65.4257 35.0334 65.77 35.3887C66.1133 35.7321 66.391 36.1535 66.6034 36.6529C66.8157 37.1523 66.961 37.7118 67.0393 38.3313C67.0691 38.5335 67.0933 38.7422 67.1122 38.9573C67.131 39.1725 67.1438 39.3882 67.1507 39.6044C67.191 40.2032 67.15 40.7669 67.0276 41.2956C66.9042 41.8123 66.6978 42.2761 66.4085 42.6869C66.1301 43.0846 65.7672 43.4115 65.3199 43.6675C64.8725 43.9234 64.332 44.0791 63.6984 44.1346C63.0529 44.191 62.493 44.1256 62.0189 43.9382C61.5437 43.7389 61.1459 43.4605 60.8256 43.103L61.1817 47.1735C61.1921 47.293 61.1592 47.3983 61.0828 47.4893C61.0184 47.5793 60.9205 47.63 60.789 47.6415L59.2648 47.7748ZM62.8671 42.2739C63.3811 42.229 63.7722 42.0863 64.0402 41.8461C64.3073 41.5938 64.4849 41.2832 64.573 40.9141C64.6732 40.5439 64.7163 40.1427 64.7026 39.7102C64.6951 39.3495 64.6638 38.9909 64.6085 38.6343C64.5469 38.2061 64.4347 37.8184 64.2718 37.4712C64.1209 37.1231 63.8926 36.8539 63.5869 36.6639C63.2801 36.4618 62.8697 36.3833 62.3556 36.4283C61.8655 36.4712 61.475 36.6198 61.184 36.8741C60.905 37.1274 60.7095 37.4396 60.5974 37.8108C60.4963 38.169 60.4499 38.5344 60.4585 38.9071C60.4653 39.1233 60.4792 39.3509 60.5001 39.59C60.5211 39.8291 60.5474 40.0617 60.5793 40.2878C60.6226 40.6454 60.7366 40.9847 60.9213 41.3058C61.1049 41.615 61.3556 41.8641 61.6733 42.0531C61.991 42.2422 62.3889 42.3158 62.8671 42.2739ZM69.9634 43.4058C69.8438 43.4162 69.7385 43.3833 69.6475 43.3069C69.5565 43.2306 69.5058 43.1326 69.4953 43.0131L68.7549 34.5494C68.7444 34.4298 68.7774 34.3246 68.8537 34.2336C68.9301 34.1426 69.028 34.0918 69.1476 34.0814L70.6359 33.9512C70.7674 33.9397 70.8727 33.9726 70.9517 34.05C71.0427 34.1264 71.0934 34.2243 71.1039 34.3439L71.8444 42.8076C71.8548 42.9271 71.8219 43.0324 71.7455 43.1234C71.6811 43.2133 71.5832 43.2641 71.4517 43.2756L69.9634 43.4058ZM68.9409 32.5456C68.8094 32.5571 68.6987 32.5306 68.6088 32.4662C68.5297 32.3888 68.4844 32.2843 68.4729 32.1528L68.36 30.8618C68.3495 30.7422 68.3765 30.6375 68.4409 30.5475C68.5172 30.4565 68.6212 30.4053 68.7527 30.3938L70.3844 30.251C70.5159 30.2395 70.6272 30.2719 70.7182 30.3483C70.8092 30.4247 70.8599 30.5226 70.8704 30.6421L70.9833 31.9332C70.9948 32.0647 70.9624 32.176 70.8861 32.267C70.8086 32.346 70.7042 32.3913 70.5727 32.4028L68.9409 32.5456ZM74.6914 42.9921C74.5718 43.0026 74.4666 42.9696 74.3756 42.8933C74.2846 42.8169 74.2338 42.719 74.2234 42.5994L73.4845 34.1537C73.473 34.0222 73.5054 33.9109 73.5818 33.8199C73.6581 33.7289 73.7561 33.6782 73.8756 33.6677L75.3281 33.5407C75.4476 33.5302 75.5529 33.5632 75.6439 33.6395C75.7468 33.7148 75.8041 33.8182 75.8156 33.9497L75.8799 34.6849C76.1214 34.2783 76.4484 33.9546 76.861 33.7137C77.2855 33.4718 77.7847 33.3257 78.3585 33.2755L79.0937 33.2112C79.2252 33.1997 79.3304 33.2327 79.4095 33.3101C79.5005 33.3864 79.5512 33.4844 79.5617 33.6039L79.6746 34.895C79.6851 35.0145 79.6521 35.1198 79.5758 35.2108C79.5114 35.3008 79.4134 35.3515 79.2819 35.363L77.8833 35.4854C77.3095 35.5356 76.8753 35.7362 76.5808 36.0872C76.2982 36.4371 76.1815 36.893 76.2306 37.4549L76.6621 42.3861C76.6725 42.5056 76.6396 42.6109 76.5632 42.7019C76.4869 42.7929 76.3829 42.8441 76.2514 42.8556L74.6914 42.9921ZM82.1687 42.3379C82.0491 42.3484 81.9439 42.3154 81.8529 42.2391C81.7619 42.1627 81.7111 42.0648 81.7007 41.9452L80.9602 33.4816C80.9497 33.362 80.9827 33.2567 81.0591 33.1657C81.1354 33.0747 81.2334 33.024 81.3529 33.0136L82.8412 32.8833C82.9727 32.8718 83.078 32.9048 83.157 32.9822C83.248 33.0586 83.2988 33.1565 83.3092 33.2761L84.0497 41.7397C84.0602 41.8593 84.0272 41.9645 83.9509 42.0555C83.8864 42.1455 83.7885 42.1962 83.657 42.2077L82.1687 42.3379ZM81.1463 31.4777C81.0148 31.4892 80.904 31.4628 80.8141 31.3984C80.735 31.321 80.6898 31.2165 80.6783 31.085L80.5653 29.794C80.5548 29.6744 80.5818 29.5697 80.6462 29.4797C80.7226 29.3887 80.8265 29.3374 80.958 29.3259L82.5898 29.1832C82.7213 29.1717 82.8325 29.2041 82.9235 29.2805C83.0145 29.3568 83.0653 29.4548 83.0757 29.5743L83.1887 30.8654C83.2002 30.9969 83.1677 31.1081 83.0914 31.1991C83.014 31.2782 82.9095 31.3235 82.778 31.335L81.1463 31.4777ZM86.8967 41.9243C86.7772 41.9347 86.6719 41.9018 86.5809 41.8254C86.4899 41.7491 86.4392 41.6511 86.4287 41.5316L85.6882 33.0679C85.6778 32.9484 85.7107 32.8431 85.7871 32.7521C85.8634 32.6611 85.9614 32.6104 86.0809 32.5999L87.5513 32.4713C87.6709 32.4608 87.7761 32.4938 87.8671 32.5701C87.9581 32.6465 88.0089 32.7444 88.0193 32.864L88.0836 33.5992C88.361 33.1894 88.7278 32.8381 89.184 32.5453C89.6511 32.2394 90.2433 32.0551 90.9606 31.9923C91.6898 31.9285 92.338 32.0404 92.9052 32.3281C93.4714 32.6038 93.9241 33.028 94.2633 33.6006C94.6144 34.1721 94.8266 34.8763 94.8998 35.7131L95.3407 40.7519C95.3511 40.8714 95.3182 40.9767 95.2418 41.0677C95.1655 41.1587 95.0675 41.2094 94.948 41.2199L93.37 41.358C93.2504 41.3684 93.1452 41.3355 93.0542 41.2591C92.9632 41.1827 92.9124 41.0848 92.902 40.9652L92.4706 36.0341C92.4099 35.3407 92.189 34.812 91.8078 34.4478C91.4386 34.0826 90.9312 33.9282 90.2856 33.9847C89.664 34.0391 89.1852 34.2798 88.8491 34.7067C88.513 35.1336 88.3753 35.6937 88.436 36.3871L88.8674 41.3182C88.8779 41.4378 88.8449 41.543 88.7685 41.634C88.6922 41.725 88.5942 41.7758 88.4747 41.7862L86.8967 41.9243ZM102.215 44.5592C101.342 44.6356 100.615 44.5848 100.033 44.4068C99.4518 44.2288 98.9854 43.9926 98.6344 43.698C98.2834 43.4035 98.022 43.1011 97.8504 42.7909C97.6917 42.4916 97.5985 42.2528 97.5709 42.0746C97.5484 41.9561 97.5749 41.8453 97.6502 41.7424C97.7385 41.6503 97.8424 41.5991 97.962 41.5886L99.522 41.4521C99.6416 41.4417 99.7393 41.4572 99.8152 41.4988C99.8922 41.5522 99.9608 41.6486 100.021 41.7879C100.107 41.937 100.217 42.096 100.352 42.2649C100.487 42.4337 100.68 42.5675 100.929 42.6661C101.192 42.7756 101.538 42.8116 101.969 42.7739C102.423 42.7342 102.8 42.635 103.099 42.4763C103.398 42.3176 103.612 42.076 103.74 41.7516C103.88 41.4262 103.926 40.9885 103.878 40.4386L103.772 39.2193C103.515 39.591 103.169 39.9044 102.734 40.1593C102.31 40.4132 101.77 40.5689 101.112 40.6264C100.467 40.6829 99.9018 40.6299 99.4178 40.4675C98.9328 40.2931 98.5186 40.0342 98.1754 39.6908C97.8311 39.3354 97.5528 38.9081 97.3405 38.4087C97.1401 37.9082 97.0008 37.3483 96.9225 36.7287C96.8823 36.407 96.854 36.0842 96.8377 35.7604C96.8094 35.1606 96.8504 34.5969 96.9608 34.0693C97.0713 33.5416 97.2651 33.0729 97.5425 32.6632C97.8307 32.2405 98.1986 31.9011 98.646 31.6452C99.0934 31.3892 99.6398 31.233 100.285 31.1765C100.967 31.1169 101.552 31.1982 102.041 31.4204C102.529 31.6306 102.94 31.914 103.272 32.2704L103.209 31.5531C103.198 31.4216 103.23 31.3103 103.307 31.2193C103.383 31.1283 103.481 31.0776 103.6 31.0672L105.053 30.9401C105.172 30.9296 105.278 30.9626 105.369 31.0389C105.46 31.1153 105.511 31.2192 105.522 31.3507L106.297 39.9921C106.372 40.8528 106.275 41.6081 106.007 42.258C105.739 42.9079 105.29 43.4289 104.662 43.8212C104.047 44.2243 103.231 44.4703 102.215 44.5592ZM101.609 38.6676C102.099 38.6247 102.484 38.4826 102.765 38.2413C103.045 38 103.241 37.6997 103.354 37.3405C103.467 36.9813 103.52 36.6213 103.513 36.2606C103.511 36.1041 103.5 35.9063 103.479 35.6672C103.458 35.4282 103.435 35.2374 103.411 35.095C103.354 34.7265 103.24 34.3812 103.067 34.059C102.893 33.7249 102.648 33.4633 102.33 33.2743C102.011 33.0733 101.607 32.9942 101.117 33.0371C100.627 33.08 100.242 33.2281 99.963 33.4814C99.683 33.7227 99.4929 34.0284 99.3928 34.3986C99.3046 34.7676 99.2674 35.1684 99.2811 35.6009C99.2823 35.8899 99.308 36.1827 99.358 36.4795C99.4185 36.8958 99.5248 37.284 99.6767 37.6442C99.8396 37.9913 100.08 38.2594 100.398 38.4484C100.715 38.6374 101.119 38.7105 101.609 38.6676ZM113.449 39.6013C113.329 39.6117 113.224 39.5788 113.133 39.5024C113.042 39.4261 112.991 39.3281 112.981 39.2086L111.959 27.5352C111.948 27.4037 111.98 27.2924 112.057 27.2014C112.133 27.1104 112.231 27.0597 112.351 27.0492L116.726 26.6664C117.933 26.5608 118.942 26.6593 119.751 26.9619C120.573 27.2635 121.212 27.7616 121.671 28.4563C122.141 29.1499 122.428 30.0222 122.532 31.0732C122.602 31.5971 122.655 32.0622 122.69 32.4687C122.726 32.8751 122.754 33.3364 122.775 33.8526C122.849 34.9664 122.726 35.9047 122.407 36.6673C122.087 37.4181 121.555 38.0067 120.809 38.4334C120.074 38.847 119.109 39.1061 117.914 39.2107L113.449 39.6013ZM115.331 37.3588L117.644 37.1564C118.313 37.0978 118.849 36.9546 119.25 36.7267C119.652 36.4988 119.93 36.1673 120.085 35.7322C120.25 35.2841 120.309 34.7128 120.26 34.0184C120.241 33.6587 120.219 33.3474 120.196 33.0844C120.184 32.8084 120.161 32.5394 120.126 32.2775C120.102 32.0025 120.069 31.6922 120.026 31.3466C119.917 30.3684 119.608 29.6666 119.101 29.2412C118.594 28.8158 117.833 28.6475 116.817 28.7364L114.593 28.9309L115.331 37.3588ZM129.444 38.3826C128.117 38.4987 127.031 38.2082 126.187 37.5111C125.343 36.814 124.83 35.7628 124.647 34.3574C124.624 34.2389 124.605 34.09 124.589 33.9107C124.573 33.7194 124.566 33.5694 124.568 33.4608C124.538 32.56 124.673 31.7652 124.974 31.0764C125.287 30.3865 125.751 29.8399 126.366 29.4368C126.98 29.0217 127.724 28.7759 128.597 28.6996C129.565 28.6149 130.396 28.747 131.089 29.0959C131.781 29.4329 132.325 29.9453 132.723 30.6333C133.119 31.3093 133.358 32.1136 133.44 33.046L133.473 33.4226C133.483 33.5421 133.45 33.6474 133.374 33.7384C133.298 33.8294 133.194 33.8806 133.062 33.8921L127.109 34.413C127.109 34.413 127.11 34.4309 127.114 34.4668C127.117 34.5026 127.119 34.5325 127.121 34.5564C127.17 34.9738 127.282 35.3555 127.456 35.7016C127.642 36.0347 127.888 36.2963 128.194 36.4863C128.511 36.6754 128.873 36.7521 129.28 36.7165C129.615 36.6873 129.891 36.6149 130.11 36.4994C130.328 36.3719 130.503 36.2361 130.635 36.0921C130.767 35.948 130.859 35.8316 130.911 35.7427C131.006 35.5898 131.083 35.4988 131.14 35.4697C131.209 35.4275 131.309 35.4007 131.44 35.3892L132.983 35.2543C133.102 35.2438 133.201 35.2713 133.279 35.3368C133.369 35.4012 133.412 35.4877 133.41 35.5963C133.415 35.7886 133.334 36.0306 133.166 36.3223C133.011 36.613 132.772 36.9049 132.448 37.1983C132.124 37.4916 131.707 37.7509 131.197 37.9762C130.698 38.1886 130.113 38.324 129.444 38.3826ZM126.977 32.9067L130.94 32.56L130.935 32.5062C130.894 32.04 130.781 31.6404 130.595 31.3073C130.41 30.9742 130.158 30.7191 129.842 30.5421C129.525 30.365 129.158 30.2948 128.739 30.3314C128.321 30.368 127.971 30.5009 127.69 30.7303C127.409 30.9597 127.206 31.2545 127.081 31.6148C126.968 31.974 126.932 32.3867 126.972 32.853L126.977 32.9067ZM138.727 37.3897C138.536 37.4064 138.389 37.3772 138.286 37.3018C138.194 37.2135 138.113 37.1122 138.042 36.9979L133.961 28.9711C133.932 28.9134 133.915 28.8606 133.911 28.8128C133.902 28.7052 133.93 28.6124 133.995 28.5344C134.072 28.4434 134.164 28.3932 134.271 28.3838L135.724 28.2567C135.867 28.2442 135.978 28.2766 136.057 28.354C136.135 28.4195 136.19 28.487 136.22 28.5566L139.155 34.6419L140.99 28.1393C141.007 28.0655 141.049 27.9896 141.114 27.9116C141.179 27.8216 141.283 27.7704 141.426 27.7578L142.896 27.6292C142.992 27.6208 143.079 27.6554 143.158 27.7328C143.248 27.7972 143.298 27.8832 143.307 27.9908C143.312 28.0386 143.31 28.0929 143.304 28.1537L140.66 36.7689C140.623 36.8926 140.561 37.0064 140.473 37.1105C140.385 37.2025 140.245 37.2569 140.054 37.2736L138.727 37.3897ZM149.424 36.6345C148.097 36.7506 147.012 36.4601 146.168 35.763C145.324 35.0659 144.81 34.0147 144.627 32.6093C144.605 32.4908 144.585 32.3419 144.57 32.1626C144.553 31.9713 144.546 31.8214 144.548 31.7128C144.518 30.812 144.653 30.0172 144.954 29.3283C145.267 28.6384 145.731 28.0919 146.347 27.6887C146.961 27.2736 147.704 27.0279 148.577 26.9515C149.545 26.8668 150.376 26.9989 151.069 27.3479C151.761 27.6848 152.306 28.1973 152.703 28.8853C153.1 29.5613 153.339 30.3655 153.42 31.298L153.453 31.6745C153.464 31.7941 153.431 31.8993 153.354 31.9903C153.278 32.0813 153.174 32.1326 153.042 32.1441L147.089 32.6649C147.089 32.6649 147.091 32.6829 147.094 32.7187C147.097 32.7546 147.1 32.7845 147.102 32.8084C147.15 33.2257 147.262 33.6075 147.437 33.9535C147.623 34.2866 147.868 34.5482 148.174 34.7383C148.492 34.9273 148.854 35.004 149.26 34.9685C149.595 34.9392 149.872 34.8668 150.09 34.7513C150.308 34.6238 150.483 34.4881 150.615 34.344C150.747 34.2 150.839 34.0835 150.892 33.9946C150.987 33.8417 151.063 33.7507 151.121 33.7216C151.189 33.6795 151.289 33.6526 151.421 33.6411L152.963 33.5062C153.082 33.4958 153.181 33.5233 153.259 33.5887C153.349 33.6531 153.393 33.7396 153.39 33.8483C153.395 34.0406 153.314 34.2826 153.147 34.5743C152.991 34.8649 152.752 35.1569 152.428 35.4502C152.105 35.7435 151.688 36.0029 151.177 36.2282C150.678 36.4405 150.093 36.576 149.424 36.6345ZM146.957 31.1587L150.92 30.812L150.916 30.7582C150.875 30.292 150.761 29.8923 150.576 29.5592C150.39 29.2262 150.139 28.9711 149.822 28.794C149.506 28.6169 149.138 28.5467 148.72 28.5833C148.301 28.6199 147.951 28.7529 147.67 28.9823C147.389 29.2116 147.186 29.5065 147.061 29.8667C146.948 30.226 146.912 30.6387 146.953 31.1049L146.957 31.1587ZM156.189 35.862C156.07 35.8725 155.964 35.8395 155.873 35.7631C155.782 35.6868 155.732 35.5888 155.721 35.4693L154.683 23.5986C154.672 23.4791 154.705 23.3738 154.781 23.2828C154.858 23.1918 154.956 23.1411 155.075 23.1306L156.564 23.0004C156.683 22.99 156.788 23.0229 156.879 23.0993C156.97 23.1756 157.021 23.2736 157.032 23.3931L158.07 35.2638C158.081 35.3833 158.048 35.4886 157.971 35.5796C157.895 35.6706 157.797 35.7213 157.677 35.7318L156.189 35.862ZM164.626 35.3045C163.67 35.3882 162.848 35.2914 162.162 35.0142C161.487 34.736 160.949 34.3072 160.549 33.7279C160.161 33.1475 159.908 32.4529 159.789 31.6442C159.758 31.4301 159.729 31.1676 159.702 30.8568C159.675 30.546 159.658 30.2825 159.651 30.0662C159.626 29.2372 159.761 28.5087 160.056 27.8806C160.361 27.2396 160.822 26.7234 161.438 26.3322C162.066 25.94 162.847 25.7031 163.779 25.6215C164.712 25.5399 165.515 25.6383 166.19 25.9165C166.877 26.1937 167.42 26.622 167.82 27.2013C168.231 27.7677 168.497 28.4612 168.617 29.2818C168.647 29.496 168.676 29.7584 168.704 30.0692C168.731 30.3801 168.748 30.6436 168.755 30.8598C168.778 31.6769 168.643 32.4054 168.35 33.0454C168.068 33.6844 167.613 34.2 166.985 34.5922C166.369 34.9834 165.583 35.2209 164.626 35.3045ZM164.471 33.5293C165.105 33.4739 165.577 33.2337 165.89 32.8089C166.201 32.3721 166.34 31.7637 166.308 30.9835C166.304 30.8031 166.29 30.5695 166.265 30.2826C166.24 29.9957 166.213 29.7631 166.186 29.5848C166.083 28.8229 165.84 28.2539 165.458 27.8778C165.076 27.5016 164.568 27.3413 163.934 27.3967C163.301 27.4522 162.829 27.6983 162.517 28.135C162.206 28.5718 162.066 29.1743 162.097 29.9425C162.101 30.1229 162.115 30.3565 162.141 30.6434C162.166 30.9303 162.192 31.1629 162.22 31.3412C162.324 32.1151 162.567 32.6901 162.949 33.0662C163.33 33.4304 163.837 33.5847 164.471 33.5293ZM171.845 37.9254C171.725 37.9358 171.62 37.9029 171.529 37.8265C171.438 37.7502 171.387 37.6522 171.377 37.5327L170.338 25.662C170.328 25.5425 170.36 25.4372 170.437 25.3462C170.513 25.2552 170.611 25.2045 170.731 25.194L172.147 25.0701C172.279 25.0586 172.384 25.0915 172.463 25.1689C172.554 25.2453 172.605 25.3432 172.615 25.4628L172.678 26.18C172.931 25.7724 173.28 25.4227 173.725 25.1308C174.169 24.839 174.738 24.6628 175.431 24.6021C176.065 24.5467 176.623 24.6002 177.107 24.7626C177.591 24.925 178.005 25.1839 178.35 25.5393C178.693 25.8827 178.971 26.3041 179.183 26.8035C179.395 27.3029 179.541 27.8623 179.619 28.4819C179.649 28.684 179.673 28.8927 179.692 29.1079C179.711 29.3231 179.724 29.5388 179.73 29.755C179.771 30.3538 179.73 30.9175 179.607 31.4462C179.484 31.9629 179.278 32.4266 178.988 32.8374C178.71 33.2352 178.347 33.5621 177.9 33.818C177.452 34.074 176.912 34.2297 176.278 34.2851C175.633 34.3416 175.073 34.2761 174.599 34.0888C174.123 33.8894 173.726 33.611 173.405 33.2536L173.761 37.324C173.772 37.4436 173.739 37.5488 173.663 37.6398C173.598 37.7298 173.5 37.7805 173.369 37.792L171.845 37.9254ZM175.447 32.4245C175.961 32.3795 176.352 32.2369 176.62 31.9966C176.887 31.7444 177.065 31.4337 177.153 31.0646C177.253 30.6945 177.296 30.2932 177.282 29.8608C177.275 29.5 177.243 29.1414 177.188 28.7849C177.127 28.3566 177.014 27.9689 176.852 27.6218C176.701 27.2736 176.472 27.0045 176.167 26.8144C175.86 26.6124 175.449 26.5339 174.935 26.5788C174.445 26.6217 174.055 26.7703 173.764 27.0246C173.485 27.2779 173.289 27.5901 173.177 27.9613C173.076 28.3195 173.03 28.6849 173.038 29.0576C173.045 29.2738 173.059 29.5015 173.08 29.7406C173.101 29.9797 173.127 30.2122 173.159 30.4383C173.202 30.7959 173.316 31.1353 173.501 31.4564C173.685 31.7656 173.935 32.0147 174.253 32.2037C174.571 32.3927 174.969 32.4663 175.447 32.4245ZM186.145 33.4219C184.818 33.538 183.733 33.2475 182.889 32.5504C182.045 31.8533 181.531 30.802 181.348 29.3966C181.326 29.2782 181.307 29.1292 181.291 28.9499C181.274 28.7587 181.267 28.6087 181.27 28.5001C181.239 27.5993 181.374 26.8045 181.675 26.1156C181.988 25.4257 182.452 24.8792 183.068 24.476C183.682 24.0609 184.425 23.8152 185.298 23.7389C186.266 23.6541 187.097 23.7863 187.79 24.1352C188.482 24.4721 189.027 24.9846 189.424 25.6726C189.821 26.3486 190.06 27.1528 190.141 28.0853L190.174 28.4618C190.185 28.5814 190.152 28.6867 190.075 28.7777C189.999 28.8687 189.895 28.9199 189.763 28.9314L183.81 29.4523C183.81 29.4523 183.812 29.4702 183.815 29.5061C183.818 29.5419 183.821 29.5718 183.823 29.5957C183.871 30.0131 183.983 30.3948 184.158 30.7409C184.344 31.0739 184.589 31.3355 184.895 31.5256C185.213 31.7146 185.575 31.7914 185.981 31.7558C186.316 31.7265 186.593 31.6541 186.811 31.5386C187.029 31.4112 187.204 31.2754 187.336 31.1314C187.468 30.9873 187.56 30.8708 187.613 30.7819C187.708 30.6291 187.784 30.5381 187.842 30.5089C187.91 30.4668 188.01 30.44 188.142 30.4285L189.684 30.2935C189.803 30.2831 189.902 30.3106 189.98 30.376C190.07 30.4404 190.114 30.527 190.111 30.6356C190.116 30.8279 190.035 31.0699 189.868 31.3616C189.712 31.6522 189.473 31.9442 189.149 32.2375C188.826 32.5309 188.409 32.7902 187.898 33.0155C187.399 33.2279 186.815 33.3633 186.145 33.4219ZM183.678 27.946L187.641 27.5993L187.637 27.5455C187.596 27.0793 187.483 26.6796 187.297 26.3466C187.111 26.0135 186.86 25.7584 186.543 25.5813C186.227 25.4043 185.859 25.334 185.441 25.3706C185.022 25.4072 184.673 25.5402 184.391 25.7696C184.11 25.999 183.907 26.2938 183.782 26.6541C183.669 27.0133 183.633 27.426 183.674 27.8922L183.678 27.946ZM192.892 32.6509C192.773 32.6613 192.667 32.6284 192.576 32.552C192.485 32.4757 192.435 32.3777 192.424 32.2582L191.685 23.8124C191.674 23.6809 191.706 23.5697 191.783 23.4787C191.859 23.3877 191.957 23.337 192.076 23.3265L193.529 23.1994C193.648 23.189 193.754 23.2219 193.845 23.2983C193.948 23.3736 194.005 23.477 194.016 23.6085L194.081 24.3437C194.322 23.9371 194.649 23.6134 195.062 23.3725C195.486 23.1306 195.986 22.9845 196.559 22.9343L197.295 22.87C197.426 22.8585 197.531 22.8914 197.61 22.9688C197.701 23.0452 197.752 23.1431 197.763 23.2627L197.875 24.5538C197.886 24.6733 197.853 24.7786 197.777 24.8696C197.712 24.9595 197.614 25.0103 197.483 25.0218L196.084 25.1441C195.51 25.1943 195.076 25.3949 194.782 25.7459C194.499 26.0959 194.382 26.5518 194.431 27.1137L194.863 32.0448C194.873 32.1644 194.84 32.2696 194.764 32.3606C194.688 32.4516 194.584 32.5029 194.452 32.5144L192.892 32.6509ZM203.487 31.9046C202.77 31.9674 202.147 31.9376 201.618 31.8152C201.102 31.6917 200.671 31.5186 200.326 31.2958C199.982 31.073 199.72 30.8429 199.543 30.6054C199.366 30.368 199.264 30.1661 199.237 29.9998C199.214 29.8693 199.241 29.7646 199.318 29.6856C199.406 29.5935 199.504 29.5428 199.612 29.5334L201.029 29.4094C201.076 29.4052 201.119 29.4076 201.156 29.4164C201.193 29.4252 201.243 29.4569 201.308 29.5114C201.475 29.6293 201.649 29.7527 201.829 29.8815C202.021 30.0092 202.241 30.1165 202.489 30.2031C202.737 30.2779 203.04 30.2995 203.398 30.2681C203.865 30.2274 204.245 30.1037 204.54 29.8972C204.846 29.6777 204.984 29.3946 204.954 29.0479C204.932 28.7969 204.842 28.5999 204.685 28.4571C204.54 28.3132 204.277 28.1977 203.896 28.1105C203.514 28.0115 202.976 27.92 202.282 27.8362C201.599 27.7393 201.026 27.5907 200.563 27.3903C200.1 27.1899 199.745 26.9198 199.498 26.58C199.252 26.2402 199.107 25.8313 199.066 25.3531C199.025 24.8869 199.124 24.4325 199.362 23.9901C199.611 23.5346 199.999 23.1453 200.525 22.8223C201.062 22.4982 201.744 22.3 202.568 22.2279C203.214 22.1714 203.783 22.2059 204.276 22.3315C204.768 22.445 205.18 22.6078 205.511 22.8197C205.855 23.0305 206.121 23.2541 206.311 23.4905C206.499 23.715 206.607 23.9163 206.635 24.0946C206.658 24.225 206.632 24.3358 206.555 24.4268C206.478 24.5058 206.385 24.5501 206.278 24.5595L204.951 24.6756C204.891 24.6808 204.836 24.6735 204.786 24.6538C204.736 24.6341 204.686 24.6084 204.635 24.5767C204.493 24.4687 204.339 24.3557 204.172 24.2378C204.005 24.1199 203.804 24.0231 203.568 23.9473C203.344 23.8585 203.052 23.8298 202.693 23.8612C202.239 23.901 201.901 24.0329 201.68 24.257C201.458 24.4692 201.359 24.7248 201.386 25.0236C201.403 25.2268 201.473 25.4014 201.594 25.5474C201.726 25.6804 201.971 25.7975 202.329 25.8987C202.688 25.9998 203.226 26.0913 203.944 26.173C204.757 26.2464 205.409 26.4062 205.901 26.6523C206.403 26.8854 206.766 27.1789 206.99 27.5327C207.224 27.8736 207.361 28.2652 207.4 28.7075C207.447 29.2454 207.328 29.7437 207.043 30.2023C206.769 30.6598 206.333 31.0413 205.733 31.3468C205.145 31.6392 204.396 31.8251 203.487 31.9046Z" fill="white"/>
</svg>
