<svg width="243" height="42" viewBox="0 0 243 42" fill="none" xmlns="http://www.w3.org/2000/svg">
<rect x="3.5" y="3.00098" width="236" height="36" rx="6" fill="#EB714A"/>
<rect x="2" y="1.50098" width="239" height="39" rx="7.5" stroke="#EB714A" stroke-opacity="0.5" stroke-width="3"/>
<path d="M27.5104 11.0127C28.2882 11.0127 29.0393 11.2961 29.6234 11.8097L29.7774 11.9547L30.4754 12.6527C30.667 12.843 30.9171 12.9631 31.1854 12.9937L31.3204 13.0017H32.3204C33.1376 13.0016 33.9239 13.3143 34.518 13.8754C35.1121 14.4366 35.4689 15.2038 35.5154 16.0197L35.5204 16.2017V17.2017C35.5204 17.4717 35.6124 17.7347 35.7784 17.9447L35.8684 18.0447L36.5654 18.7427C37.1431 19.3171 37.48 20.0903 37.5073 20.9046C37.5346 21.7188 37.2503 22.5128 36.7124 23.1247L36.5674 23.2787L35.8694 23.9767C35.6791 24.1683 35.559 24.4184 35.5284 24.6867L35.5204 24.8217V25.8217C35.5205 26.6389 35.2078 27.4252 34.6467 28.0193C34.0855 28.6133 33.3183 28.9702 32.5024 29.0167L32.3204 29.0217H31.3204C31.0508 29.0218 30.7891 29.1127 30.5774 29.2797L30.4774 29.3697L29.7794 30.0667C29.205 30.6444 28.4318 30.9813 27.6175 31.0086C26.8033 31.0359 26.0093 30.7516 25.3974 30.2137L25.2434 30.0687L24.5454 29.3707C24.3539 29.1804 24.1037 29.0602 23.8354 29.0297L23.7004 29.0217H22.7004C21.8832 29.0217 21.0969 28.7091 20.5028 28.148C19.9088 27.5868 19.5519 26.8196 19.5054 26.0037L19.5004 25.8217V24.8217C19.5003 24.5521 19.4094 24.2903 19.2424 24.0787L19.1524 23.9787L18.4554 23.2807C17.8777 22.7062 17.5408 21.9331 17.5135 21.1188C17.4862 20.3046 17.7705 19.5106 18.3084 18.8987L18.4534 18.7447L19.1514 18.0467C19.3417 17.8551 19.4619 17.605 19.4924 17.3367L19.5004 17.2017V16.2017L19.5054 16.0197C19.5501 15.2351 19.8818 14.4944 20.4375 13.9388C20.9932 13.3831 21.7339 13.0513 22.5184 13.0067L22.7004 13.0017H23.7004C23.97 13.0016 24.2318 12.9107 24.4434 12.7437L24.5434 12.6537L25.2414 11.9567C25.5387 11.6576 25.8923 11.4202 26.2817 11.2582C26.6711 11.0962 27.0887 11.0128 27.5104 11.0127ZM31.2074 18.2947C31.0199 18.1072 30.7656 18.0019 30.5004 18.0019C30.2352 18.0019 29.9809 18.1072 29.7934 18.2947L26.5004 21.5867L25.2074 20.2947L25.1134 20.2117C24.9124 20.0563 24.6598 19.9832 24.4069 20.0073C24.154 20.0314 23.9197 20.1509 23.7517 20.3414C23.5836 20.532 23.4944 20.7794 23.5022 21.0333C23.5099 21.2873 23.6141 21.5287 23.7934 21.7087L25.7934 23.7087L25.8874 23.7917C26.0798 23.9409 26.3201 24.0149 26.5631 23.9996C26.8061 23.9843 27.0352 23.8809 27.2074 23.7087L31.2074 19.7087L31.2904 19.6147C31.4397 19.4223 31.5136 19.182 31.4983 18.939C31.483 18.696 31.3796 18.4669 31.2074 18.2947Z" fill="white"/>
<path d="M47.964 27.001C47.5587 27.001 47.228 26.8783 46.972 26.633C46.716 26.377 46.588 26.0516 46.588 25.657V15.801H51.884C52.876 15.801 53.6707 16.041 54.268 16.521C54.876 16.9903 55.18 17.6143 55.18 18.393V19.209C55.18 19.5823 55.0893 19.9343 54.908 20.265C54.7267 20.5956 54.476 20.8623 54.156 21.065V21.081C54.6787 21.2516 55.0947 21.5396 55.404 21.945C55.724 22.3503 55.884 22.809 55.884 23.321V24.121C55.884 25.0063 55.58 25.7103 54.972 26.233C54.364 26.745 53.5427 27.001 52.508 27.001H47.964ZM51.98 20.585C52.3747 20.585 52.6947 20.457 52.94 20.201C53.1853 19.945 53.308 19.6143 53.308 19.209V18.553C53.308 18.2116 53.1693 17.9396 52.892 17.737C52.6253 17.5343 52.268 17.433 51.82 17.433H48.46V20.585H51.98ZM52.348 25.369C52.8707 25.369 53.276 25.2516 53.564 25.017C53.8627 24.7823 54.012 24.457 54.012 24.041V23.321C54.012 22.9583 53.884 22.6703 53.628 22.457C53.372 22.233 53.0307 22.121 52.604 22.121H48.46V25.369H52.348ZM59.5746 27.129C58.924 27.129 58.348 27.0063 57.8466 26.761C57.356 26.5156 56.972 26.169 56.6946 25.721C56.428 25.273 56.2946 24.7556 56.2946 24.169V22.025C56.2946 21.4063 56.428 20.8623 56.6946 20.393C56.972 19.913 57.356 19.545 57.8466 19.289C58.348 19.0223 58.924 18.889 59.5746 18.889H60.8546C61.8253 18.889 62.604 19.1716 63.1906 19.737C63.7773 20.3023 64.0706 21.0543 64.0706 21.993V23.593H58.1346V24.169C58.1346 24.5956 58.2626 24.937 58.5186 25.193C58.7853 25.449 59.1373 25.577 59.5746 25.577H60.8066C61.2333 25.577 61.5746 25.4756 61.8306 25.273C62.0973 25.0596 62.2306 24.7823 62.2306 24.441H64.0386C64.0386 25.2516 63.74 25.9023 63.1426 26.393C62.5453 26.8836 61.7613 27.129 60.7906 27.129H59.5746ZM62.2626 22.217V21.993C62.2626 21.5236 62.1346 21.145 61.8786 20.857C61.6226 20.569 61.2866 20.425 60.8706 20.425H59.5746C59.1373 20.425 58.78 20.5796 58.5026 20.889C58.236 21.1876 58.1026 21.5823 58.1026 22.073V22.217H62.2626ZM67.852 27.129C66.8707 27.129 66.0813 26.8463 65.484 26.281C64.8973 25.7156 64.604 24.969 64.604 24.041V22.025C64.604 21.4063 64.7373 20.8623 65.004 20.393C65.2707 19.913 65.6493 19.545 66.14 19.289C66.6307 19.0223 67.196 18.889 67.836 18.889H69.116C70.0333 18.889 70.7693 19.1556 71.324 19.689C71.8893 20.2116 72.172 20.905 72.172 21.769H70.364C70.364 21.385 70.2467 21.0756 70.012 20.841C69.788 20.5956 69.4893 20.473 69.116 20.473H67.852C67.436 20.473 67.0947 20.6276 66.828 20.937C66.572 21.2463 66.444 21.6463 66.444 22.137V23.929C66.444 24.409 66.572 24.7983 66.828 25.097C67.0947 25.3956 67.4413 25.545 67.868 25.545H69.132C69.5267 25.545 69.8413 25.401 70.076 25.113C70.3213 24.825 70.444 24.4516 70.444 23.993H72.252C72.252 24.9316 71.964 25.689 71.388 26.265C70.8227 26.841 70.0707 27.129 69.132 27.129H67.852ZM75.8961 27.129C74.9148 27.129 74.1255 26.8463 73.5281 26.281C72.9308 25.705 72.6321 24.9476 72.6321 24.009V22.025C72.6321 21.4063 72.7655 20.8623 73.0321 20.393C73.3095 19.913 73.6935 19.545 74.1841 19.289C74.6855 19.0223 75.2615 18.889 75.9121 18.889H77.3201C77.9708 18.889 78.5415 19.0223 79.0321 19.289C79.5335 19.545 79.9175 19.913 80.1841 20.393C80.4615 20.8623 80.6001 21.4063 80.6001 22.025V24.009C80.6001 24.9476 80.2961 25.705 79.6881 26.281C79.0908 26.8463 78.2908 27.129 77.2881 27.129H75.8961ZM77.2721 25.545C77.7201 25.545 78.0775 25.3956 78.3441 25.097C78.6215 24.7876 78.7601 24.3876 78.7601 23.897V22.121C78.7601 21.6303 78.6268 21.2356 78.3601 20.937C78.0935 20.6276 77.7361 20.473 77.2881 20.473H75.9441C75.4961 20.473 75.1388 20.6276 74.8721 20.937C74.6055 21.2356 74.4721 21.6303 74.4721 22.121V23.897C74.4721 24.3876 74.6055 24.7876 74.8721 25.097C75.1388 25.3956 75.4855 25.545 75.9121 25.545H77.2721ZM90.5191 18.889C91.2978 18.889 91.9165 19.1396 92.3751 19.641C92.8445 20.1423 93.0791 20.8143 93.0791 21.657V27.001H91.2391V21.641C91.2391 21.289 91.1591 21.0116 90.9991 20.809C90.8391 20.5956 90.6258 20.489 90.3591 20.489H89.5911C89.2391 20.489 88.9405 20.617 88.6951 20.873C88.4498 21.1183 88.2898 21.4543 88.2151 21.881V27.001H86.3911V21.689C86.3911 21.3263 86.3111 21.0383 86.1511 20.825C85.9911 20.601 85.7778 20.489 85.5111 20.489H84.7911C84.4391 20.489 84.1298 20.649 83.8631 20.969C83.6071 21.2783 83.4418 21.6836 83.3671 22.185V27.001H81.5271V19.017H83.2391V20.025C83.4418 19.673 83.6978 19.3956 84.0071 19.193C84.3165 18.9903 84.6311 18.889 84.9511 18.889H85.8631C86.2685 18.889 86.6311 18.9956 86.9511 19.209C87.2711 19.4116 87.5218 19.6996 87.7031 20.073C87.9378 19.6996 88.2205 19.4116 88.5511 19.209C88.8818 18.9956 89.2338 18.889 89.6071 18.889H90.5191ZM97.1871 27.129C96.5365 27.129 95.9605 27.0063 95.4591 26.761C94.9685 26.5156 94.5845 26.169 94.3071 25.721C94.0405 25.273 93.9071 24.7556 93.9071 24.169V22.025C93.9071 21.4063 94.0405 20.8623 94.3071 20.393C94.5845 19.913 94.9685 19.545 95.4591 19.289C95.9605 19.0223 96.5365 18.889 97.1871 18.889H98.4671C99.4378 18.889 100.216 19.1716 100.803 19.737C101.39 20.3023 101.683 21.0543 101.683 21.993V23.593H95.7471V24.169C95.7471 24.5956 95.8751 24.937 96.1311 25.193C96.3978 25.449 96.7498 25.577 97.1871 25.577H98.4191C98.8458 25.577 99.1871 25.4756 99.4431 25.273C99.7098 25.0596 99.8431 24.7823 99.8431 24.441H101.651C101.651 25.2516 101.352 25.9023 100.755 26.393C100.158 26.8836 99.3738 27.129 98.4031 27.129H97.1871ZM99.8751 22.217V21.993C99.8751 21.5236 99.7471 21.145 99.4911 20.857C99.2351 20.569 98.8991 20.425 98.4831 20.425H97.1871C96.7498 20.425 96.3925 20.5796 96.1151 20.889C95.8485 21.1876 95.7151 21.5823 95.7151 22.073V22.217H99.8751ZM106.269 15.801H112.013C112.952 15.801 113.709 16.0676 114.285 16.601C114.861 17.1236 115.149 17.817 115.149 18.681V20.217C115.149 21.1236 114.845 21.8543 114.237 22.409C113.64 22.953 112.851 23.225 111.869 23.225H108.141V27.001H106.269V15.801ZM111.837 21.593C112.275 21.593 112.621 21.4596 112.877 21.193C113.144 20.9263 113.277 20.5796 113.277 20.153V18.729C113.277 18.3343 113.16 18.0196 112.925 17.785C112.691 17.5503 112.376 17.433 111.981 17.433H108.141V21.593H111.837ZM118.262 27.001C117.366 27.001 116.71 26.8143 116.294 26.441C115.889 26.057 115.686 25.4543 115.686 24.633V15.801H117.526V24.553C117.526 24.8623 117.59 25.0863 117.718 25.225C117.846 25.353 118.06 25.417 118.358 25.417H119.126V27.001H118.262ZM121.928 27.129C121.118 27.129 120.462 26.9263 119.96 26.521C119.47 26.105 119.224 25.5556 119.224 24.873V24.297C119.224 23.625 119.48 23.0863 119.992 22.681C120.515 22.2756 121.198 22.073 122.04 22.073H123.032C123.331 22.073 123.651 22.1156 123.992 22.201C124.334 22.2863 124.638 22.3983 124.904 22.537V21.545C124.904 21.2143 124.798 20.9476 124.584 20.745C124.371 20.5423 124.094 20.441 123.752 20.441H122.408C122.056 20.441 121.774 20.5263 121.56 20.697C121.347 20.857 121.24 21.0703 121.24 21.337H119.448C119.448 20.601 119.72 20.009 120.264 19.561C120.808 19.113 121.523 18.889 122.408 18.889H123.752C124.648 18.889 125.368 19.1343 125.912 19.625C126.456 20.105 126.728 20.745 126.728 21.545V27.001H125.016V25.993C124.76 26.3343 124.44 26.6116 124.056 26.825C123.672 27.0276 123.294 27.129 122.92 27.129H121.928ZM123.032 25.689C123.459 25.689 123.843 25.5716 124.184 25.337C124.526 25.0916 124.766 24.7716 124.904 24.377V23.993C124.723 23.8436 124.467 23.7263 124.136 23.641C123.806 23.545 123.459 23.497 123.096 23.497H122.088C121.768 23.497 121.507 23.577 121.304 23.737C121.112 23.897 121.016 24.105 121.016 24.361V24.809C121.016 25.0756 121.118 25.289 121.32 25.449C121.523 25.609 121.79 25.689 122.12 25.689H123.032ZM130.811 27.129C129.83 27.129 129.041 26.8463 128.443 26.281C127.857 25.7156 127.563 24.969 127.563 24.041V22.025C127.563 21.4063 127.697 20.8623 127.963 20.393C128.23 19.913 128.609 19.545 129.099 19.289C129.59 19.0223 130.155 18.889 130.795 18.889H132.075C132.993 18.889 133.729 19.1556 134.283 19.689C134.849 20.2116 135.131 20.905 135.131 21.769H133.323C133.323 21.385 133.206 21.0756 132.971 20.841C132.747 20.5956 132.449 20.473 132.075 20.473H130.811C130.395 20.473 130.054 20.6276 129.787 20.937C129.531 21.2463 129.403 21.6463 129.403 22.137V23.929C129.403 24.409 129.531 24.7983 129.787 25.097C130.054 25.3956 130.401 25.545 130.827 25.545H132.091C132.486 25.545 132.801 25.401 133.035 25.113C133.281 24.825 133.403 24.4516 133.403 23.993H135.211C135.211 24.9316 134.923 25.689 134.347 26.265C133.782 26.841 133.03 27.129 132.091 27.129H130.811ZM138.871 27.129C138.221 27.129 137.645 27.0063 137.143 26.761C136.653 26.5156 136.269 26.169 135.991 25.721C135.725 25.273 135.591 24.7556 135.591 24.169V22.025C135.591 21.4063 135.725 20.8623 135.991 20.393C136.269 19.913 136.653 19.545 137.143 19.289C137.645 19.0223 138.221 18.889 138.871 18.889H140.151C141.122 18.889 141.901 19.1716 142.487 19.737C143.074 20.3023 143.367 21.0543 143.367 21.993V23.593H137.431V24.169C137.431 24.5956 137.559 24.937 137.815 25.193C138.082 25.449 138.434 25.577 138.871 25.577H140.103C140.53 25.577 140.871 25.4756 141.127 25.273C141.394 25.0596 141.527 24.7823 141.527 24.441H143.335C143.335 25.2516 143.037 25.9023 142.439 26.393C141.842 26.8836 141.058 27.129 140.087 27.129H138.871ZM141.559 22.217V21.993C141.559 21.5236 141.431 21.145 141.175 20.857C140.919 20.569 140.583 20.425 140.167 20.425H138.871C138.434 20.425 138.077 20.5796 137.799 20.889C137.533 21.1876 137.399 21.5823 137.399 22.073V22.217H141.559ZM153.213 18.889C153.992 18.889 154.61 19.1396 155.069 19.641C155.538 20.1423 155.773 20.8143 155.773 21.657V27.001H153.933V21.641C153.933 21.289 153.853 21.0116 153.693 20.809C153.533 20.5956 153.32 20.489 153.053 20.489H152.285C151.933 20.489 151.634 20.617 151.389 20.873C151.144 21.1183 150.984 21.4543 150.909 21.881V27.001H149.085V21.689C149.085 21.3263 149.005 21.0383 148.845 20.825C148.685 20.601 148.472 20.489 148.205 20.489H147.485C147.133 20.489 146.824 20.649 146.557 20.969C146.301 21.2783 146.136 21.6836 146.061 22.185V27.001H144.221V19.017H145.933V20.025C146.136 19.673 146.392 19.3956 146.701 19.193C147.01 18.9903 147.325 18.889 147.645 18.889H148.557C148.962 18.889 149.325 18.9956 149.645 19.209C149.965 19.4116 150.216 19.6996 150.397 20.073C150.632 19.6996 150.914 19.4116 151.245 19.209C151.576 18.9956 151.928 18.889 152.301 18.889H153.213ZM159.881 27.129C159.23 27.129 158.654 27.0063 158.153 26.761C157.662 26.5156 157.278 26.169 157.001 25.721C156.734 25.273 156.601 24.7556 156.601 24.169V22.025C156.601 21.4063 156.734 20.8623 157.001 20.393C157.278 19.913 157.662 19.545 158.153 19.289C158.654 19.0223 159.23 18.889 159.881 18.889H161.161C162.132 18.889 162.91 19.1716 163.497 19.737C164.084 20.3023 164.377 21.0543 164.377 21.993V23.593H158.441V24.169C158.441 24.5956 158.569 24.937 158.825 25.193C159.092 25.449 159.444 25.577 159.881 25.577H161.113C161.54 25.577 161.881 25.4756 162.137 25.273C162.404 25.0596 162.537 24.7823 162.537 24.441H164.345C164.345 25.2516 164.046 25.9023 163.449 26.393C162.852 26.8836 162.068 27.129 161.097 27.129H159.881ZM162.569 22.217V21.993C162.569 21.5236 162.441 21.145 162.185 20.857C161.929 20.569 161.593 20.425 161.177 20.425H159.881C159.444 20.425 159.086 20.5796 158.809 20.889C158.542 21.1876 158.409 21.5823 158.409 22.073V22.217H162.569ZM165.23 19.017H166.942V20.057C167.177 19.705 167.486 19.4223 167.87 19.209C168.254 18.9956 168.638 18.889 169.022 18.889H170.014C170.836 18.889 171.492 19.1503 171.982 19.673C172.484 20.1956 172.734 20.8836 172.734 21.737V27.001H170.894V21.785C170.894 21.401 170.793 21.0916 170.59 20.857C170.398 20.6116 170.142 20.489 169.822 20.489H168.83C168.414 20.489 168.041 20.649 167.71 20.969C167.38 21.2783 167.166 21.6783 167.07 22.169V27.001H165.23V19.017ZM177.259 27.001C176.353 27.001 175.691 26.7983 175.275 26.393C174.859 25.9876 174.651 25.3476 174.651 24.473V20.601H173.243V19.017H174.699V16.601H176.491V19.017H178.571V20.601H176.491V24.409C176.491 24.761 176.561 25.017 176.699 25.177C176.838 25.337 177.057 25.417 177.355 25.417H178.571V27.001H177.259ZM183.238 15.801H189.014C189.931 15.801 190.673 16.0516 191.238 16.553C191.803 17.0543 192.086 17.7156 192.086 18.537V19.673C192.086 20.2276 191.915 20.7183 191.574 21.145C191.243 21.561 190.779 21.8703 190.182 22.073V22.105C190.523 22.3076 190.795 22.569 190.998 22.889C191.211 23.1983 191.393 23.6036 191.542 24.105L192.438 27.001H190.502L189.638 24.233C189.499 23.753 189.286 23.385 188.998 23.129C188.71 22.873 188.374 22.745 187.99 22.745H185.11V27.001H183.238V15.801ZM188.598 21.129C189.089 21.129 189.478 20.9956 189.766 20.729C190.065 20.4623 190.214 20.1156 190.214 19.689V18.585C190.214 18.2436 190.102 17.9663 189.878 17.753C189.654 17.5396 189.355 17.433 188.982 17.433H185.11V21.129H188.598ZM196.037 27.129C195.386 27.129 194.81 27.0063 194.309 26.761C193.818 26.5156 193.434 26.169 193.157 25.721C192.89 25.273 192.757 24.7556 192.757 24.169V22.025C192.757 21.4063 192.89 20.8623 193.157 20.393C193.434 19.913 193.818 19.545 194.309 19.289C194.81 19.0223 195.386 18.889 196.037 18.889H197.317C198.288 18.889 199.066 19.1716 199.653 19.737C200.24 20.3023 200.533 21.0543 200.533 21.993V23.593H194.597V24.169C194.597 24.5956 194.725 24.937 194.981 25.193C195.248 25.449 195.6 25.577 196.037 25.577H197.269C197.696 25.577 198.037 25.4756 198.293 25.273C198.56 25.0596 198.693 24.7823 198.693 24.441H200.501C200.501 25.2516 200.202 25.9023 199.605 26.393C199.008 26.8836 198.224 27.129 197.253 27.129H196.037ZM198.725 22.217V21.993C198.725 21.5236 198.597 21.145 198.341 20.857C198.085 20.569 197.749 20.425 197.333 20.425H196.037C195.6 20.425 195.242 20.5796 194.965 20.889C194.698 21.1876 194.565 21.5823 194.565 22.073V22.217H198.725ZM203.835 27.129C203.024 27.129 202.368 26.9263 201.867 26.521C201.376 26.105 201.131 25.5556 201.131 24.873V24.297C201.131 23.625 201.387 23.0863 201.899 22.681C202.421 22.2756 203.104 22.073 203.947 22.073H204.939C205.237 22.073 205.557 22.1156 205.899 22.201C206.24 22.2863 206.544 22.3983 206.811 22.537V21.545C206.811 21.2143 206.704 20.9476 206.491 20.745C206.277 20.5423 206 20.441 205.659 20.441H204.315C203.963 20.441 203.68 20.5263 203.467 20.697C203.253 20.857 203.147 21.0703 203.147 21.337H201.355C201.355 20.601 201.627 20.009 202.171 19.561C202.715 19.113 203.429 18.889 204.315 18.889H205.659C206.555 18.889 207.275 19.1343 207.819 19.625C208.363 20.105 208.635 20.745 208.635 21.545V27.001H206.923V25.993C206.667 26.3343 206.347 26.6116 205.963 26.825C205.579 27.0276 205.2 27.129 204.827 27.129H203.835ZM204.939 25.689C205.365 25.689 205.749 25.5716 206.091 25.337C206.432 25.0916 206.672 24.7716 206.811 24.377V23.993C206.629 23.8436 206.373 23.7263 206.043 23.641C205.712 23.545 205.365 23.497 205.003 23.497H203.995C203.675 23.497 203.413 23.577 203.211 23.737C203.019 23.897 202.923 24.105 202.923 24.361V24.809C202.923 25.0756 203.024 25.289 203.227 25.449C203.429 25.609 203.696 25.689 204.027 25.689H204.939ZM212.51 27.129C211.603 27.129 210.867 26.8463 210.302 26.281C209.747 25.705 209.47 24.953 209.47 24.025V22.169C209.47 21.5183 209.603 20.9476 209.87 20.457C210.136 19.9556 210.51 19.5716 210.99 19.305C211.48 19.0276 212.04 18.889 212.67 18.889H213.646C213.976 18.889 214.302 18.9636 214.622 19.113C214.952 19.2623 215.224 19.4596 215.438 19.705V15.801H217.262V27.001H215.55V25.897C215.326 26.2703 215.027 26.569 214.654 26.793C214.28 27.017 213.902 27.129 213.518 27.129H212.51ZM213.662 25.545C214.12 25.545 214.515 25.3636 214.846 25.001C215.187 24.6276 215.384 24.169 215.438 23.625V22.025C215.363 21.5663 215.182 21.193 214.894 20.905C214.616 20.617 214.28 20.473 213.886 20.473H212.862C212.392 20.473 212.014 20.6383 211.726 20.969C211.448 21.2996 211.31 21.7316 211.31 22.265V23.913C211.31 24.4036 211.438 24.7983 211.694 25.097C211.96 25.3956 212.296 25.545 212.702 25.545H213.662ZM221.433 30.249C220.623 30.249 219.951 30.025 219.417 29.577C218.895 29.129 218.607 28.537 218.553 27.801H220.361C220.393 28.0676 220.505 28.281 220.697 28.441C220.889 28.601 221.135 28.681 221.433 28.681H222.729C223.135 28.681 223.455 28.5263 223.689 28.217C223.935 27.9183 224.057 27.513 224.057 27.001V25.817C223.801 26.169 223.503 26.4463 223.161 26.649C222.831 26.8516 222.495 26.953 222.153 26.953H221.113C220.303 26.953 219.647 26.6863 219.145 26.153C218.655 25.609 218.409 24.8943 218.409 24.009V19.017H220.249V24.041C220.249 24.4463 220.345 24.7716 220.537 25.017C220.74 25.2623 221.007 25.385 221.337 25.385H222.281C222.676 25.385 223.039 25.2196 223.369 24.889C223.711 24.5583 223.94 24.137 224.057 23.625V19.017H225.881V27.001C225.881 27.993 225.593 28.7823 225.017 29.369C224.452 29.9556 223.689 30.249 222.729 30.249H221.433Z" fill="white"/>
</svg>
