<svg width="242" height="42" viewBox="0 0 242 42" fill="none" xmlns="http://www.w3.org/2000/svg">
<rect x="2.91986" y="3" width="236" height="36" rx="6" fill="#EB714A"/>
<rect x="1.41986" y="1.5" width="239" height="39" rx="7.5" stroke="#EB714A" stroke-opacity="0.5" stroke-width="3"/>
<path d="M26.9303 11.0117C27.7081 11.0118 28.4593 11.2951 29.0433 11.8087L29.1973 11.9537L29.8953 12.6517C30.0869 12.842 30.337 12.9622 30.6053 12.9927L30.7403 13.0007H31.7403C32.5576 13.0007 33.3438 13.3133 33.9379 13.8745C34.532 14.4356 34.8889 15.2028 34.9353 16.0187L34.9403 16.2007V17.2007C34.9403 17.4707 35.0323 17.7337 35.1983 17.9437L35.2883 18.0437L35.9853 18.7417C36.5631 19.3162 36.8999 20.0893 36.9272 20.9036C36.9545 21.7178 36.6703 22.5118 36.1323 23.1237L35.9873 23.2777L35.2893 23.9757C35.099 24.1673 34.9789 24.4174 34.9483 24.6857L34.9403 24.8207V25.8207C34.9404 26.6379 34.6278 27.4242 34.0666 28.0183C33.5054 28.6124 32.7382 28.9692 31.9223 29.0157L31.7403 29.0207H30.7403C30.4707 29.0208 30.209 29.1117 29.9973 29.2787L29.8973 29.3687L29.1993 30.0657C28.6249 30.6434 27.8517 30.9803 27.0375 31.0076C26.2232 31.0349 25.4292 30.7506 24.8173 30.2127L24.6633 30.0677L23.9653 29.3697C23.7738 29.1794 23.5236 29.0593 23.2553 29.0287L23.1203 29.0207H22.1203C21.3031 29.0208 20.5168 28.7082 19.9228 28.147C19.3287 27.5858 18.9718 26.8186 18.9253 26.0027L18.9203 25.8207V24.8207C18.9202 24.5511 18.8294 24.2894 18.6623 24.0777L18.5723 23.9777L17.8753 23.2797C17.2976 22.7053 16.9608 21.9321 16.9334 21.1179C16.9061 20.3036 17.1904 19.5096 17.7283 18.8977L17.8733 18.7437L18.5713 18.0457C18.7616 17.8542 18.8818 17.604 18.9123 17.3357L18.9203 17.2007V16.2007L18.9253 16.0187C18.97 15.2342 19.3018 14.4935 19.8574 13.9378C20.4131 13.3821 21.1538 13.0504 21.9383 13.0057L22.1203 13.0007H23.1203C23.39 13.0006 23.6517 12.9097 23.8633 12.7427L23.9633 12.6527L24.6613 11.9557C24.9587 11.6566 25.3122 11.4192 25.7016 11.2572C26.091 11.0952 26.5086 11.0118 26.9303 11.0117ZM30.6273 18.2937C30.4398 18.1062 30.1855 18.0009 29.9203 18.0009C29.6552 18.0009 29.4009 18.1062 29.2133 18.2937L25.9203 21.5857L24.6273 20.2937L24.5333 20.2107C24.3323 20.0553 24.0797 19.9822 23.8268 20.0063C23.5739 20.0304 23.3396 20.1499 23.1716 20.3404C23.0035 20.531 22.9144 20.7784 22.9221 21.0323C22.9299 21.2863 23.034 21.5278 23.2133 21.7077L25.2133 23.7077L25.3073 23.7907C25.4997 23.94 25.74 24.0139 25.983 23.9986C26.226 23.9833 26.4551 23.8799 26.6273 23.7077L30.6273 19.7077L30.7103 19.6137C30.8596 19.4213 30.9335 19.1811 30.9182 18.938C30.9029 18.695 30.7995 18.4659 30.6273 18.2937Z" fill="white"/>
<path d="M47.3839 27C46.9785 27 46.6479 26.8773 46.3919 26.632C46.1359 26.376 46.0079 26.0507 46.0079 25.656V15.8H51.3039C52.2959 15.8 53.0905 16.04 53.6879 16.52C54.2959 16.9893 54.5999 17.6133 54.5999 18.392V19.208C54.5999 19.5813 54.5092 19.9333 54.3279 20.264C54.1465 20.5947 53.8959 20.8613 53.5759 21.064V21.08C54.0985 21.2507 54.5145 21.5387 54.8239 21.944C55.1439 22.3493 55.3039 22.808 55.3039 23.32V24.12C55.3039 25.0053 54.9999 25.7093 54.3919 26.232C53.7839 26.744 52.9625 27 51.9279 27H47.3839ZM51.3999 20.584C51.7945 20.584 52.1145 20.456 52.3599 20.2C52.6052 19.944 52.7279 19.6133 52.7279 19.208V18.552C52.7279 18.2107 52.5892 17.9387 52.3119 17.736C52.0452 17.5333 51.6879 17.432 51.2399 17.432H47.8799V20.584H51.3999ZM51.7679 25.368C52.2905 25.368 52.6959 25.2507 52.9839 25.016C53.2825 24.7813 53.4319 24.456 53.4319 24.04V23.32C53.4319 22.9573 53.3039 22.6693 53.0479 22.456C52.7919 22.232 52.4505 22.12 52.0239 22.12H47.8799V25.368H51.7679ZM58.9945 27.128C58.3438 27.128 57.7678 27.0053 57.2665 26.76C56.7758 26.5147 56.3918 26.168 56.1145 25.72C55.8478 25.272 55.7145 24.7547 55.7145 24.168V22.024C55.7145 21.4053 55.8478 20.8613 56.1145 20.392C56.3918 19.912 56.7758 19.544 57.2665 19.288C57.7678 19.0213 58.3438 18.888 58.9945 18.888H60.2745C61.2452 18.888 62.0238 19.1707 62.6105 19.736C63.1972 20.3013 63.4905 21.0533 63.4905 21.992V23.592H57.5545V24.168C57.5545 24.5947 57.6825 24.936 57.9385 25.192C58.2052 25.448 58.5572 25.576 58.9945 25.576H60.2265C60.6532 25.576 60.9945 25.4747 61.2505 25.272C61.5172 25.0587 61.6505 24.7813 61.6505 24.44H63.4585C63.4585 25.2507 63.1598 25.9013 62.5625 26.392C61.9652 26.8827 61.1812 27.128 60.2105 27.128H58.9945ZM61.6825 22.216V21.992C61.6825 21.5227 61.5545 21.144 61.2985 20.856C61.0425 20.568 60.7065 20.424 60.2905 20.424H58.9945C58.5572 20.424 58.1998 20.5787 57.9225 20.888C57.6558 21.1867 57.5225 21.5813 57.5225 22.072V22.216H61.6825ZM67.2719 27.128C66.2905 27.128 65.5012 26.8453 64.9039 26.28C64.3172 25.7147 64.0239 24.968 64.0239 24.04V22.024C64.0239 21.4053 64.1572 20.8613 64.4239 20.392C64.6905 19.912 65.0692 19.544 65.5599 19.288C66.0505 19.0213 66.6159 18.888 67.2559 18.888H68.5359C69.4532 18.888 70.1892 19.1547 70.7439 19.688C71.3092 20.2107 71.5919 20.904 71.5919 21.768H69.7839C69.7839 21.384 69.6665 21.0747 69.4319 20.84C69.2079 20.5947 68.9092 20.472 68.5359 20.472H67.2719C66.8559 20.472 66.5145 20.6267 66.2479 20.936C65.9919 21.2453 65.8639 21.6453 65.8639 22.136V23.928C65.8639 24.408 65.9919 24.7973 66.2479 25.096C66.5145 25.3947 66.8612 25.544 67.2879 25.544H68.5519C68.9465 25.544 69.2612 25.4 69.4959 25.112C69.7412 24.824 69.8639 24.4507 69.8639 23.992H71.6719C71.6719 24.9307 71.3839 25.688 70.8079 26.264C70.2425 26.84 69.4905 27.128 68.5519 27.128H67.2719ZM75.316 27.128C74.3347 27.128 73.5453 26.8453 72.948 26.28C72.3507 25.704 72.052 24.9467 72.052 24.008V22.024C72.052 21.4053 72.1853 20.8613 72.452 20.392C72.7293 19.912 73.1133 19.544 73.604 19.288C74.1053 19.0213 74.6813 18.888 75.332 18.888H76.74C77.3907 18.888 77.9613 19.0213 78.452 19.288C78.9533 19.544 79.3373 19.912 79.604 20.392C79.8813 20.8613 80.02 21.4053 80.02 22.024V24.008C80.02 24.9467 79.716 25.704 79.108 26.28C78.5107 26.8453 77.7107 27.128 76.708 27.128H75.316ZM76.692 25.544C77.14 25.544 77.4973 25.3947 77.764 25.096C78.0413 24.7867 78.18 24.3867 78.18 23.896V22.12C78.18 21.6293 78.0467 21.2347 77.78 20.936C77.5133 20.6267 77.156 20.472 76.708 20.472H75.364C74.916 20.472 74.5587 20.6267 74.292 20.936C74.0253 21.2347 73.892 21.6293 73.892 22.12V23.896C73.892 24.3867 74.0253 24.7867 74.292 25.096C74.5587 25.3947 74.9053 25.544 75.332 25.544H76.692ZM89.939 18.888C90.7177 18.888 91.3363 19.1387 91.795 19.64C92.2643 20.1413 92.499 20.8133 92.499 21.656V27H90.659V21.64C90.659 21.288 90.579 21.0107 90.419 20.808C90.259 20.5947 90.0457 20.488 89.779 20.488H89.011C88.659 20.488 88.3603 20.616 88.115 20.872C87.8697 21.1173 87.7097 21.4533 87.635 21.88V27H85.811V21.688C85.811 21.3253 85.731 21.0373 85.571 20.824C85.411 20.6 85.1977 20.488 84.931 20.488H84.211C83.859 20.488 83.5497 20.648 83.283 20.968C83.027 21.2773 82.8617 21.6827 82.787 22.184V27H80.947V19.016H82.659V20.024C82.8617 19.672 83.1177 19.3947 83.427 19.192C83.7363 18.9893 84.051 18.888 84.371 18.888H85.283C85.6883 18.888 86.051 18.9947 86.371 19.208C86.691 19.4107 86.9417 19.6987 87.123 20.072C87.3577 19.6987 87.6403 19.4107 87.971 19.208C88.3017 18.9947 88.6537 18.888 89.027 18.888H89.939ZM96.607 27.128C95.9563 27.128 95.3803 27.0053 94.879 26.76C94.3883 26.5147 94.0043 26.168 93.727 25.72C93.4603 25.272 93.327 24.7547 93.327 24.168V22.024C93.327 21.4053 93.4603 20.8613 93.727 20.392C94.0043 19.912 94.3883 19.544 94.879 19.288C95.3803 19.0213 95.9563 18.888 96.607 18.888H97.887C98.8577 18.888 99.6363 19.1707 100.223 19.736C100.81 20.3013 101.103 21.0533 101.103 21.992V23.592H95.167V24.168C95.167 24.5947 95.295 24.936 95.551 25.192C95.8177 25.448 96.1697 25.576 96.607 25.576H97.839C98.2657 25.576 98.607 25.4747 98.863 25.272C99.1297 25.0587 99.263 24.7813 99.263 24.44H101.071C101.071 25.2507 100.772 25.9013 100.175 26.392C99.5777 26.8827 98.7937 27.128 97.823 27.128H96.607ZM99.295 22.216V21.992C99.295 21.5227 99.167 21.144 98.911 20.856C98.655 20.568 98.319 20.424 97.903 20.424H96.607C96.1697 20.424 95.8123 20.5787 95.535 20.888C95.2683 21.1867 95.135 21.5813 95.135 22.072V22.216H99.295ZM105.689 15.8H111.433C112.372 15.8 113.129 16.0667 113.705 16.6C114.281 17.1227 114.569 17.816 114.569 18.68V20.216C114.569 21.1227 114.265 21.8533 113.657 22.408C113.06 22.952 112.27 23.224 111.289 23.224H107.561V27H105.689V15.8ZM111.257 21.592C111.694 21.592 112.041 21.4587 112.297 21.192C112.564 20.9253 112.697 20.5787 112.697 20.152V18.728C112.697 18.3333 112.58 18.0187 112.345 17.784C112.11 17.5493 111.796 17.432 111.401 17.432H107.561V21.592H111.257ZM117.682 27C116.786 27 116.13 26.8133 115.714 26.44C115.309 26.056 115.106 25.4533 115.106 24.632V15.8H116.946V24.552C116.946 24.8613 117.01 25.0853 117.138 25.224C117.266 25.352 117.48 25.416 117.778 25.416H118.546V27H117.682ZM121.348 27.128C120.537 27.128 119.881 26.9253 119.38 26.52C118.889 26.104 118.644 25.5547 118.644 24.872V24.296C118.644 23.624 118.9 23.0853 119.412 22.68C119.935 22.2747 120.617 22.072 121.46 22.072H122.452C122.751 22.072 123.071 22.1147 123.412 22.2C123.753 22.2853 124.057 22.3973 124.324 22.536V21.544C124.324 21.2133 124.217 20.9467 124.004 20.744C123.791 20.5413 123.513 20.44 123.172 20.44H121.828C121.476 20.44 121.193 20.5253 120.98 20.696C120.767 20.856 120.66 21.0693 120.66 21.336H118.868C118.868 20.6 119.14 20.008 119.684 19.56C120.228 19.112 120.943 18.888 121.828 18.888H123.172C124.068 18.888 124.788 19.1333 125.332 19.624C125.876 20.104 126.148 20.744 126.148 21.544V27H124.436V25.992C124.18 26.3333 123.86 26.6107 123.476 26.824C123.092 27.0267 122.713 27.128 122.34 27.128H121.348ZM122.452 25.688C122.879 25.688 123.263 25.5707 123.604 25.336C123.945 25.0907 124.185 24.7707 124.324 24.376V23.992C124.143 23.8427 123.887 23.7253 123.556 23.64C123.225 23.544 122.879 23.496 122.516 23.496H121.508C121.188 23.496 120.927 23.576 120.724 23.736C120.532 23.896 120.436 24.104 120.436 24.36V24.808C120.436 25.0747 120.537 25.288 120.74 25.448C120.943 25.608 121.209 25.688 121.54 25.688H122.452ZM130.231 27.128C129.25 27.128 128.461 26.8453 127.863 26.28C127.277 25.7147 126.983 24.968 126.983 24.04V22.024C126.983 21.4053 127.117 20.8613 127.383 20.392C127.65 19.912 128.029 19.544 128.519 19.288C129.01 19.0213 129.575 18.888 130.215 18.888H131.495C132.413 18.888 133.149 19.1547 133.703 19.688C134.269 20.2107 134.551 20.904 134.551 21.768H132.743C132.743 21.384 132.626 21.0747 132.391 20.84C132.167 20.5947 131.869 20.472 131.495 20.472H130.231C129.815 20.472 129.474 20.6267 129.207 20.936C128.951 21.2453 128.823 21.6453 128.823 22.136V23.928C128.823 24.408 128.951 24.7973 129.207 25.096C129.474 25.3947 129.821 25.544 130.247 25.544H131.511C131.906 25.544 132.221 25.4 132.455 25.112C132.701 24.824 132.823 24.4507 132.823 23.992H134.631C134.631 24.9307 134.343 25.688 133.767 26.264C133.202 26.84 132.45 27.128 131.511 27.128H130.231ZM138.291 27.128C137.641 27.128 137.065 27.0053 136.563 26.76C136.073 26.5147 135.689 26.168 135.411 25.72C135.145 25.272 135.011 24.7547 135.011 24.168V22.024C135.011 21.4053 135.145 20.8613 135.411 20.392C135.689 19.912 136.073 19.544 136.563 19.288C137.065 19.0213 137.641 18.888 138.291 18.888H139.571C140.542 18.888 141.321 19.1707 141.907 19.736C142.494 20.3013 142.787 21.0533 142.787 21.992V23.592H136.851V24.168C136.851 24.5947 136.979 24.936 137.235 25.192C137.502 25.448 137.854 25.576 138.291 25.576H139.523C139.95 25.576 140.291 25.4747 140.547 25.272C140.814 25.0587 140.947 24.7813 140.947 24.44H142.755C142.755 25.2507 142.457 25.9013 141.859 26.392C141.262 26.8827 140.478 27.128 139.507 27.128H138.291ZM140.979 22.216V21.992C140.979 21.5227 140.851 21.144 140.595 20.856C140.339 20.568 140.003 20.424 139.587 20.424H138.291C137.854 20.424 137.497 20.5787 137.219 20.888C136.953 21.1867 136.819 21.5813 136.819 22.072V22.216H140.979ZM152.633 18.888C153.411 18.888 154.03 19.1387 154.489 19.64C154.958 20.1413 155.193 20.8133 155.193 21.656V27H153.353V21.64C153.353 21.288 153.273 21.0107 153.113 20.808C152.953 20.5947 152.739 20.488 152.473 20.488H151.705C151.353 20.488 151.054 20.616 150.809 20.872C150.563 21.1173 150.403 21.4533 150.329 21.88V27H148.505V21.688C148.505 21.3253 148.425 21.0373 148.265 20.824C148.105 20.6 147.891 20.488 147.625 20.488H146.905C146.553 20.488 146.243 20.648 145.977 20.968C145.721 21.2773 145.555 21.6827 145.481 22.184V27H143.641V19.016H145.353V20.024C145.555 19.672 145.811 19.3947 146.121 19.192C146.43 18.9893 146.745 18.888 147.065 18.888H147.977C148.382 18.888 148.745 18.9947 149.065 19.208C149.385 19.4107 149.635 19.6987 149.817 20.072C150.051 19.6987 150.334 19.4107 150.665 19.208C150.995 18.9947 151.347 18.888 151.721 18.888H152.633ZM159.301 27.128C158.65 27.128 158.074 27.0053 157.573 26.76C157.082 26.5147 156.698 26.168 156.421 25.72C156.154 25.272 156.021 24.7547 156.021 24.168V22.024C156.021 21.4053 156.154 20.8613 156.421 20.392C156.698 19.912 157.082 19.544 157.573 19.288C158.074 19.0213 158.65 18.888 159.301 18.888H160.581C161.551 18.888 162.33 19.1707 162.917 19.736C163.503 20.3013 163.797 21.0533 163.797 21.992V23.592H157.861V24.168C157.861 24.5947 157.989 24.936 158.245 25.192C158.511 25.448 158.863 25.576 159.301 25.576H160.533C160.959 25.576 161.301 25.4747 161.557 25.272C161.823 25.0587 161.957 24.7813 161.957 24.44H163.765C163.765 25.2507 163.466 25.9013 162.869 26.392C162.271 26.8827 161.487 27.128 160.517 27.128H159.301ZM161.989 22.216V21.992C161.989 21.5227 161.861 21.144 161.605 20.856C161.349 20.568 161.013 20.424 160.597 20.424H159.301C158.863 20.424 158.506 20.5787 158.229 20.888C157.962 21.1867 157.829 21.5813 157.829 22.072V22.216H161.989ZM164.65 19.016H166.362V20.056C166.597 19.704 166.906 19.4213 167.29 19.208C167.674 18.9947 168.058 18.888 168.442 18.888H169.434C170.255 18.888 170.911 19.1493 171.402 19.672C171.903 20.1947 172.154 20.8827 172.154 21.736V27H170.314V21.784C170.314 21.4 170.213 21.0907 170.01 20.856C169.818 20.6107 169.562 20.488 169.242 20.488H168.25C167.834 20.488 167.461 20.648 167.13 20.968C166.799 21.2773 166.586 21.6773 166.49 22.168V27H164.65V19.016ZM176.679 27C175.773 27 175.111 26.7973 174.695 26.392C174.279 25.9867 174.071 25.3467 174.071 24.472V20.6H172.663V19.016H174.119V16.6H175.911V19.016H177.991V20.6H175.911V24.408C175.911 24.76 175.981 25.016 176.119 25.176C176.258 25.336 176.477 25.416 176.775 25.416H177.991V27H176.679ZM182.658 15.8H188.434C189.351 15.8 190.093 16.0507 190.658 16.552C191.223 17.0533 191.506 17.7147 191.506 18.536V19.672C191.506 20.2267 191.335 20.7173 190.994 21.144C190.663 21.56 190.199 21.8693 189.602 22.072V22.104C189.943 22.3067 190.215 22.568 190.418 22.888C190.631 23.1973 190.813 23.6027 190.962 24.104L191.858 27H189.922L189.058 24.232C188.919 23.752 188.706 23.384 188.418 23.128C188.13 22.872 187.794 22.744 187.41 22.744H184.53V27H182.658V15.8ZM188.018 21.128C188.509 21.128 188.898 20.9947 189.186 20.728C189.485 20.4613 189.634 20.1147 189.634 19.688V18.584C189.634 18.2427 189.522 17.9653 189.298 17.752C189.074 17.5387 188.775 17.432 188.402 17.432H184.53V21.128H188.018ZM195.457 27.128C194.806 27.128 194.23 27.0053 193.729 26.76C193.238 26.5147 192.854 26.168 192.577 25.72C192.31 25.272 192.177 24.7547 192.177 24.168V22.024C192.177 21.4053 192.31 20.8613 192.577 20.392C192.854 19.912 193.238 19.544 193.729 19.288C194.23 19.0213 194.806 18.888 195.457 18.888H196.737C197.708 18.888 198.486 19.1707 199.073 19.736C199.66 20.3013 199.953 21.0533 199.953 21.992V23.592H194.017V24.168C194.017 24.5947 194.145 24.936 194.401 25.192C194.668 25.448 195.02 25.576 195.457 25.576H196.689C197.116 25.576 197.457 25.4747 197.713 25.272C197.98 25.0587 198.113 24.7813 198.113 24.44H199.921C199.921 25.2507 199.622 25.9013 199.025 26.392C198.428 26.8827 197.644 27.128 196.673 27.128H195.457ZM198.145 22.216V21.992C198.145 21.5227 198.017 21.144 197.761 20.856C197.505 20.568 197.169 20.424 196.753 20.424H195.457C195.02 20.424 194.662 20.5787 194.385 20.888C194.118 21.1867 193.985 21.5813 193.985 22.072V22.216H198.145ZM203.254 27.128C202.444 27.128 201.788 26.9253 201.286 26.52C200.796 26.104 200.55 25.5547 200.55 24.872V24.296C200.55 23.624 200.806 23.0853 201.318 22.68C201.841 22.2747 202.524 22.072 203.366 22.072H204.358C204.657 22.072 204.977 22.1147 205.318 22.2C205.66 22.2853 205.964 22.3973 206.23 22.536V21.544C206.23 21.2133 206.124 20.9467 205.91 20.744C205.697 20.5413 205.42 20.44 205.078 20.44H203.734C203.382 20.44 203.1 20.5253 202.886 20.696C202.673 20.856 202.566 21.0693 202.566 21.336H200.774C200.774 20.6 201.046 20.008 201.59 19.56C202.134 19.112 202.849 18.888 203.734 18.888H205.078C205.974 18.888 206.694 19.1333 207.238 19.624C207.782 20.104 208.054 20.744 208.054 21.544V27H206.342V25.992C206.086 26.3333 205.766 26.6107 205.382 26.824C204.998 27.0267 204.62 27.128 204.246 27.128H203.254ZM204.358 25.688C204.785 25.688 205.169 25.5707 205.51 25.336C205.852 25.0907 206.092 24.7707 206.23 24.376V23.992C206.049 23.8427 205.793 23.7253 205.462 23.64C205.132 23.544 204.785 23.496 204.422 23.496H203.414C203.094 23.496 202.833 23.576 202.63 23.736C202.438 23.896 202.342 24.104 202.342 24.36V24.808C202.342 25.0747 202.444 25.288 202.646 25.448C202.849 25.608 203.116 25.688 203.446 25.688H204.358ZM211.929 27.128C211.023 27.128 210.287 26.8453 209.721 26.28C209.167 25.704 208.889 24.952 208.889 24.024V22.168C208.889 21.5173 209.023 20.9467 209.289 20.456C209.556 19.9547 209.929 19.5707 210.409 19.304C210.9 19.0267 211.46 18.888 212.089 18.888H213.065C213.396 18.888 213.721 18.9627 214.041 19.112C214.372 19.2613 214.644 19.4587 214.857 19.704V15.8H216.681V27H214.969V25.896C214.745 26.2693 214.447 26.568 214.073 26.792C213.7 27.016 213.321 27.128 212.937 27.128H211.929ZM213.081 25.544C213.54 25.544 213.935 25.3627 214.265 25C214.607 24.6267 214.804 24.168 214.857 23.624V22.024C214.783 21.5653 214.601 21.192 214.313 20.904C214.036 20.616 213.7 20.472 213.305 20.472H212.281C211.812 20.472 211.433 20.6373 211.145 20.968C210.868 21.2987 210.729 21.7307 210.729 22.264V23.912C210.729 24.4027 210.857 24.7973 211.113 25.096C211.38 25.3947 211.716 25.544 212.121 25.544H213.081ZM220.853 30.248C220.042 30.248 219.37 30.024 218.837 29.576C218.314 29.128 218.026 28.536 217.973 27.8H219.781C219.813 28.0667 219.925 28.28 220.117 28.44C220.309 28.6 220.554 28.68 220.853 28.68H222.149C222.554 28.68 222.874 28.5253 223.109 28.216C223.354 27.9173 223.477 27.512 223.477 27V25.816C223.221 26.168 222.922 26.4453 222.581 26.648C222.25 26.8507 221.914 26.952 221.573 26.952H220.533C219.722 26.952 219.066 26.6853 218.565 26.152C218.074 25.608 217.829 24.8933 217.829 24.008V19.016H219.669V24.04C219.669 24.4453 219.765 24.7707 219.957 25.016C220.16 25.2613 220.426 25.384 220.757 25.384H221.701C222.096 25.384 222.458 25.2187 222.789 24.888C223.13 24.5573 223.36 24.136 223.477 23.624V19.016H225.301V27C225.301 27.992 225.013 28.7813 224.437 29.368C223.872 29.9547 223.109 30.248 222.149 30.248H220.853Z" fill="white"/>
</svg>
