<svg width="120" height="22" viewBox="0 0 120 22" fill="none" xmlns="http://www.w3.org/2000/svg">
<rect x="0.75" y="0.240234" width="118.5" height="21.5" rx="10.75" fill="#093BAA"/>
<rect x="0.75" y="0.240234" width="118.5" height="21.5" rx="10.75" stroke="#8EA5D8" stroke-width="0.5"/>
<rect x="8.5" y="4.99023" width="12" height="12" rx="6" fill="white"/>
<path d="M17.2992 8.18945H14.5417L13.9464 8.78487H12.2945V10.4213L11.6992 11.0166V13.7896H14.4566L15.0519 13.1941H16.7038V11.5578L17.2992 10.9625V8.18945ZM16.4165 12.9066H12.5818V9.07219H16.4165V12.9066Z" fill="#093BAA"/>
<path d="M15.9789 10.5363C15.9715 10.5437 15.9636 10.5521 15.9553 10.5599C15.8206 10.695 15.6856 10.8297 15.5501 10.9639C15.539 10.9759 15.5238 10.9834 15.5075 10.9849C15.1776 10.986 14.8468 10.9856 14.5163 10.9856C14.5102 10.9852 14.5041 10.9844 14.498 10.9832C14.498 10.8122 14.498 10.6448 14.4989 10.4774C14.4989 10.3136 14.498 10.1496 14.4997 9.98537C14.5005 9.96684 14.5076 9.94914 14.5198 9.93523C14.6545 9.79866 14.7908 9.66319 14.9267 9.52773C14.9334 9.52102 14.9408 9.51464 14.9495 9.50684C15.2915 9.84913 15.633 10.1903 15.9789 10.5363Z" fill="#0EDDBA"/>
<path d="M14.498 11.9876C14.4986 11.9989 14.4966 12.0102 14.4924 12.0206C14.4881 12.0311 14.4815 12.0404 14.4732 12.0481C14.3401 12.18 14.2082 12.312 14.0759 12.4446C14.0672 12.4528 14.059 12.4615 14.0483 12.4719C13.7047 12.1282 13.3627 11.7863 13.0176 11.4407C13.1518 11.3064 13.2853 11.1758 13.4153 11.0411C13.4512 11.0039 13.4871 10.9905 13.5384 10.991C13.8434 10.9933 14.1482 10.9921 14.4531 10.9917C14.4673 10.9906 14.4814 10.9885 14.4953 10.9854C14.4965 11.0059 14.4973 11.0173 14.4973 11.0293C14.498 11.3488 14.498 11.6682 14.498 11.9876Z" fill="#0EDDBA"/>
<path d="M27.7479 13.9902C27.6812 13.9902 27.6279 13.9702 27.5879 13.9302C27.5479 13.8902 27.5279 13.8369 27.5279 13.7702V7.22023C27.5279 7.1469 27.5479 7.09023 27.5879 7.05023C27.6279 7.01023 27.6812 6.99023 27.7479 6.99023H30.3579C30.8246 6.99023 31.2046 7.07357 31.4979 7.24023C31.7979 7.4069 32.0179 7.6269 32.1579 7.90023C32.2979 8.1669 32.3679 8.46023 32.3679 8.78023C32.3679 9.0669 32.3212 9.31357 32.2279 9.52023C32.1412 9.72023 32.0279 9.88357 31.8879 10.0102C31.7546 10.1369 31.6212 10.2336 31.4879 10.3002C31.7546 10.4336 31.9912 10.6469 32.1979 10.9402C32.4046 11.2336 32.5079 11.5902 32.5079 12.0102C32.5079 12.3436 32.4279 12.6636 32.2679 12.9702C32.1146 13.2702 31.8812 13.5169 31.5679 13.7102C31.2612 13.8969 30.8812 13.9902 30.4279 13.9902H27.7479ZM28.1579 13.3902H30.3279C30.8212 13.3902 31.2012 13.2602 31.4679 13.0002C31.7412 12.7402 31.8779 12.4102 31.8779 12.0102C31.8779 11.6036 31.7412 11.2736 31.4679 11.0202C31.2012 10.7602 30.8212 10.6302 30.3279 10.6302H28.1579V13.3902ZM28.1579 10.0302H30.2279C30.7212 10.0302 31.0946 9.92023 31.3479 9.70023C31.6079 9.48023 31.7379 9.17357 31.7379 8.78023C31.7379 8.3869 31.6079 8.09023 31.3479 7.89023C31.0946 7.69023 30.7212 7.59023 30.2279 7.59023H28.1579V10.0302ZM34.8111 15.8902C34.7578 15.8902 34.7111 15.8702 34.6711 15.8302C34.6311 15.7902 34.6111 15.7436 34.6111 15.6902C34.6111 15.6636 34.6144 15.6336 34.6211 15.6002C34.6344 15.5736 34.6511 15.5369 34.6711 15.4902L35.4411 13.6902L33.5311 9.19023C33.4911 9.09023 33.4711 9.02357 33.4711 8.99023C33.4711 8.9369 33.4911 8.89023 33.5311 8.85023C33.5711 8.81023 33.6178 8.79023 33.6711 8.79023H33.8811C33.9478 8.79023 33.9978 8.8069 34.0311 8.84023C34.0711 8.8669 34.0978 8.90023 34.1111 8.94023L35.7911 12.9002L37.5111 8.94023C37.5311 8.90023 37.5578 8.8669 37.5911 8.84023C37.6244 8.8069 37.6744 8.79023 37.7411 8.79023H37.9411C37.9944 8.79023 38.0411 8.81023 38.0811 8.85023C38.1211 8.89023 38.1411 8.9369 38.1411 8.99023C38.1411 9.02357 38.1211 9.09023 38.0811 9.19023L35.2411 15.7402C35.2211 15.7802 35.1944 15.8136 35.1611 15.8402C35.1278 15.8736 35.0778 15.8902 35.0111 15.8902H34.8111ZM43.1744 13.9902C43.1077 13.9902 43.0544 13.9702 43.0144 13.9302C42.9744 13.8902 42.9544 13.8369 42.9544 13.7702V7.59023H40.9744C40.9077 7.59023 40.8544 7.57023 40.8144 7.53023C40.7744 7.49023 40.7544 7.4369 40.7544 7.37023V7.22023C40.7544 7.1469 40.7744 7.09023 40.8144 7.05023C40.8544 7.01023 40.9077 6.99023 40.9744 6.99023H45.5544C45.6277 6.99023 45.6844 7.01023 45.7244 7.05023C45.7644 7.09023 45.7844 7.1469 45.7844 7.22023V7.37023C45.7844 7.4369 45.7644 7.49023 45.7244 7.53023C45.6844 7.57023 45.6277 7.59023 45.5544 7.59023H43.5844V13.7702C43.5844 13.8369 43.5644 13.8902 43.5244 13.9302C43.4844 13.9702 43.4277 13.9902 43.3544 13.9902H43.1744ZM47.0808 13.9902C47.0141 13.9902 46.9608 13.9702 46.9208 13.9302C46.8808 13.8902 46.8608 13.8369 46.8608 13.7702V9.01023C46.8608 8.94357 46.8808 8.89023 46.9208 8.85023C46.9608 8.81023 47.0141 8.79023 47.0808 8.79023H47.2508C47.3174 8.79023 47.3708 8.81023 47.4108 8.85023C47.4508 8.89023 47.4708 8.94357 47.4708 9.01023V13.7702C47.4708 13.8369 47.4508 13.8902 47.4108 13.9302C47.3708 13.9702 47.3174 13.9902 47.2508 13.9902H47.0808ZM46.9708 7.72023C46.9041 7.72023 46.8508 7.70023 46.8108 7.66023C46.7708 7.62023 46.7508 7.5669 46.7508 7.50023V7.12023C46.7508 7.05357 46.7708 7.00023 46.8108 6.96023C46.8508 6.91357 46.9041 6.89023 46.9708 6.89023H47.3508C47.4174 6.89023 47.4708 6.91357 47.5108 6.96023C47.5574 7.00023 47.5808 7.05357 47.5808 7.12023V7.50023C47.5808 7.5669 47.5574 7.62023 47.5108 7.66023C47.4708 7.70023 47.4174 7.72023 47.3508 7.72023H46.9708ZM49.3073 13.9902C49.2407 13.9902 49.1873 13.9702 49.1473 13.9302C49.1073 13.8902 49.0873 13.8369 49.0873 13.7702V9.01023C49.0873 8.94357 49.1073 8.89023 49.1473 8.85023C49.1873 8.81023 49.2407 8.79023 49.3073 8.79023H49.4773C49.544 8.79023 49.5973 8.81023 49.6373 8.85023C49.6773 8.89023 49.6973 8.94357 49.6973 9.01023V9.36023C49.864 9.1469 50.0607 8.98357 50.2873 8.87023C50.5207 8.75023 50.8007 8.69023 51.1273 8.69023C51.874 8.69023 52.4073 9.00357 52.7273 9.63023C52.8807 9.34357 53.104 9.1169 53.3973 8.95023C53.6973 8.7769 54.0407 8.69023 54.4273 8.69023C54.7807 8.69023 55.0973 8.77357 55.3773 8.94023C55.664 9.10023 55.8873 9.34023 56.0473 9.66023C56.214 9.98023 56.2973 10.3802 56.2973 10.8602V13.7702C56.2973 13.8369 56.2773 13.8902 56.2373 13.9302C56.1973 13.9702 56.144 13.9902 56.0773 13.9902H55.9073C55.8407 13.9902 55.7873 13.9702 55.7473 13.9302C55.7073 13.8902 55.6873 13.8369 55.6873 13.7702V10.9602C55.6873 10.5202 55.624 10.1802 55.4973 9.94023C55.3707 9.69357 55.204 9.52023 54.9973 9.42023C54.7907 9.32023 54.5673 9.27023 54.3273 9.27023C54.1273 9.27023 53.924 9.32023 53.7173 9.42023C53.5107 9.52023 53.3373 9.69357 53.1973 9.94023C53.064 10.1802 52.9973 10.5202 52.9973 10.9602V13.7702C52.9973 13.8369 52.9773 13.8902 52.9373 13.9302C52.8973 13.9702 52.844 13.9902 52.7773 13.9902H52.6073C52.5407 13.9902 52.4873 13.9702 52.4473 13.9302C52.4073 13.8902 52.3873 13.8369 52.3873 13.7702V10.9602C52.3873 10.5202 52.3207 10.1802 52.1873 9.94023C52.054 9.69357 51.884 9.52023 51.6773 9.42023C51.4707 9.32023 51.254 9.27023 51.0273 9.27023C50.8273 9.27023 50.624 9.32023 50.4173 9.42023C50.2107 9.52023 50.0373 9.69357 49.8973 9.94023C49.764 10.1802 49.6973 10.5169 49.6973 10.9502V13.7702C49.6973 13.8369 49.6773 13.8902 49.6373 13.9302C49.5973 13.9702 49.544 13.9902 49.4773 13.9902H49.3073ZM59.7966 14.0902C59.15 14.0902 58.6366 13.8802 58.2566 13.4602C57.8766 13.0336 57.66 12.4769 57.6066 11.7902C57.6 11.6902 57.5966 11.5569 57.5966 11.3902C57.5966 11.2236 57.6 11.0902 57.6066 10.9902C57.64 10.5369 57.7466 10.1369 57.9266 9.79023C58.1066 9.44357 58.3533 9.17357 58.6666 8.98023C58.9866 8.7869 59.3633 8.69023 59.7966 8.69023C60.2633 8.69023 60.66 8.79357 60.9866 9.00023C61.3133 9.2069 61.5633 9.50357 61.7366 9.89023C61.9166 10.2769 62.0066 10.7369 62.0066 11.2702V11.4202C62.0066 11.4869 61.9833 11.5402 61.9366 11.5802C61.8966 11.6202 61.8433 11.6402 61.7766 11.6402H58.2166C58.2166 11.6402 58.2166 11.6536 58.2166 11.6802C58.2166 11.7069 58.2166 11.7269 58.2166 11.7402C58.23 12.0402 58.3 12.3269 58.4266 12.6002C58.5533 12.8669 58.7333 13.0869 58.9666 13.2602C59.2 13.4269 59.4766 13.5102 59.7966 13.5102C60.0833 13.5102 60.32 13.4669 60.5066 13.3802C60.7 13.2936 60.8533 13.2002 60.9666 13.1002C61.08 12.9936 61.1533 12.9136 61.1866 12.8602C61.2466 12.7736 61.2933 12.7236 61.3266 12.7102C61.36 12.6902 61.4133 12.6802 61.4866 12.6802H61.6466C61.7066 12.6802 61.7566 12.7002 61.7966 12.7402C61.8433 12.7736 61.8633 12.8202 61.8566 12.8802C61.85 12.9736 61.7966 13.0902 61.6966 13.2302C61.6033 13.3636 61.4666 13.4969 61.2866 13.6302C61.1133 13.7636 60.9 13.8736 60.6466 13.9602C60.3933 14.0469 60.11 14.0902 59.7966 14.0902ZM58.2166 11.0802H61.3966V11.0402C61.3966 10.7069 61.3333 10.4069 61.2066 10.1402C61.08 9.87357 60.8966 9.66357 60.6566 9.51023C60.4166 9.35023 60.13 9.27023 59.7966 9.27023C59.4633 9.27023 59.1766 9.35023 58.9366 9.51023C58.7033 9.66357 58.5233 9.87357 58.3966 10.1402C58.2766 10.4069 58.2166 10.7069 58.2166 11.0402V11.0802ZM65.2956 14.0902C64.829 14.0902 64.4323 14.0002 64.1056 13.8202C63.779 13.6336 63.529 13.3669 63.3556 13.0202C63.189 12.6736 63.099 12.2636 63.0856 11.7902C63.079 11.6902 63.0756 11.5569 63.0756 11.3902C63.0756 11.2236 63.079 11.0902 63.0856 10.9902C63.099 10.5102 63.189 10.1002 63.3556 9.76023C63.529 9.41357 63.779 9.15023 64.1056 8.97023C64.4323 8.78357 64.829 8.69023 65.2956 8.69023C65.649 8.69023 65.9523 8.74023 66.2056 8.84023C66.4656 8.93357 66.679 9.06023 66.8456 9.22023C67.0123 9.37357 67.139 9.54357 67.2256 9.73023C67.3123 9.9169 67.359 10.1002 67.3656 10.2802C67.3723 10.3469 67.3523 10.4002 67.3056 10.4402C67.259 10.4802 67.2056 10.5002 67.1456 10.5002H67.0056C66.939 10.5002 66.889 10.4869 66.8556 10.4602C66.829 10.4269 66.799 10.3702 66.7656 10.2902C66.6256 9.91023 66.4323 9.6469 66.1856 9.50023C65.9456 9.3469 65.649 9.27023 65.2956 9.27023C64.8423 9.27023 64.4656 9.41023 64.1656 9.69023C63.8723 9.96357 63.7156 10.4136 63.6956 11.0402C63.6823 11.2736 63.6823 11.5069 63.6956 11.7402C63.7156 12.3669 63.8723 12.8202 64.1656 13.1002C64.4656 13.3736 64.8423 13.5102 65.2956 13.5102C65.649 13.5102 65.9456 13.4369 66.1856 13.2902C66.4323 13.1369 66.6256 12.8702 66.7656 12.4902C66.799 12.4102 66.829 12.3569 66.8556 12.3302C66.889 12.2969 66.939 12.2802 67.0056 12.2802H67.1456C67.2056 12.2802 67.259 12.3002 67.3056 12.3402C67.3523 12.3802 67.3723 12.4336 67.3656 12.5002C67.359 12.6469 67.329 12.7936 67.2756 12.9402C67.2223 13.0869 67.139 13.2302 67.0256 13.3702C66.919 13.5102 66.7856 13.6336 66.6256 13.7402C66.4656 13.8469 66.2723 13.9302 66.0456 13.9902C65.8256 14.0569 65.5756 14.0902 65.2956 14.0902ZM68.917 13.9902C68.8503 13.9902 68.797 13.9702 68.757 13.9302C68.717 13.8902 68.697 13.8369 68.697 13.7702V7.11023C68.697 7.04357 68.717 6.99023 68.757 6.95023C68.797 6.91023 68.8503 6.89023 68.917 6.89023H69.087C69.1536 6.89023 69.207 6.91023 69.247 6.95023C69.287 6.99023 69.307 7.04357 69.307 7.11023V9.48023C69.487 9.2469 69.7036 9.0569 69.957 8.91023C70.217 8.76357 70.5603 8.69023 70.987 8.69023C71.4403 8.69023 71.817 8.79023 72.117 8.99023C72.4236 9.18357 72.6503 9.45023 72.797 9.79023C72.9503 10.1236 73.027 10.5036 73.027 10.9302V13.7702C73.027 13.8369 73.007 13.8902 72.967 13.9302C72.927 13.9702 72.8736 13.9902 72.807 13.9902H72.637C72.5703 13.9902 72.517 13.9702 72.477 13.9302C72.437 13.8902 72.417 13.8369 72.417 13.7702V10.9802C72.417 10.4469 72.287 10.0302 72.027 9.73023C71.767 9.42357 71.387 9.27023 70.887 9.27023C70.4136 9.27023 70.0303 9.42357 69.737 9.73023C69.4503 10.0302 69.307 10.4469 69.307 10.9802V13.7702C69.307 13.8369 69.287 13.8902 69.247 13.9302C69.207 13.9702 69.1536 13.9902 69.087 13.9902H68.917ZM75.9952 14.0902C75.6752 14.0902 75.3785 14.0236 75.1052 13.8902C74.8385 13.7569 74.6218 13.5802 74.4552 13.3602C74.2885 13.1336 74.2052 12.8802 74.2052 12.6002C74.2052 12.1469 74.3885 11.7836 74.7552 11.5102C75.1218 11.2369 75.5985 11.0602 76.1852 10.9802L77.7652 10.7602V10.4102C77.7652 10.0569 77.6552 9.78023 77.4352 9.58023C77.2218 9.37357 76.8785 9.27023 76.4052 9.27023C76.0585 9.27023 75.7785 9.34023 75.5652 9.48023C75.3518 9.61357 75.2052 9.79023 75.1252 10.0102C75.0918 10.1102 75.0285 10.1602 74.9352 10.1602H74.7752C74.6952 10.1602 74.6385 10.1402 74.6052 10.1002C74.5718 10.0536 74.5552 10.0002 74.5552 9.94023C74.5552 9.8469 74.5885 9.73023 74.6552 9.59023C74.7285 9.45023 74.8385 9.31357 74.9852 9.18023C75.1318 9.04023 75.3218 8.92357 75.5552 8.83023C75.7885 8.7369 76.0718 8.69023 76.4052 8.69023C76.7985 8.69023 77.1218 8.74357 77.3752 8.85023C77.6352 8.9569 77.8352 9.0969 77.9752 9.27023C78.1218 9.4369 78.2252 9.62357 78.2852 9.83023C78.3452 10.0369 78.3752 10.2402 78.3752 10.4402V13.7702C78.3752 13.8369 78.3552 13.8902 78.3152 13.9302C78.2752 13.9702 78.2218 13.9902 78.1552 13.9902H77.9852C77.9185 13.9902 77.8652 13.9702 77.8252 13.9302C77.7852 13.8902 77.7652 13.8369 77.7652 13.7702V13.3002C77.6852 13.4202 77.5718 13.5402 77.4252 13.6602C77.2785 13.7802 77.0885 13.8836 76.8552 13.9702C76.6285 14.0502 76.3418 14.0902 75.9952 14.0902ZM76.0952 13.5102C76.4018 13.5102 76.6818 13.4436 76.9352 13.3102C77.1885 13.1769 77.3885 12.9736 77.5352 12.7002C77.6885 12.4202 77.7652 12.0702 77.7652 11.6502V11.3102L76.4752 11.4902C75.9285 11.5636 75.5152 11.6902 75.2352 11.8702C74.9552 12.0502 74.8152 12.2769 74.8152 12.5502C74.8152 12.7702 74.8785 12.9502 75.0052 13.0902C75.1318 13.2302 75.2918 13.3369 75.4852 13.4102C75.6852 13.4769 75.8885 13.5102 76.0952 13.5102ZM80.1765 13.9902C80.1098 13.9902 80.0565 13.9702 80.0165 13.9302C79.9765 13.8902 79.9565 13.8369 79.9565 13.7702V9.01023C79.9565 8.94357 79.9765 8.89023 80.0165 8.85023C80.0565 8.81023 80.1098 8.79023 80.1765 8.79023H80.3465C80.4132 8.79023 80.4665 8.81023 80.5065 8.85023C80.5465 8.89023 80.5665 8.94357 80.5665 9.01023V13.7702C80.5665 13.8369 80.5465 13.8902 80.5065 13.9302C80.4665 13.9702 80.4132 13.9902 80.3465 13.9902H80.1765ZM80.0665 7.72023C79.9998 7.72023 79.9465 7.70023 79.9065 7.66023C79.8665 7.62023 79.8465 7.5669 79.8465 7.50023V7.12023C79.8465 7.05357 79.8665 7.00023 79.9065 6.96023C79.9465 6.91357 79.9998 6.89023 80.0665 6.89023H80.4465C80.5132 6.89023 80.5665 6.91357 80.6065 6.96023C80.6532 7.00023 80.6765 7.05357 80.6765 7.12023V7.50023C80.6765 7.5669 80.6532 7.62023 80.6065 7.66023C80.5665 7.70023 80.5132 7.72023 80.4465 7.72023H80.0665ZM82.403 13.9902C82.3364 13.9902 82.283 13.9702 82.243 13.9302C82.203 13.8902 82.183 13.8369 82.183 13.7702V9.01023C82.183 8.94357 82.203 8.89023 82.243 8.85023C82.283 8.81023 82.3364 8.79023 82.403 8.79023H82.573C82.6397 8.79023 82.693 8.81023 82.733 8.85023C82.773 8.89023 82.793 8.94357 82.793 9.01023V9.48023C82.973 9.2469 83.1897 9.0569 83.443 8.91023C83.703 8.76357 84.0464 8.69023 84.473 8.69023C84.9264 8.69023 85.303 8.79023 85.603 8.99023C85.9097 9.18357 86.1364 9.45023 86.283 9.79023C86.4364 10.1236 86.513 10.5036 86.513 10.9302V13.7702C86.513 13.8369 86.493 13.8902 86.453 13.9302C86.413 13.9702 86.3597 13.9902 86.293 13.9902H86.123C86.0564 13.9902 86.003 13.9702 85.963 13.9302C85.923 13.8902 85.903 13.8369 85.903 13.7702V10.9802C85.903 10.4469 85.773 10.0302 85.513 9.73023C85.253 9.42357 84.873 9.27023 84.373 9.27023C83.8997 9.27023 83.5164 9.42357 83.223 9.73023C82.9364 10.0302 82.793 10.4469 82.793 10.9802V13.7702C82.793 13.8369 82.773 13.8902 82.733 13.9302C82.693 13.9702 82.6397 13.9902 82.573 13.9902H82.403ZM91.0096 13.9902C90.9429 13.9902 90.8896 13.9702 90.8496 13.9302C90.8096 13.8902 90.7896 13.8369 90.7896 13.7702V7.21023C90.7896 7.14357 90.8096 7.09023 90.8496 7.05023C90.8896 7.01023 90.9429 6.99023 91.0096 6.99023H91.1996C91.2663 6.99023 91.3196 7.01023 91.3596 7.05023C91.3996 7.09023 91.4196 7.14357 91.4196 7.21023V13.3902H94.8696C94.9429 13.3902 94.9996 13.4102 95.0396 13.4502C95.0796 13.4902 95.0996 13.5469 95.0996 13.6202V13.7702C95.0996 13.8369 95.0796 13.8902 95.0396 13.9302C94.9996 13.9702 94.9429 13.9902 94.8696 13.9902H91.0096ZM97.5381 14.0902C97.2181 14.0902 96.9215 14.0236 96.6481 13.8902C96.3815 13.7569 96.1648 13.5802 95.9981 13.3602C95.8315 13.1336 95.7481 12.8802 95.7481 12.6002C95.7481 12.1469 95.9315 11.7836 96.2981 11.5102C96.6648 11.2369 97.1415 11.0602 97.7281 10.9802L99.3081 10.7602V10.4102C99.3081 10.0569 99.1981 9.78023 98.9781 9.58023C98.7648 9.37357 98.4215 9.27023 97.9481 9.27023C97.6015 9.27023 97.3215 9.34023 97.1081 9.48023C96.8948 9.61357 96.7481 9.79023 96.6681 10.0102C96.6348 10.1102 96.5715 10.1602 96.4781 10.1602H96.3181C96.2381 10.1602 96.1815 10.1402 96.1481 10.1002C96.1148 10.0536 96.0981 10.0002 96.0981 9.94023C96.0981 9.8469 96.1315 9.73023 96.1981 9.59023C96.2715 9.45023 96.3815 9.31357 96.5281 9.18023C96.6748 9.04023 96.8648 8.92357 97.0981 8.83023C97.3315 8.7369 97.6148 8.69023 97.9481 8.69023C98.3415 8.69023 98.6648 8.74357 98.9181 8.85023C99.1781 8.9569 99.3781 9.0969 99.5181 9.27023C99.6648 9.4369 99.7681 9.62357 99.8281 9.83023C99.8881 10.0369 99.9181 10.2402 99.9181 10.4402V13.7702C99.9181 13.8369 99.8981 13.8902 99.8581 13.9302C99.8181 13.9702 99.7648 13.9902 99.6981 13.9902H99.5281C99.4615 13.9902 99.4081 13.9702 99.3681 13.9302C99.3281 13.8902 99.3081 13.8369 99.3081 13.7702V13.3002C99.2281 13.4202 99.1148 13.5402 98.9681 13.6602C98.8215 13.7802 98.6315 13.8836 98.3981 13.9702C98.1715 14.0502 97.8848 14.0902 97.5381 14.0902ZM97.6381 13.5102C97.9448 13.5102 98.2248 13.4436 98.4781 13.3102C98.7315 13.1769 98.9315 12.9736 99.0781 12.7002C99.2315 12.4202 99.3081 12.0702 99.3081 11.6502V11.3102L98.0181 11.4902C97.4715 11.5636 97.0581 11.6902 96.7781 11.8702C96.4981 12.0502 96.3581 12.2769 96.3581 12.5502C96.3581 12.7702 96.4215 12.9502 96.5481 13.0902C96.6748 13.2302 96.8348 13.3369 97.0281 13.4102C97.2281 13.4769 97.4315 13.5102 97.6381 13.5102ZM103.799 14.0902C103.386 14.0902 103.043 14.0169 102.769 13.8702C102.503 13.7169 102.286 13.5269 102.119 13.3002V13.7702C102.119 13.8369 102.099 13.8902 102.059 13.9302C102.019 13.9702 101.966 13.9902 101.899 13.9902H101.729C101.663 13.9902 101.609 13.9702 101.569 13.9302C101.529 13.8902 101.509 13.8369 101.509 13.7702V7.11023C101.509 7.04357 101.529 6.99023 101.569 6.95023C101.609 6.91023 101.663 6.89023 101.729 6.89023H101.899C101.966 6.89023 102.019 6.91023 102.059 6.95023C102.099 6.99023 102.119 7.04357 102.119 7.11023V9.48023C102.286 9.26023 102.503 9.07357 102.769 8.92023C103.043 8.7669 103.386 8.69023 103.799 8.69023C104.193 8.69023 104.523 8.76023 104.789 8.90023C105.056 9.04023 105.273 9.2269 105.439 9.46023C105.606 9.69357 105.729 9.95357 105.809 10.2402C105.889 10.5269 105.933 10.8169 105.939 11.1102C105.946 11.2102 105.949 11.3036 105.949 11.3902C105.949 11.4769 105.946 11.5702 105.939 11.6702C105.933 11.9636 105.889 12.2536 105.809 12.5402C105.729 12.8269 105.606 13.0869 105.439 13.3202C105.273 13.5536 105.056 13.7402 104.789 13.8802C104.523 14.0202 104.193 14.0902 103.799 14.0902ZM103.739 13.5102C104.133 13.5102 104.443 13.4236 104.669 13.2502C104.896 13.0769 105.059 12.8502 105.159 12.5702C105.259 12.2902 105.316 11.9902 105.329 11.6702C105.336 11.4836 105.336 11.2969 105.329 11.1102C105.316 10.7902 105.259 10.4902 105.159 10.2102C105.059 9.93023 104.896 9.70357 104.669 9.53023C104.443 9.3569 104.133 9.27023 103.739 9.27023C103.373 9.27023 103.069 9.3569 102.829 9.53023C102.596 9.70357 102.419 9.92023 102.299 10.1802C102.186 10.4402 102.126 10.7036 102.119 10.9702C102.113 11.0702 102.109 11.2002 102.109 11.3602C102.109 11.5202 102.113 11.6502 102.119 11.7502C102.133 12.0236 102.193 12.2969 102.299 12.5702C102.413 12.8369 102.586 13.0602 102.819 13.2402C103.053 13.4202 103.359 13.5102 103.739 13.5102ZM108.95 14.0902C108.604 14.0902 108.304 14.0436 108.05 13.9502C107.804 13.8569 107.6 13.7469 107.44 13.6202C107.28 13.4869 107.16 13.3569 107.08 13.2302C107.007 13.1036 106.967 13.0069 106.96 12.9402C106.954 12.8669 106.977 12.8136 107.03 12.7802C107.084 12.7402 107.134 12.7202 107.18 12.7202H107.33C107.37 12.7202 107.404 12.7269 107.43 12.7402C107.464 12.7536 107.504 12.7902 107.55 12.8502C107.637 12.9636 107.737 13.0736 107.85 13.1802C107.964 13.2802 108.107 13.3602 108.28 13.4202C108.46 13.4802 108.684 13.5102 108.95 13.5102C109.35 13.5102 109.68 13.4336 109.94 13.2802C110.2 13.1269 110.33 12.9002 110.33 12.6002C110.33 12.4136 110.277 12.2636 110.17 12.1502C110.07 12.0369 109.897 11.9369 109.65 11.8502C109.404 11.7636 109.07 11.6736 108.65 11.5802C108.23 11.4802 107.907 11.3602 107.68 11.2202C107.46 11.0802 107.31 10.9202 107.23 10.7402C107.15 10.5536 107.11 10.3536 107.11 10.1402C107.11 9.9069 107.177 9.68023 107.31 9.46023C107.444 9.23357 107.64 9.05023 107.9 8.91023C108.167 8.76357 108.5 8.69023 108.9 8.69023C109.227 8.69023 109.504 8.73357 109.73 8.82023C109.964 8.9069 110.154 9.01357 110.3 9.14023C110.447 9.26023 110.554 9.38023 110.62 9.50023C110.694 9.62023 110.734 9.7169 110.74 9.79023C110.747 9.8569 110.727 9.91023 110.68 9.95023C110.634 9.99023 110.58 10.0102 110.52 10.0102H110.37C110.317 10.0102 110.274 10.0002 110.24 9.98023C110.207 9.95357 110.177 9.92023 110.15 9.88023C110.084 9.77357 110.004 9.67357 109.91 9.58023C109.817 9.4869 109.69 9.41357 109.53 9.36023C109.377 9.30023 109.167 9.27023 108.9 9.27023C108.5 9.27023 108.204 9.35357 108.01 9.52023C107.817 9.68023 107.72 9.8869 107.72 10.1402C107.72 10.2869 107.76 10.4169 107.84 10.5302C107.92 10.6369 108.07 10.7369 108.29 10.8302C108.51 10.9169 108.83 11.0102 109.25 11.1102C109.677 11.2036 110.014 11.3202 110.26 11.4602C110.507 11.5936 110.68 11.7536 110.78 11.9402C110.887 12.1269 110.94 12.3469 110.94 12.6002C110.94 12.8669 110.864 13.1136 110.71 13.3402C110.564 13.5669 110.34 13.7502 110.04 13.8902C109.747 14.0236 109.384 14.0902 108.95 14.0902Z" fill="white"/>
</svg>
