<svg width="60" height="60" viewBox="0 0 60 60" fill="none" xmlns="http://www.w3.org/2000/svg">
<g clip-path="url(#clip0_597_27542)">
<path d="M1.2561 25.2581C4.44281 13.8615 12.3043 5.58838 19.946 5.58838C20.5597 5.58838 21.1729 5.6418 21.7703 5.74744C22.1091 5.80694 22.4054 6.00607 22.5887 6.29505C22.7714 6.58586 22.823 6.9392 22.7302 7.26946L21.1571 12.8962C21.0054 13.4395 20.4814 13.8068 19.9369 13.7819L19.8118 13.7795C16.9778 13.7795 11.7985 18.0268 9.15823 27.4668C9.05381 27.8414 8.95485 28.2244 8.85953 28.6239C11.8234 27.1572 15.3592 26.8178 18.5611 27.7096C25.7845 29.7307 30.0161 37.2503 27.9968 44.4725C26.3601 50.3244 20.9768 54.4127 14.9057 54.4127C13.6691 54.4127 12.4342 54.2421 11.2352 53.9064C6.47178 52.575 2.89044 48.6203 1.15046 42.7732C-0.42013 37.498 -0.380671 31.1143 1.2561 25.2581Z" fill="#059E93" fill-opacity="0.2"/>
<path d="M51.447 5.5896C52.0595 5.5896 52.6733 5.64181 53.2701 5.74745C53.6083 5.80573 53.9052 6.00608 54.0879 6.29506C54.2706 6.58587 54.3222 6.9392 54.23 7.26947L52.6563 12.8962C52.5046 13.4395 51.9903 13.8068 51.436 13.7819L51.3122 13.7795C48.4782 13.7795 43.2984 18.0268 40.658 27.4668C40.553 27.8438 40.454 28.2269 40.3593 28.6239C43.3245 27.1572 46.8591 26.8178 50.0609 27.7096C57.2831 29.7307 61.5159 37.2503 59.4954 44.4725C57.8587 50.3244 52.4754 54.4127 46.4043 54.4127C45.1676 54.4127 43.9328 54.2421 42.7331 53.9064C37.9704 52.575 34.389 48.6203 32.6484 42.7732C31.0785 37.498 31.1173 31.1137 32.7547 25.2569C35.9432 13.8615 43.8035 5.5896 51.447 5.5896Z" fill="#059E93" fill-opacity="0.2"/>
</g>
<defs>
<clipPath id="clip0_597_27542">
<rect width="60" height="60" fill="white" transform="matrix(-1 0 0 1 60 0.000488281)"/>
</clipPath>
</defs>
</svg>
