<svg width="24" height="25" viewBox="0 0 24 25" fill="none" xmlns="http://www.w3.org/2000/svg">
<path fill-rule="evenodd" clip-rule="evenodd" d="M7.62511 3.98251C7.93831 3.26397 8.0949 2.9047 8.40625 2.70284C8.71759 2.50098 9.11512 2.50098 9.91019 2.50098H14.0898C14.8849 2.50098 15.2824 2.50098 15.5938 2.70284C15.9051 2.9047 16.0617 3.26397 16.3749 3.98251L18.3939 8.61471C18.8919 9.75727 19.1409 10.3285 18.9175 10.8178C18.6941 11.307 18.0944 11.5036 16.895 11.8967L12 13.501L7.10497 11.8967C5.90561 11.5036 5.30592 11.307 5.08249 10.8178C4.85905 10.3285 5.10806 9.75727 5.60607 8.61472L7.62511 3.98251Z" fill="#059E93" stroke="#059E93" stroke-width="1.5" stroke-linecap="round" stroke-linejoin="round"/>
<path d="M12 13.501L8.5 3.00098M15.5 12.001L12 2.50098" stroke="white" stroke-width="1.5" stroke-linecap="round" stroke-linejoin="round"/>
<path d="M12.7774 14.1499L13.5693 15.7468C13.6773 15.9691 13.9653 16.1823 14.2083 16.2231L15.6436 16.4636C16.5615 16.6178 16.7775 17.2893 16.1161 17.9516L15.0002 19.0767C14.8112 19.2673 14.7077 19.6347 14.7662 19.8979L15.0857 21.2906C15.3377 22.393 14.7572 22.8195 13.7898 22.2433L12.4445 21.4403C12.2015 21.2952 11.801 21.2952 11.5536 21.4403L10.2082 22.2433C9.24533 22.8195 8.66039 22.3885 8.91236 21.2906L9.23183 19.8979C9.29032 19.6347 9.18683 19.2673 8.99785 19.0767L7.88198 17.9516C7.22505 17.2893 7.43653 16.6178 8.35443 16.4636L9.78977 16.2231C10.0282 16.1823 10.3162 15.9691 10.4242 15.7468L11.2161 14.1499C11.6481 13.2834 12.35 13.2834 12.7774 14.1499Z" fill="#059E93" stroke="#059E93" stroke-width="1.5" stroke-linecap="round" stroke-linejoin="round"/>
</svg>
