<svg width="152" height="41" viewBox="0 0 152 41" fill="none" xmlns="http://www.w3.org/2000/svg">
<rect y="11.5176" width="150" height="29" rx="14.5" transform="rotate(-4.1772 0 11.5176)" fill="#FFCF00"/>
<rect x="0.535092" y="11.9798" width="149" height="28" rx="14" transform="rotate(-4.1772 0.535092 11.9798)" stroke="black" stroke-opacity="0.05"/>
<path d="M14.572 29.5033C14.4922 29.5091 14.4223 29.4861 14.3624 29.4343C14.3025 29.3826 14.2696 29.3168 14.2638 29.237L13.6947 21.4458C13.6883 21.358 13.711 21.2841 13.7628 21.2242C13.8145 21.1643 13.8803 21.1314 13.9601 21.1256L16.8803 20.9123C17.6862 20.8534 18.3575 20.9287 18.8941 21.1382C19.4388 21.3471 19.8606 21.6853 20.1594 22.1527C20.4662 22.6196 20.6493 23.2038 20.7085 23.9054C20.7501 24.2553 20.7808 24.5659 20.8006 24.8372C20.8205 25.1084 20.8349 25.4162 20.844 25.7605C20.8823 26.5036 20.7915 27.1279 20.5717 27.6333C20.3514 28.1306 19.9906 28.5179 19.4895 28.7952C18.9957 29.0639 18.3499 29.2273 17.552 29.2856L14.572 29.5033ZM15.8478 28.0264L17.3917 27.9136C17.8385 27.881 18.1969 27.7907 18.4668 27.6426C18.7367 27.4946 18.9253 27.2762 19.0326 26.9877C19.1473 26.6905 19.1917 26.3103 19.1659 25.8469C19.1564 25.607 19.1452 25.3992 19.1324 25.2237C19.1269 25.0396 19.1138 24.8601 19.093 24.6851C19.0796 24.5016 19.0605 24.2945 19.0356 24.0637C18.9719 23.4106 18.7731 22.9398 18.4392 22.6514C18.1053 22.3629 17.5992 22.2435 16.921 22.293L15.437 22.4014L15.8478 28.0264ZM25.2458 28.844C24.3602 28.9087 23.6394 28.7047 23.0835 28.2319C22.5276 27.7591 22.1953 27.0535 22.0866 26.1149C22.0728 26.0357 22.0616 25.9362 22.0528 25.8166C22.0435 25.6889 22.0402 25.5889 22.0429 25.5165C22.0311 24.9157 22.1289 24.3872 22.3362 23.9309C22.5515 23.474 22.8661 23.1141 23.2801 22.8513C23.6934 22.5805 24.1914 22.4238 24.7738 22.3812C25.4201 22.334 25.9725 22.43 26.4312 22.6693C26.8893 22.9005 27.2475 23.2473 27.5058 23.7098C27.7636 24.1642 27.9152 24.7026 27.9607 25.3249L27.979 25.5762C27.9849 25.656 27.9619 25.7259 27.9101 25.7858C27.8584 25.8457 27.7886 25.8789 27.7008 25.8853L23.7274 26.1755C23.7274 26.1755 23.7283 26.1875 23.73 26.2114C23.7318 26.2354 23.7332 26.2553 23.7344 26.2713C23.7628 26.5499 23.8336 26.8055 23.9468 27.0378C24.0674 27.2616 24.2287 27.4384 24.4307 27.568C24.6407 27.697 24.8813 27.7517 25.1526 27.7319C25.376 27.7155 25.5611 27.6699 25.7081 27.595C25.8544 27.5121 25.9723 27.4233 26.0616 27.3286C26.1509 27.2338 26.2135 27.157 26.2493 27.0983C26.3141 26.9973 26.3659 26.9374 26.4046 26.9185C26.4508 26.8911 26.5177 26.8741 26.6055 26.8677L27.6347 26.7926C27.7145 26.7867 27.7801 26.806 27.8315 26.8504C27.8908 26.8942 27.9191 26.9523 27.9164 27.0247C27.9177 27.1529 27.8613 27.3134 27.747 27.5063C27.6407 27.6985 27.4783 27.8909 27.2598 28.0833C27.0412 28.2757 26.7607 28.4446 26.4184 28.5899C26.0835 28.7267 25.6926 28.8114 25.2458 28.844ZM23.654 25.1702L26.2989 24.977L26.2963 24.9411C26.2736 24.63 26.2019 24.3625 26.0813 24.1387C25.9607 23.9148 25.7957 23.7424 25.5863 23.6213C25.3769 23.5003 25.1326 23.4499 24.8533 23.4703C24.5741 23.4907 24.3397 23.576 24.1501 23.7262C23.9606 23.8764 23.8224 24.071 23.7355 24.31C23.6567 24.5484 23.6286 24.8231 23.6514 25.1343L23.654 25.1702ZM31.7822 28.3666C31.3673 28.3969 30.9953 28.3559 30.6663 28.2436C30.3446 28.1227 30.0707 27.9422 29.8446 27.702C29.6185 27.4618 29.4371 27.1743 29.3003 26.8394C29.163 26.4964 29.0712 26.1181 29.0249 25.7044C29.0065 25.5614 28.9932 25.434 28.985 25.3223C28.9763 25.2026 28.9706 25.0707 28.9681 24.9265C28.9549 24.5264 28.9877 24.151 29.0664 23.8003C29.153 23.4491 29.2907 23.1382 29.4795 22.8677C29.6757 22.5887 29.9242 22.366 30.2248 22.1997C30.5335 22.0328 30.8953 21.9341 31.3102 21.9038C31.741 21.8724 32.1096 21.9217 32.4159 22.0517C32.7296 22.1732 32.9946 22.3423 33.211 22.5591L33.0169 19.9022C33.0111 19.8224 33.0301 19.7528 33.0739 19.6935C33.1256 19.6336 33.1954 19.6004 33.2832 19.594L34.3005 19.5197C34.3802 19.5139 34.4501 19.5368 34.51 19.5886C34.57 19.6404 34.6028 19.7062 34.6087 19.7859L35.1873 27.7088C35.1931 27.7886 35.1702 27.8585 35.1184 27.9184C35.0666 27.9784 35.0009 28.0112 34.9211 28.0171L33.9756 28.0861C33.8878 28.0925 33.814 28.0698 33.754 28.0181C33.7021 27.9657 33.6732 27.8996 33.6674 27.8199L33.635 27.377C33.4536 27.6389 33.2132 27.8611 32.9136 28.0434C32.6221 28.2251 32.245 28.3328 31.7822 28.3666ZM32.1315 27.0537C32.4666 27.0292 32.7283 26.9339 32.9167 26.7677C33.1051 26.6016 33.2388 26.3993 33.3176 26.1609C33.3959 25.9146 33.43 25.6674 33.4199 25.4195C33.4174 25.2753 33.4103 25.1234 33.3986 24.9638C33.3864 24.7963 33.371 24.641 33.3526 24.498C33.3271 24.2592 33.2546 24.0359 33.1352 23.828C33.0151 23.6122 32.8501 23.4397 32.6402 23.3107C32.4302 23.1816 32.1657 23.1288 31.8465 23.1521C31.5114 23.1766 31.2497 23.2719 31.0613 23.438C30.8803 23.5957 30.7546 23.7973 30.6843 24.0431C30.6141 24.2889 30.5814 24.556 30.5864 24.8444C30.5959 25.0843 30.6134 25.3237 30.6389 25.5625C30.6758 25.8485 30.7469 26.108 30.8522 26.341C30.9574 26.5739 31.1113 26.7592 31.3139 26.8968C31.5238 27.0259 31.7964 27.0782 32.1315 27.0537ZM37.0907 27.8586C37.0109 27.8644 36.941 27.8415 36.8811 27.7897C36.8212 27.7379 36.7883 27.6721 36.7824 27.5923L36.3699 21.9434C36.364 21.8636 36.387 21.7937 36.4388 21.7338C36.4906 21.6739 36.5563 21.641 36.6361 21.6352L37.6295 21.5626C37.7173 21.5562 37.7871 21.5792 37.8391 21.6315C37.899 21.6833 37.9319 21.7491 37.9377 21.8289L38.3503 27.4778C38.3561 27.5576 38.3331 27.6275 38.2814 27.6874C38.2376 27.7468 38.1718 27.7796 38.084 27.7861L37.0907 27.8586ZM36.5131 20.6094C36.4253 20.6158 36.3518 20.5971 36.2924 20.5533C36.2405 20.501 36.2113 20.4309 36.2049 20.3432L36.1419 19.4815C36.1361 19.4017 36.1551 19.3321 36.1989 19.2728C36.2507 19.2128 36.3204 19.1797 36.4082 19.1732L37.4973 19.0937C37.5851 19.0873 37.6589 19.11 37.7188 19.1617C37.7788 19.2135 37.8116 19.2793 37.8175 19.3591L37.8804 20.2208C37.8868 20.3086 37.8641 20.3824 37.8124 20.4423C37.76 20.4943 37.69 20.5235 37.6022 20.5299L36.5131 20.6094ZM42.6607 27.5721C42.0862 27.6141 41.5717 27.5434 41.1171 27.36C40.6705 27.176 40.3087 26.8896 40.0316 26.5008C39.762 26.1034 39.5939 25.6143 39.5274 25.0336C39.5107 24.9145 39.4953 24.7592 39.4814 24.5677C39.4668 24.3682 39.4588 24.2044 39.4575 24.0762C39.4389 23.492 39.5344 22.9877 39.7441 22.5633C39.9611 22.1303 40.2772 21.7904 40.6923 21.5435C41.1154 21.296 41.6142 21.1513 42.1886 21.1093C42.6993 21.072 43.1394 21.1121 43.5089 21.2295C43.8784 21.3469 44.1868 21.5048 44.4339 21.7034C44.681 21.9019 44.8691 22.1168 44.9983 22.348C45.1349 22.5706 45.2142 22.7774 45.2361 22.9683C45.2505 23.0555 45.2279 23.1293 45.1681 23.1898C45.1157 23.2418 45.0497 23.2707 44.9699 23.2765L43.9167 23.3534C43.8369 23.3592 43.7716 23.344 43.7208 23.3076C43.678 23.2706 43.6338 23.2137 43.588 23.1368C43.445 22.8264 43.2692 22.6146 43.0604 22.5015C42.859 22.3799 42.6067 22.3301 42.3035 22.3523C41.9045 22.3814 41.5947 22.5324 41.374 22.8052C41.1607 23.0694 41.0659 23.4734 41.0895 24.0171C41.0957 24.3215 41.1161 24.6007 41.1507 24.8549C41.2069 25.4043 41.3597 25.7942 41.6091 26.0246C41.8666 26.2545 42.1947 26.3548 42.5937 26.3257C42.9049 26.303 43.1515 26.2208 43.3337 26.0791C43.5153 25.9295 43.6542 25.6907 43.7506 25.3629C43.7847 25.2802 43.8202 25.2174 43.8572 25.1746C43.9021 25.1312 43.9645 25.1066 44.0443 25.1008L45.0975 25.0238C45.1773 25.018 45.2472 25.041 45.3071 25.0928C45.3744 25.136 45.4073 25.2017 45.4057 25.2901C45.4082 25.4343 45.3803 25.6008 45.3219 25.7895C45.2709 25.9697 45.1766 26.1611 45.0389 26.3637C44.9087 26.5577 44.7377 26.7426 44.526 26.9185C44.3137 27.0864 44.0514 27.2299 43.7393 27.349C43.4351 27.4674 43.0755 27.5418 42.6607 27.5721ZM48.6123 27.1374C48.1974 27.1677 47.8165 27.1153 47.4698 26.9802C47.1224 26.8372 46.8391 26.6373 46.6198 26.3806C46.408 26.1153 46.2895 25.8111 46.2644 25.468C46.2236 24.9095 46.4147 24.4504 46.8376 24.0906C47.2679 23.7223 47.85 23.4552 48.5839 23.2893L50.206 22.9302L50.1877 22.6788C50.1632 22.3437 50.0605 22.0905 49.8795 21.9193C49.6986 21.748 49.4046 21.6772 48.9977 21.7069C48.7105 21.7279 48.4795 21.8049 48.3047 21.938C48.1373 22.0625 48.0168 22.2238 47.943 22.4217C47.8867 22.53 47.7988 22.5886 47.6791 22.5974L46.7336 22.6664C46.6458 22.6728 46.5763 22.6538 46.5249 22.6095C46.4815 22.5645 46.4569 22.5021 46.4511 22.4223C46.4497 22.2941 46.4902 22.1347 46.5726 21.9442C46.6549 21.7537 46.7937 21.5671 46.9889 21.3844C47.1835 21.1937 47.44 21.0266 47.7584 20.883C48.0768 20.7394 48.4674 20.6508 48.9302 20.617C49.4328 20.5802 49.8603 20.6132 50.2128 20.7158C50.5726 20.8098 50.8638 20.953 51.0864 21.1453C51.309 21.3376 51.4783 21.5699 51.5945 21.8421C51.7106 22.1144 51.78 22.4061 51.8028 22.7173L52.0772 26.4753C52.0831 26.5551 52.0601 26.6249 52.0083 26.6849C51.9566 26.7448 51.8908 26.7777 51.811 26.7835L50.8416 26.8543C50.7538 26.8607 50.68 26.838 50.62 26.7863C50.5681 26.7339 50.5392 26.6678 50.5334 26.588L50.4993 26.1213C50.4066 26.2805 50.2775 26.4343 50.1118 26.5827C49.9456 26.7232 49.7381 26.8467 49.4892 26.9531C49.2477 27.0509 48.9554 27.1124 48.6123 27.1374ZM48.9361 25.9707C49.2154 25.9503 49.4624 25.8722 49.677 25.7362C49.8997 25.5996 50.0658 25.403 50.1754 25.1463C50.2924 24.8811 50.3369 24.557 50.3089 24.174L50.2906 23.9226L49.1077 24.2015C48.6422 24.3077 48.2996 24.4491 48.0799 24.6255C47.8602 24.802 47.7587 25.0059 47.7756 25.2373C47.7885 25.4129 47.8514 25.5607 47.9644 25.6808C48.0849 25.7923 48.2312 25.8738 48.4034 25.9254C48.5751 25.969 48.7526 25.9841 48.9361 25.9707ZM56.3877 26.4492C55.9089 26.4842 55.4999 26.4299 55.1605 26.2862C54.8212 26.1425 54.5597 25.913 54.3763 25.5975C54.1922 25.274 54.0821 24.865 54.046 24.3703L53.8476 21.6535L52.9021 21.7226C52.8223 21.7284 52.7525 21.7054 52.6925 21.6537C52.6326 21.6019 52.5997 21.5361 52.5939 21.4563L52.5432 20.7622C52.5374 20.6824 52.5603 20.6125 52.6121 20.5526C52.6639 20.4927 52.7297 20.4598 52.8095 20.454L53.7549 20.3849L53.6098 18.3982C53.604 18.3184 53.623 18.2488 53.6668 18.1895C53.7186 18.1296 53.7883 18.0964 53.8761 18.09L54.8455 18.0192C54.9253 18.0133 54.9952 18.0363 55.0551 18.0881C55.115 18.1399 55.1479 18.2056 55.1537 18.2854L55.2988 20.2721L56.7948 20.1629C56.8746 20.1571 56.9445 20.18 57.0044 20.2318C57.0643 20.2836 57.0972 20.3493 57.1031 20.4291L57.1538 21.1233C57.1596 21.2031 57.1366 21.2729 57.0848 21.3329C57.0331 21.3928 56.9673 21.4257 56.8875 21.4315L55.3915 21.5408L55.5812 24.1378C55.6051 24.465 55.6796 24.7162 55.8047 24.8916C55.9377 25.0663 56.1479 25.1432 56.4351 25.1223L57.2609 25.0619C57.3407 25.0561 57.4106 25.0791 57.4705 25.1309C57.5304 25.1826 57.5633 25.2484 57.5691 25.3282L57.6233 26.0702C57.6292 26.15 57.6062 26.2199 57.5544 26.2798C57.5027 26.3397 57.4369 26.3726 57.3571 26.3784L56.3877 26.4492ZM61.3956 26.2038C60.51 26.2685 59.7892 26.0644 59.2333 25.5917C58.6774 25.1189 58.3451 24.4132 58.2364 23.4747C58.2226 23.3955 58.2114 23.296 58.2026 23.1763C58.1933 23.0487 58.19 22.9487 58.1927 22.8763C58.1809 22.2755 58.2787 21.747 58.486 21.2907C58.7013 20.8338 59.0159 20.4739 59.4299 20.2111C59.8433 19.9402 60.3412 19.7836 60.9236 19.741C61.5699 19.6938 62.1224 19.7898 62.581 20.0291C63.0391 20.2603 63.3973 20.6071 63.6556 21.0695C63.9134 21.524 64.065 22.0624 64.1105 22.6847L64.1289 22.936C64.1347 23.0158 64.1117 23.0857 64.0599 23.1456C64.0082 23.2055 63.9384 23.2387 63.8506 23.2451L59.8772 23.5353C59.8772 23.5353 59.8781 23.5473 59.8798 23.5712C59.8816 23.5952 59.883 23.6151 59.8842 23.6311C59.9126 23.9097 59.9834 24.1653 60.0966 24.3976C60.2172 24.6214 60.3785 24.7982 60.5805 24.9278C60.7905 25.0568 61.0311 25.1115 61.3024 25.0916C61.5258 25.0753 61.7109 25.0297 61.8579 24.9548C62.0042 24.8719 62.1221 24.7831 62.2114 24.6884C62.3007 24.5936 62.3633 24.5168 62.3991 24.4581C62.4639 24.3571 62.5157 24.2971 62.5544 24.2783C62.6006 24.2508 62.6675 24.2339 62.7553 24.2275L63.7845 24.1523C63.8643 24.1465 63.9299 24.1658 63.9813 24.2102C64.0406 24.254 64.0689 24.312 64.0662 24.3844C64.0675 24.5127 64.0111 24.6732 63.8968 24.8661C63.7905 25.0583 63.6281 25.2506 63.4096 25.4431C63.191 25.6355 62.9106 25.8044 62.5682 25.9497C62.2333 26.0865 61.8424 26.1712 61.3956 26.2038ZM59.8038 22.53L62.4487 22.3368L62.4461 22.3009C62.4234 21.9897 62.3517 21.7223 62.2311 21.4984C62.1105 21.2746 61.9455 21.1022 61.7361 20.9811C61.5267 20.8601 61.2824 20.8097 61.0032 20.8301C60.7239 20.8505 60.4895 20.9358 60.2999 21.086C60.1104 21.2362 59.9722 21.4308 59.8853 21.6698C59.8065 21.9081 59.7784 22.1829 59.8012 22.4941L59.8038 22.53ZM67.932 25.7264C67.5171 25.7567 67.1451 25.7157 66.8161 25.6034C66.4944 25.4825 66.2205 25.302 65.9944 25.0618C65.7683 24.8216 65.5869 24.5341 65.4502 24.1991C65.3128 23.8562 65.221 23.4779 65.1748 23.0642C65.1563 22.9211 65.143 22.7938 65.1348 22.6821C65.1261 22.5624 65.1204 22.4305 65.1179 22.2863C65.1048 21.8862 65.1375 21.5108 65.2162 21.1601C65.3028 20.8089 65.4405 20.498 65.6293 20.2275C65.8255 19.9485 66.074 19.7258 66.3747 19.5595C66.6833 19.3925 67.0451 19.2939 67.46 19.2636C67.8908 19.2322 68.2594 19.2814 68.5657 19.4115C68.8794 19.533 69.1444 19.7021 69.3608 19.9189L69.1667 17.262C69.1609 17.1822 69.1799 17.1126 69.2237 17.0533C69.2754 16.9934 69.3452 16.9602 69.433 16.9538L70.4503 16.8795C70.5301 16.8736 70.5999 16.8966 70.6598 16.9484C70.7198 17.0002 70.7526 17.0659 70.7585 17.1457L71.3371 25.0686C71.343 25.1484 71.32 25.2183 71.2682 25.2782C71.2164 25.3381 71.1507 25.371 71.0709 25.3768L70.1254 25.4459C70.0376 25.4523 69.9638 25.4296 69.9038 25.3779C69.8519 25.3255 69.823 25.2594 69.8172 25.1796L69.7848 24.7368C69.6034 24.9987 69.363 25.2208 69.0635 25.4031C68.7719 25.5849 68.3948 25.6926 67.932 25.7264ZM68.2813 24.4135C68.6164 24.389 68.8781 24.2937 69.0665 24.1275C69.2549 23.9614 69.3886 23.7591 69.4674 23.5207C69.5457 23.2744 69.5798 23.0272 69.5697 22.7793C69.5672 22.6351 69.5601 22.4832 69.5484 22.3236C69.5362 22.1561 69.5208 22.0008 69.5024 21.8577C69.4769 21.619 69.4044 21.3957 69.285 21.1878C69.165 20.972 69 20.7995 68.79 20.6705C68.58 20.5414 68.3155 20.4886 67.9963 20.5119C67.6612 20.5363 67.3995 20.6317 67.2111 20.7978C67.0301 20.9554 66.9044 21.1571 66.8341 21.4029C66.7639 21.6487 66.7312 21.9158 66.7363 22.2042C66.7458 22.4441 66.7632 22.6835 66.7887 22.9222C66.8256 23.2083 66.8967 23.4678 67.002 23.7008C67.1072 23.9337 67.2611 24.119 67.4637 24.2566C67.6736 24.3857 67.9462 24.438 68.2813 24.4135ZM75.0016 25.0898C74.9377 25.0944 74.8761 25.0749 74.8168 25.0311C74.7654 24.9867 74.7371 24.9286 74.7319 24.8568C74.7295 24.8249 74.7349 24.7884 74.7479 24.7473L77.0685 16.8172C77.0866 16.7357 77.1255 16.6647 77.1853 16.6042C77.2524 16.5351 77.3458 16.4962 77.4655 16.4874L78.77 16.3922C78.8897 16.3834 78.9838 16.4086 79.0523 16.4678C79.1202 16.519 79.173 16.5833 79.2108 16.6608L82.6589 24.1696C82.6698 24.2089 82.6764 24.2445 82.6787 24.2764C82.6839 24.3482 82.6644 24.4098 82.62 24.4612C82.5756 24.5125 82.5215 24.5405 82.4577 24.5452L81.4165 24.6212C81.3048 24.6294 81.2192 24.6116 81.1599 24.5678C81.1079 24.5154 81.0722 24.4659 81.0528 24.4192L80.3836 23.0002L76.8291 23.2598L76.3733 24.761C76.3608 24.81 76.3287 24.8645 76.2769 24.9244C76.2325 24.9758 76.1545 25.0056 76.0428 25.0137L75.0016 25.0898ZM77.1475 21.8529L79.8642 21.6544L78.2298 18.0559L77.1475 21.8529ZM86.0372 24.4041C85.5585 24.4391 85.1435 24.4132 84.7923 24.3266C84.449 24.2393 84.1636 24.1198 83.9359 23.968C83.7082 23.8162 83.5364 23.6603 83.4205 23.5003C83.3045 23.3403 83.2384 23.2048 83.2223 23.0937C83.2079 23.0065 83.2269 22.9369 83.2793 22.8849C83.339 22.8244 83.4048 22.7916 83.4766 22.7863L84.4221 22.7173C84.454 22.7149 84.4822 22.7169 84.5067 22.7231C84.5312 22.7293 84.5649 22.7509 84.6077 22.7879C84.7179 22.8681 84.8323 22.952 84.951 23.0396C85.0776 23.1266 85.2234 23.2002 85.3882 23.2603C85.5524 23.3125 85.7542 23.3299 85.9936 23.3124C86.3048 23.2896 86.5597 23.2109 86.7584 23.076C86.9645 22.9326 87.0591 22.7452 87.0422 22.5139C87.03 22.3463 86.9722 22.2142 86.8689 22.1174C86.7735 22.0201 86.5993 21.9406 86.3461 21.8789C86.0924 21.8092 85.7346 21.7431 85.2728 21.6805C84.8184 21.6094 84.4378 21.5049 84.1309 21.3669C83.8241 21.2289 83.5901 21.0454 83.429 20.8165C83.2679 20.5877 83.1757 20.3137 83.1524 19.9945C83.1297 19.6833 83.1998 19.3814 83.363 19.0888C83.5335 18.7875 83.7955 18.5318 84.1492 18.3215C84.5108 18.1106 84.9668 17.985 85.5174 17.9448C85.9482 17.9133 86.3273 17.9418 86.6546 18.0302C86.9813 18.1106 87.2542 18.223 87.4733 18.3674C87.7004 18.5113 87.8759 18.6629 87.9999 18.8223C88.1232 18.9737 88.1933 19.109 88.21 19.2281C88.2244 19.3153 88.2057 19.3888 88.1539 19.4487C88.1016 19.5007 88.0395 19.5293 87.9677 19.5345L87.082 19.5992C87.0421 19.6021 87.0056 19.5968 86.9726 19.5832C86.9395 19.5695 86.9061 19.5519 86.8724 19.5303C86.7789 19.4569 86.677 19.3801 86.5669 19.3C86.4567 19.2198 86.3235 19.1533 86.1673 19.1005C86.0184 19.0392 85.8243 19.0173 85.5849 19.0348C85.2817 19.0569 85.0553 19.1416 84.9056 19.2889C84.7554 19.4282 84.6875 19.5976 84.7021 19.7971C84.712 19.9327 84.7567 20.0498 84.8361 20.1483C84.9228 20.2382 85.0851 20.3186 85.3229 20.3895C85.5607 20.4603 85.9185 20.5264 86.3962 20.5878C86.9378 20.6445 87.3711 20.7572 87.6963 20.926C88.0289 21.0862 88.268 21.2853 88.4137 21.5233C88.5668 21.7528 88.6542 22.0151 88.6757 22.3103C88.702 22.6694 88.6178 23.0004 88.4234 23.3034C88.2369 23.6057 87.9424 23.8559 87.5397 24.0537C87.1444 24.243 86.6436 24.3598 86.0372 24.4041ZM92.407 23.9389C91.9283 23.9738 91.5133 23.948 91.162 23.8614C90.8188 23.7741 90.5333 23.6546 90.3056 23.5028C90.078 23.351 89.9062 23.1951 89.7902 23.0351C89.6742 22.8751 89.6082 22.7396 89.5921 22.6284C89.5777 22.5413 89.5967 22.4717 89.649 22.4197C89.7088 22.3592 89.7745 22.3263 89.8464 22.3211L90.7918 22.252C90.8237 22.2497 90.852 22.2517 90.8765 22.2579C90.901 22.2641 90.9347 22.2857 90.9775 22.3227C91.0876 22.4029 91.202 22.4868 91.3207 22.5744C91.4474 22.6614 91.5931 22.735 91.758 22.7951C91.9222 22.8473 92.124 22.8646 92.3634 22.8472C92.6745 22.8244 92.9295 22.7456 93.1282 22.6108C93.3343 22.4674 93.4289 22.28 93.412 22.0486C93.3997 21.8811 93.342 21.749 93.2386 21.6522C93.1433 21.5549 92.969 21.4754 92.7159 21.4137C92.4621 21.344 92.1044 21.2778 91.6426 21.2153C91.1882 21.1442 90.8076 21.0397 90.5007 20.9017C90.1938 20.7636 89.9598 20.5802 89.7987 20.3513C89.6376 20.1225 89.5454 19.8484 89.5221 19.5293C89.4994 19.2181 89.5696 18.9162 89.7327 18.6236C89.9032 18.3223 90.1653 18.0666 90.5189 17.8562C90.8805 17.6453 91.3366 17.5198 91.8871 17.4796C92.318 17.4481 92.697 17.4766 93.0243 17.565C93.3511 17.6454 93.624 17.7578 93.8431 17.9022C94.0702 18.0461 94.2457 18.1977 94.3696 18.3571C94.493 18.5085 94.563 18.6438 94.5797 18.7629C94.5941 18.85 94.5754 18.9236 94.5237 18.9835C94.4713 19.0355 94.4092 19.0641 94.3374 19.0693L93.4518 19.134C93.4119 19.1369 93.3754 19.1316 93.3423 19.1179C93.3092 19.1043 93.2759 19.0867 93.2422 19.0651C93.1486 18.9917 93.0467 18.9149 92.9366 18.8347C92.8265 18.7545 92.6933 18.6881 92.537 18.6353C92.3882 18.574 92.194 18.5521 91.9547 18.5696C91.6515 18.5917 91.4251 18.6764 91.2754 18.8237C91.1251 18.963 91.0573 19.1324 91.0719 19.3319C91.0818 19.4675 91.1264 19.5846 91.2058 19.6831C91.2926 19.773 91.4549 19.8534 91.6927 19.9242C91.9305 19.9951 92.2882 20.0612 92.766 20.1226C93.3075 20.1793 93.7409 20.292 94.0661 20.4608C94.3986 20.621 94.6377 20.8201 94.7835 21.0581C94.9366 21.2876 95.0239 21.5499 95.0455 21.8451C95.0717 22.2042 94.9876 22.5352 94.7932 22.8381C94.6067 23.1405 94.3121 23.3906 93.9095 23.5885C93.5142 23.7778 93.0134 23.8946 92.407 23.9389ZM96.6975 23.5052C96.6177 23.511 96.5479 23.488 96.4879 23.4363C96.428 23.3845 96.3951 23.3187 96.3893 23.2389L95.9767 17.59C95.9709 17.5102 95.9939 17.4403 96.0457 17.3804C96.0974 17.3205 96.1632 17.2876 96.243 17.2818L97.2363 17.2092C97.3241 17.2028 97.394 17.2258 97.4459 17.2781C97.5059 17.3299 97.5387 17.3957 97.5446 17.4755L97.9571 23.1244C97.963 23.2042 97.94 23.2741 97.8882 23.334C97.8444 23.3934 97.7786 23.4262 97.6909 23.4326L96.6975 23.5052ZM96.1199 16.256C96.0322 16.2624 95.9586 16.2437 95.8993 16.1999C95.8473 16.1476 95.8181 16.0775 95.8117 15.9897L95.7488 15.128C95.743 15.0483 95.762 14.9787 95.8057 14.9193C95.8575 14.8594 95.9273 14.8262 96.0151 14.8198L97.1042 14.7403C97.1919 14.7339 97.2658 14.7566 97.3257 14.8083C97.3856 14.8601 97.4185 14.9259 97.4243 15.0057L97.4873 15.8674C97.4937 15.9551 97.471 16.029 97.4192 16.0889C97.3669 16.1409 97.2968 16.1701 97.209 16.1765L96.1199 16.256ZM101.932 23.2432C101.454 23.2781 101.039 23.2523 100.687 23.1657C100.344 23.0784 100.059 22.9589 99.8311 22.8071C99.6034 22.6553 99.4316 22.4994 99.3156 22.3394C99.1997 22.1794 99.1336 22.0439 99.1175 21.9327C99.1031 21.8456 99.1221 21.776 99.1744 21.724C99.2342 21.6635 99.3 21.6306 99.3718 21.6254L100.317 21.5564C100.349 21.554 100.377 21.556 100.402 21.5622C100.426 21.5684 100.46 21.59 100.503 21.627C100.613 21.7072 100.727 21.7911 100.846 21.8787C100.973 21.9657 101.119 22.0393 101.283 22.0994C101.448 22.1516 101.649 22.1689 101.889 22.1515C102.2 22.1287 102.455 22.05 102.654 21.9151C102.86 21.7717 102.954 21.5843 102.937 21.353C102.925 21.1854 102.867 21.0533 102.764 20.9565C102.669 20.8592 102.494 20.7797 102.241 20.718C101.988 20.6483 101.63 20.5822 101.168 20.5196C100.714 20.4485 100.333 20.344 100.026 20.206C99.7192 20.068 99.4853 19.8845 99.3242 19.6556C99.1631 19.4268 99.0708 19.1528 99.0475 18.8336C99.0248 18.5224 99.095 18.2205 99.2581 17.9279C99.4286 17.6266 99.6907 17.3709 100.044 17.1606C100.406 16.9497 100.862 16.8241 101.413 16.7839C101.843 16.7524 102.222 16.7809 102.55 16.8693C102.876 16.9497 103.149 17.0621 103.369 17.2065C103.596 17.3504 103.771 17.502 103.895 17.6614C104.018 17.8128 104.088 17.9481 104.105 18.0672C104.12 18.1543 104.101 18.2279 104.049 18.2878C103.997 18.3398 103.935 18.3684 103.863 18.3736L102.977 18.4383C102.937 18.4412 102.901 18.4359 102.868 18.4222C102.835 18.4086 102.801 18.391 102.768 18.3694C102.674 18.296 102.572 18.2192 102.462 18.139C102.352 18.0589 102.219 17.9924 102.062 17.9396C101.914 17.8783 101.719 17.8564 101.48 17.8739C101.177 17.896 100.95 17.9807 100.801 18.128C100.651 18.2673 100.583 18.4367 100.597 18.6362C100.607 18.7718 100.652 18.8889 100.731 18.9874C100.818 19.0773 100.98 19.1577 101.218 19.2285C101.456 19.2994 101.814 19.3655 102.291 19.4269C102.833 19.4836 103.266 19.5963 103.591 19.7651C103.924 19.9253 104.163 20.1244 104.309 20.3624C104.462 20.5919 104.549 20.8542 104.571 21.1494C104.597 21.5085 104.513 21.8395 104.319 22.1424C104.132 22.4448 103.838 22.695 103.435 22.8928C103.04 23.0821 102.539 23.1989 101.932 23.2432ZM108.725 22.6268C108.246 22.6617 107.837 22.6074 107.498 22.4637C107.158 22.3201 106.897 22.0905 106.713 21.775C106.529 21.4516 106.419 21.0425 106.383 20.5478L106.185 17.8311L105.239 17.9001C105.159 17.9059 105.09 17.883 105.03 17.8312C104.97 17.7794 104.937 17.7136 104.931 17.6339L104.88 16.9397C104.875 16.8599 104.898 16.7901 104.949 16.7301C105.001 16.6702 105.067 16.6373 105.147 16.6315L106.092 16.5624L105.947 14.5757C105.941 14.4959 105.96 14.4264 106.004 14.367C106.056 14.3071 106.125 14.2739 106.213 14.2675L107.183 14.1967C107.262 14.1909 107.332 14.2139 107.392 14.2656C107.452 14.3174 107.485 14.3832 107.491 14.463L107.636 16.4497L109.132 16.3404C109.212 16.3346 109.282 16.3576 109.342 16.4093C109.402 16.4611 109.434 16.5269 109.44 16.6067L109.491 17.3008C109.497 17.3806 109.474 17.4505 109.422 17.5104C109.37 17.5703 109.304 17.6032 109.225 17.609L107.729 17.7183L107.918 20.3154C107.942 20.6425 108.017 20.8938 108.142 21.0691C108.275 21.2439 108.485 21.3208 108.772 21.2998L109.598 21.2395C109.678 21.2337 109.748 21.2566 109.808 21.3084C109.868 21.3602 109.9 21.4259 109.906 21.5057L109.961 22.2478C109.966 22.3275 109.943 22.3974 109.892 22.4573C109.84 22.5173 109.774 22.5501 109.694 22.556L108.725 22.6268ZM112.859 22.4451C112.444 22.4754 112.063 22.423 111.717 22.2879C111.369 22.1449 111.086 21.945 110.867 21.6883C110.655 21.423 110.536 21.1188 110.511 20.7757C110.47 20.2172 110.662 19.7581 111.084 19.3983C111.515 19.03 112.097 18.7629 112.831 18.597L114.453 18.2379L114.435 17.9865C114.41 17.6514 114.307 17.3982 114.126 17.227C113.945 17.0557 113.651 16.9849 113.245 17.0146C112.957 17.0356 112.726 17.1127 112.552 17.2457C112.384 17.3703 112.264 17.5315 112.19 17.7294C112.134 17.8378 112.046 17.8963 111.926 17.9051L110.98 17.9741C110.893 17.9805 110.823 17.9615 110.772 17.9172C110.728 17.8722 110.704 17.8098 110.698 17.73C110.697 17.6018 110.737 17.4424 110.819 17.2519C110.902 17.0614 111.041 16.8748 111.236 16.6921C111.43 16.5014 111.687 16.3343 112.005 16.1907C112.324 16.0472 112.714 15.9585 113.177 15.9247C113.68 15.888 114.107 15.9209 114.46 16.0235C114.819 16.1175 115.111 16.2607 115.333 16.453C115.556 16.6453 115.725 16.8776 115.841 17.1498C115.957 17.4221 116.027 17.7138 116.05 18.025L116.324 21.783C116.33 21.8628 116.307 21.9326 116.255 21.9926C116.203 22.0525 116.138 22.0854 116.058 22.0912L115.088 22.162C115.001 22.1684 114.927 22.1457 114.867 22.094C114.815 22.0416 114.786 21.9755 114.78 21.8958L114.746 21.429C114.653 21.5882 114.524 21.742 114.359 21.8904C114.192 22.0309 113.985 22.1544 113.736 22.2608C113.494 22.3586 113.202 22.4201 112.859 22.4451ZM113.183 21.2785C113.462 21.2581 113.709 21.1799 113.924 21.0439C114.147 20.9073 114.313 20.7107 114.422 20.454C114.539 20.1888 114.584 19.8647 114.556 19.4817L114.537 19.2304L113.355 19.5093C112.889 19.6154 112.546 19.7568 112.327 19.9333C112.107 20.1097 112.006 20.3137 112.022 20.545C112.035 20.7206 112.098 20.8684 112.211 20.9885C112.332 21.1 112.478 21.1815 112.65 21.2331C112.822 21.2768 112.999 21.2919 113.183 21.2785ZM118.168 21.9371C118.088 21.9429 118.018 21.92 117.958 21.8682C117.898 21.8164 117.865 21.7506 117.859 21.6709L117.447 16.0219C117.441 15.9421 117.464 15.8723 117.516 15.8123C117.568 15.7524 117.633 15.7195 117.713 15.7137L118.695 15.642C118.774 15.6362 118.844 15.6592 118.904 15.7109C118.964 15.7627 118.997 15.8285 119.003 15.9083L119.039 16.399C119.227 16.1285 119.475 15.8978 119.782 15.707C120.096 15.5075 120.493 15.3903 120.972 15.3554C121.458 15.3198 121.889 15.4006 122.265 15.5978C122.64 15.787 122.937 16.0741 123.158 16.4591C123.387 16.8434 123.521 17.3149 123.562 17.8734L123.808 21.2364C123.813 21.3162 123.79 21.3861 123.739 21.446C123.687 21.5059 123.621 21.5388 123.541 21.5446L122.488 21.6216C122.408 21.6274 122.339 21.6044 122.279 21.5526C122.219 21.5009 122.186 21.4351 122.18 21.3553L121.94 18.0641C121.906 17.6013 121.764 17.2467 121.513 17.0003C121.27 16.7533 120.934 16.6456 120.503 16.6771C120.088 16.7074 119.766 16.8632 119.538 17.1445C119.31 17.4259 119.213 17.798 119.247 18.2607L119.487 21.552C119.493 21.6318 119.47 21.7016 119.418 21.7616C119.366 21.8215 119.301 21.8544 119.221 21.8602L118.168 21.9371ZM128.05 21.3356C127.476 21.3776 126.961 21.3069 126.507 21.1235C126.06 20.9396 125.698 20.6532 125.421 20.2643C125.152 19.8669 124.984 19.3778 124.917 18.7971C124.9 18.678 124.885 18.5227 124.871 18.3312C124.857 18.1318 124.849 17.9679 124.847 17.8397C124.829 17.2555 124.924 16.7512 125.134 16.3268C125.351 15.8938 125.667 15.5539 126.082 15.307C126.505 15.0595 127.004 14.9148 127.578 14.8729C128.089 14.8356 128.529 14.8756 128.899 14.993C129.268 15.1104 129.577 15.2684 129.824 15.4669C130.071 15.6654 130.259 15.8803 130.388 16.1115C130.525 16.3341 130.604 16.5409 130.626 16.7318C130.64 16.819 130.618 16.8928 130.558 16.9534C130.505 17.0053 130.439 17.0342 130.36 17.04L129.306 17.1169C129.227 17.1228 129.161 17.1075 129.111 17.0711C129.068 17.0341 129.024 16.9772 128.978 16.9003C128.835 16.5899 128.659 16.3781 128.45 16.2651C128.249 16.1434 127.996 16.0937 127.693 16.1158C127.294 16.1449 126.984 16.2959 126.764 16.5687C126.55 16.8329 126.456 17.2369 126.479 17.7806C126.485 18.085 126.506 18.3643 126.54 18.6184C126.597 19.1678 126.749 19.5577 126.999 19.7881C127.256 20.018 127.584 20.1183 127.983 20.0892C128.295 20.0665 128.541 19.9843 128.723 19.8427C128.905 19.693 129.044 19.4543 129.14 19.1264C129.174 19.0437 129.21 18.9809 129.247 18.9381C129.292 18.8947 129.354 18.8701 129.434 18.8643L130.487 18.7874C130.567 18.7815 130.637 18.8045 130.697 18.8563C130.764 18.8995 130.797 18.9653 130.795 19.0536C130.798 19.1978 130.77 19.3643 130.712 19.5531C130.661 19.7333 130.566 19.9246 130.429 20.1272C130.298 20.3212 130.127 20.5061 129.916 20.682C129.703 20.8499 129.441 20.9934 129.129 21.1125C128.825 21.231 128.465 21.3053 128.05 21.3356ZM134.876 20.8372C133.99 20.9018 133.269 20.6978 132.713 20.225C132.157 19.7523 131.825 19.0466 131.717 18.108C131.703 18.0288 131.691 17.9294 131.683 17.8097C131.673 17.682 131.67 17.582 131.673 17.5096C131.661 16.9089 131.759 16.3804 131.966 15.924C132.181 15.4671 132.496 15.1073 132.91 14.8444C133.323 14.5736 133.821 14.4169 134.404 14.3744C135.05 14.3272 135.602 14.4232 136.061 14.6624C136.519 14.8937 136.877 15.2405 137.136 15.7029C137.393 16.1573 137.545 16.6957 137.591 17.3181L137.609 17.5694C137.615 17.6492 137.592 17.719 137.54 17.779C137.488 17.8389 137.418 17.8721 137.331 17.8785L133.357 18.1687C133.357 18.1687 133.358 18.1806 133.36 18.2046C133.362 18.2285 133.363 18.2485 133.364 18.2644C133.393 18.5431 133.463 18.7986 133.577 19.031C133.697 19.2548 133.859 19.4315 134.061 19.5611C134.271 19.6902 134.511 19.7448 134.782 19.725C135.006 19.7087 135.191 19.6631 135.338 19.5882C135.484 19.5053 135.602 19.4165 135.691 19.3217C135.781 19.2269 135.843 19.1502 135.879 19.0914C135.944 18.9904 135.996 18.9305 136.035 18.9116C136.081 18.8842 136.148 18.8673 136.235 18.8609L137.265 18.7857C137.344 18.7799 137.41 18.7991 137.461 18.8435C137.521 18.8873 137.549 18.9454 137.546 19.0178C137.548 19.146 137.491 19.3066 137.377 19.4994C137.271 19.6917 137.108 19.884 136.89 20.0764C136.671 20.2689 136.391 20.4377 136.048 20.5831C135.713 20.7198 135.322 20.8045 134.876 20.8372ZM133.284 17.1633L135.929 16.9702L135.926 16.9343C135.903 16.6231 135.832 16.3556 135.711 16.1318C135.591 15.908 135.426 15.7356 135.216 15.6145C135.007 15.4934 134.762 15.4431 134.483 15.4635C134.204 15.4839 133.97 15.5692 133.78 15.7194C133.59 15.8696 133.452 16.0642 133.365 16.3031C133.287 16.5415 133.259 16.8163 133.281 17.1274L133.284 17.1633Z" fill="#151515"/>
</svg>
