<svg width="428" height="923" viewBox="0 0 428 923" fill="none" xmlns="http://www.w3.org/2000/svg">
<g clip-path="url(#clip0_29_62)">
<rect width="428" height="922" transform="translate(0 0.68457)" fill="white"/>
<rect x="290.359" y="37.6846" width="119" height="29" rx="14.5" transform="rotate(16.7529 290.359 37.6846)" fill="#9747FF"/>
<rect x="290.694" y="38.3075" width="118" height="28" rx="14" transform="rotate(16.7529 290.694 38.3075)" stroke="black" stroke-opacity="0.05"/>
<path d="M297.545 59.6897C297.469 59.6667 297.412 59.6202 297.374 59.5505C297.337 59.4807 297.329 59.4075 297.352 59.3309L299.604 51.8505C299.63 51.7662 299.677 51.7054 299.747 51.6679C299.817 51.6304 299.89 51.6232 299.966 51.6462L300.978 51.9506C301.062 51.976 301.123 52.0236 301.16 52.0933C301.198 52.1631 301.204 52.2401 301.178 52.3244L300.369 55.0132L303.8 53.0257C303.842 52.9966 303.904 52.9694 303.987 52.9442C304.08 52.9137 304.187 52.9168 304.31 52.9537L305.448 53.2962C305.509 53.3146 305.556 53.3537 305.588 53.4135C305.627 53.4756 305.637 53.5412 305.616 53.6101C305.6 53.6637 305.571 53.7051 305.529 53.7342L301.324 56.2531L303.558 61.0735C303.582 61.131 303.586 61.1865 303.57 61.2401C303.549 61.3091 303.505 61.3585 303.438 61.3883C303.378 61.4204 303.317 61.4273 303.256 61.4088L302.073 61.0525C301.942 61.0133 301.847 60.9554 301.787 60.8787C301.736 60.7967 301.703 60.7407 301.687 60.7108L299.823 56.8287L298.927 59.8048C298.904 59.8814 298.857 59.9385 298.787 59.9759C298.718 60.0134 298.641 60.0195 298.556 59.9941L297.545 59.6897ZM304.668 61.8337C304.591 61.8106 304.534 61.7642 304.496 61.6945C304.459 61.6247 304.452 61.5515 304.475 61.4749L306.107 56.0513C306.13 55.9747 306.177 55.9177 306.247 55.8802C306.316 55.8427 306.39 55.8355 306.466 55.8585L307.408 56.1422C307.485 56.1652 307.542 56.2116 307.58 56.2814C307.617 56.3512 307.624 56.4244 307.601 56.501L307.459 56.9721C307.732 56.7869 308.046 56.66 308.401 56.5914C308.766 56.5174 309.178 56.5496 309.638 56.6879C310.105 56.8286 310.479 57.0581 310.759 57.3763C311.041 57.6869 311.217 58.0614 311.285 58.4998C311.362 58.9404 311.319 59.4289 311.158 59.9651L310.186 63.194C310.163 63.2706 310.116 63.3276 310.046 63.3651C309.977 63.4026 309.903 63.4098 309.827 63.3868L308.816 63.0824C308.739 63.0593 308.682 63.0129 308.645 62.9431C308.607 62.8734 308.6 62.8002 308.623 62.7236L309.574 59.5636C309.708 59.1193 309.702 58.7374 309.556 58.4177C309.417 58.1003 309.141 57.8794 308.728 57.7549C308.329 57.635 307.973 57.6657 307.66 57.847C307.346 58.0283 307.122 58.3411 306.989 58.7854L306.038 61.9453C306.014 62.0219 305.968 62.079 305.898 62.1165C305.829 62.1539 305.755 62.1611 305.679 62.1381L304.668 61.8337ZM314.171 64.8196C313.558 64.6351 313.073 64.3722 312.716 64.0309C312.367 63.6919 312.14 63.2936 312.036 62.8361C311.939 62.3808 311.953 61.8881 312.08 61.358C312.113 61.2178 312.16 61.0481 312.22 60.8489C312.28 60.6498 312.335 60.4824 312.384 60.3468C312.574 59.8274 312.837 59.4097 313.175 59.0936C313.522 58.772 313.935 58.5663 314.413 58.4763C314.899 58.3887 315.441 58.4348 316.038 58.6146C316.636 58.7945 317.109 59.0539 317.458 59.393C317.815 59.7343 318.046 60.1337 318.15 60.5913C318.265 61.0435 318.258 61.5385 318.129 62.0763C318.095 62.2165 318.049 62.3861 317.989 62.5853C317.929 62.7845 317.874 62.9519 317.825 63.0874C317.637 63.5991 317.374 64.0169 317.034 64.3407C316.702 64.6668 316.293 64.8737 315.807 64.9614C315.329 65.0513 314.783 65.0041 314.171 64.8196ZM314.513 63.682C314.919 63.8042 315.271 63.7724 315.569 63.5865C315.87 63.3929 316.107 63.0506 316.279 62.5596C316.322 62.447 316.371 62.2988 316.426 62.1149C316.481 61.9311 316.522 61.7805 316.549 61.6633C316.674 61.1661 316.664 60.7539 316.521 60.4265C316.377 60.0992 316.102 59.8744 315.696 59.7522C315.29 59.63 314.937 59.6657 314.636 59.8593C314.336 60.0528 314.1 60.3913 313.929 60.8747C313.887 60.9873 313.838 61.1355 313.783 61.3193C313.728 61.5032 313.687 61.6537 313.66 61.7709C313.533 62.2758 313.541 62.6919 313.685 63.0192C313.831 63.3389 314.107 63.5598 314.513 63.682ZM319.826 66.3966C319.718 66.3644 319.646 66.3133 319.609 66.2436C319.571 66.1738 319.546 66.091 319.533 65.9952L319.495 60.1689C319.499 60.1283 319.505 60.0927 319.514 60.062C319.535 59.9931 319.575 59.9426 319.635 59.9104C319.705 59.873 319.771 59.8634 319.832 59.8819L320.682 60.1378C320.774 60.1655 320.839 60.2142 320.876 60.284C320.916 60.3461 320.933 60.4013 320.927 60.4496L320.908 64.592L323.237 61.1827C323.269 61.1337 323.32 61.0905 323.389 61.053C323.461 61.0079 323.551 61.0014 323.658 61.0337L324.233 61.2067C324.34 61.2389 324.411 61.2938 324.446 61.3712C324.484 61.441 324.502 61.505 324.501 61.5632L324.562 65.6919L326.833 62.2275C326.854 62.1838 326.895 62.1459 326.955 62.1138C327.025 62.0763 327.105 62.0714 327.197 62.0991L328.048 62.355C328.117 62.3758 328.166 62.4199 328.196 62.4873C328.236 62.5495 328.245 62.615 328.224 62.6839C328.215 62.7146 328.197 62.7467 328.17 62.7804L324.922 67.6175C324.874 67.6948 324.811 67.7511 324.733 67.7863C324.664 67.8237 324.575 67.8263 324.468 67.794L323.721 67.5692C323.614 67.5369 323.538 67.4848 323.493 67.4127C323.447 67.3406 323.426 67.259 323.428 67.1678L323.326 63.177L321.038 66.4483C320.982 66.5234 320.916 66.5785 320.838 66.6137C320.768 66.6512 320.676 66.6526 320.561 66.618L319.826 66.3966ZM327.907 68.8294C327.831 68.8063 327.774 68.7599 327.736 68.6901C327.699 68.6204 327.691 68.5472 327.715 68.4706L330.004 60.8637C330.027 60.7871 330.074 60.7301 330.144 60.6926C330.213 60.6551 330.287 60.6479 330.363 60.671L331.317 60.9581C331.393 60.9811 331.451 61.0275 331.488 61.0973C331.525 61.1671 331.533 61.2402 331.51 61.3169L329.22 68.9237C329.197 69.0003 329.15 69.0573 329.081 69.0948C329.011 69.1323 328.938 69.1395 328.861 69.1164L327.907 68.8294ZM333.2 70.548C332.35 70.292 331.75 69.844 331.399 69.2038C331.049 68.5637 330.991 67.7858 331.225 66.8704C331.24 66.7915 331.265 66.6946 331.3 66.5797C331.336 66.4571 331.369 66.3625 331.397 66.2959C331.601 65.7305 331.881 65.2718 332.238 64.9197C332.602 64.5698 333.025 64.3461 333.505 64.2485C333.988 64.1432 334.509 64.1747 335.068 64.343C335.689 64.5298 336.17 64.8168 336.513 65.2041C336.859 65.5837 337.069 66.0357 337.145 66.5598C337.224 67.0764 337.173 67.6334 336.993 68.2309L336.921 68.4722C336.897 68.5488 336.851 68.6059 336.781 68.6434C336.712 68.6808 336.635 68.6869 336.55 68.6615L332.735 67.5132C332.735 67.5132 332.732 67.5247 332.725 67.5476C332.718 67.5706 332.712 67.5898 332.708 67.6051C332.635 67.8755 332.609 68.1395 332.632 68.3969C332.665 68.6491 332.752 68.8718 332.895 69.065C333.045 69.2605 333.25 69.3975 333.511 69.4759C333.725 69.5405 333.914 69.564 334.078 69.5465C334.245 69.5214 334.386 69.4806 334.504 69.424C334.621 69.3674 334.707 69.318 334.761 69.2759C334.858 69.2048 334.928 69.1673 334.971 69.1635C335.023 69.1543 335.092 69.1624 335.176 69.1878L336.164 69.4853C336.241 69.5083 336.295 69.5498 336.328 69.6096C336.367 69.6717 336.373 69.736 336.345 69.8027C336.3 69.9229 336.19 70.0527 336.014 70.192C335.846 70.3336 335.626 70.4552 335.353 70.5569C335.08 70.6586 334.758 70.7161 334.386 70.7296C334.025 70.7376 333.629 70.6771 333.2 70.548ZM333.026 66.5479L335.565 67.3124L335.576 67.2779C335.666 66.9791 335.694 66.7037 335.662 66.4516C335.629 66.1994 335.536 65.9794 335.384 65.7916C335.232 65.6037 335.022 65.4694 334.753 65.3887C334.485 65.308 334.236 65.3039 334.005 65.3765C333.774 65.4491 333.576 65.5814 333.409 65.7736C333.251 65.9681 333.126 66.2147 333.036 66.5135L333.026 66.5479ZM339.476 72.4371C339.078 72.3172 338.745 72.146 338.478 71.9235C338.22 71.6957 338.029 71.4292 337.904 71.1242C337.778 70.8191 337.712 70.4857 337.703 70.124C337.698 69.7547 337.747 69.3685 337.852 68.9656C337.886 68.8254 337.919 68.7016 337.951 68.5944C337.985 68.4795 338.027 68.3542 338.076 68.2187C338.207 67.8402 338.372 67.5013 338.571 67.2019C338.777 66.9048 339.017 66.6636 339.29 66.4785C339.573 66.2879 339.884 66.1687 340.224 66.1207C340.572 66.0751 340.945 66.1122 341.344 66.2321C341.757 66.3566 342.084 66.5343 342.324 66.7652C342.573 66.9907 342.76 67.2434 342.885 67.5232L343.653 64.9723C343.676 64.8956 343.719 64.8375 343.781 64.7977C343.85 64.7602 343.927 64.7541 344.012 64.7795L344.988 65.0735C345.065 65.0966 345.122 65.143 345.16 65.2127C345.197 65.2825 345.204 65.3557 345.181 65.4323L342.891 73.0391C342.868 73.1157 342.822 73.1728 342.752 73.2103C342.682 73.2477 342.609 73.2549 342.533 73.2319L341.625 72.9586C341.541 72.9333 341.48 72.8857 341.442 72.8159C341.412 72.7485 341.409 72.6764 341.432 72.5998L341.56 72.1747C341.297 72.3545 340.993 72.4761 340.648 72.5393C340.311 72.6049 339.92 72.5708 339.476 72.4371ZM340.271 71.3356C340.593 71.4324 340.871 71.4369 341.107 71.349C341.342 71.2611 341.539 71.1199 341.698 70.9254C341.859 70.7233 341.979 70.5046 342.058 70.2695C342.108 70.1339 342.155 69.9895 342.201 69.8363C342.25 69.6754 342.291 69.5249 342.325 69.3847C342.386 69.1526 342.398 68.9181 342.361 68.6813C342.326 68.4368 342.233 68.2168 342.083 68.0213C341.933 67.8257 341.705 67.6818 341.399 67.5896C341.077 67.4928 340.799 67.4883 340.563 67.5762C340.338 67.6587 340.148 67.8022 339.995 68.0067C339.842 68.2111 339.716 68.4489 339.617 68.7201C339.541 68.9476 339.471 69.1774 339.41 69.4095C339.342 69.6899 339.316 69.9577 339.331 70.2129C339.346 70.4681 339.424 70.6961 339.564 70.897C339.714 71.0925 339.949 71.2387 340.271 71.3356ZM346.279 77.1167C345.72 76.9484 345.282 76.7372 344.966 76.4833C344.65 76.2294 344.419 75.9679 344.275 75.6988C344.13 75.4297 344.043 75.1779 344.013 74.9434C343.989 74.7188 343.99 74.548 344.017 74.4308C344.033 74.3519 344.077 74.2898 344.149 74.2447C344.226 74.2095 344.303 74.2034 344.38 74.2265L345.379 74.5274C345.456 74.5505 345.513 74.5843 345.549 74.6287C345.584 74.6809 345.602 74.7575 345.605 74.8587C345.621 74.9721 345.65 75.0978 345.692 75.2358C345.734 75.3737 345.821 75.5041 345.951 75.6268C346.086 75.7595 346.292 75.8673 346.568 75.9503C346.859 76.038 347.117 76.0696 347.341 76.0453C347.566 76.021 347.758 75.9243 347.917 75.7551C348.084 75.5882 348.221 75.3285 348.327 74.9762L348.562 74.1948C348.312 74.3616 348.02 74.4701 347.687 74.5204C347.362 74.573 346.989 74.5358 346.568 74.409C346.154 74.2845 345.818 74.1122 345.558 73.892C345.301 73.6642 345.108 73.4015 344.981 73.1041C344.855 72.799 344.789 72.4656 344.78 72.104C344.78 71.7446 344.832 71.3634 344.937 70.9605C344.991 70.7513 345.054 70.5445 345.124 70.34C345.254 69.9616 345.419 69.6226 345.618 69.3232C345.816 69.0238 346.052 68.7815 346.325 68.5963C346.608 68.4058 346.92 68.2865 347.26 68.2386C347.6 68.1906 347.977 68.2289 348.391 68.3534C348.827 68.4849 349.17 68.6798 349.418 68.9383C349.668 69.1891 349.852 69.4659 349.97 69.7687L350.108 69.309C350.134 69.2248 350.181 69.1639 350.251 69.1264C350.321 69.0889 350.394 69.0817 350.47 69.1048L351.401 69.385C351.478 69.408 351.535 69.4544 351.572 69.5242C351.61 69.594 351.616 69.671 351.591 69.7552L349.935 75.2972C349.769 75.8488 349.522 76.2926 349.196 76.6287C348.869 76.9647 348.463 77.1766 347.977 77.2643C347.496 77.3619 346.93 77.3127 346.279 77.1167ZM347.36 73.319C347.674 73.4135 347.947 73.4207 348.18 73.3404C348.413 73.2602 348.609 73.1228 348.768 72.9284C348.927 72.7339 349.049 72.524 349.133 72.2988C349.171 72.2016 349.213 72.0763 349.259 71.9231C349.305 71.7699 349.338 71.6462 349.358 71.5519C349.414 71.3099 349.428 71.0677 349.401 70.8256C349.376 70.5757 349.289 70.3531 349.139 70.1575C348.991 69.9543 348.76 69.8055 348.446 69.7109C348.132 69.6164 347.857 69.613 347.622 69.7009C347.389 69.7812 347.195 69.9235 347.042 70.128C346.896 70.3347 346.774 70.5737 346.676 70.8448C346.605 71.0241 346.549 71.2118 346.506 71.4079C346.441 71.6806 346.411 71.9473 346.416 72.2078C346.431 72.463 346.514 72.6883 346.664 72.8839C346.814 73.0794 347.046 73.2244 347.36 73.319ZM353.96 76.7971C353.11 76.5411 352.509 76.093 352.159 75.4529C351.809 74.8127 351.75 74.0349 351.984 73.1194C351.999 73.0405 352.024 72.9436 352.059 72.8287C352.096 72.7062 352.129 72.6116 352.157 72.5449C352.361 71.9796 352.641 71.5209 352.997 71.1687C353.362 70.8189 353.784 70.5952 354.265 70.4975C354.747 70.3922 355.268 70.4238 355.828 70.5921C356.448 70.7789 356.93 71.0659 357.273 71.4532C357.618 71.8328 357.829 72.2847 357.905 72.8089C357.983 73.3254 357.933 73.8825 357.753 74.48L357.68 74.7213C357.657 74.7979 357.611 74.8549 357.541 74.8924C357.471 74.9299 357.394 74.936 357.31 74.9106L353.495 73.7622C353.495 73.7622 353.491 73.7737 353.485 73.7967C353.478 73.8197 353.472 73.8388 353.467 73.8542C353.394 74.1246 353.369 74.3885 353.392 74.646C353.424 74.8981 353.512 75.1208 353.654 75.3141C353.804 75.5096 354.01 75.6466 354.27 75.725C354.485 75.7895 354.674 75.8131 354.838 75.7956C355.004 75.7705 355.146 75.7296 355.263 75.673C355.38 75.6164 355.466 75.5671 355.521 75.525C355.617 75.4538 355.687 75.4163 355.73 75.4125C355.783 75.4034 355.852 75.4115 355.936 75.4369L356.924 75.7343C357.001 75.7574 357.055 75.7988 357.087 75.8586C357.127 75.9207 357.133 75.9851 357.104 76.0517C357.06 76.172 356.95 76.3018 356.774 76.4411C356.606 76.5827 356.386 76.7043 356.113 76.806C355.84 76.9076 355.518 76.9652 355.146 76.9786C354.784 76.9867 354.389 76.9262 353.96 76.7971ZM353.785 72.797L356.325 73.5614L356.335 73.527C356.425 73.2282 356.454 72.9528 356.421 72.7006C356.388 72.4485 356.296 72.2285 356.144 72.0406C355.991 71.8527 355.781 71.7185 355.513 71.6377C355.245 71.557 354.995 71.553 354.765 71.6255C354.534 71.6981 354.335 71.8305 354.169 72.0227C354.01 72.2172 353.886 72.4638 353.796 72.7625L353.785 72.797ZM361.092 78.8186C361.015 78.7956 360.958 78.7491 360.921 78.6794C360.883 78.6096 360.876 78.5364 360.899 78.4598L363.151 70.9794C363.176 70.8951 363.224 70.8343 363.294 70.7968C363.363 70.7593 363.436 70.7521 363.513 70.7751L366.845 71.7782C367.466 71.965 367.943 72.213 368.276 72.5221C368.611 72.8235 368.821 73.1666 368.906 73.5514C368.998 73.9384 368.979 74.3503 368.847 74.7869C368.759 75.078 368.629 75.3185 368.454 75.5084C368.29 75.6929 368.111 75.831 367.916 75.9228C367.729 76.0169 367.551 76.0803 367.383 76.1131C367.64 76.3409 367.835 76.6503 367.968 77.0412C368.101 77.4321 368.101 77.8497 367.967 78.294C367.828 78.7537 367.602 79.1324 367.286 79.4301C366.971 79.7279 366.58 79.9191 366.111 80.0037C365.645 80.0807 365.114 80.0292 364.516 79.8494L361.092 78.8186ZM362.78 77.9984L364.699 78.576C365.113 78.7005 365.46 78.684 365.741 78.5264C366.025 78.3612 366.215 78.1177 366.312 77.7959C366.414 77.4589 366.387 77.1458 366.231 76.8568C366.084 76.5701 365.807 76.3656 365.401 76.2434L363.482 75.6658L362.78 77.9984ZM363.842 74.4707L365.646 75.0138C366.052 75.136 366.383 75.1313 366.64 74.9998C366.907 74.8629 367.088 74.6374 367.182 74.3233C367.279 74.0016 367.25 73.7215 367.097 73.483C366.953 73.2392 366.678 73.0562 366.272 72.934L364.468 72.3909L363.842 74.4707ZM370.256 81.7026C369.858 81.5827 369.521 81.3977 369.245 81.1476C368.972 80.8899 368.779 80.602 368.665 80.2839C368.562 79.9604 368.56 79.634 368.66 79.3046C368.821 78.7684 369.163 78.4078 369.687 78.2228C370.22 78.0325 370.86 77.991 371.604 78.0982L373.248 78.3422L373.32 78.1009C373.417 77.7792 373.412 77.506 373.304 77.2814C373.196 77.0568 372.947 76.8857 372.556 76.7681C372.28 76.6851 372.037 76.6745 371.826 76.7364C371.625 76.7929 371.455 76.9004 371.316 77.0589C371.224 77.14 371.121 77.1633 371.006 77.1287L370.099 76.8554C370.014 76.8301 369.956 76.7875 369.924 76.7277C369.899 76.6702 369.899 76.6031 369.922 76.5265C369.966 76.4063 370.061 76.2719 370.206 76.1234C370.351 75.9749 370.547 75.8501 370.795 75.7492C371.045 75.6406 371.344 75.5762 371.693 75.5558C372.041 75.5355 372.438 75.5921 372.882 75.7259C373.365 75.8712 373.752 76.0547 374.045 76.2764C374.347 76.4928 374.568 76.7305 374.707 76.9896C374.847 77.2488 374.922 77.5262 374.933 77.822C374.944 78.1178 374.905 78.4151 374.815 78.7138L373.729 82.3219C373.706 82.3985 373.659 82.4555 373.59 82.493C373.52 82.5305 373.447 82.5377 373.37 82.5147L372.439 82.2345C372.355 82.2091 372.294 82.1616 372.257 82.0918C372.227 82.0243 372.224 81.9523 372.247 81.8757L372.382 81.4276C372.238 81.5431 372.063 81.6407 371.855 81.7202C371.649 81.792 371.411 81.8331 371.141 81.8436C370.88 81.8487 370.585 81.8017 370.256 81.7026ZM370.975 80.7286C371.243 80.8093 371.502 80.8244 371.751 80.7741C372.008 80.7261 372.233 80.6018 372.427 80.4012C372.631 80.1953 372.789 79.9084 372.899 79.5407L372.972 79.2994L371.768 79.1374C371.295 79.0703 370.924 79.0799 370.656 79.1662C370.388 79.2526 370.22 79.4068 370.153 79.629C370.103 79.7975 370.109 79.958 370.171 80.1106C370.244 80.2578 370.352 80.3862 370.494 80.4959C370.639 80.598 370.799 80.6755 370.975 80.7286ZM377.349 83.8377C376.89 83.6994 376.511 83.527 376.214 83.3206C375.925 83.1165 375.701 82.9029 375.542 82.6798C375.384 82.4566 375.279 82.2496 375.228 82.0588C375.177 81.8679 375.163 81.7177 375.188 81.6082C375.206 81.5216 375.248 81.4634 375.316 81.4336C375.393 81.3984 375.466 81.3912 375.535 81.412L376.443 81.6852C376.474 81.6944 376.499 81.7063 376.52 81.7209C376.541 81.7355 376.565 81.7677 376.591 81.8175C376.666 81.9318 376.742 82.051 376.822 82.1752C376.909 82.3017 377.019 82.4225 377.152 82.5376C377.286 82.645 377.469 82.7333 377.698 82.8025C377.997 82.8924 378.263 82.9099 378.497 82.8549C378.741 82.7946 378.896 82.6534 378.963 82.4312C379.011 82.2704 379.005 82.1263 378.943 81.999C378.888 81.8741 378.754 81.7376 378.54 81.5895C378.328 81.4337 378.017 81.2442 377.608 81.0208C377.209 80.7921 376.891 80.5585 376.654 80.3199C376.416 80.0814 376.263 79.8265 376.195 79.5552C376.126 79.2838 376.138 78.995 376.23 78.6886C376.32 78.3898 376.493 78.1329 376.75 77.9178C377.017 77.6974 377.353 77.5521 377.759 77.482C378.172 77.4142 378.642 77.4598 379.171 77.6189C379.585 77.7435 379.929 77.9055 380.203 78.1049C380.479 78.2968 380.694 78.4993 380.847 78.7124C381.008 78.9279 381.117 79.1322 381.176 79.3254C381.237 79.5108 381.254 79.6622 381.228 79.7794C381.21 79.866 381.166 79.928 381.096 79.9655C381.029 79.9953 380.961 79.9998 380.892 79.9791L380.041 79.7231C380.003 79.7116 379.971 79.6936 379.945 79.669C379.919 79.6445 379.894 79.6161 379.87 79.5839C379.809 79.4819 379.741 79.3738 379.667 79.2596C379.593 79.1453 379.492 79.0357 379.365 78.9306C379.248 78.8201 379.075 78.7303 378.845 78.6611C378.554 78.5735 378.312 78.5717 378.119 78.6558C377.929 78.7323 377.806 78.8663 377.748 79.0578C377.709 79.188 377.709 79.3133 377.748 79.4336C377.796 79.5486 377.919 79.6817 378.116 79.8328C378.313 79.984 378.623 80.1735 379.048 80.4015C379.533 80.6479 379.898 80.908 380.141 81.1818C380.395 81.4502 380.547 81.7216 380.598 81.996C380.659 82.265 380.647 82.5412 380.561 82.8247C380.458 83.1694 380.261 83.4485 379.971 83.662C379.689 83.8779 379.324 84.0062 378.878 84.0472C378.441 84.0828 377.931 84.013 377.349 83.8377ZM383.775 85.7721C382.925 85.5161 382.324 85.068 381.974 84.4279C381.624 83.7877 381.565 83.0099 381.799 82.0945C381.815 82.0155 381.84 81.9186 381.874 81.8037C381.911 81.6812 381.944 81.5866 381.972 81.5199C382.176 80.9546 382.456 80.4959 382.813 80.1437C383.177 79.7939 383.599 79.5702 384.08 79.4725C384.563 79.3672 385.084 79.3988 385.643 79.5671C386.263 79.7539 386.745 80.0409 387.088 80.4282C387.433 80.8078 387.644 81.2597 387.72 81.7839C387.798 82.3005 387.748 82.8575 387.568 83.455L387.495 83.6963C387.472 83.7729 387.426 83.8299 387.356 83.8674C387.286 83.9049 387.209 83.911 387.125 83.8856L383.31 82.7372C383.31 82.7372 383.307 82.7487 383.3 82.7717C383.293 82.7947 383.287 82.8138 383.282 82.8292C383.209 83.0996 383.184 83.3635 383.207 83.621C383.24 83.8732 383.327 84.0958 383.47 84.2891C383.62 84.4846 383.825 84.6216 384.085 84.7C384.3 84.7645 384.489 84.7881 384.653 84.7706C384.819 84.7455 384.961 84.7046 385.078 84.648C385.196 84.5914 385.282 84.5421 385.336 84.5C385.433 84.4288 385.502 84.3913 385.545 84.3876C385.598 84.3784 385.667 84.3865 385.751 84.4119L386.739 84.7094C386.816 84.7324 386.87 84.7738 386.902 84.8336C386.942 84.8957 386.948 84.9601 386.919 85.0268C386.875 85.147 386.765 85.2768 386.589 85.4161C386.421 85.5577 386.201 85.6793 385.928 85.781C385.655 85.8826 385.333 85.9402 384.961 85.9536C384.599 85.9617 384.204 85.9012 383.775 85.7721ZM383.601 81.772L386.14 82.5364L386.15 82.502C386.24 82.2032 386.269 81.9278 386.236 81.6756C386.204 81.4235 386.111 81.2035 385.959 81.0156C385.806 80.8278 385.596 80.6935 385.328 80.6127C385.06 80.532 384.811 80.528 384.58 80.6006C384.349 80.6731 384.151 80.8055 383.984 80.9977C383.825 81.1922 383.701 81.4388 383.611 81.7375L383.601 81.772Z" fill="white"/>
<rect x="31" y="62.2461" width="133" height="29" rx="14.5" transform="rotate(-7.15312 31 62.2461)" fill="#059E93"/>
<path d="M49.431 79.203C48.6928 79.2956 48.0498 79.2473 47.502 79.058C46.9611 78.8599 46.5258 78.5396 46.1962 78.0972C45.8655 77.6468 45.642 77.0863 45.5255 76.4156C45.4768 76.0911 45.429 75.7424 45.3821 75.3693C45.3353 74.9962 45.2945 74.6385 45.2596 74.2962C45.2076 73.6255 45.2862 73.031 45.4953 72.513C45.7124 71.9939 46.059 71.5755 46.5351 71.2577C47.0182 70.931 47.6249 70.7219 48.3552 70.6302C48.8949 70.5625 49.3881 70.5731 49.8347 70.6622C50.2812 70.7513 50.6713 70.9039 51.0048 71.1201C51.3373 71.3283 51.6078 71.5886 51.8164 71.9011C52.0249 72.2136 52.1575 72.5638 52.2143 72.9517C52.2312 73.0222 52.2148 73.0847 52.1653 73.1393C52.1236 73.1929 52.0671 73.2242 51.9956 73.2332L50.8645 73.3751C50.7772 73.3861 50.7032 73.3752 50.6427 73.3425C50.5812 73.3018 50.532 73.2314 50.4952 73.1312C50.3025 72.6232 50.0394 72.2934 49.7059 72.1418C49.3724 71.9901 48.9755 71.9432 48.5151 72.001C47.9833 72.0677 47.5775 72.2718 47.2979 72.6133C47.0172 72.9468 46.9078 73.4564 46.9697 74.1421C47.0276 74.7959 47.1112 75.4627 47.2207 76.1424C47.3302 76.822 47.5626 77.2928 47.918 77.5545C48.2724 77.8084 48.7155 77.9019 49.2473 77.8352C49.7077 77.7774 50.0807 77.6339 50.3664 77.4045C50.651 77.1672 50.8245 76.7826 50.8867 76.2507C50.8966 76.1366 50.9268 76.0562 50.9774 76.0095C51.028 75.9629 51.0969 75.9341 51.1843 75.9231L52.3154 75.7812C52.3868 75.7722 52.4494 75.7885 52.503 75.8302C52.5645 75.8708 52.5958 75.9274 52.5968 75.9998C52.6377 76.3898 52.5957 76.7619 52.4708 77.1162C52.346 77.4705 52.1487 77.7936 51.8789 78.0854C51.6082 78.3694 51.2674 78.6097 50.8567 78.8063C50.446 79.003 49.9708 79.1352 49.431 79.203ZM56.5106 78.3145C56.0264 78.3753 55.5923 78.3209 55.2082 78.1514C54.831 77.973 54.5223 77.6973 54.282 77.3243C54.0407 76.9434 53.8856 76.4791 53.8169 75.9314L53.397 72.5856C53.3871 72.5062 53.4064 72.4353 53.455 72.3727C53.5036 72.3102 53.5675 72.2739 53.6469 72.264L54.6947 72.1325C54.782 72.1215 54.853 72.1408 54.9076 72.1904C54.9701 72.239 55.0064 72.303 55.0163 72.3824L55.4272 75.6567C55.5508 76.641 56.0451 77.0788 56.9103 76.9703C57.3231 76.9184 57.6321 76.7466 57.8374 76.4548C58.0506 76.162 58.1283 75.7854 58.0705 75.325L57.6596 72.0507C57.6496 71.9713 57.6689 71.9003 57.7175 71.8378C57.7661 71.7753 57.8301 71.739 57.9095 71.729L58.9573 71.5975C59.0366 71.5876 59.1076 71.6069 59.1701 71.6555C59.2327 71.7041 59.2689 71.7681 59.2789 71.8474L59.9842 77.4674C59.9941 77.5467 59.9748 77.6177 59.9262 77.6802C59.8776 77.7428 59.8137 77.779 59.7343 77.789L58.7698 77.91C58.6825 77.921 58.6076 77.9022 58.5451 77.8536C58.4905 77.804 58.4582 77.7395 58.4482 77.6601L58.387 77.172C58.2075 77.4767 57.969 77.7283 57.6714 77.9269C57.3738 78.1255 56.9869 78.2547 56.5106 78.3145ZM63.9534 77.3804C63.4771 77.4402 63.0613 77.4359 62.7061 77.3677C62.3587 77.2984 62.0674 77.1938 61.8322 77.054C61.597 76.9142 61.4173 76.7675 61.2932 76.6137C61.1691 76.46 61.0961 76.328 61.0742 76.2179C61.0553 76.1316 61.0706 76.0611 61.1202 76.0065C61.1768 75.943 61.2407 75.9067 61.3122 75.8978L62.2528 75.7797C62.2846 75.7757 62.3128 75.7762 62.3376 75.7812C62.3625 75.7861 62.3972 75.806 62.4419 75.8407C62.556 75.915 62.6746 75.9929 62.7977 76.0742C62.9287 76.1545 63.0781 76.2204 63.2458 76.2719C63.4125 76.3155 63.615 76.3223 63.8531 76.2925C64.1627 76.2536 64.4132 76.1617 64.6046 76.0167C64.803 75.8628 64.8877 75.6708 64.8589 75.4406C64.8379 75.2739 64.7734 75.1449 64.6652 75.0537C64.5649 74.9615 64.3868 74.8911 64.1307 74.8426C63.8737 74.7862 63.513 74.7387 63.0486 74.7002C62.5911 74.6528 62.2056 74.5682 61.892 74.4463C61.5783 74.3244 61.3351 74.1533 61.1624 73.9331C60.9896 73.7129 60.8833 73.4441 60.8435 73.1266C60.8046 72.817 60.859 72.5119 61.0067 72.2111C61.1614 71.9015 61.4098 71.6324 61.752 71.404C62.1022 71.1746 62.5511 71.0256 63.0988 70.9568C63.5275 70.9031 63.9075 70.9118 64.239 70.9831C64.5694 71.0464 64.8478 71.1445 65.0741 71.2774C65.3084 71.4092 65.4915 71.5515 65.6236 71.7043C65.7546 71.8491 65.8316 71.9805 65.8545 72.0986C65.8734 72.1849 65.8585 72.2593 65.8099 72.3219C65.7603 72.3765 65.6998 72.4083 65.6284 72.4172L64.7473 72.5278C64.7076 72.5328 64.6709 72.5293 64.6371 72.5174C64.6034 72.5056 64.5692 72.4897 64.5344 72.4699C64.4371 72.4014 64.3314 72.3301 64.2173 72.2557C64.1031 72.1813 63.9667 72.1219 63.8079 72.0773C63.656 72.0238 63.461 72.012 63.2229 72.0418C62.9213 72.0797 62.6995 72.1761 62.5577 72.3309C62.4149 72.4778 62.356 72.6505 62.3809 72.849C62.3978 72.9839 62.4485 73.0985 62.5328 73.1927C62.6242 73.278 62.7904 73.3499 63.0316 73.4083C63.2727 73.4667 63.6334 73.5142 64.1137 73.5507C64.6575 73.5792 65.0961 73.6693 65.4296 73.8209C65.77 73.9636 66.0192 74.1501 66.1771 74.3802C66.3419 74.6014 66.4427 74.8588 66.4796 75.1525C66.5244 75.5097 66.4576 75.8446 66.2792 76.1573C66.1086 76.469 65.8275 76.734 65.4356 76.9525C65.0507 77.1621 64.5566 77.3047 63.9534 77.3804ZM70.7046 76.4122C70.2284 76.472 69.817 76.439 69.4707 76.3131C69.1243 76.1873 68.8513 75.9716 68.6517 75.666C68.4511 75.3526 68.32 74.9498 68.2582 74.4576L67.919 71.7548L66.9784 71.8729C66.899 71.8829 66.828 71.8635 66.7655 71.8149C66.703 71.7664 66.6667 71.7024 66.6568 71.623L66.5701 70.9324C66.5601 70.853 66.5794 70.7821 66.628 70.7195C66.6766 70.657 66.7406 70.6208 66.82 70.6108L67.7606 70.4927L67.5126 68.5162C67.5026 68.4369 67.5179 68.3664 67.5586 68.3049C67.6072 68.2423 67.6751 68.2056 67.7625 68.1946L68.7269 68.0736C68.8063 68.0636 68.8772 68.0829 68.9398 68.1315C69.0023 68.1801 69.0386 68.2441 69.0485 68.3235L69.2966 70.3L70.7849 70.1132C70.8643 70.1032 70.9352 70.1226 70.9978 70.1711C71.0603 70.2197 71.0965 70.2837 71.1065 70.3631L71.1932 71.0537C71.2031 71.1331 71.1838 71.204 71.1352 71.2666C71.0866 71.3291 71.0227 71.3653 70.9433 71.3753L69.455 71.5621L69.7792 74.1458C69.8201 74.4713 69.9075 74.7183 70.0415 74.8869C70.1835 75.0545 70.3974 75.1204 70.6831 75.0846L71.5047 74.9815C71.5841 74.9715 71.655 74.9908 71.7176 75.0394C71.7801 75.088 71.8164 75.152 71.8263 75.2314L71.919 75.9696C71.9289 76.0489 71.9096 76.1199 71.861 76.1824C71.8124 76.245 71.7484 76.2812 71.6691 76.2912L70.7046 76.4122ZM75.7645 75.8982C75.1295 75.9778 74.5798 75.934 74.1153 75.7665C73.6588 75.598 73.29 75.3258 73.009 74.9499C72.7359 74.573 72.5497 74.1166 72.4502 73.5808C72.4243 73.4389 72.3984 73.2648 72.3725 73.0584C72.3466 72.8521 72.3287 72.6769 72.3187 72.533C72.2817 71.9814 72.3534 71.4926 72.5338 71.0669C72.7211 70.6321 73.0151 70.2768 73.4159 70.0007C73.8246 69.7237 74.3385 69.5463 74.9576 69.4686C75.5768 69.3909 76.1146 69.4363 76.5711 69.6047C77.0356 69.7722 77.4083 70.0439 77.6893 70.4198C77.9773 70.7868 78.1715 71.2422 78.272 71.7859C78.2979 71.9278 78.3237 72.1019 78.3496 72.3083C78.3755 72.5147 78.3935 72.6898 78.4035 72.8337C78.4395 73.3775 78.3678 73.8662 78.1884 74.2999C78.0169 74.7326 77.7269 75.0875 77.3182 75.3645C76.9174 75.6406 76.3995 75.8185 75.7645 75.8982ZM75.6166 74.7194C76.0373 74.6666 76.3463 74.4948 76.5436 74.204C76.74 73.9052 76.8176 73.4963 76.7767 72.9774C76.7697 72.8573 76.7542 72.702 76.7303 72.5115C76.7064 72.321 76.683 72.1667 76.6602 72.0487C76.5726 71.5436 76.3968 71.1706 76.1327 70.9296C75.8686 70.6886 75.5263 70.5945 75.1056 70.6473C74.6849 70.7001 74.3763 70.8759 74.18 71.1747C73.9837 71.4735 73.9055 71.8784 73.9454 72.3894C73.9525 72.5094 73.9679 72.6647 73.9918 72.8552C74.0157 73.0457 74.0391 73.2 74.062 73.3181C74.1506 73.831 74.3269 74.208 74.5909 74.449C74.854 74.6821 75.1959 74.7722 75.6166 74.7194ZM80.3431 75.2026C80.2637 75.2126 80.1928 75.1933 80.1302 75.1447C80.0677 75.0961 80.0315 75.0321 80.0215 74.9527L79.3162 69.3328C79.3062 69.2534 79.3256 69.1825 79.3741 69.1199C79.4227 69.0574 79.4867 69.0211 79.5661 69.0112L80.4948 68.8946C80.5742 68.8847 80.6452 68.904 80.7077 68.9526C80.7702 69.0012 80.8065 69.0651 80.8164 69.1445L80.8672 69.5493C81.006 69.3062 81.2049 69.0917 81.4638 68.9061C81.7296 68.7114 82.0565 68.5858 82.4445 68.529C83.3474 68.3996 84.0228 68.6736 84.4706 69.3511C84.6133 69.0107 84.8434 68.7238 85.1608 68.4905C85.4852 68.2482 85.8577 68.1007 86.2784 68.0479C86.6912 67.9961 87.0762 68.0445 87.4335 68.1932C87.7987 68.3408 88.101 68.5972 88.3403 68.9622C88.5866 69.3183 88.7465 69.7901 88.8203 70.3775L89.2491 73.7947C89.2591 73.874 89.2398 73.945 89.1912 74.0075C89.1426 74.0701 89.0786 74.1063 88.9992 74.1163L88.0229 74.2388C87.9435 74.2488 87.8725 74.2295 87.81 74.1809C87.7475 74.1323 87.7112 74.0683 87.7013 73.9889L87.2844 70.667C87.2395 70.3098 87.1526 70.0345 87.0235 69.841C86.8934 69.6397 86.7356 69.5063 86.55 69.4409C86.3644 69.3755 86.1644 69.3562 85.9501 69.3831C85.7755 69.405 85.6063 69.4706 85.4427 69.5798C85.279 69.6891 85.155 69.8578 85.0708 70.0861C84.9856 70.3064 84.9654 70.5952 85.0102 70.9524L85.4271 74.2743C85.4371 74.3537 85.4177 74.4247 85.3691 74.4872C85.3206 74.5497 85.2566 74.586 85.1772 74.5959L84.2009 74.7185C84.1135 74.7294 84.0386 74.7106 83.9761 74.662C83.9215 74.6124 83.8892 74.548 83.8792 74.4686L83.4623 71.1466C83.4175 70.7894 83.3266 70.5146 83.1896 70.3222C83.0515 70.1218 82.8897 69.9889 82.7041 69.9235C82.5185 69.8581 82.3265 69.8379 82.1281 69.8628C81.9455 69.8857 81.7729 69.9557 81.6102 70.0729C81.4465 70.1821 81.3221 70.3469 81.2369 70.5672C81.1516 70.7876 81.1314 71.0763 81.1763 71.4335L81.5932 74.7555C81.6031 74.8348 81.5838 74.9058 81.5352 74.9683C81.4866 75.0309 81.4226 75.0671 81.3433 75.0771L80.3431 75.2026ZM93.4832 73.6745C92.6021 73.7851 91.8717 73.6187 91.292 73.1755C90.7123 72.7322 90.3439 72.0447 90.1866 71.1131C90.1687 71.0347 90.1523 70.9359 90.1374 70.8169C90.1214 70.6899 90.1129 70.5902 90.1119 70.5177C90.0689 69.9184 90.1391 69.3855 90.3225 68.9191C90.5138 68.4516 90.8093 68.0759 91.209 67.7919C91.6078 67.5 92.0969 67.3176 92.6763 67.2449C93.3193 67.1642 93.876 67.2314 94.3464 67.4465C94.8159 67.6537 95.1916 67.9815 95.4736 68.4298C95.7547 68.8703 95.934 69.4 96.0117 70.0192L96.0431 70.2692C96.0531 70.3486 96.0338 70.4196 95.9852 70.4821C95.9366 70.5446 95.8686 70.5814 95.7813 70.5923L91.8283 71.0884C91.8283 71.0884 91.8298 71.1003 91.8328 71.1242C91.8358 71.148 91.8383 71.1678 91.8403 71.1837C91.8831 71.4605 91.9671 71.712 92.0922 71.9382C92.2243 72.1554 92.3945 72.3235 92.603 72.4425C92.8193 72.5605 93.0625 72.6025 93.3324 72.5687C93.5546 72.5408 93.7372 72.4856 93.88 72.4032C94.0219 72.3128 94.1349 72.218 94.2192 72.1187C94.3035 72.0195 94.362 71.9396 94.3947 71.879C94.4542 71.7748 94.5028 71.7123 94.5405 71.6914C94.5852 71.6616 94.6511 71.6412 94.7384 71.6303L95.7624 71.5018C95.8418 71.4918 95.9083 71.5077 95.9619 71.5493C96.0234 71.59 96.0547 71.6465 96.0557 71.7189C96.0637 71.8469 96.0157 72.0102 95.9116 72.2087C95.8155 72.4062 95.6632 72.6067 95.455 72.8102C95.2467 73.0138 94.9754 73.197 94.6411 73.3599C94.3137 73.5138 93.9277 73.6187 93.4832 73.6745ZM91.7028 70.0883L94.3342 69.758L94.3297 69.7223C94.2908 69.4128 94.2054 69.1493 94.0733 68.9321C93.9412 68.7149 93.7675 68.5512 93.5521 68.4412C93.3367 68.3311 93.0901 68.2936 92.8123 68.3284C92.5345 68.3633 92.3048 68.4606 92.1233 68.6205C91.9418 68.7803 91.8139 68.9818 91.7396 69.225C91.6732 69.4671 91.6595 69.743 91.6983 70.0526L91.7028 70.0883ZM97.9588 72.9919C97.8795 73.0018 97.8085 72.9825 97.746 72.9339C97.6834 72.8853 97.6472 72.8213 97.6372 72.742L96.9334 67.134C96.9225 67.0466 96.9413 66.9717 96.9899 66.9092C97.0385 66.8466 97.1025 66.8104 97.1818 66.8004L98.1463 66.6794C98.2256 66.6694 98.2966 66.6888 98.3591 66.7373C98.4296 66.7849 98.4703 66.8524 98.4813 66.9397L98.5425 67.4279C98.6932 67.151 98.903 66.9271 99.1718 66.7563C99.4486 66.5845 99.7775 66.4747 100.158 66.4269L100.647 66.3656C100.734 66.3546 100.805 66.374 100.86 66.4235C100.922 66.4721 100.958 66.5361 100.968 66.6155L101.076 67.4728C101.086 67.5522 101.067 67.6231 101.018 67.6856C100.977 67.7472 100.913 67.7834 100.826 67.7944L99.8972 67.911C99.5162 67.9588 99.232 68.1033 99.0446 68.3445C98.8651 68.5847 98.7988 68.8914 98.8456 69.2644L99.2565 72.5388C99.2665 72.6181 99.2472 72.6891 99.1986 72.7516C99.15 72.8142 99.082 72.8509 98.9947 72.8619L97.9588 72.9919ZM108.154 71.8333C107.416 71.926 106.783 71.8965 106.256 71.7449C105.736 71.5844 105.323 71.346 105.018 71.0296C104.719 70.7043 104.537 70.3482 104.472 69.9612C104.463 69.8898 104.48 69.8272 104.521 69.7736C104.563 69.72 104.62 69.6887 104.691 69.6798L105.751 69.5468C105.854 69.5338 105.932 69.5482 105.986 69.5898C106.047 69.6226 106.101 69.6682 106.148 69.7267C106.215 69.8715 106.325 70.0109 106.479 70.1448C106.632 70.2707 106.829 70.3669 107.071 70.4332C107.322 70.4986 107.625 70.5089 107.982 70.4641C108.554 70.3923 108.967 70.2438 109.221 70.0184C109.482 69.792 109.593 69.5161 109.552 69.1907C109.523 68.9605 109.425 68.7874 109.257 68.6714C109.088 68.5474 108.838 68.4498 108.507 68.3785C108.182 68.2983 107.754 68.2271 107.222 68.1648C106.609 68.0967 106.087 67.9887 105.658 67.8411C105.235 67.6845 104.901 67.4644 104.656 67.1807C104.418 66.8961 104.27 66.5156 104.21 66.0393C104.152 65.579 104.224 65.1547 104.425 64.7666C104.634 64.3776 104.956 64.051 105.391 63.7868C105.833 63.5216 106.376 63.3487 107.019 63.268C107.535 63.2033 108 63.2174 108.415 63.3105C108.829 63.3956 109.181 63.5369 109.472 63.7342C109.762 63.9236 109.991 64.1408 110.158 64.3858C110.333 64.6219 110.44 64.8624 110.479 65.1075C110.487 65.171 110.47 65.2335 110.43 65.2951C110.396 65.3477 110.34 65.379 110.26 65.3889L109.153 65.5279C109.089 65.5359 109.024 65.5279 108.956 65.5042C108.889 65.4804 108.83 65.4273 108.779 65.345C108.701 65.1049 108.519 64.914 108.236 64.7722C107.952 64.6305 107.603 64.5855 107.191 64.6373C106.762 64.6911 106.427 64.8138 106.185 65.0054C105.943 65.197 105.843 65.4596 105.884 65.7929C105.912 66.0152 105.999 66.1938 106.145 66.3286C106.298 66.4546 106.524 66.5552 106.824 66.6305C107.132 66.7047 107.532 66.7755 108.024 66.8427C108.717 66.9089 109.291 67.0142 109.745 67.1589C110.198 67.3036 110.543 67.5182 110.781 67.8029C111.017 68.0796 111.165 68.4521 111.223 68.9205C111.289 69.4444 111.203 69.9108 110.964 70.3197C110.732 70.7197 110.374 71.0508 109.891 71.313C109.408 71.5752 108.829 71.7486 108.154 71.8333ZM115.055 70.9672C114.571 71.028 114.137 70.9736 113.753 70.8041C113.376 70.6257 113.067 70.35 112.827 69.977C112.585 69.5961 112.43 69.1318 112.362 68.5841L111.942 65.2384C111.932 65.159 111.951 65.088 112 65.0255C112.048 64.9629 112.112 64.9267 112.192 64.9167L113.239 64.7852C113.327 64.7743 113.398 64.7936 113.452 64.8432C113.515 64.8918 113.551 64.9558 113.561 65.0351L113.972 68.3095C114.095 69.2937 114.59 69.7316 115.455 69.623C115.868 69.5712 116.177 69.3994 116.382 69.1076C116.595 68.8147 116.673 68.4381 116.615 67.9777L116.204 64.7034C116.194 64.624 116.214 64.5531 116.262 64.4905C116.311 64.428 116.375 64.3918 116.454 64.3818L117.502 64.2503C117.581 64.2403 117.652 64.2597 117.715 64.3082C117.777 64.3568 117.814 64.4208 117.824 64.5002L118.529 70.1201C118.539 70.1995 118.519 70.2704 118.471 70.333C118.422 70.3955 118.358 70.4318 118.279 70.4417L117.315 70.5628C117.227 70.5737 117.152 70.5549 117.09 70.5063C117.035 70.4567 117.003 70.3922 116.993 70.3129L116.932 69.8247C116.752 70.1294 116.514 70.3811 116.216 70.5797C115.918 70.7783 115.532 70.9075 115.055 70.9672ZM122.831 69.9913C122.26 70.0631 121.742 70.0192 121.279 69.8596C120.823 69.6991 120.447 69.4319 120.15 69.0579C119.86 68.6751 119.667 68.1954 119.571 67.6189C119.548 67.5009 119.524 67.3466 119.5 67.1561C119.476 66.9576 119.459 66.7944 119.451 66.6664C119.402 66.0839 119.471 65.5754 119.659 65.1407C119.853 64.697 120.151 64.3411 120.553 64.073C120.962 63.8039 121.453 63.6335 122.025 63.5618C122.533 63.498 122.974 63.5152 123.349 63.6132C123.724 63.7113 124.04 63.853 124.298 64.0384C124.555 64.2239 124.754 64.4287 124.895 64.6529C125.043 64.8681 125.133 65.0705 125.164 65.26C125.183 65.3463 125.165 65.4213 125.108 65.4848C125.058 65.5394 124.994 65.5717 124.915 65.5816L123.867 65.7131C123.787 65.7231 123.721 65.7112 123.669 65.6775C123.624 65.6428 123.577 65.5882 123.527 65.5138C123.368 65.2113 123.182 65.0089 122.967 64.9068C122.76 64.7958 122.505 64.7592 122.204 64.7971C121.807 64.8469 121.505 65.0137 121.299 65.2976C121.1 65.5726 121.026 65.9809 121.078 66.5227C121.1 66.8263 121.135 67.1042 121.182 67.3562C121.267 67.9019 121.44 68.2833 121.701 68.5005C121.97 68.7167 122.303 68.7999 122.7 68.7501C123.009 68.7112 123.251 68.6163 123.426 68.4654C123.6 68.3066 123.726 68.0609 123.805 67.7285C123.835 67.6441 123.867 67.5796 123.902 67.5349C123.945 67.4893 124.006 67.4615 124.085 67.4515L125.133 67.32C125.212 67.31 125.283 67.3293 125.346 67.3779C125.415 67.4176 125.451 67.4816 125.454 67.5699C125.464 67.7138 125.445 67.8815 125.397 68.073C125.355 68.2556 125.271 68.4516 125.144 68.6611C125.024 68.8616 124.863 69.0551 124.66 69.2418C124.457 69.4205 124.203 69.5774 123.897 69.7125C123.599 69.8466 123.244 69.9395 122.831 69.9913ZM129.634 69.1377C129.062 69.2094 128.545 69.1655 128.081 69.006C127.626 68.8455 127.249 68.5782 126.952 68.2043C126.663 67.8214 126.469 67.3417 126.373 66.7653C126.35 66.6472 126.326 66.4929 126.303 66.3024C126.278 66.104 126.261 65.9407 126.253 65.8127C126.204 65.2303 126.274 64.7217 126.461 64.287C126.655 63.8434 126.953 63.4875 127.355 63.2194C127.765 62.9503 128.255 62.7799 128.827 62.7081C129.335 62.6444 129.776 62.6615 130.151 62.7596C130.526 62.8576 130.843 62.9994 131.1 63.1848C131.357 63.3702 131.556 63.575 131.697 63.7992C131.845 64.0145 131.935 64.2168 131.967 64.4064C131.985 64.4927 131.967 64.5676 131.91 64.6311C131.861 64.6857 131.796 64.718 131.717 64.728L130.669 64.8595C130.589 64.8694 130.523 64.8576 130.471 64.8238C130.426 64.7891 130.379 64.7346 130.329 64.6602C130.17 64.3576 129.984 64.1553 129.769 64.0532C129.562 63.9422 129.307 63.9056 129.006 63.9434C128.609 63.9932 128.307 64.1601 128.101 64.444C127.902 64.7189 127.828 65.1273 127.88 65.6691C127.902 65.9727 127.937 66.2505 127.985 66.5025C128.069 67.0482 128.242 67.4297 128.503 67.6469C128.772 67.863 129.105 67.9462 129.502 67.8964C129.812 67.8576 130.054 67.7627 130.228 67.6118C130.402 67.4529 130.528 67.2073 130.607 66.8748C130.637 66.7905 130.669 66.7259 130.704 66.6813C130.747 66.6356 130.808 66.6078 130.887 66.5978L131.935 66.4663C132.014 66.4564 132.085 66.4757 132.148 66.5243C132.217 66.5639 132.253 66.6279 132.256 66.7162C132.266 66.8601 132.247 67.0278 132.199 67.2194C132.157 67.402 132.073 67.598 131.946 67.8074C131.826 68.0079 131.665 68.2015 131.462 68.3881C131.259 68.5668 131.005 68.7237 130.699 68.8588C130.401 68.9929 130.046 69.0859 129.634 69.1377ZM136.424 68.2855C135.543 68.3961 134.812 68.2298 134.233 67.7865C133.653 67.3432 133.284 66.6558 133.127 65.7241C133.109 65.6457 133.093 65.547 133.078 65.4279C133.062 65.3009 133.053 65.2012 133.052 65.1288C133.009 64.5295 133.08 63.9966 133.263 63.5301C133.454 63.0626 133.75 62.6869 134.15 62.4029C134.548 62.111 135.037 61.9287 135.617 61.856C136.26 61.7753 136.817 61.8425 137.287 62.0576C137.756 62.2647 138.132 62.5925 138.414 63.0409C138.695 63.4813 138.875 64.0111 138.952 64.6302L138.984 64.8803C138.994 64.9596 138.974 65.0306 138.926 65.0931C138.877 65.1557 138.809 65.1924 138.722 65.2034L134.769 65.6995C134.769 65.6995 134.77 65.7114 134.773 65.7352C134.776 65.759 134.779 65.7789 134.781 65.7947C134.824 66.0716 134.908 66.3231 135.033 66.5492C135.165 66.7665 135.335 66.9346 135.543 67.0536C135.76 67.1715 136.003 67.2136 136.273 67.1797C136.495 67.1518 136.678 67.0967 136.821 67.0142C136.962 66.9239 137.075 66.829 137.16 66.7298C137.244 66.6305 137.303 66.5506 137.335 66.4901C137.395 66.3858 137.443 66.3233 137.481 66.3024C137.526 66.2727 137.592 66.2523 137.679 66.2413L138.703 66.1128C138.782 66.1029 138.849 66.1187 138.902 66.1603C138.964 66.201 138.995 66.2575 138.996 66.33C139.004 66.458 138.956 66.6212 138.852 66.8197C138.756 67.0173 138.604 67.2178 138.395 67.4213C138.187 67.6248 137.916 67.808 137.582 67.9709C137.254 68.1249 136.868 68.2297 136.424 68.2855ZM134.643 64.6993L137.275 64.3691L137.27 64.3334C137.231 64.0238 137.146 63.7604 137.014 63.5431C136.882 63.3259 136.708 63.1623 136.493 63.0522C136.277 62.9422 136.031 62.9046 135.753 62.9395C135.475 62.9743 135.245 63.0717 135.064 63.2315C134.882 63.3914 134.754 63.5929 134.68 63.836C134.614 64.0782 134.6 64.354 134.639 64.6636L134.643 64.6993ZM142.974 67.4635C142.498 67.5232 142.082 67.519 141.727 67.4507C141.38 67.3814 141.088 67.2769 140.853 67.1371C140.618 66.9973 140.438 66.8505 140.314 66.6968C140.19 66.543 140.117 66.4111 140.095 66.3009C140.076 66.2146 140.091 66.1442 140.141 66.0896C140.198 66.026 140.262 65.9898 140.333 65.9808L141.274 65.8628C141.305 65.8588 141.334 65.8593 141.358 65.8642C141.383 65.8692 141.418 65.889 141.463 65.9237C141.577 65.9981 141.695 66.0759 141.818 66.1572C141.95 66.2375 142.099 66.3034 142.267 66.3549C142.433 66.3985 142.636 66.4054 142.874 66.3755C143.183 66.3366 143.434 66.2447 143.625 66.0998C143.824 65.9459 143.909 65.7538 143.88 65.5236C143.859 65.3569 143.794 65.228 143.686 65.1367C143.586 65.0445 143.408 64.9741 143.152 64.9256C142.894 64.8692 142.534 64.8217 142.069 64.7833C141.612 64.7359 141.226 64.6512 140.913 64.5293C140.599 64.4074 140.356 64.2364 140.183 64.0162C140.01 63.796 139.904 63.5271 139.864 63.2096C139.825 62.9 139.88 62.5949 140.028 62.2942C140.182 61.9845 140.431 61.7155 140.773 61.4871C141.123 61.2577 141.572 61.1086 142.12 61.0399C142.548 60.9861 142.928 60.9948 143.26 61.0661C143.59 61.1295 143.869 61.2276 144.095 61.3604C144.329 61.4923 144.512 61.6346 144.644 61.7873C144.775 61.9321 144.852 62.0636 144.875 62.1816C144.894 62.268 144.879 62.3424 144.831 62.4049C144.781 62.4595 144.721 62.4913 144.649 62.5003L143.768 62.6108C143.728 62.6158 143.692 62.6124 143.658 62.6005C143.624 62.5886 143.59 62.5727 143.555 62.5529C143.458 62.4845 143.352 62.4131 143.238 62.3387C143.124 62.2644 142.987 62.2049 142.829 62.1603C142.677 62.1068 142.482 62.095 142.244 62.1249C141.942 62.1627 141.72 62.2591 141.579 62.414C141.436 62.5609 141.377 62.7336 141.402 62.932C141.419 63.067 141.469 63.1815 141.554 63.2758C141.645 63.3611 141.811 63.4329 142.052 63.4913C142.294 63.5498 142.654 63.5972 143.134 63.6337C143.678 63.6622 144.117 63.7523 144.45 63.9039C144.791 64.0467 145.04 64.2331 145.198 64.4632C145.363 64.6844 145.464 64.9419 145.5 65.2356C145.545 65.5928 145.478 65.9277 145.3 66.2403C145.129 66.552 144.848 66.8171 144.456 67.0356C144.071 67.2451 143.577 67.3878 142.974 67.4635ZM149.311 66.6682C148.835 66.728 148.419 66.7237 148.064 66.6554C147.717 66.5861 147.425 66.4816 147.19 66.3418C146.955 66.202 146.775 66.0552 146.651 65.9015C146.527 65.7477 146.454 65.6158 146.432 65.5057C146.413 65.4193 146.428 65.3489 146.478 65.2943C146.535 65.2307 146.599 65.1945 146.67 65.1855L147.611 65.0675C147.642 65.0635 147.671 65.064 147.695 65.0689C147.72 65.0739 147.755 65.0937 147.8 65.1284C147.914 65.2028 148.032 65.2806 148.155 65.3619C148.287 65.4422 148.436 65.5081 148.604 65.5597C148.77 65.6032 148.973 65.6101 149.211 65.5802C149.52 65.5414 149.771 65.4494 149.962 65.3045C150.161 65.1506 150.246 64.9585 150.217 64.7283C150.196 64.5616 150.131 64.4327 150.023 64.3414C149.923 64.2492 149.745 64.1788 149.489 64.1303C149.231 64.0739 148.871 64.0265 148.406 63.988C147.949 63.9406 147.563 63.8559 147.25 63.734C146.936 63.6121 146.693 63.4411 146.52 63.2209C146.347 63.0007 146.241 62.7318 146.201 62.4143C146.162 62.1048 146.217 61.7996 146.365 61.4989C146.519 61.1892 146.768 60.9202 147.11 60.6918C147.46 60.4624 147.909 60.3133 148.457 60.2446C148.885 60.1908 149.265 60.1995 149.597 60.2708C149.927 60.3342 150.206 60.4323 150.432 60.5651C150.666 60.697 150.849 60.8393 150.981 60.992C151.112 61.1368 151.189 61.2683 151.212 61.3864C151.231 61.4727 151.216 61.5471 151.168 61.6096C151.118 61.6642 151.058 61.696 150.986 61.705L150.105 61.8156C150.065 61.8205 150.029 61.8171 149.995 61.8052C149.961 61.7933 149.927 61.7774 149.892 61.7576C149.795 61.6892 149.689 61.6178 149.575 61.5434C149.461 61.4691 149.324 61.4096 149.166 61.365C149.014 61.3115 148.819 61.2997 148.581 61.3296C148.279 61.3674 148.057 61.4638 147.916 61.6187C147.773 61.7656 147.714 61.9383 147.739 62.1367C147.756 62.2717 147.806 62.3863 147.891 62.4805C147.982 62.5658 148.148 62.6376 148.389 62.6961C148.631 62.7545 148.991 62.8019 149.472 62.8384C150.015 62.8669 150.454 62.957 150.787 63.1087C151.128 63.2514 151.377 63.4378 151.535 63.6679C151.7 63.8891 151.801 64.1466 151.837 64.4403C151.882 64.7975 151.815 65.1324 151.637 65.4451C151.466 65.7567 151.185 66.0218 150.793 66.2403C150.409 66.4498 149.914 66.5925 149.311 66.6682Z" fill="white"/>
<g opacity="0.15">
<g filter="url(#filter0_f_29_62)">
<circle cx="178.484" cy="178.484" r="178.484" transform="matrix(0 -1 -1 0 -73.4541 822.685)" fill="#FF3E00"/>
</g>
<g filter="url(#filter1_f_29_62)">
<circle cx="178.484" cy="178.484" r="178.484" transform="matrix(0 -1 -1 0 -243.036 636.993)" fill="#EA2845"/>
</g>
<g filter="url(#filter2_f_29_62)">
<circle cx="178.484" cy="178.484" r="178.484" transform="matrix(0 -1 -1 0 73.2334 475.043)" fill="#0070F3"/>
</g>
<g filter="url(#filter3_f_29_62)">
<circle cx="178.484" cy="178.484" r="178.484" transform="matrix(0 -1 -1 0 375.089 432.647)" fill="#63F655"/>
</g>
</g>
<g opacity="0.15">
<g filter="url(#filter4_f_29_62)">
<circle cx="-91.516" cy="619.234" r="178.484" fill="#FF3E00" fill-opacity="0.7"/>
</g>
<g filter="url(#filter5_f_29_62)">
<circle cx="94.1759" cy="788.815" r="178.484" fill="#EA2845" fill-opacity="0.7"/>
</g>
<g filter="url(#filter6_f_29_62)">
<circle cx="256.126" cy="472.545" r="178.484" fill="#0070F3" fill-opacity="0.7"/>
</g>
<g filter="url(#filter7_f_29_62)">
<circle cx="298.521" cy="170.691" r="178.484" fill="#63F655" fill-opacity="0.7"/>
</g>
</g>
<rect x="21.4985" y="869.237" width="150" height="29" rx="14.5" transform="rotate(-4.1772 21.4985 869.237)" fill="#FFCF00"/>
<rect x="22.0336" y="869.7" width="149" height="28" rx="14" transform="rotate(-4.1772 22.0336 869.7)" stroke="black" stroke-opacity="0.05"/>
<path d="M36.0715 887.224C35.9917 887.23 35.9218 887.207 35.8619 887.155C35.802 887.103 35.7691 887.037 35.7633 886.958L35.1942 879.166C35.1878 879.079 35.2105 879.005 35.2623 878.945C35.3141 878.885 35.3798 878.852 35.4596 878.846L38.3798 878.633C39.1857 878.574 39.857 878.649 40.3937 878.859C40.9383 879.068 41.3601 879.406 41.6589 879.873C41.9657 880.34 42.1488 880.925 42.208 881.626C42.2496 881.976 42.2803 882.287 42.3002 882.558C42.32 882.829 42.3344 883.137 42.3435 883.481C42.3818 884.224 42.291 884.849 42.0712 885.354C41.8509 885.851 41.4901 886.239 40.989 886.516C40.4952 886.785 39.8494 886.948 39.0516 887.006L36.0715 887.224ZM37.3473 885.747L38.8912 885.634C39.338 885.602 39.6964 885.511 39.9663 885.363C40.2362 885.215 40.4248 884.997 40.5321 884.708C40.6468 884.411 40.6912 884.031 40.6654 883.568C40.6559 883.328 40.6447 883.12 40.6319 882.944C40.6265 882.76 40.6133 882.581 40.5925 882.406C40.5791 882.222 40.56 882.015 40.5351 881.784C40.4714 881.131 40.2726 880.661 39.9387 880.372C39.6048 880.084 39.0987 879.964 38.4205 880.014L36.9365 880.122L37.3473 885.747ZM46.7453 886.565C45.8597 886.629 45.1389 886.425 44.583 885.953C44.0271 885.48 43.6948 884.774 43.5861 883.836C43.5723 883.756 43.5611 883.657 43.5523 883.537C43.543 883.41 43.5397 883.31 43.5424 883.237C43.5306 882.636 43.6284 882.108 43.8357 881.652C44.051 881.195 44.3656 880.835 44.7796 880.572C45.193 880.301 45.6909 880.144 46.2733 880.102C46.9196 880.055 47.4721 880.151 47.9307 880.39C48.3888 880.621 48.747 880.968 49.0053 881.43C49.2631 881.885 49.4148 882.423 49.4602 883.046L49.4786 883.297C49.4844 883.377 49.4614 883.447 49.4096 883.507C49.3579 883.566 49.2881 883.6 49.2003 883.606L45.2269 883.896C45.2269 883.896 45.2278 883.908 45.2295 883.932C45.2313 883.956 45.2327 883.976 45.2339 883.992C45.2623 884.271 45.3331 884.526 45.4463 884.759C45.5669 884.982 45.7282 885.159 45.9302 885.289C46.1402 885.418 46.3808 885.472 46.6521 885.453C46.8755 885.436 47.0606 885.391 47.2076 885.316C47.3539 885.233 47.4718 885.144 47.5611 885.049C47.6504 884.955 47.713 884.878 47.7488 884.819C47.8136 884.718 47.8654 884.658 47.9041 884.639C47.9503 884.612 48.0172 884.595 48.105 884.588L49.1342 884.513C49.214 884.507 49.2796 884.527 49.331 884.571C49.3903 884.615 49.4186 884.673 49.4159 884.745C49.4172 884.874 49.3608 885.034 49.2465 885.227C49.1403 885.419 48.9778 885.612 48.7593 885.804C48.5407 885.996 48.2603 886.165 47.9179 886.311C47.583 886.447 47.1921 886.532 46.7453 886.565ZM45.1535 882.891L47.7985 882.698L47.7958 882.662C47.7731 882.351 47.7014 882.083 47.5808 881.859C47.4602 881.636 47.2952 881.463 47.0858 881.342C46.8764 881.221 46.6321 881.171 46.3529 881.191C46.0736 881.211 45.8392 881.297 45.6496 881.447C45.4601 881.597 45.3219 881.792 45.2351 882.031C45.1562 882.269 45.1281 882.544 45.1509 882.855L45.1535 882.891ZM53.2817 886.087C52.8668 886.118 52.4948 886.077 52.1658 885.964C51.8441 885.843 51.5702 885.663 51.3441 885.423C51.118 885.183 50.9366 884.895 50.7999 884.56C50.6625 884.217 50.5707 883.839 50.5245 883.425C50.506 883.282 50.4927 883.155 50.4845 883.043C50.4758 882.923 50.4701 882.791 50.4676 882.647C50.4545 882.247 50.4872 881.872 50.5659 881.521C50.6525 881.17 50.7902 880.859 50.979 880.588C51.1752 880.309 51.4237 880.087 51.7244 879.92C52.033 879.753 52.3948 879.655 52.8097 879.625C53.2405 879.593 53.6091 879.642 53.9154 879.772C54.2291 879.894 54.4941 880.063 54.7105 880.28L54.5164 877.623C54.5106 877.543 54.5296 877.474 54.5734 877.414C54.6251 877.354 54.6949 877.321 54.7827 877.315L55.8 877.24C55.8798 877.235 55.9496 877.258 56.0095 877.309C56.0695 877.361 56.1024 877.427 56.1082 877.507L56.6868 885.43C56.6927 885.509 56.6697 885.579 56.6179 885.639C56.5661 885.699 56.5004 885.732 56.4206 885.738L55.4751 885.807C55.3873 885.813 55.3135 885.791 55.2535 885.739C55.2016 885.686 55.1727 885.62 55.1669 885.541L55.1345 885.098C54.9531 885.36 54.7127 885.582 54.4132 885.764C54.1216 885.946 53.7445 886.054 53.2817 886.087ZM53.631 884.774C53.9661 884.75 54.2279 884.655 54.4162 884.488C54.6046 884.322 54.7383 884.12 54.8171 883.882C54.8954 883.635 54.9295 883.388 54.9194 883.14C54.9169 882.996 54.9098 882.844 54.8981 882.685C54.8859 882.517 54.8705 882.362 54.8521 882.219C54.8266 881.98 54.7542 881.757 54.6347 881.549C54.5147 881.333 54.3497 881.16 54.1397 881.031C53.9297 880.902 53.6652 880.849 53.346 880.873C53.0109 880.897 52.7492 880.993 52.5608 881.159C52.3798 881.316 52.2541 881.518 52.1839 881.764C52.1136 882.01 52.0809 882.277 52.086 882.565C52.0955 882.805 52.1129 883.044 52.1384 883.283C52.1753 883.569 52.2464 883.829 52.3517 884.062C52.4569 884.295 52.6108 884.48 52.8134 884.618C53.0234 884.747 53.2959 884.799 53.631 884.774ZM58.5902 885.579C58.5104 885.585 58.4405 885.562 58.3806 885.51C58.3207 885.459 58.2878 885.393 58.282 885.313L57.8694 879.664C57.8636 879.584 57.8865 879.514 57.9383 879.455C57.9901 879.395 58.0559 879.362 58.1356 879.356L59.129 879.283C59.2168 879.277 59.2866 879.3 59.3386 879.352C59.3985 879.404 59.4314 879.47 59.4372 879.55L59.8498 885.199C59.8556 885.278 59.8326 885.348 59.7809 885.408C59.7371 885.467 59.6713 885.5 59.5835 885.507L58.5902 885.579ZM58.0126 878.33C57.9248 878.337 57.8513 878.318 57.7919 878.274C57.74 878.222 57.7108 878.152 57.7044 878.064L57.6414 877.202C57.6356 877.122 57.6546 877.053 57.6984 876.993C57.7502 876.934 57.8199 876.9 57.9077 876.894L58.9968 876.814C59.0846 876.808 59.1584 876.831 59.2183 876.882C59.2783 876.934 59.3112 877 59.317 877.08L59.3799 877.941C59.3863 878.029 59.3636 878.103 59.3119 878.163C59.2595 878.215 59.1895 878.244 59.1017 878.251L58.0126 878.33ZM64.1602 885.293C63.5857 885.335 63.0712 885.264 62.6166 885.081C62.17 884.897 61.8082 884.61 61.5311 884.221C61.2615 883.824 61.0934 883.335 61.0269 882.754C61.0102 882.635 60.9949 882.48 60.9809 882.288C60.9663 882.089 60.9583 881.925 60.957 881.797C60.9384 881.213 61.0339 880.708 61.2436 880.284C61.4606 879.851 61.7767 879.511 62.1918 879.264C62.6149 879.017 63.1137 878.872 63.6882 878.83C64.1988 878.793 64.6389 878.833 65.0084 878.95C65.3779 879.068 65.6863 879.226 65.9334 879.424C66.1805 879.623 66.3687 879.837 66.4978 880.069C66.6344 880.291 66.7137 880.498 66.7357 880.689C66.75 880.776 66.7274 880.85 66.6676 880.911C66.6153 880.962 66.5492 880.991 66.4694 880.997L65.4162 881.074C65.3364 881.08 65.2711 881.065 65.2203 881.028C65.1775 880.991 65.1333 880.934 65.0876 880.857C64.9446 880.547 64.7687 880.335 64.5599 880.222C64.3585 880.101 64.1062 880.051 63.803 880.073C63.4041 880.102 63.0942 880.253 62.8735 880.526C62.6602 880.79 62.5654 881.194 62.589 881.738C62.5952 882.042 62.6156 882.321 62.6502 882.576C62.7064 883.125 62.8592 883.515 63.1086 883.745C63.3661 883.975 63.6943 884.076 64.0932 884.046C64.4044 884.024 64.651 883.941 64.8332 883.8C65.0148 883.65 65.1538 883.411 65.2501 883.084C65.2842 883.001 65.3197 882.938 65.3567 882.895C65.4017 882.852 65.464 882.827 65.5438 882.821L66.597 882.745C66.6768 882.739 66.7467 882.762 66.8066 882.813C66.8739 882.857 66.9068 882.922 66.9052 883.011C66.9077 883.155 66.8798 883.321 66.8214 883.51C66.7704 883.69 66.6761 883.882 66.5385 884.084C66.4082 884.278 66.2373 884.463 66.0255 884.639C65.8132 884.807 65.5509 884.951 65.2388 885.07C64.9346 885.188 64.5751 885.263 64.1602 885.293ZM70.1118 884.858C69.6969 884.888 69.3161 884.836 68.9693 884.701C68.6219 884.558 68.3386 884.358 68.1194 884.101C67.9075 883.836 67.789 883.532 67.7639 883.189C67.7231 882.63 67.9142 882.171 68.3371 881.811C68.7674 881.443 69.3495 881.176 70.0834 881.01L71.7055 880.651L71.6872 880.4C71.6627 880.064 71.56 879.811 71.379 879.64C71.1981 879.469 70.9042 879.398 70.4972 879.428C70.21 879.449 69.979 879.526 69.8042 879.659C69.6369 879.783 69.5163 879.944 69.4425 880.142C69.3862 880.251 69.2983 880.309 69.1786 880.318L68.2331 880.387C68.1453 880.394 68.0758 880.375 68.0244 880.33C67.981 880.285 67.9564 880.223 67.9506 880.143C67.9492 880.015 67.9897 879.855 68.0721 879.665C68.1544 879.474 68.2932 879.288 68.4884 879.105C68.683 878.914 68.9395 878.747 69.2579 878.604C69.5763 878.46 69.9669 878.371 70.4297 878.338C70.9323 878.301 71.3599 878.334 71.7123 878.436C72.0721 878.531 72.3633 878.674 72.5859 878.866C72.8085 879.058 72.9778 879.291 73.094 879.563C73.2101 879.835 73.2796 880.127 73.3023 880.438L73.5768 884.196C73.5826 884.276 73.5596 884.346 73.5078 884.406C73.4561 884.465 73.3903 884.498 73.3105 884.504L72.3411 884.575C72.2533 884.581 72.1795 884.559 72.1195 884.507C72.0676 884.455 72.0387 884.389 72.0329 884.309L71.9988 883.842C71.9061 884.001 71.777 884.155 71.6114 884.303C71.4451 884.444 71.2376 884.567 70.9887 884.674C70.7472 884.772 70.4549 884.833 70.1118 884.858ZM70.4357 883.691C70.7149 883.671 70.9619 883.593 71.1765 883.457C71.3992 883.32 71.5653 883.124 71.6749 882.867C71.7919 882.602 71.8364 882.278 71.8084 881.895L71.7901 881.643L70.6072 881.922C70.1417 882.028 69.7991 882.17 69.5794 882.346C69.3597 882.523 69.2583 882.727 69.2752 882.958C69.288 883.134 69.3509 883.281 69.464 883.401C69.5844 883.513 69.7307 883.595 69.9029 883.646C70.0746 883.69 70.2521 883.705 70.4357 883.691ZM77.8872 884.17C77.4085 884.205 76.9994 884.151 76.66 884.007C76.3207 883.863 76.0593 883.634 75.8758 883.318C75.6917 882.995 75.5817 882.586 75.5455 882.091L75.3471 879.374L74.4016 879.443C74.3218 879.449 74.252 879.426 74.192 879.374C74.1321 879.323 74.0992 879.257 74.0934 879.177L74.0427 878.483C74.0369 878.403 74.0599 878.333 74.1116 878.273C74.1634 878.213 74.2292 878.18 74.309 878.175L75.2545 878.106L75.1094 876.119C75.1035 876.039 75.1225 875.97 75.1663 875.91C75.2181 875.85 75.2878 875.817 75.3756 875.811L76.345 875.74C76.4248 875.734 76.4947 875.757 76.5546 875.809C76.6145 875.861 76.6474 875.926 76.6532 876.006L76.7983 877.993L78.2944 877.884C78.3741 877.878 78.444 877.901 78.5039 877.952C78.5639 878.004 78.5967 878.07 78.6026 878.15L78.6533 878.844C78.6591 878.924 78.6361 878.994 78.5843 879.054C78.5326 879.113 78.4668 879.146 78.387 879.152L76.891 879.261L77.0807 881.859C77.1046 882.186 77.1791 882.437 77.3042 882.612C77.4373 882.787 77.6474 882.864 77.9346 882.843L78.7604 882.783C78.8402 882.777 78.9101 882.8 78.97 882.852C79.03 882.903 79.0628 882.969 79.0687 883.049L79.1229 883.791C79.1287 883.871 79.1057 883.941 79.0539 884.001C79.0022 884.06 78.9364 884.093 78.8566 884.099L77.8872 884.17ZM82.8951 883.925C82.0095 883.989 81.2887 883.785 80.7328 883.312C80.1769 882.84 79.8446 882.134 79.736 881.195C79.7221 881.116 79.7109 881.017 79.7021 880.897C79.6928 880.769 79.6895 880.669 79.6922 880.597C79.6805 879.996 79.7782 879.468 79.9855 879.011C80.2008 878.554 80.5154 878.195 80.9294 877.932C81.3428 877.661 81.8407 877.504 82.4231 877.462C83.0694 877.415 83.6219 877.511 84.0805 877.75C84.5386 877.981 84.8968 878.328 85.1552 878.79C85.4129 879.245 85.5646 879.783 85.61 880.405L85.6284 880.657C85.6342 880.737 85.6112 880.806 85.5595 880.866C85.5077 880.926 85.4379 880.959 85.3501 880.966L81.3767 881.256C81.3767 881.256 81.3776 881.268 81.3793 881.292C81.3811 881.316 81.3826 881.336 81.3837 881.352C81.4121 881.63 81.4829 881.886 81.5961 882.118C81.7167 882.342 81.878 882.519 82.08 882.648C82.29 882.778 82.5306 882.832 82.8019 882.812C83.0253 882.796 83.2105 882.75 83.3574 882.676C83.5037 882.593 83.6216 882.504 83.7109 882.409C83.8003 882.314 83.8628 882.238 83.8986 882.179C83.9635 882.078 84.0152 882.018 84.054 881.999C84.1001 881.972 84.167 881.955 84.2548 881.948L85.2841 881.873C85.3638 881.867 85.4294 881.886 85.4808 881.931C85.5401 881.975 85.5684 882.033 85.5657 882.105C85.5671 882.233 85.5106 882.394 85.3963 882.587C85.2901 882.779 85.1276 882.971 84.9091 883.164C84.6905 883.356 84.4101 883.525 84.0677 883.67C83.7328 883.807 83.3419 883.892 82.8951 883.925ZM81.3033 880.251L83.9483 880.058L83.9456 880.022C83.9229 879.71 83.8512 879.443 83.7306 879.219C83.61 878.995 83.445 878.823 83.2356 878.702C83.0262 878.581 82.7819 878.53 82.5027 878.551C82.2234 878.571 81.989 878.657 81.7994 878.807C81.6099 878.957 81.4717 879.152 81.3849 879.39C81.306 879.629 81.278 879.904 81.3007 880.215L81.3033 880.251ZM89.4315 883.447C89.0166 883.477 88.6446 883.436 88.3156 883.324C87.9939 883.203 87.72 883.023 87.4939 882.782C87.2679 882.542 87.0864 882.255 86.9497 881.92C86.8123 881.577 86.7205 881.199 86.6743 880.785C86.6558 880.642 86.6425 880.514 86.6343 880.403C86.6256 880.283 86.62 880.151 86.6174 880.007C86.6043 879.607 86.637 879.231 86.7157 878.881C86.8023 878.53 86.94 878.219 87.1288 877.948C87.325 877.669 87.5735 877.447 87.8742 877.28C88.1828 877.113 88.5446 877.015 88.9595 876.984C89.3903 876.953 89.7589 877.002 90.0652 877.132C90.3789 877.254 90.6439 877.423 90.8603 877.64L90.6662 874.983C90.6604 874.903 90.6794 874.833 90.7232 874.774C90.7749 874.714 90.8447 874.681 90.9325 874.674L91.9498 874.6C92.0296 874.594 92.0994 874.617 92.1594 874.669C92.2193 874.721 92.2522 874.787 92.258 874.866L92.8366 882.789C92.8425 882.869 92.8195 882.939 92.7677 882.999C92.716 883.059 92.6502 883.092 92.5704 883.098L91.6249 883.167C91.5371 883.173 91.4633 883.15 91.4034 883.099C91.3514 883.046 91.3225 882.98 91.3167 882.9L91.2843 882.458C91.1029 882.719 90.8625 882.942 90.563 883.124C90.2714 883.306 89.8943 883.413 89.4315 883.447ZM89.7808 882.134C90.1159 882.11 90.3777 882.014 90.5661 881.848C90.7545 881.682 90.8881 881.48 90.9669 881.241C91.0452 880.995 91.0793 880.748 91.0692 880.5C91.0667 880.356 91.0596 880.204 91.0479 880.044C91.0357 879.877 91.0203 879.721 91.0019 879.578C90.9764 879.34 90.904 879.116 90.7845 878.909C90.6645 878.693 90.4995 878.52 90.2895 878.391C90.0795 878.262 89.815 878.209 89.4958 878.233C89.1607 878.257 88.899 878.352 88.7106 878.519C88.5296 878.676 88.4039 878.878 88.3337 879.124C88.2634 879.369 88.2307 879.636 88.2358 879.925C88.2453 880.165 88.2628 880.404 88.2882 880.643C88.3251 880.929 88.3962 881.189 88.5015 881.421C88.6067 881.654 88.7606 881.84 88.9632 881.977C89.1732 882.106 89.4457 882.159 89.7808 882.134ZM96.5011 882.81C96.4372 882.815 96.3757 882.796 96.3163 882.752C96.2649 882.707 96.2366 882.649 96.2314 882.577C96.2291 882.546 96.2344 882.509 96.2475 882.468L98.568 874.538C98.5861 874.456 98.625 874.385 98.6848 874.325C98.7519 874.256 98.8453 874.217 98.965 874.208L100.27 874.113C100.389 874.104 100.483 874.129 100.552 874.189C100.62 874.24 100.673 874.304 100.71 874.381L104.158 881.89C104.169 881.93 104.176 881.965 104.178 881.997C104.183 882.069 104.164 882.13 104.12 882.182C104.075 882.233 104.021 882.261 103.957 882.266L102.916 882.342C102.804 882.35 102.719 882.332 102.659 882.289C102.607 882.236 102.572 882.187 102.552 882.14L101.883 880.721L98.3286 880.98L97.8728 882.482C97.8603 882.531 97.8282 882.585 97.7764 882.645C97.732 882.697 97.654 882.726 97.5423 882.734L96.5011 882.81ZM98.647 879.574L101.364 879.375L99.7293 875.777L98.647 879.574ZM107.537 882.125C107.058 882.16 106.643 882.134 106.292 882.047C105.949 881.96 105.663 881.841 105.435 881.689C105.208 881.537 105.036 881.381 104.92 881.221C104.804 881.061 104.738 880.925 104.722 880.814C104.707 880.727 104.726 880.658 104.779 880.606C104.839 880.545 104.904 880.512 104.976 880.507L105.922 880.438C105.954 880.436 105.982 880.438 106.006 880.444C106.031 880.45 106.064 880.472 106.107 880.509C106.217 880.589 106.332 880.673 106.45 880.76C106.577 880.847 106.723 880.921 106.888 880.981C107.052 881.033 107.254 881.051 107.493 881.033C107.804 881.01 108.059 880.932 108.258 880.797C108.464 880.653 108.559 880.466 108.542 880.235C108.529 880.067 108.472 879.935 108.368 879.838C108.273 879.741 108.099 879.661 107.846 879.6C107.592 879.53 107.234 879.464 106.772 879.401C106.318 879.33 105.937 879.226 105.63 879.088C105.324 878.95 105.09 878.766 104.929 878.537C104.767 878.308 104.675 878.034 104.652 877.715C104.629 877.404 104.699 877.102 104.862 876.809C105.033 876.508 105.295 876.252 105.649 876.042C106.01 875.831 106.466 875.706 107.017 875.666C107.448 875.634 107.827 875.662 108.154 875.751C108.481 875.831 108.754 875.944 108.973 876.088C109.2 876.232 109.375 876.384 109.499 876.543C109.623 876.694 109.693 876.83 109.709 876.949C109.724 877.036 109.705 877.11 109.653 877.169C109.601 877.221 109.539 877.25 109.467 877.255L108.582 877.32C108.542 877.323 108.505 877.317 108.472 877.304C108.439 877.29 108.406 877.273 108.372 877.251C108.278 877.178 108.177 877.101 108.066 877.021C107.956 876.94 107.823 876.874 107.667 876.821C107.518 876.76 107.324 876.738 107.084 876.755C106.781 876.778 106.555 876.862 106.405 877.01C106.255 877.149 106.187 877.318 106.202 877.518C106.212 877.653 106.256 877.771 106.336 877.869C106.422 877.959 106.585 878.039 106.822 878.11C107.06 878.181 107.418 878.247 107.896 878.309C108.437 878.365 108.871 878.478 109.196 878.647C109.528 878.807 109.768 879.006 109.913 879.244C110.066 879.473 110.154 879.736 110.175 880.031C110.201 880.39 110.117 880.721 109.923 881.024C109.736 881.326 109.442 881.577 109.039 881.774C108.644 881.964 108.143 882.081 107.537 882.125ZM113.907 881.66C113.428 881.695 113.013 881.669 112.662 881.582C112.318 881.495 112.033 881.375 111.805 881.223C111.577 881.072 111.406 880.916 111.29 880.756C111.174 880.596 111.108 880.46 111.092 880.349C111.077 880.262 111.096 880.192 111.149 880.14C111.208 880.08 111.274 880.047 111.346 880.042L112.291 879.973C112.323 879.97 112.351 879.972 112.376 879.979C112.401 879.985 112.434 880.006 112.477 880.043C112.587 880.124 112.702 880.207 112.82 880.295C112.947 880.382 113.093 880.456 113.257 880.516C113.422 880.568 113.624 880.585 113.863 880.568C114.174 880.545 114.429 880.466 114.628 880.332C114.834 880.188 114.928 880.001 114.911 879.769C114.899 879.602 114.841 879.47 114.738 879.373C114.643 879.276 114.469 879.196 114.215 879.134C113.962 879.065 113.604 878.999 113.142 878.936C112.688 878.865 112.307 878.76 112 878.622C111.693 878.484 111.459 878.301 111.298 878.072C111.137 877.843 111.045 877.569 111.022 877.25C110.999 876.939 111.069 876.637 111.232 876.344C111.403 876.043 111.665 875.787 112.018 875.577C112.38 875.366 112.836 875.24 113.387 875.2C113.817 875.169 114.197 875.197 114.524 875.286C114.851 875.366 115.124 875.479 115.343 875.623C115.57 875.767 115.745 875.918 115.869 876.078C115.992 876.229 116.063 876.364 116.079 876.484C116.094 876.571 116.075 876.644 116.023 876.704C115.971 876.756 115.909 876.785 115.837 876.79L114.951 876.855C114.911 876.858 114.875 876.852 114.842 876.839C114.809 876.825 114.775 876.807 114.742 876.786C114.648 876.712 114.546 876.636 114.436 876.555C114.326 876.475 114.193 876.409 114.037 876.356C113.888 876.295 113.694 876.273 113.454 876.29C113.151 876.312 112.925 876.397 112.775 876.544C112.625 876.684 112.557 876.853 112.571 877.053C112.581 877.188 112.626 877.305 112.705 877.404C112.792 877.494 112.954 877.574 113.192 877.645C113.43 877.716 113.788 877.782 114.265 877.843C114.807 877.9 115.24 878.013 115.566 878.181C115.898 878.342 116.137 878.541 116.283 878.779C116.436 879.008 116.523 879.271 116.545 879.566C116.571 879.925 116.487 880.256 116.293 880.559C116.106 880.861 115.812 881.111 115.409 881.309C115.014 881.498 114.513 881.615 113.907 881.66ZM118.197 881.226C118.117 881.232 118.047 881.209 117.987 881.157C117.928 881.105 117.895 881.039 117.889 880.96L117.476 875.311C117.47 875.231 117.493 875.161 117.545 875.101C117.597 875.041 117.663 875.008 117.743 875.002L118.736 874.93C118.824 874.924 118.893 874.946 118.945 874.999C119.005 875.051 119.038 875.116 119.044 875.196L119.457 880.845C119.462 880.925 119.439 880.995 119.388 881.055C119.344 881.114 119.278 881.147 119.19 881.153L118.197 881.226ZM117.619 873.977C117.532 873.983 117.458 873.964 117.399 873.921C117.347 873.868 117.318 873.798 117.311 873.71L117.248 872.849C117.242 872.769 117.261 872.699 117.305 872.64C117.357 872.58 117.427 872.547 117.515 872.541L118.604 872.461C118.691 872.455 118.765 872.477 118.825 872.529C118.885 872.581 118.918 872.647 118.924 872.726L118.987 873.588C118.993 873.676 118.971 873.75 118.919 873.81C118.866 873.862 118.796 873.891 118.709 873.897L117.619 873.977ZM123.432 880.964C122.953 880.999 122.538 880.973 122.187 880.886C121.844 880.799 121.558 880.68 121.331 880.528C121.103 880.376 120.931 880.22 120.815 880.06C120.699 879.9 120.633 879.765 120.617 879.653C120.603 879.566 120.622 879.497 120.674 879.445C120.734 879.384 120.799 879.351 120.871 879.346L121.817 879.277C121.849 879.275 121.877 879.277 121.901 879.283C121.926 879.289 121.96 879.311 122.002 879.348C122.113 879.428 122.227 879.512 122.346 879.599C122.472 879.686 122.618 879.76 122.783 879.82C122.947 879.872 123.149 879.89 123.388 879.872C123.699 879.849 123.954 879.771 124.153 879.636C124.359 879.492 124.454 879.305 124.437 879.074C124.425 878.906 124.367 878.774 124.264 878.677C124.168 878.58 123.994 878.5 123.741 878.439C123.487 878.369 123.129 878.303 122.667 878.24C122.213 878.169 121.832 878.065 121.526 877.927C121.219 877.789 120.985 877.605 120.824 877.376C120.663 877.147 120.57 876.873 120.547 876.554C120.524 876.243 120.595 875.941 120.758 875.649C120.928 875.347 121.19 875.092 121.544 874.881C121.905 874.67 122.361 874.545 122.912 874.505C123.343 874.473 123.722 874.502 124.049 874.59C124.376 874.67 124.649 874.783 124.868 874.927C125.095 875.071 125.271 875.223 125.395 875.382C125.518 875.534 125.588 875.669 125.605 875.788C125.619 875.875 125.6 875.949 125.549 876.009C125.496 876.06 125.434 876.089 125.362 876.094L124.477 876.159C124.437 876.162 124.4 876.157 124.367 876.143C124.334 876.129 124.301 876.112 124.267 876.09C124.174 876.017 124.072 875.94 123.962 875.86C123.851 875.78 123.718 875.713 123.562 875.66C123.413 875.599 123.219 875.577 122.98 875.595C122.676 875.617 122.45 875.701 122.3 875.849C122.15 875.988 122.082 876.157 122.097 876.357C122.107 876.493 122.151 876.61 122.231 876.708C122.318 876.798 122.48 876.878 122.718 876.949C122.955 877.02 123.313 877.086 123.791 877.148C124.332 877.204 124.766 877.317 125.091 877.486C125.424 877.646 125.663 877.845 125.808 878.083C125.962 878.313 126.049 878.575 126.07 878.87C126.097 879.229 126.013 879.56 125.818 879.863C125.632 880.166 125.337 880.416 124.934 880.614C124.539 880.803 124.038 880.92 123.432 880.964ZM130.224 880.347C129.746 880.382 129.337 880.328 128.997 880.184C128.658 880.041 128.396 879.811 128.213 879.496C128.029 879.172 127.919 878.763 127.883 878.269L127.684 875.552L126.739 875.621C126.659 875.627 126.589 875.604 126.529 875.552C126.469 875.5 126.436 875.434 126.431 875.355L126.38 874.66C126.374 874.581 126.397 874.511 126.449 874.451C126.501 874.391 126.566 874.358 126.646 874.352L127.592 874.283L127.447 872.296C127.441 872.217 127.46 872.147 127.503 872.088C127.555 872.028 127.625 871.995 127.713 871.988L128.682 871.917C128.762 871.912 128.832 871.935 128.892 871.986C128.952 872.038 128.985 872.104 128.99 872.184L129.135 874.17L130.632 874.061C130.711 874.055 130.781 874.078 130.841 874.13C130.901 874.182 130.934 874.248 130.94 874.327L130.99 875.022C130.996 875.101 130.973 875.171 130.922 875.231C130.87 875.291 130.804 875.324 130.724 875.33L129.228 875.439L129.418 878.036C129.442 878.363 129.516 878.614 129.641 878.79C129.774 878.965 129.985 879.041 130.272 879.02L131.098 878.96C131.177 878.954 131.247 878.977 131.307 879.029C131.367 879.081 131.4 879.147 131.406 879.226L131.46 879.968C131.466 880.048 131.443 880.118 131.391 880.178C131.339 880.238 131.274 880.271 131.194 880.277L130.224 880.347ZM134.359 880.166C133.944 880.196 133.563 880.144 133.216 880.009C132.869 879.866 132.585 879.666 132.366 879.409C132.154 879.144 132.036 878.84 132.011 878.496C131.97 877.938 132.161 877.479 132.584 877.119C133.014 876.751 133.596 876.484 134.33 876.318L135.952 875.959L135.934 875.707C135.91 875.372 135.807 875.119 135.626 874.948C135.445 874.776 135.151 874.706 134.744 874.735C134.457 874.756 134.226 874.833 134.051 874.966C133.884 875.091 133.763 875.252 133.689 875.45C133.633 875.558 133.545 875.617 133.425 875.626L132.48 875.695C132.392 875.701 132.323 875.682 132.271 875.638C132.228 875.593 132.203 875.531 132.197 875.451C132.196 875.323 132.237 875.163 132.319 874.973C132.401 874.782 132.54 874.596 132.735 874.413C132.93 874.222 133.186 874.055 133.505 873.911C133.823 873.768 134.214 873.679 134.677 873.645C135.179 873.609 135.607 873.642 135.959 873.744C136.319 873.838 136.61 873.981 136.833 874.174C137.055 874.366 137.225 874.598 137.341 874.871C137.457 875.143 137.526 875.435 137.549 875.746L137.824 879.504C137.829 879.583 137.806 879.653 137.755 879.713C137.703 879.773 137.637 879.806 137.557 879.812L136.588 879.883C136.5 879.889 136.426 879.866 136.366 879.815C136.314 879.762 136.286 879.696 136.28 879.616L136.246 879.15C136.153 879.309 136.024 879.463 135.858 879.611C135.692 879.752 135.484 879.875 135.236 879.981C134.994 880.079 134.702 880.141 134.359 880.166ZM134.683 878.999C134.962 878.979 135.209 878.901 135.423 878.765C135.646 878.628 135.812 878.431 135.922 878.175C136.039 877.909 136.083 877.585 136.055 877.202L136.037 876.951L134.854 877.23C134.389 877.336 134.046 877.477 133.826 877.654C133.607 877.83 133.505 878.034 133.522 878.266C133.535 878.441 133.598 878.589 133.711 878.709C133.831 878.821 133.978 878.902 134.15 878.954C134.321 878.997 134.499 879.013 134.683 878.999ZM139.667 879.658C139.587 879.664 139.518 879.641 139.458 879.589C139.398 879.537 139.365 879.471 139.359 879.392L138.946 873.743C138.941 873.663 138.964 873.593 139.015 873.533C139.067 873.473 139.133 873.44 139.213 873.434L140.194 873.363C140.274 873.357 140.344 873.38 140.404 873.432C140.464 873.483 140.496 873.549 140.502 873.629L140.538 874.12C140.727 873.849 140.975 873.619 141.282 873.428C141.596 873.228 141.992 873.111 142.471 873.076C142.958 873.041 143.389 873.121 143.764 873.319C144.139 873.508 144.437 873.795 144.657 874.18C144.886 874.564 145.021 875.036 145.062 875.594L145.307 878.957C145.313 879.037 145.29 879.107 145.238 879.167C145.186 879.227 145.121 879.26 145.041 879.265L143.988 879.342C143.908 879.348 143.838 879.325 143.778 879.273C143.718 879.222 143.685 879.156 143.679 879.076L143.439 875.785C143.405 875.322 143.263 874.967 143.012 874.721C142.77 874.474 142.433 874.366 142.002 874.398C141.587 874.428 141.266 874.584 141.038 874.865C140.81 875.147 140.712 875.519 140.746 875.981L140.987 879.273C140.992 879.352 140.969 879.422 140.918 879.482C140.866 879.542 140.8 879.575 140.72 879.581L139.667 879.658ZM149.55 879.056C148.975 879.098 148.461 879.028 148.006 878.844C147.56 878.66 147.198 878.374 146.921 877.985C146.651 877.588 146.483 877.099 146.417 876.518C146.4 876.399 146.385 876.243 146.371 876.052C146.356 875.852 146.348 875.689 146.347 875.56C146.328 874.976 146.424 874.472 146.633 874.047C146.85 873.615 147.166 873.275 147.582 873.028C148.005 872.78 148.503 872.636 149.078 872.594C149.589 872.556 150.029 872.596 150.398 872.714C150.768 872.831 151.076 872.989 151.323 873.188C151.57 873.386 151.758 873.601 151.888 873.832C152.024 874.055 152.103 874.262 152.125 874.453C152.14 874.54 152.117 874.614 152.057 874.674C152.005 874.726 151.939 874.755 151.859 874.761L150.806 874.838C150.726 874.843 150.661 874.828 150.61 874.792C150.567 874.755 150.523 874.698 150.477 874.621C150.334 874.311 150.158 874.099 149.95 873.986C149.748 873.864 149.496 873.814 149.193 873.836C148.794 873.866 148.484 874.017 148.263 874.289C148.05 874.554 147.955 874.958 147.979 875.501C147.985 875.806 148.005 876.085 148.04 876.339C148.096 876.888 148.249 877.278 148.498 877.509C148.756 877.739 149.084 877.839 149.483 877.81C149.794 877.787 150.041 877.705 150.223 877.563C150.405 877.414 150.544 877.175 150.64 876.847C150.674 876.764 150.709 876.702 150.746 876.659C150.791 876.615 150.854 876.591 150.934 876.585L151.987 876.508C152.067 876.502 152.136 876.525 152.196 876.577C152.264 876.62 152.297 876.686 152.295 876.774C152.297 876.919 152.27 877.085 152.211 877.274C152.16 877.454 152.066 877.645 151.928 877.848C151.798 878.042 151.627 878.227 151.415 878.403C151.203 878.571 150.941 878.714 150.629 878.833C150.324 878.952 149.965 879.026 149.55 879.056ZM156.375 878.558C155.49 878.623 154.769 878.419 154.213 877.946C153.657 877.473 153.325 876.767 153.216 875.829C153.202 875.75 153.191 875.65 153.182 875.53C153.173 875.403 153.17 875.303 153.172 875.23C153.161 874.63 153.258 874.101 153.466 873.645C153.681 873.188 153.996 872.828 154.409 872.565C154.823 872.294 155.321 872.138 155.903 872.095C156.549 872.048 157.102 872.144 157.561 872.383C158.019 872.614 158.377 872.961 158.635 873.424C158.893 873.878 159.045 874.416 159.09 875.039L159.108 875.29C159.114 875.37 159.091 875.44 159.04 875.5C158.988 875.56 158.918 875.593 158.83 875.599L154.857 875.889C154.857 875.889 154.858 875.901 154.859 875.925C154.861 875.949 154.863 875.969 154.864 875.985C154.892 876.264 154.963 876.519 155.076 876.752C155.197 876.975 155.358 877.152 155.56 877.282C155.77 877.411 156.011 877.466 156.282 877.446C156.505 877.429 156.691 877.384 156.837 877.309C156.984 877.226 157.102 877.137 157.191 877.042C157.28 876.948 157.343 876.871 157.379 876.812C157.444 876.711 157.495 876.651 157.534 876.632C157.58 876.605 157.647 876.588 157.735 876.582L158.764 876.506C158.844 876.501 158.909 876.52 158.961 876.564C159.02 876.608 159.049 876.666 159.046 876.738C159.047 876.867 158.991 877.027 158.876 877.22C158.77 877.412 158.608 877.605 158.389 877.797C158.171 877.99 157.89 878.158 157.548 878.304C157.213 878.441 156.822 878.525 156.375 878.558ZM154.783 874.884L157.428 874.691L157.426 874.655C157.403 874.344 157.331 874.076 157.211 873.853C157.09 873.629 156.925 873.456 156.716 873.335C156.506 873.214 156.262 873.164 155.983 873.184C155.703 873.205 155.469 873.29 155.28 873.44C155.09 873.59 154.952 873.785 154.865 874.024C154.786 874.262 154.758 874.537 154.781 874.848L154.783 874.884Z" fill="#151515"/>
<rect x="312.292" y="864.685" width="84" height="29" rx="14.5" transform="rotate(6.51747 312.292 864.685)" fill="#428BC1"/>
<path d="M326.181 885.516C325.473 885.435 324.879 885.25 324.396 884.962C323.915 884.665 323.559 884.258 323.328 883.74C323.098 883.215 323.013 882.585 323.073 881.851C323.104 881.509 323.138 881.17 323.177 880.836C323.215 880.503 323.258 880.161 323.306 879.812C323.412 879.092 323.64 878.506 323.99 878.055C324.339 877.603 324.782 877.284 325.319 877.095C325.864 876.908 326.478 876.853 327.162 876.931C327.845 877.01 328.431 877.201 328.92 877.507C329.408 877.812 329.772 878.224 330.01 878.743C330.249 879.261 330.339 879.883 330.28 880.609C330.256 880.961 330.225 881.303 330.187 881.637C330.149 881.971 330.102 882.308 330.047 882.648C329.94 883.377 329.715 883.971 329.373 884.431C329.031 884.883 328.588 885.199 328.044 885.378C327.509 885.551 326.888 885.596 326.181 885.516ZM326.337 884.145C326.854 884.204 327.293 884.101 327.653 883.836C328.014 883.563 328.246 883.082 328.349 882.394C328.405 882.046 328.45 881.725 328.483 881.431C328.518 881.129 328.547 880.806 328.57 880.462C328.607 879.999 328.562 879.616 328.436 879.311C328.318 879 328.136 878.766 327.888 878.609C327.641 878.444 327.347 878.342 327.005 878.303C326.671 878.264 326.365 878.298 326.088 878.403C325.811 878.5 325.576 878.687 325.383 878.963C325.2 879.232 325.074 879.596 325.005 880.055C324.958 880.396 324.917 880.717 324.883 881.019C324.849 881.313 324.816 881.636 324.784 881.986C324.729 882.681 324.847 883.201 325.137 883.549C325.429 883.888 325.829 884.086 326.337 884.145ZM333.421 886.343C332.937 886.287 332.528 886.132 332.194 885.877C331.87 885.614 331.635 885.273 331.49 884.854C331.346 884.427 331.305 883.939 331.367 883.391L331.75 880.04C331.759 879.961 331.795 879.897 331.857 879.847C331.919 879.798 331.989 879.778 332.069 879.787L333.118 879.907C333.205 879.917 333.27 879.952 333.311 880.013C333.36 880.075 333.381 880.146 333.372 880.226L332.997 883.504C332.884 884.49 333.261 885.032 334.128 885.131C334.541 885.178 334.882 885.084 335.15 884.849C335.427 884.615 335.591 884.268 335.644 883.807L336.018 880.528C336.027 880.449 336.063 880.384 336.125 880.335C336.187 880.286 336.258 880.266 336.337 880.275L337.386 880.394C337.466 880.404 337.53 880.439 337.579 880.501C337.629 880.563 337.649 880.634 337.64 880.713L336.997 886.341C336.988 886.42 336.952 886.485 336.89 886.534C336.828 886.583 336.758 886.603 336.678 886.594L335.712 886.484C335.625 886.474 335.557 886.438 335.507 886.376C335.466 886.315 335.45 886.244 335.459 886.165L335.515 885.676C335.268 885.93 334.977 886.118 334.641 886.241C334.305 886.363 333.898 886.397 333.421 886.343ZM341.341 887.127C340.864 887.072 340.472 886.943 340.165 886.739C339.858 886.535 339.644 886.261 339.522 885.917C339.402 885.565 339.369 885.142 339.426 884.649L339.735 881.943L338.793 881.835C338.713 881.826 338.649 881.791 338.6 881.729C338.551 881.667 338.53 881.596 338.54 881.517L338.619 880.825C338.628 880.746 338.663 880.681 338.725 880.632C338.787 880.583 338.858 880.563 338.937 880.572L339.879 880.679L340.105 878.7C340.114 878.621 340.146 878.556 340.2 878.506C340.262 878.456 340.337 878.437 340.424 878.447L341.39 878.557C341.469 878.566 341.534 878.602 341.583 878.664C341.632 878.726 341.652 878.796 341.643 878.876L341.417 880.855L342.908 881.025C342.987 881.034 343.051 881.07 343.101 881.132C343.15 881.194 343.17 881.265 343.161 881.344L343.082 882.036C343.073 882.115 343.037 882.179 342.975 882.229C342.913 882.278 342.843 882.298 342.763 882.289L341.273 882.119L340.977 884.706C340.94 885.032 340.967 885.292 341.057 885.488C341.155 885.684 341.348 885.799 341.634 885.832L342.456 885.926C342.536 885.935 342.6 885.97 342.65 886.032C342.699 886.094 342.719 886.165 342.71 886.245L342.625 886.984C342.616 887.063 342.581 887.128 342.519 887.177C342.457 887.226 342.386 887.246 342.307 887.237L341.341 887.127ZM346.319 887.816C345.747 887.751 345.255 887.586 344.842 887.321C344.437 887.058 344.135 886.709 343.935 886.276C343.743 885.835 343.669 885.323 343.712 884.74C343.717 884.62 343.731 884.465 343.753 884.274C343.775 884.075 343.798 883.913 343.821 883.787C343.911 883.209 344.098 882.731 344.383 882.353C344.676 881.968 345.05 881.693 345.504 881.527C345.966 881.363 346.483 881.313 347.055 881.378C347.563 881.436 347.988 881.557 348.33 881.741C348.671 881.925 348.945 882.138 349.151 882.379C349.357 882.62 349.502 882.866 349.586 883.117C349.679 883.361 349.718 883.579 349.704 883.77C349.702 883.859 349.666 883.927 349.596 883.976C349.535 884.017 349.465 884.033 349.386 884.024L348.336 883.904C348.257 883.895 348.196 883.868 348.152 883.823C348.117 883.778 348.084 883.714 348.054 883.63C347.971 883.299 347.837 883.058 347.653 882.908C347.478 882.751 347.239 882.655 346.937 882.621C346.54 882.575 346.207 882.666 345.94 882.893C345.681 883.114 345.513 883.493 345.435 884.032C345.385 884.332 345.353 884.61 345.34 884.866C345.293 885.416 345.371 885.828 345.573 886.101C345.783 886.374 346.087 886.534 346.485 886.579C346.795 886.615 347.052 886.58 347.258 886.474C347.464 886.361 347.645 886.152 347.8 885.848C347.849 885.773 347.896 885.718 347.94 885.683C347.992 885.648 348.058 885.636 348.138 885.645L349.187 885.765C349.266 885.774 349.331 885.809 349.38 885.871C349.438 885.926 349.458 885.997 349.44 886.083C349.416 886.226 349.357 886.384 349.265 886.559C349.181 886.726 349.053 886.897 348.88 887.07C348.717 887.237 348.514 887.387 348.273 887.52C348.034 887.646 347.749 887.738 347.421 887.797C347.1 887.857 346.733 887.864 346.319 887.816ZM353.19 888.601C352.554 888.529 352.03 888.356 351.619 888.084C351.215 887.812 350.921 887.46 350.737 887.029C350.56 886.598 350.487 886.11 350.517 885.566C350.526 885.422 350.542 885.247 350.565 885.04C350.589 884.834 350.613 884.659 350.637 884.517C350.732 883.972 350.917 883.514 351.193 883.143C351.477 882.765 351.847 882.489 352.302 882.316C352.764 882.143 353.306 882.092 353.926 882.163C354.546 882.234 355.057 882.405 355.461 882.677C355.873 882.949 356.171 883.301 356.355 883.733C356.548 884.158 356.629 884.646 356.598 885.198C356.59 885.342 356.574 885.517 356.55 885.724C356.527 885.931 356.503 886.105 356.478 886.247C356.385 886.784 356.2 887.242 355.923 887.621C355.654 888.001 355.288 888.277 354.826 888.45C354.371 888.624 353.826 888.674 353.19 888.601ZM353.325 887.421C353.746 887.469 354.087 887.375 354.347 887.139C354.609 886.895 354.781 886.516 354.864 886.003C354.885 885.884 354.907 885.73 354.929 885.539C354.951 885.348 354.964 885.193 354.97 885.073C355.004 884.561 354.922 884.157 354.722 883.861C354.522 883.564 354.212 883.392 353.791 883.344C353.369 883.295 353.028 883.393 352.767 883.637C352.505 883.881 352.334 884.256 352.252 884.762C352.23 884.88 352.209 885.035 352.187 885.226C352.165 885.416 352.151 885.572 352.146 885.692C352.11 886.211 352.193 886.619 352.392 886.916C352.593 887.204 352.904 887.373 353.325 887.421ZM357.803 889.008C357.724 888.998 357.659 888.963 357.61 888.901C357.561 888.839 357.541 888.768 357.55 888.689L358.193 883.061C358.202 882.982 358.237 882.917 358.299 882.868C358.361 882.819 358.432 882.799 358.512 882.808L359.442 882.914C359.521 882.923 359.585 882.959 359.635 883.021C359.684 883.083 359.704 883.153 359.695 883.233L359.649 883.638C359.841 883.435 360.085 883.273 360.38 883.154C360.685 883.028 361.032 882.983 361.422 883.02C362.33 883.107 362.922 883.533 363.197 884.297C363.416 884 363.707 883.776 364.071 883.624C364.443 883.465 364.84 883.41 365.261 883.458C365.675 883.505 366.037 883.644 366.349 883.872C366.669 884.102 366.903 884.423 367.049 884.834C367.204 885.238 367.248 885.734 367.181 886.323L366.79 889.744C366.781 889.824 366.745 889.888 366.683 889.937C366.621 889.987 366.55 890.007 366.471 889.998L365.493 889.886C365.414 889.877 365.349 889.841 365.3 889.779C365.251 889.718 365.231 889.647 365.24 889.567L365.62 886.241C365.661 885.883 365.641 885.595 365.562 885.377C365.483 885.15 365.361 884.983 365.196 884.876C365.031 884.769 364.841 884.703 364.627 884.678C364.452 884.658 364.272 884.682 364.087 884.749C363.902 884.817 363.742 884.951 363.606 885.153C363.471 885.347 363.384 885.623 363.343 885.981L362.963 889.307C362.954 889.387 362.918 889.451 362.856 889.5C362.794 889.55 362.723 889.57 362.644 889.561L361.666 889.449C361.579 889.439 361.51 889.403 361.461 889.341C361.42 889.28 361.404 889.21 361.413 889.13L361.793 885.804C361.834 885.446 361.81 885.157 361.723 884.938C361.636 884.711 361.51 884.543 361.345 884.436C361.18 884.329 360.998 884.264 360.8 884.241C360.617 884.22 360.433 884.247 360.247 884.323C360.062 884.39 359.902 884.521 359.767 884.715C359.632 884.909 359.544 885.184 359.504 885.542L359.124 888.869C359.115 888.948 359.079 889.012 359.017 889.062C358.955 889.111 358.884 889.131 358.805 889.122L357.803 889.008ZM370.932 890.628C370.05 890.527 369.38 890.193 368.921 889.626C368.463 889.058 368.267 888.303 368.334 887.36C368.336 887.28 368.343 887.18 368.357 887.061C368.371 886.934 368.386 886.835 368.403 886.764C368.502 886.172 368.697 885.67 368.985 885.261C369.281 884.852 369.657 884.556 370.113 884.375C370.569 884.185 371.088 884.124 371.668 884.19C372.312 884.264 372.837 884.461 373.243 884.781C373.65 885.093 373.938 885.5 374.106 886.003C374.275 886.497 374.324 887.054 374.253 887.674L374.224 887.924C374.215 888.004 374.18 888.068 374.118 888.118C374.056 888.167 373.981 888.187 373.894 888.177L369.935 887.724C369.935 887.724 369.934 887.736 369.931 887.76C369.929 887.784 369.926 887.804 369.925 887.82C369.901 888.099 369.923 888.363 369.991 888.612C370.068 888.855 370.194 889.058 370.368 889.223C370.551 889.389 370.777 889.487 371.047 889.518C371.27 889.544 371.46 889.533 371.618 889.487C371.778 889.432 371.91 889.367 372.015 889.291C372.121 889.214 372.196 889.15 372.242 889.099C372.325 889.012 372.387 888.963 372.428 888.951C372.479 888.933 372.548 888.929 372.635 888.939L373.66 889.056C373.74 889.065 373.801 889.096 373.843 889.149C373.893 889.203 373.91 889.265 373.894 889.336C373.872 889.462 373.786 889.61 373.638 889.778C373.498 889.947 373.303 890.106 373.052 890.254C372.802 890.403 372.495 890.517 372.132 890.596C371.777 890.668 371.377 890.679 370.932 890.628ZM370.05 886.723L372.685 887.024L372.689 886.988C372.724 886.678 372.703 886.402 372.626 886.16C372.549 885.917 372.419 885.717 372.236 885.559C372.053 885.402 371.822 885.307 371.544 885.275C371.266 885.243 371.02 885.284 370.805 885.396C370.591 885.508 370.419 885.674 370.29 885.893C370.168 886.112 370.089 886.377 370.054 886.687L370.05 886.723ZM377.491 891.378C377.015 891.323 376.612 891.221 376.282 891.07C375.961 890.921 375.703 890.751 375.508 890.559C375.312 890.368 375.172 890.183 375.088 890.004C375.004 889.825 374.964 889.68 374.969 889.568C374.971 889.479 375.002 889.414 375.063 889.373C375.133 889.325 375.204 889.305 375.275 889.313L376.217 889.42C376.249 889.424 376.277 889.431 376.299 889.442C376.322 889.452 376.351 889.48 376.387 889.524C376.48 889.623 376.577 889.727 376.677 889.835C376.786 889.944 376.915 890.044 377.066 890.133C377.218 890.215 377.413 890.27 377.651 890.297C377.961 890.332 378.226 890.302 378.447 890.206C378.676 890.104 378.803 889.937 378.83 889.707C378.849 889.54 378.817 889.399 378.733 889.285C378.657 889.172 378.501 889.061 378.264 888.954C378.027 888.838 377.688 888.707 377.246 888.56C376.812 888.405 376.458 888.232 376.182 888.039C375.906 887.847 375.71 887.623 375.594 887.368C375.478 887.114 375.439 886.827 375.475 886.509C375.51 886.199 375.635 885.916 375.85 885.658C376.073 885.394 376.378 885.191 376.765 885.05C377.159 884.91 377.631 884.871 378.179 884.934C378.608 884.983 378.976 885.081 379.281 885.229C379.587 885.369 379.834 885.53 380.023 885.712C380.219 885.896 380.364 886.077 380.456 886.257C380.549 886.429 380.593 886.575 380.587 886.695C380.585 886.783 380.553 886.852 380.491 886.901C380.43 886.942 380.364 886.959 380.292 886.951L379.41 886.85C379.37 886.846 379.335 886.834 379.305 886.814C379.275 886.794 379.246 886.771 379.217 886.743C379.138 886.654 379.052 886.56 378.959 886.46C378.866 886.361 378.747 886.271 378.603 886.19C378.469 886.102 378.282 886.045 378.043 886.018C377.741 885.983 377.503 886.024 377.329 886.141C377.155 886.25 377.057 886.404 377.034 886.603C377.019 886.738 377.041 886.861 377.101 886.973C377.169 887.077 377.314 887.186 377.535 887.3C377.755 887.414 378.094 887.545 378.552 887.694C379.074 887.85 379.479 888.042 379.767 888.268C380.064 888.487 380.262 888.727 380.361 888.988C380.469 889.242 380.506 889.516 380.473 889.81C380.432 890.168 380.288 890.477 380.04 890.739C379.801 891.001 379.465 891.192 379.033 891.312C378.609 891.425 378.096 891.447 377.491 891.378Z" fill="white"/>
</g>
<defs>
<filter id="filter0_f_29_62" x="-727.19" y="168.948" width="950.504" height="950.504" filterUnits="userSpaceOnUse" color-interpolation-filters="sRGB">
<feFlood flood-opacity="0" result="BackgroundImageFix"/>
<feBlend mode="normal" in="SourceGraphic" in2="BackgroundImageFix" result="shape"/>
<feGaussianBlur stdDeviation="148.384" result="effect1_foregroundBlur_29_62"/>
</filter>
<filter id="filter1_f_29_62" x="-896.772" y="-16.7431" width="950.504" height="950.504" filterUnits="userSpaceOnUse" color-interpolation-filters="sRGB">
<feFlood flood-opacity="0" result="BackgroundImageFix"/>
<feBlend mode="normal" in="SourceGraphic" in2="BackgroundImageFix" result="shape"/>
<feGaussianBlur stdDeviation="148.384" result="effect1_foregroundBlur_29_62"/>
</filter>
<filter id="filter2_f_29_62" x="-580.503" y="-178.693" width="950.504" height="950.504" filterUnits="userSpaceOnUse" color-interpolation-filters="sRGB">
<feFlood flood-opacity="0" result="BackgroundImageFix"/>
<feBlend mode="normal" in="SourceGraphic" in2="BackgroundImageFix" result="shape"/>
<feGaussianBlur stdDeviation="148.384" result="effect1_foregroundBlur_29_62"/>
</filter>
<filter id="filter3_f_29_62" x="-278.648" y="-221.089" width="950.504" height="950.504" filterUnits="userSpaceOnUse" color-interpolation-filters="sRGB">
<feFlood flood-opacity="0" result="BackgroundImageFix"/>
<feBlend mode="normal" in="SourceGraphic" in2="BackgroundImageFix" result="shape"/>
<feGaussianBlur stdDeviation="148.384" result="effect1_foregroundBlur_29_62"/>
</filter>
<filter id="filter4_f_29_62" x="-566.768" y="143.981" width="950.504" height="950.504" filterUnits="userSpaceOnUse" color-interpolation-filters="sRGB">
<feFlood flood-opacity="0" result="BackgroundImageFix"/>
<feBlend mode="normal" in="SourceGraphic" in2="BackgroundImageFix" result="shape"/>
<feGaussianBlur stdDeviation="148.384" result="effect1_foregroundBlur_29_62"/>
</filter>
<filter id="filter5_f_29_62" x="-381.076" y="313.563" width="950.504" height="950.504" filterUnits="userSpaceOnUse" color-interpolation-filters="sRGB">
<feFlood flood-opacity="0" result="BackgroundImageFix"/>
<feBlend mode="normal" in="SourceGraphic" in2="BackgroundImageFix" result="shape"/>
<feGaussianBlur stdDeviation="148.384" result="effect1_foregroundBlur_29_62"/>
</filter>
<filter id="filter6_f_29_62" x="-219.126" y="-2.707" width="950.504" height="950.504" filterUnits="userSpaceOnUse" color-interpolation-filters="sRGB">
<feFlood flood-opacity="0" result="BackgroundImageFix"/>
<feBlend mode="normal" in="SourceGraphic" in2="BackgroundImageFix" result="shape"/>
<feGaussianBlur stdDeviation="148.384" result="effect1_foregroundBlur_29_62"/>
</filter>
<filter id="filter7_f_29_62" x="-176.731" y="-304.561" width="950.504" height="950.504" filterUnits="userSpaceOnUse" color-interpolation-filters="sRGB">
<feFlood flood-opacity="0" result="BackgroundImageFix"/>
<feBlend mode="normal" in="SourceGraphic" in2="BackgroundImageFix" result="shape"/>
<feGaussianBlur stdDeviation="148.384" result="effect1_foregroundBlur_29_62"/>
</filter>
<clipPath id="clip0_29_62">
<rect width="428" height="922" fill="white" transform="translate(0 0.68457)"/>
</clipPath>
</defs>
</svg>
