<svg width="137" height="47" viewBox="0 0 137 47" fill="none" xmlns="http://www.w3.org/2000/svg">
<rect x="0.501953" y="17.5273" width="133" height="29" rx="14.5" transform="rotate(-7.15312 0.501953 17.5273)" fill="#059E93"/>
<path d="M18.9335 34.4842C18.1953 34.5769 17.5522 34.5286 17.0044 34.3393C16.4635 34.1411 16.0282 33.8208 15.6986 33.3784C15.3679 32.9281 15.1444 32.3676 15.028 31.6968C14.9792 31.3724 14.9314 31.0236 14.8846 30.6505C14.8378 30.2775 14.7969 29.9198 14.762 29.5775C14.7101 28.9067 14.7887 28.3123 14.9978 27.7942C15.2148 27.2752 15.5614 26.8567 16.0376 26.539C16.5207 26.2123 17.1273 26.0031 17.8576 25.9115C18.3974 25.8437 18.8905 25.8544 19.3371 25.9435C19.7837 26.0326 20.1737 26.1852 20.5072 26.4013C20.8397 26.6096 21.1103 26.8699 21.3188 27.1824C21.5273 27.4948 21.66 27.845 21.7167 28.233C21.7336 28.3034 21.7173 28.3659 21.6677 28.4205C21.626 28.4742 21.5695 28.5054 21.4981 28.5144L20.3669 28.6564C20.2796 28.6673 20.2057 28.6564 20.1451 28.6237C20.0836 28.5831 20.0344 28.5126 19.9977 28.4124C19.8049 27.9045 19.5418 27.5747 19.2083 27.423C18.8749 27.2714 18.4779 27.2244 18.0175 27.2822C17.4857 27.349 17.08 27.5531 16.8003 27.8945C16.5197 28.2281 16.4103 28.7377 16.4721 29.4233C16.53 30.0772 16.6137 30.744 16.7232 31.4236C16.8326 32.1033 17.0651 32.574 17.4204 32.8358C17.7748 33.0896 18.2179 33.1832 18.7497 33.1164C19.2101 33.0587 19.5831 32.9151 19.8688 32.6857C20.1535 32.4485 20.3269 32.0639 20.3892 31.532C20.399 31.4179 20.4293 31.3375 20.4799 31.2908C20.5304 31.2441 20.5994 31.2153 20.6867 31.2044L21.8178 31.0624C21.8893 31.0535 21.9518 31.0698 22.0054 31.1114C22.0669 31.1521 22.0982 31.2086 22.0992 31.2811C22.1401 31.671 22.0981 32.0431 21.9733 32.3974C21.8484 32.7518 21.6511 33.0748 21.3814 33.3667C21.1106 33.6506 20.7699 33.8909 20.3592 34.0876C19.9485 34.2843 19.4732 34.4165 18.9335 34.4842ZM26.0131 33.5957C25.5289 33.6565 25.0947 33.6021 24.7106 33.4326C24.3335 33.2542 24.0247 32.9785 23.7844 32.6055C23.5431 32.2246 23.3881 31.7603 23.3193 31.2126L22.8995 27.8669C22.8895 27.7875 22.9088 27.7165 22.9574 27.654C23.006 27.5914 23.07 27.5552 23.1494 27.5452L24.1971 27.4137C24.2845 27.4028 24.3554 27.4221 24.41 27.4717C24.4725 27.5203 24.5088 27.5843 24.5188 27.6636L24.9297 30.938C25.0532 31.9222 25.5476 32.3601 26.4128 32.2515C26.8255 32.1997 27.1346 32.0279 27.3398 31.7361C27.553 31.4432 27.6307 31.0666 27.5729 30.6062L27.162 27.3319C27.1521 27.2525 27.1714 27.1816 27.22 27.119C27.2686 27.0565 27.3325 27.0203 27.4119 27.0103L28.4597 26.8788C28.5391 26.8688 28.61 26.8882 28.6726 26.9367C28.7351 26.9853 28.7714 27.0493 28.7813 27.1287L29.4866 32.7486C29.4966 32.828 29.4773 32.8989 29.4287 32.9615C29.3801 33.024 29.3161 33.0603 29.2367 33.0702L28.2723 33.1913C28.185 33.2022 28.11 33.1834 28.0475 33.1348C27.9929 33.0852 27.9606 33.0207 27.9507 32.9414L27.8894 32.4532C27.7099 32.7579 27.4714 33.0096 27.1738 33.2082C26.8763 33.4068 26.4893 33.536 26.0131 33.5957ZM33.4558 32.6617C32.9795 32.7215 32.5638 32.7172 32.2085 32.6489C31.8612 32.5796 31.5699 32.4751 31.3347 32.3353C31.0994 32.1955 30.9197 32.0487 30.7956 31.895C30.6715 31.7412 30.5985 31.6093 30.5766 31.4992C30.5577 31.4128 30.5731 31.3424 30.6227 31.2878C30.6792 31.2242 30.7432 31.188 30.8146 31.179L31.7552 31.061C31.787 31.057 31.8153 31.0575 31.8401 31.0624C31.8649 31.0674 31.8996 31.0872 31.9443 31.1219C32.0585 31.1963 32.1771 31.2741 32.3002 31.3554C32.4312 31.4357 32.5805 31.5016 32.7483 31.5532C32.915 31.5967 33.1174 31.6036 33.3555 31.5737C33.6651 31.5349 33.9156 31.4429 34.1071 31.298C34.3054 31.1441 34.3902 30.952 34.3613 30.7218C34.3404 30.5551 34.2758 30.4262 34.1676 30.3349C34.0673 30.2427 33.8892 30.1723 33.6332 30.1238C33.3761 30.0674 33.0154 30.02 32.551 29.9815C32.0936 29.9341 31.708 29.8494 31.3944 29.7275C31.0808 29.6056 30.8376 29.4346 30.6648 29.2144C30.4921 28.9942 30.3857 28.7253 30.3459 28.4078C30.3071 28.0983 30.3615 27.7931 30.5092 27.4924C30.6638 27.1827 30.9123 26.9137 31.2545 26.6853C31.6046 26.4559 32.0536 26.3068 32.6013 26.2381C33.0299 26.1843 33.41 26.193 33.7414 26.2643C34.0719 26.3277 34.3503 26.4258 34.5766 26.5586C34.8108 26.6905 34.994 26.8328 35.126 26.9855C35.2571 27.1303 35.334 27.2618 35.3569 27.3798C35.3758 27.4662 35.3609 27.5406 35.3124 27.6031C35.2628 27.6577 35.2023 27.6895 35.1308 27.6985L34.2497 27.8091C34.21 27.814 34.1733 27.8106 34.1396 27.7987C34.1058 27.7868 34.0716 27.7709 34.0369 27.7511C33.9396 27.6827 33.8339 27.6113 33.7197 27.5369C33.6056 27.4626 33.4691 27.4031 33.3103 27.3585C33.1585 27.305 32.9635 27.2932 32.7254 27.3231C32.4237 27.3609 32.202 27.4573 32.0602 27.6122C31.9174 27.7591 31.8584 27.9318 31.8833 28.1302C31.9002 28.2652 31.9509 28.3798 32.0353 28.474C32.1266 28.5593 32.2929 28.6311 32.534 28.6896C32.7752 28.748 33.1359 28.7954 33.6162 28.8319C34.1599 28.8604 34.5986 28.9505 34.9321 29.1022C35.2725 29.2449 35.5216 29.4313 35.6795 29.6614C35.8443 29.8826 35.9452 30.1401 35.982 30.4338C36.0269 30.791 35.9601 31.1259 35.7816 31.4386C35.6111 31.7502 35.3299 32.0153 34.9381 32.2338C34.5532 32.4433 34.0591 32.586 33.4558 32.6617ZM40.2071 31.6935C39.7308 31.7532 39.3195 31.7202 38.9731 31.5944C38.6268 31.4685 38.3538 31.2528 38.1542 30.9473C37.9536 30.6338 37.8224 30.231 37.7606 29.7389L37.4214 27.0361L36.4808 27.1541C36.4014 27.1641 36.3305 27.1448 36.268 27.0962C36.2054 27.0476 36.1692 26.9836 36.1592 26.9042L36.0725 26.2137C36.0626 26.1343 36.0819 26.0633 36.1305 26.0008C36.1791 25.9383 36.2431 25.902 36.3224 25.892L37.2631 25.774L37.015 23.7975C37.005 23.7181 37.0204 23.6477 37.061 23.5861C37.1096 23.5236 37.1776 23.4868 37.2649 23.4759L38.2293 23.3548C38.3087 23.3449 38.3797 23.3642 38.4422 23.4128C38.5047 23.4614 38.541 23.5254 38.551 23.6047L38.799 25.5812L40.2873 25.3945C40.3667 25.3845 40.4377 25.4038 40.5002 25.4524C40.5627 25.501 40.599 25.565 40.609 25.6443L40.6956 26.3349C40.7056 26.4143 40.6863 26.4853 40.6377 26.5478C40.5891 26.6103 40.5251 26.6466 40.4457 26.6566L38.9574 26.8433L39.2816 29.4271C39.3225 29.7525 39.4099 29.9995 39.544 30.1682C39.686 30.3358 39.8998 30.4017 40.1856 30.3658L41.0071 30.2627C41.0865 30.2528 41.1575 30.2721 41.22 30.3207C41.2825 30.3692 41.3188 30.4332 41.3288 30.5126L41.4214 31.2508C41.4314 31.3302 41.412 31.4012 41.3635 31.4637C41.3149 31.5262 41.2509 31.5625 41.1715 31.5724L40.2071 31.6935ZM45.267 31.1794C44.632 31.2591 44.0822 31.2152 43.6177 31.0477C43.1612 30.8793 42.7924 30.6071 42.5114 30.2311C42.2384 29.8542 42.0521 29.3979 41.9526 28.8621C41.9267 28.7202 41.9009 28.5461 41.875 28.3397C41.8491 28.1333 41.8311 27.9582 41.8211 27.8143C41.7841 27.2626 41.8558 26.7739 42.0362 26.3481C42.2235 25.9134 42.5176 25.558 42.9183 25.282C43.327 25.0049 43.8409 24.8275 44.4601 24.7498C45.0792 24.6721 45.6171 24.7175 46.0736 24.886C46.538 25.0535 46.9108 25.3252 47.1918 25.7011C47.4797 26.0681 47.6739 26.5234 47.7744 27.0672C47.8003 27.2091 47.8262 27.3832 47.8521 27.5896C47.878 27.7959 47.8959 27.9711 47.9059 28.1149C47.9419 28.6587 47.8702 29.1474 47.6908 29.5811C47.5194 30.0139 47.2293 30.3687 46.8206 30.6458C46.4199 30.9218 45.902 31.0997 45.267 31.1794ZM45.119 30.0007C45.5397 29.9479 45.8487 29.776 46.0461 29.4852C46.2424 29.1864 46.3201 28.7776 46.2791 28.2586C46.2721 28.1386 46.2567 27.9833 46.2328 27.7928C46.2089 27.6023 46.1855 27.448 46.1626 27.3299C46.075 26.8249 45.8992 26.4519 45.6351 26.2109C45.3711 25.9699 45.0287 25.8758 44.608 25.9286C44.1873 25.9814 43.8788 26.1572 43.6825 26.4559C43.4861 26.7547 43.4079 27.1596 43.4479 27.6706C43.4549 27.7907 43.4704 27.946 43.4943 28.1365C43.5182 28.327 43.5416 28.4813 43.5644 28.5993C43.653 29.1123 43.8293 29.4893 44.0934 29.7303C44.3565 29.9633 44.6983 30.0534 45.119 30.0007ZM49.8456 30.4839C49.7662 30.4938 49.6952 30.4745 49.6327 30.4259C49.5701 30.3773 49.5339 30.3133 49.5239 30.234L48.8186 24.614C48.8087 24.5347 48.828 24.4637 48.8766 24.4012C48.9252 24.3386 48.9892 24.3024 49.0685 24.2924L49.9973 24.1759C50.0766 24.1659 50.1476 24.1852 50.2101 24.2338C50.2727 24.2824 50.3089 24.3464 50.3189 24.4258L50.3697 24.8306C50.5085 24.5874 50.7073 24.373 50.9662 24.1873C51.2321 23.9927 51.559 23.867 51.9469 23.8103C52.8498 23.6808 53.5252 23.9549 53.973 24.6324C54.1158 24.2919 54.3458 24.0051 54.6632 23.7717C54.9876 23.5294 55.3601 23.3819 55.7808 23.3291C56.1936 23.2773 56.5786 23.3257 56.9359 23.4744C57.3011 23.6221 57.6034 23.8784 57.8427 24.2435C58.089 24.5996 58.249 25.0713 58.3227 25.6587L58.7516 29.0759C58.7615 29.1553 58.7422 29.2262 58.6936 29.2888C58.645 29.3513 58.581 29.3876 58.5017 29.3975L57.5253 29.5201C57.4459 29.53 57.375 29.5107 57.3124 29.4621C57.2499 29.4135 57.2137 29.3495 57.2037 29.2702L56.7868 25.9482C56.742 25.591 56.655 25.3157 56.5259 25.1223C56.3958 24.9209 56.238 24.7875 56.0524 24.7221C55.8668 24.6567 55.6669 24.6375 55.4525 24.6644C55.2779 24.6863 55.1088 24.7519 54.9451 24.8611C54.7814 24.9703 54.6575 25.1391 54.5732 25.3673C54.488 25.5877 54.4678 25.8764 54.5126 26.2336L54.9295 29.5556C54.9395 29.6349 54.9202 29.7059 54.8716 29.7684C54.823 29.831 54.759 29.8672 54.6796 29.8772L53.7033 29.9997C53.616 30.0107 53.5411 29.9919 53.4785 29.9433C53.4239 29.8937 53.3916 29.8292 53.3817 29.7498L52.9648 26.4279C52.92 26.0707 52.829 25.7959 52.692 25.6034C52.554 25.4031 52.3922 25.2702 52.2066 25.2048C52.021 25.1394 51.829 25.1191 51.6305 25.144C51.448 25.1669 51.2753 25.237 51.1127 25.3542C50.949 25.4634 50.8245 25.6282 50.7393 25.8485C50.6541 26.0688 50.6339 26.3576 50.6787 26.7148L51.0956 30.0367C51.1056 30.1161 51.0863 30.1871 51.0377 30.2496C50.9891 30.3121 50.9251 30.3484 50.8457 30.3583L49.8456 30.4839ZM62.9857 28.9557C62.1046 29.0663 61.3742 28.9 60.7945 28.4567C60.2148 28.0134 59.8463 27.326 59.6891 26.3943C59.6712 26.3159 59.6547 26.2172 59.6398 26.0981C59.6239 25.9711 59.6154 25.8714 59.6143 25.799C59.5714 25.1997 59.6416 24.6668 59.8249 24.2003C60.0162 23.7329 60.3117 23.3571 60.7115 23.0731C61.1102 22.7812 61.5993 22.5989 62.1788 22.5262C62.8217 22.4455 63.3784 22.5127 63.8489 22.7278C64.3183 22.9349 64.6941 23.2627 64.9761 23.7111C65.2571 24.1515 65.4365 24.6813 65.5142 25.3004L65.5456 25.5505C65.5555 25.6299 65.5362 25.7008 65.4876 25.7633C65.439 25.8259 65.3711 25.8626 65.2838 25.8736L61.3308 26.3697C61.3308 26.3697 61.3323 26.3816 61.3353 26.4054C61.3382 26.4292 61.3407 26.4491 61.3427 26.4649C61.3855 26.7418 61.4695 26.9933 61.5946 27.2194C61.7267 27.4367 61.897 27.6048 62.1054 27.7238C62.3218 27.8417 62.5649 27.8838 62.8348 27.8499C63.0571 27.822 63.2396 27.7669 63.3825 27.6844C63.5243 27.5941 63.6374 27.4993 63.7217 27.4C63.806 27.3007 63.8645 27.2208 63.8972 27.1603C63.9567 27.056 64.0053 26.9935 64.043 26.9727C64.0876 26.9429 64.1536 26.9225 64.2409 26.9115L65.2649 26.783C65.3442 26.7731 65.4107 26.7889 65.4643 26.8306C65.5259 26.8712 65.5572 26.9278 65.5582 27.0002C65.5662 27.1282 65.5181 27.2914 65.414 27.4899C65.3179 27.6875 65.1657 27.888 64.9574 28.0915C64.7491 28.295 64.4778 28.4782 64.1435 28.6411C63.8161 28.7951 63.4302 28.9 62.9857 28.9557ZM61.2053 25.3695L63.8366 25.0393L63.8321 25.0036C63.7933 24.694 63.7078 24.4306 63.5757 24.2134C63.4437 23.9961 63.2699 23.8325 63.0545 23.7224C62.8392 23.6124 62.5926 23.5748 62.3147 23.6097C62.0369 23.6445 61.8073 23.7419 61.6258 23.9017C61.4442 24.0616 61.3163 24.2631 61.242 24.5062C61.1757 24.7484 61.1619 25.0242 61.2008 25.3338L61.2053 25.3695ZM67.4613 28.2731C67.3819 28.2831 67.3109 28.2638 67.2484 28.2152C67.1859 28.1666 67.1496 28.1026 67.1397 28.0232L66.4359 22.4152C66.4249 22.3279 66.4437 22.253 66.4923 22.1904C66.5409 22.1279 66.6049 22.0916 66.6843 22.0817L67.6487 21.9606C67.7281 21.9507 67.799 21.97 67.8616 22.0186C67.9321 22.0662 67.9728 22.1336 67.9837 22.221L68.045 22.7091C68.1957 22.4322 68.4054 22.2083 68.6743 22.0375C68.951 21.8657 69.2799 21.7559 69.6609 21.7081L70.1491 21.6469C70.2364 21.6359 70.3074 21.6552 70.362 21.7048C70.4245 21.7534 70.4608 21.8174 70.4707 21.8968L70.5783 22.754C70.5883 22.8334 70.5689 22.9044 70.5204 22.9669C70.4797 23.0284 70.4157 23.0647 70.3284 23.0756L69.3997 23.1922C69.0187 23.24 68.7345 23.3845 68.547 23.6257C68.3676 23.866 68.3012 24.1726 68.348 24.5457L68.759 27.82C68.7689 27.8994 68.7496 27.9703 68.701 28.0329C68.6524 28.0954 68.5845 28.1322 68.4972 28.1431L67.4613 28.2731ZM77.6567 27.1146C76.9184 27.2072 76.2858 27.1777 75.7589 27.0262C75.2388 26.8657 74.8259 26.6273 74.5202 26.3109C74.2213 25.9855 74.0396 25.6294 73.9749 25.2424C73.9659 25.171 73.9823 25.1085 74.0239 25.0549C74.0656 25.0013 74.1221 24.97 74.1935 24.961L75.2532 24.828C75.3564 24.8151 75.4348 24.8294 75.4884 24.8711C75.549 24.9038 75.6031 24.9494 75.6507 25.0079C75.7173 25.1528 75.8275 25.2921 75.9814 25.426C76.1342 25.552 76.3317 25.6481 76.5739 25.7145C76.824 25.7799 77.1276 25.7901 77.4848 25.7453C78.0563 25.6736 78.469 25.525 78.723 25.2997C78.9848 25.0733 79.0953 24.7974 79.0545 24.4719C79.0256 24.2417 78.9273 24.0686 78.7595 23.9526C78.5908 23.8287 78.3407 23.7311 78.0092 23.6598C77.6847 23.5796 77.2565 23.5083 76.7246 23.4461C76.1113 23.3779 75.5898 23.27 75.1601 23.1224C74.7373 22.9658 74.4033 22.7457 74.1581 22.462C73.9208 22.1773 73.7723 21.7969 73.7125 21.3206C73.6547 20.8602 73.7264 20.436 73.9277 20.0479C74.1369 19.6588 74.4587 19.3322 74.8932 19.068C75.3356 18.8029 75.8783 18.63 76.5213 18.5493C77.0372 18.4845 77.5026 18.4987 77.9174 18.5918C78.3312 18.6769 78.6836 18.8181 78.9744 19.0154C79.2642 19.2048 79.4931 19.422 79.6609 19.667C79.8356 19.9031 79.9424 20.1437 79.9812 20.3888C79.9892 20.4523 79.9729 20.5148 79.9322 20.5763C79.8985 20.6289 79.842 20.6602 79.7626 20.6702L78.6553 20.8091C78.5918 20.8171 78.5263 20.8092 78.4588 20.7854C78.3913 20.7616 78.3322 20.7086 78.2816 20.6262C78.2031 20.3862 78.0219 20.1952 77.738 20.0535C77.4542 19.9117 77.1059 19.8667 76.6931 19.9185C76.2645 19.9723 75.9291 20.095 75.6871 20.2867C75.4451 20.4783 75.345 20.7408 75.3868 21.0742C75.4147 21.2964 75.5016 21.475 75.6476 21.6099C75.8004 21.7358 76.0267 21.8364 76.3264 21.9117C76.6341 21.986 77.034 22.0567 77.5262 22.124C78.2198 22.1901 78.7934 22.2955 79.247 22.4401C79.7005 22.5848 80.0459 22.7995 80.2832 23.0841C80.5195 23.3609 80.6671 23.7334 80.7258 24.2017C80.7916 24.7256 80.705 25.192 80.466 25.6009C80.234 26.001 79.8765 26.3321 79.3934 26.5943C78.9103 26.8564 78.3314 27.0299 77.6567 27.1146ZM84.5577 26.2485C84.0735 26.3093 83.6394 26.2549 83.2553 26.0854C82.8781 25.907 82.5694 25.6313 82.3291 25.2583C82.0878 24.8774 81.9328 24.4131 81.864 23.8654L81.4441 20.5196C81.4342 20.4402 81.4535 20.3693 81.5021 20.3067C81.5507 20.2442 81.6147 20.2079 81.694 20.198L82.7418 20.0665C82.8291 20.0555 82.9001 20.0748 82.9547 20.1244C83.0172 20.173 83.0535 20.237 83.0634 20.3164L83.4744 23.5907C83.5979 24.575 84.0922 25.0128 84.9575 24.9042C85.3702 24.8524 85.6792 24.6806 85.8845 24.3888C86.0977 24.096 86.1754 23.7194 86.1176 23.259L85.7067 19.9847C85.6967 19.9053 85.7161 19.8343 85.7646 19.7718C85.8132 19.7093 85.8772 19.673 85.9566 19.663L87.0044 19.5315C87.0838 19.5216 87.1547 19.5409 87.2172 19.5895C87.2798 19.6381 87.316 19.7021 87.326 19.7814L88.0313 25.4014C88.0412 25.4807 88.0219 25.5517 87.9733 25.6142C87.9248 25.6768 87.8608 25.713 87.7814 25.723L86.817 25.844C86.7296 25.855 86.6547 25.8362 86.5922 25.7876C86.5376 25.738 86.5053 25.6735 86.4953 25.5941L86.4341 25.1059C86.2546 25.4107 86.0161 25.6623 85.7185 25.8609C85.4209 26.0595 85.034 26.1887 84.5577 26.2485ZM92.3339 25.2726C91.7623 25.3443 91.2449 25.3004 90.7814 25.1409C90.3258 24.9804 89.9496 24.7131 89.6528 24.3392C89.3628 23.9563 89.1696 23.4766 89.0731 22.9002C89.0502 22.7821 89.0268 22.6278 89.0029 22.4373C88.978 22.2389 88.9615 22.0756 88.9535 21.9476C88.9046 21.3652 88.9738 20.8566 89.1612 20.4219C89.3554 19.9783 89.6534 19.6224 90.0552 19.3543C90.4649 19.0852 90.9554 18.9148 91.527 18.843C92.035 18.7793 92.4766 18.7964 92.8517 18.8945C93.2268 18.9925 93.5429 19.1343 93.8 19.3197C94.0571 19.5051 94.2562 19.7099 94.3972 19.9341C94.5451 20.1494 94.635 20.3518 94.6669 20.5413C94.6858 20.6276 94.6669 20.7025 94.6104 20.766C94.5608 20.8206 94.4964 20.8529 94.417 20.8629L93.3692 20.9944C93.2898 21.0043 93.2238 20.9925 93.1712 20.9588C93.1265 20.924 93.0794 20.8695 93.0297 20.7951C92.8708 20.4925 92.6842 20.2902 92.4698 20.1881C92.2624 20.0771 92.0078 20.0405 91.7062 20.0783C91.3093 20.1281 91.0077 20.295 90.8015 20.5789C90.6022 20.8538 90.5284 21.2622 90.5803 21.804C90.6023 22.1076 90.6371 22.3854 90.6849 22.6374C90.7695 23.1831 90.9423 23.5646 91.2034 23.7818C91.4724 23.9979 91.8054 24.0811 92.2023 24.0313C92.5118 23.9925 92.7539 23.8976 92.9285 23.7467C93.1021 23.5878 93.2284 23.3422 93.3077 23.0097C93.3374 22.9254 93.3696 22.8609 93.4043 22.8162C93.447 22.7705 93.508 22.7427 93.5874 22.7327L94.6351 22.6012C94.7145 22.5913 94.7855 22.6106 94.848 22.6592C94.9175 22.6988 94.9537 22.7628 94.9568 22.8511C94.9668 22.995 94.9475 23.1627 94.899 23.3543C94.8574 23.5369 94.7731 23.7329 94.6462 23.9423C94.5262 24.1428 94.3651 24.3364 94.1628 24.523C93.9594 24.7017 93.705 24.8586 93.3994 24.9937C93.1018 25.1278 92.7466 25.2208 92.3339 25.2726ZM99.136 24.4189C98.5645 24.4907 98.047 24.4468 97.5835 24.2872C97.128 24.1267 96.7518 23.8595 96.4549 23.4855C96.1649 23.1027 95.9717 22.623 95.8752 22.0465C95.8523 21.9284 95.8289 21.7742 95.805 21.5837C95.7801 21.3852 95.7636 21.222 95.7556 21.094C95.7067 20.5115 95.7759 20.003 95.9633 19.5683C96.1575 19.1246 96.4555 18.7687 96.8573 18.5006C97.267 18.2315 97.7576 18.0611 98.3291 17.9894C98.8371 17.9256 99.2787 17.9428 99.6538 18.0408C100.029 18.1389 100.345 18.2806 100.602 18.466C100.859 18.6515 101.058 18.8563 101.199 19.0805C101.347 19.2957 101.437 19.4981 101.469 19.6876C101.488 19.7739 101.469 19.8489 101.413 19.9124C101.363 19.967 101.298 19.9993 101.219 20.0092L100.171 20.1407C100.092 20.1507 100.026 20.1388 99.9733 20.1051C99.9287 20.0704 99.8815 20.0158 99.8318 19.9414C99.6729 19.6389 99.4863 19.4365 99.2719 19.3344C99.0645 19.2234 98.8099 19.1868 98.5083 19.2247C98.1114 19.2745 97.8098 19.4413 97.6036 19.7252C97.4043 20.0002 97.3305 20.4085 97.3824 20.9503C97.4044 21.2539 97.4393 21.5318 97.487 21.7838C97.5716 22.3295 97.7445 22.7109 98.0055 22.9281C98.2746 23.1443 98.6075 23.2275 99.0044 23.1777C99.314 23.1388 99.556 23.0439 99.7306 22.893C99.9042 22.7342 100.031 22.4885 100.11 22.1561C100.14 22.0717 100.172 22.0072 100.206 21.9625C100.249 21.9169 100.31 21.8891 100.389 21.8791L101.437 21.7476C101.517 21.7376 101.588 21.7569 101.65 21.8055C101.72 21.8452 101.756 21.9092 101.759 21.9975C101.769 22.1414 101.75 22.3091 101.701 22.5006C101.659 22.6832 101.575 22.8792 101.448 23.0887C101.328 23.2892 101.167 23.4827 100.965 23.6694C100.762 23.8481 100.507 24.005 100.202 24.1401C99.9039 24.2742 99.5487 24.3671 99.136 24.4189ZM105.926 23.5668C105.045 23.6774 104.315 23.511 103.735 23.0678C103.155 22.6245 102.787 21.937 102.63 21.0053C102.612 20.927 102.595 20.8282 102.58 20.7092C102.564 20.5822 102.556 20.4825 102.555 20.41C102.512 19.8107 102.582 19.2778 102.765 18.8114C102.957 18.3439 103.252 17.9682 103.652 17.6842C104.051 17.3923 104.54 17.2099 105.119 17.1372C105.762 17.0565 106.319 17.1237 106.789 17.3388C107.259 17.546 107.635 17.8737 107.917 18.3221C108.198 18.7625 108.377 19.2923 108.455 19.9115L108.486 20.1615C108.496 20.2409 108.477 20.3119 108.428 20.3744C108.38 20.4369 108.312 20.4737 108.224 20.4846L104.271 20.9807C104.271 20.9807 104.273 20.9926 104.276 21.0164C104.279 21.0403 104.281 21.0601 104.283 21.076C104.326 21.3528 104.41 21.6043 104.535 21.8305C104.667 22.0477 104.837 22.2158 105.046 22.3348C105.262 22.4528 105.505 22.4948 105.775 22.461C105.998 22.4331 106.18 22.3779 106.323 22.2955C106.465 22.2051 106.578 22.1103 106.662 22.011C106.746 21.9118 106.805 21.8319 106.838 21.7713C106.897 21.6671 106.946 21.6046 106.983 21.5837C107.028 21.5539 107.094 21.5335 107.181 21.5226L108.205 21.3941C108.285 21.3841 108.351 21.3999 108.405 21.4416C108.466 21.4823 108.498 21.5388 108.499 21.6112C108.507 21.7392 108.459 21.9025 108.355 22.101C108.258 22.2985 108.106 22.499 107.898 22.7025C107.69 22.9061 107.418 23.0893 107.084 23.2522C106.757 23.4061 106.371 23.511 105.926 23.5668ZM104.146 19.9806L106.777 19.6503L106.773 19.6146C106.734 19.3051 106.648 19.0416 106.516 18.8244C106.384 18.6072 106.21 18.4435 105.995 18.3335C105.78 18.2234 105.533 18.1859 105.255 18.2207C104.977 18.2556 104.748 18.3529 104.566 18.5128C104.385 18.6726 104.257 18.8741 104.183 19.1173C104.116 19.3594 104.102 19.6353 104.141 19.9449L104.146 19.9806ZM112.477 22.7447C112 22.8045 111.585 22.8002 111.229 22.7319C110.882 22.6626 110.591 22.5581 110.355 22.4183C110.12 22.2785 109.941 22.1317 109.816 21.978C109.692 21.8243 109.619 21.6923 109.597 21.5822C109.579 21.4959 109.594 21.4254 109.643 21.3708C109.7 21.3073 109.764 21.271 109.835 21.2621L110.776 21.144C110.808 21.14 110.836 21.1405 110.861 21.1455C110.886 21.1504 110.92 21.1702 110.965 21.205C111.079 21.2793 111.198 21.3572 111.321 21.4385C111.452 21.5188 111.601 21.5847 111.769 21.6362C111.936 21.6798 112.138 21.6866 112.376 21.6567C112.686 21.6179 112.936 21.526 113.128 21.381C113.326 21.2271 113.411 21.0351 113.382 20.8049C113.361 20.6382 113.297 20.5092 113.188 20.418C113.088 20.3257 112.91 20.2554 112.654 20.2069C112.397 20.1504 112.036 20.103 111.572 20.0645C111.114 20.0171 110.729 19.9325 110.415 19.8106C110.102 19.6887 109.858 19.5176 109.686 19.2974C109.513 19.0772 109.407 18.8084 109.367 18.4909C109.328 18.1813 109.382 17.8761 109.53 17.5754C109.685 17.2657 109.933 16.9967 110.275 16.7683C110.625 16.5389 111.074 16.3899 111.622 16.3211C112.051 16.2673 112.431 16.2761 112.762 16.3474C113.093 16.4107 113.371 16.5088 113.597 16.6417C113.832 16.7735 114.015 16.9158 114.147 17.0686C114.278 17.2134 114.355 17.3448 114.378 17.4629C114.397 17.5492 114.382 17.6236 114.333 17.6862C114.284 17.7408 114.223 17.7726 114.152 17.7815L113.271 17.8921C113.231 17.8971 113.194 17.8936 113.16 17.8817C113.127 17.8698 113.092 17.854 113.058 17.8341C112.96 17.7657 112.855 17.6943 112.74 17.62C112.626 17.5456 112.49 17.4861 112.331 17.4416C112.179 17.3881 111.984 17.3762 111.746 17.4061C111.444 17.444 111.223 17.5403 111.081 17.6952C110.938 17.8421 110.879 18.0148 110.904 18.2133C110.921 18.3482 110.972 18.4628 111.056 18.557C111.147 18.6423 111.314 18.7142 111.555 18.7726C111.796 18.831 112.157 18.8785 112.637 18.9149C113.181 18.9435 113.619 19.0335 113.953 19.1852C114.293 19.3279 114.542 19.5143 114.7 19.7445C114.865 19.9657 114.966 20.2231 115.003 20.5168C115.048 20.874 114.981 21.2089 114.802 21.5216C114.632 21.8332 114.351 22.0983 113.959 22.3168C113.574 22.5264 113.08 22.669 112.477 22.7447ZM118.814 21.9494C118.337 22.0092 117.922 22.0049 117.566 21.9367C117.219 21.8674 116.928 21.7628 116.692 21.623C116.457 21.4832 116.278 21.3365 116.153 21.1827C116.029 21.029 115.956 20.897 115.934 20.7869C115.916 20.7006 115.931 20.6301 115.98 20.5755C116.037 20.512 116.101 20.4757 116.172 20.4668L117.113 20.3487C117.145 20.3448 117.173 20.3452 117.198 20.3502C117.223 20.3551 117.257 20.375 117.302 20.4097C117.416 20.484 117.535 20.5619 117.658 20.6432C117.789 20.7235 117.938 20.7894 118.106 20.8409C118.273 20.8845 118.475 20.8913 118.713 20.8615C119.023 20.8226 119.273 20.7307 119.465 20.5857C119.663 20.4318 119.748 20.2398 119.719 20.0096C119.698 19.8429 119.634 19.7139 119.525 19.6227C119.425 19.5305 119.247 19.4601 118.991 19.4116C118.734 19.3552 118.373 19.3077 117.909 19.2692C117.451 19.2218 117.066 19.1372 116.752 19.0153C116.439 18.8934 116.195 18.7223 116.023 18.5021C115.85 18.2819 115.744 18.0131 115.704 17.6956C115.665 17.386 115.719 17.0809 115.867 16.7801C116.022 16.4705 116.27 16.2014 116.612 15.973C116.962 15.7436 117.411 15.5946 117.959 15.5258C118.388 15.4721 118.768 15.4808 119.099 15.5521C119.43 15.6154 119.708 15.7135 119.934 15.8464C120.169 15.9782 120.352 16.1205 120.484 16.2733C120.615 16.4181 120.692 16.5495 120.715 16.6676C120.734 16.7539 120.719 16.8283 120.67 16.8909C120.621 16.9455 120.56 16.9773 120.489 16.9862L119.608 17.0968C119.568 17.1018 119.531 17.0983 119.497 17.0864C119.464 17.0746 119.429 17.0587 119.395 17.0389C119.297 16.9704 119.192 16.8991 119.078 16.8247C118.963 16.7503 118.827 16.6909 118.668 16.6463C118.516 16.5928 118.321 16.581 118.083 16.6108C117.782 16.6487 117.56 16.7451 117.418 16.8999C117.275 17.0469 117.216 17.2195 117.241 17.418C117.258 17.5529 117.309 17.6675 117.393 17.7617C117.484 17.847 117.651 17.9189 117.892 17.9773C118.133 18.0357 118.494 18.0832 118.974 18.1197C119.518 18.1482 119.956 18.2383 120.29 18.3899C120.63 18.5326 120.879 18.7191 121.037 18.9492C121.202 19.1704 121.303 19.4278 121.34 19.7215C121.385 20.0787 121.318 20.4137 121.139 20.7263C120.969 21.038 120.688 21.303 120.296 21.5215C119.911 21.7311 119.417 21.8737 118.814 21.9494Z" fill="white"/>
</svg>
