<svg width="123" height="64" viewBox="0 0 123 64" fill="none" xmlns="http://www.w3.org/2000/svg">
<rect x="8.85938" y="0.964844" width="119" height="29" rx="14.5" transform="rotate(16.7529 8.85938 0.964844)" fill="#9747FF"/>
<rect x="9.19403" y="1.58774" width="118" height="28" rx="14" transform="rotate(16.7529 9.19403 1.58774)" stroke="black" stroke-opacity="0.05"/>
<path d="M16.046 22.971C15.9694 22.9479 15.9123 22.9015 15.8748 22.8317C15.8373 22.762 15.8301 22.6888 15.8532 22.6122L18.105 15.1317C18.1303 15.0475 18.1779 14.9866 18.2477 14.9491C18.3174 14.9116 18.3906 14.9044 18.4672 14.9275L19.4784 15.2319C19.5627 15.2572 19.6235 15.3048 19.661 15.3746C19.6985 15.4443 19.7046 15.5214 19.6792 15.6056L18.8698 18.2944L22.3003 16.3069C22.3425 16.2778 22.4049 16.2507 22.4877 16.2255C22.5805 16.1949 22.6881 16.1981 22.8107 16.235L23.9483 16.5774C24.0096 16.5959 24.0563 16.635 24.0884 16.6948C24.1282 16.7569 24.1377 16.8224 24.1169 16.8914C24.1008 16.945 24.0716 16.9863 24.0295 17.0154L19.8249 19.5344L22.0583 24.3547C22.0827 24.4122 22.0869 24.4678 22.0708 24.5214C22.05 24.5903 22.0059 24.6397 21.9384 24.6695C21.8786 24.7017 21.8181 24.7085 21.7568 24.6901L20.5733 24.3338C20.4431 24.2946 20.3477 24.2367 20.2872 24.16C20.2368 24.0779 20.2035 24.022 20.1874 23.9921L18.3233 20.11L17.4274 23.0861C17.4044 23.1627 17.3579 23.2197 17.2882 23.2572C17.2184 23.2947 17.1414 23.3007 17.0571 23.2754L16.046 22.971ZM23.1683 25.1149C23.0917 25.0919 23.0346 25.0455 22.9972 24.9757C22.9597 24.9059 22.9525 24.8328 22.9755 24.7562L24.6082 19.3326C24.6312 19.256 24.6776 19.1989 24.7474 19.1614C24.8172 19.1239 24.8903 19.1167 24.9669 19.1398L25.9092 19.4234C25.9858 19.4465 26.0428 19.4929 26.0803 19.5627C26.1178 19.6324 26.125 19.7056 26.1019 19.7822L25.9601 20.2533C26.2331 20.0682 26.547 19.9413 26.9018 19.8726C27.2666 19.7986 27.6789 19.8308 28.1385 19.9692C28.6058 20.1098 28.9795 20.3393 29.2596 20.6576C29.5421 20.9682 29.7176 21.3426 29.7862 21.781C29.8624 22.2217 29.8198 22.7101 29.6584 23.2464L28.6864 26.4753C28.6633 26.5519 28.6169 26.6089 28.5472 26.6464C28.4774 26.6839 28.4042 26.6911 28.3276 26.668L27.3164 26.3636C27.2398 26.3406 27.1828 26.2942 27.1453 26.2244C27.1078 26.1546 27.1006 26.0814 27.1237 26.0048L28.0749 22.8449C28.2086 22.4006 28.2025 22.0186 28.0564 21.6989C27.918 21.3816 27.642 21.1606 27.2283 21.0361C26.83 20.9162 26.474 20.9469 26.1604 21.1282C25.8469 21.3095 25.6232 21.6223 25.4895 22.0666L24.5383 25.2266C24.5152 25.3032 24.4688 25.3602 24.399 25.3977C24.3293 25.4352 24.2561 25.4424 24.1795 25.4193L23.1683 25.1149ZM32.6712 28.1009C32.0584 27.9164 31.5736 27.6535 31.2168 27.3122C30.8677 26.9731 30.6409 26.5749 30.5364 26.1173C30.4395 25.6621 30.4541 25.1694 30.5803 24.6392C30.6141 24.499 30.661 24.3294 30.721 24.1302C30.7809 23.931 30.8355 23.7636 30.8847 23.628C31.0744 23.1087 31.338 22.691 31.6755 22.3748C32.0229 22.0533 32.4357 21.8476 32.914 21.7576C33.3998 21.6699 33.9416 21.716 34.5391 21.8959C35.1366 22.0758 35.6099 22.3352 35.959 22.6742C36.3157 23.0155 36.5464 23.415 36.6509 23.8725C36.7655 24.3247 36.7585 24.8197 36.63 25.3575C36.5962 25.4977 36.5493 25.6674 36.4893 25.8666C36.4294 26.0657 36.3748 26.2331 36.3256 26.3687C36.1382 26.8804 35.8746 27.2981 35.5348 27.6219C35.2027 27.9481 34.7937 28.155 34.3078 28.2426C33.8296 28.3326 33.2841 28.2853 32.6712 28.1009ZM33.0137 26.9633C33.4197 27.0855 33.7718 27.0536 34.0701 26.8677C34.3706 26.6741 34.6073 26.3318 34.7802 25.8408C34.8224 25.7282 34.8712 25.58 34.9266 25.3962C34.9819 25.2123 35.0231 25.0618 35.05 24.9446C35.1746 24.4474 35.165 24.0351 35.0213 23.7078C34.8775 23.3805 34.6026 23.1557 34.1966 23.0335C33.7906 22.9113 33.4373 22.9469 33.1368 23.1405C32.8362 23.3341 32.6007 23.6726 32.4301 24.1559C32.3879 24.2685 32.3391 24.4167 32.2837 24.6006C32.2284 24.7844 32.1872 24.935 32.1603 25.0522C32.0334 25.557 32.0418 25.9731 32.1856 26.3005C32.3316 26.6201 32.6077 26.8411 33.0137 26.9633ZM38.3265 29.6779C38.2192 29.6456 38.1469 29.5946 38.1094 29.5248C38.0719 29.455 38.0467 29.3723 38.0338 29.2765L37.9955 23.4502C37.9994 23.4096 38.006 23.3739 38.0152 23.3433C38.0359 23.2743 38.0762 23.2238 38.136 23.1917C38.2058 23.1542 38.2713 23.1447 38.3326 23.1631L39.1829 23.4191C39.2748 23.4468 39.3395 23.4955 39.377 23.5653C39.4168 23.6274 39.4336 23.6825 39.4274 23.7308L39.4086 27.8732L41.7382 24.464C41.7696 24.415 41.8202 24.3717 41.89 24.3343C41.9621 24.2891 42.0517 24.2827 42.159 24.315L42.7335 24.4879C42.8408 24.5202 42.912 24.575 42.9471 24.6525C42.9846 24.7222 43.003 24.7862 43.0021 24.8445L43.0626 28.9731L45.3336 25.5087C45.3551 25.4651 45.3958 25.4272 45.4556 25.395C45.5253 25.3576 45.6062 25.3526 45.6981 25.3803L46.5484 25.6363C46.6174 25.657 46.6667 25.7011 46.6966 25.7686C46.7363 25.8307 46.7459 25.8962 46.7251 25.9652C46.7159 25.9958 46.6979 26.028 46.671 26.0617L43.4229 30.8987C43.3745 30.9761 43.3117 31.0323 43.2342 31.0675C43.1645 31.105 43.076 31.1076 42.9687 31.0753L42.2218 30.8505C42.1146 30.8182 42.0384 30.766 41.9932 30.6939C41.9481 30.6219 41.9267 30.5402 41.9291 30.4491L41.8271 26.4583L39.539 29.7296C39.483 29.8046 39.4163 29.8597 39.3389 29.8949C39.2691 29.9324 39.1768 29.9338 39.0619 29.8993L38.3265 29.6779ZM46.408 32.1106C46.3314 32.0875 46.2744 32.0411 46.2369 31.9714C46.1994 31.9016 46.1922 31.8284 46.2153 31.7518L48.5051 24.145C48.5281 24.0684 48.5745 24.0113 48.6443 23.9739C48.7141 23.9364 48.7873 23.9292 48.8639 23.9522L49.8176 24.2393C49.8942 24.2624 49.9512 24.3088 49.9887 24.3785C50.0262 24.4483 50.0334 24.5215 50.0104 24.5981L47.7205 32.2049C47.6975 32.2815 47.6511 32.3386 47.5813 32.3761C47.5115 32.4135 47.4383 32.4208 47.3617 32.3977L46.408 32.1106ZM51.7011 33.8292C50.8507 33.5733 50.2504 33.1252 49.9001 32.4851C49.5497 31.8449 49.4915 31.0671 49.7253 30.1516C49.7407 30.0727 49.7656 29.9758 49.8002 29.8609C49.8371 29.7383 49.8698 29.6437 49.8982 29.5771C50.1018 29.0118 50.3819 28.5531 50.7385 28.2009C51.1028 27.8511 51.5253 27.6273 52.0058 27.5297C52.4886 27.4244 53.0097 27.4559 53.5689 27.6243C54.1894 27.8111 54.6711 28.0981 55.014 28.4854C55.3592 28.865 55.5699 29.3169 55.6461 29.8411C55.7245 30.3576 55.6738 30.9147 55.4939 31.5122L55.4213 31.7535C55.3982 31.8301 55.3518 31.8871 55.2821 31.9246C55.2123 31.9621 55.1353 31.9681 55.051 31.9428L51.2361 30.7944C51.2361 30.7944 51.2326 30.8059 51.2257 30.8289C51.2188 30.8519 51.213 30.871 51.2084 30.8863C51.1354 31.1568 51.1102 31.4207 51.133 31.6782C51.1657 31.9303 51.2532 32.153 51.3956 32.3462C51.5456 32.5418 51.7508 32.6787 52.0113 32.7571C52.2257 32.8217 52.415 32.8453 52.579 32.8278C52.7453 32.8027 52.8871 32.7618 53.0044 32.7052C53.1217 32.6486 53.2075 32.5993 53.262 32.5572C53.3586 32.486 53.4284 32.4485 53.4713 32.4447C53.5242 32.4356 53.5927 32.4437 53.677 32.4691L54.6652 32.7665C54.7418 32.7896 54.7962 32.831 54.8283 32.8908C54.8681 32.9529 54.8738 33.0173 54.8453 33.0839C54.8008 33.2042 54.6907 33.334 54.5151 33.4733C54.3472 33.6149 54.1267 33.7365 53.8539 33.8382C53.581 33.9398 53.2587 33.9974 52.8871 34.0108C52.5254 34.0189 52.13 33.9584 51.7011 33.8292ZM51.5267 29.8292L54.0661 30.5936L54.0765 30.5591C54.1664 30.2604 54.195 29.9849 54.1623 29.7328C54.1296 29.4807 54.0371 29.2607 53.8848 29.0728C53.7325 28.8849 53.5222 28.7506 53.2541 28.6699C52.986 28.5892 52.7366 28.5852 52.5059 28.6577C52.2752 28.7303 52.0766 28.8627 51.9101 29.0549C51.7513 29.2493 51.627 29.496 51.537 29.7947L51.5267 29.8292ZM57.9767 35.7183C57.5783 35.5984 57.2456 35.4272 56.9783 35.2048C56.7211 34.977 56.5298 34.7105 56.4044 34.4054C56.279 34.1003 56.2123 33.7669 56.2042 33.4052C56.1984 33.0359 56.2478 32.6498 56.3524 32.2468C56.3862 32.1066 56.4193 31.9829 56.4516 31.8756C56.4862 31.7607 56.5281 31.6355 56.5772 31.4999C56.7078 31.1215 56.8725 30.7826 57.0713 30.4832C57.2777 30.186 57.5173 29.9449 57.7903 29.7597C58.0732 29.5692 58.3848 29.4499 58.7251 29.402C59.073 29.3563 59.4462 29.3935 59.8445 29.5134C60.2582 29.6379 60.5848 29.8156 60.8244 30.0465C61.074 30.272 61.2611 30.5246 61.3858 30.8044L62.1537 28.2535C62.1767 28.1769 62.2193 28.1187 62.2814 28.0789C62.3512 28.0414 62.4282 28.0354 62.5125 28.0607L63.4892 28.3547C63.5658 28.3778 63.6228 28.4242 63.6603 28.494C63.6978 28.5638 63.705 28.6369 63.6819 28.7135L61.3921 36.3204C61.369 36.397 61.3226 36.454 61.2529 36.4915C61.1831 36.529 61.1099 36.5362 61.0333 36.5131L60.1256 36.2399C60.0413 36.2145 59.9804 36.1669 59.9429 36.0972C59.9131 36.0297 59.9097 35.9577 59.9328 35.8811L60.0608 35.4559C59.7978 35.6358 59.4938 35.7573 59.149 35.8206C58.8117 35.8862 58.421 35.8521 57.9767 35.7183ZM58.7719 34.6168C59.0937 34.7137 59.3722 34.7181 59.6075 34.6302C59.8429 34.5423 60.0399 34.4012 60.1987 34.2067C60.3598 34.0045 60.4799 33.7859 60.5591 33.5507C60.6083 33.4151 60.6559 33.2707 60.702 33.1175C60.7504 32.9566 60.7916 32.8061 60.8254 32.6659C60.8869 32.4338 60.899 32.1993 60.8617 31.9625C60.8267 31.7181 60.7342 31.4981 60.5842 31.3025C60.4342 31.107 60.206 30.9631 59.8996 30.8709C59.5778 30.774 59.2993 30.7695 59.064 30.8574C58.8386 30.94 58.6492 31.0835 58.4958 31.2879C58.3423 31.4924 58.2164 31.7302 58.1181 32.0013C58.0412 32.2288 57.9721 32.4587 57.9105 32.6908C57.8429 32.9712 57.8166 33.2389 57.8316 33.4941C57.8467 33.7493 57.9243 33.9773 58.0643 34.1782C58.2143 34.3738 58.4502 34.52 58.7719 34.6168ZM64.7799 40.398C64.2207 40.2296 63.783 40.0185 63.4668 39.7646C63.1505 39.5106 62.9201 39.2491 62.7756 38.98C62.631 38.7109 62.5439 38.4591 62.5142 38.2246C62.4899 38.0001 62.4912 37.8292 62.5181 37.712C62.5335 37.6331 62.5773 37.5711 62.6493 37.5259C62.7268 37.4908 62.8038 37.4847 62.8804 37.5078L63.8801 37.8087C63.9567 37.8317 64.0134 37.8655 64.0501 37.91C64.0845 37.9621 64.1032 38.0388 64.1062 38.1399C64.1222 38.2533 64.1512 38.379 64.1932 38.517C64.2352 38.655 64.3213 38.7853 64.4514 38.908C64.587 39.0407 64.7926 39.1486 65.0684 39.2316C65.3595 39.3192 65.6173 39.3509 65.8418 39.3266C66.0664 39.3023 66.2584 39.2055 66.4179 39.0363C66.5851 38.8694 66.7218 38.6098 66.8278 38.2574L67.0631 37.476C66.8123 37.6429 66.5207 37.7514 66.1881 37.8017C65.8631 37.8542 65.49 37.8171 65.0687 37.6903C64.655 37.5657 64.3184 37.3934 64.0588 37.1732C63.8016 36.9454 63.6091 36.6828 63.4814 36.3854C63.356 36.0803 63.2893 35.7469 63.2812 35.3852C63.2808 35.0258 63.3329 34.6447 63.4375 34.2417C63.4921 34.0326 63.5543 33.8257 63.6242 33.6212C63.7549 33.2428 63.9195 32.9039 64.1183 32.6045C64.317 32.305 64.5529 32.0627 64.8258 31.8776C65.1088 31.687 65.4204 31.5678 65.7606 31.5198C66.1009 31.4719 66.4779 31.5102 66.8915 31.6347C67.3282 31.7661 67.6705 31.9611 67.9185 32.2195C68.1689 32.4703 68.3529 32.7471 68.4706 33.0499L68.609 32.5903C68.6343 32.506 68.6819 32.4451 68.7517 32.4077C68.8214 32.3702 68.8946 32.363 68.9712 32.386L69.902 32.6662C69.9786 32.6893 70.0356 32.7357 70.0731 32.8054C70.1106 32.8752 70.1166 32.9522 70.0913 33.0365L68.4355 38.5784C68.2695 39.13 68.0231 39.5738 67.6964 39.9099C67.3696 40.246 66.9633 40.4579 66.4774 40.5455C65.9969 40.6432 65.4311 40.594 64.7799 40.398ZM65.8605 36.6002C66.1745 36.6948 66.4481 36.7019 66.6811 36.6217C66.9141 36.5415 67.11 36.4041 67.2688 36.2096C67.4276 36.0151 67.5493 35.8053 67.6338 35.5801C67.6714 35.4828 67.7133 35.3576 67.7594 35.2044C67.8055 35.0511 67.8386 34.9274 67.8586 34.8332C67.9148 34.5911 67.9292 34.349 67.9018 34.1068C67.8768 33.857 67.7892 33.6343 67.6392 33.4388C67.4915 33.2356 67.2607 33.0867 66.9466 32.9922C66.6325 32.8976 66.3578 32.8943 66.1225 32.9822C65.8894 33.0624 65.6962 33.2048 65.5428 33.4092C65.397 33.616 65.2749 33.8549 65.1766 34.1261C65.1059 34.3053 65.0494 34.493 65.0071 34.6891C64.9417 34.9619 64.9116 35.2285 64.9167 35.489C64.9318 35.7442 65.0143 35.9696 65.1643 36.1651C65.3143 36.3606 65.5464 36.5057 65.8605 36.6002ZM72.4606 40.0783C71.6103 39.8223 71.0099 39.3743 70.6596 38.7341C70.3093 38.094 70.251 37.3162 70.4848 36.4007C70.5002 36.3218 70.5252 36.2249 70.5598 36.11C70.5967 35.9874 70.6293 35.8928 70.6577 35.8262C70.8613 35.2609 71.1414 34.8021 71.4981 34.45C71.8624 34.1001 72.2848 33.8764 72.7653 33.7788C73.2482 33.6735 73.7692 33.705 74.3284 33.8733C74.9489 34.0601 75.4306 34.3472 75.7735 34.7344C76.1188 35.1141 76.3295 35.566 76.4056 36.0902C76.484 36.6067 76.4333 37.1637 76.2535 37.7612L76.1808 38.0025C76.1578 38.0791 76.1113 38.1362 76.0416 38.1737C75.9718 38.2112 75.8948 38.2172 75.8105 38.1918L71.9956 37.0435C71.9956 37.0435 71.9922 37.055 71.9853 37.0779C71.9783 37.1009 71.9726 37.1201 71.968 37.1354C71.8949 37.4058 71.8698 37.6698 71.8925 37.9273C71.9252 38.1794 72.0127 38.4021 72.1551 38.5953C72.3051 38.7908 72.5103 38.9278 72.7708 39.0062C72.9853 39.0708 73.1745 39.0943 73.3385 39.0769C73.5048 39.0517 73.6466 39.0109 73.7639 38.9543C73.8812 38.8977 73.9671 38.8483 74.0215 38.8062C74.1181 38.7351 74.1879 38.6976 74.2308 38.6938C74.2837 38.6847 74.3523 38.6928 74.4365 38.7181L75.4247 39.0156C75.5013 39.0387 75.5557 39.0801 75.5878 39.1399C75.6276 39.202 75.6333 39.2664 75.6049 39.333C75.5603 39.4533 75.4502 39.583 75.2746 39.7223C75.1067 39.8639 74.8863 39.9856 74.6134 40.0872C74.3405 40.1889 74.0182 40.2464 73.6466 40.2599C73.2849 40.268 72.8896 40.2074 72.4606 40.0783ZM72.2862 36.0783L74.8256 36.8427L74.836 36.8082C74.9259 36.5095 74.9545 36.234 74.9218 35.9819C74.8891 35.7297 74.7966 35.5097 74.6443 35.3219C74.492 35.134 74.2818 34.9997 74.0137 34.919C73.7455 34.8383 73.4961 34.8342 73.2654 34.9068C73.0347 34.9794 72.8361 35.1118 72.6697 35.3039C72.5109 35.4984 72.3865 35.745 72.2966 36.0438L72.2862 36.0783ZM79.5926 42.0999C79.516 42.0768 79.4589 42.0304 79.4214 41.9606C79.3839 41.8909 79.3767 41.8177 79.3998 41.7411L81.6516 34.2606C81.6769 34.1764 81.7245 34.1155 81.7943 34.078C81.864 34.0405 81.9372 34.0333 82.0138 34.0564L85.3461 35.0595C85.9666 35.2463 86.4434 35.4942 86.7764 35.8033C87.1118 36.1048 87.3218 36.4479 87.4065 36.8326C87.4988 37.2197 87.4793 37.6315 87.3478 38.0682C87.2602 38.3593 87.1293 38.5997 86.9552 38.7896C86.7911 38.9741 86.6116 39.1123 86.4169 39.204C86.2299 39.2981 86.052 39.3616 85.8834 39.3943C86.1407 39.6222 86.3358 39.9315 86.4687 40.3224C86.6017 40.7134 86.6013 41.131 86.4676 41.5753C86.3292 42.0349 86.1024 42.4136 85.7872 42.7114C85.472 43.0092 85.0803 43.2004 84.612 43.285C84.146 43.3619 83.6143 43.3105 83.0168 43.1306L79.5926 42.0999ZM81.2806 41.2796L83.1996 41.8573C83.6132 41.9818 83.9608 41.9653 84.2421 41.8077C84.5258 41.6424 84.7161 41.3989 84.8129 41.0772C84.9144 40.7401 84.8875 40.4271 84.7322 40.1381C84.5846 39.8513 84.3077 39.6469 83.9017 39.5247L81.9828 38.947L81.2806 41.2796ZM82.3425 37.752L84.1466 38.295C84.5526 38.4173 84.884 38.4126 85.1408 38.281C85.4076 38.1441 85.5883 37.9186 85.6828 37.6046C85.7797 37.2828 85.7512 37.0027 85.5974 36.7643C85.4536 36.5205 85.1786 36.3374 84.7726 36.2152L82.9686 35.6722L82.3425 37.752ZM88.7568 44.9838C88.3585 44.8639 88.0215 44.6789 87.7459 44.4289C87.4725 44.1711 87.2793 43.8832 87.1662 43.5651C87.0631 43.2417 87.0611 42.9152 87.1602 42.5858C87.3217 42.0496 87.6641 41.689 88.1877 41.5041C88.7212 41.3138 89.3603 41.2722 90.105 41.3794L91.7484 41.6235L91.821 41.3822C91.9179 41.0605 91.9124 40.7873 91.8045 40.5627C91.6967 40.338 91.4474 40.1669 91.0568 40.0493C90.781 39.9663 90.5377 39.9557 90.3269 40.0176C90.1261 40.0741 89.9559 40.1816 89.8163 40.3401C89.725 40.4213 89.6219 40.4445 89.507 40.4099L88.5993 40.1367C88.515 40.1113 88.4568 40.0687 88.4247 40.0089C88.4002 39.9514 88.3995 39.8844 88.4226 39.8078C88.4671 39.6875 88.5619 39.5531 88.7069 39.4046C88.8518 39.2561 89.0481 39.1314 89.2957 39.0305C89.5456 38.9219 89.8449 38.8574 90.1935 38.8371C90.5422 38.8167 90.9387 38.8734 91.383 39.0071C91.8656 39.1524 92.2532 39.3359 92.5457 39.5576C92.8482 39.774 93.069 40.0118 93.2082 40.2709C93.3474 40.53 93.4226 40.8075 93.4339 41.1033C93.4451 41.399 93.4057 41.6963 93.3158 41.9951L92.2297 45.6031C92.2066 45.6797 92.1602 45.7368 92.0904 45.7743C92.0207 45.8118 91.9475 45.819 91.8709 45.7959L90.9401 45.5157C90.8559 45.4904 90.795 45.4428 90.7575 45.373C90.7277 45.3056 90.7243 45.2335 90.7474 45.1569L90.8823 44.7088C90.7389 44.8244 90.5633 44.9219 90.3556 45.0014C90.1502 45.0732 89.9122 45.1144 89.6417 45.1249C89.3812 45.13 89.0862 45.083 88.7568 44.9838ZM89.4761 44.0098C89.7442 44.0905 90.0028 44.1057 90.2519 44.0554C90.5086 44.0073 90.734 43.883 90.9281 43.6824C91.1321 43.4765 91.2894 43.1897 91.4001 42.822L91.4728 42.5807L90.2684 42.4186C89.7956 42.3515 89.4251 42.3611 89.1569 42.4475C88.8886 42.5338 88.721 42.6881 88.6541 42.9102C88.6034 43.0787 88.6094 43.2393 88.6721 43.3918C88.7447 43.539 88.8523 43.6675 88.9947 43.7772C89.1394 43.8792 89.2999 43.9568 89.4761 44.0098ZM95.8499 47.119C95.3902 46.9806 95.0119 46.8082 94.7148 46.6018C94.4253 46.3977 94.2014 46.1841 94.043 45.961C93.8846 45.7379 93.7798 45.5309 93.7286 45.34C93.6774 45.1492 93.6642 44.999 93.6888 44.8894C93.7065 44.8029 93.7491 44.7447 93.8165 44.7148C93.894 44.6797 93.9672 44.6725 94.0361 44.6932L94.9439 44.9665C94.9745 44.9757 95.0002 44.9876 95.0208 45.0022C95.0415 45.0168 95.0652 45.049 95.092 45.0988C95.1662 45.213 95.2431 45.3323 95.3227 45.4565C95.4099 45.583 95.5198 45.7038 95.6522 45.8188C95.787 45.9262 95.9693 46.0145 96.1991 46.0837C96.4979 46.1736 96.7641 46.1911 96.9979 46.1362C97.2416 46.0759 97.3969 45.9346 97.4638 45.7125C97.5122 45.5516 97.5054 45.4076 97.4435 45.2803C97.3892 45.1553 97.2549 45.0188 97.0404 44.8707C96.8283 44.715 96.5178 44.5254 96.1088 44.3021C95.7098 44.0733 95.3917 43.8397 95.1543 43.6012C94.917 43.3627 94.764 43.1077 94.6953 42.8364C94.6266 42.5651 94.6383 42.2762 94.7306 41.9698C94.8205 41.671 94.9939 41.4141 95.2508 41.1991C95.5177 40.9786 95.8538 40.8333 96.2593 40.7632C96.6723 40.6954 97.1432 40.7411 97.6717 40.9002C98.0854 41.0247 98.4293 41.1867 98.7034 41.3862C98.9799 41.578 99.1946 41.7805 99.3477 41.9937C99.5084 42.2091 99.6182 42.4135 99.677 42.6066C99.7381 42.7921 99.7552 42.9435 99.7283 43.0607C99.7106 43.1472 99.6668 43.2093 99.5971 43.2467C99.5296 43.2766 99.4614 43.2811 99.3925 43.2603L98.5422 43.0044C98.5038 42.9929 98.4717 42.9748 98.4457 42.9503C98.4196 42.9257 98.3947 42.8974 98.371 42.8651C98.3098 42.7632 98.2421 42.6551 98.1679 42.5408C98.0937 42.4266 97.993 42.3169 97.8659 42.2118C97.7488 42.1014 97.5753 42.0116 97.3455 41.9424C97.0544 41.8547 96.8126 41.853 96.6202 41.9371C96.4301 42.0135 96.3062 42.1475 96.2486 42.339C96.2094 42.4693 96.2093 42.5945 96.2482 42.7149C96.2972 42.8299 96.42 42.9629 96.6168 43.1141C96.8136 43.2652 97.1241 43.4548 97.5484 43.6827C98.034 43.9292 98.3985 44.1893 98.6419 44.4631C98.8953 44.7315 99.0475 45.0029 99.0986 45.2773C99.1597 45.5463 99.1475 45.8225 99.0622 46.1059C98.9585 46.4507 98.7616 46.7298 98.4718 46.9433C98.1896 47.1591 97.8251 47.2875 97.3784 47.3285C96.9416 47.3641 96.4321 47.2942 95.8499 47.119ZM102.276 49.0533C101.425 48.7974 100.825 48.3493 100.475 47.7091C100.124 47.069 100.066 46.2912 100.3 45.3757C100.315 45.2968 100.34 45.1999 100.375 45.085C100.412 44.9624 100.444 44.8678 100.473 44.8012C100.676 44.2359 100.957 43.7771 101.313 43.425C101.678 43.0751 102.1 42.8514 102.581 42.7538C103.063 42.6485 103.584 42.68 104.144 42.8483C104.764 43.0351 105.246 43.3222 105.589 43.7094C105.934 44.0891 106.145 44.541 106.221 45.0652C106.299 45.5817 106.248 46.1387 106.069 46.7362L105.996 46.9775C105.973 47.0542 105.927 47.1112 105.857 47.1487C105.787 47.1862 105.71 47.1922 105.626 47.1669L101.811 46.0185C101.811 46.0185 101.807 46.03 101.8 46.053C101.794 46.0759 101.788 46.0951 101.783 46.1104C101.71 46.3808 101.685 46.6448 101.708 46.9023C101.74 47.1544 101.828 47.3771 101.97 47.5703C102.12 47.7658 102.325 47.9028 102.586 47.9812C102.8 48.0458 102.99 48.0693 103.154 48.0519C103.32 48.0267 103.462 47.9859 103.579 47.9293C103.696 47.8727 103.782 47.8233 103.837 47.7813C103.933 47.7101 104.003 47.6726 104.046 47.6688C104.099 47.6597 104.167 47.6678 104.252 47.6931L105.24 47.9906C105.316 48.0137 105.371 48.0551 105.403 48.1149C105.443 48.177 105.448 48.2414 105.42 48.308C105.375 48.4283 105.265 48.558 105.09 48.6973C104.922 48.8389 104.701 48.9606 104.429 49.0622C104.156 49.1639 103.833 49.2214 103.462 49.2349C103.1 49.243 102.705 49.1824 102.276 49.0533ZM102.101 45.0533L104.641 45.8177L104.651 45.7832C104.741 45.4845 104.77 45.209 104.737 44.9569C104.704 44.7048 104.612 44.4848 104.459 44.2969C104.307 44.109 104.097 43.9747 103.829 43.894C103.561 43.8133 103.311 43.8092 103.081 43.8818C102.85 43.9544 102.651 44.0868 102.485 44.2789C102.326 44.4734 102.202 44.72 102.112 45.0188L102.101 45.0533Z" fill="white"/>
</svg>
