<svg width="88" height="40" viewBox="0 0 88 40" fill="none" xmlns="http://www.w3.org/2000/svg">
<rect x="3.79297" y="0.964844" width="84" height="29" rx="14.5" transform="rotate(6.51747 3.79297 0.964844)" fill="#428BC1"/>
<path d="M17.683 21.7969C16.9756 21.7161 16.3808 21.5314 15.8984 21.2428C15.417 20.9462 15.0609 20.5391 14.8301 20.0216C14.6003 19.4961 14.5152 18.8664 14.5749 18.1324C14.606 17.7898 14.6406 17.4515 14.6788 17.1177C14.7169 16.7838 14.7599 16.4425 14.8078 16.0937C14.9143 15.3731 15.1423 14.7872 15.4917 14.336C15.8412 13.8847 16.2844 13.565 16.8212 13.3767C17.366 13.1893 17.9802 13.1347 18.6637 13.2127C19.3473 13.2908 19.9333 13.4826 20.4218 13.788C20.9103 14.0934 21.2739 14.5054 21.5126 15.0238C21.7513 15.5423 21.8412 16.1645 21.7824 16.8905C21.7584 17.2421 21.7273 17.5847 21.6892 17.9186C21.651 18.2524 21.6045 18.5893 21.5495 18.9292C21.4421 19.6578 21.2172 20.2521 20.8748 20.7122C20.5333 21.1643 20.0906 21.4801 19.5467 21.6596C19.0117 21.8319 18.3904 21.8777 17.683 21.7969ZM17.8397 20.4258C18.3563 20.4849 18.7948 20.382 19.1552 20.1172C19.5165 19.8444 19.7486 19.3636 19.8514 18.6749C19.9073 18.327 19.952 18.006 19.9856 17.7119C20.0201 17.4098 20.0489 17.087 20.0721 16.7434C20.1089 16.2806 20.0641 15.897 19.9378 15.5927C19.8204 15.2814 19.6378 15.0472 19.3901 14.89C19.1432 14.7249 18.8489 14.6229 18.5071 14.5838C18.1733 14.5457 17.8675 14.5792 17.5898 14.6844C17.3129 14.7816 17.0782 14.9681 16.8857 15.2441C16.702 15.5129 16.5758 15.877 16.5073 16.3362C16.4603 16.677 16.4195 16.9985 16.385 17.3005C16.3514 17.5946 16.3186 17.917 16.2866 18.2676C16.2315 18.9618 16.3491 19.4825 16.6396 19.8298C16.931 20.169 17.331 20.3677 17.8397 20.4258ZM24.9237 22.6241C24.4389 22.5687 24.0298 22.4133 23.6967 22.1578C23.3724 21.8953 23.1376 21.5545 22.9922 21.1353C22.8478 20.7081 22.8069 20.2203 22.8695 19.6719L23.2523 16.3217C23.2613 16.2422 23.2969 16.1778 23.3589 16.1285C23.4209 16.0792 23.4916 16.0591 23.5711 16.0682L24.6203 16.1881C24.7077 16.1981 24.7721 16.2336 24.8134 16.2947C24.8627 16.3567 24.8828 16.4274 24.8737 16.5069L24.4991 19.7856C24.3865 20.7712 24.7634 21.3135 25.6298 21.4124C26.0431 21.4596 26.384 21.3657 26.6524 21.1307C26.9287 20.8965 27.0933 20.549 27.1459 20.088L27.5205 16.8093C27.5296 16.7298 27.5651 16.6654 27.6271 16.6161C27.6891 16.5669 27.7598 16.5468 27.8393 16.5558L28.8885 16.6757C28.968 16.6848 29.0324 16.7203 29.0816 16.7823C29.1309 16.8443 29.151 16.915 29.142 16.9945L28.4991 22.6219C28.49 22.7014 28.4544 22.7658 28.3924 22.8151C28.3304 22.8644 28.2597 22.8845 28.1802 22.8754L27.2145 22.765C27.1271 22.7551 27.0587 22.7191 27.0094 22.6571C26.9681 22.596 26.952 22.5257 26.9611 22.4462L27.0169 21.9574C26.7705 22.2111 26.4793 22.3992 26.1432 22.5219C25.8071 22.6445 25.4006 22.6786 24.9237 22.6241ZM32.843 23.4081C32.3661 23.3536 31.9743 23.2243 31.6675 23.0201C31.3606 22.816 31.1464 22.5419 31.0246 22.1979C30.9038 21.8459 30.8715 21.4235 30.9278 20.9307L31.237 18.2243L30.2952 18.1167C30.2157 18.1076 30.1513 18.0721 30.102 18.0101C30.0527 17.9481 30.0326 17.8773 30.0417 17.7979L30.1207 17.1063C30.1298 17.0269 30.1653 16.9625 30.2273 16.9132C30.2893 16.8639 30.3601 16.8438 30.4395 16.8529L31.3814 16.9605L31.6075 14.9814C31.6166 14.9019 31.6482 14.8371 31.7022 14.7869C31.7642 14.7376 31.8389 14.7179 31.9263 14.7279L32.8921 14.8383C32.9715 14.8473 33.0359 14.8829 33.0852 14.9449C33.1345 15.0069 33.1546 15.0776 33.1455 15.1571L32.9194 17.1362L34.4097 17.3065C34.4892 17.3156 34.5536 17.3511 34.6029 17.4131C34.6521 17.4751 34.6722 17.5458 34.6632 17.6253L34.5842 18.3168C34.5751 18.3963 34.5395 18.4607 34.4775 18.5099C34.4156 18.5592 34.3448 18.5793 34.2653 18.5702L32.775 18.4L32.4795 20.9872C32.4422 21.313 32.4688 21.5737 32.5592 21.7693C32.6575 21.9657 32.8498 22.0803 33.1359 22.1129L33.9586 22.2069C34.038 22.216 34.1024 22.2516 34.1517 22.3135C34.201 22.3755 34.2211 22.4463 34.212 22.5258L34.1276 23.265C34.1185 23.3444 34.0829 23.4088 34.021 23.4581C33.959 23.5074 33.8882 23.5275 33.8087 23.5184L32.843 23.4081ZM37.8215 24.0976C37.2492 24.0322 36.7567 23.8673 36.3441 23.6027C35.9394 23.3391 35.637 22.9905 35.4369 22.557C35.2457 22.1164 35.1713 21.6047 35.2137 21.0217C35.2194 20.9016 35.2331 20.7462 35.2549 20.5554C35.2776 20.3567 35.3002 20.1942 35.3227 20.0679C35.4128 19.4904 35.6003 19.0126 35.885 18.6345C36.1787 18.2493 36.5523 17.974 37.006 17.8084C37.4677 17.6438 37.9847 17.5941 38.557 17.6595C39.0657 17.7176 39.4907 17.8386 39.832 18.0226C40.1733 18.2065 40.447 18.4189 40.653 18.6599C40.859 18.9008 41.004 19.1469 41.088 19.398C41.1809 19.6421 41.2204 19.86 41.2066 20.0517C41.2045 20.14 41.1685 20.2084 41.0986 20.2568C41.0375 20.2981 40.9672 20.3142 40.8877 20.3051L39.8386 20.1853C39.7591 20.1762 39.6978 20.1491 39.6546 20.1039C39.6194 20.0596 39.5865 19.9954 39.5558 19.9114C39.4729 19.5799 39.3394 19.3392 39.1552 19.1893C38.9799 19.0324 38.7412 18.9367 38.4392 18.9021C38.0418 18.8567 37.7093 18.9476 37.4418 19.1747C37.1831 19.3948 37.015 19.7741 36.9373 20.3128C36.8869 20.613 36.8552 20.8912 36.842 21.1474C36.7952 21.6976 36.873 22.1091 37.0754 22.3818C37.2857 22.6555 37.5895 22.815 37.987 22.8604C38.2969 22.8958 38.5546 22.8608 38.7599 22.7555C38.9661 22.6421 39.1469 22.4333 39.3025 22.129C39.3513 22.0541 39.3979 21.999 39.4421 21.9638C39.4944 21.9295 39.5602 21.9169 39.6397 21.926L40.6889 22.0458C40.7684 22.0549 40.8327 22.0904 40.882 22.1524C40.9402 22.2074 40.9603 22.2781 40.9423 22.3647C40.918 22.5068 40.8597 22.6652 40.7673 22.8399C40.6837 23.0074 40.5555 23.178 40.3827 23.3515C40.2187 23.518 40.0164 23.668 39.7757 23.8015C39.5359 23.9271 39.2516 24.0194 38.9227 24.0785C38.6019 24.1385 38.2348 24.1448 37.8215 24.0976ZM44.6922 24.8826C44.0564 24.8099 43.5326 24.6373 43.1208 24.3649C42.7171 24.0933 42.4231 23.7416 42.2389 23.3099C42.0626 22.8791 41.9895 22.3917 42.0194 21.8476C42.0278 21.7036 42.0438 21.5283 42.0675 21.3216C42.0911 21.115 42.115 20.9406 42.1393 20.7984C42.2338 20.2536 42.4189 19.7957 42.6948 19.4246C42.9796 19.0464 43.3493 18.7706 43.8039 18.5971C44.2665 18.4245 44.8078 18.3736 45.4278 18.4444C46.0477 18.5153 46.5596 18.6865 46.9634 18.9581C47.3751 19.2306 47.6731 19.5827 47.8573 20.0143C48.0503 20.439 48.1314 20.9274 48.1005 21.4794C48.0921 21.6234 48.0761 21.7987 48.0525 22.0054C48.0289 22.212 48.005 22.3864 47.9807 22.5286C47.8871 23.0655 47.702 23.5234 47.4251 23.9024C47.1563 24.2824 46.7906 24.5586 46.328 24.7313C45.8733 24.9048 45.3281 24.9552 44.6922 24.8826ZM44.8271 23.7022C45.2483 23.7504 45.5892 23.6564 45.8497 23.4205C46.111 23.1766 46.2832 22.7977 46.366 22.2838C46.3876 22.1654 46.4093 22.0109 46.4311 21.8201C46.4529 21.6294 46.4666 21.4739 46.4723 21.3538C46.5065 20.8424 46.4239 20.4384 46.2242 20.1418C46.0246 19.8452 45.7142 19.6729 45.2929 19.6248C44.8716 19.5766 44.5303 19.6745 44.269 19.9184C44.0076 20.1623 43.8359 20.5373 43.754 21.0432C43.7324 21.1616 43.7107 21.3161 43.6889 21.5069C43.6671 21.6976 43.6534 21.8531 43.6477 21.9732C43.6125 22.4926 43.6948 22.9005 43.8944 23.1971C44.0949 23.4857 44.4058 23.6541 44.8271 23.7022ZM49.3055 25.2888C49.226 25.2797 49.1616 25.2442 49.1123 25.1822C49.0631 25.1202 49.043 25.0495 49.052 24.97L49.6949 19.3426C49.704 19.2631 49.7396 19.1987 49.8016 19.1494C49.8636 19.1002 49.9343 19.0801 50.0138 19.0891L50.9437 19.1954C51.0232 19.2045 51.0876 19.24 51.1369 19.302C51.1862 19.364 51.2063 19.4347 51.1972 19.5142L51.1509 19.9196C51.3432 19.7161 51.5871 19.5547 51.8825 19.4355C52.1868 19.3092 52.5342 19.2644 52.9246 19.3009C53.8325 19.3885 54.424 19.8144 54.699 20.5786C54.9181 20.2815 55.2095 20.0571 55.573 19.9054C55.9455 19.7467 56.3423 19.6914 56.7636 19.7395C57.1769 19.7867 57.5396 19.9248 57.8516 20.1537C58.1716 20.3835 58.4047 20.704 58.551 21.1153C58.7061 21.5195 58.7501 22.0157 58.6829 22.6039L58.2919 26.0256C58.2829 26.1051 58.2473 26.1695 58.1853 26.2187C58.1233 26.268 58.0526 26.2881 57.9731 26.279L56.9955 26.1674C56.916 26.1583 56.8516 26.1227 56.8023 26.0607C56.753 25.9988 56.7329 25.928 56.742 25.8485L57.122 22.5222C57.1629 22.1645 57.1435 21.8764 57.0638 21.658C56.985 21.4316 56.8631 21.2646 56.6982 21.1572C56.5334 21.0498 56.3436 20.9839 56.129 20.9594C55.9542 20.9394 55.7743 20.9631 55.5894 21.0306C55.4046 21.098 55.2443 21.2327 55.1085 21.4346C54.9736 21.6285 54.8857 21.9043 54.8449 22.262L54.4648 25.5884C54.4558 25.6679 54.4202 25.7322 54.3582 25.7815C54.2962 25.8308 54.2255 25.8509 54.146 25.8418L53.1684 25.7301C53.0809 25.7201 53.0126 25.6842 52.9633 25.6222C52.922 25.5611 52.9058 25.4908 52.9149 25.4113L53.2949 22.0849C53.3358 21.7273 53.3124 21.4387 53.2247 21.2194C53.138 20.9921 53.0122 20.8247 52.8473 20.7173C52.6824 20.6099 52.5006 20.5448 52.3019 20.5221C52.1191 20.5012 51.9348 20.5285 51.7491 20.6039C51.5642 20.6714 51.4043 20.8021 51.2695 20.996C51.1346 21.1899 51.0467 21.4657 51.0058 21.8234L50.6258 25.1498C50.6167 25.2293 50.5812 25.2937 50.5192 25.3429C50.4572 25.3922 50.3865 25.4123 50.307 25.4032L49.3055 25.2888ZM62.4345 26.9095C61.5523 26.8087 60.8819 26.4745 60.4233 25.9068C59.9648 25.339 59.7693 24.584 59.8367 23.6415C59.8378 23.5611 59.8452 23.4613 59.8588 23.3421C59.8733 23.2149 59.8886 23.116 59.9048 23.0454C60.0047 22.4529 60.1988 21.9517 60.4872 21.5418C60.7835 21.1328 61.1595 20.8376 61.615 20.6561C62.0715 20.4667 62.5898 20.4051 63.17 20.4714C63.8138 20.5449 64.3389 20.7418 64.7452 21.062C65.1524 21.3742 65.44 21.7815 65.6081 22.2838C65.777 22.7782 65.8261 23.3354 65.7553 23.9554L65.7267 24.2057C65.7176 24.2852 65.6821 24.3496 65.6201 24.3989C65.5581 24.4482 65.4834 24.4678 65.3959 24.4578L61.4377 24.0056C61.4377 24.0056 61.4363 24.0175 61.4336 24.0414C61.4309 24.0652 61.4286 24.0851 61.4268 24.101C61.403 24.3801 61.4251 24.6443 61.4932 24.8936C61.5702 25.136 61.6959 25.3395 61.8704 25.5044C62.0527 25.6702 62.279 25.7685 62.5493 25.7994C62.7718 25.8248 62.9622 25.8143 63.1205 25.768C63.2797 25.7137 63.412 25.6483 63.5174 25.5718C63.6227 25.4952 63.6985 25.4314 63.7445 25.3803C63.827 25.2931 63.889 25.2438 63.9305 25.2325C63.9809 25.2141 64.0499 25.2099 64.1373 25.2199L65.1626 25.337C65.2421 25.3461 65.303 25.3772 65.3452 25.4303C65.3954 25.4844 65.4124 25.5467 65.3963 25.6174C65.3738 25.7436 65.2886 25.8909 65.1405 26.0592C65.0004 26.2284 64.8051 26.3872 64.5546 26.5357C64.3042 26.6843 63.9972 26.7982 63.6339 26.8774C63.2794 26.9497 62.8796 26.9604 62.4345 26.9095ZM61.5521 23.0041L64.187 23.3051L64.191 23.2694C64.2265 22.9594 64.2057 22.6832 64.1287 22.4409C64.0517 22.1986 63.9215 21.9986 63.7383 21.8407C63.555 21.6829 63.3243 21.5881 63.0461 21.5563C62.7679 21.5246 62.5217 21.5649 62.3076 21.6773C62.0934 21.7897 61.9215 21.9553 61.7919 22.174C61.6702 22.3936 61.5916 22.6584 61.5562 22.9684L61.5521 23.0041ZM68.9936 27.6589C68.5167 27.6044 68.1137 27.502 67.7847 27.3517C67.4636 27.2022 67.2052 27.0318 67.0097 26.8404C66.8142 26.649 66.6743 26.4639 66.59 26.2852C66.5058 26.1064 66.466 25.961 66.4708 25.8488C66.4728 25.7605 66.5044 25.6956 66.5655 25.6543C66.6354 25.6059 66.7061 25.5858 66.7777 25.594L67.7196 25.7016C67.7513 25.7052 67.7787 25.7124 67.8017 25.7231C67.8246 25.7337 67.8537 25.7612 67.8889 25.8055C67.9822 25.9047 68.0791 26.0084 68.1794 26.1165C68.2878 26.2255 68.4173 26.3248 68.5681 26.4145C68.7198 26.4963 68.9149 26.5508 69.1533 26.578C69.4633 26.6134 69.7285 26.5833 69.9487 26.4877C70.1779 26.385 70.3056 26.2185 70.3319 25.988C70.351 25.8211 70.3187 25.6805 70.2352 25.5663C70.1595 25.4529 70.0031 25.3425 69.7658 25.2348C69.5294 25.1193 69.1901 24.9879 68.7479 24.8408C68.3146 24.6866 67.96 24.5132 67.6841 24.3206C67.4081 24.1281 67.2123 23.9044 67.0964 23.6496C66.9806 23.3948 66.9409 23.1085 66.9772 22.7905C67.0126 22.4805 67.1376 22.1969 67.3522 21.9396C67.5756 21.6752 67.8806 21.4725 68.2671 21.3315C68.6616 21.1914 69.133 21.1526 69.6815 21.2153C70.1107 21.2643 70.4779 21.3626 70.7831 21.5102C71.0892 21.6499 71.3365 21.811 71.525 21.9936C71.7215 22.1771 71.8658 22.3586 71.958 22.5382C72.0511 22.7099 72.0948 22.8558 72.0892 22.976C72.0871 23.0643 72.0551 23.1331 71.9931 23.1824C71.932 23.2237 71.8657 23.2403 71.7942 23.2321L70.9119 23.1313C70.8722 23.1268 70.8373 23.1148 70.8073 23.0952C70.7774 23.0757 70.7478 23.0522 70.7188 23.0247C70.6404 22.9353 70.5546 22.8409 70.4612 22.7417C70.3679 22.6424 70.2494 22.5524 70.1056 22.4716C69.9707 22.3837 69.784 22.3261 69.5456 22.2989C69.2436 22.2644 69.0053 22.3056 68.8309 22.4226C68.6574 22.5316 68.5593 22.6854 68.5366 22.8841C68.5212 23.0193 68.5433 23.1426 68.6031 23.2541C68.6717 23.3585 68.8162 23.4676 69.0367 23.5814C69.2572 23.6952 69.5965 23.8265 70.0546 23.9755C70.5762 24.1317 70.9811 24.3229 71.2693 24.5491C71.5664 24.7682 71.7644 25.0082 71.8634 25.2692C71.9713 25.523 72.0084 25.797 71.9748 26.0911C71.934 26.4488 71.7899 26.7584 71.5426 27.0201C71.3033 27.2826 70.9674 27.4737 70.535 27.5934C70.1115 27.7061 69.5977 27.7279 68.9936 27.6589Z" fill="white"/>
</svg>
