<svg width="1440" height="740" viewBox="0 0 1440 740" fill="none" xmlns="http://www.w3.org/2000/svg">
<g clip-path="url(#clip0_31_9)">
<rect width="1440" height="740" fill="white"/>
<g opacity="0.3">
<g filter="url(#filter0_f_31_9)">
<circle cx="178.484" cy="178.484" r="178.484" transform="matrix(0 -1 -1 0 -73.4543 635.604)" fill="#FF3E00"/>
</g>
<g filter="url(#filter1_f_31_9)">
<circle cx="178.484" cy="178.484" r="178.484" transform="matrix(0 -1 -1 0 -243.036 449.912)" fill="#EA2845"/>
</g>
<g filter="url(#filter2_f_31_9)">
<circle cx="178.484" cy="178.484" r="178.484" transform="matrix(0 -1 -1 0 73.2336 287.962)" fill="#0070F3"/>
</g>
<g filter="url(#filter3_f_31_9)">
<circle cx="178.484" cy="178.484" r="178.484" transform="matrix(0 -1 -1 0 375.089 245.566)" fill="#63F655"/>
</g>
</g>
<g opacity="0.3">
<g filter="url(#filter4_f_31_9)">
<circle cx="920.484" cy="618.152" r="178.484" fill="#FF3E00" fill-opacity="0.7"/>
</g>
<g filter="url(#filter5_f_31_9)">
<circle cx="1106.18" cy="787.734" r="178.484" fill="#EA2845" fill-opacity="0.7"/>
</g>
<g filter="url(#filter6_f_31_9)">
<circle cx="1268.13" cy="471.465" r="178.484" fill="#0070F3" fill-opacity="0.7"/>
</g>
<g filter="url(#filter7_f_31_9)">
<circle cx="1310.52" cy="169.609" r="178.484" fill="#63F655" fill-opacity="0.7"/>
</g>
</g>
<rect x="73.2336" y="562.382" width="230" height="44" rx="22" transform="rotate(-12.6322 73.2336 562.382)" fill="#FFCF00"/>
<rect x="73.8309" y="562.76" width="229" height="43" rx="21.5" transform="rotate(-12.6322 73.8309 562.76)" stroke="black" stroke-opacity="0.05"/>
<path d="M101.75 585.198C101.632 585.224 101.524 585.206 101.423 585.142C101.323 585.079 101.26 584.988 101.234 584.871L98.6709 573.437C98.642 573.308 98.6594 573.193 98.723 573.093C98.7866 572.993 98.8769 572.929 98.994 572.903L103.28 571.943C104.462 571.678 105.475 571.641 106.317 571.834C107.172 572.023 107.872 572.432 108.418 573.06C108.977 573.685 109.377 574.511 109.62 575.539C109.759 576.049 109.873 576.503 109.962 576.901C110.051 577.299 110.14 577.753 110.23 578.262C110.451 579.356 110.454 580.302 110.239 581.1C110.022 581.887 109.572 582.541 108.889 583.063C108.216 583.571 107.294 583.956 106.123 584.218L101.75 585.198ZM103.317 582.726L105.583 582.218C106.238 582.071 106.75 581.858 107.118 581.579C107.486 581.299 107.717 580.934 107.813 580.482C107.918 580.016 107.9 579.442 107.759 578.76C107.692 578.406 107.63 578.1 107.572 577.843C107.523 577.571 107.464 577.307 107.395 577.052C107.334 576.783 107.26 576.48 107.173 576.143C106.934 575.188 106.535 574.533 105.976 574.179C105.417 573.825 104.64 573.759 103.645 573.982L101.467 574.47L103.317 582.726ZM117.441 581.866C116.141 582.157 115.027 582.013 114.098 581.435C113.169 580.856 112.52 579.882 112.152 578.513C112.114 578.399 112.075 578.254 112.036 578.078C111.994 577.891 111.967 577.743 111.955 577.635C111.805 576.747 111.833 575.941 112.04 575.218C112.259 574.493 112.646 573.889 113.203 573.408C113.756 572.915 114.46 572.573 115.315 572.381C116.264 572.169 117.105 572.189 117.838 572.443C118.568 572.685 119.176 573.121 119.662 573.75C120.144 574.367 120.488 575.133 120.693 576.046L120.775 576.415C120.802 576.532 120.783 576.641 120.719 576.741C120.656 576.841 120.56 576.906 120.431 576.935L114.6 578.242C114.6 578.242 114.603 578.259 114.611 578.294C114.619 578.329 114.626 578.359 114.631 578.382C114.735 578.789 114.896 579.153 115.115 579.473C115.344 579.778 115.622 580.005 115.95 580.152C116.29 580.298 116.659 580.326 117.057 580.236C117.385 580.163 117.65 580.054 117.851 579.911C118.05 579.756 118.205 579.598 118.317 579.438C118.429 579.277 118.505 579.15 118.545 579.054C118.619 578.89 118.682 578.79 118.736 578.753C118.798 578.703 118.894 578.663 119.022 578.634L120.533 578.295C120.65 578.269 120.752 578.283 120.838 578.338C120.935 578.39 120.99 578.47 121.002 578.578C121.032 578.768 120.984 579.018 120.857 579.329C120.742 579.638 120.543 579.959 120.261 580.293C119.979 580.627 119.601 580.939 119.125 581.23C118.658 581.507 118.097 581.719 117.441 581.866ZM114.269 576.766L118.151 575.896L118.139 575.844C118.036 575.387 117.871 575.006 117.643 574.7C117.414 574.395 117.132 574.175 116.794 574.042C116.457 573.908 116.083 573.888 115.673 573.98C115.264 574.071 114.935 574.25 114.686 574.514C114.438 574.779 114.276 575.098 114.2 575.472C114.136 575.843 114.155 576.257 114.257 576.713L114.269 576.766ZM127.034 579.716C126.425 579.852 125.864 579.874 125.351 579.78C124.847 579.671 124.401 579.464 124.012 579.157C123.624 578.851 123.291 578.464 123.014 577.997C122.735 577.519 122.515 576.978 122.356 576.374C122.297 576.166 122.249 575.98 122.212 575.816C122.173 575.64 122.135 575.446 122.1 575.233C121.992 574.642 121.958 574.078 121.997 573.54C122.048 573 122.184 572.508 122.404 572.065C122.634 571.608 122.953 571.223 123.363 570.91C123.784 570.594 124.299 570.368 124.908 570.231C125.54 570.09 126.098 570.081 126.581 570.207C127.073 570.318 127.504 570.51 127.873 570.784L126.999 566.885C126.972 566.768 126.985 566.661 127.037 566.563C127.101 566.463 127.197 566.398 127.326 566.369L128.819 566.034C128.936 566.008 129.045 566.027 129.145 566.09C129.245 566.154 129.309 566.244 129.335 566.362L131.941 577.989C131.967 578.106 131.948 578.215 131.885 578.315C131.821 578.416 131.731 578.479 131.614 578.505L130.226 578.816C130.097 578.845 129.983 578.828 129.882 578.764C129.794 578.698 129.736 578.606 129.71 578.489L129.564 577.839C129.353 578.268 129.045 578.65 128.641 578.987C128.249 579.321 127.713 579.564 127.034 579.716ZM127.262 577.691C127.754 577.581 128.121 577.382 128.364 577.094C128.607 576.805 128.761 576.476 128.825 576.105C128.887 575.722 128.883 575.348 128.813 574.982C128.778 574.769 128.734 574.545 128.681 574.311C128.626 574.065 128.569 573.838 128.51 573.63C128.42 573.281 128.263 572.966 128.04 572.684C127.814 572.39 127.532 572.17 127.192 572.025C126.852 571.88 126.447 571.86 125.979 571.965C125.487 572.075 125.12 572.274 124.877 572.562C124.643 572.836 124.501 573.163 124.451 573.543C124.401 573.924 124.412 574.327 124.483 574.754C124.55 575.108 124.628 575.459 124.719 575.808C124.837 576.224 124.999 576.593 125.207 576.916C125.415 577.238 125.684 577.479 126.015 577.639C126.355 577.784 126.77 577.801 127.262 577.691ZM134.798 577.791C134.681 577.818 134.572 577.799 134.472 577.735C134.371 577.672 134.308 577.582 134.282 577.464L132.424 569.174C132.397 569.057 132.416 568.948 132.48 568.848C132.543 568.748 132.634 568.684 132.751 568.658L134.209 568.331C134.337 568.302 134.446 568.321 134.535 568.387C134.635 568.451 134.698 568.541 134.725 568.658L136.583 576.949C136.609 577.066 136.59 577.175 136.527 577.275C136.475 577.373 136.384 577.436 136.256 577.465L134.798 577.791ZM132.342 567.163C132.213 567.192 132.1 567.181 132.002 567.129C131.914 567.063 131.855 566.965 131.826 566.836L131.543 565.572C131.516 565.454 131.529 565.347 131.581 565.249C131.645 565.149 131.741 565.084 131.87 565.056L133.468 564.697C133.597 564.668 133.711 564.686 133.812 564.749C133.912 564.813 133.975 564.903 134.002 565.02L134.285 566.285C134.314 566.414 134.296 566.528 134.233 566.629C134.167 566.717 134.069 566.776 133.94 566.805L132.342 567.163ZM142.999 576.138C142.156 576.327 141.377 576.335 140.662 576.164C139.959 575.989 139.359 575.644 138.862 575.128C138.374 574.598 138.017 573.91 137.79 573.063C137.739 572.89 137.682 572.663 137.619 572.382C137.553 572.089 137.505 571.847 137.475 571.657C137.319 570.795 137.349 570.026 137.567 569.35C137.793 568.659 138.187 568.085 138.749 567.627C139.322 567.167 140.03 566.842 140.873 566.653C141.622 566.485 142.284 566.448 142.858 566.54C143.433 566.633 143.925 566.799 144.335 567.039C144.746 567.279 145.072 567.557 145.315 567.871C145.567 568.172 145.73 568.461 145.805 568.739C145.845 568.865 145.828 568.98 145.753 569.083C145.686 569.172 145.595 569.229 145.478 569.255L143.932 569.602C143.815 569.628 143.715 569.62 143.631 569.577C143.56 569.531 143.481 569.457 143.396 569.353C143.116 568.924 142.808 568.648 142.473 568.527C142.148 568.391 141.763 568.372 141.318 568.472C140.732 568.603 140.306 568.896 140.038 569.349C139.78 569.788 139.729 570.408 139.884 571.21C139.96 571.66 140.052 572.07 140.159 572.439C140.364 573.242 140.676 573.787 141.097 574.074C141.53 574.358 142.039 574.435 142.624 574.303C143.081 574.201 143.429 574.025 143.668 573.774C143.904 573.512 144.058 573.127 144.129 572.62C144.161 572.489 144.2 572.389 144.245 572.317C144.302 572.243 144.39 572.192 144.507 572.166L146.052 571.82C146.169 571.793 146.278 571.812 146.378 571.876C146.488 571.925 146.551 572.015 146.568 572.147C146.604 572.36 146.599 572.613 146.554 572.906C146.518 573.185 146.42 573.49 146.261 573.82C146.11 574.137 145.898 574.449 145.622 574.757C145.344 575.053 144.987 575.323 144.55 575.569C144.125 575.812 143.608 576.002 142.999 576.138ZM151.733 574.18C151.124 574.317 150.548 574.323 150.003 574.199C149.457 574.063 148.992 573.829 148.61 573.497C148.237 573.15 147.994 572.725 147.882 572.221C147.698 571.402 147.88 570.678 148.428 570.051C148.985 569.41 149.79 568.885 150.842 568.477L153.17 567.587L153.087 567.218C152.977 566.726 152.769 566.373 152.463 566.159C152.156 565.945 151.705 565.904 151.107 566.038C150.686 566.133 150.36 566.298 150.13 566.534C149.909 566.756 149.766 567.021 149.7 567.331C149.641 567.504 149.523 567.611 149.347 567.65L147.96 567.961C147.831 567.99 147.724 567.977 147.638 567.923C147.563 567.865 147.513 567.778 147.487 567.661C147.457 567.471 147.481 567.226 147.562 566.925C147.642 566.624 147.807 566.317 148.056 566.003C148.303 565.677 148.646 565.372 149.087 565.089C149.528 564.806 150.088 564.588 150.767 564.436C151.505 564.271 152.146 564.225 152.692 564.3C153.246 564.36 153.71 564.508 154.083 564.744C154.455 564.98 154.758 565.288 154.99 565.666C155.222 566.044 155.39 566.462 155.492 566.919L156.728 572.434C156.754 572.551 156.736 572.66 156.672 572.76C156.609 572.86 156.518 572.924 156.401 572.95L154.978 573.269C154.85 573.298 154.735 573.28 154.635 573.217C154.546 573.15 154.489 573.059 154.462 572.942L154.309 572.257C154.207 572.513 154.049 572.77 153.836 573.027C153.62 573.272 153.339 573.501 152.994 573.713C152.657 573.912 152.237 574.068 151.733 574.18ZM151.956 572.378C152.366 572.286 152.715 572.116 153.004 571.867C153.304 571.615 153.507 571.286 153.613 570.881C153.728 570.462 153.723 569.971 153.597 569.409L153.514 569.04L151.821 569.715C151.154 569.975 150.676 570.261 150.389 570.571C150.102 570.881 149.997 571.206 150.073 571.546C150.131 571.803 150.257 572.009 150.451 572.162C150.654 572.301 150.889 572.39 151.156 572.428C151.42 572.455 151.687 572.438 151.956 572.378ZM163.118 571.444C162.415 571.602 161.796 571.612 161.261 571.473C160.726 571.335 160.287 571.052 159.946 570.624C159.601 570.185 159.348 569.602 159.185 568.876L158.291 564.889L156.904 565.2C156.787 565.227 156.678 565.208 156.578 565.144C156.477 565.081 156.414 564.99 156.388 564.873L156.16 563.854C156.133 563.737 156.152 563.629 156.216 563.528C156.279 563.428 156.369 563.365 156.487 563.338L157.874 563.027L157.221 560.112C157.194 559.995 157.207 559.887 157.259 559.79C157.323 559.689 157.419 559.625 157.548 559.596L158.97 559.277C159.088 559.251 159.196 559.269 159.297 559.333C159.397 559.397 159.46 559.487 159.487 559.604L160.14 562.52L162.335 562.028C162.453 562.001 162.561 562.02 162.662 562.084C162.762 562.147 162.825 562.238 162.852 562.355L163.08 563.373C163.106 563.491 163.087 563.599 163.024 563.7C162.96 563.8 162.87 563.863 162.753 563.889L160.557 564.381L161.411 568.193C161.519 568.673 161.685 569.029 161.909 569.262C162.145 569.492 162.474 569.56 162.896 569.465L164.108 569.194C164.225 569.167 164.333 569.186 164.434 569.25C164.534 569.313 164.597 569.404 164.624 569.521L164.868 570.61C164.894 570.727 164.875 570.835 164.812 570.936C164.748 571.036 164.658 571.099 164.541 571.126L163.118 571.444ZM170.494 569.976C169.194 570.267 168.08 570.123 167.151 569.545C166.222 568.966 165.573 567.992 165.205 566.623C165.167 566.509 165.128 566.364 165.089 566.188C165.047 566.001 165.02 565.853 165.008 565.745C164.858 564.856 164.886 564.051 165.093 563.328C165.312 562.603 165.7 561.999 166.256 561.518C166.809 561.025 167.514 560.683 168.368 560.491C169.317 560.279 170.158 560.299 170.891 560.553C171.622 560.795 172.229 561.231 172.715 561.86C173.198 562.477 173.541 563.242 173.746 564.156L173.829 564.525C173.855 564.642 173.836 564.75 173.773 564.851C173.709 564.951 173.613 565.016 173.484 565.045L167.653 566.351C167.653 566.351 167.657 566.369 167.664 566.404C167.672 566.439 167.679 566.469 167.684 566.492C167.788 566.899 167.949 567.263 168.168 567.582C168.397 567.888 168.675 568.115 169.003 568.262C169.343 568.408 169.712 568.435 170.11 568.346C170.438 568.273 170.703 568.164 170.904 568.021C171.103 567.865 171.258 567.708 171.37 567.547C171.482 567.387 171.558 567.259 171.598 567.164C171.672 567 171.735 566.9 171.789 566.863C171.851 566.812 171.947 566.773 172.075 566.744L173.586 566.405C173.703 566.379 173.805 566.393 173.891 566.448C173.988 566.499 174.043 566.579 174.055 566.687C174.085 566.877 174.037 567.128 173.91 567.439C173.795 567.748 173.596 568.069 173.314 568.403C173.032 568.737 172.654 569.049 172.178 569.34C171.711 569.617 171.15 569.829 170.494 569.976ZM167.322 564.876L171.204 564.006L171.192 563.953C171.089 563.497 170.924 563.116 170.696 562.81C170.467 562.505 170.185 562.285 169.847 562.152C169.51 562.018 169.136 561.998 168.727 562.089C168.317 562.181 167.988 562.36 167.74 562.624C167.491 562.889 167.329 563.208 167.253 563.582C167.189 563.953 167.208 564.367 167.31 564.823L167.322 564.876ZM180.087 567.826C179.478 567.962 178.917 567.984 178.404 567.889C177.9 567.781 177.454 567.574 177.065 567.267C176.677 566.961 176.344 566.574 176.068 566.107C175.788 565.629 175.569 565.088 175.409 564.484C175.35 564.276 175.302 564.09 175.265 563.926C175.226 563.75 175.188 563.556 175.153 563.342C175.045 562.752 175.011 562.188 175.05 561.65C175.101 561.11 175.237 560.618 175.457 560.175C175.687 559.718 176.007 559.333 176.416 559.02C176.837 558.704 177.352 558.478 177.961 558.341C178.593 558.199 179.151 558.191 179.634 558.317C180.126 558.428 180.557 558.62 180.926 558.894L180.052 554.995C180.026 554.878 180.038 554.77 180.09 554.673C180.154 554.572 180.25 554.508 180.379 554.479L181.872 554.144C181.989 554.118 182.098 554.137 182.198 554.2C182.298 554.264 182.362 554.354 182.388 554.471L184.994 566.099C185.02 566.216 185.001 566.325 184.938 566.425C184.874 566.525 184.784 566.589 184.667 566.615L183.279 566.926C183.15 566.955 183.036 566.937 182.935 566.874C182.847 566.808 182.789 566.716 182.763 566.599L182.617 565.949C182.406 566.378 182.098 566.76 181.694 567.097C181.302 567.431 180.766 567.674 180.087 567.826ZM180.315 565.801C180.807 565.691 181.175 565.492 181.417 565.203C181.66 564.915 181.814 564.586 181.878 564.215C181.94 563.832 181.936 563.458 181.867 563.092C181.831 562.879 181.787 562.655 181.735 562.421C181.679 562.175 181.622 561.948 181.563 561.74C181.473 561.391 181.316 561.076 181.093 560.794C180.867 560.5 180.585 560.28 180.245 560.135C179.905 559.99 179.5 559.97 179.032 560.075C178.54 560.185 178.173 560.384 177.93 560.672C177.696 560.946 177.554 561.273 177.504 561.653C177.454 562.033 177.465 562.437 177.536 562.864C177.603 563.218 177.681 563.569 177.772 563.918C177.89 564.334 178.053 564.703 178.26 565.026C178.468 565.348 178.737 565.589 179.068 565.748C179.408 565.894 179.824 565.911 180.315 565.801ZM190.435 565.322C190.342 565.343 190.246 565.328 190.148 565.276C190.062 565.221 190.007 565.141 189.984 565.036C189.973 564.989 189.973 564.934 189.984 564.87L191.678 552.592C191.686 552.467 191.729 552.353 191.804 552.25C191.888 552.133 192.018 552.055 192.194 552.015L194.108 551.586C194.284 551.547 194.429 551.564 194.544 551.636C194.656 551.697 194.748 551.781 194.822 551.888L201.594 562.268C201.618 562.324 201.636 562.375 201.647 562.422C201.67 562.528 201.655 562.623 201.6 562.709C201.546 562.795 201.472 562.849 201.378 562.87L199.85 563.212C199.686 563.249 199.555 563.241 199.457 563.189C199.369 563.123 199.305 563.058 199.266 562.993L197.96 561.035L192.743 562.204L192.398 564.532C192.39 564.607 192.355 564.695 192.291 564.796C192.237 564.882 192.127 564.943 191.963 564.98L190.435 565.322ZM192.905 560.046L196.892 559.153L193.674 554.174L192.905 560.046ZM206.658 561.871C205.955 562.028 205.334 562.082 204.794 562.03C204.265 561.977 203.815 561.862 203.444 561.687C203.073 561.512 202.783 561.319 202.576 561.107C202.369 560.895 202.241 560.709 202.192 560.547C202.152 560.421 202.164 560.314 202.231 560.225C202.306 560.122 202.396 560.059 202.502 560.035L203.889 559.724C203.936 559.714 203.978 559.711 204.016 559.714C204.054 559.718 204.109 559.743 204.18 559.788C204.361 559.883 204.55 559.982 204.745 560.086C204.952 560.187 205.185 560.264 205.443 560.317C205.698 560.358 206.001 560.339 206.352 560.261C206.809 560.158 207.17 559.985 207.435 559.741C207.709 559.483 207.808 559.184 207.732 558.845C207.677 558.599 207.562 558.416 207.387 558.295C207.224 558.171 206.948 558.092 206.559 558.056C206.167 558.009 205.622 557.989 204.923 557.999C204.233 557.993 203.645 557.922 203.16 557.785C202.674 557.648 202.286 557.427 201.997 557.123C201.707 556.819 201.51 556.433 201.405 555.965C201.303 555.508 201.34 555.045 201.518 554.574C201.704 554.09 202.037 553.653 202.515 553.263C203.005 552.87 203.654 552.583 204.462 552.402C205.094 552.26 205.663 552.219 206.168 552.278C206.67 552.325 207.1 552.432 207.457 552.598C207.826 552.761 208.12 552.947 208.339 553.156C208.555 553.354 208.689 553.539 208.74 553.712C208.78 553.838 208.769 553.952 208.705 554.052C208.639 554.14 208.553 554.197 208.448 554.22L207.148 554.512C207.09 554.525 207.034 554.525 206.982 554.512C206.93 554.499 206.877 554.48 206.822 554.455C206.667 554.367 206.499 554.276 206.318 554.181C206.137 554.086 205.924 554.017 205.681 553.973C205.447 553.915 205.154 553.925 204.802 554.004C204.358 554.104 204.04 554.28 203.851 554.531C203.658 554.771 203.595 555.037 203.661 555.33C203.705 555.529 203.797 555.693 203.937 555.821C204.086 555.936 204.344 556.019 204.712 556.072C205.081 556.125 205.626 556.144 206.349 556.13C207.165 556.094 207.833 556.166 208.352 556.345C208.881 556.509 209.28 556.752 209.548 557.073C209.826 557.379 210.014 557.749 210.111 558.182C210.229 558.709 210.177 559.219 209.955 559.711C209.745 560.201 209.363 560.637 208.81 561.02C208.265 561.388 207.548 561.671 206.658 561.871ZM216.006 559.776C215.303 559.933 214.682 559.986 214.142 559.935C213.613 559.882 213.163 559.767 212.792 559.592C212.421 559.417 212.131 559.224 211.924 559.012C211.717 558.8 211.589 558.614 211.54 558.452C211.5 558.326 211.513 558.219 211.579 558.13C211.654 558.027 211.745 557.964 211.85 557.94L213.238 557.629C213.284 557.619 213.327 557.615 213.364 557.619C213.402 557.623 213.457 557.648 213.529 557.693C213.71 557.788 213.898 557.887 214.093 557.991C214.3 558.092 214.533 558.169 214.791 558.222C215.046 558.263 215.349 558.244 215.7 558.166C216.157 558.063 216.518 557.89 216.783 557.646C217.057 557.388 217.156 557.089 217.08 556.75C217.025 556.504 216.91 556.32 216.736 556.2C216.573 556.076 216.297 555.997 215.907 555.961C215.515 555.914 214.97 555.894 214.271 555.903C213.581 555.898 212.993 555.827 212.508 555.69C212.022 555.553 211.634 555.332 211.345 555.028C211.055 554.724 210.858 554.338 210.753 553.87C210.651 553.413 210.688 552.949 210.866 552.479C211.052 551.995 211.385 551.557 211.863 551.167C212.353 550.775 213.002 550.488 213.81 550.307C214.442 550.165 215.011 550.124 215.516 550.183C216.019 550.23 216.448 550.337 216.805 550.503C217.174 550.666 217.468 550.852 217.687 551.061C217.903 551.259 218.037 551.444 218.088 551.617C218.129 551.743 218.117 551.856 218.054 551.957C217.987 552.045 217.902 552.102 217.796 552.125L216.496 552.416C216.438 552.43 216.383 552.43 216.33 552.417C216.278 552.404 216.225 552.385 216.17 552.36C216.015 552.272 215.847 552.181 215.666 552.086C215.485 551.991 215.273 551.922 215.029 551.878C214.795 551.82 214.502 551.83 214.151 551.909C213.706 552.009 213.388 552.184 213.199 552.436C213.007 552.676 212.943 552.942 213.009 553.235C213.054 553.434 213.146 553.598 213.285 553.726C213.434 553.841 213.692 553.924 214.061 553.977C214.429 554.03 214.975 554.049 215.697 554.034C216.513 553.999 217.181 554.071 217.7 554.249C218.229 554.414 218.628 554.657 218.897 554.978C219.174 555.284 219.362 555.654 219.459 556.087C219.577 556.614 219.525 557.124 219.304 557.616C219.094 558.106 218.712 558.542 218.158 558.925C217.613 559.293 216.896 559.576 216.006 559.776ZM222.276 558.186C222.159 558.212 222.05 558.194 221.95 558.13C221.85 558.066 221.786 557.976 221.76 557.859L219.902 549.569C219.876 549.452 219.895 549.343 219.958 549.243C220.022 549.142 220.112 549.079 220.229 549.053L221.687 548.726C221.816 548.697 221.925 548.716 222.013 548.782C222.114 548.846 222.177 548.936 222.203 549.053L224.061 557.343C224.087 557.46 224.069 557.569 224.005 557.669C223.953 557.767 223.863 557.831 223.734 557.859L222.276 558.186ZM219.82 547.558C219.692 547.587 219.578 547.575 219.481 547.523C219.392 547.457 219.333 547.36 219.304 547.231L219.021 545.966C218.995 545.849 219.008 545.742 219.059 545.644C219.123 545.544 219.219 545.479 219.348 545.45L220.946 545.092C221.075 545.063 221.19 545.08 221.29 545.144C221.39 545.208 221.454 545.298 221.48 545.415L221.763 546.68C221.792 546.809 221.775 546.923 221.711 547.023C221.645 547.112 221.548 547.171 221.419 547.2L219.82 547.558ZM229.985 556.643C229.283 556.8 228.661 556.853 228.121 556.802C227.593 556.749 227.143 556.634 226.771 556.459C226.4 556.284 226.111 556.091 225.903 555.879C225.696 555.667 225.568 555.481 225.52 555.319C225.479 555.193 225.492 555.086 225.558 554.997C225.634 554.894 225.724 554.831 225.829 554.807L227.217 554.496C227.264 554.486 227.306 554.482 227.344 554.486C227.382 554.49 227.436 554.515 227.508 554.56C227.689 554.655 227.877 554.754 228.073 554.858C228.28 554.959 228.512 555.036 228.77 555.089C229.025 555.13 229.329 555.111 229.68 555.033C230.136 554.93 230.497 554.757 230.762 554.513C231.037 554.255 231.136 553.956 231.06 553.617C231.004 553.371 230.89 553.187 230.715 553.067C230.552 552.943 230.276 552.864 229.887 552.828C229.495 552.781 228.949 552.761 228.25 552.77C227.561 552.765 226.973 552.694 226.487 552.557C226.001 552.42 225.614 552.199 225.324 551.895C225.035 551.591 224.838 551.205 224.733 550.737C224.63 550.28 224.668 549.816 224.845 549.346C225.032 548.862 225.364 548.424 225.842 548.034C226.332 547.642 226.981 547.355 227.789 547.174C228.422 547.032 228.99 546.991 229.496 547.05C229.998 547.097 230.428 547.204 230.785 547.37C231.153 547.533 231.447 547.719 231.666 547.928C231.883 548.126 232.016 548.311 232.067 548.484C232.108 548.61 232.097 548.723 232.033 548.824C231.967 548.912 231.881 548.968 231.776 548.992L230.476 549.283C230.417 549.297 230.362 549.297 230.31 549.284C230.258 549.271 230.204 549.252 230.15 549.227C229.995 549.139 229.827 549.048 229.645 548.953C229.464 548.858 229.252 548.789 229.009 548.745C228.774 548.687 228.481 548.697 228.13 548.776C227.685 548.876 227.368 549.051 227.178 549.303C226.986 549.543 226.923 549.809 226.988 550.102C227.033 550.301 227.125 550.465 227.265 550.593C227.413 550.708 227.672 550.791 228.04 550.844C228.409 550.897 228.954 550.916 229.676 550.901C230.492 550.866 231.16 550.938 231.68 551.116C232.209 551.281 232.607 551.523 232.876 551.844C233.154 552.151 233.341 552.521 233.438 552.954C233.556 553.481 233.505 553.991 233.283 554.483C233.073 554.973 232.691 555.409 232.137 555.792C231.593 556.16 230.875 556.443 229.985 556.643ZM239.927 554.23C239.225 554.388 238.606 554.397 238.071 554.259C237.535 554.121 237.097 553.838 236.755 553.41C236.411 552.971 236.157 552.388 235.994 551.662L235.101 547.675L233.713 547.986C233.596 548.012 233.488 547.994 233.387 547.93C233.287 547.866 233.224 547.776 233.197 547.659L232.969 546.64C232.943 546.523 232.961 546.414 233.025 546.314C233.089 546.214 233.179 546.15 233.296 546.124L234.684 545.813L234.03 542.898C234.004 542.78 234.017 542.673 234.069 542.575C234.132 542.475 234.228 542.41 234.357 542.381L235.78 542.063C235.897 542.036 236.006 542.055 236.106 542.119C236.206 542.182 236.27 542.273 236.296 542.39L236.949 545.305L239.145 544.813C239.262 544.787 239.371 544.806 239.471 544.869C239.571 544.933 239.635 545.023 239.661 545.14L239.889 546.159C239.916 546.276 239.897 546.385 239.833 546.485C239.77 546.586 239.679 546.649 239.562 546.675L237.367 547.167L238.221 550.979C238.328 551.459 238.494 551.815 238.719 552.048C238.955 552.278 239.284 552.345 239.705 552.251L240.917 551.979C241.034 551.953 241.143 551.972 241.243 552.035C241.343 552.099 241.407 552.189 241.433 552.306L241.677 553.395C241.703 553.512 241.685 553.621 241.621 553.721C241.557 553.822 241.467 553.885 241.35 553.911L239.927 554.23ZM246.021 553.049C245.412 553.185 244.836 553.192 244.291 553.068C243.745 552.932 243.28 552.698 242.898 552.365C242.525 552.018 242.282 551.593 242.17 551.09C241.986 550.27 242.168 549.547 242.716 548.92C243.273 548.278 244.078 547.754 245.13 547.346L247.458 546.455L247.375 546.086C247.265 545.594 247.057 545.241 246.751 545.027C246.444 544.813 245.993 544.773 245.395 544.907C244.974 545.001 244.648 545.166 244.418 545.402C244.197 545.624 244.054 545.89 243.988 546.2C243.929 546.373 243.811 546.479 243.635 546.519L242.248 546.83C242.119 546.858 242.012 546.846 241.926 546.791C241.851 546.734 241.801 546.647 241.775 546.53C241.745 546.34 241.769 546.094 241.85 545.794C241.93 545.493 242.095 545.185 242.344 544.871C242.591 544.545 242.934 544.241 243.375 543.958C243.816 543.674 244.376 543.457 245.055 543.304C245.793 543.139 246.434 543.094 246.98 543.168C247.534 543.228 247.998 543.376 248.371 543.613C248.743 543.849 249.046 544.156 249.278 544.535C249.51 544.913 249.678 545.33 249.78 545.787L251.016 551.302C251.042 551.419 251.024 551.528 250.96 551.628C250.897 551.729 250.806 551.792 250.689 551.818L249.266 552.137C249.138 552.166 249.023 552.149 248.923 552.085C248.834 552.019 248.777 551.927 248.75 551.81L248.597 551.125C248.495 551.382 248.337 551.638 248.124 551.895C247.908 552.14 247.627 552.369 247.282 552.582C246.945 552.78 246.525 552.936 246.021 553.049ZM246.244 551.246C246.654 551.155 247.003 550.984 247.292 550.735C247.592 550.483 247.795 550.155 247.901 549.75C248.016 549.331 248.011 548.84 247.885 548.278L247.802 547.909L246.109 548.584C245.442 548.844 244.964 549.129 244.677 549.439C244.39 549.75 244.285 550.075 244.361 550.414C244.419 550.672 244.545 550.877 244.739 551.03C244.942 551.169 245.177 551.258 245.444 551.297C245.708 551.324 245.975 551.307 246.244 551.246ZM253.786 551.124C253.668 551.151 253.56 551.132 253.459 551.068C253.359 551.005 253.296 550.914 253.269 550.797L251.411 542.507C251.385 542.39 251.404 542.281 251.468 542.181C251.531 542.08 251.621 542.017 251.739 541.991L253.179 541.668C253.296 541.642 253.405 541.661 253.505 541.724C253.605 541.788 253.669 541.878 253.695 541.995L253.856 542.715C254.077 542.272 254.394 541.875 254.807 541.525C255.229 541.159 255.792 540.898 256.494 540.741C257.209 540.581 257.866 540.605 258.466 540.815C259.064 541.013 259.569 541.373 259.981 541.896C260.405 542.416 260.709 543.086 260.893 543.905L261.999 548.841C262.025 548.958 262.007 549.067 261.943 549.167C261.879 549.267 261.789 549.331 261.672 549.357L260.126 549.703C260.009 549.729 259.9 549.711 259.8 549.647C259.7 549.584 259.636 549.493 259.61 549.376L258.528 544.546C258.375 543.867 258.086 543.372 257.66 543.062C257.246 542.749 256.722 542.663 256.09 542.805C255.481 542.941 255.038 543.244 254.762 543.711C254.486 544.179 254.424 544.753 254.576 545.432L255.658 550.262C255.684 550.379 255.666 550.488 255.602 550.588C255.539 550.688 255.448 550.752 255.331 550.778L253.786 551.124ZM268.316 548.052C267.473 548.241 266.694 548.25 265.979 548.078C265.276 547.904 264.676 547.558 264.179 547.043C263.691 546.512 263.334 545.824 263.107 544.977C263.056 544.804 262.999 544.577 262.936 544.296C262.871 544.003 262.823 543.762 262.792 543.572C262.636 542.709 262.666 541.94 262.884 541.264C263.11 540.574 263.504 540 264.066 539.542C264.639 539.081 265.347 538.757 266.19 538.568C266.94 538.4 267.601 538.362 268.176 538.455C268.75 538.547 269.242 538.714 269.652 538.954C270.063 539.194 270.389 539.471 270.632 539.786C270.884 540.086 271.047 540.375 271.122 540.654C271.162 540.78 271.145 540.894 271.07 540.997C271.003 541.086 270.912 541.143 270.795 541.17L269.249 541.516C269.132 541.542 269.032 541.534 268.948 541.491C268.877 541.446 268.798 541.371 268.714 541.267C268.433 540.838 268.125 540.563 267.791 540.441C267.465 540.305 267.08 540.287 266.635 540.386C266.049 540.518 265.623 540.81 265.355 541.263C265.097 541.702 265.046 542.323 265.201 543.124C265.277 543.574 265.369 543.984 265.476 544.354C265.681 545.156 265.993 545.701 266.414 545.988C266.847 546.272 267.356 546.349 267.942 546.218C268.398 546.115 268.746 545.939 268.985 545.689C269.222 545.427 269.375 545.042 269.446 544.534C269.478 544.404 269.517 544.303 269.562 544.231C269.619 544.157 269.707 544.107 269.824 544.08L271.369 543.734C271.486 543.708 271.595 543.726 271.696 543.79C271.805 543.839 271.868 543.93 271.885 544.061C271.921 544.274 271.916 544.528 271.871 544.821C271.835 545.099 271.737 545.404 271.578 545.735C271.428 546.051 271.215 546.363 270.939 546.671C270.661 546.967 270.304 547.238 269.867 547.483C269.442 547.726 268.925 547.916 268.316 548.052ZM278.333 545.807C277.033 546.099 275.918 545.955 274.989 545.376C274.06 544.797 273.412 543.824 273.043 542.455C273.005 542.34 272.967 542.195 272.927 542.02C272.885 541.832 272.858 541.685 272.847 541.577C272.697 540.688 272.725 539.882 272.932 539.16C273.151 538.434 273.538 537.831 274.094 537.35C274.648 536.857 275.352 536.514 276.207 536.323C277.155 536.11 277.996 536.131 278.729 536.384C279.46 536.627 280.068 537.062 280.553 537.691C281.036 538.309 281.38 539.074 281.584 539.987L281.667 540.356C281.693 540.473 281.675 540.582 281.611 540.682C281.548 540.783 281.451 540.847 281.323 540.876L275.491 542.183C275.491 542.183 275.495 542.201 275.503 542.236C275.511 542.271 275.517 542.3 275.523 542.324C275.626 542.731 275.788 543.094 276.007 543.414C276.235 543.72 276.513 543.946 276.842 544.094C277.182 544.239 277.551 544.267 277.949 544.178C278.277 544.104 278.541 543.996 278.743 543.852C278.942 543.697 279.097 543.539 279.209 543.379C279.32 543.219 279.396 543.091 279.436 542.996C279.51 542.832 279.574 542.731 279.627 542.695C279.69 542.644 279.785 542.604 279.914 542.575L281.425 542.237C281.542 542.211 281.643 542.225 281.729 542.279C281.827 542.331 281.882 542.411 281.894 542.519C281.924 542.709 281.876 542.96 281.749 543.271C281.633 543.58 281.435 543.901 281.153 544.235C280.871 544.568 280.492 544.881 280.016 545.172C279.55 545.449 278.988 545.66 278.333 545.807ZM275.161 540.708L279.042 539.838L279.03 539.785C278.928 539.328 278.763 538.947 278.534 538.642C278.306 538.336 278.023 538.117 277.686 537.983C277.349 537.85 276.975 537.829 276.565 537.921C276.155 538.013 275.826 538.191 275.578 538.456C275.33 538.72 275.168 539.04 275.092 539.413C275.027 539.784 275.046 540.198 275.149 540.655L275.161 540.708Z" fill="#151515"/>
<rect x="86.9943" y="424" width="200" height="44" rx="22" transform="rotate(6.51747 86.9943 424)" fill="#059E93"/>
<path d="M108.343 455.305C107.234 455.178 106.314 454.88 105.583 454.41C104.865 453.929 104.344 453.308 104.02 452.547C103.698 451.773 103.571 450.877 103.639 449.858C103.683 449.368 103.737 448.843 103.801 448.282C103.865 447.722 103.932 447.186 104.002 446.675C104.165 445.679 104.49 444.84 104.978 444.159C105.479 443.48 106.132 442.993 106.939 442.698C107.759 442.393 108.717 442.304 109.814 442.429C110.625 442.522 111.34 442.712 111.959 443C112.578 443.288 113.093 443.649 113.502 444.082C113.913 444.504 114.215 444.979 114.408 445.508C114.601 446.038 114.67 446.595 114.616 447.181C114.615 447.289 114.569 447.375 114.478 447.437C114.398 447.5 114.304 447.526 114.197 447.513L112.498 447.319C112.367 447.304 112.263 447.262 112.186 447.193C112.111 447.112 112.065 446.992 112.046 446.833C111.946 446.024 111.679 445.45 111.247 445.111C110.814 444.772 110.253 444.562 109.561 444.483C108.762 444.392 108.099 444.546 107.57 444.944C107.043 445.331 106.702 446.035 106.55 447.056C106.402 448.03 106.288 449.031 106.206 450.061C106.125 451.09 106.297 451.859 106.722 452.366C107.148 452.862 107.761 453.155 108.56 453.246C109.251 453.325 109.846 453.248 110.344 453.015C110.855 452.772 111.244 452.273 111.511 451.518C111.566 451.355 111.639 451.249 111.729 451.199C111.819 451.149 111.93 451.131 112.061 451.146L113.76 451.34C113.867 451.353 113.953 451.399 114.016 451.478C114.091 451.559 114.117 451.653 114.093 451.759C114.014 452.342 113.821 452.869 113.513 453.341C113.206 453.813 112.803 454.214 112.307 454.544C111.812 454.862 111.23 455.091 110.561 455.232C109.893 455.374 109.154 455.398 108.343 455.305ZM118.976 456.52C118.249 456.437 117.636 456.204 117.136 455.821C116.649 455.427 116.297 454.915 116.079 454.287C115.862 453.646 115.801 452.914 115.895 452.092L116.469 447.066C116.483 446.947 116.536 446.85 116.629 446.777C116.722 446.703 116.828 446.672 116.947 446.686L118.521 446.866C118.652 446.881 118.749 446.934 118.811 447.026C118.885 447.119 118.915 447.225 118.901 447.344L118.34 452.262C118.171 453.741 118.736 454.554 120.036 454.702C120.655 454.773 121.167 454.632 121.569 454.28C121.984 453.929 122.231 453.407 122.31 452.716L122.872 447.798C122.885 447.678 122.939 447.582 123.031 447.508C123.124 447.434 123.231 447.404 123.35 447.418L124.924 447.597C125.043 447.611 125.139 447.664 125.213 447.757C125.287 447.85 125.317 447.956 125.304 448.076L124.339 456.517C124.326 456.636 124.272 456.732 124.179 456.806C124.086 456.88 123.98 456.91 123.861 456.897L122.413 456.731C122.281 456.716 122.179 456.662 122.105 456.569C122.043 456.478 122.019 456.372 122.032 456.253L122.116 455.52C121.747 455.9 121.31 456.183 120.806 456.367C120.301 456.551 119.692 456.602 118.976 456.52ZM130.155 457.797C129.44 457.715 128.836 457.562 128.342 457.336C127.86 457.112 127.473 456.857 127.179 456.569C126.886 456.282 126.676 456.005 126.55 455.737C126.424 455.468 126.364 455.25 126.371 455.082C126.374 454.949 126.421 454.852 126.513 454.79C126.618 454.718 126.724 454.688 126.831 454.7L128.244 454.861C128.292 454.867 128.333 454.877 128.367 454.893C128.402 454.909 128.445 454.951 128.498 455.017C128.638 455.166 128.783 455.321 128.934 455.484C129.097 455.647 129.291 455.796 129.517 455.931C129.745 456.053 130.037 456.135 130.395 456.176C130.86 456.229 131.258 456.184 131.588 456.04C131.932 455.886 132.123 455.637 132.163 455.291C132.191 455.04 132.143 454.83 132.018 454.658C131.904 454.488 131.67 454.323 131.314 454.161C130.959 453.988 130.45 453.791 129.787 453.57C129.137 453.339 128.605 453.079 128.191 452.79C127.777 452.501 127.483 452.165 127.31 451.783C127.136 451.401 127.076 450.971 127.131 450.495C127.184 450.03 127.371 449.604 127.693 449.218C128.028 448.822 128.486 448.518 129.066 448.306C129.657 448.096 130.364 448.038 131.187 448.132C131.831 448.205 132.382 448.353 132.84 448.574C133.299 448.784 133.67 449.025 133.952 449.299C134.247 449.574 134.464 449.847 134.602 450.116C134.742 450.374 134.807 450.593 134.799 450.773C134.796 450.905 134.748 451.008 134.655 451.082C134.563 451.144 134.463 451.169 134.356 451.157L133.033 451.006C132.973 450.999 132.921 450.981 132.876 450.952C132.831 450.922 132.787 450.887 132.743 450.846C132.626 450.712 132.497 450.57 132.357 450.421C132.218 450.261 132.041 450.12 131.825 449.998C131.622 449.878 131.341 449.798 130.983 449.757C130.53 449.705 130.173 449.767 129.911 449.943C129.651 450.106 129.504 450.337 129.47 450.635C129.447 450.838 129.48 451.023 129.57 451.19C129.672 451.347 129.889 451.51 130.22 451.681C130.551 451.852 131.06 452.049 131.747 452.272C132.529 452.506 133.137 452.793 133.569 453.132C134.014 453.461 134.312 453.821 134.46 454.213C134.622 454.593 134.678 455.004 134.627 455.445C134.566 455.982 134.35 456.446 133.979 456.839C133.62 457.233 133.116 457.519 132.467 457.699C131.832 457.868 131.061 457.901 130.155 457.797ZM140.339 458.779C139.623 458.698 139.035 458.504 138.575 458.197C138.115 457.891 137.794 457.48 137.611 456.964C137.43 456.436 137.381 455.802 137.466 455.063L137.93 451.004L136.517 450.842C136.398 450.829 136.301 450.775 136.227 450.682C136.153 450.589 136.124 450.477 136.139 450.346L136.255 449.327C136.269 449.207 136.322 449.111 136.415 449.037C136.508 448.963 136.614 448.933 136.733 448.947L138.146 449.108L138.485 446.139C138.499 446.02 138.546 445.923 138.627 445.847C138.72 445.774 138.832 445.744 138.964 445.759L140.412 445.925C140.531 445.938 140.628 445.991 140.702 446.084C140.776 446.177 140.806 446.284 140.792 446.403L140.453 449.372L142.689 449.627C142.808 449.641 142.904 449.694 142.978 449.787C143.052 449.88 143.082 449.986 143.069 450.105L142.952 451.125C142.937 451.256 142.883 451.358 142.79 451.432C142.697 451.506 142.591 451.536 142.472 451.523L140.237 451.267L139.793 455.148C139.737 455.637 139.777 456.028 139.913 456.321C140.06 456.616 140.349 456.788 140.778 456.837L142.012 456.978C142.131 456.991 142.228 457.045 142.302 457.138C142.376 457.23 142.406 457.337 142.392 457.456L142.265 458.565C142.252 458.684 142.198 458.78 142.105 458.854C142.013 458.928 141.906 458.958 141.787 458.945L140.339 458.779ZM147.896 459.824C146.942 459.715 146.156 459.456 145.539 459.047C144.933 458.64 144.492 458.112 144.216 457.465C143.951 456.819 143.842 456.088 143.886 455.271C143.899 455.055 143.923 454.792 143.959 454.482C143.994 454.172 144.03 453.911 144.066 453.698C144.208 452.88 144.486 452.193 144.9 451.637C145.327 451.07 145.881 450.656 146.563 450.396C147.257 450.137 148.069 450.06 148.999 450.167C149.929 450.273 150.697 450.53 151.302 450.937C151.92 451.346 152.367 451.874 152.643 452.522C152.933 453.158 153.054 453.891 153.008 454.719C152.996 454.935 152.972 455.198 152.936 455.508C152.901 455.818 152.865 456.08 152.828 456.293C152.688 457.098 152.41 457.785 151.995 458.354C151.592 458.924 151.043 459.338 150.349 459.597C149.667 459.857 148.849 459.933 147.896 459.824ZM148.098 458.053C148.73 458.126 149.241 457.985 149.632 457.631C150.024 457.265 150.282 456.696 150.406 455.926C150.439 455.748 150.471 455.516 150.504 455.23C150.537 454.944 150.557 454.711 150.566 454.531C150.618 453.752 150.494 453.146 150.194 452.713C149.894 452.268 149.429 452.009 148.797 451.937C148.165 451.865 147.653 452.012 147.261 452.378C146.87 452.732 146.613 453.294 146.488 454.065C146.456 454.242 146.423 454.474 146.391 454.76C146.358 455.046 146.337 455.28 146.329 455.46C146.276 456.239 146.399 456.851 146.699 457.296C147 457.729 147.466 457.981 148.098 458.053ZM154.816 460.433C154.696 460.42 154.6 460.366 154.526 460.273C154.452 460.18 154.422 460.074 154.435 459.955L155.4 451.514C155.413 451.395 155.467 451.298 155.56 451.224C155.653 451.15 155.759 451.12 155.878 451.134L157.273 451.293C157.392 451.307 157.489 451.36 157.563 451.453C157.637 451.546 157.667 451.652 157.653 451.771L157.584 452.379C157.872 452.074 158.238 451.832 158.681 451.653C159.138 451.464 159.659 451.397 160.244 451.451C161.606 451.583 162.493 452.222 162.906 453.368C163.235 452.922 163.672 452.586 164.217 452.358C164.776 452.12 165.371 452.037 166.003 452.109C166.623 452.18 167.167 452.387 167.635 452.73C168.115 453.075 168.464 453.556 168.684 454.173C168.916 454.779 168.982 455.524 168.882 456.406L168.295 461.538C168.282 461.658 168.228 461.754 168.135 461.828C168.042 461.902 167.936 461.932 167.817 461.919L166.351 461.751C166.231 461.737 166.135 461.684 166.061 461.591C165.987 461.498 165.957 461.392 165.97 461.273L166.54 456.283C166.602 455.747 166.573 455.315 166.453 454.987C166.335 454.647 166.152 454.397 165.905 454.236C165.657 454.075 165.373 453.976 165.051 453.939C164.789 453.909 164.519 453.945 164.241 454.046C163.964 454.147 163.724 454.349 163.52 454.652C163.318 454.943 163.186 455.356 163.125 455.893L162.555 460.883C162.541 461.002 162.488 461.098 162.395 461.172C162.302 461.246 162.196 461.276 162.076 461.263L160.61 461.095C160.491 461.082 160.394 461.028 160.32 460.935C160.246 460.842 160.216 460.736 160.23 460.617L160.8 455.627C160.861 455.091 160.826 454.658 160.694 454.329C160.564 453.988 160.376 453.737 160.128 453.576C159.881 453.415 159.608 453.317 159.31 453.283C159.036 453.252 158.76 453.293 158.481 453.406C158.204 453.507 157.964 453.703 157.761 453.994C157.559 454.285 157.427 454.699 157.366 455.235L156.796 460.225C156.782 460.344 156.729 460.44 156.636 460.514C156.543 460.588 156.437 460.618 156.318 460.605L154.816 460.433ZM174.509 462.864C173.186 462.713 172.18 462.212 171.492 461.36C170.805 460.509 170.511 459.376 170.612 457.962C170.614 457.842 170.625 457.692 170.646 457.513C170.667 457.322 170.69 457.174 170.714 457.068C170.866 456.167 171.157 455.416 171.588 454.813C172.033 454.199 172.597 453.756 173.28 453.484C173.965 453.2 174.742 453.108 175.612 453.207C176.578 453.317 177.366 453.613 177.975 454.093C178.586 454.561 179.017 455.172 179.269 455.926C179.523 456.667 179.596 457.503 179.49 458.433L179.447 458.809C179.434 458.928 179.38 459.024 179.287 459.098C179.194 459.172 179.082 459.202 178.951 459.187L173.014 458.508C173.014 458.508 173.012 458.526 173.008 458.562C173.004 458.598 173 458.628 172.997 458.651C172.962 459.07 172.995 459.466 173.097 459.84C173.213 460.204 173.401 460.509 173.663 460.757C173.936 461.005 174.276 461.153 174.681 461.199C175.015 461.237 175.301 461.221 175.538 461.152C175.777 461.071 175.975 460.972 176.133 460.858C176.291 460.743 176.405 460.647 176.474 460.57C176.598 460.44 176.691 460.366 176.753 460.349C176.829 460.321 176.932 460.315 177.063 460.33L178.601 460.506C178.72 460.519 178.812 460.566 178.875 460.645C178.95 460.727 178.976 460.82 178.952 460.926C178.918 461.115 178.79 461.336 178.568 461.589C178.358 461.843 178.065 462.081 177.689 462.304C177.314 462.526 176.853 462.697 176.308 462.816C175.776 462.924 175.177 462.941 174.509 462.864ZM173.185 457.006L177.138 457.458L177.144 457.404C177.197 456.939 177.166 456.525 177.05 456.161C176.936 455.786 176.741 455.486 176.465 455.261C176.19 455.024 175.844 454.882 175.426 454.834C175.009 454.787 174.64 454.847 174.319 455.016C173.999 455.173 173.741 455.421 173.545 455.761C173.363 456.09 173.245 456.488 173.192 456.953L173.185 457.006ZM181.274 463.456C181.155 463.442 181.059 463.389 180.985 463.296C180.911 463.203 180.881 463.097 180.894 462.978L181.856 454.555C181.871 454.423 181.925 454.321 182.018 454.247C182.111 454.173 182.218 454.143 182.337 454.156L183.785 454.322C183.905 454.336 184.001 454.389 184.075 454.482C184.161 454.576 184.196 454.689 184.181 454.82L184.098 455.553C184.415 455.203 184.8 454.951 185.253 454.798C185.717 454.645 186.235 454.602 186.808 454.667L187.541 454.751C187.672 454.766 187.769 454.819 187.831 454.911C187.905 455.004 187.935 455.11 187.921 455.229L187.774 456.517C187.76 456.636 187.707 456.733 187.614 456.807C187.533 456.882 187.427 456.912 187.296 456.897L185.901 456.738C185.329 456.672 184.863 456.782 184.504 457.067C184.159 457.342 183.954 457.765 183.888 458.338L183.326 463.256C183.313 463.375 183.259 463.471 183.166 463.545C183.073 463.619 182.961 463.649 182.83 463.634L181.274 463.456ZM196.545 465.382C195.436 465.255 194.524 464.988 193.81 464.58C193.109 464.162 192.592 463.668 192.258 463.098C191.938 462.518 191.799 461.935 191.842 461.348C191.855 461.241 191.901 461.155 191.98 461.092C192.06 461.029 192.153 461.003 192.261 461.015L193.852 461.197C194.007 461.215 194.117 461.263 194.18 461.343C194.257 461.412 194.319 461.498 194.368 461.6C194.414 461.835 194.525 462.077 194.702 462.327C194.88 462.565 195.134 462.775 195.463 462.957C195.804 463.141 196.243 463.264 196.78 463.325C197.638 463.423 198.292 463.353 198.742 463.115C199.204 462.877 199.463 462.514 199.519 462.026C199.559 461.68 199.477 461.393 199.273 461.164C199.071 460.924 198.741 460.693 198.283 460.471C197.839 460.239 197.24 459.984 196.487 459.704C195.617 459.388 194.895 459.046 194.321 458.678C193.761 458.3 193.352 457.861 193.095 457.36C192.85 456.861 192.768 456.254 192.85 455.539C192.929 454.847 193.184 454.254 193.615 453.76C194.058 453.267 194.643 452.905 195.37 452.674C196.108 452.445 196.961 452.385 197.926 452.495C198.701 452.584 199.375 452.769 199.946 453.052C200.519 453.323 200.983 453.654 201.337 454.044C201.692 454.423 201.948 454.821 202.106 455.237C202.277 455.643 202.348 456.032 202.317 456.403C202.306 456.498 202.26 456.584 202.179 456.659C202.112 456.724 202.018 456.749 201.899 456.736L200.236 456.546C200.14 456.535 200.048 456.5 199.958 456.441C199.868 456.383 199.8 456.284 199.756 456.147C199.727 455.769 199.53 455.426 199.167 455.119C198.803 454.812 198.311 454.623 197.692 454.552C197.048 454.478 196.515 454.538 196.095 454.732C195.674 454.925 195.435 455.272 195.378 455.773C195.34 456.107 195.403 456.398 195.568 456.646C195.746 456.884 196.04 457.111 196.451 457.327C196.873 457.544 197.43 457.789 198.124 458.062C199.111 458.404 199.91 458.761 200.52 459.133C201.13 459.504 201.557 459.939 201.802 460.438C202.048 460.926 202.131 461.521 202.051 462.224C201.961 463.011 201.669 463.66 201.176 464.172C200.696 464.672 200.058 465.028 199.261 465.239C198.464 465.45 197.558 465.497 196.545 465.382ZM206.91 466.566C206.183 466.483 205.569 466.25 205.07 465.866C204.583 465.473 204.231 464.961 204.013 464.333C203.796 463.692 203.735 462.96 203.829 462.138L204.403 457.112C204.417 456.993 204.47 456.896 204.563 456.823C204.656 456.749 204.762 456.718 204.881 456.732L206.455 456.912C206.586 456.927 206.683 456.98 206.745 457.072C206.819 457.165 206.849 457.271 206.835 457.39L206.273 462.308C206.105 463.786 206.67 464.6 207.969 464.748C208.589 464.819 209.101 464.678 209.503 464.326C209.918 463.975 210.165 463.453 210.244 462.762L210.805 457.844C210.819 457.724 210.872 457.628 210.965 457.554C211.058 457.48 211.164 457.45 211.284 457.463L212.857 457.643C212.977 457.657 213.073 457.71 213.147 457.803C213.221 457.896 213.251 458.002 213.238 458.122L212.273 466.563C212.26 466.682 212.206 466.778 212.113 466.852C212.02 466.926 211.914 466.956 211.795 466.943L210.346 466.777C210.215 466.762 210.113 466.708 210.039 466.615C209.977 466.524 209.953 466.418 209.966 466.299L210.05 465.566C209.68 465.946 209.244 466.229 208.739 466.413C208.235 466.597 207.626 466.648 206.91 466.566ZM218.59 467.9C217.732 467.802 216.993 467.555 216.374 467.158C215.767 466.762 215.313 466.24 215.013 465.589C214.726 464.928 214.615 464.161 214.678 463.286C214.687 463.106 214.707 462.873 214.74 462.587C214.774 462.289 214.808 462.045 214.842 461.856C214.977 460.99 215.258 460.273 215.685 459.706C216.126 459.128 216.686 458.715 217.367 458.466C218.059 458.219 218.835 458.145 219.693 458.243C220.456 458.33 221.094 458.512 221.606 458.788C222.119 459.052 222.53 459.37 222.837 459.744C223.146 460.105 223.364 460.474 223.49 460.851C223.629 461.217 223.688 461.544 223.668 461.831C223.665 461.964 223.611 462.066 223.506 462.139C223.414 462.201 223.309 462.225 223.189 462.212L221.616 462.032C221.496 462.018 221.404 461.977 221.34 461.91C221.287 461.843 221.238 461.747 221.192 461.621C221.067 461.124 220.867 460.763 220.591 460.538C220.328 460.302 219.97 460.159 219.517 460.107C218.92 460.039 218.422 460.175 218.02 460.516C217.632 460.846 217.38 461.415 217.264 462.223C217.188 462.673 217.141 463.091 217.121 463.475C217.051 464.3 217.167 464.917 217.471 465.327C217.786 465.737 218.242 465.976 218.838 466.044C219.303 466.098 219.69 466.045 219.998 465.887C220.307 465.717 220.578 465.404 220.811 464.947C220.885 464.835 220.955 464.752 221.021 464.7C221.099 464.648 221.198 464.629 221.317 464.643L222.891 464.823C223.01 464.836 223.107 464.889 223.181 464.982C223.268 465.065 223.298 465.171 223.271 465.301C223.235 465.514 223.147 465.752 223.009 466.014C222.883 466.265 222.691 466.521 222.432 466.781C222.186 467.031 221.882 467.256 221.521 467.456C221.162 467.644 220.735 467.783 220.242 467.872C219.761 467.962 219.21 467.971 218.59 467.9ZM228.807 469.067C227.948 468.969 227.21 468.722 226.591 468.325C225.984 467.93 225.53 467.407 225.23 466.757C224.943 466.096 224.831 465.328 224.895 464.454C224.904 464.273 224.924 464.04 224.957 463.754C224.991 463.456 225.025 463.212 225.059 463.023C225.194 462.157 225.475 461.44 225.902 460.873C226.343 460.295 226.903 459.882 227.584 459.634C228.276 459.387 229.052 459.312 229.91 459.41C230.673 459.497 231.311 459.679 231.823 459.955C232.336 460.219 232.746 460.538 233.054 460.911C233.363 461.272 233.58 461.641 233.707 462.018C233.846 462.384 233.905 462.711 233.884 462.999C233.881 463.131 233.827 463.234 233.722 463.306C233.631 463.368 233.525 463.392 233.406 463.379L231.832 463.199C231.713 463.185 231.621 463.145 231.556 463.077C231.504 463.01 231.454 462.914 231.408 462.788C231.284 462.291 231.084 461.93 230.807 461.705C230.544 461.47 230.186 461.326 229.733 461.274C229.137 461.206 228.638 461.342 228.237 461.683C227.849 462.013 227.597 462.582 227.481 463.39C227.405 463.841 227.357 464.258 227.338 464.642C227.267 465.467 227.384 466.085 227.688 466.494C228.003 466.904 228.459 467.144 229.055 467.212C229.52 467.265 229.906 467.212 230.214 467.054C230.524 466.884 230.795 466.571 231.028 466.115C231.101 466.002 231.171 465.92 231.238 465.867C231.316 465.815 231.415 465.796 231.534 465.81L233.108 465.99C233.227 466.003 233.324 466.057 233.398 466.15C233.485 466.232 233.515 466.338 233.488 466.468C233.452 466.681 233.364 466.919 233.225 467.181C233.1 467.432 232.908 467.688 232.649 467.948C232.403 468.198 232.099 468.423 231.738 468.623C231.378 468.812 230.952 468.95 230.459 469.039C229.977 469.129 229.427 469.138 228.807 469.067ZM239.006 470.233C237.682 470.081 236.677 469.58 235.989 468.728C235.301 467.877 235.008 466.744 235.109 465.331C235.11 465.21 235.122 465.06 235.142 464.881C235.164 464.691 235.187 464.542 235.211 464.436C235.362 463.536 235.653 462.784 236.085 462.181C236.529 461.568 237.093 461.125 237.776 460.852C238.461 460.568 239.239 460.476 240.109 460.575C241.075 460.686 241.862 460.981 242.472 461.461C243.082 461.93 243.514 462.541 243.766 463.294C244.019 464.036 244.093 464.871 243.987 465.801L243.944 466.177C243.93 466.296 243.877 466.393 243.784 466.467C243.691 466.541 243.579 466.57 243.448 466.555L237.51 465.877C237.51 465.877 237.508 465.895 237.504 465.93C237.5 465.966 237.497 465.996 237.494 466.02C237.458 466.438 237.491 466.835 237.594 467.209C237.709 467.572 237.898 467.878 238.159 468.125C238.433 468.374 238.772 468.521 239.178 468.567C239.512 468.606 239.797 468.59 240.035 468.52C240.273 468.439 240.472 468.341 240.63 468.226C240.788 468.111 240.901 468.015 240.971 467.939C241.094 467.808 241.187 467.734 241.25 467.717C241.325 467.689 241.429 467.683 241.56 467.698L243.098 467.874C243.217 467.887 243.308 467.934 243.372 468.014C243.447 468.095 243.472 468.188 243.448 468.294C243.415 468.484 243.287 468.705 243.065 468.957C242.854 469.211 242.561 469.449 242.186 469.672C241.81 469.895 241.35 470.066 240.805 470.185C240.273 470.293 239.673 470.309 239.006 470.233ZM237.682 464.375L241.634 464.826L241.64 464.772C241.693 464.307 241.662 463.893 241.547 463.53C241.433 463.154 241.237 462.854 240.961 462.629C240.686 462.393 240.34 462.251 239.923 462.203C239.506 462.155 239.136 462.216 238.815 462.384C238.495 462.541 238.237 462.789 238.042 463.129C237.859 463.459 237.741 463.856 237.688 464.321L237.682 464.375ZM248.844 471.357C248.129 471.275 247.524 471.121 247.031 470.896C246.549 470.672 246.162 470.416 245.868 470.129C245.575 469.842 245.365 469.564 245.239 469.296C245.112 469.028 245.053 468.81 245.06 468.642C245.063 468.509 245.11 468.412 245.202 468.35C245.307 468.277 245.413 468.247 245.52 468.259L246.933 468.421C246.981 468.426 247.022 468.437 247.056 468.453C247.091 468.469 247.134 468.51 247.187 468.577C247.327 468.725 247.472 468.881 247.623 469.043C247.785 469.207 247.98 469.356 248.206 469.49C248.434 469.613 248.726 469.694 249.084 469.735C249.549 469.788 249.946 469.743 250.277 469.6C250.621 469.446 250.812 469.196 250.852 468.85C250.88 468.6 250.832 468.389 250.707 468.218C250.593 468.048 250.358 467.882 250.002 467.721C249.648 467.547 249.139 467.35 248.476 467.129C247.826 466.898 247.294 466.638 246.88 466.349C246.466 466.06 246.172 465.725 245.998 465.343C245.825 464.961 245.765 464.531 245.82 464.054C245.873 463.589 246.06 463.164 246.382 462.778C246.717 462.381 247.175 462.077 247.754 461.866C248.346 461.655 249.053 461.597 249.876 461.691C250.52 461.765 251.071 461.912 251.528 462.134C251.988 462.343 252.359 462.585 252.641 462.859C252.936 463.134 253.153 463.406 253.291 463.676C253.43 463.933 253.496 464.152 253.488 464.332C253.485 464.465 253.436 464.568 253.343 464.642C253.252 464.704 253.152 464.729 253.045 464.717L251.722 464.565C251.662 464.559 251.61 464.54 251.565 464.511C251.52 464.482 251.476 464.447 251.432 464.405C251.314 464.271 251.186 464.13 251.046 463.981C250.907 463.82 250.73 463.679 250.514 463.558C250.311 463.438 250.03 463.358 249.672 463.317C249.219 463.265 248.862 463.327 248.6 463.502C248.34 463.666 248.193 463.896 248.159 464.195C248.136 464.397 248.169 464.582 248.258 464.749C248.361 464.906 248.578 465.07 248.909 465.24C249.24 465.411 249.749 465.608 250.436 465.832C251.218 466.066 251.825 466.353 252.258 466.692C252.703 467.021 253 467.381 253.149 467.772C253.311 468.153 253.366 468.564 253.316 469.005C253.255 469.542 253.039 470.006 252.668 470.398C252.309 470.792 251.805 471.079 251.156 471.258C250.521 471.427 249.75 471.46 248.844 471.357ZM258.362 472.444C257.647 472.362 257.043 472.209 256.549 471.983C256.067 471.759 255.68 471.503 255.387 471.216C255.093 470.929 254.883 470.652 254.757 470.383C254.631 470.115 254.571 469.897 254.578 469.729C254.581 469.596 254.629 469.499 254.72 469.437C254.825 469.365 254.931 469.334 255.038 469.347L256.451 469.508C256.499 469.514 256.54 469.524 256.574 469.54C256.609 469.556 256.652 469.598 256.705 469.664C256.845 469.813 256.991 469.968 257.141 470.13C257.304 470.294 257.498 470.443 257.724 470.578C257.952 470.7 258.244 470.782 258.602 470.823C259.067 470.876 259.465 470.831 259.795 470.687C260.139 470.533 260.33 470.283 260.37 469.938C260.398 469.687 260.35 469.476 260.225 469.305C260.111 469.135 259.877 468.969 259.521 468.808C259.166 468.635 258.657 468.438 257.994 468.217C257.344 467.986 256.812 467.726 256.398 467.437C255.984 467.148 255.69 466.812 255.517 466.43C255.343 466.048 255.283 465.618 255.338 465.142C255.391 464.677 255.578 464.251 255.9 463.865C256.235 463.469 256.693 463.165 257.273 462.953C257.864 462.743 258.572 462.685 259.394 462.779C260.038 462.852 260.589 463 261.047 463.221C261.506 463.431 261.877 463.672 262.16 463.946C262.454 464.221 262.671 464.494 262.809 464.763C262.949 465.021 263.014 465.239 263.006 465.42C263.003 465.552 262.955 465.655 262.862 465.729C262.77 465.791 262.671 465.816 262.563 465.804L261.24 465.653C261.18 465.646 261.128 465.628 261.083 465.599C261.038 465.569 260.994 465.534 260.95 465.493C260.833 465.359 260.704 465.217 260.564 465.068C260.425 464.907 260.248 464.766 260.032 464.645C259.829 464.525 259.548 464.445 259.19 464.404C258.737 464.352 258.38 464.414 258.118 464.59C257.858 464.753 257.711 464.984 257.677 465.282C257.654 465.485 257.687 465.67 257.777 465.837C257.879 465.994 258.096 466.157 258.427 466.328C258.758 466.498 259.267 466.696 259.954 466.919C260.736 467.153 261.344 467.44 261.776 467.779C262.222 468.108 262.519 468.468 262.667 468.859C262.829 469.24 262.885 469.651 262.834 470.092C262.773 470.629 262.557 471.093 262.186 471.486C261.827 471.88 261.323 472.166 260.674 472.346C260.039 472.515 259.269 472.548 258.362 472.444Z" fill="white"/>
<rect x="343.994" y="514" width="140" height="44" rx="22" transform="rotate(6.51747 343.994 514)" fill="#428BC1"/>
<path d="M372.28 546.098C371.219 545.977 370.326 545.7 369.603 545.267C368.881 544.822 368.346 544.211 368 543.435C367.656 542.647 367.528 541.702 367.617 540.601C367.664 540.087 367.716 539.58 367.773 539.079C367.83 538.578 367.895 538.066 367.967 537.543C368.127 536.462 368.469 535.583 368.993 534.907C369.517 534.23 370.182 533.75 370.987 533.468C371.804 533.187 372.725 533.105 373.751 533.222C374.776 533.339 375.655 533.627 376.388 534.085C377.121 534.543 377.666 535.161 378.024 535.938C378.382 536.716 378.517 537.649 378.429 538.738C378.393 539.266 378.346 539.78 378.289 540.28C378.232 540.781 378.162 541.287 378.079 541.797C377.918 542.889 377.581 543.781 377.067 544.471C376.555 545.149 375.891 545.623 375.075 545.892C374.273 546.151 373.341 546.219 372.28 546.098ZM372.515 544.041C373.29 544.13 373.947 543.976 374.488 543.578C375.03 543.169 375.378 542.448 375.532 541.415C375.616 540.893 375.683 540.412 375.734 539.97C375.785 539.517 375.829 539.033 375.863 538.518C375.918 537.824 375.851 537.248 375.662 536.792C375.486 536.325 375.212 535.973 374.84 535.738C374.47 535.49 374.028 535.337 373.516 535.278C373.015 535.221 372.556 535.271 372.14 535.429C371.725 535.575 371.372 535.855 371.084 536.269C370.808 536.672 370.619 537.218 370.516 537.907C370.446 538.418 370.384 538.9 370.333 539.353C370.282 539.795 370.233 540.278 370.185 540.804C370.102 541.845 370.279 542.626 370.714 543.147C371.152 543.656 371.752 543.954 372.515 544.041ZM383.141 547.339C382.413 547.256 381.8 547.023 381.3 546.639C380.814 546.246 380.461 545.734 380.243 545.106C380.027 544.465 379.965 543.733 380.059 542.91L380.634 537.885C380.647 537.766 380.7 537.669 380.793 537.595C380.886 537.522 380.993 537.491 381.112 537.505L382.686 537.685C382.817 537.7 382.913 537.753 382.975 537.845C383.049 537.938 383.079 538.044 383.066 538.163L382.504 543.081C382.335 544.559 382.9 545.373 384.2 545.521C384.82 545.592 385.331 545.451 385.734 545.099C386.148 544.747 386.395 544.226 386.474 543.535L387.036 538.617C387.049 538.497 387.103 538.401 387.196 538.327C387.289 538.253 387.395 538.223 387.514 538.236L389.088 538.416C389.207 538.43 389.304 538.483 389.378 538.576C389.452 538.669 389.482 538.775 389.468 538.894L388.504 547.336C388.49 547.455 388.437 547.551 388.344 547.625C388.251 547.699 388.145 547.729 388.025 547.716L386.577 547.55C386.446 547.535 386.343 547.481 386.269 547.388C386.207 547.297 386.183 547.191 386.197 547.072L386.28 546.339C385.911 546.719 385.474 547.001 384.97 547.185C384.466 547.369 383.856 547.421 383.141 547.339ZM395.02 548.515C394.304 548.433 393.717 548.239 393.256 547.933C392.796 547.627 392.475 547.215 392.292 546.699C392.111 546.171 392.062 545.538 392.147 544.799L392.611 540.739L391.198 540.578C391.079 540.564 390.982 540.511 390.908 540.418C390.834 540.325 390.804 540.219 390.818 540.099L390.936 539.062C390.95 538.943 391.003 538.846 391.096 538.772C391.189 538.699 391.295 538.668 391.414 538.682L392.827 538.843L393.166 535.875C393.18 535.755 393.227 535.658 393.308 535.583C393.401 535.509 393.513 535.48 393.645 535.495L395.093 535.66C395.212 535.674 395.309 535.727 395.383 535.82C395.457 535.913 395.487 536.019 395.473 536.138L395.134 539.107L397.37 539.362C397.489 539.376 397.585 539.429 397.659 539.522C397.733 539.615 397.763 539.721 397.75 539.841L397.631 540.878C397.618 540.997 397.564 541.094 397.471 541.168C397.378 541.241 397.272 541.272 397.153 541.258L394.918 541.003L394.474 544.883C394.418 545.372 394.458 545.763 394.594 546.057C394.741 546.351 395.03 546.523 395.459 546.572L396.693 546.713C396.812 546.727 396.909 546.78 396.983 546.873C397.057 546.966 397.087 547.072 397.073 547.191L396.946 548.3C396.933 548.419 396.88 548.516 396.787 548.59C396.694 548.664 396.587 548.694 396.468 548.68L395.02 548.515ZM402.487 549.549C401.629 549.451 400.89 549.204 400.271 548.807C399.664 548.411 399.211 547.888 398.91 547.238C398.624 546.577 398.512 545.81 398.576 544.935C398.584 544.755 398.605 544.522 398.638 544.236C398.672 543.938 398.705 543.694 398.739 543.505C398.874 542.638 399.156 541.922 399.583 541.354C400.023 540.777 400.584 540.364 401.264 540.115C401.957 539.868 402.732 539.794 403.591 539.892C404.354 539.979 404.991 540.161 405.503 540.436C406.015 540.712 406.426 541.031 406.735 541.392C407.044 541.754 407.261 542.123 407.387 542.5C407.526 542.866 407.586 543.193 407.565 543.48C407.562 543.613 407.508 543.715 407.403 543.788C407.311 543.85 407.206 543.874 407.087 543.86L405.513 543.681C405.394 543.667 405.302 543.626 405.237 543.558C405.184 543.492 405.135 543.396 405.089 543.27C404.964 542.772 404.764 542.411 404.488 542.187C404.225 541.951 403.867 541.808 403.414 541.756C402.818 541.688 402.319 541.824 401.918 542.165C401.53 542.495 401.278 543.064 401.161 543.872C401.086 544.322 401.038 544.739 401.018 545.124C400.948 545.949 401.065 546.566 401.368 546.975C401.684 547.386 402.139 547.625 402.736 547.693C403.201 547.746 403.587 547.694 403.895 547.536C404.204 547.366 404.476 547.053 404.709 546.596C404.782 546.484 404.852 546.401 404.918 546.348C404.997 546.297 405.095 546.278 405.215 546.292L406.788 546.471C406.908 546.485 407.004 546.538 407.078 546.631C407.165 546.714 407.196 546.82 407.169 546.95C407.132 547.163 407.045 547.4 406.906 547.662C406.781 547.914 406.588 548.17 406.329 548.43C406.083 548.68 405.78 548.905 405.419 549.105C405.059 549.293 404.632 549.432 404.139 549.52C403.658 549.61 403.107 549.62 402.487 549.549ZM412.793 550.726C411.84 550.618 411.054 550.359 410.436 549.95C409.831 549.543 409.39 549.015 409.113 548.368C408.849 547.721 408.739 546.99 408.784 546.174C408.797 545.958 408.821 545.695 408.856 545.385C408.892 545.075 408.928 544.813 408.964 544.6C409.106 543.783 409.384 543.096 409.797 542.54C410.225 541.972 410.779 541.559 411.461 541.298C412.155 541.039 412.967 540.963 413.897 541.069C414.827 541.176 415.595 541.432 416.2 541.84C416.818 542.248 417.265 542.777 417.541 543.424C417.831 544.061 417.952 544.794 417.906 545.622C417.893 545.838 417.869 546.101 417.834 546.411C417.798 546.721 417.763 546.982 417.726 547.196C417.586 548.001 417.308 548.688 416.893 549.256C416.49 549.826 415.941 550.241 415.247 550.5C414.565 550.76 413.747 550.835 412.793 550.726ZM412.996 548.956C413.628 549.028 414.139 548.887 414.53 548.533C414.922 548.168 415.18 547.599 415.304 546.828C415.337 546.651 415.369 546.419 415.402 546.133C415.434 545.847 415.455 545.614 415.464 545.433C415.515 544.666 415.391 544.06 415.091 543.615C414.792 543.171 414.326 542.912 413.694 542.84C413.063 542.768 412.551 542.914 412.159 543.28C411.766 543.646 411.509 544.209 411.386 544.968C411.354 545.145 411.321 545.377 411.288 545.663C411.256 545.949 411.235 546.182 411.227 546.362C411.174 547.141 411.297 547.753 411.597 548.198C411.897 548.631 412.364 548.884 412.996 548.956ZM419.713 551.336C419.594 551.322 419.498 551.269 419.424 551.176C419.35 551.083 419.32 550.977 419.333 550.858L420.298 542.417C420.311 542.297 420.364 542.201 420.457 542.127C420.55 542.053 420.657 542.023 420.776 542.036L422.171 542.196C422.29 542.209 422.387 542.263 422.46 542.356C422.534 542.449 422.565 542.555 422.551 542.674L422.481 543.282C422.77 542.977 423.136 542.735 423.579 542.556C424.035 542.366 424.556 542.299 425.142 542.354C426.504 542.485 427.391 543.124 427.804 544.271C428.132 543.825 428.569 543.488 429.115 543.261C429.673 543.023 430.269 542.94 430.9 543.012C431.52 543.083 432.064 543.29 432.533 543.633C433.012 543.978 433.362 544.459 433.582 545.076C433.814 545.682 433.88 546.426 433.779 547.308L433.193 552.441C433.179 552.56 433.126 552.657 433.033 552.731C432.94 552.805 432.834 552.835 432.715 552.821L431.248 552.654C431.129 552.64 431.033 552.587 430.959 552.494C430.885 552.401 430.855 552.295 430.868 552.175L431.438 547.186C431.499 546.649 431.47 546.217 431.351 545.89C431.233 545.55 431.05 545.3 430.802 545.139C430.555 544.977 430.271 544.878 429.949 544.842C429.686 544.812 429.417 544.847 429.139 544.948C428.862 545.05 428.622 545.252 428.418 545.555C428.216 545.845 428.084 546.259 428.022 546.796L427.452 551.785C427.439 551.904 427.385 552.001 427.292 552.075C427.199 552.149 427.093 552.179 426.974 552.165L425.508 551.998C425.377 551.983 425.274 551.929 425.2 551.836C425.138 551.744 425.114 551.639 425.127 551.52L425.698 546.53C425.759 545.994 425.724 545.561 425.592 545.232C425.462 544.891 425.273 544.64 425.026 544.479C424.779 544.317 424.506 544.22 424.208 544.186C423.934 544.155 423.657 544.195 423.379 544.308C423.101 544.41 422.862 544.606 422.659 544.897C422.457 545.188 422.325 545.601 422.264 546.138L421.694 551.127C421.68 551.247 421.627 551.343 421.534 551.417C421.441 551.491 421.335 551.521 421.216 551.507L419.713 551.336ZM439.407 553.767C438.083 553.616 437.078 553.114 436.39 552.263C435.702 551.411 435.409 550.279 435.51 548.865C435.512 548.744 435.523 548.595 435.543 548.416C435.565 548.225 435.588 548.077 435.612 547.971C435.762 547.082 436.053 546.33 436.486 545.715C436.93 545.102 437.494 544.659 438.178 544.387C438.862 544.103 439.64 544.01 440.51 544.11C441.476 544.22 442.263 544.515 442.873 544.996C443.484 545.464 443.915 546.075 444.167 546.828C444.421 547.57 444.494 548.406 444.388 549.336L444.345 549.711C444.332 549.83 444.278 549.927 444.185 550.001C444.092 550.075 443.98 550.104 443.849 550.089L437.912 549.411C437.912 549.411 437.91 549.429 437.906 549.465C437.901 549.5 437.898 549.53 437.895 549.554C437.86 549.973 437.893 550.369 437.995 550.743C438.11 551.107 438.299 551.412 438.561 551.659C438.834 551.908 439.174 552.055 439.579 552.102C439.913 552.14 440.198 552.124 440.436 552.055C440.675 551.973 440.873 551.875 441.031 551.76C441.189 551.646 441.303 551.55 441.372 551.473C441.496 551.342 441.589 551.268 441.651 551.251C441.727 551.224 441.83 551.217 441.961 551.232L443.499 551.408C443.618 551.422 443.71 551.468 443.773 551.548C443.848 551.629 443.874 551.723 443.85 551.829C443.816 552.018 443.688 552.239 443.466 552.491C443.256 552.745 442.963 552.983 442.587 553.206C442.211 553.429 441.751 553.6 441.206 553.719C440.674 553.827 440.075 553.843 439.407 553.767ZM438.083 547.909L442.036 548.36L442.042 548.307C442.095 547.842 442.064 547.428 441.948 547.064C441.833 546.701 441.637 546.4 441.363 546.164C441.088 545.927 440.742 545.785 440.324 545.737C439.907 545.689 439.538 545.75 439.216 545.919C438.895 546.087 438.637 546.336 438.443 546.664C438.26 546.993 438.143 547.39 438.089 547.855L438.083 547.909ZM449.246 554.891C448.53 554.809 447.926 554.656 447.432 554.43C446.95 554.206 446.563 553.95 446.27 553.663C445.976 553.376 445.767 553.098 445.64 552.83C445.514 552.562 445.454 552.344 445.461 552.176C445.464 552.043 445.512 551.946 445.603 551.884C445.708 551.812 445.814 551.781 445.922 551.794L447.334 551.955C447.382 551.96 447.423 551.971 447.458 551.987C447.492 552.003 447.536 552.044 447.588 552.111C447.728 552.26 447.874 552.415 448.024 552.577C448.187 552.741 448.381 552.89 448.607 553.024C448.835 553.147 449.127 553.229 449.485 553.27C449.95 553.323 450.348 553.278 450.678 553.134C451.022 552.98 451.214 552.73 451.253 552.385C451.282 552.134 451.233 551.923 451.108 551.752C450.994 551.582 450.76 551.416 450.404 551.255C450.049 551.082 449.54 550.884 448.877 550.664C448.227 550.433 447.695 550.172 447.281 549.884C446.867 549.595 446.574 549.259 446.4 548.877C446.226 548.495 446.166 548.065 446.221 547.588C446.274 547.123 446.462 546.698 446.783 546.312C447.119 545.916 447.576 545.611 448.156 545.4C448.747 545.19 449.455 545.132 450.277 545.226C450.921 545.299 451.472 545.447 451.93 545.668C452.389 545.877 452.76 546.119 453.043 546.393C453.337 546.668 453.554 546.941 453.692 547.21C453.832 547.468 453.897 547.686 453.889 547.867C453.886 547.999 453.838 548.102 453.745 548.176C453.653 548.238 453.554 548.263 453.446 548.251L452.123 548.1C452.063 548.093 452.011 548.075 451.966 548.045C451.921 548.016 451.877 547.981 451.833 547.94C451.716 547.806 451.587 547.664 451.447 547.515C451.307 547.366 451.129 547.231 450.914 547.11C450.711 546.978 450.431 546.892 450.073 546.851C449.62 546.799 449.263 546.861 449.002 547.036C448.741 547.2 448.594 547.431 448.56 547.729C448.537 547.932 448.57 548.116 448.66 548.284C448.763 548.44 448.979 548.604 449.31 548.775C449.641 548.945 450.15 549.142 450.837 549.366C451.619 549.6 452.227 549.887 452.659 550.226C453.105 550.555 453.402 550.915 453.55 551.306C453.712 551.687 453.768 552.098 453.717 552.539C453.656 553.076 453.44 553.54 453.069 553.933C452.71 554.327 452.206 554.613 451.558 554.793C450.922 554.962 450.152 554.994 449.246 554.891Z" fill="white"/>
<rect x="307.289" y="435.04" width="190" height="44" rx="22" transform="rotate(-4.92444 307.289 435.04)" fill="#9747FF"/>
<rect x="307.83" y="435.495" width="189" height="43" rx="21.5" transform="rotate(-4.92444 307.83 435.495)" stroke="black" stroke-opacity="0.05"/>
<path d="M334.978 461.26C334.858 461.27 334.753 461.237 334.662 461.16C334.571 461.084 334.52 460.986 334.51 460.866L333.504 449.191C333.493 449.06 333.526 448.949 333.602 448.858C333.678 448.767 333.777 448.716 333.896 448.706L335.474 448.57C335.606 448.559 335.717 448.591 335.808 448.668C335.899 448.744 335.95 448.848 335.961 448.98L336.323 453.176L340.003 448.505C340.046 448.441 340.118 448.369 340.219 448.288C340.332 448.194 340.484 448.138 340.675 448.122L342.45 447.969C342.546 447.961 342.633 447.989 342.711 448.055C342.801 448.12 342.85 448.206 342.859 448.313C342.867 448.397 342.849 448.471 342.806 448.535L338.341 454.375L344.125 459.857C344.191 459.924 344.228 459.999 344.235 460.083C344.244 460.19 344.21 460.283 344.132 460.362C344.067 460.44 343.986 460.483 343.891 460.492L342.043 460.651C341.84 460.668 341.675 460.64 341.548 460.567C341.433 460.481 341.355 460.421 341.316 460.388L336.567 456.01L336.967 460.655C336.977 460.774 336.944 460.879 336.868 460.97C336.791 461.061 336.687 461.112 336.556 461.124L334.978 461.26ZM346.094 460.302C345.974 460.312 345.869 460.279 345.778 460.203C345.687 460.126 345.636 460.028 345.626 459.909L344.897 451.444C344.886 451.324 344.92 451.219 344.996 451.128C345.072 451.037 345.171 450.987 345.29 450.976L346.761 450.85C346.88 450.839 346.985 450.872 347.076 450.949C347.167 451.025 347.218 451.123 347.228 451.243L347.291 451.978C347.569 451.569 347.937 451.218 348.393 450.926C348.861 450.621 349.453 450.437 350.17 450.375C350.9 450.312 351.548 450.425 352.115 450.714C352.681 450.99 353.133 451.415 353.471 451.988C353.821 452.56 354.033 453.264 354.105 454.101L354.539 459.141C354.549 459.26 354.516 459.365 354.44 459.456C354.363 459.547 354.265 459.598 354.146 459.608L352.568 459.744C352.448 459.754 352.343 459.721 352.252 459.645C352.161 459.568 352.11 459.47 352.1 459.351L351.675 454.419C351.615 453.726 351.395 453.196 351.014 452.832C350.646 452.466 350.139 452.311 349.493 452.367C348.871 452.42 348.392 452.66 348.055 453.087C347.719 453.513 347.58 454.073 347.64 454.767L348.065 459.698C348.075 459.818 348.042 459.923 347.966 460.014C347.889 460.105 347.791 460.156 347.672 460.166L346.094 460.302ZM360.994 459.199C360.038 459.281 359.216 459.183 358.53 458.905C357.856 458.626 357.319 458.196 356.919 457.617C356.532 457.036 356.28 456.341 356.162 455.532C356.131 455.318 356.103 455.055 356.076 454.744C356.049 454.434 356.032 454.17 356.026 453.954C356.002 453.125 356.138 452.396 356.434 451.769C356.74 451.128 357.201 450.613 357.818 450.222C358.447 449.831 359.227 449.595 360.16 449.515C361.092 449.434 361.896 449.534 362.57 449.813C363.257 450.091 363.8 450.52 364.199 451.1C364.609 451.667 364.874 452.36 364.992 453.181C365.023 453.395 365.052 453.658 365.078 453.969C365.105 454.28 365.122 454.543 365.128 454.759C365.151 455.576 365.015 456.305 364.721 456.944C364.438 457.583 363.983 458.098 363.354 458.489C362.737 458.88 361.951 459.116 360.994 459.199ZM360.841 457.423C361.475 457.369 361.948 457.129 362.261 456.705C362.573 456.268 362.713 455.66 362.682 454.88C362.678 454.699 362.664 454.466 362.639 454.179C362.615 453.892 362.589 453.659 362.561 453.481C362.459 452.719 362.218 452.15 361.836 451.773C361.454 451.396 360.947 451.235 360.313 451.29C359.679 451.345 359.207 451.59 358.895 452.026C358.583 452.463 358.442 453.065 358.472 453.833C358.476 454.014 358.49 454.247 358.515 454.534C358.539 454.821 358.566 455.054 358.593 455.232C358.696 456.006 358.938 456.581 359.32 456.958C359.7 457.323 360.208 457.478 360.841 457.423ZM369.751 458.264C369.584 458.278 369.454 458.247 369.364 458.17C369.273 458.094 369.192 457.993 369.121 457.866L365.839 449.766C365.822 449.707 365.811 449.654 365.807 449.606C365.798 449.498 365.826 449.406 365.892 449.328C365.968 449.237 366.054 449.187 366.15 449.179L367.477 449.065C367.62 449.052 367.738 449.084 367.829 449.161C367.918 449.225 367.972 449.293 367.991 449.364L370.259 455.148L371.618 449.105C371.634 449.02 371.681 448.931 371.758 448.84C371.833 448.738 371.954 448.679 372.122 448.665L373.018 448.587C373.186 448.573 373.315 448.61 373.407 448.698C373.498 448.775 373.559 448.854 373.59 448.935L375.962 454.657L377.208 448.57C377.214 448.497 377.25 448.421 377.315 448.344C377.392 448.253 377.502 448.201 377.645 448.189L378.972 448.074C379.08 448.065 379.173 448.099 379.252 448.177C379.342 448.241 379.392 448.327 379.401 448.435C379.405 448.483 379.398 448.538 379.379 448.599L377.531 457.141C377.507 457.276 377.45 457.389 377.362 457.481C377.285 457.572 377.164 457.625 376.996 457.639L375.83 457.74C375.663 457.754 375.528 457.724 375.425 457.648C375.322 457.573 375.247 457.471 375.2 457.342L372.847 451.836L371.47 457.664C371.433 457.799 371.371 457.913 371.282 458.005C371.206 458.096 371.078 458.149 370.899 458.165L369.751 458.264ZM382.364 457.177C382.244 457.187 382.139 457.154 382.048 457.078C381.957 457.001 381.907 456.903 381.896 456.783L380.873 444.911C380.863 444.792 380.896 444.687 380.973 444.596C381.049 444.505 381.147 444.454 381.267 444.444L382.755 444.316C382.875 444.305 382.98 444.338 383.071 444.415C383.162 444.491 383.212 444.589 383.223 444.709L384.246 456.581C384.256 456.701 384.223 456.806 384.146 456.897C384.07 456.988 383.972 457.038 383.852 457.049L382.364 457.177ZM390.694 456.64C389.367 456.754 388.282 456.462 387.439 455.764C386.596 455.066 386.084 454.014 385.902 452.608C385.88 452.49 385.861 452.341 385.846 452.161C385.829 451.97 385.822 451.82 385.825 451.711C385.796 450.811 385.932 450.016 386.234 449.328C386.548 448.638 387.013 448.092 387.629 447.69C388.243 447.276 388.987 447.031 389.86 446.956C390.828 446.872 391.659 447.005 392.351 447.355C393.043 447.693 393.587 448.206 393.983 448.895C394.379 449.571 394.617 450.376 394.697 451.308L394.73 451.685C394.74 451.805 394.707 451.91 394.631 452.001C394.554 452.092 394.45 452.143 394.319 452.154L388.365 452.667C388.365 452.667 388.366 452.685 388.369 452.721C388.372 452.757 388.375 452.787 388.377 452.81C388.425 453.228 388.536 453.61 388.711 453.956C388.896 454.289 389.141 454.551 389.447 454.742C389.764 454.931 390.126 455.008 390.533 454.973C390.867 454.945 391.144 454.873 391.363 454.757C391.581 454.63 391.756 454.495 391.888 454.351C392.02 454.207 392.113 454.091 392.165 454.002C392.26 453.849 392.337 453.758 392.395 453.729C392.463 453.687 392.563 453.66 392.695 453.649L394.237 453.516C394.357 453.506 394.455 453.533 394.533 453.599C394.623 453.663 394.667 453.75 394.664 453.859C394.669 454.051 394.587 454.293 394.42 454.584C394.264 454.875 394.024 455.166 393.7 455.459C393.376 455.752 392.959 456.011 392.448 456.236C391.948 456.447 391.364 456.582 390.694 456.64ZM388.235 451.161L392.198 450.819L392.193 450.765C392.153 450.299 392.041 449.899 391.855 449.566C391.67 449.233 391.419 448.977 391.103 448.8C390.786 448.622 390.419 448.551 390 448.588C389.582 448.624 389.232 448.756 388.951 448.985C388.669 449.214 388.466 449.509 388.34 449.869C388.227 450.228 388.19 450.641 388.23 451.107L388.235 451.161ZM400.489 455.796C399.867 455.849 399.308 455.795 398.812 455.633C398.328 455.458 397.913 455.193 397.569 454.837C397.226 454.481 396.948 454.053 396.736 453.554C396.524 453.042 396.378 452.476 396.301 451.857C396.27 451.643 396.248 451.452 396.234 451.284C396.218 451.105 396.207 450.907 396.201 450.691C396.173 450.091 396.215 449.528 396.326 449C396.449 448.472 396.649 448.003 396.927 447.593C397.216 447.171 397.584 446.832 398.032 446.577C398.492 446.32 399.033 446.165 399.654 446.112C400.3 446.056 400.854 446.123 401.316 446.312C401.788 446.488 402.189 446.736 402.518 447.057L402.175 443.076C402.165 442.957 402.192 442.852 402.256 442.762C402.333 442.671 402.437 442.62 402.568 442.609L404.093 442.477C404.212 442.467 404.317 442.5 404.408 442.577C404.499 442.653 404.55 442.751 404.56 442.871L405.583 454.743C405.593 454.862 405.56 454.967 405.484 455.058C405.407 455.149 405.309 455.2 405.19 455.21L403.773 455.332C403.641 455.344 403.53 455.311 403.439 455.234C403.36 455.157 403.316 455.058 403.305 454.939L403.248 454.275C402.981 454.672 402.625 455.01 402.179 455.289C401.746 455.567 401.182 455.736 400.489 455.796ZM400.987 453.82C401.489 453.776 401.88 453.628 402.159 453.375C402.438 453.123 402.635 452.817 402.748 452.458C402.861 452.086 402.907 451.715 402.887 451.343C402.881 451.127 402.867 450.9 402.846 450.66C402.825 450.409 402.799 450.177 402.768 449.963C402.725 449.605 402.612 449.271 402.429 448.962C402.245 448.641 401.994 448.385 401.677 448.196C401.359 448.006 400.961 447.932 400.483 447.973C399.981 448.017 399.59 448.165 399.311 448.418C399.042 448.658 398.858 448.963 398.757 449.333C398.657 449.703 398.613 450.104 398.626 450.536C398.645 450.896 398.676 451.255 398.719 451.612C398.78 452.041 398.892 452.428 399.054 452.776C399.216 453.123 399.451 453.398 399.757 453.6C400.075 453.79 400.485 453.863 400.987 453.82ZM412.565 458.549C411.692 458.625 410.965 458.573 410.383 458.394C409.802 458.215 409.336 457.978 408.985 457.683C408.634 457.388 408.373 457.086 408.202 456.775C408.044 456.476 407.951 456.237 407.924 456.059C407.901 455.94 407.928 455.829 408.003 455.726C408.092 455.635 408.196 455.583 408.315 455.573L409.876 455.439C409.995 455.428 410.093 455.444 410.169 455.486C410.246 455.539 410.314 455.636 410.374 455.775C410.459 455.924 410.57 456.084 410.705 456.253C410.84 456.422 411.032 456.556 411.281 456.655C411.544 456.764 411.89 456.801 412.32 456.764C412.775 456.725 413.152 456.626 413.451 456.468C413.751 456.309 413.965 456.068 414.093 455.744C414.234 455.418 414.281 454.981 414.233 454.431L414.128 453.211C413.871 453.583 413.525 453.896 413.089 454.15C412.665 454.403 412.124 454.558 411.467 454.615C410.821 454.671 410.257 454.617 409.773 454.454C409.288 454.279 408.874 454.019 408.531 453.676C408.188 453.32 407.91 452.892 407.698 452.392C407.498 451.892 407.36 451.332 407.282 450.712C407.243 450.39 407.215 450.067 407.199 449.743C407.171 449.144 407.213 448.58 407.324 448.052C407.435 447.525 407.63 447.057 407.908 446.647C408.197 446.225 408.565 445.886 409.013 445.631C409.46 445.375 410.007 445.22 410.653 445.164C411.334 445.105 411.919 445.187 412.408 445.41C412.896 445.621 413.306 445.905 413.638 446.262L413.576 445.545C413.565 445.413 413.597 445.302 413.674 445.211C413.75 445.12 413.848 445.069 413.968 445.059L415.42 444.934C415.54 444.924 415.645 444.957 415.736 445.033C415.827 445.11 415.878 445.214 415.889 445.345L416.652 453.988C416.726 454.848 416.629 455.604 416.359 456.253C416.09 456.903 415.641 457.423 415.013 457.815C414.397 458.217 413.581 458.462 412.565 458.549ZM411.967 452.657C412.457 452.615 412.842 452.473 413.122 452.232C413.403 451.991 413.6 451.691 413.713 451.332C413.827 450.973 413.88 450.613 413.873 450.252C413.872 450.096 413.861 449.898 413.84 449.659C413.82 449.42 413.797 449.229 413.773 449.087C413.717 448.718 413.603 448.373 413.431 448.05C413.257 447.716 413.012 447.454 412.694 447.265C412.376 447.063 411.972 446.984 411.481 447.026C410.991 447.068 410.606 447.216 410.327 447.469C410.047 447.709 409.856 448.015 409.756 448.385C409.667 448.754 409.629 449.155 409.642 449.587C409.643 449.876 409.669 450.169 409.718 450.466C409.778 450.882 409.884 451.271 410.035 451.631C410.198 451.978 410.438 452.247 410.755 452.436C411.073 452.626 411.476 452.699 411.967 452.657ZM423.094 453.848C421.767 453.963 420.682 453.671 419.838 452.972C418.995 452.274 418.483 451.222 418.302 449.817C418.28 449.698 418.261 449.549 418.245 449.37C418.229 449.179 418.222 449.029 418.225 448.92C418.195 448.019 418.332 447.225 418.634 446.536C418.948 445.847 419.412 445.301 420.028 444.898C420.643 444.484 421.387 444.239 422.259 444.164C423.228 444.081 424.058 444.214 424.751 444.564C425.442 444.902 425.986 445.415 426.383 446.103C426.779 446.78 427.016 447.584 427.097 448.517L427.129 448.893C427.14 449.013 427.106 449.118 427.03 449.209C426.954 449.3 426.85 449.351 426.718 449.362L420.764 449.875C420.764 449.875 420.766 449.893 420.769 449.929C420.772 449.965 420.774 449.995 420.776 450.019C420.824 450.436 420.936 450.818 421.11 451.165C421.295 451.498 421.541 451.76 421.846 451.95C422.164 452.14 422.526 452.217 422.932 452.182C423.267 452.153 423.544 452.081 423.763 451.966C423.98 451.839 424.155 451.703 424.288 451.559C424.42 451.415 424.512 451.299 424.565 451.21C424.66 451.057 424.736 450.967 424.794 450.937C424.863 450.895 424.963 450.869 425.094 450.857L426.637 450.724C426.756 450.714 426.855 450.742 426.933 450.807C427.023 450.872 427.066 450.958 427.064 451.067C427.068 451.259 426.987 451.501 426.819 451.793C426.663 452.083 426.424 452.375 426.099 452.668C425.775 452.961 425.358 453.219 424.847 453.444C424.348 453.656 423.763 453.79 423.094 453.848ZM420.634 448.369L424.598 448.028L424.593 447.974C424.553 447.508 424.44 447.108 424.255 446.774C424.069 446.441 423.819 446.186 423.502 446.008C423.186 445.831 422.818 445.76 422.4 445.796C421.981 445.832 421.632 445.965 421.35 446.194C421.069 446.423 420.865 446.717 420.74 447.077C420.626 447.436 420.589 447.849 420.63 448.315L420.634 448.369ZM434.155 452.714C434.036 452.725 433.93 452.692 433.839 452.615C433.749 452.539 433.698 452.441 433.688 452.321L432.682 440.646C432.67 440.515 432.703 440.404 432.779 440.313C432.856 440.222 432.954 440.171 433.074 440.161L438.274 439.713C439.243 439.629 440.045 439.711 440.68 439.957C441.315 440.192 441.797 440.554 442.129 441.043C442.472 441.531 442.673 442.116 442.732 442.798C442.771 443.252 442.721 443.66 442.584 444.021C442.457 444.369 442.284 444.661 442.063 444.897C441.855 445.132 441.642 445.318 441.425 445.458C441.91 445.633 442.353 445.956 442.755 446.427C443.157 446.898 443.388 447.481 443.448 448.174C443.51 448.891 443.403 449.545 443.129 450.135C442.854 450.724 442.414 451.208 441.808 451.585C441.202 451.951 440.432 452.174 439.499 452.254L434.155 452.714ZM436.054 450.636L439.049 450.378C439.694 450.322 440.169 450.107 440.474 449.731C440.778 449.343 440.909 448.899 440.865 448.396C440.82 447.87 440.609 447.449 440.232 447.132C439.868 446.814 439.369 446.683 438.735 446.737L435.74 446.995L436.054 450.636ZM435.579 445.13L438.395 444.888C439.029 444.833 439.488 444.643 439.773 444.317C440.069 443.979 440.196 443.564 440.154 443.074C440.11 442.572 439.916 442.197 439.569 441.95C439.234 441.69 438.749 441.587 438.115 441.642L435.3 441.884L435.579 445.13ZM448.527 451.657C447.906 451.71 447.333 451.639 446.811 451.443C446.287 451.236 445.858 450.941 445.524 450.561C445.201 450.167 445.017 449.713 444.973 449.199C444.901 448.362 445.179 447.67 445.806 447.122C446.444 446.561 447.312 446.149 448.409 445.886L450.835 445.315L450.803 444.939C450.76 444.437 450.601 444.059 450.326 443.805C450.051 443.552 449.609 443.452 448.999 443.504C448.569 443.541 448.224 443.661 447.964 443.864C447.716 444.054 447.538 444.299 447.431 444.597C447.349 444.761 447.218 444.85 447.039 444.866L445.622 444.988C445.491 444.999 445.386 444.972 445.308 444.906C445.242 444.84 445.204 444.747 445.194 444.627C445.189 444.435 445.247 444.195 445.366 443.908C445.486 443.62 445.691 443.338 445.98 443.06C446.268 442.77 446.65 442.514 447.124 442.293C447.599 442.071 448.183 441.93 448.876 441.871C449.63 441.806 450.272 441.847 450.802 441.994C451.344 442.128 451.783 442.337 452.121 442.621C452.459 442.905 452.717 443.25 452.897 443.656C453.076 444.062 453.186 444.498 453.226 444.965L453.711 450.596C453.722 450.715 453.689 450.821 453.612 450.912C453.536 451.002 453.438 451.053 453.318 451.063L451.865 451.189C451.734 451.2 451.623 451.167 451.532 451.091C451.453 451.013 451.408 450.915 451.398 450.795L451.338 450.096C451.202 450.336 451.011 450.57 450.766 450.795C450.519 451.009 450.21 451.199 449.839 451.363C449.479 451.515 449.041 451.613 448.527 451.657ZM448.99 449.901C449.409 449.865 449.778 449.742 450.097 449.534C450.428 449.325 450.673 449.027 450.833 448.64C451.003 448.24 451.063 447.753 451.014 447.179L450.982 446.802L449.213 447.244C448.517 447.412 448.006 447.631 447.68 447.9C447.354 448.169 447.205 448.477 447.235 448.823C447.258 449.086 447.355 449.307 447.527 449.485C447.71 449.65 447.931 449.769 448.19 449.843C448.449 449.905 448.715 449.924 448.99 449.901ZM459.597 450.703C458.88 450.765 458.257 450.734 457.729 450.611C457.212 450.487 456.782 450.313 456.437 450.09C456.093 449.867 455.832 449.636 455.655 449.399C455.478 449.161 455.376 448.959 455.35 448.793C455.326 448.662 455.354 448.557 455.431 448.478C455.52 448.387 455.618 448.336 455.725 448.327L457.142 448.205C457.19 448.2 457.232 448.203 457.269 448.212C457.306 448.221 457.357 448.252 457.422 448.307C457.588 448.425 457.762 448.549 457.941 448.678C458.133 448.806 458.353 448.913 458.602 449C458.849 449.075 459.152 449.097 459.511 449.066C459.977 449.026 460.358 448.903 460.653 448.697C460.959 448.478 461.098 448.195 461.068 447.848C461.046 447.597 460.957 447.4 460.8 447.257C460.655 447.113 460.392 446.997 460.011 446.909C459.629 446.81 459.091 446.718 458.398 446.633C457.715 446.535 457.142 446.386 456.679 446.185C456.216 445.984 455.861 445.713 455.615 445.373C455.369 445.033 455.225 444.624 455.184 444.146C455.144 443.679 455.243 443.225 455.482 442.783C455.732 442.328 456.12 441.939 456.647 441.617C457.185 441.293 457.866 441.096 458.691 441.025C459.337 440.969 459.906 441.005 460.399 441.131C460.89 441.245 461.302 441.408 461.633 441.621C461.977 441.832 462.243 442.056 462.432 442.293C462.62 442.517 462.728 442.719 462.755 442.897C462.778 443.028 462.752 443.138 462.675 443.229C462.598 443.308 462.505 443.352 462.398 443.362L461.07 443.476C461.011 443.481 460.956 443.474 460.906 443.454C460.856 443.434 460.806 443.408 460.755 443.377C460.613 443.268 460.459 443.155 460.292 443.037C460.125 442.919 459.924 442.822 459.689 442.746C459.464 442.657 459.173 442.628 458.814 442.659C458.36 442.698 458.022 442.829 457.8 443.053C457.577 443.265 457.479 443.52 457.505 443.819C457.522 444.022 457.592 444.197 457.713 444.343C457.844 444.476 458.089 444.594 458.448 444.696C458.806 444.797 459.343 444.889 460.061 444.972C460.875 445.046 461.527 445.207 462.018 445.454C462.52 445.688 462.882 445.982 463.106 446.336C463.34 446.677 463.476 447.069 463.514 447.511C463.56 448.049 463.441 448.547 463.155 449.005C462.881 449.463 462.444 449.843 461.844 450.148C461.255 450.44 460.506 450.625 459.597 450.703ZM469.626 449.839C468.299 449.953 467.214 449.661 466.371 448.963C465.528 448.265 465.016 447.213 464.835 445.807C464.812 445.689 464.794 445.54 464.778 445.361C464.762 445.169 464.755 445.019 464.757 444.911C464.728 444.01 464.864 443.215 465.166 442.527C465.48 441.837 465.945 441.291 466.561 440.889C467.175 440.475 467.919 440.23 468.792 440.155C469.76 440.071 470.591 440.205 471.283 440.554C471.975 440.892 472.519 441.405 472.916 442.094C473.311 442.771 473.549 443.575 473.63 444.508L473.662 444.884C473.672 445.004 473.639 445.109 473.563 445.2C473.486 445.291 473.382 445.342 473.251 445.353L467.297 445.866C467.297 445.866 467.298 445.884 467.301 445.92C467.304 445.956 467.307 445.986 467.309 446.01C467.357 446.427 467.468 446.809 467.643 447.155C467.828 447.489 468.073 447.751 468.379 447.941C468.696 448.13 469.058 448.208 469.465 448.173C469.8 448.144 470.076 448.072 470.295 447.957C470.513 447.829 470.688 447.694 470.82 447.55C470.952 447.406 471.045 447.29 471.097 447.201C471.193 447.048 471.269 446.957 471.327 446.928C471.395 446.886 471.496 446.859 471.627 446.848L473.169 446.715C473.289 446.705 473.388 446.733 473.466 446.798C473.555 446.863 473.599 446.949 473.596 447.058C473.601 447.25 473.519 447.492 473.352 447.784C473.196 448.074 472.956 448.366 472.632 448.659C472.308 448.951 471.891 449.21 471.38 449.435C470.88 449.647 470.296 449.781 469.626 449.839ZM467.167 444.36L471.13 444.018L471.126 443.965C471.085 443.498 470.973 443.098 470.787 442.765C470.602 442.432 470.351 442.176 470.035 441.999C469.718 441.821 469.351 441.751 468.933 441.787C468.514 441.823 468.164 441.955 467.883 442.184C467.601 442.413 467.398 442.708 467.272 443.068C467.159 443.427 467.122 443.84 467.162 444.306L467.167 444.36Z" fill="white"/>
</g>
<defs>
<filter id="filter0_f_31_9" x="-727.191" y="-18.1328" width="950.504" height="950.504" filterUnits="userSpaceOnUse" color-interpolation-filters="sRGB">
<feFlood flood-opacity="0" result="BackgroundImageFix"/>
<feBlend mode="normal" in="SourceGraphic" in2="BackgroundImageFix" result="shape"/>
<feGaussianBlur stdDeviation="148.384" result="effect1_foregroundBlur_31_9"/>
</filter>
<filter id="filter1_f_31_9" x="-896.772" y="-203.824" width="950.504" height="950.504" filterUnits="userSpaceOnUse" color-interpolation-filters="sRGB">
<feFlood flood-opacity="0" result="BackgroundImageFix"/>
<feBlend mode="normal" in="SourceGraphic" in2="BackgroundImageFix" result="shape"/>
<feGaussianBlur stdDeviation="148.384" result="effect1_foregroundBlur_31_9"/>
</filter>
<filter id="filter2_f_31_9" x="-580.503" y="-365.774" width="950.504" height="950.504" filterUnits="userSpaceOnUse" color-interpolation-filters="sRGB">
<feFlood flood-opacity="0" result="BackgroundImageFix"/>
<feBlend mode="normal" in="SourceGraphic" in2="BackgroundImageFix" result="shape"/>
<feGaussianBlur stdDeviation="148.384" result="effect1_foregroundBlur_31_9"/>
</filter>
<filter id="filter3_f_31_9" x="-278.648" y="-408.17" width="950.504" height="950.504" filterUnits="userSpaceOnUse" color-interpolation-filters="sRGB">
<feFlood flood-opacity="0" result="BackgroundImageFix"/>
<feBlend mode="normal" in="SourceGraphic" in2="BackgroundImageFix" result="shape"/>
<feGaussianBlur stdDeviation="148.384" result="effect1_foregroundBlur_31_9"/>
</filter>
<filter id="filter4_f_31_9" x="445.232" y="142.9" width="950.504" height="950.504" filterUnits="userSpaceOnUse" color-interpolation-filters="sRGB">
<feFlood flood-opacity="0" result="BackgroundImageFix"/>
<feBlend mode="normal" in="SourceGraphic" in2="BackgroundImageFix" result="shape"/>
<feGaussianBlur stdDeviation="148.384" result="effect1_foregroundBlur_31_9"/>
</filter>
<filter id="filter5_f_31_9" x="630.924" y="312.481" width="950.504" height="950.504" filterUnits="userSpaceOnUse" color-interpolation-filters="sRGB">
<feFlood flood-opacity="0" result="BackgroundImageFix"/>
<feBlend mode="normal" in="SourceGraphic" in2="BackgroundImageFix" result="shape"/>
<feGaussianBlur stdDeviation="148.384" result="effect1_foregroundBlur_31_9"/>
</filter>
<filter id="filter6_f_31_9" x="792.874" y="-3.78708" width="950.504" height="950.504" filterUnits="userSpaceOnUse" color-interpolation-filters="sRGB">
<feFlood flood-opacity="0" result="BackgroundImageFix"/>
<feBlend mode="normal" in="SourceGraphic" in2="BackgroundImageFix" result="shape"/>
<feGaussianBlur stdDeviation="148.384" result="effect1_foregroundBlur_31_9"/>
</filter>
<filter id="filter7_f_31_9" x="835.27" y="-305.643" width="950.504" height="950.504" filterUnits="userSpaceOnUse" color-interpolation-filters="sRGB">
<feFlood flood-opacity="0" result="BackgroundImageFix"/>
<feBlend mode="normal" in="SourceGraphic" in2="BackgroundImageFix" result="shape"/>
<feGaussianBlur stdDeviation="148.384" result="effect1_foregroundBlur_31_9"/>
</filter>
<clipPath id="clip0_31_9">
<rect width="1440" height="740" fill="white"/>
</clipPath>
</defs>
</svg>
