<svg width="19" height="18" viewBox="0 0 19 18" fill="none" xmlns="http://www.w3.org/2000/svg">
<rect x="0.919922" width="18" height="18" rx="9" fill="#FF0000"/>
<g clip-path="url(#clip0_2084_8682)">
<path d="M7.53985 4.6121C7.28785 4.6611 6.78385 4.8571 6.41985 5.0321C5.18085 5.6481 4.20085 6.8591 3.85085 8.2101C3.69685 8.8191 3.69685 9.9811 3.85085 10.5901C4.07485 11.4441 4.49485 12.1721 5.15985 12.8371C5.65685 13.3341 5.86685 13.4881 6.41985 13.7611C7.81985 14.4541 9.29685 14.4821 10.6549 13.8451C11.4879 13.4601 11.4809 13.5161 10.8089 12.8301C10.3609 12.3751 10.1579 12.0951 9.92685 11.6401C9.76585 11.3181 9.62585 11.0381 9.61185 11.0311C9.59785 11.0171 9.47185 11.0591 9.32485 11.1221C8.94685 11.2761 8.26085 11.2691 7.86885 11.0941C6.44785 10.4641 6.39885 8.4271 7.78485 7.7481C8.23985 7.5311 8.89785 7.5031 9.32485 7.6781C9.47185 7.7411 9.59785 7.7831 9.61185 7.7691C9.62585 7.7621 9.76585 7.4821 9.92685 7.1601C10.1579 6.7051 10.3609 6.4251 10.8089 5.9701C11.4809 5.2841 11.4879 5.3401 10.6549 4.9551C9.72385 4.5211 8.56185 4.3881 7.53985 4.6121Z" fill="white"/>
<path d="M13.6439 7.67104C13.3289 7.76904 12.8179 8.23104 12.6289 8.58804C12.4189 8.99404 12.4119 9.80604 12.6289 10.205C13.2519 11.374 14.8339 11.577 15.6809 10.583C15.9399 10.282 16.1499 9.75704 16.1499 9.40004C16.1499 8.75604 15.6739 8.02804 15.0719 7.74804C14.6799 7.56604 14.0709 7.53104 13.6439 7.67104Z" fill="white"/>
</g>
<defs>
<clipPath id="clip0_2084_8682">
<rect width="14" height="14" fill="white" transform="translate(2.91992 2.40039)"/>
</clipPath>
</defs>
</svg>
