<svg width="428" height="188" viewBox="0 0 428 188" fill="none" xmlns="http://www.w3.org/2000/svg">
<rect x="0.233643" y="144.581" width="230" height="44" rx="22" transform="rotate(-12.6322 0.233643 144.581)" fill="#FFCF00"/>
<rect x="0.830886" y="144.96" width="229" height="43" rx="21.5" transform="rotate(-12.6322 0.830886 144.96)" stroke="black" stroke-opacity="0.05"/>
<path d="M28.7496 167.397C28.6325 167.424 28.5238 167.405 28.4234 167.341C28.3231 167.278 28.2598 167.187 28.2336 167.07L25.6709 155.636C25.6421 155.507 25.6594 155.393 25.723 155.292C25.7866 155.192 25.877 155.129 25.9941 155.102L30.2798 154.142C31.4624 153.877 32.475 153.84 33.3175 154.033C34.1716 154.223 34.872 154.631 35.4185 155.259C35.9767 155.884 36.3771 156.711 36.6198 157.738C36.7587 158.248 36.8727 158.702 36.9619 159.101C37.0512 159.499 37.1405 159.952 37.2299 160.461C37.4506 161.555 37.4536 162.501 37.2389 163.3C37.0217 164.086 36.5719 164.74 35.8895 165.262C35.2162 165.77 34.2941 166.155 33.1231 166.417L28.7496 167.397ZM30.3168 164.925L32.5826 164.417C33.2383 164.27 33.7501 164.057 34.118 163.778C34.4858 163.499 34.7175 163.133 34.813 162.681C34.9176 162.215 34.8996 161.641 34.7591 160.959C34.6921 160.605 34.6297 160.3 34.572 160.042C34.5233 159.77 34.4643 159.507 34.3948 159.252C34.3345 158.982 34.2604 158.679 34.1726 158.342C33.934 157.387 33.5351 156.733 32.9761 156.378C32.4171 156.024 31.6399 155.958 30.6446 156.181L28.4667 156.67L30.3168 164.925ZM44.4409 164.065C43.1412 164.356 42.0268 164.213 41.0977 163.634C40.1686 163.055 39.52 162.081 39.1518 160.713C39.1138 160.598 39.0751 160.453 39.0358 160.278C38.9938 160.09 38.9668 159.942 38.9549 159.834C38.8049 158.946 38.8334 158.14 39.0404 157.417C39.259 156.692 39.6465 156.089 40.2027 155.607C40.7563 155.114 41.4605 154.772 42.3152 154.58C43.2637 154.368 44.1046 154.388 44.8378 154.642C45.5685 154.884 46.1764 155.32 46.6618 155.949C47.1445 156.566 47.4882 157.332 47.6929 158.245L47.7755 158.614C47.8018 158.731 47.7831 158.84 47.7195 158.94C47.6559 159.04 47.5597 159.105 47.4309 159.134L41.5995 160.441C41.5995 160.441 41.6035 160.458 41.6114 160.493C41.6192 160.529 41.6258 160.558 41.631 160.581C41.7346 160.989 41.896 161.352 42.1152 161.672C42.3436 161.977 42.6219 162.204 42.9501 162.352C43.2901 162.497 43.6592 162.525 44.0573 162.436C44.3851 162.362 44.6498 162.254 44.8513 162.11C45.0502 161.955 45.2054 161.797 45.3171 161.637C45.4287 161.476 45.5046 161.349 45.5448 161.254C45.6187 161.09 45.6823 160.989 45.7356 160.953C45.798 160.902 45.8936 160.862 46.0224 160.833L47.5329 160.495C47.65 160.468 47.7516 160.482 47.8376 160.537C47.9353 160.589 47.9901 160.669 48.002 160.777C48.0323 160.967 47.9839 161.217 47.8569 161.529C47.7416 161.837 47.5431 162.159 47.2612 162.492C46.9794 162.826 46.6005 163.138 46.1247 163.43C45.6579 163.706 45.0967 163.918 44.4409 164.065ZM41.2689 158.965L45.1506 158.095L45.1388 158.043C45.0364 157.586 44.8711 157.205 44.6428 156.9C44.4144 156.594 44.1316 156.375 43.7942 156.241C43.4569 156.108 43.0833 156.087 42.6735 156.179C42.2636 156.271 41.9347 156.449 41.6865 156.714C41.4384 156.978 41.2763 157.297 41.2002 157.671C41.1358 158.042 41.1547 158.456 41.2571 158.913L41.2689 158.965ZM54.0336 161.915C53.4247 162.052 52.8638 162.073 52.3508 161.979C51.8469 161.87 51.4007 161.663 51.0123 161.356C50.6239 161.05 50.2913 160.663 50.0145 160.197C49.7351 159.718 49.5155 159.177 49.3556 158.573C49.2966 158.365 49.2488 158.179 49.212 158.015C49.1727 157.84 49.1352 157.645 49.0997 157.432C48.9919 156.841 48.9577 156.277 48.9971 155.739C49.0482 155.199 49.1839 154.707 49.4044 154.264C49.634 153.807 49.9535 153.422 50.3629 153.109C50.784 152.793 51.2991 152.567 51.908 152.431C52.5403 152.289 53.098 152.281 53.5811 152.406C54.0733 152.517 54.5038 152.71 54.8727 152.984L53.9988 149.084C53.9725 148.967 53.9854 148.86 54.0372 148.762C54.1008 148.662 54.197 148.597 54.3258 148.568L55.8188 148.234C55.9359 148.207 56.0446 148.226 56.145 148.29C56.2453 148.353 56.3086 148.444 56.3348 148.561L58.9408 160.188C58.967 160.305 58.9483 160.414 58.8847 160.514C58.8211 160.615 58.7308 160.678 58.6137 160.704L57.2261 161.015C57.0973 161.044 56.9827 161.027 56.8824 160.963C56.7938 160.897 56.7363 160.805 56.7101 160.688L56.5644 160.038C56.3531 160.467 56.0453 160.85 55.6411 161.186C55.2486 161.52 54.7128 161.763 54.0336 161.915ZM54.2623 159.89C54.7541 159.78 55.1215 159.581 55.3643 159.293C55.6072 159.005 55.7609 158.675 55.8253 158.304C55.8871 157.921 55.8831 157.547 55.8135 157.181C55.778 156.968 55.7339 156.744 55.6815 156.51C55.6263 156.264 55.5693 156.037 55.5104 155.829C55.4199 155.48 55.2632 155.165 55.0401 154.883C54.8144 154.589 54.5315 154.37 54.1916 154.225C53.8516 154.079 53.4474 154.059 52.979 154.164C52.4872 154.274 52.1199 154.474 51.877 154.762C51.6432 155.035 51.5013 155.362 51.4512 155.743C51.4011 156.123 51.4116 156.526 51.4827 156.953C51.5497 157.307 51.6284 157.658 51.7189 158.007C51.8368 158.423 51.9995 158.793 52.207 159.115C52.4146 159.437 52.6838 159.678 53.0147 159.838C53.3546 159.983 53.7705 160 54.2623 159.89ZM61.7978 159.991C61.6807 160.017 61.572 159.998 61.4716 159.935C61.3713 159.871 61.308 159.781 61.2817 159.664L59.4237 151.373C59.3975 151.256 59.4162 151.147 59.4798 151.047C59.5434 150.947 59.6337 150.884 59.7508 150.857L61.2086 150.531C61.3375 150.502 61.4462 150.52 61.5348 150.587C61.6351 150.65 61.6984 150.741 61.7247 150.858L63.5827 159.148C63.6089 159.265 63.5902 159.374 63.5266 159.474C63.4748 159.572 63.3844 159.635 63.2556 159.664L61.7978 159.991ZM59.342 149.362C59.2132 149.391 59.1 149.38 59.0022 149.328C58.9136 149.262 58.8549 149.164 58.826 149.035L58.5426 147.771C58.5163 147.654 58.5292 147.546 58.581 147.449C58.6446 147.348 58.7408 147.284 58.8696 147.255L60.468 146.897C60.5968 146.868 60.7114 146.885 60.8117 146.949C60.912 147.012 60.9753 147.103 61.0016 147.22L61.285 148.484C61.3139 148.613 61.2965 148.728 61.2329 148.828C61.1667 148.917 61.0692 148.975 60.9404 149.004L59.342 149.362ZM69.9988 158.337C69.1557 158.526 68.3767 158.535 67.6618 158.363C66.9586 158.188 66.3586 157.843 65.8618 157.327C65.3741 156.797 65.0168 156.109 64.7901 155.262C64.7391 155.089 64.682 154.862 64.619 154.581C64.5534 154.288 64.5055 154.047 64.4752 153.857C64.3188 152.994 64.3493 152.225 64.5667 151.549C64.7932 150.859 65.1872 150.285 65.7487 149.827C66.3219 149.366 67.03 149.041 67.8731 148.852C68.6225 148.685 69.2843 148.647 69.8584 148.74C70.4326 148.832 70.9249 148.999 71.3353 149.239C71.7458 149.479 72.0723 149.756 72.315 150.071C72.5667 150.371 72.7299 150.66 72.8046 150.938C72.8452 151.065 72.8279 151.179 72.7525 151.282C72.6863 151.371 72.5947 151.428 72.4776 151.454L70.9319 151.801C70.8148 151.827 70.7146 151.819 70.6312 151.776C70.5595 151.731 70.4813 151.656 70.3965 151.552C70.1159 151.123 69.8082 150.848 69.4735 150.726C69.1479 150.59 68.7626 150.572 68.3176 150.671C67.7321 150.802 67.3057 151.095 67.0384 151.548C66.7802 151.987 66.7286 152.608 66.8836 153.409C66.9599 153.859 67.0518 154.269 67.1592 154.639C67.3637 155.441 67.6764 155.986 68.0973 156.273C68.53 156.557 69.039 156.634 69.6245 156.503C70.0812 156.4 70.429 156.224 70.6681 155.974C70.9045 155.712 71.058 155.327 71.1287 154.819C71.161 154.689 71.1999 154.588 71.2453 154.516C71.3024 154.442 71.3895 154.392 71.5066 154.365L73.0523 154.019C73.1694 153.993 73.2781 154.011 73.3784 154.075C73.4879 154.124 73.5512 154.215 73.5683 154.346C73.6038 154.559 73.5991 154.813 73.5541 155.105C73.5181 155.384 73.4204 155.689 73.2609 156.02C73.1105 156.336 72.8976 156.648 72.6222 156.956C72.3442 157.252 71.9868 157.523 71.5499 157.768C71.1247 158.011 70.6077 158.201 69.9988 158.337ZM78.7333 156.38C78.1244 156.516 77.5478 156.522 77.0035 156.398C76.4566 156.263 75.9922 156.029 75.6102 155.696C75.2373 155.349 74.9945 154.924 74.8816 154.421C74.6979 153.601 74.8801 152.878 75.4283 152.25C75.9855 151.609 76.7902 151.084 77.8425 150.676L80.1701 149.786L80.0874 149.417C79.9772 148.925 79.7689 148.572 79.4627 148.358C79.1564 148.144 78.7047 148.104 78.1075 148.237C77.686 148.332 77.3602 148.497 77.1303 148.733C76.9094 148.955 76.766 149.221 76.7002 149.53C76.6407 149.704 76.5231 149.81 76.3474 149.849L74.9598 150.16C74.831 150.189 74.7236 150.176 74.6376 150.122C74.5633 150.065 74.5131 149.978 74.4868 149.86C74.4565 149.671 74.4815 149.425 74.5616 149.124C74.6418 148.824 74.8065 148.516 75.0559 148.202C75.3026 147.876 75.6463 147.572 76.087 147.288C76.5278 147.005 77.0877 146.787 77.7669 146.635C78.5046 146.47 79.1461 146.424 79.6916 146.499C80.2462 146.559 80.7099 146.707 81.0825 146.943C81.4552 147.18 81.7577 147.487 81.9901 147.865C82.2225 148.244 82.3898 148.661 82.4922 149.118L83.7282 154.633C83.7545 154.75 83.7358 154.859 83.6722 154.959C83.6086 155.059 83.5183 155.123 83.4012 155.149L81.9785 155.468C81.8496 155.497 81.7351 155.479 81.6347 155.416C81.5461 155.35 81.4887 155.258 81.4624 155.141L81.3089 154.456C81.2065 154.712 81.0489 154.969 80.8359 155.226C80.6203 155.471 80.3395 155.7 79.9937 155.913C79.6569 156.111 79.2368 156.267 78.7333 156.38ZM78.9565 154.577C79.3663 154.485 79.7155 154.315 80.004 154.066C80.3042 153.814 80.5073 153.486 80.6133 153.081C80.7284 152.661 80.723 152.171 80.597 151.609L80.5143 151.24L78.8209 151.914C78.1537 152.175 77.6765 152.46 77.3894 152.77C77.1023 153.08 76.9968 153.405 77.0729 153.745C77.1307 154.003 77.2566 154.208 77.4508 154.361C77.6541 154.5 77.8892 154.589 78.1561 154.627C78.4204 154.654 78.6872 154.638 78.9565 154.577ZM90.1179 153.644C89.4153 153.801 88.7964 153.811 88.2612 153.672C87.726 153.534 87.2875 153.251 86.9457 152.824C86.6013 152.384 86.3477 151.802 86.185 151.076L85.2915 147.089L83.9039 147.399C83.7868 147.426 83.6781 147.407 83.5777 147.343C83.4774 147.28 83.4141 147.19 83.3879 147.072L83.1595 146.054C83.1333 145.937 83.152 145.828 83.2156 145.728C83.2792 145.627 83.3695 145.564 83.4866 145.538L84.8742 145.227L84.2207 142.311C84.1945 142.194 84.2073 142.087 84.2592 141.989C84.3228 141.888 84.419 141.824 84.5478 141.795L85.9705 141.476C86.0876 141.45 86.1963 141.469 86.2967 141.532C86.397 141.596 86.4603 141.686 86.4865 141.803L87.14 144.719L89.3355 144.227C89.4526 144.201 89.5613 144.219 89.6617 144.283C89.762 144.346 89.8253 144.437 89.8515 144.554L90.0799 145.573C90.1061 145.69 90.0874 145.798 90.0238 145.899C89.9602 145.999 89.8699 146.062 89.7528 146.089L87.5573 146.581L88.4115 150.392C88.5191 150.872 88.685 151.229 88.9093 151.461C89.1453 151.691 89.4741 151.759 89.8956 151.664L91.1076 151.393C91.2246 151.367 91.3334 151.385 91.4337 151.449C91.534 151.512 91.5973 151.603 91.6236 151.72L91.8676 152.809C91.8939 152.926 91.8752 153.035 91.8116 153.135C91.748 153.235 91.6577 153.299 91.5406 153.325L90.1179 153.644ZM97.494 152.175C96.1943 152.466 95.0798 152.323 94.1508 151.744C93.2217 151.165 92.573 150.191 92.2048 148.823C92.1669 148.708 92.1282 148.563 92.0889 148.387C92.0469 148.2 92.0199 148.052 92.008 147.944C91.858 147.056 91.8865 146.25 92.0935 145.527C92.3121 144.802 92.6995 144.198 93.2558 143.717C93.8093 143.224 94.5135 142.882 95.3683 142.69C96.3168 142.478 97.1577 142.498 97.8909 142.752C98.6215 142.994 99.2295 143.43 99.7148 144.059C100.198 144.676 100.541 145.442 100.746 146.355L100.829 146.724C100.855 146.841 100.836 146.95 100.773 147.05C100.709 147.15 100.613 147.215 100.484 147.244L94.6526 148.551C94.6526 148.551 94.6566 148.568 94.6644 148.603C94.6723 148.639 94.6789 148.668 94.6841 148.691C94.7877 149.098 94.9491 149.462 95.1683 149.782C95.3966 150.087 95.6749 150.314 96.0032 150.462C96.3432 150.607 96.7122 150.635 97.1104 150.545C97.4382 150.472 97.7029 150.364 97.9044 150.22C98.1033 150.065 98.2585 149.907 98.3702 149.747C98.4818 149.586 98.5577 149.459 98.5979 149.364C98.6718 149.199 98.7354 149.099 98.7887 149.063C98.8511 149.012 98.9467 148.972 99.0755 148.943L100.586 148.604C100.703 148.578 100.805 148.592 100.891 148.647C100.988 148.699 101.043 148.779 101.055 148.887C101.085 149.077 101.037 149.327 100.91 149.639C100.795 149.947 100.596 150.268 100.314 150.602C100.032 150.936 99.6536 151.248 99.1778 151.539C98.711 151.816 98.1497 152.028 97.494 152.175ZM94.322 147.075L98.2037 146.205L98.1919 146.153C98.0895 145.696 97.9242 145.315 97.6958 145.009C97.4675 144.704 97.1847 144.485 96.8473 144.351C96.51 144.218 96.1364 144.197 95.7265 144.289C95.3167 144.381 94.9877 144.559 94.7396 144.823C94.4915 145.088 94.3294 145.407 94.2532 145.781C94.1888 146.152 94.2078 146.566 94.3101 147.023L94.322 147.075ZM107.087 150.025C106.478 150.162 105.917 150.183 105.404 150.089C104.9 149.98 104.454 149.773 104.065 149.466C103.677 149.16 103.344 148.773 103.068 148.306C102.788 147.828 102.569 147.287 102.409 146.683C102.35 146.475 102.302 146.289 102.265 146.125C102.226 145.95 102.188 145.755 102.153 145.542C102.045 144.951 102.011 144.387 102.05 143.849C102.101 143.309 102.237 142.817 102.457 142.374C102.687 141.917 103.007 141.532 103.416 141.219C103.837 140.903 104.352 140.677 104.961 140.54C105.593 140.399 106.151 140.391 106.634 140.516C107.126 140.627 107.557 140.819 107.926 141.093L107.052 137.194C107.026 137.077 107.038 136.97 107.09 136.872C107.154 136.772 107.25 136.707 107.379 136.678L108.872 136.344C108.989 136.317 109.098 136.336 109.198 136.4C109.298 136.463 109.362 136.554 109.388 136.671L111.994 148.298C112.02 148.415 112.001 148.524 111.938 148.624C111.874 148.725 111.784 148.788 111.667 148.814L110.279 149.125C110.15 149.154 110.036 149.137 109.935 149.073C109.847 149.007 109.789 148.915 109.763 148.798L109.618 148.148C109.406 148.577 109.098 148.959 108.694 149.296C108.302 149.63 107.766 149.873 107.087 150.025ZM107.315 148C107.807 147.89 108.175 147.691 108.417 147.403C108.66 147.115 108.814 146.785 108.878 146.414C108.94 146.031 108.936 145.657 108.867 145.291C108.831 145.078 108.787 144.854 108.735 144.62C108.679 144.374 108.622 144.147 108.563 143.939C108.473 143.59 108.316 143.275 108.093 142.993C107.867 142.699 107.585 142.48 107.245 142.334C106.905 142.189 106.5 142.169 106.032 142.274C105.54 142.384 105.173 142.584 104.93 142.872C104.696 143.145 104.554 143.472 104.504 143.852C104.454 144.233 104.465 144.636 104.536 145.063C104.603 145.417 104.682 145.768 104.772 146.117C104.89 146.533 105.053 146.902 105.26 147.225C105.468 147.547 105.737 147.788 106.068 147.948C106.408 148.093 106.824 148.11 107.315 148ZM117.435 147.521C117.342 147.542 117.246 147.527 117.148 147.475C117.062 147.421 117.008 147.341 116.984 147.235C116.973 147.188 116.973 147.133 116.984 147.069L118.678 134.792C118.686 134.667 118.729 134.553 118.804 134.45C118.888 134.332 119.018 134.254 119.194 134.215L121.108 133.786C121.284 133.746 121.429 133.763 121.544 133.836C121.656 133.897 121.748 133.98 121.822 134.087L128.594 144.467C128.618 144.523 128.636 144.575 128.647 144.621C128.67 144.727 128.655 144.822 128.6 144.908C128.546 144.994 128.472 145.048 128.378 145.069L126.85 145.411C126.686 145.448 126.555 145.441 126.457 145.389C126.369 145.322 126.305 145.257 126.266 145.192L124.96 143.234L119.743 144.403L119.398 146.731C119.39 146.807 119.355 146.894 119.291 146.995C119.237 147.081 119.127 147.142 118.963 147.179L117.435 147.521ZM119.905 142.245L123.892 141.352L120.674 136.373L119.905 142.245ZM133.658 144.07C132.955 144.228 132.334 144.281 131.794 144.23C131.265 144.176 130.815 144.062 130.444 143.887C130.073 143.711 129.783 143.518 129.576 143.306C129.369 143.095 129.241 142.908 129.192 142.747C129.152 142.62 129.165 142.513 129.231 142.424C129.306 142.321 129.396 142.258 129.502 142.235L130.889 141.924C130.936 141.913 130.978 141.91 131.016 141.914C131.054 141.917 131.109 141.942 131.18 141.988C131.361 142.082 131.55 142.181 131.745 142.285C131.952 142.386 132.185 142.463 132.443 142.516C132.698 142.557 133.001 142.539 133.352 142.46C133.809 142.358 134.17 142.185 134.435 141.941C134.709 141.682 134.808 141.384 134.732 141.044C134.677 140.798 134.562 140.615 134.387 140.494C134.224 140.371 133.948 140.291 133.559 140.255C133.167 140.208 132.622 140.189 131.923 140.198C131.233 140.193 130.645 140.121 130.16 139.984C129.674 139.847 129.286 139.627 128.997 139.323C128.707 139.018 128.51 138.632 128.405 138.164C128.303 137.707 128.34 137.244 128.518 136.774C128.704 136.289 129.037 135.852 129.515 135.462C130.005 135.069 130.654 134.782 131.462 134.601C132.094 134.459 132.663 134.418 133.168 134.477C133.67 134.524 134.1 134.631 134.457 134.797C134.826 134.96 135.12 135.146 135.339 135.356C135.555 135.553 135.689 135.738 135.74 135.911C135.78 136.037 135.769 136.151 135.705 136.251C135.639 136.34 135.553 136.396 135.448 136.419L134.148 136.711C134.09 136.724 134.034 136.724 133.982 136.711C133.93 136.698 133.877 136.679 133.822 136.655C133.667 136.566 133.499 136.475 133.318 136.38C133.137 136.286 132.924 136.216 132.681 136.173C132.447 136.114 132.154 136.125 131.803 136.203C131.358 136.303 131.04 136.479 130.851 136.73C130.658 136.97 130.595 137.236 130.661 137.529C130.705 137.728 130.797 137.892 130.937 138.021C131.086 138.135 131.344 138.218 131.713 138.271C132.081 138.324 132.626 138.343 133.349 138.329C134.165 138.293 134.833 138.365 135.352 138.544C135.881 138.708 136.28 138.951 136.548 139.272C136.826 139.578 137.014 139.948 137.111 140.382C137.229 140.909 137.177 141.418 136.955 141.911C136.745 142.4 136.364 142.837 135.81 143.219C135.265 143.587 134.548 143.871 133.658 144.07ZM143.006 141.975C142.303 142.132 141.682 142.186 141.142 142.135C140.613 142.081 140.163 141.966 139.792 141.791C139.421 141.616 139.131 141.423 138.924 141.211C138.717 140.999 138.589 140.813 138.54 140.652C138.5 140.525 138.513 140.418 138.579 140.329C138.654 140.226 138.745 140.163 138.85 140.139L140.238 139.829C140.284 139.818 140.327 139.815 140.364 139.819C140.402 139.822 140.457 139.847 140.529 139.892C140.71 139.987 140.898 140.086 141.093 140.19C141.3 140.291 141.533 140.368 141.791 140.421C142.046 140.462 142.349 140.444 142.7 140.365C143.157 140.263 143.518 140.089 143.783 139.846C144.057 139.587 144.156 139.288 144.08 138.949C144.025 138.703 143.91 138.52 143.736 138.399C143.573 138.276 143.297 138.196 142.907 138.16C142.515 138.113 141.97 138.094 141.271 138.103C140.581 138.097 139.993 138.026 139.508 137.889C139.022 137.752 138.634 137.532 138.345 137.227C138.055 136.923 137.858 136.537 137.753 136.069C137.651 135.612 137.688 135.149 137.866 134.679C138.052 134.194 138.385 133.757 138.863 133.367C139.353 132.974 140.002 132.687 140.81 132.506C141.442 132.364 142.011 132.323 142.516 132.382C143.019 132.429 143.448 132.536 143.805 132.702C144.174 132.865 144.468 133.051 144.687 133.26C144.903 133.458 145.037 133.643 145.088 133.816C145.129 133.942 145.117 134.056 145.054 134.156C144.987 134.245 144.902 134.301 144.796 134.324L143.496 134.616C143.438 134.629 143.383 134.629 143.33 134.616C143.278 134.603 143.225 134.584 143.17 134.56C143.015 134.471 142.847 134.38 142.666 134.285C142.485 134.191 142.273 134.121 142.029 134.077C141.795 134.019 141.502 134.03 141.151 134.108C140.706 134.208 140.388 134.384 140.199 134.635C140.007 134.875 139.943 135.141 140.009 135.434C140.054 135.633 140.146 135.797 140.285 135.926C140.434 136.04 140.692 136.123 141.061 136.176C141.429 136.229 141.975 136.248 142.697 136.234C143.513 136.198 144.181 136.27 144.7 136.449C145.229 136.613 145.628 136.856 145.897 137.177C146.174 137.483 146.362 137.853 146.459 138.287C146.577 138.814 146.525 139.323 146.304 139.816C146.094 140.305 145.712 140.741 145.158 141.124C144.613 141.492 143.896 141.776 143.006 141.975ZM149.276 140.385C149.159 140.412 149.05 140.393 148.95 140.329C148.85 140.266 148.786 140.175 148.76 140.058L146.902 131.768C146.876 131.651 146.895 131.542 146.958 131.442C147.022 131.341 147.112 131.278 147.229 131.252L148.687 130.925C148.816 130.896 148.925 130.915 149.013 130.981C149.114 131.045 149.177 131.135 149.203 131.252L151.061 139.543C151.087 139.66 151.069 139.768 151.005 139.869C150.953 139.966 150.863 140.03 150.734 140.059L149.276 140.385ZM146.82 129.757C146.692 129.786 146.578 129.774 146.481 129.723C146.392 129.656 146.333 129.559 146.304 129.43L146.021 128.165C145.995 128.048 146.008 127.941 146.059 127.843C146.123 127.743 146.219 127.678 146.348 127.649L147.946 127.291C148.075 127.262 148.19 127.28 148.29 127.343C148.39 127.407 148.454 127.497 148.48 127.614L148.763 128.879C148.792 129.008 148.775 129.122 148.711 129.223C148.645 129.311 148.548 129.37 148.419 129.399L146.82 129.757ZM156.985 138.842C156.283 138.999 155.661 139.053 155.121 139.002C154.593 138.948 154.143 138.833 153.771 138.658C153.4 138.483 153.111 138.29 152.904 138.078C152.696 137.866 152.568 137.68 152.52 137.519C152.479 137.392 152.492 137.285 152.558 137.196C152.634 137.093 152.724 137.03 152.829 137.006L154.217 136.695C154.264 136.685 154.306 136.682 154.344 136.686C154.382 136.689 154.436 136.714 154.508 136.759C154.689 136.854 154.877 136.953 155.073 137.057C155.28 137.158 155.512 137.235 155.77 137.288C156.025 137.329 156.329 137.311 156.68 137.232C157.137 137.13 157.497 136.956 157.762 136.713C158.037 136.454 158.136 136.155 158.06 135.816C158.004 135.57 157.89 135.387 157.715 135.266C157.552 135.143 157.276 135.063 156.887 135.027C156.495 134.98 155.949 134.961 155.251 134.97C154.561 134.964 153.973 134.893 153.487 134.756C153.001 134.619 152.614 134.398 152.324 134.094C152.035 133.79 151.838 133.404 151.733 132.936C151.63 132.479 151.668 132.016 151.845 131.545C152.032 131.061 152.364 130.624 152.843 130.234C153.332 129.841 153.981 129.554 154.789 129.373C155.422 129.231 155.99 129.19 156.496 129.249C156.998 129.296 157.428 129.403 157.785 129.569C158.153 129.732 158.447 129.918 158.666 130.127C158.883 130.325 159.016 130.51 159.067 130.683C159.108 130.809 159.097 130.923 159.033 131.023C158.967 131.112 158.881 131.168 158.776 131.191L157.476 131.483C157.417 131.496 157.362 131.496 157.31 131.483C157.258 131.47 157.204 131.451 157.15 131.427C156.995 131.338 156.827 131.247 156.645 131.152C156.464 131.058 156.252 130.988 156.009 130.944C155.774 130.886 155.481 130.897 155.13 130.975C154.685 131.075 154.368 131.251 154.178 131.502C153.986 131.742 153.923 132.008 153.988 132.301C154.033 132.5 154.125 132.664 154.265 132.793C154.413 132.907 154.672 132.99 155.04 133.043C155.409 133.096 155.954 133.115 156.676 133.101C157.492 133.065 158.16 133.137 158.68 133.316C159.209 133.48 159.607 133.723 159.876 134.044C160.154 134.35 160.341 134.72 160.438 135.154C160.556 135.681 160.505 136.19 160.283 136.683C160.073 137.172 159.691 137.608 159.137 137.991C158.593 138.359 157.875 138.643 156.985 138.842ZM166.927 136.429C166.225 136.587 165.606 136.596 165.071 136.458C164.535 136.32 164.097 136.037 163.755 135.609C163.411 135.17 163.157 134.587 162.995 133.861L162.101 129.874L160.713 130.185C160.596 130.211 160.488 130.193 160.387 130.129C160.287 130.066 160.224 129.975 160.197 129.858L159.969 128.839C159.943 128.722 159.961 128.614 160.025 128.513C160.089 128.413 160.179 128.35 160.296 128.323L161.684 128.012L161.03 125.097C161.004 124.98 161.017 124.872 161.069 124.775C161.132 124.674 161.228 124.61 161.357 124.581L162.78 124.262C162.897 124.236 163.006 124.254 163.106 124.318C163.206 124.381 163.27 124.472 163.296 124.589L163.949 127.505L166.145 127.013C166.262 126.986 166.371 127.005 166.471 127.069C166.571 127.132 166.635 127.223 166.661 127.34L166.889 128.358C166.916 128.475 166.897 128.584 166.833 128.684C166.77 128.785 166.679 128.848 166.562 128.874L164.367 129.366L165.221 133.178C165.329 133.658 165.494 134.014 165.719 134.247C165.955 134.477 166.284 134.545 166.705 134.45L167.917 134.178C168.034 134.152 168.143 134.171 168.243 134.234C168.344 134.298 168.407 134.388 168.433 134.506L168.677 135.595C168.703 135.712 168.685 135.82 168.621 135.921C168.557 136.021 168.467 136.084 168.35 136.111L166.927 136.429ZM173.021 135.248C172.412 135.385 171.836 135.391 171.292 135.267C170.745 135.131 170.28 134.897 169.898 134.565C169.525 134.218 169.282 133.793 169.17 133.289C168.986 132.469 169.168 131.746 169.716 131.119C170.273 130.478 171.078 129.953 172.13 129.545L174.458 128.654L174.375 128.285C174.265 127.794 174.057 127.441 173.751 127.226C173.444 127.012 172.993 126.972 172.396 127.106C171.974 127.2 171.648 127.366 171.418 127.602C171.197 127.823 171.054 128.089 170.988 128.399C170.929 128.572 170.811 128.678 170.635 128.718L169.248 129.029C169.119 129.058 169.012 129.045 168.926 128.99C168.851 128.933 168.801 128.846 168.775 128.729C168.745 128.539 168.769 128.294 168.85 127.993C168.93 127.692 169.095 127.384 169.344 127.07C169.591 126.745 169.934 126.44 170.375 126.157C170.816 125.874 171.376 125.656 172.055 125.504C172.793 125.338 173.434 125.293 173.98 125.367C174.534 125.428 174.998 125.576 175.371 125.812C175.743 126.048 176.046 126.355 176.278 126.734C176.51 127.112 176.678 127.53 176.78 127.986L178.016 133.501C178.042 133.619 178.024 133.727 177.96 133.828C177.897 133.928 177.806 133.991 177.689 134.017L176.266 134.336C176.138 134.365 176.023 134.348 175.923 134.284C175.834 134.218 175.777 134.126 175.75 134.009L175.597 133.324C175.495 133.581 175.337 133.838 175.124 134.094C174.908 134.339 174.628 134.568 174.282 134.781C173.945 134.98 173.525 135.135 173.021 135.248ZM173.245 133.446C173.654 133.354 174.004 133.183 174.292 132.934C174.592 132.682 174.795 132.354 174.901 131.949C175.016 131.53 175.011 131.039 174.885 130.477L174.802 130.108L173.109 130.783C172.442 131.043 171.964 131.328 171.677 131.639C171.39 131.949 171.285 132.274 171.361 132.613C171.419 132.871 171.545 133.076 171.739 133.23C171.942 133.369 172.177 133.457 172.444 133.496C172.708 133.523 172.975 133.506 173.245 133.446ZM180.786 133.324C180.668 133.35 180.56 133.331 180.459 133.267C180.359 133.204 180.296 133.114 180.27 132.996L178.412 124.706C178.385 124.589 178.404 124.48 178.468 124.38C178.531 124.28 178.621 124.216 178.739 124.19L180.179 123.867C180.296 123.841 180.405 123.86 180.505 123.923C180.605 123.987 180.669 124.077 180.695 124.194L180.856 124.915C181.077 124.472 181.394 124.075 181.807 123.724C182.229 123.359 182.792 123.097 183.494 122.94C184.209 122.78 184.866 122.805 185.466 123.014C186.064 123.212 186.569 123.573 186.981 124.095C187.405 124.615 187.709 125.285 187.893 126.104L188.999 131.04C189.025 131.157 189.007 131.266 188.943 131.366C188.879 131.467 188.789 131.53 188.672 131.556L187.126 131.902C187.009 131.929 186.9 131.91 186.8 131.846C186.7 131.783 186.636 131.692 186.61 131.575L185.528 126.745C185.376 126.066 185.086 125.571 184.66 125.261C184.246 124.948 183.722 124.862 183.09 125.004C182.481 125.141 182.038 125.443 181.762 125.911C181.486 126.378 181.424 126.952 181.576 127.631L182.658 132.461C182.685 132.578 182.666 132.687 182.602 132.787C182.539 132.888 182.448 132.951 182.331 132.977L180.786 133.324ZM195.316 130.252C194.473 130.44 193.694 130.449 192.979 130.277C192.276 130.103 191.676 129.758 191.179 129.242C190.691 128.712 190.334 128.023 190.107 127.176C190.056 127.003 189.999 126.776 189.936 126.495C189.871 126.202 189.823 125.961 189.792 125.771C189.636 124.908 189.666 124.139 189.884 123.463C190.11 122.773 190.504 122.199 191.066 121.741C191.639 121.28 192.347 120.956 193.19 120.767C193.94 120.599 194.601 120.561 195.176 120.654C195.75 120.747 196.242 120.913 196.652 121.153C197.063 121.393 197.389 121.67 197.632 121.985C197.884 122.285 198.047 122.574 198.122 122.853C198.162 122.979 198.145 123.094 198.07 123.196C198.003 123.285 197.912 123.343 197.795 123.369L196.249 123.715C196.132 123.741 196.032 123.733 195.948 123.69C195.877 123.645 195.798 123.57 195.714 123.466C195.433 123.037 195.125 122.762 194.791 122.64C194.465 122.504 194.08 122.486 193.635 122.586C193.049 122.717 192.623 123.009 192.356 123.463C192.097 123.902 192.046 124.522 192.201 125.323C192.277 125.774 192.369 126.184 192.476 126.553C192.681 127.356 192.993 127.9 193.414 128.187C193.847 128.472 194.356 128.548 194.942 128.417C195.398 128.315 195.746 128.138 195.985 127.888C196.222 127.626 196.375 127.241 196.446 126.733C196.478 126.603 196.517 126.502 196.562 126.43C196.62 126.356 196.707 126.306 196.824 126.28L198.369 125.933C198.486 125.907 198.595 125.926 198.696 125.989C198.805 126.038 198.868 126.129 198.885 126.26C198.921 126.474 198.916 126.727 198.871 127.02C198.835 127.298 198.738 127.603 198.578 127.934C198.428 128.251 198.215 128.563 197.939 128.87C197.661 129.166 197.304 129.437 196.867 129.683C196.442 129.925 195.925 130.115 195.316 130.252ZM205.333 128.007C204.033 128.298 202.918 128.154 201.989 127.575C201.06 126.996 200.412 126.023 200.043 124.654C200.005 124.54 199.967 124.395 199.927 124.219C199.885 124.032 199.858 123.884 199.847 123.776C199.697 122.887 199.725 122.081 199.932 121.359C200.151 120.633 200.538 120.03 201.094 119.549C201.648 119.056 202.352 118.713 203.207 118.522C204.155 118.309 204.996 118.33 205.729 118.584C206.46 118.826 207.068 119.261 207.553 119.89C208.036 120.508 208.38 121.273 208.585 122.187L208.667 122.555C208.693 122.672 208.675 122.781 208.611 122.882C208.548 122.982 208.451 123.046 208.323 123.075L202.491 124.382C202.491 124.382 202.495 124.4 202.503 124.435C202.511 124.47 202.517 124.499 202.523 124.523C202.626 124.93 202.788 125.293 203.007 125.613C203.235 125.919 203.514 126.145 203.842 126.293C204.182 126.438 204.551 126.466 204.949 126.377C205.277 126.304 205.541 126.195 205.743 126.052C205.942 125.896 206.097 125.738 206.209 125.578C206.32 125.418 206.396 125.29 206.436 125.195C206.51 125.031 206.574 124.931 206.627 124.894C206.69 124.843 206.785 124.803 206.914 124.775L208.425 124.436C208.542 124.41 208.643 124.424 208.729 124.478C208.827 124.53 208.882 124.61 208.894 124.718C208.924 124.908 208.876 125.159 208.749 125.47C208.633 125.779 208.435 126.1 208.153 126.434C207.871 126.767 207.492 127.08 207.016 127.371C206.55 127.648 205.988 127.86 205.333 128.007ZM202.161 122.907L206.042 122.037L206.03 121.984C205.928 121.528 205.763 121.146 205.534 120.841C205.306 120.536 205.023 120.316 204.686 120.183C204.349 120.049 203.975 120.028 203.565 120.12C203.155 120.212 202.826 120.39 202.578 120.655C202.33 120.92 202.168 121.239 202.092 121.613C202.027 121.984 202.046 122.397 202.149 122.854L202.161 122.907Z" fill="#151515"/>
<rect x="13.9943" y="6.19922" width="200" height="44" rx="22" transform="rotate(6.51747 13.9943 6.19922)" fill="#059E93"/>
<path d="M35.3429 37.5044C34.2341 37.3777 33.314 37.0793 32.5826 36.6093C31.8645 36.1287 31.3437 35.5075 31.02 34.7459C30.6978 33.9723 30.5707 33.0761 30.6388 32.0572C30.6827 31.567 30.7366 31.0418 30.8007 30.4814C30.8647 29.921 30.9319 29.3852 31.0024 28.8739C31.1645 27.8779 31.4898 27.0394 31.9783 26.3584C32.4786 25.6788 33.1321 25.1918 33.9388 24.8975C34.7587 24.5926 35.717 24.5028 36.8139 24.6281C37.6246 24.7207 38.3396 24.9111 38.9589 25.1993C39.5782 25.4874 40.0926 25.8481 40.5021 26.2814C40.9129 26.7028 41.2149 27.1781 41.4081 27.7075C41.6012 28.2368 41.6704 28.7943 41.6156 29.3798C41.6153 29.4885 41.5693 29.5738 41.4776 29.6358C41.3979 29.6992 41.3044 29.7247 41.1971 29.7125L39.4982 29.5184C39.367 29.5034 39.2631 29.4613 39.1865 29.3922C39.1112 29.3111 39.0645 29.1911 39.0465 29.032C38.9456 28.2233 38.679 27.6493 38.2468 27.3101C37.8145 26.9708 37.2526 26.7617 36.5611 26.6827C35.7623 26.5914 35.0985 26.7451 34.5699 27.1437C34.0426 27.5303 33.7025 28.2342 33.5496 29.2555C33.4021 30.229 33.2877 31.2305 33.2063 32.2599C33.125 33.2894 33.2968 34.0578 33.722 34.5654C34.1485 35.061 34.7611 35.3544 35.5599 35.4457C36.2514 35.5247 36.846 35.4477 37.3437 35.2147C37.8427 34.9697 38.2319 34.4707 38.5112 33.7175C38.566 33.5547 38.6386 33.4482 38.7288 33.3981C38.8191 33.3481 38.9298 33.3305 39.061 33.3455L40.7599 33.5396C40.8672 33.5519 40.9525 33.5978 41.0159 33.6775C41.0912 33.7586 41.1167 33.8521 41.0926 33.9581C41.0139 34.5409 40.8208 35.0684 40.5132 35.5405C40.2056 36.0127 39.8035 36.4136 39.3069 36.7434C38.8116 37.0612 38.2298 37.2907 37.5615 37.4317C36.8931 37.5728 36.1536 37.597 35.3429 37.5044ZM45.9764 38.7192C45.2491 38.6361 44.6356 38.4029 44.1359 38.0197C43.6494 37.626 43.2972 37.1147 43.0792 36.4859C42.8625 35.8452 42.8011 35.1135 42.8951 34.2908L43.4692 29.2655C43.4829 29.1463 43.5362 29.0497 43.6292 28.9758C43.7221 28.9019 43.8283 28.8717 43.9475 28.8853L45.5212 29.0651C45.6524 29.0801 45.749 29.1334 45.811 29.225C45.8849 29.318 45.915 29.4241 45.9014 29.5434L45.3396 34.4614C45.1707 35.9398 45.736 36.7532 47.0355 36.9016C47.6555 36.9725 48.1668 36.8316 48.5694 36.479C48.984 36.1278 49.2307 35.6064 49.3097 34.9149L49.8716 29.9969C49.8852 29.8777 49.9385 29.7811 50.0315 29.7072C50.1245 29.6333 50.2306 29.6031 50.3498 29.6168L51.9236 29.7966C52.0428 29.8102 52.1394 29.8635 52.2133 29.9565C52.2872 30.0495 52.3174 30.1556 52.3038 30.2748L51.3394 38.7159C51.3258 38.8351 51.2725 38.9317 51.1795 39.0056C51.0865 39.0795 50.9804 39.1097 50.8612 39.0961L49.4126 38.9306C49.2815 38.9156 49.1789 38.8616 49.105 38.7686C49.043 38.677 49.0188 38.5716 49.0324 38.4523L49.1162 37.7191C48.7466 38.0996 48.3098 38.3818 47.8056 38.5658C47.3015 38.7498 46.6917 38.8009 45.9764 38.7192ZM57.1554 39.9963C56.44 39.9146 55.8355 39.761 55.3419 39.5355C54.8603 39.3114 54.4728 39.0557 54.1795 38.7686C53.8862 38.4814 53.6763 38.2038 53.5499 37.9358C53.4236 37.6677 53.3639 37.4495 53.3711 37.2812C53.3741 37.1487 53.4215 37.0515 53.5131 36.9895C53.618 36.9169 53.7241 36.8867 53.8314 36.899L55.2443 37.0604C55.2919 37.0659 55.333 37.0766 55.3674 37.0926C55.4018 37.1086 55.4454 37.1498 55.4982 37.2162C55.6382 37.3651 55.7835 37.5206 55.9341 37.6827C56.0966 37.8462 56.2909 37.9953 56.5171 38.1298C56.7447 38.2524 57.0373 38.3342 57.3949 38.375C57.8599 38.4281 58.2576 38.383 58.588 38.2396C58.9317 38.0856 59.1233 37.8357 59.1628 37.49C59.1914 37.2396 59.143 37.0287 59.0177 36.8574C58.9042 36.6874 58.6695 36.5217 58.3136 36.3603C57.9589 36.1869 57.45 35.9899 56.7868 35.7692C56.1368 35.5379 55.6049 35.2778 55.191 34.989C54.7771 34.7001 54.4833 34.3646 54.3096 33.9824C54.1358 33.6002 54.0762 33.1707 54.1307 32.6938C54.1838 32.2288 54.3713 31.8034 54.6932 31.4174C55.0284 31.0209 55.4859 30.7168 56.0656 30.5053C56.6573 30.2951 57.3645 30.237 58.1871 30.331C58.8309 30.4045 59.3817 30.552 59.8396 30.7734C60.2988 30.9829 60.6697 31.2245 60.9525 31.4984C61.2471 31.7736 61.4636 32.0459 61.6019 32.3154C61.7416 32.5729 61.8072 32.7918 61.7987 32.972C61.7956 33.1045 61.7476 33.2077 61.6546 33.2816C61.563 33.3436 61.4635 33.3685 61.3562 33.3562L60.0328 33.205C59.9732 33.1982 59.9209 33.1802 59.8759 33.1509C59.831 33.1216 59.7867 33.0863 59.7431 33.0451C59.6256 32.9109 59.4968 32.7694 59.3568 32.6205C59.2168 32.4717 59.039 32.3366 58.8233 32.2153C58.621 32.0835 58.341 31.9972 57.9833 31.9563C57.5302 31.9046 57.1729 31.9664 56.9113 32.1418C56.6511 32.3054 56.5039 32.5362 56.4699 32.8342C56.4467 33.0369 56.4799 33.2219 56.5695 33.3891C56.6724 33.5458 56.8892 33.7095 57.22 33.8801C57.5508 34.0508 58.0597 34.2478 58.7468 34.4712C59.5292 34.7056 60.1366 34.9924 60.5689 35.3316C61.0145 35.6603 61.3115 36.0204 61.4601 36.4118C61.6219 36.7926 61.6776 37.2036 61.6272 37.6447C61.5659 38.1812 61.3498 38.6457 60.9788 39.0381C60.6198 39.4319 60.116 39.7186 59.4675 39.8981C58.8322 40.0671 58.0615 40.0998 57.1554 39.9963ZM67.3386 40.9785C66.6233 40.8968 66.0355 40.7028 65.5753 40.3966C65.115 40.0904 64.7936 39.6793 64.611 39.1632C64.4298 38.6352 64.3814 38.0016 64.4658 37.2624L64.9296 33.2028L63.5168 33.0414C63.3976 33.0278 63.301 32.9745 63.2271 32.8815C63.1532 32.7885 63.123 32.6824 63.1366 32.5632L63.2551 31.5259C63.2688 31.4067 63.3221 31.3101 63.4151 31.2362C63.5081 31.1623 63.6142 31.1321 63.7334 31.1458L65.1462 31.3072L65.4854 28.3385C65.499 28.2192 65.5463 28.122 65.6274 28.0467C65.7204 27.9728 65.8325 27.9433 65.9636 27.9583L67.4122 28.1238C67.5314 28.1374 67.628 28.1907 67.7019 28.2837C67.7758 28.3767 67.806 28.4828 67.7923 28.602L67.4532 31.5707L69.6887 31.8261C69.8079 31.8397 69.9044 31.893 69.9784 31.986C70.0523 32.079 70.0824 32.1851 70.0688 32.3044L69.9503 33.3416C69.9367 33.4608 69.8834 33.5574 69.7904 33.6313C69.6974 33.7052 69.5913 33.7354 69.4721 33.7218L67.2366 33.4664L66.7933 37.3471C66.7374 37.836 66.7773 38.227 66.9129 38.5203C67.0604 38.815 67.3487 38.9868 67.778 39.0358L69.0119 39.1768C69.1312 39.1904 69.2277 39.2437 69.3017 39.3367C69.3756 39.4297 69.4057 39.5358 69.3921 39.655L69.2654 40.7638C69.2518 40.8831 69.1985 40.9796 69.1055 41.0536C69.0125 41.1275 68.9064 41.1576 68.7872 41.144L67.3386 40.9785ZM74.8957 42.023C73.9419 41.9141 73.1562 41.6552 72.5386 41.2465C71.9329 40.8391 71.4919 40.3116 71.2157 39.6641C70.9513 39.0179 70.8416 38.2867 70.8865 37.4706C70.8991 37.2546 70.9231 36.9916 70.9585 36.6816C70.9939 36.3716 71.0299 36.11 71.0663 35.8968C71.208 35.0796 71.4857 34.3927 71.8996 33.8361C72.3267 33.2689 72.8813 32.8551 73.5632 32.5949C74.2571 32.336 75.069 32.2596 75.999 32.3659C76.9289 32.4721 77.6967 32.7289 78.3024 33.1363C78.92 33.545 79.3669 34.0732 79.6432 34.7207C79.9328 35.3577 80.0544 36.0902 80.0081 36.9183C79.9955 37.1343 79.9715 37.3973 79.9361 37.7073C79.9007 38.0173 79.8648 38.2789 79.8283 38.4921C79.688 39.2974 79.4103 39.9843 78.9951 40.5528C78.5918 41.1228 78.0432 41.5372 77.3493 41.7961C76.6674 42.0564 75.8495 42.132 74.8957 42.023ZM75.098 40.2526C75.7298 40.3247 76.2411 40.1839 76.6318 39.8299C77.0239 39.4641 77.2821 38.8957 77.4064 38.1248C77.4387 37.9474 77.4713 37.7155 77.5039 37.4294C77.5366 37.1433 77.5572 36.9101 77.5657 36.7299C77.6172 35.9628 77.4931 35.3568 77.1937 34.9119C76.8943 34.4671 76.4286 34.2085 75.7967 34.1363C75.1648 34.0642 74.6528 34.211 74.2608 34.5769C73.8687 34.9427 73.6112 35.5051 73.4883 36.2641C73.4559 36.4415 73.4234 36.6734 73.3907 36.9595C73.358 37.2456 73.3374 37.4788 73.3289 37.659C73.2761 38.438 73.3995 39.05 73.6989 39.4949C73.9997 39.9278 74.4661 40.1804 75.098 40.2526ZM81.8156 42.6324C81.6964 42.6188 81.5998 42.5655 81.5259 42.4725C81.4519 42.3795 81.4218 42.2734 81.4354 42.1542L82.3998 33.7131C82.4134 33.5939 82.4667 33.4973 82.5597 33.4234C82.6527 33.3495 82.7588 33.3193 82.878 33.3329L84.2729 33.4923C84.3921 33.5059 84.4887 33.5592 84.5626 33.6522C84.6366 33.7452 84.6667 33.8513 84.6531 33.9705L84.5836 34.5786C84.8721 34.2733 85.238 34.0313 85.6811 33.8525C86.1376 33.663 86.6586 33.5957 87.2442 33.6506C88.606 33.782 89.4933 34.4208 89.9058 35.5671C90.2345 35.1215 90.6716 34.7849 91.2169 34.5574C91.7756 34.3192 92.3708 34.2363 93.0027 34.3084C93.6227 34.3793 94.1667 34.5864 94.6347 34.9297C95.1147 35.2744 95.4644 35.7552 95.6838 36.3721C95.9165 36.9784 95.9824 37.7227 95.8816 38.605L95.2953 43.7376C95.2816 43.8568 95.2283 43.9534 95.1353 44.0273C95.0423 44.1012 94.9362 44.1314 94.817 44.1178L93.3505 43.9502C93.2313 43.9366 93.1348 43.8833 93.0608 43.7903C92.9869 43.6973 92.9568 43.5912 92.9704 43.472L93.5404 38.4824C93.6017 37.9459 93.5726 37.5138 93.453 37.1861C93.3348 36.8465 93.152 36.5962 92.9047 36.4351C92.6574 36.2739 92.3728 36.175 92.0509 36.1382C91.7886 36.1083 91.5188 36.1439 91.2415 36.2451C90.9642 36.3462 90.7237 36.5482 90.5201 36.8511C90.3177 37.142 90.1859 37.5557 90.1246 38.0922L89.5546 43.0818C89.541 43.201 89.4877 43.2976 89.3947 43.3715C89.3017 43.4454 89.1956 43.4756 89.0764 43.4619L87.6099 43.2944C87.4787 43.2794 87.3762 43.2254 87.3023 43.1324C87.2403 43.0408 87.2161 42.9354 87.2297 42.8162L87.7997 37.8266C87.861 37.2901 87.8259 36.8573 87.6944 36.5283C87.5643 36.1873 87.3756 35.9362 87.1283 35.7751C86.8809 35.614 86.6083 35.5164 86.3102 35.4824C86.036 35.4511 85.7596 35.4919 85.4809 35.6051C85.2036 35.7062 84.9638 35.9023 84.7615 36.1932C84.5592 36.4841 84.4274 36.8978 84.3661 37.4343L83.7961 42.4239C83.7824 42.5431 83.7291 42.6397 83.6361 42.7136C83.5431 42.7875 83.437 42.8177 83.3178 42.8041L81.8156 42.6324ZM101.509 45.0635C100.186 44.9123 99.1801 44.4109 98.4923 43.5593C97.8046 42.7078 97.5112 41.5751 97.6123 40.1615C97.614 40.0409 97.6251 39.8912 97.6455 39.7124C97.6673 39.5216 97.6903 39.3732 97.7145 39.2673C97.8643 38.3786 98.1555 37.6268 98.5881 37.0119C99.0326 36.3984 99.5966 35.9555 100.28 35.6833C100.965 35.3992 101.742 35.3069 102.612 35.4063C103.578 35.5166 104.366 35.8119 104.975 36.2922C105.586 36.7606 106.017 37.3715 106.269 38.125C106.523 38.8665 106.597 39.7023 106.49 40.6322L106.447 41.0078C106.434 41.127 106.38 41.2236 106.287 41.2975C106.194 41.3714 106.082 41.4009 105.951 41.3859L100.014 40.7076C100.014 40.7076 100.012 40.7255 100.008 40.7613C100.004 40.797 100 40.8268 99.9975 40.8507C99.9618 41.2693 99.995 41.6657 100.097 42.0397C100.213 42.4031 100.401 42.7085 100.663 42.9558C100.936 43.2045 101.276 43.3519 101.681 43.3983C102.015 43.4364 102.301 43.4207 102.538 43.3512C102.777 43.2698 102.975 43.1717 103.133 43.0569C103.291 42.9421 103.405 42.8463 103.474 42.7697C103.598 42.6389 103.691 42.565 103.753 42.5479C103.829 42.5203 103.932 42.514 104.063 42.529L105.601 42.7047C105.721 42.7183 105.812 42.765 105.875 42.8447C105.95 42.9258 105.976 43.0193 105.952 43.1252C105.918 43.3146 105.79 43.5355 105.568 43.788C105.358 44.0417 105.065 44.28 104.689 44.5028C104.314 44.7256 103.853 44.8965 103.308 45.0154C102.776 45.1237 102.177 45.1398 101.509 45.0635ZM100.185 39.2054L104.138 39.6569L104.144 39.6033C104.197 39.1383 104.166 38.7241 104.05 38.3606C103.935 37.9971 103.74 37.6971 103.465 37.4603C103.19 37.2236 102.844 37.0814 102.426 37.0337C102.009 36.986 101.64 37.0465 101.319 37.2151C100.997 37.3838 100.74 37.6321 100.545 37.9602C100.363 38.2896 100.245 38.6868 100.192 39.1517L100.185 39.2054ZM108.274 45.6552C108.155 45.6416 108.059 45.5883 107.985 45.4953C107.911 45.4023 107.881 45.2962 107.894 45.177L108.856 36.7537C108.871 36.6226 108.925 36.5201 109.018 36.4461C109.111 36.3722 109.218 36.3421 109.337 36.3557L110.785 36.5212C110.905 36.5348 111.001 36.5881 111.075 36.6811C111.161 36.7755 111.196 36.8882 111.181 37.0193L111.098 37.7526C111.415 37.4024 111.8 37.1505 112.253 36.9968C112.717 36.8445 113.235 36.8011 113.808 36.8665L114.541 36.9502C114.672 36.9652 114.769 37.0185 114.831 37.1102C114.905 37.2031 114.935 37.3092 114.921 37.4285L114.774 38.7161C114.76 38.8353 114.707 38.9319 114.614 39.0058C114.533 39.0811 114.427 39.1113 114.296 39.0963L112.901 38.9369C112.329 38.8715 111.863 38.9814 111.504 39.2665C111.158 39.553 110.952 39.9765 110.888 40.5368L110.326 45.4548C110.313 45.574 110.259 45.6706 110.166 45.7445C110.073 45.8185 109.961 45.8479 109.83 45.8329L108.274 45.6552ZM123.545 47.5809C122.436 47.4543 121.525 47.1871 120.81 46.7794C120.109 46.3611 119.592 45.8672 119.258 45.2976C118.938 44.7175 118.799 44.134 118.842 43.5471C118.855 43.4398 118.901 43.3545 118.98 43.2911C119.06 43.2277 119.153 43.2022 119.261 43.2145L120.852 43.3963C121.007 43.414 121.117 43.4627 121.18 43.5424C121.257 43.6116 121.319 43.6972 121.368 43.7994C121.414 44.0341 121.525 44.2763 121.702 44.526C121.88 44.7637 122.134 44.9739 122.463 45.1565C122.804 45.3404 123.243 45.463 123.78 45.5243C124.638 45.6224 125.292 45.5522 125.742 45.3137C126.204 45.0766 126.463 44.7137 126.519 44.2248C126.559 43.8791 126.477 43.5919 126.273 43.3634C126.071 43.1229 125.741 42.8919 125.283 42.6705C124.839 42.4386 124.24 42.183 123.487 41.9037C122.617 41.5869 121.895 41.2448 121.321 40.8772C120.761 40.4992 120.352 40.0599 120.095 39.5595C119.85 39.0605 119.768 38.4533 119.85 37.738C119.929 37.0465 120.184 36.4536 120.615 35.9593C121.058 35.4664 121.643 35.1044 122.37 34.8734C123.108 34.6438 123.961 34.5842 124.926 34.6945C125.701 34.783 126.375 34.9686 126.946 35.2513C127.519 35.5221 127.983 35.8529 128.337 36.2436C128.692 36.6223 128.949 37.02 129.106 37.4366C129.277 37.8427 129.348 38.2312 129.317 38.6021C129.306 38.6975 129.26 38.7828 129.179 38.8581C129.112 38.9228 129.018 38.9484 128.899 38.9348L127.236 38.7448C127.14 38.7339 127.048 38.6991 126.958 38.6405C126.868 38.582 126.8 38.4837 126.756 38.3457C126.727 37.968 126.53 37.6255 126.167 37.3182C125.803 37.011 125.311 36.8219 124.692 36.7511C124.048 36.6776 123.515 36.7375 123.095 36.931C122.674 37.1245 122.435 37.4716 122.378 37.9724C122.34 38.3062 122.403 38.5973 122.568 38.8456C122.746 39.0834 123.04 39.3102 123.451 39.5262C123.873 39.7435 124.43 39.9884 125.124 40.2609C126.111 40.6032 126.91 40.9601 127.52 41.3317C128.13 41.7034 128.557 42.1387 128.802 42.6377C129.048 43.1248 129.131 43.7201 129.051 44.4235C128.961 45.2104 128.669 45.8595 128.176 46.3708C127.696 46.8716 127.058 47.2274 126.261 47.4383C125.464 47.6492 124.558 47.6967 123.545 47.5809ZM133.91 48.7651C133.183 48.682 132.569 48.4489 132.07 48.0657C131.583 47.6719 131.231 47.1607 131.013 46.5318C130.796 45.8911 130.735 45.1594 130.829 44.3368L131.403 39.3115C131.417 39.1922 131.47 39.0957 131.563 39.0217C131.656 38.9478 131.762 38.9177 131.881 38.9313L133.455 39.1111C133.586 39.1261 133.683 39.1794 133.745 39.271C133.819 39.364 133.849 39.4701 133.835 39.5893L133.273 44.5073C133.105 45.9857 133.67 46.7991 134.969 46.9476C135.589 47.0184 136.101 46.8776 136.503 46.525C136.918 46.1738 137.165 45.6524 137.244 44.9609L137.805 40.0429C137.819 39.9237 137.872 39.8271 137.965 39.7532C138.058 39.6792 138.164 39.6491 138.284 39.6627L139.857 39.8425C139.977 39.8561 140.073 39.9094 140.147 40.0024C140.221 40.0954 140.251 40.2015 140.238 40.3208L139.273 48.7618C139.26 48.8811 139.206 48.9776 139.113 49.0516C139.02 49.1255 138.914 49.1556 138.795 49.142L137.346 48.9765C137.215 48.9615 137.113 48.9076 137.039 48.8146C136.977 48.7229 136.953 48.6175 136.966 48.4983L137.05 47.7651C136.68 48.1456 136.244 48.4278 135.739 48.6118C135.235 48.7957 134.626 48.8469 133.91 48.7651ZM145.59 50.0995C144.732 50.0014 143.993 49.754 143.374 49.3571C142.767 48.9617 142.313 48.4388 142.013 47.7885C141.726 47.1277 141.615 46.3601 141.678 45.4857C141.687 45.3055 141.708 45.0723 141.74 44.7862C141.774 44.4881 141.808 44.2444 141.842 44.055C141.977 43.1887 142.258 42.472 142.685 41.9048C143.126 41.3271 143.686 40.914 144.367 40.6657C145.059 40.4187 145.835 40.3442 146.693 40.4423C147.456 40.5295 148.094 40.711 148.606 40.9869C149.118 41.2628 149.528 41.5814 149.837 41.9428C150.146 42.3043 150.364 42.6733 150.49 43.0501C150.629 43.4163 150.688 43.7431 150.668 44.0306C150.665 44.1631 150.611 44.2656 150.506 44.3382C150.414 44.4002 150.309 44.4244 150.189 44.4108L148.616 44.231C148.496 44.2174 148.404 44.1767 148.34 44.1089C148.287 44.0424 148.238 43.9462 148.192 43.8202C148.067 43.3229 147.867 42.9618 147.591 42.737C147.328 42.5016 146.97 42.358 146.517 42.3063C145.92 42.2382 145.422 42.3744 145.02 42.7151C144.632 43.0452 144.38 43.6143 144.264 44.4223C144.188 44.8726 144.141 45.2899 144.121 45.6741C144.051 46.4995 144.167 47.1167 144.471 47.5258C144.786 47.9363 145.242 48.1756 145.838 48.2437C146.303 48.2968 146.69 48.2443 146.998 48.0862C147.307 47.9162 147.578 47.603 147.812 47.1465C147.885 47.0341 147.955 46.9515 148.021 46.8987C148.099 46.8473 148.198 46.8284 148.317 46.842L149.891 47.0218C150.01 47.0354 150.107 47.0887 150.181 47.1817C150.268 47.2641 150.298 47.3702 150.271 47.5C150.235 47.7133 150.147 47.9509 150.009 48.2128C149.883 48.4642 149.691 48.7201 149.432 48.9803C149.186 49.23 148.882 49.455 148.521 49.6553C148.162 49.8437 147.735 49.9822 147.242 50.0708C146.761 50.1607 146.21 50.1703 145.59 50.0995ZM155.807 51.2667C154.948 51.1686 154.21 50.9212 153.591 50.5243C152.984 50.1289 152.53 49.606 152.23 48.9558C151.943 48.2949 151.831 47.5273 151.895 46.6529C151.904 46.4727 151.924 46.2395 151.957 45.9534C151.991 45.6553 152.025 45.4116 152.059 45.2222C152.194 44.3559 152.475 43.6392 152.902 43.072C153.343 42.4943 153.903 42.0812 154.584 41.8329C155.276 41.5859 156.052 41.5114 156.91 41.6095C157.673 41.6967 158.311 41.8782 158.823 42.1541C159.335 42.43 159.745 42.7486 160.054 43.1101C160.363 43.4715 160.58 43.8405 160.707 44.2173C160.846 44.5835 160.905 44.9103 160.884 45.1978C160.881 45.3303 160.827 45.4328 160.722 45.5054C160.631 45.5674 160.525 45.5916 160.406 45.578L158.832 45.3982C158.713 45.3846 158.621 45.3439 158.556 45.2761C158.504 45.2097 158.454 45.1134 158.408 44.9874C158.284 44.4901 158.084 44.129 157.807 43.9042C157.544 43.6688 157.186 43.5252 156.733 43.4735C156.137 43.4054 155.638 43.5417 155.237 43.8823C154.849 44.2124 154.597 44.7815 154.481 45.5895C154.405 46.0398 154.357 46.4571 154.338 46.8413C154.267 47.6667 154.384 48.2839 154.688 48.693C155.003 49.1035 155.459 49.3428 156.055 49.4109C156.52 49.464 156.906 49.4115 157.214 49.2534C157.524 49.0834 157.795 48.7702 158.028 48.3138C158.101 48.2013 158.171 48.1187 158.238 48.0659C158.316 48.0145 158.415 47.9956 158.534 48.0092L160.108 48.189C160.227 48.2026 160.324 48.2559 160.398 48.3489C160.485 48.4313 160.515 48.5375 160.488 48.6672C160.452 48.8805 160.364 49.1181 160.225 49.38C160.1 49.6314 159.908 49.8873 159.649 50.1475C159.403 50.3972 159.099 50.6222 158.738 50.8225C158.378 51.0109 157.952 51.1494 157.459 51.238C156.977 51.3279 156.427 51.3375 155.807 51.2667ZM166.006 52.4318C164.682 52.2807 163.677 51.7793 162.989 50.9277C162.301 50.0761 162.008 48.9435 162.109 47.5299C162.111 47.4093 162.122 47.2596 162.142 47.0807C162.164 46.89 162.187 46.7416 162.211 46.6357C162.361 45.7469 162.652 44.9951 163.085 44.3803C163.529 43.7667 164.093 43.3239 164.776 43.0517C165.461 42.7676 166.239 42.6752 167.109 42.7747C168.075 42.885 168.862 43.1803 169.472 43.6606C170.082 44.1289 170.514 44.7398 170.766 45.4933C171.019 46.2349 171.093 47.0706 170.987 48.0006L170.944 48.3762C170.93 48.4954 170.877 48.592 170.784 48.6659C170.691 48.7398 170.579 48.7693 170.448 48.7543L164.51 48.076C164.51 48.076 164.508 48.0939 164.504 48.1296C164.5 48.1654 164.497 48.1952 164.494 48.219C164.458 48.6377 164.491 49.034 164.594 49.408C164.709 49.7715 164.898 50.0769 165.159 50.3242C165.433 50.5728 165.772 50.7203 166.178 50.7666C166.512 50.8048 166.797 50.7891 167.035 50.7196C167.273 50.6382 167.472 50.54 167.63 50.4252C167.788 50.3104 167.901 50.2147 167.971 50.1381C168.094 50.0073 168.187 49.9333 168.25 49.9163C168.325 49.8887 168.429 49.8824 168.56 49.8974L170.098 50.0731C170.217 50.0867 170.308 50.1334 170.372 50.2131C170.447 50.2941 170.472 50.3877 170.448 50.4936C170.415 50.683 170.287 50.9039 170.065 51.1563C169.854 51.4101 169.561 51.6484 169.186 51.8712C168.81 52.094 168.35 52.2648 167.805 52.3837C167.273 52.4921 166.673 52.5081 166.006 52.4318ZM164.682 46.5737L168.634 47.0253L168.64 46.9716C168.694 46.5066 168.662 46.0924 168.547 45.729C168.431 45.3655 168.236 45.0654 167.961 44.8287C167.686 44.5919 167.34 44.4497 166.923 44.4021C166.506 44.3544 166.136 44.4149 165.815 44.5835C165.494 44.7521 165.236 45.0005 165.042 45.3285C164.859 45.6579 164.741 46.0551 164.688 46.5201L164.682 46.5737ZM175.844 53.5559C175.129 53.4741 174.524 53.3205 174.031 53.095C173.549 52.8709 173.162 52.6153 172.868 52.3281C172.575 52.041 172.365 51.7634 172.239 51.4953C172.112 51.2272 172.053 51.009 172.06 50.8408C172.063 50.7083 172.11 50.611 172.202 50.549C172.307 50.4764 172.413 50.4463 172.52 50.4586L173.933 50.62C173.981 50.6254 174.022 50.6361 174.056 50.6521C174.091 50.6682 174.134 50.7094 174.187 50.7758C174.327 50.9246 174.472 51.0801 174.623 51.2423C174.785 51.4058 174.98 51.5548 175.206 51.6893C175.434 51.812 175.726 51.8937 176.084 51.9346C176.549 51.9877 176.947 51.9425 177.277 51.7991C177.621 51.6451 177.812 51.3953 177.852 51.0495C177.88 50.7991 177.832 50.5883 177.707 50.417C177.593 50.247 177.358 50.0813 177.002 49.9198C176.648 49.7464 176.139 49.5494 175.476 49.3287C174.826 49.0974 174.294 48.8374 173.88 48.5485C173.466 48.2597 173.172 47.9242 172.998 47.542C172.825 47.1598 172.765 46.7302 172.82 46.2533C172.873 45.7884 173.06 45.3629 173.382 44.9769C173.717 44.5804 174.175 44.2764 174.755 44.0648C175.346 43.8546 176.053 43.7965 176.876 43.8905C177.52 43.9641 178.071 44.1115 178.528 44.3329C178.988 44.5424 179.359 44.7841 179.641 45.0579C179.936 45.3332 180.153 45.6055 180.291 45.8749C180.431 46.1324 180.496 46.3513 180.488 46.5315C180.485 46.664 180.436 46.7672 180.343 46.8412C180.252 46.9032 180.152 46.928 180.045 46.9158L178.722 46.7646C178.662 46.7578 178.61 46.7397 178.565 46.7104C178.52 46.6811 178.476 46.6459 178.432 46.6047C178.314 46.4704 178.186 46.3289 178.046 46.1801C177.906 46.0312 177.728 45.8962 177.512 45.7749C177.31 45.6431 177.03 45.5567 176.672 45.5159C176.219 45.4641 175.862 45.526 175.6 45.7014C175.34 45.8649 175.193 46.0957 175.159 46.3938C175.136 46.5964 175.169 46.7814 175.258 46.9487C175.361 47.1053 175.578 47.269 175.909 47.4397C176.24 47.6103 176.749 47.8074 177.436 48.0308C178.218 48.2651 178.826 48.5519 179.258 48.8912C179.703 49.2199 180 49.5799 180.149 49.9713C180.311 50.3521 180.366 50.7631 180.316 51.2042C180.255 51.7407 180.039 52.2052 179.668 52.5977C179.309 52.9914 178.805 53.2781 178.156 53.4577C177.521 53.6266 176.75 53.6594 175.844 53.5559ZM185.362 54.6433C184.647 54.5615 184.043 54.4079 183.549 54.1824C183.067 53.9583 182.68 53.7027 182.387 53.4155C182.093 53.1284 181.883 52.8508 181.757 52.5827C181.631 52.3146 181.571 52.0964 181.578 51.9282C181.581 51.7957 181.629 51.6984 181.72 51.6364C181.825 51.5638 181.931 51.5337 182.039 51.546L183.451 51.7074C183.499 51.7128 183.54 51.7235 183.574 51.7395C183.609 51.7556 183.652 51.7968 183.705 51.8632C183.845 52.012 183.991 52.1675 184.141 52.3297C184.304 52.4932 184.498 52.6422 184.724 52.7767C184.952 52.8994 185.244 52.9811 185.602 53.022C186.067 53.0751 186.465 53.0299 186.795 52.8865C187.139 52.7325 187.33 52.4827 187.37 52.1369C187.398 51.8865 187.35 51.6757 187.225 51.5044C187.111 51.3344 186.877 51.1687 186.521 51.0072C186.166 50.8338 185.657 50.6368 184.994 50.4161C184.344 50.1848 183.812 49.9248 183.398 49.6359C182.984 49.3471 182.69 49.0116 182.517 48.6294C182.343 48.2472 182.283 47.8176 182.338 47.3407C182.391 46.8758 182.578 46.4503 182.9 46.0643C183.235 45.6678 183.693 45.3638 184.273 45.1522C184.864 44.942 185.572 44.8839 186.394 44.9779C187.038 45.0514 187.589 45.1989 188.047 45.4203C188.506 45.6298 188.877 45.8715 189.16 46.1453C189.454 46.4206 189.671 46.6929 189.809 46.9623C189.949 47.2198 190.014 47.4387 190.006 47.6189C190.003 47.7514 189.955 47.8546 189.862 47.9285C189.77 47.9905 189.671 48.0154 189.563 48.0032L188.24 47.852C188.18 47.8452 188.128 47.8271 188.083 47.7978C188.038 47.7685 187.994 47.7333 187.95 47.6921C187.833 47.5578 187.704 47.4163 187.564 47.2675C187.424 47.1186 187.246 46.9835 187.03 46.8623C186.828 46.7305 186.548 46.6441 186.19 46.6033C185.737 46.5515 185.38 46.6134 185.118 46.7888C184.858 46.9523 184.711 47.1831 184.677 47.4812C184.654 47.6838 184.687 47.8688 184.777 48.0361C184.879 48.1927 185.096 48.3564 185.427 48.5271C185.758 48.6977 186.267 48.8947 186.954 49.1182C187.736 49.3525 188.344 49.6393 188.776 49.9786C189.222 50.3073 189.519 50.6673 189.667 51.0587C189.829 51.4395 189.885 51.8505 189.834 52.2916C189.773 52.8281 189.557 53.2926 189.186 53.685C188.827 54.0788 188.323 54.3655 187.675 54.5451C187.039 54.714 186.269 54.7468 185.362 54.6433Z" fill="white"/>
<rect x="270.994" y="96.1992" width="140" height="44" rx="22" transform="rotate(6.51747 270.994 96.1992)" fill="#428BC1"/>
<path d="M299.28 128.297C298.219 128.176 297.326 127.899 296.603 127.466C295.881 127.021 295.346 126.411 295 125.634C294.656 124.846 294.528 123.901 294.618 122.801C294.664 122.286 294.716 121.779 294.773 121.278C294.831 120.778 294.895 120.266 294.967 119.742C295.127 118.662 295.469 117.783 295.993 117.106C296.517 116.429 297.182 115.949 297.987 115.667C298.804 115.386 299.725 115.304 300.751 115.421C301.776 115.538 302.655 115.826 303.388 116.284C304.121 116.742 304.666 117.36 305.024 118.138C305.382 118.915 305.517 119.849 305.429 120.938C305.393 121.465 305.346 121.979 305.289 122.48C305.232 122.98 305.162 123.486 305.079 123.996C304.918 125.089 304.581 125.98 304.067 126.67C303.555 127.348 302.891 127.822 302.075 128.091C301.273 128.35 300.341 128.418 299.28 128.297ZM299.515 126.241C300.29 126.329 300.947 126.175 301.488 125.778C302.03 125.368 302.378 124.647 302.532 123.614C302.616 123.092 302.683 122.611 302.734 122.17C302.785 121.717 302.829 121.232 302.863 120.717C302.918 120.023 302.851 119.447 302.662 118.991C302.486 118.524 302.212 118.173 301.84 117.937C301.47 117.689 301.028 117.536 300.516 117.478C300.015 117.42 299.556 117.471 299.14 117.628C298.725 117.774 298.373 118.054 298.084 118.468C297.808 118.871 297.619 119.417 297.516 120.106C297.446 120.617 297.384 121.1 297.333 121.553C297.282 121.994 297.233 122.477 297.185 123.003C297.102 124.045 297.279 124.826 297.715 125.347C298.152 125.855 298.752 126.153 299.515 126.241ZM310.141 129.538C309.413 129.455 308.8 129.222 308.3 128.839C307.814 128.445 307.462 127.934 307.243 127.305C307.027 126.664 306.965 125.932 307.059 125.11L307.634 120.084C307.647 119.965 307.7 119.869 307.793 119.795C307.886 119.721 307.993 119.691 308.112 119.704L309.686 119.884C309.817 119.899 309.913 119.952 309.975 120.044C310.049 120.137 310.079 120.243 310.066 120.362L309.504 125.28C309.335 126.759 309.9 127.572 311.2 127.721C311.82 127.791 312.331 127.65 312.734 127.298C313.148 126.947 313.395 126.425 313.474 125.734L314.036 120.816C314.05 120.697 314.103 120.6 314.196 120.526C314.289 120.452 314.395 120.422 314.514 120.436L316.088 120.615C316.207 120.629 316.304 120.682 316.378 120.775C316.452 120.868 316.482 120.974 316.468 121.094L315.504 129.535C315.49 129.654 315.437 129.751 315.344 129.824C315.251 129.898 315.145 129.929 315.026 129.915L313.577 129.749C313.446 129.734 313.343 129.68 313.269 129.587C313.207 129.496 313.183 129.39 313.197 129.271L313.281 128.538C312.911 128.918 312.474 129.201 311.97 129.385C311.466 129.569 310.856 129.62 310.141 129.538ZM322.02 130.714C321.304 130.632 320.717 130.438 320.256 130.132C319.796 129.826 319.475 129.415 319.292 128.899C319.111 128.371 319.062 127.737 319.147 126.998L319.611 122.938L318.198 122.777C318.079 122.763 317.982 122.71 317.908 122.617C317.834 122.524 317.804 122.418 317.818 122.299L317.936 121.261C317.95 121.142 318.003 121.046 318.096 120.972C318.189 120.898 318.295 120.868 318.414 120.881L319.827 121.043L320.166 118.074C320.18 117.955 320.227 117.857 320.308 117.782C320.401 117.708 320.514 117.679 320.645 117.694L322.093 117.859C322.212 117.873 322.309 117.926 322.383 118.019C322.457 118.112 322.487 118.218 322.473 118.337L322.134 121.306L324.37 121.562C324.489 121.575 324.586 121.628 324.659 121.721C324.733 121.814 324.764 121.921 324.75 122.04L324.631 123.077C324.618 123.196 324.564 123.293 324.471 123.367C324.379 123.441 324.272 123.471 324.153 123.457L321.918 123.202L321.474 127.083C321.419 127.571 321.458 127.962 321.594 128.256C321.741 128.55 322.03 128.722 322.459 128.771L323.693 128.912C323.812 128.926 323.909 128.979 323.983 129.072C324.057 129.165 324.087 129.271 324.073 129.391L323.947 130.499C323.933 130.619 323.88 130.715 323.787 130.789C323.694 130.863 323.588 130.893 323.468 130.879L322.02 130.714ZM329.487 131.748C328.629 131.65 327.89 131.403 327.271 131.006C326.664 130.61 326.211 130.088 325.911 129.437C325.624 128.777 325.512 128.009 325.576 127.134C325.584 126.954 325.605 126.721 325.638 126.435C325.672 126.137 325.706 125.893 325.739 125.704C325.874 124.838 326.156 124.121 326.583 123.554C327.023 122.976 327.584 122.563 328.264 122.314C328.957 122.067 329.732 121.993 330.591 122.091C331.354 122.178 331.991 122.36 332.503 122.636C333.015 122.912 333.426 123.23 333.735 123.592C334.044 123.953 334.261 124.322 334.387 124.699C334.527 125.065 334.586 125.392 334.565 125.679C334.562 125.812 334.508 125.914 334.403 125.987C334.311 126.049 334.206 126.073 334.087 126.06L332.513 125.88C332.394 125.866 332.302 125.825 332.237 125.758C332.184 125.691 332.135 125.595 332.089 125.469C331.965 124.972 331.764 124.611 331.488 124.386C331.225 124.15 330.867 124.007 330.414 123.955C329.818 123.887 329.319 124.023 328.918 124.364C328.53 124.694 328.278 125.263 328.161 126.071C328.086 126.521 328.038 126.939 328.018 127.323C327.948 128.148 328.065 128.766 328.368 129.175C328.684 129.585 329.139 129.824 329.736 129.892C330.201 129.946 330.587 129.893 330.895 129.735C331.204 129.565 331.476 129.252 331.709 128.795C331.782 128.683 331.852 128.6 331.918 128.548C331.997 128.496 332.096 128.477 332.215 128.491L333.788 128.671C333.908 128.684 334.004 128.738 334.078 128.831C334.165 128.913 334.196 129.019 334.169 129.149C334.132 129.362 334.045 129.6 333.906 129.862C333.781 130.113 333.588 130.369 333.329 130.629C333.083 130.879 332.78 131.104 332.419 131.304C332.059 131.493 331.633 131.631 331.139 131.72C330.658 131.81 330.107 131.819 329.487 131.748ZM339.794 132.926C338.84 132.817 338.054 132.558 337.436 132.149C336.831 131.742 336.39 131.214 336.113 130.567C335.849 129.921 335.739 129.189 335.784 128.373C335.797 128.157 335.821 127.894 335.856 127.584C335.892 127.274 335.928 127.013 335.964 126.799C336.106 125.982 336.384 125.295 336.797 124.739C337.225 124.172 337.779 123.758 338.461 123.498C339.155 123.239 339.967 123.162 340.897 123.269C341.827 123.375 342.595 123.632 343.2 124.039C343.818 124.448 344.265 124.976 344.541 125.623C344.831 126.26 344.952 126.993 344.906 127.821C344.893 128.037 344.869 128.3 344.834 128.61C344.799 128.92 344.763 129.182 344.726 129.395C344.586 130.2 344.308 130.887 343.893 131.456C343.49 132.025 342.941 132.44 342.247 132.699C341.565 132.959 340.747 133.035 339.794 132.926ZM339.996 131.155C340.628 131.227 341.139 131.087 341.53 130.733C341.922 130.367 342.18 129.798 342.304 129.027C342.337 128.85 342.369 128.618 342.402 128.332C342.434 128.046 342.455 127.813 342.464 127.633C342.515 126.865 342.391 126.259 342.092 125.815C341.792 125.37 341.326 125.111 340.695 125.039C340.063 124.967 339.551 125.114 339.159 125.48C338.767 125.845 338.509 126.408 338.386 127.167C338.354 127.344 338.321 127.576 338.289 127.862C338.256 128.148 338.235 128.381 338.227 128.562C338.174 129.341 338.297 129.953 338.597 130.398C338.898 130.83 339.364 131.083 339.996 131.155ZM346.713 133.535C346.594 133.521 346.498 133.468 346.424 133.375C346.35 133.282 346.32 133.176 346.333 133.057L347.298 124.616C347.311 124.497 347.365 124.4 347.458 124.326C347.551 124.252 347.657 124.222 347.776 124.236L349.171 124.395C349.29 124.409 349.387 124.462 349.46 124.555C349.534 124.648 349.565 124.754 349.551 124.873L349.481 125.481C349.77 125.176 350.136 124.934 350.579 124.755C351.035 124.566 351.556 124.498 352.142 124.553C353.504 124.685 354.391 125.323 354.804 126.47C355.132 126.024 355.569 125.688 356.115 125.46C356.673 125.222 357.269 125.139 357.901 125.211C358.521 125.282 359.065 125.489 359.533 125.832C360.013 126.177 360.362 126.658 360.582 127.275C360.814 127.881 360.88 128.625 360.779 129.508L360.193 134.64C360.179 134.759 360.126 134.856 360.033 134.93C359.94 135.004 359.834 135.034 359.715 135.02L358.248 134.853C358.129 134.839 358.033 134.786 357.959 134.693C357.885 134.6 357.855 134.494 357.868 134.375L358.438 129.385C358.5 128.849 358.47 128.417 358.351 128.089C358.233 127.749 358.05 127.499 357.803 127.338C357.555 127.177 357.271 127.078 356.949 127.041C356.686 127.011 356.417 127.047 356.139 127.148C355.862 127.249 355.622 127.451 355.418 127.754C355.216 128.045 355.084 128.458 355.022 128.995L354.452 133.984C354.439 134.104 354.386 134.2 354.293 134.274C354.2 134.348 354.093 134.378 353.974 134.365L352.508 134.197C352.377 134.182 352.274 134.128 352.2 134.035C352.138 133.943 352.114 133.838 352.128 133.719L352.698 128.729C352.759 128.193 352.724 127.76 352.592 127.431C352.462 127.09 352.273 126.839 352.026 126.678C351.779 126.517 351.506 126.419 351.208 126.385C350.934 126.354 350.657 126.395 350.379 126.508C350.101 126.609 349.862 126.805 349.659 127.096C349.457 127.387 349.325 127.8 349.264 128.337L348.694 133.327C348.68 133.446 348.627 133.542 348.534 133.616C348.441 133.69 348.335 133.72 348.216 133.707L346.713 133.535ZM366.407 135.966C365.084 135.815 364.078 135.314 363.39 134.462C362.702 133.61 362.409 132.478 362.51 131.064C362.512 130.944 362.523 130.794 362.543 130.615C362.565 130.424 362.588 130.276 362.612 130.17C362.762 129.281 363.053 128.529 363.486 127.915C363.93 127.301 364.494 126.858 365.178 126.586C365.862 126.302 366.64 126.21 367.51 126.309C368.476 126.419 369.264 126.715 369.873 127.195C370.484 127.663 370.915 128.274 371.167 129.028C371.421 129.769 371.494 130.605 371.388 131.535L371.345 131.91C371.332 132.03 371.278 132.126 371.185 132.2C371.092 132.274 370.98 132.304 370.849 132.289L364.912 131.61C364.912 131.61 364.91 131.628 364.906 131.664C364.901 131.7 364.898 131.729 364.895 131.753C364.86 132.172 364.893 132.568 364.995 132.942C365.111 133.306 365.299 133.611 365.561 133.858C365.834 134.107 366.174 134.255 366.579 134.301C366.913 134.339 367.199 134.323 367.436 134.254C367.675 134.172 367.873 134.074 368.031 133.96C368.189 133.845 368.303 133.749 368.372 133.672C368.496 133.542 368.589 133.468 368.651 133.451C368.727 133.423 368.83 133.417 368.961 133.432L370.499 133.607C370.618 133.621 370.71 133.668 370.773 133.747C370.848 133.828 370.874 133.922 370.85 134.028C370.816 134.217 370.688 134.438 370.466 134.691C370.256 134.944 369.963 135.183 369.587 135.405C369.211 135.628 368.751 135.799 368.206 135.918C367.674 136.026 367.075 136.042 366.407 135.966ZM365.083 130.108L369.036 130.56L369.042 130.506C369.095 130.041 369.064 129.627 368.948 129.263C368.833 128.9 368.637 128.6 368.363 128.363C368.088 128.126 367.742 127.984 367.324 127.936C366.907 127.889 366.538 127.949 366.217 128.118C365.895 128.286 365.637 128.535 365.443 128.863C365.26 129.192 365.143 129.589 365.089 130.054L365.083 130.108ZM376.246 137.09C375.53 137.008 374.926 136.855 374.432 136.629C373.951 136.405 373.563 136.15 373.27 135.862C372.976 135.575 372.767 135.298 372.64 135.03C372.514 134.762 372.454 134.543 372.461 134.375C372.464 134.243 372.512 134.145 372.603 134.083C372.708 134.011 372.814 133.981 372.922 133.993L374.335 134.154C374.382 134.16 374.423 134.17 374.458 134.186C374.492 134.202 374.536 134.244 374.588 134.31C374.728 134.459 374.874 134.614 375.024 134.777C375.187 134.94 375.381 135.089 375.607 135.224C375.835 135.346 376.128 135.428 376.485 135.469C376.95 135.522 377.348 135.477 377.678 135.333C378.022 135.179 378.214 134.93 378.253 134.584C378.282 134.333 378.233 134.123 378.108 133.951C377.994 133.781 377.76 133.616 377.404 133.454C377.049 133.281 376.54 133.084 375.877 132.863C375.227 132.632 374.695 132.372 374.281 132.083C373.867 131.794 373.574 131.458 373.4 131.076C373.226 130.694 373.166 130.265 373.221 129.788C373.274 129.323 373.462 128.897 373.783 128.511C374.119 128.115 374.576 127.811 375.156 127.599C375.748 127.389 376.455 127.331 377.277 127.425C377.921 127.498 378.472 127.646 378.93 127.867C379.389 128.077 379.76 128.318 380.043 128.592C380.337 128.867 380.554 129.14 380.692 129.409C380.832 129.667 380.897 129.886 380.889 130.066C380.886 130.198 380.838 130.302 380.745 130.375C380.653 130.437 380.554 130.462 380.446 130.45L379.123 130.299C379.063 130.292 379.011 130.274 378.966 130.245C378.921 130.215 378.877 130.18 378.833 130.139C378.716 130.005 378.587 129.863 378.447 129.714C378.307 129.566 378.129 129.43 377.914 129.309C377.711 129.177 377.431 129.091 377.074 129.05C376.621 128.998 376.263 129.06 376.002 129.236C375.741 129.399 375.594 129.63 375.56 129.928C375.537 130.131 375.57 130.316 375.66 130.483C375.763 130.64 375.979 130.803 376.31 130.974C376.641 131.145 377.15 131.342 377.837 131.565C378.619 131.799 379.227 132.086 379.659 132.425C380.105 132.754 380.402 133.114 380.55 133.506C380.712 133.886 380.768 134.297 380.717 134.739C380.656 135.275 380.44 135.74 380.069 136.132C379.71 136.526 379.206 136.812 378.558 136.992C377.922 137.161 377.152 137.194 376.246 137.09Z" fill="white"/>
<rect x="234.289" y="17.2393" width="190" height="44" rx="22" transform="rotate(-4.92444 234.289 17.2393)" fill="#9747FF"/>
<rect x="234.83" y="17.6945" width="189" height="43" rx="21.5" transform="rotate(-4.92444 234.83 17.6945)" stroke="black" stroke-opacity="0.05"/>
<path d="M261.978 43.4588C261.858 43.4691 261.753 43.436 261.662 43.3595C261.571 43.283 261.52 43.185 261.51 43.0655L260.504 31.3907C260.493 31.2592 260.526 31.148 260.602 31.0571C260.678 30.9662 260.777 30.9156 260.896 30.9053L262.474 30.7693C262.606 30.758 262.717 30.7906 262.808 30.867C262.899 30.9435 262.95 31.0475 262.961 31.179L263.323 35.3755L267.003 30.7043C267.046 30.6404 267.118 30.5679 267.219 30.4869C267.332 30.3929 267.484 30.3377 267.675 30.3212L269.45 30.1683C269.546 30.16 269.633 30.1887 269.711 30.2542C269.801 30.3187 269.85 30.4048 269.859 30.5124C269.867 30.5961 269.849 30.6699 269.806 30.7338L265.341 36.5746L271.125 42.0564C271.191 42.123 271.228 42.1981 271.235 42.2818C271.244 42.3894 271.21 42.4827 271.132 42.5616C271.067 42.6395 270.986 42.6826 270.891 42.6908L269.043 42.85C268.84 42.8675 268.675 42.8396 268.548 42.7662C268.433 42.6798 268.355 42.6202 268.316 42.5875L263.567 38.209L263.967 42.8538C263.977 42.9733 263.944 43.0786 263.868 43.1695C263.791 43.2604 263.687 43.3115 263.556 43.3228L261.978 43.4588ZM273.094 42.501C272.974 42.5113 272.869 42.4783 272.778 42.4018C272.687 42.3253 272.636 42.2273 272.626 42.1077L271.897 33.6431C271.886 33.5235 271.92 33.4183 271.996 33.3274C272.072 33.2365 272.17 33.1859 272.29 33.1756L273.761 33.0489C273.88 33.0386 273.985 33.0717 274.076 33.1482C274.167 33.2246 274.218 33.3227 274.228 33.4422L274.291 34.1775C274.569 33.7681 274.937 33.4173 275.393 33.125C275.861 32.8198 276.453 32.6362 277.17 32.5744C277.9 32.5116 278.548 32.6244 279.115 32.9128C279.681 33.1892 280.133 33.614 280.471 34.1871C280.821 34.7591 281.033 35.4635 281.105 36.3004L281.539 41.3398C281.549 41.4593 281.516 41.5646 281.44 41.6555C281.363 41.7464 281.265 41.797 281.146 41.8073L279.568 41.9432C279.448 41.9535 279.343 41.9205 279.252 41.844C279.161 41.7675 279.11 41.6695 279.1 41.5499L278.675 36.6182C278.615 35.9248 278.395 35.3957 278.014 35.031C277.646 34.6654 277.139 34.5103 276.493 34.5659C275.871 34.6195 275.392 34.8595 275.055 35.286C274.719 35.7125 274.58 36.2724 274.64 36.9659L275.065 41.8976C275.075 42.0171 275.042 42.1224 274.966 42.2133C274.889 42.3042 274.791 42.3548 274.672 42.3651L273.094 42.501ZM287.994 41.3979C287.038 41.4803 286.216 41.3824 285.53 41.1043C284.856 40.8252 284.319 40.3957 283.919 39.8158C283.532 39.2349 283.28 38.54 283.162 37.7312C283.131 37.517 283.103 37.2545 283.076 36.9436C283.049 36.6328 283.032 36.3692 283.026 36.153C283.002 35.324 283.138 34.5956 283.434 33.9679C283.74 33.3273 284.201 32.8118 284.818 32.4214C285.447 32.03 286.227 31.7941 287.16 31.7137C288.092 31.6334 288.896 31.7328 289.57 32.0119C290.257 32.29 290.8 32.719 291.199 33.2989C291.609 33.8658 291.874 34.5596 291.992 35.3804C292.023 35.5946 292.052 35.8571 292.078 36.168C292.105 36.4788 292.122 36.7424 292.128 36.9586C292.151 37.7757 292.015 38.5041 291.721 39.1437C291.438 39.7823 290.983 40.2973 290.354 40.6887C289.737 41.0791 288.951 41.3155 287.994 41.3979ZM287.841 39.6224C288.475 39.5678 288.948 39.3283 289.261 38.9039C289.573 38.4676 289.713 37.8593 289.682 37.0791C289.678 36.8987 289.664 36.665 289.639 36.3781C289.615 36.0912 289.589 35.8586 289.561 35.6802C289.459 34.9182 289.218 34.3488 288.836 33.9722C288.454 33.5956 287.946 33.4346 287.313 33.4892C286.679 33.5438 286.207 33.7892 285.895 34.2256C285.583 34.662 285.442 35.2643 285.472 36.0325C285.476 36.2129 285.49 36.4466 285.515 36.7335C285.539 37.0204 285.565 37.2531 285.593 37.4314C285.696 38.2054 285.938 38.7807 286.32 39.1573C286.7 39.522 287.208 39.677 287.841 39.6224ZM296.751 40.4627C296.584 40.4771 296.454 40.4461 296.364 40.3696C296.273 40.2932 296.192 40.1917 296.121 40.0654L292.839 31.9652C292.822 31.9064 292.811 31.8531 292.807 31.8053C292.798 31.6977 292.826 31.6049 292.892 31.527C292.968 31.4361 293.054 31.3866 293.15 31.3783L294.477 31.264C294.62 31.2516 294.738 31.2837 294.829 31.3601C294.918 31.4247 294.972 31.4923 294.991 31.563L297.259 37.3476L298.618 31.3047C298.634 31.2189 298.681 31.1306 298.757 31.0397C298.833 30.9368 298.954 30.8782 299.122 30.8638L300.018 30.7865C300.186 30.7721 300.315 30.8091 300.407 30.8975C300.498 30.974 300.559 31.0531 300.59 31.1347L302.962 36.8562L304.208 30.7688C304.214 30.696 304.25 30.6207 304.315 30.5428C304.392 30.4519 304.502 30.4002 304.645 30.3879L305.972 30.2735C306.08 30.2643 306.173 30.2984 306.252 30.3759C306.342 30.4404 306.392 30.5265 306.401 30.6341C306.405 30.6819 306.398 30.7367 306.379 30.7986L304.531 39.3407C304.507 39.4753 304.45 39.5886 304.362 39.6805C304.285 39.7714 304.164 39.8241 303.996 39.8385L302.83 39.9389C302.663 39.9533 302.528 39.9228 302.425 39.8474C302.322 39.7719 302.247 39.67 302.2 39.5416L299.847 34.0353L298.47 39.863C298.433 39.9986 298.371 40.1124 298.282 40.2043C298.206 40.2952 298.078 40.3484 297.899 40.3638L296.751 40.4627ZM309.364 39.376C309.244 39.3863 309.139 39.3532 309.048 39.2767C308.957 39.2002 308.907 39.1022 308.896 38.9827L307.873 27.1107C307.863 26.9911 307.896 26.8859 307.973 26.795C308.049 26.7041 308.147 26.6535 308.267 26.6432L309.755 26.5149C309.875 26.5046 309.98 26.5377 310.071 26.6142C310.162 26.6907 310.212 26.7887 310.223 26.9082L311.246 38.7803C311.256 38.8998 311.223 39.005 311.146 39.0959C311.07 39.1868 310.972 39.2374 310.852 39.2477L309.364 39.376ZM317.694 38.8389C316.367 38.9533 315.282 38.6613 314.439 37.9631C313.596 37.2649 313.084 36.213 312.902 34.8074C312.88 34.6888 312.861 34.5399 312.846 34.3606C312.829 34.1693 312.822 34.0193 312.825 33.9107C312.796 33.0099 312.932 32.2153 313.234 31.5268C313.548 30.8373 314.013 30.2914 314.629 29.889C315.243 29.4747 315.987 29.23 316.86 29.1548C317.828 29.0714 318.659 29.2046 319.351 29.5544C320.043 29.8923 320.587 30.4055 320.983 31.094C321.379 31.7705 321.617 32.5751 321.697 33.5076L321.73 33.8842C321.74 34.0038 321.707 34.109 321.631 34.1999C321.554 34.2908 321.45 34.3419 321.319 34.3532L315.365 34.8662C315.365 34.8662 315.366 34.8842 315.369 34.92C315.372 34.9559 315.375 34.9858 315.377 35.0097C315.425 35.4271 315.536 35.809 315.711 36.1553C315.896 36.4886 316.141 36.7505 316.447 36.941C316.764 37.1305 317.126 37.2077 317.533 37.1726C317.867 37.1438 318.144 37.0718 318.363 36.9566C318.581 36.8294 318.756 36.6939 318.888 36.55C319.02 36.4061 319.113 36.2898 319.165 36.2009C319.26 36.0482 319.337 35.9573 319.395 35.9282C319.463 35.8862 319.563 35.8595 319.695 35.8481L321.237 35.7153C321.357 35.705 321.455 35.7326 321.533 35.7981C321.623 35.8627 321.667 35.9492 321.664 36.0579C321.669 36.2502 321.587 36.4921 321.42 36.7835C321.264 37.074 321.024 37.3656 320.7 37.6585C320.376 37.9514 319.959 38.2102 319.448 38.4349C318.948 38.6466 318.364 38.7812 317.694 38.8389ZM315.235 33.3598L319.198 33.0183L319.193 32.9645C319.153 32.4983 319.041 32.0985 318.855 31.7651C318.67 31.4318 318.419 31.1764 318.103 30.9989C317.786 30.8214 317.419 30.7507 317 30.7868C316.582 30.8228 316.232 30.9553 315.951 31.1843C315.669 31.4133 315.466 31.7079 315.34 32.068C315.227 32.4271 315.19 32.8397 315.23 33.306L315.235 33.3598ZM327.489 37.995C326.867 38.0486 326.308 37.9944 325.812 37.8323C325.328 37.6573 324.913 37.3919 324.569 37.0361C324.226 36.6803 323.948 36.2525 323.736 35.7529C323.524 35.2412 323.378 34.6756 323.301 34.056C323.27 33.8418 323.248 33.651 323.234 33.4836C323.218 33.3043 323.207 33.1065 323.201 32.8903C323.173 32.2904 323.215 31.7268 323.326 31.1993C323.449 30.6708 323.649 30.2018 323.927 29.7925C324.216 29.3701 324.584 29.0312 325.032 28.7759C325.492 28.5195 326.032 28.3645 326.654 28.3109C327.3 28.2553 327.854 28.322 328.316 28.511C328.788 28.6871 329.189 28.9356 329.518 29.2566L329.175 25.2753C329.165 25.1558 329.192 25.0511 329.256 24.9612C329.333 24.8703 329.437 24.8192 329.568 24.8078L331.093 24.6765C331.212 24.6662 331.317 24.6993 331.408 24.7758C331.499 24.8522 331.55 24.9503 331.56 25.0698L332.583 36.9418C332.593 37.0614 332.56 37.1666 332.484 37.2575C332.407 37.3484 332.309 37.399 332.19 37.4093L330.773 37.5314C330.641 37.5427 330.53 37.5101 330.439 37.4337C330.36 37.3562 330.316 37.2576 330.305 37.1381L330.248 36.4745C329.981 36.8709 329.625 37.2087 329.179 37.488C328.746 37.7663 328.182 37.9353 327.489 37.995ZM327.987 36.019C328.489 35.9757 328.88 35.8276 329.159 35.5747C329.438 35.3218 329.635 35.0158 329.748 34.6567C329.861 34.2857 329.907 33.9144 329.887 33.5427C329.881 33.3265 329.867 33.0988 329.846 32.8597C329.825 32.6086 329.799 32.376 329.768 32.1618C329.725 31.8042 329.612 31.4706 329.429 31.1612C329.245 30.8399 328.994 30.5845 328.677 30.395C328.359 30.2056 327.961 30.1314 327.483 30.1726C326.981 30.2159 326.59 30.364 326.311 30.6169C326.042 30.8568 325.858 31.1618 325.757 31.5318C325.657 31.9018 325.613 32.303 325.626 32.7355C325.645 33.0952 325.676 33.4539 325.719 33.8115C325.78 34.2398 325.892 34.6277 326.054 34.975C326.216 35.3224 326.451 35.5973 326.757 35.7997C327.075 35.9891 327.485 36.0622 327.987 36.019ZM339.565 40.7486C338.692 40.8238 337.965 40.772 337.383 40.5933C336.802 40.4145 336.336 40.1776 335.985 39.8827C335.634 39.5877 335.373 39.2849 335.202 38.9745C335.044 38.675 334.951 38.4361 334.924 38.2578C334.901 38.1392 334.928 38.0285 335.003 37.9257C335.092 37.8338 335.196 37.7826 335.315 37.7723L336.876 37.6379C336.995 37.6276 337.093 37.6433 337.169 37.6849C337.246 37.7385 337.314 37.835 337.374 37.9743C337.459 38.1236 337.57 38.2827 337.705 38.4518C337.84 38.6208 338.032 38.7548 338.281 38.8537C338.544 38.9636 338.89 39 339.32 38.9629C339.775 38.9238 340.152 38.8251 340.451 38.6668C340.751 38.5085 340.965 38.2672 341.093 37.943C341.234 37.6177 341.281 37.1801 341.233 36.6301L341.128 35.4107C340.871 35.7821 340.525 36.095 340.089 36.3493C339.665 36.6026 339.124 36.7576 338.467 36.8143C337.821 36.8699 337.257 36.8162 336.773 36.6531C336.288 36.4781 335.874 36.2186 335.531 35.8748C335.188 35.519 334.91 35.0913 334.698 34.5916C334.498 34.0909 334.36 33.5307 334.282 32.9111C334.243 32.5893 334.215 32.2665 334.199 31.9427C334.171 31.3428 334.213 30.7792 334.324 30.2517C334.435 29.7242 334.63 29.2558 334.908 28.8464C335.197 28.424 335.565 28.0852 336.013 27.8298C336.46 27.5744 337.007 27.4189 337.653 27.3633C338.334 27.3046 338.919 27.3867 339.408 27.6095C339.896 27.8204 340.306 28.1043 340.638 28.4611L340.576 27.7437C340.565 27.6122 340.597 27.501 340.674 27.4101C340.75 27.3192 340.848 27.2686 340.968 27.2583L342.42 27.1332C342.54 27.1229 342.645 27.156 342.736 27.2324C342.827 27.3089 342.878 27.4129 342.889 27.5444L343.652 36.1869C343.726 37.0477 343.629 37.8028 343.359 38.4523C343.09 39.1018 342.641 39.6223 342.013 40.0137C341.397 40.4161 340.581 40.661 339.565 40.7486ZM338.967 34.8562C339.457 34.8139 339.842 34.6723 340.122 34.4314C340.403 34.1904 340.6 33.8904 340.713 33.5313C340.827 33.1722 340.88 32.8123 340.873 32.4516C340.872 32.2952 340.861 32.0974 340.84 31.8583C340.82 31.6191 340.797 31.4284 340.773 31.2859C340.717 30.9174 340.603 30.5719 340.431 30.2495C340.257 29.9151 340.012 29.6532 339.694 29.4638C339.376 29.2624 338.972 29.1828 338.481 29.225C337.991 29.2673 337.606 29.4148 337.327 29.6677C337.047 29.9087 336.856 30.2142 336.756 30.5842C336.667 30.9531 336.629 31.3539 336.642 31.7863C336.643 32.0753 336.669 32.3682 336.718 32.6651C336.778 33.0815 336.884 33.4698 337.035 33.8301C337.198 34.1775 337.438 34.4459 337.755 34.6353C338.073 34.8248 338.476 34.8984 338.967 34.8562ZM350.094 36.0474C348.767 36.1617 347.682 35.8698 346.838 35.1716C345.995 34.4734 345.483 33.4215 345.302 32.0158C345.28 31.8973 345.261 31.7484 345.245 31.569C345.229 31.3777 345.222 31.2278 345.225 31.1192C345.195 30.2184 345.332 29.4237 345.634 28.7353C345.948 28.0458 346.412 27.4998 347.028 27.0975C347.643 26.6832 348.387 26.4385 349.259 26.3633C350.228 26.2798 351.058 26.413 351.751 26.7629C352.442 27.1007 352.986 27.6139 353.383 28.3024C353.779 28.979 354.016 29.7835 354.097 30.7161L354.129 31.0927C354.14 31.2122 354.106 31.3175 354.03 31.4084C353.954 31.4993 353.85 31.5504 353.718 31.5617L347.764 32.0747C347.764 32.0747 347.766 32.0926 347.769 32.1285C347.772 32.1644 347.774 32.1943 347.776 32.2182C347.824 32.6356 347.936 33.0174 348.11 33.3638C348.295 33.6971 348.541 33.959 348.846 34.1495C349.164 34.3389 349.526 34.4161 349.932 34.3811C350.267 34.3523 350.544 34.2802 350.763 34.165C350.98 34.0378 351.155 33.9023 351.288 33.7584C351.42 33.6146 351.512 33.4982 351.565 33.4094C351.66 33.2566 351.736 33.1657 351.794 33.1367C351.863 33.0946 351.963 33.0679 352.094 33.0566L353.637 32.9237C353.756 32.9134 353.855 32.941 353.933 33.0066C354.023 33.0711 354.066 33.1577 354.064 33.2663C354.068 33.4587 353.987 33.7005 353.819 33.992C353.663 34.2824 353.424 34.5741 353.099 34.867C352.775 35.1599 352.358 35.4187 351.847 35.6433C351.348 35.855 350.763 35.9897 350.094 36.0474ZM347.634 30.5683L351.598 30.2268L351.593 30.173C351.553 29.7067 351.44 29.3069 351.255 28.9736C351.069 28.6403 350.819 28.3849 350.502 28.2074C350.186 28.0299 349.818 27.9592 349.4 27.9952C348.981 28.0313 348.632 28.1638 348.35 28.3928C348.069 28.6218 347.865 28.9163 347.74 29.2765C347.626 29.6355 347.589 30.0482 347.63 30.5145L347.634 30.5683ZM361.155 34.9137C361.036 34.924 360.93 34.8909 360.839 34.8144C360.749 34.7379 360.698 34.6399 360.688 34.5203L359.682 22.8456C359.67 22.7141 359.703 22.6029 359.779 22.512C359.856 22.4211 359.954 22.3705 360.074 22.3602L365.274 21.9121C366.243 21.8286 367.045 21.9101 367.68 22.1565C368.315 22.3909 368.797 22.7527 369.129 23.2421C369.472 23.7305 369.673 24.3154 369.732 24.9968C369.771 25.4512 369.721 25.8589 369.584 26.22C369.457 26.5682 369.284 26.8602 369.063 27.096C368.855 27.3307 368.642 27.5177 368.425 27.6568C368.91 27.8318 369.353 28.155 369.755 28.6262C370.157 29.0974 370.388 29.6798 370.448 30.3732C370.509 31.0906 370.403 31.7441 370.129 32.3338C369.854 32.9236 369.414 33.4071 368.808 33.7845C368.202 34.15 367.432 34.3729 366.499 34.4532L361.155 34.9137ZM363.054 32.835L366.049 32.577C366.694 32.5213 367.169 32.3058 367.474 31.9302C367.778 31.5427 367.909 31.0979 367.865 30.5957C367.82 30.0697 367.609 29.6482 367.232 29.3314C366.868 29.0135 366.369 28.8819 365.735 28.9365L362.74 29.1945L363.054 32.835ZM362.579 27.3294L365.395 27.0868C366.029 27.0322 366.488 26.8421 366.773 26.5164C367.069 26.1778 367.196 25.7633 367.154 25.2731C367.11 24.771 366.916 24.3963 366.569 24.1492C366.234 23.889 365.749 23.7862 365.115 23.8408L362.3 24.0834L362.579 27.3294ZM375.527 33.856C374.906 33.9096 374.333 33.8384 373.811 33.6426C373.287 33.4348 372.858 33.1405 372.524 32.7598C372.201 32.3661 372.017 31.9121 371.973 31.398C371.901 30.5611 372.179 29.8688 372.806 29.3209C373.444 28.76 374.312 28.348 375.409 28.0848L377.835 27.5145L377.803 27.1379C377.76 26.6357 377.601 26.258 377.326 26.0046C377.051 25.7513 376.609 25.6509 375.999 25.7034C375.569 25.7405 375.224 25.8606 374.964 26.0636C374.716 26.2536 374.538 26.4978 374.431 26.7961C374.349 26.9597 374.218 27.0493 374.039 27.0647L372.622 27.1868C372.491 27.1981 372.386 27.171 372.308 27.1055C372.242 27.0389 372.204 26.9458 372.194 26.8263C372.189 26.6339 372.247 26.3941 372.366 26.1068C372.486 25.8194 372.691 25.5368 372.98 25.259C373.268 24.9692 373.65 24.7135 374.124 24.4919C374.599 24.2703 375.183 24.1297 375.876 24.0699C376.63 24.005 377.272 24.0461 377.802 24.1931C378.344 24.3271 378.783 24.5361 379.121 24.8202C379.459 25.1043 379.717 25.4493 379.897 25.8554C380.076 26.2615 380.186 26.6977 380.226 27.164L380.711 32.7951C380.722 32.9147 380.689 33.0199 380.612 33.1108C380.536 33.2017 380.438 33.2523 380.318 33.2626L378.865 33.3877C378.734 33.3991 378.623 33.3665 378.532 33.29C378.453 33.2125 378.408 33.114 378.398 32.9944L378.338 32.295C378.202 32.5356 378.011 32.7688 377.766 32.9947C377.519 33.2087 377.21 33.3979 376.839 33.5623C376.479 33.7138 376.041 33.8117 375.527 33.856ZM375.99 32.0998C376.409 32.0637 376.778 31.9416 377.097 31.7335C377.428 31.5242 377.673 31.2261 377.833 30.839C378.003 30.4389 378.063 29.9519 378.014 29.378L377.982 29.0014L376.213 29.4429C375.517 29.6113 375.006 29.8299 374.68 30.0989C374.353 30.3679 374.205 30.6758 374.235 31.0225C374.258 31.2855 374.355 31.506 374.527 31.6839C374.71 31.8488 374.931 31.9682 375.19 32.0423C375.449 32.1043 375.715 32.1235 375.99 32.0998ZM386.597 32.9022C385.88 32.964 385.257 32.9334 384.729 32.8103C384.212 32.6862 383.782 32.5125 383.437 32.2892C383.093 32.066 382.832 31.8355 382.655 31.5978C382.478 31.3602 382.376 31.1581 382.35 30.9918C382.326 30.8613 382.354 30.7566 382.431 30.6777C382.52 30.5857 382.618 30.5351 382.725 30.5259L384.142 30.4038C384.19 30.3997 384.232 30.402 384.269 30.4109C384.306 30.4198 384.357 30.4515 384.422 30.5061C384.588 30.6243 384.762 30.7478 384.941 30.8769C385.133 31.0049 385.353 31.1124 385.602 31.1994C385.849 31.2745 386.152 31.2965 386.511 31.2656C386.977 31.2255 387.358 31.1023 387.653 30.8962C387.959 30.6771 388.098 30.3942 388.068 30.0475C388.046 29.7964 387.957 29.5993 387.8 29.4563C387.655 29.3122 387.392 29.1963 387.011 29.1087C386.629 29.0091 386.091 28.9169 385.398 28.8322C384.715 28.7345 384.142 28.5851 383.679 28.3841C383.216 28.1831 382.861 27.9125 382.615 27.5724C382.369 27.2323 382.225 26.8231 382.184 26.3449C382.144 25.8786 382.243 25.4244 382.482 24.9822C382.732 24.5271 383.12 24.1384 383.647 23.816C384.185 23.4926 384.866 23.2954 385.691 23.2243C386.337 23.1687 386.906 23.2039 387.399 23.3301C387.89 23.4443 388.302 23.6076 388.633 23.8199C388.977 24.0312 389.243 24.2552 389.432 24.4919C389.62 24.7165 389.728 24.918 389.755 25.0964C389.778 25.2268 389.752 25.3375 389.675 25.4284C389.598 25.5074 389.505 25.5515 389.398 25.5608L388.07 25.6751C388.011 25.6802 387.956 25.6729 387.906 25.6531C387.856 25.6333 387.806 25.6076 387.755 25.5758C387.613 25.4676 387.459 25.3544 387.292 25.2363C387.125 25.1182 386.924 25.0211 386.689 24.945C386.464 24.856 386.173 24.8269 385.814 24.8578C385.36 24.8969 385.022 25.0284 384.8 25.2523C384.577 25.4642 384.479 25.7196 384.505 26.0184C384.522 26.2217 384.592 26.3964 384.713 26.5425C384.844 26.6757 385.089 26.7931 385.448 26.8948C385.806 26.9964 386.343 27.0886 387.061 27.1713C387.875 27.2457 388.527 27.4063 389.018 27.6531C389.52 27.8869 389.882 28.1808 390.106 28.535C390.34 28.8761 390.476 29.2679 390.514 29.7102C390.56 30.2482 390.441 30.7464 390.155 31.2046C389.881 31.6618 389.444 32.0427 388.844 32.3473C388.255 32.639 387.506 32.8239 386.597 32.9022ZM396.626 32.0381C395.299 32.1525 394.214 31.8605 393.371 31.1623C392.528 30.4641 392.016 29.4122 391.835 28.0066C391.812 27.8881 391.793 27.7391 391.778 27.5598C391.762 27.3685 391.755 27.2185 391.757 27.1099C391.728 26.2091 391.864 25.4145 392.166 24.726C392.48 24.0365 392.945 23.4906 393.561 23.0882C394.175 22.674 394.919 22.4292 395.792 22.354C396.76 22.2706 397.591 22.4038 398.283 22.7536C398.975 23.0915 399.519 23.6047 399.916 24.2932C400.311 24.9697 400.549 25.7743 400.629 26.7068L400.662 27.0834C400.672 27.203 400.639 27.3082 400.563 27.3991C400.486 27.49 400.382 27.5411 400.251 27.5525L394.297 28.0654C394.297 28.0654 394.298 28.0834 394.301 28.1192C394.304 28.1551 394.307 28.185 394.309 28.2089C394.357 28.6263 394.468 29.0082 394.643 29.3545C394.828 29.6878 395.073 29.9497 395.379 30.1402C395.696 30.3297 396.058 30.4069 396.465 30.3719C396.799 30.343 397.076 30.271 397.295 30.1558C397.513 30.0286 397.688 29.8931 397.82 29.7492C397.952 29.6053 398.045 29.489 398.097 29.4001C398.193 29.2474 398.269 29.1565 398.327 29.1274C398.395 29.0854 398.496 29.0587 398.627 29.0473L400.169 28.9145C400.289 28.9042 400.388 28.9318 400.466 28.9973C400.555 29.0619 400.599 29.1484 400.596 29.2571C400.601 29.4494 400.519 29.6913 400.352 29.9828C400.196 30.2732 399.956 30.5649 399.632 30.8578C399.308 31.1506 398.891 31.4094 398.38 31.6341C397.88 31.8458 397.296 31.9804 396.626 32.0381ZM394.167 26.559L398.13 26.2175L398.126 26.1637C398.085 25.6975 397.973 25.2977 397.787 24.9643C397.602 24.631 397.351 24.3756 397.035 24.1981C396.718 24.0206 396.351 23.9499 395.933 23.986C395.514 24.022 395.164 24.1545 394.883 24.3835C394.601 24.6125 394.398 24.9071 394.272 25.2672C394.159 25.6263 394.122 26.039 394.162 26.5052L394.167 26.559Z" fill="white"/>
</svg>
