<svg width="25" height="20" viewBox="0 0 25 20" fill="none" xmlns="http://www.w3.org/2000/svg">
<g clip-path="url(#clip0_597_28652)">
<mask id="mask0_597_28652" style="mask-type:luminance" maskUnits="userSpaceOnUse" x="0" y="0" width="25" height="20">
<path d="M24.6907 0.705078H0.690674V19.2966H24.6907V0.705078Z" fill="white"/>
</mask>
<g mask="url(#mask0_597_28652)">
<path d="M21.0077 2.36114C19.478 1.65926 17.8377 1.14214 16.1226 0.845969C16.0913 0.840253 16.0601 0.854538 16.044 0.883108C15.8331 1.25832 15.5994 1.74782 15.4358 2.13257C13.5911 1.8564 11.7559 1.8564 9.94899 2.13257C9.78532 1.73927 9.54316 1.25832 9.33125 0.883108C9.31516 0.855491 9.28396 0.841206 9.25272 0.845969C7.53858 1.1412 5.89823 1.65831 4.36761 2.36114C4.35436 2.36685 4.343 2.37638 4.33546 2.38876C1.22407 7.03712 0.371724 11.5712 0.789854 16.0491C0.791746 16.071 0.804044 16.092 0.821072 16.1053C2.87388 17.6128 4.86238 18.528 6.81395 19.1347C6.84519 19.1442 6.87828 19.1328 6.89816 19.1071C7.3598 18.4766 7.77132 17.8119 8.12415 17.1129C8.14497 17.0719 8.1251 17.0233 8.08254 17.0072C7.42981 16.7596 6.80827 16.4577 6.2104 16.1148C6.16311 16.0872 6.15933 16.0196 6.20283 15.9872C6.32865 15.8929 6.45449 15.7948 6.57463 15.6958C6.59636 15.6777 6.62665 15.6739 6.65221 15.6853C10.58 17.4786 14.8322 17.4786 18.7136 15.6853C18.7392 15.6729 18.7695 15.6767 18.7922 15.6948C18.9123 15.7939 19.0381 15.8929 19.1649 15.9872C19.2084 16.0196 19.2056 16.0872 19.1583 16.1148C18.5604 16.4643 17.9389 16.7596 17.2852 17.0062C17.2426 17.0224 17.2237 17.0719 17.2445 17.1129C17.6049 17.8109 18.0164 18.4757 18.4696 19.1061C18.4885 19.1328 18.5225 19.1442 18.5538 19.1347C20.5148 18.528 22.5033 17.6128 24.5561 16.1053C24.5741 16.092 24.5854 16.072 24.5873 16.0501C25.0878 10.8731 23.7492 6.3762 21.0389 2.3897C21.0323 2.37638 21.0209 2.36685 21.0077 2.36114ZM8.7107 13.3225C7.52817 13.3225 6.55381 12.2369 6.55381 10.9036C6.55381 9.57033 7.50928 8.48469 8.7107 8.48469C9.92155 8.48469 10.8865 9.57987 10.8676 10.9036C10.8676 12.2369 9.91208 13.3225 8.7107 13.3225ZM16.6854 13.3225C15.5029 13.3225 14.5286 12.2369 14.5286 10.9036C14.5286 9.57033 15.484 8.48469 16.6854 8.48469C17.8963 8.48469 18.8612 9.57987 18.8423 10.9036C18.8423 12.2369 17.8963 13.3225 16.6854 13.3225Z" fill="#5865F2"/>
</g>
</g>
<defs>
<clipPath id="clip0_597_28652">
<rect width="24" height="18.5915" fill="white" transform="translate(0.6875 0.704102)"/>
</clipPath>
</defs>
</svg>
