<svg width="338" height="109" viewBox="0 0 338 109" fill="none" xmlns="http://www.w3.org/2000/svg">
<rect x="101" y="-0.0100098" width="136" height="29" rx="14.5" fill="#E6EBF4"/>
<path d="M114.031 10.59H119.803V11.598H115.171V14.394H119.359V15.402H115.171V18.99H114.031V10.59ZM121.962 18.99C121.682 18.99 121.458 18.91 121.29 18.75C121.13 18.59 121.05 18.37 121.05 18.09V10.59H126.942V11.586H122.19V14.202H126.582V15.186H122.19V17.994H126.942V18.99H121.962ZM133.175 16.782H129.671L128.855 18.99H127.667L130.919 10.59H131.435C131.779 10.59 132.023 10.778 132.167 11.154L135.179 18.99H134.003L133.175 16.782ZM130.007 15.822H132.839L131.435 12.03H131.423L130.007 15.822ZM137.13 11.586H134.466V10.59H140.934V11.586H138.27V18.99H137.13V11.586ZM144.785 19.086C144.241 19.086 143.761 18.97 143.345 18.738C142.937 18.498 142.621 18.162 142.397 17.73C142.173 17.298 142.061 16.802 142.061 16.242V10.59H143.201V16.242C143.201 16.786 143.345 17.226 143.633 17.562C143.929 17.898 144.313 18.066 144.785 18.066H146.069C146.541 18.066 146.921 17.898 147.209 17.562C147.505 17.226 147.653 16.786 147.653 16.242V10.59H148.793V16.242C148.793 16.802 148.681 17.298 148.457 17.73C148.233 18.162 147.913 18.498 147.497 18.738C147.089 18.97 146.613 19.086 146.069 19.086H144.785ZM150.523 10.59H154.735C155.383 10.59 155.903 10.774 156.295 11.142C156.695 11.502 156.895 11.978 156.895 12.57V13.434C156.895 13.85 156.763 14.218 156.499 14.538C156.243 14.858 155.891 15.09 155.443 15.234V15.246C155.915 15.526 156.267 16.038 156.499 16.782L157.159 18.99H155.983L155.335 16.83C155.223 16.454 155.043 16.158 154.795 15.942C154.555 15.726 154.279 15.618 153.967 15.618H151.663V18.99H150.523V10.59ZM154.423 14.61C154.823 14.61 155.143 14.502 155.383 14.286C155.631 14.07 155.755 13.786 155.755 13.434V12.558C155.755 12.27 155.659 12.038 155.467 11.862C155.275 11.686 155.023 11.598 154.711 11.598H151.663V14.61H154.423ZM159.345 18.99C159.065 18.99 158.841 18.91 158.673 18.75C158.513 18.59 158.433 18.37 158.433 18.09V10.59H164.325V11.586H159.573V14.202H163.965V15.186H159.573V17.994H164.325V18.99H159.345ZM166.657 18.99C166.377 18.99 166.153 18.91 165.985 18.75C165.825 18.59 165.745 18.37 165.745 18.09V10.59H169.405C170.013 10.59 170.545 10.706 171.001 10.938C171.465 11.17 171.821 11.502 172.069 11.934C172.325 12.358 172.453 12.846 172.453 13.398V15.942C172.453 16.942 172.197 17.702 171.685 18.222C171.181 18.734 170.437 18.99 169.453 18.99H166.657ZM169.417 17.97C170.041 17.97 170.513 17.798 170.833 17.454C171.153 17.11 171.313 16.598 171.313 15.918V13.422C171.313 12.878 171.133 12.442 170.773 12.114C170.421 11.778 169.953 11.61 169.369 11.61H166.885V17.97H169.417ZM179.427 19.086C178.651 19.086 178.031 18.854 177.567 18.39C177.103 17.926 176.871 17.302 176.871 16.518H177.987C177.987 16.99 178.119 17.366 178.383 17.646C178.655 17.926 179.011 18.066 179.451 18.066H180.783C181.223 18.066 181.575 17.974 181.839 17.79C182.103 17.598 182.235 17.346 182.235 17.034V16.386C182.235 16.138 182.139 15.93 181.947 15.762C181.763 15.594 181.499 15.482 181.155 15.426L178.971 15.066C178.331 14.962 177.835 14.742 177.483 14.406C177.139 14.07 176.967 13.65 176.967 13.146V12.486C176.967 11.886 177.195 11.406 177.651 11.046C178.115 10.678 178.723 10.494 179.475 10.494H180.831C181.303 10.494 181.719 10.594 182.079 10.794C182.447 10.986 182.731 11.262 182.931 11.622C183.131 11.974 183.231 12.382 183.231 12.846H182.103C182.103 12.446 181.987 12.126 181.755 11.886C181.523 11.638 181.215 11.514 180.831 11.514H179.475C179.067 11.514 178.735 11.606 178.479 11.79C178.231 11.966 178.107 12.21 178.107 12.522V13.062C178.107 13.318 178.195 13.53 178.371 13.698C178.555 13.866 178.815 13.982 179.151 14.046L181.311 14.418C181.975 14.53 182.483 14.75 182.835 15.078C183.195 15.398 183.375 15.802 183.375 16.29V17.07C183.375 17.678 183.139 18.166 182.667 18.534C182.203 18.902 181.583 19.086 180.807 19.086H179.427ZM186.677 11.586H184.013V10.59H190.481V11.586H187.817V18.99H186.677V11.586ZM193.969 19.086C193.385 19.086 192.869 18.958 192.421 18.702C191.981 18.446 191.637 18.086 191.389 17.622C191.149 17.158 191.029 16.618 191.029 16.002V13.578C191.029 12.962 191.149 12.422 191.389 11.958C191.637 11.494 191.985 11.134 192.433 10.878C192.881 10.622 193.397 10.494 193.981 10.494H195.253C195.837 10.494 196.349 10.622 196.789 10.878C197.237 11.134 197.581 11.494 197.821 11.958C198.069 12.422 198.193 12.962 198.193 13.578V16.002C198.193 16.618 198.069 17.158 197.821 17.622C197.581 18.086 197.237 18.446 196.789 18.702C196.341 18.958 195.829 19.086 195.253 19.086H193.969ZM195.229 18.066C195.773 18.066 196.213 17.878 196.549 17.502C196.885 17.118 197.053 16.61 197.053 15.978V13.602C197.053 12.97 196.885 12.466 196.549 12.09C196.213 11.706 195.773 11.514 195.229 11.514H193.993C193.449 11.514 193.009 11.706 192.673 12.09C192.337 12.466 192.169 12.97 192.169 13.602V15.978C192.169 16.61 192.333 17.118 192.661 17.502C192.997 17.878 193.437 18.066 193.981 18.066H195.229ZM199.73 10.59H203.942C204.59 10.59 205.11 10.774 205.502 11.142C205.902 11.502 206.102 11.978 206.102 12.57V13.434C206.102 13.85 205.97 14.218 205.706 14.538C205.45 14.858 205.098 15.09 204.65 15.234V15.246C205.122 15.526 205.474 16.038 205.706 16.782L206.366 18.99H205.19L204.542 16.83C204.43 16.454 204.25 16.158 204.002 15.942C203.762 15.726 203.486 15.618 203.174 15.618H200.87V18.99H199.73V10.59ZM203.63 14.61C204.03 14.61 204.35 14.502 204.59 14.286C204.838 14.07 204.962 13.786 204.962 13.434V12.558C204.962 12.27 204.866 12.038 204.674 11.862C204.482 11.686 204.23 11.598 203.918 11.598H200.87V14.61H203.63ZM207.76 10.59H208.9V18.99H207.76V10.59ZM211.704 18.99C211.424 18.99 211.2 18.91 211.032 18.75C210.872 18.59 210.792 18.37 210.792 18.09V10.59H216.684V11.586H211.932V14.202H216.324V15.186H211.932V17.994H216.684V18.99H211.704ZM220.373 19.086C219.597 19.086 218.977 18.854 218.513 18.39C218.049 17.926 217.817 17.302 217.817 16.518H218.933C218.933 16.99 219.065 17.366 219.329 17.646C219.601 17.926 219.957 18.066 220.397 18.066H221.729C222.169 18.066 222.521 17.974 222.785 17.79C223.049 17.598 223.181 17.346 223.181 17.034V16.386C223.181 16.138 223.085 15.93 222.893 15.762C222.709 15.594 222.445 15.482 222.101 15.426L219.917 15.066C219.277 14.962 218.781 14.742 218.429 14.406C218.085 14.07 217.913 13.65 217.913 13.146V12.486C217.913 11.886 218.141 11.406 218.597 11.046C219.061 10.678 219.669 10.494 220.421 10.494H221.777C222.249 10.494 222.665 10.594 223.025 10.794C223.393 10.986 223.677 11.262 223.877 11.622C224.077 11.974 224.177 12.382 224.177 12.846H223.049C223.049 12.446 222.933 12.126 222.701 11.886C222.469 11.638 222.161 11.514 221.777 11.514H220.421C220.013 11.514 219.681 11.606 219.425 11.79C219.177 11.966 219.053 12.21 219.053 12.522V13.062C219.053 13.318 219.141 13.53 219.317 13.698C219.501 13.866 219.761 13.982 220.097 14.046L222.257 14.418C222.921 14.53 223.429 14.75 223.781 15.078C224.141 15.398 224.321 15.802 224.321 16.29V17.07C224.321 17.678 224.085 18.166 223.613 18.534C223.149 18.902 222.529 19.086 221.753 19.086H220.373Z" fill="#093BAA"/>
<path d="M34.8952 67.182C33.7272 67.182 32.6952 66.926 31.7992 66.414C30.9192 65.902 30.2312 65.182 29.7352 64.254C29.2552 63.326 29.0152 62.246 29.0152 61.014V56.166C29.0152 54.934 29.2552 53.854 29.7352 52.926C30.2312 51.998 30.9272 51.278 31.8232 50.766C32.7192 50.254 33.7512 49.998 34.9192 49.998H37.4632C38.6312 49.998 39.6552 50.254 40.5352 50.766C41.4312 51.278 42.1192 51.998 42.5992 52.926C43.0952 53.854 43.3432 54.934 43.3432 56.166V61.014C43.3432 62.246 43.0952 63.326 42.5992 64.254C42.1192 65.182 41.4312 65.902 40.5352 66.414C39.6392 66.926 38.6152 67.182 37.4632 67.182H34.8952ZM37.4152 65.142C38.5032 65.142 39.3832 64.766 40.0552 64.014C40.7272 63.246 41.0632 62.23 41.0632 60.966V56.214C41.0632 54.95 40.7272 53.942 40.0552 53.19C39.3832 52.422 38.5032 52.038 37.4152 52.038H34.9432C33.8552 52.038 32.9752 52.422 32.3032 53.19C31.6312 53.942 31.2952 54.95 31.2952 56.214V60.966C31.2952 62.23 31.6232 63.246 32.2792 64.014C32.9512 64.766 33.8312 65.142 34.9192 65.142H37.4152ZM50.1611 66.99C49.7771 66.99 49.4491 66.886 49.1771 66.678C48.9211 66.454 48.7051 66.11 48.5291 65.646L44.4011 55.014H46.7531L50.1611 64.47H50.2091L53.6171 55.014H55.9691L51.2651 66.99H50.1611ZM61.3267 67.182C59.9187 67.182 58.7827 66.782 57.9187 65.982C57.0707 65.166 56.6467 64.102 56.6467 62.79V59.478C56.6467 58.07 57.0707 56.942 57.9187 56.094C58.7827 55.246 59.9187 54.822 61.3267 54.822H63.2947C64.6547 54.822 65.7507 55.238 66.5827 56.07C67.4147 56.902 67.8307 58.006 67.8307 59.382V61.638H58.8787V62.79C58.8787 63.526 59.1027 64.118 59.5507 64.566C59.9987 65.014 60.5907 65.238 61.3267 65.238H63.1747C63.8947 65.238 64.4787 65.054 64.9267 64.686C65.3747 64.302 65.5987 63.798 65.5987 63.174H67.7827C67.7827 64.374 67.3587 65.342 66.5107 66.078C65.6627 66.814 64.5427 67.182 63.1507 67.182H61.3267ZM65.5987 59.862V59.382C65.5987 58.582 65.3827 57.942 64.9507 57.462C64.5347 56.982 63.9827 56.742 63.2947 56.742H61.3267C60.5907 56.742 59.9987 56.998 59.5507 57.51C59.1027 58.006 58.8787 58.67 58.8787 59.502V59.862H65.5987ZM70.0998 55.014H72.2358V56.766C72.5558 56.238 73.0198 55.806 73.6278 55.47C74.2518 55.134 74.8998 54.966 75.5718 54.966H76.8198V56.958H75.5718C74.5958 56.958 73.8118 57.262 73.2198 57.87C72.6278 58.462 72.3318 59.246 72.3318 60.222V66.99H70.0998V55.014ZM254.748 50.19H256.98V56.526C257.348 56.014 257.812 55.606 258.372 55.302C258.932 54.982 259.484 54.822 260.028 54.822H261.66C262.812 54.822 263.74 55.206 264.444 55.974C265.164 56.742 265.524 57.75 265.524 58.998V66.99H263.292V58.998C263.292 58.342 263.124 57.814 262.788 57.414C262.452 56.998 262.012 56.79 261.468 56.79H259.932C259.244 56.79 258.62 57.054 258.06 57.582C257.5 58.094 257.14 58.766 256.98 59.598V66.99H254.748V50.19ZM271.836 67.182C270.636 67.182 269.676 66.878 268.956 66.27C268.236 65.646 267.876 64.822 267.876 63.798V63.006C267.876 61.998 268.252 61.19 269.004 60.582C269.756 59.958 270.74 59.646 271.956 59.646H273.468C273.948 59.646 274.46 59.718 275.004 59.862C275.548 60.006 276.012 60.206 276.396 60.462V58.71C276.396 58.118 276.212 57.646 275.844 57.294C275.476 56.926 274.996 56.742 274.404 56.742H272.436C271.828 56.742 271.34 56.886 270.972 57.174C270.604 57.462 270.42 57.838 270.42 58.302H268.212C268.212 57.262 268.596 56.422 269.364 55.782C270.148 55.142 271.172 54.822 272.436 54.822H274.404C275.668 54.822 276.684 55.182 277.452 55.902C278.22 56.606 278.604 57.542 278.604 58.71V66.99H276.516V65.382C276.148 65.926 275.668 66.366 275.076 66.702C274.484 67.022 273.884 67.182 273.276 67.182H271.836ZM273.396 65.334C274.1 65.334 274.724 65.134 275.268 64.734C275.812 64.318 276.188 63.766 276.396 63.078V62.358C276.092 62.086 275.676 61.87 275.148 61.71C274.62 61.55 274.076 61.47 273.516 61.47H271.98C271.42 61.47 270.964 61.614 270.612 61.902C270.26 62.19 270.084 62.574 270.084 63.054V63.774C270.084 64.254 270.252 64.638 270.588 64.926C270.94 65.198 271.404 65.334 271.98 65.334H273.396ZM285.577 66.99C285.193 66.99 284.865 66.886 284.593 66.678C284.337 66.454 284.121 66.11 283.945 65.646L279.817 55.014H282.169L285.577 64.47H285.625L289.033 55.014H291.385L286.681 66.99H285.577ZM296.742 67.182C295.334 67.182 294.198 66.782 293.334 65.982C292.486 65.166 292.062 64.102 292.062 62.79V59.478C292.062 58.07 292.486 56.942 293.334 56.094C294.198 55.246 295.334 54.822 296.742 54.822H298.71C300.07 54.822 301.166 55.238 301.998 56.07C302.83 56.902 303.246 58.006 303.246 59.382V61.638H294.294V62.79C294.294 63.526 294.518 64.118 294.966 64.566C295.414 65.014 296.006 65.238 296.742 65.238H298.59C299.31 65.238 299.894 65.054 300.342 64.686C300.79 64.302 301.014 63.798 301.014 63.174H303.198C303.198 64.374 302.774 65.342 301.926 66.078C301.078 66.814 299.958 67.182 298.566 67.182H296.742ZM301.014 59.862V59.382C301.014 58.582 300.798 57.942 300.366 57.462C299.95 56.982 299.398 56.742 298.71 56.742H296.742C296.006 56.742 295.414 56.998 294.966 57.51C294.518 58.006 294.294 58.67 294.294 59.502V59.862H301.014ZM7.58566 101.182C7.05766 101.182 6.51366 101.022 5.95366 100.702C5.39366 100.366 4.95366 99.95 4.63366 99.454V100.99H2.49766V84.19H4.72966V90.262C5.08166 89.83 5.52166 89.486 6.04966 89.23C6.57766 88.958 7.10566 88.822 7.63366 88.822H9.33766C10.1857 88.822 10.9377 89.014 11.5937 89.398C12.2657 89.782 12.7857 90.318 13.1537 91.006C13.5217 91.694 13.7057 92.494 13.7057 93.406V96.382C13.7057 97.326 13.5137 98.166 13.1297 98.902C12.7617 99.622 12.2417 100.182 11.5697 100.582C10.8977 100.982 10.1217 101.182 9.24166 101.182H7.58566ZM9.09766 99.214C9.80166 99.214 10.3697 98.95 10.8017 98.422C11.2337 97.878 11.4497 97.166 11.4497 96.286V93.478C11.4497 92.678 11.2337 92.03 10.8017 91.534C10.3857 91.038 9.84166 90.79 9.16966 90.79H7.60966C6.84166 90.79 6.18566 91.07 5.64166 91.63C5.09766 92.19 4.79366 92.918 4.72966 93.814V96.454C4.79366 97.222 5.09766 97.878 5.64166 98.422C6.18566 98.95 6.80166 99.214 7.48966 99.214H9.09766ZM20.3036 101.182C18.8956 101.182 17.7596 100.782 16.8956 99.982C16.0476 99.166 15.6236 98.102 15.6236 96.79V93.478C15.6236 92.07 16.0476 90.942 16.8956 90.094C17.7596 89.246 18.8956 88.822 20.3036 88.822H22.2716C23.6316 88.822 24.7276 89.238 25.5596 90.07C26.3916 90.902 26.8076 92.006 26.8076 93.382V95.638H17.8556V96.79C17.8556 97.526 18.0796 98.118 18.5276 98.566C18.9756 99.014 19.5676 99.238 20.3036 99.238H22.1516C22.8716 99.238 23.4556 99.054 23.9036 98.686C24.3516 98.302 24.5756 97.798 24.5756 97.174H26.7596C26.7596 98.374 26.3356 99.342 25.4876 100.078C24.6396 100.814 23.5196 101.182 22.1276 101.182H20.3036ZM24.5756 93.862V93.382C24.5756 92.582 24.3596 91.942 23.9276 91.462C23.5116 90.982 22.9596 90.742 22.2716 90.742H20.3036C19.5676 90.742 18.9756 90.998 18.5276 91.51C18.0796 92.006 17.8556 92.67 17.8556 93.502V93.862H24.5756ZM29.0767 89.014H31.2127V90.67C31.5647 90.126 32.0287 89.686 32.6047 89.35C33.1967 88.998 33.7807 88.822 34.3567 88.822H35.9407C37.0927 88.822 38.0207 89.206 38.7247 89.974C39.4447 90.742 39.8047 91.75 39.8047 92.998V100.99H37.5727V92.998C37.5727 92.342 37.4047 91.814 37.0687 91.414C36.7327 90.998 36.2927 90.79 35.7487 90.79H34.2607C33.5727 90.79 32.9487 91.054 32.3887 91.582C31.8287 92.11 31.4687 92.798 31.3087 93.646V100.99H29.0767V89.014ZM46.742 101.182C45.334 101.182 44.198 100.782 43.334 99.982C42.486 99.166 42.062 98.102 42.062 96.79V93.478C42.062 92.07 42.486 90.942 43.334 90.094C44.198 89.246 45.334 88.822 46.742 88.822H48.71C50.07 88.822 51.166 89.238 51.998 90.07C52.83 90.902 53.246 92.006 53.246 93.382V95.638H44.294V96.79C44.294 97.526 44.518 98.118 44.966 98.566C45.414 99.014 46.006 99.238 46.742 99.238H48.59C49.31 99.238 49.894 99.054 50.342 98.686C50.79 98.302 51.014 97.798 51.014 97.174H53.198C53.198 98.374 52.774 99.342 51.926 100.078C51.078 100.814 49.958 101.182 48.566 101.182H46.742ZM51.014 93.862V93.382C51.014 92.582 50.798 91.942 50.366 91.462C49.95 90.982 49.398 90.742 48.71 90.742H46.742C46.006 90.742 45.414 90.998 44.966 91.51C44.518 92.006 44.294 92.67 44.294 93.502V93.862H51.014ZM65.9552 100.99H63.7232V90.934H58.9232V100.99H56.6912V90.934H54.6272V88.99H56.6912V88.126C56.6912 86.814 57.0512 85.814 57.7712 85.126C58.4912 84.438 59.5312 84.094 60.8912 84.094H64.1552V86.014H60.8912C60.2192 86.014 59.7232 86.19 59.4032 86.542C59.0832 86.878 58.9232 87.414 58.9232 88.15V88.99H65.9552V100.99ZM73.7118 100.99C72.3998 100.99 71.4478 100.702 70.8558 100.126C70.2798 99.55 69.9918 98.622 69.9918 97.342V90.958H67.8798V89.014H70.0158V85.39H72.2238V89.014H75.3438V90.958H72.2238V97.294C72.2238 97.918 72.3438 98.366 72.5838 98.638C72.8398 98.91 73.2478 99.046 73.8078 99.046H75.3438V100.99H73.7118ZM81.5598 101.182C80.1518 101.182 79.0158 100.782 78.1518 99.982C77.3038 99.166 76.8798 98.102 76.8798 96.79V93.478C76.8798 92.07 77.3038 90.942 78.1518 90.094C79.0158 89.246 80.1518 88.822 81.5598 88.822H83.5278C84.8878 88.822 85.9838 89.238 86.8158 90.07C87.6478 90.902 88.0638 92.006 88.0638 93.382V95.638H79.1118V96.79C79.1118 97.526 79.3358 98.118 79.7838 98.566C80.2318 99.014 80.8238 99.238 81.5598 99.238H83.4078C84.1278 99.238 84.7118 99.054 85.1598 98.686C85.6078 98.302 85.8318 97.798 85.8318 97.174H88.0158C88.0158 98.374 87.5918 99.342 86.7438 100.078C85.8958 100.814 84.7758 101.182 83.3838 101.182H81.5598ZM85.8318 93.862V93.382C85.8318 92.582 85.6158 91.942 85.1838 91.462C84.7678 90.982 84.2158 90.742 83.5278 90.742H81.5598C80.8238 90.742 80.2318 90.998 79.7838 91.51C79.3358 92.006 79.1118 92.67 79.1118 93.502V93.862H85.8318ZM94.245 101.182C92.933 101.182 91.869 100.758 91.053 99.91C90.253 99.062 89.853 97.942 89.853 96.55V93.718C89.853 92.758 90.045 91.91 90.429 91.174C90.813 90.422 91.349 89.846 92.037 89.446C92.741 89.03 93.549 88.822 94.461 88.822H96.093C96.605 88.822 97.109 88.942 97.605 89.182C98.101 89.422 98.501 89.742 98.805 90.142V84.19H101.061V100.99H98.925V99.286C98.573 99.846 98.109 100.302 97.533 100.654C96.957 101.006 96.381 101.182 95.805 101.182H94.245ZM95.901 99.214C96.653 99.214 97.309 98.91 97.869 98.302C98.429 97.678 98.741 96.942 98.805 96.094V93.382C98.693 92.598 98.397 91.974 97.917 91.51C97.453 91.03 96.893 90.79 96.237 90.79H94.629C93.877 90.79 93.261 91.07 92.781 91.63C92.317 92.174 92.085 92.902 92.085 93.814V96.478C92.085 97.294 92.301 97.958 92.733 98.47C93.181 98.966 93.741 99.214 94.413 99.214H95.901ZM111.08 90.958H109.016V89.014H111.08V88.126C111.08 86.814 111.44 85.814 112.16 85.126C112.88 84.438 113.92 84.094 115.28 84.094H116.456V86.014H115.28C114.608 86.014 114.112 86.19 113.792 86.542C113.472 86.878 113.312 87.414 113.312 88.15V89.014H116.192V90.958H113.312V100.99H111.08V90.958ZM118.213 89.014H120.349V90.766C120.669 90.238 121.133 89.806 121.741 89.47C122.365 89.134 123.013 88.966 123.685 88.966H124.933V90.958H123.685C122.709 90.958 121.925 91.262 121.333 91.87C120.741 92.462 120.445 93.246 120.445 94.222V100.99H118.213V89.014ZM130.3 101.182C128.892 101.182 127.756 100.758 126.892 99.91C126.044 99.062 125.62 97.95 125.62 96.574V93.454C125.62 92.062 126.052 90.942 126.916 90.094C127.78 89.246 128.924 88.822 130.348 88.822H132.364C133.788 88.822 134.932 89.246 135.796 90.094C136.66 90.942 137.092 92.062 137.092 93.454V96.574C137.092 97.95 136.652 99.062 135.772 99.91C134.908 100.758 133.764 101.182 132.34 101.182H130.3ZM132.316 99.214C133.084 99.214 133.7 98.966 134.164 98.47C134.628 97.974 134.86 97.31 134.86 96.478V93.526C134.86 92.694 134.628 92.03 134.164 91.534C133.716 91.038 133.116 90.79 132.364 90.79H130.348C129.596 90.79 128.988 91.038 128.524 91.534C128.076 92.03 127.852 92.694 127.852 93.526V96.478C127.852 97.31 128.076 97.974 128.524 98.47C128.972 98.966 129.572 99.214 130.324 99.214H132.316ZM152.815 88.822C153.919 88.822 154.799 89.182 155.455 89.902C156.111 90.606 156.439 91.574 156.439 92.806V100.99H154.207V92.782C154.207 92.174 154.063 91.694 153.775 91.342C153.487 90.974 153.111 90.79 152.647 90.79H151.399C150.791 90.79 150.279 91.006 149.863 91.438C149.463 91.854 149.207 92.43 149.095 93.166V100.99H146.839V92.878C146.839 92.222 146.703 91.71 146.431 91.342C146.175 90.974 145.823 90.79 145.375 90.79H144.151C143.543 90.79 143.015 91.054 142.567 91.582C142.119 92.094 141.839 92.774 141.727 93.622V100.99H139.495V89.014H141.631V90.622C141.951 90.062 142.343 89.622 142.807 89.302C143.287 88.982 143.775 88.822 144.271 88.822H145.663C146.303 88.822 146.855 88.982 147.319 89.302C147.799 89.622 148.175 90.078 148.447 90.67C148.799 90.062 149.231 89.606 149.743 89.302C150.255 88.982 150.807 88.822 151.399 88.822H152.815ZM169.361 86.182H164.033V84.19H176.969V86.182H171.641V100.99H169.361V86.182ZM179.67 87.43C179.206 87.43 178.83 87.294 178.542 87.022C178.254 86.734 178.11 86.366 178.11 85.918C178.11 85.47 178.254 85.11 178.542 84.838C178.83 84.55 179.206 84.406 179.67 84.406C180.134 84.406 180.502 84.55 180.774 84.838C181.062 85.11 181.206 85.47 181.206 85.918C181.206 86.366 181.062 86.734 180.774 87.022C180.502 87.294 180.134 87.43 179.67 87.43ZM178.542 89.014H180.774V100.99H178.542V89.014ZM197.395 88.822C198.499 88.822 199.379 89.182 200.035 89.902C200.691 90.606 201.019 91.574 201.019 92.806V100.99H198.787V92.782C198.787 92.174 198.643 91.694 198.355 91.342C198.067 90.974 197.691 90.79 197.227 90.79H195.979C195.371 90.79 194.859 91.006 194.443 91.438C194.043 91.854 193.787 92.43 193.675 93.166V100.99H191.419V92.878C191.419 92.222 191.283 91.71 191.011 91.342C190.755 90.974 190.403 90.79 189.955 90.79H188.731C188.123 90.79 187.595 91.054 187.147 91.582C186.699 92.094 186.419 92.774 186.307 93.622V100.99H184.075V89.014H186.211V90.622C186.531 90.062 186.923 89.622 187.387 89.302C187.867 88.982 188.355 88.822 188.851 88.822H190.243C190.883 88.822 191.435 88.982 191.899 89.302C192.379 89.622 192.755 90.078 193.027 90.67C193.379 90.062 193.811 89.606 194.323 89.302C194.835 88.982 195.387 88.822 195.979 88.822H197.395ZM207.952 101.182C206.544 101.182 205.408 100.782 204.544 99.982C203.696 99.166 203.272 98.102 203.272 96.79V93.478C203.272 92.07 203.696 90.942 204.544 90.094C205.408 89.246 206.544 88.822 207.952 88.822H209.92C211.28 88.822 212.376 89.238 213.208 90.07C214.04 90.902 214.456 92.006 214.456 93.382V95.638H205.504V96.79C205.504 97.526 205.728 98.118 206.176 98.566C206.624 99.014 207.216 99.238 207.952 99.238H209.8C210.52 99.238 211.104 99.054 211.552 98.686C212 98.302 212.224 97.798 212.224 97.174H214.408C214.408 98.374 213.984 99.342 213.136 100.078C212.288 100.814 211.168 101.182 209.776 101.182H207.952ZM212.224 93.862V93.382C212.224 92.582 212.008 91.942 211.576 91.462C211.16 90.982 210.608 90.742 209.92 90.742H207.952C207.216 90.742 206.624 90.998 206.176 91.51C205.728 92.006 205.504 92.67 205.504 93.502V93.862H212.224ZM220.853 101.182C219.477 101.182 218.365 100.774 217.517 99.958C216.669 99.126 216.245 98.038 216.245 96.694V93.478C216.245 92.07 216.661 90.942 217.493 90.094C218.341 89.246 219.453 88.822 220.829 88.822H222.773C224.085 88.822 225.141 89.19 225.941 89.926C226.741 90.662 227.141 91.638 227.141 92.854H224.933C224.933 92.23 224.733 91.734 224.333 91.366C223.949 90.982 223.429 90.79 222.773 90.79H220.853C220.149 90.79 219.573 91.046 219.125 91.558C218.693 92.054 218.477 92.718 218.477 93.55V96.622C218.477 97.406 218.701 98.038 219.149 98.518C219.597 98.982 220.173 99.214 220.877 99.214H222.797C223.469 99.214 224.005 98.982 224.405 98.518C224.821 98.038 225.029 97.406 225.029 96.622H227.237C227.237 97.982 226.829 99.086 226.013 99.934C225.197 100.766 224.125 101.182 222.797 101.182H220.853ZM229.3 84.19H231.532V90.526C231.9 90.014 232.364 89.606 232.924 89.302C233.484 88.982 234.036 88.822 234.58 88.822H236.212C237.364 88.822 238.292 89.206 238.996 89.974C239.716 90.742 240.076 91.75 240.076 92.998V100.99H237.844V92.998C237.844 92.342 237.676 91.814 237.34 91.414C237.004 90.998 236.564 90.79 236.02 90.79H234.484C233.796 90.79 233.172 91.054 232.612 91.582C232.052 92.094 231.692 92.766 231.532 93.598V100.99H229.3V84.19ZM246.388 101.182C245.188 101.182 244.228 100.878 243.508 100.27C242.788 99.646 242.428 98.822 242.428 97.798V97.006C242.428 95.998 242.804 95.19 243.556 94.582C244.308 93.958 245.292 93.646 246.508 93.646H248.02C248.5 93.646 249.012 93.718 249.556 93.862C250.1 94.006 250.564 94.206 250.948 94.462V92.71C250.948 92.118 250.764 91.646 250.396 91.294C250.028 90.926 249.548 90.742 248.956 90.742H246.988C246.38 90.742 245.892 90.886 245.524 91.174C245.156 91.462 244.972 91.838 244.972 92.302H242.764C242.764 91.262 243.148 90.422 243.916 89.782C244.7 89.142 245.724 88.822 246.988 88.822H248.956C250.22 88.822 251.236 89.182 252.004 89.902C252.772 90.606 253.156 91.542 253.156 92.71V100.99H251.068V99.382C250.7 99.926 250.22 100.366 249.628 100.702C249.036 101.022 248.436 101.182 247.828 101.182H246.388ZM247.948 99.334C248.652 99.334 249.276 99.134 249.82 98.734C250.364 98.318 250.74 97.766 250.948 97.078V96.358C250.644 96.086 250.228 95.87 249.7 95.71C249.172 95.55 248.628 95.47 248.068 95.47H246.532C245.972 95.47 245.516 95.614 245.164 95.902C244.812 96.19 244.636 96.574 244.636 97.054V97.774C244.636 98.254 244.804 98.638 245.14 98.926C245.492 99.198 245.956 99.334 246.532 99.334H247.948ZM257.462 87.43C256.998 87.43 256.622 87.294 256.334 87.022C256.046 86.734 255.902 86.366 255.902 85.918C255.902 85.47 256.046 85.11 256.334 84.838C256.622 84.55 256.998 84.406 257.462 84.406C257.926 84.406 258.294 84.55 258.566 84.838C258.854 85.11 258.998 85.47 258.998 85.918C258.998 86.366 258.854 86.734 258.566 87.022C258.294 87.294 257.926 87.43 257.462 87.43ZM256.334 89.014H258.566V100.99H256.334V89.014ZM261.867 89.014H264.003V90.67C264.355 90.126 264.819 89.686 265.395 89.35C265.987 88.998 266.571 88.822 267.147 88.822H268.731C269.883 88.822 270.811 89.206 271.515 89.974C272.235 90.742 272.595 91.75 272.595 92.998V100.99H270.363V92.998C270.363 92.342 270.195 91.814 269.859 91.414C269.523 90.998 269.083 90.79 268.539 90.79H267.051C266.363 90.79 265.739 91.054 265.179 91.582C264.619 92.11 264.259 92.798 264.099 93.646V100.99H261.867V89.014ZM283.218 100.99C282.658 100.99 282.21 100.83 281.874 100.51C281.554 100.19 281.394 99.758 281.394 99.214V84.19H283.674V98.974H292.794V100.99H283.218ZM298.058 101.182C296.858 101.182 295.898 100.878 295.178 100.27C294.458 99.646 294.098 98.822 294.098 97.798V97.006C294.098 95.998 294.474 95.19 295.226 94.582C295.978 93.958 296.962 93.646 298.178 93.646H299.69C300.17 93.646 300.682 93.718 301.226 93.862C301.77 94.006 302.234 94.206 302.618 94.462V92.71C302.618 92.118 302.434 91.646 302.066 91.294C301.698 90.926 301.218 90.742 300.626 90.742H298.658C298.05 90.742 297.562 90.886 297.194 91.174C296.826 91.462 296.642 91.838 296.642 92.302H294.434C294.434 91.262 294.818 90.422 295.586 89.782C296.37 89.142 297.394 88.822 298.658 88.822H300.626C301.89 88.822 302.906 89.182 303.674 89.902C304.442 90.606 304.826 91.542 304.826 92.71V100.99H302.738V99.382C302.37 99.926 301.89 100.366 301.298 100.702C300.706 101.022 300.106 101.182 299.498 101.182H298.058ZM299.618 99.334C300.322 99.334 300.946 99.134 301.49 98.734C302.034 98.318 302.41 97.766 302.618 97.078V96.358C302.314 96.086 301.898 95.87 301.37 95.71C300.842 95.55 300.298 95.47 299.738 95.47H298.202C297.642 95.47 297.186 95.614 296.834 95.902C296.482 96.19 296.306 96.574 296.306 97.054V97.774C296.306 98.254 296.474 98.638 296.81 98.926C297.162 99.198 297.626 99.334 298.202 99.334H299.618ZM312.66 101.182C312.132 101.182 311.588 101.022 311.028 100.702C310.468 100.366 310.028 99.95 309.708 99.454V100.99H307.572V84.19H309.804V90.262C310.156 89.83 310.596 89.486 311.124 89.23C311.652 88.958 312.18 88.822 312.708 88.822H314.412C315.26 88.822 316.012 89.014 316.668 89.398C317.34 89.782 317.86 90.318 318.228 91.006C318.596 91.694 318.78 92.494 318.78 93.406V96.382C318.78 97.326 318.588 98.166 318.204 98.902C317.836 99.622 317.316 100.182 316.644 100.582C315.972 100.982 315.196 101.182 314.316 101.182H312.66ZM314.172 99.214C314.876 99.214 315.444 98.95 315.876 98.422C316.308 97.878 316.524 97.166 316.524 96.286V93.478C316.524 92.678 316.308 92.03 315.876 91.534C315.46 91.038 314.916 90.79 314.244 90.79H312.684C311.916 90.79 311.26 91.07 310.716 91.63C310.172 92.19 309.868 92.918 309.804 93.814V96.454C309.868 97.222 310.172 97.878 310.716 98.422C311.26 98.95 311.876 99.214 312.564 99.214H314.172ZM324.874 101.182C323.578 101.182 322.538 100.83 321.754 100.126C320.97 99.406 320.578 98.462 320.578 97.294H322.762C322.762 97.886 322.954 98.366 323.338 98.734C323.722 99.102 324.234 99.286 324.874 99.286H326.986C327.594 99.286 328.082 99.174 328.45 98.95C328.818 98.71 329.002 98.398 329.002 98.014V97.318C329.002 97.062 328.89 96.838 328.666 96.646C328.458 96.438 328.186 96.302 327.85 96.238L323.698 95.518C322.818 95.358 322.114 95.03 321.586 94.534C321.058 94.022 320.794 93.43 320.794 92.758V91.966C320.794 91.022 321.17 90.262 321.922 89.686C322.674 89.11 323.682 88.822 324.946 88.822H326.962C328.162 88.822 329.122 89.15 329.842 89.806C330.578 90.462 330.946 91.334 330.946 92.422H328.762C328.746 91.91 328.57 91.502 328.234 91.198C327.914 90.878 327.49 90.718 326.962 90.718H324.97C324.378 90.718 323.906 90.838 323.554 91.078C323.218 91.318 323.05 91.638 323.05 92.038V92.638C323.05 92.894 323.162 93.118 323.386 93.31C323.61 93.502 323.898 93.638 324.25 93.718L328.45 94.462C329.282 94.606 329.954 94.926 330.466 95.422C330.994 95.918 331.258 96.494 331.258 97.15V98.086C331.258 99.014 330.866 99.766 330.082 100.342C329.298 100.902 328.266 101.182 326.986 101.182H324.874ZM334.457 101.23C334.009 101.23 333.641 101.094 333.353 100.822C333.081 100.534 332.945 100.166 332.945 99.718C332.945 99.27 333.081 98.902 333.353 98.614C333.641 98.326 334.009 98.182 334.457 98.182C334.921 98.182 335.289 98.326 335.561 98.614C335.849 98.886 335.993 99.254 335.993 99.718C335.993 100.166 335.849 100.534 335.561 100.822C335.273 101.094 334.905 101.23 334.457 101.23Z" fill="#333333"/>
<path d="M91.7913 63.774H84.9513C84.2793 63.774 83.7593 63.63 83.3913 63.342C83.0233 63.054 82.8393 62.638 82.8393 62.094V61.422L91.7673 50.19H95.1033V60.846H97.2153V63.774H95.1033V66.99H91.7913V63.774ZM91.8873 60.99V54.342H91.8633L86.6073 60.99H91.8873ZM103.938 67.182C102.818 67.182 101.826 66.942 100.962 66.462C100.098 65.966 99.4256 65.27 98.9456 64.374C98.4656 63.478 98.2256 62.446 98.2256 61.278V55.902C98.2256 54.734 98.4576 53.702 98.9216 52.806C99.4016 51.91 100.074 51.222 100.938 50.742C101.802 50.246 102.802 49.998 103.938 49.998H106.482C107.586 49.998 108.562 50.246 109.41 50.742C110.258 51.222 110.914 51.91 111.378 52.806C111.858 53.702 112.098 54.734 112.098 55.902V61.278C112.098 62.446 111.866 63.478 111.402 64.374C110.938 65.27 110.282 65.966 109.434 66.462C108.586 66.942 107.602 67.182 106.482 67.182H103.938ZM106.434 64.254C107.138 64.254 107.698 63.99 108.114 63.462C108.546 62.918 108.762 62.206 108.762 61.326V55.854C108.762 54.974 108.546 54.27 108.114 53.742C107.698 53.198 107.138 52.926 106.434 52.926H103.986C103.25 52.926 102.658 53.198 102.21 53.742C101.762 54.27 101.538 54.974 101.538 55.854V61.326C101.538 62.206 101.762 62.918 102.21 63.462C102.658 63.99 103.25 64.254 103.986 64.254H106.434ZM119.629 67.182C118.509 67.182 117.517 66.942 116.653 66.462C115.789 65.966 115.117 65.27 114.637 64.374C114.157 63.478 113.917 62.446 113.917 61.278V55.902C113.917 54.734 114.149 53.702 114.613 52.806C115.093 51.91 115.765 51.222 116.629 50.742C117.493 50.246 118.493 49.998 119.629 49.998H122.173C123.277 49.998 124.253 50.246 125.101 50.742C125.949 51.222 126.605 51.91 127.069 52.806C127.549 53.702 127.789 54.734 127.789 55.902V61.278C127.789 62.446 127.557 63.478 127.093 64.374C126.629 65.27 125.973 65.966 125.125 66.462C124.277 66.942 123.293 67.182 122.173 67.182H119.629ZM122.125 64.254C122.829 64.254 123.389 63.99 123.805 63.462C124.237 62.918 124.453 62.206 124.453 61.326V55.854C124.453 54.974 124.237 54.27 123.805 53.742C123.389 53.198 122.829 52.926 122.125 52.926H119.677C118.941 52.926 118.349 53.198 117.901 53.742C117.453 54.27 117.229 54.974 117.229 55.854V61.326C117.229 62.206 117.453 62.918 117.901 63.462C118.349 63.99 118.941 64.254 119.677 64.254H122.125ZM133.737 60.63H129.369V57.798H133.737V53.43H137.001V57.798H141.369V60.63H137.001V64.998H133.737V60.63ZM153.88 67.182C152.424 67.182 151.256 66.798 150.376 66.03C149.496 65.262 149.056 64.254 149.056 63.006H152.272C152.272 63.438 152.416 63.79 152.704 64.062C153.008 64.318 153.4 64.446 153.88 64.446H156.04C157 64.446 157.48 64.182 157.48 63.654V63.246C157.48 63.086 157.4 62.942 157.24 62.814C157.08 62.67 156.864 62.574 156.592 62.526L152.44 61.806C151.464 61.646 150.688 61.302 150.112 60.774C149.552 60.23 149.272 59.598 149.272 58.878V58.086C149.272 57.062 149.688 56.262 150.52 55.686C151.368 55.11 152.544 54.822 154.048 54.822H155.92C157.264 54.822 158.344 55.182 159.16 55.902C159.992 56.606 160.408 57.542 160.408 58.71H157.192C157.192 58.358 157.072 58.078 156.832 57.87C156.608 57.662 156.304 57.558 155.92 57.558H154.096C153.056 57.558 152.536 57.798 152.536 58.278V58.662C152.536 58.838 152.6 58.99 152.728 59.118C152.872 59.23 153.072 59.31 153.328 59.358L157.696 60.15C158.608 60.31 159.344 60.654 159.904 61.182C160.464 61.694 160.744 62.278 160.744 62.934V63.798C160.744 64.838 160.312 65.662 159.448 66.27C158.6 66.878 157.464 67.182 156.04 67.182H153.88ZM167.415 66.99C166.007 66.99 164.975 66.67 164.319 66.03C163.663 65.39 163.335 64.398 163.335 63.054V57.798H161.223V55.014H163.431V51.39H166.599V55.014H169.719V57.798H166.599V62.91C166.599 63.358 166.679 63.686 166.839 63.894C167.015 64.102 167.287 64.206 167.655 64.206H169.719V66.99H167.415ZM175.462 67.182C174.198 67.182 173.182 66.758 172.414 65.91C171.646 65.046 171.262 63.918 171.262 62.526V55.014H174.526V62.574C174.526 63.102 174.654 63.534 174.91 63.87C175.182 64.19 175.534 64.35 175.966 64.35H177.358C177.886 64.35 178.366 64.134 178.798 63.702C179.23 63.254 179.534 62.67 179.71 61.95V55.014H182.974V66.99H179.95V65.454C179.582 65.966 179.126 66.382 178.582 66.702C178.054 67.022 177.542 67.182 177.046 67.182H175.462ZM189.542 67.182C188.118 67.182 186.966 66.75 186.086 65.886C185.222 65.022 184.79 63.886 184.79 62.478V59.742C184.79 58.766 184.998 57.91 185.414 57.174C185.83 56.422 186.414 55.846 187.166 55.446C187.918 55.03 188.79 54.822 189.782 54.822H191.102C191.566 54.822 192.038 54.926 192.518 55.134C192.998 55.326 193.398 55.59 193.718 55.926V50.19H196.982V66.99H193.958V65.406C193.638 65.934 193.206 66.366 192.662 66.702C192.118 67.022 191.55 67.182 190.958 67.182H189.542ZM191.318 64.374C191.974 64.374 192.518 64.142 192.95 63.678C193.398 63.198 193.654 62.566 193.718 61.782V59.694C193.606 59.07 193.358 58.574 192.974 58.206C192.606 57.822 192.166 57.63 191.654 57.63H190.19C189.55 57.63 189.03 57.846 188.63 58.278C188.246 58.71 188.054 59.278 188.054 59.982V62.238C188.054 62.878 188.23 63.398 188.582 63.798C188.934 64.182 189.39 64.374 189.95 64.374H191.318ZM203.93 67.182C202.922 67.182 202.026 66.998 201.242 66.63C200.474 66.246 199.874 65.718 199.442 65.046C199.01 64.358 198.794 63.574 198.794 62.694V59.598C198.794 58.654 199.01 57.822 199.442 57.102C199.874 56.382 200.474 55.822 201.242 55.422C202.026 55.022 202.922 54.822 203.93 54.822H205.85C207.386 54.822 208.618 55.254 209.546 56.118C210.474 56.982 210.938 58.134 210.938 59.574V62.118H202.058V62.694C202.058 63.222 202.226 63.646 202.562 63.966C202.898 64.286 203.354 64.446 203.93 64.446H205.802C206.362 64.446 206.81 64.326 207.146 64.086C207.498 63.83 207.674 63.502 207.674 63.102H210.89C210.89 63.902 210.674 64.614 210.242 65.238C209.81 65.862 209.202 66.342 208.418 66.678C207.65 67.014 206.762 67.182 205.754 67.182H203.93ZM207.722 59.766V59.574C207.722 58.95 207.554 58.454 207.218 58.086C206.882 57.702 206.434 57.51 205.874 57.51H203.93C203.354 57.51 202.89 57.71 202.538 58.11C202.186 58.51 202.01 59.038 202.01 59.694V59.766H207.722ZM212.669 55.014H215.693V56.454C216.045 55.958 216.501 55.566 217.061 55.278C217.621 54.974 218.181 54.822 218.741 54.822H220.181C221.461 54.822 222.485 55.222 223.253 56.022C224.037 56.822 224.429 57.878 224.429 59.19V66.99H221.165V59.31C221.165 58.814 221.029 58.414 220.757 58.11C220.501 57.806 220.165 57.654 219.749 57.654H218.309C217.749 57.654 217.245 57.862 216.797 58.278C216.365 58.678 216.077 59.206 215.933 59.862V66.99H212.669V55.014ZM231.812 66.99C230.404 66.99 229.372 66.67 228.716 66.03C228.06 65.39 227.732 64.398 227.732 63.054V57.798H225.62V55.014H227.828V51.39H230.996V55.014H234.116V57.798H230.996V62.91C230.996 63.358 231.076 63.686 231.236 63.894C231.412 64.102 231.684 64.206 232.052 64.206H234.116V66.99H231.812ZM240.051 67.182C238.595 67.182 237.427 66.798 236.547 66.03C235.667 65.262 235.227 64.254 235.227 63.006H238.443C238.443 63.438 238.587 63.79 238.875 64.062C239.179 64.318 239.571 64.446 240.051 64.446H242.211C243.171 64.446 243.651 64.182 243.651 63.654V63.246C243.651 63.086 243.571 62.942 243.411 62.814C243.251 62.67 243.035 62.574 242.763 62.526L238.611 61.806C237.635 61.646 236.859 61.302 236.283 60.774C235.723 60.23 235.443 59.598 235.443 58.878V58.086C235.443 57.062 235.859 56.262 236.691 55.686C237.539 55.11 238.715 54.822 240.219 54.822H242.091C243.435 54.822 244.515 55.182 245.331 55.902C246.163 56.606 246.579 57.542 246.579 58.71H243.363C243.363 58.358 243.243 58.078 243.003 57.87C242.779 57.662 242.475 57.558 242.091 57.558H240.267C239.227 57.558 238.707 57.798 238.707 58.278V58.662C238.707 58.838 238.771 58.99 238.899 59.118C239.043 59.23 239.243 59.31 239.499 59.358L243.867 60.15C244.779 60.31 245.515 60.654 246.075 61.182C246.635 61.694 246.915 62.278 246.915 62.934V63.798C246.915 64.838 246.483 65.662 245.619 66.27C244.771 66.878 243.635 67.182 242.211 67.182H240.051Z" fill="#093BAA"/>
</svg>
