<svg width="748" height="170" viewBox="0 0 748 170" fill="none" xmlns="http://www.w3.org/2000/svg">
<rect x="279.5" y="0.000488281" width="189" height="38" rx="19" fill="#E6EBF4"/>
<path d="M300.707 13.8005H308.403V15.1445H302.227V18.8725H307.811V20.2165H302.227V25.0005H300.707V13.8005ZM311.283 25.0005C310.909 25.0005 310.611 24.8938 310.387 24.6805C310.173 24.4672 310.067 24.1738 310.067 23.8005V13.8005H317.923V15.1285H311.587V18.6165H317.443V19.9285H311.587V23.6725H317.923V25.0005H311.283ZM326.233 22.0565H321.561L320.473 25.0005H318.889L323.225 13.8005H323.913C324.371 13.8005 324.697 14.0512 324.889 14.5525L328.905 25.0005H327.337L326.233 22.0565ZM322.009 20.7765H325.785L323.913 15.7205H323.897L322.009 20.7765ZM331.506 15.1285H327.954V13.8005H336.578V15.1285H333.026V25.0005H331.506V15.1285ZM341.713 25.1285C340.988 25.1285 340.348 24.9738 339.793 24.6645C339.249 24.3445 338.828 23.8965 338.529 23.3205C338.23 22.7445 338.081 22.0832 338.081 21.3365V13.8005H339.601V21.3365C339.601 22.0618 339.793 22.6485 340.177 23.0965C340.572 23.5445 341.084 23.7685 341.713 23.7685H343.425C344.054 23.7685 344.561 23.5445 344.945 23.0965C345.34 22.6485 345.537 22.0618 345.537 21.3365V13.8005H347.057V21.3365C347.057 22.0832 346.908 22.7445 346.609 23.3205C346.31 23.8965 345.884 24.3445 345.329 24.6645C344.785 24.9738 344.15 25.1285 343.425 25.1285H341.713ZM349.364 13.8005H354.98C355.844 13.8005 356.537 14.0458 357.06 14.5365C357.593 15.0165 357.86 15.6512 357.86 16.4405V17.5925C357.86 18.1472 357.684 18.6378 357.332 19.0645C356.99 19.4912 356.521 19.8005 355.924 19.9925V20.0085C356.553 20.3818 357.022 21.0645 357.332 22.0565L358.212 25.0005H356.644L355.78 22.1205C355.63 21.6192 355.39 21.2245 355.06 20.9365C354.74 20.6485 354.372 20.5045 353.956 20.5045H350.884V25.0005H349.364V13.8005ZM354.564 19.1605C355.097 19.1605 355.524 19.0165 355.844 18.7285C356.174 18.4405 356.34 18.0618 356.34 17.5925V16.4245C356.34 16.0405 356.212 15.7312 355.956 15.4965C355.7 15.2618 355.364 15.1445 354.948 15.1445H350.884V19.1605H354.564ZM361.127 25.0005C360.753 25.0005 360.455 24.8938 360.231 24.6805C360.017 24.4672 359.911 24.1738 359.911 23.8005V13.8005H367.767V15.1285H361.431V18.6165H367.287V19.9285H361.431V23.6725H367.767V25.0005H361.127ZM370.877 25.0005C370.503 25.0005 370.205 24.8938 369.981 24.6805C369.767 24.4672 369.661 24.1738 369.661 23.8005V13.8005H374.541C375.351 13.8005 376.061 13.9552 376.669 14.2645C377.287 14.5738 377.762 15.0165 378.093 15.5925C378.434 16.1578 378.605 16.8085 378.605 17.5445V20.9365C378.605 22.2698 378.263 23.2832 377.581 23.9765C376.909 24.6592 375.917 25.0005 374.605 25.0005H370.877ZM374.557 23.6405C375.389 23.6405 376.018 23.4112 376.445 22.9525C376.871 22.4938 377.085 21.8112 377.085 20.9045V17.5765C377.085 16.8512 376.845 16.2698 376.365 15.8325C375.895 15.3845 375.271 15.1605 374.493 15.1605H371.181V23.6405H374.557ZM387.903 25.1285C386.869 25.1285 386.042 24.8192 385.423 24.2005C384.805 23.5818 384.495 22.7498 384.495 21.7045H385.983C385.983 22.3338 386.159 22.8352 386.511 23.2085C386.874 23.5818 387.349 23.7685 387.935 23.7685H389.711C390.298 23.7685 390.767 23.6458 391.119 23.4005C391.471 23.1445 391.647 22.8085 391.647 22.3925V21.5285C391.647 21.1978 391.519 20.9205 391.263 20.6965C391.018 20.4725 390.666 20.3232 390.207 20.2485L387.295 19.7685C386.442 19.6298 385.781 19.3365 385.311 18.8885C384.853 18.4405 384.623 17.8805 384.623 17.2085V16.3285C384.623 15.5285 384.927 14.8885 385.535 14.4085C386.154 13.9178 386.965 13.6725 387.967 13.6725H389.775C390.405 13.6725 390.959 13.8058 391.439 14.0725C391.93 14.3285 392.309 14.6965 392.575 15.1765C392.842 15.6458 392.975 16.1898 392.975 16.8085H391.471C391.471 16.2752 391.317 15.8485 391.007 15.5285C390.698 15.1978 390.287 15.0325 389.775 15.0325H387.967C387.423 15.0325 386.981 15.1552 386.639 15.4005C386.309 15.6352 386.143 15.9605 386.143 16.3765V17.0965C386.143 17.4378 386.261 17.7205 386.495 17.9445C386.741 18.1685 387.087 18.3232 387.535 18.4085L390.415 18.9045C391.301 19.0538 391.978 19.3472 392.447 19.7845C392.927 20.2112 393.167 20.7498 393.167 21.4005V22.4405C393.167 23.2512 392.853 23.9018 392.223 24.3925C391.605 24.8832 390.778 25.1285 389.743 25.1285H387.903ZM397.569 15.1285H394.017V13.8005H402.641V15.1285H399.089V25.0005H397.569V15.1285ZM407.292 25.1285C406.513 25.1285 405.825 24.9578 405.228 24.6165C404.641 24.2752 404.182 23.7952 403.852 23.1765C403.532 22.5578 403.372 21.8378 403.372 21.0165V17.7845C403.372 16.9632 403.532 16.2432 403.852 15.6245C404.182 15.0058 404.646 14.5258 405.244 14.1845C405.841 13.8432 406.529 13.6725 407.308 13.6725H409.004C409.782 13.6725 410.465 13.8432 411.052 14.1845C411.649 14.5258 412.108 15.0058 412.428 15.6245C412.758 16.2432 412.924 16.9632 412.924 17.7845V21.0165C412.924 21.8378 412.758 22.5578 412.428 23.1765C412.108 23.7952 411.649 24.2752 411.052 24.6165C410.454 24.9578 409.772 25.1285 409.004 25.1285H407.292ZM408.972 23.7685C409.697 23.7685 410.284 23.5178 410.732 23.0165C411.18 22.5045 411.404 21.8272 411.404 20.9845V17.8165C411.404 16.9738 411.18 16.3018 410.732 15.8005C410.284 15.2885 409.697 15.0325 408.972 15.0325H407.324C406.598 15.0325 406.012 15.2885 405.564 15.8005C405.116 16.3018 404.892 16.9738 404.892 17.8165V20.9845C404.892 21.8272 405.11 22.5045 405.548 23.0165C405.996 23.5178 406.582 23.7685 407.308 23.7685H408.972ZM414.973 13.8005H420.589C421.453 13.8005 422.146 14.0458 422.669 14.5365C423.202 15.0165 423.469 15.6512 423.469 16.4405V17.5925C423.469 18.1472 423.293 18.6378 422.941 19.0645C422.6 19.4912 422.13 19.8005 421.533 19.9925V20.0085C422.162 20.3818 422.632 21.0645 422.941 22.0565L423.821 25.0005H422.253L421.389 22.1205C421.24 21.6192 421 21.2245 420.669 20.9365C420.349 20.6485 419.981 20.5045 419.565 20.5045H416.493V25.0005H414.973V13.8005ZM420.173 19.1605C420.706 19.1605 421.133 19.0165 421.453 18.7285C421.784 18.4405 421.949 18.0618 421.949 17.5925V16.4245C421.949 16.0405 421.821 15.7312 421.565 15.4965C421.309 15.2618 420.973 15.1445 420.557 15.1445H416.493V19.1605H420.173ZM425.68 13.8005H427.2V25.0005H425.68V13.8005ZM430.939 25.0005C430.566 25.0005 430.267 24.8938 430.043 24.6805C429.83 24.4672 429.723 24.1738 429.723 23.8005V13.8005H437.579V15.1285H431.243V18.6165H437.099V19.9285H431.243V23.6725H437.579V25.0005H430.939ZM442.497 25.1285C441.462 25.1285 440.636 24.8192 440.017 24.2005C439.398 23.5818 439.089 22.7498 439.089 21.7045H440.577C440.577 22.3338 440.753 22.8352 441.105 23.2085C441.468 23.5818 441.942 23.7685 442.529 23.7685H444.305C444.892 23.7685 445.361 23.6458 445.713 23.4005C446.065 23.1445 446.241 22.8085 446.241 22.3925V21.5285C446.241 21.1978 446.113 20.9205 445.857 20.6965C445.612 20.4725 445.26 20.3232 444.801 20.2485L441.889 19.7685C441.036 19.6298 440.374 19.3365 439.905 18.8885C439.446 18.4405 439.217 17.8805 439.217 17.2085V16.3285C439.217 15.5285 439.521 14.8885 440.129 14.4085C440.748 13.9178 441.558 13.6725 442.561 13.6725H444.369C444.998 13.6725 445.553 13.8058 446.033 14.0725C446.524 14.3285 446.902 14.6965 447.169 15.1765C447.436 15.6458 447.569 16.1898 447.569 16.8085H446.065C446.065 16.2752 445.91 15.8485 445.601 15.5285C445.292 15.1978 444.881 15.0325 444.369 15.0325H442.561C442.017 15.0325 441.574 15.1552 441.233 15.4005C440.902 15.6352 440.737 15.9605 440.737 16.3765V17.0965C440.737 17.4378 440.854 17.7205 441.089 17.9445C441.334 18.1685 441.681 18.3232 442.129 18.4085L445.009 18.9045C445.894 19.0538 446.572 19.3472 447.041 19.7845C447.521 20.2112 447.761 20.7498 447.761 21.4005V22.4405C447.761 23.2512 447.446 23.9018 446.817 24.3925C446.198 24.8832 445.372 25.1285 444.337 25.1285H442.497Z" fill="#093BAA"/>
<path d="M14.0345 97.3685C11.7959 97.3685 9.81788 96.8778 8.10055 95.8965C6.41388 94.9152 5.09521 93.5352 4.14455 91.7565C3.22455 89.9778 2.76455 87.9078 2.76455 85.5465V76.2545C2.76455 73.8932 3.22455 71.8232 4.14455 70.0445C5.09521 68.2658 6.42921 66.8858 8.14655 65.9045C9.86388 64.9232 11.8419 64.4325 14.0805 64.4325H18.9565C21.1952 64.4325 23.1579 64.9232 24.8445 65.9045C26.5619 66.8858 27.8805 68.2658 28.8005 70.0445C29.7512 71.8232 30.2265 73.8932 30.2265 76.2545V85.5465C30.2265 87.9078 29.7512 89.9778 28.8005 91.7565C27.8805 93.5352 26.5619 94.9152 24.8445 95.8965C23.1272 96.8778 21.1645 97.3685 18.9565 97.3685H14.0345ZM18.8645 93.4585C20.9499 93.4585 22.6365 92.7378 23.9245 91.2965C25.2125 89.8245 25.8566 87.8772 25.8566 85.4545V76.3465C25.8566 73.9238 25.2125 71.9918 23.9245 70.5505C22.6365 69.0785 20.9499 68.3425 18.8645 68.3425H14.1265C12.0412 68.3425 10.3545 69.0785 9.06655 70.5505C7.77855 71.9918 7.13455 73.9238 7.13455 76.3465V85.4545C7.13455 87.8772 7.76322 89.8245 9.02055 91.2965C10.3085 92.7378 11.9952 93.4585 14.0805 93.4585H18.8645ZM43.2941 97.0005C42.5581 97.0005 41.9295 96.8012 41.4081 96.4025C40.9175 95.9732 40.5035 95.3138 40.1661 94.4245L32.2541 74.0465H36.7621L43.2941 92.1705H43.3861L49.9181 74.0465H54.4261L45.4101 97.0005H43.2941ZM64.6949 97.3685C61.9963 97.3685 59.8189 96.6018 58.1629 95.0685C56.5376 93.5045 55.7249 91.4652 55.7249 88.9505V82.6025C55.7249 79.9038 56.5376 77.7418 58.1629 76.1165C59.8189 74.4912 61.9963 73.6785 64.6949 73.6785H68.4669C71.0736 73.6785 73.1743 74.4758 74.7689 76.0705C76.3636 77.6652 77.1609 79.7812 77.1609 82.4185V86.7425H60.0029V88.9505C60.0029 90.3612 60.4323 91.4958 61.2909 92.3545C62.1496 93.2132 63.2843 93.6425 64.6949 93.6425H68.2369C69.6169 93.6425 70.7363 93.2898 71.5949 92.5845C72.4536 91.8485 72.8829 90.8825 72.8829 89.6865H77.0689C77.0689 91.9865 76.2563 93.8418 74.6309 95.2525C73.0056 96.6632 70.8589 97.3685 68.1909 97.3685H64.6949ZM72.8829 83.3385V82.4185C72.8829 80.8852 72.4689 79.6585 71.6409 78.7385C70.8436 77.8185 69.7856 77.3585 68.4669 77.3585H64.6949C63.2843 77.3585 62.1496 77.8492 61.2909 78.8305C60.4323 79.7812 60.0029 81.0538 60.0029 82.6485V83.3385H72.8829ZM81.5101 74.0465H85.6041V77.4045C86.2174 76.3925 87.1067 75.5645 88.2721 74.9205C89.4681 74.2765 90.7101 73.9545 91.9981 73.9545H94.3901V77.7725H91.9981C90.1274 77.7725 88.6247 78.3552 87.4901 79.5205C86.3554 80.6552 85.7881 82.1578 85.7881 84.0285V97.0005H81.5101V74.0465ZM435.419 64.8005H439.697V76.9445C440.402 75.9632 441.292 75.1812 442.365 74.5985C443.438 73.9852 444.496 73.6785 445.539 73.6785H448.667C450.875 73.6785 452.654 74.4145 454.003 75.8865C455.383 77.3585 456.073 79.2905 456.073 81.6825V97.0005H451.795V81.6825C451.795 80.4252 451.473 79.4132 450.829 78.6465C450.185 77.8492 449.342 77.4505 448.299 77.4505H445.355C444.036 77.4505 442.84 77.9565 441.767 78.9685C440.694 79.9498 440.004 81.2378 439.697 82.8325V97.0005H435.419V64.8005ZM468.171 97.3685C465.871 97.3685 464.031 96.7858 462.651 95.6205C461.271 94.4245 460.581 92.8452 460.581 90.8825V89.3645C460.581 87.4325 461.302 85.8838 462.743 84.7185C464.185 83.5225 466.071 82.9245 468.401 82.9245H471.299C472.219 82.9245 473.201 83.0625 474.243 83.3385C475.286 83.6145 476.175 83.9978 476.911 84.4885V81.1305C476.911 79.9958 476.559 79.0912 475.853 78.4165C475.148 77.7112 474.228 77.3585 473.093 77.3585H469.321C468.156 77.3585 467.221 77.6345 466.515 78.1865C465.81 78.7385 465.457 79.4592 465.457 80.3485H461.225C461.225 78.3552 461.961 76.7452 463.433 75.5185C464.936 74.2918 466.899 73.6785 469.321 73.6785H473.093C475.516 73.6785 477.463 74.3685 478.935 75.7485C480.407 77.0978 481.143 78.8918 481.143 81.1305V97.0005H477.141V93.9185C476.436 94.9612 475.516 95.8045 474.381 96.4485C473.247 97.0618 472.097 97.3685 470.931 97.3685H468.171ZM471.161 93.8265C472.511 93.8265 473.707 93.4432 474.749 92.6765C475.792 91.8792 476.513 90.8212 476.911 89.5025V88.1225C476.329 87.6012 475.531 87.1872 474.519 86.8805C473.507 86.5738 472.465 86.4205 471.391 86.4205H468.447C467.374 86.4205 466.5 86.6965 465.825 87.2485C465.151 87.8005 464.813 88.5365 464.813 89.4565V90.8365C464.813 91.7565 465.135 92.4925 465.779 93.0445C466.454 93.5658 467.343 93.8265 468.447 93.8265H471.161ZM494.507 97.0005C493.771 97.0005 493.143 96.8012 492.621 96.4025C492.131 95.9732 491.717 95.3138 491.379 94.4245L483.467 74.0465H487.975L494.507 92.1705H494.599L501.131 74.0465H505.639L496.623 97.0005H494.507ZM515.908 97.3685C513.21 97.3685 511.032 96.6018 509.376 95.0685C507.751 93.5045 506.938 91.4652 506.938 88.9505V82.6025C506.938 79.9038 507.751 77.7418 509.376 76.1165C511.032 74.4912 513.21 73.6785 515.908 73.6785H519.68C522.287 73.6785 524.388 74.4758 525.982 76.0705C527.577 77.6652 528.374 79.7812 528.374 82.4185V86.7425H511.216V88.9505C511.216 90.3612 511.646 91.4958 512.504 92.3545C513.363 93.2132 514.498 93.6425 515.908 93.6425H519.45C520.83 93.6425 521.95 93.2898 522.808 92.5845C523.667 91.8485 524.096 90.8825 524.096 89.6865H528.282C528.282 91.9865 527.47 93.8418 525.844 95.2525C524.219 96.6632 522.072 97.3685 519.404 97.3685H515.908ZM524.096 83.3385V82.4185C524.096 80.8852 523.682 79.6585 522.854 78.7385C522.057 77.8185 520.999 77.3585 519.68 77.3585H515.908C514.498 77.3585 513.363 77.8492 512.504 78.8305C511.646 79.7812 511.216 81.0538 511.216 82.6485V83.3385H524.096ZM553.909 97.3685C552.897 97.3685 551.854 97.0618 550.781 96.4485C549.708 95.8045 548.864 95.0072 548.251 94.0565V97.0005H544.157V64.8005H548.435V76.4385C549.11 75.6105 549.953 74.9512 550.965 74.4605C551.977 73.9392 552.989 73.6785 554.001 73.6785H557.267C558.892 73.6785 560.334 74.0465 561.591 74.7825C562.879 75.5185 563.876 76.5458 564.581 77.8645C565.286 79.1832 565.639 80.7165 565.639 82.4645V88.1685C565.639 89.9778 565.271 91.5878 564.535 92.9985C563.83 94.3785 562.833 95.4518 561.545 96.2185C560.257 96.9852 558.77 97.3685 557.083 97.3685H553.909ZM556.807 93.5965C558.156 93.5965 559.245 93.0905 560.073 92.0785C560.901 91.0358 561.315 89.6712 561.315 87.9845V82.6025C561.315 81.0692 560.901 79.8272 560.073 78.8765C559.276 77.9258 558.233 77.4505 556.945 77.4505H553.955C552.483 77.4505 551.226 77.9872 550.183 79.0605C549.14 80.1338 548.558 81.5292 548.435 83.2465V88.3065C548.558 89.7785 549.14 91.0358 550.183 92.0785C551.226 93.0905 552.406 93.5965 553.725 93.5965H556.807ZM578.285 97.3685C575.586 97.3685 573.409 96.6018 571.753 95.0685C570.128 93.5045 569.315 91.4652 569.315 88.9505V82.6025C569.315 79.9038 570.128 77.7418 571.753 76.1165C573.409 74.4912 575.586 73.6785 578.285 73.6785H582.057C584.664 73.6785 586.764 74.4758 588.359 76.0705C589.954 77.6652 590.751 79.7812 590.751 82.4185V86.7425H573.593V88.9505C573.593 90.3612 574.022 91.4958 574.881 92.3545C575.74 93.2132 576.874 93.6425 578.285 93.6425H581.827C583.207 93.6425 584.326 93.2898 585.185 92.5845C586.044 91.8485 586.473 90.8825 586.473 89.6865H590.659C590.659 91.9865 589.846 93.8418 588.221 95.2525C586.596 96.6632 584.449 97.3685 581.781 97.3685H578.285ZM586.473 83.3385V82.4185C586.473 80.8852 586.059 79.6585 585.231 78.7385C584.434 77.8185 583.376 77.3585 582.057 77.3585H578.285C576.874 77.3585 575.74 77.8492 574.881 78.8305C574.022 79.7812 573.593 81.0538 573.593 82.6485V83.3385H586.473ZM595.1 74.0465H599.194V77.2205C599.869 76.1778 600.758 75.3345 601.862 74.6905C602.997 74.0158 604.116 73.6785 605.22 73.6785H608.256C610.464 73.6785 612.243 74.4145 613.592 75.8865C614.972 77.3585 615.662 79.2905 615.662 81.6825V97.0005H611.384V81.6825C611.384 80.4252 611.062 79.4132 610.418 78.6465C609.774 77.8492 608.931 77.4505 607.888 77.4505H605.036C603.717 77.4505 602.521 77.9565 601.448 78.9685C600.375 79.9805 599.685 81.2992 599.378 82.9245V97.0005H595.1V74.0465ZM628.959 97.3685C626.26 97.3685 624.083 96.6018 622.427 95.0685C620.801 93.5045 619.989 91.4652 619.989 88.9505V82.6025C619.989 79.9038 620.801 77.7418 622.427 76.1165C624.083 74.4912 626.26 73.6785 628.959 73.6785H632.731C635.337 73.6785 637.438 74.4758 639.033 76.0705C640.627 77.6652 641.425 79.7812 641.425 82.4185V86.7425H624.267V88.9505C624.267 90.3612 624.696 91.4958 625.555 92.3545C626.413 93.2132 627.548 93.6425 628.959 93.6425H632.501C633.881 93.6425 635 93.2898 635.859 92.5845C636.717 91.8485 637.147 90.8825 637.147 89.6865H641.333C641.333 91.9865 640.52 93.8418 638.895 95.2525C637.269 96.6632 635.123 97.3685 632.455 97.3685H628.959ZM637.147 83.3385V82.4185C637.147 80.8852 636.733 79.6585 635.905 78.7385C635.107 77.8185 634.049 77.3585 632.731 77.3585H628.959C627.548 77.3585 626.413 77.8492 625.555 78.8305C624.696 79.7812 624.267 81.0538 624.267 82.6485V83.3385H637.147ZM665.784 97.0005H661.506V77.7265H652.306V97.0005H648.028V77.7265H644.072V74.0005H648.028V72.3445C648.028 69.8298 648.718 67.9132 650.098 66.5945C651.478 65.2758 653.471 64.6165 656.078 64.6165H662.334V68.2965H656.078C654.79 68.2965 653.839 68.6338 653.226 69.3085C652.612 69.9525 652.306 70.9798 652.306 72.3905V74.0005H665.784V97.0005ZM680.651 97.0005C678.136 97.0005 676.311 96.4485 675.177 95.3445C674.073 94.2405 673.521 92.4618 673.521 90.0085V77.7725H669.473V74.0465H673.567V67.1005H677.799V74.0465H683.779V77.7725H677.799V89.9165C677.799 91.1125 678.029 91.9712 678.489 92.4925C678.979 93.0138 679.761 93.2745 680.835 93.2745H683.779V97.0005H680.651ZM695.693 97.3685C692.994 97.3685 690.817 96.6018 689.161 95.0685C687.535 93.5045 686.723 91.4652 686.723 88.9505V82.6025C686.723 79.9038 687.535 77.7418 689.161 76.1165C690.817 74.4912 692.994 73.6785 695.693 73.6785H699.465C702.071 73.6785 704.172 74.4758 705.767 76.0705C707.361 77.6652 708.159 79.7812 708.159 82.4185V86.7425H691.001V88.9505C691.001 90.3612 691.43 91.4958 692.289 92.3545C693.147 93.2132 694.282 93.6425 695.693 93.6425H699.235C700.615 93.6425 701.734 93.2898 702.593 92.5845C703.451 91.8485 703.881 90.8825 703.881 89.6865H708.067C708.067 91.9865 707.254 93.8418 705.629 95.2525C704.003 96.6632 701.857 97.3685 699.189 97.3685H695.693ZM703.881 83.3385V82.4185C703.881 80.8852 703.467 79.6585 702.639 78.7385C701.841 77.8185 700.783 77.3585 699.465 77.3585H695.693C694.282 77.3585 693.147 77.8492 692.289 78.8305C691.43 79.7812 691.001 81.0538 691.001 82.6485V83.3385H703.881ZM720.006 97.3685C717.491 97.3685 715.452 96.5558 713.888 94.9305C712.355 93.3052 711.588 91.1585 711.588 88.4905V83.0625C711.588 81.2225 711.956 79.5972 712.692 78.1865C713.428 76.7452 714.455 75.6412 715.774 74.8745C717.123 74.0772 718.672 73.6785 720.42 73.6785H723.548C724.529 73.6785 725.495 73.9085 726.446 74.3685C727.397 74.8285 728.163 75.4418 728.746 76.2085V64.8005H733.07V97.0005H728.976V93.7345C728.301 94.8078 727.412 95.6818 726.308 96.3565C725.204 97.0312 724.1 97.3685 722.996 97.3685H720.006ZM723.18 93.5965C724.621 93.5965 725.879 93.0138 726.952 91.8485C728.025 90.6525 728.623 89.2418 728.746 87.6165V82.4185C728.531 80.9158 727.964 79.7198 727.044 78.8305C726.155 77.9105 725.081 77.4505 723.824 77.4505H720.742C719.301 77.4505 718.12 77.9872 717.2 79.0605C716.311 80.1032 715.866 81.4985 715.866 83.2465V88.3525C715.866 89.9165 716.28 91.1892 717.108 92.1705C717.967 93.1212 719.04 93.5965 720.328 93.5965H723.18ZM160.056 137.772H156.1V134.046H160.056V132.344C160.056 129.83 160.746 127.913 162.126 126.594C163.506 125.276 165.499 124.616 168.106 124.616H170.36V128.296H168.106C166.818 128.296 165.867 128.634 165.254 129.308C164.64 129.952 164.334 130.98 164.334 132.39V134.046H169.854V137.772H164.334V157H160.056V137.772ZM173.728 134.046H177.822V137.404C178.435 136.392 179.324 135.564 180.49 134.92C181.686 134.276 182.928 133.954 184.216 133.954H186.608V137.772H184.216C182.345 137.772 180.842 138.355 179.708 139.52C178.573 140.655 178.006 142.158 178.006 144.028V157H173.728V134.046ZM196.895 157.368C194.196 157.368 192.019 156.556 190.363 154.93C188.737 153.305 187.925 151.174 187.925 148.536V142.556C187.925 139.888 188.753 137.742 190.409 136.116C192.065 134.491 194.257 133.678 196.987 133.678H200.851C203.58 133.678 205.773 134.491 207.429 136.116C209.085 137.742 209.913 139.888 209.913 142.556V148.536C209.913 151.174 209.069 153.305 207.383 154.93C205.727 156.556 203.534 157.368 200.805 157.368H196.895ZM200.759 153.596C202.231 153.596 203.411 153.121 204.301 152.17C205.19 151.22 205.635 149.947 205.635 148.352V142.694C205.635 141.1 205.19 139.827 204.301 138.876C203.442 137.926 202.292 137.45 200.851 137.45H196.987C195.545 137.45 194.38 137.926 193.491 138.876C192.632 139.827 192.203 141.1 192.203 142.694V148.352C192.203 149.947 192.632 151.22 193.491 152.17C194.349 153.121 195.499 153.596 196.941 153.596H200.759ZM240.048 133.678C242.164 133.678 243.851 134.368 245.108 135.748C246.366 137.098 246.994 138.953 246.994 141.314V157H242.716V141.268C242.716 140.103 242.44 139.183 241.888 138.508C241.336 137.803 240.616 137.45 239.726 137.45H237.334C236.169 137.45 235.188 137.864 234.39 138.692C233.624 139.49 233.133 140.594 232.918 142.004V157H228.594V141.452C228.594 140.195 228.334 139.214 227.812 138.508C227.322 137.803 226.647 137.45 225.788 137.45H223.442C222.277 137.45 221.265 137.956 220.406 138.968C219.548 139.95 219.011 141.253 218.796 142.878V157H214.518V134.046H218.612V137.128C219.226 136.055 219.977 135.212 220.866 134.598C221.786 133.985 222.722 133.678 223.672 133.678H226.34C227.567 133.678 228.625 133.985 229.514 134.598C230.434 135.212 231.155 136.086 231.676 137.22C232.351 136.055 233.179 135.181 234.16 134.598C235.142 133.985 236.2 133.678 237.334 133.678H240.048ZM271.761 128.618H261.549V124.8H286.343V128.618H276.131V157H271.761V128.618ZM291.52 131.01C290.631 131.01 289.91 130.75 289.358 130.228C288.806 129.676 288.53 128.971 288.53 128.112C288.53 127.254 288.806 126.564 289.358 126.042C289.91 125.49 290.631 125.214 291.52 125.214C292.409 125.214 293.115 125.49 293.636 126.042C294.188 126.564 294.464 127.254 294.464 128.112C294.464 128.971 294.188 129.676 293.636 130.228C293.115 130.75 292.409 131.01 291.52 131.01ZM289.358 134.046H293.636V157H289.358V134.046ZM325.493 133.678C327.609 133.678 329.296 134.368 330.553 135.748C331.811 137.098 332.439 138.953 332.439 141.314V157H328.161V141.268C328.161 140.103 327.885 139.183 327.333 138.508C326.781 137.803 326.061 137.45 325.171 137.45H322.779C321.614 137.45 320.633 137.864 319.835 138.692C319.069 139.49 318.578 140.594 318.363 142.004V157H314.039V141.452C314.039 140.195 313.779 139.214 313.257 138.508C312.767 137.803 312.092 137.45 311.233 137.45H308.887C307.722 137.45 306.71 137.956 305.851 138.968C304.993 139.95 304.456 141.253 304.241 142.878V157H299.963V134.046H304.057V137.128C304.671 136.055 305.422 135.212 306.311 134.598C307.231 133.985 308.167 133.678 309.117 133.678H311.785C313.012 133.678 314.07 133.985 314.959 134.598C315.879 135.212 316.6 136.086 317.121 137.22C317.796 136.055 318.624 135.181 319.605 134.598C320.587 133.985 321.645 133.678 322.779 133.678H325.493ZM345.726 157.368C343.028 157.368 340.85 156.602 339.194 155.068C337.569 153.504 336.756 151.465 336.756 148.95V142.602C336.756 139.904 337.569 137.742 339.194 136.116C340.85 134.491 343.028 133.678 345.726 133.678H349.498C352.105 133.678 354.206 134.476 355.8 136.07C357.395 137.665 358.192 139.781 358.192 142.418V146.742H341.034V148.95C341.034 150.361 341.464 151.496 342.322 152.354C343.181 153.213 344.316 153.642 345.726 153.642H349.268C350.648 153.642 351.768 153.29 352.626 152.584C353.485 151.848 353.914 150.882 353.914 149.686H358.1C358.1 151.986 357.288 153.842 355.662 155.252C354.037 156.663 351.89 157.368 349.222 157.368H345.726ZM353.914 143.338V142.418C353.914 140.885 353.5 139.658 352.672 138.738C351.875 137.818 350.817 137.358 349.498 137.358H345.726C344.316 137.358 343.181 137.849 342.322 138.83C341.464 139.781 341.034 141.054 341.034 142.648V143.338H353.914ZM370.453 157.368C367.816 157.368 365.685 156.586 364.059 155.022C362.434 153.428 361.621 151.342 361.621 148.766V142.602C361.621 139.904 362.419 137.742 364.013 136.116C365.639 134.491 367.77 133.678 370.407 133.678H374.133C376.648 133.678 378.672 134.384 380.205 135.794C381.739 137.205 382.505 139.076 382.505 141.406H378.273C378.273 140.21 377.89 139.26 377.123 138.554C376.387 137.818 375.391 137.45 374.133 137.45H370.453C369.104 137.45 368 137.941 367.141 138.922C366.313 139.873 365.899 141.146 365.899 142.74V148.628C365.899 150.131 366.329 151.342 367.187 152.262C368.046 153.152 369.15 153.596 370.499 153.596H374.179C375.467 153.596 376.495 153.152 377.261 152.262C378.059 151.342 378.457 150.131 378.457 148.628H382.689C382.689 151.235 381.907 153.351 380.343 154.976C378.779 156.571 376.725 157.368 374.179 157.368H370.453ZM386.643 124.8H390.921V136.944C391.626 135.963 392.515 135.181 393.589 134.598C394.662 133.985 395.72 133.678 396.763 133.678H399.891C402.099 133.678 403.877 134.414 405.227 135.886C406.607 137.358 407.297 139.29 407.297 141.682V157H403.019V141.682C403.019 140.425 402.697 139.413 402.053 138.646C401.409 137.849 400.565 137.45 399.523 137.45H396.579C395.26 137.45 394.064 137.956 392.991 138.968C391.917 139.95 391.227 141.238 390.921 142.832V157H386.643V124.8ZM419.395 157.368C417.095 157.368 415.255 156.786 413.875 155.62C412.495 154.424 411.805 152.845 411.805 150.882V149.364C411.805 147.432 412.526 145.884 413.967 144.718C415.409 143.522 417.295 142.924 419.625 142.924H422.523C423.443 142.924 424.425 143.062 425.467 143.338C426.51 143.614 427.399 143.998 428.135 144.488V141.13C428.135 139.996 427.783 139.091 427.077 138.416C426.372 137.711 425.452 137.358 424.317 137.358H420.545C419.38 137.358 418.445 137.634 417.739 138.186C417.034 138.738 416.681 139.459 416.681 140.348H412.449C412.449 138.355 413.185 136.745 414.657 135.518C416.16 134.292 418.123 133.678 420.545 133.678H424.317C426.74 133.678 428.687 134.368 430.159 135.748C431.631 137.098 432.367 138.892 432.367 141.13V157H428.365V153.918C427.66 154.961 426.74 155.804 425.605 156.448C424.471 157.062 423.321 157.368 422.155 157.368H419.395ZM422.385 153.826C423.735 153.826 424.931 153.443 425.973 152.676C427.016 151.879 427.737 150.821 428.135 149.502V148.122C427.553 147.601 426.755 147.187 425.743 146.88C424.731 146.574 423.689 146.42 422.615 146.42H419.671C418.598 146.42 417.724 146.696 417.049 147.248C416.375 147.8 416.037 148.536 416.037 149.456V150.836C416.037 151.756 416.359 152.492 417.003 153.044C417.678 153.566 418.567 153.826 419.671 153.826H422.385ZM440.621 131.01C439.732 131.01 439.011 130.75 438.459 130.228C437.907 129.676 437.631 128.971 437.631 128.112C437.631 127.254 437.907 126.564 438.459 126.042C439.011 125.49 439.732 125.214 440.621 125.214C441.51 125.214 442.216 125.49 442.737 126.042C443.289 126.564 443.565 127.254 443.565 128.112C443.565 128.971 443.289 129.676 442.737 130.228C442.216 130.75 441.51 131.01 440.621 131.01ZM438.459 134.046H442.737V157H438.459V134.046ZM449.064 134.046H453.158V137.22C453.833 136.178 454.722 135.334 455.826 134.69C456.961 134.016 458.08 133.678 459.184 133.678H462.22C464.428 133.678 466.207 134.414 467.556 135.886C468.936 137.358 469.626 139.29 469.626 141.682V157H465.348V141.682C465.348 140.425 465.026 139.413 464.382 138.646C463.738 137.849 462.895 137.45 461.852 137.45H459C457.682 137.45 456.486 137.956 455.412 138.968C454.339 139.98 453.649 141.299 453.342 142.924V157H449.064V134.046ZM489.986 157C488.913 157 488.054 156.694 487.41 156.08C486.797 155.467 486.49 154.639 486.49 153.596V124.8H490.86V153.136H508.34V157H489.986ZM518.43 157.368C516.13 157.368 514.29 156.786 512.91 155.62C511.53 154.424 510.84 152.845 510.84 150.882V149.364C510.84 147.432 511.561 145.884 513.002 144.718C514.443 143.522 516.329 142.924 518.66 142.924H521.558C522.478 142.924 523.459 143.062 524.502 143.338C525.545 143.614 526.434 143.998 527.17 144.488V141.13C527.17 139.996 526.817 139.091 526.112 138.416C525.407 137.711 524.487 137.358 523.352 137.358H519.58C518.415 137.358 517.479 137.634 516.774 138.186C516.069 138.738 515.716 139.459 515.716 140.348H511.484C511.484 138.355 512.22 136.745 513.692 135.518C515.195 134.292 517.157 133.678 519.58 133.678H523.352C525.775 133.678 527.722 134.368 529.194 135.748C530.666 137.098 531.402 138.892 531.402 141.13V157H527.4V153.918C526.695 154.961 525.775 155.804 524.64 156.448C523.505 157.062 522.355 157.368 521.19 157.368H518.43ZM521.42 153.826C522.769 153.826 523.965 153.443 525.008 152.676C526.051 151.879 526.771 150.821 527.17 149.502V148.122C526.587 147.601 525.79 147.187 524.778 146.88C523.766 146.574 522.723 146.42 521.65 146.42H518.706C517.633 146.42 516.759 146.696 516.084 147.248C515.409 147.8 515.072 148.536 515.072 149.456V150.836C515.072 151.756 515.394 152.492 516.038 153.044C516.713 153.566 517.602 153.826 518.706 153.826H521.42ZM546.418 157.368C545.406 157.368 544.363 157.062 543.29 156.448C542.216 155.804 541.373 155.007 540.76 154.056V157H536.666V124.8H540.944V136.438C541.618 135.61 542.462 134.951 543.474 134.46C544.486 133.939 545.498 133.678 546.51 133.678H549.776C551.401 133.678 552.842 134.046 554.1 134.782C555.388 135.518 556.384 136.546 557.09 137.864C557.795 139.183 558.148 140.716 558.148 142.464V148.168C558.148 149.978 557.78 151.588 557.044 152.998C556.338 154.378 555.342 155.452 554.054 156.218C552.766 156.985 551.278 157.368 549.592 157.368H546.418ZM549.316 153.596C550.665 153.596 551.754 153.09 552.582 152.078C553.41 151.036 553.824 149.671 553.824 147.984V142.602C553.824 141.069 553.41 139.827 552.582 138.876C551.784 137.926 550.742 137.45 549.454 137.45H546.464C544.992 137.45 543.734 137.987 542.692 139.06C541.649 140.134 541.066 141.529 540.944 143.246V148.306C541.066 149.778 541.649 151.036 542.692 152.078C543.734 153.09 544.915 153.596 546.234 153.596H549.316ZM569.828 157.368C567.344 157.368 565.35 156.694 563.848 155.344C562.345 153.964 561.594 152.155 561.594 149.916H565.78C565.78 151.051 566.148 151.971 566.884 152.676C567.62 153.382 568.601 153.734 569.828 153.734H573.876C575.041 153.734 575.976 153.52 576.682 153.09C577.387 152.63 577.74 152.032 577.74 151.296V149.962C577.74 149.472 577.525 149.042 577.096 148.674C576.697 148.276 576.176 148.015 575.532 147.892L567.574 146.512C565.887 146.206 564.538 145.577 563.526 144.626C562.514 143.645 562.008 142.51 562.008 141.222V139.704C562.008 137.895 562.728 136.438 564.17 135.334C565.611 134.23 567.543 133.678 569.966 133.678H573.83C576.13 133.678 577.97 134.307 579.35 135.564C580.76 136.822 581.466 138.493 581.466 140.578H577.28C577.249 139.597 576.912 138.815 576.268 138.232C575.654 137.619 574.842 137.312 573.83 137.312H570.012C568.877 137.312 567.972 137.542 567.298 138.002C566.654 138.462 566.332 139.076 566.332 139.842V140.992C566.332 141.483 566.546 141.912 566.976 142.28C567.405 142.648 567.957 142.909 568.632 143.062L576.682 144.488C578.276 144.764 579.564 145.378 580.546 146.328C581.558 147.279 582.064 148.383 582.064 149.64V151.434C582.064 153.213 581.312 154.654 579.81 155.758C578.307 156.832 576.329 157.368 573.876 157.368H569.828ZM588.194 157.46C587.336 157.46 586.63 157.2 586.078 156.678C585.557 156.126 585.296 155.421 585.296 154.562C585.296 153.704 585.557 152.998 586.078 152.446C586.63 151.894 587.336 151.618 588.194 151.618C589.084 151.618 589.789 151.894 590.31 152.446C590.862 152.968 591.138 153.673 591.138 154.562C591.138 155.421 590.862 156.126 590.31 156.678C589.758 157.2 589.053 157.46 588.194 157.46Z" fill="#333333"/>
<path d="M123.085 90.8365H109.975C108.687 90.8365 107.691 90.5605 106.985 90.0085C106.28 89.4565 105.927 88.6592 105.927 87.6165V86.3285L123.039 64.8005H129.433V85.2245H133.481V90.8365H129.433V97.0005H123.085V90.8365ZM123.269 85.5005V72.7585H123.223L113.149 85.5005H123.269ZM146.366 97.3685C144.219 97.3685 142.318 96.9085 140.662 95.9885C139.006 95.0378 137.718 93.7038 136.798 91.9865C135.878 90.2692 135.418 88.2912 135.418 86.0525V75.7485C135.418 73.5098 135.862 71.5318 136.752 69.8145C137.672 68.0972 138.96 66.7785 140.616 65.8585C142.272 64.9078 144.188 64.4325 146.366 64.4325H151.242C153.358 64.4325 155.228 64.9078 156.854 65.8585C158.479 66.7785 159.736 68.0972 160.626 69.8145C161.546 71.5318 162.006 73.5098 162.006 75.7485V86.0525C162.006 88.2912 161.561 90.2692 160.672 91.9865C159.782 93.7038 158.525 95.0378 156.9 95.9885C155.274 96.9085 153.388 97.3685 151.242 97.3685H146.366ZM151.15 91.7565C152.499 91.7565 153.572 91.2505 154.37 90.2385C155.198 89.1958 155.612 87.8312 155.612 86.1445V75.6565C155.612 73.9698 155.198 72.6205 154.37 71.6085C153.572 70.5658 152.499 70.0445 151.15 70.0445H146.458C145.047 70.0445 143.912 70.5658 143.054 71.6085C142.195 72.6205 141.766 73.9698 141.766 75.6565V86.1445C141.766 87.8312 142.195 89.1958 143.054 90.2385C143.912 91.2505 145.047 91.7565 146.458 91.7565H151.15ZM176.442 97.3685C174.295 97.3685 172.394 96.9085 170.738 95.9885C169.082 95.0378 167.794 93.7038 166.874 91.9865C165.954 90.2692 165.494 88.2912 165.494 86.0525V75.7485C165.494 73.5098 165.939 71.5318 166.828 69.8145C167.748 68.0972 169.036 66.7785 170.692 65.8585C172.348 64.9078 174.265 64.4325 176.442 64.4325H181.318C183.434 64.4325 185.305 64.9078 186.93 65.8585C188.555 66.7785 189.813 68.0972 190.702 69.8145C191.622 71.5318 192.082 73.5098 192.082 75.7485V86.0525C192.082 88.2912 191.637 90.2692 190.748 91.9865C189.859 93.7038 188.601 95.0378 186.976 95.9885C185.351 96.9085 183.465 97.3685 181.318 97.3685H176.442ZM181.226 91.7565C182.575 91.7565 183.649 91.2505 184.446 90.2385C185.274 89.1958 185.688 87.8312 185.688 86.1445V75.6565C185.688 73.9698 185.274 72.6205 184.446 71.6085C183.649 70.5658 182.575 70.0445 181.226 70.0445H176.534C175.123 70.0445 173.989 70.5658 173.13 71.6085C172.271 72.6205 171.842 73.9698 171.842 75.6565V86.1445C171.842 87.8312 172.271 89.1958 173.13 90.2385C173.989 91.2505 175.123 91.7565 176.534 91.7565H181.226ZM203.482 84.8105H195.11V79.3825H203.482V71.0105H209.738V79.3825H218.11V84.8105H209.738V93.1825H203.482V84.8105ZM242.088 97.3685C239.297 97.3685 237.058 96.6325 235.372 95.1605C233.685 93.6885 232.842 91.7565 232.842 89.3645H239.006C239.006 90.1925 239.282 90.8672 239.834 91.3885C240.416 91.8792 241.168 92.1245 242.088 92.1245H246.228C248.068 92.1245 248.988 91.6185 248.988 90.6065V89.8245C248.988 89.5178 248.834 89.2418 248.528 88.9965C248.221 88.7205 247.807 88.5365 247.286 88.4445L239.328 87.0645C237.457 86.7578 235.97 86.0985 234.866 85.0865C233.792 84.0438 233.256 82.8325 233.256 81.4525V79.9345C233.256 77.9718 234.053 76.4385 235.648 75.3345C237.273 74.2305 239.527 73.6785 242.41 73.6785H245.998C248.574 73.6785 250.644 74.3685 252.208 75.7485C253.802 77.0978 254.6 78.8918 254.6 81.1305H248.436C248.436 80.4558 248.206 79.9192 247.746 79.5205C247.316 79.1218 246.734 78.9225 245.998 78.9225H242.502C240.508 78.9225 239.512 79.3825 239.512 80.3025V81.0385C239.512 81.3758 239.634 81.6672 239.88 81.9125C240.156 82.1272 240.539 82.2805 241.03 82.3725L249.402 83.8905C251.15 84.1972 252.56 84.8565 253.634 85.8685C254.707 86.8498 255.244 87.9692 255.244 89.2265V90.8825C255.244 92.8758 254.416 94.4552 252.76 95.6205C251.134 96.7858 248.957 97.3685 246.228 97.3685H242.088ZM268.03 97.0005C265.332 97.0005 263.354 96.3872 262.096 95.1605C260.839 93.9338 260.21 92.0325 260.21 89.4565V79.3825H256.162V74.0465H260.394V67.1005H266.466V74.0465H272.446V79.3825H266.466V89.1805C266.466 90.0392 266.62 90.6678 266.926 91.0665C267.264 91.4652 267.785 91.6645 268.49 91.6645H272.446V97.0005H268.03ZM283.454 97.3685C281.031 97.3685 279.084 96.5558 277.612 94.9305C276.14 93.2745 275.404 91.1125 275.404 88.4445V74.0465H281.66V88.5365C281.66 89.5485 281.905 90.3765 282.396 91.0205C282.917 91.6338 283.592 91.9405 284.42 91.9405H287.088C288.1 91.9405 289.02 91.5265 289.848 90.6985C290.676 89.8398 291.259 88.7205 291.596 87.3405V74.0465H297.852V97.0005H292.056V94.0565C291.351 95.0378 290.477 95.8352 289.434 96.4485C288.422 97.0618 287.441 97.3685 286.49 97.3685H283.454ZM310.44 97.3685C307.711 97.3685 305.503 96.5405 303.816 94.8845C302.16 93.2285 301.332 91.0512 301.332 88.3525V83.1085C301.332 81.2378 301.731 79.5972 302.528 78.1865C303.326 76.7452 304.445 75.6412 305.886 74.8745C307.328 74.0772 308.999 73.6785 310.9 73.6785H313.43C314.32 73.6785 315.224 73.8778 316.144 74.2765C317.064 74.6445 317.831 75.1505 318.444 75.7945V64.8005H324.7V97.0005H318.904V93.9645C318.291 94.9765 317.463 95.8045 316.42 96.4485C315.378 97.0618 314.289 97.3685 313.154 97.3685H310.44ZM313.844 91.9865C315.102 91.9865 316.144 91.5418 316.972 90.6525C317.831 89.7325 318.322 88.5212 318.444 87.0185V83.0165C318.23 81.8205 317.754 80.8698 317.018 80.1645C316.313 79.4285 315.47 79.0605 314.488 79.0605H311.682C310.456 79.0605 309.459 79.4745 308.692 80.3025C307.956 81.1305 307.588 82.2192 307.588 83.5685V87.8925C307.588 89.1192 307.926 90.1158 308.6 90.8825C309.275 91.6185 310.149 91.9865 311.222 91.9865H313.844ZM338.018 97.3685C336.086 97.3685 334.369 97.0158 332.866 96.3105C331.394 95.5745 330.244 94.5625 329.416 93.2745C328.588 91.9558 328.174 90.4532 328.174 88.7665V82.8325C328.174 81.0232 328.588 79.4285 329.416 78.0485C330.244 76.6685 331.394 75.5952 332.866 74.8285C334.369 74.0618 336.086 73.6785 338.018 73.6785H341.698C344.642 73.6785 347.003 74.5065 348.782 76.1625C350.561 77.8185 351.45 80.0265 351.45 82.7865V87.6625H334.43V88.7665C334.43 89.7785 334.752 90.5912 335.396 91.2045C336.04 91.8178 336.914 92.1245 338.018 92.1245H341.606C342.679 92.1245 343.538 91.8945 344.182 91.4345C344.857 90.9438 345.194 90.3152 345.194 89.5485H351.358C351.358 91.0818 350.944 92.4465 350.116 93.6425C349.288 94.8385 348.123 95.7585 346.62 96.4025C345.148 97.0465 343.446 97.3685 341.514 97.3685H338.018ZM345.286 83.1545V82.7865C345.286 81.5905 344.964 80.6398 344.32 79.9345C343.676 79.1985 342.817 78.8305 341.744 78.8305H338.018C336.914 78.8305 336.025 79.2138 335.35 79.9805C334.675 80.7472 334.338 81.7592 334.338 83.0165V83.1545H345.286ZM354.768 74.0465H360.564V76.8065C361.238 75.8558 362.112 75.1045 363.186 74.5525C364.259 73.9698 365.332 73.6785 366.406 73.6785H369.166C371.619 73.6785 373.582 74.4452 375.054 75.9785C376.556 77.5118 377.308 79.5358 377.308 82.0505V97.0005H371.052V82.2805C371.052 81.3298 370.791 80.5632 370.27 79.9805C369.779 79.3978 369.135 79.1065 368.338 79.1065H365.578C364.504 79.1065 363.538 79.5052 362.68 80.3025C361.852 81.0692 361.3 82.0812 361.024 83.3385V97.0005H354.768V74.0465ZM391.458 97.0005C388.759 97.0005 386.781 96.3872 385.524 95.1605C384.266 93.9338 383.638 92.0325 383.638 89.4565V79.3825H379.59V74.0465H383.822V67.1005H389.894V74.0465H395.874V79.3825H389.894V89.1805C389.894 90.0392 390.047 90.6678 390.354 91.0665C390.691 91.4652 391.212 91.6645 391.918 91.6645H395.874V97.0005H391.458ZM407.249 97.3685C404.459 97.3685 402.22 96.6325 400.533 95.1605C398.847 93.6885 398.003 91.7565 398.003 89.3645H404.167C404.167 90.1925 404.443 90.8672 404.995 91.3885C405.578 91.8792 406.329 92.1245 407.249 92.1245H411.389C413.229 92.1245 414.149 91.6185 414.149 90.6065V89.8245C414.149 89.5178 413.996 89.2418 413.689 88.9965C413.383 88.7205 412.969 88.5365 412.447 88.4445L404.489 87.0645C402.619 86.7578 401.131 86.0985 400.027 85.0865C398.954 84.0438 398.417 82.8325 398.417 81.4525V79.9345C398.417 77.9718 399.215 76.4385 400.809 75.3345C402.435 74.2305 404.689 73.6785 407.571 73.6785H411.159C413.735 73.6785 415.805 74.3685 417.369 75.7485C418.964 77.0978 419.761 78.8918 419.761 81.1305H413.597C413.597 80.4558 413.367 79.9192 412.907 79.5205C412.478 79.1218 411.895 78.9225 411.159 78.9225H407.663C405.67 78.9225 404.673 79.3825 404.673 80.3025V81.0385C404.673 81.3758 404.796 81.6672 405.041 81.9125C405.317 82.1272 405.701 82.2805 406.191 82.3725L414.563 83.8905C416.311 84.1972 417.722 84.8565 418.795 85.8685C419.869 86.8498 420.405 87.9692 420.405 89.2265V90.8825C420.405 92.8758 419.577 94.4552 417.921 95.6205C416.296 96.7858 414.119 97.3685 411.389 97.3685H407.249Z" fill="#093BAA"/>
</svg>
