<svg width="560" height="56" viewBox="0 0 560 56" fill="none" xmlns="http://www.w3.org/2000/svg">
<path d="M42.604 45.6041H35.1957V33.9999C35.1957 31.2333 35.1457 27.6708 31.3416 27.6708C27.4832 27.6708 26.8916 30.6875 26.8916 33.7958V45.6041H19.4833V21.7417H26.5957V25.0041H26.6957C28.1457 22.5292 30.8457 21.0458 33.7124 21.15C41.2207 21.15 42.6082 26.0875 42.6082 32.5166L42.604 45.5999V45.6041ZM11.125 18.4792C9.98694 18.4737 8.89702 18.0195 8.09192 17.2152C7.28682 16.4108 6.83155 15.3214 6.82498 14.1834C6.82498 11.825 8.76663 9.88337 11.125 9.88337C13.4833 9.88337 15.4208 11.825 15.4249 14.1834C15.4249 16.5417 13.4833 18.4792 11.125 18.4792ZM14.8291 45.6041H7.41247V21.7417H14.8291V45.6041ZM46.2915 3.00006H3.68749C2.72145 2.99445 1.79223 3.37031 1.10176 4.04596C0.411286 4.72161 0.0153527 5.64245 0 6.60838V49.3916C0.0153527 50.3575 0.411286 51.2783 1.10176 51.954C1.79223 52.6296 2.72145 53.0055 3.68749 52.9999H46.2957C47.2639 53.0077 48.1962 52.6331 48.8898 51.9574C49.5834 51.2818 49.9823 50.3597 49.9998 49.3916V6.60422C49.9823 5.63683 49.5831 4.71559 48.8892 4.04126C48.1954 3.36693 47.2632 2.99417 46.2957 3.00423L46.2915 3.00006Z" fill="#0A66C2"/>
<path d="M67.7758 4.7H76.1998C77.4958 4.7 78.5358 5.068 79.3198 5.804C80.1198 6.524 80.5198 7.476 80.5198 8.66V10.388C80.5198 11.22 80.2558 11.956 79.7278 12.596C79.2158 13.236 78.5118 13.7 77.6158 13.988V14.012C78.5598 14.572 79.2638 15.596 79.7278 17.084L81.0478 21.5H78.6958L77.3998 17.18C77.1758 16.428 76.8158 15.836 76.3198 15.404C75.8398 14.972 75.2878 14.756 74.6638 14.756H70.0558V21.5H67.7758V4.7ZM75.5758 12.74C76.3758 12.74 77.0158 12.524 77.4958 12.092C77.9918 11.66 78.2398 11.092 78.2398 10.388V8.636C78.2398 8.06 78.0478 7.596 77.6638 7.244C77.2798 6.892 76.7758 6.716 76.1518 6.716H70.0558V12.74H75.5758ZM87.7001 21.692C86.2921 21.692 85.1561 21.268 84.2921 20.42C83.4441 19.572 83.0201 18.46 83.0201 17.084V13.964C83.0201 12.572 83.4521 11.452 84.3161 10.604C85.1801 9.756 86.3241 9.332 87.7481 9.332H89.7641C91.1881 9.332 92.3321 9.756 93.1961 10.604C94.0601 11.452 94.4921 12.572 94.4921 13.964V17.084C94.4921 18.46 94.0521 19.572 93.1721 20.42C92.3081 21.268 91.1641 21.692 89.7401 21.692H87.7001ZM89.7161 19.724C90.4841 19.724 91.1001 19.476 91.5641 18.98C92.0281 18.484 92.2601 17.82 92.2601 16.988V14.036C92.2601 13.204 92.0281 12.54 91.5641 12.044C91.1161 11.548 90.5161 11.3 89.7641 11.3H87.7481C86.9961 11.3 86.3881 11.548 85.9241 12.044C85.4761 12.54 85.2521 13.204 85.2521 14.036V16.988C85.2521 17.82 85.4761 18.484 85.9241 18.98C86.3721 19.476 86.9721 19.724 87.7241 19.724H89.7161ZM97.3751 4.7H99.6071V11.036C99.9751 10.524 100.439 10.116 100.999 9.812C101.559 9.492 102.111 9.332 102.655 9.332H104.287C105.439 9.332 106.367 9.716 107.071 10.484C107.791 11.252 108.151 12.26 108.151 13.508V21.5H105.919V13.508C105.919 12.852 105.751 12.324 105.415 11.924C105.079 11.508 104.639 11.3 104.095 11.3H102.559C101.871 11.3 101.247 11.564 100.687 12.092C100.127 12.604 99.7671 13.276 99.6071 14.108V21.5H97.3751V4.7ZM114.943 21.692C113.743 21.692 112.783 21.388 112.063 20.78C111.343 20.156 110.983 19.332 110.983 18.308V17.516C110.983 16.508 111.359 15.7 112.111 15.092C112.863 14.468 113.847 14.156 115.063 14.156H116.575C117.055 14.156 117.567 14.228 118.111 14.372C118.655 14.516 119.119 14.716 119.503 14.972V13.22C119.503 12.628 119.319 12.156 118.951 11.804C118.583 11.436 118.103 11.252 117.511 11.252H115.543C114.935 11.252 114.447 11.396 114.079 11.684C113.711 11.972 113.527 12.348 113.527 12.812H111.319C111.319 11.772 111.703 10.932 112.471 10.292C113.255 9.652 114.279 9.332 115.543 9.332H117.511C118.775 9.332 119.791 9.692 120.559 10.412C121.327 11.116 121.711 12.052 121.711 13.22V21.5H119.623V19.892C119.255 20.436 118.775 20.876 118.183 21.212C117.591 21.532 116.991 21.692 116.383 21.692H114.943ZM116.503 19.844C117.207 19.844 117.831 19.644 118.375 19.244C118.919 18.828 119.295 18.276 119.503 17.588V16.868C119.199 16.596 118.783 16.38 118.255 16.22C117.727 16.06 117.183 15.98 116.623 15.98H115.087C114.527 15.98 114.071 16.124 113.719 16.412C113.367 16.7 113.191 17.084 113.191 17.564V18.284C113.191 18.764 113.359 19.148 113.695 19.436C114.047 19.708 114.511 19.844 115.087 19.844H116.503ZM124.938 9.524H127.074V11.18C127.426 10.636 127.89 10.196 128.466 9.86C129.058 9.508 129.642 9.332 130.218 9.332H131.802C132.954 9.332 133.882 9.716 134.586 10.484C135.306 11.252 135.666 12.26 135.666 13.508V21.5H133.434V13.508C133.434 12.852 133.266 12.324 132.93 11.924C132.594 11.508 132.154 11.3 131.61 11.3H130.122C129.434 11.3 128.81 11.564 128.25 12.092C127.69 12.62 127.33 13.308 127.17 14.156V21.5H124.938V9.524ZM149.96 21.692C148.408 21.692 147.168 21.228 146.24 20.3C145.312 19.372 144.848 18.124 144.848 16.556H147.08C147.08 17.5 147.344 18.252 147.872 18.812C148.416 19.372 149.128 19.652 150.008 19.652H152.672C153.552 19.652 154.256 19.468 154.784 19.1C155.312 18.716 155.576 18.212 155.576 17.588V16.292C155.576 15.796 155.384 15.38 155 15.044C154.632 14.708 154.104 14.484 153.416 14.372L149.048 13.652C147.768 13.444 146.776 13.004 146.072 12.332C145.384 11.66 145.04 10.82 145.04 9.812V8.492C145.04 7.292 145.496 6.332 146.408 5.612C147.336 4.876 148.552 4.508 150.056 4.508H152.768C153.712 4.508 154.544 4.708 155.264 5.108C156 5.492 156.568 6.044 156.968 6.764C157.368 7.468 157.568 8.284 157.568 9.212H155.312C155.312 8.412 155.08 7.772 154.616 7.292C154.152 6.796 153.536 6.548 152.768 6.548H150.056C149.24 6.548 148.576 6.732 148.064 7.1C147.568 7.452 147.32 7.94 147.32 8.564V9.644C147.32 10.156 147.496 10.58 147.848 10.916C148.216 11.252 148.736 11.484 149.408 11.612L153.728 12.356C155.056 12.58 156.072 13.02 156.776 13.676C157.496 14.316 157.856 15.124 157.856 16.1V17.66C157.856 18.876 157.384 19.852 156.44 20.588C155.512 21.324 154.272 21.692 152.72 21.692H149.96ZM160.609 4.7H162.841V11.036C163.209 10.524 163.673 10.116 164.233 9.812C164.793 9.492 165.345 9.332 165.889 9.332H167.521C168.673 9.332 169.601 9.716 170.305 10.484C171.025 11.252 171.385 12.26 171.385 13.508V21.5H169.153V13.508C169.153 12.852 168.985 12.324 168.649 11.924C168.313 11.508 167.873 11.3 167.329 11.3H165.793C165.105 11.3 164.481 11.564 163.921 12.092C163.361 12.604 163.001 13.276 162.841 14.108V21.5H160.609V4.7ZM178.178 21.692C176.978 21.692 176.018 21.388 175.298 20.78C174.578 20.156 174.218 19.332 174.218 18.308V17.516C174.218 16.508 174.594 15.7 175.346 15.092C176.098 14.468 177.082 14.156 178.298 14.156H179.81C180.29 14.156 180.802 14.228 181.346 14.372C181.89 14.516 182.354 14.716 182.738 14.972V13.22C182.738 12.628 182.554 12.156 182.186 11.804C181.818 11.436 181.338 11.252 180.746 11.252H178.778C178.17 11.252 177.682 11.396 177.314 11.684C176.946 11.972 176.762 12.348 176.762 12.812H174.554C174.554 11.772 174.938 10.932 175.706 10.292C176.49 9.652 177.514 9.332 178.778 9.332H180.746C182.01 9.332 183.026 9.692 183.794 10.412C184.562 11.116 184.946 12.052 184.946 13.22V21.5H182.858V19.892C182.49 20.436 182.01 20.876 181.418 21.212C180.826 21.532 180.226 21.692 179.618 21.692H178.178ZM179.738 19.844C180.442 19.844 181.066 19.644 181.61 19.244C182.154 18.828 182.53 18.276 182.738 17.588V16.868C182.434 16.596 182.018 16.38 181.49 16.22C180.962 16.06 180.418 15.98 179.858 15.98H178.322C177.762 15.98 177.306 16.124 176.954 16.412C176.602 16.7 176.426 17.084 176.426 17.564V18.284C176.426 18.764 176.594 19.148 176.93 19.436C177.282 19.708 177.746 19.844 178.322 19.844H179.738ZM188.172 9.524H190.308V11.276C190.628 10.748 191.092 10.316 191.7 9.98C192.324 9.644 192.972 9.476 193.644 9.476H194.892V11.468H193.644C192.668 11.468 191.884 11.772 191.292 12.38C190.7 12.972 190.404 13.756 190.404 14.732V21.5H188.172V9.524ZM200.115 21.692C198.915 21.692 197.955 21.388 197.235 20.78C196.515 20.156 196.155 19.332 196.155 18.308V17.516C196.155 16.508 196.531 15.7 197.283 15.092C198.035 14.468 199.019 14.156 200.235 14.156H201.747C202.227 14.156 202.739 14.228 203.283 14.372C203.827 14.516 204.291 14.716 204.675 14.972V13.22C204.675 12.628 204.491 12.156 204.123 11.804C203.755 11.436 203.275 11.252 202.683 11.252H200.715C200.107 11.252 199.619 11.396 199.251 11.684C198.883 11.972 198.699 12.348 198.699 12.812H196.491C196.491 11.772 196.875 10.932 197.643 10.292C198.427 9.652 199.451 9.332 200.715 9.332H202.683C203.947 9.332 204.963 9.692 205.731 10.412C206.499 11.116 206.883 12.052 206.883 13.22V21.5H204.795V19.892C204.427 20.436 203.947 20.876 203.355 21.212C202.763 21.532 202.163 21.692 201.555 21.692H200.115ZM201.675 19.844C202.379 19.844 203.003 19.644 203.547 19.244C204.091 18.828 204.467 18.276 204.675 17.588V16.868C204.371 16.596 203.955 16.38 203.427 16.22C202.899 16.06 202.355 15.98 201.795 15.98H200.259C199.699 15.98 199.243 16.124 198.891 16.412C198.539 16.7 198.363 17.084 198.363 17.564V18.284C198.363 18.764 198.531 19.148 198.867 19.436C199.219 19.708 199.683 19.844 200.259 19.844H201.675ZM210.109 9.524H212.245V11.18C212.597 10.636 213.061 10.196 213.637 9.86C214.229 9.508 214.813 9.332 215.389 9.332H216.973C218.125 9.332 219.053 9.716 219.757 10.484C220.477 11.252 220.837 12.26 220.837 13.508V21.5H218.605V13.508C218.605 12.852 218.437 12.324 218.101 11.924C217.765 11.508 217.325 11.3 216.781 11.3H215.293C214.605 11.3 213.981 11.564 213.421 12.092C212.861 12.62 212.501 13.308 212.341 14.156V21.5H210.109V9.524Z" fill="#333333"/>
<path d="M67.8558 52.5C67.7491 52.5 67.6638 52.468 67.5998 52.404C67.5358 52.34 67.5038 52.2547 67.5038 52.148V41.668C67.5038 41.5507 67.5358 41.46 67.5998 41.396C67.6638 41.332 67.7491 41.3 67.8558 41.3H74.0318C74.1491 41.3 74.2398 41.332 74.3038 41.396C74.3678 41.46 74.3998 41.5507 74.3998 41.668V41.908C74.3998 42.0147 74.3678 42.1 74.3038 42.164C74.2398 42.228 74.1491 42.26 74.0318 42.26H68.5118V46.564H73.7118C73.8291 46.564 73.9198 46.596 73.9838 46.66C74.0478 46.724 74.0798 46.8147 74.0798 46.932V47.172C74.0798 47.2787 74.0478 47.364 73.9838 47.428C73.9198 47.492 73.8291 47.524 73.7118 47.524H68.5118V52.148C68.5118 52.2547 68.4798 52.34 68.4158 52.404C68.3518 52.468 68.2611 52.5 68.1438 52.5H67.8558ZM79.4013 52.66C78.6333 52.66 77.9879 52.5 77.4653 52.18C76.9533 51.86 76.5586 51.4227 76.2813 50.868C76.0146 50.3133 75.8706 49.6947 75.8493 49.012C75.8386 48.852 75.8333 48.628 75.8333 48.34C75.8333 48.052 75.8386 47.828 75.8493 47.668C75.8706 46.9747 76.0146 46.356 76.2813 45.812C76.5586 45.2573 76.9533 44.82 77.4653 44.5C77.9879 44.18 78.6333 44.02 79.4013 44.02C80.1693 44.02 80.8093 44.18 81.3213 44.5C81.8439 44.82 82.2386 45.2573 82.5053 45.812C82.7826 46.356 82.9319 46.9747 82.9533 47.668C82.9639 47.828 82.9693 48.052 82.9693 48.34C82.9693 48.628 82.9639 48.852 82.9533 49.012C82.9319 49.6947 82.7826 50.3133 82.5053 50.868C82.2386 51.4227 81.8439 51.86 81.3213 52.18C80.8093 52.5 80.1693 52.66 79.4013 52.66ZM79.4013 51.732C80.1479 51.732 80.7559 51.492 81.2253 51.012C81.6946 50.532 81.9453 49.8387 81.9773 48.932C81.9879 48.772 81.9933 48.5747 81.9933 48.34C81.9933 48.1053 81.9879 47.908 81.9773 47.748C81.9453 46.8307 81.6946 46.1373 81.2253 45.668C80.7559 45.188 80.1479 44.948 79.4013 44.948C78.6546 44.948 78.0466 45.188 77.5773 45.668C77.1079 46.1373 76.8573 46.8307 76.8253 47.748C76.8146 47.908 76.8093 48.1053 76.8093 48.34C76.8093 48.5747 76.8146 48.772 76.8253 48.932C76.8573 49.8387 77.1079 50.532 77.5773 51.012C78.0466 51.492 78.6546 51.732 79.4013 51.732ZM88.2751 52.66C87.5498 52.66 86.9471 52.5053 86.4671 52.196C85.9978 51.876 85.6458 51.444 85.4111 50.9C85.1871 50.356 85.0751 49.748 85.0751 49.076V44.532C85.0751 44.4253 85.1071 44.34 85.1711 44.276C85.2351 44.212 85.3205 44.18 85.4271 44.18H85.6991C85.8058 44.18 85.8911 44.212 85.9551 44.276C86.0191 44.34 86.0511 44.4253 86.0511 44.532V48.996C86.0511 50.82 86.8458 51.732 88.4351 51.732C89.1925 51.732 89.8005 51.492 90.2591 51.012C90.7178 50.5213 90.9471 49.8493 90.9471 48.996V44.532C90.9471 44.4253 90.9791 44.34 91.0431 44.276C91.1071 44.212 91.1925 44.18 91.2991 44.18H91.5711C91.6778 44.18 91.7631 44.212 91.8271 44.276C91.8911 44.34 91.9231 44.4253 91.9231 44.532V52.148C91.9231 52.2547 91.8911 52.34 91.8271 52.404C91.7631 52.468 91.6778 52.5 91.5711 52.5H91.2991C91.1925 52.5 91.1071 52.468 91.0431 52.404C90.9791 52.34 90.9471 52.2547 90.9471 52.148V51.396C90.6591 51.7693 90.3125 52.0733 89.9071 52.308C89.5125 52.5427 88.9685 52.66 88.2751 52.66ZM94.8665 52.5C94.7598 52.5 94.6745 52.468 94.6105 52.404C94.5465 52.34 94.5145 52.2547 94.5145 52.148V44.532C94.5145 44.4253 94.5465 44.34 94.6105 44.276C94.6745 44.212 94.7598 44.18 94.8665 44.18H95.1385C95.2452 44.18 95.3305 44.212 95.3945 44.276C95.4585 44.34 95.4905 44.4253 95.4905 44.532V45.284C95.7785 44.9107 96.1252 44.6067 96.5305 44.372C96.9465 44.1373 97.4958 44.02 98.1785 44.02C98.9038 44.02 99.5065 44.18 99.9865 44.5C100.477 44.8093 100.84 45.236 101.075 45.78C101.32 46.3133 101.443 46.9213 101.443 47.604V52.148C101.443 52.2547 101.411 52.34 101.347 52.404C101.283 52.468 101.197 52.5 101.091 52.5H100.819C100.712 52.5 100.627 52.468 100.563 52.404C100.499 52.34 100.467 52.2547 100.467 52.148V47.684C100.467 46.8307 100.259 46.164 99.8425 45.684C99.4265 45.1933 98.8185 44.948 98.0185 44.948C97.2612 44.948 96.6478 45.1933 96.1785 45.684C95.7198 46.164 95.4905 46.8307 95.4905 47.684V52.148C95.4905 52.2547 95.4585 52.34 95.3945 52.404C95.3305 52.468 95.2452 52.5 95.1385 52.5H94.8665ZM106.96 52.66C106.341 52.66 105.813 52.548 105.376 52.324C104.949 52.1 104.603 51.8013 104.336 51.428C104.069 51.0547 103.872 50.6387 103.744 50.18C103.627 49.7213 103.557 49.2573 103.536 48.788C103.525 48.628 103.52 48.4787 103.52 48.34C103.52 48.2013 103.525 48.052 103.536 47.892C103.557 47.4227 103.627 46.9587 103.744 46.5C103.872 46.0413 104.069 45.6253 104.336 45.252C104.603 44.8787 104.949 44.58 105.376 44.356C105.813 44.132 106.341 44.02 106.96 44.02C107.621 44.02 108.165 44.1427 108.592 44.388C109.029 44.6333 109.381 44.932 109.648 45.284V41.492C109.648 41.3853 109.68 41.3 109.744 41.236C109.808 41.172 109.893 41.14 110 41.14H110.272C110.379 41.14 110.464 41.172 110.528 41.236C110.592 41.3 110.624 41.3853 110.624 41.492V52.148C110.624 52.2547 110.592 52.34 110.528 52.404C110.464 52.468 110.379 52.5 110.272 52.5H110C109.893 52.5 109.808 52.468 109.744 52.404C109.68 52.34 109.648 52.2547 109.648 52.148V51.396C109.381 51.7587 109.029 52.0627 108.592 52.308C108.165 52.5427 107.621 52.66 106.96 52.66ZM107.056 51.732C107.664 51.732 108.155 51.588 108.528 51.3C108.901 51.012 109.179 50.6547 109.36 50.228C109.541 49.7907 109.637 49.3533 109.648 48.916C109.659 48.756 109.664 48.548 109.664 48.292C109.664 48.036 109.659 47.828 109.648 47.668C109.637 47.2413 109.536 46.82 109.344 46.404C109.163 45.988 108.885 45.6413 108.512 45.364C108.139 45.0867 107.653 44.948 107.056 44.948C106.437 44.948 105.941 45.0867 105.568 45.364C105.205 45.6413 104.944 46.004 104.784 46.452C104.624 46.9 104.533 47.38 104.512 47.892C104.501 48.1907 104.501 48.4893 104.512 48.788C104.533 49.3 104.624 49.78 104.784 50.228C104.944 50.676 105.205 51.0387 105.568 51.316C105.941 51.5933 106.437 51.732 107.056 51.732ZM116.321 52.66C115.287 52.66 114.465 52.324 113.857 51.652C113.249 50.9693 112.903 50.0787 112.817 48.98C112.807 48.82 112.801 48.6067 112.801 48.34C112.801 48.0733 112.807 47.86 112.817 47.7C112.871 46.9747 113.041 46.3347 113.329 45.78C113.617 45.2253 114.012 44.7933 114.513 44.484C115.025 44.1747 115.628 44.02 116.321 44.02C117.068 44.02 117.703 44.1853 118.225 44.516C118.748 44.8467 119.148 45.3213 119.425 45.94C119.713 46.5587 119.857 47.2947 119.857 48.148V48.388C119.857 48.4947 119.82 48.58 119.745 48.644C119.681 48.708 119.596 48.74 119.489 48.74H113.793C113.793 48.74 113.793 48.7613 113.793 48.804C113.793 48.8467 113.793 48.8787 113.793 48.9C113.815 49.38 113.927 49.8387 114.129 50.276C114.332 50.7027 114.62 51.0547 114.993 51.332C115.367 51.5987 115.809 51.732 116.321 51.732C116.78 51.732 117.159 51.6627 117.457 51.524C117.767 51.3853 118.012 51.236 118.193 51.076C118.375 50.9053 118.492 50.7773 118.545 50.692C118.641 50.5533 118.716 50.4733 118.769 50.452C118.823 50.42 118.908 50.404 119.025 50.404H119.281C119.377 50.404 119.457 50.436 119.521 50.5C119.596 50.5533 119.628 50.628 119.617 50.724C119.607 50.8733 119.521 51.06 119.361 51.284C119.212 51.4973 118.993 51.7107 118.705 51.924C118.428 52.1373 118.087 52.3133 117.681 52.452C117.276 52.5907 116.823 52.66 116.321 52.66ZM113.793 47.844H118.881V47.78C118.881 47.2467 118.78 46.7667 118.577 46.34C118.375 45.9133 118.081 45.5773 117.697 45.332C117.313 45.076 116.855 44.948 116.321 44.948C115.788 44.948 115.329 45.076 114.945 45.332C114.572 45.5773 114.284 45.9133 114.081 46.34C113.889 46.7667 113.793 47.2467 113.793 47.78V47.844ZM122.32 52.5C122.213 52.5 122.128 52.468 122.064 52.404C122 52.34 121.968 52.2547 121.968 52.148V44.548C121.968 44.4413 122 44.356 122.064 44.292C122.128 44.2173 122.213 44.18 122.32 44.18H122.576C122.682 44.18 122.768 44.2173 122.832 44.292C122.906 44.356 122.944 44.4413 122.944 44.548V45.284C123.136 44.9107 123.413 44.6333 123.776 44.452C124.138 44.2707 124.586 44.18 125.12 44.18H125.712C125.818 44.18 125.904 44.212 125.968 44.276C126.032 44.34 126.064 44.4253 126.064 44.532V44.756C126.064 44.8627 126.032 44.948 125.968 45.012C125.904 45.076 125.818 45.108 125.712 45.108H125.024C124.384 45.108 123.877 45.2947 123.504 45.668C123.13 46.0413 122.944 46.548 122.944 47.188V52.148C122.944 52.2547 122.906 52.34 122.832 52.404C122.768 52.468 122.682 52.5 122.576 52.5H122.32ZM133.505 52.66C132.993 52.66 132.518 52.5533 132.081 52.34C131.654 52.1267 131.307 51.844 131.041 51.492C130.774 51.1293 130.641 50.724 130.641 50.276C130.641 49.5507 130.934 48.9693 131.521 48.532C132.107 48.0947 132.87 47.812 133.809 47.684L136.337 47.332V46.772C136.337 46.2067 136.161 45.764 135.809 45.444C135.467 45.1133 134.918 44.948 134.161 44.948C133.606 44.948 133.158 45.06 132.817 45.284C132.475 45.4973 132.241 45.78 132.113 46.132C132.059 46.292 131.958 46.372 131.809 46.372H131.553C131.425 46.372 131.334 46.34 131.281 46.276C131.227 46.2013 131.201 46.116 131.201 46.02C131.201 45.8707 131.254 45.684 131.361 45.46C131.478 45.236 131.654 45.0173 131.889 44.804C132.123 44.58 132.427 44.3933 132.801 44.244C133.174 44.0947 133.627 44.02 134.161 44.02C134.79 44.02 135.307 44.1053 135.713 44.276C136.129 44.4467 136.449 44.6707 136.673 44.948C136.907 45.2147 137.073 45.5133 137.169 45.844C137.265 46.1747 137.313 46.5 137.313 46.82V52.148C137.313 52.2547 137.281 52.34 137.217 52.404C137.153 52.468 137.067 52.5 136.961 52.5H136.689C136.582 52.5 136.497 52.468 136.433 52.404C136.369 52.34 136.337 52.2547 136.337 52.148V51.396C136.209 51.588 136.027 51.78 135.793 51.972C135.558 52.164 135.254 52.3293 134.881 52.468C134.518 52.596 134.059 52.66 133.505 52.66ZM133.665 51.732C134.155 51.732 134.603 51.6253 135.009 51.412C135.414 51.1987 135.734 50.8733 135.969 50.436C136.214 49.988 136.337 49.428 136.337 48.756V48.212L134.273 48.5C133.398 48.6173 132.737 48.82 132.289 49.108C131.841 49.396 131.617 49.7587 131.617 50.196C131.617 50.548 131.718 50.836 131.921 51.06C132.123 51.284 132.379 51.4547 132.689 51.572C133.009 51.6787 133.334 51.732 133.665 51.732ZM140.195 52.5C140.088 52.5 140.003 52.468 139.939 52.404C139.875 52.34 139.843 52.2547 139.843 52.148V44.532C139.843 44.4253 139.875 44.34 139.939 44.276C140.003 44.212 140.088 44.18 140.195 44.18H140.467C140.573 44.18 140.659 44.212 140.723 44.276C140.787 44.34 140.819 44.4253 140.819 44.532V45.284C141.107 44.9107 141.453 44.6067 141.859 44.372C142.275 44.1373 142.824 44.02 143.507 44.02C144.232 44.02 144.835 44.18 145.315 44.5C145.805 44.8093 146.168 45.236 146.403 45.78C146.648 46.3133 146.771 46.9213 146.771 47.604V52.148C146.771 52.2547 146.739 52.34 146.675 52.404C146.611 52.468 146.525 52.5 146.419 52.5H146.147C146.04 52.5 145.955 52.468 145.891 52.404C145.827 52.34 145.795 52.2547 145.795 52.148V47.684C145.795 46.8307 145.587 46.164 145.171 45.684C144.755 45.1933 144.147 44.948 143.347 44.948C142.589 44.948 141.976 45.1933 141.507 45.684C141.048 46.164 140.819 46.8307 140.819 47.684V52.148C140.819 52.2547 140.787 52.34 140.723 52.404C140.659 52.468 140.573 52.5 140.467 52.5H140.195ZM152.288 52.66C151.669 52.66 151.141 52.548 150.704 52.324C150.277 52.1 149.931 51.8013 149.664 51.428C149.397 51.0547 149.2 50.6387 149.072 50.18C148.955 49.7213 148.885 49.2573 148.864 48.788C148.853 48.628 148.848 48.4787 148.848 48.34C148.848 48.2013 148.853 48.052 148.864 47.892C148.885 47.4227 148.955 46.9587 149.072 46.5C149.2 46.0413 149.397 45.6253 149.664 45.252C149.931 44.8787 150.277 44.58 150.704 44.356C151.141 44.132 151.669 44.02 152.288 44.02C152.949 44.02 153.493 44.1427 153.92 44.388C154.357 44.6333 154.709 44.932 154.976 45.284V41.492C154.976 41.3853 155.008 41.3 155.072 41.236C155.136 41.172 155.221 41.14 155.328 41.14H155.6C155.707 41.14 155.792 41.172 155.856 41.236C155.92 41.3 155.952 41.3853 155.952 41.492V52.148C155.952 52.2547 155.92 52.34 155.856 52.404C155.792 52.468 155.707 52.5 155.6 52.5H155.328C155.221 52.5 155.136 52.468 155.072 52.404C155.008 52.34 154.976 52.2547 154.976 52.148V51.396C154.709 51.7587 154.357 52.0627 153.92 52.308C153.493 52.5427 152.949 52.66 152.288 52.66ZM152.384 51.732C152.992 51.732 153.483 51.588 153.856 51.3C154.229 51.012 154.507 50.6547 154.688 50.228C154.869 49.7907 154.965 49.3533 154.976 48.916C154.987 48.756 154.992 48.548 154.992 48.292C154.992 48.036 154.987 47.828 154.976 47.668C154.965 47.2413 154.864 46.82 154.672 46.404C154.491 45.988 154.213 45.6413 153.84 45.364C153.467 45.0867 152.981 44.948 152.384 44.948C151.765 44.948 151.269 45.0867 150.896 45.364C150.533 45.6413 150.272 46.004 150.112 46.452C149.952 46.9 149.861 47.38 149.84 47.892C149.829 48.1907 149.829 48.4893 149.84 48.788C149.861 49.3 149.952 49.78 150.112 50.228C150.272 50.676 150.533 51.0387 150.896 51.316C151.269 51.5933 151.765 51.732 152.384 51.732ZM166.686 52.66C165.716 52.66 164.921 52.4733 164.302 52.1C163.694 51.716 163.241 51.1987 162.942 50.548C162.644 49.8973 162.478 49.156 162.446 48.324C162.436 47.8867 162.43 47.4173 162.43 46.916C162.43 46.4147 162.436 45.9347 162.446 45.476C162.478 44.644 162.644 43.9027 162.942 43.252C163.241 42.5907 163.694 42.0733 164.302 41.7C164.921 41.3267 165.716 41.14 166.686 41.14C167.444 41.14 168.089 41.2467 168.622 41.46C169.156 41.6733 169.588 41.956 169.918 42.308C170.26 42.6493 170.51 43.0227 170.67 43.428C170.841 43.8227 170.937 44.212 170.958 44.596C170.969 44.692 170.937 44.772 170.862 44.836C170.798 44.8893 170.718 44.916 170.622 44.916H170.302C170.217 44.916 170.142 44.8947 170.078 44.852C170.014 44.7987 169.972 44.708 169.95 44.58C169.748 43.6307 169.364 42.98 168.798 42.628C168.244 42.276 167.54 42.1 166.686 42.1C165.716 42.1 164.942 42.3773 164.366 42.932C163.801 43.476 163.497 44.3507 163.454 45.556C163.422 46.4307 163.422 47.3267 163.454 48.244C163.497 49.4493 163.801 50.3293 164.366 50.884C164.942 51.428 165.716 51.7 166.686 51.7C167.54 51.7 168.244 51.524 168.798 51.172C169.364 50.82 169.748 50.1693 169.95 49.22C169.972 49.092 170.014 49.0067 170.078 48.964C170.142 48.9107 170.217 48.884 170.302 48.884H170.622C170.718 48.884 170.798 48.916 170.862 48.98C170.937 49.0333 170.969 49.108 170.958 49.204C170.937 49.588 170.841 49.9827 170.67 50.388C170.51 50.7827 170.26 51.156 169.918 51.508C169.588 51.8493 169.156 52.1267 168.622 52.34C168.089 52.5533 167.444 52.66 166.686 52.66ZM173.668 52.5C173.562 52.5 173.476 52.468 173.412 52.404C173.348 52.34 173.316 52.2547 173.316 52.148V41.668C173.316 41.5507 173.348 41.46 173.412 41.396C173.476 41.332 173.562 41.3 173.668 41.3H179.908C180.026 41.3 180.116 41.332 180.18 41.396C180.244 41.46 180.276 41.5507 180.276 41.668V41.908C180.276 42.0147 180.244 42.1 180.18 42.164C180.116 42.228 180.026 42.26 179.908 42.26H174.324V46.34H179.556C179.674 46.34 179.764 46.372 179.828 46.436C179.892 46.5 179.924 46.5907 179.924 46.708V46.948C179.924 47.0547 179.892 47.14 179.828 47.204C179.764 47.268 179.674 47.3 179.556 47.3H174.324V51.54H180.036C180.154 51.54 180.244 51.572 180.308 51.636C180.372 51.7 180.404 51.7907 180.404 51.908V52.148C180.404 52.2547 180.372 52.34 180.308 52.404C180.244 52.468 180.154 52.5 180.036 52.5H173.668ZM186.468 52.66C185.582 52.66 184.83 52.5053 184.212 52.196C183.593 51.876 183.118 51.3907 182.788 50.74C182.457 50.0787 182.276 49.2467 182.244 48.244C182.233 47.764 182.228 47.316 182.228 46.9C182.228 46.484 182.233 46.036 182.244 45.556C182.276 44.564 182.468 43.7427 182.82 43.092C183.172 42.4307 183.657 41.94 184.276 41.62C184.905 41.3 185.636 41.14 186.468 41.14C187.3 41.14 188.025 41.3 188.644 41.62C189.273 41.94 189.764 42.4307 190.116 43.092C190.478 43.7427 190.67 44.564 190.692 45.556C190.713 46.036 190.724 46.484 190.724 46.9C190.724 47.316 190.713 47.764 190.692 48.244C190.67 49.2467 190.489 50.0787 190.148 50.74C189.817 51.3907 189.342 51.876 188.724 52.196C188.105 52.5053 187.353 52.66 186.468 52.66ZM186.468 51.7C187.385 51.7 188.137 51.4227 188.724 50.868C189.321 50.3133 189.641 49.412 189.684 48.164C189.705 47.684 189.716 47.2627 189.716 46.9C189.716 46.5373 189.705 46.116 189.684 45.636C189.662 44.804 189.508 44.1267 189.22 43.604C188.942 43.0813 188.564 42.7027 188.084 42.468C187.614 42.2227 187.076 42.1 186.468 42.1C185.87 42.1 185.332 42.2227 184.852 42.468C184.382 42.7027 184.004 43.0813 183.716 43.604C183.438 44.1267 183.284 44.804 183.252 45.636C183.241 46.116 183.236 46.5373 183.236 46.9C183.236 47.2627 183.241 47.684 183.252 48.164C183.294 49.412 183.614 50.3133 184.212 50.868C184.809 51.4227 185.561 51.7 186.468 51.7ZM192.621 53.7C192.536 53.7 192.472 53.668 192.429 53.604C192.397 53.54 192.386 53.46 192.397 53.364L192.701 51.444C192.722 51.316 192.76 51.2147 192.813 51.14C192.877 51.0547 192.973 51.012 193.101 51.012H193.821C193.896 51.012 193.954 51.0387 193.997 51.092C194.04 51.1453 194.061 51.204 194.061 51.268C194.061 51.364 194.04 51.46 193.997 51.556L193.309 53.364C193.266 53.4707 193.213 53.5507 193.149 53.604C193.096 53.668 193.01 53.7 192.893 53.7H192.621ZM203.257 52.5C203.15 52.5 203.065 52.468 203.001 52.404C202.937 52.34 202.905 52.2547 202.905 52.148V42.26H199.737C199.63 42.26 199.545 42.228 199.481 42.164C199.417 42.1 199.385 42.0147 199.385 41.908V41.668C199.385 41.5507 199.417 41.46 199.481 41.396C199.545 41.332 199.63 41.3 199.737 41.3H207.065C207.182 41.3 207.273 41.332 207.337 41.396C207.401 41.46 207.433 41.5507 207.433 41.668V41.908C207.433 42.0147 207.401 42.1 207.337 42.164C207.273 42.228 207.182 42.26 207.065 42.26H203.913V52.148C203.913 52.2547 203.881 52.34 203.817 52.404C203.753 52.468 203.662 52.5 203.545 52.5H203.257ZM209.507 52.5C209.4 52.5 209.315 52.468 209.251 52.404C209.187 52.34 209.155 52.2547 209.155 52.148V44.532C209.155 44.4253 209.187 44.34 209.251 44.276C209.315 44.212 209.4 44.18 209.507 44.18H209.779C209.886 44.18 209.971 44.212 210.035 44.276C210.099 44.34 210.131 44.4253 210.131 44.532V52.148C210.131 52.2547 210.099 52.34 210.035 52.404C209.971 52.468 209.886 52.5 209.779 52.5H209.507ZM209.331 42.468C209.224 42.468 209.139 42.436 209.075 42.372C209.011 42.308 208.979 42.2227 208.979 42.116V41.508C208.979 41.4013 209.011 41.316 209.075 41.252C209.139 41.1773 209.224 41.14 209.331 41.14H209.939C210.046 41.14 210.131 41.1773 210.195 41.252C210.27 41.316 210.307 41.4013 210.307 41.508V42.116C210.307 42.2227 210.27 42.308 210.195 42.372C210.131 42.436 210.046 42.468 209.939 42.468H209.331ZM213.07 52.5C212.963 52.5 212.878 52.468 212.814 52.404C212.75 52.34 212.718 52.2547 212.718 52.148V44.532C212.718 44.4253 212.75 44.34 212.814 44.276C212.878 44.212 212.963 44.18 213.07 44.18H213.342C213.448 44.18 213.534 44.212 213.598 44.276C213.662 44.34 213.694 44.4253 213.694 44.532V45.092C213.96 44.7507 214.275 44.4893 214.638 44.308C215.011 44.116 215.459 44.02 215.982 44.02C217.176 44.02 218.03 44.5213 218.542 45.524C218.787 45.0653 219.144 44.7027 219.614 44.436C220.094 44.1587 220.643 44.02 221.262 44.02C221.827 44.02 222.334 44.1533 222.782 44.42C223.24 44.676 223.598 45.06 223.854 45.572C224.12 46.084 224.254 46.724 224.254 47.492V52.148C224.254 52.2547 224.222 52.34 224.158 52.404C224.094 52.468 224.008 52.5 223.902 52.5H223.63C223.523 52.5 223.438 52.468 223.374 52.404C223.31 52.34 223.278 52.2547 223.278 52.148V47.652C223.278 46.948 223.176 46.404 222.974 46.02C222.771 45.6253 222.504 45.348 222.174 45.188C221.843 45.028 221.486 44.948 221.102 44.948C220.782 44.948 220.456 45.028 220.126 45.188C219.795 45.348 219.518 45.6253 219.294 46.02C219.08 46.404 218.974 46.948 218.974 47.652V52.148C218.974 52.2547 218.942 52.34 218.878 52.404C218.814 52.468 218.728 52.5 218.622 52.5H218.35C218.243 52.5 218.158 52.468 218.094 52.404C218.03 52.34 217.998 52.2547 217.998 52.148V47.652C217.998 46.948 217.891 46.404 217.678 46.02C217.464 45.6253 217.192 45.348 216.862 45.188C216.531 45.028 216.184 44.948 215.822 44.948C215.502 44.948 215.176 45.028 214.846 45.188C214.515 45.348 214.238 45.6253 214.014 46.02C213.8 46.404 213.694 46.9427 213.694 47.636V52.148C213.694 52.2547 213.662 52.34 213.598 52.404C213.534 52.468 213.448 52.5 213.342 52.5H213.07ZM229.853 52.66C228.818 52.66 227.997 52.324 227.389 51.652C226.781 50.9693 226.434 50.0787 226.349 48.98C226.338 48.82 226.333 48.6067 226.333 48.34C226.333 48.0733 226.338 47.86 226.349 47.7C226.402 46.9747 226.573 46.3347 226.861 45.78C227.149 45.2253 227.543 44.7933 228.045 44.484C228.557 44.1747 229.159 44.02 229.853 44.02C230.599 44.02 231.234 44.1853 231.757 44.516C232.279 44.8467 232.679 45.3213 232.957 45.94C233.245 46.5587 233.389 47.2947 233.389 48.148V48.388C233.389 48.4947 233.351 48.58 233.277 48.644C233.213 48.708 233.127 48.74 233.021 48.74H227.325C227.325 48.74 227.325 48.7613 227.325 48.804C227.325 48.8467 227.325 48.8787 227.325 48.9C227.346 49.38 227.458 49.8387 227.661 50.276C227.863 50.7027 228.151 51.0547 228.525 51.332C228.898 51.5987 229.341 51.732 229.853 51.732C230.311 51.732 230.69 51.6627 230.989 51.524C231.298 51.3853 231.543 51.236 231.725 51.076C231.906 50.9053 232.023 50.7773 232.077 50.692C232.173 50.5533 232.247 50.4733 232.301 50.452C232.354 50.42 232.439 50.404 232.557 50.404H232.813C232.909 50.404 232.989 50.436 233.053 50.5C233.127 50.5533 233.159 50.628 233.149 50.724C233.138 50.8733 233.053 51.06 232.893 51.284C232.743 51.4973 232.525 51.7107 232.237 51.924C231.959 52.1373 231.618 52.3133 231.213 52.452C230.807 52.5907 230.354 52.66 229.853 52.66ZM227.325 47.844H232.413V47.78C232.413 47.2467 232.311 46.7667 232.109 46.34C231.906 45.9133 231.613 45.5773 231.229 45.332C230.845 45.076 230.386 44.948 229.853 44.948C229.319 44.948 228.861 45.076 228.477 45.332C228.103 45.5773 227.815 45.9133 227.613 46.34C227.421 46.7667 227.325 47.2467 227.325 47.78V47.844ZM238.651 52.66C237.904 52.66 237.27 52.516 236.747 52.228C236.224 51.9293 235.824 51.5027 235.547 50.948C235.28 50.3933 235.136 49.7373 235.115 48.98C235.104 48.82 235.099 48.6067 235.099 48.34C235.099 48.0733 235.104 47.86 235.115 47.7C235.136 46.932 235.28 46.276 235.547 45.732C235.824 45.1773 236.224 44.756 236.747 44.468C237.27 44.1693 237.904 44.02 238.651 44.02C239.216 44.02 239.702 44.1 240.107 44.26C240.523 44.4093 240.864 44.612 241.131 44.868C241.398 45.1133 241.6 45.3853 241.739 45.684C241.878 45.9827 241.952 46.276 241.963 46.564C241.974 46.6707 241.942 46.756 241.867 46.82C241.792 46.884 241.707 46.916 241.611 46.916H241.387C241.28 46.916 241.2 46.8947 241.147 46.852C241.104 46.7987 241.056 46.708 241.003 46.58C240.779 45.972 240.47 45.5507 240.075 45.316C239.691 45.0707 239.216 44.948 238.651 44.948C237.926 44.948 237.323 45.172 236.843 45.62C236.374 46.0573 236.123 46.7773 236.091 47.78C236.07 48.1533 236.07 48.5267 236.091 48.9C236.123 49.9027 236.374 50.628 236.843 51.076C237.323 51.5133 237.926 51.732 238.651 51.732C239.216 51.732 239.691 51.6147 240.075 51.38C240.47 51.1347 240.779 50.708 241.003 50.1C241.056 49.972 241.104 49.8867 241.147 49.844C241.2 49.7907 241.28 49.764 241.387 49.764H241.611C241.707 49.764 241.792 49.796 241.867 49.86C241.942 49.924 241.974 50.0093 241.963 50.116C241.952 50.3507 241.904 50.5853 241.819 50.82C241.734 51.0547 241.6 51.284 241.419 51.508C241.248 51.732 241.035 51.9293 240.779 52.1C240.523 52.2707 240.214 52.404 239.851 52.5C239.499 52.6067 239.099 52.66 238.651 52.66ZM244.445 52.5C244.338 52.5 244.253 52.468 244.189 52.404C244.125 52.34 244.093 52.2547 244.093 52.148V41.492C244.093 41.3853 244.125 41.3 244.189 41.236C244.253 41.172 244.338 41.14 244.445 41.14H244.717C244.824 41.14 244.909 41.172 244.973 41.236C245.037 41.3 245.069 41.3853 245.069 41.492V45.284C245.357 44.9107 245.704 44.6067 246.109 44.372C246.525 44.1373 247.074 44.02 247.757 44.02C248.482 44.02 249.085 44.18 249.565 44.5C250.056 44.8093 250.418 45.236 250.653 45.78C250.898 46.3133 251.021 46.9213 251.021 47.604V52.148C251.021 52.2547 250.989 52.34 250.925 52.404C250.861 52.468 250.776 52.5 250.669 52.5H250.397C250.29 52.5 250.205 52.468 250.141 52.404C250.077 52.34 250.045 52.2547 250.045 52.148V47.684C250.045 46.8307 249.837 46.164 249.421 45.684C249.005 45.1933 248.397 44.948 247.597 44.948C246.84 44.948 246.226 45.1933 245.757 45.684C245.298 46.164 245.069 46.8307 245.069 47.684V52.148C245.069 52.2547 245.037 52.34 244.973 52.404C244.909 52.468 244.824 52.5 244.717 52.5H244.445ZM255.77 52.66C255.258 52.66 254.783 52.5533 254.346 52.34C253.919 52.1267 253.573 51.844 253.306 51.492C253.039 51.1293 252.906 50.724 252.906 50.276C252.906 49.5507 253.199 48.9693 253.786 48.532C254.373 48.0947 255.135 47.812 256.074 47.684L258.602 47.332V46.772C258.602 46.2067 258.426 45.764 258.074 45.444C257.733 45.1133 257.183 44.948 256.426 44.948C255.871 44.948 255.423 45.06 255.082 45.284C254.741 45.4973 254.506 45.78 254.378 46.132C254.325 46.292 254.223 46.372 254.074 46.372H253.818C253.69 46.372 253.599 46.34 253.546 46.276C253.493 46.2013 253.466 46.116 253.466 46.02C253.466 45.8707 253.519 45.684 253.626 45.46C253.743 45.236 253.919 45.0173 254.154 44.804C254.389 44.58 254.693 44.3933 255.066 44.244C255.439 44.0947 255.893 44.02 256.426 44.02C257.055 44.02 257.573 44.1053 257.978 44.276C258.394 44.4467 258.714 44.6707 258.938 44.948C259.173 45.2147 259.338 45.5133 259.434 45.844C259.53 46.1747 259.578 46.5 259.578 46.82V52.148C259.578 52.2547 259.546 52.34 259.482 52.404C259.418 52.468 259.333 52.5 259.226 52.5H258.954C258.847 52.5 258.762 52.468 258.698 52.404C258.634 52.34 258.602 52.2547 258.602 52.148V51.396C258.474 51.588 258.293 51.78 258.058 51.972C257.823 52.164 257.519 52.3293 257.146 52.468C256.783 52.596 256.325 52.66 255.77 52.66ZM255.93 51.732C256.421 51.732 256.869 51.6253 257.274 51.412C257.679 51.1987 257.999 50.8733 258.234 50.436C258.479 49.988 258.602 49.428 258.602 48.756V48.212L256.538 48.5C255.663 48.6173 255.002 48.82 254.554 49.108C254.106 49.396 253.882 49.7587 253.882 50.196C253.882 50.548 253.983 50.836 254.186 51.06C254.389 51.284 254.645 51.4547 254.954 51.572C255.274 51.6787 255.599 51.732 255.93 51.732ZM262.46 52.5C262.354 52.5 262.268 52.468 262.204 52.404C262.14 52.34 262.108 52.2547 262.108 52.148V44.532C262.108 44.4253 262.14 44.34 262.204 44.276C262.268 44.212 262.354 44.18 262.46 44.18H262.732C262.839 44.18 262.924 44.212 262.988 44.276C263.052 44.34 263.084 44.4253 263.084 44.532V52.148C263.084 52.2547 263.052 52.34 262.988 52.404C262.924 52.468 262.839 52.5 262.732 52.5H262.46ZM262.284 42.468C262.178 42.468 262.092 42.436 262.028 42.372C261.964 42.308 261.932 42.2227 261.932 42.116V41.508C261.932 41.4013 261.964 41.316 262.028 41.252C262.092 41.1773 262.178 41.14 262.284 41.14H262.892C262.999 41.14 263.084 41.1773 263.148 41.252C263.223 41.316 263.26 41.4013 263.26 41.508V42.116C263.26 42.2227 263.223 42.308 263.148 42.372C263.084 42.436 262.999 42.468 262.892 42.468H262.284ZM266.023 52.5C265.916 52.5 265.831 52.468 265.767 52.404C265.703 52.34 265.671 52.2547 265.671 52.148V44.532C265.671 44.4253 265.703 44.34 265.767 44.276C265.831 44.212 265.916 44.18 266.023 44.18H266.295C266.401 44.18 266.487 44.212 266.551 44.276C266.615 44.34 266.647 44.4253 266.647 44.532V45.284C266.935 44.9107 267.281 44.6067 267.687 44.372C268.103 44.1373 268.652 44.02 269.335 44.02C270.06 44.02 270.663 44.18 271.143 44.5C271.633 44.8093 271.996 45.236 272.231 45.78C272.476 46.3133 272.599 46.9213 272.599 47.604V52.148C272.599 52.2547 272.567 52.34 272.503 52.404C272.439 52.468 272.353 52.5 272.247 52.5H271.975C271.868 52.5 271.783 52.468 271.719 52.404C271.655 52.34 271.623 52.2547 271.623 52.148V47.684C271.623 46.8307 271.415 46.164 270.999 45.684C270.583 45.1933 269.975 44.948 269.175 44.948C268.417 44.948 267.804 45.1933 267.335 45.684C266.876 46.164 266.647 46.8307 266.647 47.684V52.148C266.647 52.2547 266.615 52.34 266.551 52.404C266.487 52.468 266.401 52.5 266.295 52.5H266.023ZM279.793 52.5C279.687 52.5 279.601 52.468 279.537 52.404C279.473 52.34 279.441 52.2547 279.441 52.148V41.652C279.441 41.5453 279.473 41.46 279.537 41.396C279.601 41.332 279.687 41.3 279.793 41.3H280.097C280.204 41.3 280.289 41.332 280.353 41.396C280.417 41.46 280.449 41.5453 280.449 41.652V51.54H285.969C286.087 51.54 286.177 51.572 286.241 51.636C286.305 51.7 286.337 51.7907 286.337 51.908V52.148C286.337 52.2547 286.305 52.34 286.241 52.404C286.177 52.468 286.087 52.5 285.969 52.5H279.793ZM290.239 52.66C289.727 52.66 289.252 52.5533 288.815 52.34C288.388 52.1267 288.042 51.844 287.775 51.492C287.508 51.1293 287.375 50.724 287.375 50.276C287.375 49.5507 287.668 48.9693 288.255 48.532C288.842 48.0947 289.604 47.812 290.543 47.684L293.071 47.332V46.772C293.071 46.2067 292.895 45.764 292.543 45.444C292.202 45.1133 291.652 44.948 290.895 44.948C290.34 44.948 289.892 45.06 289.551 45.284C289.21 45.4973 288.975 45.78 288.847 46.132C288.794 46.292 288.692 46.372 288.543 46.372H288.287C288.159 46.372 288.068 46.34 288.015 46.276C287.962 46.2013 287.935 46.116 287.935 46.02C287.935 45.8707 287.988 45.684 288.095 45.46C288.212 45.236 288.388 45.0173 288.623 44.804C288.858 44.58 289.162 44.3933 289.535 44.244C289.908 44.0947 290.362 44.02 290.895 44.02C291.524 44.02 292.042 44.1053 292.447 44.276C292.863 44.4467 293.183 44.6707 293.407 44.948C293.642 45.2147 293.807 45.5133 293.903 45.844C293.999 46.1747 294.047 46.5 294.047 46.82V52.148C294.047 52.2547 294.015 52.34 293.951 52.404C293.887 52.468 293.802 52.5 293.695 52.5H293.423C293.316 52.5 293.231 52.468 293.167 52.404C293.103 52.34 293.071 52.2547 293.071 52.148V51.396C292.943 51.588 292.762 51.78 292.527 51.972C292.292 52.164 291.988 52.3293 291.615 52.468C291.252 52.596 290.794 52.66 290.239 52.66ZM290.399 51.732C290.89 51.732 291.338 51.6253 291.743 51.412C292.148 51.1987 292.468 50.8733 292.703 50.436C292.948 49.988 293.071 49.428 293.071 48.756V48.212L291.007 48.5C290.132 48.6173 289.471 48.82 289.023 49.108C288.575 49.396 288.351 49.7587 288.351 50.196C288.351 50.548 288.452 50.836 288.655 51.06C288.858 51.284 289.114 51.4547 289.423 51.572C289.743 51.6787 290.068 51.732 290.399 51.732ZM300.257 52.66C299.596 52.66 299.046 52.5427 298.609 52.308C298.182 52.0627 297.836 51.7587 297.569 51.396V52.148C297.569 52.2547 297.537 52.34 297.473 52.404C297.409 52.468 297.324 52.5 297.217 52.5H296.945C296.838 52.5 296.753 52.468 296.689 52.404C296.625 52.34 296.593 52.2547 296.593 52.148V41.492C296.593 41.3853 296.625 41.3 296.689 41.236C296.753 41.172 296.838 41.14 296.945 41.14H297.217C297.324 41.14 297.409 41.172 297.473 41.236C297.537 41.3 297.569 41.3853 297.569 41.492V45.284C297.836 44.932 298.182 44.6333 298.609 44.388C299.046 44.1427 299.596 44.02 300.257 44.02C300.886 44.02 301.414 44.132 301.841 44.356C302.268 44.58 302.614 44.8787 302.881 45.252C303.148 45.6253 303.345 46.0413 303.473 46.5C303.601 46.9587 303.67 47.4227 303.681 47.892C303.692 48.052 303.697 48.2013 303.697 48.34C303.697 48.4787 303.692 48.628 303.681 48.788C303.67 49.2573 303.601 49.7213 303.473 50.18C303.345 50.6387 303.148 51.0547 302.881 51.428C302.614 51.8013 302.268 52.1 301.841 52.324C301.414 52.548 300.886 52.66 300.257 52.66ZM300.161 51.732C300.79 51.732 301.286 51.5933 301.649 51.316C302.012 51.0387 302.273 50.676 302.433 50.228C302.593 49.78 302.684 49.3 302.705 48.788C302.716 48.4893 302.716 48.1907 302.705 47.892C302.684 47.38 302.593 46.9 302.433 46.452C302.273 46.004 302.012 45.6413 301.649 45.364C301.286 45.0867 300.79 44.948 300.161 44.948C299.574 44.948 299.089 45.0867 298.705 45.364C298.332 45.6413 298.049 45.988 297.857 46.404C297.676 46.82 297.58 47.2413 297.569 47.668C297.558 47.828 297.553 48.036 297.553 48.292C297.553 48.548 297.558 48.756 297.569 48.916C297.59 49.3533 297.686 49.7907 297.857 50.228C298.038 50.6547 298.316 51.012 298.689 51.3C299.062 51.588 299.553 51.732 300.161 51.732ZM308.498 52.66C307.944 52.66 307.464 52.5853 307.058 52.436C306.664 52.2867 306.338 52.1107 306.082 51.908C305.826 51.6947 305.634 51.4867 305.506 51.284C305.389 51.0813 305.325 50.9267 305.314 50.82C305.304 50.7027 305.341 50.6173 305.426 50.564C305.512 50.5 305.592 50.468 305.666 50.468H305.906C305.97 50.468 306.024 50.4787 306.066 50.5C306.12 50.5213 306.184 50.58 306.258 50.676C306.397 50.8573 306.557 51.0333 306.738 51.204C306.92 51.364 307.149 51.492 307.426 51.588C307.714 51.684 308.072 51.732 308.498 51.732C309.138 51.732 309.666 51.6093 310.082 51.364C310.498 51.1187 310.706 50.756 310.706 50.276C310.706 49.9773 310.621 49.7373 310.45 49.556C310.29 49.3747 310.013 49.2147 309.618 49.076C309.224 48.9373 308.69 48.7933 308.018 48.644C307.346 48.484 306.829 48.292 306.466 48.068C306.114 47.844 305.874 47.588 305.746 47.3C305.618 47.0013 305.554 46.6813 305.554 46.34C305.554 45.9667 305.661 45.604 305.874 45.252C306.088 44.8893 306.402 44.596 306.818 44.372C307.245 44.1373 307.778 44.02 308.418 44.02C308.941 44.02 309.384 44.0893 309.746 44.228C310.12 44.3667 310.424 44.5373 310.658 44.74C310.893 44.932 311.064 45.124 311.17 45.316C311.288 45.508 311.352 45.6627 311.362 45.78C311.373 45.8867 311.341 45.972 311.266 46.036C311.192 46.1 311.106 46.132 311.01 46.132H310.77C310.685 46.132 310.616 46.116 310.562 46.084C310.509 46.0413 310.461 45.988 310.418 45.924C310.312 45.7533 310.184 45.5933 310.034 45.444C309.885 45.2947 309.682 45.1773 309.426 45.092C309.181 44.996 308.845 44.948 308.418 44.948C307.778 44.948 307.304 45.0813 306.994 45.348C306.685 45.604 306.53 45.9347 306.53 46.34C306.53 46.5747 306.594 46.7827 306.722 46.964C306.85 47.1347 307.09 47.2947 307.442 47.444C307.794 47.5827 308.306 47.732 308.978 47.892C309.661 48.0413 310.2 48.228 310.594 48.452C310.989 48.6653 311.266 48.9213 311.426 49.22C311.597 49.5187 311.682 49.8707 311.682 50.276C311.682 50.7027 311.56 51.0973 311.314 51.46C311.08 51.8227 310.722 52.116 310.242 52.34C309.773 52.5533 309.192 52.66 308.498 52.66Z" fill="#5C5C5C"/>
</svg>
