<svg width="247" height="56" viewBox="0 0 247 56" fill="none" xmlns="http://www.w3.org/2000/svg">
<path d="M1.77576 4.7H10.1998C11.4958 4.7 12.5358 5.068 13.3198 5.804C14.1198 6.524 14.5198 7.476 14.5198 8.66V10.388C14.5198 11.22 14.2558 11.956 13.7278 12.596C13.2158 13.236 12.5118 13.7 11.6158 13.988V14.012C12.5598 14.572 13.2638 15.596 13.7278 17.084L15.0478 21.5H12.6958L11.3998 17.18C11.1758 16.428 10.8158 15.836 10.3198 15.404C9.83976 14.972 9.28776 14.756 8.66376 14.756H4.05576V21.5H1.77576V4.7ZM9.57576 12.74C10.3758 12.74 11.0158 12.524 11.4958 12.092C11.9918 11.66 12.2398 11.092 12.2398 10.388V8.636C12.2398 8.06 12.0478 7.596 11.6638 7.244C11.2798 6.892 10.7758 6.716 10.1518 6.716H4.05576V12.74H9.57576ZM21.7001 21.692C20.2921 21.692 19.1561 21.268 18.2921 20.42C17.4441 19.572 17.0201 18.46 17.0201 17.084V13.964C17.0201 12.572 17.4521 11.452 18.3161 10.604C19.1801 9.756 20.3241 9.332 21.7481 9.332H23.7641C25.1881 9.332 26.3321 9.756 27.1961 10.604C28.0601 11.452 28.4921 12.572 28.4921 13.964V17.084C28.4921 18.46 28.0521 19.572 27.1721 20.42C26.3081 21.268 25.1641 21.692 23.7401 21.692H21.7001ZM23.7161 19.724C24.4841 19.724 25.1001 19.476 25.5641 18.98C26.0281 18.484 26.2601 17.82 26.2601 16.988V14.036C26.2601 13.204 26.0281 12.54 25.5641 12.044C25.1161 11.548 24.5161 11.3 23.7641 11.3H21.7481C20.9961 11.3 20.3881 11.548 19.9241 12.044C19.4761 12.54 19.2521 13.204 19.2521 14.036V16.988C19.2521 17.82 19.4761 18.484 19.9241 18.98C20.3721 19.476 20.9721 19.724 21.7241 19.724H23.7161ZM31.3751 4.7H33.6071V11.036C33.9751 10.524 34.4391 10.116 34.9991 9.812C35.5591 9.492 36.1111 9.332 36.6551 9.332H38.2871C39.4391 9.332 40.3671 9.716 41.0711 10.484C41.7911 11.252 42.1511 12.26 42.1511 13.508V21.5H39.9191V13.508C39.9191 12.852 39.7511 12.324 39.4151 11.924C39.0791 11.508 38.6391 11.3 38.0951 11.3H36.5591C35.8711 11.3 35.2471 11.564 34.6871 12.092C34.1271 12.604 33.7671 13.276 33.6071 14.108V21.5H31.3751V4.7ZM48.9433 21.692C47.7433 21.692 46.7833 21.388 46.0633 20.78C45.3433 20.156 44.9833 19.332 44.9833 18.308V17.516C44.9833 16.508 45.3593 15.7 46.1113 15.092C46.8633 14.468 47.8473 14.156 49.0633 14.156H50.5753C51.0553 14.156 51.5673 14.228 52.1113 14.372C52.6553 14.516 53.1193 14.716 53.5033 14.972V13.22C53.5033 12.628 53.3193 12.156 52.9513 11.804C52.5833 11.436 52.1033 11.252 51.5113 11.252H49.5433C48.9353 11.252 48.4473 11.396 48.0793 11.684C47.7113 11.972 47.5273 12.348 47.5273 12.812H45.3193C45.3193 11.772 45.7033 10.932 46.4713 10.292C47.2553 9.652 48.2793 9.332 49.5433 9.332H51.5113C52.7753 9.332 53.7913 9.692 54.5593 10.412C55.3273 11.116 55.7113 12.052 55.7113 13.22V21.5H53.6233V19.892C53.2553 20.436 52.7753 20.876 52.1833 21.212C51.5913 21.532 50.9913 21.692 50.3833 21.692H48.9433ZM50.5033 19.844C51.2073 19.844 51.8313 19.644 52.3753 19.244C52.9193 18.828 53.2953 18.276 53.5033 17.588V16.868C53.1993 16.596 52.7833 16.38 52.2553 16.22C51.7273 16.06 51.1833 15.98 50.6233 15.98H49.0873C48.5273 15.98 48.0713 16.124 47.7193 16.412C47.3673 16.7 47.1913 17.084 47.1913 17.564V18.284C47.1913 18.764 47.3593 19.148 47.6953 19.436C48.0473 19.708 48.5113 19.844 49.0873 19.844H50.5033ZM58.9376 9.524H61.0736V11.18C61.4256 10.636 61.8896 10.196 62.4656 9.86C63.0576 9.508 63.6416 9.332 64.2176 9.332H65.8016C66.9536 9.332 67.8816 9.716 68.5856 10.484C69.3056 11.252 69.6656 12.26 69.6656 13.508V21.5H67.4336V13.508C67.4336 12.852 67.2656 12.324 66.9296 11.924C66.5936 11.508 66.1536 11.3 65.6096 11.3H64.1216C63.4336 11.3 62.8096 11.564 62.2496 12.092C61.6896 12.62 61.3296 13.308 61.1696 14.156V21.5H58.9376V9.524ZM83.9602 21.692C82.4082 21.692 81.1682 21.228 80.2402 20.3C79.3122 19.372 78.8482 18.124 78.8482 16.556H81.0802C81.0802 17.5 81.3442 18.252 81.8722 18.812C82.4162 19.372 83.1282 19.652 84.0082 19.652H86.6722C87.5522 19.652 88.2562 19.468 88.7842 19.1C89.3122 18.716 89.5762 18.212 89.5762 17.588V16.292C89.5762 15.796 89.3842 15.38 89.0002 15.044C88.6322 14.708 88.1042 14.484 87.4162 14.372L83.0482 13.652C81.7682 13.444 80.7762 13.004 80.0722 12.332C79.3842 11.66 79.0402 10.82 79.0402 9.812V8.492C79.0402 7.292 79.4962 6.332 80.4082 5.612C81.3362 4.876 82.5522 4.508 84.0562 4.508H86.7682C87.7122 4.508 88.5442 4.708 89.2642 5.108C90.0002 5.492 90.5682 6.044 90.9682 6.764C91.3682 7.468 91.5682 8.284 91.5682 9.212H89.3122C89.3122 8.412 89.0802 7.772 88.6162 7.292C88.1522 6.796 87.5362 6.548 86.7682 6.548H84.0562C83.2402 6.548 82.5762 6.732 82.0642 7.1C81.5682 7.452 81.3202 7.94 81.3202 8.564V9.644C81.3202 10.156 81.4962 10.58 81.8482 10.916C82.2162 11.252 82.7362 11.484 83.4082 11.612L87.7282 12.356C89.0562 12.58 90.0722 13.02 90.7762 13.676C91.4962 14.316 91.8562 15.124 91.8562 16.1V17.66C91.8562 18.876 91.3842 19.852 90.4402 20.588C89.5122 21.324 88.2722 21.692 86.7202 21.692H83.9602ZM94.6094 4.7H96.8414V11.036C97.2094 10.524 97.6734 10.116 98.2334 9.812C98.7934 9.492 99.3454 9.332 99.8894 9.332H101.521C102.673 9.332 103.601 9.716 104.305 10.484C105.025 11.252 105.385 12.26 105.385 13.508V21.5H103.153V13.508C103.153 12.852 102.985 12.324 102.649 11.924C102.313 11.508 101.873 11.3 101.329 11.3H99.7934C99.1054 11.3 98.4814 11.564 97.9214 12.092C97.3614 12.604 97.0014 13.276 96.8414 14.108V21.5H94.6094V4.7ZM112.178 21.692C110.978 21.692 110.018 21.388 109.298 20.78C108.578 20.156 108.218 19.332 108.218 18.308V17.516C108.218 16.508 108.594 15.7 109.346 15.092C110.098 14.468 111.082 14.156 112.298 14.156H113.81C114.29 14.156 114.802 14.228 115.346 14.372C115.89 14.516 116.354 14.716 116.738 14.972V13.22C116.738 12.628 116.554 12.156 116.186 11.804C115.818 11.436 115.338 11.252 114.746 11.252H112.778C112.17 11.252 111.682 11.396 111.314 11.684C110.946 11.972 110.762 12.348 110.762 12.812H108.554C108.554 11.772 108.938 10.932 109.706 10.292C110.49 9.652 111.514 9.332 112.778 9.332H114.746C116.01 9.332 117.026 9.692 117.794 10.412C118.562 11.116 118.946 12.052 118.946 13.22V21.5H116.858V19.892C116.49 20.436 116.01 20.876 115.418 21.212C114.826 21.532 114.226 21.692 113.618 21.692H112.178ZM113.738 19.844C114.442 19.844 115.066 19.644 115.61 19.244C116.154 18.828 116.53 18.276 116.738 17.588V16.868C116.434 16.596 116.018 16.38 115.49 16.22C114.962 16.06 114.418 15.98 113.858 15.98H112.322C111.762 15.98 111.306 16.124 110.954 16.412C110.602 16.7 110.426 17.084 110.426 17.564V18.284C110.426 18.764 110.594 19.148 110.93 19.436C111.282 19.708 111.746 19.844 112.322 19.844H113.738ZM122.172 9.524H124.308V11.276C124.628 10.748 125.092 10.316 125.7 9.98C126.324 9.644 126.972 9.476 127.644 9.476H128.892V11.468H127.644C126.668 11.468 125.884 11.772 125.292 12.38C124.7 12.972 124.404 13.756 124.404 14.732V21.5H122.172V9.524ZM134.115 21.692C132.915 21.692 131.955 21.388 131.235 20.78C130.515 20.156 130.155 19.332 130.155 18.308V17.516C130.155 16.508 130.531 15.7 131.283 15.092C132.035 14.468 133.019 14.156 134.235 14.156H135.747C136.227 14.156 136.739 14.228 137.283 14.372C137.827 14.516 138.291 14.716 138.675 14.972V13.22C138.675 12.628 138.491 12.156 138.123 11.804C137.755 11.436 137.275 11.252 136.683 11.252H134.715C134.107 11.252 133.619 11.396 133.251 11.684C132.883 11.972 132.699 12.348 132.699 12.812H130.491C130.491 11.772 130.875 10.932 131.643 10.292C132.427 9.652 133.451 9.332 134.715 9.332H136.683C137.947 9.332 138.963 9.692 139.731 10.412C140.499 11.116 140.883 12.052 140.883 13.22V21.5H138.795V19.892C138.427 20.436 137.947 20.876 137.355 21.212C136.763 21.532 136.163 21.692 135.555 21.692H134.115ZM135.675 19.844C136.379 19.844 137.003 19.644 137.547 19.244C138.091 18.828 138.467 18.276 138.675 17.588V16.868C138.371 16.596 137.955 16.38 137.427 16.22C136.899 16.06 136.355 15.98 135.795 15.98H134.259C133.699 15.98 133.243 16.124 132.891 16.412C132.539 16.7 132.363 17.084 132.363 17.564V18.284C132.363 18.764 132.531 19.148 132.867 19.436C133.219 19.708 133.683 19.844 134.259 19.844H135.675ZM144.109 9.524H146.245V11.18C146.597 10.636 147.061 10.196 147.637 9.86C148.229 9.508 148.813 9.332 149.389 9.332H150.973C152.125 9.332 153.053 9.716 153.757 10.484C154.477 11.252 154.837 12.26 154.837 13.508V21.5H152.605V13.508C152.605 12.852 152.437 12.324 152.101 11.924C151.765 11.508 151.325 11.3 150.781 11.3H149.293C148.605 11.3 147.981 11.564 147.421 12.092C146.861 12.62 146.501 13.308 146.341 14.156V21.5H144.109V9.524Z" fill="#333333"/>
<path d="M1.85576 52.5C1.74909 52.5 1.66376 52.468 1.59976 52.404C1.53576 52.34 1.50376 52.2547 1.50376 52.148V41.668C1.50376 41.5507 1.53576 41.46 1.59976 41.396C1.66376 41.332 1.74909 41.3 1.85576 41.3H8.03176C8.14909 41.3 8.23976 41.332 8.30376 41.396C8.36776 41.46 8.39976 41.5507 8.39976 41.668V41.908C8.39976 42.0147 8.36776 42.1 8.30376 42.164C8.23976 42.228 8.14909 42.26 8.03176 42.26H2.51176V46.564H7.71176C7.82909 46.564 7.91976 46.596 7.98376 46.66C8.04776 46.724 8.07976 46.8147 8.07976 46.932V47.172C8.07976 47.2787 8.04776 47.364 7.98376 47.428C7.91976 47.492 7.82909 47.524 7.71176 47.524H2.51176V52.148C2.51176 52.2547 2.47976 52.34 2.41576 52.404C2.35176 52.468 2.26109 52.5 2.14376 52.5H1.85576ZM13.4013 52.66C12.6333 52.66 11.9879 52.5 11.4653 52.18C10.9533 51.86 10.5586 51.4227 10.2813 50.868C10.0146 50.3133 9.87059 49.6947 9.84926 49.012C9.83859 48.852 9.83326 48.628 9.83326 48.34C9.83326 48.052 9.83859 47.828 9.84926 47.668C9.87059 46.9747 10.0146 46.356 10.2813 45.812C10.5586 45.2573 10.9533 44.82 11.4653 44.5C11.9879 44.18 12.6333 44.02 13.4013 44.02C14.1693 44.02 14.8093 44.18 15.3213 44.5C15.8439 44.82 16.2386 45.2573 16.5053 45.812C16.7826 46.356 16.9319 46.9747 16.9533 47.668C16.9639 47.828 16.9693 48.052 16.9693 48.34C16.9693 48.628 16.9639 48.852 16.9533 49.012C16.9319 49.6947 16.7826 50.3133 16.5053 50.868C16.2386 51.4227 15.8439 51.86 15.3213 52.18C14.8093 52.5 14.1693 52.66 13.4013 52.66ZM13.4013 51.732C14.1479 51.732 14.7559 51.492 15.2253 51.012C15.6946 50.532 15.9453 49.8387 15.9773 48.932C15.9879 48.772 15.9933 48.5747 15.9933 48.34C15.9933 48.1053 15.9879 47.908 15.9773 47.748C15.9453 46.8307 15.6946 46.1373 15.2253 45.668C14.7559 45.188 14.1479 44.948 13.4013 44.948C12.6546 44.948 12.0466 45.188 11.5773 45.668C11.1079 46.1373 10.8573 46.8307 10.8253 47.748C10.8146 47.908 10.8093 48.1053 10.8093 48.34C10.8093 48.5747 10.8146 48.772 10.8253 48.932C10.8573 49.8387 11.1079 50.532 11.5773 51.012C12.0466 51.492 12.6546 51.732 13.4013 51.732ZM22.2751 52.66C21.5498 52.66 20.9471 52.5053 20.4671 52.196C19.9978 51.876 19.6458 51.444 19.4111 50.9C19.1871 50.356 19.0751 49.748 19.0751 49.076V44.532C19.0751 44.4253 19.1071 44.34 19.1711 44.276C19.2351 44.212 19.3205 44.18 19.4271 44.18H19.6991C19.8058 44.18 19.8911 44.212 19.9551 44.276C20.0191 44.34 20.0511 44.4253 20.0511 44.532V48.996C20.0511 50.82 20.8458 51.732 22.4351 51.732C23.1925 51.732 23.8005 51.492 24.2591 51.012C24.7178 50.5213 24.9471 49.8493 24.9471 48.996V44.532C24.9471 44.4253 24.9791 44.34 25.0431 44.276C25.1071 44.212 25.1925 44.18 25.2991 44.18H25.5711C25.6778 44.18 25.7631 44.212 25.8271 44.276C25.8911 44.34 25.9231 44.4253 25.9231 44.532V52.148C25.9231 52.2547 25.8911 52.34 25.8271 52.404C25.7631 52.468 25.6778 52.5 25.5711 52.5H25.2991C25.1925 52.5 25.1071 52.468 25.0431 52.404C24.9791 52.34 24.9471 52.2547 24.9471 52.148V51.396C24.6591 51.7693 24.3125 52.0733 23.9071 52.308C23.5125 52.5427 22.9685 52.66 22.2751 52.66ZM28.8665 52.5C28.7598 52.5 28.6745 52.468 28.6105 52.404C28.5465 52.34 28.5145 52.2547 28.5145 52.148V44.532C28.5145 44.4253 28.5465 44.34 28.6105 44.276C28.6745 44.212 28.7598 44.18 28.8665 44.18H29.1385C29.2452 44.18 29.3305 44.212 29.3945 44.276C29.4585 44.34 29.4905 44.4253 29.4905 44.532V45.284C29.7785 44.9107 30.1252 44.6067 30.5305 44.372C30.9465 44.1373 31.4958 44.02 32.1785 44.02C32.9038 44.02 33.5065 44.18 33.9865 44.5C34.4772 44.8093 34.8398 45.236 35.0745 45.78C35.3198 46.3133 35.4425 46.9213 35.4425 47.604V52.148C35.4425 52.2547 35.4105 52.34 35.3465 52.404C35.2825 52.468 35.1972 52.5 35.0905 52.5H34.8185C34.7118 52.5 34.6265 52.468 34.5625 52.404C34.4985 52.34 34.4665 52.2547 34.4665 52.148V47.684C34.4665 46.8307 34.2585 46.164 33.8425 45.684C33.4265 45.1933 32.8185 44.948 32.0185 44.948C31.2612 44.948 30.6478 45.1933 30.1785 45.684C29.7198 46.164 29.4905 46.8307 29.4905 47.684V52.148C29.4905 52.2547 29.4585 52.34 29.3945 52.404C29.3305 52.468 29.2452 52.5 29.1385 52.5H28.8665ZM40.96 52.66C40.3413 52.66 39.8133 52.548 39.376 52.324C38.9493 52.1 38.6027 51.8013 38.336 51.428C38.0693 51.0547 37.872 50.6387 37.744 50.18C37.6267 49.7213 37.5573 49.2573 37.536 48.788C37.5253 48.628 37.52 48.4787 37.52 48.34C37.52 48.2013 37.5253 48.052 37.536 47.892C37.5573 47.4227 37.6267 46.9587 37.744 46.5C37.872 46.0413 38.0693 45.6253 38.336 45.252C38.6027 44.8787 38.9493 44.58 39.376 44.356C39.8133 44.132 40.3413 44.02 40.96 44.02C41.6213 44.02 42.1653 44.1427 42.592 44.388C43.0293 44.6333 43.3813 44.932 43.648 45.284V41.492C43.648 41.3853 43.68 41.3 43.744 41.236C43.808 41.172 43.8933 41.14 44 41.14H44.272C44.3787 41.14 44.464 41.172 44.528 41.236C44.592 41.3 44.624 41.3853 44.624 41.492V52.148C44.624 52.2547 44.592 52.34 44.528 52.404C44.464 52.468 44.3787 52.5 44.272 52.5H44C43.8933 52.5 43.808 52.468 43.744 52.404C43.68 52.34 43.648 52.2547 43.648 52.148V51.396C43.3813 51.7587 43.0293 52.0627 42.592 52.308C42.1653 52.5427 41.6213 52.66 40.96 52.66ZM41.056 51.732C41.664 51.732 42.1547 51.588 42.528 51.3C42.9013 51.012 43.1787 50.6547 43.36 50.228C43.5413 49.7907 43.6373 49.3533 43.648 48.916C43.6587 48.756 43.664 48.548 43.664 48.292C43.664 48.036 43.6587 47.828 43.648 47.668C43.6373 47.2413 43.536 46.82 43.344 46.404C43.1627 45.988 42.8853 45.6413 42.512 45.364C42.1387 45.0867 41.6533 44.948 41.056 44.948C40.4373 44.948 39.9413 45.0867 39.568 45.364C39.2053 45.6413 38.944 46.004 38.784 46.452C38.624 46.9 38.5333 47.38 38.512 47.892C38.5013 48.1907 38.5013 48.4893 38.512 48.788C38.5333 49.3 38.624 49.78 38.784 50.228C38.944 50.676 39.2053 51.0387 39.568 51.316C39.9413 51.5933 40.4373 51.732 41.056 51.732ZM50.3213 52.66C49.2866 52.66 48.4653 52.324 47.8573 51.652C47.2493 50.9693 46.9026 50.0787 46.8173 48.98C46.8066 48.82 46.8013 48.6067 46.8013 48.34C46.8013 48.0733 46.8066 47.86 46.8173 47.7C46.8706 46.9747 47.0413 46.3347 47.3293 45.78C47.6173 45.2253 48.0119 44.7933 48.5133 44.484C49.0253 44.1747 49.6279 44.02 50.3213 44.02C51.0679 44.02 51.7026 44.1853 52.2253 44.516C52.7479 44.8467 53.1479 45.3213 53.4253 45.94C53.7133 46.5587 53.8573 47.2947 53.8573 48.148V48.388C53.8573 48.4947 53.8199 48.58 53.7453 48.644C53.6813 48.708 53.5959 48.74 53.4893 48.74H47.7933C47.7933 48.74 47.7933 48.7613 47.7933 48.804C47.7933 48.8467 47.7933 48.8787 47.7933 48.9C47.8146 49.38 47.9266 49.8387 48.1293 50.276C48.3319 50.7027 48.6199 51.0547 48.9933 51.332C49.3666 51.5987 49.8093 51.732 50.3213 51.732C50.7799 51.732 51.1586 51.6627 51.4573 51.524C51.7666 51.3853 52.0119 51.236 52.1933 51.076C52.3746 50.9053 52.4919 50.7773 52.5453 50.692C52.6413 50.5533 52.7159 50.4733 52.7693 50.452C52.8226 50.42 52.9079 50.404 53.0253 50.404H53.2813C53.3773 50.404 53.4573 50.436 53.5213 50.5C53.5959 50.5533 53.6279 50.628 53.6173 50.724C53.6066 50.8733 53.5213 51.06 53.3613 51.284C53.2119 51.4973 52.9933 51.7107 52.7053 51.924C52.4279 52.1373 52.0866 52.3133 51.6813 52.452C51.2759 52.5907 50.8226 52.66 50.3213 52.66ZM47.7933 47.844H52.8813V47.78C52.8813 47.2467 52.7799 46.7667 52.5773 46.34C52.3746 45.9133 52.0813 45.5773 51.6973 45.332C51.3133 45.076 50.8546 44.948 50.3213 44.948C49.7879 44.948 49.3293 45.076 48.9453 45.332C48.5719 45.5773 48.2839 45.9133 48.0813 46.34C47.8893 46.7667 47.7933 47.2467 47.7933 47.78V47.844ZM56.3196 52.5C56.213 52.5 56.1276 52.468 56.0636 52.404C55.9996 52.34 55.9676 52.2547 55.9676 52.148V44.548C55.9676 44.4413 55.9996 44.356 56.0636 44.292C56.1276 44.2173 56.213 44.18 56.3196 44.18H56.5756C56.6823 44.18 56.7676 44.2173 56.8316 44.292C56.9063 44.356 56.9436 44.4413 56.9436 44.548V45.284C57.1356 44.9107 57.413 44.6333 57.7756 44.452C58.1383 44.2707 58.5863 44.18 59.1196 44.18H59.7116C59.8183 44.18 59.9036 44.212 59.9676 44.276C60.0316 44.34 60.0636 44.4253 60.0636 44.532V44.756C60.0636 44.8627 60.0316 44.948 59.9676 45.012C59.9036 45.076 59.8183 45.108 59.7116 45.108H59.0236C58.3836 45.108 57.877 45.2947 57.5036 45.668C57.1303 46.0413 56.9436 46.548 56.9436 47.188V52.148C56.9436 52.2547 56.9063 52.34 56.8316 52.404C56.7676 52.468 56.6823 52.5 56.5756 52.5H56.3196ZM67.5045 52.66C66.9925 52.66 66.5178 52.5533 66.0805 52.34C65.6538 52.1267 65.3072 51.844 65.0405 51.492C64.7738 51.1293 64.6405 50.724 64.6405 50.276C64.6405 49.5507 64.9338 48.9693 65.5205 48.532C66.1072 48.0947 66.8698 47.812 67.8085 47.684L70.3365 47.332V46.772C70.3365 46.2067 70.1605 45.764 69.8085 45.444C69.4672 45.1133 68.9178 44.948 68.1605 44.948C67.6058 44.948 67.1578 45.06 66.8165 45.284C66.4752 45.4973 66.2405 45.78 66.1125 46.132C66.0592 46.292 65.9578 46.372 65.8085 46.372H65.5525C65.4245 46.372 65.3338 46.34 65.2805 46.276C65.2272 46.2013 65.2005 46.116 65.2005 46.02C65.2005 45.8707 65.2538 45.684 65.3605 45.46C65.4778 45.236 65.6538 45.0173 65.8885 44.804C66.1232 44.58 66.4272 44.3933 66.8005 44.244C67.1738 44.0947 67.6272 44.02 68.1605 44.02C68.7898 44.02 69.3072 44.1053 69.7125 44.276C70.1285 44.4467 70.4485 44.6707 70.6725 44.948C70.9072 45.2147 71.0725 45.5133 71.1685 45.844C71.2645 46.1747 71.3125 46.5 71.3125 46.82V52.148C71.3125 52.2547 71.2805 52.34 71.2165 52.404C71.1525 52.468 71.0672 52.5 70.9605 52.5H70.6885C70.5818 52.5 70.4965 52.468 70.4325 52.404C70.3685 52.34 70.3365 52.2547 70.3365 52.148V51.396C70.2085 51.588 70.0272 51.78 69.7925 51.972C69.5578 52.164 69.2538 52.3293 68.8805 52.468C68.5178 52.596 68.0592 52.66 67.5045 52.66ZM67.6645 51.732C68.1552 51.732 68.6032 51.6253 69.0085 51.412C69.4138 51.1987 69.7338 50.8733 69.9685 50.436C70.2138 49.988 70.3365 49.428 70.3365 48.756V48.212L68.2725 48.5C67.3978 48.6173 66.7365 48.82 66.2885 49.108C65.8405 49.396 65.6165 49.7587 65.6165 50.196C65.6165 50.548 65.7178 50.836 65.9205 51.06C66.1232 51.284 66.3792 51.4547 66.6885 51.572C67.0085 51.6787 67.3338 51.732 67.6645 51.732ZM74.1946 52.5C74.088 52.5 74.0026 52.468 73.9386 52.404C73.8746 52.34 73.8426 52.2547 73.8426 52.148V44.532C73.8426 44.4253 73.8746 44.34 73.9386 44.276C74.0026 44.212 74.088 44.18 74.1946 44.18H74.4666C74.5733 44.18 74.6586 44.212 74.7226 44.276C74.7866 44.34 74.8186 44.4253 74.8186 44.532V45.284C75.1066 44.9107 75.4533 44.6067 75.8586 44.372C76.2746 44.1373 76.824 44.02 77.5066 44.02C78.232 44.02 78.8346 44.18 79.3146 44.5C79.8053 44.8093 80.168 45.236 80.4026 45.78C80.648 46.3133 80.7706 46.9213 80.7706 47.604V52.148C80.7706 52.2547 80.7386 52.34 80.6746 52.404C80.6106 52.468 80.5253 52.5 80.4186 52.5H80.1466C80.04 52.5 79.9546 52.468 79.8906 52.404C79.8266 52.34 79.7946 52.2547 79.7946 52.148V47.684C79.7946 46.8307 79.5866 46.164 79.1706 45.684C78.7546 45.1933 78.1466 44.948 77.3466 44.948C76.5893 44.948 75.976 45.1933 75.5066 45.684C75.048 46.164 74.8186 46.8307 74.8186 47.684V52.148C74.8186 52.2547 74.7866 52.34 74.7226 52.404C74.6586 52.468 74.5733 52.5 74.4666 52.5H74.1946ZM86.2881 52.66C85.6695 52.66 85.1415 52.548 84.7041 52.324C84.2775 52.1 83.9308 51.8013 83.6641 51.428C83.3975 51.0547 83.2001 50.6387 83.0721 50.18C82.9548 49.7213 82.8855 49.2573 82.8641 48.788C82.8535 48.628 82.8481 48.4787 82.8481 48.34C82.8481 48.2013 82.8535 48.052 82.8641 47.892C82.8855 47.4227 82.9548 46.9587 83.0721 46.5C83.2001 46.0413 83.3975 45.6253 83.6641 45.252C83.9308 44.8787 84.2775 44.58 84.7041 44.356C85.1415 44.132 85.6695 44.02 86.2881 44.02C86.9495 44.02 87.4935 44.1427 87.9201 44.388C88.3575 44.6333 88.7095 44.932 88.9761 45.284V41.492C88.9761 41.3853 89.0081 41.3 89.0721 41.236C89.1361 41.172 89.2215 41.14 89.3281 41.14H89.6001C89.7068 41.14 89.7921 41.172 89.8561 41.236C89.9201 41.3 89.9521 41.3853 89.9521 41.492V52.148C89.9521 52.2547 89.9201 52.34 89.8561 52.404C89.7921 52.468 89.7068 52.5 89.6001 52.5H89.3281C89.2215 52.5 89.1361 52.468 89.0721 52.404C89.0081 52.34 88.9761 52.2547 88.9761 52.148V51.396C88.7095 51.7587 88.3575 52.0627 87.9201 52.308C87.4935 52.5427 86.9495 52.66 86.2881 52.66ZM86.3841 51.732C86.9921 51.732 87.4828 51.588 87.8561 51.3C88.2295 51.012 88.5068 50.6547 88.6881 50.228C88.8695 49.7907 88.9655 49.3533 88.9761 48.916C88.9868 48.756 88.9921 48.548 88.9921 48.292C88.9921 48.036 88.9868 47.828 88.9761 47.668C88.9655 47.2413 88.8641 46.82 88.6721 46.404C88.4908 45.988 88.2135 45.6413 87.8401 45.364C87.4668 45.0867 86.9815 44.948 86.3841 44.948C85.7655 44.948 85.2695 45.0867 84.8961 45.364C84.5335 45.6413 84.2721 46.004 84.1121 46.452C83.9521 46.9 83.8615 47.38 83.8401 47.892C83.8295 48.1907 83.8295 48.4893 83.8401 48.788C83.8615 49.3 83.9521 49.78 84.1121 50.228C84.2721 50.676 84.5335 51.0387 84.8961 51.316C85.2695 51.5933 85.7655 51.732 86.3841 51.732ZM100.686 52.66C99.7157 52.66 98.921 52.4733 98.3024 52.1C97.6944 51.716 97.241 51.1987 96.9424 50.548C96.6437 49.8973 96.4784 49.156 96.4464 48.324C96.4357 47.8867 96.4304 47.4173 96.4304 46.916C96.4304 46.4147 96.4357 45.9347 96.4464 45.476C96.4784 44.644 96.6437 43.9027 96.9424 43.252C97.241 42.5907 97.6944 42.0733 98.3024 41.7C98.921 41.3267 99.7157 41.14 100.686 41.14C101.444 41.14 102.089 41.2467 102.622 41.46C103.156 41.6733 103.588 41.956 103.918 42.308C104.26 42.6493 104.51 43.0227 104.67 43.428C104.841 43.8227 104.937 44.212 104.958 44.596C104.969 44.692 104.937 44.772 104.862 44.836C104.798 44.8893 104.718 44.916 104.622 44.916H104.302C104.217 44.916 104.142 44.8947 104.078 44.852C104.014 44.7987 103.972 44.708 103.95 44.58C103.748 43.6307 103.364 42.98 102.798 42.628C102.244 42.276 101.54 42.1 100.686 42.1C99.7157 42.1 98.9424 42.3773 98.3664 42.932C97.801 43.476 97.497 44.3507 97.4544 45.556C97.4224 46.4307 97.4224 47.3267 97.4544 48.244C97.497 49.4493 97.801 50.3293 98.3664 50.884C98.9424 51.428 99.7157 51.7 100.686 51.7C101.54 51.7 102.244 51.524 102.798 51.172C103.364 50.82 103.748 50.1693 103.95 49.22C103.972 49.092 104.014 49.0067 104.078 48.964C104.142 48.9107 104.217 48.884 104.302 48.884H104.622C104.718 48.884 104.798 48.916 104.862 48.98C104.937 49.0333 104.969 49.108 104.958 49.204C104.937 49.588 104.841 49.9827 104.67 50.388C104.51 50.7827 104.26 51.156 103.918 51.508C103.588 51.8493 103.156 52.1267 102.622 52.34C102.089 52.5533 101.444 52.66 100.686 52.66ZM107.668 52.5C107.562 52.5 107.476 52.468 107.412 52.404C107.348 52.34 107.316 52.2547 107.316 52.148V41.668C107.316 41.5507 107.348 41.46 107.412 41.396C107.476 41.332 107.562 41.3 107.668 41.3H113.908C114.026 41.3 114.116 41.332 114.18 41.396C114.244 41.46 114.276 41.5507 114.276 41.668V41.908C114.276 42.0147 114.244 42.1 114.18 42.164C114.116 42.228 114.026 42.26 113.908 42.26H108.324V46.34H113.556C113.674 46.34 113.764 46.372 113.828 46.436C113.892 46.5 113.924 46.5907 113.924 46.708V46.948C113.924 47.0547 113.892 47.14 113.828 47.204C113.764 47.268 113.674 47.3 113.556 47.3H108.324V51.54H114.036C114.154 51.54 114.244 51.572 114.308 51.636C114.372 51.7 114.404 51.7907 114.404 51.908V52.148C114.404 52.2547 114.372 52.34 114.308 52.404C114.244 52.468 114.154 52.5 114.036 52.5H107.668ZM120.468 52.66C119.582 52.66 118.83 52.5053 118.212 52.196C117.593 51.876 117.118 51.3907 116.788 50.74C116.457 50.0787 116.276 49.2467 116.244 48.244C116.233 47.764 116.228 47.316 116.228 46.9C116.228 46.484 116.233 46.036 116.244 45.556C116.276 44.564 116.468 43.7427 116.82 43.092C117.172 42.4307 117.657 41.94 118.276 41.62C118.905 41.3 119.636 41.14 120.468 41.14C121.3 41.14 122.025 41.3 122.644 41.62C123.273 41.94 123.764 42.4307 124.116 43.092C124.478 43.7427 124.67 44.564 124.692 45.556C124.713 46.036 124.724 46.484 124.724 46.9C124.724 47.316 124.713 47.764 124.692 48.244C124.67 49.2467 124.489 50.0787 124.148 50.74C123.817 51.3907 123.342 51.876 122.724 52.196C122.105 52.5053 121.353 52.66 120.468 52.66ZM120.468 51.7C121.385 51.7 122.137 51.4227 122.724 50.868C123.321 50.3133 123.641 49.412 123.684 48.164C123.705 47.684 123.716 47.2627 123.716 46.9C123.716 46.5373 123.705 46.116 123.684 45.636C123.662 44.804 123.508 44.1267 123.22 43.604C122.942 43.0813 122.564 42.7027 122.084 42.468C121.614 42.2227 121.076 42.1 120.468 42.1C119.87 42.1 119.332 42.2227 118.852 42.468C118.382 42.7027 118.004 43.0813 117.716 43.604C117.438 44.1267 117.284 44.804 117.252 45.636C117.241 46.116 117.236 46.5373 117.236 46.9C117.236 47.2627 117.241 47.684 117.252 48.164C117.294 49.412 117.614 50.3133 118.212 50.868C118.809 51.4227 119.561 51.7 120.468 51.7ZM126.621 53.7C126.536 53.7 126.472 53.668 126.429 53.604C126.397 53.54 126.386 53.46 126.397 53.364L126.701 51.444C126.722 51.316 126.76 51.2147 126.813 51.14C126.877 51.0547 126.973 51.012 127.101 51.012H127.821C127.896 51.012 127.954 51.0387 127.997 51.092C128.04 51.1453 128.061 51.204 128.061 51.268C128.061 51.364 128.04 51.46 127.997 51.556L127.309 53.364C127.266 53.4707 127.213 53.5507 127.149 53.604C127.096 53.668 127.01 53.7 126.893 53.7H126.621ZM137.257 52.5C137.15 52.5 137.065 52.468 137.001 52.404C136.937 52.34 136.905 52.2547 136.905 52.148V42.26H133.737C133.63 42.26 133.545 42.228 133.481 42.164C133.417 42.1 133.385 42.0147 133.385 41.908V41.668C133.385 41.5507 133.417 41.46 133.481 41.396C133.545 41.332 133.63 41.3 133.737 41.3H141.065C141.182 41.3 141.273 41.332 141.337 41.396C141.401 41.46 141.433 41.5507 141.433 41.668V41.908C141.433 42.0147 141.401 42.1 141.337 42.164C141.273 42.228 141.182 42.26 141.065 42.26H137.913V52.148C137.913 52.2547 137.881 52.34 137.817 52.404C137.753 52.468 137.662 52.5 137.545 52.5H137.257ZM143.507 52.5C143.4 52.5 143.315 52.468 143.251 52.404C143.187 52.34 143.155 52.2547 143.155 52.148V44.532C143.155 44.4253 143.187 44.34 143.251 44.276C143.315 44.212 143.4 44.18 143.507 44.18H143.779C143.886 44.18 143.971 44.212 144.035 44.276C144.099 44.34 144.131 44.4253 144.131 44.532V52.148C144.131 52.2547 144.099 52.34 144.035 52.404C143.971 52.468 143.886 52.5 143.779 52.5H143.507ZM143.331 42.468C143.224 42.468 143.139 42.436 143.075 42.372C143.011 42.308 142.979 42.2227 142.979 42.116V41.508C142.979 41.4013 143.011 41.316 143.075 41.252C143.139 41.1773 143.224 41.14 143.331 41.14H143.939C144.046 41.14 144.131 41.1773 144.195 41.252C144.27 41.316 144.307 41.4013 144.307 41.508V42.116C144.307 42.2227 144.27 42.308 144.195 42.372C144.131 42.436 144.046 42.468 143.939 42.468H143.331ZM147.07 52.5C146.963 52.5 146.878 52.468 146.814 52.404C146.75 52.34 146.718 52.2547 146.718 52.148V44.532C146.718 44.4253 146.75 44.34 146.814 44.276C146.878 44.212 146.963 44.18 147.07 44.18H147.342C147.448 44.18 147.534 44.212 147.598 44.276C147.662 44.34 147.694 44.4253 147.694 44.532V45.092C147.96 44.7507 148.275 44.4893 148.638 44.308C149.011 44.116 149.459 44.02 149.982 44.02C151.176 44.02 152.03 44.5213 152.542 45.524C152.787 45.0653 153.144 44.7027 153.614 44.436C154.094 44.1587 154.643 44.02 155.262 44.02C155.827 44.02 156.334 44.1533 156.782 44.42C157.24 44.676 157.598 45.06 157.854 45.572C158.12 46.084 158.254 46.724 158.254 47.492V52.148C158.254 52.2547 158.222 52.34 158.158 52.404C158.094 52.468 158.008 52.5 157.902 52.5H157.63C157.523 52.5 157.438 52.468 157.374 52.404C157.31 52.34 157.278 52.2547 157.278 52.148V47.652C157.278 46.948 157.176 46.404 156.974 46.02C156.771 45.6253 156.504 45.348 156.174 45.188C155.843 45.028 155.486 44.948 155.102 44.948C154.782 44.948 154.456 45.028 154.126 45.188C153.795 45.348 153.518 45.6253 153.294 46.02C153.08 46.404 152.974 46.948 152.974 47.652V52.148C152.974 52.2547 152.942 52.34 152.878 52.404C152.814 52.468 152.728 52.5 152.622 52.5H152.35C152.243 52.5 152.158 52.468 152.094 52.404C152.03 52.34 151.998 52.2547 151.998 52.148V47.652C151.998 46.948 151.891 46.404 151.678 46.02C151.464 45.6253 151.192 45.348 150.862 45.188C150.531 45.028 150.184 44.948 149.822 44.948C149.502 44.948 149.176 45.028 148.846 45.188C148.515 45.348 148.238 45.6253 148.014 46.02C147.8 46.404 147.694 46.9427 147.694 47.636V52.148C147.694 52.2547 147.662 52.34 147.598 52.404C147.534 52.468 147.448 52.5 147.342 52.5H147.07ZM163.853 52.66C162.818 52.66 161.997 52.324 161.389 51.652C160.781 50.9693 160.434 50.0787 160.349 48.98C160.338 48.82 160.333 48.6067 160.333 48.34C160.333 48.0733 160.338 47.86 160.349 47.7C160.402 46.9747 160.573 46.3347 160.861 45.78C161.149 45.2253 161.543 44.7933 162.045 44.484C162.557 44.1747 163.159 44.02 163.853 44.02C164.599 44.02 165.234 44.1853 165.757 44.516C166.279 44.8467 166.679 45.3213 166.957 45.94C167.245 46.5587 167.389 47.2947 167.389 48.148V48.388C167.389 48.4947 167.351 48.58 167.277 48.644C167.213 48.708 167.127 48.74 167.021 48.74H161.325C161.325 48.74 161.325 48.7613 161.325 48.804C161.325 48.8467 161.325 48.8787 161.325 48.9C161.346 49.38 161.458 49.8387 161.661 50.276C161.863 50.7027 162.151 51.0547 162.525 51.332C162.898 51.5987 163.341 51.732 163.853 51.732C164.311 51.732 164.69 51.6627 164.989 51.524C165.298 51.3853 165.543 51.236 165.725 51.076C165.906 50.9053 166.023 50.7773 166.077 50.692C166.173 50.5533 166.247 50.4733 166.301 50.452C166.354 50.42 166.439 50.404 166.557 50.404H166.813C166.909 50.404 166.989 50.436 167.053 50.5C167.127 50.5533 167.159 50.628 167.149 50.724C167.138 50.8733 167.053 51.06 166.893 51.284C166.743 51.4973 166.525 51.7107 166.237 51.924C165.959 52.1373 165.618 52.3133 165.213 52.452C164.807 52.5907 164.354 52.66 163.853 52.66ZM161.325 47.844H166.413V47.78C166.413 47.2467 166.311 46.7667 166.109 46.34C165.906 45.9133 165.613 45.5773 165.229 45.332C164.845 45.076 164.386 44.948 163.853 44.948C163.319 44.948 162.861 45.076 162.477 45.332C162.103 45.5773 161.815 45.9133 161.613 46.34C161.421 46.7667 161.325 47.2467 161.325 47.78V47.844ZM172.651 52.66C171.904 52.66 171.27 52.516 170.747 52.228C170.224 51.9293 169.824 51.5027 169.547 50.948C169.28 50.3933 169.136 49.7373 169.115 48.98C169.104 48.82 169.099 48.6067 169.099 48.34C169.099 48.0733 169.104 47.86 169.115 47.7C169.136 46.932 169.28 46.276 169.547 45.732C169.824 45.1773 170.224 44.756 170.747 44.468C171.27 44.1693 171.904 44.02 172.651 44.02C173.216 44.02 173.702 44.1 174.107 44.26C174.523 44.4093 174.864 44.612 175.131 44.868C175.398 45.1133 175.6 45.3853 175.739 45.684C175.878 45.9827 175.952 46.276 175.963 46.564C175.974 46.6707 175.942 46.756 175.867 46.82C175.792 46.884 175.707 46.916 175.611 46.916H175.387C175.28 46.916 175.2 46.8947 175.147 46.852C175.104 46.7987 175.056 46.708 175.003 46.58C174.779 45.972 174.47 45.5507 174.075 45.316C173.691 45.0707 173.216 44.948 172.651 44.948C171.926 44.948 171.323 45.172 170.843 45.62C170.374 46.0573 170.123 46.7773 170.091 47.78C170.07 48.1533 170.07 48.5267 170.091 48.9C170.123 49.9027 170.374 50.628 170.843 51.076C171.323 51.5133 171.926 51.732 172.651 51.732C173.216 51.732 173.691 51.6147 174.075 51.38C174.47 51.1347 174.779 50.708 175.003 50.1C175.056 49.972 175.104 49.8867 175.147 49.844C175.2 49.7907 175.28 49.764 175.387 49.764H175.611C175.707 49.764 175.792 49.796 175.867 49.86C175.942 49.924 175.974 50.0093 175.963 50.116C175.952 50.3507 175.904 50.5853 175.819 50.82C175.734 51.0547 175.6 51.284 175.419 51.508C175.248 51.732 175.035 51.9293 174.779 52.1C174.523 52.2707 174.214 52.404 173.851 52.5C173.499 52.6067 173.099 52.66 172.651 52.66ZM178.445 52.5C178.338 52.5 178.253 52.468 178.189 52.404C178.125 52.34 178.093 52.2547 178.093 52.148V41.492C178.093 41.3853 178.125 41.3 178.189 41.236C178.253 41.172 178.338 41.14 178.445 41.14H178.717C178.824 41.14 178.909 41.172 178.973 41.236C179.037 41.3 179.069 41.3853 179.069 41.492V45.284C179.357 44.9107 179.704 44.6067 180.109 44.372C180.525 44.1373 181.074 44.02 181.757 44.02C182.482 44.02 183.085 44.18 183.565 44.5C184.056 44.8093 184.418 45.236 184.653 45.78C184.898 46.3133 185.021 46.9213 185.021 47.604V52.148C185.021 52.2547 184.989 52.34 184.925 52.404C184.861 52.468 184.776 52.5 184.669 52.5H184.397C184.29 52.5 184.205 52.468 184.141 52.404C184.077 52.34 184.045 52.2547 184.045 52.148V47.684C184.045 46.8307 183.837 46.164 183.421 45.684C183.005 45.1933 182.397 44.948 181.597 44.948C180.84 44.948 180.226 45.1933 179.757 45.684C179.298 46.164 179.069 46.8307 179.069 47.684V52.148C179.069 52.2547 179.037 52.34 178.973 52.404C178.909 52.468 178.824 52.5 178.717 52.5H178.445ZM189.77 52.66C189.258 52.66 188.783 52.5533 188.346 52.34C187.919 52.1267 187.573 51.844 187.306 51.492C187.039 51.1293 186.906 50.724 186.906 50.276C186.906 49.5507 187.199 48.9693 187.786 48.532C188.373 48.0947 189.135 47.812 190.074 47.684L192.602 47.332V46.772C192.602 46.2067 192.426 45.764 192.074 45.444C191.733 45.1133 191.183 44.948 190.426 44.948C189.871 44.948 189.423 45.06 189.082 45.284C188.741 45.4973 188.506 45.78 188.378 46.132C188.325 46.292 188.223 46.372 188.074 46.372H187.818C187.69 46.372 187.599 46.34 187.546 46.276C187.493 46.2013 187.466 46.116 187.466 46.02C187.466 45.8707 187.519 45.684 187.626 45.46C187.743 45.236 187.919 45.0173 188.154 44.804C188.389 44.58 188.693 44.3933 189.066 44.244C189.439 44.0947 189.893 44.02 190.426 44.02C191.055 44.02 191.573 44.1053 191.978 44.276C192.394 44.4467 192.714 44.6707 192.938 44.948C193.173 45.2147 193.338 45.5133 193.434 45.844C193.53 46.1747 193.578 46.5 193.578 46.82V52.148C193.578 52.2547 193.546 52.34 193.482 52.404C193.418 52.468 193.333 52.5 193.226 52.5H192.954C192.847 52.5 192.762 52.468 192.698 52.404C192.634 52.34 192.602 52.2547 192.602 52.148V51.396C192.474 51.588 192.293 51.78 192.058 51.972C191.823 52.164 191.519 52.3293 191.146 52.468C190.783 52.596 190.325 52.66 189.77 52.66ZM189.93 51.732C190.421 51.732 190.869 51.6253 191.274 51.412C191.679 51.1987 191.999 50.8733 192.234 50.436C192.479 49.988 192.602 49.428 192.602 48.756V48.212L190.538 48.5C189.663 48.6173 189.002 48.82 188.554 49.108C188.106 49.396 187.882 49.7587 187.882 50.196C187.882 50.548 187.983 50.836 188.186 51.06C188.389 51.284 188.645 51.4547 188.954 51.572C189.274 51.6787 189.599 51.732 189.93 51.732ZM196.46 52.5C196.354 52.5 196.268 52.468 196.204 52.404C196.14 52.34 196.108 52.2547 196.108 52.148V44.532C196.108 44.4253 196.14 44.34 196.204 44.276C196.268 44.212 196.354 44.18 196.46 44.18H196.732C196.839 44.18 196.924 44.212 196.988 44.276C197.052 44.34 197.084 44.4253 197.084 44.532V52.148C197.084 52.2547 197.052 52.34 196.988 52.404C196.924 52.468 196.839 52.5 196.732 52.5H196.46ZM196.284 42.468C196.178 42.468 196.092 42.436 196.028 42.372C195.964 42.308 195.932 42.2227 195.932 42.116V41.508C195.932 41.4013 195.964 41.316 196.028 41.252C196.092 41.1773 196.178 41.14 196.284 41.14H196.892C196.999 41.14 197.084 41.1773 197.148 41.252C197.223 41.316 197.26 41.4013 197.26 41.508V42.116C197.26 42.2227 197.223 42.308 197.148 42.372C197.084 42.436 196.999 42.468 196.892 42.468H196.284ZM200.023 52.5C199.916 52.5 199.831 52.468 199.767 52.404C199.703 52.34 199.671 52.2547 199.671 52.148V44.532C199.671 44.4253 199.703 44.34 199.767 44.276C199.831 44.212 199.916 44.18 200.023 44.18H200.295C200.401 44.18 200.487 44.212 200.551 44.276C200.615 44.34 200.647 44.4253 200.647 44.532V45.284C200.935 44.9107 201.281 44.6067 201.687 44.372C202.103 44.1373 202.652 44.02 203.335 44.02C204.06 44.02 204.663 44.18 205.143 44.5C205.633 44.8093 205.996 45.236 206.231 45.78C206.476 46.3133 206.599 46.9213 206.599 47.604V52.148C206.599 52.2547 206.567 52.34 206.503 52.404C206.439 52.468 206.353 52.5 206.247 52.5H205.975C205.868 52.5 205.783 52.468 205.719 52.404C205.655 52.34 205.623 52.2547 205.623 52.148V47.684C205.623 46.8307 205.415 46.164 204.999 45.684C204.583 45.1933 203.975 44.948 203.175 44.948C202.417 44.948 201.804 45.1933 201.335 45.684C200.876 46.164 200.647 46.8307 200.647 47.684V52.148C200.647 52.2547 200.615 52.34 200.551 52.404C200.487 52.468 200.401 52.5 200.295 52.5H200.023ZM213.793 52.5C213.687 52.5 213.601 52.468 213.537 52.404C213.473 52.34 213.441 52.2547 213.441 52.148V41.652C213.441 41.5453 213.473 41.46 213.537 41.396C213.601 41.332 213.687 41.3 213.793 41.3H214.097C214.204 41.3 214.289 41.332 214.353 41.396C214.417 41.46 214.449 41.5453 214.449 41.652V51.54H219.969C220.087 51.54 220.177 51.572 220.241 51.636C220.305 51.7 220.337 51.7907 220.337 51.908V52.148C220.337 52.2547 220.305 52.34 220.241 52.404C220.177 52.468 220.087 52.5 219.969 52.5H213.793ZM224.239 52.66C223.727 52.66 223.252 52.5533 222.815 52.34C222.388 52.1267 222.042 51.844 221.775 51.492C221.508 51.1293 221.375 50.724 221.375 50.276C221.375 49.5507 221.668 48.9693 222.255 48.532C222.842 48.0947 223.604 47.812 224.543 47.684L227.071 47.332V46.772C227.071 46.2067 226.895 45.764 226.543 45.444C226.202 45.1133 225.652 44.948 224.895 44.948C224.34 44.948 223.892 45.06 223.551 45.284C223.21 45.4973 222.975 45.78 222.847 46.132C222.794 46.292 222.692 46.372 222.543 46.372H222.287C222.159 46.372 222.068 46.34 222.015 46.276C221.962 46.2013 221.935 46.116 221.935 46.02C221.935 45.8707 221.988 45.684 222.095 45.46C222.212 45.236 222.388 45.0173 222.623 44.804C222.858 44.58 223.162 44.3933 223.535 44.244C223.908 44.0947 224.362 44.02 224.895 44.02C225.524 44.02 226.042 44.1053 226.447 44.276C226.863 44.4467 227.183 44.6707 227.407 44.948C227.642 45.2147 227.807 45.5133 227.903 45.844C227.999 46.1747 228.047 46.5 228.047 46.82V52.148C228.047 52.2547 228.015 52.34 227.951 52.404C227.887 52.468 227.802 52.5 227.695 52.5H227.423C227.316 52.5 227.231 52.468 227.167 52.404C227.103 52.34 227.071 52.2547 227.071 52.148V51.396C226.943 51.588 226.762 51.78 226.527 51.972C226.292 52.164 225.988 52.3293 225.615 52.468C225.252 52.596 224.794 52.66 224.239 52.66ZM224.399 51.732C224.89 51.732 225.338 51.6253 225.743 51.412C226.148 51.1987 226.468 50.8733 226.703 50.436C226.948 49.988 227.071 49.428 227.071 48.756V48.212L225.007 48.5C224.132 48.6173 223.471 48.82 223.023 49.108C222.575 49.396 222.351 49.7587 222.351 50.196C222.351 50.548 222.452 50.836 222.655 51.06C222.858 51.284 223.114 51.4547 223.423 51.572C223.743 51.6787 224.068 51.732 224.399 51.732ZM234.257 52.66C233.596 52.66 233.046 52.5427 232.609 52.308C232.182 52.0627 231.836 51.7587 231.569 51.396V52.148C231.569 52.2547 231.537 52.34 231.473 52.404C231.409 52.468 231.324 52.5 231.217 52.5H230.945C230.838 52.5 230.753 52.468 230.689 52.404C230.625 52.34 230.593 52.2547 230.593 52.148V41.492C230.593 41.3853 230.625 41.3 230.689 41.236C230.753 41.172 230.838 41.14 230.945 41.14H231.217C231.324 41.14 231.409 41.172 231.473 41.236C231.537 41.3 231.569 41.3853 231.569 41.492V45.284C231.836 44.932 232.182 44.6333 232.609 44.388C233.046 44.1427 233.596 44.02 234.257 44.02C234.886 44.02 235.414 44.132 235.841 44.356C236.268 44.58 236.614 44.8787 236.881 45.252C237.148 45.6253 237.345 46.0413 237.473 46.5C237.601 46.9587 237.67 47.4227 237.681 47.892C237.692 48.052 237.697 48.2013 237.697 48.34C237.697 48.4787 237.692 48.628 237.681 48.788C237.67 49.2573 237.601 49.7213 237.473 50.18C237.345 50.6387 237.148 51.0547 236.881 51.428C236.614 51.8013 236.268 52.1 235.841 52.324C235.414 52.548 234.886 52.66 234.257 52.66ZM234.161 51.732C234.79 51.732 235.286 51.5933 235.649 51.316C236.012 51.0387 236.273 50.676 236.433 50.228C236.593 49.78 236.684 49.3 236.705 48.788C236.716 48.4893 236.716 48.1907 236.705 47.892C236.684 47.38 236.593 46.9 236.433 46.452C236.273 46.004 236.012 45.6413 235.649 45.364C235.286 45.0867 234.79 44.948 234.161 44.948C233.574 44.948 233.089 45.0867 232.705 45.364C232.332 45.6413 232.049 45.988 231.857 46.404C231.676 46.82 231.58 47.2413 231.569 47.668C231.558 47.828 231.553 48.036 231.553 48.292C231.553 48.548 231.558 48.756 231.569 48.916C231.59 49.3533 231.686 49.7907 231.857 50.228C232.038 50.6547 232.316 51.012 232.689 51.3C233.062 51.588 233.553 51.732 234.161 51.732ZM242.498 52.66C241.944 52.66 241.464 52.5853 241.058 52.436C240.664 52.2867 240.338 52.1107 240.082 51.908C239.826 51.6947 239.634 51.4867 239.506 51.284C239.389 51.0813 239.325 50.9267 239.314 50.82C239.304 50.7027 239.341 50.6173 239.426 50.564C239.512 50.5 239.592 50.468 239.666 50.468H239.906C239.97 50.468 240.024 50.4787 240.066 50.5C240.12 50.5213 240.184 50.58 240.258 50.676C240.397 50.8573 240.557 51.0333 240.738 51.204C240.92 51.364 241.149 51.492 241.426 51.588C241.714 51.684 242.072 51.732 242.498 51.732C243.138 51.732 243.666 51.6093 244.082 51.364C244.498 51.1187 244.706 50.756 244.706 50.276C244.706 49.9773 244.621 49.7373 244.45 49.556C244.29 49.3747 244.013 49.2147 243.618 49.076C243.224 48.9373 242.69 48.7933 242.018 48.644C241.346 48.484 240.829 48.292 240.466 48.068C240.114 47.844 239.874 47.588 239.746 47.3C239.618 47.0013 239.554 46.6813 239.554 46.34C239.554 45.9667 239.661 45.604 239.874 45.252C240.088 44.8893 240.402 44.596 240.818 44.372C241.245 44.1373 241.778 44.02 242.418 44.02C242.941 44.02 243.384 44.0893 243.746 44.228C244.12 44.3667 244.424 44.5373 244.658 44.74C244.893 44.932 245.064 45.124 245.17 45.316C245.288 45.508 245.352 45.6627 245.362 45.78C245.373 45.8867 245.341 45.972 245.266 46.036C245.192 46.1 245.106 46.132 245.01 46.132H244.77C244.685 46.132 244.616 46.116 244.562 46.084C244.509 46.0413 244.461 45.988 244.418 45.924C244.312 45.7533 244.184 45.5933 244.034 45.444C243.885 45.2947 243.682 45.1773 243.426 45.092C243.181 44.996 242.845 44.948 242.418 44.948C241.778 44.948 241.304 45.0813 240.994 45.348C240.685 45.604 240.53 45.9347 240.53 46.34C240.53 46.5747 240.594 46.7827 240.722 46.964C240.85 47.1347 241.09 47.2947 241.442 47.444C241.794 47.5827 242.306 47.732 242.978 47.892C243.661 48.0413 244.2 48.228 244.594 48.452C244.989 48.6653 245.266 48.9213 245.426 49.22C245.597 49.5187 245.682 49.8707 245.682 50.276C245.682 50.7027 245.56 51.0973 245.314 51.46C245.08 51.8227 244.722 52.116 244.242 52.34C243.773 52.5533 243.192 52.66 242.498 52.66Z" fill="#5C5C5C"/>
</svg>
