<svg width="128" height="40" viewBox="0 0 128 40" fill="none" xmlns="http://www.w3.org/2000/svg">
<g clip-path="url(#clip0_1204_16433)">
<path d="M15.9801 14.2727V18.5455H26.2914C26.0177 20.9091 25.1964 22.7273 23.9189 23.9091C22.4589 25.3636 20.0864 27 15.9801 27C9.68384 27 4.75631 21.9091 4.75631 15.6364C4.75631 9.36364 9.59259 4.27273 15.9801 4.27273C19.3564 4.27273 21.9114 5.63636 23.7364 7.36364L26.7477 4.36364C24.1927 1.90909 20.7252 0 15.9801 0C7.31132 0 0.0112762 7 0.0112762 15.6364C0.0112762 24.2727 7.31132 31.2727 15.9801 31.2727C20.6339 31.2727 24.1927 29.7273 26.9302 26.9091C29.759 24.0909 30.6715 20.0909 30.6715 16.9091C30.6715 15.9091 30.5802 15 30.489 14.2727H15.9801Z" fill="#4285F4"/>
<path d="M43.4462 10.7266C37.8799 10.7266 33.2261 14.9993 33.2261 20.8175C33.2261 26.6357 37.7886 30.9084 43.4462 30.9084C49.1037 30.9084 53.6663 26.7266 53.6663 20.9084C53.6663 14.9993 49.1037 10.7266 43.4462 10.7266ZM43.4462 26.9993C40.3437 26.9993 37.6974 24.4538 37.6974 20.9084C37.6974 17.272 40.3437 14.8175 43.4462 14.8175C46.5487 14.8175 49.195 17.272 49.195 20.9084C49.195 24.4538 46.5487 26.9993 43.4462 26.9993Z" fill="#EA4335"/>
<path d="M93.3606 12.9993H93.1781C92.1743 11.8175 90.2581 10.7266 87.7943 10.7266C82.6843 10.7266 78.3042 15.0902 78.3042 20.8175C78.3042 26.4538 82.6843 30.9084 87.7943 30.9084C90.2581 30.9084 92.1743 29.8175 93.1781 28.6357H93.3606V30.0902C93.3606 33.9084 91.2618 35.9993 87.9768 35.9993C85.2393 35.9993 83.5968 34.0902 82.8668 32.3629L79.0342 33.9993C80.1293 36.6357 83.1405 39.9993 88.0681 39.9993C93.2693 39.9993 97.7406 36.9084 97.7406 29.4538V11.272H93.5431V12.9993H93.3606ZM88.2506 26.9993C85.148 26.9993 82.8668 24.3629 82.8668 20.9084C82.8668 17.3629 85.2393 14.8175 88.2506 14.8175C91.2618 14.8175 93.6343 17.4538 93.6343 20.9993C93.7256 24.4538 91.3531 26.9993 88.2506 26.9993Z" fill="#4285F4"/>
<path d="M66.1669 10.7266C60.6006 10.7266 55.9468 14.9993 55.9468 20.8175C55.9468 26.6357 60.5094 30.9084 66.1669 30.9084C71.8244 30.9084 76.387 26.7266 76.387 20.9084C76.387 14.9993 71.8244 10.7266 66.1669 10.7266ZM66.1669 26.9993C63.0644 26.9993 60.4181 24.4538 60.4181 20.9084C60.4181 17.272 63.0644 14.8175 66.1669 14.8175C69.2694 14.8175 71.9157 17.272 71.9157 20.9084C71.9157 24.4538 69.2694 26.9993 66.1669 26.9993Z" fill="#FBBC05"/>
<path d="M101.117 0.453125H105.497V30.9986H101.117V0.453125Z" fill="#34A853"/>
<path d="M119.002 26.9993C116.721 26.9993 115.169 25.9993 114.074 23.9084L127.671 18.3629L127.215 17.1811C126.393 14.9084 123.747 10.7266 118.546 10.7266C113.344 10.7266 108.964 14.8175 108.964 20.8175C108.964 26.4538 113.253 30.9084 119.002 30.9084C123.656 30.9084 126.302 28.0902 127.488 26.4538L124.021 24.1811C122.834 25.9084 121.283 26.9993 119.002 26.9993ZM118.728 14.5447C120.553 14.5447 122.104 15.4538 122.561 16.7266L113.436 20.5447C113.344 16.3629 116.447 14.5447 118.728 14.5447Z" fill="#EA4335"/>
</g>
<defs>
<clipPath id="clip0_1204_16433">
<rect width="127.66" height="40" fill="white" transform="translate(0.0115967)"/>
</clipPath>
</defs>
</svg>
