<svg width="210" height="64" viewBox="0 0 210 64" fill="none" xmlns="http://www.w3.org/2000/svg">
<rect x="-23" y="20.0464" width="230" height="44" rx="22" transform="rotate(-5 -23 20.0464)" fill="#FFCF00"/>
<rect x="-22.4583" y="20.5009" width="229" height="43" rx="21.5" transform="rotate(-5 -22.4583 20.5009)" stroke="black" stroke-opacity="0.05"/>
<path d="M12.1747 45.7586C11.0749 45.8548 10.1198 45.7457 9.30928 45.4311C8.51073 45.1155 7.8649 44.6179 7.3718 43.9383C6.8896 43.2457 6.58664 42.3989 6.46292 41.3978C6.406 40.8848 6.35191 40.3355 6.30066 39.7497C6.24837 39.152 6.20519 38.5896 6.17113 38.0626C6.12018 37.0672 6.27306 36.1986 6.62975 35.4567C6.9984 34.7137 7.55451 34.117 8.29807 33.6665C9.05359 33.2149 9.9693 32.9421 11.0452 32.8479C11.9179 32.7716 12.6934 32.8242 13.3718 33.0058C14.0492 33.1754 14.6192 33.4266 15.082 33.7596C15.5557 34.0795 15.9184 34.4393 16.1702 34.8388C16.4339 35.2374 16.5875 35.6154 16.6308 35.973C16.6522 36.0795 16.6301 36.1718 16.5647 36.2498C16.4992 36.3278 16.4067 36.3721 16.2872 36.3825L14.4402 36.5441C14.3207 36.5546 14.229 36.5385 14.165 36.4959C14.101 36.4533 14.041 36.3863 13.9848 36.2948C13.8672 36.0522 13.6963 35.8202 13.4722 35.5989C13.247 35.3656 12.9537 35.1805 12.5924 35.0434C12.2311 34.9064 11.7755 34.8619 11.2256 34.9101C10.4127 34.9812 9.78002 35.2534 9.32754 35.7266C8.88702 36.1988 8.69223 36.9326 8.74317 37.9279C8.7983 38.9711 8.89034 40.023 9.01928 41.0838C9.14405 42.0968 9.47084 42.803 9.99966 43.2025C10.5404 43.6008 11.2173 43.7645 12.0302 43.6934C12.5681 43.6463 13.0379 43.5088 13.4396 43.2809C13.8532 43.052 14.1618 42.7239 14.3653 42.2965C14.5808 41.8681 14.6608 41.3371 14.6054 40.7035L14.5568 40.1477L12.3691 40.3391C12.2496 40.3495 12.1443 40.3166 12.0533 40.2402C11.9623 40.1638 11.911 40.0599 11.8995 39.9284L11.8164 38.978C11.8049 38.8465 11.8373 38.7353 11.9137 38.6443C11.99 38.5533 12.088 38.5026 12.2075 38.4921L16.4932 38.1172C16.6247 38.1057 16.7299 38.1386 16.809 38.216C16.9 38.2924 16.9512 38.3963 16.9627 38.5278L17.1275 40.4106C17.2153 41.4148 17.07 42.3008 16.6915 43.0687C16.3249 43.8356 15.7524 44.4518 14.9741 44.9174C14.2076 45.382 13.2745 45.6624 12.1747 45.7586ZM20.0524 44.8887C19.9329 44.8992 19.8276 44.8662 19.7366 44.7899C19.6456 44.7135 19.5949 44.6156 19.5844 44.496L18.8455 36.0503C18.834 35.9188 18.8664 35.8075 18.9428 35.7165C19.0191 35.6255 19.1171 35.5748 19.2366 35.5643L20.6891 35.4373C20.8086 35.4268 20.9139 35.4598 21.0049 35.5361C21.1078 35.6114 21.1651 35.7148 21.1766 35.8463L21.2409 36.5815C21.4824 36.1749 21.8094 35.8512 22.222 35.6103C22.6465 35.3684 23.1457 35.2223 23.7195 35.1721L24.4547 35.1078C24.5862 35.0963 24.6915 35.1293 24.7705 35.2067C24.8615 35.283 24.9122 35.381 24.9227 35.5005L25.0357 36.7916C25.0461 36.9111 25.0132 37.0164 24.9368 37.1074C24.8724 37.1974 24.7744 37.2481 24.6429 37.2596L23.2443 37.382C22.6705 37.4322 22.2363 37.6328 21.9418 37.9838C21.6592 38.3337 21.5425 38.7896 21.5917 39.3515L22.0231 44.2827C22.0335 44.4022 22.0006 44.5075 21.9242 44.5985C21.8479 44.6895 21.7439 44.7407 21.6124 44.7522L20.0524 44.8887ZM31.0091 44.1108C29.6822 44.2269 28.5967 43.9364 27.7528 43.2393C26.9088 42.5422 26.3952 41.491 26.212 40.0856C26.1896 39.9671 26.1706 39.8182 26.1549 39.6389C26.1381 39.4476 26.1311 39.2977 26.1336 39.189C26.103 38.2883 26.2382 37.4935 26.5393 36.8046C26.8524 36.1147 27.3165 35.5681 27.9317 35.165C28.5459 34.7499 29.2893 34.5042 30.162 34.4278C31.1303 34.3431 31.9609 34.4752 32.654 34.8241C33.346 35.1611 33.8907 35.6736 34.2882 36.3615C34.6846 37.0376 34.9236 37.8418 35.0052 38.7742L35.0381 39.1508C35.0486 39.2703 35.0157 39.3756 34.9393 39.4666C34.8629 39.5576 34.759 39.6089 34.6275 39.6204L28.6742 40.1412C28.6742 40.1412 28.6758 40.1591 28.679 40.195C28.6821 40.2309 28.6847 40.2608 28.6868 40.2847C28.7354 40.702 28.8471 41.0837 29.0219 41.4298C29.2076 41.7629 29.4534 42.0245 29.7591 42.2146C30.0768 42.4036 30.4388 42.4803 30.8453 42.4448C31.18 42.4155 31.4567 42.3431 31.6755 42.2276C31.8932 42.1001 32.0681 41.9644 32.2 41.8203C32.332 41.6763 32.4242 41.5598 32.4766 41.4709C32.5716 41.318 32.648 41.227 32.7057 41.1979C32.7743 41.1557 32.8743 41.1289 33.0058 41.1174L34.5479 40.9825C34.6675 40.972 34.7662 40.9995 34.8442 41.065C34.9342 41.1294 34.9779 41.2159 34.9754 41.3245C34.9801 41.5169 34.8989 41.7589 34.7317 42.0505C34.5764 42.3412 34.337 42.6332 34.0133 42.9265C33.6897 43.2198 33.2727 43.4791 32.7624 43.7045C32.263 43.9168 31.6786 44.0523 31.0091 44.1108ZM28.5425 38.635L32.5053 38.2883L32.5006 38.2345C32.4598 37.7682 32.3466 37.3686 32.1608 37.0355C31.9751 36.7024 31.7239 36.4474 31.4073 36.2703C31.0906 36.0932 30.7231 36.023 30.3047 36.0596C29.8863 36.0962 29.5366 36.2292 29.2555 36.4585C28.9744 36.6879 28.7713 36.9827 28.6463 37.343C28.5331 37.7022 28.497 38.115 28.5378 38.5812L28.5425 38.635ZM40.0492 43.3199C39.4276 43.3743 38.8553 43.3039 38.3323 43.1087C37.8083 42.9016 37.379 42.6079 37.0446 42.2276C36.7211 41.8343 36.5369 41.3807 36.4919 40.8666C36.4187 40.0298 36.6954 39.3371 37.3219 38.7884C37.9594 38.2267 38.8267 37.8135 39.9238 37.5489L42.349 36.9753L42.3161 36.5988C42.2722 36.0967 42.1127 35.7192 41.8376 35.4662C41.5625 35.2132 41.1201 35.1134 40.5104 35.1667C40.08 35.2043 39.7352 35.3249 39.476 35.5282C39.2276 35.7186 39.0502 35.963 38.9439 36.2614C38.8618 36.4252 38.7311 36.5149 38.5518 36.5306L37.1352 36.6545C37.0037 36.666 36.899 36.6391 36.821 36.5736C36.7549 36.5071 36.7167 36.4141 36.7062 36.2945C36.7014 36.1022 36.7588 35.8623 36.8782 35.5748C36.9975 35.2873 37.2017 35.0045 37.4905 34.7262C37.7783 34.436 38.1594 34.1798 38.6339 33.9576C39.1083 33.7354 39.6922 33.594 40.3856 33.5334C41.1387 33.4675 41.7806 33.5077 42.3114 33.654C42.8531 33.7873 43.2929 33.9957 43.6309 34.2793C43.9689 34.563 44.228 34.9077 44.408 35.3136C44.5881 35.7194 44.6985 36.1554 44.7393 36.6217L45.2319 42.2522C45.2424 42.3717 45.2094 42.477 45.1331 42.568C45.0567 42.659 44.9587 42.7097 44.8392 42.7202L43.3868 42.8472C43.2553 42.8587 43.144 42.8263 43.053 42.7499C42.974 42.6725 42.9292 42.5741 42.9187 42.4545L42.8576 41.7552C42.722 41.9959 42.5317 42.2294 42.2864 42.4556C42.0402 42.6699 41.7315 42.8595 41.3605 43.0245C41.0004 43.1765 40.5633 43.2749 40.0492 43.3199ZM40.5099 41.5631C40.9283 41.5265 41.297 41.4039 41.616 41.1953C41.947 40.9856 42.1919 40.6871 42.3508 40.2998C42.5205 39.8995 42.5803 39.4124 42.5301 38.8386L42.4972 38.4621L40.7291 38.9059C40.0332 39.0752 39.5224 39.2945 39.1966 39.5639C38.8709 39.8333 38.7232 40.1414 38.7535 40.4881C38.7765 40.7511 38.8741 40.9714 39.0462 41.1491C39.2293 41.3137 39.4505 41.4329 39.7099 41.5066C39.9683 41.5683 40.2349 41.5871 40.5099 41.5631ZM51.6963 42.1202C50.9791 42.183 50.3644 42.1103 49.8523 41.9021C49.3402 41.694 48.9432 41.3553 48.6612 40.8861C48.3782 40.4049 48.2043 39.7937 48.1394 39.0526L47.7833 34.9821L46.3667 35.1061C46.2472 35.1165 46.1419 35.0836 46.0509 35.0072C45.9599 34.9308 45.9092 34.8329 45.8987 34.7133L45.8077 33.6733C45.7973 33.5538 45.8302 33.4485 45.9066 33.3575C45.9829 33.2665 46.0809 33.2158 46.2004 33.2053L47.617 33.0814L47.3566 30.1047C47.3461 29.9852 47.3731 29.8805 47.4375 29.7905C47.5139 29.6995 47.6178 29.6482 47.7493 29.6367L49.2017 29.5097C49.3213 29.4992 49.4266 29.5322 49.5176 29.6085C49.6086 29.6849 49.6593 29.7828 49.6698 29.9024L49.9302 32.879L52.1716 32.6829C52.2912 32.6724 52.3964 32.7054 52.4874 32.7818C52.5784 32.8581 52.6292 32.9561 52.6396 33.0756L52.7306 34.1156C52.7411 34.2352 52.7081 34.3404 52.6318 34.4314C52.5554 34.5225 52.4575 34.5732 52.3379 34.5836L50.0965 34.7797L50.4369 38.6709C50.4798 39.161 50.5969 39.5362 50.7883 39.7965C50.9917 40.0558 51.3086 40.1666 51.7389 40.1289L52.9762 40.0207C53.0958 40.0102 53.201 40.0432 53.292 40.1195C53.383 40.1959 53.4338 40.2939 53.4442 40.4134L53.5415 41.5252C53.5519 41.6447 53.519 41.75 53.4426 41.841C53.3663 41.932 53.2683 41.9827 53.1488 41.9932L51.6963 42.1202ZM58.2388 41.5478C58.1432 41.5562 58.0504 41.5282 57.9604 41.4638C57.8824 41.3983 57.8387 41.3118 57.8293 41.2042C57.8251 41.1564 57.8324 41.1016 57.851 41.0397L61.1607 29.0958C61.1861 28.9731 61.2429 28.8658 61.3312 28.7737C61.4305 28.6687 61.5697 28.6083 61.749 28.5926L63.7036 28.4216C63.8829 28.4059 64.0245 28.4417 64.1285 28.529C64.2315 28.6043 64.3121 28.6996 64.3704 28.815L69.7038 40.0027C69.7209 40.0615 69.7316 40.1147 69.7358 40.1625C69.7452 40.2701 69.7172 40.3629 69.6518 40.4409C69.5863 40.5189 69.5058 40.5621 69.4101 40.5705L67.8501 40.707C67.6827 40.7216 67.5541 40.6967 67.4641 40.6323C67.3851 40.5549 67.3305 40.4814 67.3003 40.4118L66.2661 38.2979L60.9404 38.7638L60.289 41.0252C60.2714 41.099 60.2244 41.1814 60.1481 41.2724C60.0826 41.3504 59.9662 41.3967 59.7988 41.4114L58.2388 41.5478ZM61.3876 36.6468L65.4581 36.2906L62.9291 30.9286L61.3876 36.6468ZM75.1729 40.247C74.3122 40.3223 73.5389 40.2273 72.8532 39.9621C72.1794 39.6958 71.6306 39.274 71.2067 38.6968C70.7936 38.1065 70.531 37.3766 70.4188 36.5071C70.3912 36.3288 70.3648 36.0962 70.3397 35.8093C70.3136 35.5105 70.2981 35.2649 70.2933 35.0726C70.2528 34.1968 70.3852 33.4384 70.6905 32.7973C71.0067 32.1433 71.4735 31.6266 72.0908 31.2474C72.72 30.8671 73.465 30.6393 74.3257 30.564C75.0908 30.497 75.7517 30.5476 76.3085 30.7157C76.8653 30.8839 77.3311 31.1141 77.706 31.4066C78.0809 31.699 78.3678 32.0172 78.5665 32.3612C78.7761 32.6922 78.8995 33.0006 78.9365 33.2865C78.96 33.4169 78.9276 33.5282 78.8393 33.6202C78.7619 33.6993 78.6634 33.744 78.5438 33.7545L76.9659 33.8925C76.8463 33.903 76.7481 33.8815 76.6711 33.828C76.6061 33.7734 76.5385 33.689 76.4683 33.5747C76.2471 33.1122 75.9787 32.7984 75.6632 32.6333C75.3585 32.4552 74.979 32.386 74.5247 32.4257C73.927 32.478 73.4656 32.7111 73.1404 33.125C72.8262 33.5259 72.6926 34.1339 72.7398 34.9489C72.7557 35.4052 72.7923 35.8236 72.8497 36.2041C72.9457 37.0268 73.1833 37.6084 73.5624 37.9486C73.9535 38.2878 74.4479 38.4313 75.0456 38.379C75.5118 38.3382 75.88 38.2096 76.1502 37.9932C76.4193 37.7649 76.6226 37.4038 76.7601 36.91C76.8094 36.7852 76.8613 36.6903 76.9158 36.6253C76.9823 36.5593 77.0754 36.521 77.1949 36.5105L78.7729 36.3725C78.8924 36.362 78.9977 36.395 79.0887 36.4713C79.1906 36.5347 79.2413 36.6326 79.2409 36.7652C79.2478 36.9814 79.2094 37.2317 79.1259 37.5161C79.0533 37.7874 78.9159 38.0765 78.7139 38.3833C78.5228 38.6771 78.2703 38.9581 77.9565 39.2265C77.6417 39.4829 77.2514 39.7038 76.7858 39.8891C76.3321 40.0733 75.7945 40.1926 75.1729 40.247ZM81.8149 39.4852C81.6954 39.4957 81.5901 39.4627 81.4991 39.3863C81.4081 39.31 81.3574 39.212 81.3469 39.0925L80.3084 27.2218C80.2979 27.1023 80.3309 26.997 80.4072 26.906C80.4836 26.815 80.5816 26.7643 80.7011 26.7538L82.297 26.6142C82.4285 26.6027 82.5338 26.6357 82.6128 26.7131C82.7038 26.7894 82.7546 26.8874 82.765 27.0069L83.1227 31.0953C83.412 30.6845 83.7793 30.3392 84.2246 30.0593C84.6699 29.7794 85.2332 29.6097 85.9146 29.5501C86.6439 29.4863 87.2921 29.5982 87.8593 29.8859C88.4375 30.1605 88.9021 30.5836 89.2532 31.1552C89.6044 31.7268 89.8166 32.431 89.8898 33.2678L90.3306 38.3065C90.3411 38.4261 90.3081 38.5313 90.2318 38.6223C90.1554 38.7133 90.0575 38.7641 89.9379 38.7745L88.3241 38.9157C88.2045 38.9262 88.0993 38.8932 88.0083 38.8169C87.9173 38.7405 87.8665 38.6426 87.8561 38.523L87.4247 33.5919C87.364 32.8985 87.1431 32.3697 86.7619 32.0056C86.3926 31.6404 85.8853 31.486 85.2397 31.5425C84.6181 31.5969 84.1333 31.838 83.7853 32.266C83.4492 32.6929 83.3115 33.2531 83.3721 33.9464L83.8036 38.8776C83.814 38.9971 83.7811 39.1024 83.7047 39.1934C83.6403 39.2833 83.5424 39.3341 83.4109 39.3456L81.8149 39.4852ZM93.0743 38.5001C92.9547 38.5106 92.8494 38.4776 92.7584 38.4013C92.6674 38.3249 92.6167 38.227 92.6062 38.1074L91.8658 29.6438C91.8553 29.5242 91.8883 29.4189 91.9646 29.3279C92.041 29.2369 92.1389 29.1862 92.2585 29.1758L93.7468 29.0455C93.8783 29.034 93.9836 29.067 94.0626 29.1444C94.1536 29.2208 94.2043 29.3187 94.2148 29.4382L94.9553 37.9019C94.9657 38.0215 94.9328 38.1267 94.8564 38.2177C94.792 38.3077 94.6941 38.3584 94.5626 38.3699L93.0743 38.5001ZM92.0518 27.6399C91.9203 27.6514 91.8096 27.625 91.7197 27.5606C91.6406 27.4832 91.5953 27.3787 91.5838 27.2472L91.4709 25.9561C91.4604 25.8366 91.4874 25.7319 91.5518 25.6419C91.6281 25.5509 91.7321 25.4996 91.8636 25.4881L93.4953 25.3454C93.6268 25.3339 93.7381 25.3663 93.8291 25.4427C93.9201 25.519 93.9708 25.617 93.9813 25.7365L94.0942 27.0276C94.1057 27.1591 94.0733 27.2703 93.997 27.3613C93.9195 27.4404 93.8151 27.4857 93.6836 27.4972L92.0518 27.6399ZM101.404 37.952C100.077 38.0681 98.9919 37.7776 98.1479 37.0805C97.304 36.3834 96.7904 35.3322 96.6072 33.9268C96.5848 33.8083 96.5657 33.6594 96.55 33.4801C96.5333 33.2888 96.5262 33.1389 96.5288 33.0302C96.4981 32.1295 96.6334 31.3347 96.9345 30.6458C97.2475 29.9559 97.7117 29.4094 98.3269 29.0062C98.941 28.5911 99.6845 28.3454 100.557 28.269C101.525 28.1843 102.356 28.3164 103.049 28.6653C103.741 29.0023 104.286 29.5148 104.683 30.2028C105.08 30.8788 105.319 31.683 105.4 32.6155L105.433 32.992C105.444 33.1116 105.411 33.2168 105.334 33.3078C105.258 33.3988 105.154 33.4501 105.023 33.4616L99.0694 33.9824C99.0694 33.9824 99.071 34.0004 99.0741 34.0362C99.0773 34.0721 99.0799 34.102 99.082 34.1259C99.1305 34.5432 99.2422 34.925 99.417 35.271C99.6028 35.6041 99.8485 35.8657 100.154 36.0558C100.472 36.2448 100.834 36.3215 101.24 36.286C101.575 36.2567 101.852 36.1843 102.071 36.0688C102.288 35.9413 102.463 35.8056 102.595 35.6615C102.727 35.5175 102.819 35.401 102.872 35.3121C102.967 35.1592 103.043 35.0682 103.101 35.0391C103.169 34.997 103.269 34.9701 103.401 34.9586L104.943 34.8237C105.063 34.8133 105.161 34.8407 105.239 34.9062C105.329 34.9706 105.373 35.0571 105.371 35.1658C105.375 35.3581 105.294 35.6001 105.127 35.8918C104.972 36.1824 104.732 36.4744 104.408 36.7677C104.085 37.061 103.668 37.3204 103.158 37.5457C102.658 37.758 102.074 37.8935 101.404 37.952ZM98.9376 32.4762L102.9 32.1295L102.896 32.0757C102.855 31.6095 102.742 31.2098 102.556 30.8767C102.37 30.5437 102.119 30.2886 101.802 30.1115C101.486 29.9344 101.118 29.8642 100.7 29.9008C100.281 29.9374 99.9317 30.0704 99.6507 30.2998C99.3696 30.5291 99.1665 30.824 99.0414 31.1842C98.9283 31.5435 98.8921 31.9562 98.9329 32.4224L98.9376 32.4762ZM110.688 36.9592C110.496 36.9759 110.349 36.9466 110.246 36.8713C110.154 36.783 110.073 36.6817 110.003 36.5673L105.922 28.5405C105.893 28.4828 105.876 28.4301 105.872 28.3822C105.862 28.2747 105.891 28.1819 105.956 28.1039C106.032 28.0129 106.124 27.9627 106.232 27.9532L107.684 27.8262C107.828 27.8136 107.939 27.846 108.018 27.9234C108.096 27.9889 108.15 28.0564 108.18 28.1261L111.116 34.2114L112.95 27.7088C112.968 27.635 113.009 27.559 113.075 27.481C113.139 27.3911 113.243 27.3398 113.387 27.3273L114.857 27.1986C114.953 27.1903 115.04 27.2248 115.119 27.3022C115.209 27.3666 115.259 27.4526 115.268 27.5602C115.272 27.608 115.271 27.6623 115.264 27.7231L112.621 36.3383C112.584 36.462 112.521 36.5759 112.434 36.6799C112.346 36.7719 112.206 36.8263 112.015 36.8431L110.688 36.9592ZM121.385 36.204C120.058 36.3201 118.972 36.0296 118.128 35.3325C117.284 34.6354 116.771 33.5841 116.588 32.1788C116.565 32.0603 116.546 31.9114 116.53 31.732C116.514 31.5408 116.507 31.3908 116.509 31.2822C116.478 30.3814 116.614 29.5866 116.915 28.8978C117.228 28.2078 117.692 27.6613 118.307 27.2582C118.921 26.8431 119.665 26.5973 120.537 26.521C121.506 26.4363 122.336 26.5684 123.029 26.9173C123.721 27.2543 124.266 27.7667 124.664 28.4547C125.06 29.1307 125.299 29.935 125.381 30.8674L125.414 31.244C125.424 31.3635 125.391 31.4688 125.315 31.5598C125.238 31.6508 125.134 31.702 125.003 31.7135L119.05 32.2344C119.05 32.2344 119.051 32.2523 119.054 32.2882C119.058 32.324 119.06 32.3539 119.062 32.3778C119.111 32.7952 119.223 33.1769 119.397 33.523C119.583 33.8561 119.829 34.1176 120.135 34.3077C120.452 34.4968 120.814 34.5735 121.221 34.5379C121.555 34.5086 121.832 34.4363 122.051 34.3207C122.269 34.1933 122.444 34.0575 122.575 33.9135C122.707 33.7694 122.8 33.653 122.852 33.564C122.947 33.4112 123.023 33.3202 123.081 33.291C123.15 33.2489 123.25 33.2221 123.381 33.2106L124.923 33.0757C125.043 33.0652 125.142 33.0927 125.22 33.1581C125.31 33.2226 125.353 33.3091 125.351 33.4177C125.356 33.61 125.274 33.852 125.107 34.1437C124.952 34.4343 124.712 34.7263 124.389 35.0197C124.065 35.313 123.648 35.5723 123.138 35.7976C122.638 36.01 122.054 36.1454 121.385 36.204ZM118.918 30.7281L122.881 30.3814L122.876 30.3276C122.835 29.8614 122.722 29.4618 122.536 29.1287C122.351 28.7956 122.099 28.5405 121.783 28.3635C121.466 28.1864 121.099 28.1161 120.68 28.1527C120.262 28.1894 119.912 28.3223 119.631 28.5517C119.35 28.7811 119.147 29.0759 119.022 29.4362C118.909 29.7954 118.872 30.2081 118.913 30.6743L118.918 30.7281ZM128.132 35.433C128.012 35.4435 127.907 35.4105 127.816 35.3342C127.725 35.2578 127.674 35.1598 127.664 35.0403L126.923 26.5766C126.913 26.4571 126.946 26.3518 127.022 26.2608C127.098 26.1698 127.196 26.1191 127.316 26.1086L128.715 25.9863C128.834 25.9758 128.939 26.0087 129.03 26.0851C129.121 26.1615 129.172 26.2594 129.183 26.379L129.236 26.9886C129.458 26.6319 129.768 26.3217 130.166 26.058C130.576 25.7813 131.073 25.6113 131.658 25.5481C133.018 25.4049 134.015 25.8538 134.648 26.8946C134.881 26.3923 135.243 25.9753 135.731 25.6434C136.231 25.2985 136.798 25.0984 137.432 25.0429C138.053 24.9885 138.628 25.0828 139.155 25.3258C139.694 25.5678 140.133 25.969 140.471 26.5297C140.82 27.0774 141.033 27.7935 141.11 28.6781L141.561 33.8245C141.571 33.944 141.538 34.0493 141.462 34.1403C141.385 34.2313 141.287 34.282 141.168 34.2925L139.698 34.4211C139.578 34.4316 139.473 34.3986 139.382 34.3223C139.291 34.2459 139.24 34.148 139.23 34.0284L138.792 29.0255C138.745 28.4876 138.63 28.07 138.447 27.7728C138.264 27.4636 138.035 27.2548 137.76 27.1463C137.486 27.0378 137.187 26.9977 136.864 27.0259C136.601 27.0489 136.344 27.1377 136.093 27.2922C135.841 27.4467 135.646 27.6927 135.507 28.0301C135.366 28.3555 135.32 28.7872 135.367 29.3252L135.805 34.3281C135.815 34.4476 135.782 34.5529 135.706 34.6439C135.629 34.7349 135.531 34.7856 135.412 34.7961L133.942 34.9247C133.81 34.9362 133.699 34.9038 133.608 34.8274C133.529 34.75 133.484 34.6516 133.474 34.532L133.036 29.5291C132.989 28.9912 132.868 28.5741 132.673 28.2779C132.478 27.9698 132.243 27.7615 131.968 27.653C131.694 27.5445 131.407 27.5034 131.108 27.5295C130.833 27.5536 130.571 27.6488 130.32 27.8153C130.069 27.9698 129.873 28.2098 129.733 28.5352C129.592 28.8607 129.546 29.2924 129.593 29.8303L130.031 34.8332C130.041 34.9528 130.008 35.058 129.932 35.149C129.855 35.24 129.758 35.2908 129.638 35.3012L128.132 35.433ZM147.914 33.883C146.587 33.9991 145.502 33.7085 144.658 33.0115C143.814 32.3144 143.3 31.2631 143.117 29.8577C143.095 29.7392 143.076 29.5903 143.06 29.411C143.043 29.2197 143.036 29.0698 143.039 28.9612C143.008 28.0604 143.143 27.2656 143.444 26.5767C143.757 25.8868 144.222 25.3403 144.837 24.9371C145.451 24.522 146.194 24.2763 147.067 24.1999C148.035 24.1152 148.866 24.2473 149.559 24.5963C150.251 24.9332 150.796 25.4457 151.193 26.1337C151.59 26.8097 151.829 27.6139 151.91 28.5464L151.943 28.9229C151.954 29.0425 151.921 29.1477 151.844 29.2387C151.768 29.3297 151.664 29.381 151.533 29.3925L145.579 29.9133C145.579 29.9133 145.581 29.9313 145.584 29.9671C145.587 30.003 145.59 30.0329 145.592 30.0568C145.64 30.4742 145.752 30.8559 145.927 31.202C146.113 31.535 146.358 31.7966 146.664 31.9867C146.982 32.1757 147.344 32.2525 147.75 32.2169C148.085 32.1876 148.362 32.1152 148.581 31.9997C148.798 31.8723 148.973 31.7365 149.105 31.5924C149.237 31.4484 149.329 31.3319 149.382 31.243C149.477 31.0901 149.553 30.9991 149.611 30.97C149.679 30.9279 149.779 30.901 149.911 30.8895L151.453 30.7546C151.572 30.7442 151.671 30.7717 151.749 30.8371C151.839 30.9015 151.883 30.988 151.88 31.0967C151.885 31.289 151.804 31.531 151.637 31.8227C151.481 32.1133 151.242 32.4053 150.918 32.6986C150.595 32.9919 150.178 33.2513 149.667 33.4766C149.168 33.6889 148.584 33.8244 147.914 33.883ZM145.447 28.4071L149.41 28.0604L149.406 28.0066C149.365 27.5404 149.252 27.1407 149.066 26.8077C148.88 26.4746 148.629 26.2195 148.312 26.0424C147.996 25.8653 147.628 25.7951 147.21 25.8317C146.791 25.8683 146.442 26.0013 146.161 26.2307C145.879 26.46 145.676 26.7549 145.551 27.1151C145.438 27.4744 145.402 27.8871 145.443 28.3533L145.447 28.4071ZM154.661 33.112C154.542 33.1224 154.436 33.0895 154.345 33.0131C154.254 32.9368 154.204 32.8388 154.193 32.7193L153.453 24.2556C153.442 24.1361 153.475 24.0308 153.552 23.9398C153.628 23.8488 153.726 23.798 153.845 23.7876L155.316 23.6589C155.435 23.6485 155.541 23.6814 155.632 23.7578C155.723 23.8342 155.773 23.9321 155.784 24.0517L155.848 24.7868C156.126 24.3771 156.492 24.0258 156.949 23.7329C157.416 23.4271 158.008 23.2427 158.725 23.18C159.454 23.1162 160.103 23.2281 160.67 23.5158C161.236 23.7915 161.689 24.2156 162.028 24.7883C162.379 25.3598 162.591 26.064 162.664 26.9008L163.105 31.9396C163.116 32.0591 163.083 32.1644 163.006 32.2554C162.93 32.3464 162.832 32.3971 162.713 32.4076L161.135 32.5456C161.015 32.5561 160.91 32.5231 160.819 32.4468C160.728 32.3704 160.677 32.2725 160.667 32.1529L160.235 27.2218C160.174 26.5284 159.954 25.9997 159.572 25.6355C159.203 25.2703 158.696 25.1159 158.05 25.1724C157.429 25.2268 156.95 25.4674 156.614 25.8943C156.278 26.3213 156.14 26.8814 156.201 27.5747L156.632 32.5059C156.642 32.6255 156.609 32.7307 156.533 32.8217C156.457 32.9127 156.359 32.9635 156.239 32.9739L154.661 33.112ZM169.529 31.8112C168.812 31.8739 168.197 31.8012 167.685 31.5931C167.173 31.3849 166.776 31.0462 166.494 30.577C166.211 30.0958 166.037 29.4847 165.973 28.7435L165.616 24.6731L164.2 24.797C164.08 24.8074 163.975 24.7745 163.884 24.6981C163.793 24.6218 163.742 24.5238 163.732 24.4043L163.641 23.3643C163.63 23.2447 163.663 23.1394 163.74 23.0484C163.816 22.9574 163.914 22.9067 164.034 22.8963L165.45 22.7723L165.19 19.7957C165.179 19.6761 165.206 19.5714 165.271 19.4814C165.347 19.3904 165.451 19.3392 165.582 19.3277L167.035 19.2006C167.154 19.1901 167.26 19.2231 167.351 19.2995C167.442 19.3758 167.492 19.4738 167.503 19.5933L167.763 22.5699L170.005 22.3738C170.124 22.3634 170.23 22.3963 170.321 22.4727C170.412 22.5491 170.462 22.647 170.473 22.7665L170.564 23.8066C170.574 23.9261 170.541 24.0314 170.465 24.1224C170.389 24.2134 170.291 24.2641 170.171 24.2746L167.93 24.4707L168.27 28.3618C168.313 28.8519 168.43 29.2272 168.621 29.4875C168.825 29.7467 169.142 29.8575 169.572 29.8199L170.809 29.7116C170.929 29.7012 171.034 29.7341 171.125 29.8105C171.216 29.8868 171.267 29.9848 171.277 30.1043L171.375 31.2161C171.385 31.3356 171.352 31.4409 171.276 31.5319C171.199 31.6229 171.101 31.6736 170.982 31.6841L169.529 31.8112ZM176.551 31.3775C175.834 31.4403 175.211 31.4105 174.682 31.2881C174.166 31.1647 173.735 30.9915 173.39 30.7687C173.045 30.5459 172.784 30.3158 172.607 30.0784C172.43 29.8409 172.328 29.639 172.301 29.4727C172.278 29.3423 172.304 29.2375 172.382 29.1585C172.47 29.0664 172.568 29.0157 172.676 29.0063L174.092 28.8823C174.14 28.8782 174.183 28.8805 174.219 28.8893C174.256 28.8981 174.307 28.9298 174.372 28.9843C174.539 29.1022 174.713 29.2256 174.893 29.3544C175.084 29.4822 175.305 29.5894 175.553 29.6761C175.801 29.7508 176.104 29.7724 176.462 29.7411C176.928 29.7003 177.309 29.5766 177.604 29.3701C177.91 29.1506 178.048 28.8675 178.018 28.5208C177.996 28.2698 177.906 28.0729 177.749 27.93C177.604 27.7861 177.341 27.6706 176.96 27.5835C176.578 27.4844 176.04 27.3929 175.346 27.3091C174.663 27.2123 174.09 27.0636 173.627 26.8633C173.163 26.6629 172.808 26.3928 172.562 26.053C172.315 25.7132 172.171 25.3042 172.129 24.826C172.089 24.3598 172.187 23.9054 172.426 23.463C172.675 23.0075 173.062 22.6183 173.588 22.2952C174.126 21.9711 174.807 21.773 175.632 21.7008C176.278 21.6443 176.847 21.6789 177.34 21.8044C177.832 21.918 178.243 22.0807 178.575 22.2926C178.919 22.5034 179.185 22.727 179.375 22.9634C179.563 23.1879 179.671 23.3893 179.698 23.5675C179.722 23.698 179.695 23.8087 179.619 23.8997C179.542 23.9787 179.449 24.023 179.342 24.0324L178.015 24.1485C177.955 24.1537 177.9 24.1465 177.85 24.1267C177.8 24.107 177.75 24.0813 177.699 24.0496C177.557 23.9416 177.402 23.8286 177.236 23.7107C177.069 23.5928 176.867 23.496 176.632 23.4202C176.407 23.3315 176.116 23.3028 175.757 23.3341C175.303 23.3739 174.965 23.5058 174.744 23.73C174.521 23.9422 174.423 24.1977 174.449 24.4965C174.467 24.6998 174.537 24.8744 174.658 25.0204C174.79 25.1534 175.035 25.2704 175.393 25.3716C175.751 25.4728 176.289 25.5642 177.007 25.646C177.821 25.7194 178.473 25.8791 178.965 26.1252C179.467 26.3583 179.83 26.6518 180.053 27.0057C180.288 27.3465 180.425 27.7381 180.463 28.1804C180.51 28.7183 180.391 29.2166 180.106 29.6752C179.833 30.1328 179.397 30.5142 178.797 30.8197C178.208 31.1121 177.46 31.2981 176.551 31.3775Z" fill="#151515"/>
</svg>
