<svg width="312" height="56" viewBox="0 0 312 56" fill="none" xmlns="http://www.w3.org/2000/svg">
<path d="M282.944 4.00098H7.5C5.29086 4.00098 3.5 5.79184 3.5 8.00098V52.001C3.5 54.2101 5.29086 56.001 7.49999 56.001H282.944C283.98 56.001 284.976 55.5988 285.721 54.8792L308.518 32.8792C310.147 31.3064 310.147 28.6955 308.518 27.1227L285.721 5.12274C284.976 4.40313 283.98 4.00098 282.944 4.00098Z" fill="#035E57"/>
<path d="M305.17 28.5194L305.518 28.8792L305.17 28.5194L282.374 50.5194C281.722 51.1491 280.85 51.501 279.944 51.501H4.49999C2.567 51.501 1 49.934 1 48.001V4.00098C1 2.06798 2.567 0.500977 4.5 0.500977H279.944C280.85 0.500977 281.722 0.852856 282.374 1.48252L305.17 23.4825C306.596 24.8587 306.596 27.1432 305.17 28.5194Z" fill="#059E93" stroke="#035E57"/>
<path d="M14.258 31.001C14.1553 31.001 14.076 30.973 14.02 30.917C13.964 30.8516 13.936 30.7723 13.936 30.679V21.537C13.936 21.4343 13.964 21.355 14.02 21.299C14.076 21.2336 14.1553 21.201 14.258 21.201H18.094C18.794 21.201 19.3633 21.3176 19.802 21.551C20.25 21.775 20.5766 22.083 20.782 22.475C20.9966 22.867 21.104 23.3056 21.104 23.791C21.104 24.1736 21.0386 24.505 20.908 24.785C20.7866 25.0556 20.6326 25.2796 20.446 25.457C20.2593 25.625 20.0773 25.7556 19.9 25.849C20.264 26.0263 20.586 26.3156 20.866 26.717C21.1553 27.1183 21.3 27.6036 21.3 28.173C21.3 28.6863 21.1833 29.1576 20.95 29.587C20.7166 30.0163 20.3666 30.3616 19.9 30.623C19.4426 30.875 18.8733 31.001 18.192 31.001H14.258ZM15.308 29.867H18.01C18.6166 29.867 19.0833 29.7036 19.41 29.377C19.7366 29.0503 19.9 28.649 19.9 28.173C19.9 27.6783 19.7366 27.2723 19.41 26.955C19.0833 26.6283 18.6166 26.465 18.01 26.465H15.308V29.867ZM15.308 25.345H17.884C18.4813 25.345 18.934 25.2096 19.242 24.939C19.55 24.659 19.704 24.281 19.704 23.805C19.704 23.329 19.55 22.965 19.242 22.713C18.934 22.461 18.4813 22.335 17.884 22.335H15.308V25.345ZM23.1615 31.001C23.0682 31.001 22.9889 30.973 22.9235 30.917C22.8675 30.8516 22.8395 30.7723 22.8395 30.679V21.383C22.8395 21.2896 22.8675 21.215 22.9235 21.159C22.9889 21.0936 23.0682 21.061 23.1615 21.061H23.8195C23.9222 21.061 24.0015 21.0936 24.0575 21.159C24.1135 21.215 24.1415 21.2896 24.1415 21.383V30.679C24.1415 30.7723 24.1135 30.8516 24.0575 30.917C24.0015 30.973 23.9222 31.001 23.8195 31.001H23.1615ZM28.9318 31.141C28.2225 31.141 27.6298 31.0056 27.1538 30.735C26.6778 30.4643 26.3138 30.091 26.0618 29.615C25.8098 29.1296 25.6698 28.579 25.6418 27.963C25.6325 27.8043 25.6278 27.6036 25.6278 27.361C25.6278 27.109 25.6325 26.9083 25.6418 26.759C25.6698 26.1336 25.8098 25.583 26.0618 25.107C26.3232 24.631 26.6918 24.2576 27.1678 23.987C27.6438 23.7163 28.2318 23.581 28.9318 23.581C29.6318 23.581 30.2198 23.7163 30.6958 23.987C31.1718 24.2576 31.5358 24.631 31.7878 25.107C32.0492 25.583 32.1938 26.1336 32.2218 26.759C32.2312 26.9083 32.2358 27.109 32.2358 27.361C32.2358 27.6036 32.2312 27.8043 32.2218 27.963C32.1938 28.579 32.0538 29.1296 31.8018 29.615C31.5498 30.091 31.1858 30.4643 30.7098 30.735C30.2338 31.0056 29.6412 31.141 28.9318 31.141ZM28.9318 30.063C29.5105 30.063 29.9725 29.881 30.3178 29.517C30.6632 29.1436 30.8498 28.6023 30.8778 27.893C30.8872 27.753 30.8918 27.5756 30.8918 27.361C30.8918 27.1463 30.8872 26.969 30.8778 26.829C30.8498 26.1196 30.6632 25.583 30.3178 25.219C29.9725 24.8456 29.5105 24.659 28.9318 24.659C28.3532 24.659 27.8865 24.8456 27.5318 25.219C27.1865 25.583 27.0045 26.1196 26.9858 26.829C26.9765 26.969 26.9718 27.1463 26.9718 27.361C26.9718 27.5756 26.9765 27.753 26.9858 27.893C27.0045 28.6023 27.1865 29.1436 27.5318 29.517C27.8865 29.881 28.3532 30.063 28.9318 30.063ZM36.6489 31.141C35.9862 31.141 35.4122 31.015 34.9269 30.763C34.4509 30.5016 34.0822 30.133 33.8209 29.657C33.5596 29.1716 33.4196 28.593 33.4009 27.921C33.3916 27.781 33.3869 27.5943 33.3869 27.361C33.3869 27.1276 33.3916 26.941 33.4009 26.801C33.4196 26.129 33.5596 25.555 33.8209 25.079C34.0822 24.5936 34.4509 24.225 34.9269 23.973C35.4122 23.7116 35.9862 23.581 36.6489 23.581C37.1902 23.581 37.6522 23.6556 38.0349 23.805C38.4269 23.9543 38.7489 24.1456 39.0009 24.379C39.2529 24.6123 39.4396 24.8643 39.5609 25.135C39.6916 25.4056 39.7616 25.6623 39.7709 25.905C39.7802 25.9983 39.7522 26.073 39.6869 26.129C39.6216 26.185 39.5422 26.213 39.4489 26.213H38.7769C38.6836 26.213 38.6136 26.1943 38.5669 26.157C38.5202 26.1103 38.4736 26.0356 38.4269 25.933C38.2589 25.4756 38.0302 25.1536 37.7409 24.967C37.4516 24.7803 37.0922 24.687 36.6629 24.687C36.1029 24.687 35.6456 24.8596 35.2909 25.205C34.9456 25.5503 34.7589 26.1056 34.7309 26.871C34.7216 27.207 34.7216 27.5336 34.7309 27.851C34.7589 28.6256 34.9456 29.1856 35.2909 29.531C35.6456 29.867 36.1029 30.035 36.6629 30.035C37.0922 30.035 37.4516 29.9416 37.7409 29.755C38.0302 29.5683 38.2589 29.2463 38.4269 28.789C38.4736 28.6863 38.5202 28.6163 38.5669 28.579C38.6136 28.5323 38.6836 28.509 38.7769 28.509H39.4489C39.5422 28.509 39.6216 28.537 39.6869 28.593C39.7522 28.649 39.7802 28.7236 39.7709 28.817C39.7616 29.013 39.7196 29.2136 39.6449 29.419C39.5702 29.6243 39.4489 29.8343 39.2809 30.049C39.1222 30.2543 38.9216 30.441 38.6789 30.609C38.4362 30.7676 38.1422 30.8983 37.7969 31.001C37.4609 31.0943 37.0782 31.141 36.6489 31.141ZM41.4895 31.001C41.3962 31.001 41.3168 30.973 41.2515 30.917C41.1955 30.8516 41.1675 30.7723 41.1675 30.679V21.383C41.1675 21.2896 41.1955 21.215 41.2515 21.159C41.3168 21.0936 41.3962 21.061 41.4895 21.061H42.1475C42.2408 21.061 42.3155 21.0936 42.3715 21.159C42.4368 21.215 42.4695 21.2896 42.4695 21.383V26.255L45.2275 23.959C45.3395 23.8656 45.4235 23.805 45.4795 23.777C45.5448 23.7396 45.6475 23.721 45.7875 23.721H46.5295C46.6135 23.721 46.6835 23.749 46.7395 23.805C46.7955 23.861 46.8235 23.931 46.8235 24.015C46.8235 24.0523 46.8095 24.0943 46.7815 24.141C46.7628 24.1876 46.7208 24.2343 46.6555 24.281L43.4215 26.969L47.0055 30.455C47.1175 30.5483 47.1735 30.6323 47.1735 30.707C47.1735 30.791 47.1455 30.861 47.0895 30.917C47.0335 30.973 46.9635 31.001 46.8795 31.001H46.1515C46.0115 31.001 45.9088 30.987 45.8435 30.959C45.7782 30.9216 45.6942 30.8563 45.5915 30.763L42.4695 27.781V30.679C42.4695 30.7723 42.4368 30.8516 42.3715 30.917C42.3155 30.973 42.2408 31.001 42.1475 31.001H41.4895ZM50.6905 31.141C50.0278 31.141 49.4538 31.015 48.9685 30.763C48.4925 30.5016 48.1238 30.133 47.8625 29.657C47.6011 29.1716 47.4611 28.593 47.4425 27.921C47.4331 27.781 47.4285 27.5943 47.4285 27.361C47.4285 27.1276 47.4331 26.941 47.4425 26.801C47.4611 26.129 47.6011 25.555 47.8625 25.079C48.1238 24.5936 48.4925 24.225 48.9685 23.973C49.4538 23.7116 50.0278 23.581 50.6905 23.581C51.2318 23.581 51.6938 23.6556 52.0765 23.805C52.4685 23.9543 52.7905 24.1456 53.0425 24.379C53.2945 24.6123 53.4811 24.8643 53.6025 25.135C53.7331 25.4056 53.8031 25.6623 53.8125 25.905C53.8218 25.9983 53.7938 26.073 53.7285 26.129C53.6631 26.185 53.5838 26.213 53.4905 26.213H52.8185C52.7251 26.213 52.6551 26.1943 52.6085 26.157C52.5618 26.1103 52.5151 26.0356 52.4685 25.933C52.3005 25.4756 52.0718 25.1536 51.7825 24.967C51.4931 24.7803 51.1338 24.687 50.7045 24.687C50.1445 24.687 49.6871 24.8596 49.3325 25.205C48.9871 25.5503 48.8005 26.1056 48.7725 26.871C48.7631 27.207 48.7631 27.5336 48.7725 27.851C48.8005 28.6256 48.9871 29.1856 49.3325 29.531C49.6871 29.867 50.1445 30.035 50.7045 30.035C51.1338 30.035 51.4931 29.9416 51.7825 29.755C52.0718 29.5683 52.3005 29.2463 52.4685 28.789C52.5151 28.6863 52.5618 28.6163 52.6085 28.579C52.6551 28.5323 52.7251 28.509 52.8185 28.509H53.4905C53.5838 28.509 53.6631 28.537 53.7285 28.593C53.7938 28.649 53.8218 28.7236 53.8125 28.817C53.8031 29.013 53.7611 29.2136 53.6865 29.419C53.6118 29.6243 53.4905 29.8343 53.3225 30.049C53.1638 30.2543 52.9631 30.441 52.7205 30.609C52.4778 30.7676 52.1838 30.8983 51.8385 31.001C51.5025 31.0943 51.1198 31.141 50.6905 31.141ZM55.5311 31.001C55.4377 31.001 55.3584 30.973 55.2931 30.917C55.2371 30.8516 55.2091 30.7723 55.2091 30.679V21.383C55.2091 21.2896 55.2371 21.215 55.2931 21.159C55.3584 21.0936 55.4377 21.061 55.5311 21.061H56.2311C56.3337 21.061 56.4131 21.0936 56.4691 21.159C56.5251 21.215 56.5531 21.2896 56.5531 21.383V24.645C56.8051 24.3276 57.1131 24.071 57.4771 23.875C57.8411 23.679 58.3031 23.581 58.8631 23.581C59.4697 23.581 59.9831 23.7163 60.4031 23.987C60.8324 24.2483 61.1544 24.617 61.3691 25.093C61.5931 25.5596 61.7051 26.1056 61.7051 26.731V30.679C61.7051 30.7723 61.6771 30.8516 61.6211 30.917C61.5651 30.973 61.4857 31.001 61.3831 31.001H60.6831C60.5897 31.001 60.5104 30.973 60.4451 30.917C60.3891 30.8516 60.3611 30.7723 60.3611 30.679V26.801C60.3611 26.1476 60.2024 25.639 59.8851 25.275C59.5677 24.9016 59.1011 24.715 58.4851 24.715C57.9064 24.715 57.4397 24.9016 57.0851 25.275C56.7304 25.639 56.5531 26.1476 56.5531 26.801V30.679C56.5531 30.7723 56.5251 30.8516 56.4691 30.917C56.4131 30.973 56.3337 31.001 56.2311 31.001H55.5311ZM65.4763 31.141C65.0096 31.141 64.585 31.0476 64.2023 30.861C63.8196 30.6743 63.5116 30.4223 63.2783 30.105C63.045 29.7876 62.9283 29.4283 62.9283 29.027C62.9283 28.383 63.1896 27.8696 63.7123 27.487C64.235 27.1043 64.9163 26.8523 65.7563 26.731L67.8423 26.437V26.031C67.8423 25.583 67.7116 25.233 67.4503 24.981C67.1983 24.729 66.783 24.603 66.2043 24.603C65.7843 24.603 65.4436 24.687 65.1823 24.855C64.9303 25.023 64.753 25.2376 64.6503 25.499C64.5943 25.639 64.4963 25.709 64.3563 25.709H63.7263C63.6236 25.709 63.5443 25.681 63.4883 25.625C63.4416 25.5596 63.4183 25.485 63.4183 25.401C63.4183 25.261 63.4696 25.0883 63.5723 24.883C63.6843 24.6776 63.8523 24.477 64.0763 24.281C64.3003 24.085 64.585 23.9216 64.9303 23.791C65.285 23.651 65.7143 23.581 66.2183 23.581C66.7783 23.581 67.2497 23.6556 67.6323 23.805C68.015 23.945 68.3137 24.1363 68.5283 24.379C68.7523 24.6216 68.911 24.897 69.0043 25.205C69.107 25.513 69.1583 25.8256 69.1583 26.143V30.679C69.1583 30.7723 69.1257 30.8516 69.0603 30.917C69.0043 30.973 68.9297 31.001 68.8363 31.001H68.1923C68.0896 31.001 68.0103 30.973 67.9543 30.917C67.8983 30.8516 67.8703 30.7723 67.8703 30.679V30.077C67.749 30.245 67.5856 30.413 67.3803 30.581C67.175 30.7396 66.9183 30.875 66.6103 30.987C66.3023 31.0896 65.9243 31.141 65.4763 31.141ZM65.7703 30.091C66.153 30.091 66.503 30.0116 66.8203 29.853C67.1376 29.685 67.385 29.4283 67.5623 29.083C67.749 28.7376 67.8423 28.3036 67.8423 27.781V27.389L66.2183 27.627C65.5556 27.7203 65.0563 27.879 64.7203 28.103C64.3843 28.3176 64.2163 28.593 64.2163 28.929C64.2163 29.1903 64.291 29.4096 64.4403 29.587C64.599 29.755 64.795 29.881 65.0283 29.965C65.271 30.049 65.5183 30.091 65.7703 30.091ZM71.2129 31.001C71.1196 31.001 71.0403 30.973 70.9749 30.917C70.9189 30.8516 70.8909 30.7723 70.8909 30.679V24.043C70.8909 23.9496 70.9189 23.875 70.9749 23.819C71.0403 23.7536 71.1196 23.721 71.2129 23.721H71.8849C71.9783 23.721 72.0529 23.7536 72.1089 23.819C72.1649 23.875 72.1929 23.9496 72.1929 24.043V30.679C72.1929 30.7723 72.1649 30.8516 72.1089 30.917C72.0529 30.973 71.9783 31.001 71.8849 31.001H71.2129ZM71.1009 22.363C71.0076 22.363 70.9283 22.335 70.8629 22.279C70.8069 22.2136 70.7789 22.1343 70.7789 22.041V21.285C70.7789 21.1916 70.8069 21.117 70.8629 21.061C70.9283 20.9956 71.0076 20.963 71.1009 20.963H71.9829C72.0763 20.963 72.1509 20.9956 72.2069 21.061C72.2723 21.117 72.3049 21.1916 72.3049 21.285V22.041C72.3049 22.1343 72.2723 22.2136 72.2069 22.279C72.1509 22.335 72.0763 22.363 71.9829 22.363H71.1009ZM74.3235 31.001C74.2302 31.001 74.1509 30.973 74.0855 30.917C74.0295 30.8516 74.0015 30.7723 74.0015 30.679V24.043C74.0015 23.9496 74.0295 23.875 74.0855 23.819C74.1509 23.7536 74.2302 23.721 74.3235 23.721H74.9815C75.0749 23.721 75.1495 23.7536 75.2055 23.819C75.2709 23.875 75.3035 23.9496 75.3035 24.043V24.659C75.5462 24.3416 75.8495 24.085 76.2135 23.889C76.5869 23.6836 77.0629 23.581 77.6415 23.581C78.2482 23.581 78.7615 23.7163 79.1815 23.987C79.6109 24.2483 79.9329 24.617 80.1475 25.093C80.3622 25.5596 80.4695 26.1056 80.4695 26.731V30.679C80.4695 30.7723 80.4415 30.8516 80.3855 30.917C80.3296 30.973 80.2549 31.001 80.1615 31.001H79.4615C79.3682 31.001 79.2889 30.973 79.2235 30.917C79.1675 30.8516 79.1395 30.7723 79.1395 30.679V26.801C79.1395 26.1476 78.9809 25.639 78.6635 25.275C78.3462 24.9016 77.8795 24.715 77.2635 24.715C76.6849 24.715 76.2182 24.9016 75.8635 25.275C75.5182 25.639 75.3455 26.1476 75.3455 26.801V30.679C75.3455 30.7723 75.3129 30.8516 75.2475 30.917C75.1915 30.973 75.1169 31.001 75.0235 31.001H74.3235ZM85.8674 31.001C85.7648 31.001 85.6854 30.973 85.6294 30.917C85.5734 30.8516 85.5454 30.7723 85.5454 30.679V21.537C85.5454 21.4343 85.5734 21.355 85.6294 21.299C85.6854 21.2336 85.7648 21.201 85.8674 21.201H89.4234C90.1141 21.201 90.7114 21.313 91.2154 21.537C91.7288 21.761 92.1254 22.097 92.4054 22.545C92.6854 22.9836 92.8254 23.5343 92.8254 24.197C92.8254 24.8596 92.6854 25.4103 92.4054 25.849C92.1254 26.2876 91.7288 26.619 91.2154 26.843C90.7114 27.067 90.1141 27.179 89.4234 27.179H86.9454V30.679C86.9454 30.7723 86.9128 30.8516 86.8474 30.917C86.7914 30.973 86.7121 31.001 86.6094 31.001H85.8674ZM86.9314 26.003H89.3534C90.0441 26.003 90.5621 25.849 90.9074 25.541C91.2528 25.233 91.4254 24.785 91.4254 24.197C91.4254 23.6183 91.2574 23.1703 90.9214 22.853C90.5854 22.5356 90.0628 22.377 89.3534 22.377H86.9314V26.003ZM94.3878 31.001C94.2945 31.001 94.2152 30.973 94.1498 30.917C94.0938 30.8516 94.0658 30.7723 94.0658 30.679V24.057C94.0658 23.9636 94.0938 23.8843 94.1498 23.819C94.2152 23.7536 94.2945 23.721 94.3878 23.721H95.0318C95.1252 23.721 95.2045 23.7536 95.2698 23.819C95.3352 23.8843 95.3678 23.9636 95.3678 24.057V24.673C95.5545 24.3556 95.8112 24.1176 96.1378 23.959C96.4645 23.8003 96.8565 23.721 97.3138 23.721H97.8738C97.9672 23.721 98.0418 23.7536 98.0978 23.819C98.1538 23.875 98.1818 23.9496 98.1818 24.043V24.617C98.1818 24.7103 98.1538 24.785 98.0978 24.841C98.0418 24.897 97.9672 24.925 97.8738 24.925H97.0338C96.5298 24.925 96.1332 25.0743 95.8438 25.373C95.5545 25.6623 95.4098 26.059 95.4098 26.563V30.679C95.4098 30.7723 95.3772 30.8516 95.3118 30.917C95.2465 30.973 95.1672 31.001 95.0738 31.001H94.3878ZM101.949 31.141C101.24 31.141 100.647 31.0056 100.171 30.735C99.6955 30.4643 99.3315 30.091 99.0795 29.615C98.8275 29.1296 98.6875 28.579 98.6595 27.963C98.6502 27.8043 98.6455 27.6036 98.6455 27.361C98.6455 27.109 98.6502 26.9083 98.6595 26.759C98.6875 26.1336 98.8275 25.583 99.0795 25.107C99.3408 24.631 99.7095 24.2576 100.185 23.987C100.661 23.7163 101.249 23.581 101.949 23.581C102.649 23.581 103.237 23.7163 103.713 23.987C104.189 24.2576 104.553 24.631 104.805 25.107C105.067 25.583 105.211 26.1336 105.239 26.759C105.249 26.9083 105.253 27.109 105.253 27.361C105.253 27.6036 105.249 27.8043 105.239 27.963C105.211 28.579 105.071 29.1296 104.819 29.615C104.567 30.091 104.203 30.4643 103.727 30.735C103.251 31.0056 102.659 31.141 101.949 31.141ZM101.949 30.063C102.528 30.063 102.99 29.881 103.335 29.517C103.681 29.1436 103.867 28.6023 103.895 27.893C103.905 27.753 103.909 27.5756 103.909 27.361C103.909 27.1463 103.905 26.969 103.895 26.829C103.867 26.1196 103.681 25.583 103.335 25.219C102.99 24.8456 102.528 24.659 101.949 24.659C101.371 24.659 100.904 24.8456 100.549 25.219C100.204 25.583 100.022 26.1196 100.003 26.829C99.9942 26.969 99.9895 27.1463 99.9895 27.361C99.9895 27.5756 99.9942 27.753 100.003 27.893C100.022 28.6023 100.204 29.1436 100.549 29.517C100.904 29.881 101.371 30.063 101.949 30.063ZM107.695 31.001C107.601 31.001 107.522 30.973 107.457 30.917C107.401 30.8516 107.373 30.7723 107.373 30.679V24.841H106.183C106.089 24.841 106.01 24.813 105.945 24.757C105.889 24.6916 105.861 24.6123 105.861 24.519V24.043C105.861 23.9496 105.889 23.875 105.945 23.819C106.01 23.7536 106.089 23.721 106.183 23.721H107.373V23.021C107.373 22.545 107.452 22.1296 107.611 21.775C107.769 21.411 108.021 21.131 108.367 20.935C108.721 20.739 109.193 20.641 109.781 20.641H111.937C112.03 20.641 112.105 20.6736 112.161 20.739C112.226 20.795 112.259 20.8696 112.259 20.963V21.439C112.259 21.5323 112.226 21.6116 112.161 21.677C112.105 21.733 112.03 21.761 111.937 21.761H109.809C109.37 21.761 109.071 21.8776 108.913 22.111C108.754 22.335 108.675 22.6616 108.675 23.091V23.721H111.937C112.03 23.721 112.105 23.7536 112.161 23.819C112.226 23.875 112.259 23.9496 112.259 24.043V30.679C112.259 30.7723 112.226 30.8516 112.161 30.917C112.105 30.973 112.03 31.001 111.937 31.001H111.293C111.19 31.001 111.111 30.973 111.055 30.917C110.999 30.8516 110.971 30.7723 110.971 30.679V24.841H108.675V30.679C108.675 30.7723 108.642 30.8516 108.577 30.917C108.521 30.973 108.446 31.001 108.353 31.001H107.695ZM116.988 31.141C116.325 31.141 115.751 31.015 115.266 30.763C114.79 30.5016 114.421 30.133 114.16 29.657C113.899 29.1716 113.759 28.593 113.74 27.921C113.731 27.781 113.726 27.5943 113.726 27.361C113.726 27.1276 113.731 26.941 113.74 26.801C113.759 26.129 113.899 25.555 114.16 25.079C114.421 24.5936 114.79 24.225 115.266 23.973C115.751 23.7116 116.325 23.581 116.988 23.581C117.529 23.581 117.991 23.6556 118.374 23.805C118.766 23.9543 119.088 24.1456 119.34 24.379C119.592 24.6123 119.779 24.8643 119.9 25.135C120.031 25.4056 120.101 25.6623 120.11 25.905C120.119 25.9983 120.091 26.073 120.026 26.129C119.961 26.185 119.881 26.213 119.788 26.213H119.116C119.023 26.213 118.953 26.1943 118.906 26.157C118.859 26.1103 118.813 26.0356 118.766 25.933C118.598 25.4756 118.369 25.1536 118.08 24.967C117.791 24.7803 117.431 24.687 117.002 24.687C116.442 24.687 115.985 24.8596 115.63 25.205C115.285 25.5503 115.098 26.1056 115.07 26.871C115.061 27.207 115.061 27.5336 115.07 27.851C115.098 28.6256 115.285 29.1856 115.63 29.531C115.985 29.867 116.442 30.035 117.002 30.035C117.431 30.035 117.791 29.9416 118.08 29.755C118.369 29.5683 118.598 29.2463 118.766 28.789C118.813 28.6863 118.859 28.6163 118.906 28.579C118.953 28.5323 119.023 28.509 119.116 28.509H119.788C119.881 28.509 119.961 28.537 120.026 28.593C120.091 28.649 120.119 28.7236 120.11 28.817C120.101 29.013 120.059 29.2136 119.984 29.419C119.909 29.6243 119.788 29.8343 119.62 30.049C119.461 30.2543 119.261 30.441 119.018 30.609C118.775 30.7676 118.481 30.8983 118.136 31.001C117.8 31.0943 117.417 31.141 116.988 31.141ZM121.815 31.001C121.721 31.001 121.642 30.973 121.577 30.917C121.521 30.8516 121.493 30.7723 121.493 30.679V24.043C121.493 23.9496 121.521 23.875 121.577 23.819C121.642 23.7536 121.721 23.721 121.815 23.721H122.487C122.58 23.721 122.655 23.7536 122.711 23.819C122.767 23.875 122.795 23.9496 122.795 24.043V30.679C122.795 30.7723 122.767 30.8516 122.711 30.917C122.655 30.973 122.58 31.001 122.487 31.001H121.815ZM121.703 22.363C121.609 22.363 121.53 22.335 121.465 22.279C121.409 22.2136 121.381 22.1343 121.381 22.041V21.285C121.381 21.1916 121.409 21.117 121.465 21.061C121.53 20.9956 121.609 20.963 121.703 20.963H122.585C122.678 20.963 122.753 20.9956 122.809 21.061C122.874 21.117 122.907 21.1916 122.907 21.285V22.041C122.907 22.1343 122.874 22.2136 122.809 22.279C122.753 22.335 122.678 22.363 122.585 22.363H121.703ZM127.501 31.141C126.54 31.141 125.775 30.847 125.205 30.259C124.636 29.6616 124.323 28.8496 124.267 27.823C124.258 27.7016 124.253 27.5476 124.253 27.361C124.253 27.165 124.258 27.0063 124.267 26.885C124.305 26.2223 124.459 25.6436 124.729 25.149C125 24.645 125.369 24.2576 125.835 23.987C126.311 23.7163 126.867 23.581 127.501 23.581C128.211 23.581 128.803 23.7303 129.279 24.029C129.765 24.3276 130.133 24.7523 130.385 25.303C130.637 25.8536 130.763 26.4976 130.763 27.235V27.473C130.763 27.5756 130.731 27.655 130.665 27.711C130.609 27.767 130.535 27.795 130.441 27.795H125.597C125.597 27.8043 125.597 27.823 125.597 27.851C125.597 27.879 125.597 27.9023 125.597 27.921C125.616 28.3036 125.7 28.663 125.849 28.999C125.999 29.3256 126.213 29.5916 126.493 29.797C126.773 30.0023 127.109 30.105 127.501 30.105C127.837 30.105 128.117 30.0536 128.341 29.951C128.565 29.8483 128.747 29.7363 128.887 29.615C129.027 29.4843 129.121 29.3863 129.167 29.321C129.251 29.1996 129.317 29.1296 129.363 29.111C129.41 29.083 129.485 29.069 129.587 29.069H130.259C130.353 29.069 130.427 29.097 130.483 29.153C130.549 29.1996 130.577 29.2696 130.567 29.363C130.558 29.503 130.483 29.6756 130.343 29.881C130.203 30.077 130.003 30.273 129.741 30.469C129.48 30.665 129.163 30.8283 128.789 30.959C128.416 31.0803 127.987 31.141 127.501 31.141ZM125.597 26.829H129.433V26.787C129.433 26.367 129.354 25.9936 129.195 25.667C129.046 25.3403 128.827 25.0836 128.537 24.897C128.248 24.701 127.903 24.603 127.501 24.603C127.1 24.603 126.755 24.701 126.465 24.897C126.185 25.0836 125.971 25.3403 125.821 25.667C125.672 25.9936 125.597 26.367 125.597 26.787V26.829ZM132.479 31.001C132.386 31.001 132.307 30.973 132.241 30.917C132.185 30.8516 132.157 30.7723 132.157 30.679V24.043C132.157 23.9496 132.185 23.875 132.241 23.819C132.307 23.7536 132.386 23.721 132.479 23.721H133.137C133.231 23.721 133.305 23.7536 133.361 23.819C133.427 23.875 133.459 23.9496 133.459 24.043V24.659C133.702 24.3416 134.005 24.085 134.369 23.889C134.743 23.6836 135.219 23.581 135.797 23.581C136.404 23.581 136.917 23.7163 137.337 23.987C137.767 24.2483 138.089 24.617 138.303 25.093C138.518 25.5596 138.625 26.1056 138.625 26.731V30.679C138.625 30.7723 138.597 30.8516 138.541 30.917C138.485 30.973 138.411 31.001 138.317 31.001H137.617C137.524 31.001 137.445 30.973 137.379 30.917C137.323 30.8516 137.295 30.7723 137.295 30.679V26.801C137.295 26.1476 137.137 25.639 136.819 25.275C136.502 24.9016 136.035 24.715 135.419 24.715C134.841 24.715 134.374 24.9016 134.019 25.275C133.674 25.639 133.501 26.1476 133.501 26.801V30.679C133.501 30.7723 133.469 30.8516 133.403 30.917C133.347 30.973 133.273 31.001 133.179 31.001H132.479ZM143.308 31.141C142.645 31.141 142.071 31.015 141.586 30.763C141.11 30.5016 140.741 30.133 140.48 29.657C140.218 29.1716 140.078 28.593 140.06 27.921C140.05 27.781 140.046 27.5943 140.046 27.361C140.046 27.1276 140.05 26.941 140.06 26.801C140.078 26.129 140.218 25.555 140.48 25.079C140.741 24.5936 141.11 24.225 141.586 23.973C142.071 23.7116 142.645 23.581 143.308 23.581C143.849 23.581 144.311 23.6556 144.694 23.805C145.086 23.9543 145.408 24.1456 145.66 24.379C145.912 24.6123 146.098 24.8643 146.22 25.135C146.35 25.4056 146.42 25.6623 146.43 25.905C146.439 25.9983 146.411 26.073 146.346 26.129C146.28 26.185 146.201 26.213 146.108 26.213H145.436C145.342 26.213 145.272 26.1943 145.226 26.157C145.179 26.1103 145.132 26.0356 145.086 25.933C144.918 25.4756 144.689 25.1536 144.4 24.967C144.11 24.7803 143.751 24.687 143.322 24.687C142.762 24.687 142.304 24.8596 141.95 25.205C141.604 25.5503 141.418 26.1056 141.39 26.871C141.38 27.207 141.38 27.5336 141.39 27.851C141.418 28.6256 141.604 29.1856 141.95 29.531C142.304 29.867 142.762 30.035 143.322 30.035C143.751 30.035 144.11 29.9416 144.4 29.755C144.689 29.5683 144.918 29.2463 145.086 28.789C145.132 28.6863 145.179 28.6163 145.226 28.579C145.272 28.5323 145.342 28.509 145.436 28.509H146.108C146.201 28.509 146.28 28.537 146.346 28.593C146.411 28.649 146.439 28.7236 146.43 28.817C146.42 29.013 146.378 29.2136 146.304 29.419C146.229 29.6243 146.108 29.8343 145.94 30.049C145.781 30.2543 145.58 30.441 145.338 30.609C145.095 30.7676 144.801 30.8983 144.456 31.001C144.12 31.0943 143.737 31.141 143.308 31.141ZM148.881 33.661C148.806 33.661 148.741 33.633 148.685 33.577C148.629 33.521 148.601 33.4556 148.601 33.381C148.601 33.3436 148.606 33.3063 148.615 33.269C148.624 33.2316 148.643 33.185 148.671 33.129L149.749 30.567L147.075 24.253C147.028 24.141 147.005 24.0616 147.005 24.015C147.005 23.931 147.033 23.861 147.089 23.805C147.145 23.749 147.215 23.721 147.299 23.721H147.985C148.078 23.721 148.153 23.7443 148.209 23.791C148.265 23.8376 148.302 23.8936 148.321 23.959L150.449 29.055L152.633 23.959C152.661 23.8936 152.698 23.8376 152.745 23.791C152.801 23.7443 152.88 23.721 152.983 23.721H153.641C153.725 23.721 153.795 23.749 153.851 23.805C153.907 23.861 153.935 23.9263 153.935 24.001C153.935 24.0476 153.912 24.1316 153.865 24.253L149.889 33.423C149.861 33.4883 149.819 33.5443 149.763 33.591C149.716 33.6376 149.642 33.661 149.539 33.661H148.881Z" fill="white"/>
<rect x="248.5" y="12.001" width="28" height="28" rx="14" fill="white"/>
<path d="M263.37 31.001C263.277 31.001 263.197 30.973 263.132 30.917C263.076 30.8516 263.048 30.7723 263.048 30.679V22.839L260.724 24.631C260.649 24.687 260.57 24.7103 260.486 24.701C260.402 24.6916 260.332 24.6496 260.276 24.575L259.912 24.113C259.856 24.029 259.833 23.945 259.842 23.861C259.861 23.777 259.907 23.707 259.982 23.651L263.034 21.299C263.099 21.2523 263.16 21.2243 263.216 21.215C263.272 21.2056 263.333 21.201 263.398 21.201H264.112C264.205 21.201 264.28 21.2336 264.336 21.299C264.392 21.355 264.42 21.4296 264.42 21.523V30.679C264.42 30.7723 264.392 30.8516 264.336 30.917C264.28 30.973 264.205 31.001 264.112 31.001H263.37Z" fill="#059E93"/>
</svg>
