<svg width="304" height="79" viewBox="0 0 304 79" fill="none" xmlns="http://www.w3.org/2000/svg">
<path d="M275.612 5H7.92029C5.71115 5 3.92029 6.79086 3.92029 9V75C3.92029 77.2091 5.71116 79 7.92029 79H275.612C276.909 79 278.125 78.3716 278.875 77.314L302.279 44.314C303.262 42.9279 303.262 41.0721 302.279 39.686L278.875 6.68601C278.125 5.62843 276.909 5 275.612 5Z" fill="#035E57"/>
<path d="M4 0.900391H271.692C272.826 0.900391 273.89 1.45027 274.547 2.37565L297.951 35.3756C298.811 36.5884 298.811 38.2123 297.951 39.4251L274.547 72.4251C273.89 73.3505 272.826 73.9004 271.692 73.9004H4.00001C2.06701 73.9004 0.5 72.3334 0.5 70.4004V4.40039C0.5 2.4674 2.067 0.900391 4 0.900391Z" fill="#059E93" stroke="#035E57"/>
<path d="M14.9704 43.9004C14.8384 43.9004 14.7364 43.8644 14.6644 43.7924C14.5924 43.7084 14.5564 43.6064 14.5564 43.4864V31.7324C14.5564 31.6004 14.5924 31.4984 14.6644 31.4264C14.7364 31.3424 14.8384 31.3004 14.9704 31.3004H19.9024C20.8024 31.3004 21.5344 31.4504 22.0984 31.7504C22.6744 32.0384 23.0944 32.4344 23.3584 32.9384C23.6344 33.4424 23.7724 34.0064 23.7724 34.6304C23.7724 35.1224 23.6884 35.5484 23.5204 35.9084C23.3644 36.2564 23.1664 36.5444 22.9264 36.7724C22.6864 36.9884 22.4524 37.1564 22.2244 37.2764C22.6924 37.5044 23.1064 37.8764 23.4664 38.3924C23.8384 38.9084 24.0244 39.5324 24.0244 40.2644C24.0244 40.9244 23.8744 41.5304 23.5744 42.0824C23.2744 42.6344 22.8244 43.0784 22.2244 43.4144C21.6364 43.7384 20.9044 43.9004 20.0284 43.9004H14.9704ZM16.3204 42.4424H19.7944C20.5744 42.4424 21.1744 42.2324 21.5944 41.8124C22.0144 41.3924 22.2244 40.8764 22.2244 40.2644C22.2244 39.6284 22.0144 39.1064 21.5944 38.6984C21.1744 38.2784 20.5744 38.0684 19.7944 38.0684H16.3204V42.4424ZM16.3204 36.6284H19.6324C20.4004 36.6284 20.9824 36.4544 21.3784 36.1064C21.7744 35.7464 21.9724 35.2604 21.9724 34.6484C21.9724 34.0364 21.7744 33.5684 21.3784 33.2444C20.9824 32.9204 20.4004 32.7584 19.6324 32.7584H16.3204V36.6284ZM26.4178 43.9004C26.2978 43.9004 26.1958 43.8644 26.1118 43.7924C26.0398 43.7084 26.0038 43.6064 26.0038 43.4864V31.5344C26.0038 31.4144 26.0398 31.3184 26.1118 31.2464C26.1958 31.1624 26.2978 31.1204 26.4178 31.1204H27.2638C27.3958 31.1204 27.4978 31.1624 27.5698 31.2464C27.6418 31.3184 27.6778 31.4144 27.6778 31.5344V43.4864C27.6778 43.6064 27.6418 43.7084 27.5698 43.7924C27.4978 43.8644 27.3958 43.9004 27.2638 43.9004H26.4178ZM33.8368 44.0804C32.9248 44.0804 32.1628 43.9064 31.5508 43.5584C30.9388 43.2104 30.4708 42.7304 30.1468 42.1184C29.8228 41.4944 29.6428 40.7864 29.6068 39.9944C29.5948 39.7904 29.5888 39.5324 29.5888 39.2204C29.5888 38.8964 29.5948 38.6384 29.6068 38.4464C29.6428 37.6424 29.8228 36.9344 30.1468 36.3224C30.4828 35.7104 30.9568 35.2304 31.5688 34.8824C32.1808 34.5344 32.9368 34.3604 33.8368 34.3604C34.7368 34.3604 35.4928 34.5344 36.1048 34.8824C36.7168 35.2304 37.1848 35.7104 37.5088 36.3224C37.8448 36.9344 38.0308 37.6424 38.0668 38.4464C38.0788 38.6384 38.0848 38.8964 38.0848 39.2204C38.0848 39.5324 38.0788 39.7904 38.0668 39.9944C38.0308 40.7864 37.8508 41.4944 37.5268 42.1184C37.2028 42.7304 36.7348 43.2104 36.1228 43.5584C35.5108 43.9064 34.7488 44.0804 33.8368 44.0804ZM33.8368 42.6944C34.5808 42.6944 35.1748 42.4604 35.6188 41.9924C36.0628 41.5124 36.3028 40.8164 36.3388 39.9044C36.3508 39.7244 36.3568 39.4964 36.3568 39.2204C36.3568 38.9444 36.3508 38.7164 36.3388 38.5364C36.3028 37.6244 36.0628 36.9344 35.6188 36.4664C35.1748 35.9864 34.5808 35.7464 33.8368 35.7464C33.0928 35.7464 32.4928 35.9864 32.0368 36.4664C31.5928 36.9344 31.3588 37.6244 31.3348 38.5364C31.3228 38.7164 31.3168 38.9444 31.3168 39.2204C31.3168 39.4964 31.3228 39.7244 31.3348 39.9044C31.3588 40.8164 31.5928 41.5124 32.0368 41.9924C32.4928 42.4604 33.0928 42.6944 33.8368 42.6944ZM43.7587 44.0804C42.9067 44.0804 42.1687 43.9184 41.5447 43.5944C40.9327 43.2584 40.4587 42.7844 40.1227 42.1724C39.7867 41.5484 39.6067 40.8044 39.5827 39.9404C39.5707 39.7604 39.5647 39.5204 39.5647 39.2204C39.5647 38.9204 39.5707 38.6804 39.5827 38.5004C39.6067 37.6364 39.7867 36.8984 40.1227 36.2864C40.4587 35.6624 40.9327 35.1884 41.5447 34.8644C42.1687 34.5284 42.9067 34.3604 43.7587 34.3604C44.4547 34.3604 45.0487 34.4564 45.5407 34.6484C46.0447 34.8404 46.4587 35.0864 46.7827 35.3864C47.1067 35.6864 47.3467 36.0104 47.5027 36.3584C47.6707 36.7064 47.7607 37.0364 47.7727 37.3484C47.7847 37.4684 47.7487 37.5644 47.6647 37.6364C47.5807 37.7084 47.4787 37.7444 47.3587 37.7444H46.4947C46.3747 37.7444 46.2847 37.7204 46.2247 37.6724C46.1647 37.6124 46.1047 37.5164 46.0447 37.3844C45.8287 36.7964 45.5347 36.3824 45.1627 36.1424C44.7907 35.9024 44.3287 35.7824 43.7767 35.7824C43.0567 35.7824 42.4687 36.0044 42.0127 36.4484C41.5687 36.8924 41.3287 37.6064 41.2927 38.5904C41.2807 39.0224 41.2807 39.4424 41.2927 39.8504C41.3287 40.8464 41.5687 41.5664 42.0127 42.0104C42.4687 42.4424 43.0567 42.6584 43.7767 42.6584C44.3287 42.6584 44.7907 42.5384 45.1627 42.2984C45.5347 42.0584 45.8287 41.6444 46.0447 41.0564C46.1047 40.9244 46.1647 40.8344 46.2247 40.7864C46.2847 40.7264 46.3747 40.6964 46.4947 40.6964H47.3587C47.4787 40.6964 47.5807 40.7324 47.6647 40.8044C47.7487 40.8764 47.7847 40.9724 47.7727 41.0924C47.7607 41.3444 47.7067 41.6024 47.6107 41.8664C47.5147 42.1304 47.3587 42.4004 47.1427 42.6764C46.9387 42.9404 46.6807 43.1804 46.3687 43.3964C46.0567 43.6004 45.6787 43.7684 45.2347 43.9004C44.8027 44.0204 44.3107 44.0804 43.7587 44.0804ZM49.9823 43.9004C49.8623 43.9004 49.7603 43.8644 49.6763 43.7924C49.6043 43.7084 49.5683 43.6064 49.5683 43.4864V31.5344C49.5683 31.4144 49.6043 31.3184 49.6763 31.2464C49.7603 31.1624 49.8623 31.1204 49.9823 31.1204H50.8283C50.9483 31.1204 51.0443 31.1624 51.1163 31.2464C51.2003 31.3184 51.2423 31.4144 51.2423 31.5344V37.7984L54.7883 34.8464C54.9323 34.7264 55.0403 34.6484 55.1123 34.6124C55.1963 34.5644 55.3283 34.5404 55.5084 34.5404H56.4624C56.5703 34.5404 56.6603 34.5764 56.7323 34.6484C56.8043 34.7204 56.8404 34.8104 56.8404 34.9184C56.8404 34.9664 56.8223 35.0204 56.7863 35.0804C56.7623 35.1404 56.7083 35.2004 56.6243 35.2604L52.4663 38.7164L57.0743 43.1984C57.2183 43.3184 57.2903 43.4264 57.2903 43.5224C57.2903 43.6304 57.2543 43.7204 57.1823 43.7924C57.1103 43.8644 57.0203 43.9004 56.9123 43.9004H55.9763C55.7963 43.9004 55.6643 43.8824 55.5803 43.8464C55.4963 43.7984 55.3883 43.7144 55.2564 43.5944L51.2423 39.7604V43.4864C51.2423 43.6064 51.2003 43.7084 51.1163 43.7924C51.0443 43.8644 50.9483 43.9004 50.8283 43.9004H49.9823ZM61.8121 44.0804C60.9601 44.0804 60.2221 43.9184 59.5981 43.5944C58.9861 43.2584 58.5121 42.7844 58.1761 42.1724C57.8401 41.5484 57.6601 40.8044 57.6361 39.9404C57.6241 39.7604 57.6181 39.5204 57.6181 39.2204C57.6181 38.9204 57.6241 38.6804 57.6361 38.5004C57.6601 37.6364 57.8401 36.8984 58.1761 36.2864C58.5121 35.6624 58.9861 35.1884 59.5981 34.8644C60.2221 34.5284 60.9601 34.3604 61.8121 34.3604C62.5081 34.3604 63.1021 34.4564 63.5941 34.6484C64.0981 34.8404 64.5121 35.0864 64.8361 35.3864C65.1601 35.6864 65.4001 36.0104 65.5561 36.3584C65.7241 36.7064 65.8141 37.0364 65.8261 37.3484C65.8381 37.4684 65.8021 37.5644 65.7181 37.6364C65.6341 37.7084 65.5321 37.7444 65.4121 37.7444H64.5481C64.4281 37.7444 64.3381 37.7204 64.2781 37.6724C64.2181 37.6124 64.1581 37.5164 64.0981 37.3844C63.8821 36.7964 63.5881 36.3824 63.2161 36.1424C62.8441 35.9024 62.3821 35.7824 61.8301 35.7824C61.1101 35.7824 60.5221 36.0044 60.0661 36.4484C59.6221 36.8924 59.3821 37.6064 59.3461 38.5904C59.3341 39.0224 59.3341 39.4424 59.3461 39.8504C59.3821 40.8464 59.6221 41.5664 60.0661 42.0104C60.5221 42.4424 61.1101 42.6584 61.8301 42.6584C62.3821 42.6584 62.8441 42.5384 63.2161 42.2984C63.5881 42.0584 63.8821 41.6444 64.0981 41.0564C64.1581 40.9244 64.2181 40.8344 64.2781 40.7864C64.3381 40.7264 64.4281 40.6964 64.5481 40.6964H65.4121C65.5321 40.6964 65.6341 40.7324 65.7181 40.8044C65.8021 40.8764 65.8381 40.9724 65.8261 41.0924C65.8141 41.3444 65.7601 41.6024 65.6641 41.8664C65.5681 42.1304 65.4121 42.4004 65.1961 42.6764C64.9921 42.9404 64.7341 43.1804 64.4221 43.3964C64.1101 43.6004 63.7321 43.7684 63.2881 43.9004C62.8561 44.0204 62.3641 44.0804 61.8121 44.0804ZM68.0358 43.9004C67.9158 43.9004 67.8138 43.8644 67.7298 43.7924C67.6578 43.7084 67.6218 43.6064 67.6218 43.4864V31.5344C67.6218 31.4144 67.6578 31.3184 67.7298 31.2464C67.8138 31.1624 67.9158 31.1204 68.0358 31.1204H68.9358C69.0678 31.1204 69.1698 31.1624 69.2418 31.2464C69.3138 31.3184 69.3498 31.4144 69.3498 31.5344V35.7284C69.6738 35.3204 70.0698 34.9904 70.5378 34.7384C71.0058 34.4864 71.5998 34.3604 72.3198 34.3604C73.0998 34.3604 73.7598 34.5344 74.2998 34.8824C74.8518 35.2184 75.2658 35.6924 75.5418 36.3044C75.8298 36.9044 75.9738 37.6064 75.9738 38.4104V43.4864C75.9738 43.6064 75.9378 43.7084 75.8658 43.7924C75.7938 43.8644 75.6918 43.9004 75.5598 43.9004H74.6598C74.5398 43.9004 74.4378 43.8644 74.3538 43.7924C74.2818 43.7084 74.2458 43.6064 74.2458 43.4864V38.5004C74.2458 37.6604 74.0418 37.0064 73.6338 36.5384C73.2258 36.0584 72.6258 35.8184 71.8338 35.8184C71.0898 35.8184 70.4898 36.0584 70.0338 36.5384C69.5778 37.0064 69.3498 37.6604 69.3498 38.5004V43.4864C69.3498 43.6064 69.3138 43.7084 69.2418 43.7924C69.1698 43.8644 69.0678 43.9004 68.9358 43.9004H68.0358ZM80.8225 44.0804C80.2225 44.0804 79.6765 43.9604 79.1845 43.7204C78.6925 43.4804 78.2965 43.1564 77.9965 42.7484C77.6965 42.3404 77.5465 41.8784 77.5465 41.3624C77.5465 40.5344 77.8825 39.8744 78.5545 39.3824C79.2265 38.8904 80.1025 38.5664 81.1825 38.4104L83.8645 38.0324V37.5104C83.8645 36.9344 83.6965 36.4844 83.3605 36.1604C83.0365 35.8364 82.5025 35.6744 81.7585 35.6744C81.2185 35.6744 80.7805 35.7824 80.4445 35.9984C80.1205 36.2144 79.8925 36.4904 79.7605 36.8264C79.6885 37.0064 79.5625 37.0964 79.3825 37.0964H78.5725C78.4405 37.0964 78.3385 37.0604 78.2665 36.9884C78.2065 36.9044 78.1765 36.8084 78.1765 36.7004C78.1765 36.5204 78.2425 36.2984 78.3745 36.0344C78.5185 35.7704 78.7345 35.5124 79.0225 35.2604C79.3105 35.0084 79.6765 34.7984 80.1205 34.6304C80.5765 34.4504 81.1285 34.3604 81.7765 34.3604C82.4965 34.3604 83.1025 34.4564 83.5945 34.6484C84.0865 34.8284 84.4705 35.0744 84.7465 35.3864C85.0345 35.6984 85.2385 36.0524 85.3585 36.4484C85.4905 36.8444 85.5565 37.2464 85.5565 37.6544V43.4864C85.5565 43.6064 85.5145 43.7084 85.4305 43.7924C85.3585 43.8644 85.2625 43.9004 85.1425 43.9004H84.3145C84.1825 43.9004 84.0805 43.8644 84.0085 43.7924C83.9365 43.7084 83.9005 43.6064 83.9005 43.4864V42.7124C83.7445 42.9284 83.5345 43.1444 83.2705 43.3604C83.0065 43.5644 82.6765 43.7384 82.2805 43.8824C81.8845 44.0144 81.3985 44.0804 80.8225 44.0804ZM81.2005 42.7304C81.6925 42.7304 82.1425 42.6284 82.5505 42.4244C82.9585 42.2084 83.2765 41.8784 83.5045 41.4344C83.7445 40.9904 83.8645 40.4324 83.8645 39.7604V39.2564L81.7765 39.5624C80.9245 39.6824 80.2825 39.8864 79.8505 40.1744C79.4185 40.4504 79.2025 40.8044 79.2025 41.2364C79.2025 41.5724 79.2985 41.8544 79.4905 42.0824C79.6945 42.2984 79.9465 42.4604 80.2465 42.5684C80.5585 42.6764 80.8765 42.7304 81.2005 42.7304ZM88.1982 43.9004C88.0782 43.9004 87.9762 43.8644 87.8922 43.7924C87.8202 43.7084 87.7842 43.6064 87.7842 43.4864V34.9544C87.7842 34.8344 87.8202 34.7384 87.8922 34.6664C87.9762 34.5824 88.0782 34.5404 88.1982 34.5404H89.0622C89.1822 34.5404 89.2782 34.5824 89.3502 34.6664C89.4222 34.7384 89.4582 34.8344 89.4582 34.9544V43.4864C89.4582 43.6064 89.4222 43.7084 89.3502 43.7924C89.2782 43.8644 89.1822 43.9004 89.0622 43.9004H88.1982ZM88.0542 32.7944C87.9342 32.7944 87.8322 32.7584 87.7482 32.6864C87.6762 32.6024 87.6402 32.5004 87.6402 32.3804V31.4084C87.6402 31.2884 87.6762 31.1924 87.7482 31.1204C87.8322 31.0364 87.9342 30.9944 88.0542 30.9944H89.1882C89.3082 30.9944 89.4042 31.0364 89.4762 31.1204C89.5602 31.1924 89.6022 31.2884 89.6022 31.4084V32.3804C89.6022 32.5004 89.5602 32.6024 89.4762 32.6864C89.4042 32.7584 89.3082 32.7944 89.1882 32.7944H88.0542ZM92.1976 43.9004C92.0776 43.9004 91.9756 43.8644 91.8916 43.7924C91.8196 43.7084 91.7836 43.6064 91.7836 43.4864V34.9544C91.7836 34.8344 91.8196 34.7384 91.8916 34.6664C91.9756 34.5824 92.0776 34.5404 92.1976 34.5404H93.0436C93.1636 34.5404 93.2596 34.5824 93.3316 34.6664C93.4156 34.7384 93.4576 34.8344 93.4576 34.9544V35.7464C93.7696 35.3384 94.1596 35.0084 94.6276 34.7564C95.1076 34.4924 95.7196 34.3604 96.4636 34.3604C97.2436 34.3604 97.9036 34.5344 98.4436 34.8824C98.9956 35.2184 99.4096 35.6924 99.6856 36.3044C99.9616 36.9044 100.1 37.6064 100.1 38.4104V43.4864C100.1 43.6064 100.064 43.7084 99.9916 43.7924C99.9196 43.8644 99.8236 43.9004 99.7036 43.9004H98.8036C98.6836 43.9004 98.5816 43.8644 98.4976 43.7924C98.4256 43.7084 98.3896 43.6064 98.3896 43.4864V38.5004C98.3896 37.6604 98.1856 37.0064 97.7776 36.5384C97.3696 36.0584 96.7696 35.8184 95.9776 35.8184C95.2336 35.8184 94.6336 36.0584 94.1776 36.5384C93.7336 37.0064 93.5116 37.6604 93.5116 38.5004V43.4864C93.5116 43.6064 93.4696 43.7084 93.3856 43.7924C93.3136 43.8644 93.2176 43.9004 93.0976 43.9004H92.1976ZM107.04 43.9004C106.908 43.9004 106.806 43.8644 106.734 43.7924C106.662 43.7084 106.626 43.6064 106.626 43.4864V31.7324C106.626 31.6004 106.662 31.4984 106.734 31.4264C106.806 31.3424 106.908 31.3004 107.04 31.3004H111.612C112.5 31.3004 113.268 31.4444 113.916 31.7324C114.576 32.0204 115.086 32.4524 115.446 33.0284C115.806 33.5924 115.986 34.3004 115.986 35.1524C115.986 36.0044 115.806 36.7124 115.446 37.2764C115.086 37.8404 114.576 38.2664 113.916 38.5544C113.268 38.8424 112.5 38.9864 111.612 38.9864H108.426V43.4864C108.426 43.6064 108.384 43.7084 108.3 43.7924C108.228 43.8644 108.126 43.9004 107.994 43.9004H107.04ZM108.408 37.4744H111.522C112.41 37.4744 113.076 37.2764 113.52 36.8804C113.964 36.4844 114.186 35.9084 114.186 35.1524C114.186 34.4084 113.97 33.8324 113.538 33.4244C113.106 33.0164 112.434 32.8124 111.522 32.8124H108.408V37.4744ZM117.995 43.9004C117.875 43.9004 117.773 43.8644 117.689 43.7924C117.617 43.7084 117.581 43.6064 117.581 43.4864V34.9724C117.581 34.8524 117.617 34.7504 117.689 34.6664C117.773 34.5824 117.875 34.5404 117.995 34.5404H118.823C118.943 34.5404 119.045 34.5824 119.129 34.6664C119.213 34.7504 119.255 34.8524 119.255 34.9724V35.7644C119.495 35.3564 119.825 35.0504 120.245 34.8464C120.665 34.6424 121.169 34.5404 121.757 34.5404H122.477C122.597 34.5404 122.693 34.5824 122.765 34.6664C122.837 34.7384 122.873 34.8344 122.873 34.9544V35.6924C122.873 35.8124 122.837 35.9084 122.765 35.9804C122.693 36.0524 122.597 36.0884 122.477 36.0884H121.397C120.749 36.0884 120.239 36.2804 119.867 36.6644C119.495 37.0364 119.309 37.5464 119.309 38.1944V43.4864C119.309 43.6064 119.267 43.7084 119.183 43.7924C119.099 43.8644 118.997 43.9004 118.877 43.9004H117.995ZM127.717 44.0804C126.805 44.0804 126.043 43.9064 125.431 43.5584C124.819 43.2104 124.351 42.7304 124.027 42.1184C123.703 41.4944 123.523 40.7864 123.487 39.9944C123.475 39.7904 123.469 39.5324 123.469 39.2204C123.469 38.8964 123.475 38.6384 123.487 38.4464C123.523 37.6424 123.703 36.9344 124.027 36.3224C124.363 35.7104 124.837 35.2304 125.449 34.8824C126.061 34.5344 126.817 34.3604 127.717 34.3604C128.617 34.3604 129.373 34.5344 129.985 34.8824C130.597 35.2304 131.065 35.7104 131.389 36.3224C131.725 36.9344 131.911 37.6424 131.947 38.4464C131.959 38.6384 131.965 38.8964 131.965 39.2204C131.965 39.5324 131.959 39.7904 131.947 39.9944C131.911 40.7864 131.731 41.4944 131.407 42.1184C131.083 42.7304 130.615 43.2104 130.003 43.5584C129.391 43.9064 128.629 44.0804 127.717 44.0804ZM127.717 42.6944C128.461 42.6944 129.055 42.4604 129.499 41.9924C129.943 41.5124 130.183 40.8164 130.219 39.9044C130.231 39.7244 130.237 39.4964 130.237 39.2204C130.237 38.9444 130.231 38.7164 130.219 38.5364C130.183 37.6244 129.943 36.9344 129.499 36.4664C129.055 35.9864 128.461 35.7464 127.717 35.7464C126.973 35.7464 126.373 35.9864 125.917 36.4664C125.473 36.9344 125.239 37.6244 125.215 38.5364C125.203 38.7164 125.197 38.9444 125.197 39.2204C125.197 39.4964 125.203 39.7244 125.215 39.9044C125.239 40.8164 125.473 41.5124 125.917 41.9924C126.373 42.4604 126.973 42.6944 127.717 42.6944ZM135.103 43.9004C134.983 43.9004 134.881 43.8644 134.797 43.7924C134.725 43.7084 134.689 43.6064 134.689 43.4864V35.9804H133.159C133.039 35.9804 132.937 35.9444 132.853 35.8724C132.781 35.7884 132.745 35.6864 132.745 35.5664V34.9544C132.745 34.8344 132.781 34.7384 132.853 34.6664C132.937 34.5824 133.039 34.5404 133.159 34.5404H134.689V33.6404C134.689 33.0284 134.791 32.4944 134.995 32.0384C135.199 31.5704 135.523 31.2104 135.967 30.9584C136.423 30.7064 137.029 30.5804 137.785 30.5804H140.557C140.677 30.5804 140.773 30.6224 140.845 30.7064C140.929 30.7784 140.971 30.8744 140.971 30.9944V31.6064C140.971 31.7264 140.929 31.8284 140.845 31.9124C140.773 31.9844 140.677 32.0204 140.557 32.0204H137.821C137.257 32.0204 136.873 32.1704 136.669 32.4704C136.465 32.7584 136.363 33.1784 136.363 33.7304V34.5404H140.557C140.677 34.5404 140.773 34.5824 140.845 34.6664C140.929 34.7384 140.971 34.8344 140.971 34.9544V43.4864C140.971 43.6064 140.929 43.7084 140.845 43.7924C140.773 43.8644 140.677 43.9004 140.557 43.9004H139.729C139.597 43.9004 139.495 43.8644 139.423 43.7924C139.351 43.7084 139.315 43.6064 139.315 43.4864V35.9804H136.363V43.4864C136.363 43.6064 136.321 43.7084 136.237 43.7924C136.165 43.8644 136.069 43.9004 135.949 43.9004H135.103ZM147.052 44.0804C146.2 44.0804 145.462 43.9184 144.838 43.5944C144.226 43.2584 143.752 42.7844 143.416 42.1724C143.08 41.5484 142.9 40.8044 142.876 39.9404C142.864 39.7604 142.858 39.5204 142.858 39.2204C142.858 38.9204 142.864 38.6804 142.876 38.5004C142.9 37.6364 143.08 36.8984 143.416 36.2864C143.752 35.6624 144.226 35.1884 144.838 34.8644C145.462 34.5284 146.2 34.3604 147.052 34.3604C147.748 34.3604 148.342 34.4564 148.834 34.6484C149.338 34.8404 149.752 35.0864 150.076 35.3864C150.4 35.6864 150.64 36.0104 150.796 36.3584C150.964 36.7064 151.054 37.0364 151.066 37.3484C151.078 37.4684 151.042 37.5644 150.958 37.6364C150.874 37.7084 150.772 37.7444 150.652 37.7444H149.788C149.668 37.7444 149.578 37.7204 149.518 37.6724C149.458 37.6124 149.398 37.5164 149.338 37.3844C149.122 36.7964 148.828 36.3824 148.456 36.1424C148.084 35.9024 147.622 35.7824 147.07 35.7824C146.35 35.7824 145.762 36.0044 145.306 36.4484C144.862 36.8924 144.622 37.6064 144.586 38.5904C144.574 39.0224 144.574 39.4424 144.586 39.8504C144.622 40.8464 144.862 41.5664 145.306 42.0104C145.762 42.4424 146.35 42.6584 147.07 42.6584C147.622 42.6584 148.084 42.5384 148.456 42.2984C148.828 42.0584 149.122 41.6444 149.338 41.0564C149.398 40.9244 149.458 40.8344 149.518 40.7864C149.578 40.7264 149.668 40.6964 149.788 40.6964H150.652C150.772 40.6964 150.874 40.7324 150.958 40.8044C151.042 40.8764 151.078 40.9724 151.066 41.0924C151.054 41.3444 151 41.6024 150.904 41.8664C150.808 42.1304 150.652 42.4004 150.436 42.6764C150.232 42.9404 149.974 43.1804 149.662 43.3964C149.35 43.6004 148.972 43.7684 148.528 43.9004C148.096 44.0204 147.604 44.0804 147.052 44.0804ZM153.258 43.9004C153.138 43.9004 153.036 43.8644 152.952 43.7924C152.88 43.7084 152.844 43.6064 152.844 43.4864V34.9544C152.844 34.8344 152.88 34.7384 152.952 34.6664C153.036 34.5824 153.138 34.5404 153.258 34.5404H154.122C154.242 34.5404 154.338 34.5824 154.41 34.6664C154.482 34.7384 154.518 34.8344 154.518 34.9544V43.4864C154.518 43.6064 154.482 43.7084 154.41 43.7924C154.338 43.8644 154.242 43.9004 154.122 43.9004H153.258ZM153.114 32.7944C152.994 32.7944 152.892 32.7584 152.808 32.6864C152.736 32.6024 152.7 32.5004 152.7 32.3804V31.4084C152.7 31.2884 152.736 31.1924 152.808 31.1204C152.892 31.0364 152.994 30.9944 153.114 30.9944H154.248C154.368 30.9944 154.464 31.0364 154.536 31.1204C154.62 31.1924 154.662 31.2884 154.662 31.4084V32.3804C154.662 32.5004 154.62 32.6024 154.536 32.6864C154.464 32.7584 154.368 32.7944 154.248 32.7944H153.114ZM160.569 44.0804C159.333 44.0804 158.349 43.7024 157.617 42.9464C156.885 42.1784 156.483 41.1344 156.411 39.8144C156.399 39.6584 156.393 39.4604 156.393 39.2204C156.393 38.9684 156.399 38.7644 156.411 38.6084C156.459 37.7564 156.657 37.0124 157.005 36.3764C157.353 35.7284 157.827 35.2304 158.427 34.8824C159.039 34.5344 159.753 34.3604 160.569 34.3604C161.481 34.3604 162.243 34.5524 162.855 34.9364C163.479 35.3204 163.953 35.8664 164.277 36.5744C164.601 37.2824 164.763 38.1104 164.763 39.0584V39.3644C164.763 39.4964 164.721 39.5984 164.637 39.6704C164.565 39.7424 164.469 39.7784 164.349 39.7784H158.121C158.121 39.7904 158.121 39.8144 158.121 39.8504C158.121 39.8864 158.121 39.9164 158.121 39.9404C158.145 40.4324 158.253 40.8944 158.445 41.3264C158.637 41.7464 158.913 42.0884 159.273 42.3524C159.633 42.6164 160.065 42.7484 160.569 42.7484C161.001 42.7484 161.361 42.6824 161.649 42.5504C161.937 42.4184 162.171 42.2744 162.351 42.1184C162.531 41.9504 162.651 41.8244 162.711 41.7404C162.819 41.5844 162.903 41.4944 162.963 41.4704C163.023 41.4344 163.119 41.4164 163.251 41.4164H164.115C164.235 41.4164 164.331 41.4524 164.403 41.5244C164.487 41.5844 164.523 41.6744 164.511 41.7944C164.499 41.9744 164.403 42.1964 164.223 42.4604C164.043 42.7124 163.785 42.9644 163.449 43.2164C163.113 43.4684 162.705 43.6784 162.225 43.8464C161.745 44.0024 161.193 44.0804 160.569 44.0804ZM158.121 38.5364H163.053V38.4824C163.053 37.9424 162.951 37.4624 162.747 37.0424C162.555 36.6224 162.273 36.2924 161.901 36.0524C161.529 35.8004 161.085 35.6744 160.569 35.6744C160.053 35.6744 159.609 35.8004 159.237 36.0524C158.877 36.2924 158.601 36.6224 158.409 37.0424C158.217 37.4624 158.121 37.9424 158.121 38.4824V38.5364ZM166.969 43.9004C166.849 43.9004 166.747 43.8644 166.663 43.7924C166.591 43.7084 166.555 43.6064 166.555 43.4864V34.9544C166.555 34.8344 166.591 34.7384 166.663 34.6664C166.747 34.5824 166.849 34.5404 166.969 34.5404H167.815C167.935 34.5404 168.031 34.5824 168.103 34.6664C168.187 34.7384 168.229 34.8344 168.229 34.9544V35.7464C168.541 35.3384 168.931 35.0084 169.399 34.7564C169.879 34.4924 170.491 34.3604 171.235 34.3604C172.015 34.3604 172.675 34.5344 173.215 34.8824C173.767 35.2184 174.181 35.6924 174.457 36.3044C174.733 36.9044 174.871 37.6064 174.871 38.4104V43.4864C174.871 43.6064 174.835 43.7084 174.763 43.7924C174.691 43.8644 174.595 43.9004 174.475 43.9004H173.575C173.455 43.9004 173.353 43.8644 173.269 43.7924C173.197 43.7084 173.161 43.6064 173.161 43.4864V38.5004C173.161 37.6604 172.957 37.0064 172.549 36.5384C172.141 36.0584 171.541 35.8184 170.749 35.8184C170.005 35.8184 169.405 36.0584 168.949 36.5384C168.505 37.0064 168.283 37.6604 168.283 38.5004V43.4864C168.283 43.6064 168.241 43.7084 168.157 43.7924C168.085 43.8644 167.989 43.9004 167.869 43.9004H166.969ZM180.891 44.0804C180.039 44.0804 179.301 43.9184 178.677 43.5944C178.065 43.2584 177.591 42.7844 177.255 42.1724C176.919 41.5484 176.739 40.8044 176.715 39.9404C176.703 39.7604 176.697 39.5204 176.697 39.2204C176.697 38.9204 176.703 38.6804 176.715 38.5004C176.739 37.6364 176.919 36.8984 177.255 36.2864C177.591 35.6624 178.065 35.1884 178.677 34.8644C179.301 34.5284 180.039 34.3604 180.891 34.3604C181.587 34.3604 182.181 34.4564 182.673 34.6484C183.177 34.8404 183.591 35.0864 183.915 35.3864C184.239 35.6864 184.479 36.0104 184.635 36.3584C184.803 36.7064 184.893 37.0364 184.905 37.3484C184.917 37.4684 184.881 37.5644 184.797 37.6364C184.713 37.7084 184.611 37.7444 184.491 37.7444H183.627C183.507 37.7444 183.417 37.7204 183.357 37.6724C183.297 37.6124 183.237 37.5164 183.177 37.3844C182.961 36.7964 182.667 36.3824 182.295 36.1424C181.923 35.9024 181.461 35.7824 180.909 35.7824C180.189 35.7824 179.601 36.0044 179.145 36.4484C178.701 36.8924 178.461 37.6064 178.425 38.5904C178.413 39.0224 178.413 39.4424 178.425 39.8504C178.461 40.8464 178.701 41.5664 179.145 42.0104C179.601 42.4424 180.189 42.6584 180.909 42.6584C181.461 42.6584 181.923 42.5384 182.295 42.2984C182.667 42.0584 182.961 41.6444 183.177 41.0564C183.237 40.9244 183.297 40.8344 183.357 40.7864C183.417 40.7264 183.507 40.6964 183.627 40.6964H184.491C184.611 40.6964 184.713 40.7324 184.797 40.8044C184.881 40.8764 184.917 40.9724 184.905 41.0924C184.893 41.3444 184.839 41.6024 184.743 41.8664C184.647 42.1304 184.491 42.4004 184.275 42.6764C184.071 42.9404 183.813 43.1804 183.501 43.3964C183.189 43.6004 182.811 43.7684 182.367 43.9004C181.935 44.0204 181.443 44.0804 180.891 44.0804ZM188.057 47.3204C187.961 47.3204 187.877 47.2844 187.805 47.2124C187.733 47.1404 187.697 47.0564 187.697 46.9604C187.697 46.9124 187.703 46.8644 187.715 46.8164C187.727 46.7684 187.751 46.7084 187.787 46.6364L189.173 43.3424L185.735 35.2244C185.675 35.0804 185.645 34.9784 185.645 34.9184C185.645 34.8104 185.681 34.7204 185.753 34.6484C185.825 34.5764 185.915 34.5404 186.023 34.5404H186.905C187.025 34.5404 187.121 34.5704 187.193 34.6304C187.265 34.6904 187.313 34.7624 187.337 34.8464L190.073 41.3984L192.881 34.8464C192.917 34.7624 192.965 34.6904 193.025 34.6304C193.097 34.5704 193.199 34.5404 193.331 34.5404H194.177C194.285 34.5404 194.375 34.5764 194.447 34.6484C194.519 34.7204 194.555 34.8044 194.555 34.9004C194.555 34.9604 194.525 35.0684 194.465 35.2244L189.353 47.0144C189.317 47.0984 189.263 47.1704 189.191 47.2304C189.131 47.2904 189.035 47.3204 188.903 47.3204H188.057Z" fill="white"/>
<rect x="226.496" y="17.4004" width="40" height="40" rx="20" fill="white"/>
<path d="M247.614 43.4004C247.494 43.4004 247.392 43.3644 247.308 43.2924C247.236 43.2084 247.2 43.1064 247.2 42.9864V32.9064L244.212 35.2104C244.116 35.2824 244.014 35.3124 243.906 35.3004C243.798 35.2884 243.708 35.2344 243.636 35.1384L243.168 34.5444C243.096 34.4364 243.066 34.3284 243.078 34.2204C243.102 34.1124 243.162 34.0224 243.258 33.9504L247.182 30.9264C247.266 30.8664 247.344 30.8304 247.416 30.8184C247.488 30.8064 247.566 30.8004 247.65 30.8004H248.568C248.688 30.8004 248.784 30.8424 248.856 30.9264C248.928 30.9984 248.964 31.0944 248.964 31.2144V42.9864C248.964 43.1064 248.928 43.2084 248.856 43.2924C248.784 43.3644 248.688 43.4004 248.568 43.4004H247.614Z" fill="#059E93"/>
</svg>
