<svg width="24" height="25" viewBox="0 0 24 25" fill="none" xmlns="http://www.w3.org/2000/svg">
<path d="M17.458 9.47065L17.1669 8.95669C16.9468 8.56799 16.8367 8.37364 16.6494 8.29614C16.4622 8.21864 16.2503 8.2798 15.8267 8.4021L15.1071 8.60832C14.8366 8.67177 14.5529 8.63578 14.3059 8.50669L14.1072 8.39006C13.8955 8.25207 13.7326 8.04861 13.6424 7.80946L13.4455 7.21103C13.316 6.81502 13.2512 6.61701 13.0971 6.50375C12.943 6.3905 12.7382 6.3905 12.3287 6.3905H11.6713C11.2618 6.3905 11.057 6.3905 10.9029 6.50375C10.7488 6.61701 10.684 6.81502 10.5545 7.21103L10.3576 7.80946C10.2674 8.04861 10.1045 8.25207 9.89276 8.39006L9.69409 8.50669C9.44713 8.63578 9.16338 8.67177 8.89292 8.60832L8.17329 8.4021C7.74966 8.2798 7.53785 8.21864 7.35056 8.29614C7.16327 8.37364 7.0532 8.56799 6.83305 8.95669L6.54196 9.47065C6.3356 9.835 6.23243 10.0172 6.25245 10.2111C6.27248 10.405 6.4106 10.5613 6.68686 10.8739L7.29491 11.5655C7.44352 11.7569 7.54903 12.0905 7.54903 12.3904C7.54903 12.6905 7.44355 13.024 7.29492 13.2154L6.68686 13.9071C6.4106 14.2196 6.27248 14.3759 6.25245 14.5698C6.23243 14.7638 6.33561 14.946 6.54196 15.3103L6.83304 15.8242C7.05319 16.2129 7.16327 16.4073 7.35056 16.4848C7.53785 16.5623 7.74967 16.5011 8.17331 16.3788L8.89289 16.1726C9.1634 16.1091 9.44721 16.1452 9.69419 16.2743L9.89284 16.3909C10.1046 16.5289 10.2674 16.7324 10.3576 16.9715L10.5545 17.57C10.684 17.966 10.7488 18.164 10.9029 18.2772C11.057 18.3905 11.2618 18.3905 11.6713 18.3905H12.3287C12.7382 18.3905 12.943 18.3905 13.0971 18.2772C13.2512 18.164 13.316 17.966 13.4455 17.57L13.6424 16.9715C13.7326 16.7324 13.8954 16.5289 14.1072 16.3909L14.3058 16.2743C14.5528 16.1452 14.8366 16.1091 15.1071 16.1726L15.8267 16.3788C16.2503 16.5011 16.4621 16.5623 16.6494 16.4848C16.8367 16.4073 16.9468 16.2129 17.167 15.8243L17.458 15.3103C17.6644 14.946 17.7676 14.7638 17.7475 14.5698C17.7275 14.3759 17.5894 14.2196 17.3131 13.9071L16.7051 13.2154C16.5564 13.024 16.451 12.6905 16.451 12.3904C16.451 12.0905 16.5565 11.7569 16.7051 11.5655L17.3131 10.8739C17.5894 10.5613 17.7275 10.405 17.7475 10.2111C17.7676 10.0172 17.6644 9.835 17.458 9.47065Z" stroke="#059E93" stroke-width="1.5" stroke-linecap="round"/>
<path d="M12 14.1405C12.9665 14.1405 13.75 13.357 13.75 12.3905C13.75 11.424 12.9665 10.6405 12 10.6405C11.0335 10.6405 10.25 11.424 10.25 12.3905C10.25 13.357 11.0335 14.1405 12 14.1405Z" stroke="#059E93" stroke-width="1.5"/>
<path d="M19 2.3905V5.24907C17.1962 3.48082 14.7255 2.3905 12 2.3905C6.47715 2.3905 2 6.86765 2 12.3905C2 13.8127 2.29689 15.1656 2.83209 16.3905M5 22.3905V19.5319C6.80375 21.3002 9.27455 22.3905 12 22.3905C17.5228 22.3905 22 17.9133 22 12.3905C22 10.9683 21.7031 9.61542 21.1679 8.3905" stroke="#059E93" stroke-width="1.5" stroke-linecap="round" stroke-linejoin="round"/>
</svg>
