<svg width="42" height="43" viewBox="0 0 42 43" fill="none" xmlns="http://www.w3.org/2000/svg">
<rect y="0.0897217" width="42" height="42" rx="21" fill="#059E93"/>
<path d="M9.84748 21.2097C9.34348 21.2097 8.90348 21.1497 8.52748 21.0297C8.15148 20.9017 7.83548 20.7337 7.57948 20.5257C7.32348 20.3177 7.12748 20.0897 6.99148 19.8417C6.86348 19.5937 6.79548 19.3377 6.78748 19.0737C6.78748 19.0017 6.81148 18.9457 6.85948 18.9057C6.90748 18.8657 6.96748 18.8457 7.03948 18.8457H7.62748C7.69948 18.8457 7.76348 18.8617 7.81948 18.8937C7.87548 18.9257 7.92348 18.9937 7.96348 19.0977C8.04348 19.3857 8.17948 19.6097 8.37148 19.7697C8.57148 19.9297 8.79948 20.0417 9.05548 20.1057C9.31948 20.1617 9.58348 20.1897 9.84748 20.1897C10.3995 20.1897 10.8475 20.0577 11.1915 19.7937C11.5355 19.5297 11.7075 19.1417 11.7075 18.6297C11.7075 18.1097 11.5515 17.7377 11.2395 17.5137C10.9275 17.2897 10.4955 17.1777 9.94348 17.1777H8.80348C8.72348 17.1777 8.65548 17.1537 8.59948 17.1057C8.55148 17.0577 8.52748 16.9897 8.52748 16.9017V16.5777C8.52748 16.5057 8.53948 16.4457 8.56348 16.3977C8.59548 16.3417 8.62748 16.2937 8.65948 16.2537L10.9875 13.7097H7.44748C7.36748 13.7097 7.29948 13.6857 7.24348 13.6377C7.19548 13.5897 7.17148 13.5217 7.17148 13.4337V12.9777C7.17148 12.8897 7.19548 12.8217 7.24348 12.7737C7.29948 12.7177 7.36748 12.6897 7.44748 12.6897H12.2355C12.3235 12.6897 12.3915 12.7177 12.4395 12.7737C12.4955 12.8217 12.5235 12.8897 12.5235 12.9777V13.4097C12.5235 13.4657 12.5075 13.5177 12.4755 13.5657C12.4515 13.6057 12.4235 13.6457 12.3915 13.6857L10.0755 16.2657L10.2675 16.2777C10.7955 16.2937 11.2555 16.3897 11.6475 16.5657C12.0475 16.7417 12.3555 17.0057 12.5715 17.3577C12.7955 17.7017 12.9075 18.1377 12.9075 18.6657C12.9075 19.2017 12.7755 19.6617 12.5115 20.0457C12.2475 20.4217 11.8835 20.7097 11.4195 20.9097C10.9555 21.1097 10.4315 21.2097 9.84748 21.2097ZM14.5585 21.0897C14.4785 21.0897 14.4105 21.0657 14.3545 21.0177C14.3065 20.9617 14.2825 20.8937 14.2825 20.8137V19.9497C14.2825 19.8697 14.3065 19.8057 14.3545 19.7577C14.4105 19.7017 14.4785 19.6737 14.5585 19.6737H15.4225C15.5025 19.6737 15.5665 19.7017 15.6145 19.7577C15.6705 19.8057 15.6985 19.8697 15.6985 19.9497V20.8137C15.6985 20.8937 15.6705 20.9617 15.6145 21.0177C15.5665 21.0657 15.5025 21.0897 15.4225 21.0897H14.5585ZM18.2789 21.0897C18.2069 21.0897 18.1469 21.0657 18.0989 21.0177C18.0589 20.9617 18.0389 20.8977 18.0389 20.8257C18.0389 20.7857 18.0429 20.7537 18.0509 20.7297C18.0669 20.7057 18.0789 20.6857 18.0869 20.6697L19.9229 18.1137C19.7229 18.1617 19.5069 18.1857 19.2749 18.1857C18.8269 18.1777 18.4269 18.0977 18.0749 17.9457C17.7229 17.7937 17.4229 17.5897 17.1749 17.3337C16.9269 17.0697 16.7389 16.7737 16.6109 16.4457C16.4829 16.1177 16.4189 15.7737 16.4189 15.4137C16.4189 15.0617 16.4789 14.7177 16.5989 14.3817C16.7269 14.0457 16.9149 13.7417 17.1629 13.4697C17.4189 13.1977 17.7349 12.9817 18.1109 12.8217C18.4869 12.6537 18.9309 12.5697 19.4429 12.5697C19.9469 12.5697 20.3869 12.6497 20.7629 12.8097C21.1469 12.9617 21.4669 13.1737 21.7229 13.4457C21.9869 13.7097 22.1789 14.0097 22.2989 14.3457C22.4269 14.6817 22.4909 15.0297 22.4909 15.3897C22.4909 15.7177 22.4429 16.0177 22.3469 16.2897C22.2509 16.5617 22.1349 16.8057 21.9989 17.0217C21.8709 17.2377 21.7429 17.4377 21.6149 17.6217L19.3109 20.8497C19.2789 20.8897 19.2349 20.9417 19.1789 21.0057C19.1229 21.0617 19.0389 21.0897 18.9269 21.0897H18.2789ZM19.4429 17.2137C19.7789 17.2137 20.0869 17.1417 20.3669 16.9977C20.6549 16.8457 20.8829 16.6377 21.0509 16.3737C21.2189 16.1017 21.3029 15.7777 21.3029 15.4017C21.3029 15.0257 21.2189 14.7057 21.0509 14.4417C20.8829 14.1697 20.6549 13.9617 20.3669 13.8177C20.0869 13.6657 19.7789 13.5897 19.4429 13.5897C19.1149 13.5897 18.8109 13.6657 18.5309 13.8177C18.2509 13.9617 18.0269 14.1697 17.8589 14.4417C17.6909 14.7057 17.6069 15.0257 17.6069 15.4017C17.6069 15.7777 17.6909 16.1017 17.8589 16.3737C18.0269 16.6377 18.2509 16.8457 18.5309 16.9977C18.8109 17.1417 19.1149 17.2137 19.4429 17.2137ZM24.2522 21.0897C24.1722 21.0897 24.1042 21.0657 24.0482 21.0177C24.0002 20.9617 23.9762 20.8937 23.9762 20.8137V12.8457C23.9762 12.7657 24.0002 12.7017 24.0482 12.6537C24.1042 12.5977 24.1722 12.5697 24.2522 12.5697H24.8162C24.8962 12.5697 24.9602 12.5977 25.0082 12.6537C25.0642 12.7017 25.0922 12.7657 25.0922 12.8457V17.0217L27.4562 15.0537C27.5522 14.9737 27.6242 14.9217 27.6722 14.8977C27.7282 14.8657 27.8162 14.8497 27.9362 14.8497H28.5722C28.6442 14.8497 28.7042 14.8737 28.7522 14.9217C28.8002 14.9697 28.8242 15.0297 28.8242 15.1017C28.8242 15.1337 28.8122 15.1697 28.7882 15.2097C28.7722 15.2497 28.7362 15.2897 28.6802 15.3297L25.9082 17.6337L28.9802 20.6217C29.0762 20.7017 29.1242 20.7737 29.1242 20.8377C29.1242 20.9097 29.1002 20.9697 29.0522 21.0177C29.0042 21.0657 28.9442 21.0897 28.8722 21.0897H28.2482C28.1282 21.0897 28.0402 21.0777 27.9842 21.0537C27.9282 21.0217 27.8562 20.9657 27.7682 20.8857L25.0922 18.3297V20.8137C25.0922 20.8937 25.0642 20.9617 25.0082 21.0177C24.9602 21.0657 24.8962 21.0897 24.8162 21.0897H24.2522ZM32.7797 20.6937C32.6997 20.6937 32.6317 20.6697 32.5757 20.6217C32.5277 20.5657 32.5037 20.4977 32.5037 20.4177V17.9217H30.0437C29.9637 17.9217 29.8957 17.8977 29.8397 17.8497C29.7917 17.7937 29.7677 17.7257 29.7677 17.6457V17.2617C29.7677 17.1817 29.7917 17.1177 29.8397 17.0697C29.8957 17.0137 29.9637 16.9857 30.0437 16.9857H32.5037V14.5617C32.5037 14.4817 32.5277 14.4177 32.5757 14.3697C32.6317 14.3137 32.6997 14.2857 32.7797 14.2857H33.1997C33.2797 14.2857 33.3437 14.3137 33.3917 14.3697C33.4477 14.4177 33.4757 14.4817 33.4757 14.5617V16.9857H35.9477C36.0277 16.9857 36.0917 17.0137 36.1397 17.0697C36.1957 17.1177 36.2237 17.1817 36.2237 17.2617V17.6457C36.2237 17.7257 36.1957 17.7937 36.1397 17.8497C36.0917 17.8977 36.0277 17.9217 35.9477 17.9217H33.4757V20.4177C33.4757 20.4977 33.4477 20.5657 33.3917 20.6217C33.3437 20.6697 33.2797 20.6937 33.1997 20.6937H32.7797ZM9.24519 31.1597C8.86719 31.1597 8.54519 31.0991 8.27919 30.9777C8.01785 30.8564 7.81719 30.7001 7.67719 30.5087C7.53719 30.3174 7.46252 30.1144 7.45319 29.8997C7.45319 29.8624 7.46719 29.8297 7.49519 29.8017C7.52319 29.7737 7.55819 29.7597 7.60019 29.7597H7.74019C7.78685 29.7597 7.82185 29.7737 7.84519 29.8017C7.87319 29.8297 7.88952 29.8624 7.89419 29.8997C7.91285 30.0304 7.97119 30.1611 8.06919 30.2917C8.16719 30.4177 8.31185 30.5251 8.50319 30.6137C8.69452 30.6977 8.94185 30.7397 9.24519 30.7397C9.70252 30.7397 10.0362 30.6581 10.2462 30.4947C10.4562 30.3267 10.5612 30.1027 10.5612 29.8227C10.5612 29.6361 10.5052 29.4867 10.3932 29.3747C10.2859 29.2581 10.1202 29.1554 9.89619 29.0667C9.67219 28.9734 9.38519 28.8707 9.03519 28.7587C8.70385 28.6514 8.43085 28.5417 8.21619 28.4297C8.00152 28.3131 7.84285 28.1731 7.74019 28.0097C7.64219 27.8464 7.59319 27.6364 7.59319 27.3797C7.59319 27.1417 7.65619 26.9294 7.78219 26.7427C7.90819 26.5514 8.09019 26.3997 8.32819 26.2877C8.57085 26.1757 8.86485 26.1197 9.21019 26.1197C9.48552 26.1197 9.72585 26.1571 9.93119 26.2317C10.1365 26.3064 10.3069 26.4067 10.4422 26.5327C10.5775 26.6541 10.6802 26.7871 10.7502 26.9317C10.8202 27.0717 10.8575 27.2094 10.8622 27.3447C10.8622 27.3774 10.8505 27.4101 10.8272 27.4427C10.8039 27.4707 10.7665 27.4847 10.7152 27.4847H10.5752C10.5519 27.4847 10.5215 27.4754 10.4842 27.4567C10.4515 27.4381 10.4305 27.4007 10.4212 27.3447C10.3932 27.1114 10.2695 26.9201 10.0502 26.7707C9.83552 26.6167 9.55552 26.5397 9.21019 26.5397C8.86485 26.5397 8.58252 26.6074 8.36319 26.7427C8.14385 26.8781 8.03419 27.0904 8.03419 27.3797C8.03419 27.5664 8.08319 27.7204 8.18119 27.8417C8.27919 27.9584 8.43319 28.0634 8.64319 28.1567C8.85319 28.2454 9.12385 28.3434 9.45519 28.4507C9.80519 28.5627 10.0945 28.6747 10.3232 28.7867C10.5519 28.8987 10.7222 29.0364 10.8342 29.1997C10.9462 29.3584 11.0022 29.5661 11.0022 29.8227C11.0022 30.1074 10.9299 30.3501 10.7852 30.5507C10.6452 30.7467 10.4445 30.8984 10.1832 31.0057C9.92185 31.1084 9.60919 31.1597 9.24519 31.1597ZM13.1475 31.0897C12.9048 31.0897 12.7135 31.0384 12.5735 30.9357C12.4335 30.8331 12.3355 30.6931 12.2795 30.5157C12.2235 30.3384 12.1955 30.1401 12.1955 29.9207V27.8557H11.6495C11.6028 27.8557 11.5655 27.8417 11.5375 27.8137C11.5095 27.7857 11.4955 27.7484 11.4955 27.7017V27.6037C11.4955 27.5571 11.5095 27.5197 11.5375 27.4917C11.5655 27.4637 11.6028 27.4497 11.6495 27.4497H12.1955V26.2737C12.1955 26.2271 12.2095 26.1897 12.2375 26.1617C12.2655 26.1337 12.3028 26.1197 12.3495 26.1197H12.4685C12.5151 26.1197 12.5525 26.1337 12.5805 26.1617C12.6085 26.1897 12.6225 26.2271 12.6225 26.2737V27.4497H13.4905C13.5371 27.4497 13.5745 27.4637 13.6025 27.4917C13.6305 27.5197 13.6445 27.5571 13.6445 27.6037V27.7017C13.6445 27.7484 13.6305 27.7857 13.6025 27.8137C13.5745 27.8417 13.5371 27.8557 13.4905 27.8557H12.6225V29.8927C12.6225 30.1401 12.6621 30.3337 12.7415 30.4737C12.8255 30.6137 12.9725 30.6837 13.1825 30.6837H13.5605C13.6071 30.6837 13.6445 30.6977 13.6725 30.7257C13.7005 30.7537 13.7145 30.7911 13.7145 30.8377V30.9357C13.7145 30.9824 13.7005 31.0197 13.6725 31.0477C13.6445 31.0757 13.6071 31.0897 13.5605 31.0897H13.1475ZM15.8031 31.1597C15.4858 31.1597 15.2221 31.0921 15.0121 30.9567C14.8068 30.8167 14.6528 30.6277 14.5501 30.3897C14.4521 30.1517 14.4031 29.8857 14.4031 29.5917V27.6037C14.4031 27.5571 14.4171 27.5197 14.4451 27.4917C14.4731 27.4637 14.5104 27.4497 14.5571 27.4497H14.6761C14.7228 27.4497 14.7601 27.4637 14.7881 27.4917C14.8161 27.5197 14.8301 27.5571 14.8301 27.6037V29.5567C14.8301 30.3547 15.1778 30.7537 15.8731 30.7537C16.2044 30.7537 16.4704 30.6487 16.6711 30.4387C16.8718 30.2241 16.9721 29.9301 16.9721 29.5567V27.6037C16.9721 27.5571 16.9861 27.5197 17.0141 27.4917C17.0421 27.4637 17.0794 27.4497 17.1261 27.4497H17.2451C17.2918 27.4497 17.3291 27.4637 17.3571 27.4917C17.3851 27.5197 17.3991 27.5571 17.3991 27.6037V30.9357C17.3991 30.9824 17.3851 31.0197 17.3571 31.0477C17.3291 31.0757 17.2918 31.0897 17.2451 31.0897H17.1261C17.0794 31.0897 17.0421 31.0757 17.0141 31.0477C16.9861 31.0197 16.9721 30.9824 16.9721 30.9357V30.6067C16.8461 30.7701 16.6944 30.9031 16.5171 31.0057C16.3444 31.1084 16.1064 31.1597 15.8031 31.1597ZM19.8488 31.1597C19.5782 31.1597 19.3472 31.1107 19.1558 31.0127C18.9692 30.9147 18.8175 30.7841 18.7008 30.6207C18.5842 30.4574 18.4978 30.2754 18.4418 30.0747C18.3905 29.8741 18.3602 29.6711 18.3508 29.4657C18.3462 29.3957 18.3438 29.3304 18.3438 29.2697C18.3438 29.2091 18.3462 29.1437 18.3508 29.0737C18.3602 28.8684 18.3905 28.6654 18.4418 28.4647C18.4978 28.2641 18.5842 28.0821 18.7008 27.9187C18.8175 27.7554 18.9692 27.6247 19.1558 27.5267C19.3472 27.4287 19.5782 27.3797 19.8488 27.3797C20.1382 27.3797 20.3762 27.4334 20.5628 27.5407C20.7542 27.6481 20.9082 27.7787 21.0248 27.9327V26.2737C21.0248 26.2271 21.0388 26.1897 21.0668 26.1617C21.0948 26.1337 21.1322 26.1197 21.1788 26.1197H21.2978C21.3445 26.1197 21.3818 26.1337 21.4098 26.1617C21.4378 26.1897 21.4518 26.2271 21.4518 26.2737V30.9357C21.4518 30.9824 21.4378 31.0197 21.4098 31.0477C21.3818 31.0757 21.3445 31.0897 21.2978 31.0897H21.1788C21.1322 31.0897 21.0948 31.0757 21.0668 31.0477C21.0388 31.0197 21.0248 30.9824 21.0248 30.9357V30.6067C20.9082 30.7654 20.7542 30.8984 20.5628 31.0057C20.3762 31.1084 20.1382 31.1597 19.8488 31.1597ZM19.8908 30.7537C20.1568 30.7537 20.3715 30.6907 20.5348 30.5647C20.6982 30.4387 20.8195 30.2824 20.8988 30.0957C20.9782 29.9044 21.0202 29.7131 21.0248 29.5217C21.0295 29.4517 21.0318 29.3607 21.0318 29.2487C21.0318 29.1367 21.0295 29.0457 21.0248 28.9757C21.0202 28.7891 20.9758 28.6047 20.8918 28.4227C20.8125 28.2407 20.6912 28.0891 20.5278 27.9677C20.3645 27.8464 20.1522 27.7857 19.8908 27.7857C19.6202 27.7857 19.4032 27.8464 19.2398 27.9677C19.0812 28.0891 18.9668 28.2477 18.8968 28.4437C18.8268 28.6397 18.7872 28.8497 18.7778 29.0737C18.7732 29.2044 18.7732 29.3351 18.7778 29.4657C18.7872 29.6897 18.8268 29.8997 18.8968 30.0957C18.9668 30.2917 19.0812 30.4504 19.2398 30.5717C19.4032 30.6931 19.6202 30.7537 19.8908 30.7537ZM23.9444 31.1597C23.4917 31.1597 23.1324 31.0127 22.8664 30.7187C22.6004 30.4201 22.4487 30.0304 22.4114 29.5497C22.4067 29.4797 22.4044 29.3864 22.4044 29.2697C22.4044 29.1531 22.4067 29.0597 22.4114 28.9897C22.4347 28.6724 22.5094 28.3924 22.6354 28.1497C22.7614 27.9071 22.934 27.7181 23.1534 27.5827C23.3774 27.4474 23.641 27.3797 23.9444 27.3797C24.271 27.3797 24.5487 27.4521 24.7774 27.5967C25.006 27.7414 25.181 27.9491 25.3024 28.2197C25.4284 28.4904 25.4914 28.8124 25.4914 29.1857V29.2907C25.4914 29.3374 25.475 29.3747 25.4424 29.4027C25.4144 29.4307 25.377 29.4447 25.3304 29.4447H22.8384C22.8384 29.4447 22.8384 29.4541 22.8384 29.4727C22.8384 29.4914 22.8384 29.5054 22.8384 29.5147C22.8477 29.7247 22.8967 29.9254 22.9854 30.1167C23.074 30.3034 23.2 30.4574 23.3634 30.5787C23.5267 30.6954 23.7204 30.7537 23.9444 30.7537C24.145 30.7537 24.3107 30.7234 24.4414 30.6627C24.5767 30.6021 24.684 30.5367 24.7634 30.4667C24.8427 30.3921 24.894 30.3361 24.9174 30.2987C24.9594 30.2381 24.992 30.2031 25.0154 30.1937C25.0387 30.1797 25.076 30.1727 25.1274 30.1727H25.2394C25.2814 30.1727 25.3164 30.1867 25.3444 30.2147C25.377 30.2381 25.391 30.2707 25.3864 30.3127C25.3817 30.3781 25.3444 30.4597 25.2744 30.5577C25.209 30.6511 25.1134 30.7444 24.9874 30.8377C24.866 30.9311 24.7167 31.0081 24.5394 31.0687C24.362 31.1294 24.1637 31.1597 23.9444 31.1597ZM22.8384 29.0527H25.0644V29.0247C25.0644 28.7914 25.02 28.5814 24.9314 28.3947C24.8427 28.2081 24.7144 28.0611 24.5464 27.9537C24.3784 27.8417 24.1777 27.7857 23.9444 27.7857C23.711 27.7857 23.5104 27.8417 23.3424 27.9537C23.179 28.0611 23.053 28.2081 22.9644 28.3947C22.8804 28.5814 22.8384 28.7914 22.8384 29.0247V29.0527ZM26.5687 31.0897C26.522 31.0897 26.4847 31.0757 26.4567 31.0477C26.4287 31.0197 26.4147 30.9824 26.4147 30.9357V27.6037C26.4147 27.5571 26.4287 27.5197 26.4567 27.4917C26.4847 27.4637 26.522 27.4497 26.5687 27.4497H26.6877C26.7343 27.4497 26.7717 27.4637 26.7997 27.4917C26.8277 27.5197 26.8417 27.5571 26.8417 27.6037V27.9327C26.9677 27.7694 27.1193 27.6364 27.2967 27.5337C27.4787 27.4311 27.719 27.3797 28.0177 27.3797C28.335 27.3797 28.5987 27.4497 28.8087 27.5897C29.0233 27.7251 29.182 27.9117 29.2847 28.1497C29.392 28.3831 29.4457 28.6491 29.4457 28.9477V30.9357C29.4457 30.9824 29.4317 31.0197 29.4037 31.0477C29.3757 31.0757 29.3383 31.0897 29.2917 31.0897H29.1727C29.126 31.0897 29.0887 31.0757 29.0607 31.0477C29.0327 31.0197 29.0187 30.9824 29.0187 30.9357V28.9827C29.0187 28.6094 28.9277 28.3177 28.7457 28.1077C28.5637 27.8931 28.2977 27.7857 27.9477 27.7857C27.6163 27.7857 27.348 27.8931 27.1427 28.1077C26.942 28.3177 26.8417 28.6094 26.8417 28.9827V30.9357C26.8417 30.9824 26.8277 31.0197 26.7997 31.0477C26.7717 31.0757 26.7343 31.0897 26.6877 31.0897H26.5687ZM31.7139 31.0897C31.4712 31.0897 31.2799 31.0384 31.1399 30.9357C30.9999 30.8331 30.9019 30.6931 30.8459 30.5157C30.7899 30.3384 30.7619 30.1401 30.7619 29.9207V27.8557H30.2159C30.1692 27.8557 30.1319 27.8417 30.1039 27.8137C30.0759 27.7857 30.0619 27.7484 30.0619 27.7017V27.6037C30.0619 27.5571 30.0759 27.5197 30.1039 27.4917C30.1319 27.4637 30.1692 27.4497 30.2159 27.4497H30.7619V26.2737C30.7619 26.2271 30.7759 26.1897 30.8039 26.1617C30.8319 26.1337 30.8692 26.1197 30.9159 26.1197H31.0349C31.0815 26.1197 31.1189 26.1337 31.1469 26.1617C31.1749 26.1897 31.1889 26.2271 31.1889 26.2737V27.4497H32.0569C32.1035 27.4497 32.1409 27.4637 32.1689 27.4917C32.1969 27.5197 32.2109 27.5571 32.2109 27.6037V27.7017C32.2109 27.7484 32.1969 27.7857 32.1689 27.8137C32.1409 27.8417 32.1035 27.8557 32.0569 27.8557H31.1889V29.8927C31.1889 30.1401 31.2285 30.3337 31.3079 30.4737C31.3919 30.6137 31.5389 30.6837 31.7489 30.6837H32.1269C32.1735 30.6837 32.2109 30.6977 32.2389 30.7257C32.2669 30.7537 32.2809 30.7911 32.2809 30.8377V30.9357C32.2809 30.9824 32.2669 31.0197 32.2389 31.0477C32.2109 31.0757 32.1735 31.0897 32.1269 31.0897H31.7139ZM34.1595 31.1597C33.9168 31.1597 33.7068 31.1271 33.5295 31.0617C33.3568 30.9964 33.2145 30.9194 33.1025 30.8307C32.9905 30.7374 32.9065 30.6464 32.8505 30.5577C32.7992 30.4691 32.7712 30.4014 32.7665 30.3547C32.7618 30.3034 32.7782 30.2661 32.8155 30.2427C32.8528 30.2147 32.8878 30.2007 32.9205 30.2007H33.0255C33.0535 30.2007 33.0768 30.2054 33.0955 30.2147C33.1188 30.2241 33.1468 30.2497 33.1795 30.2917C33.2402 30.3711 33.3102 30.4481 33.3895 30.5227C33.4688 30.5927 33.5692 30.6487 33.6905 30.6907C33.8165 30.7327 33.9728 30.7537 34.1595 30.7537C34.4395 30.7537 34.6705 30.7001 34.8525 30.5927C35.0345 30.4854 35.1255 30.3267 35.1255 30.1167C35.1255 29.9861 35.0882 29.8811 35.0135 29.8017C34.9435 29.7224 34.8222 29.6524 34.6495 29.5917C34.4768 29.5311 34.2435 29.4681 33.9495 29.4027C33.6555 29.3327 33.4292 29.2487 33.2705 29.1507C33.1165 29.0527 33.0115 28.9407 32.9555 28.8147C32.8995 28.6841 32.8715 28.5441 32.8715 28.3947C32.8715 28.2314 32.9182 28.0727 33.0115 27.9187C33.1048 27.7601 33.2425 27.6317 33.4245 27.5337C33.6112 27.4311 33.8445 27.3797 34.1245 27.3797C34.3532 27.3797 34.5468 27.4101 34.7055 27.4707C34.8688 27.5314 35.0018 27.6061 35.1045 27.6947C35.2072 27.7787 35.2818 27.8627 35.3285 27.9467C35.3798 28.0307 35.4078 28.0984 35.4125 28.1497C35.4172 28.1964 35.4032 28.2337 35.3705 28.2617C35.3378 28.2897 35.3005 28.3037 35.2585 28.3037H35.1535C35.1162 28.3037 35.0858 28.2967 35.0625 28.2827C35.0392 28.2641 35.0182 28.2407 34.9995 28.2127C34.9528 28.1381 34.8968 28.0681 34.8315 28.0027C34.7662 27.9374 34.6775 27.8861 34.5655 27.8487C34.4582 27.8067 34.3112 27.7857 34.1245 27.7857C33.8445 27.7857 33.6368 27.8441 33.5015 27.9607C33.3662 28.0727 33.2985 28.2174 33.2985 28.3947C33.2985 28.4974 33.3265 28.5884 33.3825 28.6677C33.4385 28.7424 33.5435 28.8124 33.6975 28.8777C33.8515 28.9384 34.0755 29.0037 34.3695 29.0737C34.6682 29.1391 34.9038 29.2207 35.0765 29.3187C35.2492 29.4121 35.3705 29.5241 35.4405 29.6547C35.5152 29.7854 35.5525 29.9394 35.5525 30.1167C35.5525 30.3034 35.4988 30.4761 35.3915 30.6347C35.2888 30.7934 35.1325 30.9217 34.9225 31.0197C34.7172 31.1131 34.4628 31.1597 34.1595 31.1597Z" fill="white"/>
</svg>
