<svg width="182" height="72" viewBox="0 0 182 72" fill="none" xmlns="http://www.w3.org/2000/svg">
<g filter="url(#filter0_d_171_2342)">
<path d="M164.816 50.955C164.916 53.8099 162.682 56.2051 159.827 56.3048L15.0881 61.3592C12.2332 61.4589 9.83798 59.2254 9.73829 56.3705L8.35434 16.7395C8.25465 13.8845 10.4882 11.4894 13.3431 11.3897L144.35 6.81483C145.697 6.76776 147.01 7.24891 148.008 8.15573L162.208 21.0569C163.241 21.995 163.851 23.3104 163.899 24.7047L164.816 50.955Z" fill="#059E93"/>
<g filter="url(#filter1_d_171_2342)">
<path d="M163.823 22.5241L146.452 6.74143L146.607 23.5566L163.823 22.5241Z" fill="#B2F5F0"/>
</g>
<path d="M33.9482 48.2803C32.4089 48.334 31.0418 48.0482 29.8468 47.4229C28.6748 46.7967 27.7459 45.8861 27.0601 44.6909C26.3735 43.4727 26.0025 42.071 25.9472 40.4858L25.6475 31.9048C25.5906 30.2736 25.8514 28.8499 26.43 27.6335C27.0307 26.3934 27.8942 25.4317 29.0205 24.7483C30.146 24.0419 31.4668 23.6622 32.9832 23.6093L35.9469 23.5058C37.9227 23.4368 39.5407 23.9898 40.8008 25.165C42.061 26.3401 42.726 27.927 42.7958 29.9258L39.5909 30.0377C39.5515 28.912 39.1986 28.0272 38.5321 27.3834C37.8877 26.7159 37.06 26.3997 36.0492 26.435L33.0855 26.5385C31.7529 26.585 30.7122 27.0814 29.9631 28.0277C29.2133 28.951 28.866 30.2052 28.9214 31.7905L29.0526 35.5468C29.6194 34.6529 30.3769 33.9479 31.325 33.4317C32.2952 32.8918 33.2858 32.6042 34.2966 32.5689L36.5367 32.4907C38.6733 32.416 40.3959 33 41.7044 34.2424C43.0351 35.4611 43.7365 37.1043 43.8088 39.172L43.8557 40.516C43.907 41.9863 43.6307 43.2956 43.0267 44.4439C42.4449 45.5683 41.579 46.4611 40.429 47.1224C39.3019 47.7828 37.9802 48.1395 36.4639 48.1924L33.9482 48.2803ZM36.364 45.3321C37.6736 45.2864 38.716 44.8359 39.4912 43.9808C40.2664 43.1256 40.63 42.0088 40.5818 40.6303L40.5337 39.2518C40.4912 38.0342 40.1124 37.0698 39.3975 36.3587C38.6826 35.6476 37.7508 35.3121 36.6021 35.3522L34.3276 35.4316C33.041 35.4765 31.9416 35.9405 31.0293 36.8234C30.1401 37.7056 29.5911 38.7829 29.3825 40.0553L29.4258 41.2959C29.4708 42.5825 29.8974 43.6027 30.7058 44.3566C31.5372 45.1096 32.6077 45.4633 33.9172 45.4175L36.364 45.3321ZM76.9594 29.2849L73.8632 44.3676C73.7067 45.1552 73.4395 45.7396 73.0618 46.1208C72.6833 46.4791 72.1839 46.669 71.5635 46.6907L70.0817 46.7424L65.4822 34.5852L61.6386 47.0373L60.1567 47.089C59.5364 47.1107 59.0249 46.956 58.6223 46.625C58.2189 46.2711 57.9117 45.7068 57.7006 44.932L53.5254 30.1032L56.9026 29.9853L60.1906 43.1199L64.1208 30.1818L65.327 30.1396C65.7405 30.1252 66.0772 30.2169 66.3372 30.4149C66.5963 30.5899 66.802 30.8817 66.9543 31.2904L71.2196 42.7693L73.5821 29.4028L76.9594 29.2849ZM85.8301 46.4685C83.8084 46.5391 82.1571 46.0217 80.8764 44.9163C79.6178 43.7871 78.9556 42.2806 78.8898 40.3967L78.7238 35.641C78.6532 33.6192 79.2054 31.9782 80.3806 30.7181C81.5787 29.4571 83.1886 28.7913 85.2103 28.7207L88.0362 28.622C89.989 28.5538 91.5837 29.0962 92.82 30.2492C94.0564 31.4021 94.7091 32.9665 94.7781 34.9423L94.8913 38.1817L82.037 38.6306L82.0948 40.2848C82.1317 41.3416 82.483 42.1804 83.1488 42.8012C83.8145 43.4221 84.6758 43.714 85.7326 43.6771L88.3862 43.5844C89.42 43.5483 90.2494 43.2549 90.8742 42.704C91.4982 42.1301 91.7946 41.3952 91.7633 40.4992L94.8993 40.3897C94.9595 42.1128 94.3992 43.524 93.2185 44.6233C92.0377 45.7227 90.448 46.3073 88.4492 46.3771L85.8301 46.4685ZM91.5973 35.7435L91.5732 35.0542C91.5331 33.9055 91.1908 32.9974 90.5464 32.3298C89.925 31.6614 89.1204 31.3445 88.1325 31.379L85.3066 31.4777C84.2498 31.5146 83.4126 31.9118 82.795 32.6695C82.1765 33.4042 81.8882 34.3688 81.9299 35.5635L81.948 36.0804L91.5973 35.7435ZM104.458 45.818C102.437 45.8886 100.785 45.3712 99.5046 44.2658C98.246 43.1366 97.5838 41.6301 97.518 39.7462L97.352 34.9904C97.2814 32.9687 97.8336 31.3277 99.0087 30.0676C100.207 28.8066 101.817 28.1408 103.839 28.0702L106.664 27.9715C108.617 27.9033 110.212 28.4457 111.448 29.5987C112.685 30.7516 113.337 32.316 113.406 34.2918L113.519 37.5312L100.665 37.9801L100.723 39.6343C100.76 40.6911 101.111 41.5299 101.777 42.1507C102.443 42.7715 103.304 43.0635 104.361 43.0266L107.014 42.9339C108.048 42.8978 108.878 42.6043 109.502 42.0535C110.126 41.4796 110.423 40.7447 110.392 39.8487L113.528 39.7392C113.588 41.4623 113.027 42.8735 111.847 43.9728C110.666 45.0722 109.076 45.6567 107.077 45.7265L104.458 45.818ZM110.225 35.093L110.201 34.4037C110.161 33.255 109.819 32.3468 109.175 31.6793C108.553 31.0109 107.749 30.694 106.761 30.7285L103.935 30.8271C102.878 30.864 102.041 31.2613 101.423 32.019C100.805 32.7536 100.516 33.7183 100.558 34.913L100.576 35.4299L110.225 35.093ZM128.763 44.6932L122.221 37.1928L120.058 39.4766L120.251 44.9905L117.046 45.1024L116.204 20.9792L119.409 20.8673L119.926 35.6858L127.611 27.5161L131.436 27.3825L124.25 35.0172L132.485 44.5633L128.763 44.6932ZM139.275 44.6022C137.414 44.6672 135.903 44.2139 134.742 43.2423C133.58 42.2478 132.97 40.9119 132.911 39.2348L136.047 39.1253C136.077 39.9753 136.376 40.655 136.946 41.1641C137.516 41.6733 138.261 41.9118 139.18 41.8797L142.212 41.7738C143.085 41.7433 143.78 41.558 144.298 41.2179C144.814 40.8549 145.062 40.3976 145.043 39.8462L145.008 38.8469C144.995 38.4793 144.823 38.1632 144.492 37.8988C144.183 37.6105 143.786 37.4289 143.3 37.3538L137.302 36.5282C136.03 36.3426 135.003 35.9069 134.22 35.2212C133.436 34.5124 133.027 33.6756 132.994 32.7107L132.954 31.5735C132.907 30.218 133.408 29.1078 134.459 28.243C135.51 27.3782 136.943 26.9142 138.758 26.8508L141.653 26.7497C143.376 26.6895 144.771 27.1124 145.838 28.0182C146.928 28.9233 147.5 30.1569 147.554 31.7192L144.418 31.8287C144.37 31.0943 144.096 30.5173 143.599 30.0976C143.123 29.6542 142.506 29.4457 141.748 29.4722L138.888 29.5721C138.038 29.6017 137.366 29.7977 136.873 30.16C136.402 30.5214 136.177 30.9894 136.197 31.5637L136.227 32.4253C136.24 32.7929 136.412 33.1089 136.743 33.3733C137.075 33.6378 137.495 33.8187 138.004 33.9159L144.072 34.7736C145.274 34.9386 146.255 35.3644 147.015 36.051C147.798 36.7367 148.206 37.5505 148.239 38.4925L148.286 39.8365C148.333 41.169 147.808 42.2685 146.711 43.1349C145.613 43.9783 144.145 44.4321 142.307 44.4963L139.275 44.6022Z" fill="white"/>
</g>
<path d="M143.089 63.7561L164.75 48.8883L174.655 42.0892C177.168 40.3644 177.785 36.9177 176.026 34.4288V34.4288C174.315 32.0083 170.986 31.3926 168.523 33.0411L138.879 52.878L130.608 58.7053C129.115 59.7573 128.582 61.7233 129.34 63.3852V63.3852C130.346 65.5909 133.133 66.302 135.073 64.8477L146.398 56.3563L161.013 45.6939" stroke="#093BAA" stroke-width="1.94793" stroke-linecap="round"/>
<path d="M164.785 51.3925L164.615 46.4003L151.27 56.5536L156.092 56.4857L164.785 51.3925Z" fill="#059E93"/>
<defs>
<filter id="filter0_d_171_2342" x="0.351074" y="0.741425" width="172.468" height="70.621" filterUnits="userSpaceOnUse" color-interpolation-filters="sRGB">
<feFlood flood-opacity="0" result="BackgroundImageFix"/>
<feColorMatrix in="SourceAlpha" type="matrix" values="0 0 0 0 0 0 0 0 0 0 0 0 0 0 0 0 0 0 127 0" result="hardAlpha"/>
<feOffset dy="2"/>
<feGaussianBlur stdDeviation="4"/>
<feComposite in2="hardAlpha" operator="out"/>
<feColorMatrix type="matrix" values="0 0 0 0 0 0 0 0 0 0 0 0 0 0 0 0 0 0 0.15 0"/>
<feBlend mode="normal" in2="BackgroundImageFix" result="effect1_dropShadow_171_2342"/>
<feBlend mode="normal" in="SourceGraphic" in2="effect1_dropShadow_171_2342" result="shape"/>
</filter>
<filter id="filter1_d_171_2342" x="141.279" y="5.01729" width="31.1648" height="30.6083" filterUnits="userSpaceOnUse" color-interpolation-filters="sRGB">
<feFlood flood-opacity="0" result="BackgroundImageFix"/>
<feColorMatrix in="SourceAlpha" type="matrix" values="0 0 0 0 0 0 0 0 0 0 0 0 0 0 0 0 0 0 127 0" result="hardAlpha"/>
<feOffset dx="1.72414" dy="5.17241"/>
<feGaussianBlur stdDeviation="3.44828"/>
<feComposite in2="hardAlpha" operator="out"/>
<feColorMatrix type="matrix" values="0 0 0 0 0 0 0 0 0 0 0 0 0 0 0 0 0 0 0.35 0"/>
<feBlend mode="normal" in2="BackgroundImageFix" result="effect1_dropShadow_171_2342"/>
<feBlend mode="normal" in="SourceGraphic" in2="effect1_dropShadow_171_2342" result="shape"/>
</filter>
</defs>
</svg>
