<svg width="24" height="25" viewBox="0 0 24 25" fill="none" xmlns="http://www.w3.org/2000/svg">
<path d="M3 9.3905H18C18.9319 9.3905 19.3978 9.3905 19.7654 9.54274C20.2554 9.74573 20.6448 10.1351 20.8478 10.6251C21 10.9927 21 11.4586 21 12.3905C21 13.3224 21 13.7883 20.8478 14.1559C20.6448 14.6459 20.2554 15.0353 19.7654 15.2383C19.3978 15.3905 18.9319 15.3905 18 15.3905H13" stroke="#059E93" stroke-width="1.5" stroke-linecap="round" stroke-linejoin="round"/>
<path d="M6 15.3905H3" stroke="#059E93" stroke-width="1.5" stroke-linecap="round" stroke-linejoin="round"/>
<path d="M13 15.3905H15C15.9319 15.3905 16.3978 15.3905 16.7654 15.5427C17.2554 15.7457 17.6448 16.1351 17.8478 16.6251C18 16.9927 18 17.4586 18 18.3905C18 19.3224 18 19.7883 17.8478 20.1559C17.6448 20.6459 17.2554 21.0353 16.7654 21.2383C16.3978 21.3905 15.9319 21.3905 15 21.3905H3" stroke="#059E93" stroke-width="1.5" stroke-linecap="round" stroke-linejoin="round"/>
<path d="M3 3.3905H14C14.9319 3.3905 15.3978 3.3905 15.7654 3.54274C16.2554 3.74573 16.6448 4.13508 16.8478 4.62513C17 4.99268 17 5.45862 17 6.3905C17 7.32238 17 7.78832 16.8478 8.15587C16.6448 8.64592 16.2554 9.03527 15.7654 9.23826C15.3978 9.3905 14.9319 9.3905 14 9.3905H3" stroke="#059E93" stroke-width="1.5" stroke-linecap="round" stroke-linejoin="round"/>
<path d="M13 9.3905V15.581C13 16.695 13 17.2521 12.6735 17.3708C12.3469 17.4896 11.9782 17.0666 11.2407 16.2208L10.7593 15.6685C10.4064 15.2638 10.23 15.0614 10 15.0614C9.77003 15.0614 9.5936 15.2638 9.24074 15.6685L8.75926 16.2208C8.02179 17.0666 7.65305 17.4896 7.32653 17.3708C7 17.2521 7 16.695 7 15.581V9.3905" stroke="#059E93" stroke-width="1.5" stroke-linecap="round" stroke-linejoin="round"/>
</svg>
