<svg width="24" height="25" viewBox="0 0 24 25" fill="none" xmlns="http://www.w3.org/2000/svg">
<path d="M11.5 22.3905C7.49306 22.3905 5.48959 22.3905 4.2448 20.926C3 19.4616 3 17.1045 3 12.3905C3 7.67646 3 5.31943 4.2448 3.85497C5.48959 2.3905 7.49306 2.3905 11.5 2.3905C15.5069 2.3905 17.5104 2.3905 18.7552 3.85497C19.7572 5.03382 19.9527 6.79104 19.9908 9.8905" stroke="#059E93" stroke-width="1.5" stroke-linecap="round" stroke-linejoin="round"/>
<path d="M8 8.3905H15M8 13.3905H11" stroke="#059E93" stroke-width="1.5" stroke-linecap="round" stroke-linejoin="round"/>
<path d="M19.6092 18.4959C20.4521 17.8823 21 16.8879 21 15.7655C21 13.9015 19.489 12.3905 17.625 12.3905H17.375C15.511 12.3905 14 13.9015 14 15.7655C14 16.8879 14.5479 17.8823 15.3908 18.4959M19.6092 18.4959C19.0523 18.9013 18.3666 19.1405 17.625 19.1405H17.375C16.6334 19.1405 15.9477 18.9013 15.3908 18.4959M19.6092 18.4959L20.192 20.3309C20.4143 21.0308 20.5255 21.3808 20.4951 21.5987C20.4318 22.0522 20.0619 22.3889 19.6252 22.3905C19.4154 22.3913 19.101 22.2263 18.4723 21.8964C18.2027 21.7549 18.0679 21.6841 17.93 21.6425C17.649 21.5578 17.351 21.5578 17.07 21.6425C16.9321 21.6841 16.7973 21.7549 16.5277 21.8964C15.899 22.2263 15.5846 22.3913 15.3748 22.3905C14.9381 22.3889 14.5682 22.0522 14.5049 21.5987C14.4745 21.3808 14.5857 21.0308 14.808 20.3309L15.3908 18.4959" stroke="#059E93" stroke-width="1.5"/>
</svg>
