<svg width="19" height="18" viewBox="0 0 19 18" fill="none" xmlns="http://www.w3.org/2000/svg">
<rect x="0.919922" width="18" height="18" rx="9" fill="#EBEBEB"/>
<g clip-path="url(#clip0_2084_8665)">
<path d="M12.2164 3.9048L6.78242 4.4343C6.77177 4.35148 6.73061 4.27561 6.66699 4.22151C6.60338 4.16742 6.52188 4.139 6.43842 4.1418C6.34467 4.14309 6.25513 4.18091 6.18883 4.2472C6.12253 4.3135 6.08472 4.40305 6.08342 4.4968C6.08342 4.6248 6.15342 4.7243 6.24642 4.7868L3.97292 9.7188L3.94942 9.7408C3.91942 9.7708 3.91992 9.7708 3.91992 9.8008C3.91992 9.8008 3.91992 9.8298 3.94942 9.8298L7.11842 14.3168C7.06419 14.3793 7.03327 14.4586 7.03092 14.5413C7.03092 14.7488 7.20842 14.8963 7.38592 14.8963C7.43103 14.898 7.47602 14.8906 7.51826 14.8747C7.56051 14.8588 7.59916 14.8347 7.63197 14.8037C7.66478 14.7727 7.6911 14.7355 7.70937 14.6942C7.72765 14.6529 7.73752 14.6084 7.73842 14.5633L13.0684 14.0433L13.1344 14.0673C13.145 14.0582 13.1538 14.0471 13.1604 14.0348C13.1789 14.0328 13.1944 14.0278 13.1944 14.0078L15.4694 9.0698C15.5004 9.0788 15.5319 9.0893 15.5644 9.0893C15.7424 9.0893 15.9199 8.9118 15.9199 8.7343C15.919 8.64029 15.8814 8.55036 15.815 8.48374C15.7487 8.41712 15.6589 8.3791 15.5649 8.3778C15.5197 8.37814 15.4751 8.38731 15.4334 8.4048L12.2749 3.9343C12.2449 3.9043 12.2449 3.9043 12.2159 3.9043L12.2164 3.9048ZM11.9554 4.0448L9.47942 5.4003L6.76242 4.6013C6.77195 4.57695 6.77947 4.55187 6.78492 4.5263L11.9554 4.0448ZM12.1574 4.0528L12.8374 7.0063L11.2799 6.0398C11.3179 5.98584 11.3441 5.92452 11.3569 5.8598C11.3556 5.76605 11.3178 5.6765 11.2515 5.6102C11.1852 5.54391 11.0957 5.50609 11.0019 5.5048C10.9277 5.50564 10.8556 5.52973 10.7958 5.57368C10.736 5.61762 10.6914 5.67922 10.6684 5.7498L9.63342 5.4458L12.1574 4.0528ZM12.2934 4.1748L15.3244 8.4783C15.3094 8.4923 15.2984 8.5083 15.2864 8.5248L12.9484 7.0748L12.2934 4.1748ZM6.74642 4.6468L9.41592 5.4353L7.59392 6.4328L6.65592 4.7633C6.69285 4.73035 6.72387 4.69085 6.74642 4.6468ZM6.55642 4.8283L7.47892 6.4708L7.48492 6.5003L6.43842 7.4588V4.8523C6.47894 4.85202 6.51902 4.84387 6.55642 4.8283ZM6.34142 4.8333C6.36342 4.8403 6.38642 4.8448 6.40892 4.8468V7.4868L4.20042 9.5108L6.34142 4.8333ZM9.56942 5.4808L10.6574 5.8023C10.6534 5.8218 10.6454 5.8403 10.6454 5.8598C10.6454 5.9428 10.6789 6.0118 10.7244 6.0698L9.45942 7.1638L7.67742 6.5248L9.56942 5.4808ZM10.7389 6.0908C10.7716 6.12874 10.8118 6.15945 10.857 6.18098C10.9022 6.2025 10.9514 6.21436 11.0014 6.2158C11.0124 6.2158 11.0229 6.2133 11.0339 6.2118L11.3464 7.8403L9.48492 7.1733L10.7389 6.0908ZM11.2384 6.0998L12.8609 7.1083L13.1809 8.4978L11.3819 7.8528L11.0719 6.2053C11.1363 6.18655 11.194 6.14998 11.2384 6.0998ZM7.62342 6.6008L9.38692 7.2263L7.98542 8.4383L7.62342 6.6008ZM7.51342 6.6448L7.88742 8.5228L6.69742 9.5508C6.66373 9.51647 6.62337 9.48941 6.57883 9.47126C6.53429 9.45312 6.48651 9.44428 6.43842 9.4453V7.6293L7.51342 6.6448ZM12.9714 7.1773L15.2439 8.5903C15.2364 8.6068 15.2329 8.6233 15.2279 8.6403L13.2694 8.4978L12.9714 7.1773ZM9.41242 7.2358L11.3634 7.9278L11.7169 9.7728L10.1784 11.0928L8.38642 10.4738L7.98992 8.4623L9.41242 7.2358ZM6.40892 7.6558V9.4483C6.32073 9.45665 6.23872 9.49723 6.17857 9.56226C6.11843 9.6273 6.08437 9.71222 6.08292 9.8008C6.08409 9.89472 6.12192 9.98447 6.18834 10.0509C6.25475 10.1173 6.3445 10.1551 6.43842 10.1563C6.45342 10.1563 6.46642 10.1498 6.48092 10.1478L6.68442 11.2213L4.09742 9.7713L6.40892 7.6558ZM11.3989 7.9398L13.1344 8.5563L11.7394 9.7533L11.3989 7.9398ZM7.89192 8.5468L8.26792 10.4328L6.76042 9.9123C6.7761 9.87664 6.78735 9.83919 6.79392 9.8008C6.79461 9.71542 6.76443 9.63267 6.70892 9.5678L7.89192 8.5468ZM13.2819 8.6168L15.2109 8.7583C15.2162 8.81595 15.2364 8.87125 15.2694 8.9188L13.2354 10.7408L13.2819 8.6168ZM13.1914 8.6858L13.1439 10.8223L12.3609 11.5238C12.2967 11.4656 12.2136 11.4326 12.1269 11.4308C12.1019 11.4308 12.0804 11.4393 12.0569 11.4433L11.7689 9.9093L13.1914 8.6858ZM15.3279 8.9948C15.3409 9.0068 15.3574 9.0133 15.3719 9.0233L13.1684 13.8113L13.2334 10.8413L15.3279 8.9948ZM11.7469 9.9278L12.0379 11.4468C11.9835 11.4578 11.9328 11.4825 11.8905 11.5185C11.8482 11.5546 11.8159 11.6008 11.7964 11.6528L10.3304 11.1458L11.7469 9.9278ZM6.74292 9.9553L8.27792 10.4863L8.64292 12.3183L6.72392 11.2433L6.51042 10.1413C6.56029 10.1289 6.60689 10.1058 6.64702 10.0737C6.68715 10.0416 6.71987 10.0012 6.74292 9.9553ZM4.18142 9.9613L6.71642 11.3863L7.25392 14.2128C7.23892 14.2193 7.22692 14.2298 7.21342 14.2378L4.18142 9.9613ZM8.39642 10.5273L10.1374 11.1283L8.74992 12.3193L8.39642 10.5273ZM13.1419 10.9213L13.0754 13.9198L10.2409 12.9098L11.8399 11.9823C11.8716 12.0298 11.9142 12.0691 11.9641 12.097C12.014 12.1248 12.0698 12.1403 12.1269 12.1423C12.221 12.141 12.3109 12.103 12.3774 12.0364C12.4439 11.9698 12.4818 11.8799 12.4829 11.7858C12.4814 11.7076 12.4528 11.6323 12.4019 11.5728L13.1419 10.9213ZM10.2899 11.1808L11.7879 11.6983C11.7814 11.7273 11.7719 11.7543 11.7719 11.7858C11.7719 11.8408 11.7859 11.8908 11.8074 11.9363L10.1699 12.8843L8.85342 12.4158L10.2899 11.1808ZM6.75542 11.4088L8.64842 12.4738L7.54192 14.2203C7.46542 14.1829 7.37775 14.1752 7.29592 14.1988L6.75542 11.4088ZM8.74742 12.5173L10.0239 12.9688L7.67092 14.3303C7.65842 14.3128 7.64742 14.2938 7.63092 14.2788L8.74742 12.5173ZM10.0959 12.9943L12.8624 13.9718L7.72542 14.4503C7.71992 14.4268 7.71442 14.4033 7.70442 14.3818L10.0959 12.9943Z" fill="black"/>
</g>
<defs>
<clipPath id="clip0_2084_8665">
<rect width="12" height="12" fill="white" transform="translate(3.91992 3.40039)"/>
</clipPath>
</defs>
</svg>
