<svg width="101" height="40" viewBox="0 0 101 40" fill="none" xmlns="http://www.w3.org/2000/svg">
<g clip-path="url(#clip0_1204_16394)">
<path d="M19.4501 37.2148H0.0125732V40.0026H19.4501V37.2148Z" fill="black"/>
<path d="M19.4501 31.8887H0.0125732V34.6765H19.4501V31.8887Z" fill="black"/>
<path d="M13.9186 26.5645H5.57488V29.3522H13.9186V26.5645Z" fill="black"/>
<path d="M13.9188 21.2715H5.57507V24.0593H13.9188V21.2715Z" fill="black"/>
<path d="M13.9188 15.9453H5.57507V18.7331H13.9188V15.9453Z" fill="black"/>
<path d="M13.9188 10.6211H5.57507V13.4089H13.9188V10.6211Z" fill="black"/>
<path d="M19.4501 5.32617H0.0125732V8.11396H19.4501V5.32617Z" fill="black"/>
<path d="M19.4501 0.00195312H0.0125732V2.78974H19.4501V0.00195312Z" fill="black"/>
<path d="M22.2313 34.6765H51.8876C52.3876 33.7994 52.7626 32.8597 53.0126 31.8887H22.2313V34.6765Z" fill="black"/>
<path d="M49.5438 21.2715H27.7938V24.0593H51.8876C51.2626 22.9943 50.4813 22.0546 49.5438 21.2715Z" fill="black"/>
<path d="M27.7938 15.9453V18.7331H49.5438C50.4813 17.95 51.2626 17.0103 51.8563 15.9453H27.7938Z" fill="black"/>
<path d="M51.8876 5.32617H22.2313V8.11396H52.9813C52.7626 7.11161 52.3876 6.1719 51.8876 5.32617Z" fill="black"/>
<path d="M42.6999 0.00195312H22.2311V2.78974H49.8561C47.8874 1.0043 45.3249 0.00195312 42.6999 0.00195312Z" fill="black"/>
<path d="M36.1376 10.6211H27.7938V13.4089H36.1376V10.6211Z" fill="black"/>
<path d="M43.9501 13.4089H52.9188C53.1688 12.5005 53.2938 11.5608 53.2938 10.6211H43.9501V13.4089Z" fill="black"/>
<path d="M36.1374 26.5645H27.7936V29.3522H36.1374V26.5645Z" fill="black"/>
<path d="M43.9499 26.5645V29.3522H53.2936C53.2936 28.4125 53.1686 27.4728 52.9186 26.5645H43.9499Z" fill="black"/>
<path d="M22.2313 39.9713L42.7001 40.0026C45.3563 40.0026 47.9188 39.0003 49.8563 37.2148H22.2313V39.9713Z" fill="black"/>
<path d="M77.7938 40.0026L78.7626 37.2148H76.8251L77.7938 40.0026Z" fill="black"/>
<path d="M75.9501 34.6765H79.6376L80.6063 31.8887H74.9501L75.9501 34.6765Z" fill="black"/>
<path d="M74.0749 29.3522H81.5124L82.4811 26.5645H73.1061L74.0749 29.3522Z" fill="black"/>
<path d="M72.2001 24.0593H83.3563L84.3563 21.2715H71.2313L72.2001 24.0593Z" fill="black"/>
<path d="M61.1376 13.4089H76.1376L75.1688 10.6211H61.1376V13.4089Z" fill="black"/>
<path d="M81.2938 8.11396H100.013V5.32617H82.2626L81.2938 8.11396Z" fill="black"/>
<path d="M84.1061 0.00195312L83.1374 2.78974H100.012V0.00195312H84.1061Z" fill="black"/>
<path d="M69.4501 37.2148H55.5751V40.0026H69.4501V37.2148Z" fill="black"/>
<path d="M69.4501 31.8887H55.5751V34.6765H69.4501V31.8887Z" fill="black"/>
<path d="M69.4811 26.5645H61.1374V29.3522H69.4811V26.5645Z" fill="black"/>
<path d="M69.4813 21.2715H61.1376V24.0593H69.4813V21.2715Z" fill="black"/>
<path d="M94.4501 10.6211H80.4188L79.4501 13.4089H94.4501V10.6211Z" fill="black"/>
<path d="M86.1376 18.7331H94.4501V15.9453H86.1376H78.5751L77.7938 18.2006L77.0126 15.9453H69.4501H61.1376V18.7331H69.4501V16.1646L70.3563 18.7331H85.2313L86.1376 16.1646V18.7331Z" fill="black"/>
<path d="M94.4813 21.2715H86.1376V24.0593H94.4813V21.2715Z" fill="black"/>
<path d="M94.4811 26.5645H86.1374V29.3522H94.4811V26.5645Z" fill="black"/>
<path d="M100.013 31.8887H86.1376V34.6765H100.013V31.8887Z" fill="black"/>
<path d="M100.013 37.2148H86.1376V40.0026H100.013V37.2148Z" fill="black"/>
<path d="M74.2938 8.11396L73.3251 5.32617H55.5751V8.11396H74.2938Z" fill="black"/>
<path d="M72.4499 2.78974L71.4811 0.00195312H55.5749V2.78974H72.4499Z" fill="black"/>
</g>
<defs>
<clipPath id="clip0_1204_16394">
<rect width="100" height="40" fill="white" transform="translate(0.0115967)"/>
</clipPath>
</defs>
</svg>
