<svg width="201" height="64" viewBox="0 0 201 64" fill="none" xmlns="http://www.w3.org/2000/svg">
<rect x="-23" y="20.0005" width="220.7" height="44" rx="22" transform="rotate(-5 -23 20.0005)" fill="#9747FF"/>
<rect x="-22.4583" y="20.455" width="219.7" height="43" rx="21.5" transform="rotate(-5 -22.4583 20.455)" stroke="black" stroke-opacity="0.05"/>
<path d="M14.536 45.3253C14.4165 45.3358 14.3112 45.3028 14.2202 45.2264C14.1292 45.1501 14.0784 45.0521 14.068 44.9326L13.0451 33.2413C13.0347 33.1217 13.0676 33.0164 13.144 32.9254C13.2203 32.8344 13.3183 32.7837 13.4378 32.7732L15.1234 32.6258C15.2549 32.6143 15.3602 32.6472 15.4392 32.7246C15.5302 32.801 15.5809 32.8989 15.5914 33.0185L16.6143 44.7098C16.6247 44.8294 16.5918 44.9346 16.5154 45.0256C16.451 45.1156 16.3531 45.1663 16.2216 45.1778L14.536 45.3253ZM19.6793 44.8753C19.5597 44.8858 19.4544 44.8528 19.3634 44.7765C19.2724 44.7001 19.2217 44.6022 19.2113 44.4826L18.4708 36.0189C18.4603 35.8994 18.4933 35.7941 18.5696 35.7031C18.646 35.6121 18.7439 35.5614 18.8635 35.5509L20.2621 35.4286C20.3817 35.4181 20.487 35.4511 20.578 35.5274C20.669 35.6038 20.7197 35.7017 20.7301 35.8213L20.7835 36.4309C21.0052 36.0743 21.3154 35.7641 21.7139 35.5003C22.1234 35.2236 22.6204 35.0536 23.2051 34.9904C24.5659 34.8473 25.5628 35.2961 26.1959 36.3369C26.429 35.8346 26.79 35.4176 27.279 35.0857C27.7788 34.7408 28.3455 34.5407 28.9791 34.4852C29.6007 34.4309 30.1751 34.5252 30.7023 34.7681C31.2414 35.0101 31.6801 35.4114 32.0182 35.972C32.3673 36.5197 32.5805 37.2358 32.6579 38.1205L33.1082 43.2668C33.1186 43.3863 33.0857 43.4916 33.0093 43.5826C32.933 43.6736 32.835 43.7243 32.7155 43.7348L31.2451 43.8634C31.1255 43.8739 31.0203 43.841 30.9293 43.7646C30.8383 43.6882 30.7875 43.5903 30.7771 43.4707L30.3394 38.4678C30.2923 37.9299 30.1775 37.5123 29.9949 37.2151C29.8112 36.9059 29.5822 36.6971 29.3077 36.5886C29.0332 36.4801 28.7345 36.44 28.4118 36.4682C28.1488 36.4913 27.8915 36.58 27.64 36.7345C27.3885 36.889 27.1932 37.135 27.0541 37.4724C26.9139 37.7978 26.8674 38.2295 26.9145 38.7675L27.3522 43.7704C27.3626 43.8899 27.3297 43.9952 27.2533 44.0862C27.1769 44.1772 27.079 44.2279 26.9594 44.2384L25.4891 44.367C25.3576 44.3785 25.2463 44.3461 25.1553 44.2697C25.0763 44.1923 25.0315 44.0939 25.0211 43.9743L24.5834 38.9714C24.5363 38.4335 24.4155 38.0164 24.2209 37.7203C24.0253 37.4121 23.7903 37.2038 23.5158 37.0953C23.2413 36.9869 22.9546 36.9457 22.6557 36.9718C22.3808 36.9959 22.1181 37.0911 21.8677 37.2576C21.6162 37.4121 21.4203 37.6521 21.2802 37.9775C21.14 38.303 21.0934 38.7347 21.1405 39.2726L21.5782 44.2755C21.5887 44.3951 21.5557 44.5003 21.4794 44.5914C21.403 44.6824 21.305 44.7331 21.1855 44.7435L19.6793 44.8753ZM36.1756 46.8651C36.0561 46.8756 35.9508 46.8426 35.8598 46.7663C35.7688 46.6899 35.7181 46.592 35.7076 46.4724L34.6691 34.6018C34.6586 34.4822 34.6916 34.377 34.7679 34.286C34.8443 34.195 34.9422 34.1442 35.0618 34.1338L36.4784 34.0098C36.6099 33.9983 36.7152 34.0313 36.7942 34.1087C36.8852 34.185 36.9359 34.283 36.9464 34.4025L37.0091 35.1198C37.2626 34.7122 37.6114 34.3624 38.0557 34.0706C38.4999 33.7788 39.0687 33.6025 39.7621 33.5419C40.3957 33.4864 40.9545 33.5399 41.4385 33.7024C41.9225 33.8648 42.3366 34.1237 42.6809 34.479C43.0241 34.8224 43.3019 35.2438 43.5142 35.7432C43.7266 36.2426 43.8719 36.8021 43.9502 37.4216C43.9799 37.6238 44.0042 37.8325 44.023 38.0476C44.0418 38.2628 44.0547 38.4785 44.0616 38.6947C44.1019 39.2935 44.0609 39.8572 43.9385 40.3859C43.815 40.9026 43.6087 41.3664 43.3194 41.7772C43.041 42.1749 42.6781 42.5018 42.2307 42.7578C41.7833 43.0137 41.2428 43.1694 40.6092 43.2249C39.9637 43.2813 39.4039 43.2159 38.9297 43.0285C38.4546 42.8292 38.0568 42.5508 37.7364 42.1933L38.0925 46.2638C38.103 46.3833 38.07 46.4886 37.9937 46.5796C37.9293 46.6696 37.8313 46.7203 37.6998 46.7318L36.1756 46.8651ZM39.7779 41.3642C40.292 41.3193 40.683 41.1766 40.9511 40.9364C41.2181 40.6841 41.3957 40.3735 41.4839 40.0044C41.584 39.6343 41.6272 39.233 41.6135 38.8005C41.606 38.4398 41.5746 38.0812 41.5193 37.7246C41.4578 37.2964 41.3456 36.9087 41.1827 36.5615C41.0318 36.2134 40.8034 35.9442 40.4977 35.7542C40.1909 35.5521 39.7805 35.4736 39.2665 35.5186C38.7764 35.5615 38.3858 35.7101 38.0949 35.9644C37.8159 36.2177 37.6204 36.5299 37.5083 36.9011C37.4071 37.2593 37.3608 37.6247 37.3693 37.9974C37.3762 38.2136 37.3901 38.4412 37.411 38.6803C37.4319 38.9194 37.4583 39.152 37.4901 39.3781C37.5334 39.7357 37.6474 40.075 37.8321 40.3961C38.0158 40.7053 38.2664 40.9544 38.5841 41.1435C38.9018 41.3325 39.2997 41.4061 39.7779 41.3642ZM49.1672 42.4761C48.5456 42.5305 47.9733 42.4601 47.4503 42.265C46.9262 42.0579 46.497 41.7642 46.1626 41.3839C45.8391 40.9906 45.6548 40.5369 45.6098 40.0229C45.5366 39.1861 45.8133 38.4933 46.4399 37.9446C47.0773 37.3829 47.9446 36.9697 49.0417 36.7051L51.467 36.1316L51.434 35.755C51.3901 35.2529 51.2306 34.8754 50.9555 34.6224C50.6804 34.3694 50.238 34.2696 49.6283 34.3229C49.198 34.3606 48.8532 34.4811 48.5939 34.6845C48.3456 34.8748 48.1682 35.1192 48.0618 35.4176C47.9798 35.5814 47.8491 35.6711 47.6698 35.6868L46.2532 35.8108C46.1217 35.8223 46.0169 35.7953 45.9389 35.7298C45.8729 35.6633 45.8346 35.5703 45.8242 35.4508C45.8194 35.2585 45.8767 35.0186 45.9961 34.7311C46.1155 34.4436 46.3196 34.1607 46.6085 33.8825C46.8963 33.5923 47.2774 33.3361 47.7518 33.1139C48.2263 32.8917 48.8102 32.7503 49.5035 32.6896C50.2566 32.6237 50.8986 32.6639 51.4294 32.8102C51.971 32.9435 52.4109 33.152 52.7489 33.4356C53.0869 33.7192 53.3459 34.0639 53.526 34.4698C53.706 34.8756 53.8165 35.3117 53.8572 35.7779L54.3499 41.4084C54.3603 41.5279 54.3274 41.6332 54.251 41.7242C54.1746 41.8152 54.0767 41.8659 53.9571 41.8764L52.5047 42.0035C52.3732 42.015 52.2619 41.9825 52.1709 41.9062C52.0919 41.8288 52.0471 41.7303 52.0367 41.6108L51.9755 40.9114C51.84 41.1522 51.6496 41.3856 51.4044 41.6119C51.1581 41.8262 50.8495 42.0158 50.4784 42.1807C50.1183 42.3327 49.6812 42.4312 49.1672 42.4761ZM49.6278 40.7193C50.0462 40.6827 50.4149 40.5601 50.734 40.3515C51.065 40.1419 51.3099 39.8434 51.4687 39.4561C51.6385 39.0557 51.6983 38.5687 51.6481 37.9949L51.6151 37.6183L49.8471 38.0621C49.1512 38.2314 48.6404 38.4507 48.3146 38.7202C47.9888 38.9896 47.8411 39.2976 47.8715 39.6443C47.8945 39.9073 47.992 40.1276 48.1642 40.3053C48.3472 40.47 48.5685 40.5892 48.8279 40.6628C49.0862 40.7245 49.3529 40.7434 49.6278 40.7193ZM60.7382 41.4638C59.8775 41.5391 59.1043 41.4441 58.4185 41.1789C57.7448 40.9126 57.1959 40.4908 56.772 39.9136C56.359 39.3233 56.0964 38.5935 55.9842 37.7239C55.9565 37.5457 55.9301 37.3131 55.905 37.0262C55.8789 36.7273 55.8634 36.4817 55.8586 36.2894C55.8182 35.4136 55.9506 34.6552 56.2559 34.0141C56.5721 33.3601 57.0388 32.8434 57.6561 32.4642C58.2853 32.0839 59.0303 31.8561 59.891 31.7808C60.6561 31.7139 61.317 31.7645 61.8738 31.9326C62.4306 32.1007 62.8964 32.331 63.2713 32.6234C63.6463 32.9158 63.9331 33.234 64.1318 33.578C64.3415 33.909 64.4648 34.2174 64.5019 34.5033C64.5253 34.6338 64.4929 34.745 64.4046 34.8371C64.3272 34.9161 64.2287 34.9609 64.1092 34.9713L62.5312 35.1094C62.4116 35.1198 62.3134 35.0983 62.2364 35.0448C62.1714 34.9903 62.1038 34.9058 62.0336 34.7915C61.8124 34.329 61.5441 34.0152 61.2285 33.8501C60.9238 33.672 60.5443 33.6028 60.0901 33.6425C59.4923 33.6948 59.0309 33.9279 58.7057 34.3419C58.3915 34.7428 58.258 35.3507 58.3052 36.1657C58.321 36.6221 58.3576 37.0405 58.415 37.4209C58.5111 38.2437 58.7487 38.8252 59.1278 39.1654C59.5188 39.5046 60.0132 39.6481 60.6109 39.5958C61.0771 39.555 61.4453 39.4264 61.7155 39.2101C61.9846 38.9817 62.1879 38.6206 62.3254 38.1268C62.3747 38.002 62.4266 37.9071 62.4812 37.8421C62.5477 37.7761 62.6407 37.7378 62.7602 37.7274L64.3382 37.5893C64.4578 37.5789 64.563 37.6118 64.654 37.6882C64.7559 37.7515 64.8067 37.8495 64.8062 37.982C64.8131 38.1982 64.7748 38.4485 64.6912 38.7329C64.6186 39.0043 64.4813 39.2933 64.2792 39.6001C64.0881 39.8939 63.8357 40.175 63.5218 40.4433C63.207 40.6997 62.8168 40.9206 62.3511 41.1059C61.8975 41.2901 61.3598 41.4094 60.7382 41.4638ZM71.1459 40.3726C70.4286 40.4353 69.814 40.3626 69.3019 40.1545C68.7898 39.9463 68.3927 39.6076 68.1108 39.1384C67.8278 38.6572 67.6538 38.0461 67.589 37.3049L67.2329 33.2345L65.8163 33.3584C65.6967 33.3688 65.5915 33.3359 65.5005 33.2595C65.4095 33.1832 65.3587 33.0852 65.3483 32.9657L65.2573 31.9257C65.2468 31.8061 65.2798 31.7008 65.3561 31.6098C65.4325 31.5188 65.5305 31.4681 65.65 31.4576L67.0666 31.3337L66.8062 28.3571C66.7957 28.2375 66.8227 28.1328 66.8871 28.0428C66.9634 27.9518 67.0674 27.9006 67.1989 27.8891L68.6513 27.762C68.7709 27.7515 68.8761 27.7845 68.9671 27.8609C69.0581 27.9372 69.1089 28.0352 69.1193 28.1547L69.3797 31.1313L71.6212 30.9352C71.7407 30.9248 71.846 30.9577 71.937 31.0341C72.028 31.1104 72.0787 31.2084 72.0892 31.3279L72.1802 32.368C72.1906 32.4875 72.1577 32.5928 72.0813 32.6838C72.005 32.7748 71.907 32.8255 71.7875 32.836L69.546 33.0321L69.8865 36.9232C69.9294 37.4133 70.0465 37.7886 70.2379 38.0489C70.4413 38.3081 70.7581 38.4189 71.1885 38.3813L72.4258 38.273C72.5453 38.2626 72.6506 38.2955 72.7416 38.3719C72.8326 38.4482 72.8833 38.5462 72.8938 38.6657L72.9911 39.7775C73.0015 39.897 72.9686 40.0023 72.8922 40.0933C72.8158 40.1843 72.7179 40.235 72.5983 40.2455L71.1459 40.3726ZM76.0539 39.9432C75.9344 39.9536 75.8291 39.9207 75.7381 39.8443C75.6471 39.768 75.5964 39.67 75.5859 39.5505L74.9741 32.5572L73.5217 32.6843C73.4021 32.6947 73.2968 32.6618 73.2058 32.5854C73.1148 32.509 73.0641 32.4111 73.0536 32.2916L72.9627 31.2515C72.9522 31.132 72.9851 31.0267 73.0615 30.9357C73.1379 30.8447 73.2358 30.794 73.3554 30.7835L74.8078 30.6564L74.7435 29.9213C74.6807 29.204 74.7605 28.6007 74.9827 28.1115C75.2038 27.6103 75.561 27.2177 76.0541 26.9337C76.5472 26.6496 77.1883 26.4731 77.9772 26.404L79.1966 26.2973C79.3281 26.2858 79.4334 26.3188 79.5124 26.3962C79.6034 26.4726 79.6541 26.5705 79.6646 26.6901L79.7556 27.7301C79.766 27.8496 79.7331 27.9549 79.6567 28.0459C79.5923 28.1359 79.4944 28.1866 79.3629 28.1981L78.2153 28.2985C77.7371 28.3403 77.4188 28.4886 77.2604 28.7434C77.102 28.9982 77.0427 29.3527 77.0824 29.807L77.1389 30.4525L79.3624 30.258C79.4939 30.2465 79.5992 30.2794 79.6782 30.3568C79.7692 30.4332 79.82 30.5311 79.8304 30.6507L79.9214 31.6907C79.9319 31.8102 79.8989 31.9155 79.8226 32.0065C79.7582 32.0965 79.6602 32.1472 79.5287 32.1587L77.3052 32.3532L77.917 39.3465C77.9275 39.4661 77.8945 39.5713 77.8182 39.6623C77.7418 39.7533 77.6439 39.8041 77.5243 39.8145L76.0539 39.9432ZM85.5207 39.2956C84.7914 39.3594 84.1437 39.2535 83.5776 38.9778C83.0223 38.6891 82.575 38.2584 82.2358 37.6858C81.8956 37.1012 81.6894 36.3965 81.6172 35.5717L81.1764 30.5329C81.1659 30.4134 81.1989 30.3081 81.2753 30.2171C81.3516 30.1261 81.4496 30.0754 81.5691 30.0649L83.1471 29.9269C83.2786 29.9153 83.3839 29.9483 83.4629 30.0257C83.5539 30.1021 83.6046 30.2 83.6151 30.3196L84.0465 35.2507C84.1762 36.7331 84.8926 37.4172 86.1956 37.3032C86.8172 37.2488 87.2901 37.0087 87.6142 36.5828C87.9503 36.1559 88.088 35.5958 88.0273 34.9024L87.5959 29.9713C87.5854 29.8517 87.6184 29.7465 87.6947 29.6555C87.7711 29.5645 87.869 29.5137 87.9886 29.5033L89.5666 29.3652C89.6861 29.3548 89.7914 29.3877 89.8824 29.4641C89.9734 29.5404 90.0241 29.6384 90.0346 29.7579L90.775 38.2216C90.7855 38.3411 90.7526 38.4464 90.6762 38.5374C90.5998 38.6284 90.5019 38.6791 90.3823 38.6896L88.9299 38.8167C88.7984 38.8282 88.6871 38.7958 88.5961 38.7194C88.5171 38.642 88.4723 38.5435 88.4619 38.424L88.3976 37.6888C88.1114 38.1354 87.7397 38.4992 87.2824 38.7801C86.8252 39.061 86.2379 39.2329 85.5207 39.2956ZM93.6296 38.4055C93.5101 38.416 93.4048 38.383 93.3138 38.3067C93.2228 38.2303 93.1721 38.1323 93.1616 38.0128L92.1231 26.1421C92.1126 26.0226 92.1456 25.9173 92.2219 25.8263C92.2983 25.7353 92.3962 25.6846 92.5158 25.6741L94.0041 25.5439C94.1236 25.5335 94.2289 25.5664 94.3199 25.6428C94.4109 25.7191 94.4616 25.8171 94.4721 25.9366L95.5106 37.8073C95.5211 37.9268 95.4881 38.0321 95.4118 38.1231C95.3354 38.2141 95.2375 38.2648 95.1179 38.2753L93.6296 38.4055ZM102.67 37.6146C102.55 37.625 102.445 37.5921 102.354 37.5157C102.263 37.4394 102.212 37.3414 102.202 37.2219L101.181 25.5485C101.169 25.417 101.202 25.3057 101.278 25.2147C101.354 25.1237 101.452 25.073 101.572 25.0625L106.216 24.6562C107.663 24.5296 108.834 24.7645 109.729 25.3607C110.624 25.9569 111.128 26.8946 111.24 28.1737C111.317 29.0584 111.16 29.8129 110.769 30.4374C110.39 31.0608 109.848 31.5359 109.141 31.8627L112.159 36.2062C112.202 36.2747 112.225 36.3389 112.23 36.3987C112.24 36.5063 112.206 36.5996 112.128 36.6787C112.063 36.7567 111.982 36.7998 111.887 36.8082L110.255 36.951C110.052 36.9687 109.892 36.9285 109.775 36.8304C109.658 36.7322 109.565 36.6319 109.495 36.5296L106.81 32.4822L104.318 32.7002L104.695 37.0038C104.705 37.1233 104.672 37.2286 104.596 37.3196C104.531 37.4096 104.433 37.4603 104.302 37.4718L102.67 37.6146ZM104.141 30.674L106.669 30.4528C107.398 30.389 107.928 30.18 108.258 29.8259C108.588 29.4598 108.726 28.9779 108.674 28.3801C108.622 27.7824 108.402 27.3319 108.014 27.0286C107.637 26.7122 107.078 26.5865 106.336 26.6513L103.808 26.8725L104.141 30.674ZM118.017 36.4526C116.69 36.5687 115.605 36.2782 114.761 35.5811C113.917 34.884 113.403 33.8327 113.22 32.4273C113.198 32.3088 113.178 32.1599 113.163 31.9806C113.146 31.7894 113.139 31.6394 113.142 31.5308C113.111 30.63 113.246 29.8352 113.547 29.1463C113.86 28.4564 114.324 27.9099 114.94 27.5067C115.554 27.0916 116.297 26.8459 117.17 26.7696C118.138 26.6848 118.969 26.8169 119.662 27.1659C120.354 27.5028 120.899 28.0153 121.296 28.7033C121.693 29.3793 121.932 30.1835 122.013 31.116L122.046 31.4925C122.057 31.6121 122.024 31.7174 121.947 31.8084C121.871 31.8994 121.767 31.9506 121.635 31.9621L115.682 32.483C115.682 32.483 115.684 32.5009 115.687 32.5368C115.69 32.5726 115.693 32.6025 115.695 32.6264C115.743 33.0438 115.855 33.4255 116.03 33.7716C116.216 34.1046 116.461 34.3662 116.767 34.5563C117.085 34.7453 117.447 34.8221 117.853 34.7865C118.188 34.7572 118.465 34.6848 118.683 34.5693C118.901 34.4419 119.076 34.3061 119.208 34.1621C119.34 34.018 119.432 33.9015 119.485 33.8126C119.58 33.6598 119.656 33.5688 119.714 33.5396C119.782 33.4975 119.882 33.4707 120.014 33.4592L121.556 33.3242C121.675 33.3138 121.774 33.3413 121.852 33.4067C121.942 33.4711 121.986 33.5576 121.983 33.6663C121.988 33.8586 121.907 34.1006 121.74 34.3923C121.584 34.6829 121.345 34.9749 121.021 35.2682C120.698 35.5616 120.281 35.8209 119.77 36.0462C119.271 36.2585 118.686 36.394 118.017 36.4526ZM115.55 30.9767L119.513 30.63L119.509 30.5762C119.468 30.11 119.354 29.7103 119.169 29.3773C118.983 29.0442 118.732 28.7891 118.415 28.612C118.099 28.435 117.731 28.3647 117.313 28.4013C116.894 28.4379 116.544 28.5709 116.263 28.8003C115.982 29.0297 115.779 29.3245 115.654 29.6848C115.541 30.044 115.505 30.4567 115.546 30.9229L115.55 30.9767ZM127.882 35.5895C127.165 35.6522 126.542 35.6224 126.013 35.5C125.496 35.3766 125.066 35.2035 124.721 34.9807C124.376 34.7579 124.115 34.5278 123.938 34.2903C123.76 34.0529 123.658 33.851 123.632 33.6847C123.608 33.5542 123.635 33.4495 123.713 33.3704C123.801 33.2784 123.899 33.2276 124.007 33.2182L125.423 33.0943C125.471 33.0901 125.513 33.0924 125.55 33.1012C125.587 33.1101 125.638 33.1417 125.703 33.1963C125.87 33.3142 126.043 33.4375 126.223 33.5664C126.415 33.6941 126.635 33.8013 126.884 33.888C127.131 33.9627 127.434 33.9844 127.793 33.953C128.259 33.9122 128.64 33.7886 128.935 33.5821C129.241 33.3626 129.379 33.0795 129.349 32.7328C129.327 32.4818 129.237 32.2848 129.08 32.142C128.935 31.9981 128.672 31.8825 128.291 31.7954C127.909 31.6963 127.371 31.6049 126.677 31.521C125.994 31.4242 125.421 31.2756 124.957 31.0752C124.494 30.8748 124.139 30.6047 123.893 30.2649C123.646 29.9251 123.502 29.5161 123.46 29.038C123.419 28.5717 123.518 28.1174 123.757 27.6749C124.006 27.2195 124.393 26.8302 124.919 26.5072C125.457 26.1831 126.138 25.9849 126.963 25.9128C127.609 25.8563 128.178 25.8908 128.671 26.0163C129.162 26.1299 129.574 26.2926 129.906 26.5045C130.25 26.7154 130.516 26.939 130.705 27.1754C130.894 27.3998 131.002 27.6012 131.029 27.7795C131.053 27.9099 131.026 28.0206 130.95 28.1116C130.873 28.1907 130.78 28.2349 130.672 28.2443L129.346 28.3604C129.286 28.3657 129.231 28.3584 129.181 28.3387C129.131 28.319 129.081 28.2933 129.03 28.2616C128.888 28.1535 128.733 28.0406 128.566 27.9227C128.399 27.8048 128.198 27.7079 127.963 27.6322C127.738 27.5434 127.447 27.5147 127.088 27.5461C126.634 27.5858 126.296 27.7178 126.075 27.9419C125.852 28.1541 125.754 28.4096 125.78 28.7085C125.798 28.9117 125.868 29.0863 125.989 29.2323C126.121 29.3653 126.366 29.4824 126.724 29.5836C127.082 29.6847 127.62 29.7762 128.338 29.8579C129.152 29.9313 129.804 30.091 130.295 30.3372C130.798 30.5703 131.161 30.8638 131.384 31.2176C131.619 31.5585 131.756 31.95 131.794 32.3924C131.841 32.9303 131.722 33.4286 131.437 33.8872C131.164 34.3447 130.728 34.7262 130.128 35.0316C129.539 35.3241 128.791 35.51 127.882 35.5895ZM137.354 34.7608C136.625 34.8246 135.977 34.7187 135.411 34.443C134.856 34.1542 134.408 33.7236 134.069 33.151C133.729 32.5664 133.523 31.8617 133.45 31.0368L133.01 25.9981C132.999 25.8785 133.032 25.7733 133.109 25.6823C133.185 25.5913 133.283 25.5405 133.402 25.5301L134.98 25.392C135.112 25.3805 135.217 25.4135 135.296 25.4909C135.387 25.5672 135.438 25.6652 135.448 25.7847L135.88 30.7159C136.009 32.1982 136.726 32.8824 138.029 32.7684C138.65 32.714 139.123 32.4739 139.447 32.048C139.784 31.6211 139.921 31.061 139.861 30.3676L139.429 25.4365C139.419 25.3169 139.452 25.2116 139.528 25.1206C139.604 25.0296 139.702 24.9789 139.822 24.9685L141.4 24.8304C141.519 24.8199 141.625 24.8529 141.716 24.9292C141.807 25.0056 141.857 25.1036 141.868 25.2231L142.608 33.6868C142.619 33.8063 142.586 33.9116 142.509 34.0026C142.433 34.0936 142.335 34.1443 142.216 34.1548L140.763 34.2819C140.632 34.2934 140.52 34.2609 140.429 34.1846C140.35 34.1072 140.306 34.0087 140.295 33.8891L140.231 33.154C139.945 33.6006 139.573 33.9644 139.116 34.2453C138.658 34.5262 138.071 34.6981 137.354 34.7608ZM145.463 33.8707C145.343 33.8811 145.238 33.8482 145.147 33.7718C145.056 33.6955 145.005 33.5975 144.995 33.478L143.956 21.6073C143.946 21.4878 143.979 21.3825 144.055 21.2915C144.132 21.2005 144.229 21.1498 144.349 21.1393L145.837 21.0091C145.957 20.9986 146.062 21.0316 146.153 21.108C146.244 21.1843 146.295 21.2823 146.305 21.4018L147.344 33.2725C147.354 33.392 147.321 33.4973 147.245 33.5883C147.169 33.6793 147.071 33.73 146.951 33.7405L145.463 33.8707ZM153.974 33.126C153.257 33.1888 152.642 33.1161 152.13 32.9079C151.618 32.6998 151.221 32.3611 150.939 31.8919C150.656 31.4107 150.482 30.7995 150.417 30.0584L150.061 25.9879L148.644 26.1119C148.525 26.1223 148.42 26.0894 148.329 26.013C148.238 25.9367 148.187 25.8387 148.176 25.7192L148.085 24.6791C148.075 24.5596 148.108 24.4543 148.184 24.3633C148.261 24.2723 148.359 24.2216 148.478 24.2111L149.895 24.0872L149.634 21.1106C149.624 20.991 149.651 20.8863 149.715 20.7963C149.792 20.7053 149.896 20.6541 150.027 20.6426L151.479 20.5155C151.599 20.505 151.704 20.538 151.795 20.6143C151.886 20.6907 151.937 20.7886 151.947 20.9082L152.208 23.8848L154.449 23.6887C154.569 23.6783 154.674 23.7112 154.765 23.7876C154.856 23.8639 154.907 23.9619 154.917 24.0814L155.008 25.1214C155.019 25.241 154.986 25.3463 154.909 25.4373C154.833 25.5283 154.735 25.579 154.616 25.5895L152.374 25.7856L152.715 29.6767C152.757 30.1668 152.875 30.542 153.066 30.8023C153.269 31.0616 153.586 31.1724 154.017 31.1348L155.254 31.0265C155.373 31.0161 155.479 31.049 155.57 31.1254C155.661 31.2017 155.711 31.2997 155.722 31.4192L155.819 32.531C155.83 32.6505 155.797 32.7558 155.72 32.8468C155.644 32.9378 155.546 32.9885 155.426 32.999L153.974 33.126ZM160.996 32.6924C160.278 32.7552 159.656 32.7254 159.127 32.603C158.61 32.4795 158.179 32.3064 157.835 32.0836C157.49 31.8608 157.229 31.6307 157.052 31.3932C156.874 31.1558 156.772 30.9539 156.746 30.7876C156.722 30.6571 156.749 30.5524 156.826 30.4733C156.915 30.3813 157.013 30.3306 157.12 30.3212L158.537 30.1972C158.585 30.193 158.627 30.1954 158.664 30.2042C158.701 30.213 158.752 30.2447 158.817 30.2992C158.984 30.4171 159.157 30.5405 159.337 30.6693C159.529 30.797 159.749 30.9043 159.998 30.9909C160.245 31.0656 160.548 31.0873 160.907 31.0559C161.373 31.0152 161.754 30.8915 162.049 30.685C162.355 30.4655 162.493 30.1824 162.462 29.8357C162.44 29.5847 162.351 29.3877 162.194 29.2449C162.049 29.101 161.786 28.9855 161.405 28.8983C161.023 28.7993 160.485 28.7078 159.791 28.624C159.108 28.5271 158.534 28.3785 158.071 28.1781C157.608 27.9777 157.253 27.7076 157.007 27.3678C156.76 27.028 156.616 26.619 156.574 26.1409C156.533 25.6747 156.632 25.2203 156.87 24.7779C157.12 24.3224 157.507 23.9331 158.033 23.6101C158.571 23.286 159.252 23.0878 160.077 23.0157C160.722 22.9592 161.292 22.9937 161.784 23.1193C162.276 23.2328 162.688 23.3956 163.02 23.6075C163.363 23.8183 163.63 24.0419 163.819 24.2783C164.007 24.5028 164.115 24.7041 164.143 24.8824C164.167 25.0128 164.14 25.1236 164.064 25.2146C163.986 25.2936 163.894 25.3378 163.786 25.3473L162.459 25.4634C162.399 25.4686 162.345 25.4613 162.295 25.4416C162.245 25.4219 162.194 25.3962 162.143 25.3645C162.001 25.2565 161.847 25.1435 161.68 25.0256C161.513 24.9077 161.312 24.8109 161.077 24.7351C160.852 24.6463 160.56 24.6176 160.202 24.649C159.747 24.6888 159.41 24.8207 159.188 25.0448C158.966 25.257 158.868 25.5126 158.894 25.8114C158.912 26.0146 158.981 26.1892 159.102 26.3352C159.235 26.4682 159.48 26.5853 159.838 26.6865C160.196 26.7876 160.734 26.8791 161.452 26.9608C162.265 27.0342 162.918 27.194 163.409 27.4401C163.911 27.6732 164.274 27.9667 164.498 28.3205C164.733 28.6614 164.869 29.053 164.908 29.4953C164.955 30.0332 164.836 30.5315 164.551 30.9901C164.278 31.4476 163.841 31.8291 163.242 32.1345C162.653 32.427 161.904 32.6129 160.996 32.6924Z" fill="white"/>
</svg>
