<svg width="28" height="24" viewBox="0 0 28 24" fill="none" xmlns="http://www.w3.org/2000/svg">
<g clip-path="url(#clip0_597_28638)">
<path d="M26.5099 20.9516C26.5614 20.9521 26.6125 20.9421 26.6599 20.9223C26.7074 20.9024 26.7502 20.8731 26.7857 20.8362C26.8213 20.7993 26.8488 20.7556 26.8665 20.7077C26.8843 20.6599 26.8919 20.6089 26.8889 20.558C26.8889 20.2789 26.7188 20.1455 26.3699 20.1455H25.8062V21.6069H26.0182V20.9698H26.2788L26.2847 20.9776L26.6891 21.6069H26.9159L26.4808 20.9556L26.5099 20.9516ZM26.2647 20.8052H26.0188V20.3111H26.3305C26.4915 20.3111 26.675 20.3372 26.675 20.5459C26.675 20.7859 26.4893 20.8052 26.2634 20.8052" fill="#0A66C2"/>
<path d="M20.9784 19.1207H17.9715V14.4582C17.9715 13.3463 17.9515 11.9151 16.4077 11.9151C14.8416 11.9151 14.602 13.1265 14.602 14.3772V19.1204H11.595V9.53232H14.4817V10.8426H14.5221C14.811 10.3536 15.2284 9.95124 15.7299 9.6785C16.2315 9.40576 16.7984 9.27282 17.3702 9.29383C20.4178 9.29383 20.9797 11.2787 20.9797 13.8609L20.9784 19.1207ZM8.20228 8.2217C7.85717 8.22177 7.51978 8.1205 7.23279 7.9307C6.9458 7.7409 6.72212 7.4711 6.58999 7.15542C6.45786 6.83974 6.42323 6.49235 6.4905 6.15719C6.55777 5.82203 6.72391 5.51414 6.9679 5.27247C7.21189 5.0308 7.52278 4.86619 7.86125 4.79946C8.19972 4.73274 8.55057 4.76689 8.86944 4.8976C9.18831 5.02831 9.46087 5.24972 9.65265 5.53381C9.84444 5.8179 9.94685 6.15193 9.94691 6.49364C9.94695 6.72054 9.90185 6.94521 9.8142 7.15485C9.72654 7.36448 9.59806 7.55497 9.43606 7.71544C9.27405 7.8759 9.0817 8.0032 8.87001 8.09007C8.65832 8.17693 8.43143 8.22166 8.20228 8.2217ZM9.70572 19.1207H6.69571V9.53232H9.70572V19.1207ZM22.4775 2.00137H5.18475C4.79226 1.99698 4.41404 2.14707 4.13324 2.41864C3.85245 2.69022 3.69205 3.06106 3.68726 3.44969V20.6431C3.69188 21.032 3.85219 21.4031 4.13298 21.6749C4.41376 21.9468 4.79206 22.0972 5.18475 22.093H22.4775C22.871 22.0979 23.2503 21.948 23.5322 21.6761C23.8141 21.4043 23.9755 21.0327 23.9809 20.6431V3.44845C23.9753 3.05905 23.8138 2.68778 23.5319 2.41622C23.25 2.14465 22.8708 1.99499 22.4775 2.00013" fill="#0A66C2"/>
<path d="M26.2902 19.4951C25.9243 19.4986 25.5748 19.6454 25.3179 19.9034C25.0611 20.1614 24.9179 20.5096 24.9197 20.8718C24.9215 21.2341 25.068 21.5809 25.3274 21.8364C25.5867 22.0919 25.9376 22.2354 26.3035 22.2354C26.6693 22.2354 27.0203 22.0919 27.2796 21.8364C27.5389 21.5809 27.6855 21.2341 27.6873 20.8718C27.689 20.5096 27.5458 20.1614 27.289 19.9034C27.0322 19.6454 26.6826 19.4986 26.3168 19.4951H26.2902ZM26.2902 22.0785C26.0502 22.0825 25.8145 22.0159 25.6127 21.8872C25.411 21.7585 25.2523 21.5734 25.1568 21.3554C25.0613 21.1374 25.0332 20.8963 25.0761 20.6625C25.119 20.4287 25.231 20.2127 25.3978 20.0419C25.5647 19.8711 25.7789 19.7532 26.0135 19.7029C26.248 19.6527 26.4924 19.6725 26.7156 19.7597C26.9388 19.847 27.1309 19.9978 27.2675 20.1932C27.4042 20.3886 27.4792 20.6196 27.4832 20.8572C27.4832 20.864 27.4832 20.8706 27.4832 20.8774C27.4899 21.1891 27.3713 21.4906 27.1535 21.7158C26.9358 21.9409 26.6366 22.0712 26.3218 22.0779H26.2905" fill="#0A66C2"/>
</g>
<defs>
<clipPath id="clip0_597_28638">
<rect width="24" height="20.2597" fill="white" transform="translate(3.6875 2)"/>
</clipPath>
</defs>
</svg>
