<svg width="188" height="40" viewBox="0 0 188 40" fill="none" xmlns="http://www.w3.org/2000/svg">
<path d="M187.9 18.0959V14.8009H183.808V9.67812L183.671 9.72049L179.827 10.8963L179.752 10.9194V14.8009H173.685V12.6388C173.685 11.632 173.911 10.8614 174.354 10.3476C174.795 9.83989 175.425 9.58183 176.229 9.58183C176.807 9.58183 177.405 9.718 178.007 9.98647L178.158 10.0538V6.58355L178.087 6.5575C177.525 6.35563 176.761 6.25391 175.814 6.25391C174.621 6.25391 173.536 6.51354 172.591 7.02829C171.644 7.54371 170.9 8.27957 170.379 9.21526C169.859 10.1498 169.595 11.2291 169.595 12.4236V14.8009H166.746V18.0959H169.595V31.9774H173.685V18.0959H179.752V26.9175C179.752 30.5506 181.465 32.3918 184.845 32.3918C185.4 32.3918 185.985 32.3266 186.582 32.199C187.189 32.0683 187.603 31.9376 187.846 31.798L187.9 31.7663V28.4406L187.734 28.5507C187.512 28.6989 187.235 28.8197 186.911 28.9094C186.586 29.0009 186.314 29.0469 186.103 29.0469C185.312 29.0469 184.726 28.8335 184.362 28.4125C183.995 27.9877 183.808 27.2446 183.808 26.2054V18.0959H187.9ZM157.612 29.0472C156.127 29.0472 154.957 28.5549 154.132 27.5852C153.302 26.6106 152.881 25.2211 152.881 23.4557C152.881 21.6344 153.302 20.2089 154.132 19.217C154.958 18.2317 156.117 17.7317 157.578 17.7317C158.997 17.7317 160.126 18.2093 160.934 19.152C161.747 20.0995 162.159 21.5137 162.159 23.3563C162.159 25.2215 161.772 26.6543 161.007 27.6126C160.247 28.564 159.105 29.0472 157.612 29.0472ZM157.794 14.387C154.961 14.387 152.712 15.2169 151.108 16.8538C149.505 18.4909 148.692 20.7563 148.692 23.5878C148.692 26.2771 149.486 28.4403 151.05 30.0162C152.615 31.5928 154.745 32.3915 157.38 32.3915C160.125 32.3915 162.33 31.55 163.933 29.8905C165.537 28.2325 166.349 25.9887 166.349 23.2233C166.349 20.4919 165.587 18.3126 164.083 16.7471C162.578 15.1809 160.462 14.387 157.794 14.387ZM142.097 14.3869C140.171 14.3869 138.577 14.8797 137.36 15.8514C136.135 16.8288 135.514 18.1109 135.514 19.6621C135.514 20.4685 135.648 21.1848 135.912 21.7922C136.177 22.4019 136.588 22.9384 137.134 23.3888C137.676 23.8356 138.512 24.3037 139.62 24.7797C140.552 25.163 141.246 25.4874 141.688 25.743C142.119 25.9933 142.425 26.2453 142.598 26.4904C142.766 26.7303 142.852 27.0586 142.852 27.4642C142.852 28.618 141.988 29.1794 140.209 29.1794C139.55 29.1794 138.797 29.0419 137.973 28.7703C137.148 28.4991 136.378 28.1092 135.683 27.6091L135.514 27.4875V31.4253L135.576 31.4543C136.155 31.7214 136.884 31.9466 137.744 32.124C138.603 32.3014 139.383 32.3918 140.06 32.3918C142.151 32.3918 143.834 31.8966 145.063 30.9192C146.299 29.935 146.926 28.6228 146.926 27.0176C146.926 25.8599 146.588 24.8669 145.924 24.0662C145.263 23.2719 144.117 22.5428 142.519 21.8983C141.245 21.3872 140.429 20.9628 140.093 20.6372C139.769 20.3226 139.604 19.8776 139.604 19.3141C139.604 18.8146 139.807 18.4145 140.225 18.0903C140.645 17.7645 141.231 17.5989 141.965 17.5989C142.647 17.5989 143.344 17.7065 144.037 17.9174C144.73 18.1283 145.339 18.4108 145.847 18.7566L146.014 18.8708V15.1353L145.95 15.1076C145.481 14.9067 144.863 14.7347 144.113 14.5951C143.365 14.4569 142.687 14.3869 142.097 14.3869ZM124.85 29.0472C123.366 29.0472 122.195 28.5549 121.371 27.5852C120.541 26.6106 120.121 25.2215 120.121 23.4557C120.121 21.6344 120.541 20.2089 121.372 19.217C122.196 18.2317 123.355 17.7317 124.818 17.7317C126.235 17.7317 127.364 18.2093 128.173 19.152C128.986 20.0995 129.398 21.5137 129.398 23.3563C129.398 25.2215 129.01 26.6543 128.245 27.6126C127.486 28.564 126.344 29.0472 124.85 29.0472ZM125.033 14.387C122.2 14.387 119.95 15.2169 118.347 16.8538C116.744 18.4909 115.931 20.7563 115.931 23.5878C115.931 26.2782 116.725 28.4403 118.29 30.0162C119.854 31.5928 121.984 32.3915 124.619 32.3915C127.364 32.3915 129.569 31.55 131.173 29.8905C132.775 28.2325 133.588 25.9887 133.588 23.2233C133.588 20.4919 132.826 18.3126 131.321 16.7471C129.816 15.1809 127.701 14.387 125.033 14.387ZM109.722 17.7753V14.8009H105.681V31.977H109.722V23.1908C109.722 21.6966 110.061 20.4694 110.729 19.5423C111.389 18.6263 112.268 18.1621 113.342 18.1621C113.706 18.1621 114.114 18.2221 114.557 18.3408C114.995 18.4589 115.312 18.5869 115.499 18.7217L115.669 18.8447V14.7714L115.603 14.7433C115.227 14.5834 114.695 14.5027 114.021 14.5027C113.006 14.5027 112.097 14.8289 111.319 15.4712C110.636 16.0358 110.142 16.81 109.765 17.7753H109.722ZM98.446 14.3869C96.5925 14.3869 94.9391 14.7845 93.5326 15.568C92.1235 16.3532 91.0337 17.4745 90.2922 18.9002C89.5541 20.3226 89.1793 21.9839 89.1793 23.8365C89.1793 25.4593 89.5427 26.9487 90.2609 28.2612C90.9796 29.5759 91.9968 30.6045 93.2843 31.3179C94.5701 32.0305 96.056 32.3918 97.7013 32.3918C99.6214 32.3918 101.261 32.0078 102.575 31.2509L102.628 31.2203V27.5188L102.459 27.6427C101.863 28.0763 101.198 28.4225 100.482 28.6719C99.7677 28.9212 99.1166 29.0471 98.5459 29.0471C96.9605 29.0471 95.6879 28.551 94.764 27.5731C93.838 26.5937 93.3686 25.2187 93.3686 23.4883C93.3686 21.7469 93.8582 20.3366 94.8231 19.2958C95.7849 18.2581 97.0599 17.7318 98.6125 17.7318C99.9406 17.7318 101.235 18.1816 102.459 19.0697L102.628 19.1927V15.2925L102.574 15.2617C102.113 15.0038 101.485 14.7909 100.704 14.6293C99.9277 14.4683 99.1681 14.3869 98.446 14.3869ZM86.3966 14.8009H82.3562V31.977H86.3966V14.8009ZM84.4176 7.48372C83.7527 7.48372 83.1727 7.71005 82.6962 8.15864C82.2177 8.60858 81.9749 9.17498 81.9749 9.84333C81.9749 10.5013 82.2148 11.0572 82.6885 11.4952C83.1593 11.9318 83.7411 12.1531 84.4176 12.1531C85.0939 12.1531 85.678 11.9318 86.1544 11.4959C86.634 11.0572 86.8771 10.5013 86.8771 9.84333C86.8771 9.19831 86.6406 8.63758 86.1741 8.17676C85.7083 7.71684 85.1172 7.48372 84.4176 7.48372ZM74.3367 13.5337V31.9769H78.4601V8.00969H72.7533L65.4994 25.8118L58.46 8.00969H52.5208V31.9769H56.3956V13.5318H56.5288L63.9622 31.9769H66.8864L74.2037 13.5337H74.3367Z" fill="#111111"/>
<path d="M19.5452 19.007H0.53833V0H19.5452V19.007Z" fill="#F1511B"/>
<path d="M40.5311 19.007H21.5244V0H40.5311V19.007Z" fill="#80CC28"/>
<path d="M19.5447 39.9991H0.53833V20.9922H19.5447V39.9991Z" fill="#00ADEF"/>
<path d="M40.5311 39.9991H21.5244V20.9922H40.5311V39.9991Z" fill="#FBBC09"/>
</svg>
