<svg width="288" height="58" viewBox="0 0 288 58" fill="none" xmlns="http://www.w3.org/2000/svg">
<g filter="url(#filter0_d_1480_11454)">
<path d="M259.281 -0.00878906H8.50865C5.12262 -0.00878906 3.26821 3.93582 5.42849 6.5432L19.4273 23.4392C20.6537 24.9195 20.6537 27.0629 19.4273 28.5432L5.42849 45.4392C3.26821 48.0466 5.1226 51.9912 8.50863 51.9912H259.281C260.369 51.9912 261.41 51.5483 262.164 50.7646L283.332 28.7646C284.822 27.2159 284.822 24.7665 283.332 23.2178L262.164 1.21782C261.41 0.434088 260.369 -0.00878906 259.281 -0.00878906Z" fill="#059E93"/>
<path d="M8.50865 0.491211H259.281C260.233 0.491211 261.144 0.87873 261.803 1.5645L282.971 23.5645C284.275 24.9196 284.275 27.0628 282.971 28.4179L261.803 50.4179C261.144 51.1037 260.233 51.4912 259.281 51.4912H8.50863C5.54586 51.4912 3.92327 48.0397 5.81351 45.7582L19.8123 28.8622C21.1921 27.1969 21.1921 24.7856 19.8123 23.1202L5.81351 6.2242C3.92327 3.94275 5.54587 0.491211 8.50865 0.491211Z" stroke="#035E57"/>
</g>
<rect width="240" height="28" transform="translate(28 11.9912)" fill="#059E93"/>
<path d="M29.758 30.9912C29.6553 30.9912 29.576 30.9632 29.52 30.9072C29.464 30.8419 29.436 30.7625 29.436 30.6692V21.5272C29.436 21.4245 29.464 21.3452 29.52 21.2892C29.576 21.2239 29.6553 21.1912 29.758 21.1912H33.594C34.294 21.1912 34.8633 21.3079 35.302 21.5412C35.75 21.7652 36.0766 22.0732 36.282 22.4652C36.4966 22.8572 36.604 23.2959 36.604 23.7812C36.604 24.1639 36.5386 24.4952 36.408 24.7752C36.2866 25.0459 36.1326 25.2699 35.946 25.4472C35.7593 25.6152 35.5773 25.7459 35.4 25.8392C35.764 26.0165 36.086 26.3059 36.366 26.7072C36.6553 27.1085 36.8 27.5939 36.8 28.1632C36.8 28.6765 36.6833 29.1479 36.45 29.5772C36.2166 30.0065 35.8666 30.3519 35.4 30.6132C34.9426 30.8652 34.3733 30.9912 33.692 30.9912H29.758ZM30.808 29.8572H33.51C34.1166 29.8572 34.5833 29.6939 34.91 29.3672C35.2366 29.0405 35.4 28.6392 35.4 28.1632C35.4 27.6685 35.2366 27.2625 34.91 26.9452C34.5833 26.6185 34.1166 26.4552 33.51 26.4552H30.808V29.8572ZM30.808 25.3352H33.384C33.9813 25.3352 34.434 25.1999 34.742 24.9292C35.05 24.6492 35.204 24.2712 35.204 23.7952C35.204 23.3192 35.05 22.9552 34.742 22.7032C34.434 22.4512 33.9813 22.3252 33.384 22.3252H30.808V25.3352ZM38.6615 30.9912C38.5682 30.9912 38.4889 30.9632 38.4235 30.9072C38.3675 30.8419 38.3395 30.7625 38.3395 30.6692V21.3732C38.3395 21.2799 38.3675 21.2052 38.4235 21.1492C38.4889 21.0839 38.5682 21.0512 38.6615 21.0512H39.3195C39.4222 21.0512 39.5015 21.0839 39.5575 21.1492C39.6135 21.2052 39.6415 21.2799 39.6415 21.3732V30.6692C39.6415 30.7625 39.6135 30.8419 39.5575 30.9072C39.5015 30.9632 39.4222 30.9912 39.3195 30.9912H38.6615ZM44.4318 31.1312C43.7225 31.1312 43.1298 30.9959 42.6538 30.7252C42.1778 30.4545 41.8138 30.0812 41.5618 29.6052C41.3098 29.1199 41.1698 28.5692 41.1418 27.9532C41.1325 27.7945 41.1278 27.5939 41.1278 27.3512C41.1278 27.0992 41.1325 26.8985 41.1418 26.7492C41.1698 26.1239 41.3098 25.5732 41.5618 25.0972C41.8232 24.6212 42.1918 24.2479 42.6678 23.9772C43.1438 23.7065 43.7318 23.5712 44.4318 23.5712C45.1318 23.5712 45.7198 23.7065 46.1958 23.9772C46.6718 24.2479 47.0358 24.6212 47.2878 25.0972C47.5492 25.5732 47.6938 26.1239 47.7218 26.7492C47.7312 26.8985 47.7358 27.0992 47.7358 27.3512C47.7358 27.5939 47.7312 27.7945 47.7218 27.9532C47.6938 28.5692 47.5538 29.1199 47.3018 29.6052C47.0498 30.0812 46.6858 30.4545 46.2098 30.7252C45.7338 30.9959 45.1412 31.1312 44.4318 31.1312ZM44.4318 30.0532C45.0105 30.0532 45.4725 29.8712 45.8178 29.5072C46.1632 29.1339 46.3498 28.5925 46.3778 27.8832C46.3872 27.7432 46.3918 27.5659 46.3918 27.3512C46.3918 27.1365 46.3872 26.9592 46.3778 26.8192C46.3498 26.1099 46.1632 25.5732 45.8178 25.2092C45.4725 24.8359 45.0105 24.6492 44.4318 24.6492C43.8532 24.6492 43.3865 24.8359 43.0318 25.2092C42.6865 25.5732 42.5045 26.1099 42.4858 26.8192C42.4765 26.9592 42.4718 27.1365 42.4718 27.3512C42.4718 27.5659 42.4765 27.7432 42.4858 27.8832C42.5045 28.5925 42.6865 29.1339 43.0318 29.5072C43.3865 29.8712 43.8532 30.0532 44.4318 30.0532ZM52.1489 31.1312C51.4862 31.1312 50.9122 31.0052 50.4269 30.7532C49.9509 30.4919 49.5822 30.1232 49.3209 29.6472C49.0596 29.1619 48.9196 28.5832 48.9009 27.9112C48.8916 27.7712 48.8869 27.5845 48.8869 27.3512C48.8869 27.1179 48.8916 26.9312 48.9009 26.7912C48.9196 26.1192 49.0596 25.5452 49.3209 25.0692C49.5822 24.5839 49.9509 24.2152 50.4269 23.9632C50.9122 23.7019 51.4862 23.5712 52.1489 23.5712C52.6902 23.5712 53.1522 23.6459 53.5349 23.7952C53.9269 23.9445 54.2489 24.1359 54.5009 24.3692C54.7529 24.6025 54.9396 24.8545 55.0609 25.1252C55.1916 25.3959 55.2616 25.6525 55.2709 25.8952C55.2802 25.9885 55.2522 26.0632 55.1869 26.1192C55.1216 26.1752 55.0422 26.2032 54.9489 26.2032H54.2769C54.1836 26.2032 54.1136 26.1845 54.0669 26.1472C54.0202 26.1005 53.9736 26.0259 53.9269 25.9232C53.7589 25.4659 53.5302 25.1439 53.2409 24.9572C52.9516 24.7705 52.5922 24.6772 52.1629 24.6772C51.6029 24.6772 51.1456 24.8499 50.7909 25.1952C50.4456 25.5405 50.2589 26.0959 50.2309 26.8612C50.2216 27.1972 50.2216 27.5239 50.2309 27.8412C50.2589 28.6159 50.4456 29.1759 50.7909 29.5212C51.1456 29.8572 51.6029 30.0252 52.1629 30.0252C52.5922 30.0252 52.9516 29.9319 53.2409 29.7452C53.5302 29.5585 53.7589 29.2365 53.9269 28.7792C53.9736 28.6765 54.0202 28.6065 54.0669 28.5692C54.1136 28.5225 54.1836 28.4992 54.2769 28.4992H54.9489C55.0422 28.4992 55.1216 28.5272 55.1869 28.5832C55.2522 28.6392 55.2802 28.7139 55.2709 28.8072C55.2616 29.0032 55.2196 29.2039 55.1449 29.4092C55.0702 29.6145 54.9489 29.8245 54.7809 30.0392C54.6222 30.2445 54.4216 30.4312 54.1789 30.5992C53.9362 30.7579 53.6422 30.8885 53.2969 30.9912C52.9609 31.0845 52.5782 31.1312 52.1489 31.1312ZM56.9895 30.9912C56.8962 30.9912 56.8168 30.9632 56.7515 30.9072C56.6955 30.8419 56.6675 30.7625 56.6675 30.6692V21.3732C56.6675 21.2799 56.6955 21.2052 56.7515 21.1492C56.8168 21.0839 56.8962 21.0512 56.9895 21.0512H57.6475C57.7408 21.0512 57.8155 21.0839 57.8715 21.1492C57.9368 21.2052 57.9695 21.2799 57.9695 21.3732V26.2452L60.7275 23.9492C60.8395 23.8559 60.9235 23.7952 60.9795 23.7672C61.0448 23.7299 61.1475 23.7112 61.2875 23.7112H62.0295C62.1135 23.7112 62.1835 23.7392 62.2395 23.7952C62.2955 23.8512 62.3235 23.9212 62.3235 24.0052C62.3235 24.0425 62.3095 24.0845 62.2815 24.1312C62.2628 24.1779 62.2208 24.2245 62.1555 24.2712L58.9215 26.9592L62.5055 30.4452C62.6175 30.5385 62.6735 30.6225 62.6735 30.6972C62.6735 30.7812 62.6455 30.8512 62.5895 30.9072C62.5335 30.9632 62.4635 30.9912 62.3795 30.9912H61.6515C61.5115 30.9912 61.4088 30.9772 61.3435 30.9492C61.2782 30.9119 61.1942 30.8465 61.0915 30.7532L57.9695 27.7712V30.6692C57.9695 30.7625 57.9368 30.8419 57.8715 30.9072C57.8155 30.9632 57.7408 30.9912 57.6475 30.9912H56.9895ZM66.1905 31.1312C65.5278 31.1312 64.9538 31.0052 64.4685 30.7532C63.9925 30.4919 63.6238 30.1232 63.3625 29.6472C63.1011 29.1619 62.9611 28.5832 62.9425 27.9112C62.9331 27.7712 62.9285 27.5845 62.9285 27.3512C62.9285 27.1179 62.9331 26.9312 62.9425 26.7912C62.9611 26.1192 63.1011 25.5452 63.3625 25.0692C63.6238 24.5839 63.9925 24.2152 64.4685 23.9632C64.9538 23.7019 65.5278 23.5712 66.1905 23.5712C66.7318 23.5712 67.1938 23.6459 67.5765 23.7952C67.9685 23.9445 68.2905 24.1359 68.5425 24.3692C68.7945 24.6025 68.9811 24.8545 69.1025 25.1252C69.2331 25.3959 69.3031 25.6525 69.3125 25.8952C69.3218 25.9885 69.2938 26.0632 69.2285 26.1192C69.1631 26.1752 69.0838 26.2032 68.9905 26.2032H68.3185C68.2251 26.2032 68.1551 26.1845 68.1085 26.1472C68.0618 26.1005 68.0151 26.0259 67.9685 25.9232C67.8005 25.4659 67.5718 25.1439 67.2825 24.9572C66.9931 24.7705 66.6338 24.6772 66.2045 24.6772C65.6445 24.6772 65.1871 24.8499 64.8325 25.1952C64.4871 25.5405 64.3005 26.0959 64.2725 26.8612C64.2631 27.1972 64.2631 27.5239 64.2725 27.8412C64.3005 28.6159 64.4871 29.1759 64.8325 29.5212C65.1871 29.8572 65.6445 30.0252 66.2045 30.0252C66.6338 30.0252 66.9931 29.9319 67.2825 29.7452C67.5718 29.5585 67.8005 29.2365 67.9685 28.7792C68.0151 28.6765 68.0618 28.6065 68.1085 28.5692C68.1551 28.5225 68.2251 28.4992 68.3185 28.4992H68.9905C69.0838 28.4992 69.1631 28.5272 69.2285 28.5832C69.2938 28.6392 69.3218 28.7139 69.3125 28.8072C69.3031 29.0032 69.2611 29.2039 69.1865 29.4092C69.1118 29.6145 68.9905 29.8245 68.8225 30.0392C68.6638 30.2445 68.4631 30.4312 68.2205 30.5992C67.9778 30.7579 67.6838 30.8885 67.3385 30.9912C67.0025 31.0845 66.6198 31.1312 66.1905 31.1312ZM71.0311 30.9912C70.9377 30.9912 70.8584 30.9632 70.7931 30.9072C70.7371 30.8419 70.7091 30.7625 70.7091 30.6692V21.3732C70.7091 21.2799 70.7371 21.2052 70.7931 21.1492C70.8584 21.0839 70.9377 21.0512 71.0311 21.0512H71.7311C71.8337 21.0512 71.9131 21.0839 71.9691 21.1492C72.0251 21.2052 72.0531 21.2799 72.0531 21.3732V24.6352C72.3051 24.3179 72.6131 24.0612 72.9771 23.8652C73.3411 23.6692 73.8031 23.5712 74.3631 23.5712C74.9697 23.5712 75.4831 23.7065 75.9031 23.9772C76.3324 24.2385 76.6544 24.6072 76.8691 25.0832C77.0931 25.5499 77.2051 26.0959 77.2051 26.7212V30.6692C77.2051 30.7625 77.1771 30.8419 77.1211 30.9072C77.0651 30.9632 76.9857 30.9912 76.8831 30.9912H76.1831C76.0897 30.9912 76.0104 30.9632 75.9451 30.9072C75.8891 30.8419 75.8611 30.7625 75.8611 30.6692V26.7912C75.8611 26.1379 75.7024 25.6292 75.3851 25.2652C75.0677 24.8919 74.6011 24.7052 73.9851 24.7052C73.4064 24.7052 72.9397 24.8919 72.5851 25.2652C72.2304 25.6292 72.0531 26.1379 72.0531 26.7912V30.6692C72.0531 30.7625 72.0251 30.8419 71.9691 30.9072C71.9131 30.9632 71.8337 30.9912 71.7311 30.9912H71.0311ZM80.9763 31.1312C80.5096 31.1312 80.085 31.0379 79.7023 30.8512C79.3196 30.6645 79.0116 30.4125 78.7783 30.0952C78.545 29.7779 78.4283 29.4185 78.4283 29.0172C78.4283 28.3732 78.6896 27.8599 79.2123 27.4772C79.735 27.0945 80.4163 26.8425 81.2563 26.7212L83.3423 26.4272V26.0212C83.3423 25.5732 83.2116 25.2232 82.9503 24.9712C82.6983 24.7192 82.283 24.5932 81.7043 24.5932C81.2843 24.5932 80.9436 24.6772 80.6823 24.8452C80.4303 25.0132 80.253 25.2279 80.1503 25.4892C80.0943 25.6292 79.9963 25.6992 79.8563 25.6992H79.2263C79.1236 25.6992 79.0443 25.6712 78.9883 25.6152C78.9416 25.5499 78.9183 25.4752 78.9183 25.3912C78.9183 25.2512 78.9696 25.0785 79.0723 24.8732C79.1843 24.6679 79.3523 24.4672 79.5763 24.2712C79.8003 24.0752 80.085 23.9119 80.4303 23.7812C80.785 23.6412 81.2143 23.5712 81.7183 23.5712C82.2783 23.5712 82.7497 23.6459 83.1323 23.7952C83.515 23.9352 83.8137 24.1265 84.0283 24.3692C84.2523 24.6119 84.411 24.8872 84.5043 25.1952C84.607 25.5032 84.6583 25.8159 84.6583 26.1332V30.6692C84.6583 30.7625 84.6257 30.8419 84.5603 30.9072C84.5043 30.9632 84.4297 30.9912 84.3363 30.9912H83.6923C83.5896 30.9912 83.5103 30.9632 83.4543 30.9072C83.3983 30.8419 83.3703 30.7625 83.3703 30.6692V30.0672C83.249 30.2352 83.0856 30.4032 82.8803 30.5712C82.675 30.7299 82.4183 30.8652 82.1103 30.9772C81.8023 31.0799 81.4243 31.1312 80.9763 31.1312ZM81.2703 30.0812C81.653 30.0812 82.003 30.0019 82.3203 29.8432C82.6376 29.6752 82.885 29.4185 83.0623 29.0732C83.249 28.7279 83.3423 28.2939 83.3423 27.7712V27.3792L81.7183 27.6172C81.0556 27.7105 80.5563 27.8692 80.2203 28.0932C79.8843 28.3079 79.7163 28.5832 79.7163 28.9192C79.7163 29.1805 79.791 29.3999 79.9403 29.5772C80.099 29.7452 80.295 29.8712 80.5283 29.9552C80.771 30.0392 81.0183 30.0812 81.2703 30.0812ZM86.7129 30.9912C86.6196 30.9912 86.5403 30.9632 86.4749 30.9072C86.4189 30.8419 86.3909 30.7625 86.3909 30.6692V24.0332C86.3909 23.9399 86.4189 23.8652 86.4749 23.8092C86.5403 23.7439 86.6196 23.7112 86.7129 23.7112H87.3849C87.4783 23.7112 87.5529 23.7439 87.6089 23.8092C87.6649 23.8652 87.6929 23.9399 87.6929 24.0332V30.6692C87.6929 30.7625 87.6649 30.8419 87.6089 30.9072C87.5529 30.9632 87.4783 30.9912 87.3849 30.9912H86.7129ZM86.6009 22.3532C86.5076 22.3532 86.4283 22.3252 86.3629 22.2692C86.3069 22.2039 86.2789 22.1245 86.2789 22.0312V21.2752C86.2789 21.1819 86.3069 21.1072 86.3629 21.0512C86.4283 20.9859 86.5076 20.9532 86.6009 20.9532H87.4829C87.5763 20.9532 87.6509 20.9859 87.7069 21.0512C87.7723 21.1072 87.8049 21.1819 87.8049 21.2752V22.0312C87.8049 22.1245 87.7723 22.2039 87.7069 22.2692C87.6509 22.3252 87.5763 22.3532 87.4829 22.3532H86.6009ZM89.8235 30.9912C89.7302 30.9912 89.6509 30.9632 89.5855 30.9072C89.5295 30.8419 89.5015 30.7625 89.5015 30.6692V24.0332C89.5015 23.9399 89.5295 23.8652 89.5855 23.8092C89.6509 23.7439 89.7302 23.7112 89.8235 23.7112H90.4815C90.5749 23.7112 90.6495 23.7439 90.7055 23.8092C90.7709 23.8652 90.8035 23.9399 90.8035 24.0332V24.6492C91.0462 24.3319 91.3495 24.0752 91.7135 23.8792C92.0869 23.6739 92.5629 23.5712 93.1415 23.5712C93.7482 23.5712 94.2615 23.7065 94.6815 23.9772C95.1109 24.2385 95.4329 24.6072 95.6475 25.0832C95.8622 25.5499 95.9695 26.0959 95.9695 26.7212V30.6692C95.9695 30.7625 95.9415 30.8419 95.8855 30.9072C95.8296 30.9632 95.7549 30.9912 95.6615 30.9912H94.9615C94.8682 30.9912 94.7889 30.9632 94.7235 30.9072C94.6675 30.8419 94.6395 30.7625 94.6395 30.6692V26.7912C94.6395 26.1379 94.4809 25.6292 94.1635 25.2652C93.8462 24.8919 93.3795 24.7052 92.7635 24.7052C92.1849 24.7052 91.7182 24.8919 91.3635 25.2652C91.0182 25.6292 90.8455 26.1379 90.8455 26.7912V30.6692C90.8455 30.7625 90.8129 30.8419 90.7475 30.9072C90.6915 30.9632 90.6169 30.9912 90.5235 30.9912H89.8235ZM101.367 30.9912C101.265 30.9912 101.185 30.9632 101.129 30.9072C101.073 30.8419 101.045 30.7625 101.045 30.6692V21.5272C101.045 21.4245 101.073 21.3452 101.129 21.2892C101.185 21.2239 101.265 21.1912 101.367 21.1912H104.923C105.614 21.1912 106.211 21.3032 106.715 21.5272C107.229 21.7512 107.625 22.0872 107.905 22.5352C108.185 22.9739 108.325 23.5245 108.325 24.1872C108.325 24.8499 108.185 25.4005 107.905 25.8392C107.625 26.2779 107.229 26.6092 106.715 26.8332C106.211 27.0572 105.614 27.1692 104.923 27.1692H102.445V30.6692C102.445 30.7625 102.413 30.8419 102.347 30.9072C102.291 30.9632 102.212 30.9912 102.109 30.9912H101.367ZM102.431 25.9932H104.853C105.544 25.9932 106.062 25.8392 106.407 25.5312C106.753 25.2232 106.925 24.7752 106.925 24.1872C106.925 23.6085 106.757 23.1605 106.421 22.8432C106.085 22.5259 105.563 22.3672 104.853 22.3672H102.431V25.9932ZM109.888 30.9912C109.795 30.9912 109.715 30.9632 109.65 30.9072C109.594 30.8419 109.566 30.7625 109.566 30.6692V24.0472C109.566 23.9539 109.594 23.8745 109.65 23.8092C109.715 23.7439 109.795 23.7112 109.888 23.7112H110.532C110.625 23.7112 110.705 23.7439 110.77 23.8092C110.835 23.8745 110.868 23.9539 110.868 24.0472V24.6632C111.055 24.3459 111.311 24.1079 111.638 23.9492C111.965 23.7905 112.357 23.7112 112.814 23.7112H113.374C113.467 23.7112 113.542 23.7439 113.598 23.8092C113.654 23.8652 113.682 23.9399 113.682 24.0332V24.6072C113.682 24.7005 113.654 24.7752 113.598 24.8312C113.542 24.8872 113.467 24.9152 113.374 24.9152H112.534C112.03 24.9152 111.633 25.0645 111.344 25.3632C111.055 25.6525 110.91 26.0492 110.91 26.5532V30.6692C110.91 30.7625 110.877 30.8419 110.812 30.9072C110.747 30.9632 110.667 30.9912 110.574 30.9912H109.888ZM117.449 31.1312C116.74 31.1312 116.147 30.9959 115.671 30.7252C115.195 30.4545 114.831 30.0812 114.579 29.6052C114.327 29.1199 114.187 28.5692 114.159 27.9532C114.15 27.7945 114.145 27.5939 114.145 27.3512C114.145 27.0992 114.15 26.8985 114.159 26.7492C114.187 26.1239 114.327 25.5732 114.579 25.0972C114.841 24.6212 115.209 24.2479 115.685 23.9772C116.161 23.7065 116.749 23.5712 117.449 23.5712C118.149 23.5712 118.737 23.7065 119.213 23.9772C119.689 24.2479 120.053 24.6212 120.305 25.0972C120.567 25.5732 120.711 26.1239 120.739 26.7492C120.749 26.8985 120.753 27.0992 120.753 27.3512C120.753 27.5939 120.749 27.7945 120.739 27.9532C120.711 28.5692 120.571 29.1199 120.319 29.6052C120.067 30.0812 119.703 30.4545 119.227 30.7252C118.751 30.9959 118.159 31.1312 117.449 31.1312ZM117.449 30.0532C118.028 30.0532 118.49 29.8712 118.835 29.5072C119.181 29.1339 119.367 28.5925 119.395 27.8832C119.405 27.7432 119.409 27.5659 119.409 27.3512C119.409 27.1365 119.405 26.9592 119.395 26.8192C119.367 26.1099 119.181 25.5732 118.835 25.2092C118.49 24.8359 118.028 24.6492 117.449 24.6492C116.871 24.6492 116.404 24.8359 116.049 25.2092C115.704 25.5732 115.522 26.1099 115.503 26.8192C115.494 26.9592 115.489 27.1365 115.489 27.3512C115.489 27.5659 115.494 27.7432 115.503 27.8832C115.522 28.5925 115.704 29.1339 116.049 29.5072C116.404 29.8712 116.871 30.0532 117.449 30.0532ZM123.195 30.9912C123.101 30.9912 123.022 30.9632 122.957 30.9072C122.901 30.8419 122.873 30.7625 122.873 30.6692V24.8312H121.683C121.589 24.8312 121.51 24.8032 121.445 24.7472C121.389 24.6819 121.361 24.6025 121.361 24.5092V24.0332C121.361 23.9399 121.389 23.8652 121.445 23.8092C121.51 23.7439 121.589 23.7112 121.683 23.7112H122.873V23.0112C122.873 22.5352 122.952 22.1199 123.111 21.7652C123.269 21.4012 123.521 21.1212 123.867 20.9252C124.221 20.7292 124.693 20.6312 125.281 20.6312H127.437C127.53 20.6312 127.605 20.6639 127.661 20.7292C127.726 20.7852 127.759 20.8599 127.759 20.9532V21.4292C127.759 21.5225 127.726 21.6019 127.661 21.6672C127.605 21.7232 127.53 21.7512 127.437 21.7512H125.309C124.87 21.7512 124.571 21.8679 124.413 22.1012C124.254 22.3252 124.175 22.6519 124.175 23.0812V23.7112H127.437C127.53 23.7112 127.605 23.7439 127.661 23.8092C127.726 23.8652 127.759 23.9399 127.759 24.0332V30.6692C127.759 30.7625 127.726 30.8419 127.661 30.9072C127.605 30.9632 127.53 30.9912 127.437 30.9912H126.793C126.69 30.9912 126.611 30.9632 126.555 30.9072C126.499 30.8419 126.471 30.7625 126.471 30.6692V24.8312H124.175V30.6692C124.175 30.7625 124.142 30.8419 124.077 30.9072C124.021 30.9632 123.946 30.9912 123.853 30.9912H123.195ZM132.488 31.1312C131.825 31.1312 131.251 31.0052 130.766 30.7532C130.29 30.4919 129.921 30.1232 129.66 29.6472C129.399 29.1619 129.259 28.5832 129.24 27.9112C129.231 27.7712 129.226 27.5845 129.226 27.3512C129.226 27.1179 129.231 26.9312 129.24 26.7912C129.259 26.1192 129.399 25.5452 129.66 25.0692C129.921 24.5839 130.29 24.2152 130.766 23.9632C131.251 23.7019 131.825 23.5712 132.488 23.5712C133.029 23.5712 133.491 23.6459 133.874 23.7952C134.266 23.9445 134.588 24.1359 134.84 24.3692C135.092 24.6025 135.279 24.8545 135.4 25.1252C135.531 25.3959 135.601 25.6525 135.61 25.8952C135.619 25.9885 135.591 26.0632 135.526 26.1192C135.461 26.1752 135.381 26.2032 135.288 26.2032H134.616C134.523 26.2032 134.453 26.1845 134.406 26.1472C134.359 26.1005 134.313 26.0259 134.266 25.9232C134.098 25.4659 133.869 25.1439 133.58 24.9572C133.291 24.7705 132.931 24.6772 132.502 24.6772C131.942 24.6772 131.485 24.8499 131.13 25.1952C130.785 25.5405 130.598 26.0959 130.57 26.8612C130.561 27.1972 130.561 27.5239 130.57 27.8412C130.598 28.6159 130.785 29.1759 131.13 29.5212C131.485 29.8572 131.942 30.0252 132.502 30.0252C132.931 30.0252 133.291 29.9319 133.58 29.7452C133.869 29.5585 134.098 29.2365 134.266 28.7792C134.313 28.6765 134.359 28.6065 134.406 28.5692C134.453 28.5225 134.523 28.4992 134.616 28.4992H135.288C135.381 28.4992 135.461 28.5272 135.526 28.5832C135.591 28.6392 135.619 28.7139 135.61 28.8072C135.601 29.0032 135.559 29.2039 135.484 29.4092C135.409 29.6145 135.288 29.8245 135.12 30.0392C134.961 30.2445 134.761 30.4312 134.518 30.5992C134.275 30.7579 133.981 30.8885 133.636 30.9912C133.3 31.0845 132.917 31.1312 132.488 31.1312ZM137.315 30.9912C137.221 30.9912 137.142 30.9632 137.077 30.9072C137.021 30.8419 136.993 30.7625 136.993 30.6692V24.0332C136.993 23.9399 137.021 23.8652 137.077 23.8092C137.142 23.7439 137.221 23.7112 137.315 23.7112H137.987C138.08 23.7112 138.155 23.7439 138.211 23.8092C138.267 23.8652 138.295 23.9399 138.295 24.0332V30.6692C138.295 30.7625 138.267 30.8419 138.211 30.9072C138.155 30.9632 138.08 30.9912 137.987 30.9912H137.315ZM137.203 22.3532C137.109 22.3532 137.03 22.3252 136.965 22.2692C136.909 22.2039 136.881 22.1245 136.881 22.0312V21.2752C136.881 21.1819 136.909 21.1072 136.965 21.0512C137.03 20.9859 137.109 20.9532 137.203 20.9532H138.085C138.178 20.9532 138.253 20.9859 138.309 21.0512C138.374 21.1072 138.407 21.1819 138.407 21.2752V22.0312C138.407 22.1245 138.374 22.2039 138.309 22.2692C138.253 22.3252 138.178 22.3532 138.085 22.3532H137.203ZM143.001 31.1312C142.04 31.1312 141.275 30.8372 140.705 30.2492C140.136 29.6519 139.823 28.8399 139.767 27.8132C139.758 27.6919 139.753 27.5379 139.753 27.3512C139.753 27.1552 139.758 26.9965 139.767 26.8752C139.805 26.2125 139.959 25.6339 140.229 25.1392C140.5 24.6352 140.869 24.2479 141.335 23.9772C141.811 23.7065 142.367 23.5712 143.001 23.5712C143.711 23.5712 144.303 23.7205 144.779 24.0192C145.265 24.3179 145.633 24.7425 145.885 25.2932C146.137 25.8439 146.263 26.4879 146.263 27.2252V27.4632C146.263 27.5659 146.231 27.6452 146.165 27.7012C146.109 27.7572 146.035 27.7852 145.941 27.7852H141.097C141.097 27.7945 141.097 27.8132 141.097 27.8412C141.097 27.8692 141.097 27.8925 141.097 27.9112C141.116 28.2939 141.2 28.6532 141.349 28.9892C141.499 29.3159 141.713 29.5819 141.993 29.7872C142.273 29.9925 142.609 30.0952 143.001 30.0952C143.337 30.0952 143.617 30.0439 143.841 29.9412C144.065 29.8385 144.247 29.7265 144.387 29.6052C144.527 29.4745 144.621 29.3765 144.667 29.3112C144.751 29.1899 144.817 29.1199 144.863 29.1012C144.91 29.0732 144.985 29.0592 145.087 29.0592H145.759C145.853 29.0592 145.927 29.0872 145.983 29.1432C146.049 29.1899 146.077 29.2599 146.067 29.3532C146.058 29.4932 145.983 29.6659 145.843 29.8712C145.703 30.0672 145.503 30.2632 145.241 30.4592C144.98 30.6552 144.663 30.8185 144.289 30.9492C143.916 31.0705 143.487 31.1312 143.001 31.1312ZM141.097 26.8192H144.933V26.7772C144.933 26.3572 144.854 25.9839 144.695 25.6572C144.546 25.3305 144.327 25.0739 144.037 24.8872C143.748 24.6912 143.403 24.5932 143.001 24.5932C142.6 24.5932 142.255 24.6912 141.965 24.8872C141.685 25.0739 141.471 25.3305 141.321 25.6572C141.172 25.9839 141.097 26.3572 141.097 26.7772V26.8192ZM147.979 30.9912C147.886 30.9912 147.807 30.9632 147.741 30.9072C147.685 30.8419 147.657 30.7625 147.657 30.6692V24.0332C147.657 23.9399 147.685 23.8652 147.741 23.8092C147.807 23.7439 147.886 23.7112 147.979 23.7112H148.637C148.731 23.7112 148.805 23.7439 148.861 23.8092C148.927 23.8652 148.959 23.9399 148.959 24.0332V24.6492C149.202 24.3319 149.505 24.0752 149.869 23.8792C150.243 23.6739 150.719 23.5712 151.297 23.5712C151.904 23.5712 152.417 23.7065 152.837 23.9772C153.267 24.2385 153.589 24.6072 153.803 25.0832C154.018 25.5499 154.125 26.0959 154.125 26.7212V30.6692C154.125 30.7625 154.097 30.8419 154.041 30.9072C153.985 30.9632 153.911 30.9912 153.817 30.9912H153.117C153.024 30.9912 152.945 30.9632 152.879 30.9072C152.823 30.8419 152.795 30.7625 152.795 30.6692V26.7912C152.795 26.1379 152.637 25.6292 152.319 25.2652C152.002 24.8919 151.535 24.7052 150.919 24.7052C150.341 24.7052 149.874 24.8919 149.519 25.2652C149.174 25.6292 149.001 26.1379 149.001 26.7912V30.6692C149.001 30.7625 148.969 30.8419 148.903 30.9072C148.847 30.9632 148.773 30.9912 148.679 30.9912H147.979ZM158.808 31.1312C158.145 31.1312 157.571 31.0052 157.086 30.7532C156.61 30.4919 156.241 30.1232 155.98 29.6472C155.718 29.1619 155.578 28.5832 155.56 27.9112C155.55 27.7712 155.546 27.5845 155.546 27.3512C155.546 27.1179 155.55 26.9312 155.56 26.7912C155.578 26.1192 155.718 25.5452 155.98 25.0692C156.241 24.5839 156.61 24.2152 157.086 23.9632C157.571 23.7019 158.145 23.5712 158.808 23.5712C159.349 23.5712 159.811 23.6459 160.194 23.7952C160.586 23.9445 160.908 24.1359 161.16 24.3692C161.412 24.6025 161.598 24.8545 161.72 25.1252C161.85 25.3959 161.92 25.6525 161.93 25.8952C161.939 25.9885 161.911 26.0632 161.846 26.1192C161.78 26.1752 161.701 26.2032 161.608 26.2032H160.936C160.842 26.2032 160.772 26.1845 160.726 26.1472C160.679 26.1005 160.632 26.0259 160.586 25.9232C160.418 25.4659 160.189 25.1439 159.9 24.9572C159.61 24.7705 159.251 24.6772 158.822 24.6772C158.262 24.6772 157.804 24.8499 157.45 25.1952C157.104 25.5405 156.918 26.0959 156.89 26.8612C156.88 27.1972 156.88 27.5239 156.89 27.8412C156.918 28.6159 157.104 29.1759 157.45 29.5212C157.804 29.8572 158.262 30.0252 158.822 30.0252C159.251 30.0252 159.61 29.9319 159.9 29.7452C160.189 29.5585 160.418 29.2365 160.586 28.7792C160.632 28.6765 160.679 28.6065 160.726 28.5692C160.772 28.5225 160.842 28.4992 160.936 28.4992H161.608C161.701 28.4992 161.78 28.5272 161.846 28.5832C161.911 28.6392 161.939 28.7139 161.93 28.8072C161.92 29.0032 161.878 29.2039 161.804 29.4092C161.729 29.6145 161.608 29.8245 161.44 30.0392C161.281 30.2445 161.08 30.4312 160.838 30.5992C160.595 30.7579 160.301 30.8885 159.956 30.9912C159.62 31.0845 159.237 31.1312 158.808 31.1312ZM164.381 33.6512C164.306 33.6512 164.241 33.6232 164.185 33.5672C164.129 33.5112 164.101 33.4459 164.101 33.3712C164.101 33.3339 164.106 33.2965 164.115 33.2592C164.124 33.2219 164.143 33.1752 164.171 33.1192L165.249 30.5572L162.575 24.2432C162.528 24.1312 162.505 24.0519 162.505 24.0052C162.505 23.9212 162.533 23.8512 162.589 23.7952C162.645 23.7392 162.715 23.7112 162.799 23.7112H163.485C163.578 23.7112 163.653 23.7345 163.709 23.7812C163.765 23.8279 163.802 23.8839 163.821 23.9492L165.949 29.0452L168.133 23.9492C168.161 23.8839 168.198 23.8279 168.245 23.7812C168.301 23.7345 168.38 23.7112 168.483 23.7112H169.141C169.225 23.7112 169.295 23.7392 169.351 23.7952C169.407 23.8512 169.435 23.9165 169.435 23.9912C169.435 24.0379 169.412 24.1219 169.365 24.2432L165.389 33.4132C165.361 33.4785 165.319 33.5345 165.263 33.5812C165.216 33.6279 165.142 33.6512 165.039 33.6512H164.381Z" fill="white"/>
<rect x="240" y="11.9912" width="28" height="28" rx="14" fill="white"/>
<path d="M254.87 30.9912C254.777 30.9912 254.697 30.9632 254.632 30.9072C254.576 30.8419 254.548 30.7625 254.548 30.6692V22.8292L252.224 24.6212C252.149 24.6772 252.07 24.7005 251.986 24.6912C251.902 24.6819 251.832 24.6399 251.776 24.5652L251.412 24.1032C251.356 24.0192 251.333 23.9352 251.342 23.8512C251.361 23.7672 251.407 23.6972 251.482 23.6412L254.534 21.2892C254.599 21.2425 254.66 21.2145 254.716 21.2052C254.772 21.1959 254.833 21.1912 254.898 21.1912H255.612C255.705 21.1912 255.78 21.2239 255.836 21.2892C255.892 21.3452 255.92 21.4199 255.92 21.5132V30.6692C255.92 30.7625 255.892 30.8419 255.836 30.9072C255.78 30.9632 255.705 30.9912 255.612 30.9912H254.87Z" fill="#059E93"/>
<defs>
<filter id="filter0_d_1480_11454" x="4.50195" y="-0.00878906" width="282.947" height="58" filterUnits="userSpaceOnUse" color-interpolation-filters="sRGB">
<feFlood flood-opacity="0" result="BackgroundImageFix"/>
<feColorMatrix in="SourceAlpha" type="matrix" values="0 0 0 0 0 0 0 0 0 0 0 0 0 0 0 0 0 0 127 0" result="hardAlpha"/>
<feOffset dx="3" dy="6"/>
<feComposite in2="hardAlpha" operator="out"/>
<feColorMatrix type="matrix" values="0 0 0 0 0.0117647 0 0 0 0 0.368627 0 0 0 0 0.341176 0 0 0 1 0"/>
<feBlend mode="normal" in2="BackgroundImageFix" result="effect1_dropShadow_1480_11454"/>
<feBlend mode="normal" in="SourceGraphic" in2="effect1_dropShadow_1480_11454" result="shape"/>
</filter>
</defs>
</svg>
