<svg width="50" height="50" viewBox="0 0 50 50" fill="none" xmlns="http://www.w3.org/2000/svg">
<path d="M25.0003 45.8344C36.5063 45.8344 45.8337 36.507 45.8337 25.0011C45.8337 13.4951 36.5063 4.16772 25.0003 4.16772C13.4944 4.16772 4.16699 13.4951 4.16699 25.0011C4.16699 36.507 13.4944 45.8344 25.0003 45.8344Z" stroke="#093BAA" stroke-width="2"/>
<path d="M19.792 23.3328V26.667C19.792 29.8322 19.792 31.4147 20.7415 32.0545C21.691 32.6941 22.9895 31.9864 25.5868 30.571L28.6455 28.9037C31.7709 27.2003 33.3337 26.3487 33.3337 24.9999C33.3337 23.6512 31.7709 22.7995 28.6455 21.0962L25.5868 19.429C22.9895 18.0135 21.691 17.3057 20.7415 17.9454C19.792 18.585 19.792 20.1676 19.792 23.3328Z" fill="#093BAA"/>
</svg>
