<svg width="50" height="51" viewBox="0 0 50 51" fill="none" xmlns="http://www.w3.org/2000/svg">
<path d="M25.0003 46.4335C36.5063 46.4335 45.8337 37.1061 45.8337 25.6002C45.8337 14.0942 36.5063 4.76685 25.0003 4.76685C13.4944 4.76685 4.16699 14.0942 4.16699 25.6002C4.16699 37.1061 13.4944 46.4335 25.0003 46.4335Z" fill="white" stroke="white" stroke-width="2"/>
<path d="M19.792 23.932V27.2661C19.792 30.4313 19.792 32.0138 20.7415 32.6536C21.691 33.2932 22.9895 32.5855 25.5868 31.1701L28.6455 29.5028C31.7709 27.7995 33.3337 26.9478 33.3337 25.599C33.3337 24.2503 31.7709 23.3986 28.6455 21.6953L25.5868 20.0281C22.9895 18.6126 21.691 17.9048 20.7415 18.5445C19.792 19.1842 19.792 20.7667 19.792 23.932Z" fill="#093BAA"/>
</svg>
