<svg width="19" height="18" viewBox="0 0 19 18" fill="none" xmlns="http://www.w3.org/2000/svg">
<path d="M9.91632 -0.00195312C14.8892 -0.00195312 18.9199 4.02874 18.9199 9.00159C18.9199 13.9744 14.8892 18.0016 9.91986 18.0016C4.94702 18.0016 0.919863 13.9709 0.919863 9.00159C0.916321 4.02874 4.94702 -0.00195312 9.91632 -0.00195312Z" fill="#8247E5"/>
<mask id="mask0_2082_8696" style="mask-type:luminance" maskUnits="userSpaceOnUse" x="3" y="3" width="13" height="12">
<path d="M15.7534 3.89062H3.95532V14.2295H15.7534V3.89062Z" fill="white"/>
</mask>
<g mask="url(#mask0_2082_8696)">
<path d="M12.8667 7.03894C12.6507 6.91498 12.3744 6.91498 12.13 7.03894L10.4086 8.05902L9.23979 8.70718L7.5503 9.72371C7.33424 9.84768 7.05797 9.84768 6.81358 9.72371L5.49245 8.9197C5.27639 8.79573 5.12409 8.5478 5.12409 8.27153V6.72726C5.12409 6.47932 5.24806 6.23493 5.49245 6.07909L6.81358 5.30695C7.02964 5.18298 7.30591 5.18298 7.5503 5.30695L8.87143 6.11096C9.08749 6.23493 9.23979 6.48286 9.23979 6.75913V7.7792L10.4086 7.09916V6.05075C10.4086 5.80282 10.2847 5.55843 10.0403 5.40258L7.58218 3.9504C7.36612 3.82643 7.08985 3.82643 6.84546 3.9504L4.32716 5.43446C4.08277 5.55842 3.9588 5.80636 3.9588 6.05075V8.95158C3.9588 9.19951 4.08277 9.4439 4.32716 9.59975L6.81712 11.0519C7.03318 11.1759 7.30945 11.1759 7.55384 11.0519L9.24333 10.0637L10.4122 9.38369L12.1017 8.3955C12.3177 8.27153 12.594 8.27153 12.8384 8.3955L14.1595 9.16763C14.3756 9.2916 14.5279 9.53953 14.5279 9.8158V11.3601C14.5279 11.608 14.4039 11.8524 14.1595 12.0082L12.8703 12.7804C12.6542 12.9044 12.3779 12.9044 12.1335 12.7804L10.8089 12.0082C10.5928 11.8843 10.4405 11.6363 10.4405 11.3601V10.3719L9.27167 11.0519V12.072C9.27167 12.3199 9.39564 12.5643 9.64003 12.7202L12.13 14.1724C12.346 14.2963 12.6223 14.2963 12.8667 14.1724L15.3567 12.7202C15.5727 12.5962 15.725 12.3483 15.725 12.072V9.1393C15.725 8.89136 15.6011 8.64697 15.3567 8.49113L12.8667 7.03894Z" fill="white"/>
</g>
</svg>
