<svg width="305" height="79" viewBox="0 0 305 79" fill="none" xmlns="http://www.w3.org/2000/svg">
<path d="M276.332 5H8.64008C6.43094 5 4.64008 6.79086 4.64008 9V75C4.64008 77.2091 6.43094 79 8.64008 79H276.332C277.629 79 278.845 78.3716 279.595 77.314L302.999 44.314C303.982 42.9279 303.982 41.0721 302.999 39.686L279.595 6.68601C278.845 5.62843 277.629 5 276.332 5Z" fill="#6222B5"/>
<path d="M4.71979 0.900391H272.412C273.546 0.900391 274.61 1.45027 275.267 2.37565L298.671 35.3756C299.531 36.5884 299.531 38.2123 298.671 39.4251L275.267 72.4251C274.61 73.3505 273.546 73.9004 272.412 73.9004H4.71979C2.7868 73.9004 1.21979 72.3334 1.21979 70.4004V4.40039C1.21979 2.4674 2.78679 0.900391 4.71979 0.900391Z" fill="#9747FF" stroke="#6222B5"/>
<path d="M15.6228 43.9004C15.4908 43.9004 15.3888 43.8644 15.3168 43.7924C15.2448 43.7084 15.2088 43.6064 15.2088 43.4864V31.7324C15.2088 31.6004 15.2448 31.4984 15.3168 31.4264C15.3888 31.3424 15.4908 31.3004 15.6228 31.3004H20.5548C21.4548 31.3004 22.1868 31.4504 22.7508 31.7504C23.3268 32.0384 23.7468 32.4344 24.0108 32.9384C24.2868 33.4424 24.4248 34.0064 24.4248 34.6304C24.4248 35.1224 24.3408 35.5484 24.1728 35.9084C24.0168 36.2564 23.8188 36.5444 23.5788 36.7724C23.3388 36.9884 23.1048 37.1564 22.8768 37.2764C23.3448 37.5044 23.7588 37.8764 24.1188 38.3924C24.4908 38.9084 24.6768 39.5324 24.6768 40.2644C24.6768 40.9244 24.5268 41.5304 24.2268 42.0824C23.9268 42.6344 23.4768 43.0784 22.8768 43.4144C22.2888 43.7384 21.5568 43.9004 20.6808 43.9004H15.6228ZM16.9728 42.4424H20.4468C21.2268 42.4424 21.8268 42.2324 22.2468 41.8124C22.6668 41.3924 22.8768 40.8764 22.8768 40.2644C22.8768 39.6284 22.6668 39.1064 22.2468 38.6984C21.8268 38.2784 21.2268 38.0684 20.4468 38.0684H16.9728V42.4424ZM16.9728 36.6284H20.2848C21.0528 36.6284 21.6348 36.4544 22.0308 36.1064C22.4268 35.7464 22.6248 35.2604 22.6248 34.6484C22.6248 34.0364 22.4268 33.5684 22.0308 33.2444C21.6348 32.9204 21.0528 32.7584 20.2848 32.7584H16.9728V36.6284ZM27.0703 43.9004C26.9503 43.9004 26.8483 43.8644 26.7643 43.7924C26.6923 43.7084 26.6563 43.6064 26.6563 43.4864V31.5344C26.6563 31.4144 26.6923 31.3184 26.7643 31.2464C26.8483 31.1624 26.9503 31.1204 27.0703 31.1204H27.9163C28.0483 31.1204 28.1503 31.1624 28.2223 31.2464C28.2943 31.3184 28.3303 31.4144 28.3303 31.5344V43.4864C28.3303 43.6064 28.2943 43.7084 28.2223 43.7924C28.1503 43.8644 28.0483 43.9004 27.9163 43.9004H27.0703ZM34.4892 44.0804C33.5772 44.0804 32.8152 43.9064 32.2032 43.5584C31.5912 43.2104 31.1232 42.7304 30.7992 42.1184C30.4752 41.4944 30.2952 40.7864 30.2592 39.9944C30.2472 39.7904 30.2412 39.5324 30.2412 39.2204C30.2412 38.8964 30.2472 38.6384 30.2592 38.4464C30.2952 37.6424 30.4752 36.9344 30.7992 36.3224C31.1352 35.7104 31.6092 35.2304 32.2212 34.8824C32.8332 34.5344 33.5892 34.3604 34.4892 34.3604C35.3892 34.3604 36.1452 34.5344 36.7572 34.8824C37.3692 35.2304 37.8372 35.7104 38.1612 36.3224C38.4972 36.9344 38.6832 37.6424 38.7192 38.4464C38.7312 38.6384 38.7372 38.8964 38.7372 39.2204C38.7372 39.5324 38.7312 39.7904 38.7192 39.9944C38.6832 40.7864 38.5032 41.4944 38.1792 42.1184C37.8552 42.7304 37.3872 43.2104 36.7752 43.5584C36.1632 43.9064 35.4012 44.0804 34.4892 44.0804ZM34.4892 42.6944C35.2332 42.6944 35.8272 42.4604 36.2712 41.9924C36.7152 41.5124 36.9552 40.8164 36.9912 39.9044C37.0032 39.7244 37.0092 39.4964 37.0092 39.2204C37.0092 38.9444 37.0032 38.7164 36.9912 38.5364C36.9552 37.6244 36.7152 36.9344 36.2712 36.4664C35.8272 35.9864 35.2332 35.7464 34.4892 35.7464C33.7452 35.7464 33.1452 35.9864 32.6892 36.4664C32.2452 36.9344 32.0112 37.6244 31.9872 38.5364C31.9752 38.7164 31.9692 38.9444 31.9692 39.2204C31.9692 39.4964 31.9752 39.7244 31.9872 39.9044C32.0112 40.8164 32.2452 41.5124 32.6892 41.9924C33.1452 42.4604 33.7452 42.6944 34.4892 42.6944ZM44.4112 44.0804C43.5592 44.0804 42.8212 43.9184 42.1972 43.5944C41.5852 43.2584 41.1112 42.7844 40.7752 42.1724C40.4392 41.5484 40.2592 40.8044 40.2352 39.9404C40.2232 39.7604 40.2172 39.5204 40.2172 39.2204C40.2172 38.9204 40.2232 38.6804 40.2352 38.5004C40.2592 37.6364 40.4392 36.8984 40.7752 36.2864C41.1112 35.6624 41.5852 35.1884 42.1972 34.8644C42.8212 34.5284 43.5592 34.3604 44.4112 34.3604C45.1072 34.3604 45.7012 34.4564 46.1932 34.6484C46.6972 34.8404 47.1112 35.0864 47.4352 35.3864C47.7592 35.6864 47.9992 36.0104 48.1552 36.3584C48.3232 36.7064 48.4132 37.0364 48.4252 37.3484C48.4372 37.4684 48.4012 37.5644 48.3172 37.6364C48.2332 37.7084 48.1312 37.7444 48.0112 37.7444H47.1472C47.0272 37.7444 46.9372 37.7204 46.8772 37.6724C46.8172 37.6124 46.7572 37.5164 46.6972 37.3844C46.4812 36.7964 46.1872 36.3824 45.8152 36.1424C45.4432 35.9024 44.9812 35.7824 44.4292 35.7824C43.7092 35.7824 43.1212 36.0044 42.6652 36.4484C42.2212 36.8924 41.9812 37.6064 41.9452 38.5904C41.9332 39.0224 41.9332 39.4424 41.9452 39.8504C41.9812 40.8464 42.2212 41.5664 42.6652 42.0104C43.1212 42.4424 43.7092 42.6584 44.4292 42.6584C44.9812 42.6584 45.4432 42.5384 45.8152 42.2984C46.1872 42.0584 46.4812 41.6444 46.6972 41.0564C46.7572 40.9244 46.8172 40.8344 46.8772 40.7864C46.9372 40.7264 47.0272 40.6964 47.1472 40.6964H48.0112C48.1312 40.6964 48.2332 40.7324 48.3172 40.8044C48.4012 40.8764 48.4372 40.9724 48.4252 41.0924C48.4132 41.3444 48.3592 41.6024 48.2632 41.8664C48.1672 42.1304 48.0112 42.4004 47.7952 42.6764C47.5912 42.9404 47.3332 43.1804 47.0212 43.3964C46.7092 43.6004 46.3312 43.7684 45.8872 43.9004C45.4552 44.0204 44.9632 44.0804 44.4112 44.0804ZM50.6348 43.9004C50.5148 43.9004 50.4128 43.8644 50.3288 43.7924C50.2568 43.7084 50.2208 43.6064 50.2208 43.4864V31.5344C50.2208 31.4144 50.2568 31.3184 50.3288 31.2464C50.4128 31.1624 50.5148 31.1204 50.6348 31.1204H51.4808C51.6008 31.1204 51.6968 31.1624 51.7688 31.2464C51.8528 31.3184 51.8948 31.4144 51.8948 31.5344V37.7984L55.4408 34.8464C55.5848 34.7264 55.6928 34.6484 55.7648 34.6124C55.8488 34.5644 55.9808 34.5404 56.1608 34.5404H57.1148C57.2228 34.5404 57.3128 34.5764 57.3848 34.6484C57.4568 34.7204 57.4928 34.8104 57.4928 34.9184C57.4928 34.9664 57.4748 35.0204 57.4388 35.0804C57.4148 35.1404 57.3608 35.2004 57.2768 35.2604L53.1188 38.7164L57.7268 43.1984C57.8708 43.3184 57.9428 43.4264 57.9428 43.5224C57.9428 43.6304 57.9068 43.7204 57.8348 43.7924C57.7628 43.8644 57.6728 43.9004 57.5648 43.9004H56.6288C56.4488 43.9004 56.3168 43.8824 56.2328 43.8464C56.1488 43.7984 56.0408 43.7144 55.9088 43.5944L51.8948 39.7604V43.4864C51.8948 43.6064 51.8528 43.7084 51.7688 43.7924C51.6968 43.8644 51.6008 43.9004 51.4808 43.9004H50.6348ZM62.4646 44.0804C61.6126 44.0804 60.8746 43.9184 60.2506 43.5944C59.6386 43.2584 59.1646 42.7844 58.8286 42.1724C58.4926 41.5484 58.3126 40.8044 58.2886 39.9404C58.2766 39.7604 58.2706 39.5204 58.2706 39.2204C58.2706 38.9204 58.2766 38.6804 58.2886 38.5004C58.3126 37.6364 58.4926 36.8984 58.8286 36.2864C59.1646 35.6624 59.6386 35.1884 60.2506 34.8644C60.8746 34.5284 61.6126 34.3604 62.4646 34.3604C63.1606 34.3604 63.7546 34.4564 64.2466 34.6484C64.7506 34.8404 65.1646 35.0864 65.4886 35.3864C65.8126 35.6864 66.0526 36.0104 66.2086 36.3584C66.3766 36.7064 66.4666 37.0364 66.4786 37.3484C66.4906 37.4684 66.4546 37.5644 66.3706 37.6364C66.2866 37.7084 66.1846 37.7444 66.0646 37.7444H65.2006C65.0806 37.7444 64.9906 37.7204 64.9306 37.6724C64.8706 37.6124 64.8106 37.5164 64.7506 37.3844C64.5346 36.7964 64.2406 36.3824 63.8686 36.1424C63.4966 35.9024 63.0346 35.7824 62.4826 35.7824C61.7626 35.7824 61.1746 36.0044 60.7186 36.4484C60.2746 36.8924 60.0346 37.6064 59.9986 38.5904C59.9866 39.0224 59.9866 39.4424 59.9986 39.8504C60.0346 40.8464 60.2746 41.5664 60.7186 42.0104C61.1746 42.4424 61.7626 42.6584 62.4826 42.6584C63.0346 42.6584 63.4966 42.5384 63.8686 42.2984C64.2406 42.0584 64.5346 41.6444 64.7506 41.0564C64.8106 40.9244 64.8706 40.8344 64.9306 40.7864C64.9906 40.7264 65.0806 40.6964 65.2006 40.6964H66.0646C66.1846 40.6964 66.2866 40.7324 66.3706 40.8044C66.4546 40.8764 66.4906 40.9724 66.4786 41.0924C66.4666 41.3444 66.4126 41.6024 66.3166 41.8664C66.2206 42.1304 66.0646 42.4004 65.8486 42.6764C65.6446 42.9404 65.3866 43.1804 65.0746 43.3964C64.7626 43.6004 64.3846 43.7684 63.9406 43.9004C63.5086 44.0204 63.0166 44.0804 62.4646 44.0804ZM68.6882 43.9004C68.5682 43.9004 68.4662 43.8644 68.3822 43.7924C68.3102 43.7084 68.2742 43.6064 68.2742 43.4864V31.5344C68.2742 31.4144 68.3102 31.3184 68.3822 31.2464C68.4662 31.1624 68.5682 31.1204 68.6882 31.1204H69.5882C69.7202 31.1204 69.8222 31.1624 69.8942 31.2464C69.9662 31.3184 70.0022 31.4144 70.0022 31.5344V35.7284C70.3262 35.3204 70.7222 34.9904 71.1902 34.7384C71.6582 34.4864 72.2522 34.3604 72.9722 34.3604C73.7522 34.3604 74.4122 34.5344 74.9522 34.8824C75.5042 35.2184 75.9182 35.6924 76.1942 36.3044C76.4822 36.9044 76.6262 37.6064 76.6262 38.4104V43.4864C76.6262 43.6064 76.5902 43.7084 76.5182 43.7924C76.4462 43.8644 76.3442 43.9004 76.2122 43.9004H75.3122C75.1922 43.9004 75.0902 43.8644 75.0062 43.7924C74.9342 43.7084 74.8982 43.6064 74.8982 43.4864V38.5004C74.8982 37.6604 74.6942 37.0064 74.2862 36.5384C73.8782 36.0584 73.2782 35.8184 72.4862 35.8184C71.7422 35.8184 71.1422 36.0584 70.6862 36.5384C70.2302 37.0064 70.0022 37.6604 70.0022 38.5004V43.4864C70.0022 43.6064 69.9662 43.7084 69.8942 43.7924C69.8222 43.8644 69.7202 43.9004 69.5882 43.9004H68.6882ZM81.475 44.0804C80.875 44.0804 80.329 43.9604 79.837 43.7204C79.345 43.4804 78.949 43.1564 78.649 42.7484C78.349 42.3404 78.199 41.8784 78.199 41.3624C78.199 40.5344 78.535 39.8744 79.207 39.3824C79.879 38.8904 80.755 38.5664 81.835 38.4104L84.517 38.0324V37.5104C84.517 36.9344 84.349 36.4844 84.013 36.1604C83.689 35.8364 83.155 35.6744 82.411 35.6744C81.871 35.6744 81.433 35.7824 81.097 35.9984C80.773 36.2144 80.545 36.4904 80.413 36.8264C80.341 37.0064 80.215 37.0964 80.035 37.0964H79.225C79.093 37.0964 78.991 37.0604 78.919 36.9884C78.859 36.9044 78.829 36.8084 78.829 36.7004C78.829 36.5204 78.895 36.2984 79.027 36.0344C79.171 35.7704 79.387 35.5124 79.675 35.2604C79.963 35.0084 80.329 34.7984 80.773 34.6304C81.229 34.4504 81.781 34.3604 82.429 34.3604C83.149 34.3604 83.755 34.4564 84.247 34.6484C84.739 34.8284 85.123 35.0744 85.399 35.3864C85.687 35.6984 85.891 36.0524 86.011 36.4484C86.143 36.8444 86.209 37.2464 86.209 37.6544V43.4864C86.209 43.6064 86.167 43.7084 86.083 43.7924C86.011 43.8644 85.915 43.9004 85.795 43.9004H84.967C84.835 43.9004 84.733 43.8644 84.661 43.7924C84.589 43.7084 84.553 43.6064 84.553 43.4864V42.7124C84.397 42.9284 84.187 43.1444 83.923 43.3604C83.659 43.5644 83.329 43.7384 82.933 43.8824C82.537 44.0144 82.051 44.0804 81.475 44.0804ZM81.853 42.7304C82.345 42.7304 82.795 42.6284 83.203 42.4244C83.611 42.2084 83.929 41.8784 84.157 41.4344C84.397 40.9904 84.517 40.4324 84.517 39.7604V39.2564L82.429 39.5624C81.577 39.6824 80.935 39.8864 80.503 40.1744C80.071 40.4504 79.855 40.8044 79.855 41.2364C79.855 41.5724 79.951 41.8544 80.143 42.0824C80.347 42.2984 80.599 42.4604 80.899 42.5684C81.211 42.6764 81.529 42.7304 81.853 42.7304ZM88.8506 43.9004C88.7306 43.9004 88.6286 43.8644 88.5446 43.7924C88.4726 43.7084 88.4366 43.6064 88.4366 43.4864V34.9544C88.4366 34.8344 88.4726 34.7384 88.5446 34.6664C88.6286 34.5824 88.7306 34.5404 88.8506 34.5404H89.7146C89.8346 34.5404 89.9306 34.5824 90.0026 34.6664C90.0746 34.7384 90.1106 34.8344 90.1106 34.9544V43.4864C90.1106 43.6064 90.0746 43.7084 90.0026 43.7924C89.9306 43.8644 89.8346 43.9004 89.7146 43.9004H88.8506ZM88.7066 32.7944C88.5866 32.7944 88.4846 32.7584 88.4006 32.6864C88.3286 32.6024 88.2926 32.5004 88.2926 32.3804V31.4084C88.2926 31.2884 88.3286 31.1924 88.4006 31.1204C88.4846 31.0364 88.5866 30.9944 88.7066 30.9944H89.8406C89.9606 30.9944 90.0566 31.0364 90.1286 31.1204C90.2126 31.1924 90.2546 31.2884 90.2546 31.4084V32.3804C90.2546 32.5004 90.2126 32.6024 90.1286 32.6864C90.0566 32.7584 89.9606 32.7944 89.8406 32.7944H88.7066ZM92.85 43.9004C92.73 43.9004 92.628 43.8644 92.544 43.7924C92.472 43.7084 92.436 43.6064 92.436 43.4864V34.9544C92.436 34.8344 92.472 34.7384 92.544 34.6664C92.628 34.5824 92.73 34.5404 92.85 34.5404H93.696C93.816 34.5404 93.912 34.5824 93.984 34.6664C94.068 34.7384 94.11 34.8344 94.11 34.9544V35.7464C94.422 35.3384 94.812 35.0084 95.28 34.7564C95.76 34.4924 96.372 34.3604 97.116 34.3604C97.896 34.3604 98.556 34.5344 99.096 34.8824C99.648 35.2184 100.062 35.6924 100.338 36.3044C100.614 36.9044 100.752 37.6064 100.752 38.4104V43.4864C100.752 43.6064 100.716 43.7084 100.644 43.7924C100.572 43.8644 100.476 43.9004 100.356 43.9004H99.456C99.336 43.9004 99.234 43.8644 99.15 43.7924C99.078 43.7084 99.042 43.6064 99.042 43.4864V38.5004C99.042 37.6604 98.838 37.0064 98.43 36.5384C98.022 36.0584 97.422 35.8184 96.63 35.8184C95.886 35.8184 95.286 36.0584 94.83 36.5384C94.386 37.0064 94.164 37.6604 94.164 38.5004V43.4864C94.164 43.6064 94.122 43.7084 94.038 43.7924C93.966 43.8644 93.87 43.9004 93.75 43.9004H92.85ZM107.692 43.9004C107.572 43.9004 107.47 43.8644 107.386 43.7924C107.314 43.7084 107.278 43.6064 107.278 43.4864V31.7324C107.278 31.6004 107.314 31.4984 107.386 31.4264C107.47 31.3424 107.572 31.3004 107.692 31.3004H108.592C108.736 31.3004 108.844 31.3364 108.916 31.4084C108.988 31.4804 109.03 31.5404 109.042 31.5884L112.858 38.8604L116.692 31.5884C116.716 31.5404 116.758 31.4804 116.818 31.4084C116.89 31.3364 116.998 31.3004 117.142 31.3004H118.024C118.156 31.3004 118.258 31.3424 118.33 31.4264C118.414 31.4984 118.456 31.6004 118.456 31.7324V43.4864C118.456 43.6064 118.414 43.7084 118.33 43.7924C118.258 43.8644 118.156 43.9004 118.024 43.9004H117.142C117.022 43.9004 116.92 43.8644 116.836 43.7924C116.764 43.7084 116.728 43.6064 116.728 43.4864V34.6304L113.722 40.4984C113.674 40.6184 113.602 40.7144 113.506 40.7864C113.41 40.8464 113.29 40.8764 113.146 40.8764H112.588C112.432 40.8764 112.306 40.8464 112.21 40.7864C112.126 40.7144 112.054 40.6184 111.994 40.4984L108.988 34.6304V43.4864C108.988 43.6064 108.946 43.7084 108.862 43.7924C108.79 43.8644 108.694 43.9004 108.574 43.9004H107.692ZM123.585 44.0804C122.985 44.0804 122.439 43.9604 121.947 43.7204C121.455 43.4804 121.059 43.1564 120.759 42.7484C120.459 42.3404 120.309 41.8784 120.309 41.3624C120.309 40.5344 120.645 39.8744 121.317 39.3824C121.989 38.8904 122.865 38.5664 123.945 38.4104L126.627 38.0324V37.5104C126.627 36.9344 126.459 36.4844 126.123 36.1604C125.799 35.8364 125.265 35.6744 124.521 35.6744C123.981 35.6744 123.543 35.7824 123.207 35.9984C122.883 36.2144 122.655 36.4904 122.523 36.8264C122.451 37.0064 122.325 37.0964 122.145 37.0964H121.335C121.203 37.0964 121.101 37.0604 121.029 36.9884C120.969 36.9044 120.939 36.8084 120.939 36.7004C120.939 36.5204 121.005 36.2984 121.137 36.0344C121.281 35.7704 121.497 35.5124 121.785 35.2604C122.073 35.0084 122.439 34.7984 122.883 34.6304C123.339 34.4504 123.891 34.3604 124.539 34.3604C125.259 34.3604 125.865 34.4564 126.357 34.6484C126.849 34.8284 127.233 35.0744 127.509 35.3864C127.797 35.6984 128.001 36.0524 128.121 36.4484C128.253 36.8444 128.319 37.2464 128.319 37.6544V43.4864C128.319 43.6064 128.277 43.7084 128.193 43.7924C128.121 43.8644 128.025 43.9004 127.905 43.9004H127.077C126.945 43.9004 126.843 43.8644 126.771 43.7924C126.699 43.7084 126.663 43.6064 126.663 43.4864V42.7124C126.507 42.9284 126.297 43.1444 126.033 43.3604C125.769 43.5644 125.439 43.7384 125.043 43.8824C124.647 44.0144 124.161 44.0804 123.585 44.0804ZM123.963 42.7304C124.455 42.7304 124.905 42.6284 125.313 42.4244C125.721 42.2084 126.039 41.8784 126.267 41.4344C126.507 40.9904 126.627 40.4324 126.627 39.7604V39.2564L124.539 39.5624C123.687 39.6824 123.045 39.8864 122.613 40.1744C122.181 40.4504 121.965 40.8044 121.965 41.2364C121.965 41.5724 122.061 41.8544 122.253 42.0824C122.457 42.2984 122.709 42.4604 123.009 42.5684C123.321 42.6764 123.639 42.7304 123.963 42.7304ZM133.787 44.0804C133.115 44.0804 132.539 43.9964 132.059 43.8284C131.579 43.6604 131.189 43.4564 130.889 43.2164C130.589 42.9764 130.361 42.7364 130.205 42.4964C130.061 42.2564 129.983 42.0644 129.971 41.9204C129.959 41.7884 130.001 41.6864 130.097 41.6144C130.193 41.5424 130.289 41.5064 130.385 41.5064H131.177C131.249 41.5064 131.303 41.5184 131.339 41.5424C131.387 41.5544 131.447 41.6024 131.519 41.6864C131.675 41.8544 131.849 42.0224 132.041 42.1904C132.233 42.3584 132.467 42.4964 132.743 42.6044C133.031 42.7124 133.385 42.7664 133.805 42.7664C134.417 42.7664 134.921 42.6524 135.317 42.4244C135.713 42.1844 135.911 41.8364 135.911 41.3804C135.911 41.0804 135.827 40.8404 135.659 40.6604C135.503 40.4804 135.215 40.3184 134.795 40.1744C134.387 40.0304 133.823 39.8804 133.103 39.7244C132.383 39.5564 131.813 39.3524 131.393 39.1124C130.973 38.8604 130.673 38.5664 130.493 38.2304C130.313 37.8824 130.223 37.4924 130.223 37.0604C130.223 36.6164 130.355 36.1904 130.619 35.7824C130.883 35.3624 131.267 35.0204 131.771 34.7564C132.287 34.4924 132.929 34.3604 133.697 34.3604C134.321 34.3604 134.855 34.4384 135.299 34.5944C135.743 34.7504 136.109 34.9484 136.397 35.1884C136.685 35.4164 136.901 35.6444 137.045 35.8724C137.189 36.1004 137.267 36.2924 137.279 36.4484C137.291 36.5684 137.255 36.6704 137.171 36.7544C137.087 36.8264 136.991 36.8624 136.883 36.8624H136.127C136.043 36.8624 135.971 36.8444 135.911 36.8084C135.863 36.7724 135.815 36.7304 135.767 36.6824C135.647 36.5264 135.503 36.3704 135.335 36.2144C135.179 36.0584 134.969 35.9324 134.705 35.8364C134.453 35.7284 134.117 35.6744 133.697 35.6744C133.097 35.6744 132.647 35.8004 132.347 36.0524C132.047 36.3044 131.897 36.6224 131.897 37.0064C131.897 37.2344 131.963 37.4384 132.095 37.6184C132.227 37.7984 132.479 37.9604 132.851 38.1044C133.223 38.2484 133.775 38.4044 134.507 38.5724C135.299 38.7284 135.923 38.9384 136.379 39.2024C136.835 39.4664 137.159 39.7724 137.351 40.1204C137.543 40.4684 137.639 40.8704 137.639 41.3264C137.639 41.8304 137.489 42.2924 137.189 42.7124C136.901 43.1324 136.469 43.4684 135.893 43.7204C135.329 43.9604 134.627 44.0804 133.787 44.0804ZM142.999 43.9004C142.327 43.9004 141.781 43.7744 141.361 43.5224C140.941 43.2584 140.635 42.8924 140.443 42.4244C140.251 41.9444 140.155 41.3804 140.155 40.7324V35.9804H138.751C138.631 35.9804 138.529 35.9444 138.445 35.8724C138.373 35.7884 138.337 35.6864 138.337 35.5664V34.9544C138.337 34.8344 138.373 34.7384 138.445 34.6664C138.529 34.5824 138.631 34.5404 138.751 34.5404H140.155V31.5344C140.155 31.4144 140.191 31.3184 140.263 31.2464C140.347 31.1624 140.449 31.1204 140.569 31.1204H141.415C141.535 31.1204 141.631 31.1624 141.703 31.2464C141.787 31.3184 141.829 31.4144 141.829 31.5344V34.5404H144.061C144.181 34.5404 144.277 34.5824 144.349 34.6664C144.433 34.7384 144.475 34.8344 144.475 34.9544V35.5664C144.475 35.6864 144.433 35.7884 144.349 35.8724C144.277 35.9444 144.181 35.9804 144.061 35.9804H141.829V40.6064C141.829 41.1704 141.925 41.6144 142.117 41.9384C142.309 42.2624 142.651 42.4244 143.143 42.4244H144.241C144.361 42.4244 144.457 42.4664 144.529 42.5504C144.613 42.6224 144.655 42.7184 144.655 42.8384V43.4864C144.655 43.6064 144.613 43.7084 144.529 43.7924C144.457 43.8644 144.361 43.9004 144.241 43.9004H142.999ZM149.742 44.0804C148.506 44.0804 147.522 43.7024 146.79 42.9464C146.058 42.1784 145.656 41.1344 145.584 39.8144C145.572 39.6584 145.566 39.4604 145.566 39.2204C145.566 38.9684 145.572 38.7644 145.584 38.6084C145.632 37.7564 145.83 37.0124 146.178 36.3764C146.526 35.7284 147 35.2304 147.6 34.8824C148.212 34.5344 148.926 34.3604 149.742 34.3604C150.654 34.3604 151.416 34.5524 152.028 34.9364C152.652 35.3204 153.126 35.8664 153.45 36.5744C153.774 37.2824 153.936 38.1104 153.936 39.0584V39.3644C153.936 39.4964 153.894 39.5984 153.81 39.6704C153.738 39.7424 153.642 39.7784 153.522 39.7784H147.294C147.294 39.7904 147.294 39.8144 147.294 39.8504C147.294 39.8864 147.294 39.9164 147.294 39.9404C147.318 40.4324 147.426 40.8944 147.618 41.3264C147.81 41.7464 148.086 42.0884 148.446 42.3524C148.806 42.6164 149.238 42.7484 149.742 42.7484C150.174 42.7484 150.534 42.6824 150.822 42.5504C151.11 42.4184 151.344 42.2744 151.524 42.1184C151.704 41.9504 151.824 41.8244 151.884 41.7404C151.992 41.5844 152.076 41.4944 152.136 41.4704C152.196 41.4344 152.292 41.4164 152.424 41.4164H153.288C153.408 41.4164 153.504 41.4524 153.576 41.5244C153.66 41.5844 153.696 41.6744 153.684 41.7944C153.672 41.9744 153.576 42.1964 153.396 42.4604C153.216 42.7124 152.958 42.9644 152.622 43.2164C152.286 43.4684 151.878 43.6784 151.398 43.8464C150.918 44.0024 150.366 44.0804 149.742 44.0804ZM147.294 38.5364H152.226V38.4824C152.226 37.9424 152.124 37.4624 151.92 37.0424C151.728 36.6224 151.446 36.2924 151.074 36.0524C150.702 35.8004 150.258 35.6744 149.742 35.6744C149.226 35.6744 148.782 35.8004 148.41 36.0524C148.05 36.2924 147.774 36.6224 147.582 37.0424C147.39 37.4624 147.294 37.9424 147.294 38.4824V38.5364ZM156.142 43.9004C156.022 43.9004 155.92 43.8644 155.836 43.7924C155.764 43.7084 155.728 43.6064 155.728 43.4864V34.9724C155.728 34.8524 155.764 34.7504 155.836 34.6664C155.92 34.5824 156.022 34.5404 156.142 34.5404H156.97C157.09 34.5404 157.192 34.5824 157.276 34.6664C157.36 34.7504 157.402 34.8524 157.402 34.9724V35.7644C157.642 35.3564 157.972 35.0504 158.392 34.8464C158.812 34.6424 159.316 34.5404 159.905 34.5404H160.624C160.744 34.5404 160.84 34.5824 160.912 34.6664C160.985 34.7384 161.021 34.8344 161.021 34.9544V35.6924C161.021 35.8124 160.985 35.9084 160.912 35.9804C160.84 36.0524 160.744 36.0884 160.624 36.0884H159.544C158.896 36.0884 158.386 36.2804 158.014 36.6644C157.642 37.0364 157.456 37.5464 157.456 38.1944V43.4864C157.456 43.6064 157.414 43.7084 157.33 43.7924C157.246 43.8644 157.144 43.9004 157.024 43.9004H156.142ZM163.844 47.3204C163.748 47.3204 163.664 47.2844 163.592 47.2124C163.52 47.1404 163.484 47.0564 163.484 46.9604C163.484 46.9124 163.49 46.8644 163.502 46.8164C163.514 46.7684 163.538 46.7084 163.574 46.6364L164.96 43.3424L161.522 35.2244C161.462 35.0804 161.432 34.9784 161.432 34.9184C161.432 34.8104 161.468 34.7204 161.54 34.6484C161.612 34.5764 161.702 34.5404 161.81 34.5404H162.692C162.812 34.5404 162.908 34.5704 162.98 34.6304C163.052 34.6904 163.1 34.7624 163.124 34.8464L165.86 41.3984L168.668 34.8464C168.704 34.7624 168.752 34.6904 168.812 34.6304C168.884 34.5704 168.986 34.5404 169.118 34.5404H169.964C170.072 34.5404 170.162 34.5764 170.234 34.6484C170.306 34.7204 170.342 34.8044 170.342 34.9004C170.342 34.9604 170.312 35.0684 170.252 35.2244L165.14 47.0144C165.104 47.0984 165.05 47.1704 164.978 47.2304C164.918 47.2904 164.822 47.3204 164.69 47.3204H163.844Z" fill="white"/>
<rect x="227.216" y="17.4004" width="40" height="40" rx="20" fill="white"/>
<path d="M247.174 43.5804C246.418 43.5804 245.758 43.4904 245.194 43.3104C244.63 43.1184 244.156 42.8664 243.772 42.5544C243.388 42.2424 243.094 41.9004 242.89 41.5284C242.698 41.1564 242.596 40.7724 242.584 40.3764C242.584 40.2684 242.62 40.1844 242.692 40.1244C242.764 40.0644 242.854 40.0344 242.962 40.0344H243.844C243.952 40.0344 244.048 40.0584 244.132 40.1064C244.216 40.1544 244.288 40.2564 244.348 40.4124C244.468 40.8444 244.672 41.1804 244.96 41.4204C245.26 41.6604 245.602 41.8284 245.986 41.9244C246.382 42.0084 246.778 42.0504 247.174 42.0504C248.002 42.0504 248.674 41.8524 249.19 41.4564C249.706 41.0604 249.964 40.4784 249.964 39.7104C249.964 38.9304 249.73 38.3724 249.262 38.0364C248.794 37.7004 248.146 37.5324 247.318 37.5324H245.608C245.488 37.5324 245.386 37.4964 245.302 37.4244C245.23 37.3524 245.194 37.2504 245.194 37.1184V36.6324C245.194 36.5244 245.212 36.4344 245.248 36.3624C245.296 36.2784 245.344 36.2064 245.392 36.1464L248.884 32.3304H243.574C243.454 32.3304 243.352 32.2944 243.268 32.2224C243.196 32.1504 243.16 32.0484 243.16 31.9164V31.2324C243.16 31.1004 243.196 30.9984 243.268 30.9264C243.352 30.8424 243.454 30.8004 243.574 30.8004H250.756C250.888 30.8004 250.99 30.8424 251.062 30.9264C251.146 30.9984 251.188 31.1004 251.188 31.2324V31.8804C251.188 31.9644 251.164 32.0424 251.116 32.1144C251.08 32.1744 251.038 32.2344 250.99 32.2944L247.516 36.1644L247.804 36.1824C248.596 36.2064 249.286 36.3504 249.874 36.6144C250.474 36.8784 250.936 37.2744 251.26 37.8024C251.596 38.3184 251.764 38.9724 251.764 39.7644C251.764 40.5684 251.566 41.2584 251.17 41.8344C250.774 42.3984 250.228 42.8304 249.532 43.1304C248.836 43.4304 248.05 43.5804 247.174 43.5804Z" fill="#6222B5"/>
</svg>
