<svg width="312" height="56" viewBox="0 0 312 56" fill="none" xmlns="http://www.w3.org/2000/svg">
<path d="M282.944 4.00098H7.5C5.29086 4.00098 3.5 5.79184 3.5 8.00098V52.001C3.5 54.2101 5.29086 56.001 7.49999 56.001H282.944C283.98 56.001 284.976 55.5988 285.721 54.8792L308.518 32.8792C310.147 31.3064 310.147 28.6955 308.518 27.1227L285.721 5.12274C284.976 4.40313 283.98 4.00098 282.944 4.00098Z" fill="#6222B5"/>
<path d="M305.17 28.5194L305.518 28.8792L305.17 28.5194L282.374 50.5194C281.722 51.1491 280.85 51.501 279.944 51.501H4.49999C2.567 51.501 1 49.934 1 48.001V4.00098C1 2.06798 2.567 0.500977 4.5 0.500977H279.944C280.85 0.500977 281.722 0.852856 282.374 1.48252L305.17 23.4825C306.596 24.8587 306.596 27.1432 305.17 28.5194Z" fill="#9747FF" stroke="#6222B5"/>
<path d="M14.4278 31.001C14.3251 31.001 14.2458 30.973 14.1898 30.917C14.1338 30.8516 14.1058 30.7723 14.1058 30.679V21.537C14.1058 21.4343 14.1338 21.355 14.1898 21.299C14.2458 21.2336 14.3251 21.201 14.4278 21.201H18.2638C18.9638 21.201 19.5331 21.3176 19.9718 21.551C20.4198 21.775 20.7465 22.083 20.9518 22.475C21.1665 22.867 21.2738 23.3056 21.2738 23.791C21.2738 24.1736 21.2085 24.505 21.0778 24.785C20.9565 25.0556 20.8025 25.2796 20.6158 25.457C20.4291 25.625 20.2471 25.7556 20.0698 25.849C20.4338 26.0263 20.7558 26.3156 21.0358 26.717C21.3251 27.1183 21.4698 27.6036 21.4698 28.173C21.4698 28.6863 21.3531 29.1576 21.1198 29.587C20.8865 30.0163 20.5365 30.3616 20.0698 30.623C19.6125 30.875 19.0431 31.001 18.3618 31.001H14.4278ZM15.4778 29.867H18.1798C18.7865 29.867 19.2531 29.7036 19.5798 29.377C19.9065 29.0503 20.0698 28.649 20.0698 28.173C20.0698 27.6783 19.9065 27.2723 19.5798 26.955C19.2531 26.6283 18.7865 26.465 18.1798 26.465H15.4778V29.867ZM15.4778 25.345H18.0538C18.6511 25.345 19.1038 25.2096 19.4118 24.939C19.7198 24.659 19.8738 24.281 19.8738 23.805C19.8738 23.329 19.7198 22.965 19.4118 22.713C19.1038 22.461 18.6511 22.335 18.0538 22.335H15.4778V25.345ZM23.3314 31.001C23.238 31.001 23.1587 30.973 23.0934 30.917C23.0374 30.8516 23.0094 30.7723 23.0094 30.679V21.383C23.0094 21.2896 23.0374 21.215 23.0934 21.159C23.1587 21.0936 23.238 21.061 23.3314 21.061H23.9894C24.092 21.061 24.1714 21.0936 24.2274 21.159C24.2834 21.215 24.3114 21.2896 24.3114 21.383V30.679C24.3114 30.7723 24.2834 30.8516 24.2274 30.917C24.1714 30.973 24.092 31.001 23.9894 31.001H23.3314ZM29.1017 31.141C28.3923 31.141 27.7997 31.0056 27.3237 30.735C26.8477 30.4643 26.4837 30.091 26.2317 29.615C25.9797 29.1296 25.8397 28.579 25.8117 27.963C25.8023 27.8043 25.7977 27.6036 25.7977 27.361C25.7977 27.109 25.8023 26.9083 25.8117 26.759C25.8397 26.1336 25.9797 25.583 26.2317 25.107C26.493 24.631 26.8617 24.2576 27.3377 23.987C27.8137 23.7163 28.4017 23.581 29.1017 23.581C29.8017 23.581 30.3897 23.7163 30.8657 23.987C31.3417 24.2576 31.7057 24.631 31.9577 25.107C32.219 25.583 32.3637 26.1336 32.3917 26.759C32.401 26.9083 32.4057 27.109 32.4057 27.361C32.4057 27.6036 32.401 27.8043 32.3917 27.963C32.3637 28.579 32.2237 29.1296 31.9717 29.615C31.7197 30.091 31.3557 30.4643 30.8797 30.735C30.4037 31.0056 29.811 31.141 29.1017 31.141ZM29.1017 30.063C29.6803 30.063 30.1423 29.881 30.4877 29.517C30.833 29.1436 31.0197 28.6023 31.0477 27.893C31.057 27.753 31.0617 27.5756 31.0617 27.361C31.0617 27.1463 31.057 26.969 31.0477 26.829C31.0197 26.1196 30.833 25.583 30.4877 25.219C30.1423 24.8456 29.6803 24.659 29.1017 24.659C28.523 24.659 28.0563 24.8456 27.7017 25.219C27.3563 25.583 27.1743 26.1196 27.1557 26.829C27.1463 26.969 27.1417 27.1463 27.1417 27.361C27.1417 27.5756 27.1463 27.753 27.1557 27.893C27.1743 28.6023 27.3563 29.1436 27.7017 29.517C28.0563 29.881 28.523 30.063 29.1017 30.063ZM36.8187 31.141C36.1561 31.141 35.5821 31.015 35.0967 30.763C34.6207 30.5016 34.2521 30.133 33.9907 29.657C33.7294 29.1716 33.5894 28.593 33.5707 27.921C33.5614 27.781 33.5567 27.5943 33.5567 27.361C33.5567 27.1276 33.5614 26.941 33.5707 26.801C33.5894 26.129 33.7294 25.555 33.9907 25.079C34.2521 24.5936 34.6207 24.225 35.0967 23.973C35.5821 23.7116 36.1561 23.581 36.8187 23.581C37.3601 23.581 37.8221 23.6556 38.2047 23.805C38.5967 23.9543 38.9187 24.1456 39.1707 24.379C39.4227 24.6123 39.6094 24.8643 39.7307 25.135C39.8614 25.4056 39.9314 25.6623 39.9407 25.905C39.9501 25.9983 39.9221 26.073 39.8567 26.129C39.7914 26.185 39.7121 26.213 39.6187 26.213H38.9467C38.8534 26.213 38.7834 26.1943 38.7367 26.157C38.6901 26.1103 38.6434 26.0356 38.5967 25.933C38.4287 25.4756 38.2001 25.1536 37.9107 24.967C37.6214 24.7803 37.2621 24.687 36.8327 24.687C36.2727 24.687 35.8154 24.8596 35.4607 25.205C35.1154 25.5503 34.9287 26.1056 34.9007 26.871C34.8914 27.207 34.8914 27.5336 34.9007 27.851C34.9287 28.6256 35.1154 29.1856 35.4607 29.531C35.8154 29.867 36.2727 30.035 36.8327 30.035C37.2621 30.035 37.6214 29.9416 37.9107 29.755C38.2001 29.5683 38.4287 29.2463 38.5967 28.789C38.6434 28.6863 38.6901 28.6163 38.7367 28.579C38.7834 28.5323 38.8534 28.509 38.9467 28.509H39.6187C39.7121 28.509 39.7914 28.537 39.8567 28.593C39.9221 28.649 39.9501 28.7236 39.9407 28.817C39.9314 29.013 39.8894 29.2136 39.8147 29.419C39.7401 29.6243 39.6187 29.8343 39.4507 30.049C39.2921 30.2543 39.0914 30.441 38.8487 30.609C38.6061 30.7676 38.3121 30.8983 37.9667 31.001C37.6307 31.0943 37.2481 31.141 36.8187 31.141ZM41.6593 31.001C41.566 31.001 41.4867 30.973 41.4213 30.917C41.3653 30.8516 41.3373 30.7723 41.3373 30.679V21.383C41.3373 21.2896 41.3653 21.215 41.4213 21.159C41.4867 21.0936 41.566 21.061 41.6593 21.061H42.3173C42.4107 21.061 42.4853 21.0936 42.5413 21.159C42.6067 21.215 42.6393 21.2896 42.6393 21.383V26.255L45.3973 23.959C45.5093 23.8656 45.5933 23.805 45.6493 23.777C45.7147 23.7396 45.8173 23.721 45.9573 23.721H46.6993C46.7833 23.721 46.8533 23.749 46.9093 23.805C46.9653 23.861 46.9933 23.931 46.9933 24.015C46.9933 24.0523 46.9793 24.0943 46.9513 24.141C46.9327 24.1876 46.8907 24.2343 46.8253 24.281L43.5913 26.969L47.1753 30.455C47.2873 30.5483 47.3433 30.6323 47.3433 30.707C47.3433 30.791 47.3153 30.861 47.2593 30.917C47.2033 30.973 47.1333 31.001 47.0493 31.001H46.3213C46.1813 31.001 46.0787 30.987 46.0133 30.959C45.948 30.9216 45.864 30.8563 45.7613 30.763L42.6393 27.781V30.679C42.6393 30.7723 42.6067 30.8516 42.5413 30.917C42.4853 30.973 42.4107 31.001 42.3173 31.001H41.6593ZM50.8603 31.141C50.1976 31.141 49.6236 31.015 49.1383 30.763C48.6623 30.5016 48.2936 30.133 48.0323 29.657C47.771 29.1716 47.631 28.593 47.6123 27.921C47.603 27.781 47.5983 27.5943 47.5983 27.361C47.5983 27.1276 47.603 26.941 47.6123 26.801C47.631 26.129 47.771 25.555 48.0323 25.079C48.2936 24.5936 48.6623 24.225 49.1383 23.973C49.6236 23.7116 50.1976 23.581 50.8603 23.581C51.4016 23.581 51.8636 23.6556 52.2463 23.805C52.6383 23.9543 52.9603 24.1456 53.2123 24.379C53.4643 24.6123 53.651 24.8643 53.7723 25.135C53.903 25.4056 53.973 25.6623 53.9823 25.905C53.9916 25.9983 53.9636 26.073 53.8983 26.129C53.833 26.185 53.7536 26.213 53.6603 26.213H52.9883C52.895 26.213 52.825 26.1943 52.7783 26.157C52.7316 26.1103 52.685 26.0356 52.6383 25.933C52.4703 25.4756 52.2416 25.1536 51.9523 24.967C51.663 24.7803 51.3036 24.687 50.8743 24.687C50.3143 24.687 49.857 24.8596 49.5023 25.205C49.157 25.5503 48.9703 26.1056 48.9423 26.871C48.933 27.207 48.933 27.5336 48.9423 27.851C48.9703 28.6256 49.157 29.1856 49.5023 29.531C49.857 29.867 50.3143 30.035 50.8743 30.035C51.3036 30.035 51.663 29.9416 51.9523 29.755C52.2416 29.5683 52.4703 29.2463 52.6383 28.789C52.685 28.6863 52.7316 28.6163 52.7783 28.579C52.825 28.5323 52.895 28.509 52.9883 28.509H53.6603C53.7536 28.509 53.833 28.537 53.8983 28.593C53.9636 28.649 53.9916 28.7236 53.9823 28.817C53.973 29.013 53.931 29.2136 53.8563 29.419C53.7816 29.6243 53.6603 29.8343 53.4923 30.049C53.3336 30.2543 53.133 30.441 52.8903 30.609C52.6476 30.7676 52.3536 30.8983 52.0083 31.001C51.6723 31.0943 51.2896 31.141 50.8603 31.141ZM55.7009 31.001C55.6076 31.001 55.5282 30.973 55.4629 30.917C55.4069 30.8516 55.3789 30.7723 55.3789 30.679V21.383C55.3789 21.2896 55.4069 21.215 55.4629 21.159C55.5282 21.0936 55.6076 21.061 55.7009 21.061H56.4009C56.5036 21.061 56.5829 21.0936 56.6389 21.159C56.6949 21.215 56.7229 21.2896 56.7229 21.383V24.645C56.9749 24.3276 57.2829 24.071 57.6469 23.875C58.0109 23.679 58.4729 23.581 59.0329 23.581C59.6396 23.581 60.1529 23.7163 60.5729 23.987C61.0022 24.2483 61.3242 24.617 61.5389 25.093C61.7629 25.5596 61.8749 26.1056 61.8749 26.731V30.679C61.8749 30.7723 61.8469 30.8516 61.7909 30.917C61.7349 30.973 61.6556 31.001 61.5529 31.001H60.8529C60.7596 31.001 60.6802 30.973 60.6149 30.917C60.5589 30.8516 60.5309 30.7723 60.5309 30.679V26.801C60.5309 26.1476 60.3722 25.639 60.0549 25.275C59.7376 24.9016 59.2709 24.715 58.6549 24.715C58.0762 24.715 57.6096 24.9016 57.2549 25.275C56.9002 25.639 56.7229 26.1476 56.7229 26.801V30.679C56.7229 30.7723 56.6949 30.8516 56.6389 30.917C56.5829 30.973 56.5036 31.001 56.4009 31.001H55.7009ZM65.6462 31.141C65.1795 31.141 64.7548 31.0476 64.3722 30.861C63.9895 30.6743 63.6815 30.4223 63.4482 30.105C63.2148 29.7876 63.0982 29.4283 63.0982 29.027C63.0982 28.383 63.3595 27.8696 63.8822 27.487C64.4048 27.1043 65.0862 26.8523 65.9262 26.731L68.0122 26.437V26.031C68.0122 25.583 67.8815 25.233 67.6202 24.981C67.3682 24.729 66.9528 24.603 66.3742 24.603C65.9542 24.603 65.6135 24.687 65.3522 24.855C65.1002 25.023 64.9228 25.2376 64.8202 25.499C64.7642 25.639 64.6662 25.709 64.5262 25.709H63.8962C63.7935 25.709 63.7142 25.681 63.6582 25.625C63.6115 25.5596 63.5882 25.485 63.5882 25.401C63.5882 25.261 63.6395 25.0883 63.7422 24.883C63.8542 24.6776 64.0222 24.477 64.2462 24.281C64.4702 24.085 64.7548 23.9216 65.1002 23.791C65.4548 23.651 65.8842 23.581 66.3882 23.581C66.9482 23.581 67.4195 23.6556 67.8022 23.805C68.1848 23.945 68.4835 24.1363 68.6982 24.379C68.9222 24.6216 69.0808 24.897 69.1742 25.205C69.2768 25.513 69.3282 25.8256 69.3282 26.143V30.679C69.3282 30.7723 69.2955 30.8516 69.2302 30.917C69.1742 30.973 69.0995 31.001 69.0062 31.001H68.3622C68.2595 31.001 68.1802 30.973 68.1242 30.917C68.0682 30.8516 68.0402 30.7723 68.0402 30.679V30.077C67.9188 30.245 67.7555 30.413 67.5502 30.581C67.3448 30.7396 67.0882 30.875 66.7802 30.987C66.4722 31.0896 66.0942 31.141 65.6462 31.141ZM65.9402 30.091C66.3228 30.091 66.6728 30.0116 66.9902 29.853C67.3075 29.685 67.5548 29.4283 67.7322 29.083C67.9188 28.7376 68.0122 28.3036 68.0122 27.781V27.389L66.3882 27.627C65.7255 27.7203 65.2262 27.879 64.8902 28.103C64.5542 28.3176 64.3862 28.593 64.3862 28.929C64.3862 29.1903 64.4608 29.4096 64.6102 29.587C64.7688 29.755 64.9648 29.881 65.1982 29.965C65.4408 30.049 65.6882 30.091 65.9402 30.091ZM71.3828 31.001C71.2894 31.001 71.2101 30.973 71.1448 30.917C71.0888 30.8516 71.0608 30.7723 71.0608 30.679V24.043C71.0608 23.9496 71.0888 23.875 71.1448 23.819C71.2101 23.7536 71.2894 23.721 71.3828 23.721H72.0548C72.1481 23.721 72.2228 23.7536 72.2788 23.819C72.3348 23.875 72.3628 23.9496 72.3628 24.043V30.679C72.3628 30.7723 72.3348 30.8516 72.2788 30.917C72.2228 30.973 72.1481 31.001 72.0548 31.001H71.3828ZM71.2708 22.363C71.1774 22.363 71.0981 22.335 71.0328 22.279C70.9768 22.2136 70.9488 22.1343 70.9488 22.041V21.285C70.9488 21.1916 70.9768 21.117 71.0328 21.061C71.0981 20.9956 71.1774 20.963 71.2708 20.963H72.1528C72.2461 20.963 72.3208 20.9956 72.3768 21.061C72.4421 21.117 72.4748 21.1916 72.4748 21.285V22.041C72.4748 22.1343 72.4421 22.2136 72.3768 22.279C72.3208 22.335 72.2461 22.363 72.1528 22.363H71.2708ZM74.4934 31.001C74.4001 31.001 74.3207 30.973 74.2554 30.917C74.1994 30.8516 74.1714 30.7723 74.1714 30.679V24.043C74.1714 23.9496 74.1994 23.875 74.2554 23.819C74.3207 23.7536 74.4001 23.721 74.4934 23.721H75.1514C75.2447 23.721 75.3194 23.7536 75.3754 23.819C75.4407 23.875 75.4734 23.9496 75.4734 24.043V24.659C75.7161 24.3416 76.0194 24.085 76.3834 23.889C76.7567 23.6836 77.2327 23.581 77.8114 23.581C78.4181 23.581 78.9314 23.7163 79.3514 23.987C79.7807 24.2483 80.1027 24.617 80.3174 25.093C80.5321 25.5596 80.6394 26.1056 80.6394 26.731V30.679C80.6394 30.7723 80.6114 30.8516 80.5554 30.917C80.4994 30.973 80.4247 31.001 80.3314 31.001H79.6314C79.5381 31.001 79.4587 30.973 79.3934 30.917C79.3374 30.8516 79.3094 30.7723 79.3094 30.679V26.801C79.3094 26.1476 79.1507 25.639 78.8334 25.275C78.5161 24.9016 78.0494 24.715 77.4334 24.715C76.8547 24.715 76.3881 24.9016 76.0334 25.275C75.6881 25.639 75.5154 26.1476 75.5154 26.801V30.679C75.5154 30.7723 75.4827 30.8516 75.4174 30.917C75.3614 30.973 75.2867 31.001 75.1934 31.001H74.4934ZM86.0373 31.001C85.9439 31.001 85.8646 30.973 85.7993 30.917C85.7433 30.8516 85.7153 30.7723 85.7153 30.679V21.537C85.7153 21.4343 85.7433 21.355 85.7993 21.299C85.8646 21.2336 85.9439 21.201 86.0373 21.201H86.7373C86.8493 21.201 86.9333 21.229 86.9893 21.285C87.0453 21.341 87.0779 21.3876 87.0873 21.425L90.0553 27.081L93.0373 21.425C93.0559 21.3876 93.0886 21.341 93.1353 21.285C93.1913 21.229 93.2753 21.201 93.3873 21.201H94.0733C94.1759 21.201 94.2553 21.2336 94.3113 21.299C94.3766 21.355 94.4093 21.4343 94.4093 21.537V30.679C94.4093 30.7723 94.3766 30.8516 94.3113 30.917C94.2553 30.973 94.1759 31.001 94.0733 31.001H93.3873C93.2939 31.001 93.2146 30.973 93.1493 30.917C93.0933 30.8516 93.0653 30.7723 93.0653 30.679V23.791L90.7273 28.355C90.6899 28.4483 90.6339 28.523 90.5593 28.579C90.4846 28.6256 90.3913 28.649 90.2793 28.649H89.8453C89.7239 28.649 89.6259 28.6256 89.5513 28.579C89.4859 28.523 89.4299 28.4483 89.3833 28.355L87.0453 23.791V30.679C87.0453 30.7723 87.0126 30.8516 86.9473 30.917C86.8913 30.973 86.8166 31.001 86.7233 31.001H86.0373ZM98.3985 31.141C97.9318 31.141 97.5072 31.0476 97.1245 30.861C96.7418 30.6743 96.4338 30.4223 96.2005 30.105C95.9672 29.7876 95.8505 29.4283 95.8505 29.027C95.8505 28.383 96.1118 27.8696 96.6345 27.487C97.1572 27.1043 97.8385 26.8523 98.6785 26.731L100.765 26.437V26.031C100.765 25.583 100.634 25.233 100.373 24.981C100.121 24.729 99.7052 24.603 99.1265 24.603C98.7065 24.603 98.3658 24.687 98.1045 24.855C97.8525 25.023 97.6752 25.2376 97.5725 25.499C97.5165 25.639 97.4185 25.709 97.2785 25.709H96.6485C96.5458 25.709 96.4665 25.681 96.4105 25.625C96.3638 25.5596 96.3405 25.485 96.3405 25.401C96.3405 25.261 96.3918 25.0883 96.4945 24.883C96.6065 24.6776 96.7745 24.477 96.9985 24.281C97.2225 24.085 97.5072 23.9216 97.8525 23.791C98.2072 23.651 98.6365 23.581 99.1405 23.581C99.7005 23.581 100.172 23.6556 100.555 23.805C100.937 23.945 101.236 24.1363 101.451 24.379C101.675 24.6216 101.833 24.897 101.927 25.205C102.029 25.513 102.081 25.8256 102.081 26.143V30.679C102.081 30.7723 102.048 30.8516 101.983 30.917C101.927 30.973 101.852 31.001 101.759 31.001H101.115C101.012 31.001 100.933 30.973 100.877 30.917C100.821 30.8516 100.793 30.7723 100.793 30.679V30.077C100.671 30.245 100.508 30.413 100.303 30.581C100.097 30.7396 99.8405 30.875 99.5325 30.987C99.2245 31.0896 98.8465 31.141 98.3985 31.141ZM98.6925 30.091C99.0752 30.091 99.4252 30.0116 99.7425 29.853C100.06 29.685 100.307 29.4283 100.485 29.083C100.671 28.7376 100.765 28.3036 100.765 27.781V27.389L99.1405 27.627C98.4778 27.7203 97.9785 27.879 97.6425 28.103C97.3065 28.3176 97.1385 28.593 97.1385 28.929C97.1385 29.1903 97.2132 29.4096 97.3625 29.587C97.5212 29.755 97.7172 29.881 97.9505 29.965C98.1932 30.049 98.4405 30.091 98.6925 30.091ZM106.333 31.141C105.81 31.141 105.362 31.0756 104.989 30.945C104.616 30.8143 104.312 30.6556 104.079 30.469C103.846 30.2823 103.668 30.0956 103.547 29.909C103.435 29.7223 103.374 29.573 103.365 29.461C103.356 29.3583 103.388 29.279 103.463 29.223C103.538 29.167 103.612 29.139 103.687 29.139H104.303C104.359 29.139 104.401 29.1483 104.429 29.167C104.466 29.1763 104.513 29.2136 104.569 29.279C104.69 29.4096 104.826 29.5403 104.975 29.671C105.124 29.8016 105.306 29.909 105.521 29.993C105.745 30.077 106.02 30.119 106.347 30.119C106.823 30.119 107.215 30.0303 107.523 29.853C107.831 29.6663 107.985 29.3956 107.985 29.041C107.985 28.8076 107.92 28.621 107.789 28.481C107.668 28.341 107.444 28.215 107.117 28.103C106.8 27.991 106.361 27.8743 105.801 27.753C105.241 27.6223 104.798 27.4636 104.471 27.277C104.144 27.081 103.911 26.8523 103.771 26.591C103.631 26.3203 103.561 26.017 103.561 25.681C103.561 25.3356 103.664 25.0043 103.869 24.687C104.074 24.3603 104.373 24.0943 104.765 23.889C105.166 23.6836 105.666 23.581 106.263 23.581C106.748 23.581 107.164 23.6416 107.509 23.763C107.854 23.8843 108.139 24.0383 108.363 24.225C108.587 24.4023 108.755 24.5796 108.867 24.757C108.979 24.9343 109.04 25.0836 109.049 25.205C109.058 25.2983 109.03 25.3776 108.965 25.443C108.9 25.499 108.825 25.527 108.741 25.527H108.153C108.088 25.527 108.032 25.513 107.985 25.485C107.948 25.457 107.91 25.4243 107.873 25.387C107.78 25.2656 107.668 25.1443 107.537 25.023C107.416 24.9016 107.252 24.8036 107.047 24.729C106.851 24.645 106.59 24.603 106.263 24.603C105.796 24.603 105.446 24.701 105.213 24.897C104.98 25.093 104.863 25.3403 104.863 25.639C104.863 25.8163 104.914 25.975 105.017 26.115C105.12 26.255 105.316 26.381 105.605 26.493C105.894 26.605 106.324 26.7263 106.893 26.857C107.509 26.9783 107.994 27.1416 108.349 27.347C108.704 27.5523 108.956 27.7903 109.105 28.061C109.254 28.3316 109.329 28.6443 109.329 28.999C109.329 29.391 109.212 29.7503 108.979 30.077C108.755 30.4036 108.419 30.665 107.971 30.861C107.532 31.0476 106.986 31.141 106.333 31.141ZM113.498 31.001C112.975 31.001 112.551 30.903 112.224 30.707C111.897 30.5016 111.659 30.217 111.51 29.853C111.361 29.4796 111.286 29.041 111.286 28.537V24.841H110.194C110.101 24.841 110.021 24.813 109.956 24.757C109.9 24.6916 109.872 24.6123 109.872 24.519V24.043C109.872 23.9496 109.9 23.875 109.956 23.819C110.021 23.7536 110.101 23.721 110.194 23.721H111.286V21.383C111.286 21.2896 111.314 21.215 111.37 21.159C111.435 21.0936 111.515 21.061 111.608 21.061H112.266C112.359 21.061 112.434 21.0936 112.49 21.159C112.555 21.215 112.588 21.2896 112.588 21.383V23.721H114.324C114.417 23.721 114.492 23.7536 114.548 23.819C114.613 23.875 114.646 23.9496 114.646 24.043V24.519C114.646 24.6123 114.613 24.6916 114.548 24.757C114.492 24.813 114.417 24.841 114.324 24.841H112.588V28.439C112.588 28.8776 112.663 29.223 112.812 29.475C112.961 29.727 113.227 29.853 113.61 29.853H114.464C114.557 29.853 114.632 29.8856 114.688 29.951C114.753 30.007 114.786 30.0816 114.786 30.175V30.679C114.786 30.7723 114.753 30.8516 114.688 30.917C114.632 30.973 114.557 31.001 114.464 31.001H113.498ZM118.743 31.141C117.782 31.141 117.016 30.847 116.447 30.259C115.878 29.6616 115.565 28.8496 115.509 27.823C115.5 27.7016 115.495 27.5476 115.495 27.361C115.495 27.165 115.5 27.0063 115.509 26.885C115.546 26.2223 115.7 25.6436 115.971 25.149C116.242 24.645 116.61 24.2576 117.077 23.987C117.553 23.7163 118.108 23.581 118.743 23.581C119.452 23.581 120.045 23.7303 120.521 24.029C121.006 24.3276 121.375 24.7523 121.627 25.303C121.879 25.8536 122.005 26.4976 122.005 27.235V27.473C122.005 27.5756 121.972 27.655 121.907 27.711C121.851 27.767 121.776 27.795 121.683 27.795H116.839C116.839 27.8043 116.839 27.823 116.839 27.851C116.839 27.879 116.839 27.9023 116.839 27.921C116.858 28.3036 116.942 28.663 117.091 28.999C117.24 29.3256 117.455 29.5916 117.735 29.797C118.015 30.0023 118.351 30.105 118.743 30.105C119.079 30.105 119.359 30.0536 119.583 29.951C119.807 29.8483 119.989 29.7363 120.129 29.615C120.269 29.4843 120.362 29.3863 120.409 29.321C120.493 29.1996 120.558 29.1296 120.605 29.111C120.652 29.083 120.726 29.069 120.829 29.069H121.501C121.594 29.069 121.669 29.097 121.725 29.153C121.79 29.1996 121.818 29.2696 121.809 29.363C121.8 29.503 121.725 29.6756 121.585 29.881C121.445 30.077 121.244 30.273 120.983 30.469C120.722 30.665 120.404 30.8283 120.031 30.959C119.658 31.0803 119.228 31.141 118.743 31.141ZM116.839 26.829H120.675V26.787C120.675 26.367 120.596 25.9936 120.437 25.667C120.288 25.3403 120.068 25.0836 119.779 24.897C119.49 24.701 119.144 24.603 118.743 24.603C118.342 24.603 117.996 24.701 117.707 24.897C117.427 25.0836 117.212 25.3403 117.063 25.667C116.914 25.9936 116.839 26.367 116.839 26.787V26.829ZM123.721 31.001C123.628 31.001 123.548 30.973 123.483 30.917C123.427 30.8516 123.399 30.7723 123.399 30.679V24.057C123.399 23.9636 123.427 23.8843 123.483 23.819C123.548 23.7536 123.628 23.721 123.721 23.721H124.365C124.458 23.721 124.538 23.7536 124.603 23.819C124.668 23.8843 124.701 23.9636 124.701 24.057V24.673C124.888 24.3556 125.144 24.1176 125.471 23.959C125.798 23.8003 126.19 23.721 126.647 23.721H127.207C127.3 23.721 127.375 23.7536 127.431 23.819C127.487 23.875 127.515 23.9496 127.515 24.043V24.617C127.515 24.7103 127.487 24.785 127.431 24.841C127.375 24.897 127.3 24.925 127.207 24.925H126.367C125.863 24.925 125.466 25.0743 125.177 25.373C124.888 25.6623 124.743 26.059 124.743 26.563V30.679C124.743 30.7723 124.71 30.8516 124.645 30.917C124.58 30.973 124.5 31.001 124.407 31.001H123.721ZM129.711 33.661C129.637 33.661 129.571 33.633 129.515 33.577C129.459 33.521 129.431 33.4556 129.431 33.381C129.431 33.3436 129.436 33.3063 129.445 33.269C129.455 33.2316 129.473 33.185 129.501 33.129L130.579 30.567L127.905 24.253C127.859 24.141 127.835 24.0616 127.835 24.015C127.835 23.931 127.863 23.861 127.919 23.805C127.975 23.749 128.045 23.721 128.129 23.721H128.815C128.909 23.721 128.983 23.7443 129.039 23.791C129.095 23.8376 129.133 23.8936 129.151 23.959L131.279 29.055L133.463 23.959C133.491 23.8936 133.529 23.8376 133.575 23.791C133.631 23.7443 133.711 23.721 133.813 23.721H134.471C134.555 23.721 134.625 23.749 134.681 23.805C134.737 23.861 134.765 23.9263 134.765 24.001C134.765 24.0476 134.742 24.1316 134.695 24.253L130.719 33.423C130.691 33.4883 130.649 33.5443 130.593 33.591C130.547 33.6376 130.472 33.661 130.369 33.661H129.711Z" fill="white"/>
<rect x="248.5" y="12.001" width="28" height="28" rx="14" fill="white"/>
<path d="M262.968 31.141C262.38 31.141 261.867 31.071 261.428 30.931C260.989 30.7816 260.621 30.5856 260.322 30.343C260.023 30.1003 259.795 29.8343 259.636 29.545C259.487 29.2556 259.407 28.957 259.398 28.649C259.398 28.565 259.426 28.4996 259.482 28.453C259.538 28.4063 259.608 28.383 259.692 28.383H260.378C260.462 28.383 260.537 28.4016 260.602 28.439C260.667 28.4763 260.723 28.5556 260.77 28.677C260.863 29.013 261.022 29.2743 261.246 29.461C261.479 29.6476 261.745 29.7783 262.044 29.853C262.352 29.9183 262.66 29.951 262.968 29.951C263.612 29.951 264.135 29.797 264.536 29.489C264.937 29.181 265.138 28.7283 265.138 28.131C265.138 27.5243 264.956 27.0903 264.592 26.829C264.228 26.5676 263.724 26.437 263.08 26.437H261.75C261.657 26.437 261.577 26.409 261.512 26.353C261.456 26.297 261.428 26.2176 261.428 26.115V25.737C261.428 25.653 261.442 25.583 261.47 25.527C261.507 25.4616 261.545 25.4056 261.582 25.359L264.298 22.391H260.168C260.075 22.391 259.995 22.363 259.93 22.307C259.874 22.251 259.846 22.1716 259.846 22.069V21.537C259.846 21.4343 259.874 21.355 259.93 21.299C259.995 21.2336 260.075 21.201 260.168 21.201H265.754C265.857 21.201 265.936 21.2336 265.992 21.299C266.057 21.355 266.09 21.4343 266.09 21.537V22.041C266.09 22.1063 266.071 22.167 266.034 22.223C266.006 22.2696 265.973 22.3163 265.936 22.363L263.234 25.373L263.458 25.387C264.074 25.4056 264.611 25.5176 265.068 25.723C265.535 25.9283 265.894 26.2363 266.146 26.647C266.407 27.0483 266.538 27.557 266.538 28.173C266.538 28.7983 266.384 29.335 266.076 29.783C265.768 30.2216 265.343 30.5576 264.802 30.791C264.261 31.0243 263.649 31.141 262.968 31.141Z" fill="#9747FF"/>
</svg>
