<svg width="40" height="41" viewBox="0 0 40 41" fill="none" xmlns="http://www.w3.org/2000/svg">
<rect y="0.603271" width="40" height="40" rx="20" fill="#FF002F" fill-opacity="0.1"/>
<path d="M20 32.27C26.4434 32.27 31.6667 27.0466 31.6667 20.6033C31.6667 14.16 26.4434 8.93665 20 8.93665C13.5567 8.93665 8.33337 14.16 8.33337 20.6033C8.33337 27.0466 13.5567 32.27 20 32.27Z" fill="#E8002B"/>
<path d="M17.6666 17.1033C17.6666 15.8146 18.7113 14.77 20 14.77C21.2887 14.77 22.3333 15.8146 22.3333 17.1033C22.3333 17.5678 22.1976 18.0006 21.9636 18.3642C21.2663 19.4479 20 20.4813 20 21.77V22.3533" stroke="#FFE6EB" stroke-width="1.75" stroke-linecap="round"/>
<path d="M19.9907 26.4366H20.0012" stroke="#FFE6EB" stroke-width="2.33333" stroke-linecap="round" stroke-linejoin="round"/>
</svg>
