<svg width="305" height="79" viewBox="0 0 305 79" fill="none" xmlns="http://www.w3.org/2000/svg">
<path d="M275.972 5H8.28018C6.07104 5 4.28018 6.79086 4.28018 9V75C4.28018 77.2091 6.07105 79 8.28019 79H275.972C277.269 79 278.485 78.3716 279.235 77.314L302.639 44.314C303.622 42.9279 303.622 41.0721 302.639 39.686L279.235 6.68601C278.485 5.62843 277.269 5 275.972 5Z" fill="#AD1848"/>
<path d="M4.35989 0.900391H272.052C273.186 0.900391 274.25 1.45027 274.907 2.37565L298.311 35.3756C299.171 36.5884 299.171 38.2123 298.311 39.4251L274.907 72.4251C274.25 73.3505 273.186 73.9004 272.052 73.9004H4.3599C2.4269 73.9004 0.859894 72.3334 0.859894 70.4004V4.40039C0.859894 2.4674 2.4269 0.900391 4.35989 0.900391Z" fill="#DB2B63" stroke="#AD1848"/>
<path d="M15.1008 43.9004C14.9688 43.9004 14.8668 43.8644 14.7948 43.7924C14.7228 43.7084 14.6868 43.6064 14.6868 43.4864V31.7324C14.6868 31.6004 14.7228 31.4984 14.7948 31.4264C14.8668 31.3424 14.9688 31.3004 15.1008 31.3004H22.4448C22.5768 31.3004 22.6788 31.3424 22.7508 31.4264C22.8228 31.4984 22.8588 31.6004 22.8588 31.7324V32.4524C22.8588 32.5844 22.8228 32.6864 22.7508 32.7584C22.6788 32.8304 22.5768 32.8664 22.4448 32.8664H16.4328V37.0604H22.0848C22.2168 37.0604 22.3188 37.1024 22.3908 37.1864C22.4628 37.2584 22.4988 37.3604 22.4988 37.4924V38.2124C22.4988 38.3324 22.4628 38.4344 22.3908 38.5184C22.3188 38.5904 22.2168 38.6264 22.0848 38.6264H16.4328V43.4864C16.4328 43.6064 16.3908 43.7084 16.3068 43.7924C16.2348 43.8644 16.1328 43.9004 16.0008 43.9004H15.1008ZM27.9031 44.0804C27.1351 44.0804 26.4811 43.9124 25.9411 43.5764C25.4131 43.2284 25.0111 42.7484 24.7351 42.1364C24.4591 41.5244 24.3211 40.8224 24.3211 40.0304V34.9544C24.3211 34.8344 24.3571 34.7384 24.4291 34.6664C24.5131 34.5824 24.6151 34.5404 24.7351 34.5404H25.6351C25.7551 34.5404 25.8511 34.5824 25.9231 34.6664C26.0071 34.7384 26.0491 34.8344 26.0491 34.9544V39.9404C26.0491 41.7284 26.8291 42.6224 28.3891 42.6224C29.1331 42.6224 29.7271 42.3884 30.1711 41.9204C30.6271 41.4404 30.8551 40.7804 30.8551 39.9404V34.9544C30.8551 34.8344 30.8911 34.7384 30.9631 34.6664C31.0471 34.5824 31.1491 34.5404 31.2691 34.5404H32.1511C32.2831 34.5404 32.3851 34.5824 32.4571 34.6664C32.5291 34.7384 32.5651 34.8344 32.5651 34.9544V43.4864C32.5651 43.6064 32.5291 43.7084 32.4571 43.7924C32.3851 43.8644 32.2831 43.9004 32.1511 43.9004H31.3231C31.2031 43.9004 31.1011 43.8644 31.0171 43.7924C30.9451 43.7084 30.9091 43.6064 30.9091 43.4864V42.6944C30.5851 43.1144 30.1891 43.4504 29.7211 43.7024C29.2651 43.9544 28.6591 44.0804 27.9031 44.0804ZM35.3113 43.9004C35.1913 43.9004 35.0893 43.8644 35.0053 43.7924C34.9333 43.7084 34.8973 43.6064 34.8973 43.4864V31.5344C34.8973 31.4144 34.9333 31.3184 35.0053 31.2464C35.0893 31.1624 35.1913 31.1204 35.3113 31.1204H36.1573C36.2893 31.1204 36.3913 31.1624 36.4633 31.2464C36.5353 31.3184 36.5713 31.4144 36.5713 31.5344V43.4864C36.5713 43.6064 36.5353 43.7084 36.4633 43.7924C36.3913 43.8644 36.2893 43.9004 36.1573 43.9004H35.3113ZM39.3282 43.9004C39.2082 43.9004 39.1062 43.8644 39.0222 43.7924C38.9502 43.7084 38.9142 43.6064 38.9142 43.4864V31.5344C38.9142 31.4144 38.9502 31.3184 39.0222 31.2464C39.1062 31.1624 39.2082 31.1204 39.3282 31.1204H40.1742C40.3062 31.1204 40.4082 31.1624 40.4802 31.2464C40.5522 31.3184 40.5882 31.4144 40.5882 31.5344V43.4864C40.5882 43.6064 40.5522 43.7084 40.4802 43.7924C40.4082 43.8644 40.3062 43.9004 40.1742 43.9004H39.3282ZM46.1532 44.0804C45.4812 44.0804 44.9052 43.9964 44.4252 43.8284C43.9452 43.6604 43.5552 43.4564 43.2552 43.2164C42.9552 42.9764 42.7272 42.7364 42.5712 42.4964C42.4272 42.2564 42.3492 42.0644 42.3372 41.9204C42.3252 41.7884 42.3672 41.6864 42.4632 41.6144C42.5592 41.5424 42.6552 41.5064 42.7512 41.5064H43.5432C43.6152 41.5064 43.6692 41.5184 43.7052 41.5424C43.7532 41.5544 43.8132 41.6024 43.8852 41.6864C44.0412 41.8544 44.2152 42.0224 44.4072 42.1904C44.5992 42.3584 44.8332 42.4964 45.1092 42.6044C45.3972 42.7124 45.7512 42.7664 46.1712 42.7664C46.7832 42.7664 47.2872 42.6524 47.6832 42.4244C48.0792 42.1844 48.2772 41.8364 48.2772 41.3804C48.2772 41.0804 48.1932 40.8404 48.0252 40.6604C47.8692 40.4804 47.5812 40.3184 47.1612 40.1744C46.7532 40.0304 46.1892 39.8804 45.4692 39.7244C44.7492 39.5564 44.1792 39.3524 43.7592 39.1124C43.3392 38.8604 43.0392 38.5664 42.8592 38.2304C42.6792 37.8824 42.5892 37.4924 42.5892 37.0604C42.5892 36.6164 42.7212 36.1904 42.9852 35.7824C43.2492 35.3624 43.6332 35.0204 44.1372 34.7564C44.6532 34.4924 45.2952 34.3604 46.0632 34.3604C46.6872 34.3604 47.2212 34.4384 47.6652 34.5944C48.1092 34.7504 48.4752 34.9484 48.7632 35.1884C49.0512 35.4164 49.2672 35.6444 49.4112 35.8724C49.5552 36.1004 49.6332 36.2924 49.6452 36.4484C49.6572 36.5684 49.6212 36.6704 49.5372 36.7544C49.4532 36.8264 49.3572 36.8624 49.2492 36.8624H48.4932C48.4092 36.8624 48.3372 36.8444 48.2772 36.8084C48.2292 36.7724 48.1812 36.7304 48.1332 36.6824C48.0132 36.5264 47.8692 36.3704 47.7012 36.2144C47.5452 36.0584 47.3352 35.9324 47.0712 35.8364C46.8192 35.7284 46.4832 35.6744 46.0632 35.6744C45.4632 35.6744 45.0132 35.8004 44.7132 36.0524C44.4132 36.3044 44.2632 36.6224 44.2632 37.0064C44.2632 37.2344 44.3292 37.4384 44.4612 37.6184C44.5932 37.7984 44.8452 37.9604 45.2172 38.1044C45.5892 38.2484 46.1412 38.4044 46.8732 38.5724C47.6652 38.7284 48.2892 38.9384 48.7452 39.2024C49.2012 39.4664 49.5252 39.7724 49.7172 40.1204C49.9092 40.4684 50.0052 40.8704 50.0052 41.3264C50.0052 41.8304 49.8552 42.2924 49.5552 42.7124C49.2672 43.1324 48.8352 43.4684 48.2592 43.7204C47.6952 43.9604 46.9932 44.0804 46.1532 44.0804ZM55.3654 43.9004C54.6934 43.9004 54.1474 43.7744 53.7274 43.5224C53.3074 43.2584 53.0014 42.8924 52.8094 42.4244C52.6174 41.9444 52.5214 41.3804 52.5214 40.7324V35.9804H51.1174C50.9974 35.9804 50.8954 35.9444 50.8114 35.8724C50.7394 35.7884 50.7034 35.6864 50.7034 35.5664V34.9544C50.7034 34.8344 50.7394 34.7384 50.8114 34.6664C50.8954 34.5824 50.9974 34.5404 51.1174 34.5404H52.5214V31.5344C52.5214 31.4144 52.5574 31.3184 52.6294 31.2464C52.7134 31.1624 52.8154 31.1204 52.9354 31.1204H53.7814C53.9014 31.1204 53.9974 31.1624 54.0694 31.2464C54.1534 31.3184 54.1954 31.4144 54.1954 31.5344V34.5404H56.4274C56.5474 34.5404 56.6434 34.5824 56.7154 34.6664C56.7994 34.7384 56.8414 34.8344 56.8414 34.9544V35.5664C56.8414 35.6864 56.7994 35.7884 56.7154 35.8724C56.6434 35.9444 56.5474 35.9804 56.4274 35.9804H54.1954V40.6064C54.1954 41.1704 54.2914 41.6144 54.4834 41.9384C54.6754 42.2624 55.0174 42.4244 55.5094 42.4244H56.6074C56.7274 42.4244 56.8234 42.4664 56.8954 42.5504C56.9794 42.6224 57.0214 42.7184 57.0214 42.8384V43.4864C57.0214 43.6064 56.9794 43.7084 56.8954 43.7924C56.8234 43.8644 56.7274 43.9004 56.6074 43.9004H55.3654ZM60.9926 44.0804C60.3926 44.0804 59.8466 43.9604 59.3546 43.7204C58.8626 43.4804 58.4666 43.1564 58.1666 42.7484C57.8666 42.3404 57.7166 41.8784 57.7166 41.3624C57.7166 40.5344 58.0526 39.8744 58.7246 39.3824C59.3966 38.8904 60.2726 38.5664 61.3526 38.4104L64.0346 38.0324V37.5104C64.0346 36.9344 63.8666 36.4844 63.5306 36.1604C63.2066 35.8364 62.6726 35.6744 61.9286 35.6744C61.3886 35.6744 60.9506 35.7824 60.6146 35.9984C60.2906 36.2144 60.0626 36.4904 59.9306 36.8264C59.8586 37.0064 59.7326 37.0964 59.5526 37.0964H58.7426C58.6106 37.0964 58.5086 37.0604 58.4366 36.9884C58.3766 36.9044 58.3466 36.8084 58.3466 36.7004C58.3466 36.5204 58.4126 36.2984 58.5446 36.0344C58.6886 35.7704 58.9046 35.5124 59.1926 35.2604C59.4806 35.0084 59.8466 34.7984 60.2906 34.6304C60.7466 34.4504 61.2986 34.3604 61.9466 34.3604C62.6666 34.3604 63.2726 34.4564 63.7646 34.6484C64.2566 34.8284 64.6406 35.0744 64.9166 35.3864C65.2046 35.6984 65.4086 36.0524 65.5286 36.4484C65.6606 36.8444 65.7266 37.2464 65.7266 37.6544V43.4864C65.7266 43.6064 65.6846 43.7084 65.6006 43.7924C65.5286 43.8644 65.4326 43.9004 65.3126 43.9004H64.4846C64.3526 43.9004 64.2506 43.8644 64.1786 43.7924C64.1066 43.7084 64.0706 43.6064 64.0706 43.4864V42.7124C63.9146 42.9284 63.7046 43.1444 63.4406 43.3604C63.1766 43.5644 62.8466 43.7384 62.4506 43.8824C62.0546 44.0144 61.5686 44.0804 60.9926 44.0804ZM61.3706 42.7304C61.8626 42.7304 62.3126 42.6284 62.7206 42.4244C63.1286 42.2084 63.4466 41.8784 63.6746 41.4344C63.9146 40.9904 64.0346 40.4324 64.0346 39.7604V39.2564L61.9466 39.5624C61.0946 39.6824 60.4526 39.8864 60.0206 40.1744C59.5886 40.4504 59.3726 40.8044 59.3726 41.2364C59.3726 41.5724 59.4686 41.8544 59.6606 42.0824C59.8646 42.2984 60.1166 42.4604 60.4166 42.5684C60.7286 42.6764 61.0466 42.7304 61.3706 42.7304ZM71.7343 44.0804C70.8823 44.0804 70.1443 43.9184 69.5203 43.5944C68.9083 43.2584 68.4343 42.7844 68.0983 42.1724C67.7623 41.5484 67.5823 40.8044 67.5583 39.9404C67.5463 39.7604 67.5403 39.5204 67.5403 39.2204C67.5403 38.9204 67.5463 38.6804 67.5583 38.5004C67.5823 37.6364 67.7623 36.8984 68.0983 36.2864C68.4343 35.6624 68.9083 35.1884 69.5203 34.8644C70.1443 34.5284 70.8823 34.3604 71.7343 34.3604C72.4303 34.3604 73.0243 34.4564 73.5163 34.6484C74.0203 34.8404 74.4343 35.0864 74.7583 35.3864C75.0823 35.6864 75.3223 36.0104 75.4783 36.3584C75.6463 36.7064 75.7363 37.0364 75.7483 37.3484C75.7603 37.4684 75.7243 37.5644 75.6403 37.6364C75.5563 37.7084 75.4543 37.7444 75.3343 37.7444H74.4703C74.3503 37.7444 74.2603 37.7204 74.2003 37.6724C74.1403 37.6124 74.0803 37.5164 74.0203 37.3844C73.8043 36.7964 73.5103 36.3824 73.1383 36.1424C72.7663 35.9024 72.3043 35.7824 71.7523 35.7824C71.0323 35.7824 70.4443 36.0044 69.9883 36.4484C69.5443 36.8924 69.3043 37.6064 69.2683 38.5904C69.2563 39.0224 69.2563 39.4424 69.2683 39.8504C69.3043 40.8464 69.5443 41.5664 69.9883 42.0104C70.4443 42.4424 71.0323 42.6584 71.7523 42.6584C72.3043 42.6584 72.7663 42.5384 73.1383 42.2984C73.5103 42.0584 73.8043 41.6444 74.0203 41.0564C74.0803 40.9244 74.1403 40.8344 74.2003 40.7864C74.2603 40.7264 74.3503 40.6964 74.4703 40.6964H75.3343C75.4543 40.6964 75.5563 40.7324 75.6403 40.8044C75.7243 40.8764 75.7603 40.9724 75.7483 41.0924C75.7363 41.3444 75.6823 41.6024 75.5863 41.8664C75.4903 42.1304 75.3343 42.4004 75.1183 42.6764C74.9143 42.9404 74.6563 43.1804 74.3443 43.3964C74.0323 43.6004 73.6543 43.7684 73.2103 43.9004C72.7783 44.0204 72.2863 44.0804 71.7343 44.0804ZM77.9579 43.9004C77.8379 43.9004 77.7359 43.8644 77.6519 43.7924C77.5799 43.7084 77.5439 43.6064 77.5439 43.4864V31.5344C77.5439 31.4144 77.5799 31.3184 77.6519 31.2464C77.7359 31.1624 77.8379 31.1204 77.9579 31.1204H78.8039C78.9239 31.1204 79.0199 31.1624 79.0919 31.2464C79.1759 31.3184 79.2179 31.4144 79.2179 31.5344V37.7984L82.7639 34.8464C82.9079 34.7264 83.0159 34.6484 83.0879 34.6124C83.1719 34.5644 83.3039 34.5404 83.4839 34.5404H84.4379C84.5459 34.5404 84.6359 34.5764 84.7079 34.6484C84.7799 34.7204 84.8159 34.8104 84.8159 34.9184C84.8159 34.9664 84.7979 35.0204 84.7619 35.0804C84.7379 35.1404 84.6839 35.2004 84.5999 35.2604L80.4419 38.7164L85.0499 43.1984C85.1939 43.3184 85.2659 43.4264 85.2659 43.5224C85.2659 43.6304 85.2299 43.7204 85.1579 43.7924C85.0859 43.8644 84.9959 43.9004 84.8879 43.9004H83.9519C83.7719 43.9004 83.6399 43.8824 83.5559 43.8464C83.4719 43.7984 83.3639 43.7144 83.2319 43.5944L79.2179 39.7604V43.4864C79.2179 43.6064 79.1759 43.7084 79.0919 43.7924C79.0199 43.8644 78.9239 43.9004 78.8039 43.9004H77.9579ZM90.9715 43.9004C90.8395 43.9004 90.7375 43.8644 90.6655 43.7924C90.5935 43.7084 90.5575 43.6064 90.5575 43.4864V31.7324C90.5575 31.6004 90.5935 31.4984 90.6655 31.4264C90.7375 31.3424 90.8395 31.3004 90.9715 31.3004H95.0575C96.2935 31.3004 97.2895 31.4864 98.0455 31.8584C98.8015 32.2304 99.3535 32.7824 99.7015 33.5144C100.049 34.2344 100.229 35.1224 100.241 36.1784C100.253 36.7184 100.259 37.1924 100.259 37.6004C100.259 38.0084 100.253 38.4764 100.241 39.0044C100.217 40.1084 100.031 41.0264 99.6835 41.7584C99.3475 42.4784 98.8075 43.0184 98.0635 43.3784C97.3315 43.7264 96.3595 43.9004 95.1475 43.9004H90.9715ZM92.3215 42.3704H95.0575C95.8855 42.3704 96.5455 42.2564 97.0375 42.0284C97.5295 41.8004 97.8835 41.4344 98.0995 40.9304C98.3275 40.4264 98.4475 39.7604 98.4595 38.9324C98.4835 38.5724 98.4955 38.2604 98.4955 37.9964C98.4955 37.7204 98.4955 37.4504 98.4955 37.1864C98.4955 36.9104 98.4835 36.5984 98.4595 36.2504C98.4355 35.0864 98.1595 34.2284 97.6315 33.6764C97.1035 33.1124 96.2155 32.8304 94.9675 32.8304H92.3215V42.3704ZM106.1 44.0804C104.864 44.0804 103.88 43.7024 103.148 42.9464C102.416 42.1784 102.014 41.1344 101.942 39.8144C101.93 39.6584 101.924 39.4604 101.924 39.2204C101.924 38.9684 101.93 38.7644 101.942 38.6084C101.99 37.7564 102.188 37.0124 102.536 36.3764C102.884 35.7284 103.358 35.2304 103.958 34.8824C104.57 34.5344 105.284 34.3604 106.1 34.3604C107.012 34.3604 107.774 34.5524 108.386 34.9364C109.01 35.3204 109.484 35.8664 109.808 36.5744C110.132 37.2824 110.294 38.1104 110.294 39.0584V39.3644C110.294 39.4964 110.252 39.5984 110.168 39.6704C110.096 39.7424 110 39.7784 109.88 39.7784H103.652C103.652 39.7904 103.652 39.8144 103.652 39.8504C103.652 39.8864 103.652 39.9164 103.652 39.9404C103.676 40.4324 103.784 40.8944 103.976 41.3264C104.168 41.7464 104.444 42.0884 104.804 42.3524C105.164 42.6164 105.596 42.7484 106.1 42.7484C106.532 42.7484 106.892 42.6824 107.18 42.5504C107.468 42.4184 107.702 42.2744 107.882 42.1184C108.062 41.9504 108.182 41.8244 108.242 41.7404C108.35 41.5844 108.434 41.4944 108.494 41.4704C108.554 41.4344 108.65 41.4164 108.782 41.4164H109.646C109.766 41.4164 109.862 41.4524 109.934 41.5244C110.018 41.5844 110.054 41.6744 110.042 41.7944C110.03 41.9744 109.934 42.1964 109.754 42.4604C109.574 42.7124 109.316 42.9644 108.98 43.2164C108.644 43.4684 108.236 43.6784 107.756 43.8464C107.276 44.0024 106.724 44.0804 106.1 44.0804ZM103.652 38.5364H108.584V38.4824C108.584 37.9424 108.482 37.4624 108.278 37.0424C108.086 36.6224 107.804 36.2924 107.432 36.0524C107.06 35.8004 106.616 35.6744 106.1 35.6744C105.584 35.6744 105.14 35.8004 104.768 36.0524C104.408 36.2924 104.132 36.6224 103.94 37.0424C103.748 37.4624 103.652 37.9424 103.652 38.4824V38.5364ZM115.028 43.9004C114.848 43.9004 114.704 43.8584 114.596 43.7744C114.5 43.6904 114.422 43.5824 114.362 43.4504L111.031 35.0984C111.008 35.0384 110.996 34.9784 110.996 34.9184C110.996 34.8104 111.032 34.7204 111.104 34.6484C111.176 34.5764 111.266 34.5404 111.374 34.5404H112.238C112.37 34.5404 112.472 34.5764 112.544 34.6484C112.616 34.7204 112.658 34.7864 112.67 34.8464L115.424 41.9384L118.16 34.8464C118.184 34.7864 118.226 34.7204 118.286 34.6484C118.358 34.5764 118.46 34.5404 118.592 34.5404H119.474C119.57 34.5404 119.654 34.5764 119.726 34.6484C119.81 34.7204 119.852 34.8104 119.852 34.9184C119.852 34.9784 119.84 35.0384 119.816 35.0984L116.468 43.4504C116.42 43.5824 116.342 43.6904 116.234 43.7744C116.138 43.8584 115.994 43.9004 115.802 43.9004H115.028ZM124.768 44.0804C123.532 44.0804 122.548 43.7024 121.816 42.9464C121.084 42.1784 120.682 41.1344 120.61 39.8144C120.598 39.6584 120.592 39.4604 120.592 39.2204C120.592 38.9684 120.598 38.7644 120.61 38.6084C120.658 37.7564 120.856 37.0124 121.204 36.3764C121.552 35.7284 122.026 35.2304 122.626 34.8824C123.238 34.5344 123.952 34.3604 124.768 34.3604C125.68 34.3604 126.442 34.5524 127.054 34.9364C127.678 35.3204 128.152 35.8664 128.476 36.5744C128.8 37.2824 128.962 38.1104 128.962 39.0584V39.3644C128.962 39.4964 128.92 39.5984 128.836 39.6704C128.764 39.7424 128.668 39.7784 128.548 39.7784H122.32C122.32 39.7904 122.32 39.8144 122.32 39.8504C122.32 39.8864 122.32 39.9164 122.32 39.9404C122.344 40.4324 122.452 40.8944 122.644 41.3264C122.836 41.7464 123.112 42.0884 123.472 42.3524C123.832 42.6164 124.264 42.7484 124.768 42.7484C125.2 42.7484 125.56 42.6824 125.848 42.5504C126.136 42.4184 126.37 42.2744 126.55 42.1184C126.73 41.9504 126.85 41.8244 126.91 41.7404C127.018 41.5844 127.102 41.4944 127.162 41.4704C127.222 41.4344 127.318 41.4164 127.45 41.4164H128.314C128.434 41.4164 128.53 41.4524 128.602 41.5244C128.686 41.5844 128.722 41.6744 128.71 41.7944C128.698 41.9744 128.602 42.1964 128.422 42.4604C128.242 42.7124 127.984 42.9644 127.648 43.2164C127.312 43.4684 126.904 43.6784 126.424 43.8464C125.944 44.0024 125.392 44.0804 124.768 44.0804ZM122.32 38.5364H127.252V38.4824C127.252 37.9424 127.15 37.4624 126.946 37.0424C126.754 36.6224 126.472 36.2924 126.1 36.0524C125.728 35.8004 125.284 35.6744 124.768 35.6744C124.252 35.6744 123.808 35.8004 123.436 36.0524C123.076 36.2924 122.8 36.6224 122.608 37.0424C122.416 37.4624 122.32 37.9424 122.32 38.4824V38.5364ZM131.187 43.9004C131.067 43.9004 130.965 43.8644 130.881 43.7924C130.809 43.7084 130.773 43.6064 130.773 43.4864V31.5344C130.773 31.4144 130.809 31.3184 130.881 31.2464C130.965 31.1624 131.067 31.1204 131.187 31.1204H132.033C132.165 31.1204 132.267 31.1624 132.339 31.2464C132.411 31.3184 132.447 31.4144 132.447 31.5344V43.4864C132.447 43.6064 132.411 43.7084 132.339 43.7924C132.267 43.8644 132.165 43.9004 132.033 43.9004H131.187ZM138.606 44.0804C137.694 44.0804 136.932 43.9064 136.32 43.5584C135.708 43.2104 135.24 42.7304 134.916 42.1184C134.592 41.4944 134.412 40.7864 134.376 39.9944C134.364 39.7904 134.358 39.5324 134.358 39.2204C134.358 38.8964 134.364 38.6384 134.376 38.4464C134.412 37.6424 134.592 36.9344 134.916 36.3224C135.252 35.7104 135.726 35.2304 136.338 34.8824C136.95 34.5344 137.706 34.3604 138.606 34.3604C139.506 34.3604 140.262 34.5344 140.874 34.8824C141.486 35.2304 141.954 35.7104 142.278 36.3224C142.614 36.9344 142.8 37.6424 142.836 38.4464C142.848 38.6384 142.854 38.8964 142.854 39.2204C142.854 39.5324 142.848 39.7904 142.836 39.9944C142.8 40.7864 142.62 41.4944 142.296 42.1184C141.972 42.7304 141.504 43.2104 140.892 43.5584C140.28 43.9064 139.518 44.0804 138.606 44.0804ZM138.606 42.6944C139.35 42.6944 139.944 42.4604 140.388 41.9924C140.832 41.5124 141.072 40.8164 141.108 39.9044C141.12 39.7244 141.126 39.4964 141.126 39.2204C141.126 38.9444 141.12 38.7164 141.108 38.5364C141.072 37.6244 140.832 36.9344 140.388 36.4664C139.944 35.9864 139.35 35.7464 138.606 35.7464C137.862 35.7464 137.262 35.9864 136.806 36.4664C136.362 36.9344 136.128 37.6244 136.104 38.5364C136.092 38.7164 136.086 38.9444 136.086 39.2204C136.086 39.4964 136.092 39.7244 136.104 39.9044C136.128 40.8164 136.362 41.5124 136.806 41.9924C137.262 42.4604 137.862 42.6944 138.606 42.6944ZM145.179 47.3204C145.059 47.3204 144.957 47.2784 144.873 47.1944C144.801 47.1224 144.765 47.0264 144.765 46.9064V34.9544C144.765 34.8344 144.801 34.7384 144.873 34.6664C144.957 34.5824 145.059 34.5404 145.179 34.5404H146.007C146.127 34.5404 146.223 34.5824 146.295 34.6664C146.379 34.7384 146.421 34.8344 146.421 34.9544V35.7464C146.709 35.3504 147.093 35.0204 147.573 34.7564C148.053 34.4924 148.653 34.3604 149.373 34.3604C150.045 34.3604 150.615 34.4744 151.083 34.7024C151.563 34.9304 151.953 35.2424 152.253 35.6384C152.565 36.0344 152.799 36.4844 152.955 36.9884C153.111 37.4924 153.195 38.0324 153.207 38.6084C153.219 38.8004 153.225 39.0044 153.225 39.2204C153.225 39.4364 153.219 39.6404 153.207 39.8324C153.195 40.3964 153.111 40.9364 152.955 41.4524C152.799 41.9564 152.565 42.4064 152.253 42.8024C151.953 43.1864 151.563 43.4984 151.083 43.7384C150.615 43.9664 150.045 44.0804 149.373 44.0804C148.677 44.0804 148.089 43.9544 147.609 43.7024C147.141 43.4384 146.757 43.1144 146.457 42.7304V46.9064C146.457 47.0264 146.421 47.1224 146.349 47.1944C146.277 47.2784 146.175 47.3204 146.043 47.3204H145.179ZM148.995 42.6224C149.619 42.6224 150.105 42.4904 150.453 42.2264C150.813 41.9504 151.071 41.5964 151.227 41.1644C151.383 40.7204 151.473 40.2464 151.497 39.7424C151.509 39.3944 151.509 39.0464 151.497 38.6984C151.473 38.1944 151.383 37.7264 151.227 37.2944C151.071 36.8504 150.813 36.4964 150.453 36.2324C150.105 35.9564 149.619 35.8184 148.995 35.8184C148.407 35.8184 147.927 35.9564 147.555 36.2324C147.195 36.5084 146.925 36.8624 146.745 37.2944C146.577 37.7144 146.481 38.1464 146.457 38.5904C146.445 38.7824 146.439 39.0104 146.439 39.2744C146.439 39.5384 146.445 39.7724 146.457 39.9764C146.469 40.3964 146.565 40.8104 146.745 41.2184C146.937 41.6264 147.219 41.9624 147.591 42.2264C147.963 42.4904 148.431 42.6224 148.995 42.6224ZM155.524 43.9004C155.404 43.9004 155.302 43.8644 155.218 43.7924C155.146 43.7084 155.11 43.6064 155.11 43.4864V34.9544C155.11 34.8344 155.146 34.7384 155.218 34.6664C155.302 34.5824 155.404 34.5404 155.524 34.5404H156.334C156.454 34.5404 156.55 34.5824 156.622 34.6664C156.706 34.7384 156.748 34.8344 156.748 34.9544V35.5844C157.024 35.2124 157.372 34.9184 157.792 34.7024C158.212 34.4744 158.716 34.3604 159.304 34.3604C160.66 34.3484 161.62 34.9004 162.184 36.0164C162.46 35.5124 162.862 35.1104 163.39 34.8104C163.918 34.5104 164.518 34.3604 165.19 34.3604C165.814 34.3604 166.378 34.5044 166.882 34.7924C167.398 35.0804 167.8 35.5184 168.088 36.1064C168.388 36.6824 168.538 37.4084 168.538 38.2844V43.4864C168.538 43.6064 168.496 43.7084 168.412 43.7924C168.34 43.8644 168.244 43.9004 168.124 43.9004H167.278C167.158 43.9004 167.056 43.8644 166.972 43.7924C166.9 43.7084 166.864 43.6064 166.864 43.4864V38.4464C166.864 37.7744 166.768 37.2464 166.576 36.8624C166.384 36.4784 166.126 36.2084 165.802 36.0524C165.478 35.8964 165.124 35.8184 164.74 35.8184C164.428 35.8184 164.11 35.8964 163.786 36.0524C163.462 36.2084 163.192 36.4784 162.976 36.8624C162.772 37.2464 162.67 37.7744 162.67 38.4464V43.4864C162.67 43.6064 162.628 43.7084 162.544 43.7924C162.472 43.8644 162.376 43.9004 162.256 43.9004H161.41C161.29 43.9004 161.188 43.8644 161.104 43.7924C161.032 43.7084 160.996 43.6064 160.996 43.4864V38.4464C160.996 37.7744 160.894 37.2464 160.69 36.8624C160.486 36.4784 160.222 36.2084 159.898 36.0524C159.574 35.8964 159.232 35.8184 158.872 35.8184C158.56 35.8184 158.242 35.8964 157.918 36.0524C157.594 36.2084 157.324 36.4784 157.108 36.8624C156.904 37.2464 156.802 37.7684 156.802 38.4284V43.4864C156.802 43.6064 156.76 43.7084 156.676 43.7924C156.604 43.8644 156.508 43.9004 156.388 43.9004H155.524ZM174.472 44.0804C173.236 44.0804 172.252 43.7024 171.52 42.9464C170.788 42.1784 170.386 41.1344 170.314 39.8144C170.302 39.6584 170.296 39.4604 170.296 39.2204C170.296 38.9684 170.302 38.7644 170.314 38.6084C170.362 37.7564 170.56 37.0124 170.908 36.3764C171.256 35.7284 171.73 35.2304 172.33 34.8824C172.942 34.5344 173.656 34.3604 174.472 34.3604C175.384 34.3604 176.146 34.5524 176.758 34.9364C177.382 35.3204 177.856 35.8664 178.18 36.5744C178.504 37.2824 178.666 38.1104 178.666 39.0584V39.3644C178.666 39.4964 178.624 39.5984 178.54 39.6704C178.468 39.7424 178.372 39.7784 178.252 39.7784H172.024C172.024 39.7904 172.024 39.8144 172.024 39.8504C172.024 39.8864 172.024 39.9164 172.024 39.9404C172.048 40.4324 172.156 40.8944 172.348 41.3264C172.54 41.7464 172.816 42.0884 173.176 42.3524C173.536 42.6164 173.968 42.7484 174.472 42.7484C174.904 42.7484 175.264 42.6824 175.552 42.5504C175.84 42.4184 176.074 42.2744 176.254 42.1184C176.434 41.9504 176.554 41.8244 176.614 41.7404C176.722 41.5844 176.806 41.4944 176.866 41.4704C176.926 41.4344 177.022 41.4164 177.154 41.4164H178.018C178.138 41.4164 178.234 41.4524 178.306 41.5244C178.39 41.5844 178.426 41.6744 178.414 41.7944C178.402 41.9744 178.306 42.1964 178.126 42.4604C177.946 42.7124 177.688 42.9644 177.352 43.2164C177.016 43.4684 176.608 43.6784 176.128 43.8464C175.648 44.0024 175.096 44.0804 174.472 44.0804ZM172.024 38.5364H176.956V38.4824C176.956 37.9424 176.854 37.4624 176.65 37.0424C176.458 36.6224 176.176 36.2924 175.804 36.0524C175.432 35.8004 174.988 35.6744 174.472 35.6744C173.956 35.6744 173.512 35.8004 173.14 36.0524C172.78 36.2924 172.504 36.6224 172.312 37.0424C172.12 37.4624 172.024 37.9424 172.024 38.4824V38.5364ZM180.872 43.9004C180.752 43.9004 180.65 43.8644 180.566 43.7924C180.494 43.7084 180.458 43.6064 180.458 43.4864V34.9544C180.458 34.8344 180.494 34.7384 180.566 34.6664C180.65 34.5824 180.752 34.5404 180.872 34.5404H181.718C181.838 34.5404 181.934 34.5824 182.006 34.6664C182.09 34.7384 182.132 34.8344 182.132 34.9544V35.7464C182.444 35.3384 182.834 35.0084 183.302 34.7564C183.782 34.4924 184.394 34.3604 185.138 34.3604C185.918 34.3604 186.578 34.5344 187.118 34.8824C187.67 35.2184 188.084 35.6924 188.36 36.3044C188.636 36.9044 188.774 37.6064 188.774 38.4104V43.4864C188.774 43.6064 188.738 43.7084 188.666 43.7924C188.594 43.8644 188.498 43.9004 188.378 43.9004H187.478C187.358 43.9004 187.256 43.8644 187.172 43.7924C187.1 43.7084 187.064 43.6064 187.064 43.4864V38.5004C187.064 37.6604 186.86 37.0064 186.452 36.5384C186.044 36.0584 185.444 35.8184 184.652 35.8184C183.908 35.8184 183.308 36.0584 182.852 36.5384C182.408 37.0064 182.186 37.6604 182.186 38.5004V43.4864C182.186 43.6064 182.144 43.7084 182.06 43.7924C181.988 43.8644 181.892 43.9004 181.772 43.9004H180.872ZM194.545 43.9004C193.873 43.9004 193.327 43.7744 192.907 43.5224C192.487 43.2584 192.181 42.8924 191.989 42.4244C191.797 41.9444 191.701 41.3804 191.701 40.7324V35.9804H190.297C190.177 35.9804 190.075 35.9444 189.991 35.8724C189.919 35.7884 189.883 35.6864 189.883 35.5664V34.9544C189.883 34.8344 189.919 34.7384 189.991 34.6664C190.075 34.5824 190.177 34.5404 190.297 34.5404H191.701V31.5344C191.701 31.4144 191.737 31.3184 191.809 31.2464C191.893 31.1624 191.995 31.1204 192.115 31.1204H192.961C193.081 31.1204 193.177 31.1624 193.249 31.2464C193.333 31.3184 193.375 31.4144 193.375 31.5344V34.5404H195.607C195.727 34.5404 195.823 34.5824 195.895 34.6664C195.979 34.7384 196.021 34.8344 196.021 34.9544V35.5664C196.021 35.6864 195.979 35.7884 195.895 35.8724C195.823 35.9444 195.727 35.9804 195.607 35.9804H193.375V40.6064C193.375 41.1704 193.471 41.6144 193.663 41.9384C193.855 42.2624 194.197 42.4244 194.689 42.4244H195.787C195.907 42.4244 196.003 42.4664 196.075 42.5504C196.159 42.6224 196.201 42.7184 196.201 42.8384V43.4864C196.201 43.6064 196.159 43.7084 196.075 43.7924C196.003 43.8644 195.907 43.9004 195.787 43.9004H194.545Z" fill="white"/>
<rect x="226.856" y="17.4004" width="40" height="40" rx="20" fill="white"/>
<path d="M242.87 43.4004C242.75 43.4004 242.648 43.3644 242.564 43.2924C242.492 43.2084 242.456 43.1064 242.456 42.9864V42.4104C242.456 42.3024 242.486 42.1824 242.546 42.0504C242.606 41.9184 242.726 41.7744 242.906 41.6184L246.722 37.8024C247.334 37.2864 247.814 36.8484 248.162 36.4884C248.522 36.1164 248.774 35.7624 248.918 35.4264C249.074 35.0904 249.152 34.7424 249.152 34.3824C249.152 33.6984 248.96 33.1584 248.576 32.7624C248.192 32.3544 247.622 32.1504 246.866 32.1504C246.386 32.1504 245.972 32.2524 245.624 32.4564C245.276 32.6484 245 32.9184 244.796 33.2664C244.604 33.6024 244.478 33.9864 244.418 34.4184C244.394 34.5744 244.328 34.6824 244.22 34.7424C244.124 34.8024 244.034 34.8324 243.95 34.8324H243.014C242.906 34.8324 242.816 34.8024 242.744 34.7424C242.672 34.6704 242.636 34.5864 242.636 34.4904C242.648 34.0344 242.744 33.5784 242.924 33.1224C243.104 32.6544 243.368 32.2344 243.716 31.8624C244.076 31.4904 244.514 31.1904 245.03 30.9624C245.558 30.7224 246.17 30.6024 246.866 30.6024C247.814 30.6024 248.588 30.7764 249.188 31.1244C249.8 31.4604 250.25 31.9104 250.538 32.4744C250.826 33.0384 250.97 33.6564 250.97 34.3284C250.97 34.8564 250.88 35.3424 250.7 35.7864C250.52 36.2184 250.256 36.6444 249.908 37.0644C249.572 37.4724 249.152 37.8924 248.648 38.3244L245.192 41.8344H250.808C250.94 41.8344 251.042 41.8704 251.114 41.9424C251.198 42.0144 251.24 42.1164 251.24 42.2484V42.9864C251.24 43.1064 251.198 43.2084 251.114 43.2924C251.042 43.3644 250.94 43.4004 250.808 43.4004H242.87Z" fill="#DB2B63"/>
</svg>
