<svg width="312" height="56" viewBox="0 0 312 56" fill="none" xmlns="http://www.w3.org/2000/svg">
<path d="M282.944 4.00098H7.5C5.29086 4.00098 3.5 5.79184 3.5 8.00098V52.001C3.5 54.2101 5.29086 56.001 7.49999 56.001H282.944C283.98 56.001 284.976 55.5988 285.721 54.8792L308.518 32.8792C310.147 31.3064 310.147 28.6955 308.518 27.1227L285.721 5.12274C284.976 4.40313 283.98 4.00098 282.944 4.00098Z" fill="#AD1848"/>
<path d="M305.17 28.5194L305.518 28.8792L305.17 28.5194L282.374 50.5194C281.722 51.1491 280.85 51.501 279.944 51.501H4.49999C2.567 51.501 1 49.934 1 48.001V4.00098C1 2.06798 2.567 0.500977 4.5 0.500977H279.944C280.85 0.500977 281.722 0.852856 282.374 1.48252L305.17 23.4825C306.596 24.8587 306.596 27.1432 305.17 28.5194Z" fill="#DB2B63" stroke="#AD1848"/>
<path d="M14.1906 31.001C14.0879 31.001 14.0086 30.973 13.9526 30.917C13.8966 30.8516 13.8686 30.7723 13.8686 30.679V21.537C13.8686 21.4343 13.8966 21.355 13.9526 21.299C14.0086 21.2336 14.0879 21.201 14.1906 21.201H19.9026C20.0053 21.201 20.0846 21.2336 20.1406 21.299C20.1966 21.355 20.2246 21.4343 20.2246 21.537V22.097C20.2246 22.1996 20.1966 22.279 20.1406 22.335C20.0846 22.391 20.0053 22.419 19.9026 22.419H15.2266V25.681H19.6226C19.7253 25.681 19.8046 25.7136 19.8606 25.779C19.9166 25.835 19.9446 25.9143 19.9446 26.017V26.577C19.9446 26.6703 19.9166 26.7496 19.8606 26.815C19.8046 26.871 19.7253 26.899 19.6226 26.899H15.2266V30.679C15.2266 30.7723 15.1939 30.8516 15.1286 30.917C15.0726 30.973 14.9933 31.001 14.8906 31.001H14.1906ZM24.148 31.141C23.5506 31.141 23.042 31.0103 22.622 30.749C22.2113 30.4783 21.8986 30.105 21.684 29.629C21.4693 29.153 21.362 28.607 21.362 27.991V24.043C21.362 23.9496 21.39 23.875 21.446 23.819C21.5113 23.7536 21.5906 23.721 21.684 23.721H22.384C22.4773 23.721 22.552 23.7536 22.608 23.819C22.6733 23.875 22.706 23.9496 22.706 24.043V27.921C22.706 29.3116 23.3126 30.007 24.526 30.007C25.1046 30.007 25.5666 29.825 25.912 29.461C26.2666 29.0876 26.444 28.5743 26.444 27.921V24.043C26.444 23.9496 26.472 23.875 26.528 23.819C26.5933 23.7536 26.6726 23.721 26.766 23.721H27.452C27.5546 23.721 27.634 23.7536 27.69 23.819C27.746 23.875 27.774 23.9496 27.774 24.043V30.679C27.774 30.7723 27.746 30.8516 27.69 30.917C27.634 30.973 27.5546 31.001 27.452 31.001H26.808C26.7146 31.001 26.6353 30.973 26.57 30.917C26.514 30.8516 26.486 30.7723 26.486 30.679V30.063C26.234 30.3896 25.926 30.651 25.562 30.847C25.2073 31.043 24.736 31.141 24.148 31.141ZM29.9099 31.001C29.8165 31.001 29.7372 30.973 29.6719 30.917C29.6159 30.8516 29.5879 30.7723 29.5879 30.679V21.383C29.5879 21.2896 29.6159 21.215 29.6719 21.159C29.7372 21.0936 29.8165 21.061 29.9099 21.061H30.5679C30.6705 21.061 30.7499 21.0936 30.8059 21.159C30.8619 21.215 30.8899 21.2896 30.8899 21.383V30.679C30.8899 30.7723 30.8619 30.8516 30.8059 30.917C30.7499 30.973 30.6705 31.001 30.5679 31.001H29.9099ZM33.0342 31.001C32.9408 31.001 32.8615 30.973 32.7962 30.917C32.7402 30.8516 32.7122 30.7723 32.7122 30.679V21.383C32.7122 21.2896 32.7402 21.215 32.7962 21.159C32.8615 21.0936 32.9408 21.061 33.0342 21.061H33.6922C33.7948 21.061 33.8742 21.0936 33.9302 21.159C33.9862 21.215 34.0142 21.2896 34.0142 21.383V30.679C34.0142 30.7723 33.9862 30.8516 33.9302 30.917C33.8742 30.973 33.7948 31.001 33.6922 31.001H33.0342ZM38.3424 31.141C37.8198 31.141 37.3718 31.0756 36.9984 30.945C36.6251 30.8143 36.3218 30.6556 36.0884 30.469C35.8551 30.2823 35.6778 30.0956 35.5564 29.909C35.4444 29.7223 35.3838 29.573 35.3744 29.461C35.3651 29.3583 35.3978 29.279 35.4724 29.223C35.5471 29.167 35.6218 29.139 35.6964 29.139H36.3124C36.3684 29.139 36.4104 29.1483 36.4384 29.167C36.4758 29.1763 36.5224 29.2136 36.5784 29.279C36.6998 29.4096 36.8351 29.5403 36.9844 29.671C37.1338 29.8016 37.3158 29.909 37.5304 29.993C37.7544 30.077 38.0298 30.119 38.3564 30.119C38.8324 30.119 39.2244 30.0303 39.5324 29.853C39.8404 29.6663 39.9944 29.3956 39.9944 29.041C39.9944 28.8076 39.9291 28.621 39.7984 28.481C39.6771 28.341 39.4531 28.215 39.1264 28.103C38.8091 27.991 38.3704 27.8743 37.8104 27.753C37.2504 27.6223 36.8071 27.4636 36.4804 27.277C36.1538 27.081 35.9204 26.8523 35.7804 26.591C35.6404 26.3203 35.5704 26.017 35.5704 25.681C35.5704 25.3356 35.6731 25.0043 35.8784 24.687C36.0838 24.3603 36.3824 24.0943 36.7744 23.889C37.1758 23.6836 37.6751 23.581 38.2724 23.581C38.7578 23.581 39.1731 23.6416 39.5184 23.763C39.8638 23.8843 40.1484 24.0383 40.3724 24.225C40.5964 24.4023 40.7644 24.5796 40.8764 24.757C40.9884 24.9343 41.0491 25.0836 41.0584 25.205C41.0678 25.2983 41.0398 25.3776 40.9744 25.443C40.9091 25.499 40.8344 25.527 40.7504 25.527H40.1624C40.0971 25.527 40.0411 25.513 39.9944 25.485C39.9571 25.457 39.9198 25.4243 39.8824 25.387C39.7891 25.2656 39.6771 25.1443 39.5464 25.023C39.4251 24.9016 39.2618 24.8036 39.0564 24.729C38.8604 24.645 38.5991 24.603 38.2724 24.603C37.8058 24.603 37.4558 24.701 37.2224 24.897C36.9891 25.093 36.8724 25.3403 36.8724 25.639C36.8724 25.8163 36.9238 25.975 37.0264 26.115C37.1291 26.255 37.3251 26.381 37.6144 26.493C37.9038 26.605 38.3331 26.7263 38.9024 26.857C39.5184 26.9783 40.0038 27.1416 40.3584 27.347C40.7131 27.5523 40.9651 27.7903 41.1144 28.061C41.2638 28.3316 41.3384 28.6443 41.3384 28.999C41.3384 29.391 41.2218 29.7503 40.9884 30.077C40.7644 30.4036 40.4284 30.665 39.9804 30.861C39.5418 31.0476 38.9958 31.141 38.3424 31.141ZM45.5075 31.001C44.9848 31.001 44.5602 30.903 44.2335 30.707C43.9068 30.5016 43.6688 30.217 43.5195 29.853C43.3702 29.4796 43.2955 29.041 43.2955 28.537V24.841H42.2035C42.1102 24.841 42.0308 24.813 41.9655 24.757C41.9095 24.6916 41.8815 24.6123 41.8815 24.519V24.043C41.8815 23.9496 41.9095 23.875 41.9655 23.819C42.0308 23.7536 42.1102 23.721 42.2035 23.721H43.2955V21.383C43.2955 21.2896 43.3235 21.215 43.3795 21.159C43.4448 21.0936 43.5242 21.061 43.6175 21.061H44.2755C44.3688 21.061 44.4435 21.0936 44.4995 21.159C44.5648 21.215 44.5975 21.2896 44.5975 21.383V23.721H46.3335C46.4268 23.721 46.5015 23.7536 46.5575 23.819C46.6228 23.875 46.6555 23.9496 46.6555 24.043V24.519C46.6555 24.6123 46.6228 24.6916 46.5575 24.757C46.5015 24.813 46.4268 24.841 46.3335 24.841H44.5975V28.439C44.5975 28.8776 44.6722 29.223 44.8215 29.475C44.9708 29.727 45.2368 29.853 45.6195 29.853H46.4735C46.5668 29.853 46.6415 29.8856 46.6975 29.951C46.7628 30.007 46.7955 30.0816 46.7955 30.175V30.679C46.7955 30.7723 46.7628 30.8516 46.6975 30.917C46.6415 30.973 46.5668 31.001 46.4735 31.001H45.5075ZM49.8842 31.141C49.4176 31.141 48.9929 31.0476 48.6102 30.861C48.2276 30.6743 47.9196 30.4223 47.6862 30.105C47.4529 29.7876 47.3362 29.4283 47.3362 29.027C47.3362 28.383 47.5976 27.8696 48.1202 27.487C48.6429 27.1043 49.3242 26.8523 50.1642 26.731L52.2502 26.437V26.031C52.2502 25.583 52.1196 25.233 51.8582 24.981C51.6062 24.729 51.1909 24.603 50.6122 24.603C50.1922 24.603 49.8516 24.687 49.5902 24.855C49.3382 25.023 49.1609 25.2376 49.0582 25.499C49.0022 25.639 48.9042 25.709 48.7642 25.709H48.1342C48.0316 25.709 47.9522 25.681 47.8962 25.625C47.8496 25.5596 47.8262 25.485 47.8262 25.401C47.8262 25.261 47.8776 25.0883 47.9802 24.883C48.0922 24.6776 48.2602 24.477 48.4842 24.281C48.7082 24.085 48.9929 23.9216 49.3382 23.791C49.6929 23.651 50.1222 23.581 50.6262 23.581C51.1862 23.581 51.6576 23.6556 52.0402 23.805C52.4229 23.945 52.7216 24.1363 52.9362 24.379C53.1602 24.6216 53.3189 24.897 53.4122 25.205C53.5149 25.513 53.5662 25.8256 53.5662 26.143V30.679C53.5662 30.7723 53.5336 30.8516 53.4682 30.917C53.4122 30.973 53.3376 31.001 53.2442 31.001H52.6002C52.4976 31.001 52.4182 30.973 52.3622 30.917C52.3062 30.8516 52.2782 30.7723 52.2782 30.679V30.077C52.1569 30.245 51.9936 30.413 51.7882 30.581C51.5829 30.7396 51.3262 30.875 51.0182 30.987C50.7102 31.0896 50.3322 31.141 49.8842 31.141ZM50.1782 30.091C50.5609 30.091 50.9109 30.0116 51.2282 29.853C51.5456 29.685 51.7929 29.4283 51.9702 29.083C52.1569 28.7376 52.2502 28.3036 52.2502 27.781V27.389L50.6262 27.627C49.9636 27.7203 49.4642 27.879 49.1282 28.103C48.7922 28.3176 48.6242 28.593 48.6242 28.929C48.6242 29.1903 48.6989 29.4096 48.8482 29.587C49.0069 29.755 49.2029 29.881 49.4362 29.965C49.6789 30.049 49.9262 30.091 50.1782 30.091ZM58.2389 31.141C57.5762 31.141 57.0022 31.015 56.5169 30.763C56.0409 30.5016 55.6722 30.133 55.4109 29.657C55.1495 29.1716 55.0095 28.593 54.9909 27.921C54.9815 27.781 54.9769 27.5943 54.9769 27.361C54.9769 27.1276 54.9815 26.941 54.9909 26.801C55.0095 26.129 55.1495 25.555 55.4109 25.079C55.6722 24.5936 56.0409 24.225 56.5169 23.973C57.0022 23.7116 57.5762 23.581 58.2389 23.581C58.7802 23.581 59.2422 23.6556 59.6249 23.805C60.0169 23.9543 60.3389 24.1456 60.5909 24.379C60.8429 24.6123 61.0295 24.8643 61.1509 25.135C61.2815 25.4056 61.3515 25.6623 61.3609 25.905C61.3702 25.9983 61.3422 26.073 61.2769 26.129C61.2115 26.185 61.1322 26.213 61.0389 26.213H60.3669C60.2735 26.213 60.2035 26.1943 60.1569 26.157C60.1102 26.1103 60.0635 26.0356 60.0169 25.933C59.8489 25.4756 59.6202 25.1536 59.3309 24.967C59.0415 24.7803 58.6822 24.687 58.2529 24.687C57.6929 24.687 57.2355 24.8596 56.8809 25.205C56.5355 25.5503 56.3489 26.1056 56.3209 26.871C56.3115 27.207 56.3115 27.5336 56.3209 27.851C56.3489 28.6256 56.5355 29.1856 56.8809 29.531C57.2355 29.867 57.6929 30.035 58.2529 30.035C58.6822 30.035 59.0415 29.9416 59.3309 29.755C59.6202 29.5683 59.8489 29.2463 60.0169 28.789C60.0635 28.6863 60.1102 28.6163 60.1569 28.579C60.2035 28.5323 60.2735 28.509 60.3669 28.509H61.0389C61.1322 28.509 61.2115 28.537 61.2769 28.593C61.3422 28.649 61.3702 28.7236 61.3609 28.817C61.3515 29.013 61.3095 29.2136 61.2349 29.419C61.1602 29.6243 61.0389 29.8343 60.8709 30.049C60.7122 30.2543 60.5115 30.441 60.2689 30.609C60.0262 30.7676 59.7322 30.8983 59.3869 31.001C59.0509 31.0943 58.6682 31.141 58.2389 31.141ZM63.0795 31.001C62.9861 31.001 62.9068 30.973 62.8415 30.917C62.7855 30.8516 62.7575 30.7723 62.7575 30.679V21.383C62.7575 21.2896 62.7855 21.215 62.8415 21.159C62.9068 21.0936 62.9861 21.061 63.0795 21.061H63.7375C63.8308 21.061 63.9055 21.0936 63.9615 21.159C64.0268 21.215 64.0595 21.2896 64.0595 21.383V26.255L66.8175 23.959C66.9295 23.8656 67.0135 23.805 67.0695 23.777C67.1348 23.7396 67.2375 23.721 67.3775 23.721H68.1195C68.2035 23.721 68.2735 23.749 68.3295 23.805C68.3855 23.861 68.4135 23.931 68.4135 24.015C68.4135 24.0523 68.3995 24.0943 68.3715 24.141C68.3528 24.1876 68.3108 24.2343 68.2455 24.281L65.0115 26.969L68.5955 30.455C68.7075 30.5483 68.7635 30.6323 68.7635 30.707C68.7635 30.791 68.7355 30.861 68.6795 30.917C68.6235 30.973 68.5535 31.001 68.4695 31.001H67.7415C67.6015 31.001 67.4988 30.987 67.4335 30.959C67.3681 30.9216 67.2841 30.8563 67.1815 30.763L64.0595 27.781V30.679C64.0595 30.7723 64.0268 30.8516 63.9615 30.917C63.9055 30.973 63.8308 31.001 63.7375 31.001H63.0795ZM73.2011 31.001C73.0985 31.001 73.0191 30.973 72.9631 30.917C72.9071 30.8516 72.8791 30.7723 72.8791 30.679V21.537C72.8791 21.4343 72.9071 21.355 72.9631 21.299C73.0191 21.2336 73.0985 21.201 73.2011 21.201H76.3791C77.3405 21.201 78.1151 21.3456 78.7031 21.635C79.2911 21.9243 79.7205 22.3536 79.9911 22.923C80.2618 23.483 80.4018 24.1736 80.4111 24.995C80.4205 25.415 80.4251 25.7836 80.4251 26.101C80.4251 26.4183 80.4205 26.7823 80.4111 27.193C80.3925 28.0516 80.2478 28.7656 79.9771 29.335C79.7158 29.895 79.2958 30.315 78.7171 30.595C78.1478 30.8656 77.3918 31.001 76.4491 31.001H73.2011ZM74.2511 29.811H76.3791C77.0231 29.811 77.5365 29.7223 77.9191 29.545C78.3018 29.3676 78.5771 29.083 78.7451 28.691C78.9225 28.299 79.0158 27.781 79.0251 27.137C79.0438 26.857 79.0531 26.6143 79.0531 26.409C79.0531 26.1943 79.0531 25.9843 79.0531 25.779C79.0531 25.5643 79.0438 25.3216 79.0251 25.051C79.0065 24.1456 78.7918 23.4783 78.3811 23.049C77.9705 22.6103 77.2798 22.391 76.3091 22.391H74.2511V29.811ZM84.9675 31.141C84.0061 31.141 83.2408 30.847 82.6715 30.259C82.1021 29.6616 81.7895 28.8496 81.7335 27.823C81.7241 27.7016 81.7195 27.5476 81.7195 27.361C81.7195 27.165 81.7241 27.0063 81.7335 26.885C81.7708 26.2223 81.9248 25.6436 82.1955 25.149C82.4661 24.645 82.8348 24.2576 83.3015 23.987C83.7775 23.7163 84.3328 23.581 84.9675 23.581C85.6768 23.581 86.2695 23.7303 86.7455 24.029C87.2308 24.3276 87.5995 24.7523 87.8515 25.303C88.1035 25.8536 88.2295 26.4976 88.2295 27.235V27.473C88.2295 27.5756 88.1968 27.655 88.1315 27.711C88.0755 27.767 88.0008 27.795 87.9075 27.795H83.0635C83.0635 27.8043 83.0635 27.823 83.0635 27.851C83.0635 27.879 83.0635 27.9023 83.0635 27.921C83.0821 28.3036 83.1661 28.663 83.3155 28.999C83.4648 29.3256 83.6795 29.5916 83.9595 29.797C84.2395 30.0023 84.5755 30.105 84.9675 30.105C85.3035 30.105 85.5835 30.0536 85.8075 29.951C86.0315 29.8483 86.2135 29.7363 86.3535 29.615C86.4935 29.4843 86.5868 29.3863 86.6335 29.321C86.7175 29.1996 86.7828 29.1296 86.8295 29.111C86.8761 29.083 86.9508 29.069 87.0535 29.069H87.7255C87.8188 29.069 87.8935 29.097 87.9495 29.153C88.0148 29.1996 88.0428 29.2696 88.0335 29.363C88.0241 29.503 87.9495 29.6756 87.8095 29.881C87.6695 30.077 87.4688 30.273 87.2075 30.469C86.9461 30.665 86.6288 30.8283 86.2555 30.959C85.8821 31.0803 85.4528 31.141 84.9675 31.141ZM83.0635 26.829H86.8995V26.787C86.8995 26.367 86.8201 25.9936 86.6615 25.667C86.5121 25.3403 86.2928 25.0836 86.0035 24.897C85.7141 24.701 85.3688 24.603 84.9675 24.603C84.5661 24.603 84.2208 24.701 83.9315 24.897C83.6515 25.0836 83.4368 25.3403 83.2875 25.667C83.1381 25.9936 83.0635 26.367 83.0635 26.787V26.829ZM91.9114 31.001C91.7714 31.001 91.6594 30.9683 91.5754 30.903C91.5007 30.8376 91.44 30.7536 91.3934 30.651L88.8034 24.155C88.7847 24.1083 88.7754 24.0616 88.7754 24.015C88.7754 23.931 88.8034 23.861 88.8594 23.805C88.9154 23.749 88.9854 23.721 89.0694 23.721H89.7414C89.844 23.721 89.9234 23.749 89.9794 23.805C90.0354 23.861 90.068 23.9123 90.0774 23.959L92.2194 29.475L94.3474 23.959C94.366 23.9123 94.3987 23.861 94.4454 23.805C94.5014 23.749 94.5807 23.721 94.6834 23.721H95.3694C95.444 23.721 95.5094 23.749 95.5654 23.805C95.6307 23.861 95.6634 23.931 95.6634 24.015C95.6634 24.0616 95.654 24.1083 95.6354 24.155L93.0314 30.651C92.994 30.7536 92.9334 30.8376 92.8494 30.903C92.7747 30.9683 92.6627 31.001 92.5134 31.001H91.9114ZM99.4876 31.141C98.5262 31.141 97.7609 30.847 97.1916 30.259C96.6222 29.6616 96.3096 28.8496 96.2536 27.823C96.2442 27.7016 96.2396 27.5476 96.2396 27.361C96.2396 27.165 96.2442 27.0063 96.2536 26.885C96.2909 26.2223 96.4449 25.6436 96.7156 25.149C96.9862 24.645 97.3549 24.2576 97.8216 23.987C98.2976 23.7163 98.8529 23.581 99.4876 23.581C100.197 23.581 100.79 23.7303 101.266 24.029C101.751 24.3276 102.12 24.7523 102.372 25.303C102.624 25.8536 102.75 26.4976 102.75 27.235V27.473C102.75 27.5756 102.717 27.655 102.652 27.711C102.596 27.767 102.521 27.795 102.428 27.795H97.5836C97.5836 27.8043 97.5836 27.823 97.5836 27.851C97.5836 27.879 97.5836 27.9023 97.5836 27.921C97.6022 28.3036 97.6862 28.663 97.8356 28.999C97.9849 29.3256 98.1996 29.5916 98.4796 29.797C98.7596 30.0023 99.0956 30.105 99.4876 30.105C99.8236 30.105 100.104 30.0536 100.328 29.951C100.552 29.8483 100.734 29.7363 100.874 29.615C101.014 29.4843 101.107 29.3863 101.154 29.321C101.238 29.1996 101.303 29.1296 101.35 29.111C101.396 29.083 101.471 29.069 101.574 29.069H102.246C102.339 29.069 102.414 29.097 102.47 29.153C102.535 29.1996 102.563 29.2696 102.554 29.363C102.544 29.503 102.47 29.6756 102.33 29.881C102.19 30.077 101.989 30.273 101.728 30.469C101.466 30.665 101.149 30.8283 100.776 30.959C100.402 31.0803 99.9729 31.141 99.4876 31.141ZM97.5836 26.829H101.42V26.787C101.42 26.367 101.34 25.9936 101.182 25.667C101.032 25.3403 100.813 25.0836 100.524 24.897C100.234 24.701 99.8889 24.603 99.4876 24.603C99.0862 24.603 98.7409 24.701 98.4516 24.897C98.1716 25.0836 97.9569 25.3403 97.8076 25.667C97.6582 25.9936 97.5836 26.367 97.5836 26.787V26.829ZM104.48 31.001C104.386 31.001 104.307 30.973 104.242 30.917C104.186 30.8516 104.158 30.7723 104.158 30.679V21.383C104.158 21.2896 104.186 21.215 104.242 21.159C104.307 21.0936 104.386 21.061 104.48 21.061H105.138C105.24 21.061 105.32 21.0936 105.376 21.159C105.432 21.215 105.46 21.2896 105.46 21.383V30.679C105.46 30.7723 105.432 30.8516 105.376 30.917C105.32 30.973 105.24 31.001 105.138 31.001H104.48ZM110.25 31.141C109.541 31.141 108.948 31.0056 108.472 30.735C107.996 30.4643 107.632 30.091 107.38 29.615C107.128 29.1296 106.988 28.579 106.96 27.963C106.951 27.8043 106.946 27.6036 106.946 27.361C106.946 27.109 106.951 26.9083 106.96 26.759C106.988 26.1336 107.128 25.583 107.38 25.107C107.641 24.631 108.01 24.2576 108.486 23.987C108.962 23.7163 109.55 23.581 110.25 23.581C110.95 23.581 111.538 23.7163 112.014 23.987C112.49 24.2576 112.854 24.631 113.106 25.107C113.367 25.583 113.512 26.1336 113.54 26.759C113.549 26.9083 113.554 27.109 113.554 27.361C113.554 27.6036 113.549 27.8043 113.54 27.963C113.512 28.579 113.372 29.1296 113.12 29.615C112.868 30.091 112.504 30.4643 112.028 30.735C111.552 31.0056 110.959 31.141 110.25 31.141ZM110.25 30.063C110.829 30.063 111.291 29.881 111.636 29.517C111.981 29.1436 112.168 28.6023 112.196 27.893C112.205 27.753 112.21 27.5756 112.21 27.361C112.21 27.1463 112.205 26.969 112.196 26.829C112.168 26.1196 111.981 25.583 111.636 25.219C111.291 24.8456 110.829 24.659 110.25 24.659C109.671 24.659 109.205 24.8456 108.85 25.219C108.505 25.583 108.323 26.1196 108.304 26.829C108.295 26.969 108.29 27.1463 108.29 27.361C108.29 27.5756 108.295 27.753 108.304 27.893C108.323 28.6023 108.505 29.1436 108.85 29.517C109.205 29.881 109.671 30.063 110.25 30.063ZM115.363 33.661C115.27 33.661 115.19 33.6283 115.125 33.563C115.069 33.507 115.041 33.4323 115.041 33.339V24.043C115.041 23.9496 115.069 23.875 115.125 23.819C115.19 23.7536 115.27 23.721 115.363 23.721H116.007C116.1 23.721 116.175 23.7536 116.231 23.819C116.296 23.875 116.329 23.9496 116.329 24.043V24.659C116.553 24.351 116.852 24.0943 117.225 23.889C117.598 23.6836 118.065 23.581 118.625 23.581C119.148 23.581 119.591 23.6696 119.955 23.847C120.328 24.0243 120.632 24.267 120.865 24.575C121.108 24.883 121.29 25.233 121.411 25.625C121.532 26.017 121.598 26.437 121.607 26.885C121.616 27.0343 121.621 27.193 121.621 27.361C121.621 27.529 121.616 27.6876 121.607 27.837C121.598 28.2756 121.532 28.6956 121.411 29.097C121.29 29.489 121.108 29.839 120.865 30.147C120.632 30.4456 120.328 30.6883 119.955 30.875C119.591 31.0523 119.148 31.141 118.625 31.141C118.084 31.141 117.626 31.043 117.253 30.847C116.889 30.6416 116.59 30.3896 116.357 30.091V33.339C116.357 33.4323 116.329 33.507 116.273 33.563C116.217 33.6283 116.138 33.661 116.035 33.661H115.363ZM118.331 30.007C118.816 30.007 119.194 29.9043 119.465 29.699C119.745 29.4843 119.946 29.209 120.067 28.873C120.188 28.5276 120.258 28.159 120.277 27.767C120.286 27.4963 120.286 27.2256 120.277 26.955C120.258 26.563 120.188 26.199 120.067 25.863C119.946 25.5176 119.745 25.2423 119.465 25.037C119.194 24.8223 118.816 24.715 118.331 24.715C117.874 24.715 117.5 24.8223 117.211 25.037C116.931 25.2516 116.721 25.527 116.581 25.863C116.45 26.1896 116.376 26.5256 116.357 26.871C116.348 27.0203 116.343 27.1976 116.343 27.403C116.343 27.6083 116.348 27.7903 116.357 27.949C116.366 28.2756 116.441 28.5976 116.581 28.915C116.73 29.2323 116.95 29.4936 117.239 29.699C117.528 29.9043 117.892 30.007 118.331 30.007ZM123.409 31.001C123.315 31.001 123.236 30.973 123.171 30.917C123.115 30.8516 123.087 30.7723 123.087 30.679V24.043C123.087 23.9496 123.115 23.875 123.171 23.819C123.236 23.7536 123.315 23.721 123.409 23.721H124.039C124.132 23.721 124.207 23.7536 124.263 23.819C124.328 23.875 124.361 23.9496 124.361 24.043V24.533C124.575 24.2436 124.846 24.015 125.173 23.847C125.499 23.6696 125.891 23.581 126.349 23.581C127.403 23.5716 128.15 24.001 128.589 24.869C128.803 24.477 129.116 24.1643 129.527 23.931C129.937 23.6976 130.404 23.581 130.927 23.581C131.412 23.581 131.851 23.693 132.243 23.917C132.644 24.141 132.957 24.4816 133.181 24.939C133.414 25.387 133.531 25.9516 133.531 26.633V30.679C133.531 30.7723 133.498 30.8516 133.433 30.917C133.377 30.973 133.302 31.001 133.209 31.001H132.551C132.457 31.001 132.378 30.973 132.313 30.917C132.257 30.8516 132.229 30.7723 132.229 30.679V26.759C132.229 26.2363 132.154 25.8256 132.005 25.527C131.855 25.2283 131.655 25.0183 131.403 24.897C131.151 24.7756 130.875 24.715 130.577 24.715C130.334 24.715 130.087 24.7756 129.835 24.897C129.583 25.0183 129.373 25.2283 129.205 25.527C129.046 25.8256 128.967 26.2363 128.967 26.759V30.679C128.967 30.7723 128.934 30.8516 128.869 30.917C128.813 30.973 128.738 31.001 128.645 31.001H127.987C127.893 31.001 127.814 30.973 127.749 30.917C127.693 30.8516 127.665 30.7723 127.665 30.679V26.759C127.665 26.2363 127.585 25.8256 127.427 25.527C127.268 25.2283 127.063 25.0183 126.811 24.897C126.559 24.7756 126.293 24.715 126.013 24.715C125.77 24.715 125.523 24.7756 125.271 24.897C125.019 25.0183 124.809 25.2283 124.641 25.527C124.482 25.8256 124.403 26.2316 124.403 26.745V30.679C124.403 30.7723 124.37 30.8516 124.305 30.917C124.249 30.973 124.174 31.001 124.081 31.001H123.409ZM138.146 31.141C137.185 31.141 136.419 30.847 135.85 30.259C135.281 29.6616 134.968 28.8496 134.912 27.823C134.903 27.7016 134.898 27.5476 134.898 27.361C134.898 27.165 134.903 27.0063 134.912 26.885C134.949 26.2223 135.103 25.6436 135.374 25.149C135.645 24.645 136.013 24.2576 136.48 23.987C136.956 23.7163 137.511 23.581 138.146 23.581C138.855 23.581 139.448 23.7303 139.924 24.029C140.409 24.3276 140.778 24.7523 141.03 25.303C141.282 25.8536 141.408 26.4976 141.408 27.235V27.473C141.408 27.5756 141.375 27.655 141.31 27.711C141.254 27.767 141.179 27.795 141.086 27.795H136.242C136.242 27.8043 136.242 27.823 136.242 27.851C136.242 27.879 136.242 27.9023 136.242 27.921C136.261 28.3036 136.345 28.663 136.494 28.999C136.643 29.3256 136.858 29.5916 137.138 29.797C137.418 30.0023 137.754 30.105 138.146 30.105C138.482 30.105 138.762 30.0536 138.986 29.951C139.21 29.8483 139.392 29.7363 139.532 29.615C139.672 29.4843 139.765 29.3863 139.812 29.321C139.896 29.1996 139.961 29.1296 140.008 29.111C140.055 29.083 140.129 29.069 140.232 29.069H140.904C140.997 29.069 141.072 29.097 141.128 29.153C141.193 29.1996 141.221 29.2696 141.212 29.363C141.203 29.503 141.128 29.6756 140.988 29.881C140.848 30.077 140.647 30.273 140.386 30.469C140.125 30.665 139.807 30.8283 139.434 30.959C139.061 31.0803 138.631 31.141 138.146 31.141ZM136.242 26.829H140.078V26.787C140.078 26.367 139.999 25.9936 139.84 25.667C139.691 25.3403 139.471 25.0836 139.182 24.897C138.893 24.701 138.547 24.603 138.146 24.603C137.745 24.603 137.399 24.701 137.11 24.897C136.83 25.0836 136.615 25.3403 136.466 25.667C136.317 25.9936 136.242 26.367 136.242 26.787V26.829ZM143.124 31.001C143.031 31.001 142.951 30.973 142.886 30.917C142.83 30.8516 142.802 30.7723 142.802 30.679V24.043C142.802 23.9496 142.83 23.875 142.886 23.819C142.951 23.7536 143.031 23.721 143.124 23.721H143.782C143.875 23.721 143.95 23.7536 144.006 23.819C144.071 23.875 144.104 23.9496 144.104 24.043V24.659C144.347 24.3416 144.65 24.085 145.014 23.889C145.387 23.6836 145.863 23.581 146.442 23.581C147.049 23.581 147.562 23.7163 147.982 23.987C148.411 24.2483 148.733 24.617 148.948 25.093C149.163 25.5596 149.27 26.1056 149.27 26.731V30.679C149.27 30.7723 149.242 30.8516 149.186 30.917C149.13 30.973 149.055 31.001 148.962 31.001H148.262C148.169 31.001 148.089 30.973 148.024 30.917C147.968 30.8516 147.94 30.7723 147.94 30.679V26.801C147.94 26.1476 147.781 25.639 147.464 25.275C147.147 24.9016 146.68 24.715 146.064 24.715C145.485 24.715 145.019 24.9016 144.664 25.275C144.319 25.639 144.146 26.1476 144.146 26.801V30.679C144.146 30.7723 144.113 30.8516 144.048 30.917C143.992 30.973 143.917 31.001 143.824 31.001H143.124ZM153.759 31.001C153.236 31.001 152.811 30.903 152.485 30.707C152.158 30.5016 151.92 30.217 151.771 29.853C151.621 29.4796 151.547 29.041 151.547 28.537V24.841H150.455C150.361 24.841 150.282 24.813 150.217 24.757C150.161 24.6916 150.133 24.6123 150.133 24.519V24.043C150.133 23.9496 150.161 23.875 150.217 23.819C150.282 23.7536 150.361 23.721 150.455 23.721H151.547V21.383C151.547 21.2896 151.575 21.215 151.631 21.159C151.696 21.0936 151.775 21.061 151.869 21.061H152.527C152.62 21.061 152.695 21.0936 152.751 21.159C152.816 21.215 152.849 21.2896 152.849 21.383V23.721H154.585C154.678 23.721 154.753 23.7536 154.809 23.819C154.874 23.875 154.907 23.9496 154.907 24.043V24.519C154.907 24.6123 154.874 24.6916 154.809 24.757C154.753 24.813 154.678 24.841 154.585 24.841H152.849V28.439C152.849 28.8776 152.923 29.223 153.073 29.475C153.222 29.727 153.488 29.853 153.871 29.853H154.725C154.818 29.853 154.893 29.8856 154.949 29.951C155.014 30.007 155.047 30.0816 155.047 30.175V30.679C155.047 30.7723 155.014 30.8516 154.949 30.917C154.893 30.973 154.818 31.001 154.725 31.001H153.759Z" fill="white"/>
<rect x="248.5" y="12.001" width="28" height="28" rx="14" fill="white"/>
<path d="M259.9 31.001C259.806 31.001 259.727 30.973 259.662 30.917C259.606 30.8516 259.578 30.7723 259.578 30.679V30.231C259.578 30.147 259.601 30.0536 259.648 29.951C259.694 29.8483 259.788 29.7363 259.928 29.615L262.896 26.647C263.372 26.2456 263.745 25.905 264.016 25.625C264.296 25.3356 264.492 25.0603 264.604 24.799C264.725 24.5376 264.786 24.267 264.786 23.987C264.786 23.455 264.636 23.035 264.338 22.727C264.039 22.4096 263.596 22.251 263.008 22.251C262.634 22.251 262.312 22.3303 262.042 22.489C261.771 22.6383 261.561 22.8483 261.412 23.119C261.262 23.3803 261.16 23.679 261.104 24.015C261.085 24.1363 261.034 24.2203 260.95 24.267C260.875 24.3136 260.805 24.337 260.74 24.337H260.012C259.928 24.337 259.858 24.3136 259.802 24.267C259.746 24.211 259.718 24.1456 259.718 24.071C259.727 23.7163 259.802 23.3616 259.942 23.007C260.082 22.643 260.287 22.3163 260.558 22.027C260.838 21.7283 261.178 21.4903 261.58 21.313C261.99 21.1356 262.466 21.047 263.008 21.047C263.745 21.047 264.347 21.1823 264.814 21.453C265.29 21.7143 265.64 22.0643 265.864 22.503C266.088 22.9416 266.2 23.4223 266.2 23.945C266.2 24.3556 266.13 24.7336 265.99 25.079C265.85 25.415 265.644 25.7463 265.374 26.073C265.112 26.3903 264.786 26.717 264.394 27.053L261.706 29.783H266.074C266.176 29.783 266.256 29.811 266.312 29.867C266.377 29.923 266.41 30.0023 266.41 30.105V30.679C266.41 30.7723 266.377 30.8516 266.312 30.917C266.256 30.973 266.176 31.001 266.074 31.001H259.9Z" fill="#DB2B63"/>
</svg>
