<svg width="528" height="213" viewBox="0 0 528 213" fill="none" xmlns="http://www.w3.org/2000/svg">
<rect y="169.214" width="235" height="44" rx="22" transform="rotate(-7.80253 0 169.214)" fill="#FFCF00"/>
<rect x="0.563251" y="169.641" width="234" height="43" rx="21.5" transform="rotate(-7.80253 0.563251 169.641)" stroke="black" stroke-opacity="0.05"/>
<path d="M21.54 195.028C21.4211 195.045 21.3144 195.017 21.2198 194.945C21.1251 194.873 21.0697 194.778 21.0534 194.659L19.4626 183.05C19.4446 182.919 19.4716 182.806 19.5434 182.711C19.6152 182.617 19.7106 182.561 19.8295 182.545L21.3988 182.33C21.5296 182.312 21.6423 182.339 21.7369 182.411C21.8315 182.483 21.8878 182.584 21.9057 182.715L22.4775 186.888L25.919 182.038C25.9584 181.972 26.0267 181.896 26.1239 181.81C26.2314 181.71 26.3802 181.647 26.5705 181.621L28.336 181.379C28.4311 181.366 28.5192 181.391 28.6003 181.452C28.6933 181.512 28.7471 181.596 28.7618 181.703C28.7732 181.786 28.7592 181.86 28.7198 181.926L24.5536 187.984L30.6055 193.169C30.6747 193.232 30.715 193.305 30.7264 193.388C30.7411 193.495 30.7117 193.59 30.6382 193.673C30.5767 193.754 30.4983 193.801 30.4032 193.814L28.5664 194.066C28.3643 194.093 28.1981 194.074 28.0678 194.007C27.9477 193.926 27.8674 193.871 27.8269 193.84L22.8636 189.705L23.4966 194.324C23.5128 194.443 23.4851 194.55 23.4133 194.645C23.3414 194.739 23.2401 194.795 23.1094 194.813L21.54 195.028ZM32.5938 193.514C32.4749 193.53 32.3681 193.502 32.2735 193.43C32.1789 193.359 32.1234 193.263 32.1071 193.144L30.9537 184.727C30.9374 184.608 30.9652 184.501 31.037 184.407C31.1088 184.312 31.2042 184.257 31.3231 184.24L32.7854 184.04C32.9043 184.024 33.0111 184.052 33.1057 184.123C33.2003 184.195 33.2558 184.291 33.2721 184.409L33.3723 185.141C33.6292 184.718 33.9784 184.349 34.4197 184.034C34.8713 183.706 35.4538 183.493 36.1671 183.395C36.8924 183.296 37.5453 183.376 38.1259 183.635C38.7049 183.883 39.1778 184.284 39.5446 184.84C39.9232 185.394 40.1696 186.087 40.2836 186.919L40.9703 191.93C40.9866 192.049 40.9588 192.156 40.887 192.25C40.8152 192.345 40.7199 192.4 40.601 192.417L39.0316 192.632C38.9127 192.648 38.806 192.62 38.7114 192.548C38.6167 192.477 38.5613 192.381 38.545 192.262L37.873 187.358C37.7785 186.669 37.532 186.151 37.1334 185.806C36.7468 185.459 36.2325 185.33 35.5905 185.418C34.9722 185.503 34.5057 185.766 34.1909 186.209C33.8761 186.652 33.766 187.218 33.8605 187.908L34.5325 192.812C34.5488 192.931 34.521 193.038 34.4492 193.132C34.3774 193.227 34.282 193.282 34.1631 193.299L32.5938 193.514ZM47.4203 191.664C46.4692 191.794 45.6439 191.738 44.9444 191.494C44.2568 191.249 43.699 190.847 43.2712 190.288C42.8552 189.728 42.5681 189.046 42.4097 188.244C42.3685 188.032 42.3267 187.771 42.2844 187.462C42.242 187.153 42.2121 186.891 42.1947 186.675C42.1298 185.848 42.2291 185.114 42.4924 184.472C42.766 183.817 43.2009 183.279 43.7973 182.858C44.4056 182.436 45.1734 182.161 46.1007 182.034C47.0281 181.907 47.8356 181.966 48.5232 182.211C49.2227 182.454 49.7864 182.855 50.2142 183.414C50.6523 183.96 50.9514 184.639 51.1113 185.453C51.1526 185.666 51.1943 185.926 51.2367 186.235C51.2791 186.545 51.309 186.807 51.3264 187.023C51.3896 187.838 51.2904 188.572 51.0287 189.225C50.7789 189.877 50.3498 190.415 49.7416 190.837C49.1452 191.258 48.3714 191.533 47.4203 191.664ZM47.1784 189.898C47.8085 189.812 48.2691 189.549 48.5601 189.109C48.8495 188.658 48.9591 188.043 48.8888 187.266C48.8763 187.086 48.8505 186.853 48.8114 186.568C48.7723 186.282 48.7346 186.051 48.6982 185.875C48.5583 185.119 48.2883 184.562 47.8881 184.205C47.4879 183.848 46.9728 183.713 46.3427 183.799C45.7126 183.886 45.2528 184.155 44.9634 184.606C44.674 185.057 44.5636 185.666 44.6322 186.432C44.6448 186.612 44.6706 186.844 44.7097 187.13C44.7488 187.415 44.7865 187.646 44.8228 187.823C44.9644 188.591 45.2353 189.153 45.6354 189.51C46.034 189.855 46.5483 189.985 47.1784 189.898ZM56.119 190.29C55.9526 190.313 55.8221 190.288 55.7274 190.217C55.6328 190.145 55.5468 190.048 55.4695 189.925L51.7854 182C51.7654 181.942 51.7521 181.889 51.7456 181.842C51.7309 181.735 51.7544 181.641 51.8159 181.56C51.8878 181.465 51.9712 181.411 52.0663 181.398L53.386 181.217C53.5287 181.198 53.6473 181.224 53.7419 181.296C53.8349 181.356 53.8923 181.42 53.9139 181.49L56.4705 187.153L57.5236 181.05C57.536 180.963 57.5781 180.873 57.6499 180.778C57.7201 180.672 57.8384 180.607 58.0048 180.584L58.8965 180.462C59.063 180.439 59.1943 180.47 59.2906 180.553C59.3852 180.625 59.4501 180.701 59.4853 180.781L62.1415 186.376L63.0803 180.234C63.0824 180.161 63.1142 180.084 63.1758 180.003C63.2476 179.908 63.3548 179.851 63.4975 179.832L64.8172 179.651C64.9242 179.636 65.019 179.666 65.1018 179.739C65.1948 179.799 65.2486 179.882 65.2633 179.989C65.2698 180.037 65.2652 180.092 65.2496 180.155L63.8333 188.779C63.8155 188.915 63.7648 189.031 63.6811 189.127C63.6093 189.221 63.4902 189.28 63.3237 189.303L62.1646 189.462C61.9981 189.485 61.8616 189.461 61.7551 189.391C61.6486 189.32 61.5685 189.222 61.515 189.097L58.8881 183.715L57.8056 189.605C57.776 189.742 57.7193 189.859 57.6356 189.955C57.5638 190.05 57.4387 190.109 57.2604 190.134L56.119 190.29ZM68.6615 188.571C68.5426 188.588 68.4358 188.56 68.3412 188.488C68.2466 188.416 68.1911 188.321 68.1748 188.202L66.5571 176.396C66.5408 176.278 66.5686 176.171 66.6404 176.076C66.7122 175.982 66.8076 175.926 66.9265 175.91L68.4066 175.707C68.5255 175.691 68.6323 175.718 68.7269 175.79C68.8215 175.862 68.877 175.957 68.8933 176.076L70.511 187.882C70.5273 188.001 70.4995 188.108 70.4277 188.202C70.3559 188.297 70.2605 188.352 70.1416 188.369L68.6615 188.571ZM76.9543 187.617C75.6346 187.798 74.5363 187.561 73.6592 186.906C72.7822 186.251 72.2178 185.226 71.9662 183.831C71.938 183.714 71.9117 183.566 71.8872 183.388C71.8612 183.197 71.8467 183.048 71.844 182.939C71.7693 182.041 71.8656 181.241 72.1326 180.538C72.4116 179.833 72.8484 179.265 73.4432 178.832C74.0363 178.388 74.7668 178.106 75.6347 177.987C76.5977 177.855 77.4339 177.946 78.1431 178.261C78.8508 178.564 79.4199 179.049 79.8506 179.716C80.2796 180.372 80.5576 181.164 80.6847 182.091L80.736 182.466C80.7523 182.585 80.7245 182.691 80.6527 182.786C80.5809 182.881 80.4796 182.937 80.3488 182.955L74.4282 183.766C74.4282 183.766 74.4306 183.784 74.4355 183.82C74.4404 183.855 74.4444 183.885 74.4477 183.909C74.5166 184.323 74.6468 184.699 74.8384 185.036C75.0402 185.36 75.2984 185.609 75.6131 185.784C75.9396 185.957 76.305 186.016 76.7092 185.961C77.0421 185.915 77.315 185.829 77.5278 185.703C77.7391 185.565 77.907 185.421 78.0318 185.271C78.1565 185.121 78.2429 185 78.291 184.908C78.3784 184.751 78.4502 184.656 78.5064 184.624C78.5729 184.579 78.6715 184.547 78.8023 184.529L80.3359 184.319C80.4548 184.303 80.5548 184.326 80.6359 184.387C80.7289 184.447 80.7768 184.531 80.7796 184.64C80.7938 184.832 80.7245 185.077 80.5717 185.377C80.4309 185.675 80.206 185.978 79.897 186.287C79.5881 186.596 79.1843 186.875 78.6856 187.125C78.1972 187.362 77.6201 187.526 76.9543 187.617ZM74.2229 182.268L78.1641 181.728L78.1567 181.675C78.0932 181.211 77.9605 180.817 77.7587 180.494C77.5569 180.17 77.2936 179.928 76.9686 179.766C76.6437 179.605 76.2732 179.553 75.8571 179.61C75.441 179.667 75.0982 179.817 74.8286 180.059C74.5591 180.302 74.3707 180.607 74.2634 180.973C74.168 181.337 74.152 181.751 74.2156 182.215L74.2229 182.268ZM86.694 186.282C86.0757 186.367 85.515 186.341 85.0118 186.204C84.5188 186.053 84.0916 185.809 83.7304 185.471C83.3692 185.133 83.0703 184.72 82.8338 184.231C82.5957 183.731 82.4224 183.173 82.3139 182.558C82.2727 182.346 82.2406 182.157 82.2178 181.99C82.1934 181.812 82.1725 181.615 82.155 181.399C82.0974 180.802 82.1108 180.236 82.1953 179.704C82.2917 179.17 82.4683 178.692 82.7253 178.269C82.9926 177.832 83.3434 177.476 83.7777 177.198C84.2239 176.919 84.7562 176.737 85.3744 176.652C86.0164 176.564 86.5728 176.603 87.0436 176.769C87.5248 176.921 87.9375 177.149 88.282 177.453L87.7395 173.494C87.7232 173.375 87.745 173.269 87.805 173.176C87.8768 173.081 87.9781 173.025 88.1089 173.007L89.6247 172.8C89.7436 172.783 89.8503 172.811 89.945 172.883C90.0396 172.955 90.0951 173.05 90.1113 173.169L91.7291 184.975C91.7453 185.093 91.7176 185.2 91.6458 185.295C91.5739 185.389 91.4786 185.445 91.3597 185.461L89.9509 185.654C89.8201 185.672 89.7074 185.645 89.6128 185.573C89.53 185.5 89.4805 185.404 89.4642 185.285L89.3738 184.625C89.1271 185.034 88.7882 185.39 88.3571 185.691C87.9379 185.991 87.3835 186.188 86.694 186.282ZM87.0923 184.284C87.5917 184.215 87.9745 184.048 88.2407 183.781C88.507 183.514 88.6878 183.199 88.7833 182.835C88.8771 182.458 88.9047 182.085 88.866 181.715C88.8486 181.499 88.8236 181.273 88.791 181.035C88.7568 180.785 88.7191 180.554 88.6779 180.342C88.6171 179.987 88.4875 179.659 88.2889 179.36C88.0887 179.048 87.8254 178.805 87.4988 178.632C87.1723 178.459 86.7712 178.405 86.2957 178.47C85.7964 178.538 85.4136 178.706 85.1473 178.973C84.8913 179.226 84.7223 179.539 84.6404 179.914C84.5585 180.289 84.535 180.692 84.5699 181.123C84.6068 181.481 84.6557 181.838 84.7165 182.193C84.7989 182.618 84.9299 182.999 85.1096 183.338C85.2892 183.677 85.5372 183.94 85.8535 184.126C86.1801 184.3 86.593 184.352 87.0923 184.284ZM98.893 188.426C98.0251 188.545 97.2963 188.53 96.7066 188.38C96.1168 188.231 95.6395 188.018 95.2745 187.741C94.9095 187.464 94.6337 187.175 94.447 186.873C94.2739 186.582 94.1692 186.348 94.1328 186.171C94.1047 186.054 94.1257 185.942 94.1959 185.836C94.2796 185.739 94.3809 185.683 94.4997 185.667L96.0512 185.454C96.1701 185.438 96.2685 185.449 96.3464 185.486C96.4258 185.536 96.4991 185.629 96.5662 185.765C96.6587 185.91 96.7767 186.063 96.92 186.225C97.0633 186.387 97.262 186.512 97.5161 186.598C97.7837 186.695 98.1315 186.713 98.5595 186.655C99.0112 186.593 99.3827 186.475 99.6739 186.302C99.9651 186.129 100.167 185.877 100.279 185.547C100.403 185.215 100.428 184.776 100.353 184.229L100.187 183.016C99.9485 183.4 99.6182 183.73 99.1957 184.006C98.7852 184.28 98.2529 184.462 97.5991 184.552C96.9571 184.64 96.3904 184.614 95.899 184.476C95.406 184.325 94.9797 184.087 94.6201 183.761C94.2589 183.423 93.96 183.009 93.7235 182.521C93.4989 182.031 93.3323 181.479 93.2238 180.864C93.168 180.544 93.124 180.223 93.0919 179.901C93.0342 179.303 93.0476 178.738 93.1321 178.205C93.2166 177.673 93.3874 177.195 93.6444 176.773C93.9116 176.336 94.2624 175.979 94.6967 175.702C95.1311 175.424 95.6692 175.242 96.3112 175.154C96.9889 175.061 97.5775 175.113 98.077 175.311C98.5749 175.497 98.9985 175.76 99.3479 176.1L99.2501 175.387C99.2322 175.256 99.2591 175.143 99.331 175.049C99.4028 174.954 99.4981 174.899 99.617 174.882L101.062 174.684C101.18 174.668 101.287 174.696 101.382 174.768C101.476 174.839 101.533 174.941 101.551 175.072L102.746 183.665C102.864 184.521 102.804 185.28 102.568 185.942C102.332 186.604 101.909 187.147 101.301 187.569C100.706 188.002 99.9036 188.287 98.893 188.426ZM97.9999 182.571C98.4873 182.504 98.865 182.343 99.1329 182.089C99.4008 181.834 99.5824 181.524 99.6779 181.16C99.7733 180.796 99.8084 180.434 99.7834 180.074C99.7741 179.918 99.7531 179.721 99.7205 179.483C99.688 179.245 99.656 179.056 99.6245 178.915C99.5502 178.549 99.419 178.21 99.2307 177.897C99.0408 177.571 98.7825 177.322 98.456 177.149C98.1278 176.964 97.72 176.905 97.2326 176.971C96.7451 177.038 96.3682 177.205 96.102 177.471C95.8341 177.726 95.6592 178.041 95.5773 178.415C95.5073 178.788 95.4897 179.19 95.5246 179.622C95.5399 179.91 95.5798 180.202 95.6443 180.496C95.7251 180.908 95.8502 181.291 96.0196 181.643C96.1992 181.982 96.4523 182.238 96.7789 182.411C97.1054 182.585 97.5124 182.638 97.9999 182.571ZM109.173 183.202C107.853 183.383 106.755 183.146 105.878 182.491C105.001 181.836 104.436 180.811 104.185 179.416C104.156 179.299 104.13 179.151 104.106 178.973C104.08 178.783 104.065 178.633 104.062 178.524C103.988 177.626 104.084 176.826 104.351 176.123C104.63 175.419 105.067 174.85 105.662 174.417C106.255 173.973 106.985 173.691 107.853 173.572C108.816 173.44 109.652 173.531 110.362 173.846C111.069 174.149 111.638 174.634 112.069 175.302C112.498 175.957 112.776 176.749 112.903 177.676L112.954 178.051C112.971 178.17 112.943 178.277 112.871 178.371C112.799 178.466 112.698 178.522 112.567 178.54L106.647 179.351C106.647 179.351 106.649 179.369 106.654 179.405C106.659 179.44 106.663 179.47 106.666 179.494C106.735 179.908 106.865 180.284 107.057 180.621C107.259 180.945 107.517 181.194 107.832 181.369C108.158 181.542 108.523 181.601 108.928 181.546C109.261 181.5 109.533 181.414 109.746 181.288C109.958 181.15 110.126 181.006 110.25 180.856C110.375 180.706 110.461 180.585 110.509 180.493C110.597 180.336 110.669 180.242 110.725 180.21C110.791 180.164 110.89 180.132 111.021 180.115L112.554 179.904C112.673 179.888 112.773 179.911 112.854 179.972C112.947 180.032 112.995 180.116 112.998 180.225C113.012 180.417 112.943 180.663 112.79 180.962C112.649 181.26 112.424 181.563 112.115 181.872C111.807 182.181 111.403 182.46 110.904 182.71C110.416 182.947 109.839 183.111 109.173 183.202ZM106.441 177.853L110.383 177.313L110.375 177.26C110.312 176.796 110.179 176.402 109.977 176.079C109.775 175.755 109.512 175.513 109.187 175.351C108.862 175.19 108.492 175.138 108.076 175.195C107.659 175.252 107.317 175.402 107.047 175.645C106.778 175.887 106.589 176.192 106.482 176.558C106.386 176.922 106.37 177.336 106.434 177.8L106.441 177.853ZM120.163 181.514C120.044 181.531 119.938 181.503 119.843 181.431C119.748 181.359 119.693 181.264 119.677 181.145L118.086 169.535C118.068 169.405 118.095 169.292 118.167 169.197C118.239 169.103 118.334 169.047 118.453 169.031L126.299 167.956C126.43 167.938 126.543 167.965 126.638 168.037C126.732 168.108 126.788 168.21 126.806 168.34L126.968 169.517C126.984 169.636 126.956 169.743 126.884 169.838C126.813 169.932 126.711 169.989 126.58 170.007L120.713 170.811L121.146 173.967L126.621 173.217C126.751 173.199 126.864 173.226 126.959 173.298C127.052 173.358 127.107 173.453 127.125 173.584L127.277 174.689C127.295 174.82 127.268 174.933 127.196 175.028C127.122 175.11 127.02 175.161 126.889 175.179L121.415 175.929L121.862 179.192L127.872 178.369C128.002 178.351 128.115 178.378 128.21 178.45C128.304 178.521 128.361 178.623 128.379 178.753L128.54 179.93C128.556 180.049 128.528 180.156 128.457 180.251C128.385 180.345 128.283 180.402 128.153 180.42L120.163 181.514ZM131.043 180.023C130.924 180.04 130.817 180.012 130.723 179.94C130.628 179.868 130.573 179.773 130.556 179.654L129.403 171.237C129.387 171.118 129.414 171.011 129.486 170.917C129.558 170.822 129.653 170.766 129.772 170.75L131.163 170.56C131.282 170.543 131.389 170.571 131.484 170.643C131.578 170.715 131.634 170.81 131.65 170.929L131.733 171.535C131.937 171.168 132.232 170.843 132.617 170.56C133.012 170.264 133.5 170.07 134.081 169.978C135.433 169.769 136.451 170.168 137.134 171.177C137.343 170.664 137.683 170.229 138.155 169.874C138.637 169.505 139.194 169.277 139.824 169.191C140.442 169.106 141.02 169.173 141.559 169.389C142.109 169.605 142.567 169.984 142.932 170.528C143.307 171.057 143.555 171.762 143.676 172.642L144.377 177.76C144.393 177.879 144.366 177.986 144.294 178.081C144.222 178.175 144.127 178.231 144.008 178.247L142.545 178.447C142.427 178.464 142.32 178.436 142.225 178.364C142.131 178.292 142.075 178.197 142.059 178.078L141.377 173.102C141.304 172.567 141.169 172.156 140.972 171.868C140.773 171.568 140.534 171.371 140.255 171.276C139.975 171.181 139.675 171.156 139.354 171.199C139.092 171.235 138.84 171.337 138.596 171.503C138.353 171.67 138.169 171.925 138.047 172.269C137.923 172.601 137.898 173.034 137.971 173.569L138.653 178.545C138.669 178.664 138.641 178.77 138.569 178.865C138.498 178.96 138.402 179.015 138.283 179.031L136.821 179.232C136.69 179.25 136.577 179.223 136.483 179.151C136.4 179.077 136.351 178.981 136.334 178.862L135.653 173.887C135.579 173.352 135.438 172.941 135.229 172.655C135.019 172.357 134.774 172.16 134.494 172.065C134.215 171.97 133.927 171.943 133.629 171.984C133.356 172.021 133.098 172.129 132.856 172.308C132.613 172.474 132.429 172.724 132.305 173.056C132.181 173.388 132.155 173.821 132.229 174.356L132.91 179.332C132.927 179.45 132.899 179.557 132.827 179.652C132.755 179.746 132.66 179.802 132.541 179.818L131.043 180.023ZM147.617 181.204C147.498 181.221 147.391 181.193 147.297 181.121C147.202 181.049 147.147 180.954 147.13 180.835L145.513 169.029C145.496 168.91 145.524 168.804 145.596 168.709C145.668 168.614 145.763 168.559 145.882 168.543L147.291 168.35C147.422 168.332 147.528 168.359 147.611 168.433C147.706 168.505 147.761 168.6 147.777 168.719L147.875 169.432C148.108 169.013 148.44 168.646 148.869 168.333C149.299 168.02 149.858 167.816 150.548 167.722C151.178 167.635 151.738 167.661 152.23 167.8C152.721 167.939 153.148 168.177 153.509 168.515C153.868 168.841 154.166 169.249 154.403 169.737C154.639 170.225 154.812 170.777 154.92 171.392C154.96 171.592 154.994 171.8 155.024 172.014C155.053 172.228 155.076 172.443 155.094 172.658C155.163 173.254 155.15 173.819 155.054 174.353C154.956 174.875 154.772 175.349 154.503 175.773C154.245 176.184 153.898 176.528 153.464 176.806C153.03 177.083 152.497 177.265 151.867 177.352C151.225 177.44 150.663 177.402 150.18 177.238C149.696 177.062 149.285 176.803 148.947 176.462L149.502 180.51C149.518 180.629 149.491 180.736 149.419 180.83C149.359 180.923 149.264 180.979 149.133 180.997L147.617 181.204ZM150.946 175.534C151.457 175.464 151.841 175.302 152.097 175.049C152.351 174.784 152.513 174.465 152.583 174.092C152.665 173.718 152.689 173.315 152.654 172.883C152.629 172.524 152.58 172.167 152.507 171.813C152.425 171.389 152.294 171.007 152.114 170.668C151.946 170.328 151.705 170.07 151.391 169.895C151.074 169.709 150.66 169.65 150.149 169.72C149.662 169.787 149.279 169.955 149.001 170.223C148.735 170.489 148.555 170.811 148.461 171.187C148.377 171.55 148.349 171.917 148.376 172.289C148.393 172.504 148.418 172.731 148.451 172.969C148.483 173.207 148.521 173.438 148.564 173.662C148.624 174.017 148.755 174.35 148.955 174.662C149.154 174.962 149.416 175.198 149.743 175.372C150.069 175.545 150.47 175.599 150.946 175.534ZM161.787 175.992C160.836 176.123 160.011 176.066 159.311 175.823C158.624 175.578 158.066 175.176 157.638 174.617C157.222 174.056 156.935 173.375 156.777 172.573C156.735 172.361 156.694 172.1 156.651 171.791C156.609 171.482 156.579 171.219 156.561 171.004C156.497 170.177 156.596 169.442 156.859 168.801C157.133 168.146 157.568 167.608 158.164 167.187C158.772 166.764 159.54 166.489 160.468 166.362C161.395 166.235 162.202 166.294 162.89 166.539C163.589 166.782 164.153 167.184 164.581 167.743C165.019 168.288 165.318 168.968 165.478 169.782C165.519 169.994 165.561 170.255 165.604 170.564C165.646 170.873 165.676 171.135 165.693 171.351C165.756 172.166 165.657 172.9 165.396 173.554C165.146 174.206 164.717 174.743 164.108 175.166C163.512 175.586 162.738 175.862 161.787 175.992ZM161.545 174.227C162.175 174.141 162.636 173.878 162.927 173.438C163.216 172.987 163.326 172.372 163.256 171.594C163.243 171.414 163.217 171.182 163.178 170.896C163.139 170.611 163.101 170.38 163.065 170.203C162.925 169.447 162.655 168.891 162.255 168.534C161.855 168.177 161.34 168.042 160.709 168.128C160.079 168.214 159.62 168.483 159.33 168.935C159.041 169.386 158.93 169.995 158.999 170.76C159.012 170.94 159.037 171.173 159.077 171.458C159.116 171.744 159.153 171.975 159.19 172.151C159.331 172.919 159.602 173.482 160.002 173.839C160.401 174.184 160.915 174.313 161.545 174.227ZM170.486 174.619C170.319 174.642 170.189 174.617 170.094 174.545C170 174.473 169.914 174.376 169.836 174.254L166.152 166.328C166.132 166.27 166.119 166.218 166.112 166.17C166.098 166.063 166.121 165.969 166.183 165.888C166.255 165.793 166.338 165.74 166.433 165.727L167.753 165.546C167.895 165.526 168.014 165.552 168.109 165.624C168.202 165.684 168.259 165.749 168.281 165.819L170.837 171.482L171.89 165.378C171.903 165.292 171.945 165.201 172.017 165.107C172.087 165 172.205 164.936 172.372 164.913L173.263 164.791C173.43 164.768 173.561 164.798 173.657 164.882C173.752 164.954 173.817 165.03 173.852 165.11L176.508 170.705L177.447 164.563C177.449 164.49 177.481 164.413 177.543 164.331C177.614 164.237 177.722 164.18 177.864 164.16L179.184 163.979C179.291 163.965 179.386 163.994 179.469 164.068C179.562 164.127 179.615 164.211 179.63 164.318C179.637 164.365 179.632 164.421 179.616 164.483L178.2 173.107C178.182 173.243 178.132 173.359 178.048 173.455C177.976 173.55 177.857 173.609 177.691 173.631L176.531 173.79C176.365 173.813 176.228 173.789 176.122 173.719C176.015 173.649 175.935 173.551 175.882 173.425L173.255 168.044L172.172 173.933C172.143 174.071 172.086 174.187 172.002 174.284C171.931 174.378 171.806 174.438 171.627 174.462L170.486 174.619ZM186.34 172.628C185.021 172.809 183.922 172.572 183.045 171.917C182.168 171.262 181.604 170.237 181.352 168.842C181.324 168.725 181.298 168.577 181.273 168.399C181.247 168.208 181.233 168.059 181.23 167.95C181.155 167.052 181.252 166.252 181.519 165.549C181.798 164.845 182.234 164.276 182.829 163.843C183.422 163.399 184.153 163.117 185.021 162.998C185.984 162.866 186.82 162.957 187.529 163.272C188.237 163.575 188.806 164.06 189.237 164.728C189.666 165.383 189.944 166.175 190.071 167.102L190.122 167.477C190.138 167.596 190.111 167.702 190.039 167.797C189.967 167.892 189.866 167.948 189.735 167.966L183.814 168.777C183.814 168.777 183.817 168.795 183.822 168.831C183.826 168.866 183.83 168.896 183.834 168.92C183.903 169.334 184.033 169.71 184.224 170.047C184.426 170.371 184.684 170.62 184.999 170.795C185.326 170.968 185.691 171.027 186.095 170.972C186.428 170.926 186.701 170.84 186.914 170.714C187.125 170.576 187.293 170.432 187.418 170.282C187.543 170.132 187.629 170.011 187.677 169.919C187.764 169.762 187.836 169.667 187.892 169.635C187.959 169.59 188.058 169.558 188.188 169.54L189.722 169.33C189.841 169.314 189.941 169.337 190.022 169.398C190.115 169.458 190.163 169.542 190.166 169.651C190.18 169.843 190.11 170.089 189.958 170.388C189.817 170.686 189.592 170.989 189.283 171.298C188.974 171.607 188.57 171.886 188.072 172.136C187.583 172.373 187.006 172.537 186.34 172.628ZM183.609 167.279L187.55 166.739L187.543 166.686C187.479 166.222 187.347 165.828 187.145 165.505C186.943 165.181 186.68 164.939 186.355 164.777C186.03 164.616 185.659 164.564 185.243 164.621C184.827 164.678 184.484 164.828 184.215 165.07C183.945 165.313 183.757 165.618 183.649 165.984C183.554 166.348 183.538 166.762 183.602 167.226L183.609 167.279ZM193.042 171.528C192.923 171.544 192.816 171.516 192.721 171.445C192.627 171.373 192.571 171.277 192.555 171.159L191.404 162.759C191.386 162.628 191.413 162.516 191.485 162.421C191.557 162.326 191.652 162.271 191.771 162.255L193.216 162.057C193.334 162.04 193.441 162.068 193.536 162.14C193.642 162.21 193.705 162.311 193.722 162.441L193.823 163.173C194.044 162.755 194.355 162.415 194.755 162.155C195.167 161.892 195.659 161.722 196.229 161.644L196.961 161.543C197.091 161.526 197.198 161.553 197.281 161.627C197.375 161.699 197.431 161.794 197.447 161.913L197.623 163.197C197.639 163.316 197.612 163.422 197.54 163.517C197.48 163.61 197.385 163.666 197.254 163.683L195.863 163.874C195.292 163.952 194.868 164.174 194.591 164.539C194.326 164.902 194.232 165.363 194.308 165.922L194.98 170.826C194.997 170.945 194.969 171.052 194.897 171.147C194.825 171.241 194.724 171.297 194.593 171.315L193.042 171.528ZM203.947 170.215C202.628 170.396 201.529 170.159 200.652 169.504C199.775 168.849 199.211 167.824 198.959 166.429C198.931 166.312 198.905 166.164 198.88 165.986C198.854 165.796 198.84 165.646 198.837 165.538C198.762 164.64 198.859 163.839 199.126 163.136C199.405 162.432 199.841 161.863 200.436 161.431C201.029 160.986 201.76 160.704 202.628 160.585C203.591 160.453 204.427 160.545 205.136 160.859C205.844 161.162 206.413 161.647 206.844 162.315C207.273 162.971 207.551 163.762 207.678 164.69L207.729 165.064C207.745 165.183 207.718 165.29 207.646 165.384C207.574 165.479 207.473 165.535 207.342 165.553L201.421 166.365C201.421 166.365 201.424 166.382 201.428 166.418C201.433 166.454 201.437 166.483 201.441 166.507C201.51 166.922 201.64 167.297 201.831 167.635C202.033 167.958 202.291 168.207 202.606 168.382C202.933 168.556 203.298 168.615 203.702 168.559C204.035 168.514 204.308 168.428 204.521 168.302C204.732 168.164 204.9 168.02 205.025 167.869C205.15 167.719 205.236 167.598 205.284 167.507C205.371 167.349 205.443 167.255 205.499 167.223C205.566 167.177 205.664 167.146 205.795 167.128L207.329 166.918C207.448 166.901 207.548 166.924 207.629 166.986C207.722 167.045 207.77 167.13 207.773 167.238C207.787 167.43 207.717 167.676 207.565 167.975C207.424 168.273 207.199 168.577 206.89 168.885C206.581 169.194 206.177 169.474 205.679 169.724C205.19 169.96 204.613 170.124 203.947 170.215ZM201.216 164.867L205.157 164.326L205.15 164.273C205.086 163.809 204.953 163.416 204.752 163.092C204.55 162.768 204.287 162.526 203.962 162.365C203.637 162.203 203.266 162.151 202.85 162.208C202.434 162.265 202.091 162.415 201.822 162.658C201.552 162.901 201.364 163.205 201.256 163.571C201.161 163.935 201.145 164.349 201.209 164.813L201.216 164.867ZM213.687 168.881C213.069 168.965 212.508 168.939 212.005 168.802C211.512 168.652 211.085 168.408 210.723 168.069C210.362 167.731 210.063 167.318 209.827 166.83C209.589 166.329 209.415 165.772 209.307 165.157C209.266 164.944 209.234 164.755 209.211 164.589C209.186 164.41 209.165 164.213 209.148 163.998C209.09 163.4 209.104 162.835 209.188 162.302C209.285 161.768 209.461 161.29 209.718 160.867C209.986 160.431 210.336 160.074 210.771 159.796C211.217 159.517 211.749 159.335 212.367 159.251C213.009 159.163 213.566 159.201 214.037 159.367C214.518 159.519 214.931 159.747 215.275 160.051L214.732 156.092C214.716 155.973 214.738 155.867 214.798 155.774C214.87 155.68 214.971 155.624 215.102 155.606L216.618 155.398C216.737 155.382 216.843 155.409 216.938 155.481C217.033 155.553 217.088 155.648 217.104 155.767L218.722 167.573C218.738 167.692 218.711 167.799 218.639 167.893C218.567 167.988 218.472 168.043 218.353 168.06L216.944 168.253C216.813 168.271 216.7 168.244 216.606 168.172C216.523 168.098 216.473 168.002 216.457 167.883L216.367 167.223C216.12 167.633 215.781 167.988 215.35 168.289C214.931 168.589 214.377 168.786 213.687 168.881ZM214.085 166.882C214.585 166.814 214.967 166.646 215.234 166.379C215.5 166.113 215.681 165.797 215.776 165.433C215.87 165.057 215.898 164.684 215.859 164.313C215.842 164.098 215.817 163.871 215.784 163.633C215.75 163.384 215.712 163.153 215.671 162.94C215.61 162.585 215.48 162.258 215.282 161.958C215.082 161.646 214.818 161.404 214.492 161.231C214.165 161.057 213.764 161.003 213.289 161.068C212.789 161.137 212.407 161.304 212.14 161.571C211.884 161.824 211.715 162.138 211.633 162.512C211.551 162.887 211.528 163.29 211.563 163.721C211.6 164.08 211.649 164.436 211.709 164.791C211.792 165.216 211.923 165.598 212.103 165.936C212.282 166.275 212.53 166.538 212.846 166.725C213.173 166.898 213.586 166.95 214.085 166.882Z" fill="#151515"/>
<rect x="7.1377" y="2.71753" width="248" height="44" rx="22" transform="rotate(6.51747 7.1377 2.71753)" fill="#059E93"/>
<path d="M21.6236 33.0578C21.5043 33.0442 21.4078 32.9908 21.3339 32.8979C21.2599 32.8049 21.2298 32.6988 21.2434 32.5795L22.5735 20.9373C22.5884 20.8061 22.6424 20.7036 22.7354 20.6297C22.8284 20.5557 22.9345 20.5256 23.0538 20.5392L30.9226 21.4382C31.0537 21.4532 31.1562 21.5071 31.2302 21.6001C31.3041 21.6931 31.3336 21.8052 31.3186 21.9363L31.1837 23.1167C31.1701 23.2359 31.1168 23.3325 31.0238 23.4064C30.9308 23.4803 30.8188 23.5098 30.6876 23.4948L24.8039 22.8226L24.4422 25.988L29.9325 26.6153C30.0637 26.6302 30.1662 26.6842 30.2401 26.7772C30.3154 26.8583 30.3456 26.9644 30.3306 27.0955L30.2039 28.2043C30.1889 28.3355 30.135 28.438 30.042 28.5119C29.9503 28.5739 29.8389 28.5974 29.7078 28.5825L24.2175 27.9552L23.8436 31.2279L29.8704 31.9165C30.0016 31.9314 30.1041 31.9854 30.178 32.0784C30.2519 32.1714 30.2814 32.2835 30.2664 32.4146L30.1316 33.595C30.118 33.7142 30.0647 33.8108 29.9717 33.8847C29.8787 33.9586 29.7666 33.9881 29.6355 33.9731L21.6236 33.0578ZM32.5339 34.3042C32.4146 34.2906 32.3181 34.2373 32.2441 34.1443C32.1702 34.0513 32.1401 33.9452 32.1537 33.826L33.118 25.3849C33.1317 25.2657 33.185 25.1691 33.278 25.0952C33.371 25.0212 33.4771 24.9911 33.5963 25.0047L34.9912 25.1641C35.1104 25.1777 35.207 25.231 35.2809 25.324C35.3549 25.417 35.385 25.5231 35.3714 25.6423L35.3019 26.2504C35.5904 25.9451 35.9563 25.7031 36.3994 25.5242C36.8559 25.3348 37.3769 25.2675 37.9625 25.3223C39.3243 25.4538 40.2116 26.0926 40.6241 27.2388C40.9528 26.7933 41.3898 26.4567 41.9352 26.2291C42.4938 25.991 43.0891 25.908 43.721 25.9802C44.341 26.0511 44.885 26.2581 45.353 26.6015C45.833 26.9462 46.1827 27.427 46.4021 28.0439C46.6348 28.6502 46.7007 29.3945 46.5999 30.2768L46.0135 35.4094C45.9999 35.5286 45.9466 35.6252 45.8536 35.6991C45.7606 35.773 45.6545 35.8032 45.5353 35.7896L44.0688 35.622C43.9496 35.6084 43.853 35.5551 43.7791 35.4621C43.7052 35.3691 43.675 35.263 43.6887 35.1438L44.2587 30.1542C44.32 29.6177 44.2908 29.1856 44.1713 28.8579C44.0531 28.5183 43.8703 28.268 43.623 28.1068C43.3757 27.9457 43.0911 27.8468 42.7691 27.81C42.5069 27.78 42.2371 27.8157 41.9598 27.9168C41.6825 28.018 41.442 28.22 41.2383 28.5229C41.036 28.8138 40.9042 29.2275 40.8429 29.764L40.2729 34.7535C40.2593 34.8728 40.206 34.9693 40.113 35.0433C40.02 35.1172 39.9139 35.1473 39.7946 35.1337L38.3282 34.9662C38.197 34.9512 38.0945 34.8972 38.0206 34.8042C37.9586 34.7126 37.9344 34.6072 37.948 34.4879L38.518 29.4984C38.5793 28.9619 38.5442 28.5291 38.4127 28.2001C38.2826 27.8591 38.0939 27.608 37.8465 27.4469C37.5992 27.2858 37.3266 27.1882 37.0285 27.1542C36.7543 27.1228 36.4778 27.1637 36.1992 27.2768C35.9219 27.378 35.6821 27.5741 35.4798 27.865C35.2775 28.1559 35.1457 28.5696 35.0844 29.1061L34.5143 34.0957C34.5007 34.2149 34.4474 34.3115 34.3544 34.3854C34.2614 34.4593 34.1553 34.4895 34.0361 34.4758L32.5339 34.3042ZM48.3008 39.5477C48.1816 39.5341 48.085 39.4808 48.0111 39.3878C47.9371 39.2948 47.907 39.1887 47.9206 39.0695L49.2731 27.2305C49.2868 27.1113 49.3401 27.0147 49.4331 26.9408C49.5261 26.8669 49.6322 26.8367 49.7514 26.8503L51.1642 27.0117C51.2953 27.0267 51.3919 27.08 51.4539 27.1717C51.5278 27.2647 51.558 27.3708 51.5444 27.49L51.4626 28.2053C51.7924 27.8565 52.204 27.5835 52.6976 27.3862C53.1912 27.189 53.7837 27.1298 54.4752 27.2088C55.1071 27.281 55.644 27.445 56.0858 27.7008C56.5276 27.9566 56.8817 28.293 57.1481 28.7099C57.4159 29.1149 57.6039 29.5833 57.7123 30.115C57.8206 30.6468 57.8513 31.224 57.8043 31.8467C57.7931 32.0507 57.7752 32.2601 57.7507 32.4747C57.7262 32.6893 57.6957 32.9032 57.6593 33.1164C57.5792 33.7112 57.4265 34.2554 57.201 34.749C56.9769 35.2306 56.6821 35.6438 56.3166 35.9886C55.9644 36.3228 55.5435 36.5706 55.054 36.7321C54.5645 36.8936 54.0038 36.9382 53.3719 36.866C52.7281 36.7925 52.1926 36.6165 51.7655 36.3383C51.3397 36.0481 51.0055 35.6958 50.7629 35.2816L50.2991 39.3412C50.2855 39.4605 50.2322 39.557 50.1392 39.631C50.0581 39.7062 49.952 39.7364 49.8209 39.7214L48.3008 39.5477ZM52.9289 34.8769C53.4415 34.9354 53.8532 34.8738 54.1638 34.6919C54.4759 34.498 54.7119 34.2291 54.872 33.885C55.044 33.5423 55.1665 33.1577 55.2393 32.7313C55.304 32.3763 55.3449 32.0186 55.3619 31.6582C55.3871 31.2263 55.3546 30.824 55.2643 30.4514C55.1859 30.0801 55.0159 29.7708 54.7543 29.5235C54.494 29.2643 54.1076 29.1054 53.5949 29.0468C53.1061 28.991 52.6938 29.0586 52.3579 29.2497C52.034 29.4422 51.78 29.7091 51.5961 30.0504C51.4254 30.3812 51.3071 30.73 51.241 31.0969C51.2046 31.3101 51.1727 31.5359 51.1455 31.7744C51.1182 32.0128 51.0976 32.246 51.0837 32.4739C51.0548 32.8329 51.0987 33.1882 51.2156 33.5398C51.3338 33.8794 51.5297 34.1735 51.8032 34.4222C52.0767 34.6708 52.452 34.8224 52.9289 34.8769ZM63.3199 38.0025C62.3661 37.8936 61.5804 37.6347 60.9628 37.226C60.3571 36.8186 59.9161 36.2911 59.6399 35.6436C59.3755 34.9974 59.2658 34.2662 59.3107 33.45C59.3233 33.2341 59.3473 32.9711 59.3827 32.6611C59.4181 32.3511 59.4541 32.0895 59.4905 31.8763C59.6322 31.0591 59.9099 30.3722 60.3238 29.8155C60.7509 29.2483 61.3055 28.8346 61.9874 28.5743C62.6813 28.3154 63.4932 28.2391 64.4232 28.3453C65.3531 28.4516 66.1209 28.7084 66.7266 29.1158C67.3442 29.5245 67.7911 30.0527 68.0674 30.7002C68.357 31.3372 68.4786 32.0697 68.4323 32.8978C68.4197 33.1138 68.3957 33.3768 68.3603 33.6867C68.3249 33.9967 68.289 34.2583 68.2525 34.4716C68.1122 35.2769 67.8345 35.9638 67.4192 36.5323C67.016 37.1022 66.4674 37.5166 65.7735 37.7756C65.0915 38.0358 64.2737 38.1115 63.3199 38.0025ZM63.5221 36.232C64.154 36.3042 64.6653 36.1633 65.056 35.8094C65.4481 35.4435 65.7063 34.8752 65.8306 34.1043C65.8629 33.9268 65.8955 33.695 65.9281 33.4089C65.9608 33.1227 65.9814 32.8896 65.9899 32.7094C66.0413 31.9423 65.9173 31.3363 65.6179 30.8914C65.3184 30.4465 64.8528 30.188 64.2209 30.1158C63.589 30.0436 63.077 30.1905 62.685 30.5563C62.2929 30.9222 62.0354 31.4846 61.9125 32.2435C61.8801 32.421 61.8476 32.6528 61.8149 32.939C61.7822 33.2251 61.7616 33.4583 61.7531 33.6385C61.7003 34.4175 61.8237 35.0295 62.1231 35.4743C62.4239 35.9073 62.8903 36.1598 63.5221 36.232ZM72.0881 38.8231C71.9212 38.804 71.8007 38.748 71.7268 38.655C71.6529 38.562 71.5936 38.4465 71.549 38.3085L69.9396 29.7184C69.9345 29.6574 69.9347 29.6031 69.9401 29.5554C69.9524 29.4481 69.9984 29.3627 70.0781 29.2994C70.1711 29.2254 70.2653 29.1939 70.3606 29.2048L71.684 29.356C71.8271 29.3724 71.9356 29.427 72.0095 29.52C72.0848 29.6011 72.1243 29.6781 72.1281 29.751L73.2044 35.8707L75.7344 30.2173C75.7678 30.1366 75.831 30.0593 75.924 29.9853C76.0184 29.8995 76.149 29.8661 76.3159 29.8852L77.2101 29.9873C77.377 30.0064 77.4967 30.0684 77.5693 30.1733C77.6432 30.2663 77.6873 30.3559 77.7017 30.4421L78.8914 36.5204L81.3203 30.8011C81.3404 30.731 81.3903 30.6642 81.47 30.6008C81.563 30.5269 81.681 30.4981 81.8241 30.5145L83.1475 30.6657C83.2548 30.6779 83.3394 30.7299 83.4014 30.8215C83.4767 30.9026 83.5082 30.9967 83.496 31.104C83.4905 31.1517 83.4725 31.204 83.4418 31.2609L79.9364 39.2668C79.8857 39.3938 79.8079 39.4936 79.7029 39.5662C79.61 39.6401 79.48 39.6675 79.3131 39.6485L78.1506 39.5157C77.9837 39.4966 77.8574 39.4399 77.7715 39.3455C77.6857 39.2512 77.6323 39.1364 77.6116 39.0012L76.3973 33.1374L73.8918 38.5762C73.8291 38.7019 73.7453 38.801 73.6404 38.8736C73.5474 38.9475 73.4115 38.9743 73.2326 38.9538L72.0881 38.8231ZM87.9423 40.8155C86.619 40.6643 85.6134 40.1629 84.9256 39.3114C84.2378 38.4598 83.9445 37.3272 84.0456 35.9135C84.0473 35.7929 84.0583 35.6432 84.0788 35.4644C84.1006 35.2736 84.1235 35.1253 84.1477 35.0193C84.2976 34.1306 84.5888 33.3788 85.0214 32.7639C85.4659 32.1504 86.0298 31.7075 86.7131 31.4353C87.3978 31.1512 88.1753 31.0589 89.0456 31.1583C90.0113 31.2686 90.7989 31.5639 91.4083 32.0442C92.0191 32.5126 92.4506 33.1235 92.7027 33.877C92.9561 34.6185 93.0297 35.4543 92.9235 36.3843L92.8806 36.7598C92.867 36.879 92.8137 36.9756 92.7207 37.0495C92.6277 37.1235 92.5156 37.1529 92.3845 37.1379L86.4471 36.4596C86.4471 36.4596 86.4451 36.4775 86.441 36.5133C86.4369 36.549 86.4335 36.5788 86.4308 36.6027C86.395 37.0213 86.4282 37.4177 86.5304 37.7917C86.6459 38.1552 86.8345 38.4605 87.0961 38.7078C87.3697 38.9565 87.7091 39.104 88.1145 39.1503C88.4483 39.1884 88.7339 39.1727 88.9713 39.1032C89.2101 39.0218 89.4085 38.9237 89.5666 38.8089C89.7247 38.6941 89.8383 38.5984 89.9074 38.5217C90.031 38.3909 90.124 38.317 90.1864 38.2999C90.262 38.2724 90.3654 38.266 90.4965 38.281L92.0345 38.4567C92.1537 38.4704 92.245 38.517 92.3084 38.5967C92.3837 38.6778 92.4092 38.7713 92.3851 38.8772C92.3513 39.0666 92.2234 39.2876 92.0014 39.54C91.7912 39.7938 91.4982 40.032 91.1225 40.2548C90.7468 40.4776 90.2864 40.6485 89.7414 40.7674C89.2097 40.8757 88.61 40.8918 87.9423 40.8155ZM86.6187 34.9574L90.571 35.4089L90.5771 35.3553C90.6303 34.8903 90.5991 34.4761 90.4836 34.1126C90.3681 33.7492 90.1729 33.4491 89.898 33.2123C89.6231 32.9756 89.277 32.8334 88.8597 32.7857C88.4424 32.7381 88.0732 32.7985 87.7519 32.9672C87.4307 33.1358 87.1729 33.3841 86.9784 33.7122C86.7958 34.0416 86.678 34.4388 86.6248 34.9037L86.6187 34.9574ZM94.7076 41.4072C94.5883 41.3936 94.4918 41.3403 94.4179 41.2473C94.3439 41.1543 94.3138 41.0482 94.3274 40.929L95.2897 32.5058C95.3047 32.3746 95.3587 32.2721 95.4517 32.1982C95.5447 32.1242 95.6508 32.0941 95.77 32.1077L97.2186 32.2732C97.3378 32.2868 97.4344 32.3401 97.5083 32.4331C97.5941 32.5275 97.6296 32.6402 97.6146 32.7714L97.5308 33.5046C97.8486 33.1544 98.2337 32.9025 98.6861 32.7488C99.1503 32.5966 99.6686 32.5531 100.241 32.6185L100.974 32.7022C101.105 32.7172 101.202 32.7705 101.264 32.8622C101.338 32.9552 101.368 33.0613 101.354 33.1805L101.207 34.4681C101.194 34.5873 101.14 34.6839 101.047 34.7578C100.966 34.8331 100.86 34.8633 100.729 34.8483L99.334 34.6889C98.7618 34.6235 98.2963 34.7334 97.9376 35.0186C97.5908 35.305 97.3855 35.7285 97.3214 36.2888L96.7596 41.2068C96.746 41.3261 96.6927 41.4226 96.5997 41.4966C96.5067 41.5705 96.3946 41.5999 96.2635 41.585L94.7076 41.4072ZM105.599 42.8327C104.276 42.6815 103.27 42.1801 102.582 41.3285C101.894 40.477 101.601 39.3443 101.702 37.9307C101.704 37.8101 101.715 37.6604 101.735 37.4815C101.757 37.2908 101.78 37.1424 101.804 37.0365C101.954 36.1478 102.245 35.396 102.678 34.7811C103.123 34.1676 103.686 33.7247 104.37 33.4525C105.054 33.1684 105.832 33.0761 106.702 33.1755C107.668 33.2858 108.456 33.5811 109.065 34.0614C109.676 34.5297 110.107 35.1407 110.359 35.8942C110.613 36.6357 110.686 37.4715 110.58 38.4014L110.537 38.777C110.524 38.8962 110.47 38.9928 110.377 39.0667C110.284 39.1406 110.172 39.1701 110.041 39.1551L104.104 38.4768C104.104 38.4768 104.102 38.4947 104.098 38.5304C104.094 38.5662 104.09 38.596 104.087 38.6199C104.052 39.0385 104.085 39.4348 104.187 39.8089C104.303 40.1723 104.491 40.4777 104.753 40.725C105.026 40.9736 105.366 41.1211 105.771 41.1674C106.105 41.2056 106.391 41.1899 106.628 41.1204C106.867 41.039 107.065 40.9409 107.223 40.8261C107.381 40.7113 107.495 40.6155 107.564 40.5389C107.688 40.4081 107.781 40.3342 107.843 40.3171C107.919 40.2895 108.022 40.2832 108.153 40.2982L109.691 40.4739C109.81 40.4875 109.902 40.5342 109.965 40.6139C110.04 40.695 110.066 40.7885 110.042 40.8944C110.008 41.0838 109.88 41.3047 109.658 41.5571C109.448 41.8109 109.155 42.0492 108.779 42.272C108.403 42.4948 107.943 42.6657 107.398 42.7846C106.866 42.8929 106.267 42.9089 105.599 42.8327ZM104.275 36.9746L108.228 37.4261L108.234 37.3724C108.287 36.9075 108.256 36.4933 108.14 36.1298C108.025 35.7663 107.83 35.4662 107.555 35.2295C107.28 34.9928 106.934 34.8506 106.516 34.8029C106.099 34.7552 105.73 34.8157 105.409 34.9843C105.087 35.153 104.83 35.4013 104.635 35.7293C104.452 36.0588 104.335 36.4559 104.281 36.9209L104.275 36.9746ZM115.366 43.9485C114.746 43.8777 114.209 43.7137 113.756 43.4565C113.315 43.1888 112.962 42.8465 112.695 42.4295C112.429 42.0126 112.241 41.5383 112.133 41.0065C112.026 40.4629 111.996 39.8797 112.043 39.257C112.056 39.041 112.072 38.8496 112.091 38.6827C112.111 38.5039 112.14 38.3078 112.176 38.0946C112.268 37.5012 112.421 36.957 112.634 36.462C112.86 35.9684 113.149 35.5486 113.503 35.2025C113.87 34.8458 114.298 34.5867 114.787 34.4253C115.289 34.2651 115.849 34.2205 116.469 34.2913C117.113 34.3649 117.643 34.5401 118.058 34.817C118.487 35.0834 118.83 35.4065 119.089 35.7863L119.542 31.8161C119.556 31.6969 119.603 31.5996 119.684 31.5243C119.777 31.4504 119.889 31.421 120.02 31.4359L121.541 31.6096C121.66 31.6232 121.756 31.6765 121.83 31.7695C121.904 31.8625 121.934 31.9686 121.921 32.0878L120.568 43.9268C120.555 44.0461 120.501 44.1426 120.408 44.2166C120.315 44.2905 120.209 44.3206 120.09 44.307L118.677 44.1456C118.546 44.1306 118.443 44.0766 118.37 43.9836C118.308 43.892 118.283 43.7866 118.297 43.6674L118.373 43.0057C118.032 43.3412 117.616 43.6016 117.124 43.787C116.644 43.9737 116.058 44.0275 115.366 43.9485ZM116.246 42.1106C116.747 42.1678 117.16 42.1001 117.483 41.9077C117.807 41.7152 118.061 41.4542 118.243 41.1248C118.427 40.7835 118.546 40.4287 118.6 40.0605C118.637 39.8472 118.669 39.6214 118.696 39.3829C118.724 39.1326 118.745 38.8994 118.758 38.6834C118.787 38.3244 118.742 37.9751 118.624 37.6355C118.507 37.2839 118.312 36.9838 118.038 36.7352C117.765 36.4865 117.389 36.335 116.912 36.2805C116.412 36.2233 115.999 36.2909 115.675 36.4834C115.365 36.6653 115.123 36.9276 114.951 37.2703C114.779 37.613 114.657 37.9976 114.584 38.424C114.531 38.7804 114.49 39.138 114.462 39.4971C114.436 39.929 114.469 40.3313 114.559 40.7039C114.649 41.0766 114.825 41.3925 115.085 41.6518C115.359 41.9004 115.746 42.0533 116.246 42.1106ZM127.633 45.1688C127.514 45.1552 127.417 45.1019 127.344 45.0089C127.27 44.9159 127.239 44.8098 127.253 44.6905L128.583 33.0483C128.598 32.9171 128.652 32.8146 128.745 32.7407C128.838 32.6667 128.944 32.6366 129.063 32.6502L133.856 33.1978C134.786 33.304 135.58 33.5457 136.237 33.9227C136.896 34.2879 137.382 34.7903 137.696 35.43C138.01 36.0578 138.117 36.8128 138.017 37.6951C137.914 38.5893 137.639 39.3067 137.191 39.8473C136.744 40.376 136.159 40.7439 135.434 40.951C134.71 41.1581 133.883 41.2086 132.953 41.1024L130.289 40.7979L129.81 44.9827C129.797 45.1019 129.743 45.1985 129.651 45.2724C129.569 45.3477 129.463 45.3779 129.332 45.3629L127.633 45.1688ZM130.48 38.8088L133.091 39.1071C133.782 39.1861 134.331 39.0857 134.737 38.806C135.145 38.5144 135.386 38.0467 135.459 37.4029C135.527 36.8068 135.409 36.3101 135.104 35.913C134.801 35.5039 134.279 35.2571 133.54 35.1726L130.929 34.8743L130.48 38.8088ZM139.207 46.491C139.088 46.4774 138.991 46.4241 138.917 46.3311C138.844 46.2381 138.813 46.132 138.827 46.0128L139.789 37.5896C139.804 37.4584 139.858 37.3559 139.951 37.282C140.044 37.2081 140.15 37.1779 140.27 37.1915L141.718 37.357C141.837 37.3707 141.934 37.424 142.008 37.5169C142.094 37.6113 142.129 37.7241 142.114 37.8552L142.03 38.5884C142.348 38.2382 142.733 37.9863 143.186 37.8327C143.65 37.6804 144.168 37.6369 144.741 37.7023L145.474 37.7861C145.605 37.8011 145.701 37.8544 145.763 37.946C145.837 38.039 145.868 38.1451 145.854 38.2643L145.707 39.5519C145.693 39.6712 145.64 39.7677 145.547 39.8417C145.466 39.917 145.36 39.9471 145.229 39.9321L143.834 39.7728C143.261 39.7074 142.796 39.8173 142.437 40.1024C142.09 40.3889 141.885 40.8123 141.821 41.3727L141.259 46.2907C141.246 46.4099 141.192 46.5065 141.099 46.5804C141.006 46.6543 140.894 46.6838 140.763 46.6688L139.207 46.491ZM150.206 47.9288C149.252 47.8198 148.466 47.5609 147.849 47.1522C147.243 46.7448 146.802 46.2174 146.526 45.5698C146.261 44.9236 146.152 44.1924 146.197 43.3763C146.209 43.1603 146.233 42.8973 146.269 42.5873C146.304 42.2774 146.34 42.0158 146.377 41.8025C146.518 40.9853 146.796 40.2984 147.21 39.7418C147.637 39.1746 148.191 38.7609 148.873 38.5006C149.567 38.2417 150.379 38.1653 151.309 38.2716C152.239 38.3778 153.007 38.6346 153.613 39.042C154.23 39.4508 154.677 39.9789 154.953 40.6264C155.243 41.2634 155.365 41.996 155.318 42.8241C155.306 43.04 155.282 43.303 155.246 43.613C155.211 43.923 155.175 44.1846 155.139 44.3978C154.998 45.2031 154.72 45.89 154.305 46.4586C153.902 47.0285 153.353 47.4429 152.66 47.7018C151.978 47.9621 151.16 48.0377 150.206 47.9288ZM150.408 46.1583C151.04 46.2305 151.551 46.0896 151.942 45.7356C152.334 45.3698 152.592 44.8014 152.717 44.0305C152.749 43.8531 152.781 43.6213 152.814 43.3351C152.847 43.049 152.867 42.8158 152.876 42.6356C152.927 41.8685 152.803 41.2625 152.504 40.8176C152.204 40.3728 151.739 40.1142 151.107 40.0421C150.475 39.9699 149.963 40.1167 149.571 40.4826C149.179 40.8484 148.921 41.4108 148.798 42.1698C148.766 42.3473 148.734 42.5791 148.701 42.8652C148.668 43.1513 148.648 43.3845 148.639 43.5647C148.586 44.3438 148.71 44.9557 149.009 45.4006C149.31 45.8335 149.776 46.0861 150.408 46.1583ZM158.022 48.6406C157.903 48.627 157.807 48.5737 157.733 48.4807C157.659 48.3877 157.629 48.2816 157.642 48.1623L158.439 41.1877L156.991 41.0222C156.871 41.0086 156.775 40.9553 156.701 40.8623C156.627 40.7693 156.597 40.6632 156.61 40.544L156.729 39.5067C156.742 39.3875 156.796 39.2909 156.889 39.217C156.982 39.1431 157.088 39.1129 157.207 39.1266L158.656 39.292L158.739 38.5588C158.821 37.8435 159.02 37.2683 159.335 36.8333C159.652 36.3863 160.08 36.0729 160.62 35.8931C161.16 35.7132 161.823 35.6682 162.61 35.7581L163.826 35.897C163.958 35.912 164.054 35.9653 164.116 36.0569C164.19 36.1499 164.22 36.256 164.207 36.3753L164.088 37.4125C164.075 37.5317 164.021 37.6283 163.928 37.7022C163.847 37.7775 163.741 37.8077 163.61 37.7927L162.465 37.6619C161.988 37.6074 161.647 37.6892 161.441 37.9072C161.235 38.1252 161.106 38.4608 161.054 38.9138L160.981 39.5577L163.198 39.811C163.329 39.826 163.426 39.8793 163.488 39.9709C163.562 40.0639 163.592 40.17 163.578 40.2892L163.46 41.3265C163.446 41.4457 163.393 41.5423 163.3 41.6162C163.219 41.6915 163.113 41.7216 162.982 41.7067L160.764 41.4533L159.967 48.428C159.954 48.5472 159.9 48.6438 159.807 48.7177C159.714 48.7916 159.608 48.8217 159.489 48.8081L158.022 48.6406ZM167.843 49.9436C166.519 49.7925 165.514 49.2911 164.826 48.4395C164.138 47.5879 163.845 46.4553 163.946 45.0417C163.947 44.9211 163.959 44.7714 163.979 44.5925C164.001 44.4018 164.024 44.2534 164.048 44.1475C164.198 43.2587 164.489 42.5069 164.922 41.8921C165.366 41.2786 165.93 40.8357 166.613 40.5635C167.298 40.2794 168.075 40.187 168.946 40.2865C169.912 40.3968 170.699 40.6921 171.309 41.1724C171.919 41.6407 172.351 42.2516 172.603 43.0051C172.856 43.7467 172.93 44.5825 172.824 45.5124L172.781 45.888C172.767 46.0072 172.714 46.1038 172.621 46.1777C172.528 46.2516 172.416 46.2811 172.285 46.2661L166.347 45.5878C166.347 45.5878 166.345 45.6057 166.341 45.6414C166.337 45.6772 166.334 45.707 166.331 45.7308C166.295 46.1495 166.328 46.5458 166.431 46.9198C166.546 47.2833 166.735 47.5887 166.996 47.836C167.27 48.0846 167.609 48.2321 168.015 48.2784C168.348 48.3166 168.634 48.3009 168.872 48.2314C169.11 48.15 169.309 48.0518 169.467 47.937C169.625 47.8222 169.738 47.7265 169.808 47.6499C169.931 47.5191 170.024 47.4451 170.087 47.4281C170.162 47.4005 170.266 47.3942 170.397 47.4092L171.935 47.5849C172.054 47.5985 172.145 47.6452 172.209 47.7249C172.284 47.806 172.309 47.8995 172.285 48.0054C172.252 48.1948 172.124 48.4157 171.902 48.6681C171.691 48.9219 171.398 49.1602 171.023 49.383C170.647 49.6058 170.187 49.7766 169.642 49.8955C169.11 50.0039 168.51 50.0199 167.843 49.9436ZM166.519 44.0855L170.471 44.5371L170.477 44.4834C170.53 44.0185 170.499 43.6042 170.384 43.2408C170.268 42.8773 170.073 42.5772 169.798 42.3405C169.523 42.1038 169.177 41.9616 168.76 41.9139C168.343 41.8662 167.973 41.9267 167.652 42.0953C167.331 42.2639 167.073 42.5123 166.879 42.8403C166.696 43.1697 166.578 43.5669 166.525 44.0319L166.519 44.0855ZM177.681 51.0677C176.966 50.9859 176.361 50.8323 175.868 50.6069C175.386 50.3827 174.999 50.1271 174.705 49.8399C174.412 49.5528 174.202 49.2752 174.076 49.0071C173.949 48.739 173.89 48.5209 173.897 48.3526C173.9 48.2201 173.947 48.1228 174.039 48.0608C174.144 47.9883 174.25 47.9581 174.357 47.9704L175.77 48.1318C175.818 48.1372 175.859 48.1479 175.893 48.164C175.928 48.18 175.971 48.2212 176.024 48.2876C176.164 48.4365 176.309 48.5919 176.46 48.7541C176.622 48.9176 176.817 49.0666 177.043 49.2012C177.27 49.3238 177.563 49.4055 177.921 49.4464C178.386 49.4995 178.783 49.4543 179.114 49.3109C179.458 49.1569 179.649 48.9071 179.689 48.5613C179.717 48.311 179.669 48.1001 179.544 47.9288C179.43 47.7588 179.195 47.5931 178.839 47.4316C178.485 47.2583 177.976 47.0612 177.313 46.8405C176.663 46.6092 176.131 46.3492 175.717 46.0603C175.303 45.7715 175.009 45.436 174.835 45.0538C174.662 44.6716 174.602 44.242 174.657 43.7651C174.71 43.3002 174.897 42.8747 175.219 42.4887C175.554 42.0922 176.012 41.7882 176.591 41.5766C177.183 41.3664 177.89 41.3083 178.713 41.4023C179.357 41.4759 179.908 41.6233 180.365 41.8447C180.825 42.0542 181.196 42.2959 181.478 42.5697C181.773 42.845 181.989 43.1173 182.128 43.3867C182.267 43.6443 182.333 43.8631 182.325 44.0433C182.321 44.1758 182.273 44.279 182.18 44.353C182.089 44.415 181.989 44.4398 181.882 44.4276L180.559 44.2764C180.499 44.2696 180.447 44.2515 180.402 44.2222C180.357 44.1929 180.313 44.1577 180.269 44.1165C180.151 43.9823 180.023 43.8407 179.883 43.6919C179.743 43.543 179.565 43.408 179.349 43.2867C179.147 43.1549 178.867 43.0685 178.509 43.0277C178.056 42.9759 177.699 43.0378 177.437 43.2132C177.177 43.3767 177.03 43.6075 176.996 43.9056C176.973 44.1083 177.006 44.2932 177.095 44.4605C177.198 44.6172 177.415 44.7808 177.746 44.9515C178.077 45.1221 178.586 45.3192 179.273 45.5426C180.055 45.7769 180.662 46.0637 181.095 46.403C181.54 46.7317 181.837 47.0917 181.986 47.4831C182.148 47.8639 182.203 48.2749 182.153 48.716C182.092 49.2526 181.876 49.717 181.505 50.1095C181.146 50.5033 180.642 50.7899 179.993 50.9695C179.358 51.1384 178.587 51.1712 177.681 51.0677ZM187.199 52.1551C186.484 52.0733 185.88 51.9197 185.386 51.6942C184.904 51.4701 184.517 51.2145 184.223 50.9273C183.93 50.6402 183.72 50.3626 183.594 50.0945C183.468 49.8264 183.408 49.6083 183.415 49.44C183.418 49.3075 183.466 49.2102 183.557 49.1482C183.662 49.0757 183.768 49.0455 183.875 49.0578L185.288 49.2192C185.336 49.2246 185.377 49.2353 185.411 49.2513C185.446 49.2674 185.489 49.3086 185.542 49.375C185.682 49.5238 185.828 49.6793 185.978 49.8415C186.141 50.005 186.335 50.154 186.561 50.2886C186.789 50.4112 187.081 50.4929 187.439 50.5338C187.904 50.5869 188.302 50.5417 188.632 50.3983C188.976 50.2443 189.167 49.9945 189.207 49.6487C189.235 49.3983 189.187 49.1875 189.062 49.0162C188.948 48.8462 188.714 48.6805 188.358 48.519C188.003 48.3457 187.494 48.1486 186.831 47.9279C186.181 47.6966 185.649 47.4366 185.235 47.1477C184.821 46.8589 184.527 46.5234 184.354 46.1412C184.18 45.759 184.12 45.3294 184.175 44.8525C184.228 44.3876 184.415 43.9621 184.737 43.5761C185.072 43.1796 185.53 42.8756 186.11 42.664C186.701 42.4538 187.408 42.3957 188.231 42.4897C188.875 42.5633 189.426 42.7107 189.884 42.9321C190.343 43.1416 190.714 43.3833 190.996 43.6571C191.291 43.9324 191.508 44.2047 191.646 44.4741C191.786 44.7317 191.851 44.9505 191.843 45.1307C191.84 45.2632 191.792 45.3664 191.699 45.4404C191.607 45.5024 191.508 45.5272 191.4 45.515L190.077 45.3638C190.017 45.357 189.965 45.3389 189.92 45.3096C189.875 45.2803 189.831 45.2451 189.787 45.2039C189.67 45.0697 189.541 44.9281 189.401 44.7793C189.261 44.6304 189.083 44.4954 188.867 44.3741C188.665 44.2423 188.385 44.1559 188.027 44.1151C187.574 44.0633 187.217 44.1252 186.955 44.3006C186.695 44.4641 186.548 44.6949 186.514 44.993C186.491 45.1956 186.524 45.3806 186.614 45.5479C186.716 45.7046 186.933 45.8682 187.264 46.0389C187.595 46.2095 188.104 46.4066 188.791 46.63C189.573 46.8643 190.181 47.1511 190.613 47.4904C191.058 47.8191 191.356 48.1791 191.504 48.5705C191.666 48.9513 191.722 49.3623 191.671 49.8034C191.61 50.34 191.394 50.8044 191.023 51.1969C190.664 51.5906 190.16 51.8773 189.511 52.0569C188.876 52.2258 188.105 52.2586 187.199 52.1551ZM193.644 52.7102C193.525 52.6965 193.428 52.6432 193.354 52.5502C193.28 52.4573 193.25 52.3511 193.264 52.2319L194.228 43.7908C194.242 43.6716 194.295 43.575 194.388 43.5011C194.481 43.4272 194.587 43.397 194.707 43.4107L196.191 43.5802C196.322 43.5952 196.419 43.6485 196.481 43.7401C196.554 43.8331 196.585 43.9392 196.571 44.0585L195.607 52.4996C195.593 52.6188 195.54 52.7154 195.447 52.7893C195.366 52.8646 195.26 52.8947 195.128 52.8797L193.644 52.7102ZM194.811 41.8645C194.68 41.8495 194.576 41.8015 194.501 41.7204C194.439 41.6288 194.416 41.5174 194.431 41.3862L194.578 40.0986C194.591 39.9794 194.639 39.8821 194.72 39.8069C194.813 39.7329 194.925 39.7035 195.056 39.7184L196.683 39.9044C196.814 39.9194 196.917 39.9733 196.991 40.0663C197.065 40.1593 197.095 40.2654 197.081 40.3847L196.934 41.6723C196.919 41.8034 196.865 41.906 196.772 41.9799C196.681 42.0419 196.569 42.0654 196.438 42.0504L194.811 41.8645ZM202.023 53.8486C201.069 53.7396 200.284 53.4808 199.666 53.072C199.06 52.6646 198.619 52.1372 198.343 51.4896C198.079 50.8435 197.969 50.1123 198.014 49.2961C198.027 49.0801 198.051 48.8172 198.086 48.5072C198.121 48.1972 198.157 47.9356 198.194 47.7223C198.335 46.9051 198.613 46.2182 199.027 45.6616C199.454 45.0944 200.009 44.6807 200.691 44.4204C201.385 44.1615 202.196 44.0852 203.126 44.1914C204.056 44.2976 204.824 44.5545 205.43 44.9618C206.047 45.3706 206.494 45.8987 206.771 46.5463C207.06 47.1833 207.182 47.9158 207.136 48.7439C207.123 48.9599 207.099 49.2228 207.064 49.5328C207.028 49.8428 206.992 50.1044 206.956 50.3177C206.815 51.1229 206.538 51.8098 206.122 52.3784C205.719 52.9483 205.171 53.3627 204.477 53.6216C203.795 53.8819 202.977 53.9576 202.023 53.8486ZM202.225 52.0781C202.857 52.1503 203.369 52.0094 203.759 51.6555C204.151 51.2896 204.41 50.7212 204.534 49.9504C204.566 49.7729 204.599 49.5411 204.631 49.255C204.664 48.9688 204.685 48.7356 204.693 48.5555C204.745 47.7883 204.621 47.1823 204.321 46.7375C204.022 46.2926 203.556 46.0341 202.924 45.9619C202.292 45.8897 201.78 46.0365 201.388 46.4024C200.996 46.7683 200.739 47.3307 200.616 48.0896C200.583 48.2671 200.551 48.4989 200.518 48.785C200.485 49.0712 200.465 49.3043 200.456 49.4845C200.404 50.2636 200.527 50.8755 200.826 51.3204C201.127 51.7534 201.593 52.0059 202.225 52.0781ZM208.943 54.458C208.824 54.4444 208.727 54.3911 208.653 54.2981C208.579 54.2051 208.549 54.099 208.563 53.9797L209.527 45.5386C209.541 45.4194 209.594 45.3228 209.687 45.2489C209.78 45.175 209.886 45.1448 210.005 45.1585L211.472 45.326C211.591 45.3396 211.688 45.3929 211.762 45.4859C211.836 45.5789 211.866 45.685 211.852 45.8042L211.768 46.5375C212.122 46.1914 212.551 45.9204 213.057 45.7245C213.576 45.518 214.193 45.4557 214.908 45.5374C215.635 45.6205 216.248 45.8596 216.747 46.2547C217.246 46.6379 217.605 47.1439 217.823 47.7727C218.053 48.4029 218.12 49.1353 218.025 49.9699L217.451 54.9952C217.437 55.1144 217.384 55.211 217.291 55.2849C217.198 55.3588 217.092 55.389 216.973 55.3753L215.399 55.1955C215.28 55.1819 215.183 55.1286 215.109 55.0356C215.035 54.9426 215.005 54.8365 215.019 54.7173L215.581 49.7993C215.66 49.1078 215.549 48.5456 215.248 48.1126C214.959 47.681 214.493 47.4285 213.849 47.3549C213.229 47.2841 212.712 47.4243 212.297 47.7755C211.883 48.1267 211.636 48.6481 211.557 49.3396L210.995 54.2576C210.981 54.3768 210.928 54.4734 210.835 54.5473C210.742 54.6212 210.636 54.6514 210.517 54.6378L208.943 54.458ZM222.354 56.1712C221.734 56.1004 221.187 55.9172 220.713 55.6215C220.241 55.3139 219.879 54.9404 219.628 54.501C219.389 54.051 219.299 53.5697 219.358 53.0571C219.453 52.2225 219.863 51.5989 220.586 51.1864C221.323 50.7633 222.255 50.5316 223.383 50.4914L225.874 50.4136L225.917 50.038C225.974 49.5373 225.893 49.1355 225.674 48.8327C225.455 48.5299 225.041 48.3437 224.433 48.2743C224.004 48.2252 223.642 48.2745 223.348 48.422C223.066 48.5589 222.844 48.763 222.68 49.0341C222.567 49.1782 222.421 49.2401 222.242 49.2196L220.829 49.0582C220.698 49.0432 220.601 48.9959 220.537 48.9162C220.486 48.8379 220.467 48.7391 220.481 48.6198C220.514 48.4304 220.618 48.2068 220.793 47.9489C220.967 47.6911 221.224 47.4547 221.562 47.2397C221.902 47.0128 222.327 46.8379 222.836 46.7149C223.345 46.5919 223.946 46.5699 224.637 46.6489C225.388 46.7347 226.009 46.9023 226.5 47.1516C227.004 47.3904 227.394 47.6825 227.668 48.0279C227.943 48.3733 228.128 48.7628 228.223 49.1964C228.319 49.63 228.34 50.0793 228.287 50.5443L227.645 56.1598C227.632 56.279 227.578 56.3756 227.485 56.4495C227.392 56.5234 227.286 56.5536 227.167 56.54L225.718 56.3745C225.587 56.3595 225.485 56.3055 225.411 56.2125C225.349 56.1209 225.325 56.0154 225.338 55.8962L225.418 55.1988C225.237 55.4076 225.004 55.5983 224.718 55.7711C224.434 55.9319 224.094 56.056 223.697 56.1436C223.314 56.2206 222.866 56.2298 222.354 56.1712ZM223.156 54.5418C223.573 54.5894 223.959 54.5429 224.313 54.4022C224.679 54.2629 224.979 54.0193 225.212 53.6715C225.458 53.3131 225.614 52.8478 225.679 52.2755L225.722 51.9L223.901 51.9818C223.185 52.0088 222.641 52.1217 222.268 52.3207C221.895 52.5196 221.689 52.7919 221.649 53.1377C221.619 53.4 221.671 53.6354 221.804 53.8438C221.951 54.0417 222.144 54.2027 222.383 54.3267C222.624 54.4387 222.882 54.5104 223.156 54.5418ZM230.337 56.9022C230.218 56.8886 230.122 56.8353 230.048 56.7423C229.974 56.6493 229.944 56.5432 229.957 56.4239L231.31 44.5849C231.323 44.4657 231.377 44.3691 231.47 44.2952C231.563 44.2213 231.669 44.1911 231.788 44.2048L233.272 44.3743C233.392 44.388 233.488 44.4413 233.562 44.5343C233.636 44.6273 233.666 44.7334 233.653 44.8526L232.3 56.6916C232.286 56.8108 232.233 56.9074 232.14 56.9813C232.047 57.0552 231.941 57.0854 231.822 57.0718L230.337 56.9022Z" fill="white"/>
<rect x="335.132" y="112.441" width="184" height="44" rx="22" transform="rotate(6.51747 335.132 112.441)" fill="#428BC1"/>
<path d="M353.997 143.463C352.888 143.336 351.968 143.038 351.236 142.568C350.518 142.087 349.997 141.466 349.674 140.704C349.352 139.931 349.224 139.035 349.293 138.016C349.336 137.526 349.39 137 349.454 136.44C349.518 135.88 349.586 135.344 349.656 134.832C349.818 133.836 350.144 132.998 350.632 132.317C351.132 131.637 351.786 131.15 352.593 130.856C353.412 130.551 354.371 130.461 355.468 130.587C356.278 130.679 356.993 130.87 357.613 131.158C358.232 131.446 358.746 131.807 359.156 132.24C359.567 132.661 359.869 133.137 360.062 133.666C360.255 134.195 360.324 134.753 360.269 135.338C360.269 135.447 360.223 135.532 360.131 135.594C360.052 135.658 359.958 135.683 359.851 135.671L358.152 135.477C358.021 135.462 357.917 135.42 357.84 135.351C357.765 135.27 357.718 135.15 357.7 134.99C357.599 134.182 357.333 133.608 356.901 133.269C356.468 132.929 355.906 132.72 355.215 132.641C354.416 132.55 353.752 132.704 353.224 133.102C352.696 133.489 352.356 134.193 352.203 135.214C352.056 136.188 351.942 137.189 351.86 138.218C351.779 139.248 351.951 140.016 352.376 140.524C352.802 141.019 353.415 141.313 354.214 141.404C354.905 141.483 355.5 141.406 355.997 141.173C356.497 140.928 356.886 140.429 357.165 139.676C357.22 139.513 357.292 139.407 357.383 139.357C357.473 139.307 357.584 139.289 357.715 139.304L359.414 139.498C359.521 139.51 359.606 139.556 359.67 139.636C359.745 139.717 359.771 139.811 359.746 139.917C359.668 140.499 359.475 141.027 359.167 141.499C358.859 141.971 358.457 142.372 357.961 142.702C357.465 143.02 356.884 143.249 356.215 143.39C355.547 143.531 354.807 143.555 353.997 143.463ZM363.879 144.592C363.259 144.521 362.712 144.338 362.239 144.042C361.767 143.735 361.405 143.361 361.153 142.922C360.915 142.472 360.825 141.99 360.883 141.478C360.979 140.643 361.388 140.02 362.111 139.607C362.848 139.184 363.781 138.952 364.908 138.912L367.399 138.834L367.442 138.459C367.499 137.958 367.419 137.556 367.199 137.253C366.98 136.951 366.567 136.764 365.959 136.695C365.53 136.646 365.168 136.695 364.873 136.843C364.592 136.98 364.369 137.184 364.205 137.455C364.092 137.599 363.946 137.661 363.767 137.64L362.355 137.479C362.223 137.464 362.126 137.417 362.063 137.337C362.011 137.258 361.992 137.16 362.006 137.04C362.04 136.851 362.144 136.627 362.318 136.37C362.493 136.112 362.749 135.875 363.088 135.66C363.428 135.433 363.852 135.258 364.362 135.136C364.871 135.013 365.471 134.991 366.163 135.07C366.914 135.155 367.535 135.323 368.026 135.572C368.53 135.811 368.919 136.103 369.194 136.448C369.468 136.794 369.653 137.183 369.749 137.617C369.844 138.051 369.865 138.5 369.812 138.965L369.171 144.58C369.157 144.7 369.104 144.796 369.011 144.87C368.918 144.944 368.812 144.974 368.692 144.961L367.244 144.795C367.113 144.78 367.01 144.726 366.936 144.633C366.874 144.541 366.85 144.436 366.864 144.317L366.943 143.619C366.762 143.828 366.529 144.019 366.244 144.192C365.96 144.352 365.619 144.477 365.223 144.564C364.84 144.641 364.392 144.65 363.879 144.592ZM364.681 142.962C365.098 143.01 365.484 142.964 365.839 142.823C366.205 142.683 366.504 142.44 366.737 142.092C366.984 141.734 367.139 141.268 367.205 140.696L367.248 140.321L365.427 140.402C364.711 140.429 364.167 140.542 363.794 140.741C363.421 140.94 363.214 141.213 363.175 141.558C363.145 141.821 363.196 142.056 363.33 142.264C363.476 142.462 363.669 142.623 363.909 142.747C364.149 142.859 364.407 142.931 364.681 142.962ZM371.845 145.321C371.726 145.307 371.629 145.254 371.555 145.161C371.481 145.068 371.451 144.962 371.465 144.843L372.427 136.419C372.442 136.288 372.496 136.186 372.589 136.112C372.682 136.038 372.788 136.008 372.907 136.021L374.356 136.187C374.475 136.2 374.572 136.254 374.646 136.347C374.732 136.441 374.767 136.554 374.752 136.685L374.668 137.418C374.986 137.068 375.371 136.816 375.824 136.662C376.288 136.51 376.806 136.467 377.378 136.532L378.112 136.616C378.243 136.631 378.339 136.684 378.401 136.776C378.475 136.869 378.505 136.975 378.492 137.094L378.345 138.382C378.331 138.501 378.278 138.597 378.185 138.671C378.104 138.747 377.998 138.777 377.866 138.762L376.471 138.602C375.899 138.537 375.434 138.647 375.075 138.932C374.728 139.219 374.523 139.642 374.459 140.202L373.897 145.12C373.883 145.24 373.83 145.336 373.737 145.41C373.644 145.484 373.532 145.513 373.401 145.499L371.845 145.321ZM382.736 146.746C381.413 146.595 380.407 146.094 379.72 145.242C379.032 144.39 378.739 143.258 378.84 141.844C378.841 141.724 378.852 141.574 378.873 141.395C378.895 141.204 378.918 141.056 378.942 140.95C379.092 140.061 379.383 139.309 379.815 138.695C380.26 138.081 380.824 137.638 381.507 137.366C382.192 137.082 382.969 136.99 383.84 137.089C384.805 137.199 385.593 137.495 386.202 137.975C386.813 138.443 387.245 139.054 387.497 139.808C387.75 140.549 387.824 141.385 387.718 142.315L387.675 142.691C387.661 142.81 387.608 142.906 387.515 142.98C387.422 143.054 387.31 143.084 387.179 143.069L381.241 142.39C381.241 142.39 381.239 142.408 381.235 142.444C381.231 142.48 381.228 142.51 381.225 142.533C381.189 142.952 381.222 143.348 381.325 143.722C381.44 144.086 381.629 144.391 381.89 144.639C382.164 144.887 382.503 145.035 382.909 145.081C383.242 145.119 383.528 145.103 383.765 145.034C384.004 144.953 384.203 144.854 384.361 144.74C384.519 144.625 384.632 144.529 384.701 144.452C384.825 144.322 384.918 144.248 384.98 144.231C385.056 144.203 385.159 144.197 385.291 144.212L386.829 144.387C386.948 144.401 387.039 144.448 387.102 144.527C387.178 144.609 387.203 144.702 387.179 144.808C387.145 144.997 387.018 145.218 386.795 145.471C386.585 145.724 386.292 145.963 385.917 146.186C385.541 146.408 385.081 146.579 384.536 146.698C384.004 146.806 383.404 146.822 382.736 146.746ZM381.413 140.888L385.365 141.34L385.371 141.286C385.424 140.821 385.393 140.407 385.278 140.043C385.162 139.68 384.967 139.38 384.692 139.143C384.417 138.906 384.071 138.764 383.654 138.716C383.236 138.669 382.867 138.729 382.546 138.898C382.225 139.067 381.967 139.315 381.772 139.643C381.59 139.972 381.472 140.369 381.419 140.834L381.413 140.888ZM393.058 147.925C391.735 147.774 390.729 147.273 390.041 146.421C389.353 145.57 389.06 144.437 389.161 143.023C389.163 142.903 389.174 142.753 389.194 142.574C389.216 142.384 389.239 142.235 389.263 142.129C389.413 141.24 389.704 140.489 390.137 139.874C390.581 139.26 391.145 138.817 391.829 138.545C392.513 138.261 393.291 138.169 394.161 138.268C395.127 138.379 395.915 138.674 396.524 139.154C397.135 139.622 397.566 140.233 397.818 140.987C398.072 141.728 398.145 142.564 398.039 143.494L397.996 143.87C397.983 143.989 397.929 144.085 397.836 144.159C397.743 144.233 397.631 144.263 397.5 144.248L391.563 143.57C391.563 143.57 391.561 143.587 391.557 143.623C391.552 143.659 391.549 143.689 391.546 143.713C391.511 144.131 391.544 144.528 391.646 144.902C391.762 145.265 391.95 145.57 392.212 145.818C392.485 146.066 392.825 146.214 393.23 146.26C393.564 146.298 393.85 146.283 394.087 146.213C394.326 146.132 394.524 146.034 394.682 145.919C394.84 145.804 394.954 145.708 395.023 145.632C395.147 145.501 395.24 145.427 395.302 145.41C395.378 145.382 395.481 145.376 395.612 145.391L397.15 145.567C397.269 145.58 397.361 145.627 397.424 145.707C397.499 145.788 397.525 145.881 397.501 145.987C397.467 146.177 397.339 146.397 397.117 146.65C396.907 146.904 396.614 147.142 396.238 147.365C395.862 147.588 395.402 147.758 394.857 147.877C394.325 147.986 393.726 148.002 393.058 147.925ZM391.734 142.067L395.687 142.519L395.693 142.465C395.746 142 395.715 141.586 395.599 141.223C395.484 140.859 395.289 140.559 395.014 140.322C394.739 140.085 394.393 139.943 393.975 139.896C393.558 139.848 393.189 139.908 392.868 140.077C392.546 140.246 392.288 140.494 392.094 140.822C391.911 141.151 391.794 141.549 391.74 142.014L391.734 142.067ZM399.823 148.517C399.704 148.503 399.607 148.45 399.533 148.357C399.46 148.264 399.429 148.158 399.443 148.039L400.405 139.616C400.42 139.485 400.474 139.382 400.567 139.308C400.66 139.234 400.766 139.204 400.886 139.218L402.334 139.383C402.453 139.397 402.55 139.45 402.624 139.543C402.71 139.637 402.745 139.75 402.73 139.881L402.646 140.614C402.964 140.264 403.349 140.012 403.802 139.859C404.266 139.706 404.784 139.663 405.357 139.728L406.09 139.812C406.221 139.827 406.317 139.88 406.379 139.972C406.453 140.065 406.484 140.171 406.47 140.29L406.323 141.578C406.309 141.697 406.256 141.794 406.163 141.868C406.082 141.943 405.976 141.973 405.845 141.958L404.45 141.799C403.877 141.733 403.412 141.843 403.053 142.128C402.706 142.415 402.501 142.838 402.437 143.399L401.875 148.317C401.862 148.436 401.808 148.533 401.715 148.606C401.622 148.68 401.51 148.71 401.379 148.695L399.823 148.517ZM407.199 144.957C407.068 144.942 406.966 144.888 406.892 144.795C406.83 144.704 406.806 144.598 406.819 144.479L406.954 143.299C406.968 143.18 407.015 143.082 407.096 143.007C407.189 142.933 407.301 142.904 407.432 142.919L412.923 143.546C413.042 143.559 413.138 143.613 413.212 143.706C413.286 143.799 413.316 143.905 413.303 144.024L413.168 145.204C413.154 145.324 413.101 145.42 413.008 145.494C412.915 145.568 412.809 145.598 412.69 145.585L407.199 144.957ZM419.943 150.997C418.834 150.87 417.914 150.572 417.182 150.102C416.464 149.621 415.944 149 415.62 148.238C415.298 147.465 415.171 146.569 415.239 145.55C415.283 145.059 415.336 144.534 415.4 143.974C415.465 143.414 415.532 142.878 415.602 142.366C415.764 141.37 416.09 140.532 416.578 139.851C417.078 139.171 417.732 138.684 418.539 138.39C419.358 138.085 420.317 137.995 421.414 138.121C422.224 138.213 422.939 138.404 423.559 138.692C424.178 138.98 424.692 139.341 425.102 139.774C425.513 140.195 425.815 140.671 426.008 141.2C426.201 141.729 426.27 142.287 426.215 142.872C426.215 142.981 426.169 143.066 426.077 143.128C425.998 143.192 425.904 143.217 425.797 143.205L424.098 143.011C423.967 142.996 423.863 142.954 423.786 142.885C423.711 142.804 423.664 142.684 423.646 142.524C423.545 141.716 423.279 141.142 422.847 140.803C422.414 140.463 421.852 140.254 421.161 140.175C420.362 140.084 419.698 140.238 419.17 140.636C418.642 141.023 418.302 141.727 418.149 142.748C418.002 143.722 417.888 144.723 417.806 145.752C417.725 146.782 417.897 147.55 418.322 148.058C418.748 148.553 419.361 148.847 420.16 148.938C420.851 149.017 421.446 148.94 421.944 148.707C422.443 148.462 422.832 147.963 423.111 147.21C423.166 147.047 423.238 146.941 423.329 146.891C423.419 146.841 423.53 146.823 423.661 146.838L425.36 147.032C425.467 147.044 425.552 147.09 425.616 147.17C425.691 147.251 425.717 147.345 425.692 147.451C425.614 148.033 425.421 148.561 425.113 149.033C424.805 149.505 424.403 149.906 423.907 150.236C423.411 150.554 422.83 150.783 422.161 150.924C421.493 151.065 420.753 151.089 419.943 150.997ZM431.238 152.287C430.284 152.178 429.498 151.919 428.881 151.511C428.275 151.103 427.834 150.576 427.558 149.928C427.294 149.282 427.184 148.551 427.229 147.735C427.241 147.519 427.265 147.256 427.301 146.946C427.336 146.636 427.372 146.374 427.409 146.161C427.55 145.344 427.828 144.657 428.242 144.1C428.669 143.533 429.224 143.119 429.905 142.859C430.599 142.6 431.411 142.524 432.341 142.63C433.271 142.736 434.039 142.993 434.645 143.4C435.262 143.809 435.709 144.337 435.985 144.985C436.275 145.622 436.397 146.354 436.35 147.183C436.338 147.399 436.314 147.661 436.278 147.971C436.243 148.281 436.207 148.543 436.171 148.756C436.03 149.562 435.753 150.248 435.337 150.817C434.934 151.387 434.385 151.801 433.692 152.06C433.01 152.321 432.192 152.396 431.238 152.287ZM431.44 150.517C432.072 150.589 432.583 150.448 432.974 150.094C433.366 149.728 433.624 149.16 433.749 148.389C433.781 148.212 433.813 147.98 433.846 147.694C433.879 147.407 433.899 147.174 433.908 146.994C433.959 146.227 433.835 145.621 433.536 145.176C433.236 144.731 432.771 144.473 432.139 144.401C431.507 144.328 430.995 144.475 430.603 144.841C430.211 145.207 429.953 145.769 429.831 146.528C429.798 146.706 429.766 146.938 429.733 147.224C429.7 147.51 429.68 147.743 429.671 147.923C429.618 148.702 429.742 149.314 430.041 149.759C430.342 150.192 430.808 150.445 431.44 150.517ZM438.158 152.897C438.039 152.883 437.942 152.83 437.868 152.737C437.794 152.644 437.764 152.538 437.778 152.418L438.742 143.977C438.756 143.858 438.809 143.761 438.902 143.688C438.995 143.614 439.101 143.583 439.22 143.597L440.687 143.765C440.806 143.778 440.902 143.832 440.976 143.925C441.05 144.018 441.08 144.124 441.067 144.243L440.983 144.976C441.337 144.63 441.766 144.359 442.272 144.163C442.79 143.957 443.408 143.894 444.123 143.976C444.85 144.059 445.463 144.298 445.961 144.693C446.461 145.077 446.82 145.583 447.038 146.211C447.268 146.842 447.335 147.574 447.24 148.408L446.666 153.434C446.652 153.553 446.599 153.65 446.506 153.724C446.413 153.797 446.307 153.828 446.188 153.814L444.614 153.634C444.495 153.621 444.398 153.567 444.324 153.474C444.25 153.381 444.22 153.275 444.234 153.156L444.796 148.238C444.875 147.546 444.764 146.984 444.463 146.551C444.174 146.12 443.708 145.867 443.064 145.794C442.444 145.723 441.927 145.863 441.512 146.214C441.097 146.565 440.851 147.087 440.772 147.778L440.21 152.696C440.196 152.815 440.143 152.912 440.05 152.986C439.957 153.06 439.851 153.09 439.732 153.076L438.158 152.897ZM450.197 154.272C450.078 154.258 449.981 154.205 449.907 154.112C449.833 154.019 449.803 153.913 449.817 153.794L450.614 146.819L449.165 146.654C449.046 146.64 448.949 146.587 448.875 146.494C448.801 146.401 448.771 146.295 448.785 146.175L448.903 145.138C448.917 145.019 448.97 144.922 449.063 144.848C449.156 144.775 449.262 144.744 449.382 144.758L450.83 144.923L450.914 144.19C450.996 143.475 451.194 142.9 451.51 142.465C451.826 142.018 452.255 141.704 452.795 141.524C453.334 141.345 453.998 141.3 454.785 141.39L458.433 141.806C458.564 141.821 458.661 141.875 458.723 141.966C458.797 142.059 458.827 142.165 458.813 142.285L458.695 143.322C458.681 143.441 458.628 143.538 458.535 143.612C458.454 143.687 458.348 143.717 458.216 143.702L454.64 143.293C454.163 143.239 453.821 143.321 453.615 143.539C453.409 143.757 453.28 144.092 453.229 144.545L453.155 145.189L457.984 145.741C458.115 145.756 458.211 145.809 458.273 145.901C458.347 145.994 458.377 146.1 458.364 146.219L457.399 154.66C457.386 154.779 457.332 154.876 457.239 154.95C457.158 155.025 457.052 155.055 456.921 155.04L455.473 154.875C455.353 154.861 455.257 154.808 455.183 154.715C455.109 154.622 455.079 154.516 455.092 154.396L455.889 147.422L452.938 147.085L452.142 154.059C452.128 154.179 452.075 154.275 451.982 154.349C451.889 154.423 451.783 154.453 451.663 154.44L450.197 154.272ZM463.165 155.935C462.545 155.864 462.008 155.7 461.554 155.443C461.114 155.175 460.761 154.833 460.494 154.416C460.228 153.999 460.04 153.524 459.932 152.993C459.825 152.449 459.795 151.866 459.842 151.243C459.855 151.027 459.87 150.836 459.89 150.669C459.91 150.49 459.938 150.294 459.975 150.081C460.067 149.487 460.22 148.943 460.433 148.448C460.659 147.955 460.948 147.535 461.302 147.189C461.669 146.832 462.097 146.573 462.586 146.411C463.088 146.251 463.648 146.207 464.268 146.278C464.912 146.351 465.442 146.526 465.857 146.803C466.285 147.07 466.629 147.393 466.888 147.773L467.341 143.802C467.355 143.683 467.402 143.586 467.483 143.511C467.576 143.437 467.688 143.407 467.819 143.422L469.339 143.596C469.459 143.609 469.555 143.663 469.629 143.756C469.703 143.849 469.733 143.955 469.72 144.074L468.367 155.913C468.353 156.032 468.3 156.129 468.207 156.203C468.114 156.277 468.008 156.307 467.889 156.293L466.476 156.132C466.345 156.117 466.242 156.063 466.168 155.97C466.106 155.878 466.082 155.773 466.096 155.654L466.171 154.992C465.831 155.327 465.415 155.588 464.923 155.773C464.442 155.96 463.857 156.014 463.165 155.935ZM464.045 154.097C464.546 154.154 464.958 154.086 465.282 153.894C465.606 153.701 465.86 153.44 466.042 153.111C466.226 152.77 466.345 152.415 466.399 152.047C466.436 151.833 466.468 151.608 466.495 151.369C466.523 151.119 466.544 150.886 466.557 150.67C466.585 150.311 466.541 149.961 466.423 149.622C466.306 149.27 466.111 148.97 465.837 148.721C465.564 148.473 465.188 148.321 464.711 148.267C464.211 148.209 463.798 148.277 463.474 148.47C463.164 148.652 462.922 148.914 462.75 149.257C462.578 149.599 462.456 149.984 462.383 150.41C462.33 150.767 462.289 151.124 462.26 151.483C462.235 151.915 462.268 152.318 462.358 152.69C462.448 153.063 462.624 153.379 462.884 153.638C463.157 153.887 463.545 154.04 464.045 154.097ZM474.687 157.251C473.364 157.1 472.358 156.598 471.67 155.747C470.983 154.895 470.689 153.763 470.79 152.349C470.792 152.228 470.803 152.079 470.824 151.9C470.845 151.709 470.868 151.561 470.893 151.455C471.042 150.566 471.334 149.814 471.766 149.199C472.211 148.586 472.775 148.143 473.458 147.871C474.143 147.587 474.92 147.494 475.79 147.594C476.756 147.704 477.544 148 478.153 148.48C478.764 148.948 479.195 149.559 479.447 150.313C479.701 151.054 479.775 151.89 479.668 152.82L479.625 153.195C479.612 153.315 479.558 153.411 479.465 153.485C479.372 153.559 479.26 153.588 479.129 153.574L473.192 152.895C473.192 152.895 473.19 152.913 473.186 152.949C473.182 152.985 473.178 153.014 473.176 153.038C473.14 153.457 473.173 153.853 473.275 154.227C473.391 154.591 473.579 154.896 473.841 155.143C474.114 155.392 474.454 155.54 474.859 155.586C475.193 155.624 475.479 155.608 475.716 155.539C475.955 155.457 476.153 155.359 476.311 155.244C476.469 155.13 476.583 155.034 476.652 154.957C476.776 154.826 476.869 154.753 476.931 154.736C477.007 154.708 477.11 154.702 477.241 154.717L478.779 154.892C478.899 154.906 478.99 154.953 479.053 155.032C479.128 155.113 479.154 155.207 479.13 155.313C479.096 155.502 478.968 155.723 478.746 155.976C478.536 156.229 478.243 156.468 477.867 156.69C477.492 156.913 477.031 157.084 476.486 157.203C475.954 157.311 475.355 157.327 474.687 157.251ZM473.364 151.393L477.316 151.844L477.322 151.791C477.375 151.326 477.344 150.912 477.228 150.548C477.113 150.185 476.918 149.885 476.643 149.648C476.368 149.411 476.022 149.269 475.604 149.221C475.187 149.174 474.818 149.234 474.497 149.403C474.176 149.571 473.918 149.82 473.723 150.148C473.541 150.477 473.423 150.874 473.37 151.339L473.364 151.393ZM481.452 157.843C481.333 157.829 481.237 157.776 481.163 157.683C481.089 157.59 481.059 157.484 481.072 157.365L482.037 148.923C482.05 148.804 482.103 148.708 482.196 148.634C482.289 148.56 482.396 148.53 482.515 148.543L483.981 148.711C484.1 148.724 484.197 148.778 484.271 148.871C484.345 148.964 484.375 149.07 484.361 149.189L484.278 149.922C484.631 149.576 485.061 149.305 485.566 149.109C486.085 148.903 486.702 148.84 487.417 148.922C488.145 149.005 488.758 149.244 489.256 149.64C489.756 150.023 490.115 150.529 490.333 151.158C490.563 151.788 490.63 152.52 490.534 153.355L489.96 158.38C489.947 158.499 489.893 158.596 489.8 158.67C489.707 158.744 489.601 158.774 489.482 158.76L487.908 158.58C487.789 158.567 487.693 158.513 487.619 158.42C487.545 158.327 487.515 158.221 487.528 158.102L488.09 153.184C488.169 152.493 488.058 151.93 487.757 151.497C487.468 151.066 487.002 150.813 486.358 150.74C485.738 150.669 485.221 150.809 484.807 151.16C484.392 151.512 484.145 152.033 484.066 152.724L483.504 157.642C483.491 157.762 483.437 157.858 483.344 157.932C483.251 158.006 483.145 158.036 483.026 158.023L481.452 157.843ZM496.281 159.537C495.566 159.455 494.978 159.261 494.518 158.955C494.057 158.649 493.736 158.238 493.553 157.722C493.372 157.194 493.324 156.56 493.408 155.821L493.872 151.761L492.459 151.6C492.34 151.586 492.243 151.533 492.169 151.44C492.095 151.347 492.065 151.241 492.079 151.122L492.197 150.084C492.211 149.965 492.264 149.868 492.357 149.795C492.45 149.721 492.556 149.69 492.676 149.704L494.088 149.866L494.428 146.897C494.441 146.778 494.489 146.68 494.57 146.605C494.663 146.531 494.775 146.502 494.906 146.517L496.354 146.682C496.474 146.696 496.57 146.749 496.644 146.842C496.718 146.935 496.748 147.041 496.735 147.16L496.395 150.129L498.631 150.384C498.75 150.398 498.847 150.451 498.921 150.544C498.995 150.637 499.025 150.743 499.011 150.863L498.893 151.9C498.879 152.019 498.826 152.116 498.733 152.19C498.64 152.264 498.534 152.294 498.414 152.28L496.179 152.025L495.736 155.905C495.68 156.394 495.72 156.785 495.855 157.079C496.003 157.373 496.291 157.545 496.72 157.594L497.954 157.735C498.073 157.749 498.17 157.802 498.244 157.895C498.318 157.988 498.348 158.094 498.334 158.213L498.208 159.322C498.194 159.441 498.141 159.538 498.048 159.612C497.955 159.686 497.849 159.716 497.729 159.702L496.281 159.537Z" fill="white"/>
<rect x="330.138" y="16.6533" width="194" height="44" rx="22" transform="rotate(-4.92444 330.138 16.6533)" fill="#9747FF"/>
<rect x="330.679" y="17.1086" width="193" height="43" rx="21.5" transform="rotate(-4.92444 330.679 17.1086)" stroke="black" stroke-opacity="0.05"/>
<path d="M350.354 43.5171C350.235 43.5274 350.129 43.4943 350.039 43.4179C349.948 43.3414 349.897 43.2434 349.887 43.1238L348.879 31.4311C348.869 31.3116 348.902 31.2063 348.979 31.1154C349.055 31.0245 349.153 30.9739 349.273 30.9636L350.958 30.8184C351.09 30.8071 351.195 30.8402 351.274 30.9177C351.365 30.9941 351.416 31.0922 351.426 31.2117L352.433 42.9044C352.444 43.024 352.411 43.1292 352.334 43.2201C352.27 43.31 352.172 43.3606 352.04 43.3719L350.354 43.5171ZM355.498 43.0739C355.379 43.0842 355.273 43.0512 355.182 42.9747C355.092 42.8982 355.041 42.8002 355.031 42.6806L354.301 34.216C354.291 34.0964 354.324 33.9912 354.401 33.9003C354.477 33.8094 354.575 33.7588 354.695 33.7485L356.165 33.6218C356.285 33.6115 356.39 33.6446 356.481 33.7211C356.572 33.7975 356.622 33.8956 356.633 34.0151L356.696 34.7504C356.974 34.341 357.341 33.9902 357.798 33.6979C358.265 33.3927 358.858 33.2091 359.575 33.1473C360.304 33.0845 360.952 33.1973 361.519 33.4857C362.085 33.7621 362.537 34.1869 362.876 34.7599C363.226 35.332 363.437 36.0364 363.509 36.8733L363.944 41.9127C363.954 42.0322 363.921 42.1375 363.844 42.2284C363.768 42.3193 363.67 42.3699 363.55 42.3802L361.972 42.5161C361.853 42.5264 361.747 42.4934 361.656 42.4169C361.566 42.3404 361.515 42.2424 361.505 42.1228L361.08 37.1911C361.02 36.4977 360.8 35.9686 360.419 35.6039C360.05 35.2382 359.543 35.0832 358.897 35.1388C358.276 35.1924 357.797 35.4324 357.46 35.8589C357.123 36.2854 356.985 36.8453 357.045 37.5387L357.47 42.4705C357.48 42.59 357.447 42.6953 357.37 42.7862C357.294 42.8771 357.196 42.9277 357.076 42.938L355.498 43.0739ZM369.735 42.0279C369.114 42.0815 368.555 42.0273 368.059 41.8652C367.574 41.6902 367.16 41.4248 366.816 41.069C366.472 40.7132 366.195 40.2854 365.983 39.7858C365.77 39.2741 365.625 38.7085 365.548 38.0889C365.517 37.8747 365.495 37.6839 365.48 37.5165C365.465 37.3372 365.454 37.1394 365.447 36.9232C365.42 36.3233 365.461 35.7597 365.573 35.2322C365.696 34.7037 365.896 34.2347 366.174 33.8254C366.463 33.403 366.831 33.0641 367.279 32.8088C367.739 32.5524 368.279 32.3974 368.901 32.3438C369.547 32.2882 370.1 32.3549 370.562 32.5439C371.035 32.72 371.436 32.9685 371.765 33.2895L371.422 29.3082C371.411 29.1887 371.438 29.084 371.503 28.9941C371.579 28.9032 371.683 28.8521 371.815 28.8407L373.339 28.7094C373.459 28.6991 373.564 28.7322 373.655 28.8087C373.746 28.8851 373.796 28.9832 373.807 29.1027L374.83 40.9747C374.84 41.0943 374.807 41.1995 374.73 41.2904C374.654 41.3813 374.556 41.4319 374.436 41.4422L373.02 41.5643C372.888 41.5756 372.777 41.543 372.686 41.4666C372.607 41.3891 372.562 41.2905 372.552 41.171L372.495 40.5074C372.228 40.9038 371.872 41.2416 371.426 41.5209C370.992 41.7992 370.429 41.9682 369.735 42.0279ZM370.234 40.0519C370.736 40.0086 371.126 39.8605 371.406 39.6076C371.685 39.3547 371.881 39.0487 371.995 38.6896C372.108 38.3186 372.154 37.9472 372.134 37.5756C372.127 37.3594 372.114 37.1317 372.093 36.8926C372.072 36.6415 372.045 36.4089 372.015 36.1947C371.972 35.8371 371.859 35.5035 371.676 35.1941C371.492 34.8728 371.241 34.6174 370.923 34.4279C370.606 34.2385 370.208 34.1643 369.73 34.2055C369.228 34.2488 368.837 34.3969 368.558 34.6498C368.289 34.8897 368.105 35.1947 368.004 35.5647C367.903 35.9347 367.86 36.3359 367.873 36.7684C367.892 37.1281 367.923 37.4868 367.966 37.8444C368.027 38.2727 368.138 38.6606 368.301 39.0079C368.463 39.3553 368.698 39.6302 369.004 39.8326C369.322 40.022 369.731 40.0951 370.234 40.0519ZM380.734 41.0803C380.004 41.1432 379.357 41.0363 378.791 40.7599C378.236 40.4705 377.789 40.0392 377.451 39.4662C377.111 38.8811 376.906 38.1762 376.835 37.3512L376.401 32.3119C376.391 32.1923 376.424 32.0871 376.5 31.9962C376.577 31.9053 376.675 31.8547 376.794 31.8444L378.372 31.7084C378.504 31.6971 378.609 31.7302 378.688 31.8077C378.779 31.8842 378.83 31.9822 378.84 32.1017L379.265 37.0335C379.393 38.516 380.108 39.2011 381.411 39.0888C382.033 39.0352 382.506 38.7957 382.831 38.3703C383.167 37.9438 383.306 37.3839 383.246 36.6904L382.821 31.7587C382.811 31.6392 382.844 31.5339 382.92 31.443C382.997 31.3521 383.095 31.3015 383.214 31.2912L384.793 31.1553C384.912 31.1449 385.017 31.178 385.108 31.2545C385.199 31.331 385.25 31.429 385.26 31.5486L385.989 40.0132C386 40.1328 385.967 40.238 385.89 40.3289C385.814 40.4198 385.716 40.4704 385.596 40.4807L384.143 40.6059C384.012 40.6172 383.901 40.5846 383.81 40.5081C383.731 40.4306 383.686 40.3321 383.676 40.2125L383.613 39.4773C383.326 39.9235 382.954 40.2868 382.496 40.5671C382.038 40.8475 381.451 41.0185 380.734 41.0803ZM391.944 40.1145C391.226 40.1763 390.603 40.1456 390.075 40.0225C389.558 39.8984 389.128 39.7247 388.783 39.5015C388.439 39.2782 388.178 39.0477 388.001 38.8101C387.824 38.5724 387.722 38.3704 387.696 38.204C387.673 38.0735 387.7 37.9688 387.777 37.8899C387.866 37.798 387.964 37.7474 388.071 37.7381L389.488 37.616C389.536 37.6119 389.578 37.6143 389.615 37.6231C389.652 37.632 389.703 37.6637 389.768 37.7184C389.935 37.8365 390.108 37.9601 390.288 38.0891C390.479 38.2171 390.7 38.3247 390.948 38.4117C391.195 38.4867 391.498 38.5088 391.857 38.4779C392.323 38.4377 392.704 38.3145 392.999 38.1084C393.306 37.8893 393.444 37.6064 393.414 37.2597C393.393 37.0086 393.303 36.8116 393.146 36.6685C393.001 36.5244 392.739 36.4085 392.358 36.3209C391.976 36.2213 391.438 36.1292 390.744 36.0444C390.061 35.9467 389.488 35.7973 389.025 35.5963C388.562 35.3953 388.208 35.1247 387.962 34.7846C387.715 34.4445 387.572 34.0353 387.531 33.5571C387.49 33.0908 387.59 32.6366 387.829 32.1945C388.079 31.7393 388.467 31.3506 388.993 31.0282C389.531 30.7048 390.213 30.5076 391.038 30.4365C391.683 30.3809 392.252 30.4162 392.745 30.5423C393.237 30.6566 393.648 30.8198 393.98 31.0322C394.323 31.2435 394.589 31.4674 394.778 31.7041C394.966 31.9288 395.074 32.1303 395.101 32.3086C395.125 32.4391 395.098 32.5498 395.022 32.6407C394.944 32.7196 394.851 32.7637 394.744 32.773L393.417 32.8873C393.357 32.8925 393.302 32.8852 393.252 32.8654C393.202 32.8456 393.152 32.8198 393.101 32.7881C392.959 32.6798 392.805 32.5667 392.638 32.4485C392.472 32.3304 392.27 32.2333 392.035 32.1572C391.811 32.0682 391.519 32.0391 391.16 32.07C390.706 32.1092 390.368 32.2407 390.146 32.4645C389.924 32.6764 389.825 32.9318 389.851 33.2307C389.869 33.4339 389.938 33.6086 390.059 33.7548C390.191 33.8879 390.436 34.0054 390.794 34.107C391.152 34.2086 391.69 34.3008 392.408 34.3835C393.221 34.4579 393.873 34.6185 394.364 34.8653C394.866 35.0991 395.229 35.393 395.452 35.7472C395.686 36.0884 395.822 36.4801 395.86 36.9225C395.907 37.4605 395.787 37.9586 395.501 38.4168C395.227 38.874 394.79 39.2549 394.19 39.5595C393.601 39.8512 392.852 40.0362 391.944 40.1145ZM402.119 39.057C401.402 39.1189 400.788 39.0453 400.276 38.8365C399.764 38.6277 399.367 38.2885 399.086 37.8189C398.804 37.3373 398.63 36.7259 398.567 35.9847L398.216 31.9138L396.799 32.0358C396.68 32.0461 396.574 32.0131 396.483 31.9366C396.393 31.8601 396.342 31.7621 396.332 31.6425L396.242 30.6024C396.232 30.4828 396.265 30.3776 396.341 30.2867C396.418 30.1958 396.516 30.1452 396.635 30.1349L398.052 30.0128L397.796 27.0358C397.785 26.9163 397.812 26.8116 397.877 26.7217C397.953 26.6308 398.057 26.5797 398.189 26.5684L399.642 26.4432C399.761 26.4329 399.866 26.466 399.957 26.5425C400.048 26.6189 400.099 26.717 400.109 26.8365L400.366 29.8135L402.607 29.6203C402.727 29.61 402.832 29.6431 402.923 29.7196C403.014 29.7961 403.064 29.8941 403.075 30.0137L403.164 31.0538C403.175 31.1734 403.142 31.2786 403.065 31.3695C402.989 31.4604 402.891 31.511 402.771 31.5213L400.529 31.7144L400.865 35.606C400.907 36.0962 401.023 36.4716 401.215 36.7321C401.418 36.9917 401.734 37.1029 402.165 37.0658L403.402 36.9592C403.522 36.9489 403.627 36.982 403.718 37.0585C403.809 37.1349 403.859 37.233 403.87 37.3525L403.965 38.4644C403.976 38.584 403.943 38.6892 403.866 38.7801C403.79 38.871 403.692 38.9216 403.572 38.9319L402.119 39.057ZM406.024 38.7206C405.904 38.731 405.799 38.6979 405.708 38.6214C405.617 38.5449 405.567 38.4469 405.556 38.3273L404.829 29.8806C404.817 29.7491 404.85 29.6379 404.926 29.547C405.003 29.4561 405.101 29.4055 405.22 29.3952L406.673 29.27C406.793 29.2597 406.898 29.2928 406.989 29.3693C407.091 29.4448 407.149 29.5482 407.16 29.6798L407.223 30.415C407.465 30.0088 407.793 29.6854 408.206 29.4451C408.63 29.2038 409.13 29.0584 409.704 29.0089L410.439 28.9456C410.571 28.9342 410.676 28.9673 410.755 29.0448C410.846 29.1213 410.896 29.2193 410.906 29.3389L411.018 30.6301C411.028 30.7497 410.995 30.8549 410.918 30.9458C410.854 31.0357 410.756 31.0863 410.624 31.0976L409.226 31.2181C408.652 31.2676 408.217 31.4676 407.922 31.8182C407.639 32.1678 407.522 32.6235 407.57 33.1855L407.995 38.1172C408.006 38.2367 407.972 38.342 407.896 38.4329C407.82 38.5238 407.716 38.5749 407.584 38.5862L406.024 38.7206ZM415.051 41.3755C414.955 41.3838 414.868 41.3551 414.791 41.2896C414.713 41.224 414.67 41.1434 414.661 41.0478C414.657 41 414.653 40.9521 414.649 40.9043C414.658 40.8674 414.678 40.8175 414.708 40.7547L415.821 37.3164L411.678 29.4892C411.62 29.3738 411.589 29.2921 411.585 29.2443C411.587 29.1357 411.622 29.0424 411.687 28.9645C411.752 28.8746 411.838 28.825 411.945 28.8158L413.398 28.6906C413.541 28.6783 413.652 28.7049 413.73 28.7704C413.808 28.836 413.868 28.909 413.911 28.9896L416.802 34.6484L418.754 28.5724C418.781 28.4737 418.828 28.3914 418.895 28.3254C418.96 28.2475 419.065 28.2024 419.208 28.19L420.643 28.0664C420.739 28.0581 420.825 28.0868 420.903 28.1523C420.993 28.2169 421.042 28.297 421.051 28.3926C421.057 28.4643 421.041 28.562 421.004 28.6857L416.94 40.8695C416.901 40.9692 416.848 41.0521 416.781 41.1181C416.716 41.196 416.611 41.2411 416.468 41.2535L415.051 41.3755ZM422.985 32.8691C422.854 32.8804 422.742 32.8478 422.652 32.7713C422.573 32.6938 422.528 32.5953 422.518 32.4757L422.416 31.2921C422.405 31.1726 422.433 31.0678 422.497 30.978C422.574 30.8871 422.678 30.836 422.809 30.8246L428.315 30.3503C428.434 30.34 428.539 30.3731 428.63 30.4495C428.721 30.526 428.772 30.624 428.782 30.7436L428.884 31.9272C428.894 32.0468 428.861 32.152 428.785 32.2429C428.708 32.3338 428.61 32.3844 428.491 32.3947L422.985 32.8691ZM432.159 36.4689C432.039 36.4792 431.934 36.4461 431.843 36.3696C431.752 36.2931 431.701 36.1951 431.691 36.0756L430.685 24.4008C430.674 24.2693 430.706 24.1581 430.783 24.0672C430.859 23.9763 430.957 23.9257 431.077 23.9154L435.883 23.5013C436.816 23.4209 437.642 23.5003 438.361 23.7395C439.079 23.9667 439.655 24.3627 440.089 24.9275C440.522 25.4804 440.777 26.1992 440.853 27.0839C440.93 27.9806 440.803 28.7383 440.471 29.3571C440.138 29.9639 439.637 30.4407 438.968 30.7874C438.299 31.1341 437.499 31.3476 436.566 31.4279L433.894 31.6581L434.256 35.8546C434.266 35.9742 434.233 36.0794 434.156 36.1703C434.092 36.2602 433.994 36.3108 433.862 36.3221L432.159 36.4689ZM433.687 29.6706L436.305 29.445C436.998 29.3853 437.517 29.178 437.859 28.8233C438.201 28.4566 438.344 27.9505 438.289 27.3048C438.237 26.7071 438.023 26.2438 437.645 25.915C437.266 25.5742 436.706 25.4358 435.965 25.4996L433.347 25.7252L433.687 29.6706ZM443.765 35.4689C443.645 35.4792 443.54 35.4461 443.449 35.3696C443.358 35.2931 443.308 35.1951 443.297 35.0756L442.57 26.6289C442.558 26.4973 442.591 26.3861 442.667 26.2952C442.744 26.2043 442.842 26.1537 442.961 26.1434L444.414 26.0183C444.534 26.008 444.639 26.0411 444.73 26.1175C444.833 26.193 444.89 26.2965 444.901 26.428L444.964 27.1633C445.206 26.757 445.534 26.4337 445.947 26.1934C446.372 25.952 446.871 25.8066 447.445 25.7571L448.18 25.6938C448.312 25.6825 448.417 25.7156 448.496 25.7931C448.587 25.8695 448.637 25.9676 448.648 26.0871L448.759 27.3783C448.769 27.4979 448.736 27.6031 448.66 27.694C448.595 27.7839 448.497 27.8345 448.365 27.8458L446.967 27.9663C446.393 28.0158 445.958 28.2158 445.663 28.5664C445.38 28.916 445.263 29.3718 445.311 29.9337L445.736 34.8654C445.747 34.985 445.714 35.0902 445.637 35.1811C445.561 35.272 445.457 35.3231 445.325 35.3345L443.765 35.4689ZM454.723 34.7054C453.395 34.8198 452.31 34.5278 451.467 33.8296C450.624 33.1314 450.112 32.0795 449.931 30.6739C449.909 30.5554 449.89 30.4064 449.874 30.2271C449.858 30.0358 449.851 29.8858 449.854 29.7772C449.824 28.8764 449.96 28.0818 450.262 27.3933C450.576 26.7038 451.041 26.1579 451.657 25.7556C452.272 25.3413 453.015 25.0965 453.888 25.0213C454.857 24.9379 455.687 25.0711 456.38 25.4209C457.071 25.7588 457.615 26.272 458.012 26.9605C458.407 27.637 458.645 28.4416 458.726 29.3741L458.758 29.7507C458.768 29.8703 458.735 29.9755 458.659 30.0664C458.582 30.1573 458.478 30.2084 458.347 30.2198L452.393 30.7327C452.393 30.7327 452.394 30.7507 452.398 30.7866C452.401 30.8224 452.403 30.8523 452.405 30.8762C452.453 31.2936 452.565 31.6755 452.739 32.0218C452.924 32.3551 453.17 32.617 453.475 32.8075C453.792 32.997 454.154 33.0742 454.561 33.0392C454.896 33.0103 455.173 32.9383 455.391 32.8231C455.609 32.6959 455.784 32.5604 455.916 32.4165C456.049 32.2726 456.141 32.1563 456.194 32.0674C456.289 31.9147 456.365 31.8238 456.423 31.7947C456.492 31.7527 456.592 31.726 456.723 31.7147L458.266 31.5818C458.385 31.5715 458.484 31.5991 458.562 31.6647C458.652 31.7292 458.695 31.8158 458.692 31.9244C458.697 32.1167 458.615 32.3586 458.448 32.6501C458.292 32.9405 458.052 33.2322 457.728 33.5251C457.404 33.818 456.987 34.0767 456.476 34.3014C455.977 34.5131 455.392 34.6477 454.723 34.7054ZM452.263 29.2263L456.226 28.8849L456.222 28.8311C456.182 28.3648 456.069 27.965 455.884 27.6317C455.698 27.2983 455.447 27.0429 455.131 26.8654C454.815 26.6879 454.447 26.6172 454.029 26.6533C453.61 26.6893 453.26 26.8218 452.979 27.0508C452.698 27.2798 452.494 27.5744 452.369 27.9345C452.255 28.2936 452.218 28.7063 452.259 29.1725L452.263 29.2263ZM461.782 37.3492C461.663 37.3595 461.557 37.3264 461.467 37.2499C461.376 37.1734 461.325 37.0754 461.315 36.9559L460.292 25.0838C460.282 24.9643 460.315 24.8591 460.391 24.7682C460.468 24.6773 460.566 24.6267 460.685 24.6164L462.102 24.4943C462.233 24.483 462.339 24.516 462.418 24.5936C462.509 24.67 462.559 24.768 462.569 24.8876L462.631 25.6049C462.885 25.1976 463.235 24.8484 463.679 24.5571C464.124 24.2659 464.693 24.0904 465.386 24.0306C466.02 23.976 466.579 24.0303 467.062 24.1934C467.546 24.3564 467.96 24.6159 468.304 24.9717C468.647 25.3155 468.924 25.7373 469.135 26.2369C469.347 26.7366 469.492 27.2963 469.569 27.9159C469.599 28.1181 469.623 28.3268 469.641 28.542C469.66 28.7572 469.672 28.973 469.679 29.1892C469.718 29.788 469.677 30.3517 469.554 30.8802C469.43 31.3968 469.223 31.8602 468.933 32.2706C468.654 32.668 468.29 32.9944 467.843 33.2498C467.395 33.5052 466.854 33.6602 466.221 33.7148C465.575 33.7704 465.015 33.7042 464.541 33.5162C464.066 33.3162 463.669 33.0373 463.349 32.6794L463.7 36.7504C463.71 36.8699 463.677 36.9751 463.601 37.066C463.536 37.1559 463.438 37.2065 463.307 37.2178L461.782 37.3492ZM465.392 31.853C465.906 31.8087 466.297 31.6666 466.566 31.4267C466.833 31.1748 467.011 30.8644 467.1 30.4954C467.2 30.1254 467.244 29.7242 467.231 29.2917C467.224 28.931 467.193 28.5723 467.138 28.2157C467.077 27.7874 466.965 27.3995 466.803 27.0522C466.652 26.7038 466.424 26.4344 466.119 26.2439C465.812 26.0415 465.402 25.9624 464.888 26.0067C464.398 26.0489 464.007 26.197 463.716 26.451C463.437 26.7039 463.241 27.0158 463.128 27.3869C463.026 27.7449 462.98 28.1103 462.988 28.483C462.994 28.6992 463.008 28.9269 463.028 29.166C463.049 29.4051 463.075 29.6377 463.107 29.8639C463.149 30.2215 463.263 30.561 463.447 30.8824C463.631 31.1918 463.881 31.4412 464.198 31.6307C464.516 31.8201 464.914 31.8942 465.392 31.853ZM474.78 32.9773C474.158 33.0309 473.586 32.9597 473.063 32.7639C472.539 32.5561 472.11 32.2618 471.776 31.8811C471.453 31.4874 471.27 31.0334 471.225 30.5193C471.153 29.6824 471.431 28.9901 472.058 28.4422C472.696 27.8813 473.564 27.4693 474.662 27.2061L477.088 26.6358L477.055 26.2592C477.012 25.757 476.853 25.3793 476.578 25.1259C476.303 24.8726 475.861 24.7722 475.251 24.8247C474.821 24.8618 474.476 24.9819 474.217 25.1849C473.968 25.3749 473.79 25.6191 473.683 25.9174C473.601 26.081 473.47 26.1706 473.291 26.186L471.874 26.3081C471.743 26.3194 471.638 26.2923 471.56 26.2268C471.494 26.1602 471.456 26.0671 471.446 25.9476C471.441 25.7552 471.499 25.5154 471.619 25.2281C471.738 24.9407 471.943 24.6581 472.232 24.3803C472.52 24.0905 472.902 23.8348 473.377 23.6132C473.851 23.3916 474.435 23.251 475.129 23.1912C475.882 23.1263 476.524 23.1674 477.054 23.3144C477.596 23.4484 478.036 23.6574 478.373 23.9415C478.711 24.2256 478.969 24.5706 479.149 24.9767C479.328 25.3828 479.438 25.819 479.478 26.2853L479.964 31.9164C479.974 32.036 479.941 32.1412 479.864 32.2321C479.788 32.323 479.69 32.3736 479.57 32.3839L478.118 32.509C477.986 32.5204 477.875 32.4878 477.784 32.4113C477.705 32.3338 477.661 32.2353 477.65 32.1157L477.59 31.4163C477.454 31.6569 477.263 31.8901 477.018 32.116C476.771 32.33 476.462 32.5192 476.091 32.6836C475.731 32.8351 475.294 32.933 474.78 32.9773ZM475.243 31.2211C475.661 31.185 476.03 31.0629 476.349 30.8548C476.68 30.6455 476.926 30.3474 477.085 29.9603C477.255 29.5602 477.316 29.0732 477.266 28.4993L477.234 28.1227L475.465 28.5642C474.769 28.7326 474.258 28.9512 473.932 29.2202C473.606 29.4892 473.458 29.7971 473.488 30.1438C473.51 30.4068 473.608 30.6273 473.779 30.8052C473.962 30.9701 474.183 31.0895 474.443 31.1636C474.701 31.2256 474.968 31.2448 475.243 31.2211ZM482.732 32.1115C482.612 32.1218 482.507 32.0887 482.416 32.0122C482.325 31.9357 482.275 31.8377 482.264 31.7182L481.537 23.2715C481.525 23.14 481.558 23.0287 481.634 22.9378C481.711 22.8469 481.809 22.7963 481.928 22.786L483.381 22.6609C483.5 22.6506 483.606 22.6837 483.697 22.7602C483.799 22.8356 483.857 22.9391 483.868 23.0706L483.931 23.8059C484.173 23.3996 484.501 23.0763 484.914 22.836C485.338 22.5946 485.838 22.4492 486.412 22.3998L487.147 22.3364C487.279 22.3251 487.384 22.3582 487.463 22.4357C487.554 22.5121 487.604 22.6102 487.614 22.7297L487.726 24.0209C487.736 24.1405 487.703 24.2457 487.626 24.3366C487.562 24.4265 487.464 24.4771 487.332 24.4884L485.934 24.609C485.36 24.6584 484.925 24.8584 484.63 25.209C484.347 25.5586 484.23 26.0144 484.278 26.5763L484.703 31.508C484.714 31.6276 484.68 31.7328 484.604 31.8237C484.528 31.9146 484.424 31.9657 484.292 31.9771L482.732 32.1115ZM493.69 31.348C492.362 31.4624 491.277 31.1705 490.434 30.4722C489.591 29.774 489.079 28.7221 488.898 27.3165C488.876 27.198 488.857 27.049 488.841 26.8697C488.825 26.6784 488.818 26.5285 488.821 26.4198C488.791 25.519 488.927 24.7244 489.229 24.0359C489.543 23.3464 490.008 22.8005 490.624 22.3982C491.239 21.9839 491.982 21.7391 492.855 21.6639C493.824 21.5805 494.654 21.7137 495.347 22.0635C496.038 22.4014 496.582 22.9146 496.979 23.6031C497.374 24.2796 497.612 25.0842 497.693 26.0167L497.725 26.3933C497.735 26.5129 497.702 26.6181 497.626 26.709C497.549 26.7999 497.445 26.851 497.314 26.8624L491.36 27.3754C491.36 27.3754 491.361 27.3933 491.365 27.4292C491.368 27.465 491.37 27.4949 491.372 27.5188C491.42 27.9362 491.531 28.3181 491.706 28.6644C491.891 28.9977 492.137 29.2596 492.442 29.4501C492.759 29.6396 493.121 29.7168 493.528 29.6818C493.863 29.6529 494.139 29.5809 494.358 29.4657C494.576 29.3385 494.751 29.203 494.883 29.0591C495.016 28.9152 495.108 28.7989 495.161 28.71C495.256 28.5573 495.332 28.4664 495.39 28.4373C495.459 28.3953 495.559 28.3686 495.69 28.3573L497.232 28.2244C497.352 28.2141 497.451 28.2417 497.529 28.3073C497.619 28.3718 497.662 28.4584 497.659 28.567C497.664 28.7593 497.582 29.0012 497.415 29.2927C497.259 29.5831 497.019 29.8748 496.695 30.1677C496.371 30.4606 495.954 30.7193 495.443 30.944C494.944 31.1557 494.359 31.2904 493.69 31.348ZM491.23 25.8689L495.193 25.5275L495.189 25.4737C495.149 25.0074 495.036 24.6076 494.851 24.2743C494.665 23.9409 494.414 23.6855 494.098 23.508C493.782 23.3305 493.414 23.2598 492.996 23.2959C492.577 23.3319 492.227 23.4645 491.946 23.6935C491.665 23.9225 491.461 24.217 491.336 24.5771C491.222 24.9362 491.185 25.3489 491.225 25.8151L491.23 25.8689ZM503.484 30.5042C502.862 30.5577 502.303 30.5035 501.808 30.3414C501.323 30.1664 500.909 29.901 500.565 29.5452C500.221 29.1894 499.943 28.7617 499.732 28.262C499.519 27.7504 499.374 27.1847 499.296 26.5651C499.266 26.3509 499.243 26.1601 499.229 25.9928C499.213 25.8134 499.202 25.6156 499.196 25.3994C499.168 24.7996 499.21 24.2359 499.321 23.7084C499.444 23.1799 499.645 22.711 499.923 22.3016C500.211 21.8792 500.58 21.5404 501.027 21.285C501.487 21.0286 502.028 20.8736 502.65 20.82C503.295 20.7644 503.849 20.8311 504.311 21.0202C504.784 21.1962 505.185 21.4447 505.513 21.7657L505.17 17.7844C505.16 17.6649 505.187 17.5602 505.252 17.4703C505.328 17.3794 505.432 17.3283 505.564 17.317L507.088 17.1856C507.207 17.1753 507.313 17.2084 507.404 17.2849C507.495 17.3614 507.545 17.4594 507.555 17.5789L508.578 29.451C508.589 29.5705 508.556 29.6757 508.479 29.7666C508.403 29.8575 508.305 29.9081 508.185 29.9184L506.768 30.0405C506.637 30.0518 506.526 30.0193 506.435 29.9428C506.356 29.8653 506.311 29.7668 506.301 29.6472L506.244 28.9837C505.977 29.38 505.62 29.7179 505.175 29.9972C504.741 30.2754 504.177 30.4444 503.484 30.5042ZM503.982 28.5281C504.484 28.4848 504.875 28.3367 505.154 28.0838C505.434 27.8309 505.63 27.5249 505.744 27.1659C505.856 26.7948 505.903 26.4235 505.883 26.0518C505.876 25.8356 505.862 25.6079 505.842 25.3688C505.82 25.1177 505.794 24.8851 505.764 24.6709C505.721 24.3133 505.608 23.9798 505.424 23.6704C505.24 23.349 504.989 23.0936 504.672 22.9041C504.354 22.7147 503.957 22.6406 503.478 22.6818C502.976 22.725 502.586 22.8731 502.306 23.126C502.038 23.3659 501.853 23.6709 501.753 24.0409C501.652 24.4109 501.608 24.8121 501.622 25.2446C501.64 25.6043 501.671 25.963 501.714 26.3206C501.775 26.749 501.887 27.1368 502.049 27.4842C502.212 27.8315 502.446 28.1064 502.753 28.3088C503.07 28.4983 503.48 28.5714 503.982 28.5281Z" fill="white"/>
</svg>
