<svg width="131" height="49" viewBox="0 0 131 49" fill="none" xmlns="http://www.w3.org/2000/svg">
<rect x="3.29297" width="170.344" height="29" rx="14.5" transform="rotate(6.51747 3.29297 0)" fill="#428BC1"/>
<path d="M17.195 20.8325C16.4558 20.748 15.8424 20.5491 15.3548 20.2357C14.8761 19.9153 14.5288 19.5012 14.3131 18.9935C14.0982 18.4777 14.0135 17.8803 14.0589 17.201C14.0882 16.8742 14.1242 16.5241 14.1668 16.1505C14.2095 15.7769 14.2543 15.4197 14.3013 15.0788C14.4094 14.4148 14.6263 13.8558 14.9519 13.4018C15.2855 12.9488 15.7211 12.6241 16.2589 12.4279C16.8055 12.2246 17.4444 12.1647 18.1757 12.2483C18.7161 12.31 19.1928 12.437 19.6057 12.6291C20.0185 12.8212 20.3615 13.0616 20.6344 13.3505C20.9083 13.6314 21.1097 13.9483 21.2384 14.3012C21.3672 14.6541 21.4133 15.0257 21.3768 15.4161C21.3766 15.4886 21.3459 15.5454 21.2848 15.5868C21.2317 15.629 21.1693 15.6461 21.0978 15.6379L19.9652 15.5085C19.8777 15.4985 19.8085 15.4704 19.7574 15.4244C19.7072 15.3703 19.6761 15.2903 19.664 15.1842C19.5968 14.6451 19.4191 14.2624 19.1309 14.0363C18.8427 13.8101 18.4681 13.6707 18.0071 13.618C17.4746 13.5572 17.0321 13.6596 16.6796 13.9253C16.3281 14.1831 16.1014 14.6524 15.9994 15.3332C15.9011 15.9822 15.8249 16.6499 15.7706 17.3362C15.7164 18.0225 15.831 18.5348 16.1144 18.8731C16.3987 19.2035 16.8071 19.3992 17.3397 19.46C17.8007 19.5127 18.1971 19.4613 18.5289 19.306C18.8615 19.1427 19.121 18.81 19.3072 18.3079C19.3437 18.1993 19.3921 18.1284 19.4523 18.095C19.5125 18.0616 19.5863 18.0499 19.6737 18.0599L20.8063 18.1893C20.8779 18.1975 20.9347 18.2281 20.977 18.2812C21.0272 18.3353 21.0442 18.3976 21.0281 18.4683C20.9756 18.8568 20.8469 19.2085 20.6418 19.5232C20.4368 19.838 20.1687 20.1053 19.8376 20.3251C19.5074 20.537 19.1196 20.69 18.674 20.784C18.2285 20.8781 17.7355 20.8942 17.195 20.8325ZM23.7832 21.5851C23.3699 21.5379 23.0054 21.4157 22.6898 21.2186C22.375 21.0136 22.1337 20.7646 21.9659 20.4716C21.8069 20.1717 21.7469 19.8508 21.786 19.509C21.8495 18.9526 22.1225 18.5369 22.6048 18.2619C23.096 17.9798 23.7176 17.8254 24.4695 17.7985L26.1301 17.7467L26.1587 17.4963C26.1968 17.1625 26.1429 16.8946 25.9969 16.6928C25.8508 16.4909 25.5751 16.3668 25.1698 16.3205C24.8836 16.2878 24.6423 16.3206 24.4459 16.419C24.2583 16.5103 24.1099 16.6463 24.0007 16.8271C23.9253 16.9231 23.828 16.9643 23.7088 16.9507L22.7669 16.8431C22.6795 16.8331 22.6146 16.8016 22.5724 16.7484C22.5381 16.6962 22.5255 16.6303 22.5346 16.5509C22.5571 16.4246 22.6264 16.2755 22.7427 16.1036C22.859 15.9317 23.03 15.7741 23.2557 15.6308C23.4823 15.4795 23.7654 15.3629 24.1049 15.2809C24.4444 15.1989 24.8446 15.1842 25.3056 15.2369C25.8064 15.2941 26.2204 15.4058 26.5476 15.572C26.8837 15.7312 27.1433 15.9259 27.3264 16.1562C27.5094 16.3865 27.6327 16.6461 27.6963 16.9352C27.7599 17.2243 27.774 17.5239 27.7386 17.8338L27.3109 21.5775C27.3018 21.657 27.2663 21.7214 27.2043 21.7706C27.1423 21.8199 27.0716 21.84 26.9921 21.8309L26.0264 21.7206C25.9389 21.7106 25.8706 21.6746 25.8213 21.6126C25.78 21.5515 25.7638 21.4813 25.7729 21.4018L25.826 20.9368C25.7054 21.076 25.55 21.2032 25.3597 21.3183C25.1703 21.4255 24.9435 21.5083 24.6791 21.5667C24.4236 21.618 24.125 21.6242 23.7832 21.5851ZM24.318 20.4988C24.5962 20.5306 24.8534 20.4996 25.0895 20.4058C25.3337 20.3129 25.5334 20.1505 25.6887 19.9186C25.8529 19.6797 25.9568 19.3695 26.0004 18.988L26.029 18.7376L24.8149 18.7922C24.3378 18.8101 23.9749 18.8854 23.7262 19.0181C23.4776 19.1507 23.3401 19.3323 23.3138 19.5628C23.2938 19.7376 23.3282 19.8945 23.417 20.0335C23.5146 20.1655 23.6433 20.2728 23.8029 20.3554C23.9635 20.4301 24.1352 20.4779 24.318 20.4988ZM29.0939 22.0711C29.0144 22.062 28.95 22.0264 28.9007 21.9644C28.8514 21.9024 28.8313 21.8317 28.8404 21.7522L29.482 16.1368C29.4919 16.0493 29.5279 15.981 29.5899 15.9317C29.6519 15.8824 29.7227 15.8623 29.8021 15.8714L30.7679 15.9817C30.8474 15.9908 30.9117 16.0263 30.961 16.0883C31.0182 16.1512 31.0419 16.2264 31.0319 16.3138L30.976 16.8026C31.1879 16.5692 31.4446 16.4012 31.7462 16.2988C32.0557 16.1973 32.4012 16.1683 32.7828 16.2119L33.2716 16.2677C33.359 16.2777 33.4234 16.3133 33.4647 16.3744C33.514 16.4364 33.5341 16.5071 33.525 16.5866L33.427 17.445C33.4179 17.5245 33.3823 17.5889 33.3203 17.6381C33.2663 17.6883 33.1956 17.7084 33.1081 17.6984L32.1782 17.5922C31.7967 17.5486 31.4863 17.6219 31.2472 17.8119C31.016 18.0029 30.8791 18.2852 30.8364 18.6588L30.4619 21.9375C30.4528 22.017 30.4173 22.0813 30.3553 22.1306C30.2933 22.1799 30.2186 22.1995 30.1311 22.1896L29.0939 22.0711ZM36.3548 23.0214C35.4725 22.9206 34.8022 22.5863 34.3436 22.0186C33.8851 21.4509 33.6895 20.6958 33.757 19.7534C33.7581 19.673 33.7655 19.5732 33.7791 19.4539C33.7936 19.3268 33.8089 19.2279 33.8251 19.1572C33.925 18.5648 34.1191 18.0636 34.4075 17.6536C34.7038 17.2446 35.0798 16.9494 35.5353 16.7679C35.9918 16.5785 36.5101 16.5169 37.0903 16.5832C37.7341 16.6568 38.2592 16.8537 38.6655 17.1738C39.0727 17.4861 39.3603 17.8934 39.5284 18.3957C39.6973 18.8901 39.7464 19.4472 39.6756 20.0672L39.647 20.3176C39.6379 20.397 39.6024 20.4614 39.5404 20.5107C39.4784 20.56 39.4037 20.5796 39.3162 20.5697L35.358 20.1174C35.358 20.1174 35.3566 20.1294 35.3539 20.1532C35.3512 20.1771 35.3489 20.1969 35.3471 20.2128C35.3232 20.4919 35.3454 20.7561 35.4135 21.0055C35.4905 21.2478 35.6162 21.4514 35.7907 21.6162C35.973 21.782 36.1993 21.8803 36.4696 21.9112C36.6921 21.9366 36.8825 21.9262 37.0408 21.8798C37.2 21.8256 37.3323 21.7602 37.4376 21.6836C37.543 21.6071 37.6187 21.5433 37.6648 21.4922C37.7473 21.405 37.8093 21.3557 37.8508 21.3443C37.9012 21.3259 37.9702 21.3217 38.0576 21.3317L39.0829 21.4489C39.1624 21.4579 39.2233 21.489 39.2655 21.5422C39.3157 21.5962 39.3327 21.6586 39.3166 21.7292C39.2941 21.8555 39.2089 22.0027 39.0608 22.171C38.9207 22.3402 38.7254 22.4991 38.4749 22.6476C38.2245 22.7961 37.9175 22.91 37.5542 22.9893C37.1997 23.0615 36.7999 23.0722 36.3548 23.0214ZM35.4724 19.116L38.1073 19.417L38.1113 19.3812C38.1468 19.0712 38.126 18.7951 38.049 18.5528C37.972 18.3105 37.8418 18.1104 37.6586 17.9526C37.4753 17.7948 37.2446 17.7 36.9664 17.6682C36.6882 17.6364 36.442 17.6767 36.2279 17.7891C36.0137 17.9016 35.8418 18.0671 35.7122 18.2858C35.5905 18.5054 35.5119 18.7702 35.4765 19.0802L35.4724 19.116ZM43.2358 23.8075C42.3536 23.7067 41.6832 23.3724 41.2247 22.8047C40.7661 22.237 40.5706 21.4819 40.638 20.5395C40.6391 20.4591 40.6465 20.3593 40.6601 20.2401C40.6746 20.1129 40.69 20.014 40.7061 19.9434C40.806 19.3509 41.0001 18.8497 41.2885 18.4398C41.5849 18.0307 41.9608 17.7355 42.4163 17.554C42.8728 17.3646 43.3911 17.3031 43.9713 17.3694C44.6152 17.4429 45.1402 17.6398 45.5465 17.96C45.9537 18.2722 46.2413 18.6795 46.4094 19.1818C46.5784 19.6762 46.6274 20.2333 46.5566 20.8533L46.528 21.1037C46.5189 21.1832 46.4834 21.2476 46.4214 21.2968C46.3594 21.3461 46.2847 21.3658 46.1973 21.3558L42.239 20.9036C42.239 20.9036 42.2376 20.9155 42.2349 20.9393C42.2322 20.9632 42.2299 20.983 42.2281 20.9989C42.2043 21.278 42.2264 21.5423 42.2946 21.7916C42.3716 22.0339 42.4973 22.2375 42.6717 22.4024C42.854 22.5681 43.0803 22.6665 43.3506 22.6973C43.5731 22.7228 43.7635 22.7123 43.9218 22.666C44.081 22.6117 44.2133 22.5463 44.3187 22.4697C44.424 22.3932 44.4998 22.3294 44.5459 22.2783C44.6283 22.1911 44.6903 22.1418 44.7319 22.1304C44.7823 22.112 44.8512 22.1078 44.9386 22.1178L45.9639 22.235C46.0434 22.2441 46.1043 22.2752 46.1465 22.3283C46.1967 22.3823 46.2138 22.4447 46.1976 22.5153C46.1752 22.6416 46.0899 22.7888 45.9418 22.9571C45.8017 23.1263 45.6064 23.2852 45.356 23.4337C45.1055 23.5822 44.7986 23.6961 44.4352 23.7754C44.0807 23.8476 43.6809 23.8583 43.2358 23.8075ZM42.3534 19.9021L44.9883 20.2031L44.9924 20.1673C45.0278 19.8573 45.007 19.5812 44.93 19.3389C44.853 19.0966 44.7229 18.8965 44.5396 18.7387C44.3563 18.5809 44.1256 18.4861 43.8474 18.4543C43.5692 18.4225 43.323 18.4628 43.1089 18.5753C42.8948 18.6877 42.7229 18.8532 42.5932 19.0719C42.4715 19.2915 42.3929 19.5563 42.3575 19.8663L42.3534 19.9021ZM47.746 24.202C47.6665 24.1929 47.6021 24.1573 47.5528 24.0953C47.5036 24.0333 47.4835 23.9626 47.4925 23.8831L48.1341 18.2677C48.1441 18.1802 48.18 18.1119 48.242 18.0626C48.304 18.0133 48.3748 17.9932 48.4543 18.0023L49.42 18.1126C49.4995 18.1217 49.5638 18.1572 49.6131 18.2192C49.6704 18.2821 49.694 18.3573 49.684 18.4447L49.6281 18.9335C49.84 18.7001 50.0967 18.5321 50.3983 18.4297C50.7078 18.3282 51.0534 18.2992 51.4349 18.3428L51.9237 18.3986C52.0111 18.4086 52.0755 18.4442 52.1168 18.5053C52.1661 18.5673 52.1862 18.638 52.1771 18.7175L52.0791 19.5759C52.07 19.6554 52.0345 19.7198 51.9725 19.769C51.9184 19.8192 51.8477 19.8393 51.7602 19.8293L50.8303 19.7231C50.4488 19.6795 50.1385 19.7528 49.8993 19.9428C49.6682 20.1338 49.5312 20.4161 49.4886 20.7897L49.114 24.0684C49.1049 24.1479 49.0694 24.2122 49.0074 24.2615C48.9454 24.3108 48.8707 24.3304 48.7832 24.3205L47.746 24.202ZM52.6635 21.8288C52.576 21.8188 52.5077 21.7828 52.4584 21.7208C52.4171 21.6597 52.4009 21.5894 52.41 21.51L52.4999 20.7231C52.509 20.6436 52.5406 20.5788 52.5946 20.5286C52.6566 20.4793 52.7313 20.4596 52.8188 20.4696L56.4789 20.8878C56.5584 20.8969 56.6228 20.9324 56.6721 20.9944C56.7214 21.0564 56.7415 21.1271 56.7324 21.2066L56.6425 21.9935C56.6334 22.073 56.5979 22.1374 56.5359 22.1866C56.4739 22.2359 56.4032 22.256 56.3237 22.2469L52.6635 21.8288ZM61.159 25.8551C60.4198 25.7707 59.8064 25.5717 59.3188 25.2584C58.8401 24.938 58.4929 24.5239 58.2771 24.0161C58.0623 23.5004 57.9775 22.9029 58.0229 22.2237C58.0522 21.8969 58.0882 21.5467 58.1309 21.1731C58.1735 20.7996 58.2184 20.4423 58.2654 20.1015C58.3734 19.4374 58.5903 18.8784 58.9159 18.4245C59.2495 17.9714 59.6852 17.6468 60.2229 17.4505C60.7695 17.2473 61.4084 17.1874 62.1397 17.2709C62.6802 17.3327 63.1568 17.4596 63.5697 17.6517C63.9826 17.8438 64.3255 18.0843 64.5985 18.3731C64.8724 18.654 65.0737 18.971 65.2025 19.3238C65.3312 19.6767 65.3774 20.0484 65.3408 20.4388C65.3406 20.5112 65.3099 20.5681 65.2488 20.6094C65.1957 20.6517 65.1334 20.6687 65.0618 20.6605L63.9292 20.5311C63.8418 20.5211 63.7725 20.4931 63.7214 20.447C63.6712 20.393 63.6401 20.3129 63.6281 20.2068C63.5608 19.6677 63.3831 19.2851 63.0949 19.0589C62.8067 18.8327 62.4321 18.6933 61.9711 18.6407C61.4386 18.5798 60.9961 18.6823 60.6437 18.948C60.2921 19.2057 60.0654 19.675 59.9635 20.3559C59.8652 21.0049 59.7889 21.6726 59.7346 22.3588C59.6804 23.0451 59.795 23.5574 60.0784 23.8958C60.3627 24.2262 60.7712 24.4218 61.3037 24.4827C61.7647 24.5353 62.1611 24.484 62.4929 24.3286C62.8256 24.1653 63.085 23.8326 63.2712 23.3305C63.3078 23.222 63.3561 23.151 63.4163 23.1176C63.4765 23.0842 63.5503 23.0725 63.6377 23.0825L64.7703 23.2119C64.8419 23.2201 64.8988 23.2508 64.941 23.3039C64.9912 23.3579 65.0082 23.4203 64.9921 23.4909C64.9397 23.8795 64.8109 24.2311 64.6059 24.5459C64.4008 24.8606 64.1327 25.1279 63.8017 25.3478C63.4715 25.5597 63.0836 25.7126 62.638 25.8067C62.1925 25.9007 61.6995 25.9168 61.159 25.8551ZM68.6891 26.7154C68.0533 26.6427 67.5295 26.4702 67.1177 26.1977C66.714 25.9261 66.42 25.5744 66.2358 25.1427C66.0595 24.712 65.9864 24.2245 66.0164 23.6804C66.0248 23.5364 66.0408 23.3611 66.0644 23.1544C66.088 22.9478 66.1119 22.7734 66.1362 22.6312C66.2307 22.0864 66.4158 21.6285 66.6917 21.2574C66.9765 20.8793 67.3462 20.6034 67.8008 20.4299C68.2634 20.2573 68.8047 20.2064 69.4247 20.2773C70.0446 20.3481 70.5565 20.5193 70.9603 20.7909C71.372 21.0634 71.67 21.4155 71.8542 21.8472C72.0472 22.2718 72.1283 22.7602 72.0974 23.3122C72.089 23.4562 72.073 23.6315 72.0494 23.8382C72.0258 24.0449 72.0019 24.2193 71.9776 24.3614C71.884 24.8983 71.6989 25.3562 71.4221 25.7352C71.1532 26.1152 70.7875 26.3915 70.3249 26.5641C69.8702 26.7376 69.325 26.788 68.6891 26.7154ZM68.824 25.5351C69.2452 25.5832 69.5861 25.4893 69.8466 25.2533C70.1079 25.0094 70.2801 24.6305 70.3629 24.1166C70.3845 23.9983 70.4062 23.8437 70.428 23.653C70.4498 23.4622 70.4635 23.3067 70.4692 23.1866C70.5034 22.6752 70.4208 22.2712 70.2211 21.9746C70.0215 21.6781 69.7111 21.5057 69.2898 21.4576C68.8686 21.4094 68.5272 21.5073 68.2659 21.7512C68.0045 21.9952 67.8328 22.3701 67.7509 22.8761C67.7293 22.9944 67.7076 23.1489 67.6858 23.3397C67.664 23.5304 67.6503 23.6859 67.6446 23.806C67.6094 24.3254 67.6917 24.7333 67.8913 25.0299C68.0918 25.3185 68.4027 25.4869 68.824 25.5351ZM73.3024 27.1216C73.2229 27.1126 73.1585 27.077 73.1093 27.015C73.06 26.953 73.0399 26.8823 73.049 26.8028L73.6919 21.1754C73.7009 21.0959 73.7365 21.0315 73.7985 20.9823C73.8605 20.933 73.9312 20.9129 74.0107 20.922L74.9883 21.0337C75.0678 21.0427 75.1322 21.0783 75.1815 21.1403C75.2307 21.2023 75.2508 21.273 75.2418 21.3525L75.1859 21.8413C75.4216 21.6106 75.708 21.4299 76.045 21.2993C76.3909 21.1617 76.8022 21.1201 77.2791 21.1746C77.764 21.23 78.1725 21.3894 78.5048 21.6528C78.8379 21.9083 79.0772 22.2456 79.2225 22.6648C79.3758 23.0849 79.4207 23.5732 79.3572 24.1295L78.9744 27.4798C78.9653 27.5592 78.9298 27.6236 78.8678 27.6729C78.8058 27.7222 78.7351 27.7423 78.6556 27.7332L77.6064 27.6133C77.5269 27.6043 77.4625 27.5687 77.4133 27.5067C77.364 27.4447 77.3439 27.374 77.353 27.2945L77.7275 24.0158C77.7802 23.5548 77.7063 23.18 77.5057 22.8914C77.3131 22.6037 77.0022 22.4353 76.573 22.3863C76.1597 22.339 75.8149 22.4325 75.5385 22.6667C75.2622 22.9008 75.0976 23.2484 75.045 23.7094L74.6704 26.988C74.6613 27.0675 74.6258 27.1319 74.5638 27.1812C74.5018 27.2305 74.4311 27.2506 74.3516 27.2415L73.3024 27.1216ZM81.3284 28.0386C81.249 28.0295 81.1846 27.9939 81.1353 27.932C81.086 27.87 81.0659 27.7992 81.075 27.7197L81.6062 23.07L80.6405 22.9597C80.561 22.9506 80.4966 22.915 80.4473 22.853C80.3981 22.791 80.378 22.7203 80.387 22.6408L80.466 21.9493C80.4751 21.8698 80.5107 21.8055 80.5726 21.7562C80.6346 21.7069 80.7054 21.6868 80.7849 21.6959L81.7506 21.8062L81.8064 21.3174C81.8609 20.8405 81.9933 20.457 82.2036 20.167C82.4148 19.8691 82.7003 19.6601 83.0603 19.5402C83.4202 19.4203 83.8625 19.3903 84.387 19.4502L86.8192 19.7281C86.9067 19.7381 86.971 19.7736 87.0124 19.8347C87.0616 19.8967 87.0817 19.9674 87.0727 20.0469L86.9937 20.7384C86.9846 20.8179 86.949 20.8823 86.8871 20.9316C86.833 20.9818 86.7623 21.0019 86.6748 20.9919L84.2903 20.7195C83.9724 20.6831 83.7448 20.7376 83.6074 20.883C83.47 21.0283 83.384 21.252 83.3495 21.5541L83.3005 21.9833L86.5196 22.351C86.607 22.361 86.6714 22.3966 86.7127 22.4576C86.762 22.5196 86.7821 22.5904 86.773 22.6699L86.1301 28.2973C86.121 28.3767 86.0855 28.4411 86.0235 28.4904C85.9695 28.5406 85.8987 28.5607 85.8113 28.5507L84.8456 28.4404C84.7661 28.4313 84.7017 28.3958 84.6524 28.3338C84.6031 28.2718 84.583 28.201 84.5921 28.1215L85.1233 23.4718L83.1561 23.2471L82.6249 27.8968C82.6158 27.9763 82.5803 28.0407 82.5183 28.09C82.4563 28.1392 82.3856 28.1593 82.3061 28.1503L81.3284 28.0386ZM89.9739 29.147C89.5606 29.0998 89.2027 28.9905 88.9002 28.819C88.6065 28.6406 88.3709 28.4123 88.1933 28.1344C88.0157 27.8564 87.8908 27.5402 87.8186 27.1857C87.7472 26.8233 87.7272 26.4345 87.7586 26.0194C87.767 25.8754 87.7775 25.7478 87.7902 25.6365C87.8038 25.5173 87.8228 25.3866 87.8471 25.2444C87.9084 24.8488 88.0102 24.486 88.1526 24.1561C88.3029 23.827 88.4959 23.5471 88.7317 23.3164C88.9762 23.0786 89.2617 22.9059 89.588 22.7982C89.9223 22.6915 90.2961 22.6617 90.7094 22.7089C91.1386 22.758 91.4916 22.8748 91.7685 23.0594C92.0541 23.237 92.2832 23.4524 92.4556 23.7056L92.7579 21.0588C92.767 20.9793 92.7986 20.9145 92.8526 20.8643C92.9146 20.815 92.9893 20.7953 93.0768 20.8053L94.0902 20.9211C94.1697 20.9302 94.234 20.9657 94.2833 21.0277C94.3326 21.0897 94.3527 21.1604 94.3436 21.2399L93.4419 29.1326C93.4328 29.2121 93.3973 29.2765 93.3353 29.3257C93.2733 29.375 93.2026 29.3951 93.1231 29.386L92.1812 29.2784C92.0938 29.2684 92.0254 29.2325 91.9762 29.1705C91.9348 29.1094 91.9187 29.0391 91.9278 28.9596L91.9782 28.5185C91.7513 28.7422 91.4738 28.9158 91.1457 29.0393C90.8255 29.1638 90.4349 29.1997 89.9739 29.147ZM90.5607 27.9217C90.8946 27.9599 91.1695 27.9148 91.3854 27.7865C91.6014 27.6581 91.7702 27.4842 91.8919 27.2646C92.0146 27.037 92.0939 26.8005 92.13 26.555C92.1543 26.4129 92.1755 26.2623 92.1937 26.1033C92.2128 25.9364 92.2265 25.781 92.2349 25.637C92.2542 25.3976 92.2244 25.1648 92.1456 24.9383C92.0677 24.704 91.9376 24.5039 91.7552 24.3382C91.5729 24.1724 91.3227 24.0713 91.0048 24.035C90.671 23.9969 90.3961 24.042 90.1801 24.1703C89.973 24.2916 89.8121 24.4664 89.6974 24.6949C89.5828 24.9233 89.5011 25.1797 89.4525 25.4641C89.4174 25.7016 89.3901 25.9401 89.3708 26.1794C89.354 26.4674 89.3757 26.7356 89.4359 26.984C89.4961 27.2324 89.613 27.4431 89.7865 27.6159C89.9688 27.7816 90.2269 27.8836 90.5607 27.9217ZM97.6553 30.0246C96.773 29.9238 96.1026 29.5895 95.6441 29.0218C95.1856 28.4541 94.99 27.699 95.0574 26.7566C95.0586 26.6762 95.0659 26.5764 95.0796 26.4572C95.0941 26.33 95.1094 26.2311 95.1255 26.1605C95.2254 25.568 95.4196 25.0668 95.708 24.6569C96.0043 24.2479 96.3802 23.9526 96.8358 23.7712C97.2922 23.5818 97.8106 23.5202 98.3908 23.5865C99.0346 23.66 99.5597 23.8569 99.9659 24.1771C100.373 24.4893 100.661 24.8966 100.829 25.3989C100.998 25.8933 101.047 26.4505 100.976 27.0704L100.947 27.3208C100.938 27.4003 100.903 27.4647 100.841 27.514C100.779 27.5632 100.704 27.5829 100.617 27.5729L96.6585 27.1207C96.6585 27.1207 96.6571 27.1326 96.6544 27.1565C96.6516 27.1803 96.6494 27.2002 96.6476 27.2161C96.6237 27.4952 96.6459 27.7594 96.714 28.0087C96.791 28.251 96.9167 28.4546 97.0911 28.6195C97.2735 28.7853 97.4998 28.8836 97.77 28.9144C97.9926 28.9399 98.183 28.9294 98.3413 28.8831C98.5005 28.8288 98.6328 28.7634 98.7381 28.6869C98.8435 28.6103 98.9192 28.5465 98.9653 28.4954C99.0478 28.4082 99.1097 28.3589 99.1513 28.3476C99.2017 28.3292 99.2706 28.325 99.3581 28.335L100.383 28.4521C100.463 28.4612 100.524 28.4923 100.566 28.5454C100.616 28.5995 100.633 28.6618 100.617 28.7324C100.595 28.8587 100.509 29.006 100.361 29.1742C100.221 29.3434 100.026 29.5023 99.7754 29.6508C99.5249 29.7994 99.218 29.9133 98.8547 29.9925C98.5002 30.0648 98.1004 30.0754 97.6553 30.0246ZM96.7729 26.1192L99.4077 26.4202L99.4118 26.3844C99.4472 26.0745 99.4264 25.7983 99.3494 25.556C99.2724 25.3137 99.1423 25.1136 98.959 24.9558C98.7758 24.798 98.545 24.7032 98.2669 24.6714C97.9887 24.6396 97.7425 24.68 97.5284 24.7924C97.3142 24.9048 97.1423 25.0704 97.0126 25.289C96.8909 25.5087 96.8124 25.7734 96.777 26.0834L96.7729 26.1192ZM102.165 30.4191C102.086 30.41 102.022 30.3745 101.972 30.3125C101.923 30.2505 101.903 30.1797 101.912 30.1002L102.555 24.4729C102.564 24.3934 102.6 24.329 102.661 24.2797C102.723 24.2304 102.794 24.2103 102.874 24.2194L103.851 24.3311C103.931 24.3402 103.995 24.3757 104.045 24.4377C104.094 24.4997 104.114 24.5704 104.105 24.6499L104.049 25.1387C104.285 24.908 104.571 24.7273 104.908 24.5967C105.254 24.4591 105.665 24.4175 106.142 24.472C106.627 24.5274 107.036 24.6868 107.368 24.9502C107.701 25.2057 107.94 25.543 108.086 25.9622C108.239 26.3824 108.284 26.8706 108.22 27.427L107.837 30.7772C107.828 30.8567 107.793 30.9211 107.731 30.9703C107.669 31.0196 107.598 31.0397 107.519 31.0306L106.469 30.9108C106.39 30.9017 106.326 30.8662 106.276 30.8042C106.227 30.7422 106.207 30.6714 106.216 30.592L106.591 27.3133C106.643 26.8523 106.569 26.4775 106.369 26.1888C106.176 25.9011 105.865 25.7327 105.436 25.6837C105.023 25.6365 104.678 25.73 104.402 25.9641C104.125 26.1982 103.961 26.5458 103.908 27.0068L103.533 30.2855C103.524 30.365 103.489 30.4294 103.427 30.4786C103.365 30.5279 103.294 30.548 103.215 30.5389L102.165 30.4191ZM112.051 31.5485C111.574 31.494 111.182 31.3647 110.876 31.1605C110.569 30.9564 110.354 30.6823 110.233 30.3382C110.112 29.9863 110.08 29.5639 110.136 29.0711L110.445 26.3647L109.503 26.2571C109.424 26.248 109.359 26.2124 109.31 26.1505C109.261 26.0885 109.241 26.0177 109.25 25.9382L109.329 25.2467C109.338 25.1673 109.373 25.1029 109.435 25.0536C109.497 25.0043 109.568 24.9842 109.648 24.9933L110.589 25.1009L110.816 23.1218C110.825 23.0423 110.856 22.9774 110.91 22.9273C110.972 22.878 111.047 22.8583 111.134 22.8683L112.1 22.9786C112.18 22.9877 112.244 23.0233 112.293 23.0853C112.343 23.1472 112.363 23.218 112.354 23.2975L112.127 25.2766L113.618 25.4469C113.697 25.4559 113.762 25.4915 113.811 25.5535C113.86 25.6155 113.88 25.6862 113.871 25.7657L113.792 26.4572C113.783 26.5367 113.748 26.6011 113.686 26.6503C113.624 26.6996 113.553 26.7197 113.473 26.7106L111.983 26.5404L111.688 29.1275C111.65 29.4534 111.677 29.7141 111.767 29.9097C111.866 30.1061 112.058 30.2206 112.344 30.2533L113.167 30.3473C113.246 30.3564 113.311 30.3919 113.36 30.4539C113.409 30.5159 113.429 30.5867 113.42 30.6661L113.336 31.4053C113.327 31.4848 113.291 31.5492 113.229 31.5985C113.167 31.6478 113.096 31.6679 113.017 31.6588L112.051 31.5485Z" fill="white"/>
</svg>
