<svg width="170" height="45" viewBox="0 0 170 45" fill="none" xmlns="http://www.w3.org/2000/svg">
<rect y="16" width="168" height="29" rx="14.5" transform="rotate(-5.37598 0 16)" fill="#059E93"/>
<path d="M14.9444 33.6775C14.8648 33.685 14.7944 33.6635 14.7334 33.613C14.6724 33.5625 14.6382 33.4974 14.6307 33.4178L13.8988 25.6401C13.8905 25.5525 13.9117 25.4782 13.9622 25.4172C14.0127 25.3562 14.0778 25.3219 14.1574 25.3145L19.4142 24.8198C19.5018 24.8115 19.5761 24.8327 19.6371 24.8832C19.6981 24.9337 19.7327 25.0027 19.741 25.0903L19.8152 25.8789C19.8227 25.9585 19.8012 26.0288 19.7507 26.0898C19.7001 26.1508 19.6311 26.1855 19.5435 26.1937L15.6128 26.5636L15.8118 28.6782L19.4796 28.3331C19.5672 28.3248 19.6416 28.346 19.7026 28.3965C19.7628 28.439 19.7971 28.5041 19.8053 28.5917L19.875 29.3324C19.8833 29.4201 19.8621 29.4944 19.8116 29.5554C19.7604 29.6084 19.6909 29.639 19.6033 29.6473L15.9355 29.9924L16.1413 32.1788L20.1675 31.7999C20.2551 31.7916 20.3294 31.8128 20.3904 31.8633C20.4514 31.9138 20.486 31.9829 20.4943 32.0705L20.5685 32.859C20.576 32.9386 20.5545 33.009 20.5039 33.07C20.4534 33.131 20.3844 33.1656 20.2968 33.1738L14.9444 33.6775ZM22.2331 32.9916C22.1534 32.9991 22.0831 32.9776 22.0221 32.9271C21.9611 32.8766 21.9268 32.8115 21.9193 32.7319L21.3887 27.0928C21.3812 27.0131 21.4027 26.9428 21.4532 26.8818C21.5037 26.8208 21.5688 26.7866 21.6484 26.7791L22.5803 26.6914C22.66 26.6839 22.7303 26.7054 22.7913 26.7559C22.8523 26.8064 22.8865 26.8715 22.894 26.9511L22.9322 27.3573C23.0785 27.1186 23.2839 26.9104 23.5484 26.7328C23.8202 26.5466 24.1508 26.4311 24.5404 26.3864C25.4468 26.285 26.1134 26.5799 26.54 27.2709C26.6932 26.9351 26.9321 26.6555 27.2566 26.4321C27.5883 26.2 27.9652 26.0641 28.3874 26.0244C28.8015 25.9854 29.1849 26.0457 29.5374 26.2054C29.8979 26.3643 30.192 26.6299 30.4199 27.0022C30.655 27.3658 30.8003 27.8423 30.8558 28.4317L31.1784 31.8605C31.1859 31.9402 31.1644 32.0105 31.1139 32.0715C31.0634 32.1325 30.9983 32.1668 30.9187 32.1742L29.939 32.2664C29.8594 32.2739 29.789 32.2524 29.728 32.2019C29.667 32.1514 29.6328 32.0863 29.6253 32.0067L29.3116 28.6734C29.2779 28.315 29.1995 28.0371 29.0765 27.8398C28.9527 27.6345 28.7991 27.4963 28.6156 27.4251C28.4321 27.354 28.2329 27.3286 28.0178 27.3488C27.8426 27.3653 27.6715 27.4256 27.5045 27.5297C27.3375 27.6338 27.2084 27.7986 27.1171 28.0242C27.0251 28.2417 26.996 28.5297 27.0297 28.8882L27.3434 32.2214C27.3509 32.3011 27.3294 32.3714 27.2789 32.4324C27.2283 32.4934 27.1633 32.5277 27.0836 32.5351L26.104 32.6273C26.0163 32.6356 25.942 32.6145 25.881 32.5639C25.828 32.5127 25.7977 32.4472 25.7902 32.3676L25.4766 29.0343C25.4428 28.6759 25.3605 28.3984 25.2295 28.2018C25.0977 27.9972 24.9401 27.8594 24.7566 27.7883C24.5732 27.7172 24.3819 27.691 24.1828 27.7097C23.9996 27.7269 23.8249 27.7916 23.6586 27.9037C23.4916 28.0078 23.3621 28.1686 23.2701 28.3862C23.1781 28.6038 23.149 28.8918 23.1827 29.2502L23.4964 32.5835C23.5039 32.6631 23.4824 32.7334 23.4319 32.7944C23.3813 32.8554 23.3163 32.8897 23.2366 32.8972L22.2331 32.9916ZM33.2391 34.246C33.1595 34.2535 33.0891 34.2319 33.0281 34.1814C32.9671 34.1309 32.9329 34.0659 32.9254 33.9862L32.1811 26.0772C32.1736 25.9975 32.1951 25.9272 32.2456 25.8662C32.2961 25.8052 32.3612 25.7709 32.4409 25.7634L33.3847 25.6746C33.4723 25.6664 33.5426 25.6879 33.5957 25.7391C33.6567 25.7896 33.6909 25.8547 33.6984 25.9344L33.7434 26.4123C33.9106 26.1394 34.1416 25.9047 34.4365 25.7082C34.7314 25.5117 35.1098 25.3917 35.5717 25.3483C35.9939 25.3085 36.3666 25.3418 36.69 25.4479C37.0134 25.5541 37.2906 25.7249 37.5217 25.9603C37.752 26.1877 37.939 26.4674 38.0827 26.7994C38.2265 27.1314 38.3258 27.5037 38.3807 27.9164C38.4014 28.051 38.4185 28.1901 38.432 28.3334C38.4455 28.4768 38.455 28.6205 38.4605 28.7646C38.49 29.1636 38.4652 29.5396 38.3859 29.8926C38.3059 30.2376 38.1703 30.5477 37.9792 30.8228C37.7954 31.0892 37.5549 31.3087 37.2578 31.4813C36.9606 31.6539 36.601 31.76 36.1789 31.7998C35.7488 31.8402 35.3753 31.7991 35.0584 31.6762C34.7407 31.5454 34.4743 31.3615 34.2592 31.1247L34.5144 33.8367C34.5219 33.9163 34.5004 33.9866 34.4499 34.0477C34.4073 34.1079 34.3422 34.1421 34.2546 34.1504L33.2391 34.246ZM35.6165 30.563C35.959 30.5308 36.2191 30.434 36.3967 30.2726C36.5737 30.1033 36.6907 29.8954 36.7479 29.649C36.813 29.4018 36.84 29.1341 36.829 28.8459C36.8224 28.6054 36.7999 28.3665 36.7615 28.129C36.7186 27.8438 36.6421 27.5858 36.532 27.3551C36.4299 27.1237 36.2765 26.9453 36.0718 26.8199C35.8664 26.6866 35.5925 26.636 35.25 26.6682C34.9234 26.699 34.6637 26.7997 34.4709 26.9705C34.286 27.1406 34.157 27.3496 34.0839 27.5976C34.0181 27.8368 33.9888 28.0806 33.9961 28.329C34.0016 28.4731 34.0119 28.6248 34.0269 28.7841C34.0418 28.9434 34.0604 29.0984 34.0826 29.2489C34.1131 29.4871 34.1906 29.7129 34.3151 29.9261C34.4389 30.1315 34.6071 30.2964 34.8197 30.421C35.0323 30.5457 35.2979 30.593 35.6165 30.563ZM42.8246 31.1744C42.1874 31.2343 41.6393 31.1734 41.1802 30.9916C40.7291 30.8091 40.369 30.5256 40.0998 30.1411C39.8386 29.7559 39.6665 29.294 39.5837 28.7554C39.5622 28.6128 39.5418 28.4379 39.5223 28.2308C39.5028 28.0237 39.4903 27.8481 39.4848 27.704C39.4649 27.1515 39.5517 26.6652 39.7452 26.2452C39.9459 25.8165 40.2509 25.4704 40.66 25.2069C41.077 24.9427 41.5962 24.7813 42.2175 24.7229C42.8387 24.6644 43.3749 24.7265 43.826 24.909C44.285 25.0908 44.6492 25.3739 44.9184 25.7584C45.1948 26.1341 45.3748 26.5953 45.4584 27.1419C45.4798 27.2845 45.5003 27.4593 45.5198 27.6664C45.5393 27.8735 45.5518 28.0491 45.5573 28.1932C45.5764 28.7378 45.4896 29.2241 45.2968 29.6521C45.112 30.0792 44.8111 30.425 44.394 30.6892C43.9849 30.9527 43.4618 31.1144 42.8246 31.1744ZM42.7133 29.9916C43.1354 29.9519 43.4496 29.7897 43.6559 29.5052C43.8613 29.2126 43.9517 28.8064 43.9269 28.2864C43.9236 28.1662 43.9129 28.0105 43.895 27.8193C43.877 27.6282 43.8584 27.4732 43.8392 27.3545C43.7673 26.847 43.6031 26.4687 43.3467 26.2197C43.0902 25.9706 42.7509 25.8659 42.3288 25.9057C41.9066 25.9454 41.5928 26.1115 41.3873 26.404C41.1818 26.6966 41.0911 27.0989 41.1152 27.6109C41.1185 27.7311 41.1291 27.8868 41.1471 28.0779C41.1651 28.2691 41.1837 28.424 41.2029 28.5427C41.2755 29.0582 41.44 29.4405 41.6965 29.6895C41.9522 29.9306 42.2911 30.0313 42.7133 29.9916ZM48.6573 30.505C48.5458 30.5155 48.4595 30.4954 48.3985 30.4449C48.3375 30.3944 48.283 30.3272 48.2349 30.2434L46.0048 24.8606C45.9931 24.8216 45.9858 24.7861 45.9828 24.7542C45.976 24.6826 45.9943 24.6206 46.0376 24.5683C46.0881 24.5073 46.1452 24.4738 46.2089 24.4678L47.093 24.3846C47.1886 24.3756 47.2669 24.3964 47.3279 24.4469C47.3881 24.4894 47.4245 24.5342 47.4369 24.5812L48.9799 28.4256L49.8537 24.39C49.8643 24.3327 49.8949 24.2736 49.9454 24.2126C49.9952 24.1436 50.0758 24.1039 50.1873 24.0934L50.7847 24.0372C50.8962 24.0267 50.9828 24.0507 51.0446 24.1092C51.1056 24.1597 51.1467 24.212 51.1678 24.2663L52.7791 28.0681L53.5778 24.0034C53.5813 23.9548 53.6047 23.9044 53.6479 23.8521C53.6985 23.7911 53.7715 23.7561 53.8671 23.7471L54.7512 23.6639C54.8229 23.6572 54.8852 23.6794 54.9382 23.7307C54.9985 23.7732 55.032 23.8303 55.0387 23.902C55.0417 23.9339 55.0372 23.9705 55.025 24.0118L53.8382 29.7161C53.8225 29.8059 53.7855 29.8818 53.727 29.9435C53.6765 30.0045 53.5955 30.0403 53.484 30.0507L52.7074 30.1238C52.5959 30.1343 52.5057 30.1147 52.4367 30.0649C52.3677 30.0152 52.3172 29.9476 52.285 29.8622L50.6873 26.2038L49.8 30.0961C49.7764 30.1867 49.7354 30.2629 49.6769 30.3246C49.6264 30.3856 49.5414 30.4218 49.4219 30.433L48.6573 30.505ZM59.2737 29.6264C58.3896 29.7096 57.6647 29.5207 57.099 29.0597C56.5333 28.5987 56.1863 27.9001 56.0581 26.964C56.0426 26.8851 56.0293 26.7859 56.018 26.6664C56.006 26.539 56.0006 26.4391 56.0019 26.3666C55.9775 25.7663 56.0642 25.2358 56.2619 24.7753C56.4676 24.314 56.7746 23.9476 57.183 23.6761C57.5906 23.3967 58.0851 23.2297 58.6665 23.1749C59.3117 23.1142 59.866 23.1987 60.3296 23.4282C60.7924 23.6499 61.1578 23.9891 61.4258 24.446C61.693 24.895 61.8559 25.4301 61.9143 26.0513L61.9379 26.3022C61.9454 26.3818 61.9239 26.4522 61.8734 26.5132C61.8229 26.5742 61.7538 26.6088 61.6662 26.617L57.6998 26.9903C57.6998 26.9903 57.7009 27.0022 57.7031 27.0261C57.7054 27.05 57.7073 27.07 57.7088 27.0859C57.743 27.3639 57.8191 27.6179 57.9371 27.8478C58.0624 28.0691 58.2274 28.2424 58.432 28.3678C58.6446 28.4924 58.8864 28.542 59.1572 28.5165C59.3802 28.4955 59.5643 28.446 59.7097 28.3681C59.8543 28.2821 59.9702 28.1909 60.0576 28.0943C60.1449 27.9976 60.2059 27.9196 60.2404 27.8601C60.3031 27.7578 60.3536 27.6968 60.3919 27.6771C60.4375 27.6487 60.5041 27.6304 60.5917 27.6221L61.6191 27.5254C61.6988 27.518 61.7648 27.5358 61.817 27.5791C61.8773 27.6217 61.9068 27.6792 61.9056 27.7516C61.9096 27.8798 61.8565 28.0415 61.7463 28.2367C61.6441 28.4311 61.4857 28.6268 61.2712 28.8238C61.0568 29.0207 60.7799 29.1954 60.4407 29.3479C60.1087 29.4916 59.7197 29.5845 59.2737 29.6264ZM57.6053 25.9867L60.2457 25.7383L60.2423 25.7024C60.2131 25.3918 60.1358 25.1259 60.0105 24.9046C59.8852 24.6834 59.7167 24.5144 59.5048 24.3978C59.2929 24.2811 59.0476 24.2359 58.7689 24.2621C58.4901 24.2884 58.2575 24.3786 58.0711 24.5327C57.8848 24.6868 57.7507 24.8843 57.6689 25.125C57.595 25.365 57.5727 25.6403 57.6019 25.9509L57.6053 25.9867ZM63.7683 29.0829C63.6886 29.0904 63.6183 29.0689 63.5573 29.0184C63.4963 28.9679 63.4621 28.9028 63.4546 28.8232L62.925 23.1961C62.9168 23.1084 62.9379 23.0341 62.9884 22.9731C63.0389 22.9121 63.104 22.8779 63.1837 22.8704L64.1514 22.7793C64.231 22.7718 64.3014 22.7933 64.3624 22.8438C64.4313 22.8936 64.4699 22.9623 64.4782 23.0499L64.5243 23.5397C64.6835 23.2676 64.9001 23.0504 65.1741 22.888C65.456 22.7248 65.7882 22.6253 66.1705 22.5893L66.6603 22.5432C66.7479 22.535 66.8182 22.5565 66.8713 22.6077C66.9323 22.6582 66.9665 22.7233 66.974 22.803L67.055 23.6632C67.0625 23.7428 67.041 23.8131 66.9905 23.8741C66.9479 23.9344 66.8828 23.9686 66.7952 23.9769L65.8633 24.0646C65.481 24.1006 65.1925 24.2362 64.9977 24.4715C64.8108 24.706 64.735 25.0105 64.7702 25.3848L65.0794 28.6703C65.0869 28.7499 65.0654 28.8203 65.0149 28.8813C64.9644 28.9423 64.8953 28.9769 64.8077 28.9851L63.7683 29.0829ZM71.0692 28.5164C70.1851 28.5996 69.4602 28.4107 68.8945 27.9497C68.3289 27.4886 67.9819 26.7901 67.8536 25.854C67.8382 25.7751 67.8248 25.6759 67.8136 25.5564C67.8016 25.429 67.7962 25.3291 67.7974 25.2566C67.773 24.6563 67.8597 24.1258 68.0575 23.6653C68.2631 23.204 68.5702 22.8376 68.9785 22.5661C69.3861 22.2867 69.8807 22.1196 70.4621 22.0649C71.1072 22.0042 71.6616 22.0886 72.1251 22.3182C72.5879 22.5398 72.9533 22.8791 73.2213 23.336C73.4886 23.7849 73.6514 24.32 73.7099 24.9413L73.7335 25.1922C73.741 25.2718 73.7195 25.3422 73.669 25.4032C73.6185 25.4642 73.5494 25.4988 73.4618 25.507L69.4953 25.8803C69.4953 25.8803 69.4964 25.8922 69.4987 25.9161C69.5009 25.94 69.5028 25.9599 69.5043 25.9759C69.5385 26.2539 69.6146 26.5079 69.7327 26.7378C69.858 26.9591 70.0229 27.1324 70.2276 27.2577C70.4402 27.3824 70.6819 27.4319 70.9527 27.4065C71.1757 27.3855 71.3599 27.336 71.5052 27.258C71.6498 27.1721 71.7658 27.0808 71.8531 26.9842C71.9404 26.8876 72.0014 26.8096 72.036 26.7501C72.0987 26.6477 72.1492 26.5867 72.1875 26.5671C72.233 26.5387 72.2996 26.5204 72.3872 26.5121L73.4147 26.4154C73.4943 26.4079 73.5603 26.4258 73.6126 26.4691C73.6728 26.5117 73.7023 26.5692 73.7011 26.6416C73.7052 26.7698 73.6521 26.9315 73.5419 27.1266C73.4396 27.3211 73.2813 27.5168 73.0668 27.7137C72.8523 27.9107 72.5755 28.0854 72.2362 28.2379C71.9042 28.3816 71.5152 28.4744 71.0692 28.5164ZM69.4009 24.8767L72.0412 24.6282L72.0378 24.5924C72.0086 24.2818 71.9313 24.0158 71.8061 23.7946C71.6808 23.5734 71.5122 23.4044 71.3003 23.2878C71.0885 23.1711 70.8432 23.1259 70.5644 23.1521C70.2856 23.1784 70.0531 23.2685 69.8667 23.4227C69.6803 23.5768 69.5462 23.7743 69.4644 24.015C69.3906 24.2549 69.3683 24.5302 69.3975 24.8409L69.4009 24.8767ZM77.5942 27.9024C77.18 27.9414 76.8072 27.9081 76.4759 27.8027C76.1518 27.6886 75.8742 27.5138 75.6431 27.2784C75.4121 27.0431 75.2246 26.7594 75.0809 26.4274C74.9364 26.0874 74.8367 25.7111 74.7818 25.2984C74.7604 25.1558 74.7444 25.0287 74.7339 24.9172C74.7227 24.7978 74.7143 24.666 74.7087 24.5219C74.6872 24.1221 74.7121 23.7461 74.7834 23.3939C74.8627 23.0409 74.9939 22.7272 75.177 22.4529C75.3673 22.1698 75.611 21.942 75.9081 21.7694C76.2132 21.596 76.5729 21.4899 76.987 21.4509C77.4171 21.4104 77.7867 21.452 78.0956 21.5756C78.4118 21.6905 78.6803 21.854 78.9011 22.0663L78.6515 19.414C78.644 19.3343 78.6616 19.2644 78.7041 19.2041C78.7546 19.1431 78.8237 19.1085 78.9113 19.1003L79.9268 19.0047C80.0064 18.9972 80.0768 19.0187 80.1378 19.0692C80.1988 19.1197 80.233 19.1848 80.2405 19.2645L80.9848 27.1735C80.9923 27.2532 80.9708 27.3235 80.9203 27.3845C80.8698 27.4455 80.8047 27.4797 80.725 27.4872L79.7812 27.576C79.6936 27.5843 79.6193 27.5632 79.5583 27.5127C79.5053 27.4614 79.475 27.3959 79.4675 27.3163L79.4259 26.8743C79.25 27.1399 79.0142 27.367 78.7186 27.5555C78.4309 27.7433 78.0561 27.8589 77.5942 27.9024ZM77.9159 26.5824C78.2504 26.551 78.5101 26.4502 78.695 26.2801C78.8799 26.11 79.0093 25.905 79.0831 25.665C79.1562 25.4171 79.1851 25.1693 79.1698 24.9217C79.1643 24.7775 79.154 24.6258 79.139 24.4665C79.1233 24.2993 79.1047 24.1443 79.0833 24.0017C79.0528 23.7635 78.9757 23.5418 78.8519 23.3365C78.7274 23.1232 78.5588 22.9542 78.3462 22.8296C78.1336 22.705 77.868 22.6577 77.5494 22.6876C77.2149 22.7191 76.9552 22.8199 76.7703 22.99C76.5926 23.1513 76.4712 23.3556 76.4061 23.6028C76.341 23.85 76.3139 24.1177 76.325 24.4059C76.3395 24.6456 76.362 24.8846 76.3924 25.1228C76.4354 25.408 76.5119 25.666 76.622 25.8967C76.7321 26.1274 76.8898 26.3094 77.0952 26.4427C77.3078 26.5673 77.5814 26.6139 77.9159 26.5824ZM85.7643 27.013C85.6847 27.0205 85.6144 26.999 85.5534 26.9485C85.4924 26.898 85.4581 26.8329 85.4506 26.7533L84.7187 18.9756C84.7105 18.888 84.7316 18.8137 84.7821 18.7527C84.8326 18.6917 84.8977 18.6574 84.9773 18.65L88.1792 18.3486C88.8004 18.2902 89.3514 18.3388 89.8321 18.4944C90.3121 18.6421 90.6982 18.9031 90.9906 19.2773C91.2822 19.6436 91.4557 20.1215 91.5112 20.7109C91.5674 21.3082 91.4864 21.814 91.2683 22.2283C91.0494 22.6346 90.7179 22.955 90.274 23.1897C89.83 23.4243 89.2974 23.5709 88.6761 23.6293L86.896 23.7968L87.1591 26.5925C87.1666 26.6721 87.1451 26.7425 87.0946 26.8035C87.052 26.8637 86.9869 26.898 86.8993 26.9062L85.7643 27.013ZM86.7473 22.4729L88.4916 22.3088C88.9535 22.2653 89.2979 22.1244 89.5245 21.8862C89.7505 21.6399 89.8432 21.3017 89.8027 20.8716C89.7652 20.4734 89.6198 20.1657 89.3663 19.9485C89.1121 19.7233 88.7381 19.6339 88.2442 19.6804L86.5 19.8446L86.7473 22.4729ZM93.4963 26.2854C93.4167 26.2929 93.3464 26.2714 93.2854 26.2209C93.2244 26.1704 93.1901 26.1053 93.1826 26.0256L92.6531 20.3985C92.6448 20.3109 92.666 20.2366 92.7165 20.1756C92.767 20.1146 92.8321 20.0803 92.9117 20.0728L93.8794 19.9818C93.9591 19.9743 94.0294 19.9958 94.0904 20.0463C94.1594 20.096 94.198 20.1647 94.2062 20.2523L94.2523 20.7422C94.4115 20.4701 94.6281 20.2528 94.9021 20.0904C95.1841 19.9273 95.5162 19.8277 95.8985 19.7918L96.3883 19.7457C96.476 19.7374 96.5463 19.7589 96.5993 19.8102C96.6603 19.8607 96.6946 19.9258 96.7021 20.0054L96.783 20.8656C96.7905 20.9453 96.769 21.0156 96.7185 21.0766C96.6759 21.1368 96.6109 21.1711 96.5233 21.1793L95.5914 21.267C95.2091 21.303 94.9205 21.4386 94.7257 21.6739C94.5388 21.9085 94.463 22.2129 94.4983 22.5872L94.8074 25.8727C94.8149 25.9524 94.7934 26.0227 94.7429 26.0837C94.6924 26.1447 94.6234 26.1793 94.5357 26.1876L93.4963 26.2854ZM100.869 25.7121C100.232 25.7721 99.6836 25.7112 99.2246 25.5294C98.7735 25.3468 98.4133 25.0633 98.1441 24.6789C97.8829 24.2936 97.7109 23.8317 97.628 23.2931C97.6066 23.1505 97.5861 22.9757 97.5666 22.7686C97.5471 22.5615 97.5346 22.3859 97.5291 22.2418C97.5092 21.6892 97.5961 21.2029 97.7896 20.7829C97.9903 20.3543 98.2952 20.0082 98.7043 19.7447C99.1214 19.4804 99.6406 19.3191 100.262 19.2606C100.883 19.2022 101.419 19.2642 101.87 19.4467C102.329 19.6285 102.694 19.9117 102.963 20.2961C103.239 20.6719 103.419 21.133 103.503 21.6796C103.524 21.8222 103.545 21.9971 103.564 22.2042C103.584 22.4113 103.596 22.5869 103.602 22.731C103.621 23.2756 103.534 23.7619 103.341 24.1898C103.156 24.617 102.855 24.9627 102.438 25.2269C102.029 25.4904 101.506 25.6522 100.869 25.7121ZM100.758 24.5293C101.18 24.4896 101.494 24.3275 101.7 24.0429C101.906 23.7504 101.996 23.3441 101.971 22.8241C101.968 22.7039 101.957 22.5482 101.939 22.3571C101.921 22.1659 101.903 22.011 101.884 21.8923C101.812 21.3848 101.647 21.0065 101.391 20.7574C101.135 20.5083 100.795 20.4037 100.373 20.4434C99.951 20.4831 99.6372 20.6493 99.4317 20.9418C99.2262 21.2343 99.1355 21.6366 99.1595 22.1486C99.1628 22.2688 99.1734 22.4245 99.1914 22.6157C99.2094 22.8068 99.228 22.9618 99.2472 23.0805C99.3198 23.5959 99.4844 23.9782 99.7408 24.2273C99.9966 24.4684 100.335 24.5691 100.758 24.5293ZM106.066 25.1025C105.986 25.11 105.916 25.0885 105.855 25.038C105.794 24.9875 105.76 24.9224 105.752 24.8428L105.314 20.1834L104.346 20.2744C104.266 20.2819 104.196 20.2604 104.135 20.2099C104.074 20.1594 104.04 20.0943 104.032 20.0147L103.967 19.3217C103.96 19.2421 103.981 19.1718 104.032 19.1108C104.082 19.0498 104.147 19.0155 104.227 19.008L105.195 18.917L105.148 18.4271C105.103 17.9492 105.154 17.5467 105.3 17.2196C105.445 16.8845 105.682 16.6212 106.009 16.4297C106.337 16.2382 106.763 16.1177 107.289 16.0682L108.101 15.9918C108.189 15.9835 108.259 16.005 108.312 16.0563C108.373 16.1068 108.408 16.1719 108.415 16.2515L108.48 16.9444C108.488 17.0241 108.466 17.0944 108.416 17.1554C108.373 17.2157 108.308 17.2499 108.22 17.2582L107.456 17.3301C107.137 17.3601 106.926 17.4604 106.821 17.6309C106.717 17.8014 106.679 18.038 106.707 18.3407L106.748 18.7708L108.229 18.6314C108.317 18.6231 108.387 18.6446 108.44 18.6959C108.501 18.7464 108.535 18.8115 108.543 18.8911L108.608 19.5841C108.616 19.6637 108.594 19.734 108.544 19.795C108.501 19.8553 108.436 19.8895 108.348 19.8978L106.867 20.0372L107.305 24.6966C107.313 24.7763 107.291 24.8466 107.241 24.9076C107.19 24.9686 107.125 25.0028 107.046 25.0103L106.066 25.1025ZM112.651 24.6034C111.767 24.6866 111.042 24.4976 110.476 24.0366C109.911 23.5756 109.564 22.877 109.436 21.9409C109.42 21.862 109.407 21.7628 109.395 21.6434C109.383 21.5159 109.378 21.416 109.379 21.3436C109.355 20.7432 109.442 20.2127 109.639 19.7522C109.845 19.2909 110.152 18.9245 110.56 18.6531C110.968 18.3736 111.463 18.2066 112.044 18.1519C112.689 18.0912 113.244 18.1756 113.707 18.4052C114.17 18.6268 114.535 18.966 114.803 19.4229C115.07 19.8719 115.233 20.407 115.292 21.0282L115.315 21.2791C115.323 21.3588 115.301 21.4291 115.251 21.4901C115.2 21.5511 115.131 21.5857 115.044 21.594L111.077 21.9672C111.077 21.9672 111.078 21.9792 111.081 22.0031C111.083 22.027 111.085 22.0469 111.086 22.0628C111.12 22.3408 111.197 22.5948 111.315 22.8248C111.44 23.046 111.605 23.2193 111.809 23.3447C112.022 23.4693 112.264 23.5189 112.535 23.4934C112.758 23.4724 112.942 23.4229 113.087 23.345C113.232 23.259 113.348 23.1678 113.435 23.0712C113.522 22.9746 113.583 22.8965 113.618 22.837C113.681 22.7347 113.731 22.6737 113.769 22.654C113.815 22.6256 113.882 22.6073 113.969 22.5991L114.997 22.5024C115.076 22.4949 115.142 22.5128 115.194 22.5561C115.255 22.5986 115.284 22.6561 115.283 22.7285C115.287 22.8567 115.234 23.0184 115.124 23.2136C115.022 23.408 114.863 23.6037 114.649 23.8007C114.434 23.9976 114.157 24.1723 113.818 24.3248C113.486 24.4685 113.097 24.5614 112.651 24.6034ZM110.983 20.9637L113.623 20.7152L113.62 20.6793C113.591 20.3687 113.513 20.1028 113.388 19.8816C113.263 19.6603 113.094 19.4914 112.882 19.3747C112.67 19.258 112.425 19.2128 112.146 19.2391C111.868 19.2653 111.635 19.3555 111.449 19.5096C111.262 19.6638 111.128 19.8612 111.046 20.1019C110.972 20.3419 110.95 20.6172 110.979 20.9278L110.983 20.9637ZM119.224 23.9848C118.746 24.0298 118.331 24.0127 117.978 23.9334C117.633 23.8533 117.345 23.7398 117.114 23.5928C116.883 23.4458 116.708 23.2935 116.589 23.136C116.469 22.9785 116.401 22.8443 116.382 22.7336C116.366 22.6467 116.383 22.5768 116.435 22.5237C116.493 22.462 116.558 22.4277 116.63 22.421L117.574 22.3322C117.606 22.3292 117.634 22.3305 117.659 22.3362C117.683 22.342 117.717 22.3629 117.761 22.3989C117.873 22.4768 117.989 22.5583 118.109 22.6434C118.238 22.7277 118.385 22.7982 118.551 22.8549C118.716 22.9036 118.918 22.9167 119.157 22.8943C119.468 22.865 119.721 22.7809 119.917 22.642C120.12 22.4943 120.211 22.305 120.189 22.074C120.173 21.9067 120.113 21.7758 120.007 21.6813C119.91 21.586 119.734 21.5101 119.48 21.4537C119.225 21.3893 118.866 21.3307 118.403 21.2779C117.947 21.2163 117.564 21.1197 117.254 20.9882C116.945 20.8566 116.707 20.6781 116.541 20.4526C116.375 20.2272 116.277 19.9552 116.247 19.6366C116.218 19.3259 116.282 19.0226 116.439 18.7266C116.603 18.4219 116.86 18.1607 117.209 17.943C117.566 17.7246 118.019 17.5895 118.569 17.5378C118.999 17.4974 119.379 17.5179 119.708 17.5994C120.036 17.673 120.311 17.7797 120.533 17.9195C120.763 18.0585 120.942 18.2064 121.069 18.3632C121.196 18.512 121.269 18.6458 121.288 18.7645C121.304 18.8514 121.287 18.9253 121.236 18.9863C121.185 19.0393 121.124 19.0692 121.052 19.076L120.168 19.1592C120.128 19.1629 120.091 19.1583 120.058 19.1454C120.025 19.1325 119.991 19.1155 119.957 19.0946C119.862 19.0232 119.758 18.9486 119.647 18.8707C119.535 18.7929 119.4 18.7292 119.243 18.6797C119.093 18.6215 118.898 18.6037 118.659 18.6262C118.357 18.6546 118.132 18.7441 117.985 18.8945C117.838 19.0369 117.774 19.2077 117.793 19.4068C117.805 19.5422 117.852 19.6583 117.934 19.7551C118.023 19.8432 118.186 19.9201 118.426 19.986C118.665 20.0519 119.024 20.1105 119.503 20.1619C120.046 20.2072 120.481 20.3109 120.81 20.4728C121.146 20.626 121.389 20.8201 121.54 21.055C121.697 21.2812 121.79 21.5416 121.818 21.8363C121.852 22.1948 121.775 22.5274 121.586 22.8344C121.406 23.1406 121.117 23.3969 120.719 23.6031C120.327 23.8006 119.829 23.9279 119.224 23.9848ZM125.582 23.3865C125.105 23.4314 124.689 23.4143 124.336 23.335C123.991 23.255 123.703 23.1414 123.472 22.9944C123.242 22.8474 123.067 22.6951 122.947 22.5376C122.828 22.3801 122.759 22.246 122.741 22.1352C122.725 22.0483 122.742 21.9784 122.793 21.9253C122.852 21.8636 122.917 21.8293 122.989 21.8226L123.932 21.7338C123.964 21.7308 123.993 21.7321 124.017 21.7379C124.042 21.7436 124.076 21.7645 124.119 21.8006C124.231 21.8784 124.347 21.9599 124.468 22.045C124.596 22.1293 124.744 22.1998 124.91 22.2565C125.075 22.3052 125.277 22.3184 125.516 22.2959C125.827 22.2667 126.08 22.1826 126.276 22.0436C126.479 21.8959 126.569 21.7066 126.548 21.4756C126.532 21.3084 126.471 21.1775 126.366 21.0829C126.269 20.9876 126.093 20.9118 125.838 20.8553C125.583 20.791 125.224 20.7323 124.761 20.6795C124.305 20.6179 123.923 20.5214 123.613 20.3898C123.303 20.2582 123.066 20.0797 122.9 19.8543C122.734 19.6288 122.636 19.3568 122.606 19.0382C122.577 18.7276 122.641 18.4243 122.798 18.1282C122.962 17.8235 123.218 17.5623 123.568 17.3447C123.925 17.1262 124.378 16.9912 124.928 16.9395C125.358 16.899 125.737 16.9195 126.066 17.001C126.395 17.0746 126.67 17.1813 126.892 17.3211C127.122 17.4601 127.301 17.6081 127.428 17.7648C127.554 17.9136 127.627 18.0474 127.646 18.1661C127.663 18.253 127.646 18.3269 127.595 18.3879C127.544 18.4409 127.482 18.4708 127.411 18.4776L126.527 18.5608C126.487 18.5645 126.45 18.5599 126.417 18.547C126.383 18.5341 126.35 18.5172 126.316 18.4963C126.22 18.4249 126.117 18.3502 126.005 18.2724C125.893 18.1945 125.759 18.1308 125.602 18.0813C125.451 18.0231 125.257 18.0053 125.018 18.0278C124.715 18.0563 124.491 18.1457 124.344 18.2961C124.197 18.4385 124.133 18.6093 124.151 18.8084C124.164 18.9438 124.211 19.0599 124.293 19.1567C124.381 19.2448 124.545 19.3218 124.784 19.3876C125.024 19.4535 125.383 19.5121 125.862 19.5635C126.404 19.6089 126.84 19.7125 127.168 19.8744C127.504 20.0276 127.748 20.2217 127.898 20.4566C128.056 20.6828 128.149 20.9433 128.177 21.238C128.21 21.5964 128.133 21.9291 127.945 22.236C127.765 22.5423 127.476 22.7985 127.077 23.0047C126.686 23.2022 126.188 23.3295 125.582 23.3865ZM129.863 22.8631C129.783 22.8706 129.713 22.8491 129.652 22.7986C129.591 22.7481 129.557 22.683 129.549 22.6034L129.019 16.9643C129.011 16.8846 129.033 16.8143 129.083 16.7533C129.134 16.6923 129.199 16.658 129.278 16.6506L130.27 16.5572C130.358 16.549 130.428 16.5705 130.481 16.6218C130.542 16.6723 130.576 16.7373 130.584 16.817L131.114 22.4561C131.122 22.5357 131.1 22.606 131.05 22.667C131.007 22.7273 130.942 22.7615 130.855 22.7698L129.863 22.8631ZM129.134 15.6276C129.046 15.6358 128.972 15.6187 128.912 15.5761C128.859 15.5249 128.828 15.4555 128.82 15.3678L128.739 14.5076C128.732 14.428 128.749 14.358 128.792 14.2978C128.842 14.2368 128.911 14.2022 128.999 14.1939L130.086 14.0916C130.174 14.0834 130.248 14.1045 130.309 14.155C130.37 14.2055 130.404 14.2706 130.412 14.3502L130.493 15.2104C130.501 15.2981 130.48 15.3724 130.429 15.4334C130.378 15.4864 130.309 15.517 130.221 15.5253L129.134 15.6276ZM135.486 22.4545C134.848 22.5145 134.3 22.4536 133.841 22.2718C133.39 22.0892 133.03 21.8057 132.761 21.4213C132.499 21.0361 132.327 20.5741 132.245 20.0355C132.223 19.8929 132.203 19.7181 132.183 19.511C132.164 19.3039 132.151 19.1283 132.146 18.9842C132.126 18.4316 132.213 17.9453 132.406 17.5254C132.607 17.0967 132.912 16.7506 133.321 16.4871C133.738 16.2228 134.257 16.0615 134.878 16.003C135.5 15.9446 136.036 16.0066 136.487 16.1891C136.946 16.3709 137.31 16.6541 137.579 17.0385C137.856 17.4143 138.036 17.8755 138.119 18.422C138.141 18.5646 138.161 18.7395 138.181 18.9466C138.2 19.1537 138.213 19.3293 138.218 19.4734C138.237 20.018 138.151 20.5043 137.958 20.9322C137.773 21.3594 137.472 21.7051 137.055 21.9694C136.646 22.2328 136.123 22.3946 135.486 22.4545ZM135.374 21.2718C135.796 21.232 136.111 21.0699 136.317 20.7853C136.522 20.4928 136.613 20.0865 136.588 19.5666C136.585 19.4463 136.574 19.2906 136.556 19.0995C136.538 18.9083 136.519 18.7534 136.5 18.6347C136.428 18.1272 136.264 17.7489 136.008 17.4998C135.751 17.2508 135.412 17.1461 134.99 17.1858C134.568 17.2255 134.254 17.3917 134.048 17.6842C133.843 17.9767 133.752 18.379 133.776 18.891C133.779 19.0112 133.79 19.1669 133.808 19.3581C133.826 19.5492 133.845 19.7042 133.864 19.8229C133.936 20.3384 134.101 20.7206 134.357 20.9697C134.613 21.2108 134.952 21.3115 135.374 21.2718ZM140.083 21.9013C140.004 21.9088 139.934 21.8873 139.873 21.8368C139.812 21.7863 139.777 21.7212 139.77 21.6416L139.239 16.0025C139.232 15.9228 139.253 15.8525 139.304 15.7915C139.354 15.7305 139.419 15.6963 139.499 15.6888L140.479 15.5966C140.558 15.5891 140.628 15.6106 140.689 15.6611C140.75 15.7116 140.785 15.7767 140.792 15.8563L140.838 16.3462C141.021 16.0718 141.264 15.836 141.567 15.6387C141.877 15.4328 142.271 15.3073 142.749 15.2624C143.235 15.2166 143.668 15.2884 144.047 15.4777C144.426 15.659 144.729 15.9398 144.958 16.3201C145.195 16.6996 145.339 17.1681 145.392 17.7256L145.708 21.0828C145.715 21.1624 145.694 21.2328 145.643 21.2938C145.593 21.3548 145.527 21.389 145.448 21.3965L144.396 21.4954C144.317 21.5029 144.246 21.4814 144.185 21.4309C144.124 21.3804 144.09 21.3153 144.083 21.2357L143.774 17.9502C143.73 17.4882 143.58 17.1367 143.325 16.8956C143.077 16.6538 142.738 16.5531 142.308 16.5935C141.894 16.6325 141.576 16.795 141.353 17.0811C141.131 17.3672 141.042 17.7412 141.085 18.2032L141.395 21.4887C141.402 21.5683 141.381 21.6386 141.33 21.6996C141.28 21.7606 141.214 21.7949 141.135 21.8024L140.083 21.9013ZM149.067 21.1764C148.653 21.2154 148.271 21.171 147.922 21.0432C147.572 20.9074 147.284 20.7134 147.06 20.4614C146.842 20.2006 146.717 19.899 146.685 19.5565C146.633 18.9989 146.814 18.5359 147.229 18.1674C147.652 17.7901 148.228 17.5109 148.958 17.3297L150.573 16.9367L150.549 16.6858C150.518 16.3513 150.41 16.1003 150.225 15.9329C150.041 15.7654 149.745 15.7008 149.339 15.739C149.052 15.766 148.823 15.8479 148.651 15.9846C148.486 16.1126 148.369 16.2763 148.3 16.4757C148.246 16.5852 148.159 16.6456 148.039 16.6568L147.096 16.7457C147.008 16.7539 146.938 16.7364 146.886 16.6931C146.841 16.6491 146.815 16.5872 146.808 16.5076C146.804 16.3794 146.841 16.2192 146.919 16.027C146.998 15.8348 147.133 15.6454 147.324 15.4586C147.515 15.2639 147.768 15.0914 148.083 14.9412C148.398 14.791 148.787 14.6942 149.249 14.6507C149.751 14.6035 150.179 14.6275 150.533 14.7227C150.895 14.8092 151.189 14.9462 151.416 15.1338C151.642 15.3214 151.816 15.5501 151.938 15.8199C152.06 16.0897 152.135 16.3799 152.165 16.6905L152.518 20.4419C152.525 20.5216 152.504 20.5919 152.453 20.6529C152.403 20.7139 152.338 20.7481 152.258 20.7556L151.29 20.8467C151.203 20.8549 151.128 20.8338 151.067 20.7833C151.014 20.7321 150.984 20.6666 150.977 20.5869L150.933 20.121C150.843 20.2821 150.717 20.4386 150.555 20.5905C150.392 20.7344 150.187 20.8621 149.94 20.9737C149.701 21.0766 149.41 21.1442 149.067 21.1764ZM149.367 20.0032C149.646 19.977 149.891 19.8936 150.103 19.7532C150.322 19.612 150.484 19.4119 150.588 19.153C150.7 18.8854 150.738 18.5604 150.702 18.1781L150.678 17.9272L149.501 18.2308C149.038 18.3467 148.699 18.4952 148.483 18.6762C148.267 18.8572 148.169 19.0632 148.191 19.2942C148.208 19.4695 148.274 19.6159 148.389 19.7336C148.512 19.8426 148.66 19.9211 148.833 19.969C149.006 20.0091 149.184 20.0204 149.367 20.0032ZM154.376 20.5563C154.296 20.5638 154.226 20.5423 154.165 20.4918C154.104 20.4413 154.07 20.3762 154.062 20.2966L153.318 12.3875C153.311 12.3079 153.332 12.2375 153.383 12.1765C153.433 12.1155 153.498 12.0813 153.578 12.0738L154.569 11.9805C154.649 11.973 154.719 11.9945 154.78 12.045C154.841 12.0955 154.876 12.1606 154.883 12.2402L155.627 20.1493C155.635 20.2289 155.613 20.2992 155.563 20.3602C155.512 20.4212 155.447 20.4555 155.368 20.463L154.376 20.5563Z" fill="white"/>
</svg>
