<svg width="126" height="42" viewBox="0 0 126 42" fill="none" xmlns="http://www.w3.org/2000/svg">
<rect x="2.52734" width="139.551" height="29" rx="14.5" transform="rotate(5 2.52734 0)" fill="#9747FF"/>
<rect x="2.98186" y="0.541675" width="138.551" height="28" rx="14" transform="rotate(5 2.98186 0.541675)" stroke="black" stroke-opacity="0.05"/>
<path d="M14.0433 20.0802C13.9637 20.0732 13.8984 20.0394 13.8474 19.9787C13.7965 19.918 13.7746 19.8478 13.7815 19.7682L14.4635 11.9739C14.4704 11.8942 14.5042 11.8289 14.5649 11.778C14.6256 11.7271 14.6958 11.7052 14.7755 11.7121L15.8992 11.8104C15.9868 11.8181 16.0521 11.8519 16.0951 11.9119C16.146 11.9726 16.1679 12.0427 16.161 12.1224L15.4791 19.9167C15.4721 19.9964 15.4383 20.0617 15.3776 20.1126C15.3249 20.1642 15.2547 20.1861 15.1671 20.1785L14.0433 20.0802ZM17.4722 20.3801C17.3925 20.3732 17.3272 20.3394 17.2763 20.2787C17.2254 20.218 17.2034 20.1478 17.2104 20.0681L17.704 14.4257C17.711 14.346 17.7448 14.2807 17.8055 14.2298C17.8662 14.1789 17.9363 14.1569 18.016 14.1639L18.9963 14.2496C19.076 14.2566 19.1413 14.2904 19.1922 14.3511C19.2431 14.4118 19.2651 14.482 19.2581 14.5617L19.2152 15.0518C19.4447 14.8149 19.7262 14.6267 20.0596 14.4872C20.4017 14.3405 20.8119 14.288 21.29 14.3299C21.7762 14.3724 22.1888 14.5209 22.5279 14.7755C22.8677 15.022 23.1158 15.3529 23.2722 15.7681C23.4366 16.184 23.4944 16.6709 23.4456 17.2288L23.1517 20.5879C23.1447 20.6676 23.1109 20.7329 23.0502 20.7838C22.9896 20.8347 22.9194 20.8567 22.8397 20.8497L21.7877 20.7577C21.708 20.7507 21.6427 20.7169 21.5918 20.6562C21.5409 20.5956 21.5189 20.5254 21.5259 20.4457L21.8135 17.1583C21.854 16.696 21.7701 16.3233 21.562 16.0401C21.3619 15.7576 21.0466 15.5975 20.6163 15.5598C20.2019 15.5236 19.8596 15.6261 19.5895 15.8675C19.3195 16.1089 19.1642 16.4607 19.1238 16.9229L18.8362 20.2104C18.8292 20.2901 18.7954 20.3554 18.7347 20.4063C18.674 20.4572 18.6039 20.4792 18.5242 20.4722L17.4722 20.3801ZM26.9418 21.3291C26.5274 21.2928 26.1667 21.193 25.8598 21.0296C25.5615 20.859 25.3199 20.6371 25.135 20.3639C24.9501 20.0908 24.8169 19.778 24.7353 19.4255C24.6544 19.0651 24.6241 18.677 24.6444 18.2612C24.649 18.117 24.6562 17.9892 24.666 17.8776C24.6764 17.7581 24.6919 17.6269 24.7124 17.4842C24.7632 17.0871 24.8554 16.7217 24.989 16.3881C25.1306 16.0552 25.3161 15.7702 25.5456 15.5333C25.7838 15.2892 26.0646 15.109 26.3879 14.9927C26.7193 14.8771 27.0922 14.8375 27.5066 14.8737C27.9369 14.9114 28.2929 15.0188 28.5745 15.1961C28.8648 15.366 29.0995 15.5752 29.2785 15.8238L29.5107 13.1699C29.5177 13.0902 29.5475 13.0246 29.6002 12.973C29.6609 12.9221 29.735 12.9005 29.8227 12.9081L30.8388 12.997C30.9185 13.004 30.9838 13.0378 31.0347 13.0985C31.0856 13.1592 31.1076 13.2293 31.1006 13.309L30.4083 21.2228C30.4013 21.3025 30.3675 21.3678 30.3068 21.4187C30.2461 21.4696 30.1759 21.4916 30.0962 21.4846L29.1519 21.402C29.0642 21.3943 28.9949 21.3601 28.944 21.2995C28.9011 21.2395 28.8831 21.1697 28.8901 21.09L28.9288 20.6477C28.7079 20.8773 28.4351 21.0582 28.1103 21.1904C27.7935 21.3233 27.404 21.3695 26.9418 21.3291ZM27.496 20.0887C27.8307 20.118 28.1043 20.0656 28.3168 19.9316C28.5293 19.7976 28.6935 19.6192 28.8093 19.3965C28.9259 19.1658 28.999 18.9272 29.0285 18.6809C29.0491 18.5381 29.0663 18.3871 29.0802 18.2277C29.0949 18.0603 29.1045 17.9045 29.1091 17.7604C29.122 17.5206 29.0861 17.2886 29.0013 17.0644C28.9173 16.8321 28.7819 16.6356 28.5952 16.4747C28.4085 16.3138 28.1558 16.2194 27.837 16.1916C27.5022 16.1623 27.2286 16.2146 27.0162 16.3486C26.8123 16.4753 26.6561 16.6544 26.5476 16.8858C26.439 17.1172 26.3642 17.3757 26.3231 17.6612C26.2942 17.8996 26.2733 18.1387 26.2604 18.3785C26.2512 18.6668 26.28 18.9343 26.3467 19.181C26.4135 19.4278 26.5359 19.6353 26.7139 19.8034C26.9006 19.9643 27.1613 20.0594 27.496 20.0887ZM34.2732 21.9705C33.787 21.928 33.3741 21.7834 33.0342 21.5369C32.7031 21.283 32.4593 20.9485 32.3029 20.5333C32.1472 20.1101 32.0934 19.6236 32.1415 19.0737L32.4354 15.7145C32.4424 15.6348 32.4762 15.5695 32.5369 15.5186C32.5975 15.4677 32.6677 15.4457 32.7474 15.4527L33.7994 15.5448C33.8871 15.5524 33.9524 15.5862 33.9953 15.6462C34.0462 15.7069 34.0682 15.7771 34.0612 15.8568L33.7736 19.1442C33.6871 20.1324 34.0783 20.6645 34.9469 20.7405C35.3613 20.7768 35.6996 20.6739 35.9617 20.4318C36.2318 20.1904 36.387 19.8386 36.4275 19.3764L36.7151 16.0889C36.722 16.0092 36.7559 15.9439 36.8165 15.893C36.8772 15.8421 36.9474 15.8202 37.0271 15.8271L38.0791 15.9192C38.1588 15.9261 38.2241 15.96 38.275 16.0206C38.3259 16.0813 38.3478 16.1515 38.3409 16.2312L37.8472 21.8736C37.8402 21.9533 37.8064 22.0186 37.7458 22.0695C37.6851 22.1204 37.6149 22.1424 37.5352 22.1354L36.5669 22.0507C36.4792 22.043 36.41 22.0089 36.359 21.9482C36.3161 21.8882 36.2981 21.8184 36.3051 21.7387L36.348 21.2486C36.1084 21.5087 35.8222 21.7045 35.4895 21.836C35.1568 21.9675 34.7513 22.0123 34.2732 21.9705ZM41.7458 22.6243C41.2676 22.5824 40.862 22.4907 40.5291 22.3492C40.2041 22.2083 39.9414 22.0448 39.7409 21.8586C39.5403 21.6724 39.3956 21.4911 39.3066 21.3147C39.2176 21.1383 39.1741 20.9939 39.1759 20.8817C39.1756 20.7933 39.2054 20.7276 39.2654 20.6847C39.334 20.6345 39.4042 20.6125 39.4759 20.6188L40.4203 20.7014C40.4522 20.7042 40.4797 20.7106 40.5029 20.7207C40.5261 20.7308 40.5559 20.7575 40.5923 20.8008C40.6882 20.8975 40.7878 20.9986 40.891 21.104C41.0022 21.2101 41.1343 21.306 41.2874 21.3916C41.4413 21.4693 41.6377 21.5186 41.8768 21.5396C42.1876 21.5667 42.4518 21.5296 42.6695 21.4282C42.8958 21.3195 43.0191 21.1496 43.0393 20.9185C43.054 20.7512 43.018 20.6115 42.9314 20.4995C42.8528 20.3882 42.6935 20.282 42.4534 20.1806C42.214 20.0714 41.8714 19.949 41.4255 19.8137C40.9883 19.671 40.6292 19.5071 40.3483 19.3219C40.0673 19.1367 39.8656 18.9183 39.7431 18.6667C39.6205 18.415 39.5732 18.1298 39.6011 17.811C39.6283 17.5002 39.7457 17.2134 39.9534 16.9505C40.1698 16.6803 40.4693 16.4696 40.8519 16.3184C41.2426 16.1678 41.7128 16.1166 42.2627 16.1647C42.6931 16.2024 43.0627 16.2909 43.3718 16.4304C43.6815 16.5619 43.933 16.7164 44.1262 16.8939C44.3275 17.0721 44.4766 17.2498 44.5735 17.4269C44.6711 17.5961 44.7187 17.7408 44.7162 17.861C44.7165 17.9494 44.6863 18.019 44.6256 18.0699C44.5657 18.1129 44.4998 18.1312 44.4281 18.1249L43.5435 18.0475C43.5036 18.044 43.4685 18.0329 43.438 18.0142C43.4075 17.9955 43.3774 17.9728 43.3476 17.9461C43.2669 17.8587 43.1786 17.7667 43.0826 17.6699C42.9867 17.5732 42.8658 17.4863 42.72 17.4093C42.5828 17.3251 42.3947 17.2725 42.1556 17.2515C41.8527 17.225 41.6157 17.2726 41.4444 17.3941C41.2739 17.5077 41.1799 17.6641 41.1625 17.8633C41.1506 17.9988 41.176 18.1215 41.2387 18.2314C41.31 18.334 41.4574 18.4392 41.6809 18.5471C41.9043 18.655 42.2469 18.7773 42.7088 18.9141C43.2344 19.0564 43.6442 19.2368 43.9383 19.4553C44.241 19.6665 44.4454 19.9012 44.5513 20.1594C44.6658 20.4103 44.7102 20.6832 44.6844 20.9781C44.653 21.3368 44.5172 21.6501 44.2769 21.9182C44.0446 22.187 43.7139 22.3869 43.2849 22.518C42.8645 22.6418 42.3514 22.6773 41.7458 22.6243ZM48.5495 23.0991C48.0714 23.0572 47.6762 22.9383 47.3641 22.7424C47.052 22.5464 46.8306 22.2781 46.6997 21.9374C46.5696 21.5888 46.5262 21.1674 46.5694 20.6733L46.8068 17.9596L45.8624 17.877C45.7828 17.87 45.7175 17.8362 45.6665 17.7755C45.6156 17.7149 45.5937 17.6447 45.6006 17.565L45.6613 16.8716C45.6683 16.7919 45.7021 16.7266 45.7628 16.6757C45.8234 16.6248 45.8936 16.6029 45.9733 16.6098L46.9177 16.6925L47.0913 14.708C47.0983 14.6283 47.1281 14.5627 47.1808 14.5111C47.2415 14.4602 47.3157 14.4386 47.4033 14.4462L48.3716 14.5309C48.4513 14.5379 48.5166 14.5717 48.5675 14.6324C48.6184 14.6931 48.6404 14.7633 48.6334 14.843L48.4598 16.8274L49.9541 16.9581C50.0338 16.9651 50.0991 16.9989 50.15 17.0596C50.2009 17.1202 50.2229 17.1904 50.2159 17.2701L50.1552 17.9635C50.1483 18.0432 50.1145 18.1085 50.0538 18.1594C49.9931 18.2103 49.9229 18.2322 49.8432 18.2253L48.349 18.0945L48.122 20.6886C48.0934 21.0154 48.1269 21.2753 48.2224 21.4683C48.3259 21.6621 48.5211 21.7715 48.808 21.7966L49.6329 21.8688C49.7126 21.8758 49.7779 21.9096 49.8288 21.9703C49.8797 22.0309 49.9017 22.1011 49.8947 22.1808L49.8298 22.922C49.8229 23.0017 49.7891 23.067 49.7284 23.1179C49.6677 23.1688 49.5975 23.1907 49.5178 23.1838L48.5495 23.0991ZM51.1521 23.3268C51.0724 23.3198 51.0071 23.286 50.9562 23.2253C50.9053 23.1646 50.8834 23.0944 50.8903 23.0148L51.3829 17.3843C51.3906 17.2966 51.4248 17.2273 51.4854 17.1764C51.5461 17.1255 51.6163 17.1035 51.696 17.1105L52.6643 17.1952C52.744 17.2022 52.8093 17.236 52.8602 17.2967C52.9191 17.358 52.9447 17.4326 52.937 17.5202L52.8941 18.0103C53.0997 17.7714 53.3519 17.5967 53.6507 17.4863C53.9574 17.3766 54.302 17.3385 54.6846 17.372L55.1747 17.4148C55.2624 17.4225 55.3277 17.4563 55.3706 17.5163C55.4215 17.577 55.4435 17.6472 55.4365 17.7269L55.3612 18.5876C55.3542 18.6673 55.3204 18.7326 55.2597 18.7835C55.207 18.8351 55.1369 18.857 55.0492 18.8494L54.1168 18.7678C53.7342 18.7343 53.4259 18.8158 53.1919 19.0121C52.9659 19.2092 52.8365 19.495 52.8037 19.8695L52.5161 23.157C52.5091 23.2367 52.4753 23.302 52.4147 23.3529C52.354 23.4038 52.2798 23.4254 52.1922 23.4177L51.1521 23.3268ZM56.7751 26.1074C56.7113 26.1018 56.6576 26.073 56.614 26.021C56.5704 25.969 56.5513 25.9112 56.5569 25.8474C56.5597 25.8155 56.5625 25.7837 56.5653 25.7518C56.5753 25.7286 56.5941 25.6981 56.6215 25.6603L57.7474 23.5303L55.9259 17.9142C55.901 17.8317 55.89 17.7746 55.8928 17.7427C55.907 17.6717 55.9401 17.6143 55.9921 17.5707C56.0448 17.5191 56.107 17.4964 56.1788 17.5027L57.1471 17.5874C57.2427 17.5958 57.3123 17.626 57.356 17.678C57.3996 17.73 57.4309 17.7849 57.45 17.8428L58.6979 21.8909L60.6776 18.1252C60.7071 18.0635 60.7475 18.0148 60.7988 17.9792C60.8508 17.9355 60.9246 17.9179 61.0203 17.9263L61.9766 18.0099C62.0404 18.0155 62.0941 18.0443 62.1377 18.0963C62.1893 18.149 62.2123 18.2072 62.2067 18.271C62.2026 18.3188 62.181 18.3812 62.1422 18.4581L58.0741 25.9922C58.0366 26.0532 57.9922 26.1015 57.9409 26.1371C57.8889 26.1808 57.8151 26.1984 57.7195 26.19L56.7751 26.1074ZM62.9629 21.4329C62.8752 21.4253 62.8059 21.3911 62.755 21.3304C62.7121 21.2704 62.6941 21.2006 62.701 21.1209L62.7701 20.3319C62.777 20.2522 62.8069 20.1866 62.8596 20.135C62.9203 20.0841 62.9944 20.0625 63.0821 20.0701L66.7521 20.3912C66.8318 20.3982 66.8971 20.432 66.948 20.4927C66.9989 20.5533 67.0208 20.6235 67.0139 20.7032L66.9448 21.4922C66.9379 21.5719 66.904 21.6372 66.8434 21.6881C66.7827 21.739 66.7125 21.761 66.6328 21.754L62.9629 21.4329ZM68.5733 24.8509C68.4936 24.8439 68.4283 24.8101 68.3774 24.7495C68.3265 24.6888 68.3046 24.6186 68.3115 24.5389L68.9924 16.7566C69.0001 16.669 69.0342 16.5997 69.0949 16.5488C69.1556 16.4979 69.2257 16.4759 69.3054 16.4829L72.5092 16.7632C73.1308 16.8176 73.664 16.9646 74.1088 17.2043C74.5543 17.436 74.8872 17.7622 75.1073 18.183C75.3282 18.5958 75.4128 19.0971 75.3612 19.6869C75.3089 20.2846 75.1382 20.7675 74.849 21.1357C74.5605 21.496 74.1768 21.7515 73.6978 21.9023C73.2189 22.0532 72.6686 22.1014 72.0469 22.047L70.2657 21.8912L70.021 24.6885C70.014 24.7682 69.9802 24.8335 69.9195 24.8844C69.8668 24.936 69.7967 24.9579 69.709 24.9503L68.5733 24.8509ZM70.3579 20.5621L72.1033 20.7148C72.5655 20.7553 72.9295 20.6787 73.1954 20.4851C73.462 20.2836 73.6141 19.9677 73.6518 19.5373C73.6866 19.1388 73.599 18.8099 73.3888 18.5506C73.1793 18.2834 72.8275 18.1281 72.3333 18.0849L70.588 17.9322L70.3579 20.5621ZM76.3099 25.5278C76.2302 25.5208 76.1649 25.487 76.114 25.4263C76.0631 25.3657 76.0412 25.2955 76.0481 25.2158L76.5407 19.5853C76.5484 19.4976 76.5826 19.4283 76.6432 19.3774C76.7039 19.3265 76.7741 19.3046 76.8538 19.3115L77.8221 19.3962C77.9018 19.4032 77.9671 19.437 78.018 19.4977C78.0769 19.5591 78.1025 19.6336 78.0948 19.7212L78.0519 20.2114C78.2575 19.9724 78.5097 19.7977 78.8085 19.6873C79.1152 19.5776 79.4598 19.5395 79.8424 19.573L80.3325 19.6159C80.4202 19.6235 80.4855 19.6574 80.5284 19.7173C80.5793 19.778 80.6013 19.8482 80.5943 19.9279L80.519 20.7886C80.512 20.8683 80.4782 20.9336 80.4175 20.9845C80.3648 21.0361 80.2947 21.0581 80.207 21.0504L79.2746 20.9688C78.892 20.9353 78.5838 21.0168 78.3497 21.2131C78.1237 21.4102 77.9943 21.696 77.9615 22.0706L77.6739 25.358C77.667 25.4377 77.6331 25.503 77.5725 25.5539C77.5118 25.6048 77.4376 25.6264 77.35 25.6188L76.3099 25.5278ZM83.5935 26.2855C82.7089 26.2081 82.0299 25.8917 81.5565 25.3363C81.0831 24.7809 80.8676 24.0313 80.91 23.0874C80.909 23.007 80.9137 22.9071 80.9242 22.7875C80.9354 22.66 80.9481 22.5607 80.9623 22.4897C81.0465 21.8948 81.2273 21.3886 81.5047 20.9712C81.7901 20.5545 82.1581 20.2494 82.6087 20.0559C83.06 19.8545 83.5765 19.7792 84.1583 19.8301C84.8038 19.8866 85.3339 20.0695 85.7485 20.3788C86.1638 20.6802 86.4621 21.0797 86.6434 21.5774C86.8254 22.0671 86.8893 22.6228 86.8349 23.2444L86.8129 23.4954C86.8059 23.5751 86.7721 23.6404 86.7115 23.6913C86.6508 23.7422 86.5766 23.7639 86.489 23.7562L82.5201 23.409C82.5201 23.409 82.5191 23.4209 82.517 23.4448C82.5149 23.4687 82.5131 23.4887 82.5117 23.5046C82.4953 23.7842 82.5245 24.0478 82.5992 24.2952C82.6826 24.5354 82.8136 24.7356 82.9923 24.8958C83.179 25.0567 83.4078 25.149 83.6788 25.1727C83.902 25.1922 84.092 25.1767 84.249 25.1262C84.4067 25.0677 84.5372 24.9988 84.6405 24.9195C84.7438 24.8402 84.8178 24.7744 84.8626 24.7221C84.9427 24.6328 85.0033 24.5819 85.0446 24.5694C85.0945 24.5497 85.1633 24.5437 85.2509 24.5513L86.279 24.6413C86.3587 24.6482 86.4204 24.6777 86.464 24.7297C86.5156 24.7824 86.5343 24.8443 86.52 24.9153C86.5009 25.0421 86.4196 25.1916 86.276 25.3638C86.1405 25.5366 85.9494 25.7006 85.703 25.8557C85.4565 26.0108 85.1527 26.1328 84.7916 26.2216C84.4392 26.3032 84.0398 26.3245 83.5935 26.2855ZM82.608 22.4048L85.2499 22.6359L85.253 22.6001C85.2802 22.2893 85.2521 22.0138 85.1687 21.7736C85.0853 21.5334 84.95 21.3369 84.7626 21.1839C84.5752 21.031 84.342 20.9424 84.0631 20.918C83.7842 20.8936 83.5391 20.9404 83.328 21.0584C83.117 21.1765 82.9495 21.3465 82.8257 21.5686C82.7098 21.7913 82.6383 22.0581 82.6111 22.3689L82.608 22.4048ZM87.9258 28.8327C87.8461 28.8258 87.7808 28.7919 87.7298 28.7313C87.6789 28.6706 87.657 28.6004 87.6639 28.5207L88.3563 20.607C88.3633 20.5273 88.3971 20.462 88.4578 20.4111C88.5184 20.3602 88.5886 20.3382 88.6683 20.3452L89.6127 20.4278C89.7004 20.4355 89.7657 20.4693 89.8086 20.5292C89.8595 20.5899 89.8815 20.6601 89.8745 20.7398L89.8327 21.218C90.0463 20.9797 90.3158 20.7904 90.6412 20.6503C90.9667 20.5101 91.3605 20.4602 91.8228 20.5007C92.2452 20.5376 92.6058 20.6375 92.9048 20.8001C93.2037 20.9628 93.4457 21.1807 93.6306 21.4539C93.8162 21.7191 93.9498 22.0279 94.0314 22.3803C94.1129 22.7328 94.1436 23.1169 94.1233 23.5327C94.1194 23.6689 94.1112 23.8087 94.0986 23.9522C94.0861 24.0956 94.0695 24.2387 94.049 24.3815C94.0062 24.7793 93.914 25.1446 93.7724 25.4775C93.6316 25.8025 93.4424 26.0831 93.2049 26.3193C92.9761 26.5482 92.7 26.7208 92.3766 26.8371C92.0533 26.9533 91.6804 26.993 91.258 26.956C90.8276 26.9184 90.4677 26.8106 90.1781 26.6327C89.8892 26.4468 89.6602 26.218 89.4913 25.9462L89.2539 28.6598C89.2469 28.7395 89.2131 28.8048 89.1524 28.8557C89.0997 28.9073 89.0295 28.9293 88.9419 28.9216L87.9258 28.8327ZM90.9276 25.6382C91.2703 25.6682 91.5435 25.6198 91.7474 25.4931C91.9519 25.3584 92.1044 25.175 92.2051 24.9429C92.3136 24.7115 92.3885 24.453 92.4295 24.1675C92.4663 23.9298 92.4873 23.6907 92.4922 23.4503C92.5014 23.162 92.4726 22.8944 92.4059 22.6477C92.3471 22.4016 92.2283 22.1985 92.0496 22.0383C91.8716 21.8701 91.6112 21.7711 91.2685 21.7411C90.9418 21.7125 90.6682 21.7649 90.4477 21.8982C90.2353 22.0321 90.0707 22.2145 89.9542 22.4452C89.8463 22.6687 89.7736 22.9032 89.736 23.1489C89.7155 23.2916 89.6983 23.4427 89.6843 23.6021C89.6704 23.7615 89.6608 23.9173 89.6555 24.0694C89.6425 24.3092 89.6781 24.5452 89.7622 24.7774C89.847 25.0016 89.9827 25.1942 90.1694 25.3551C90.3561 25.5159 90.6088 25.6103 90.9276 25.6382ZM96.9633 27.4552C96.5489 27.4189 96.1813 27.3065 95.8605 27.1178C95.5404 26.9211 95.2926 26.6786 95.1171 26.3902C94.9502 26.0945 94.8818 25.7754 94.9118 25.4327C94.9606 24.8748 95.2224 24.452 95.6973 24.1643C96.1808 23.8693 96.7981 23.6985 97.549 23.6517L99.2077 23.5559L99.2296 23.3049C99.2589 22.9702 99.1979 22.7039 99.0466 22.5059C98.8953 22.308 98.6164 22.1912 98.2099 22.1557C97.923 22.1306 97.6827 22.1698 97.4889 22.2733C97.3038 22.3695 97.1591 22.5094 97.0547 22.693C96.9819 22.791 96.8857 22.8348 96.7662 22.8244L95.8218 22.7417C95.7341 22.7341 95.6684 22.7042 95.6248 22.6522C95.5891 22.6009 95.5748 22.5354 95.5818 22.4557C95.6009 22.3289 95.6663 22.1781 95.778 22.0031C95.8896 21.8282 96.0564 21.6661 96.2782 21.5169C96.5008 21.3597 96.7807 21.2356 97.1179 21.1446C97.4551 21.0537 97.8548 21.0284 98.3171 21.0689C98.8191 21.1128 99.2359 21.2135 99.5675 21.371C99.9077 21.5212 100.172 21.709 100.361 21.9343C100.55 22.1597 100.681 22.416 100.752 22.7033C100.823 22.9906 100.845 23.2896 100.818 23.6005L100.49 27.3541C100.483 27.4338 100.449 27.4991 100.388 27.55C100.327 27.6009 100.257 27.6229 100.178 27.6159L99.2092 27.5312C99.1216 27.5235 99.0523 27.4894 99.0014 27.4287C98.9584 27.3687 98.9404 27.2989 98.9474 27.2192L98.9882 26.753C98.8714 26.8953 98.7193 27.0266 98.5322 27.1467C98.3457 27.2589 98.1211 27.3477 97.8584 27.413C97.6043 27.4711 97.306 27.4852 96.9633 27.4552ZM97.4691 26.3551C97.748 26.3795 98.0043 26.3417 98.2379 26.2416C98.4795 26.1423 98.6748 25.9747 98.824 25.7388C98.9818 25.4956 99.0774 25.1828 99.1109 24.8002L99.1328 24.5492L97.9207 24.6359C97.4442 24.6665 97.0834 24.7514 96.8383 24.8905C96.5933 25.0297 96.4606 25.2148 96.4404 25.446C96.4251 25.6213 96.4636 25.7772 96.5561 25.9138C96.6572 26.0431 96.7887 26.147 96.9504 26.2254C97.1129 26.2958 97.2858 26.339 97.4691 26.3551ZM102.285 27.8003C102.205 27.7933 102.14 27.7595 102.089 27.6988C102.038 27.6382 102.016 27.568 102.023 27.4883L102.516 21.8578C102.523 21.7701 102.558 21.7008 102.618 21.6499C102.679 21.599 102.749 21.5771 102.829 21.584L103.797 21.6688C103.877 21.6757 103.942 21.7096 103.993 21.7702C104.052 21.8316 104.077 21.9061 104.07 21.9938L104.027 22.4839C104.233 22.2449 104.485 22.0702 104.783 21.9598C105.09 21.8502 105.435 21.812 105.817 21.8455L106.308 21.8884C106.395 21.8961 106.46 21.9299 106.503 21.9899C106.554 22.0505 106.576 22.1207 106.569 22.2004L106.494 23.0611C106.487 23.1408 106.453 23.2061 106.393 23.257C106.34 23.3086 106.27 23.3306 106.182 23.3229L105.25 23.2413C104.867 23.2079 104.559 23.2893 104.325 23.4857C104.099 23.6827 103.969 23.9685 103.937 24.3431L103.649 27.6305C103.642 27.7102 103.608 27.7755 103.547 27.8264C103.487 27.8773 103.413 27.899 103.325 27.8913L102.285 27.8003ZM109.568 28.558C108.684 28.4806 108.005 28.1642 107.531 27.6088C107.058 27.0535 106.843 26.3038 106.885 25.3599C106.884 25.2795 106.889 25.1796 106.899 25.06C106.91 24.9325 106.923 24.8332 106.937 24.7622C107.021 24.1673 107.202 23.6611 107.48 23.2437C107.765 22.827 108.133 22.5219 108.584 22.3284C109.035 22.127 109.551 22.0517 110.133 22.1026C110.779 22.1591 111.309 22.342 111.723 22.6513C112.139 22.9527 112.437 23.3522 112.618 23.8499C112.8 24.3396 112.864 24.8953 112.81 25.5169L112.788 25.768C112.781 25.8477 112.747 25.913 112.686 25.9639C112.626 26.0148 112.552 26.0364 112.464 26.0287L108.495 25.6815C108.495 25.6815 108.494 25.6934 108.492 25.7174C108.49 25.7413 108.488 25.7612 108.487 25.7771C108.47 26.0568 108.499 26.3203 108.574 26.5678C108.658 26.8079 108.789 27.0081 108.967 27.1683C109.154 27.3292 109.383 27.4215 109.654 27.4452C109.877 27.4647 110.067 27.4492 110.224 27.3987C110.382 27.3402 110.512 27.2713 110.616 27.192C110.719 27.1127 110.793 27.0469 110.838 26.9946C110.918 26.9053 110.978 26.8544 111.02 26.8419C111.069 26.8222 111.138 26.8162 111.226 26.8238L112.254 26.9138C112.334 26.9208 112.395 26.9502 112.439 27.0022C112.491 27.0549 112.509 27.1168 112.495 27.1878C112.476 27.3147 112.395 27.4641 112.251 27.6363C112.115 27.8091 111.924 27.9731 111.678 28.1282C111.432 28.2833 111.128 28.4053 110.767 28.4942C110.414 28.5758 110.015 28.597 109.568 28.558ZM108.583 24.6773L111.225 24.9085L111.228 24.8726C111.255 24.5618 111.227 24.2863 111.144 24.0461C111.06 23.8059 110.925 23.6094 110.738 23.4565C110.55 23.3035 110.317 23.2149 110.038 23.1905C109.759 23.1661 109.514 23.2129 109.303 23.331C109.092 23.449 108.924 23.6191 108.801 23.8411C108.685 24.0639 108.613 24.3306 108.586 24.6415L108.583 24.6773ZM116.097 29.1292C115.683 29.0929 115.322 28.9931 115.015 28.8297C114.717 28.6591 114.475 28.4372 114.291 28.164C114.106 27.8909 113.972 27.5781 113.891 27.2256C113.81 26.8652 113.78 26.4771 113.8 26.0613C113.805 25.9171 113.812 25.7893 113.821 25.6777C113.832 25.5582 113.847 25.427 113.868 25.2843C113.919 24.8872 114.011 24.5218 114.145 24.1882C114.286 23.8553 114.472 23.5703 114.701 23.3334C114.939 23.0893 115.22 22.9091 115.543 22.7928C115.875 22.6772 116.248 22.6376 116.662 22.6738C117.092 22.7115 117.448 22.8189 117.73 22.9961C118.02 23.1661 118.255 23.3753 118.434 23.6239L118.666 20.97C118.673 20.8903 118.703 20.8247 118.756 20.7731C118.816 20.7222 118.891 20.7006 118.978 20.7082L119.994 20.7971C120.074 20.8041 120.139 20.8379 120.19 20.8986C120.241 20.9593 120.263 21.0294 120.256 21.1091L119.564 29.0229C119.557 29.1026 119.523 29.1679 119.462 29.2188C119.402 29.2697 119.331 29.2917 119.252 29.2847L118.307 29.2021C118.22 29.1944 118.15 29.1602 118.1 29.0996C118.057 29.0396 118.039 28.9698 118.046 28.8901L118.084 28.4478C117.863 28.6774 117.591 28.8583 117.266 28.9905C116.949 29.1234 116.56 29.1696 116.097 29.1292ZM116.652 27.8888C116.986 27.9181 117.26 27.8657 117.472 27.7317C117.685 27.5977 117.849 27.4193 117.965 27.1966C118.081 26.9659 118.154 26.7273 118.184 26.481C118.205 26.3382 118.222 26.1872 118.236 26.0278C118.25 25.8604 118.26 25.7046 118.265 25.5605C118.278 25.3207 118.242 25.0887 118.157 24.8645C118.073 24.6322 117.937 24.4357 117.751 24.2748C117.564 24.1139 117.311 24.0195 116.993 23.9917C116.658 23.9624 116.384 24.0147 116.172 24.1487C115.968 24.2754 115.812 24.4545 115.703 24.6859C115.595 24.9173 115.52 25.1758 115.479 25.4613C115.45 25.6997 115.429 25.9388 115.416 26.1786C115.407 26.4669 115.436 26.7344 115.502 26.9811C115.569 27.2279 115.691 27.4354 115.869 27.6035C116.056 27.7644 116.317 27.8595 116.652 27.8888Z" fill="white"/>
</svg>
