<svg width="159" height="52" viewBox="0 0 159 52" fill="none" xmlns="http://www.w3.org/2000/svg">
<rect x="-14" y="23.0408" width="169.717" height="29" rx="14.5" transform="rotate(-7.80253 -14 23.0408)" fill="#FFCF00"/>
<rect x="-13.4367" y="23.4683" width="168.717" height="28" rx="14" transform="rotate(-7.80253 -13.4367 23.4683)" stroke="black" stroke-opacity="0.05"/>
<path d="M12.2979 38.6146C12.2186 38.6255 12.1474 38.6069 12.0843 38.5591C12.0213 38.5112 11.9843 38.4476 11.9734 38.3684L10.9129 30.6287C10.9009 30.5415 10.9189 30.4664 10.9668 30.4033C11.0146 30.3402 11.0782 30.3032 11.1575 30.2924L12.2037 30.149C12.2909 30.1371 12.366 30.155 12.4291 30.2029C12.4922 30.2508 12.5297 30.3183 12.5416 30.4055L12.9229 33.1875L15.2171 29.9541C15.2434 29.9101 15.289 29.8595 15.3538 29.8021C15.4254 29.7358 15.5247 29.6939 15.6515 29.6766L16.8285 29.5153C16.8919 29.5066 16.9506 29.5228 17.0047 29.5638C17.0667 29.6038 17.1026 29.6594 17.1124 29.7307C17.12 29.7862 17.1106 29.8359 17.0844 29.8799L14.3069 33.9184L18.3415 37.3746C18.3876 37.4168 18.4145 37.4656 18.4221 37.5211C18.4319 37.5924 18.4123 37.6556 18.3633 37.7108C18.3223 37.7649 18.27 37.7962 18.2066 37.8049L16.9821 37.9727C16.8473 37.9912 16.7365 37.9781 16.6497 37.9335C16.5697 37.8799 16.5161 37.8428 16.4891 37.8223L13.1803 35.0659L13.6022 38.1452C13.6131 38.2244 13.5946 38.2956 13.5467 38.3587C13.4988 38.4218 13.4313 38.4593 13.3441 38.4712L12.2979 38.6146ZM19.667 37.6048C19.5878 37.6157 19.5166 37.5972 19.4535 37.5493C19.3904 37.5014 19.3534 37.4378 19.3426 37.3586L18.5736 31.747C18.5628 31.6678 18.5813 31.5966 18.6292 31.5335C18.6771 31.4704 18.7406 31.4334 18.8199 31.4226L19.7948 31.289C19.874 31.2781 19.9452 31.2966 20.0083 31.3445C20.0714 31.3924 20.1083 31.456 20.1192 31.5352L20.186 32.0227C20.3573 31.7408 20.5901 31.4949 20.8843 31.285C21.1854 31.0661 21.5737 30.9241 22.0493 30.8589C22.5327 30.7927 22.968 30.8461 23.3551 31.0192C23.7411 31.1843 24.0564 31.452 24.3009 31.8222C24.5533 32.1913 24.7176 32.6533 24.7936 33.2081L25.2514 36.5489C25.2622 36.6282 25.2437 36.6993 25.1958 36.7624C25.148 36.8255 25.0844 36.8625 25.0051 36.8733L23.9589 37.0167C23.8797 37.0276 23.8085 37.0091 23.7454 36.9612C23.6823 36.9133 23.6453 36.8497 23.6345 36.7705L23.1865 33.501C23.1235 33.0413 22.9591 32.6964 22.6934 32.4664C22.4357 32.2352 22.0928 32.149 21.6648 32.2076C21.2527 32.2641 20.9416 32.44 20.7318 32.7352C20.5219 33.0304 20.4485 33.4079 20.5115 33.8676L20.9595 37.137C20.9703 37.2163 20.9518 37.2875 20.904 37.3505C20.8561 37.4136 20.7925 37.4506 20.7132 37.4615L19.667 37.6048ZM29.5514 36.3715C28.9173 36.4584 28.3671 36.4207 27.9008 36.2585C27.4424 36.0953 27.0705 35.8273 26.7853 35.4545C26.508 35.0807 26.3165 34.6265 26.211 34.0919C26.1835 33.9503 26.1556 33.7765 26.1274 33.5704C26.0992 33.3643 26.0792 33.1894 26.0676 33.0457C26.0244 32.4944 26.0905 32.0049 26.2661 31.5771C26.4485 31.1403 26.7385 30.7816 27.1361 30.5011C27.5416 30.2194 28.0534 30.0362 28.6717 29.9515C29.2899 29.8668 29.8282 29.9061 30.2866 30.0693C30.7529 30.2315 31.1287 30.499 31.414 30.8717C31.7061 31.2354 31.9054 31.6886 32.0121 32.2311C32.0395 32.3727 32.0674 32.5465 32.0956 32.7526C32.1239 32.9587 32.1438 33.1336 32.1554 33.2773C32.1976 33.8206 32.1314 34.3102 31.957 34.7459C31.7904 35.1805 31.5044 35.5387 31.0989 35.8203C30.7013 36.1009 30.1855 36.2846 29.5514 36.3715ZM29.3901 35.1945C29.8102 35.1369 30.1172 34.9616 30.3112 34.6686C30.5042 34.3676 30.5772 33.9579 30.5304 33.4394C30.522 33.3195 30.5048 33.1644 30.4787 32.9742C30.4527 32.7839 30.4275 32.6299 30.4033 32.5121C30.31 32.0081 30.13 31.6371 29.8632 31.3991C29.5964 31.1611 29.253 31.0709 28.8329 31.1285C28.4129 31.1861 28.1064 31.3653 27.9134 31.6663C27.7205 31.9673 27.6469 32.373 27.6926 32.8836C27.701 33.0035 27.7182 33.1586 27.7443 33.3488C27.7704 33.5391 27.7955 33.6931 27.8197 33.8109C27.9141 34.3228 28.0947 34.6978 28.3614 34.9358C28.6271 35.1658 28.97 35.2521 29.3901 35.1945ZM35.3505 35.4557C35.2396 35.4709 35.1525 35.4546 35.0895 35.4067C35.0264 35.3588 34.969 35.294 34.9175 35.2123L32.4614 29.9288C32.4481 29.8902 32.4392 29.8551 32.4349 29.8234C32.4251 29.7521 32.4408 29.6894 32.4818 29.6353C32.5297 29.5722 32.5853 29.5363 32.6487 29.5276L33.5285 29.4071C33.6236 29.3941 33.7027 29.4115 33.7658 29.4594C33.8278 29.4993 33.866 29.5425 33.8805 29.589L35.5848 33.3646L36.2869 29.2956C36.2951 29.2379 36.3232 29.1776 36.3711 29.1145C36.4179 29.0435 36.4968 29.0004 36.6077 28.9852L37.2022 28.9037C37.3131 28.8885 37.4007 28.9088 37.4649 28.9646C37.528 29.0125 37.5712 29.0631 37.5947 29.1164L39.3655 32.8465L39.9913 28.7516C39.9928 28.703 40.014 28.6516 40.055 28.5976C40.1029 28.5345 40.1744 28.4964 40.2695 28.4834L41.1493 28.3628C41.2206 28.3531 41.2839 28.3727 41.339 28.4216C41.401 28.4616 41.4369 28.5172 41.4467 28.5885C41.451 28.6203 41.448 28.657 41.4376 28.6988L40.4934 34.4482C40.4815 34.5387 40.4477 34.616 40.3919 34.6801C40.344 34.7432 40.2646 34.7824 40.1536 34.7976L39.3809 34.9035C39.2699 34.9187 39.1789 34.9029 39.1079 34.8561C39.0369 34.8093 38.9835 34.7439 38.9478 34.66L37.1966 31.0725L36.4749 34.9989C36.4552 35.0904 36.4174 35.1682 36.3616 35.2324C36.3137 35.2955 36.2303 35.3352 36.1114 35.3515L35.3505 35.4557ZM43.7121 34.31C43.6329 34.3208 43.5617 34.3023 43.4986 34.2544C43.4355 34.2066 43.3986 34.143 43.3877 34.0637L42.3092 26.1933C42.2984 26.114 42.3169 26.0428 42.3648 25.9798C42.4126 25.9167 42.4762 25.8797 42.5555 25.8688L43.5422 25.7336C43.6215 25.7228 43.6927 25.7413 43.7558 25.7892C43.8188 25.837 43.8558 25.9006 43.8667 25.9799L44.9452 33.8503C44.956 33.9296 44.9375 34.0007 44.8896 34.0638C44.8417 34.1269 44.7782 34.1639 44.6989 34.1747L43.7121 34.31ZM49.2407 33.6735C48.3609 33.7941 47.6287 33.636 47.044 33.1993C46.4593 32.7627 46.0831 32.0794 45.9153 31.1496C45.8965 31.0714 45.8789 30.9729 45.8627 30.854C45.8453 30.7272 45.8357 30.6276 45.8338 30.5552C45.7841 29.9564 45.8482 29.4227 46.0263 28.9542C46.2122 28.4846 46.5035 28.1056 46.9 27.8171C47.2954 27.5206 47.7824 27.3328 48.361 27.2535C49.003 27.1655 49.5604 27.2264 50.0333 27.4362C50.505 27.638 50.8845 27.9615 51.1715 28.4066C51.4576 28.8438 51.6429 29.3716 51.7276 29.9898L51.7618 30.2395C51.7727 30.3187 51.7542 30.3899 51.7063 30.453C51.6584 30.5161 51.5909 30.5536 51.5037 30.5655L47.5566 31.1064C47.5566 31.1064 47.5582 31.1183 47.5615 31.142C47.5647 31.1658 47.5675 31.1856 47.5696 31.2015C47.6156 31.4778 47.7024 31.7283 47.8301 31.9531C47.9646 32.1688 48.1368 32.335 48.3465 32.4516C48.5642 32.5671 48.8078 32.6064 49.0773 32.5695C49.2992 32.5391 49.4811 32.4818 49.6231 32.3978C49.7639 32.3058 49.8759 32.2097 49.959 32.1095C50.0422 32.0093 50.0998 31.9287 50.1318 31.8678C50.1901 31.7629 50.238 31.6998 50.2754 31.6786C50.3197 31.6483 50.3855 31.6272 50.4727 31.6152L51.4951 31.4751C51.5744 31.4642 51.641 31.4793 51.6951 31.5204C51.7571 31.5603 51.789 31.6165 51.7909 31.6889C51.8003 31.8168 51.7541 31.9806 51.6523 32.1803C51.5584 32.3789 51.4085 32.5811 51.2025 32.787C50.9966 32.9928 50.7273 33.1791 50.3949 33.3458C50.0693 33.5035 49.6846 33.6127 49.2407 33.6735ZM47.4198 30.1077L50.0472 29.7477L50.0423 29.712C50 29.4029 49.9115 29.1405 49.777 28.9247C49.6424 28.709 49.4669 28.5473 49.2503 28.4398C49.0336 28.3322 48.7866 28.2974 48.5092 28.3354C48.2318 28.3734 48.0033 28.4734 47.8236 28.6353C47.6439 28.7971 47.5183 29.0001 47.4468 29.2441C47.3831 29.4869 47.3725 29.7629 47.4149 30.072L47.4198 30.1077ZM55.7338 32.7838C55.3217 32.8403 54.9478 32.8228 54.6123 32.7315C54.2837 32.6312 53.9989 32.4684 53.7581 32.243C53.5173 32.0176 53.318 31.7421 53.1604 31.4165C53.0016 31.083 52.8861 30.7112 52.8137 30.3012C52.7863 30.1596 52.7649 30.0334 52.7497 29.9224C52.7334 29.8035 52.7195 29.6722 52.7079 29.5284C52.6694 29.13 52.6783 28.7533 52.7347 28.3983C52.7989 28.0423 52.9167 27.7234 53.088 27.4415C53.2662 27.1506 53.5001 26.9127 53.7896 26.7276C54.0871 26.5415 54.4419 26.4202 54.8541 26.3638C55.2821 26.3051 55.653 26.331 55.9669 26.4414C56.2877 26.5428 56.5629 26.6949 56.7925 26.8976L56.4308 24.2582C56.42 24.179 56.4345 24.1083 56.4745 24.0463C56.5224 23.9832 56.5899 23.9457 56.6771 23.9338L57.6876 23.7953C57.7669 23.7844 57.8381 23.803 57.9011 23.8508C57.9642 23.8987 58.0012 23.9623 58.0121 24.0415L59.0905 31.912C59.1014 31.9913 59.0829 32.0624 59.035 32.1255C58.9871 32.1886 58.9236 32.2256 58.8443 32.2364L57.9051 32.3651C57.8179 32.3771 57.7428 32.3591 57.6797 32.3112C57.6245 32.2623 57.5915 32.1982 57.5806 32.1189L57.5204 31.679C57.3559 31.9519 57.13 32.1887 56.8426 32.3896C56.5631 32.5894 56.1935 32.7208 55.7338 32.7838ZM55.9994 31.4514C56.3323 31.4058 56.5875 31.2941 56.765 31.1163C56.9425 30.9386 57.0631 30.7283 57.1267 30.4854C57.1892 30.2346 57.2076 29.9858 57.1819 29.739C57.1702 29.5952 57.1536 29.4441 57.1318 29.2856C57.109 29.1191 57.0839 28.9651 57.0564 28.8236C57.0159 28.5869 56.9295 28.3686 56.7971 28.1687C56.6637 27.9609 56.4881 27.7992 56.2704 27.6837C56.0527 27.5682 55.7853 27.5322 55.4683 27.5756C55.1354 27.6212 54.8802 27.7329 54.7027 27.9106C54.532 28.0794 54.4194 28.2886 54.3648 28.5383C54.3102 28.7881 54.2945 29.0567 54.3177 29.3442C54.3424 29.583 54.375 29.8208 54.4155 30.0575C54.4704 30.3407 54.5578 30.5952 54.6776 30.821C54.7973 31.0468 54.9626 31.222 55.1735 31.3465C55.3912 31.4621 55.6665 31.497 55.9994 31.4514ZM63.8665 34.2129C63.2879 34.2922 62.802 34.2821 62.4089 34.1825C62.0157 34.083 61.6975 33.9409 61.4542 33.7562C61.2108 33.5715 61.027 33.3787 60.9025 33.1777C60.7871 32.9836 60.7173 32.8276 60.6931 32.7098C60.6743 32.6317 60.6883 32.5571 60.7351 32.4861C60.7909 32.4219 60.8584 32.3844 60.9377 32.3735L61.972 32.2318C62.0513 32.2209 62.1168 32.2281 62.1687 32.2533C62.2217 32.2864 62.2706 32.3483 62.3153 32.4391C62.377 32.5356 62.4556 32.6379 62.5512 32.7459C62.6467 32.8539 62.7792 32.9367 62.9486 32.9943C63.1269 33.0586 63.3588 33.0713 63.6441 33.0322C63.9453 32.9909 64.193 32.9126 64.3871 32.7971C64.5812 32.6817 64.7157 32.5139 64.7905 32.2937C64.8732 32.0724 64.8896 31.7795 64.8396 31.4149L64.7289 30.6065C64.5701 30.8624 64.35 31.0823 64.0683 31.2662C63.7946 31.4491 63.4398 31.5704 63.0039 31.6301C62.5759 31.6888 62.1981 31.6719 61.8705 31.5795C61.5418 31.4792 61.2576 31.3203 61.0179 31.1028C60.7771 30.8775 60.5778 30.602 60.4202 30.2763C60.2704 29.9496 60.1594 29.5813 60.0871 29.1713C60.0498 28.9584 60.0205 28.7444 59.9991 28.5293C59.9606 28.1309 59.9696 27.7542 60.0259 27.3992C60.0823 27.0443 60.1961 26.7259 60.3674 26.444C60.5456 26.1531 60.7794 25.9152 61.069 25.7302C61.3585 25.5451 61.7173 25.4233 62.1453 25.3647C62.5971 25.3028 62.9895 25.3378 63.3225 25.4698C63.6544 25.5939 63.9368 25.7692 64.1697 25.9957L64.1046 25.5201C64.0926 25.4329 64.1106 25.3578 64.1585 25.2947C64.2063 25.2316 64.2699 25.1947 64.3492 25.1838L65.3122 25.0518C65.3914 25.041 65.4626 25.0595 65.5257 25.1074C65.5888 25.1552 65.6263 25.2228 65.6382 25.31L66.4354 31.0388C66.5136 31.6095 66.4739 32.1155 66.3164 32.557C66.1588 32.9985 65.8773 33.36 65.4718 33.6417C65.0753 33.9302 64.5402 34.1206 63.8665 34.2129ZM63.2711 30.3096C63.596 30.2651 63.8478 30.1579 64.0264 29.9881C64.205 29.8183 64.3261 29.6119 64.3897 29.369C64.4534 29.1262 64.4768 28.8847 64.4601 28.6448C64.4539 28.5407 64.4399 28.4093 64.4182 28.2508C64.3965 28.0923 64.3751 27.966 64.3542 27.872C64.3047 27.6285 64.2171 27.4023 64.0916 27.1934C63.965 26.9766 63.7929 26.8104 63.5752 26.6949C63.3564 26.5714 63.0845 26.532 62.7595 26.5765C62.4346 26.621 62.1833 26.7322 62.0058 26.9099C61.8272 27.0797 61.7106 27.2895 61.656 27.5392C61.6093 27.7879 61.5976 28.0559 61.6209 28.3434C61.6311 28.5358 61.6577 28.73 61.7007 28.926C61.7546 29.2012 61.838 29.4563 61.9509 29.6911C62.0707 29.9169 62.2394 30.0876 62.4571 30.2031C62.6748 30.3187 62.9461 30.3541 63.2711 30.3096ZM70.7197 30.7303C69.8399 30.8508 69.1077 30.6928 68.523 30.2561C67.9383 29.8195 67.562 29.1362 67.3942 28.2064C67.3755 28.1282 67.3579 28.0297 67.3416 27.9108C67.3243 27.784 67.3146 27.6844 67.3128 27.6119C67.263 27.0131 67.3272 26.4795 67.5052 26.011C67.6912 25.5414 67.9824 25.1623 68.3789 24.8738C68.7744 24.5774 69.2614 24.3896 69.84 24.3103C70.482 24.2223 71.0394 24.2832 71.5122 24.4929C71.984 24.6948 72.3634 25.0183 72.6505 25.4634C72.9365 25.9006 73.1219 26.4283 73.2066 27.0466L73.2408 27.2962C73.2517 27.3755 73.2332 27.4467 73.1853 27.5097C73.1374 27.5728 73.0699 27.6103 72.9827 27.6223L69.0356 28.1632C69.0356 28.1632 69.0372 28.175 69.0405 28.1988C69.0437 28.2226 69.0464 28.2424 69.0486 28.2583C69.0945 28.5346 69.1814 28.7851 69.3091 29.0099C69.4436 29.2256 69.6157 29.3918 69.8255 29.5084C70.0432 29.6239 70.2868 29.6632 70.5563 29.6263C70.7782 29.5958 70.9601 29.5386 71.102 29.4546C71.2428 29.3626 71.3548 29.2665 71.438 29.1663C71.5212 29.0661 71.5788 28.9855 71.6108 28.9246C71.6691 28.8197 71.717 28.7566 71.7544 28.7353C71.7987 28.7051 71.8645 28.6839 71.9516 28.672L72.9741 28.5319C73.0534 28.521 73.12 28.5361 73.1741 28.5771C73.2361 28.6171 73.268 28.6733 73.2699 28.7457C73.2793 28.8736 73.2331 29.0374 73.1313 29.2371C73.0374 29.4357 72.8874 29.6379 72.6815 29.8438C72.4755 30.0496 72.2063 30.2359 71.8739 30.4026C71.5483 30.5602 71.1635 30.6695 70.7197 30.7303ZM68.8987 27.1645L71.5262 26.8045L71.5213 26.7688C71.4789 26.4597 71.3905 26.1973 71.256 25.9815C71.1214 25.7658 70.9458 25.6041 70.7292 25.4965C70.5126 25.389 70.2656 25.3542 69.9882 25.3922C69.7108 25.4302 69.4823 25.5301 69.3026 25.692C69.1229 25.8539 68.9973 26.0569 68.9257 26.3008C68.8621 26.5437 68.8515 26.8197 68.8938 27.1288L68.8987 27.1645ZM78.0467 29.6052C77.9675 29.616 77.8963 29.5975 77.8332 29.5496C77.7701 29.5018 77.7332 29.4382 77.7223 29.3589L76.6617 21.6192C76.6498 21.5321 76.6678 21.4569 76.7156 21.3938C76.7635 21.3308 76.8271 21.2938 76.9064 21.2829L82.1375 20.5661C82.2247 20.5542 82.2998 20.5721 82.3629 20.62C82.426 20.6679 82.4635 20.7354 82.4754 20.8226L82.5829 21.6073C82.5938 21.6865 82.5753 21.7577 82.5274 21.8208C82.4795 21.8839 82.412 21.9214 82.3248 21.9333L78.4134 22.4693L78.7017 24.5737L82.3516 24.0735C82.4388 24.0616 82.5139 24.0795 82.577 24.1274C82.639 24.1674 82.676 24.2309 82.6879 24.3181L82.7889 25.0552C82.8009 25.1424 82.7829 25.2176 82.735 25.2806C82.6861 25.3358 82.618 25.3694 82.5308 25.3813L78.8809 25.8814L79.1791 28.0571L83.1856 27.5081C83.2728 27.4961 83.3479 27.5141 83.411 27.562C83.4741 27.6099 83.5116 27.6774 83.5236 27.7646L83.6311 28.5493C83.6419 28.6285 83.6234 28.6997 83.5756 28.7628C83.5277 28.8259 83.4601 28.8634 83.373 28.8753L78.0467 29.6052ZM85.2998 28.6113C85.2205 28.6221 85.1494 28.6036 85.0863 28.5558C85.0232 28.5079 84.9862 28.4443 84.9754 28.3651L84.2064 22.7535C84.1956 22.6742 84.2141 22.6031 84.262 22.54C84.3098 22.4769 84.3734 22.4399 84.4527 22.4291L85.38 22.302C85.4593 22.2911 85.5304 22.3096 85.5935 22.3575C85.6566 22.4054 85.6936 22.469 85.7044 22.5482L85.7598 22.9524C85.8959 22.7077 86.0923 22.491 86.349 22.3024C86.6126 22.1048 86.9381 21.9754 87.3254 21.9143C88.2268 21.7746 88.9052 22.041 89.3607 22.7134C89.4996 22.3714 89.7264 22.0819 90.0411 21.845C90.3627 21.599 90.7335 21.4473 91.1536 21.3897C91.5657 21.3332 91.9513 21.3773 92.3103 21.5219C92.6771 21.6654 92.9823 21.9184 93.2257 22.2807C93.476 22.6339 93.6413 23.1039 93.7217 23.6904L94.1893 27.1025C94.2001 27.1817 94.1816 27.2529 94.1337 27.316C94.0859 27.3791 94.0223 27.4161 93.943 27.4269L92.9681 27.5605C92.8889 27.5714 92.8177 27.5529 92.7546 27.505C92.6915 27.4571 92.6546 27.3935 92.6437 27.3143L92.1892 23.9973C92.1403 23.6406 92.0502 23.3663 91.919 23.1743C91.7866 22.9745 91.6273 22.8429 91.4409 22.7796C91.2546 22.7163 91.0545 22.6993 90.8405 22.7286C90.6661 22.7525 90.4977 22.82 90.3353 22.9311C90.1729 23.0422 90.0508 23.2123 89.9692 23.4415C89.8865 23.6628 89.8695 23.9518 89.9184 24.3084L90.3729 27.6254C90.3838 27.7047 90.3653 27.7759 90.3174 27.8389C90.2695 27.902 90.206 27.939 90.1267 27.9499L89.1518 28.0835C89.0646 28.0954 88.9895 28.0774 88.9264 28.0296C88.8712 27.9806 88.8382 27.9165 88.8274 27.8372L88.3728 24.5202C88.324 24.1635 88.2299 23.8898 88.0907 23.6989C87.9504 23.5001 87.7871 23.3691 87.6008 23.3058C87.4145 23.2425 87.2223 23.2244 87.0241 23.2516C86.8418 23.2766 86.67 23.3485 86.5087 23.4675C86.3463 23.5786 86.2237 23.7448 86.141 23.9661C86.0582 24.1874 86.0413 24.4763 86.0902 24.833L86.5447 28.15C86.5556 28.2293 86.5371 28.3004 86.4892 28.3635C86.4413 28.4266 86.3777 28.4636 86.2985 28.4744L85.2998 28.6113ZM96.3491 29.3985C96.2698 29.4094 96.1987 29.3909 96.1356 29.343C96.0725 29.2951 96.0355 29.2316 96.0247 29.1523L94.9462 21.2818C94.9353 21.2026 94.9538 21.1314 95.0017 21.0683C95.0496 21.0052 95.1132 20.9683 95.1924 20.9574L96.1316 20.8287C96.2188 20.8168 96.29 20.8353 96.3452 20.8842C96.4082 20.9321 96.4452 20.9957 96.4561 21.0749L96.5212 21.5505C96.6767 21.2708 96.8976 21.0266 97.1839 20.8178C97.4702 20.609 97.8432 20.4731 98.3029 20.4101C98.723 20.3525 99.0968 20.3699 99.4244 20.4623C99.752 20.5547 100.036 20.7136 100.277 20.939C100.517 21.1564 100.715 21.428 100.873 21.7536C101.031 22.0792 101.146 22.447 101.218 22.857C101.244 22.9906 101.267 23.1288 101.287 23.2714C101.307 23.4141 101.322 23.5573 101.334 23.7011C101.38 24.0984 101.371 24.4751 101.307 24.8312C101.242 25.1793 101.119 25.4948 100.94 25.7777C100.768 26.0517 100.537 26.2812 100.247 26.4662C99.9575 26.6512 99.6027 26.7725 99.1826 26.8301C98.7546 26.8887 98.3797 26.8634 98.0579 26.7541C97.735 26.6368 97.4611 26.4644 97.2361 26.2368L97.6059 28.9356C97.6167 29.0149 97.5982 29.0861 97.5504 29.1491C97.5104 29.2111 97.4468 29.2481 97.3597 29.2601L96.3491 29.3985ZM98.5684 25.6182C98.9092 25.5715 99.165 25.4638 99.3357 25.2951C99.5053 25.1184 99.6134 24.9058 99.6601 24.6571C99.7147 24.4074 99.7303 24.1388 99.7071 23.8513C99.6904 23.6113 99.6578 23.3736 99.6093 23.138C99.5544 22.8548 99.467 22.6003 99.3473 22.3745C99.2354 22.1476 99.0746 21.9758 98.8649 21.8592C98.654 21.7347 98.3782 21.6958 98.0373 21.7425C97.7124 21.787 97.4572 21.8987 97.2717 22.0775C97.0942 22.2552 96.9742 22.4695 96.9117 22.7203C96.856 22.9621 96.837 23.207 96.8549 23.4548C96.8665 23.5986 96.8832 23.7497 96.9049 23.9082C96.9266 24.0668 96.9517 24.2208 96.9803 24.3703C97.0208 24.607 97.1078 24.8292 97.2412 25.037C97.3736 25.2369 97.5486 25.3946 97.7663 25.5101C97.984 25.6256 98.2514 25.6617 98.5684 25.6182ZM105.796 25.9239C105.162 26.0107 104.612 25.9731 104.145 25.8109C103.687 25.6476 103.315 25.3796 103.03 25.0069C102.753 24.6331 102.561 24.1789 102.456 23.6442C102.428 23.5027 102.4 23.3288 102.372 23.1228C102.344 22.9167 102.324 22.7418 102.312 22.598C102.269 22.0468 102.335 21.5573 102.511 21.1295C102.693 20.6927 102.983 20.334 103.381 20.0534C103.786 19.7718 104.298 19.5886 104.916 19.5039C105.534 19.4191 106.073 19.4584 106.531 19.6217C106.997 19.7839 107.373 20.0514 107.659 20.4241C107.951 20.7878 108.15 21.2409 108.257 21.7835C108.284 21.9251 108.312 22.0989 108.34 22.305C108.368 22.511 108.388 22.6859 108.4 22.8297C108.442 23.373 108.376 23.8625 108.202 24.2982C108.035 24.7329 107.749 25.091 107.343 25.3727C106.946 25.6532 106.43 25.837 105.796 25.9239ZM105.635 24.7469C106.055 24.6893 106.362 24.514 106.556 24.2209C106.749 23.92 106.822 23.5103 106.775 22.9918C106.767 22.8718 106.749 22.7167 106.723 22.5265C106.697 22.3363 106.672 22.1823 106.648 22.0645C106.555 21.5605 106.375 21.1895 106.108 20.9515C105.841 20.7135 105.498 20.6233 105.077 20.6809C104.657 20.7384 104.351 20.9177 104.158 21.2187C103.965 21.5196 103.891 21.9254 103.937 22.4359C103.946 22.5559 103.963 22.711 103.989 22.9012C104.015 23.0914 104.04 23.2454 104.064 23.3632C104.159 23.8752 104.339 24.2501 104.606 24.4881C104.872 24.7182 105.215 24.8044 105.635 24.7469ZM111.595 25.0081C111.484 25.0233 111.397 25.007 111.334 24.9591C111.271 24.9112 111.214 24.8464 111.162 24.7646L108.706 19.4811C108.693 19.4426 108.684 19.4075 108.679 19.3758C108.67 19.3044 108.685 19.2417 108.726 19.1877C108.774 19.1246 108.83 19.0887 108.893 19.08L109.773 18.9595C109.868 18.9464 109.947 18.9638 110.01 19.0117C110.072 19.0517 110.111 19.0949 110.125 19.1414L111.829 22.9169L112.531 18.8479C112.54 18.7903 112.568 18.7299 112.616 18.6668C112.662 18.5958 112.741 18.5527 112.852 18.5375L113.447 18.4561C113.558 18.4409 113.645 18.4612 113.709 18.517C113.773 18.5648 113.816 18.6154 113.839 18.6687L115.61 22.3989L116.236 18.304C116.237 18.2554 116.259 18.204 116.3 18.1499C116.347 18.0868 116.419 18.0488 116.514 18.0357L117.394 17.9152C117.465 17.9054 117.528 17.925 117.584 17.974C117.646 18.0139 117.681 18.0696 117.691 18.1409C117.696 18.1726 117.693 18.2094 117.682 18.2512L116.738 24.0006C116.726 24.091 116.692 24.1683 116.636 24.2325C116.589 24.2956 116.509 24.3347 116.398 24.3499L115.625 24.4558C115.514 24.471 115.423 24.4552 115.352 24.4084C115.281 24.3617 115.228 24.2963 115.192 24.2124L113.441 20.6249L112.719 24.5512C112.7 24.6428 112.662 24.7206 112.606 24.7848C112.558 24.8479 112.475 24.8875 112.356 24.9038L111.595 25.0081ZM122.165 23.6809C121.285 23.8014 120.553 23.6434 119.968 23.2067C119.383 22.77 119.007 22.0868 118.839 21.157C118.821 21.0788 118.803 20.9803 118.787 20.8614C118.769 20.7346 118.76 20.6349 118.758 20.5625C118.708 19.9637 118.772 19.4301 118.95 18.9616C119.136 18.492 119.427 18.1129 119.824 17.8244C120.219 17.528 120.706 17.3402 121.285 17.2609C121.927 17.1729 122.484 17.2338 122.957 17.4435C123.429 17.6454 123.808 17.9688 124.096 18.414C124.382 18.8512 124.567 19.3789 124.652 19.9972L124.686 20.2468C124.697 20.3261 124.678 20.3973 124.63 20.4603C124.582 20.5234 124.515 20.5609 124.428 20.5729L120.481 21.1137C120.481 21.1137 120.482 21.1256 120.486 21.1494C120.489 21.1732 120.491 21.193 120.494 21.2089C120.54 21.4852 120.626 21.7357 120.754 21.9605C120.889 22.1762 121.061 22.3424 121.271 22.459C121.488 22.5745 121.732 22.6138 122.001 22.5768C122.223 22.5464 122.405 22.4892 122.547 22.4052C122.688 22.3132 122.8 22.2171 122.883 22.1169C122.966 22.0167 123.024 21.9361 123.056 21.8752C123.114 21.7703 123.162 21.7072 123.199 21.6859C123.244 21.6556 123.31 21.6345 123.397 21.6226L124.419 21.4825C124.498 21.4716 124.565 21.4867 124.619 21.5277C124.681 21.5677 124.713 21.6239 124.715 21.6963C124.724 21.8242 124.678 21.988 124.576 22.1877C124.482 22.3862 124.332 22.5885 124.127 22.7943C123.921 23.0002 123.651 23.1865 123.319 23.3532C122.993 23.5108 122.609 23.6201 122.165 23.6809ZM120.344 20.1151L122.971 19.755L122.966 19.7194C122.924 19.4103 122.836 19.1478 122.701 18.9321C122.566 18.7164 122.391 18.5547 122.174 18.4471C121.958 18.3395 121.711 18.3048 121.433 18.3428C121.156 18.3808 120.927 18.4807 120.748 18.6426C120.568 18.8045 120.442 19.0074 120.371 19.2514C120.307 19.4943 120.297 19.7703 120.339 20.0794L120.344 20.1151ZM126.632 22.9476C126.553 22.9584 126.482 22.9399 126.419 22.892C126.356 22.8442 126.319 22.7806 126.308 22.7013L125.541 17.1017C125.529 17.0145 125.547 16.9393 125.594 16.8763C125.642 16.8132 125.706 16.7762 125.785 16.7653L126.748 16.6334C126.827 16.6225 126.899 16.641 126.962 16.6889C127.033 16.7357 127.074 16.8027 127.086 16.8899L127.153 17.3773C127.3 17.0987 127.508 16.8725 127.775 16.6987C128.049 16.5237 128.377 16.4102 128.757 16.3581L129.245 16.2913C129.332 16.2793 129.403 16.2978 129.458 16.3468C129.521 16.3947 129.558 16.4582 129.569 16.5375L129.687 17.3935C129.697 17.4728 129.679 17.5439 129.631 17.607C129.591 17.669 129.528 17.706 129.44 17.7179L128.513 17.845C128.133 17.8971 127.85 18.0449 127.665 18.2882C127.489 18.5304 127.426 18.8378 127.477 19.2103L127.925 22.4798C127.936 22.559 127.917 22.6302 127.869 22.6933C127.821 22.7564 127.754 22.7939 127.667 22.8058L126.632 22.9476ZM133.903 22.0725C133.023 22.193 132.291 22.0349 131.706 21.5983C131.121 21.1616 130.745 20.4784 130.577 19.5485C130.558 19.4704 130.541 19.3718 130.525 19.2529C130.507 19.1261 130.498 19.0265 130.496 18.9541C130.446 18.3553 130.51 17.8217 130.688 17.3531C130.874 16.8836 131.165 16.5045 131.562 16.216C131.957 15.9196 132.444 15.7317 133.023 15.6524C133.665 15.5645 134.222 15.6254 134.695 15.8351C135.167 16.0369 135.546 16.3604 135.834 16.8056C136.12 17.2428 136.305 17.7705 136.39 18.3887L136.424 18.6384C136.435 18.7176 136.416 18.7888 136.368 18.8519C136.32 18.915 136.253 18.9525 136.166 18.9645L132.219 19.5053C132.219 19.5053 132.22 19.5172 132.223 19.541C132.227 19.5648 132.229 19.5846 132.232 19.6004C132.278 19.8767 132.364 20.1273 132.492 20.352C132.627 20.5678 132.799 20.7339 133.009 20.8505C133.226 20.966 133.47 21.0053 133.739 20.9684C133.961 20.938 134.143 20.8808 134.285 20.7967C134.426 20.7048 134.538 20.6087 134.621 20.5085C134.704 20.4082 134.762 20.3277 134.794 20.2668C134.852 20.1619 134.9 20.0988 134.937 20.0775C134.982 20.0472 135.047 20.0261 135.135 20.0141L136.157 19.874C136.236 19.8632 136.303 19.8783 136.357 19.9193C136.419 19.9593 136.451 20.0154 136.453 20.0879C136.462 20.2158 136.416 20.3796 136.314 20.5792C136.22 20.7778 136.07 20.98 135.864 21.1859C135.659 21.3918 135.389 21.578 135.057 21.7447C134.731 21.9024 134.347 22.0116 133.903 22.0725ZM132.082 18.5066L134.709 18.1466L134.704 18.1109C134.662 17.8018 134.573 17.5394 134.439 17.3237C134.304 17.1079 134.129 16.9463 133.912 16.8387C133.696 16.7311 133.449 16.6963 133.171 16.7343C132.894 16.7723 132.665 16.8723 132.486 17.0342C132.306 17.1961 132.18 17.399 132.109 17.643C132.045 17.8859 132.034 18.1619 132.077 18.471L132.082 18.5066ZM140.396 21.1827C139.984 21.2392 139.61 21.2218 139.274 21.1305C138.946 21.0302 138.661 20.8673 138.42 20.6419C138.179 20.4165 137.98 20.141 137.822 19.8154C137.664 19.4819 137.548 19.1101 137.476 18.7002C137.448 18.5586 137.427 18.4323 137.412 18.3213C137.395 18.2025 137.381 18.0711 137.37 17.9274C137.331 17.5289 137.34 17.1522 137.397 16.7973C137.461 16.4413 137.579 16.1223 137.75 15.8404C137.928 15.5496 138.162 15.3116 138.452 15.1266C138.749 14.9405 139.104 14.8192 139.516 14.7627C139.944 14.7041 140.315 14.7299 140.629 14.8403C140.95 14.9417 141.225 15.0938 141.454 15.2965L141.093 12.6572C141.082 12.5779 141.097 12.5073 141.136 12.4453C141.184 12.3822 141.252 12.3447 141.339 12.3327L142.35 12.1942C142.429 12.1834 142.5 12.2019 142.563 12.2498C142.626 12.2977 142.663 12.3612 142.674 12.4405L143.753 20.3109C143.763 20.3902 143.745 20.4614 143.697 20.5245C143.649 20.5875 143.586 20.6245 143.506 20.6354L142.567 20.7641C142.48 20.776 142.405 20.758 142.342 20.7102C142.286 20.6612 142.253 20.5971 142.243 20.5178L142.182 20.0779C142.018 20.3508 141.792 20.5877 141.505 20.7885C141.225 20.9883 140.855 21.1197 140.396 21.1827ZM140.661 19.8503C140.994 19.8047 141.249 19.693 141.427 19.5153C141.604 19.3375 141.725 19.1272 141.789 18.8843C141.851 18.6335 141.87 18.3847 141.844 18.1379C141.832 17.9942 141.816 17.843 141.794 17.6845C141.771 17.5181 141.746 17.3641 141.718 17.2225C141.678 16.9858 141.591 16.7675 141.459 16.5676C141.326 16.3598 141.15 16.1982 140.932 16.0826C140.715 15.9671 140.447 15.9311 140.13 15.9745C139.797 16.0202 139.542 16.1318 139.365 16.3096C139.194 16.4783 139.081 16.6875 139.027 16.9373C138.972 17.187 138.956 17.4556 138.98 17.7431C139.004 17.982 139.037 18.2198 139.077 18.4564C139.132 18.7396 139.22 18.9941 139.34 19.2199C139.459 19.4458 139.625 19.6209 139.835 19.7455C140.053 19.861 140.328 19.8959 140.661 19.8503Z" fill="#151515"/>
</svg>
