<svg width="417" height="34" viewBox="0 0 417 34" fill="none" xmlns="http://www.w3.org/2000/svg">
<path d="M11.8604 33.3685C9.62178 33.3685 7.64378 32.8778 5.92645 31.8965C4.23978 30.9152 2.92111 29.5352 1.97045 27.7565C1.05045 25.9778 0.590445 23.9078 0.590445 21.5465V12.2545C0.590445 9.89315 1.05045 7.82315 1.97045 6.04449C2.92111 4.26582 4.25511 2.88582 5.97245 1.90449C7.68978 0.923154 9.66778 0.432488 11.9064 0.432488H16.7824C19.0211 0.432488 20.9838 0.923154 22.6704 1.90449C24.3878 2.88582 25.7064 4.26582 26.6264 6.04449C27.5771 7.82315 28.0524 9.89315 28.0524 12.2545V21.5465C28.0524 23.9078 27.5771 25.9778 26.6264 27.7565C25.7064 29.5352 24.3878 30.9152 22.6704 31.8965C20.9531 32.8778 18.9904 33.3685 16.7824 33.3685H11.8604ZM16.6904 29.4585C18.7758 29.4585 20.4624 28.7378 21.7504 27.2965C23.0384 25.8245 23.6824 23.8772 23.6824 21.4545V12.3465C23.6824 9.92382 23.0384 7.99182 21.7504 6.55049C20.4624 5.07849 18.7758 4.34249 16.6904 4.34249H11.9524C9.86711 4.34249 8.18045 5.07849 6.89245 6.55049C5.60445 7.99182 4.96045 9.92382 4.96045 12.3465V21.4545C4.96045 23.8772 5.58911 25.8245 6.84645 27.2965C8.13445 28.7378 9.82111 29.4585 11.9064 29.4585H16.6904ZM38.936 33.3685C36.6974 33.3685 34.888 32.6172 33.508 31.1145C32.1587 29.6118 31.484 27.6338 31.484 25.1805V10.0465H35.762V25.2725C35.762 26.5605 36.084 27.6032 36.728 28.4005C37.372 29.1978 38.2154 29.5965 39.258 29.5965H42.018C43.306 29.5965 44.4867 29.0752 45.56 28.0325C46.6334 26.9898 47.3387 25.6712 47.676 24.0765V10.0465H51.954V33.0005H47.906V29.6885C47.17 30.7618 46.25 31.6512 45.146 32.3565C44.042 33.0312 42.9534 33.3685 41.88 33.3685H38.936ZM56.3987 10.0465H60.4927V13.4045C61.106 12.3925 61.9954 11.5645 63.1607 10.9205C64.3567 10.2765 65.5987 9.95449 66.8867 9.95449H69.2787V13.7725H66.8867C65.016 13.7725 63.5134 14.3552 62.3787 15.5205C61.244 16.6552 60.6767 18.1578 60.6767 20.0285V33.0005H56.3987V10.0465ZM81.6921 0.800486H85.7401L102.76 25.9625V0.800486H107.038V33.0005H103.036L85.9701 7.93049V33.0005H81.6921V0.800486ZM119.722 33.3685C117.023 33.3685 114.846 32.6018 113.19 31.0685C111.565 29.5045 110.752 27.4652 110.752 24.9505V18.6025C110.752 15.9038 111.565 13.7418 113.19 12.1165C114.846 10.4912 117.023 9.67849 119.722 9.67849H123.494C126.101 9.67849 128.201 10.4758 129.796 12.0705C131.391 13.6652 132.188 15.7812 132.188 18.4185V22.7425H115.03V24.9505C115.03 26.3612 115.459 27.4958 116.318 28.3545C117.177 29.2132 118.311 29.6425 119.722 29.6425H123.264C124.644 29.6425 125.763 29.2898 126.622 28.5845C127.481 27.8485 127.91 26.8825 127.91 25.6865H132.096C132.096 27.9865 131.283 29.8418 129.658 31.2525C128.033 32.6632 125.886 33.3685 123.218 33.3685H119.722ZM127.91 19.3385V18.4185C127.91 16.8852 127.496 15.6585 126.668 14.7385C125.871 13.8185 124.813 13.3585 123.494 13.3585H119.722C118.311 13.3585 117.177 13.8492 116.318 14.8305C115.459 15.7812 115.03 17.0538 115.03 18.6485V19.3385H127.91ZM140.627 21.3165L132.301 10.0465H137.177L143.111 18.0965L149.045 10.0465H153.921L145.595 21.3165L154.243 33.0005H149.413L143.111 24.4905L136.809 33.0005H131.979L140.627 21.3165ZM164.717 33.0005C162.203 33.0005 160.378 32.4485 159.243 31.3445C158.139 30.2405 157.587 28.4618 157.587 26.0085V13.7725H153.539V10.0465H157.633V3.10049H161.865V10.0465H167.845V13.7725H161.865V25.9165C161.865 27.1125 162.095 27.9712 162.555 28.4925C163.046 29.0138 163.828 29.2745 164.901 29.2745H167.845V33.0005H164.717ZM191.867 33.3685C189.721 33.3685 187.819 32.8778 186.163 31.8965C184.507 30.9152 183.219 29.5352 182.299 27.7565C181.41 25.9472 180.965 23.8618 180.965 21.5005V12.3005C180.965 9.93915 181.425 7.86915 182.345 6.09049C183.265 4.28115 184.553 2.88582 186.209 1.90449C187.896 0.923154 189.843 0.432488 192.051 0.432488H196.927C199.013 0.432488 200.853 0.892488 202.447 1.81249C204.073 2.70182 205.315 3.95915 206.173 5.58449C207.063 7.20982 207.507 9.08049 207.507 11.1965H203.229C203.229 9.14182 202.647 7.48582 201.481 6.22849C200.347 4.97115 198.829 4.34249 196.927 4.34249H192.051C190.058 4.34249 188.433 5.07849 187.175 6.55049C185.949 8.02249 185.335 9.96982 185.335 12.3925V21.4085C185.335 23.8312 185.933 25.7785 187.129 27.2505C188.325 28.7225 189.905 29.4585 191.867 29.4585H196.835C198.798 29.4585 200.362 28.7685 201.527 27.3885C202.723 25.9778 203.321 24.1378 203.321 21.8685H207.599C207.599 24.1378 207.155 26.1465 206.265 27.8945C205.376 29.6425 204.119 30.9918 202.493 31.9425C200.868 32.8932 198.982 33.3685 196.835 33.3685H191.867ZM218.523 33.3685C215.824 33.3685 213.647 32.5558 211.991 30.9305C210.366 29.3052 209.553 27.1738 209.553 24.5365V18.5565C209.553 15.8885 210.381 13.7418 212.037 12.1165C213.693 10.4912 215.886 9.67849 218.615 9.67849H222.479C225.208 9.67849 227.401 10.4912 229.057 12.1165C230.713 13.7418 231.541 15.8885 231.541 18.5565V24.5365C231.541 27.1738 230.698 29.3052 229.011 30.9305C227.355 32.5558 225.162 33.3685 222.433 33.3685H218.523ZM222.387 29.5965C223.859 29.5965 225.04 29.1212 225.929 28.1705C226.818 27.2198 227.263 25.9472 227.263 24.3525V18.6945C227.263 17.0998 226.818 15.8272 225.929 14.8765C225.07 13.9258 223.92 13.4505 222.479 13.4505H218.615C217.174 13.4505 216.008 13.9258 215.119 14.8765C214.26 15.8272 213.831 17.0998 213.831 18.6945V24.3525C213.831 25.9472 214.26 27.2198 215.119 28.1705C215.978 29.1212 217.128 29.5965 218.569 29.5965H222.387ZM235.067 0.800486H239.345V12.9445C240.05 11.9632 240.939 11.1812 242.013 10.5985C243.086 9.98515 244.144 9.67849 245.187 9.67849H248.315C250.523 9.67849 252.301 10.4145 253.651 11.8865C255.031 13.3585 255.721 15.2905 255.721 17.6825V33.0005H251.443V17.6825C251.443 16.4252 251.121 15.4132 250.477 14.6465C249.833 13.8492 248.989 13.4505 247.947 13.4505H245.003C243.684 13.4505 242.488 13.9565 241.415 14.9685C240.341 15.9498 239.651 17.2378 239.345 18.8325V33.0005H235.067V0.800486ZM267.935 33.3685C265.236 33.3685 263.059 32.5558 261.403 30.9305C259.778 29.3052 258.965 27.1738 258.965 24.5365V18.5565C258.965 15.8885 259.793 13.7418 261.449 12.1165C263.105 10.4912 265.298 9.67849 268.027 9.67849H271.891C274.62 9.67849 276.813 10.4912 278.469 12.1165C280.125 13.7418 280.953 15.8885 280.953 18.5565V24.5365C280.953 27.1738 280.11 29.3052 278.423 30.9305C276.767 32.5558 274.574 33.3685 271.845 33.3685H267.935ZM271.799 29.5965C273.271 29.5965 274.452 29.1212 275.341 28.1705C276.23 27.2198 276.675 25.9472 276.675 24.3525V18.6945C276.675 17.0998 276.23 15.8272 275.341 14.8765C274.482 13.9258 273.332 13.4505 271.891 13.4505H268.027C266.586 13.4505 265.42 13.9258 264.531 14.8765C263.672 15.8272 263.243 17.0998 263.243 18.6945V24.3525C263.243 25.9472 263.672 27.2198 264.531 28.1705C265.39 29.1212 266.54 29.5965 267.981 29.5965H271.799ZM284.479 10.0465H288.573V13.4045C289.186 12.3925 290.075 11.5645 291.241 10.9205C292.437 10.2765 293.679 9.95449 294.967 9.95449H297.359V13.7725H294.967C293.096 13.7725 291.593 14.3552 290.459 15.5205C289.324 16.6552 288.757 18.1578 288.757 20.0285V33.0005H284.479V10.0465ZM308.573 33.0005C306.058 33.0005 304.233 32.4485 303.099 31.3445C301.995 30.2405 301.443 28.4618 301.443 26.0085V13.7725H297.395V10.0465H301.489V3.10049H305.721V10.0465H311.701V13.7725H305.721V25.9165C305.721 27.1125 305.951 27.9712 306.411 28.4925C306.901 29.0138 307.683 29.2745 308.757 29.2745H311.701V33.0005H308.573ZM333.653 4.61849H323.441V0.800486H348.235V4.61849H338.023V33.0005H333.653V4.61849ZM352.332 7.01049C351.443 7.01049 350.722 6.74982 350.17 6.22849C349.618 5.67649 349.342 4.97115 349.342 4.11249C349.342 3.25382 349.618 2.56382 350.17 2.04249C350.722 1.49049 351.443 1.21449 352.332 1.21449C353.221 1.21449 353.927 1.49049 354.448 2.04249C355 2.56382 355.276 3.25382 355.276 4.11249C355.276 4.97115 355 5.67649 354.448 6.22849C353.927 6.74982 353.221 7.01049 352.332 7.01049ZM350.17 10.0465H354.448V33.0005H350.17V10.0465ZM385.226 9.67849C387.342 9.67849 389.028 10.3685 390.286 11.7485C391.543 13.0978 392.172 14.9532 392.172 17.3145V33.0005H387.894V17.2685C387.894 16.1032 387.618 15.1832 387.066 14.5085C386.514 13.8032 385.793 13.4505 384.904 13.4505H382.512C381.346 13.4505 380.365 13.8645 379.568 14.6925C378.801 15.4898 378.31 16.5938 378.096 18.0045V33.0005H373.772V17.4525C373.772 16.1952 373.511 15.2138 372.99 14.5085C372.499 13.8032 371.824 13.4505 370.966 13.4505H368.62C367.454 13.4505 366.442 13.9565 365.584 14.9685C364.725 15.9498 364.188 17.2532 363.974 18.8785V33.0005H359.696V10.0465H363.79V13.1285C364.403 12.0552 365.154 11.2118 366.044 10.5985C366.964 9.98515 367.899 9.67849 368.85 9.67849H371.518C372.744 9.67849 373.802 9.98515 374.692 10.5985C375.612 11.2118 376.332 12.0858 376.854 13.2205C377.528 12.0552 378.356 11.1812 379.338 10.5985C380.319 9.98515 381.377 9.67849 382.512 9.67849H385.226ZM404.378 33.3685C401.68 33.3685 399.502 32.6018 397.846 31.0685C396.221 29.5045 395.408 27.4652 395.408 24.9505V18.6025C395.408 15.9038 396.221 13.7418 397.846 12.1165C399.502 10.4912 401.68 9.67849 404.378 9.67849H408.15C410.757 9.67849 412.858 10.4758 414.452 12.0705C416.047 13.6652 416.844 15.7812 416.844 18.4185V22.7425H399.686V24.9505C399.686 26.3612 400.116 27.4958 400.974 28.3545C401.833 29.2132 402.968 29.6425 404.378 29.6425H407.92C409.3 29.6425 410.42 29.2898 411.278 28.5845C412.137 27.8485 412.566 26.8825 412.566 25.6865H416.752C416.752 27.9865 415.94 29.8418 414.314 31.2525C412.689 32.6632 410.542 33.3685 407.874 33.3685H404.378ZM412.566 19.3385V18.4185C412.566 16.8852 412.152 15.6585 411.324 14.7385C410.527 13.8185 409.469 13.3585 408.15 13.3585H404.378C402.968 13.3585 401.833 13.8492 400.974 14.8305C400.116 15.7812 399.686 17.0538 399.686 18.6485V19.3385H412.566Z" fill="#333333"/>
</svg>
