<svg width="32" height="32" viewBox="0 0 32 32" fill="none" xmlns="http://www.w3.org/2000/svg">
<path d="M3.33398 15.9899C3.33398 10.0188 3.33398 7.03323 5.18897 5.17823C7.04397 3.32324 10.0295 3.32324 16.0007 3.32324C21.9717 3.32324 24.9573 3.32324 26.8124 5.17823C28.6673 7.03323 28.6673 10.0188 28.6673 15.9899C28.6673 21.961 28.6673 24.9466 26.8124 26.8016C24.9573 28.6566 21.9717 28.6566 16.0007 28.6566C10.0295 28.6566 7.04397 28.6566 5.18897 26.8016C3.33398 24.9466 3.33398 21.961 3.33398 15.9899Z" fill="white" stroke="white" stroke-width="2"/>
<path d="M10.666 18.3236C10.666 18.3236 12.7993 19.5402 13.866 21.3236C13.866 21.3236 17.066 14.3236 21.3327 11.9902" stroke="#093BAA" stroke-width="2" stroke-linecap="round" stroke-linejoin="round"/>
</svg>
