<svg width="288" height="58" viewBox="0 0 288 58" fill="none" xmlns="http://www.w3.org/2000/svg">
<g filter="url(#filter0_d_1480_11552)">
<path d="M259.281 -0.00878906H8.50865C5.12262 -0.00878906 3.26821 3.93582 5.42849 6.5432L19.4273 23.4392C20.6537 24.9195 20.6537 27.0629 19.4273 28.5432L5.42849 45.4392C3.26821 48.0466 5.1226 51.9912 8.50863 51.9912H259.281C260.369 51.9912 261.41 51.5483 262.164 50.7646L283.332 28.7646C284.822 27.2159 284.822 24.7665 283.332 23.2178L262.164 1.21782C261.41 0.434088 260.369 -0.00878906 259.281 -0.00878906Z" fill="#9747FF"/>
<path d="M8.50865 0.491211H259.281C260.233 0.491211 261.144 0.87873 261.803 1.5645L282.971 23.5645C284.275 24.9196 284.275 27.0628 282.971 28.4179L261.803 50.4179C261.144 51.1037 260.233 51.4912 259.281 51.4912H8.50863C5.54586 51.4912 3.92327 48.0397 5.81351 45.7582L19.8123 28.8622C21.1921 27.1969 21.1921 24.7856 19.8123 23.1202L5.81351 6.2242C3.92327 3.94275 5.54587 0.491211 8.50865 0.491211Z" stroke="#6222B5"/>
</g>
<path d="M29.9278 30.9912C29.8251 30.9912 29.7458 30.9632 29.6898 30.9072C29.6338 30.8419 29.6058 30.7625 29.6058 30.6692V21.5272C29.6058 21.4245 29.6338 21.3452 29.6898 21.2892C29.7458 21.2239 29.8251 21.1912 29.9278 21.1912H33.7638C34.4638 21.1912 35.0331 21.3079 35.4718 21.5412C35.9198 21.7652 36.2465 22.0732 36.4518 22.4652C36.6665 22.8572 36.7738 23.2959 36.7738 23.7812C36.7738 24.1639 36.7085 24.4952 36.5778 24.7752C36.4565 25.0459 36.3025 25.2699 36.1158 25.4472C35.9291 25.6152 35.7471 25.7459 35.5698 25.8392C35.9338 26.0165 36.2558 26.3059 36.5358 26.7072C36.8251 27.1085 36.9698 27.5939 36.9698 28.1632C36.9698 28.6765 36.8531 29.1479 36.6198 29.5772C36.3865 30.0065 36.0365 30.3519 35.5698 30.6132C35.1125 30.8652 34.5431 30.9912 33.8618 30.9912H29.9278ZM30.9778 29.8572H33.6798C34.2865 29.8572 34.7531 29.6939 35.0798 29.3672C35.4065 29.0405 35.5698 28.6392 35.5698 28.1632C35.5698 27.6685 35.4065 27.2625 35.0798 26.9452C34.7531 26.6185 34.2865 26.4552 33.6798 26.4552H30.9778V29.8572ZM30.9778 25.3352H33.5538C34.1511 25.3352 34.6038 25.1999 34.9118 24.9292C35.2198 24.6492 35.3738 24.2712 35.3738 23.7952C35.3738 23.3192 35.2198 22.9552 34.9118 22.7032C34.6038 22.4512 34.1511 22.3252 33.5538 22.3252H30.9778V25.3352ZM38.8314 30.9912C38.738 30.9912 38.6587 30.9632 38.5934 30.9072C38.5374 30.8419 38.5094 30.7625 38.5094 30.6692V21.3732C38.5094 21.2799 38.5374 21.2052 38.5934 21.1492C38.6587 21.0839 38.738 21.0512 38.8314 21.0512H39.4894C39.592 21.0512 39.6714 21.0839 39.7274 21.1492C39.7834 21.2052 39.8114 21.2799 39.8114 21.3732V30.6692C39.8114 30.7625 39.7834 30.8419 39.7274 30.9072C39.6714 30.9632 39.592 30.9912 39.4894 30.9912H38.8314ZM44.6017 31.1312C43.8923 31.1312 43.2997 30.9959 42.8237 30.7252C42.3477 30.4545 41.9837 30.0812 41.7317 29.6052C41.4797 29.1199 41.3397 28.5692 41.3117 27.9532C41.3023 27.7945 41.2977 27.5939 41.2977 27.3512C41.2977 27.0992 41.3023 26.8985 41.3117 26.7492C41.3397 26.1239 41.4797 25.5732 41.7317 25.0972C41.993 24.6212 42.3617 24.2479 42.8377 23.9772C43.3137 23.7065 43.9017 23.5712 44.6017 23.5712C45.3017 23.5712 45.8897 23.7065 46.3657 23.9772C46.8417 24.2479 47.2057 24.6212 47.4577 25.0972C47.719 25.5732 47.8637 26.1239 47.8917 26.7492C47.901 26.8985 47.9057 27.0992 47.9057 27.3512C47.9057 27.5939 47.901 27.7945 47.8917 27.9532C47.8637 28.5692 47.7237 29.1199 47.4717 29.6052C47.2197 30.0812 46.8557 30.4545 46.3797 30.7252C45.9037 30.9959 45.311 31.1312 44.6017 31.1312ZM44.6017 30.0532C45.1803 30.0532 45.6423 29.8712 45.9877 29.5072C46.333 29.1339 46.5197 28.5925 46.5477 27.8832C46.557 27.7432 46.5617 27.5659 46.5617 27.3512C46.5617 27.1365 46.557 26.9592 46.5477 26.8192C46.5197 26.1099 46.333 25.5732 45.9877 25.2092C45.6423 24.8359 45.1803 24.6492 44.6017 24.6492C44.023 24.6492 43.5563 24.8359 43.2017 25.2092C42.8563 25.5732 42.6743 26.1099 42.6557 26.8192C42.6463 26.9592 42.6417 27.1365 42.6417 27.3512C42.6417 27.5659 42.6463 27.7432 42.6557 27.8832C42.6743 28.5925 42.8563 29.1339 43.2017 29.5072C43.5563 29.8712 44.023 30.0532 44.6017 30.0532ZM52.3187 31.1312C51.6561 31.1312 51.0821 31.0052 50.5967 30.7532C50.1207 30.4919 49.7521 30.1232 49.4907 29.6472C49.2294 29.1619 49.0894 28.5832 49.0707 27.9112C49.0614 27.7712 49.0567 27.5845 49.0567 27.3512C49.0567 27.1179 49.0614 26.9312 49.0707 26.7912C49.0894 26.1192 49.2294 25.5452 49.4907 25.0692C49.7521 24.5839 50.1207 24.2152 50.5967 23.9632C51.0821 23.7019 51.6561 23.5712 52.3187 23.5712C52.8601 23.5712 53.3221 23.6459 53.7047 23.7952C54.0967 23.9445 54.4187 24.1359 54.6707 24.3692C54.9227 24.6025 55.1094 24.8545 55.2307 25.1252C55.3614 25.3959 55.4314 25.6525 55.4407 25.8952C55.4501 25.9885 55.4221 26.0632 55.3567 26.1192C55.2914 26.1752 55.2121 26.2032 55.1187 26.2032H54.4467C54.3534 26.2032 54.2834 26.1845 54.2367 26.1472C54.1901 26.1005 54.1434 26.0259 54.0967 25.9232C53.9287 25.4659 53.7001 25.1439 53.4107 24.9572C53.1214 24.7705 52.7621 24.6772 52.3327 24.6772C51.7727 24.6772 51.3154 24.8499 50.9607 25.1952C50.6154 25.5405 50.4287 26.0959 50.4007 26.8612C50.3914 27.1972 50.3914 27.5239 50.4007 27.8412C50.4287 28.6159 50.6154 29.1759 50.9607 29.5212C51.3154 29.8572 51.7727 30.0252 52.3327 30.0252C52.7621 30.0252 53.1214 29.9319 53.4107 29.7452C53.7001 29.5585 53.9287 29.2365 54.0967 28.7792C54.1434 28.6765 54.1901 28.6065 54.2367 28.5692C54.2834 28.5225 54.3534 28.4992 54.4467 28.4992H55.1187C55.2121 28.4992 55.2914 28.5272 55.3567 28.5832C55.4221 28.6392 55.4501 28.7139 55.4407 28.8072C55.4314 29.0032 55.3894 29.2039 55.3147 29.4092C55.2401 29.6145 55.1187 29.8245 54.9507 30.0392C54.7921 30.2445 54.5914 30.4312 54.3487 30.5992C54.1061 30.7579 53.8121 30.8885 53.4667 30.9912C53.1307 31.0845 52.7481 31.1312 52.3187 31.1312ZM57.1593 30.9912C57.066 30.9912 56.9867 30.9632 56.9213 30.9072C56.8653 30.8419 56.8373 30.7625 56.8373 30.6692V21.3732C56.8373 21.2799 56.8653 21.2052 56.9213 21.1492C56.9867 21.0839 57.066 21.0512 57.1593 21.0512H57.8173C57.9107 21.0512 57.9853 21.0839 58.0413 21.1492C58.1067 21.2052 58.1393 21.2799 58.1393 21.3732V26.2452L60.8973 23.9492C61.0093 23.8559 61.0933 23.7952 61.1493 23.7672C61.2147 23.7299 61.3173 23.7112 61.4573 23.7112H62.1993C62.2833 23.7112 62.3533 23.7392 62.4093 23.7952C62.4653 23.8512 62.4933 23.9212 62.4933 24.0052C62.4933 24.0425 62.4793 24.0845 62.4513 24.1312C62.4327 24.1779 62.3907 24.2245 62.3253 24.2712L59.0913 26.9592L62.6753 30.4452C62.7873 30.5385 62.8433 30.6225 62.8433 30.6972C62.8433 30.7812 62.8153 30.8512 62.7593 30.9072C62.7033 30.9632 62.6333 30.9912 62.5493 30.9912H61.8213C61.6813 30.9912 61.5787 30.9772 61.5133 30.9492C61.448 30.9119 61.364 30.8465 61.2613 30.7532L58.1393 27.7712V30.6692C58.1393 30.7625 58.1067 30.8419 58.0413 30.9072C57.9853 30.9632 57.9107 30.9912 57.8173 30.9912H57.1593ZM66.3603 31.1312C65.6976 31.1312 65.1236 31.0052 64.6383 30.7532C64.1623 30.4919 63.7936 30.1232 63.5323 29.6472C63.271 29.1619 63.131 28.5832 63.1123 27.9112C63.103 27.7712 63.0983 27.5845 63.0983 27.3512C63.0983 27.1179 63.103 26.9312 63.1123 26.7912C63.131 26.1192 63.271 25.5452 63.5323 25.0692C63.7936 24.5839 64.1623 24.2152 64.6383 23.9632C65.1236 23.7019 65.6976 23.5712 66.3603 23.5712C66.9016 23.5712 67.3636 23.6459 67.7463 23.7952C68.1383 23.9445 68.4603 24.1359 68.7123 24.3692C68.9643 24.6025 69.151 24.8545 69.2723 25.1252C69.403 25.3959 69.473 25.6525 69.4823 25.8952C69.4916 25.9885 69.4636 26.0632 69.3983 26.1192C69.333 26.1752 69.2536 26.2032 69.1603 26.2032H68.4883C68.395 26.2032 68.325 26.1845 68.2783 26.1472C68.2316 26.1005 68.185 26.0259 68.1383 25.9232C67.9703 25.4659 67.7416 25.1439 67.4523 24.9572C67.163 24.7705 66.8036 24.6772 66.3743 24.6772C65.8143 24.6772 65.357 24.8499 65.0023 25.1952C64.657 25.5405 64.4703 26.0959 64.4423 26.8612C64.433 27.1972 64.433 27.5239 64.4423 27.8412C64.4703 28.6159 64.657 29.1759 65.0023 29.5212C65.357 29.8572 65.8143 30.0252 66.3743 30.0252C66.8036 30.0252 67.163 29.9319 67.4523 29.7452C67.7416 29.5585 67.9703 29.2365 68.1383 28.7792C68.185 28.6765 68.2316 28.6065 68.2783 28.5692C68.325 28.5225 68.395 28.4992 68.4883 28.4992H69.1603C69.2536 28.4992 69.333 28.5272 69.3983 28.5832C69.4636 28.6392 69.4916 28.7139 69.4823 28.8072C69.473 29.0032 69.431 29.2039 69.3563 29.4092C69.2816 29.6145 69.1603 29.8245 68.9923 30.0392C68.8336 30.2445 68.633 30.4312 68.3903 30.5992C68.1476 30.7579 67.8536 30.8885 67.5083 30.9912C67.1723 31.0845 66.7896 31.1312 66.3603 31.1312ZM71.2009 30.9912C71.1076 30.9912 71.0282 30.9632 70.9629 30.9072C70.9069 30.8419 70.8789 30.7625 70.8789 30.6692V21.3732C70.8789 21.2799 70.9069 21.2052 70.9629 21.1492C71.0282 21.0839 71.1076 21.0512 71.2009 21.0512H71.9009C72.0036 21.0512 72.0829 21.0839 72.1389 21.1492C72.1949 21.2052 72.2229 21.2799 72.2229 21.3732V24.6352C72.4749 24.3179 72.7829 24.0612 73.1469 23.8652C73.5109 23.6692 73.9729 23.5712 74.5329 23.5712C75.1396 23.5712 75.6529 23.7065 76.0729 23.9772C76.5022 24.2385 76.8242 24.6072 77.0389 25.0832C77.2629 25.5499 77.3749 26.0959 77.3749 26.7212V30.6692C77.3749 30.7625 77.3469 30.8419 77.2909 30.9072C77.2349 30.9632 77.1556 30.9912 77.0529 30.9912H76.3529C76.2596 30.9912 76.1802 30.9632 76.1149 30.9072C76.0589 30.8419 76.0309 30.7625 76.0309 30.6692V26.7912C76.0309 26.1379 75.8722 25.6292 75.5549 25.2652C75.2376 24.8919 74.7709 24.7052 74.1549 24.7052C73.5762 24.7052 73.1096 24.8919 72.7549 25.2652C72.4002 25.6292 72.2229 26.1379 72.2229 26.7912V30.6692C72.2229 30.7625 72.1949 30.8419 72.1389 30.9072C72.0829 30.9632 72.0036 30.9912 71.9009 30.9912H71.2009ZM81.1462 31.1312C80.6795 31.1312 80.2548 31.0379 79.8722 30.8512C79.4895 30.6645 79.1815 30.4125 78.9482 30.0952C78.7148 29.7779 78.5982 29.4185 78.5982 29.0172C78.5982 28.3732 78.8595 27.8599 79.3822 27.4772C79.9048 27.0945 80.5862 26.8425 81.4262 26.7212L83.5122 26.4272V26.0212C83.5122 25.5732 83.3815 25.2232 83.1202 24.9712C82.8682 24.7192 82.4528 24.5932 81.8742 24.5932C81.4542 24.5932 81.1135 24.6772 80.8522 24.8452C80.6002 25.0132 80.4228 25.2279 80.3202 25.4892C80.2642 25.6292 80.1662 25.6992 80.0262 25.6992H79.3962C79.2935 25.6992 79.2142 25.6712 79.1582 25.6152C79.1115 25.5499 79.0882 25.4752 79.0882 25.3912C79.0882 25.2512 79.1395 25.0785 79.2422 24.8732C79.3542 24.6679 79.5222 24.4672 79.7462 24.2712C79.9702 24.0752 80.2548 23.9119 80.6002 23.7812C80.9548 23.6412 81.3842 23.5712 81.8882 23.5712C82.4482 23.5712 82.9195 23.6459 83.3022 23.7952C83.6848 23.9352 83.9835 24.1265 84.1982 24.3692C84.4222 24.6119 84.5808 24.8872 84.6742 25.1952C84.7768 25.5032 84.8282 25.8159 84.8282 26.1332V30.6692C84.8282 30.7625 84.7955 30.8419 84.7302 30.9072C84.6742 30.9632 84.5995 30.9912 84.5062 30.9912H83.8622C83.7595 30.9912 83.6802 30.9632 83.6242 30.9072C83.5682 30.8419 83.5402 30.7625 83.5402 30.6692V30.0672C83.4188 30.2352 83.2555 30.4032 83.0502 30.5712C82.8448 30.7299 82.5882 30.8652 82.2802 30.9772C81.9722 31.0799 81.5942 31.1312 81.1462 31.1312ZM81.4402 30.0812C81.8228 30.0812 82.1728 30.0019 82.4902 29.8432C82.8075 29.6752 83.0548 29.4185 83.2322 29.0732C83.4188 28.7279 83.5122 28.2939 83.5122 27.7712V27.3792L81.8882 27.6172C81.2255 27.7105 80.7262 27.8692 80.3902 28.0932C80.0542 28.3079 79.8862 28.5832 79.8862 28.9192C79.8862 29.1805 79.9608 29.3999 80.1102 29.5772C80.2688 29.7452 80.4648 29.8712 80.6982 29.9552C80.9408 30.0392 81.1882 30.0812 81.4402 30.0812ZM86.8828 30.9912C86.7894 30.9912 86.7101 30.9632 86.6448 30.9072C86.5888 30.8419 86.5608 30.7625 86.5608 30.6692V24.0332C86.5608 23.9399 86.5888 23.8652 86.6448 23.8092C86.7101 23.7439 86.7894 23.7112 86.8828 23.7112H87.5548C87.6481 23.7112 87.7228 23.7439 87.7788 23.8092C87.8348 23.8652 87.8628 23.9399 87.8628 24.0332V30.6692C87.8628 30.7625 87.8348 30.8419 87.7788 30.9072C87.7228 30.9632 87.6481 30.9912 87.5548 30.9912H86.8828ZM86.7708 22.3532C86.6774 22.3532 86.5981 22.3252 86.5328 22.2692C86.4768 22.2039 86.4488 22.1245 86.4488 22.0312V21.2752C86.4488 21.1819 86.4768 21.1072 86.5328 21.0512C86.5981 20.9859 86.6774 20.9532 86.7708 20.9532H87.6528C87.7461 20.9532 87.8208 20.9859 87.8768 21.0512C87.9421 21.1072 87.9748 21.1819 87.9748 21.2752V22.0312C87.9748 22.1245 87.9421 22.2039 87.8768 22.2692C87.8208 22.3252 87.7461 22.3532 87.6528 22.3532H86.7708ZM89.9934 30.9912C89.9001 30.9912 89.8207 30.9632 89.7554 30.9072C89.6994 30.8419 89.6714 30.7625 89.6714 30.6692V24.0332C89.6714 23.9399 89.6994 23.8652 89.7554 23.8092C89.8207 23.7439 89.9001 23.7112 89.9934 23.7112H90.6514C90.7447 23.7112 90.8194 23.7439 90.8754 23.8092C90.9407 23.8652 90.9734 23.9399 90.9734 24.0332V24.6492C91.2161 24.3319 91.5194 24.0752 91.8834 23.8792C92.2567 23.6739 92.7327 23.5712 93.3114 23.5712C93.9181 23.5712 94.4314 23.7065 94.8514 23.9772C95.2807 24.2385 95.6027 24.6072 95.8174 25.0832C96.0321 25.5499 96.1394 26.0959 96.1394 26.7212V30.6692C96.1394 30.7625 96.1114 30.8419 96.0554 30.9072C95.9994 30.9632 95.9247 30.9912 95.8314 30.9912H95.1314C95.0381 30.9912 94.9587 30.9632 94.8934 30.9072C94.8374 30.8419 94.8094 30.7625 94.8094 30.6692V26.7912C94.8094 26.1379 94.6507 25.6292 94.3334 25.2652C94.0161 24.8919 93.5494 24.7052 92.9334 24.7052C92.3547 24.7052 91.8881 24.8919 91.5334 25.2652C91.1881 25.6292 91.0154 26.1379 91.0154 26.7912V30.6692C91.0154 30.7625 90.9827 30.8419 90.9174 30.9072C90.8614 30.9632 90.7867 30.9912 90.6934 30.9912H89.9934ZM101.537 30.9912C101.444 30.9912 101.365 30.9632 101.299 30.9072C101.243 30.8419 101.215 30.7625 101.215 30.6692V21.5272C101.215 21.4245 101.243 21.3452 101.299 21.2892C101.365 21.2239 101.444 21.1912 101.537 21.1912H102.237C102.349 21.1912 102.433 21.2192 102.489 21.2752C102.545 21.3312 102.578 21.3779 102.587 21.4152L105.555 27.0712L108.537 21.4152C108.556 21.3779 108.589 21.3312 108.635 21.2752C108.691 21.2192 108.775 21.1912 108.887 21.1912H109.573C109.676 21.1912 109.755 21.2239 109.811 21.2892C109.877 21.3452 109.909 21.4245 109.909 21.5272V30.6692C109.909 30.7625 109.877 30.8419 109.811 30.9072C109.755 30.9632 109.676 30.9912 109.573 30.9912H108.887C108.794 30.9912 108.715 30.9632 108.649 30.9072C108.593 30.8419 108.565 30.7625 108.565 30.6692V23.7812L106.227 28.3452C106.19 28.4385 106.134 28.5132 106.059 28.5692C105.985 28.6159 105.891 28.6392 105.779 28.6392H105.345C105.224 28.6392 105.126 28.6159 105.051 28.5692C104.986 28.5132 104.93 28.4385 104.883 28.3452L102.545 23.7812V30.6692C102.545 30.7625 102.513 30.8419 102.447 30.9072C102.391 30.9632 102.317 30.9912 102.223 30.9912H101.537ZM113.899 31.1312C113.432 31.1312 113.007 31.0379 112.625 30.8512C112.242 30.6645 111.934 30.4125 111.701 30.0952C111.467 29.7779 111.351 29.4185 111.351 29.0172C111.351 28.3732 111.612 27.8599 112.135 27.4772C112.657 27.0945 113.339 26.8425 114.179 26.7212L116.265 26.4272V26.0212C116.265 25.5732 116.134 25.2232 115.873 24.9712C115.621 24.7192 115.205 24.5932 114.627 24.5932C114.207 24.5932 113.866 24.6772 113.605 24.8452C113.353 25.0132 113.175 25.2279 113.073 25.4892C113.017 25.6292 112.919 25.6992 112.779 25.6992H112.149C112.046 25.6992 111.967 25.6712 111.911 25.6152C111.864 25.5499 111.841 25.4752 111.841 25.3912C111.841 25.2512 111.892 25.0785 111.995 24.8732C112.107 24.6679 112.275 24.4672 112.499 24.2712C112.723 24.0752 113.007 23.9119 113.353 23.7812C113.707 23.6412 114.137 23.5712 114.641 23.5712C115.201 23.5712 115.672 23.6459 116.055 23.7952C116.437 23.9352 116.736 24.1265 116.951 24.3692C117.175 24.6119 117.333 24.8872 117.427 25.1952C117.529 25.5032 117.581 25.8159 117.581 26.1332V30.6692C117.581 30.7625 117.548 30.8419 117.483 30.9072C117.427 30.9632 117.352 30.9912 117.259 30.9912H116.615C116.512 30.9912 116.433 30.9632 116.377 30.9072C116.321 30.8419 116.293 30.7625 116.293 30.6692V30.0672C116.171 30.2352 116.008 30.4032 115.803 30.5712C115.597 30.7299 115.341 30.8652 115.033 30.9772C114.725 31.0799 114.347 31.1312 113.899 31.1312ZM114.193 30.0812C114.575 30.0812 114.925 30.0019 115.243 29.8432C115.56 29.6752 115.807 29.4185 115.985 29.0732C116.171 28.7279 116.265 28.2939 116.265 27.7712V27.3792L114.641 27.6172C113.978 27.7105 113.479 27.8692 113.143 28.0932C112.807 28.3079 112.639 28.5832 112.639 28.9192C112.639 29.1805 112.713 29.3999 112.863 29.5772C113.021 29.7452 113.217 29.8712 113.451 29.9552C113.693 30.0392 113.941 30.0812 114.193 30.0812ZM121.833 31.1312C121.31 31.1312 120.862 31.0659 120.489 30.9352C120.116 30.8045 119.812 30.6459 119.579 30.4592C119.346 30.2725 119.168 30.0859 119.047 29.8992C118.935 29.7125 118.874 29.5632 118.865 29.4512C118.856 29.3485 118.888 29.2692 118.963 29.2132C119.038 29.1572 119.112 29.1292 119.187 29.1292H119.803C119.859 29.1292 119.901 29.1385 119.929 29.1572C119.966 29.1665 120.013 29.2039 120.069 29.2692C120.19 29.3999 120.326 29.5305 120.475 29.6612C120.624 29.7919 120.806 29.8992 121.021 29.9832C121.245 30.0672 121.52 30.1092 121.847 30.1092C122.323 30.1092 122.715 30.0205 123.023 29.8432C123.331 29.6565 123.485 29.3859 123.485 29.0312C123.485 28.7979 123.42 28.6112 123.289 28.4712C123.168 28.3312 122.944 28.2052 122.617 28.0932C122.3 27.9812 121.861 27.8645 121.301 27.7432C120.741 27.6125 120.298 27.4539 119.971 27.2672C119.644 27.0712 119.411 26.8425 119.271 26.5812C119.131 26.3105 119.061 26.0072 119.061 25.6712C119.061 25.3259 119.164 24.9945 119.369 24.6772C119.574 24.3505 119.873 24.0845 120.265 23.8792C120.666 23.6739 121.166 23.5712 121.763 23.5712C122.248 23.5712 122.664 23.6319 123.009 23.7532C123.354 23.8745 123.639 24.0285 123.863 24.2152C124.087 24.3925 124.255 24.5699 124.367 24.7472C124.479 24.9245 124.54 25.0739 124.549 25.1952C124.558 25.2885 124.53 25.3679 124.465 25.4332C124.4 25.4892 124.325 25.5172 124.241 25.5172H123.653C123.588 25.5172 123.532 25.5032 123.485 25.4752C123.448 25.4472 123.41 25.4145 123.373 25.3772C123.28 25.2559 123.168 25.1345 123.037 25.0132C122.916 24.8919 122.752 24.7939 122.547 24.7192C122.351 24.6352 122.09 24.5932 121.763 24.5932C121.296 24.5932 120.946 24.6912 120.713 24.8872C120.48 25.0832 120.363 25.3305 120.363 25.6292C120.363 25.8065 120.414 25.9652 120.517 26.1052C120.62 26.2452 120.816 26.3712 121.105 26.4832C121.394 26.5952 121.824 26.7165 122.393 26.8472C123.009 26.9685 123.494 27.1319 123.849 27.3372C124.204 27.5425 124.456 27.7805 124.605 28.0512C124.754 28.3219 124.829 28.6345 124.829 28.9892C124.829 29.3812 124.712 29.7405 124.479 30.0672C124.255 30.3939 123.919 30.6552 123.471 30.8512C123.032 31.0379 122.486 31.1312 121.833 31.1312ZM128.998 30.9912C128.475 30.9912 128.051 30.8932 127.724 30.6972C127.397 30.4919 127.159 30.2072 127.01 29.8432C126.861 29.4699 126.786 29.0312 126.786 28.5272V24.8312H125.694C125.601 24.8312 125.521 24.8032 125.456 24.7472C125.4 24.6819 125.372 24.6025 125.372 24.5092V24.0332C125.372 23.9399 125.4 23.8652 125.456 23.8092C125.521 23.7439 125.601 23.7112 125.694 23.7112H126.786V21.3732C126.786 21.2799 126.814 21.2052 126.87 21.1492C126.935 21.0839 127.015 21.0512 127.108 21.0512H127.766C127.859 21.0512 127.934 21.0839 127.99 21.1492C128.055 21.2052 128.088 21.2799 128.088 21.3732V23.7112H129.824C129.917 23.7112 129.992 23.7439 130.048 23.8092C130.113 23.8652 130.146 23.9399 130.146 24.0332V24.5092C130.146 24.6025 130.113 24.6819 130.048 24.7472C129.992 24.8032 129.917 24.8312 129.824 24.8312H128.088V28.4292C128.088 28.8679 128.163 29.2132 128.312 29.4652C128.461 29.7172 128.727 29.8432 129.11 29.8432H129.964C130.057 29.8432 130.132 29.8759 130.188 29.9412C130.253 29.9972 130.286 30.0719 130.286 30.1652V30.6692C130.286 30.7625 130.253 30.8419 130.188 30.9072C130.132 30.9632 130.057 30.9912 129.964 30.9912H128.998ZM134.243 31.1312C133.282 31.1312 132.516 30.8372 131.947 30.2492C131.378 29.6519 131.065 28.8399 131.009 27.8132C131 27.6919 130.995 27.5379 130.995 27.3512C130.995 27.1552 131 26.9965 131.009 26.8752C131.046 26.2125 131.2 25.6339 131.471 25.1392C131.742 24.6352 132.11 24.2479 132.577 23.9772C133.053 23.7065 133.608 23.5712 134.243 23.5712C134.952 23.5712 135.545 23.7205 136.021 24.0192C136.506 24.3179 136.875 24.7425 137.127 25.2932C137.379 25.8439 137.505 26.4879 137.505 27.2252V27.4632C137.505 27.5659 137.472 27.6452 137.407 27.7012C137.351 27.7572 137.276 27.7852 137.183 27.7852H132.339C132.339 27.7945 132.339 27.8132 132.339 27.8412C132.339 27.8692 132.339 27.8925 132.339 27.9112C132.358 28.2939 132.442 28.6532 132.591 28.9892C132.74 29.3159 132.955 29.5819 133.235 29.7872C133.515 29.9925 133.851 30.0952 134.243 30.0952C134.579 30.0952 134.859 30.0439 135.083 29.9412C135.307 29.8385 135.489 29.7265 135.629 29.6052C135.769 29.4745 135.862 29.3765 135.909 29.3112C135.993 29.1899 136.058 29.1199 136.105 29.1012C136.152 29.0732 136.226 29.0592 136.329 29.0592H137.001C137.094 29.0592 137.169 29.0872 137.225 29.1432C137.29 29.1899 137.318 29.2599 137.309 29.3532C137.3 29.4932 137.225 29.6659 137.085 29.8712C136.945 30.0672 136.744 30.2632 136.483 30.4592C136.222 30.6552 135.904 30.8185 135.531 30.9492C135.158 31.0705 134.728 31.1312 134.243 31.1312ZM132.339 26.8192H136.175V26.7772C136.175 26.3572 136.096 25.9839 135.937 25.6572C135.788 25.3305 135.568 25.0739 135.279 24.8872C134.99 24.6912 134.644 24.5932 134.243 24.5932C133.842 24.5932 133.496 24.6912 133.207 24.8872C132.927 25.0739 132.712 25.3305 132.563 25.6572C132.414 25.9839 132.339 26.3572 132.339 26.7772V26.8192ZM139.221 30.9912C139.128 30.9912 139.048 30.9632 138.983 30.9072C138.927 30.8419 138.899 30.7625 138.899 30.6692V24.0472C138.899 23.9539 138.927 23.8745 138.983 23.8092C139.048 23.7439 139.128 23.7112 139.221 23.7112H139.865C139.958 23.7112 140.038 23.7439 140.103 23.8092C140.168 23.8745 140.201 23.9539 140.201 24.0472V24.6632C140.388 24.3459 140.644 24.1079 140.971 23.9492C141.298 23.7905 141.69 23.7112 142.147 23.7112H142.707C142.8 23.7112 142.875 23.7439 142.931 23.8092C142.987 23.8652 143.015 23.9399 143.015 24.0332V24.6072C143.015 24.7005 142.987 24.7752 142.931 24.8312C142.875 24.8872 142.8 24.9152 142.707 24.9152H141.867C141.363 24.9152 140.966 25.0645 140.677 25.3632C140.388 25.6525 140.243 26.0492 140.243 26.5532V30.6692C140.243 30.7625 140.21 30.8419 140.145 30.9072C140.08 30.9632 140 30.9912 139.907 30.9912H139.221ZM145.211 33.6512C145.137 33.6512 145.071 33.6232 145.015 33.5672C144.959 33.5112 144.931 33.4459 144.931 33.3712C144.931 33.3339 144.936 33.2965 144.945 33.2592C144.955 33.2219 144.973 33.1752 145.001 33.1192L146.079 30.5572L143.405 24.2432C143.359 24.1312 143.335 24.0519 143.335 24.0052C143.335 23.9212 143.363 23.8512 143.419 23.7952C143.475 23.7392 143.545 23.7112 143.629 23.7112H144.315C144.409 23.7112 144.483 23.7345 144.539 23.7812C144.595 23.8279 144.633 23.8839 144.651 23.9492L146.779 29.0452L148.963 23.9492C148.991 23.8839 149.029 23.8279 149.075 23.7812C149.131 23.7345 149.211 23.7112 149.313 23.7112H149.971C150.055 23.7112 150.125 23.7392 150.181 23.7952C150.237 23.8512 150.265 23.9165 150.265 23.9912C150.265 24.0379 150.242 24.1219 150.195 24.2432L146.219 33.4132C146.191 33.4785 146.149 33.5345 146.093 33.5812C146.047 33.6279 145.972 33.6512 145.869 33.6512H145.211Z" fill="white"/>
<rect x="240" y="11.9912" width="28" height="28" rx="14" fill="white"/>
<path d="M254.468 31.1312C253.88 31.1312 253.367 31.0612 252.928 30.9212C252.489 30.7719 252.121 30.5759 251.822 30.3332C251.523 30.0905 251.295 29.8245 251.136 29.5352C250.987 29.2459 250.907 28.9472 250.898 28.6392C250.898 28.5552 250.926 28.4899 250.982 28.4432C251.038 28.3965 251.108 28.3732 251.192 28.3732H251.878C251.962 28.3732 252.037 28.3919 252.102 28.4292C252.167 28.4665 252.223 28.5459 252.27 28.6672C252.363 29.0032 252.522 29.2645 252.746 29.4512C252.979 29.6379 253.245 29.7685 253.544 29.8432C253.852 29.9085 254.16 29.9412 254.468 29.9412C255.112 29.9412 255.635 29.7872 256.036 29.4792C256.437 29.1712 256.638 28.7185 256.638 28.1212C256.638 27.5145 256.456 27.0805 256.092 26.8192C255.728 26.5579 255.224 26.4272 254.58 26.4272H253.25C253.157 26.4272 253.077 26.3992 253.012 26.3432C252.956 26.2872 252.928 26.2079 252.928 26.1052V25.7272C252.928 25.6432 252.942 25.5732 252.97 25.5172C253.007 25.4519 253.045 25.3959 253.082 25.3492L255.798 22.3812H251.668C251.575 22.3812 251.495 22.3532 251.43 22.2972C251.374 22.2412 251.346 22.1619 251.346 22.0592V21.5272C251.346 21.4245 251.374 21.3452 251.43 21.2892C251.495 21.2239 251.575 21.1912 251.668 21.1912H257.254C257.357 21.1912 257.436 21.2239 257.492 21.2892C257.557 21.3452 257.59 21.4245 257.59 21.5272V22.0312C257.59 22.0965 257.571 22.1572 257.534 22.2132C257.506 22.2599 257.473 22.3065 257.436 22.3532L254.734 25.3632L254.958 25.3772C255.574 25.3959 256.111 25.5079 256.568 25.7132C257.035 25.9185 257.394 26.2265 257.646 26.6372C257.907 27.0385 258.038 27.5472 258.038 28.1632C258.038 28.7885 257.884 29.3252 257.576 29.7732C257.268 30.2119 256.843 30.5479 256.302 30.7812C255.761 31.0145 255.149 31.1312 254.468 31.1312Z" fill="#9747FF"/>
<defs>
<filter id="filter0_d_1480_11552" x="4.50195" y="-0.00878906" width="282.947" height="58" filterUnits="userSpaceOnUse" color-interpolation-filters="sRGB">
<feFlood flood-opacity="0" result="BackgroundImageFix"/>
<feColorMatrix in="SourceAlpha" type="matrix" values="0 0 0 0 0 0 0 0 0 0 0 0 0 0 0 0 0 0 127 0" result="hardAlpha"/>
<feOffset dx="3" dy="6"/>
<feComposite in2="hardAlpha" operator="out"/>
<feColorMatrix type="matrix" values="0 0 0 0 0.384314 0 0 0 0 0.133333 0 0 0 0 0.709804 0 0 0 1 0"/>
<feBlend mode="normal" in2="BackgroundImageFix" result="effect1_dropShadow_1480_11552"/>
<feBlend mode="normal" in="SourceGraphic" in2="effect1_dropShadow_1480_11552" result="shape"/>
</filter>
</defs>
</svg>
