<svg width="33" height="32" viewBox="0 0 33 32" fill="none" xmlns="http://www.w3.org/2000/svg">
<path d="M29.8327 15.9896C29.8327 8.62578 23.8631 2.65625 16.4993 2.65625C9.13555 2.65625 3.16602 8.62578 3.16602 15.9896C3.16602 23.3533 9.13555 29.3229 16.4993 29.3229C17.6216 29.3229 19.166 29.478 19.166 27.9896C19.166 27.1776 18.7436 26.5512 18.3241 25.9288C17.7103 25.0182 17.1024 24.1166 17.8327 22.6562C18.7216 20.8785 20.2031 20.8785 22.4747 20.8785C23.6105 20.8785 24.9439 20.8785 26.4993 20.6562C29.3007 20.2561 29.8327 18.5341 29.8327 15.9896Z" fill="white" stroke="white" stroke-width="2"/>
<path d="M9.83398 19.9925L9.84556 19.9893" stroke="#093BAA" stroke-width="2.66667" stroke-linecap="round" stroke-linejoin="round"/>
<path d="M13.166 13.3232C14.2706 13.3232 15.166 12.4278 15.166 11.3232C15.166 10.2187 14.2706 9.32324 13.166 9.32324C12.0614 9.32324 11.166 10.2187 11.166 11.3232C11.166 12.4278 12.0614 13.3232 13.166 13.3232Z" stroke="#093BAA" stroke-width="2"/>
<path d="M22.5 14.6562C23.6046 14.6562 24.5 13.7608 24.5 12.6562C24.5 11.5517 23.6046 10.6562 22.5 10.6562C21.3954 10.6562 20.5 11.5517 20.5 12.6562C20.5 13.7608 21.3954 14.6562 22.5 14.6562Z" stroke="#093BAA" stroke-width="2"/>
</svg>
