<svg width="203" height="40" viewBox="0 0 203 40" fill="none" xmlns="http://www.w3.org/2000/svg">
<path d="M35.529 11.9017L34.7063 10.474C34.0842 9.39429 33.7732 8.85444 33.2438 8.63915C32.7145 8.42389 32.1158 8.59375 30.9187 8.93349L28.885 9.50632C28.1207 9.68259 27.3187 9.58259 26.6208 9.224L26.0593 8.90005C25.4608 8.51674 25.0005 7.95157 24.7457 7.28725L24.1892 5.62495C23.8232 4.52492 23.6402 3.9749 23.2045 3.6603C22.769 3.3457 22.1903 3.3457 21.033 3.3457H19.175C18.0178 3.3457 17.4392 3.3457 17.0035 3.6603C16.5679 3.9749 16.3849 4.52492 16.019 5.62495L15.4624 7.28725C15.2076 7.95157 14.7473 8.51674 14.1488 8.90005L13.5873 9.224C12.8894 9.58259 12.0875 9.68259 11.3231 9.50632L9.28942 8.93349C8.09219 8.59375 7.49358 8.42389 6.96428 8.63915C6.43498 8.85444 6.12392 9.39429 5.50175 10.474L4.67912 11.9017C4.09593 12.9138 3.80433 13.4198 3.86093 13.9585C3.91752 14.4972 4.30789 14.9313 5.0886 15.7996L6.807 17.7207C7.227 18.2524 7.52519 19.179 7.52519 20.0122C7.52519 20.8457 7.2271 21.772 6.80705 22.3039L5.0886 24.225C4.30789 25.0934 3.91753 25.5274 3.86093 26.0662C3.80433 26.6049 4.09593 27.1109 4.67912 28.1229L5.50174 29.5505C6.12388 30.6302 6.43498 31.1702 6.96428 31.3854C7.49358 31.6007 8.0922 31.4309 9.28945 31.091L11.3231 30.5182C12.0876 30.3419 12.8896 30.442 13.5876 30.8007L14.149 31.1247C14.7474 31.508 15.2076 32.073 15.4623 32.7374L16.019 34.3999C16.3849 35.4999 16.5679 36.0499 17.0035 36.3645C17.4392 36.679 18.0178 36.679 19.175 36.679H21.033C22.1903 36.679 22.769 36.679 23.2045 36.3645C23.6402 36.0499 23.8232 35.4999 24.1892 34.3999L24.7458 32.7374C25.0005 32.073 25.4607 31.508 26.0592 31.1247L26.6205 30.8007C27.3185 30.442 28.1205 30.3419 28.885 30.5182L30.9187 31.091C32.1158 31.4309 32.7145 31.6007 33.2438 31.3854C33.7732 31.1702 34.0842 30.6302 34.7063 29.5505L35.529 28.1229C36.1122 27.1109 36.4037 26.6049 36.3472 26.0662C36.2905 25.5274 35.9002 25.0934 35.1195 24.225L33.401 22.3039C32.981 21.772 32.6828 20.8457 32.6828 20.0122C32.6828 19.179 32.9812 18.2524 33.401 17.7207L35.1195 15.7996C35.9002 14.9313 36.2905 14.4972 36.3472 13.9585C36.4037 13.4198 36.1122 12.9138 35.529 11.9017Z" fill="white" stroke="white" stroke-width="2.5" stroke-linecap="round"/>
<path d="M25.8658 19.9993C25.8658 23.221 23.2542 25.8327 20.0325 25.8327C16.8108 25.8327 14.1992 23.221 14.1992 19.9993C14.1992 16.7777 16.8108 14.166 20.0325 14.166C23.2542 14.166 25.8658 16.7777 25.8658 19.9993Z" stroke="#093BAA" stroke-width="2.5"/>
<path d="M197.333 20C197.333 21.4728 198.527 22.6667 200 22.6667C201.473 22.6667 202.667 21.4728 202.667 20C202.667 18.5272 201.473 17.3333 200 17.3333C198.527 17.3333 197.333 18.5272 197.333 20ZM60 20.5H61.9444V19.5H60V20.5ZM65.8333 20.5H69.7222V19.5H65.8333V20.5ZM73.6111 20.5H77.5V19.5H73.6111V20.5ZM81.3889 20.5H85.2778V19.5H81.3889V20.5ZM89.1667 20.5H93.0556V19.5H89.1667V20.5ZM96.9444 20.5H100.833V19.5H96.9444V20.5ZM104.722 20.5H108.611V19.5H104.722V20.5ZM112.5 20.5H116.389V19.5H112.5V20.5ZM120.278 20.5H124.167V19.5H120.278V20.5ZM128.056 20.5H131.944V19.5H128.056V20.5ZM135.833 20.5H139.722V19.5H135.833V20.5ZM143.611 20.5H147.5V19.5H143.611V20.5ZM151.389 20.5H155.278V19.5H151.389V20.5ZM159.167 20.5H163.056V19.5H159.167V20.5ZM166.944 20.5H170.833V19.5H166.944V20.5ZM174.722 20.5H178.611V19.5H174.722V20.5ZM182.5 20.5H186.389V19.5H182.5V20.5ZM190.278 20.5H194.167V19.5H190.278V20.5ZM198.055 20.5H200V19.5H198.055V20.5Z" fill="white"/>
</svg>
