<svg width="33" height="32" viewBox="0 0 33 32" fill="none" xmlns="http://www.w3.org/2000/svg">
<path d="M28.924 9.51176L28.2658 8.36963C27.7681 7.50586 27.5193 7.07398 27.0958 6.90175C26.6724 6.72954 26.1934 6.86543 25.2357 7.13722L23.6088 7.59548C22.9973 7.7365 22.3557 7.6565 21.7974 7.36963L21.3482 7.11047C20.8694 6.80382 20.5012 6.35168 20.2973 5.82023L19.8521 4.49039C19.5593 3.61037 19.4129 3.17035 19.0644 2.91867C18.716 2.66699 18.253 2.66699 17.3272 2.66699H15.8408C14.915 2.66699 14.4521 2.66699 14.1036 2.91867C13.7551 3.17035 13.6087 3.61037 13.316 4.49039L12.8707 5.82023C12.6668 6.35168 12.2986 6.80382 11.8198 7.11047L11.3706 7.36963C10.8123 7.6565 10.1708 7.7365 9.55929 7.59548L7.93232 7.13722C6.97453 6.86543 6.49565 6.72954 6.07221 6.90175C5.64877 7.07398 5.39992 7.50586 4.90218 8.36963L4.24408 9.51176C3.77753 10.3214 3.54425 10.7263 3.58953 11.1572C3.6348 11.5882 3.94709 11.9355 4.57166 12.6301L5.94638 14.167C6.28238 14.5923 6.52093 15.3336 6.52093 16.0002C6.52093 16.667 6.28246 17.408 5.94642 17.8335L4.57166 19.3704C3.94709 20.0651 3.63481 20.4123 3.58953 20.8434C3.54425 21.2743 3.77753 21.6791 4.24408 22.4887L4.90217 23.6308C5.39989 24.4946 5.64877 24.9266 6.07221 25.0987C6.49565 25.271 6.97454 25.1351 7.93234 24.8632L9.55924 24.405C10.1708 24.2639 10.8125 24.344 11.3709 24.631L11.82 24.8902C12.2987 25.1968 12.6668 25.6488 12.8706 26.1803L13.316 27.5103C13.6087 28.3903 13.7551 28.8303 14.1036 29.082C14.4521 29.3336 14.915 29.3336 15.8408 29.3336H17.3272C18.253 29.3336 18.716 29.3336 19.0644 29.082C19.4129 28.8303 19.5593 28.3903 19.8521 27.5103L20.2974 26.1803C20.5012 25.6488 20.8693 25.1968 21.3481 24.8902L21.7972 24.631C22.3556 24.344 22.9972 24.2639 23.6088 24.405L25.2357 24.8632C26.1934 25.1351 26.6724 25.271 27.0958 25.0987C27.5193 24.9266 27.7681 24.4946 28.2658 23.6308L28.924 22.4887C29.3905 21.6791 29.6237 21.2743 29.5785 20.8434C29.5332 20.4123 29.2209 20.0651 28.5964 19.3704L27.2216 17.8335C26.8856 17.408 26.647 16.667 26.647 16.0002C26.647 15.3336 26.8857 14.5923 27.2216 14.167L28.5964 12.6301C29.2209 11.9355 29.5332 11.5882 29.5785 11.1572C29.6237 10.7263 29.3905 10.3214 28.924 9.51176Z" fill="white" stroke="white" stroke-width="2" stroke-linecap="round"/>
<path d="M21.1927 15.9899C21.1927 18.5672 19.1033 20.6566 16.526 20.6566C13.9487 20.6566 11.8594 18.5672 11.8594 15.9899C11.8594 13.4126 13.9487 11.3232 16.526 11.3232C19.1033 11.3232 21.1927 13.4126 21.1927 15.9899Z" stroke="#093BAA" stroke-width="2"/>
</svg>
