<svg width="242" height="42" viewBox="0 0 242 42" fill="none" xmlns="http://www.w3.org/2000/svg">
<rect x="3" y="2.99121" width="236" height="36" rx="6" fill="#0863DB"/>
<rect x="1.5" y="1.49121" width="239" height="39" rx="7.5" stroke="#6E99F7" stroke-opacity="0.5" stroke-width="3"/>
<path d="M27.0104 11.0029C27.7882 11.003 28.5393 11.2863 29.1234 11.7999L29.2774 11.9449L29.9754 12.6429C30.167 12.8332 30.4171 12.9534 30.6854 12.9839L30.8204 12.9919H31.8204C32.6376 12.9919 33.4239 13.3045 34.018 13.8657C34.6121 14.4268 34.9689 15.194 35.0154 16.0099L35.0204 16.1919V17.1919C35.0204 17.4619 35.1124 17.7249 35.2784 17.9349L35.3684 18.0349L36.0654 18.7329C36.6431 19.3074 36.98 20.0805 37.0073 20.8948C37.0346 21.709 36.7503 22.5031 36.2124 23.1149L36.0674 23.2689L35.3694 23.9669C35.1791 24.1585 35.059 24.4086 35.0284 24.6769L35.0204 24.8119V25.8119C35.0205 26.6291 34.7078 27.4154 34.1467 28.0095C33.5855 28.6036 32.8183 28.9604 32.0024 29.0069L31.8204 29.0119H30.8204C30.5508 29.012 30.2891 29.1029 30.0774 29.2699L29.9774 29.3599L29.2794 30.0569C28.705 30.6346 27.9318 30.9715 27.1175 30.9988C26.3033 31.0261 25.5093 30.7419 24.8974 30.2039L24.7434 30.0589L24.0454 29.3609C23.8539 29.1706 23.6037 29.0505 23.3354 29.0199L23.2004 29.0119H22.2004C21.3832 29.012 20.5969 28.6994 20.0028 28.1382C19.4088 27.577 19.0519 26.8098 19.0054 25.9939L19.0004 25.8119V24.8119C19.0003 24.5423 18.9094 24.2806 18.7424 24.0689L18.6524 23.9689L17.9554 23.2709C17.3777 22.6965 17.0408 21.9233 17.0135 21.1091C16.9862 20.2948 17.2705 19.5008 17.8084 18.8889L17.9534 18.7349L18.6514 18.0369C18.8417 17.8454 18.9619 17.5952 18.9924 17.3269L19.0004 17.1919V16.1919L19.0054 16.0099C19.0501 15.2254 19.3818 14.4847 19.9375 13.929C20.4932 13.3734 21.2339 13.0416 22.0184 12.9969L22.2004 12.9919H23.2004C23.47 12.9918 23.7318 12.901 23.9434 12.7339L24.0434 12.6439L24.7414 11.9469C25.0387 11.6478 25.3923 11.4104 25.7817 11.2484C26.1711 11.0864 26.5887 11.003 27.0104 11.0029ZM30.7074 18.2849C30.5199 18.0975 30.2656 17.9921 30.0004 17.9921C29.7352 17.9921 29.4809 18.0975 29.2934 18.2849L26.0004 21.5769L24.7074 20.2849L24.6134 20.2019C24.4124 20.0465 24.1598 19.9734 23.9069 19.9975C23.654 20.0216 23.4197 20.1411 23.2517 20.3317C23.0836 20.5222 22.9944 20.7696 23.0022 21.0235C23.0099 21.2775 23.1141 21.519 23.2934 21.6989L25.2934 23.6989L25.3874 23.7819C25.5798 23.9312 25.8201 24.0051 26.0631 23.9898C26.3061 23.9745 26.5352 23.8711 26.7074 23.6989L30.7074 19.6989L30.7904 19.6049C30.9397 19.4125 31.0136 19.1723 30.9983 18.9292C30.983 18.6862 30.8796 18.4571 30.7074 18.2849Z" fill="white"/>
<path d="M47.464 26.9912C47.0587 26.9912 46.728 26.8685 46.472 26.6232C46.216 26.3672 46.088 26.0419 46.088 25.6472V15.7912H51.384C52.376 15.7912 53.1707 16.0312 53.768 16.5112C54.376 16.9805 54.68 17.6045 54.68 18.3832V19.1992C54.68 19.5725 54.5893 19.9245 54.408 20.2552C54.2267 20.5859 53.976 20.8525 53.656 21.0552V21.0712C54.1787 21.2419 54.5947 21.5299 54.904 21.9352C55.224 22.3405 55.384 22.7992 55.384 23.3112V24.1112C55.384 24.9965 55.08 25.7005 54.472 26.2232C53.864 26.7352 53.0427 26.9912 52.008 26.9912H47.464ZM51.48 20.5752C51.8747 20.5752 52.1947 20.4472 52.44 20.1912C52.6853 19.9352 52.808 19.6045 52.808 19.1992V18.5432C52.808 18.2019 52.6693 17.9299 52.392 17.7272C52.1253 17.5245 51.768 17.4232 51.32 17.4232H47.96V20.5752H51.48ZM51.848 25.3592C52.3707 25.3592 52.776 25.2419 53.064 25.0072C53.3627 24.7725 53.512 24.4472 53.512 24.0312V23.3112C53.512 22.9485 53.384 22.6605 53.128 22.4472C52.872 22.2232 52.5307 22.1112 52.104 22.1112H47.96V25.3592H51.848ZM59.0746 27.1192C58.424 27.1192 57.848 26.9965 57.3466 26.7512C56.856 26.5059 56.472 26.1592 56.1946 25.7112C55.928 25.2632 55.7946 24.7459 55.7946 24.1592V22.0152C55.7946 21.3965 55.928 20.8525 56.1946 20.3832C56.472 19.9032 56.856 19.5352 57.3466 19.2792C57.848 19.0125 58.424 18.8792 59.0746 18.8792H60.3546C61.3253 18.8792 62.104 19.1619 62.6906 19.7272C63.2773 20.2925 63.5706 21.0445 63.5706 21.9832V23.5832H57.6346V24.1592C57.6346 24.5859 57.7626 24.9272 58.0186 25.1832C58.2853 25.4392 58.6373 25.5672 59.0746 25.5672H60.3066C60.7333 25.5672 61.0746 25.4659 61.3306 25.2632C61.5973 25.0499 61.7306 24.7725 61.7306 24.4312H63.5386C63.5386 25.2419 63.24 25.8925 62.6426 26.3832C62.0453 26.8739 61.2613 27.1192 60.2906 27.1192H59.0746ZM61.7626 22.2072V21.9832C61.7626 21.5139 61.6346 21.1352 61.3786 20.8472C61.1226 20.5592 60.7866 20.4152 60.3706 20.4152H59.0746C58.6373 20.4152 58.28 20.5699 58.0026 20.8792C57.736 21.1779 57.6026 21.5725 57.6026 22.0632V22.2072H61.7626ZM67.352 27.1192C66.3707 27.1192 65.5813 26.8365 64.984 26.2712C64.3973 25.7059 64.104 24.9592 64.104 24.0312V22.0152C64.104 21.3965 64.2373 20.8525 64.504 20.3832C64.7707 19.9032 65.1493 19.5352 65.64 19.2792C66.1307 19.0125 66.696 18.8792 67.336 18.8792H68.616C69.5333 18.8792 70.2693 19.1459 70.824 19.6792C71.3893 20.2019 71.672 20.8952 71.672 21.7592H69.864C69.864 21.3752 69.7467 21.0659 69.512 20.8312C69.288 20.5859 68.9893 20.4632 68.616 20.4632H67.352C66.936 20.4632 66.5947 20.6179 66.328 20.9272C66.072 21.2365 65.944 21.6365 65.944 22.1272V23.9192C65.944 24.3992 66.072 24.7885 66.328 25.0872C66.5947 25.3859 66.9413 25.5352 67.368 25.5352H68.632C69.0267 25.5352 69.3413 25.3912 69.576 25.1032C69.8213 24.8152 69.944 24.4419 69.944 23.9832H71.752C71.752 24.9219 71.464 25.6792 70.888 26.2552C70.3227 26.8312 69.5707 27.1192 68.632 27.1192H67.352ZM75.3961 27.1192C74.4148 27.1192 73.6255 26.8365 73.0281 26.2712C72.4308 25.6952 72.1321 24.9379 72.1321 23.9992V22.0152C72.1321 21.3965 72.2655 20.8525 72.5321 20.3832C72.8095 19.9032 73.1935 19.5352 73.6841 19.2792C74.1855 19.0125 74.7615 18.8792 75.4121 18.8792H76.8201C77.4708 18.8792 78.0415 19.0125 78.5321 19.2792C79.0335 19.5352 79.4175 19.9032 79.6841 20.3832C79.9615 20.8525 80.1001 21.3965 80.1001 22.0152V23.9992C80.1001 24.9379 79.7961 25.6952 79.1881 26.2712C78.5908 26.8365 77.7908 27.1192 76.7881 27.1192H75.3961ZM76.7721 25.5352C77.2201 25.5352 77.5775 25.3859 77.8441 25.0872C78.1215 24.7779 78.2601 24.3779 78.2601 23.8872V22.1112C78.2601 21.6205 78.1268 21.2259 77.8601 20.9272C77.5935 20.6179 77.2361 20.4632 76.7881 20.4632H75.4441C74.9961 20.4632 74.6388 20.6179 74.3721 20.9272C74.1055 21.2259 73.9721 21.6205 73.9721 22.1112V23.8872C73.9721 24.3779 74.1055 24.7779 74.3721 25.0872C74.6388 25.3859 74.9855 25.5352 75.4121 25.5352H76.7721ZM90.0191 18.8792C90.7978 18.8792 91.4165 19.1299 91.8751 19.6312C92.3445 20.1325 92.5791 20.8045 92.5791 21.6472V26.9912H90.7391V21.6312C90.7391 21.2792 90.6591 21.0019 90.4991 20.7992C90.3391 20.5859 90.1258 20.4792 89.8591 20.4792H89.0911C88.7391 20.4792 88.4405 20.6072 88.1951 20.8632C87.9498 21.1085 87.7898 21.4445 87.7151 21.8712V26.9912H85.8911V21.6792C85.8911 21.3165 85.8111 21.0285 85.6511 20.8152C85.4911 20.5912 85.2778 20.4792 85.0111 20.4792H84.2911C83.9391 20.4792 83.6298 20.6392 83.3631 20.9592C83.1071 21.2685 82.9418 21.6739 82.8671 22.1752V26.9912H81.0271V19.0072H82.7391V20.0152C82.9418 19.6632 83.1978 19.3859 83.5071 19.1832C83.8165 18.9805 84.1311 18.8792 84.4511 18.8792H85.3631C85.7685 18.8792 86.1311 18.9859 86.4511 19.1992C86.7711 19.4019 87.0218 19.6899 87.2031 20.0632C87.4378 19.6899 87.7205 19.4019 88.0511 19.1992C88.3818 18.9859 88.7338 18.8792 89.1071 18.8792H90.0191ZM96.6871 27.1192C96.0365 27.1192 95.4605 26.9965 94.9591 26.7512C94.4685 26.5059 94.0845 26.1592 93.8071 25.7112C93.5405 25.2632 93.4071 24.7459 93.4071 24.1592V22.0152C93.4071 21.3965 93.5405 20.8525 93.8071 20.3832C94.0845 19.9032 94.4685 19.5352 94.9591 19.2792C95.4605 19.0125 96.0365 18.8792 96.6871 18.8792H97.9671C98.9378 18.8792 99.7165 19.1619 100.303 19.7272C100.89 20.2925 101.183 21.0445 101.183 21.9832V23.5832H95.2471V24.1592C95.2471 24.5859 95.3751 24.9272 95.6311 25.1832C95.8978 25.4392 96.2498 25.5672 96.6871 25.5672H97.9191C98.3458 25.5672 98.6871 25.4659 98.9431 25.2632C99.2098 25.0499 99.3431 24.7725 99.3431 24.4312H101.151C101.151 25.2419 100.852 25.8925 100.255 26.3832C99.6578 26.8739 98.8738 27.1192 97.9031 27.1192H96.6871ZM99.3751 22.2072V21.9832C99.3751 21.5139 99.2471 21.1352 98.9911 20.8472C98.7351 20.5592 98.3991 20.4152 97.9831 20.4152H96.6871C96.2498 20.4152 95.8925 20.5699 95.6151 20.8792C95.3485 21.1779 95.2151 21.5725 95.2151 22.0632V22.2072H99.3751ZM105.769 15.7912H111.513C112.452 15.7912 113.209 16.0579 113.785 16.5912C114.361 17.1139 114.649 17.8072 114.649 18.6712V20.2072C114.649 21.1139 114.345 21.8445 113.737 22.3992C113.14 22.9432 112.351 23.2152 111.369 23.2152H107.641V26.9912H105.769V15.7912ZM111.337 21.5832C111.775 21.5832 112.121 21.4499 112.377 21.1832C112.644 20.9165 112.777 20.5699 112.777 20.1432V18.7192C112.777 18.3245 112.66 18.0099 112.425 17.7752C112.191 17.5405 111.876 17.4232 111.481 17.4232H107.641V21.5832H111.337ZM117.762 26.9912C116.866 26.9912 116.21 26.8045 115.794 26.4312C115.389 26.0472 115.186 25.4445 115.186 24.6232V15.7912H117.026V24.5432C117.026 24.8525 117.09 25.0765 117.218 25.2152C117.346 25.3432 117.56 25.4072 117.858 25.4072H118.626V26.9912H117.762ZM121.428 27.1192C120.618 27.1192 119.962 26.9165 119.46 26.5112C118.97 26.0952 118.724 25.5459 118.724 24.8632V24.2872C118.724 23.6152 118.98 23.0765 119.492 22.6712C120.015 22.2659 120.698 22.0632 121.54 22.0632H122.532C122.831 22.0632 123.151 22.1059 123.492 22.1912C123.834 22.2765 124.138 22.3885 124.404 22.5272V21.5352C124.404 21.2045 124.298 20.9379 124.084 20.7352C123.871 20.5325 123.594 20.4312 123.252 20.4312H121.908C121.556 20.4312 121.274 20.5165 121.06 20.6872C120.847 20.8472 120.74 21.0605 120.74 21.3272H118.948C118.948 20.5912 119.22 19.9992 119.764 19.5512C120.308 19.1032 121.023 18.8792 121.908 18.8792H123.252C124.148 18.8792 124.868 19.1245 125.412 19.6152C125.956 20.0952 126.228 20.7352 126.228 21.5352V26.9912H124.516V25.9832C124.26 26.3245 123.94 26.6019 123.556 26.8152C123.172 27.0179 122.794 27.1192 122.42 27.1192H121.428ZM122.532 25.6792C122.959 25.6792 123.343 25.5619 123.684 25.3272C124.026 25.0819 124.266 24.7619 124.404 24.3672V23.9832C124.223 23.8339 123.967 23.7165 123.636 23.6312C123.306 23.5352 122.959 23.4872 122.596 23.4872H121.588C121.268 23.4872 121.007 23.5672 120.804 23.7272C120.612 23.8872 120.516 24.0952 120.516 24.3512V24.7992C120.516 25.0659 120.618 25.2792 120.82 25.4392C121.023 25.5992 121.29 25.6792 121.62 25.6792H122.532ZM130.311 27.1192C129.33 27.1192 128.541 26.8365 127.943 26.2712C127.357 25.7059 127.063 24.9592 127.063 24.0312V22.0152C127.063 21.3965 127.197 20.8525 127.463 20.3832C127.73 19.9032 128.109 19.5352 128.599 19.2792C129.09 19.0125 129.655 18.8792 130.295 18.8792H131.575C132.493 18.8792 133.229 19.1459 133.783 19.6792C134.349 20.2019 134.631 20.8952 134.631 21.7592H132.823C132.823 21.3752 132.706 21.0659 132.471 20.8312C132.247 20.5859 131.949 20.4632 131.575 20.4632H130.311C129.895 20.4632 129.554 20.6179 129.287 20.9272C129.031 21.2365 128.903 21.6365 128.903 22.1272V23.9192C128.903 24.3992 129.031 24.7885 129.287 25.0872C129.554 25.3859 129.901 25.5352 130.327 25.5352H131.591C131.986 25.5352 132.301 25.3912 132.535 25.1032C132.781 24.8152 132.903 24.4419 132.903 23.9832H134.711C134.711 24.9219 134.423 25.6792 133.847 26.2552C133.282 26.8312 132.53 27.1192 131.591 27.1192H130.311ZM138.371 27.1192C137.721 27.1192 137.145 26.9965 136.643 26.7512C136.153 26.5059 135.769 26.1592 135.491 25.7112C135.225 25.2632 135.091 24.7459 135.091 24.1592V22.0152C135.091 21.3965 135.225 20.8525 135.491 20.3832C135.769 19.9032 136.153 19.5352 136.643 19.2792C137.145 19.0125 137.721 18.8792 138.371 18.8792H139.651C140.622 18.8792 141.401 19.1619 141.987 19.7272C142.574 20.2925 142.867 21.0445 142.867 21.9832V23.5832H136.931V24.1592C136.931 24.5859 137.059 24.9272 137.315 25.1832C137.582 25.4392 137.934 25.5672 138.371 25.5672H139.603C140.03 25.5672 140.371 25.4659 140.627 25.2632C140.894 25.0499 141.027 24.7725 141.027 24.4312H142.835C142.835 25.2419 142.537 25.8925 141.939 26.3832C141.342 26.8739 140.558 27.1192 139.587 27.1192H138.371ZM141.059 22.2072V21.9832C141.059 21.5139 140.931 21.1352 140.675 20.8472C140.419 20.5592 140.083 20.4152 139.667 20.4152H138.371C137.934 20.4152 137.577 20.5699 137.299 20.8792C137.033 21.1779 136.899 21.5725 136.899 22.0632V22.2072H141.059ZM152.713 18.8792C153.492 18.8792 154.11 19.1299 154.569 19.6312C155.038 20.1325 155.273 20.8045 155.273 21.6472V26.9912H153.433V21.6312C153.433 21.2792 153.353 21.0019 153.193 20.7992C153.033 20.5859 152.82 20.4792 152.553 20.4792H151.785C151.433 20.4792 151.134 20.6072 150.889 20.8632C150.644 21.1085 150.484 21.4445 150.409 21.8712V26.9912H148.585V21.6792C148.585 21.3165 148.505 21.0285 148.345 20.8152C148.185 20.5912 147.972 20.4792 147.705 20.4792H146.985C146.633 20.4792 146.324 20.6392 146.057 20.9592C145.801 21.2685 145.636 21.6739 145.561 22.1752V26.9912H143.721V19.0072H145.433V20.0152C145.636 19.6632 145.892 19.3859 146.201 19.1832C146.51 18.9805 146.825 18.8792 147.145 18.8792H148.057C148.462 18.8792 148.825 18.9859 149.145 19.1992C149.465 19.4019 149.716 19.6899 149.897 20.0632C150.132 19.6899 150.414 19.4019 150.745 19.1992C151.076 18.9859 151.428 18.8792 151.801 18.8792H152.713ZM159.381 27.1192C158.73 27.1192 158.154 26.9965 157.653 26.7512C157.162 26.5059 156.778 26.1592 156.501 25.7112C156.234 25.2632 156.101 24.7459 156.101 24.1592V22.0152C156.101 21.3965 156.234 20.8525 156.501 20.3832C156.778 19.9032 157.162 19.5352 157.653 19.2792C158.154 19.0125 158.73 18.8792 159.381 18.8792H160.661C161.632 18.8792 162.41 19.1619 162.997 19.7272C163.584 20.2925 163.877 21.0445 163.877 21.9832V23.5832H157.941V24.1592C157.941 24.5859 158.069 24.9272 158.325 25.1832C158.592 25.4392 158.944 25.5672 159.381 25.5672H160.613C161.04 25.5672 161.381 25.4659 161.637 25.2632C161.904 25.0499 162.037 24.7725 162.037 24.4312H163.845C163.845 25.2419 163.546 25.8925 162.949 26.3832C162.352 26.8739 161.568 27.1192 160.597 27.1192H159.381ZM162.069 22.2072V21.9832C162.069 21.5139 161.941 21.1352 161.685 20.8472C161.429 20.5592 161.093 20.4152 160.677 20.4152H159.381C158.944 20.4152 158.586 20.5699 158.309 20.8792C158.042 21.1779 157.909 21.5725 157.909 22.0632V22.2072H162.069ZM164.73 19.0072H166.442V20.0472C166.677 19.6952 166.986 19.4125 167.37 19.1992C167.754 18.9859 168.138 18.8792 168.522 18.8792H169.514C170.336 18.8792 170.992 19.1405 171.482 19.6632C171.984 20.1859 172.234 20.8739 172.234 21.7272V26.9912H170.394V21.7752C170.394 21.3912 170.293 21.0819 170.09 20.8472C169.898 20.6019 169.642 20.4792 169.322 20.4792H168.33C167.914 20.4792 167.541 20.6392 167.21 20.9592C166.88 21.2685 166.666 21.6685 166.57 22.1592V26.9912H164.73V19.0072ZM176.759 26.9912C175.853 26.9912 175.191 26.7885 174.775 26.3832C174.359 25.9779 174.151 25.3379 174.151 24.4632V20.5912H172.743V19.0072H174.199V16.5912H175.991V19.0072H178.071V20.5912H175.991V24.3992C175.991 24.7512 176.061 25.0072 176.199 25.1672C176.338 25.3272 176.557 25.4072 176.855 25.4072H178.071V26.9912H176.759ZM182.738 15.7912H188.514C189.431 15.7912 190.173 16.0419 190.738 16.5432C191.303 17.0445 191.586 17.7059 191.586 18.5272V19.6632C191.586 20.2179 191.415 20.7085 191.074 21.1352C190.743 21.5512 190.279 21.8605 189.682 22.0632V22.0952C190.023 22.2979 190.295 22.5592 190.498 22.8792C190.711 23.1885 190.893 23.5939 191.042 24.0952L191.938 26.9912H190.002L189.138 24.2232C188.999 23.7432 188.786 23.3752 188.498 23.1192C188.21 22.8632 187.874 22.7352 187.49 22.7352H184.61V26.9912H182.738V15.7912ZM188.098 21.1192C188.589 21.1192 188.978 20.9859 189.266 20.7192C189.565 20.4525 189.714 20.1059 189.714 19.6792V18.5752C189.714 18.2339 189.602 17.9565 189.378 17.7432C189.154 17.5299 188.855 17.4232 188.482 17.4232H184.61V21.1192H188.098ZM195.537 27.1192C194.886 27.1192 194.31 26.9965 193.809 26.7512C193.318 26.5059 192.934 26.1592 192.657 25.7112C192.39 25.2632 192.257 24.7459 192.257 24.1592V22.0152C192.257 21.3965 192.39 20.8525 192.657 20.3832C192.934 19.9032 193.318 19.5352 193.809 19.2792C194.31 19.0125 194.886 18.8792 195.537 18.8792H196.817C197.788 18.8792 198.566 19.1619 199.153 19.7272C199.74 20.2925 200.033 21.0445 200.033 21.9832V23.5832H194.097V24.1592C194.097 24.5859 194.225 24.9272 194.481 25.1832C194.748 25.4392 195.1 25.5672 195.537 25.5672H196.769C197.196 25.5672 197.537 25.4659 197.793 25.2632C198.06 25.0499 198.193 24.7725 198.193 24.4312H200.001C200.001 25.2419 199.702 25.8925 199.105 26.3832C198.508 26.8739 197.724 27.1192 196.753 27.1192H195.537ZM198.225 22.2072V21.9832C198.225 21.5139 198.097 21.1352 197.841 20.8472C197.585 20.5592 197.249 20.4152 196.833 20.4152H195.537C195.1 20.4152 194.742 20.5699 194.465 20.8792C194.198 21.1779 194.065 21.5725 194.065 22.0632V22.2072H198.225ZM203.335 27.1192C202.524 27.1192 201.868 26.9165 201.367 26.5112C200.876 26.0952 200.631 25.5459 200.631 24.8632V24.2872C200.631 23.6152 200.887 23.0765 201.399 22.6712C201.921 22.2659 202.604 22.0632 203.447 22.0632H204.439C204.737 22.0632 205.057 22.1059 205.399 22.1912C205.74 22.2765 206.044 22.3885 206.311 22.5272V21.5352C206.311 21.2045 206.204 20.9379 205.991 20.7352C205.777 20.5325 205.5 20.4312 205.159 20.4312H203.815C203.463 20.4312 203.18 20.5165 202.967 20.6872C202.753 20.8472 202.647 21.0605 202.647 21.3272H200.855C200.855 20.5912 201.127 19.9992 201.671 19.5512C202.215 19.1032 202.929 18.8792 203.815 18.8792H205.159C206.055 18.8792 206.775 19.1245 207.319 19.6152C207.863 20.0952 208.135 20.7352 208.135 21.5352V26.9912H206.423V25.9832C206.167 26.3245 205.847 26.6019 205.463 26.8152C205.079 27.0179 204.7 27.1192 204.327 27.1192H203.335ZM204.439 25.6792C204.865 25.6792 205.249 25.5619 205.591 25.3272C205.932 25.0819 206.172 24.7619 206.311 24.3672V23.9832C206.129 23.8339 205.873 23.7165 205.543 23.6312C205.212 23.5352 204.865 23.4872 204.503 23.4872H203.495C203.175 23.4872 202.913 23.5672 202.711 23.7272C202.519 23.8872 202.423 24.0952 202.423 24.3512V24.7992C202.423 25.0659 202.524 25.2792 202.727 25.4392C202.929 25.5992 203.196 25.6792 203.527 25.6792H204.439ZM212.01 27.1192C211.103 27.1192 210.367 26.8365 209.802 26.2712C209.247 25.6952 208.97 24.9432 208.97 24.0152V22.1592C208.97 21.5085 209.103 20.9379 209.37 20.4472C209.636 19.9459 210.01 19.5619 210.49 19.2952C210.98 19.0179 211.54 18.8792 212.17 18.8792H213.146C213.476 18.8792 213.802 18.9539 214.122 19.1032C214.452 19.2525 214.724 19.4499 214.938 19.6952V15.7912H216.762V26.9912H215.05V25.8872C214.826 26.2605 214.527 26.5592 214.154 26.7832C213.78 27.0072 213.402 27.1192 213.018 27.1192H212.01ZM213.162 25.5352C213.62 25.5352 214.015 25.3539 214.346 24.9912C214.687 24.6179 214.884 24.1592 214.938 23.6152V22.0152C214.863 21.5565 214.682 21.1832 214.394 20.8952C214.116 20.6072 213.78 20.4632 213.386 20.4632H212.362C211.892 20.4632 211.514 20.6285 211.226 20.9592C210.948 21.2899 210.81 21.7219 210.81 22.2552V23.9032C210.81 24.3939 210.938 24.7885 211.194 25.0872C211.46 25.3859 211.796 25.5352 212.202 25.5352H213.162ZM220.933 30.2392C220.123 30.2392 219.451 30.0152 218.917 29.5672C218.395 29.1192 218.107 28.5272 218.053 27.7912H219.861C219.893 28.0579 220.005 28.2712 220.197 28.4312C220.389 28.5912 220.635 28.6712 220.933 28.6712H222.229C222.635 28.6712 222.955 28.5165 223.189 28.2072C223.435 27.9085 223.557 27.5032 223.557 26.9912V25.8072C223.301 26.1592 223.003 26.4365 222.661 26.6392C222.331 26.8419 221.995 26.9432 221.653 26.9432H220.613C219.803 26.9432 219.147 26.6765 218.645 26.1432C218.155 25.5992 217.909 24.8845 217.909 23.9992V19.0072H219.749V24.0312C219.749 24.4365 219.845 24.7619 220.037 25.0072C220.24 25.2525 220.507 25.3752 220.837 25.3752H221.781C222.176 25.3752 222.539 25.2099 222.869 24.8792C223.211 24.5485 223.44 24.1272 223.557 23.6152V19.0072H225.381V26.9912C225.381 27.9832 225.093 28.7725 224.517 29.3592C223.952 29.9459 223.189 30.2392 222.229 30.2392H220.933Z" fill="white"/>
</svg>
