<svg width="122" height="49" viewBox="0 0 122 49" fill="none" xmlns="http://www.w3.org/2000/svg">
<g filter="url(#filter0_d_1480_11446)">
<path d="M115.44 34.664C115.511 36.6586 113.951 38.331 111.956 38.3994L10.881 41.8671C8.88636 41.9355 7.21191 40.3741 7.14102 38.3795L6.17915 11.3185C6.10825 9.32393 7.66775 7.65156 9.66239 7.58312L101.167 4.44377C102.098 4.41185 103.005 4.74035 103.7 5.36078L113.597 14.1942C114.333 14.851 114.768 15.7796 114.803 16.7647L115.44 34.664Z" fill="#007AFF"/>
<g filter="url(#filter1_d_1480_11446)">
<path d="M114.753 15.2214L102.621 4.393L102.73 15.9298L114.753 15.2214Z" fill="#B3C2E5"/>
</g>
<path d="M24.0997 34.2534C23.0242 34.2903 22.0689 34.0901 21.2337 33.6527C20.4146 33.2147 19.7652 32.5781 19.2855 31.7428C18.8053 30.8915 18.5455 29.9121 18.5061 28.8046L18.293 22.8096C18.2525 21.67 18.4341 20.6754 18.8378 19.8259C19.2571 18.9598 19.86 18.2882 20.6466 17.8113C21.4326 17.3183 22.3553 17.0536 23.4147 17.0172L25.4854 16.9462C26.8658 16.8988 27.9965 17.2859 28.8775 18.1074C29.7585 18.9289 30.2238 20.0379 30.2734 21.4343L28.0342 21.5112C28.0062 20.7247 27.7593 20.1064 27.2933 19.6563C26.8428 19.1897 26.2644 18.9685 25.5581 18.9927L23.4875 19.0637C22.5565 19.0957 21.8295 19.442 21.3066 20.1028C20.7831 20.7475 20.541 21.6236 20.5804 22.7311L20.6736 25.3554C21.0693 24.7312 21.5982 24.2389 22.2604 23.8788C22.9381 23.502 23.6301 23.3014 24.3363 23.2772L25.9014 23.2235C27.3941 23.1723 28.5979 23.581 29.5127 24.4495C30.443 25.3015 30.9338 26.4498 30.9851 27.8943L31.0185 28.8333C31.055 29.8606 30.8625 30.7752 30.4411 31.5771C30.0351 32.3624 29.4304 32.9858 28.6272 33.4472C27.84 33.9081 26.9167 34.1568 25.8573 34.1931L24.0997 34.2534ZM25.7863 32.1948C26.7012 32.1634 27.4294 31.8491 27.9706 31.252C28.5119 30.6549 28.7654 29.8748 28.7312 28.9118L28.6969 27.9487C28.6667 27.098 28.4017 26.4241 27.9019 25.927C27.4021 25.4299 26.7509 25.1951 25.9483 25.2227L24.3592 25.2772C23.4603 25.308 22.6924 25.6317 22.0554 26.2481C21.4344 26.8641 21.0513 27.6164 20.9061 28.5053L20.937 29.372C20.9689 30.2709 21.2674 30.9838 21.8326 31.5108C22.4138 32.0373 23.1619 32.2848 24.0768 32.2534L25.7863 32.1948ZM54.1427 21.0011L51.986 31.537C51.8769 32.0871 51.6906 32.4953 51.4268 32.7614C51.1625 33.0116 50.8136 33.1441 50.3802 33.1589L49.3449 33.1945L46.126 24.6992L43.446 33.3968L42.4106 33.4324C41.9772 33.4472 41.6198 33.339 41.3384 33.1076C41.0564 32.8601 40.8415 32.4657 40.6937 31.9244L37.7701 21.5628L40.1296 21.4819L42.4326 30.6594L45.1729 21.6222L46.0157 21.5933C46.3046 21.5834 46.5399 21.6476 46.7216 21.786C46.9027 21.9084 47.0466 22.1124 47.1532 22.398L50.1382 30.4192L51.7831 21.0821L54.1427 21.0011ZM60.348 33.0098C58.9354 33.0583 57.7815 32.6961 56.8862 31.9233C56.0064 31.1339 55.5431 30.0811 55.4963 28.7649L55.3782 25.4424C55.328 24.0299 55.7131 22.8837 56.5336 22.0038C57.3702 21.1234 58.4947 20.659 59.9073 20.6105L61.8816 20.5428C63.246 20.4959 64.3603 20.8755 65.2247 21.6816C66.089 22.4876 66.5458 23.5808 66.5948 24.9611L66.6753 27.2243L57.6944 27.5324L57.7355 28.6881C57.7617 29.4264 58.0076 30.0126 58.473 30.4466C58.9384 30.8806 59.5403 31.085 60.2787 31.0596L62.1326 30.996C62.8549 30.9712 63.4343 30.7665 63.8706 30.382C64.3063 29.9813 64.5131 29.468 64.4908 28.842L66.6819 28.7668C66.7247 29.9707 66.3338 30.9563 65.5093 31.7239C64.6848 32.4914 63.5743 32.8991 62.1779 32.947L60.348 33.0098ZM64.3727 25.5195L64.3556 25.038C64.3271 24.2354 64.0876 23.6008 63.6371 23.1342C63.2026 22.6669 62.6403 22.4452 61.9501 22.4689L59.9757 22.5366C59.2373 22.5619 58.6526 22.8391 58.2214 23.3682C57.7896 23.8812 57.5886 24.555 57.6182 25.3896L57.6311 25.7508L64.3727 25.5195ZM73.3629 32.5633C71.9504 32.6117 70.7965 32.2496 69.9011 31.4768C69.0213 30.6874 68.558 29.6346 68.5112 28.3184L68.3931 24.9959C68.3429 23.5834 68.7281 22.4372 69.5486 21.5573C70.3851 20.6769 71.5097 20.2124 72.9222 20.164L74.8965 20.0962C76.2609 20.0494 77.3753 20.429 78.2396 21.235C79.104 22.0411 79.5607 23.1342 79.6098 24.5146L79.6902 26.7778L70.7093 27.0859L70.7504 28.2416C70.7767 28.9799 71.0225 29.5661 71.4879 30.0001C71.9533 30.4341 72.5552 30.6384 73.2936 30.6131L75.1476 30.5495C75.8699 30.5247 76.4492 30.32 76.8855 29.9354C77.3213 29.5348 77.528 29.0215 77.5058 28.3955L79.6968 28.3203C79.7396 29.5241 79.3488 30.5098 78.5243 31.2773C77.6998 32.0449 76.5893 32.4526 75.1928 32.5005L73.3629 32.5633ZM77.3877 25.073L77.3706 24.5914C77.342 23.7889 77.1025 23.1543 76.652 22.6876C76.2176 22.2204 75.6552 21.9987 74.965 22.0223L72.9907 22.0901C72.2523 22.1154 71.6675 22.3926 71.2363 22.9217C70.8046 23.4346 70.6035 24.1085 70.6332 24.9431L70.646 25.3043L77.3877 25.073ZM90.3438 31.7879L85.77 26.5451L84.2598 28.1397L84.3967 31.9919L82.1575 32.0687L81.5584 15.2153L83.7976 15.1385L84.1656 25.4913L89.5315 19.787L92.2041 19.6953L87.1865 25.0261L92.9441 31.6986L90.3438 31.7879ZM97.688 31.7287C96.3878 31.7733 95.3319 31.456 94.5203 30.7768C93.7081 30.0815 93.2812 29.148 93.2395 27.9762L95.4306 27.9011C95.4517 28.4949 95.6614 28.9699 96.0598 29.3258C96.4581 29.6818 96.9784 29.8487 97.6204 29.8267L99.7392 29.754C100.349 29.7331 100.835 29.6039 101.196 29.3666C101.557 29.1131 101.73 28.7938 101.716 28.4086L101.692 27.7104C101.682 27.4536 101.562 27.2327 101.331 27.0478C101.114 26.8463 100.837 26.7192 100.497 26.6666L96.3063 26.0872C95.4177 25.957 94.6998 25.6522 94.1524 25.1728C93.6044 24.6773 93.3185 24.0925 93.2945 23.4184L93.2663 22.6239C93.2326 21.6769 93.5827 20.9015 94.3166 20.2978C95.0505 19.6941 96.0515 19.3705 97.3195 19.327L99.342 19.2576C100.546 19.2163 101.521 19.5123 102.266 20.1456C103.028 20.7783 103.428 21.6404 103.467 22.7319L101.276 22.8071C101.242 22.294 101.051 21.8907 100.703 21.5973C100.37 21.2873 99.9393 21.1414 99.4096 21.1596L97.4112 21.2282C96.8173 21.2485 96.3481 21.3852 96.0035 21.638C95.675 21.8904 95.5178 22.2172 95.5321 22.6184L95.5535 23.2203C95.5626 23.4772 95.683 23.698 95.9145 23.8829C96.1461 24.0678 96.4399 24.1943 96.7959 24.2625L101.036 24.8643C101.876 24.9801 102.561 25.278 103.093 25.758C103.64 26.2374 103.925 26.8061 103.949 27.4642L103.982 28.4032C104.015 29.3341 103.649 30.102 102.883 30.7068C102.116 31.2956 101.091 31.612 99.8068 31.656L97.688 31.7287Z" fill="white"/>
</g>
<defs>
<filter id="filter0_d_1480_11446" x="0.586546" y="0.200652" width="120.444" height="48.655" filterUnits="userSpaceOnUse" color-interpolation-filters="sRGB">
<feFlood flood-opacity="0" result="BackgroundImageFix"/>
<feColorMatrix in="SourceAlpha" type="matrix" values="0 0 0 0 0 0 0 0 0 0 0 0 0 0 0 0 0 0 127 0" result="hardAlpha"/>
<feOffset dy="1.39731"/>
<feGaussianBlur stdDeviation="2.79462"/>
<feComposite in2="hardAlpha" operator="out"/>
<feColorMatrix type="matrix" values="0 0 0 0 0 0 0 0 0 0 0 0 0 0 0 0 0 0 0.15 0"/>
<feBlend mode="normal" in2="BackgroundImageFix" result="effect1_dropShadow_1480_11446"/>
<feBlend mode="normal" in="SourceGraphic" in2="effect1_dropShadow_1480_11446" result="shape"/>
</filter>
<filter id="filter1_d_1480_11446" x="99.0074" y="3.188" width="21.7694" height="21.1737" filterUnits="userSpaceOnUse" color-interpolation-filters="sRGB">
<feFlood flood-opacity="0" result="BackgroundImageFix"/>
<feColorMatrix in="SourceAlpha" type="matrix" values="0 0 0 0 0 0 0 0 0 0 0 0 0 0 0 0 0 0 127 0" result="hardAlpha"/>
<feOffset dx="1.20458" dy="3.61373"/>
<feGaussianBlur stdDeviation="2.40915"/>
<feComposite in2="hardAlpha" operator="out"/>
<feColorMatrix type="matrix" values="0 0 0 0 0 0 0 0 0 0 0 0 0 0 0 0 0 0 0.35 0"/>
<feBlend mode="normal" in2="BackgroundImageFix" result="effect1_dropShadow_1480_11446"/>
<feBlend mode="normal" in="SourceGraphic" in2="effect1_dropShadow_1480_11446" result="shape"/>
</filter>
</defs>
</svg>
