<svg width="203" height="40" viewBox="0 0 203 40" fill="none" xmlns="http://www.w3.org/2000/svg">
<path d="M36.6666 19.9997C36.6666 10.7949 29.2046 3.33301 19.9999 3.33301C10.7952 3.33301 3.33325 10.7949 3.33325 19.9997C3.33325 29.2043 10.7952 36.6663 19.9999 36.6663C21.4028 36.6663 23.3333 36.8602 23.3333 34.9997C23.3333 33.9847 22.8053 33.2017 22.2809 32.4237C21.5136 31.2855 20.7538 30.1585 21.6666 28.333C22.7778 26.1108 24.6296 26.1108 27.4691 26.1108C28.8889 26.1108 30.5556 26.1108 32.4999 25.833C36.0016 25.3328 36.6666 23.1803 36.6666 19.9997Z" fill="white" stroke="white" stroke-width="2.5"/>
<path d="M11.6667 25.003L11.6812 24.999" stroke="#093BAA" stroke-width="3.33333" stroke-linecap="round" stroke-linejoin="round"/>
<path d="M15.8333 16.666C17.214 16.666 18.3333 15.5467 18.3333 14.166C18.3333 12.7853 17.214 11.666 15.8333 11.666C14.4525 11.666 13.3333 12.7853 13.3333 14.166C13.3333 15.5467 14.4525 16.666 15.8333 16.666Z" stroke="#093BAA" stroke-width="2.5"/>
<path d="M27.5 18.333C28.8807 18.333 30 17.2137 30 15.833C30 14.4523 28.8807 13.333 27.5 13.333C26.1193 13.333 25 14.4523 25 15.833C25 17.2137 26.1193 18.333 27.5 18.333Z" stroke="#093BAA" stroke-width="2.5"/>
<path d="M197.333 20C197.333 21.4728 198.527 22.6667 200 22.6667C201.473 22.6667 202.667 21.4728 202.667 20C202.667 18.5272 201.473 17.3333 200 17.3333C198.527 17.3333 197.333 18.5272 197.333 20ZM60 20.5H61.9444V19.5H60V20.5ZM65.8333 20.5H69.7222V19.5H65.8333V20.5ZM73.6111 20.5H77.5V19.5H73.6111V20.5ZM81.3889 20.5H85.2778V19.5H81.3889V20.5ZM89.1667 20.5H93.0556V19.5H89.1667V20.5ZM96.9444 20.5H100.833V19.5H96.9444V20.5ZM104.722 20.5H108.611V19.5H104.722V20.5ZM112.5 20.5H116.389V19.5H112.5V20.5ZM120.278 20.5H124.167V19.5H120.278V20.5ZM128.056 20.5H131.944V19.5H128.056V20.5ZM135.833 20.5H139.722V19.5H135.833V20.5ZM143.611 20.5H147.5V19.5H143.611V20.5ZM151.389 20.5H155.278V19.5H151.389V20.5ZM159.167 20.5H163.056V19.5H159.167V20.5ZM166.944 20.5H170.833V19.5H166.944V20.5ZM174.722 20.5H178.611V19.5H174.722V20.5ZM182.5 20.5H186.389V19.5H182.5V20.5ZM190.278 20.5H194.167V19.5H190.278V20.5ZM198.055 20.5H200V19.5H198.055V20.5Z" fill="white"/>
</svg>
