<svg width="220" height="40" viewBox="0 0 220 40" fill="none" xmlns="http://www.w3.org/2000/svg">
<path d="M3.33325 20.8333C3.33325 18.9923 4.82564 17.5 6.66659 17.5C9.428 17.5 11.6666 19.7385 11.6666 22.5V29.1667C11.6666 31.9282 9.428 34.1667 6.66659 34.1667C4.82564 34.1667 3.33325 32.6743 3.33325 30.8333V20.8333Z" fill="white" stroke="white" stroke-width="2.5" stroke-linecap="round" stroke-linejoin="round"/>
<path d="M25.7979 13.0101L25.3541 14.4436C24.9904 15.6182 24.8086 16.2055 24.9484 16.6693C25.0616 17.0445 25.3099 17.368 25.6484 17.5808C26.0667 17.8438 26.6996 17.8438 27.9652 17.8438H28.6386C32.9221 17.8438 35.0637 17.8438 36.0754 19.1118C36.1909 19.2567 36.2937 19.4108 36.3827 19.5725C37.1609 20.9865 36.2762 22.8915 34.5067 26.7015C32.8829 30.1978 32.0709 31.946 30.5634 32.975C30.4176 33.0745 30.2676 33.1685 30.1139 33.2565C28.5267 34.1663 26.5604 34.1663 22.6274 34.1663H21.7744C17.0096 34.1663 14.6272 34.1663 13.147 32.7322C11.6667 31.2978 11.6667 28.9895 11.6667 24.3728V22.7502C11.6667 20.324 11.6667 19.111 12.0973 18.0007C12.5279 16.8903 13.3523 15.9774 15.0012 14.1515L21.8202 6.60061C21.9912 6.41124 22.0767 6.31654 22.1522 6.25093C22.8559 5.63848 23.9421 5.70741 24.5574 6.40359C24.6234 6.47818 24.6954 6.58286 24.8394 6.79224C25.0647 7.11976 25.1774 7.28353 25.2757 7.44576C26.1547 8.89823 26.4207 10.6236 26.0181 12.2616C25.9731 12.4445 25.9147 12.6332 25.7979 13.0101Z" fill="white" stroke="white" stroke-width="2.5" stroke-linecap="round" stroke-linejoin="round"/>
<path d="M197.333 20C197.333 21.4728 198.527 22.6667 200 22.6667C201.473 22.6667 202.667 21.4728 202.667 20C202.667 18.5272 201.473 17.3333 200 17.3333C198.527 17.3333 197.333 18.5272 197.333 20ZM60 20.5H61.9444V19.5H60V20.5ZM65.8333 20.5H69.7222V19.5H65.8333V20.5ZM73.6111 20.5H77.5V19.5H73.6111V20.5ZM81.3889 20.5H85.2778V19.5H81.3889V20.5ZM89.1667 20.5H93.0556V19.5H89.1667V20.5ZM96.9444 20.5H100.833V19.5H96.9444V20.5ZM104.722 20.5H108.611V19.5H104.722V20.5ZM112.5 20.5H116.389V19.5H112.5V20.5ZM120.278 20.5H124.167V19.5H120.278V20.5ZM128.056 20.5H131.944V19.5H128.056V20.5ZM135.833 20.5H139.722V19.5H135.833V20.5ZM143.611 20.5H147.5V19.5H143.611V20.5ZM151.389 20.5H155.278V19.5H151.389V20.5ZM159.167 20.5H163.056V19.5H159.167V20.5ZM166.944 20.5H170.833V19.5H166.944V20.5ZM174.722 20.5H178.611V19.5H174.722V20.5ZM182.5 20.5H186.389V19.5H182.5V20.5ZM190.278 20.5H194.167V19.5H190.278V20.5ZM198.055 20.5H200V19.5H198.055V20.5Z" fill="white"/>
</svg>
