<svg width="33" height="32" viewBox="0 0 33 32" fill="none" xmlns="http://www.w3.org/2000/svg">
<path d="M3.16602 16.6569C3.16602 15.1841 4.35992 13.9902 5.83268 13.9902C8.04182 13.9902 9.83268 15.781 9.83268 17.9902V23.3236C9.83268 25.5328 8.04182 27.3236 5.83268 27.3236C4.35992 27.3236 3.16602 26.1297 3.16602 24.6569V16.6569Z" fill="white" stroke="white" stroke-width="2" stroke-linecap="round" stroke-linejoin="round"/>
<path d="M21.137 10.3989L20.7819 11.5457C20.491 12.4854 20.3455 12.9552 20.4574 13.3263C20.5479 13.6264 20.7466 13.8852 21.0174 14.0555C21.352 14.2659 21.8583 14.2659 22.8708 14.2659H23.4095C26.8363 14.2659 28.5496 14.2659 29.359 15.2803C29.4514 15.3962 29.5336 15.5195 29.6048 15.6488C30.2274 16.78 29.5196 18.304 28.104 21.352C26.805 24.1491 26.1554 25.5476 24.9494 26.3708C24.8327 26.4504 24.7127 26.5256 24.5898 26.596C23.32 27.3239 21.747 27.3239 18.6006 27.3239H17.9182C14.1063 27.3239 12.2004 27.3239 11.0162 26.1766C9.83203 25.0291 9.83203 23.1824 9.83203 19.4891V18.191C9.83203 16.25 9.83203 15.2796 10.1765 14.3914C10.5209 13.5031 11.1805 12.7727 12.4996 11.3121L17.9548 5.27131C18.0916 5.11981 18.16 5.04405 18.2204 4.99156C18.7834 4.5016 19.6523 4.55675 20.1446 5.11369C20.1974 5.17336 20.255 5.25711 20.3702 5.42461C20.5504 5.68663 20.6406 5.81764 20.7192 5.94743C21.4224 7.1094 21.6352 8.48971 21.3131 9.80009C21.2771 9.94645 21.2304 10.0974 21.137 10.3989Z" fill="white" stroke="white" stroke-width="2" stroke-linecap="round" stroke-linejoin="round"/>
</svg>
