<svg width="33" height="32" viewBox="0 0 33 32" fill="none" xmlns="http://www.w3.org/2000/svg">
<path d="M5.08579 11.4044C5.67157 11.9902 6.61439 11.9902 8.5 11.9902C10.3856 11.9902 11.3284 11.9902 11.9142 11.4044C12.5 10.8187 12.5 9.87585 12.5 7.99023C12.5 6.10462 12.5 5.16181 11.9142 4.57602C11.3284 3.99023 10.3856 3.99023 8.5 3.99023C6.61439 3.99023 5.67157 3.99023 5.08579 4.57602C4.5 5.16181 4.5 6.10462 4.5 7.99023C4.5 9.87585 4.5 10.8187 5.08579 11.4044Z" fill="white" stroke="white" stroke-width="2" stroke-linecap="round" stroke-linejoin="round"/>
<path d="M21.0857 11.4044C21.6716 11.9902 22.6144 11.9902 24.5 11.9902C26.3856 11.9902 27.3284 11.9902 27.9143 11.4044C28.5 10.8187 28.5 9.87585 28.5 7.99023C28.5 6.10462 28.5 5.16181 27.9143 4.57602C27.3284 3.99023 26.3856 3.99023 24.5 3.99023C22.6144 3.99023 21.6716 3.99023 21.0857 4.57602C20.5 5.16181 20.5 6.10462 20.5 7.99023C20.5 9.87585 20.5 10.8187 21.0857 11.4044Z" fill="white" stroke="white" stroke-width="2" stroke-linecap="round" stroke-linejoin="round"/>
<path d="M21.0857 27.4045C21.6716 27.9902 22.6144 27.9902 24.5 27.9902C26.3856 27.9902 27.3284 27.9902 27.9143 27.4045C28.5 26.8186 28.5 25.8758 28.5 23.9902C28.5 22.1046 28.5 21.1618 27.9143 20.576C27.3284 19.9902 26.3856 19.9902 24.5 19.9902C22.6144 19.9902 21.6716 19.9902 21.0857 20.576C20.5 21.1618 20.5 22.1046 20.5 23.9902C20.5 25.8758 20.5 26.8186 21.0857 27.4045Z" fill="white" stroke="white" stroke-width="2" stroke-linecap="round" stroke-linejoin="round"/>
<path d="M5.08579 27.4045C5.67157 27.9902 6.61439 27.9902 8.5 27.9902C10.3856 27.9902 11.3284 27.9902 11.9142 27.4045C12.5 26.8186 12.5 25.8758 12.5 23.9902C12.5 22.1046 12.5 21.1618 11.9142 20.576C11.3284 19.9902 10.3856 19.9902 8.5 19.9902C6.61439 19.9902 5.67157 19.9902 5.08579 20.576C4.5 21.1618 4.5 22.1046 4.5 23.9902C4.5 25.8758 4.5 26.8186 5.08579 27.4045Z" fill="white" stroke="white" stroke-width="2" stroke-linecap="round" stroke-linejoin="round"/>
<path d="M16.5 7.99023H12.5" stroke="white" stroke-width="2" stroke-linecap="round" stroke-linejoin="round"/>
<path d="M20.5 23.9902H16.5" stroke="white" stroke-width="2" stroke-linecap="round" stroke-linejoin="round"/>
<path d="M24.5 15.9902V11.9902" stroke="white" stroke-width="2" stroke-linecap="round" stroke-linejoin="round"/>
<path d="M8.5 19.9902V15.9902" stroke="white" stroke-width="2" stroke-linecap="round" stroke-linejoin="round"/>
</svg>
