<svg width="203" height="40" viewBox="0 0 203 40" fill="none" xmlns="http://www.w3.org/2000/svg">
<path d="M5.73223 14.2678C6.46447 15 7.64298 15 10 15C12.357 15 13.5355 15 14.2678 14.2678C15 13.5355 15 12.357 15 10C15 7.64298 15 6.46447 14.2678 5.73223C13.5355 5 12.357 5 10 5C7.64298 5 6.46447 5 5.73223 5.73223C5 6.46447 5 7.64298 5 10C5 12.357 5 13.5355 5.73223 14.2678Z" fill="white" stroke="white" stroke-width="2.5" stroke-linecap="round" stroke-linejoin="round"/>
<path d="M25.7322 14.2678C26.4645 15 27.643 15 30 15C32.357 15 33.5355 15 34.2678 14.2678C35 13.5355 35 12.357 35 10C35 7.64298 35 6.46447 34.2678 5.73223C33.5355 5 32.357 5 30 5C27.643 5 26.4645 5 25.7322 5.73223C25 6.46447 25 7.64298 25 10C25 12.357 25 13.5355 25.7322 14.2678Z" fill="white" stroke="white" stroke-width="2.5" stroke-linecap="round" stroke-linejoin="round"/>
<path d="M25.7322 34.2678C26.4645 35 27.643 35 30 35C32.357 35 33.5355 35 34.2678 34.2678C35 33.5355 35 32.357 35 30C35 27.643 35 26.4645 34.2678 25.7322C33.5355 25 32.357 25 30 25C27.643 25 26.4645 25 25.7322 25.7322C25 26.4645 25 27.643 25 30C25 32.357 25 33.5355 25.7322 34.2678Z" fill="white" stroke="white" stroke-width="2.5" stroke-linecap="round" stroke-linejoin="round"/>
<path d="M5.73223 34.2678C6.46447 35 7.64298 35 10 35C12.357 35 13.5355 35 14.2678 34.2678C15 33.5355 15 32.357 15 30C15 27.643 15 26.4645 14.2678 25.7322C13.5355 25 12.357 25 10 25C7.64298 25 6.46447 25 5.73223 25.7322C5 26.4645 5 27.643 5 30C5 32.357 5 33.5355 5.73223 34.2678Z" fill="white" stroke="white" stroke-width="2.5" stroke-linecap="round" stroke-linejoin="round"/>
<path d="M20 10H15" stroke="white" stroke-width="2.5" stroke-linecap="round" stroke-linejoin="round"/>
<path d="M25 30H20" stroke="white" stroke-width="2.5" stroke-linecap="round" stroke-linejoin="round"/>
<path d="M30 20V15" stroke="white" stroke-width="2.5" stroke-linecap="round" stroke-linejoin="round"/>
<path d="M10 25V20" stroke="white" stroke-width="2.5" stroke-linecap="round" stroke-linejoin="round"/>
<path d="M197.333 20C197.333 21.4728 198.527 22.6667 200 22.6667C201.473 22.6667 202.667 21.4728 202.667 20C202.667 18.5272 201.473 17.3333 200 17.3333C198.527 17.3333 197.333 18.5272 197.333 20ZM60 20.5H61.9444V19.5H60V20.5ZM65.8333 20.5H69.7222V19.5H65.8333V20.5ZM73.6111 20.5H77.5V19.5H73.6111V20.5ZM81.3889 20.5H85.2778V19.5H81.3889V20.5ZM89.1667 20.5H93.0556V19.5H89.1667V20.5ZM96.9444 20.5H100.833V19.5H96.9444V20.5ZM104.722 20.5H108.611V19.5H104.722V20.5ZM112.5 20.5H116.389V19.5H112.5V20.5ZM120.278 20.5H124.167V19.5H120.278V20.5ZM128.056 20.5H131.944V19.5H128.056V20.5ZM135.833 20.5H139.722V19.5H135.833V20.5ZM143.611 20.5H147.5V19.5H143.611V20.5ZM151.389 20.5H155.278V19.5H151.389V20.5ZM159.167 20.5H163.056V19.5H159.167V20.5ZM166.944 20.5H170.833V19.5H166.944V20.5ZM174.722 20.5H178.611V19.5H174.722V20.5ZM182.5 20.5H186.389V19.5H182.5V20.5ZM190.278 20.5H194.167V19.5H190.278V20.5ZM198.055 20.5H200V19.5H198.055V20.5Z" fill="white"/>
</svg>
