<svg xmlns="http://www.w3.org/2000/svg" width="1440" height="479" viewBox="0 0 1440 479" fill="none">
<g clip-path="url(#clip0_94_837)">
<rect width="1440" height="479" fill="#093BAA"/>
<path d="M-189 33.4056C-189 20.7658 -181.999 17.8085 -168.696 14.1837C-88.5854 -7.64551 13.8895 -8.64525 82.1066 42.6469C177.381 114.283 225.973 229.888 323.669 298.323C353.41 319.156 385.792 330.131 421.673 337.506C497.905 353.174 575.89 365.536 652.823 377.675C777.088 397.282 905.765 387.122 1031.04 385.807C1130.18 384.767 1238.71 378.261 1334.3 408.726C1393.7 427.657 1453.31 469.011 1472 528" stroke="#B1D0FF" stroke-opacity="0.1" stroke-width="5" stroke-linecap="round"/>
<path d="M774 -197.396V954.604" stroke="url(#paint0_linear_94_837)" stroke-opacity="0.1" stroke-width="1.5"/>
<path d="M210 -197.396V954.604" stroke="url(#paint1_linear_94_837)" stroke-opacity="0.1" stroke-width="1.5"/>
<path d="M-240 48.8779L1680 48.8782" stroke="url(#paint2_linear_94_837)" stroke-opacity="0.1" stroke-width="1.5"/>
<path d="M-240 416.275L1680 416.276" stroke="url(#paint3_linear_94_837)" stroke-opacity="0.1" stroke-width="1.5"/>
<path d="M-240 219.576L1680 219.576" stroke="url(#paint4_linear_94_837)" stroke-opacity="0.1" stroke-width="1.5"/>
<path d="M1338 -197.396V954.604" stroke="url(#paint5_linear_94_837)" stroke-opacity="0.1" stroke-width="1.5"/>
<path d="M1056 -197.396V954.604" stroke="url(#paint6_linear_94_837)" stroke-opacity="0.1" stroke-width="1.5"/>
<path d="M492 -197.396V954.604" stroke="url(#paint7_linear_94_837)" stroke-opacity="0.1" stroke-width="1.5"/>
















<path d="" fill="white"/>























</g>
<defs>
<linearGradient id="paint0_linear_94_837" x1="774.5" y1="-197.396" x2="774.5" y2="954.604" gradientUnits="userSpaceOnUse">
<stop stop-color="#B7BDC6" stop-opacity="0"/>
<stop offset="0.505" stop-color="#B7BDC6"/>
<stop offset="1" stop-color="#B7BDC6" stop-opacity="0"/>
</linearGradient>
<linearGradient id="paint1_linear_94_837" x1="210.5" y1="-197.396" x2="210.5" y2="954.604" gradientUnits="userSpaceOnUse">
<stop stop-color="#B7BDC6" stop-opacity="0"/>
<stop offset="0.505" stop-color="#B7BDC6"/>
<stop offset="1" stop-color="#B7BDC6" stop-opacity="0"/>
</linearGradient>
<linearGradient id="paint2_linear_94_837" x1="-240" y1="48.3779" x2="1680" y2="48.3781" gradientUnits="userSpaceOnUse">
<stop stop-color="#B7BDC6" stop-opacity="0"/>
<stop offset="0.505" stop-color="#B7BDC6"/>
<stop offset="1" stop-color="#B7BDC6" stop-opacity="0"/>
</linearGradient>
<linearGradient id="paint3_linear_94_837" x1="-240" y1="415.775" x2="1680" y2="415.776" gradientUnits="userSpaceOnUse">
<stop stop-color="#B7BDC6" stop-opacity="0"/>
<stop offset="0.505" stop-color="#B7BDC6"/>
<stop offset="1" stop-color="#B7BDC6" stop-opacity="0"/>
</linearGradient>
<linearGradient id="paint4_linear_94_837" x1="-240" y1="219.076" x2="1680" y2="219.076" gradientUnits="userSpaceOnUse">
<stop stop-color="#B7BDC6" stop-opacity="0"/>
<stop offset="0.505" stop-color="#B7BDC6"/>
<stop offset="1" stop-color="#B7BDC6" stop-opacity="0"/>
</linearGradient>
<linearGradient id="paint5_linear_94_837" x1="1338.5" y1="-197.396" x2="1338.5" y2="954.604" gradientUnits="userSpaceOnUse">
<stop stop-color="#B7BDC6" stop-opacity="0"/>
<stop offset="0.5" stop-color="#B7BDC6"/>
<stop offset="1" stop-color="#B7BDC6" stop-opacity="0"/>
</linearGradient>
<linearGradient id="paint6_linear_94_837" x1="1056.5" y1="-197.396" x2="1056.5" y2="954.604" gradientUnits="userSpaceOnUse">
<stop stop-color="#B7BDC6" stop-opacity="0"/>
<stop offset="0.505" stop-color="#B7BDC6"/>
<stop offset="1" stop-color="#B7BDC6" stop-opacity="0"/>
</linearGradient>
<linearGradient id="paint7_linear_94_837" x1="492.5" y1="-197.396" x2="492.5" y2="954.604" gradientUnits="userSpaceOnUse">
<stop stop-color="#B7BDC6" stop-opacity="0"/>
<stop offset="0.505" stop-color="#B7BDC6"/>
<stop offset="1" stop-color="#B7BDC6" stop-opacity="0"/>
</linearGradient>
<clipPath id="clip0_94_837">
<rect width="1440" height="479" fill="white"/>
</clipPath>
</defs>
</svg>