<svg xmlns="http://www.w3.org/2000/svg" width="1440" height="479" viewBox="0 0 1440 479" fill="none">
<g clip-path="url(#clip0_94_837)">
<rect width="1440" height="479" fill="#093BAA"/>
<path d="M-189 33.4056C-189 20.7658 -181.999 17.8085 -168.696 14.1837C-88.5854 -7.64551 13.8895 -8.64525 82.1066 42.6469C177.381 114.283 225.973 229.888 323.669 298.323C353.41 319.156 385.792 330.131 421.673 337.506C497.905 353.174 575.89 365.536 652.823 377.675C777.088 397.282 905.765 387.122 1031.04 385.807C1130.18 384.767 1238.71 378.261 1334.3 408.726C1393.7 427.657 1453.31 469.011 1472 528" stroke="#B1D0FF" stroke-opacity="0.1" stroke-width="5" stroke-linecap="round"/>
<path d="M774 -197.396V954.604" stroke="url(#paint0_linear_94_837)" stroke-opacity="0.1" stroke-width="1.5"/>
<path d="M210 -197.396V954.604" stroke="url(#paint1_linear_94_837)" stroke-opacity="0.1" stroke-width="1.5"/>
<path d="M-240 48.8779L1680 48.8782" stroke="url(#paint2_linear_94_837)" stroke-opacity="0.1" stroke-width="1.5"/>
<path d="M-240 416.275L1680 416.276" stroke="url(#paint3_linear_94_837)" stroke-opacity="0.1" stroke-width="1.5"/>
<path d="M-240 219.576L1680 219.576" stroke="url(#paint4_linear_94_837)" stroke-opacity="0.1" stroke-width="1.5"/>
<path d="M1338 -197.396V954.604" stroke="url(#paint5_linear_94_837)" stroke-opacity="0.1" stroke-width="1.5"/>
<path d="M1056 -197.396V954.604" stroke="url(#paint6_linear_94_837)" stroke-opacity="0.1" stroke-width="1.5"/>
<path d="M492 -197.396V954.604" stroke="url(#paint7_linear_94_837)" stroke-opacity="0.1" stroke-width="1.5"/>

<rect x="1187.25" y="92.75" width="172.5" height="35.5" rx="17.75" fill="#093BAA"/>
<rect x="1187.25" y="92.75" width="172.5" height="35.5" rx="17.75" stroke="#8EA5D8" stroke-width="0.5"/>
<rect x="1199" y="100.5" width="20" height="20" rx="10" fill="white"/>
<path d="M1213.67 105.833H1209.07L1208.08 106.825H1205.33V109.553L1204.33 110.545V115.167H1208.93L1209.92 114.174H1212.67V111.447L1213.67 110.455V105.833ZM1212.2 113.695H1205.8V107.304H1212.2V113.695Z" fill="#093BAA"/>
<path d="M1211.47 109.744C1211.46 109.756 1211.44 109.77 1211.43 109.783C1211.2 110.009 1210.98 110.233 1210.75 110.457C1210.73 110.477 1210.71 110.489 1210.68 110.492C1210.13 110.494 1209.58 110.493 1209.03 110.493C1209.02 110.492 1209.01 110.491 1209 110.489C1209 110.204 1209 109.925 1209 109.646C1209 109.373 1209 109.1 1209 108.826C1209 108.795 1209.02 108.765 1209.04 108.742C1209.26 108.515 1209.49 108.289 1209.71 108.063C1209.73 108.052 1209.74 108.041 1209.75 108.028C1210.32 108.599 1210.89 109.167 1211.47 109.744Z" fill="#0EDDBA"/>
<path d="M1209 112.164C1209 112.182 1209 112.201 1208.99 112.219C1208.98 112.236 1208.97 112.252 1208.96 112.264C1208.74 112.484 1208.52 112.704 1208.3 112.925C1208.28 112.939 1208.27 112.953 1208.25 112.971C1207.68 112.398 1207.11 111.828 1206.53 111.252C1206.76 111.028 1206.98 110.811 1207.19 110.586C1207.25 110.524 1207.31 110.502 1207.4 110.503C1207.91 110.506 1208.42 110.504 1208.92 110.504C1208.95 110.502 1208.97 110.498 1208.99 110.493C1209 110.527 1209 110.546 1209 110.566C1209 111.099 1209 111.631 1209 112.164Z" fill="#0EDDBA"/>
<path d="M1230.75 115.5C1230.65 115.5 1230.58 115.472 1230.52 115.416C1230.47 115.36 1230.44 115.285 1230.44 115.192V106.022C1230.44 105.919 1230.47 105.84 1230.52 105.784C1230.58 105.728 1230.65 105.7 1230.75 105.7H1234.4C1235.05 105.7 1235.59 105.817 1236 106.05C1236.42 106.283 1236.73 106.591 1236.92 106.974C1237.12 107.347 1237.22 107.758 1237.22 108.206C1237.22 108.607 1237.15 108.953 1237.02 109.242C1236.9 109.522 1236.74 109.751 1236.54 109.928C1236.36 110.105 1236.17 110.241 1235.98 110.334C1236.36 110.521 1236.69 110.819 1236.98 111.23C1237.27 111.641 1237.41 112.14 1237.41 112.728C1237.41 113.195 1237.3 113.643 1237.08 114.072C1236.86 114.492 1236.53 114.837 1236.1 115.108C1235.67 115.369 1235.13 115.5 1234.5 115.5H1230.75ZM1231.32 114.66H1234.36C1235.05 114.66 1235.58 114.478 1235.96 114.114C1236.34 113.75 1236.53 113.288 1236.53 112.728C1236.53 112.159 1236.34 111.697 1235.96 111.342C1235.58 110.978 1235.05 110.796 1234.36 110.796H1231.32V114.66ZM1231.32 109.956H1234.22C1234.91 109.956 1235.43 109.802 1235.79 109.494C1236.15 109.186 1236.33 108.757 1236.33 108.206C1236.33 107.655 1236.15 107.24 1235.79 106.96C1235.43 106.68 1234.91 106.54 1234.22 106.54H1231.32V109.956ZM1240.64 118.16C1240.56 118.16 1240.5 118.132 1240.44 118.076C1240.38 118.02 1240.36 117.955 1240.36 117.88C1240.36 117.843 1240.36 117.801 1240.37 117.754C1240.39 117.717 1240.41 117.665 1240.44 117.6L1241.52 115.08L1238.84 108.78C1238.79 108.64 1238.76 108.547 1238.76 108.5C1238.76 108.425 1238.79 108.36 1238.84 108.304C1238.9 108.248 1238.96 108.22 1239.04 108.22H1239.33C1239.43 108.22 1239.5 108.243 1239.54 108.29C1239.6 108.327 1239.64 108.374 1239.66 108.43L1242.01 113.974L1244.42 108.43C1244.44 108.374 1244.48 108.327 1244.53 108.29C1244.57 108.243 1244.64 108.22 1244.74 108.22H1245.02C1245.09 108.22 1245.16 108.248 1245.21 108.304C1245.27 108.36 1245.3 108.425 1245.3 108.5C1245.3 108.547 1245.27 108.64 1245.21 108.78L1241.24 117.95C1241.21 118.006 1241.17 118.053 1241.13 118.09C1241.08 118.137 1241.01 118.16 1240.92 118.16H1240.64ZM1252.34 115.5C1252.25 115.5 1252.18 115.472 1252.12 115.416C1252.06 115.36 1252.04 115.285 1252.04 115.192V106.54H1249.26C1249.17 106.54 1249.1 106.512 1249.04 106.456C1248.98 106.4 1248.96 106.325 1248.96 106.232V106.022C1248.96 105.919 1248.98 105.84 1249.04 105.784C1249.1 105.728 1249.17 105.7 1249.26 105.7H1255.68C1255.78 105.7 1255.86 105.728 1255.91 105.784C1255.97 105.84 1256 105.919 1256 106.022V106.232C1256 106.325 1255.97 106.4 1255.91 106.456C1255.86 106.512 1255.78 106.54 1255.68 106.54H1252.92V115.192C1252.92 115.285 1252.89 115.36 1252.83 115.416C1252.78 115.472 1252.7 115.5 1252.6 115.5H1252.34ZM1257.81 115.5C1257.72 115.5 1257.65 115.472 1257.59 115.416C1257.53 115.36 1257.51 115.285 1257.51 115.192V108.528C1257.51 108.435 1257.53 108.36 1257.59 108.304C1257.65 108.248 1257.72 108.22 1257.81 108.22H1258.05C1258.14 108.22 1258.22 108.248 1258.28 108.304C1258.33 108.36 1258.36 108.435 1258.36 108.528V115.192C1258.36 115.285 1258.33 115.36 1258.28 115.416C1258.22 115.472 1258.14 115.5 1258.05 115.5H1257.81ZM1257.66 106.722C1257.57 106.722 1257.49 106.694 1257.44 106.638C1257.38 106.582 1257.35 106.507 1257.35 106.414V105.882C1257.35 105.789 1257.38 105.714 1257.44 105.658C1257.49 105.593 1257.57 105.56 1257.66 105.56H1258.19C1258.28 105.56 1258.36 105.593 1258.42 105.658C1258.48 105.714 1258.51 105.789 1258.51 105.882V106.414C1258.51 106.507 1258.48 106.582 1258.42 106.638C1258.36 106.694 1258.28 106.722 1258.19 106.722H1257.66ZM1260.93 115.5C1260.84 115.5 1260.76 115.472 1260.71 115.416C1260.65 115.36 1260.62 115.285 1260.62 115.192V108.528C1260.62 108.435 1260.65 108.36 1260.71 108.304C1260.76 108.248 1260.84 108.22 1260.93 108.22H1261.17C1261.26 108.22 1261.34 108.248 1261.39 108.304C1261.45 108.36 1261.48 108.435 1261.48 108.528V109.018C1261.71 108.719 1261.98 108.491 1262.3 108.332C1262.63 108.164 1263.02 108.08 1263.48 108.08C1264.52 108.08 1265.27 108.519 1265.72 109.396C1265.93 108.995 1266.25 108.677 1266.66 108.444C1267.08 108.201 1267.56 108.08 1268.1 108.08C1268.59 108.08 1269.04 108.197 1269.43 108.43C1269.83 108.654 1270.14 108.99 1270.37 109.438C1270.6 109.886 1270.72 110.446 1270.72 111.118V115.192C1270.72 115.285 1270.69 115.36 1270.63 115.416C1270.58 115.472 1270.5 115.5 1270.41 115.5H1270.17C1270.08 115.5 1270 115.472 1269.95 115.416C1269.89 115.36 1269.86 115.285 1269.86 115.192V111.258C1269.86 110.642 1269.77 110.166 1269.6 109.83C1269.42 109.485 1269.19 109.242 1268.9 109.102C1268.61 108.962 1268.29 108.892 1267.96 108.892C1267.68 108.892 1267.39 108.962 1267.1 109.102C1266.81 109.242 1266.57 109.485 1266.38 109.83C1266.19 110.166 1266.1 110.642 1266.1 111.258V115.192C1266.1 115.285 1266.07 115.36 1266.01 115.416C1265.96 115.472 1265.88 115.5 1265.79 115.5H1265.55C1265.46 115.5 1265.38 115.472 1265.33 115.416C1265.27 115.36 1265.24 115.285 1265.24 115.192V111.258C1265.24 110.642 1265.15 110.166 1264.96 109.83C1264.78 109.485 1264.54 109.242 1264.25 109.102C1263.96 108.962 1263.66 108.892 1263.34 108.892C1263.06 108.892 1262.77 108.962 1262.48 109.102C1262.19 109.242 1261.95 109.485 1261.76 109.83C1261.57 110.166 1261.48 110.637 1261.48 111.244V115.192C1261.48 115.285 1261.45 115.36 1261.39 115.416C1261.34 115.472 1261.26 115.5 1261.17 115.5H1260.93ZM1275.62 115.64C1274.71 115.64 1273.99 115.346 1273.46 114.758C1272.93 114.161 1272.62 113.381 1272.55 112.42C1272.54 112.28 1272.54 112.093 1272.54 111.86C1272.54 111.627 1272.54 111.44 1272.55 111.3C1272.6 110.665 1272.75 110.105 1273 109.62C1273.25 109.135 1273.59 108.757 1274.03 108.486C1274.48 108.215 1275.01 108.08 1275.62 108.08C1276.27 108.08 1276.82 108.225 1277.28 108.514C1277.74 108.803 1278.09 109.219 1278.33 109.76C1278.58 110.301 1278.71 110.945 1278.71 111.692V111.902C1278.71 111.995 1278.68 112.07 1278.61 112.126C1278.56 112.182 1278.48 112.21 1278.39 112.21H1273.4C1273.4 112.21 1273.4 112.229 1273.4 112.266C1273.4 112.303 1273.4 112.331 1273.4 112.35C1273.42 112.77 1273.52 113.171 1273.7 113.554C1273.87 113.927 1274.13 114.235 1274.45 114.478C1274.78 114.711 1275.17 114.828 1275.62 114.828C1276.02 114.828 1276.35 114.767 1276.61 114.646C1276.88 114.525 1277.09 114.394 1277.25 114.254C1277.41 114.105 1277.51 113.993 1277.56 113.918C1277.65 113.797 1277.71 113.727 1277.76 113.708C1277.8 113.68 1277.88 113.666 1277.98 113.666H1278.21C1278.29 113.666 1278.36 113.694 1278.42 113.75C1278.48 113.797 1278.51 113.862 1278.5 113.946C1278.49 114.077 1278.42 114.24 1278.28 114.436C1278.14 114.623 1277.95 114.809 1277.7 114.996C1277.46 115.183 1277.16 115.337 1276.81 115.458C1276.45 115.579 1276.05 115.64 1275.62 115.64ZM1273.4 111.426H1277.86V111.37C1277.86 110.903 1277.77 110.483 1277.59 110.11C1277.41 109.737 1277.16 109.443 1276.82 109.228C1276.48 109.004 1276.08 108.892 1275.62 108.892C1275.15 108.892 1274.75 109.004 1274.41 109.228C1274.08 109.443 1273.83 109.737 1273.66 110.11C1273.49 110.483 1273.4 110.903 1273.4 111.37V111.426ZM1283.31 115.64C1282.66 115.64 1282.11 115.514 1281.65 115.262C1281.19 115.001 1280.84 114.627 1280.6 114.142C1280.36 113.657 1280.24 113.083 1280.22 112.42C1280.21 112.28 1280.21 112.093 1280.21 111.86C1280.21 111.627 1280.21 111.44 1280.22 111.3C1280.24 110.628 1280.36 110.054 1280.6 109.578C1280.84 109.093 1281.19 108.724 1281.65 108.472C1282.11 108.211 1282.66 108.08 1283.31 108.08C1283.81 108.08 1284.23 108.15 1284.59 108.29C1284.95 108.421 1285.25 108.598 1285.48 108.822C1285.72 109.037 1285.89 109.275 1286.02 109.536C1286.14 109.797 1286.2 110.054 1286.21 110.306C1286.22 110.399 1286.19 110.474 1286.13 110.53C1286.06 110.586 1285.99 110.614 1285.9 110.614H1285.71C1285.61 110.614 1285.54 110.595 1285.5 110.558C1285.46 110.511 1285.42 110.432 1285.37 110.32C1285.18 109.788 1284.91 109.419 1284.56 109.214C1284.22 108.999 1283.81 108.892 1283.31 108.892C1282.68 108.892 1282.15 109.088 1281.73 109.48C1281.32 109.863 1281.1 110.493 1281.07 111.37C1281.06 111.697 1281.06 112.023 1281.07 112.35C1281.1 113.227 1281.32 113.862 1281.73 114.254C1282.15 114.637 1282.68 114.828 1283.31 114.828C1283.81 114.828 1284.22 114.725 1284.56 114.52C1284.91 114.305 1285.18 113.932 1285.37 113.4C1285.42 113.288 1285.46 113.213 1285.5 113.176C1285.54 113.129 1285.61 113.106 1285.71 113.106H1285.9C1285.99 113.106 1286.06 113.134 1286.13 113.19C1286.19 113.246 1286.22 113.321 1286.21 113.414C1286.2 113.619 1286.16 113.825 1286.09 114.03C1286.01 114.235 1285.89 114.436 1285.74 114.632C1285.59 114.828 1285.4 115.001 1285.18 115.15C1284.95 115.299 1284.68 115.416 1284.36 115.5C1284.06 115.593 1283.71 115.64 1283.31 115.64ZM1288.38 115.5C1288.29 115.5 1288.22 115.472 1288.16 115.416C1288.1 115.36 1288.08 115.285 1288.08 115.192V105.868C1288.08 105.775 1288.1 105.7 1288.16 105.644C1288.22 105.588 1288.29 105.56 1288.38 105.56H1288.62C1288.72 105.56 1288.79 105.588 1288.85 105.644C1288.9 105.7 1288.93 105.775 1288.93 105.868V109.186C1289.18 108.859 1289.49 108.593 1289.84 108.388C1290.2 108.183 1290.68 108.08 1291.28 108.08C1291.92 108.08 1292.44 108.22 1292.86 108.5C1293.29 108.771 1293.61 109.144 1293.82 109.62C1294.03 110.087 1294.14 110.619 1294.14 111.216V115.192C1294.14 115.285 1294.11 115.36 1294.05 115.416C1294 115.472 1293.92 115.5 1293.83 115.5H1293.59C1293.5 115.5 1293.42 115.472 1293.37 115.416C1293.31 115.36 1293.28 115.285 1293.28 115.192V111.286C1293.28 110.539 1293.1 109.956 1292.74 109.536C1292.37 109.107 1291.84 108.892 1291.14 108.892C1290.48 108.892 1289.94 109.107 1289.53 109.536C1289.13 109.956 1288.93 110.539 1288.93 111.286V115.192C1288.93 115.285 1288.9 115.36 1288.85 115.416C1288.79 115.472 1288.72 115.5 1288.62 115.5H1288.38ZM1298.29 115.64C1297.85 115.64 1297.43 115.547 1297.05 115.36C1296.67 115.173 1296.37 114.926 1296.14 114.618C1295.9 114.301 1295.79 113.946 1295.79 113.554C1295.79 112.919 1296.04 112.411 1296.56 112.028C1297.07 111.645 1297.74 111.398 1298.56 111.286L1300.77 110.978V110.488C1300.77 109.993 1300.62 109.606 1300.31 109.326C1300.01 109.037 1299.53 108.892 1298.87 108.892C1298.38 108.892 1297.99 108.99 1297.69 109.186C1297.39 109.373 1297.19 109.62 1297.08 109.928C1297.03 110.068 1296.94 110.138 1296.81 110.138H1296.59C1296.47 110.138 1296.39 110.11 1296.35 110.054C1296.3 109.989 1296.28 109.914 1296.28 109.83C1296.28 109.699 1296.32 109.536 1296.42 109.34C1296.52 109.144 1296.67 108.953 1296.88 108.766C1297.08 108.57 1297.35 108.407 1297.68 108.276C1298 108.145 1298.4 108.08 1298.87 108.08C1299.42 108.08 1299.87 108.155 1300.23 108.304C1300.59 108.453 1300.87 108.649 1301.07 108.892C1301.27 109.125 1301.42 109.387 1301.5 109.676C1301.58 109.965 1301.63 110.25 1301.63 110.53V115.192C1301.63 115.285 1301.6 115.36 1301.54 115.416C1301.49 115.472 1301.41 115.5 1301.32 115.5H1301.08C1300.99 115.5 1300.91 115.472 1300.86 115.416C1300.8 115.36 1300.77 115.285 1300.77 115.192V114.534C1300.66 114.702 1300.5 114.87 1300.3 115.038C1300.09 115.206 1299.82 115.351 1299.5 115.472C1299.18 115.584 1298.78 115.64 1298.29 115.64ZM1298.43 114.828C1298.86 114.828 1299.25 114.735 1299.61 114.548C1299.96 114.361 1300.24 114.077 1300.45 113.694C1300.66 113.302 1300.77 112.812 1300.77 112.224V111.748L1298.97 112C1298.2 112.103 1297.62 112.28 1297.23 112.532C1296.84 112.784 1296.64 113.101 1296.64 113.484C1296.64 113.792 1296.73 114.044 1296.91 114.24C1297.08 114.436 1297.31 114.585 1297.58 114.688C1297.86 114.781 1298.14 114.828 1298.43 114.828ZM1304.15 115.5C1304.05 115.5 1303.98 115.472 1303.92 115.416C1303.87 115.36 1303.84 115.285 1303.84 115.192V108.528C1303.84 108.435 1303.87 108.36 1303.92 108.304C1303.98 108.248 1304.05 108.22 1304.15 108.22H1304.39C1304.48 108.22 1304.55 108.248 1304.61 108.304C1304.67 108.36 1304.69 108.435 1304.69 108.528V115.192C1304.69 115.285 1304.67 115.36 1304.61 115.416C1304.55 115.472 1304.48 115.5 1304.39 115.5H1304.15ZM1303.99 106.722C1303.9 106.722 1303.83 106.694 1303.77 106.638C1303.71 106.582 1303.69 106.507 1303.69 106.414V105.882C1303.69 105.789 1303.71 105.714 1303.77 105.658C1303.83 105.593 1303.9 105.56 1303.99 105.56H1304.53C1304.62 105.56 1304.69 105.593 1304.75 105.658C1304.81 105.714 1304.85 105.789 1304.85 105.882V106.414C1304.85 106.507 1304.81 106.582 1304.75 106.638C1304.69 106.694 1304.62 106.722 1304.53 106.722H1303.99ZM1307.26 115.5C1307.17 115.5 1307.1 115.472 1307.04 115.416C1306.98 115.36 1306.96 115.285 1306.96 115.192V108.528C1306.96 108.435 1306.98 108.36 1307.04 108.304C1307.1 108.248 1307.17 108.22 1307.26 108.22H1307.5C1307.6 108.22 1307.67 108.248 1307.73 108.304C1307.78 108.36 1307.81 108.435 1307.81 108.528V109.186C1308.06 108.859 1308.37 108.593 1308.72 108.388C1309.08 108.183 1309.56 108.08 1310.16 108.08C1310.8 108.08 1311.32 108.22 1311.74 108.5C1312.17 108.771 1312.49 109.144 1312.7 109.62C1312.91 110.087 1313.02 110.619 1313.02 111.216V115.192C1313.02 115.285 1312.99 115.36 1312.93 115.416C1312.88 115.472 1312.8 115.5 1312.71 115.5H1312.47C1312.38 115.5 1312.3 115.472 1312.25 115.416C1312.19 115.36 1312.16 115.285 1312.16 115.192V111.286C1312.16 110.539 1311.98 109.956 1311.62 109.536C1311.25 109.107 1310.72 108.892 1310.02 108.892C1309.36 108.892 1308.82 109.107 1308.41 109.536C1308.01 109.956 1307.81 110.539 1307.81 111.286V115.192C1307.81 115.285 1307.78 115.36 1307.73 115.416C1307.67 115.472 1307.6 115.5 1307.5 115.5H1307.26ZM1319.31 115.5C1319.22 115.5 1319.15 115.472 1319.09 115.416C1319.03 115.36 1319.01 115.285 1319.01 115.192V106.008C1319.01 105.915 1319.03 105.84 1319.09 105.784C1319.15 105.728 1319.22 105.7 1319.31 105.7H1319.58C1319.67 105.7 1319.75 105.728 1319.8 105.784C1319.86 105.84 1319.89 105.915 1319.89 106.008V114.66H1324.72C1324.82 114.66 1324.9 114.688 1324.96 114.744C1325.01 114.8 1325.04 114.879 1325.04 114.982V115.192C1325.04 115.285 1325.01 115.36 1324.96 115.416C1324.9 115.472 1324.82 115.5 1324.72 115.5H1319.31ZM1328.45 115.64C1328.01 115.64 1327.59 115.547 1327.21 115.36C1326.83 115.173 1326.53 114.926 1326.3 114.618C1326.06 114.301 1325.95 113.946 1325.95 113.554C1325.95 112.919 1326.2 112.411 1326.72 112.028C1327.23 111.645 1327.9 111.398 1328.72 111.286L1330.93 110.978V110.488C1330.93 109.993 1330.78 109.606 1330.47 109.326C1330.17 109.037 1329.69 108.892 1329.03 108.892C1328.54 108.892 1328.15 108.99 1327.85 109.186C1327.55 109.373 1327.35 109.62 1327.24 109.928C1327.19 110.068 1327.1 110.138 1326.97 110.138H1326.75C1326.63 110.138 1326.55 110.11 1326.51 110.054C1326.46 109.989 1326.44 109.914 1326.44 109.83C1326.44 109.699 1326.48 109.536 1326.58 109.34C1326.68 109.144 1326.83 108.953 1327.04 108.766C1327.24 108.57 1327.51 108.407 1327.84 108.276C1328.16 108.145 1328.56 108.08 1329.03 108.08C1329.58 108.08 1330.03 108.155 1330.39 108.304C1330.75 108.453 1331.03 108.649 1331.23 108.892C1331.43 109.125 1331.58 109.387 1331.66 109.676C1331.74 109.965 1331.79 110.25 1331.79 110.53V115.192C1331.79 115.285 1331.76 115.36 1331.7 115.416C1331.65 115.472 1331.57 115.5 1331.48 115.5H1331.24C1331.15 115.5 1331.07 115.472 1331.02 115.416C1330.96 115.36 1330.93 115.285 1330.93 115.192V114.534C1330.82 114.702 1330.66 114.87 1330.46 115.038C1330.25 115.206 1329.98 115.351 1329.66 115.472C1329.34 115.584 1328.94 115.64 1328.45 115.64ZM1328.59 114.828C1329.02 114.828 1329.41 114.735 1329.77 114.548C1330.12 114.361 1330.4 114.077 1330.61 113.694C1330.82 113.302 1330.93 112.812 1330.93 112.224V111.748L1329.13 112C1328.36 112.103 1327.78 112.28 1327.39 112.532C1327 112.784 1326.8 113.101 1326.8 113.484C1326.8 113.792 1326.89 114.044 1327.07 114.24C1327.24 114.436 1327.47 114.585 1327.74 114.688C1328.02 114.781 1328.3 114.828 1328.59 114.828ZM1337.22 115.64C1336.64 115.64 1336.16 115.537 1335.78 115.332C1335.4 115.117 1335.1 114.851 1334.87 114.534V115.192C1334.87 115.285 1334.84 115.36 1334.78 115.416C1334.73 115.472 1334.65 115.5 1334.56 115.5H1334.32C1334.23 115.5 1334.15 115.472 1334.1 115.416C1334.04 115.36 1334.01 115.285 1334.01 115.192V105.868C1334.01 105.775 1334.04 105.7 1334.1 105.644C1334.15 105.588 1334.23 105.56 1334.32 105.56H1334.56C1334.65 105.56 1334.73 105.588 1334.78 105.644C1334.84 105.7 1334.87 105.775 1334.87 105.868V109.186C1335.1 108.878 1335.4 108.617 1335.78 108.402C1336.16 108.187 1336.64 108.08 1337.22 108.08C1337.77 108.08 1338.23 108.178 1338.61 108.374C1338.98 108.57 1339.28 108.831 1339.52 109.158C1339.75 109.485 1339.92 109.849 1340.03 110.25C1340.15 110.651 1340.21 111.057 1340.22 111.468C1340.22 111.608 1340.23 111.739 1340.23 111.86C1340.23 111.981 1340.22 112.112 1340.22 112.252C1340.21 112.663 1340.15 113.069 1340.03 113.47C1339.92 113.871 1339.75 114.235 1339.52 114.562C1339.28 114.889 1338.98 115.15 1338.61 115.346C1338.23 115.542 1337.77 115.64 1337.22 115.64ZM1337.14 114.828C1337.69 114.828 1338.12 114.707 1338.44 114.464C1338.75 114.221 1338.98 113.904 1339.12 113.512C1339.26 113.12 1339.34 112.7 1339.36 112.252C1339.37 111.991 1339.37 111.729 1339.36 111.468C1339.34 111.02 1339.26 110.6 1339.12 110.208C1338.98 109.816 1338.75 109.499 1338.44 109.256C1338.12 109.013 1337.69 108.892 1337.14 108.892C1336.62 108.892 1336.2 109.013 1335.86 109.256C1335.53 109.499 1335.29 109.802 1335.12 110.166C1334.96 110.53 1334.88 110.899 1334.87 111.272C1334.86 111.412 1334.85 111.594 1334.85 111.818C1334.85 112.042 1334.86 112.224 1334.87 112.364C1334.89 112.747 1334.97 113.129 1335.12 113.512C1335.28 113.885 1335.52 114.198 1335.85 114.45C1336.17 114.702 1336.6 114.828 1337.14 114.828ZM1344.43 115.64C1343.94 115.64 1343.52 115.575 1343.17 115.444C1342.82 115.313 1342.54 115.159 1342.32 114.982C1342.09 114.795 1341.92 114.613 1341.81 114.436C1341.71 114.259 1341.65 114.123 1341.64 114.03C1341.63 113.927 1341.67 113.853 1341.74 113.806C1341.82 113.75 1341.89 113.722 1341.95 113.722H1342.16C1342.22 113.722 1342.26 113.731 1342.3 113.75C1342.35 113.769 1342.4 113.82 1342.47 113.904C1342.59 114.063 1342.73 114.217 1342.89 114.366C1343.05 114.506 1343.25 114.618 1343.49 114.702C1343.74 114.786 1344.06 114.828 1344.43 114.828C1344.99 114.828 1345.45 114.721 1345.82 114.506C1346.18 114.291 1346.36 113.974 1346.36 113.554C1346.36 113.293 1346.29 113.083 1346.14 112.924C1346 112.765 1345.76 112.625 1345.41 112.504C1345.06 112.383 1344.6 112.257 1344.01 112.126C1343.42 111.986 1342.97 111.818 1342.65 111.622C1342.34 111.426 1342.13 111.202 1342.02 110.95C1341.91 110.689 1341.85 110.409 1341.85 110.11C1341.85 109.783 1341.95 109.466 1342.13 109.158C1342.32 108.841 1342.6 108.584 1342.96 108.388C1343.33 108.183 1343.8 108.08 1344.36 108.08C1344.82 108.08 1345.2 108.141 1345.52 108.262C1345.85 108.383 1346.11 108.533 1346.32 108.71C1346.53 108.878 1346.67 109.046 1346.77 109.214C1346.87 109.382 1346.93 109.517 1346.94 109.62C1346.95 109.713 1346.92 109.788 1346.85 109.844C1346.79 109.9 1346.71 109.928 1346.63 109.928H1346.42C1346.34 109.928 1346.28 109.914 1346.24 109.886C1346.19 109.849 1346.15 109.802 1346.11 109.746C1346.02 109.597 1345.9 109.457 1345.77 109.326C1345.64 109.195 1345.47 109.093 1345.24 109.018C1345.03 108.934 1344.73 108.892 1344.36 108.892C1343.8 108.892 1343.38 109.009 1343.11 109.242C1342.84 109.466 1342.71 109.755 1342.71 110.11C1342.71 110.315 1342.76 110.497 1342.88 110.656C1342.99 110.805 1343.2 110.945 1343.51 111.076C1343.81 111.197 1344.26 111.328 1344.85 111.468C1345.45 111.599 1345.92 111.762 1346.26 111.958C1346.61 112.145 1346.85 112.369 1346.99 112.63C1347.14 112.891 1347.22 113.199 1347.22 113.554C1347.22 113.927 1347.11 114.273 1346.89 114.59C1346.69 114.907 1346.38 115.164 1345.96 115.36C1345.55 115.547 1345.04 115.64 1344.43 115.64Z" fill="white"/>








<path d="" fill="white"/>























</g>
<defs>
<linearGradient id="paint0_linear_94_837" x1="774.5" y1="-197.396" x2="774.5" y2="954.604" gradientUnits="userSpaceOnUse">
<stop stop-color="#B7BDC6" stop-opacity="0"/>
<stop offset="0.505" stop-color="#B7BDC6"/>
<stop offset="1" stop-color="#B7BDC6" stop-opacity="0"/>
</linearGradient>
<linearGradient id="paint1_linear_94_837" x1="210.5" y1="-197.396" x2="210.5" y2="954.604" gradientUnits="userSpaceOnUse">
<stop stop-color="#B7BDC6" stop-opacity="0"/>
<stop offset="0.505" stop-color="#B7BDC6"/>
<stop offset="1" stop-color="#B7BDC6" stop-opacity="0"/>
</linearGradient>
<linearGradient id="paint2_linear_94_837" x1="-240" y1="48.3779" x2="1680" y2="48.3781" gradientUnits="userSpaceOnUse">
<stop stop-color="#B7BDC6" stop-opacity="0"/>
<stop offset="0.505" stop-color="#B7BDC6"/>
<stop offset="1" stop-color="#B7BDC6" stop-opacity="0"/>
</linearGradient>
<linearGradient id="paint3_linear_94_837" x1="-240" y1="415.775" x2="1680" y2="415.776" gradientUnits="userSpaceOnUse">
<stop stop-color="#B7BDC6" stop-opacity="0"/>
<stop offset="0.505" stop-color="#B7BDC6"/>
<stop offset="1" stop-color="#B7BDC6" stop-opacity="0"/>
</linearGradient>
<linearGradient id="paint4_linear_94_837" x1="-240" y1="219.076" x2="1680" y2="219.076" gradientUnits="userSpaceOnUse">
<stop stop-color="#B7BDC6" stop-opacity="0"/>
<stop offset="0.505" stop-color="#B7BDC6"/>
<stop offset="1" stop-color="#B7BDC6" stop-opacity="0"/>
</linearGradient>
<linearGradient id="paint5_linear_94_837" x1="1338.5" y1="-197.396" x2="1338.5" y2="954.604" gradientUnits="userSpaceOnUse">
<stop stop-color="#B7BDC6" stop-opacity="0"/>
<stop offset="0.5" stop-color="#B7BDC6"/>
<stop offset="1" stop-color="#B7BDC6" stop-opacity="0"/>
</linearGradient>
<linearGradient id="paint6_linear_94_837" x1="1056.5" y1="-197.396" x2="1056.5" y2="954.604" gradientUnits="userSpaceOnUse">
<stop stop-color="#B7BDC6" stop-opacity="0"/>
<stop offset="0.505" stop-color="#B7BDC6"/>
<stop offset="1" stop-color="#B7BDC6" stop-opacity="0"/>
</linearGradient>
<linearGradient id="paint7_linear_94_837" x1="492.5" y1="-197.396" x2="492.5" y2="954.604" gradientUnits="userSpaceOnUse">
<stop stop-color="#B7BDC6" stop-opacity="0"/>
<stop offset="0.505" stop-color="#B7BDC6"/>
<stop offset="1" stop-color="#B7BDC6" stop-opacity="0"/>
</linearGradient>
<clipPath id="clip0_94_837">
<rect width="1440" height="479" fill="white"/>
</clipPath>
</defs>
</svg>