<svg width="288" height="58" viewBox="0 0 288 58" fill="none" xmlns="http://www.w3.org/2000/svg">
<g filter="url(#filter0_d_1480_11568)">
<path d="M259.281 -0.00878906H8.50865C5.12262 -0.00878906 3.26821 3.93582 5.42849 6.5432L19.4273 23.4392C20.6537 24.9195 20.6537 27.0629 19.4273 28.5432L5.42849 45.4392C3.26821 48.0466 5.1226 51.9912 8.50863 51.9912H259.281C260.369 51.9912 261.41 51.5483 262.164 50.7646L283.332 28.7646C284.822 27.2159 284.822 24.7665 283.332 23.2178L262.164 1.21782C261.41 0.434088 260.369 -0.00878906 259.281 -0.00878906Z" fill="#EB714A"/>
<path d="M8.50865 0.491211H259.281C260.233 0.491211 261.144 0.87873 261.803 1.5645L282.971 23.5645C284.275 24.9196 284.275 27.0628 282.971 28.4179L261.803 50.4179C261.144 51.1037 260.233 51.4912 259.281 51.4912H8.50863C5.54586 51.4912 3.92327 48.0397 5.81351 45.7582L19.8123 28.8622C21.1921 27.1969 21.1921 24.7856 19.8123 23.1202L5.81351 6.2242C3.92327 3.94275 5.54587 0.491211 8.50865 0.491211Z" stroke="#B9431D"/>
</g>
<path d="M29.8415 30.9912C29.7389 30.9912 29.6595 30.9632 29.6035 30.9072C29.5475 30.8419 29.5195 30.7625 29.5195 30.6692V21.5272C29.5195 21.4245 29.5475 21.3452 29.6035 21.2892C29.6595 21.2239 29.7389 21.1912 29.8415 21.1912H33.3975C34.0882 21.1912 34.6855 21.3032 35.1895 21.5272C35.7029 21.7512 36.0995 22.0872 36.3795 22.5352C36.6595 22.9739 36.7995 23.5245 36.7995 24.1872C36.7995 24.8499 36.6595 25.4005 36.3795 25.8392C36.0995 26.2779 35.7029 26.6092 35.1895 26.8332C34.6855 27.0572 34.0882 27.1692 33.3975 27.1692H30.9195V30.6692C30.9195 30.7625 30.8869 30.8419 30.8215 30.9072C30.7655 30.9632 30.6862 30.9912 30.5835 30.9912H29.8415ZM30.9055 25.9932H33.3275C34.0182 25.9932 34.5362 25.8392 34.8815 25.5312C35.2269 25.2232 35.3995 24.7752 35.3995 24.1872C35.3995 23.6085 35.2315 23.1605 34.8955 22.8432C34.5595 22.5259 34.0369 22.3672 33.3275 22.3672H30.9055V25.9932ZM38.3759 30.9912C38.2826 30.9912 38.2033 30.9632 38.1379 30.9072C38.0819 30.8419 38.0539 30.7625 38.0539 30.6692V21.3732C38.0539 21.2799 38.0819 21.2052 38.1379 21.1492C38.2033 21.0839 38.2826 21.0512 38.3759 21.0512H39.0339C39.1366 21.0512 39.2159 21.0839 39.2719 21.1492C39.3279 21.2052 39.3559 21.2799 39.3559 21.3732V30.6692C39.3559 30.7625 39.3279 30.8419 39.2719 30.9072C39.2159 30.9632 39.1366 30.9912 39.0339 30.9912H38.3759ZM43.1942 31.1312C42.7276 31.1312 42.3029 31.0379 41.9202 30.8512C41.5376 30.6645 41.2296 30.4125 40.9962 30.0952C40.7629 29.7779 40.6462 29.4185 40.6462 29.0172C40.6462 28.3732 40.9076 27.8599 41.4302 27.4772C41.9529 27.0945 42.6342 26.8425 43.4742 26.7212L45.5602 26.4272V26.0212C45.5602 25.5732 45.4296 25.2232 45.1682 24.9712C44.9162 24.7192 44.5009 24.5932 43.9222 24.5932C43.5022 24.5932 43.1616 24.6772 42.9002 24.8452C42.6482 25.0132 42.4709 25.2279 42.3682 25.4892C42.3122 25.6292 42.2142 25.6992 42.0742 25.6992H41.4442C41.3416 25.6992 41.2622 25.6712 41.2062 25.6152C41.1596 25.5499 41.1362 25.4752 41.1362 25.3912C41.1362 25.2512 41.1876 25.0785 41.2902 24.8732C41.4022 24.6679 41.5702 24.4672 41.7942 24.2712C42.0182 24.0752 42.3029 23.9119 42.6482 23.7812C43.0029 23.6412 43.4322 23.5712 43.9362 23.5712C44.4962 23.5712 44.9676 23.6459 45.3502 23.7952C45.7329 23.9352 46.0316 24.1265 46.2462 24.3692C46.4702 24.6119 46.6289 24.8872 46.7222 25.1952C46.8249 25.5032 46.8762 25.8159 46.8762 26.1332V30.6692C46.8762 30.7625 46.8436 30.8419 46.7782 30.9072C46.7222 30.9632 46.6476 30.9912 46.5542 30.9912H45.9102C45.8076 30.9912 45.7282 30.9632 45.6722 30.9072C45.6162 30.8419 45.5882 30.7625 45.5882 30.6692V30.0672C45.4669 30.2352 45.3036 30.4032 45.0982 30.5712C44.8929 30.7299 44.6362 30.8652 44.3282 30.9772C44.0202 31.0799 43.6422 31.1312 43.1942 31.1312ZM43.4882 30.0812C43.8709 30.0812 44.2209 30.0019 44.5382 29.8432C44.8556 29.6752 45.1029 29.4185 45.2802 29.0732C45.4669 28.7279 45.5602 28.2939 45.5602 27.7712V27.3792L43.9362 27.6172C43.2736 27.7105 42.7742 27.8692 42.4382 28.0932C42.1022 28.3079 41.9342 28.5832 41.9342 28.9192C41.9342 29.1805 42.0089 29.3999 42.1582 29.5772C42.3169 29.7452 42.5129 29.8712 42.7462 29.9552C42.9889 30.0392 43.2362 30.0812 43.4882 30.0812ZM51.5489 31.1312C50.8862 31.1312 50.3122 31.0052 49.8269 30.7532C49.3509 30.4919 48.9822 30.1232 48.7209 29.6472C48.4595 29.1619 48.3195 28.5832 48.3009 27.9112C48.2915 27.7712 48.2869 27.5845 48.2869 27.3512C48.2869 27.1179 48.2915 26.9312 48.3009 26.7912C48.3195 26.1192 48.4595 25.5452 48.7209 25.0692C48.9822 24.5839 49.3509 24.2152 49.8269 23.9632C50.3122 23.7019 50.8862 23.5712 51.5489 23.5712C52.0902 23.5712 52.5522 23.6459 52.9349 23.7952C53.3269 23.9445 53.6489 24.1359 53.9009 24.3692C54.1529 24.6025 54.3395 24.8545 54.4609 25.1252C54.5915 25.3959 54.6615 25.6525 54.6709 25.8952C54.6802 25.9885 54.6522 26.0632 54.5869 26.1192C54.5215 26.1752 54.4422 26.2032 54.3489 26.2032H53.6769C53.5835 26.2032 53.5135 26.1845 53.4669 26.1472C53.4202 26.1005 53.3735 26.0259 53.3269 25.9232C53.1589 25.4659 52.9302 25.1439 52.6409 24.9572C52.3515 24.7705 51.9922 24.6772 51.5629 24.6772C51.0029 24.6772 50.5455 24.8499 50.1909 25.1952C49.8455 25.5405 49.6589 26.0959 49.6309 26.8612C49.6215 27.1972 49.6215 27.5239 49.6309 27.8412C49.6589 28.6159 49.8455 29.1759 50.1909 29.5212C50.5455 29.8572 51.0029 30.0252 51.5629 30.0252C51.9922 30.0252 52.3515 29.9319 52.6409 29.7452C52.9302 29.5585 53.1589 29.2365 53.3269 28.7792C53.3735 28.6765 53.4202 28.6065 53.4669 28.5692C53.5135 28.5225 53.5835 28.4992 53.6769 28.4992H54.3489C54.4422 28.4992 54.5215 28.5272 54.5869 28.5832C54.6522 28.6392 54.6802 28.7139 54.6709 28.8072C54.6615 29.0032 54.6195 29.2039 54.5449 29.4092C54.4702 29.6145 54.3489 29.8245 54.1809 30.0392C54.0222 30.2445 53.8215 30.4312 53.5789 30.5992C53.3362 30.7579 53.0422 30.8885 52.6969 30.9912C52.3609 31.0845 51.9782 31.1312 51.5489 31.1312ZM58.9515 31.1312C57.9901 31.1312 57.2248 30.8372 56.6555 30.2492C56.0861 29.6519 55.7735 28.8399 55.7175 27.8132C55.7081 27.6919 55.7035 27.5379 55.7035 27.3512C55.7035 27.1552 55.7081 26.9965 55.7175 26.8752C55.7548 26.2125 55.9088 25.6339 56.1795 25.1392C56.4501 24.6352 56.8188 24.2479 57.2855 23.9772C57.7615 23.7065 58.3168 23.5712 58.9515 23.5712C59.6608 23.5712 60.2535 23.7205 60.7295 24.0192C61.2148 24.3179 61.5835 24.7425 61.8355 25.2932C62.0875 25.8439 62.2135 26.4879 62.2135 27.2252V27.4632C62.2135 27.5659 62.1808 27.6452 62.1155 27.7012C62.0595 27.7572 61.9848 27.7852 61.8915 27.7852H57.0475C57.0475 27.7945 57.0475 27.8132 57.0475 27.8412C57.0475 27.8692 57.0475 27.8925 57.0475 27.9112C57.0661 28.2939 57.1501 28.6532 57.2995 28.9892C57.4488 29.3159 57.6635 29.5819 57.9435 29.7872C58.2235 29.9925 58.5595 30.0952 58.9515 30.0952C59.2875 30.0952 59.5675 30.0439 59.7915 29.9412C60.0155 29.8385 60.1975 29.7265 60.3375 29.6052C60.4775 29.4745 60.5708 29.3765 60.6175 29.3112C60.7015 29.1899 60.7668 29.1199 60.8135 29.1012C60.8601 29.0732 60.9348 29.0592 61.0375 29.0592H61.7095C61.8028 29.0592 61.8775 29.0872 61.9335 29.1432C61.9988 29.1899 62.0268 29.2599 62.0175 29.3532C62.0081 29.4932 61.9335 29.6659 61.7935 29.8712C61.6535 30.0672 61.4528 30.2632 61.1915 30.4592C60.9301 30.6552 60.6128 30.8185 60.2395 30.9492C59.8661 31.0705 59.4368 31.1312 58.9515 31.1312ZM57.0475 26.8192H60.8835V26.7772C60.8835 26.3572 60.8041 25.9839 60.6455 25.6572C60.4961 25.3305 60.2768 25.0739 59.9875 24.8872C59.6981 24.6912 59.3528 24.5932 58.9515 24.5932C58.5501 24.5932 58.2048 24.6912 57.9155 24.8872C57.6355 25.0739 57.4208 25.3305 57.2715 25.6572C57.1221 25.9839 57.0475 26.3572 57.0475 26.7772V26.8192ZM63.9294 30.9912C63.8361 30.9912 63.7568 30.9632 63.6914 30.9072C63.6354 30.8419 63.6074 30.7625 63.6074 30.6692V24.0332C63.6074 23.9399 63.6354 23.8652 63.6914 23.8092C63.7568 23.7439 63.8361 23.7112 63.9294 23.7112H64.5594C64.6528 23.7112 64.7274 23.7439 64.7834 23.8092C64.8488 23.8652 64.8814 23.9399 64.8814 24.0332V24.5232C65.0961 24.2339 65.3668 24.0052 65.6934 23.8372C66.0201 23.6599 66.4121 23.5712 66.8694 23.5712C67.9241 23.5619 68.6708 23.9912 69.1094 24.8592C69.3241 24.4672 69.6368 24.1545 70.0474 23.9212C70.4581 23.6879 70.9248 23.5712 71.4474 23.5712C71.9328 23.5712 72.3714 23.6832 72.7634 23.9072C73.1648 24.1312 73.4774 24.4719 73.7014 24.9292C73.9348 25.3772 74.0514 25.9419 74.0514 26.6232V30.6692C74.0514 30.7625 74.0188 30.8419 73.9534 30.9072C73.8974 30.9632 73.8228 30.9912 73.7294 30.9912H73.0714C72.9781 30.9912 72.8988 30.9632 72.8334 30.9072C72.7774 30.8419 72.7494 30.7625 72.7494 30.6692V26.7492C72.7494 26.2265 72.6748 25.8159 72.5254 25.5172C72.3761 25.2185 72.1754 25.0085 71.9234 24.8872C71.6714 24.7659 71.3961 24.7052 71.0974 24.7052C70.8548 24.7052 70.6074 24.7659 70.3554 24.8872C70.1034 25.0085 69.8934 25.2185 69.7254 25.5172C69.5668 25.8159 69.4874 26.2265 69.4874 26.7492V30.6692C69.4874 30.7625 69.4548 30.8419 69.3894 30.9072C69.3334 30.9632 69.2588 30.9912 69.1654 30.9912H68.5074C68.4141 30.9912 68.3348 30.9632 68.2694 30.9072C68.2134 30.8419 68.1854 30.7625 68.1854 30.6692V26.7492C68.1854 26.2265 68.1061 25.8159 67.9474 25.5172C67.7888 25.2185 67.5834 25.0085 67.3314 24.8872C67.0794 24.7659 66.8134 24.7052 66.5334 24.7052C66.2908 24.7052 66.0434 24.7659 65.7914 24.8872C65.5394 25.0085 65.3294 25.2185 65.1614 25.5172C65.0028 25.8159 64.9234 26.2219 64.9234 26.7352V30.6692C64.9234 30.7625 64.8908 30.8419 64.8254 30.9072C64.7694 30.9632 64.6948 30.9912 64.6014 30.9912H63.9294ZM78.6669 31.1312C77.7055 31.1312 76.9402 30.8372 76.3709 30.2492C75.8015 29.6519 75.4889 28.8399 75.4329 27.8132C75.4235 27.6919 75.4189 27.5379 75.4189 27.3512C75.4189 27.1552 75.4235 26.9965 75.4329 26.8752C75.4702 26.2125 75.6242 25.6339 75.8949 25.1392C76.1655 24.6352 76.5342 24.2479 77.0009 23.9772C77.4769 23.7065 78.0322 23.5712 78.6669 23.5712C79.3762 23.5712 79.9689 23.7205 80.4449 24.0192C80.9302 24.3179 81.2989 24.7425 81.5509 25.2932C81.8029 25.8439 81.9289 26.4879 81.9289 27.2252V27.4632C81.9289 27.5659 81.8962 27.6452 81.8309 27.7012C81.7749 27.7572 81.7002 27.7852 81.6069 27.7852H76.7629C76.7629 27.7945 76.7629 27.8132 76.7629 27.8412C76.7629 27.8692 76.7629 27.8925 76.7629 27.9112C76.7815 28.2939 76.8655 28.6532 77.0149 28.9892C77.1642 29.3159 77.3789 29.5819 77.6589 29.7872C77.9389 29.9925 78.2749 30.0952 78.6669 30.0952C79.0029 30.0952 79.2829 30.0439 79.5069 29.9412C79.7309 29.8385 79.9129 29.7265 80.0529 29.6052C80.1929 29.4745 80.2862 29.3765 80.3329 29.3112C80.4169 29.1899 80.4822 29.1199 80.5289 29.1012C80.5755 29.0732 80.6502 29.0592 80.7529 29.0592H81.4249C81.5182 29.0592 81.5929 29.0872 81.6489 29.1432C81.7142 29.1899 81.7422 29.2599 81.7329 29.3532C81.7235 29.4932 81.6489 29.6659 81.5089 29.8712C81.3689 30.0672 81.1682 30.2632 80.9069 30.4592C80.6455 30.6552 80.3282 30.8185 79.9549 30.9492C79.5815 31.0705 79.1522 31.1312 78.6669 31.1312ZM76.7629 26.8192H80.5989V26.7772C80.5989 26.3572 80.5195 25.9839 80.3609 25.6572C80.2115 25.3305 79.9922 25.0739 79.7029 24.8872C79.4135 24.6912 79.0682 24.5932 78.6669 24.5932C78.2655 24.5932 77.9202 24.6912 77.6309 24.8872C77.3509 25.0739 77.1362 25.3305 76.9869 25.6572C76.8375 25.9839 76.7629 26.3572 76.7629 26.7772V26.8192ZM83.6448 30.9912C83.5515 30.9912 83.4722 30.9632 83.4068 30.9072C83.3508 30.8419 83.3228 30.7625 83.3228 30.6692V24.0332C83.3228 23.9399 83.3508 23.8652 83.4068 23.8092C83.4722 23.7439 83.5515 23.7112 83.6448 23.7112H84.3028C84.3962 23.7112 84.4708 23.7439 84.5268 23.8092C84.5922 23.8652 84.6248 23.9399 84.6248 24.0332V24.6492C84.8675 24.3319 85.1708 24.0752 85.5348 23.8792C85.9082 23.6739 86.3842 23.5712 86.9628 23.5712C87.5695 23.5712 88.0828 23.7065 88.5028 23.9772C88.9322 24.2385 89.2542 24.6072 89.4688 25.0832C89.6835 25.5499 89.7908 26.0959 89.7908 26.7212V30.6692C89.7908 30.7625 89.7628 30.8419 89.7068 30.9072C89.6508 30.9632 89.5762 30.9912 89.4828 30.9912H88.7828C88.6895 30.9912 88.6102 30.9632 88.5448 30.9072C88.4888 30.8419 88.4608 30.7625 88.4608 30.6692V26.7912C88.4608 26.1379 88.3022 25.6292 87.9848 25.2652C87.6675 24.8919 87.2008 24.7052 86.5848 24.7052C86.0062 24.7052 85.5395 24.8919 85.1848 25.2652C84.8395 25.6292 84.6668 26.1379 84.6668 26.7912V30.6692C84.6668 30.7625 84.6342 30.8419 84.5688 30.9072C84.5128 30.9632 84.4382 30.9912 84.3448 30.9912H83.6448ZM94.2794 30.9912C93.7567 30.9912 93.332 30.8932 93.0054 30.6972C92.6787 30.4919 92.4407 30.2072 92.2914 29.8432C92.142 29.4699 92.0674 29.0312 92.0674 28.5272V24.8312H90.9754C90.882 24.8312 90.8027 24.8032 90.7374 24.7472C90.6814 24.6819 90.6534 24.6025 90.6534 24.5092V24.0332C90.6534 23.9399 90.6814 23.8652 90.7374 23.8092C90.8027 23.7439 90.882 23.7112 90.9754 23.7112H92.0674V21.3732C92.0674 21.2799 92.0954 21.2052 92.1514 21.1492C92.2167 21.0839 92.296 21.0512 92.3894 21.0512H93.0474C93.1407 21.0512 93.2154 21.0839 93.2714 21.1492C93.3367 21.2052 93.3694 21.2799 93.3694 21.3732V23.7112H95.1054C95.1987 23.7112 95.2734 23.7439 95.3294 23.8092C95.3947 23.8652 95.4274 23.9399 95.4274 24.0332V24.5092C95.4274 24.6025 95.3947 24.6819 95.3294 24.7472C95.2734 24.8032 95.1987 24.8312 95.1054 24.8312H93.3694V28.4292C93.3694 28.8679 93.444 29.2132 93.5934 29.4652C93.7427 29.7172 94.0087 29.8432 94.3914 29.8432H95.2454C95.3387 29.8432 95.4134 29.8759 95.4694 29.9412C95.5347 29.9972 95.5674 30.0719 95.5674 30.1652V30.6692C95.5674 30.7625 95.5347 30.8419 95.4694 30.9072C95.4134 30.9632 95.3387 30.9912 95.2454 30.9912H94.2794ZM103.11 31.1312C102.298 31.1312 101.616 31.0099 101.066 30.7672C100.515 30.5152 100.09 30.1932 99.7918 29.8012C99.5024 29.3999 99.3484 28.9752 99.3298 28.5272C99.3298 28.4525 99.3578 28.3872 99.4138 28.3312C99.4791 28.2659 99.5538 28.2332 99.6378 28.2332H100.352C100.464 28.2332 100.548 28.2612 100.604 28.3172C100.66 28.3732 100.697 28.4385 100.716 28.5132C100.762 28.7372 100.874 28.9612 101.052 29.1852C101.238 29.3999 101.495 29.5819 101.822 29.7312C102.158 29.8712 102.587 29.9412 103.11 29.9412C103.912 29.9412 104.5 29.8012 104.874 29.5212C105.256 29.2319 105.448 28.8492 105.448 28.3732C105.448 28.0465 105.345 27.7852 105.14 27.5892C104.944 27.3839 104.64 27.2019 104.23 27.0432C103.819 26.8845 103.287 26.7119 102.634 26.5252C101.952 26.3292 101.388 26.1145 100.94 25.8812C100.492 25.6479 100.156 25.3585 99.9318 25.0132C99.7171 24.6679 99.6098 24.2292 99.6098 23.6972C99.6098 23.1932 99.7451 22.7452 100.016 22.3532C100.286 21.9519 100.674 21.6345 101.178 21.4012C101.691 21.1679 102.312 21.0512 103.04 21.0512C103.618 21.0512 104.122 21.1305 104.552 21.2892C104.99 21.4385 105.354 21.6439 105.644 21.9052C105.933 22.1572 106.152 22.4325 106.302 22.7312C106.451 23.0205 106.53 23.3052 106.54 23.5852C106.54 23.6505 106.516 23.7159 106.47 23.7812C106.423 23.8372 106.348 23.8652 106.246 23.8652H105.504C105.438 23.8652 105.368 23.8465 105.294 23.8092C105.228 23.7719 105.177 23.7019 105.14 23.5992C105.084 23.2165 104.869 22.8945 104.496 22.6332C104.122 22.3719 103.637 22.2412 103.04 22.2412C102.433 22.2412 101.938 22.3579 101.556 22.5912C101.182 22.8245 100.996 23.1885 100.996 23.6832C100.996 24.0005 101.084 24.2665 101.262 24.4812C101.439 24.6865 101.719 24.8685 102.102 25.0272C102.484 25.1859 102.984 25.3539 103.6 25.5312C104.346 25.7365 104.958 25.9559 105.434 26.1892C105.91 26.4132 106.26 26.6979 106.484 27.0432C106.717 27.3792 106.834 27.8132 106.834 28.3452C106.834 28.9332 106.68 29.4372 106.372 29.8572C106.064 30.2679 105.63 30.5852 105.07 30.8092C104.519 31.0239 103.866 31.1312 103.11 31.1312ZM110.923 31.1312C110.325 31.1312 109.817 31.0005 109.397 30.7392C108.986 30.4685 108.673 30.0952 108.459 29.6192C108.244 29.1432 108.137 28.5972 108.137 27.9812V24.0332C108.137 23.9399 108.165 23.8652 108.221 23.8092C108.286 23.7439 108.365 23.7112 108.459 23.7112H109.159C109.252 23.7112 109.327 23.7439 109.383 23.8092C109.448 23.8652 109.481 23.9399 109.481 24.0332V27.9112C109.481 29.3019 110.087 29.9972 111.301 29.9972C111.879 29.9972 112.341 29.8152 112.687 29.4512C113.041 29.0779 113.219 28.5645 113.219 27.9112V24.0332C113.219 23.9399 113.247 23.8652 113.303 23.8092C113.368 23.7439 113.447 23.7112 113.541 23.7112H114.227C114.329 23.7112 114.409 23.7439 114.465 23.8092C114.521 23.8652 114.549 23.9399 114.549 24.0332V30.6692C114.549 30.7625 114.521 30.8419 114.465 30.9072C114.409 30.9632 114.329 30.9912 114.227 30.9912H113.583C113.489 30.9912 113.41 30.9632 113.345 30.9072C113.289 30.8419 113.261 30.7625 113.261 30.6692V30.0532C113.009 30.3799 112.701 30.6412 112.337 30.8372C111.982 31.0332 111.511 31.1312 110.923 31.1312ZM116.685 33.6512C116.591 33.6512 116.512 33.6185 116.447 33.5532C116.391 33.4972 116.363 33.4225 116.363 33.3292V24.0332C116.363 23.9399 116.391 23.8652 116.447 23.8092C116.512 23.7439 116.591 23.7112 116.685 23.7112H117.329C117.422 23.7112 117.497 23.7439 117.553 23.8092C117.618 23.8652 117.651 23.9399 117.651 24.0332V24.6492C117.875 24.3412 118.173 24.0845 118.547 23.8792C118.92 23.6739 119.387 23.5712 119.947 23.5712C120.469 23.5712 120.913 23.6599 121.277 23.8372C121.65 24.0145 121.953 24.2572 122.187 24.5652C122.429 24.8732 122.611 25.2232 122.733 25.6152C122.854 26.0072 122.919 26.4272 122.929 26.8752C122.938 27.0245 122.943 27.1832 122.943 27.3512C122.943 27.5192 122.938 27.6779 122.929 27.8272C122.919 28.2659 122.854 28.6859 122.733 29.0872C122.611 29.4792 122.429 29.8292 122.187 30.1372C121.953 30.4359 121.65 30.6785 121.277 30.8652C120.913 31.0425 120.469 31.1312 119.947 31.1312C119.405 31.1312 118.948 31.0332 118.575 30.8372C118.211 30.6319 117.912 30.3799 117.679 30.0812V33.3292C117.679 33.4225 117.651 33.4972 117.595 33.5532C117.539 33.6185 117.459 33.6512 117.357 33.6512H116.685ZM119.653 29.9972C120.138 29.9972 120.516 29.8945 120.787 29.6892C121.067 29.4745 121.267 29.1992 121.389 28.8632C121.51 28.5179 121.58 28.1492 121.599 27.7572C121.608 27.4865 121.608 27.2159 121.599 26.9452C121.58 26.5532 121.51 26.1892 121.389 25.8532C121.267 25.5079 121.067 25.2325 120.787 25.0272C120.516 24.8125 120.138 24.7052 119.653 24.7052C119.195 24.7052 118.822 24.8125 118.533 25.0272C118.253 25.2419 118.043 25.5172 117.903 25.8532C117.772 26.1799 117.697 26.5159 117.679 26.8612C117.669 27.0105 117.665 27.1879 117.665 27.3932C117.665 27.5985 117.669 27.7805 117.679 27.9392C117.688 28.2659 117.763 28.5879 117.903 28.9052C118.052 29.2225 118.271 29.4839 118.561 29.6892C118.85 29.8945 119.214 29.9972 119.653 29.9972ZM124.744 33.6512C124.651 33.6512 124.572 33.6185 124.506 33.5532C124.45 33.4972 124.422 33.4225 124.422 33.3292V24.0332C124.422 23.9399 124.45 23.8652 124.506 23.8092C124.572 23.7439 124.651 23.7112 124.744 23.7112H125.388C125.482 23.7112 125.556 23.7439 125.612 23.8092C125.678 23.8652 125.71 23.9399 125.71 24.0332V24.6492C125.934 24.3412 126.233 24.0845 126.606 23.8792C126.98 23.6739 127.446 23.5712 128.006 23.5712C128.529 23.5712 128.972 23.6599 129.336 23.8372C129.71 24.0145 130.013 24.2572 130.246 24.5652C130.489 24.8732 130.671 25.2232 130.792 25.6152C130.914 26.0072 130.979 26.4272 130.988 26.8752C130.998 27.0245 131.002 27.1832 131.002 27.3512C131.002 27.5192 130.998 27.6779 130.988 27.8272C130.979 28.2659 130.914 28.6859 130.792 29.0872C130.671 29.4792 130.489 29.8292 130.246 30.1372C130.013 30.4359 129.71 30.6785 129.336 30.8652C128.972 31.0425 128.529 31.1312 128.006 31.1312C127.465 31.1312 127.008 31.0332 126.634 30.8372C126.27 30.6319 125.972 30.3799 125.738 30.0812V33.3292C125.738 33.4225 125.71 33.4972 125.654 33.5532C125.598 33.6185 125.519 33.6512 125.416 33.6512H124.744ZM127.712 29.9972C128.198 29.9972 128.576 29.8945 128.846 29.6892C129.126 29.4745 129.327 29.1992 129.448 28.8632C129.57 28.5179 129.64 28.1492 129.658 27.7572C129.668 27.4865 129.668 27.2159 129.658 26.9452C129.64 26.5532 129.57 26.1892 129.448 25.8532C129.327 25.5079 129.126 25.2325 128.846 25.0272C128.576 24.8125 128.198 24.7052 127.712 24.7052C127.255 24.7052 126.882 24.8125 126.592 25.0272C126.312 25.2419 126.102 25.5172 125.962 25.8532C125.832 26.1799 125.757 26.5159 125.738 26.8612C125.729 27.0105 125.724 27.1879 125.724 27.3932C125.724 27.5985 125.729 27.7805 125.738 27.9392C125.748 28.2659 125.822 28.5879 125.962 28.9052C126.112 29.2225 126.331 29.4839 126.62 29.6892C126.91 29.8945 127.274 29.9972 127.712 29.9972ZM135.45 31.1312C134.741 31.1312 134.148 30.9959 133.672 30.7252C133.196 30.4545 132.832 30.0812 132.58 29.6052C132.328 29.1199 132.188 28.5692 132.16 27.9532C132.151 27.7945 132.146 27.5939 132.146 27.3512C132.146 27.0992 132.151 26.8985 132.16 26.7492C132.188 26.1239 132.328 25.5732 132.58 25.0972C132.842 24.6212 133.21 24.2479 133.686 23.9772C134.162 23.7065 134.75 23.5712 135.45 23.5712C136.15 23.5712 136.738 23.7065 137.214 23.9772C137.69 24.2479 138.054 24.6212 138.306 25.0972C138.568 25.5732 138.712 26.1239 138.74 26.7492C138.75 26.8985 138.754 27.0992 138.754 27.3512C138.754 27.5939 138.75 27.7945 138.74 27.9532C138.712 28.5692 138.572 29.1199 138.32 29.6052C138.068 30.0812 137.704 30.4545 137.228 30.7252C136.752 30.9959 136.16 31.1312 135.45 31.1312ZM135.45 30.0532C136.029 30.0532 136.491 29.8712 136.836 29.5072C137.182 29.1339 137.368 28.5925 137.396 27.8832C137.406 27.7432 137.41 27.5659 137.41 27.3512C137.41 27.1365 137.406 26.9592 137.396 26.8192C137.368 26.1099 137.182 25.5732 136.836 25.2092C136.491 24.8359 136.029 24.6492 135.45 24.6492C134.872 24.6492 134.405 24.8359 134.05 25.2092C133.705 25.5732 133.523 26.1099 133.504 26.8192C133.495 26.9592 133.49 27.1365 133.49 27.3512C133.49 27.5659 133.495 27.7432 133.504 27.8832C133.523 28.5925 133.705 29.1339 134.05 29.5072C134.405 29.8712 134.872 30.0532 135.45 30.0532ZM140.549 30.9912C140.456 30.9912 140.377 30.9632 140.311 30.9072C140.255 30.8419 140.227 30.7625 140.227 30.6692V24.0472C140.227 23.9539 140.255 23.8745 140.311 23.8092C140.377 23.7439 140.456 23.7112 140.549 23.7112H141.193C141.287 23.7112 141.366 23.7439 141.431 23.8092C141.497 23.8745 141.529 23.9539 141.529 24.0472V24.6632C141.716 24.3459 141.973 24.1079 142.299 23.9492C142.626 23.7905 143.018 23.7112 143.475 23.7112H144.035C144.129 23.7112 144.203 23.7439 144.259 23.8092C144.315 23.8652 144.343 23.9399 144.343 24.0332V24.6072C144.343 24.7005 144.315 24.7752 144.259 24.8312C144.203 24.8872 144.129 24.9152 144.035 24.9152H143.195C142.691 24.9152 142.295 25.0645 142.005 25.3632C141.716 25.6525 141.571 26.0492 141.571 26.5532V30.6692C141.571 30.7625 141.539 30.8419 141.473 30.9072C141.408 30.9632 141.329 30.9912 141.235 30.9912H140.549ZM148.108 30.9912C147.585 30.9912 147.16 30.8932 146.834 30.6972C146.507 30.4919 146.269 30.2072 146.12 29.8432C145.97 29.4699 145.896 29.0312 145.896 28.5272V24.8312H144.804C144.71 24.8312 144.631 24.8032 144.566 24.7472C144.51 24.6819 144.482 24.6025 144.482 24.5092V24.0332C144.482 23.9399 144.51 23.8652 144.566 23.8092C144.631 23.7439 144.71 23.7112 144.804 23.7112H145.896V21.3732C145.896 21.2799 145.924 21.2052 145.98 21.1492C146.045 21.0839 146.124 21.0512 146.218 21.0512H146.876C146.969 21.0512 147.044 21.0839 147.1 21.1492C147.165 21.2052 147.198 21.2799 147.198 21.3732V23.7112H148.934C149.027 23.7112 149.102 23.7439 149.158 23.8092C149.223 23.8652 149.256 23.9399 149.256 24.0332V24.5092C149.256 24.6025 149.223 24.6819 149.158 24.7472C149.102 24.8032 149.027 24.8312 148.934 24.8312H147.198V28.4292C147.198 28.8679 147.272 29.2132 147.422 29.4652C147.571 29.7172 147.837 29.8432 148.22 29.8432H149.074C149.167 29.8432 149.242 29.8759 149.298 29.9412C149.363 29.9972 149.396 30.0719 149.396 30.1652V30.6692C149.396 30.7625 149.363 30.8419 149.298 30.9072C149.242 30.9632 149.167 30.9912 149.074 30.9912H148.108Z" fill="white"/>
<rect x="240" y="11.9912" width="28" height="28" rx="14" fill="white"/>
<path d="M255.766 30.9912C255.673 30.9912 255.594 30.9632 255.528 30.9072C255.472 30.8419 255.444 30.7625 255.444 30.6692V28.6532H250.908C250.815 28.6532 250.736 28.6252 250.67 28.5692C250.614 28.5039 250.586 28.4245 250.586 28.3312V27.7712C250.586 27.7339 250.596 27.6779 250.614 27.6032C250.642 27.5192 250.684 27.4352 250.74 27.3512L254.94 21.4292C255.052 21.2705 255.225 21.1912 255.458 21.1912H256.466C256.56 21.1912 256.634 21.2239 256.69 21.2892C256.756 21.3452 256.788 21.4199 256.788 21.5132V27.4352H258.048C258.151 27.4352 258.23 27.4679 258.286 27.5332C258.352 27.5892 258.384 27.6639 258.384 27.7572V28.3312C258.384 28.4245 258.352 28.5039 258.286 28.5692C258.23 28.6252 258.156 28.6532 258.062 28.6532H256.788V30.6692C256.788 30.7625 256.756 30.8419 256.69 30.9072C256.634 30.9632 256.56 30.9912 256.466 30.9912H255.766ZM252.084 27.4632H255.458V22.6612L252.084 27.4632Z" fill="#EB714A"/>
<defs>
<filter id="filter0_d_1480_11568" x="4.50195" y="-0.00878906" width="282.947" height="58" filterUnits="userSpaceOnUse" color-interpolation-filters="sRGB">
<feFlood flood-opacity="0" result="BackgroundImageFix"/>
<feColorMatrix in="SourceAlpha" type="matrix" values="0 0 0 0 0 0 0 0 0 0 0 0 0 0 0 0 0 0 127 0" result="hardAlpha"/>
<feOffset dx="3" dy="6"/>
<feComposite in2="hardAlpha" operator="out"/>
<feColorMatrix type="matrix" values="0 0 0 0 0.72549 0 0 0 0 0.262745 0 0 0 0 0.113725 0 0 0 1 0"/>
<feBlend mode="normal" in2="BackgroundImageFix" result="effect1_dropShadow_1480_11568"/>
<feBlend mode="normal" in="SourceGraphic" in2="effect1_dropShadow_1480_11568" result="shape"/>
</filter>
</defs>
</svg>
