<svg width="288" height="58" viewBox="0 0 288 58" fill="none" xmlns="http://www.w3.org/2000/svg">
<g filter="url(#filter0_d_1480_11470)">
<path d="M259.281 -0.00878906H8.50865C5.12262 -0.00878906 3.26821 3.93582 5.42849 6.5432L19.4273 23.4392C20.6537 24.9195 20.6537 27.0629 19.4273 28.5432L5.42849 45.4392C3.26821 48.0466 5.1226 51.9912 8.50863 51.9912H259.281C260.369 51.9912 261.41 51.5483 262.164 50.7646L283.332 28.7646C284.822 27.2159 284.822 24.7665 283.332 23.2178L262.164 1.21782C261.41 0.434088 260.369 -0.00878906 259.281 -0.00878906Z" fill="#DB2B63"/>
<path d="M8.50865 0.491211H259.281C260.233 0.491211 261.144 0.87873 261.803 1.5645L282.971 23.5645C284.275 24.9196 284.275 27.0628 282.971 28.4179L261.803 50.4179C261.144 51.1037 260.233 51.4912 259.281 51.4912H8.50863C5.54586 51.4912 3.92327 48.0397 5.81351 45.7582L19.8123 28.8622C21.1921 27.1969 21.1921 24.7856 19.8123 23.1202L5.81351 6.2242C3.92327 3.94275 5.54587 0.491211 8.50865 0.491211Z" stroke="#AD1848"/>
</g>
<path d="M29.6906 30.9912C29.5879 30.9912 29.5086 30.9632 29.4526 30.9072C29.3966 30.8419 29.3686 30.7625 29.3686 30.6692V21.5272C29.3686 21.4245 29.3966 21.3452 29.4526 21.2892C29.5086 21.2239 29.5879 21.1912 29.6906 21.1912H35.4026C35.5053 21.1912 35.5846 21.2239 35.6406 21.2892C35.6966 21.3452 35.7246 21.4245 35.7246 21.5272V22.0872C35.7246 22.1899 35.6966 22.2692 35.6406 22.3252C35.5846 22.3812 35.5053 22.4092 35.4026 22.4092H30.7266V25.6712H35.1226C35.2253 25.6712 35.3046 25.7039 35.3606 25.7692C35.4166 25.8252 35.4446 25.9045 35.4446 26.0072V26.5672C35.4446 26.6605 35.4166 26.7399 35.3606 26.8052C35.3046 26.8612 35.2253 26.8892 35.1226 26.8892H30.7266V30.6692C30.7266 30.7625 30.6939 30.8419 30.6286 30.9072C30.5726 30.9632 30.4933 30.9912 30.3906 30.9912H29.6906ZM39.648 31.1312C39.0506 31.1312 38.542 31.0005 38.122 30.7392C37.7113 30.4685 37.3986 30.0952 37.184 29.6192C36.9693 29.1432 36.862 28.5972 36.862 27.9812V24.0332C36.862 23.9399 36.89 23.8652 36.946 23.8092C37.0113 23.7439 37.0906 23.7112 37.184 23.7112H37.884C37.9773 23.7112 38.052 23.7439 38.108 23.8092C38.1733 23.8652 38.206 23.9399 38.206 24.0332V27.9112C38.206 29.3019 38.8126 29.9972 40.026 29.9972C40.6046 29.9972 41.0666 29.8152 41.412 29.4512C41.7666 29.0779 41.944 28.5645 41.944 27.9112V24.0332C41.944 23.9399 41.972 23.8652 42.028 23.8092C42.0933 23.7439 42.1726 23.7112 42.266 23.7112H42.952C43.0546 23.7112 43.134 23.7439 43.19 23.8092C43.246 23.8652 43.274 23.9399 43.274 24.0332V30.6692C43.274 30.7625 43.246 30.8419 43.19 30.9072C43.134 30.9632 43.0546 30.9912 42.952 30.9912H42.308C42.2146 30.9912 42.1353 30.9632 42.07 30.9072C42.014 30.8419 41.986 30.7625 41.986 30.6692V30.0532C41.734 30.3799 41.426 30.6412 41.062 30.8372C40.7073 31.0332 40.236 31.1312 39.648 31.1312ZM45.4099 30.9912C45.3165 30.9912 45.2372 30.9632 45.1719 30.9072C45.1159 30.8419 45.0879 30.7625 45.0879 30.6692V21.3732C45.0879 21.2799 45.1159 21.2052 45.1719 21.1492C45.2372 21.0839 45.3165 21.0512 45.4099 21.0512H46.0679C46.1705 21.0512 46.2499 21.0839 46.3059 21.1492C46.3619 21.2052 46.3899 21.2799 46.3899 21.3732V30.6692C46.3899 30.7625 46.3619 30.8419 46.3059 30.9072C46.2499 30.9632 46.1705 30.9912 46.0679 30.9912H45.4099ZM48.5342 30.9912C48.4408 30.9912 48.3615 30.9632 48.2962 30.9072C48.2402 30.8419 48.2122 30.7625 48.2122 30.6692V21.3732C48.2122 21.2799 48.2402 21.2052 48.2962 21.1492C48.3615 21.0839 48.4408 21.0512 48.5342 21.0512H49.1922C49.2948 21.0512 49.3742 21.0839 49.4302 21.1492C49.4862 21.2052 49.5142 21.2799 49.5142 21.3732V30.6692C49.5142 30.7625 49.4862 30.8419 49.4302 30.9072C49.3742 30.9632 49.2948 30.9912 49.1922 30.9912H48.5342ZM53.8424 31.1312C53.3198 31.1312 52.8718 31.0659 52.4984 30.9352C52.1251 30.8045 51.8218 30.6459 51.5884 30.4592C51.3551 30.2725 51.1778 30.0859 51.0564 29.8992C50.9444 29.7125 50.8838 29.5632 50.8744 29.4512C50.8651 29.3485 50.8978 29.2692 50.9724 29.2132C51.0471 29.1572 51.1218 29.1292 51.1964 29.1292H51.8124C51.8684 29.1292 51.9104 29.1385 51.9384 29.1572C51.9758 29.1665 52.0224 29.2039 52.0784 29.2692C52.1998 29.3999 52.3351 29.5305 52.4844 29.6612C52.6338 29.7919 52.8158 29.8992 53.0304 29.9832C53.2544 30.0672 53.5298 30.1092 53.8564 30.1092C54.3324 30.1092 54.7244 30.0205 55.0324 29.8432C55.3404 29.6565 55.4944 29.3859 55.4944 29.0312C55.4944 28.7979 55.4291 28.6112 55.2984 28.4712C55.1771 28.3312 54.9531 28.2052 54.6264 28.0932C54.3091 27.9812 53.8704 27.8645 53.3104 27.7432C52.7504 27.6125 52.3071 27.4539 51.9804 27.2672C51.6538 27.0712 51.4204 26.8425 51.2804 26.5812C51.1404 26.3105 51.0704 26.0072 51.0704 25.6712C51.0704 25.3259 51.1731 24.9945 51.3784 24.6772C51.5838 24.3505 51.8824 24.0845 52.2744 23.8792C52.6758 23.6739 53.1751 23.5712 53.7724 23.5712C54.2578 23.5712 54.6731 23.6319 55.0184 23.7532C55.3638 23.8745 55.6484 24.0285 55.8724 24.2152C56.0964 24.3925 56.2644 24.5699 56.3764 24.7472C56.4884 24.9245 56.5491 25.0739 56.5584 25.1952C56.5678 25.2885 56.5398 25.3679 56.4744 25.4332C56.4091 25.4892 56.3344 25.5172 56.2504 25.5172H55.6624C55.5971 25.5172 55.5411 25.5032 55.4944 25.4752C55.4571 25.4472 55.4198 25.4145 55.3824 25.3772C55.2891 25.2559 55.1771 25.1345 55.0464 25.0132C54.9251 24.8919 54.7618 24.7939 54.5564 24.7192C54.3604 24.6352 54.0991 24.5932 53.7724 24.5932C53.3058 24.5932 52.9558 24.6912 52.7224 24.8872C52.4891 25.0832 52.3724 25.3305 52.3724 25.6292C52.3724 25.8065 52.4238 25.9652 52.5264 26.1052C52.6291 26.2452 52.8251 26.3712 53.1144 26.4832C53.4038 26.5952 53.8331 26.7165 54.4024 26.8472C55.0184 26.9685 55.5038 27.1319 55.8584 27.3372C56.2131 27.5425 56.4651 27.7805 56.6144 28.0512C56.7638 28.3219 56.8384 28.6345 56.8384 28.9892C56.8384 29.3812 56.7218 29.7405 56.4884 30.0672C56.2644 30.3939 55.9284 30.6552 55.4804 30.8512C55.0418 31.0379 54.4958 31.1312 53.8424 31.1312ZM61.0075 30.9912C60.4848 30.9912 60.0602 30.8932 59.7335 30.6972C59.4068 30.4919 59.1688 30.2072 59.0195 29.8432C58.8702 29.4699 58.7955 29.0312 58.7955 28.5272V24.8312H57.7035C57.6102 24.8312 57.5308 24.8032 57.4655 24.7472C57.4095 24.6819 57.3815 24.6025 57.3815 24.5092V24.0332C57.3815 23.9399 57.4095 23.8652 57.4655 23.8092C57.5308 23.7439 57.6102 23.7112 57.7035 23.7112H58.7955V21.3732C58.7955 21.2799 58.8235 21.2052 58.8795 21.1492C58.9448 21.0839 59.0242 21.0512 59.1175 21.0512H59.7755C59.8688 21.0512 59.9435 21.0839 59.9995 21.1492C60.0648 21.2052 60.0975 21.2799 60.0975 21.3732V23.7112H61.8335C61.9268 23.7112 62.0015 23.7439 62.0575 23.8092C62.1228 23.8652 62.1555 23.9399 62.1555 24.0332V24.5092C62.1555 24.6025 62.1228 24.6819 62.0575 24.7472C62.0015 24.8032 61.9268 24.8312 61.8335 24.8312H60.0975V28.4292C60.0975 28.8679 60.1722 29.2132 60.3215 29.4652C60.4708 29.7172 60.7368 29.8432 61.1195 29.8432H61.9735C62.0668 29.8432 62.1415 29.8759 62.1975 29.9412C62.2628 29.9972 62.2955 30.0719 62.2955 30.1652V30.6692C62.2955 30.7625 62.2628 30.8419 62.1975 30.9072C62.1415 30.9632 62.0668 30.9912 61.9735 30.9912H61.0075ZM65.3842 31.1312C64.9176 31.1312 64.4929 31.0379 64.1102 30.8512C63.7276 30.6645 63.4196 30.4125 63.1862 30.0952C62.9529 29.7779 62.8362 29.4185 62.8362 29.0172C62.8362 28.3732 63.0976 27.8599 63.6202 27.4772C64.1429 27.0945 64.8242 26.8425 65.6642 26.7212L67.7502 26.4272V26.0212C67.7502 25.5732 67.6196 25.2232 67.3582 24.9712C67.1062 24.7192 66.6909 24.5932 66.1122 24.5932C65.6922 24.5932 65.3516 24.6772 65.0902 24.8452C64.8382 25.0132 64.6609 25.2279 64.5582 25.4892C64.5022 25.6292 64.4042 25.6992 64.2642 25.6992H63.6342C63.5316 25.6992 63.4522 25.6712 63.3962 25.6152C63.3496 25.5499 63.3262 25.4752 63.3262 25.3912C63.3262 25.2512 63.3776 25.0785 63.4802 24.8732C63.5922 24.6679 63.7602 24.4672 63.9842 24.2712C64.2082 24.0752 64.4929 23.9119 64.8382 23.7812C65.1929 23.6412 65.6222 23.5712 66.1262 23.5712C66.6862 23.5712 67.1576 23.6459 67.5402 23.7952C67.9229 23.9352 68.2216 24.1265 68.4362 24.3692C68.6602 24.6119 68.8189 24.8872 68.9122 25.1952C69.0149 25.5032 69.0662 25.8159 69.0662 26.1332V30.6692C69.0662 30.7625 69.0336 30.8419 68.9682 30.9072C68.9122 30.9632 68.8376 30.9912 68.7442 30.9912H68.1002C67.9976 30.9912 67.9182 30.9632 67.8622 30.9072C67.8062 30.8419 67.7782 30.7625 67.7782 30.6692V30.0672C67.6569 30.2352 67.4936 30.4032 67.2882 30.5712C67.0829 30.7299 66.8262 30.8652 66.5182 30.9772C66.2102 31.0799 65.8322 31.1312 65.3842 31.1312ZM65.6782 30.0812C66.0609 30.0812 66.4109 30.0019 66.7282 29.8432C67.0456 29.6752 67.2929 29.4185 67.4702 29.0732C67.6569 28.7279 67.7502 28.2939 67.7502 27.7712V27.3792L66.1262 27.6172C65.4636 27.7105 64.9642 27.8692 64.6282 28.0932C64.2922 28.3079 64.1242 28.5832 64.1242 28.9192C64.1242 29.1805 64.1989 29.3999 64.3482 29.5772C64.5069 29.7452 64.7029 29.8712 64.9362 29.9552C65.1789 30.0392 65.4262 30.0812 65.6782 30.0812ZM73.7389 31.1312C73.0762 31.1312 72.5022 31.0052 72.0169 30.7532C71.5409 30.4919 71.1722 30.1232 70.9109 29.6472C70.6495 29.1619 70.5095 28.5832 70.4909 27.9112C70.4815 27.7712 70.4769 27.5845 70.4769 27.3512C70.4769 27.1179 70.4815 26.9312 70.4909 26.7912C70.5095 26.1192 70.6495 25.5452 70.9109 25.0692C71.1722 24.5839 71.5409 24.2152 72.0169 23.9632C72.5022 23.7019 73.0762 23.5712 73.7389 23.5712C74.2802 23.5712 74.7422 23.6459 75.1249 23.7952C75.5169 23.9445 75.8389 24.1359 76.0909 24.3692C76.3429 24.6025 76.5295 24.8545 76.6509 25.1252C76.7815 25.3959 76.8515 25.6525 76.8609 25.8952C76.8702 25.9885 76.8422 26.0632 76.7769 26.1192C76.7115 26.1752 76.6322 26.2032 76.5389 26.2032H75.8669C75.7735 26.2032 75.7035 26.1845 75.6569 26.1472C75.6102 26.1005 75.5635 26.0259 75.5169 25.9232C75.3489 25.4659 75.1202 25.1439 74.8309 24.9572C74.5415 24.7705 74.1822 24.6772 73.7529 24.6772C73.1929 24.6772 72.7355 24.8499 72.3809 25.1952C72.0355 25.5405 71.8489 26.0959 71.8209 26.8612C71.8115 27.1972 71.8115 27.5239 71.8209 27.8412C71.8489 28.6159 72.0355 29.1759 72.3809 29.5212C72.7355 29.8572 73.1929 30.0252 73.7529 30.0252C74.1822 30.0252 74.5415 29.9319 74.8309 29.7452C75.1202 29.5585 75.3489 29.2365 75.5169 28.7792C75.5635 28.6765 75.6102 28.6065 75.6569 28.5692C75.7035 28.5225 75.7735 28.4992 75.8669 28.4992H76.5389C76.6322 28.4992 76.7115 28.5272 76.7769 28.5832C76.8422 28.6392 76.8702 28.7139 76.8609 28.8072C76.8515 29.0032 76.8095 29.2039 76.7349 29.4092C76.6602 29.6145 76.5389 29.8245 76.3709 30.0392C76.2122 30.2445 76.0115 30.4312 75.7689 30.5992C75.5262 30.7579 75.2322 30.8885 74.8869 30.9912C74.5509 31.0845 74.1682 31.1312 73.7389 31.1312ZM78.5795 30.9912C78.4861 30.9912 78.4068 30.9632 78.3415 30.9072C78.2855 30.8419 78.2575 30.7625 78.2575 30.6692V21.3732C78.2575 21.2799 78.2855 21.2052 78.3415 21.1492C78.4068 21.0839 78.4861 21.0512 78.5795 21.0512H79.2375C79.3308 21.0512 79.4055 21.0839 79.4615 21.1492C79.5268 21.2052 79.5595 21.2799 79.5595 21.3732V26.2452L82.3175 23.9492C82.4295 23.8559 82.5135 23.7952 82.5695 23.7672C82.6348 23.7299 82.7375 23.7112 82.8775 23.7112H83.6195C83.7035 23.7112 83.7735 23.7392 83.8295 23.7952C83.8855 23.8512 83.9135 23.9212 83.9135 24.0052C83.9135 24.0425 83.8995 24.0845 83.8715 24.1312C83.8528 24.1779 83.8108 24.2245 83.7455 24.2712L80.5115 26.9592L84.0955 30.4452C84.2075 30.5385 84.2635 30.6225 84.2635 30.6972C84.2635 30.7812 84.2355 30.8512 84.1795 30.9072C84.1235 30.9632 84.0535 30.9912 83.9695 30.9912H83.2415C83.1015 30.9912 82.9988 30.9772 82.9335 30.9492C82.8681 30.9119 82.7841 30.8465 82.6815 30.7532L79.5595 27.7712V30.6692C79.5595 30.7625 79.5268 30.8419 79.4615 30.9072C79.4055 30.9632 79.3308 30.9912 79.2375 30.9912H78.5795ZM88.7011 30.9912C88.5985 30.9912 88.5191 30.9632 88.4631 30.9072C88.4071 30.8419 88.3791 30.7625 88.3791 30.6692V21.5272C88.3791 21.4245 88.4071 21.3452 88.4631 21.2892C88.5191 21.2239 88.5985 21.1912 88.7011 21.1912H91.8791C92.8405 21.1912 93.6151 21.3359 94.2031 21.6252C94.7911 21.9145 95.2205 22.3439 95.4911 22.9132C95.7618 23.4732 95.9018 24.1639 95.9111 24.9852C95.9205 25.4052 95.9251 25.7739 95.9251 26.0912C95.9251 26.4085 95.9205 26.7725 95.9111 27.1832C95.8925 28.0419 95.7478 28.7559 95.4771 29.3252C95.2158 29.8852 94.7958 30.3052 94.2171 30.5852C93.6478 30.8559 92.8918 30.9912 91.9491 30.9912H88.7011ZM89.7511 29.8012H91.8791C92.5231 29.8012 93.0365 29.7125 93.4191 29.5352C93.8018 29.3579 94.0771 29.0732 94.2451 28.6812C94.4225 28.2892 94.5158 27.7712 94.5251 27.1272C94.5438 26.8472 94.5531 26.6045 94.5531 26.3992C94.5531 26.1845 94.5531 25.9745 94.5531 25.7692C94.5531 25.5545 94.5438 25.3119 94.5251 25.0412C94.5065 24.1359 94.2918 23.4685 93.8811 23.0392C93.4705 22.6005 92.7798 22.3812 91.8091 22.3812H89.7511V29.8012ZM100.467 31.1312C99.5061 31.1312 98.7408 30.8372 98.1715 30.2492C97.6021 29.6519 97.2895 28.8399 97.2335 27.8132C97.2241 27.6919 97.2195 27.5379 97.2195 27.3512C97.2195 27.1552 97.2241 26.9965 97.2335 26.8752C97.2708 26.2125 97.4248 25.6339 97.6955 25.1392C97.9661 24.6352 98.3348 24.2479 98.8015 23.9772C99.2775 23.7065 99.8328 23.5712 100.467 23.5712C101.177 23.5712 101.769 23.7205 102.245 24.0192C102.731 24.3179 103.099 24.7425 103.351 25.2932C103.603 25.8439 103.729 26.4879 103.729 27.2252V27.4632C103.729 27.5659 103.697 27.6452 103.631 27.7012C103.575 27.7572 103.501 27.7852 103.407 27.7852H98.5635C98.5635 27.7945 98.5635 27.8132 98.5635 27.8412C98.5635 27.8692 98.5635 27.8925 98.5635 27.9112C98.5821 28.2939 98.6661 28.6532 98.8155 28.9892C98.9648 29.3159 99.1795 29.5819 99.4595 29.7872C99.7395 29.9925 100.075 30.0952 100.467 30.0952C100.803 30.0952 101.083 30.0439 101.307 29.9412C101.531 29.8385 101.713 29.7265 101.853 29.6052C101.993 29.4745 102.087 29.3765 102.133 29.3112C102.217 29.1899 102.283 29.1199 102.329 29.1012C102.376 29.0732 102.451 29.0592 102.553 29.0592H103.225C103.319 29.0592 103.393 29.0872 103.449 29.1432C103.515 29.1899 103.543 29.2599 103.533 29.3532C103.524 29.4932 103.449 29.6659 103.309 29.8712C103.169 30.0672 102.969 30.2632 102.707 30.4592C102.446 30.6552 102.129 30.8185 101.755 30.9492C101.382 31.0705 100.953 31.1312 100.467 31.1312ZM98.5635 26.8192H102.399V26.7772C102.399 26.3572 102.32 25.9839 102.161 25.6572C102.012 25.3305 101.793 25.0739 101.503 24.8872C101.214 24.6912 100.869 24.5932 100.467 24.5932C100.066 24.5932 99.7208 24.6912 99.4315 24.8872C99.1515 25.0739 98.9368 25.3305 98.7875 25.6572C98.6381 25.9839 98.5635 26.3572 98.5635 26.7772V26.8192ZM107.411 30.9912C107.271 30.9912 107.159 30.9585 107.075 30.8932C107.001 30.8279 106.94 30.7439 106.893 30.6412L104.303 24.1452C104.285 24.0985 104.275 24.0519 104.275 24.0052C104.275 23.9212 104.303 23.8512 104.359 23.7952C104.415 23.7392 104.485 23.7112 104.569 23.7112H105.241C105.344 23.7112 105.423 23.7392 105.479 23.7952C105.535 23.8512 105.568 23.9025 105.577 23.9492L107.719 29.4652L109.847 23.9492C109.866 23.9025 109.899 23.8512 109.945 23.7952C110.001 23.7392 110.081 23.7112 110.183 23.7112H110.869C110.944 23.7112 111.009 23.7392 111.065 23.7952C111.131 23.8512 111.163 23.9212 111.163 24.0052C111.163 24.0519 111.154 24.0985 111.135 24.1452L108.531 30.6412C108.494 30.7439 108.433 30.8279 108.349 30.8932C108.275 30.9585 108.163 30.9912 108.013 30.9912H107.411ZM114.988 31.1312C114.026 31.1312 113.261 30.8372 112.692 30.2492C112.122 29.6519 111.81 28.8399 111.754 27.8132C111.744 27.6919 111.74 27.5379 111.74 27.3512C111.74 27.1552 111.744 26.9965 111.754 26.8752C111.791 26.2125 111.945 25.6339 112.216 25.1392C112.486 24.6352 112.855 24.2479 113.322 23.9772C113.798 23.7065 114.353 23.5712 114.988 23.5712C115.697 23.5712 116.29 23.7205 116.766 24.0192C117.251 24.3179 117.62 24.7425 117.872 25.2932C118.124 25.8439 118.25 26.4879 118.25 27.2252V27.4632C118.25 27.5659 118.217 27.6452 118.152 27.7012C118.096 27.7572 118.021 27.7852 117.928 27.7852H113.084C113.084 27.7945 113.084 27.8132 113.084 27.8412C113.084 27.8692 113.084 27.8925 113.084 27.9112C113.102 28.2939 113.186 28.6532 113.336 28.9892C113.485 29.3159 113.7 29.5819 113.98 29.7872C114.26 29.9925 114.596 30.0952 114.988 30.0952C115.324 30.0952 115.604 30.0439 115.828 29.9412C116.052 29.8385 116.234 29.7265 116.374 29.6052C116.514 29.4745 116.607 29.3765 116.654 29.3112C116.738 29.1899 116.803 29.1199 116.85 29.1012C116.896 29.0732 116.971 29.0592 117.074 29.0592H117.746C117.839 29.0592 117.914 29.0872 117.97 29.1432C118.035 29.1899 118.063 29.2599 118.054 29.3532C118.044 29.4932 117.97 29.6659 117.83 29.8712C117.69 30.0672 117.489 30.2632 117.228 30.4592C116.966 30.6552 116.649 30.8185 116.276 30.9492C115.902 31.0705 115.473 31.1312 114.988 31.1312ZM113.084 26.8192H116.92V26.7772C116.92 26.3572 116.84 25.9839 116.682 25.6572C116.532 25.3305 116.313 25.0739 116.024 24.8872C115.734 24.6912 115.389 24.5932 114.988 24.5932C114.586 24.5932 114.241 24.6912 113.952 24.8872C113.672 25.0739 113.457 25.3305 113.308 25.6572C113.158 25.9839 113.084 26.3572 113.084 26.7772V26.8192ZM119.98 30.9912C119.886 30.9912 119.807 30.9632 119.742 30.9072C119.686 30.8419 119.658 30.7625 119.658 30.6692V21.3732C119.658 21.2799 119.686 21.2052 119.742 21.1492C119.807 21.0839 119.886 21.0512 119.98 21.0512H120.638C120.74 21.0512 120.82 21.0839 120.876 21.1492C120.932 21.2052 120.96 21.2799 120.96 21.3732V30.6692C120.96 30.7625 120.932 30.8419 120.876 30.9072C120.82 30.9632 120.74 30.9912 120.638 30.9912H119.98ZM125.75 31.1312C125.041 31.1312 124.448 30.9959 123.972 30.7252C123.496 30.4545 123.132 30.0812 122.88 29.6052C122.628 29.1199 122.488 28.5692 122.46 27.9532C122.451 27.7945 122.446 27.5939 122.446 27.3512C122.446 27.0992 122.451 26.8985 122.46 26.7492C122.488 26.1239 122.628 25.5732 122.88 25.0972C123.141 24.6212 123.51 24.2479 123.986 23.9772C124.462 23.7065 125.05 23.5712 125.75 23.5712C126.45 23.5712 127.038 23.7065 127.514 23.9772C127.99 24.2479 128.354 24.6212 128.606 25.0972C128.867 25.5732 129.012 26.1239 129.04 26.7492C129.049 26.8985 129.054 27.0992 129.054 27.3512C129.054 27.5939 129.049 27.7945 129.04 27.9532C129.012 28.5692 128.872 29.1199 128.62 29.6052C128.368 30.0812 128.004 30.4545 127.528 30.7252C127.052 30.9959 126.459 31.1312 125.75 31.1312ZM125.75 30.0532C126.329 30.0532 126.791 29.8712 127.136 29.5072C127.481 29.1339 127.668 28.5925 127.696 27.8832C127.705 27.7432 127.71 27.5659 127.71 27.3512C127.71 27.1365 127.705 26.9592 127.696 26.8192C127.668 26.1099 127.481 25.5732 127.136 25.2092C126.791 24.8359 126.329 24.6492 125.75 24.6492C125.171 24.6492 124.705 24.8359 124.35 25.2092C124.005 25.5732 123.823 26.1099 123.804 26.8192C123.795 26.9592 123.79 27.1365 123.79 27.3512C123.79 27.5659 123.795 27.7432 123.804 27.8832C123.823 28.5925 124.005 29.1339 124.35 29.5072C124.705 29.8712 125.171 30.0532 125.75 30.0532ZM130.863 33.6512C130.77 33.6512 130.69 33.6185 130.625 33.5532C130.569 33.4972 130.541 33.4225 130.541 33.3292V24.0332C130.541 23.9399 130.569 23.8652 130.625 23.8092C130.69 23.7439 130.77 23.7112 130.863 23.7112H131.507C131.6 23.7112 131.675 23.7439 131.731 23.8092C131.796 23.8652 131.829 23.9399 131.829 24.0332V24.6492C132.053 24.3412 132.352 24.0845 132.725 23.8792C133.098 23.6739 133.565 23.5712 134.125 23.5712C134.648 23.5712 135.091 23.6599 135.455 23.8372C135.828 24.0145 136.132 24.2572 136.365 24.5652C136.608 24.8732 136.79 25.2232 136.911 25.6152C137.032 26.0072 137.098 26.4272 137.107 26.8752C137.116 27.0245 137.121 27.1832 137.121 27.3512C137.121 27.5192 137.116 27.6779 137.107 27.8272C137.098 28.2659 137.032 28.6859 136.911 29.0872C136.79 29.4792 136.608 29.8292 136.365 30.1372C136.132 30.4359 135.828 30.6785 135.455 30.8652C135.091 31.0425 134.648 31.1312 134.125 31.1312C133.584 31.1312 133.126 31.0332 132.753 30.8372C132.389 30.6319 132.09 30.3799 131.857 30.0812V33.3292C131.857 33.4225 131.829 33.4972 131.773 33.5532C131.717 33.6185 131.638 33.6512 131.535 33.6512H130.863ZM133.831 29.9972C134.316 29.9972 134.694 29.8945 134.965 29.6892C135.245 29.4745 135.446 29.1992 135.567 28.8632C135.688 28.5179 135.758 28.1492 135.777 27.7572C135.786 27.4865 135.786 27.2159 135.777 26.9452C135.758 26.5532 135.688 26.1892 135.567 25.8532C135.446 25.5079 135.245 25.2325 134.965 25.0272C134.694 24.8125 134.316 24.7052 133.831 24.7052C133.374 24.7052 133 24.8125 132.711 25.0272C132.431 25.2419 132.221 25.5172 132.081 25.8532C131.95 26.1799 131.876 26.5159 131.857 26.8612C131.848 27.0105 131.843 27.1879 131.843 27.3932C131.843 27.5985 131.848 27.7805 131.857 27.9392C131.866 28.2659 131.941 28.5879 132.081 28.9052C132.23 29.2225 132.45 29.4839 132.739 29.6892C133.028 29.8945 133.392 29.9972 133.831 29.9972ZM138.909 30.9912C138.815 30.9912 138.736 30.9632 138.671 30.9072C138.615 30.8419 138.587 30.7625 138.587 30.6692V24.0332C138.587 23.9399 138.615 23.8652 138.671 23.8092C138.736 23.7439 138.815 23.7112 138.909 23.7112H139.539C139.632 23.7112 139.707 23.7439 139.763 23.8092C139.828 23.8652 139.861 23.9399 139.861 24.0332V24.5232C140.075 24.2339 140.346 24.0052 140.673 23.8372C140.999 23.6599 141.391 23.5712 141.849 23.5712C142.903 23.5619 143.65 23.9912 144.089 24.8592C144.303 24.4672 144.616 24.1545 145.027 23.9212C145.437 23.6879 145.904 23.5712 146.427 23.5712C146.912 23.5712 147.351 23.6832 147.743 23.9072C148.144 24.1312 148.457 24.4719 148.681 24.9292C148.914 25.3772 149.031 25.9419 149.031 26.6232V30.6692C149.031 30.7625 148.998 30.8419 148.933 30.9072C148.877 30.9632 148.802 30.9912 148.709 30.9912H148.051C147.957 30.9912 147.878 30.9632 147.813 30.9072C147.757 30.8419 147.729 30.7625 147.729 30.6692V26.7492C147.729 26.2265 147.654 25.8159 147.505 25.5172C147.355 25.2185 147.155 25.0085 146.903 24.8872C146.651 24.7659 146.375 24.7052 146.077 24.7052C145.834 24.7052 145.587 24.7659 145.335 24.8872C145.083 25.0085 144.873 25.2185 144.705 25.5172C144.546 25.8159 144.467 26.2265 144.467 26.7492V30.6692C144.467 30.7625 144.434 30.8419 144.369 30.9072C144.313 30.9632 144.238 30.9912 144.145 30.9912H143.487C143.393 30.9912 143.314 30.9632 143.249 30.9072C143.193 30.8419 143.165 30.7625 143.165 30.6692V26.7492C143.165 26.2265 143.085 25.8159 142.927 25.5172C142.768 25.2185 142.563 25.0085 142.311 24.8872C142.059 24.7659 141.793 24.7052 141.513 24.7052C141.27 24.7052 141.023 24.7659 140.771 24.8872C140.519 25.0085 140.309 25.2185 140.141 25.5172C139.982 25.8159 139.903 26.2219 139.903 26.7352V30.6692C139.903 30.7625 139.87 30.8419 139.805 30.9072C139.749 30.9632 139.674 30.9912 139.581 30.9912H138.909ZM153.646 31.1312C152.685 31.1312 151.919 30.8372 151.35 30.2492C150.781 29.6519 150.468 28.8399 150.412 27.8132C150.403 27.6919 150.398 27.5379 150.398 27.3512C150.398 27.1552 150.403 26.9965 150.412 26.8752C150.449 26.2125 150.603 25.6339 150.874 25.1392C151.145 24.6352 151.513 24.2479 151.98 23.9772C152.456 23.7065 153.011 23.5712 153.646 23.5712C154.355 23.5712 154.948 23.7205 155.424 24.0192C155.909 24.3179 156.278 24.7425 156.53 25.2932C156.782 25.8439 156.908 26.4879 156.908 27.2252V27.4632C156.908 27.5659 156.875 27.6452 156.81 27.7012C156.754 27.7572 156.679 27.7852 156.586 27.7852H151.742C151.742 27.7945 151.742 27.8132 151.742 27.8412C151.742 27.8692 151.742 27.8925 151.742 27.9112C151.761 28.2939 151.845 28.6532 151.994 28.9892C152.143 29.3159 152.358 29.5819 152.638 29.7872C152.918 29.9925 153.254 30.0952 153.646 30.0952C153.982 30.0952 154.262 30.0439 154.486 29.9412C154.71 29.8385 154.892 29.7265 155.032 29.6052C155.172 29.4745 155.265 29.3765 155.312 29.3112C155.396 29.1899 155.461 29.1199 155.508 29.1012C155.555 29.0732 155.629 29.0592 155.732 29.0592H156.404C156.497 29.0592 156.572 29.0872 156.628 29.1432C156.693 29.1899 156.721 29.2599 156.712 29.3532C156.703 29.4932 156.628 29.6659 156.488 29.8712C156.348 30.0672 156.147 30.2632 155.886 30.4592C155.625 30.6552 155.307 30.8185 154.934 30.9492C154.561 31.0705 154.131 31.1312 153.646 31.1312ZM151.742 26.8192H155.578V26.7772C155.578 26.3572 155.499 25.9839 155.34 25.6572C155.191 25.3305 154.971 25.0739 154.682 24.8872C154.393 24.6912 154.047 24.5932 153.646 24.5932C153.245 24.5932 152.899 24.6912 152.61 24.8872C152.33 25.0739 152.115 25.3305 151.966 25.6572C151.817 25.9839 151.742 26.3572 151.742 26.7772V26.8192ZM158.624 30.9912C158.531 30.9912 158.451 30.9632 158.386 30.9072C158.33 30.8419 158.302 30.7625 158.302 30.6692V24.0332C158.302 23.9399 158.33 23.8652 158.386 23.8092C158.451 23.7439 158.531 23.7112 158.624 23.7112H159.282C159.375 23.7112 159.45 23.7439 159.506 23.8092C159.571 23.8652 159.604 23.9399 159.604 24.0332V24.6492C159.847 24.3319 160.15 24.0752 160.514 23.8792C160.887 23.6739 161.363 23.5712 161.942 23.5712C162.549 23.5712 163.062 23.7065 163.482 23.9772C163.911 24.2385 164.233 24.6072 164.448 25.0832C164.663 25.5499 164.77 26.0959 164.77 26.7212V30.6692C164.77 30.7625 164.742 30.8419 164.686 30.9072C164.63 30.9632 164.555 30.9912 164.462 30.9912H163.762C163.669 30.9912 163.589 30.9632 163.524 30.9072C163.468 30.8419 163.44 30.7625 163.44 30.6692V26.7912C163.44 26.1379 163.281 25.6292 162.964 25.2652C162.647 24.8919 162.18 24.7052 161.564 24.7052C160.985 24.7052 160.519 24.8919 160.164 25.2652C159.819 25.6292 159.646 26.1379 159.646 26.7912V30.6692C159.646 30.7625 159.613 30.8419 159.548 30.9072C159.492 30.9632 159.417 30.9912 159.324 30.9912H158.624ZM169.259 30.9912C168.736 30.9912 168.311 30.8932 167.985 30.6972C167.658 30.4919 167.42 30.2072 167.271 29.8432C167.121 29.4699 167.047 29.0312 167.047 28.5272V24.8312H165.955C165.861 24.8312 165.782 24.8032 165.717 24.7472C165.661 24.6819 165.633 24.6025 165.633 24.5092V24.0332C165.633 23.9399 165.661 23.8652 165.717 23.8092C165.782 23.7439 165.861 23.7112 165.955 23.7112H167.047V21.3732C167.047 21.2799 167.075 21.2052 167.131 21.1492C167.196 21.0839 167.275 21.0512 167.369 21.0512H168.027C168.12 21.0512 168.195 21.0839 168.251 21.1492C168.316 21.2052 168.349 21.2799 168.349 21.3732V23.7112H170.085C170.178 23.7112 170.253 23.7439 170.309 23.8092C170.374 23.8652 170.407 23.9399 170.407 24.0332V24.5092C170.407 24.6025 170.374 24.6819 170.309 24.7472C170.253 24.8032 170.178 24.8312 170.085 24.8312H168.349V28.4292C168.349 28.8679 168.423 29.2132 168.573 29.4652C168.722 29.7172 168.988 29.8432 169.371 29.8432H170.225C170.318 29.8432 170.393 29.8759 170.449 29.9412C170.514 29.9972 170.547 30.0719 170.547 30.1652V30.6692C170.547 30.7625 170.514 30.8419 170.449 30.9072C170.393 30.9632 170.318 30.9912 170.225 30.9912H169.259Z" fill="white"/>
<rect x="240" y="11.9912" width="28" height="28" rx="14" fill="white"/>
<path d="M251.4 30.9912C251.306 30.9912 251.227 30.9632 251.162 30.9072C251.106 30.8419 251.078 30.7625 251.078 30.6692V30.2212C251.078 30.1372 251.101 30.0439 251.148 29.9412C251.194 29.8385 251.288 29.7265 251.428 29.6052L254.396 26.6372C254.872 26.2359 255.245 25.8952 255.516 25.6152C255.796 25.3259 255.992 25.0505 256.104 24.7892C256.225 24.5279 256.286 24.2572 256.286 23.9772C256.286 23.4452 256.136 23.0252 255.838 22.7172C255.539 22.3999 255.096 22.2412 254.508 22.2412C254.134 22.2412 253.812 22.3205 253.542 22.4792C253.271 22.6285 253.056 22.8385 252.898 23.1092C252.748 23.3705 252.65 23.6692 252.604 24.0052C252.585 24.1265 252.534 24.2105 252.45 24.2572C252.375 24.3039 252.305 24.3272 252.24 24.3272H251.512C251.428 24.3272 251.358 24.3039 251.302 24.2572C251.246 24.2012 251.218 24.1359 251.218 24.0612C251.227 23.7065 251.302 23.3519 251.442 22.9972C251.582 22.6332 251.787 22.3065 252.058 22.0172C252.338 21.7279 252.678 21.4945 253.08 21.3172C253.49 21.1305 253.966 21.0372 254.508 21.0372C255.245 21.0372 255.847 21.1725 256.314 21.4432C256.79 21.7045 257.14 22.0545 257.364 22.4932C257.588 22.9319 257.7 23.4125 257.7 23.9352C257.7 24.3459 257.63 24.7239 257.49 25.0692C257.35 25.4052 257.144 25.7365 256.874 26.0632C256.612 26.3805 256.286 26.7072 255.894 27.0432L253.206 29.7732H257.574C257.676 29.7732 257.756 29.8012 257.812 29.8572C257.877 29.9132 257.91 29.9925 257.91 30.0952V30.6692C257.91 30.7625 257.877 30.8419 257.812 30.9072C257.756 30.9632 257.676 30.9912 257.574 30.9912H251.4Z" fill="#DB2B63"/>
<defs>
<filter id="filter0_d_1480_11470" x="4.50195" y="-0.00878906" width="282.947" height="58" filterUnits="userSpaceOnUse" color-interpolation-filters="sRGB">
<feFlood flood-opacity="0" result="BackgroundImageFix"/>
<feColorMatrix in="SourceAlpha" type="matrix" values="0 0 0 0 0 0 0 0 0 0 0 0 0 0 0 0 0 0 127 0" result="hardAlpha"/>
<feOffset dx="3" dy="6"/>
<feComposite in2="hardAlpha" operator="out"/>
<feColorMatrix type="matrix" values="0 0 0 0 0.678431 0 0 0 0 0.0941176 0 0 0 0 0.282353 0 0 0 1 0"/>
<feBlend mode="normal" in2="BackgroundImageFix" result="effect1_dropShadow_1480_11470"/>
<feBlend mode="normal" in="SourceGraphic" in2="effect1_dropShadow_1480_11470" result="shape"/>
</filter>
</defs>
</svg>
