<svg xmlns="http://www.w3.org/2000/svg" width="428" height="793" viewBox="0 0 428 793" fill="none">
<g clip-path="url(#clip0_221_647)">
<rect width="428" height="792" transform="translate(0 0.68457)" fill="#093BAA"/>
<path d="M-189 190.09C-189 177.45 -181.999 174.493 -168.696 170.868C-88.5854 149.039 13.8895 148.039 82.1066 199.331C177.381 270.968 225.973 386.573 323.669 455.007C353.41 475.841 385.792 486.816 421.673 494.191C497.905 509.859 575.89 522.22 652.823 534.359C777.088 553.967 905.765 543.806 1031.04 542.492C1130.18 541.452 1238.71 534.946 1334.3 565.41C1393.7 584.342 1453.31 625.695 1472 684.685" stroke="#B1D0FF" stroke-opacity="0.05" stroke-width="5" stroke-linecap="round"/>
<path d="M268 -40.7129V1111.29" stroke="url(#paint0_linear_221_647)" stroke-opacity="0.1" stroke-width="1.5"/>
<path d="M-746 205.562L1174 205.562" stroke="url(#paint1_linear_221_647)" stroke-opacity="0.1" stroke-width="1.5"/>
<path d="M-746 744.657L1174 744.657" stroke="url(#paint2_linear_221_647)" stroke-opacity="0.1" stroke-width="1.5"/>
<path d="M-746 572.959L1174 572.959" stroke="url(#paint3_linear_221_647)" stroke-opacity="0.1" stroke-width="1.5"/>
<path d="M-746 376.26L1174 376.26" stroke="url(#paint4_linear_221_647)" stroke-opacity="0.1" stroke-width="1.5"/>
<rect x="154.75" y="64.9346" width="118.5" height="21.5" rx="10.75" fill="#093BAA"/>



































</g>
<defs>
<linearGradient id="paint0_linear_221_647" x1="268.5" y1="-40.7129" x2="268.5" y2="1111.29" gradientUnits="userSpaceOnUse">
<stop stop-color="#B7BDC6" stop-opacity="0"/>
<stop offset="0.505" stop-color="#B7BDC6"/>
<stop offset="1" stop-color="#B7BDC6" stop-opacity="0"/>
</linearGradient>
<linearGradient id="paint1_linear_221_647" x1="-746" y1="205.062" x2="1174" y2="205.062" gradientUnits="userSpaceOnUse">
<stop stop-color="#B7BDC6" stop-opacity="0"/>
<stop offset="0.505" stop-color="#B7BDC6"/>
<stop offset="1" stop-color="#B7BDC6" stop-opacity="0"/>
</linearGradient>
<linearGradient id="paint2_linear_221_647" x1="-746" y1="744.157" x2="1174" y2="744.157" gradientUnits="userSpaceOnUse">
<stop stop-color="#B7BDC6" stop-opacity="0"/>
<stop offset="0.505" stop-color="#B7BDC6"/>
<stop offset="1" stop-color="#B7BDC6" stop-opacity="0"/>
</linearGradient>
<linearGradient id="paint3_linear_221_647" x1="-746" y1="572.459" x2="1174" y2="572.459" gradientUnits="userSpaceOnUse">
<stop stop-color="#B7BDC6" stop-opacity="0"/>
<stop offset="0.505" stop-color="#B7BDC6"/>
<stop offset="1" stop-color="#B7BDC6" stop-opacity="0"/>
</linearGradient>
<linearGradient id="paint4_linear_221_647" x1="-746" y1="375.76" x2="1174" y2="375.76" gradientUnits="userSpaceOnUse">
<stop stop-color="#B7BDC6" stop-opacity="0"/>
<stop offset="0.505" stop-color="#B7BDC6"/>
<stop offset="1" stop-color="#B7BDC6" stop-opacity="0"/>
</linearGradient>
<clipPath id="clip0_221_647">
<rect width="428" height="792" fill="white" transform="translate(0 0.68457)"/>
</clipPath>
</defs>
</svg>