<svg width="40" height="40" viewBox="0 0 40 40" fill="none" xmlns="http://www.w3.org/2000/svg">
<path d="M4.16675 19.9993C4.16675 12.5354 4.16675 8.8035 6.48548 6.48475C8.80423 4.16602 12.5362 4.16602 20.0001 4.16602C27.4639 4.16602 31.1959 4.16602 33.5147 6.48475C35.8334 8.8035 35.8334 12.5354 35.8334 19.9993C35.8334 27.4632 35.8334 31.1952 33.5147 33.514C31.1959 35.8327 27.4639 35.8327 20.0001 35.8327C12.5362 35.8327 8.80423 35.8327 6.48548 33.514C4.16675 31.1952 4.16675 27.4632 4.16675 19.9993Z" fill="white" stroke="white" stroke-width="2.5"/>
<path d="M13.3335 22.9167C13.3335 22.9167 16.0002 24.4375 17.3335 26.6667C17.3335 26.6667 21.3335 17.9167 26.6668 15" stroke="#093BAA" stroke-width="2.5" stroke-linecap="round" stroke-linejoin="round"/>
</svg>
