<svg width="238" height="44" viewBox="0 0 238 44" fill="none" xmlns="http://www.w3.org/2000/svg">
<path d="M37.9917 37.482H31.4723V27.2703C31.4723 24.8356 31.4283 21.7006 28.0807 21.7006C24.6853 21.7006 24.1647 24.3553 24.1647 27.0906V37.482H17.6453V16.483H23.9043V19.354H23.9923C25.2683 17.176 27.6443 15.8706 30.167 15.9623C36.7743 15.9623 37.9953 20.3073 37.9953 25.965L37.9917 37.4783V37.482ZM10.29 13.612C9.28854 13.6071 8.32941 13.2074 7.62092 12.4996C6.91243 11.7918 6.51178 10.8331 6.506 9.83162C6.506 7.75629 8.21467 6.04762 10.29 6.04762C12.3653 6.04762 14.0703 7.75629 14.074 9.83162C14.074 11.907 12.3653 13.612 10.29 13.612ZM13.5497 37.482H7.023V16.483H13.5497V37.482ZM41.2367 -0.00971113H3.745C2.89489 -0.0146488 2.07717 0.316107 1.46955 0.910681C0.861933 1.50526 0.51351 2.3156 0.5 3.16562V40.815C0.51351 41.665 0.861933 42.4753 1.46955 43.0699C2.07717 43.6645 2.89489 43.9952 3.745 43.9903H41.2403C42.0924 43.9972 42.9128 43.6675 43.5232 43.0729C44.1335 42.4784 44.4846 41.6669 44.5 40.815V3.16196C44.4846 2.31065 44.1333 1.49996 43.5227 0.906547C42.9121 0.313134 42.0917 -0.0148926 41.2403 -0.00604473L41.2367 -0.00971113Z" fill="#0A66C2"/>
<path d="M53.684 5.79023H59.3C60.164 5.79023 60.8573 6.03557 61.38 6.52623C61.9133 7.00623 62.18 7.6409 62.18 8.43023V9.58223C62.18 10.1369 62.004 10.6276 61.652 11.0542C61.3107 11.4809 60.8413 11.7902 60.244 11.9822V11.9982C60.8733 12.3716 61.3427 13.0542 61.652 14.0462L62.532 16.9902H60.964L60.1 14.1102C59.9507 13.6089 59.7107 13.2142 59.38 12.9262C59.06 12.6382 58.692 12.4942 58.276 12.4942H55.204V16.9902H53.684V5.79023ZM58.884 11.1502C59.4173 11.1502 59.844 11.0062 60.164 10.7182C60.4947 10.4302 60.66 10.0516 60.66 9.58223V8.41423C60.66 8.03023 60.532 7.7209 60.276 7.48623C60.02 7.25157 59.684 7.13423 59.268 7.13423H55.204V11.1502H58.884ZM66.9669 17.1182C66.0282 17.1182 65.2709 16.8356 64.6949 16.2702C64.1295 15.7049 63.8469 14.9636 63.8469 14.0462V11.9662C63.8469 11.0382 64.1349 10.2916 64.7109 9.72623C65.2869 9.1609 66.0495 8.87823 66.9989 8.87823H68.3429C69.2922 8.87823 70.0549 9.1609 70.6309 9.72623C71.2069 10.2916 71.4949 11.0382 71.4949 11.9662V14.0462C71.4949 14.9636 71.2015 15.7049 70.6149 16.2702C70.0389 16.8356 69.2762 17.1182 68.3269 17.1182H66.9669ZM68.3109 15.8062C68.8229 15.8062 69.2335 15.6409 69.5429 15.3102C69.8522 14.9796 70.0069 14.5369 70.0069 13.9822V12.0142C70.0069 11.4596 69.8522 11.0169 69.5429 10.6862C69.2442 10.3556 68.8442 10.1902 68.3429 10.1902H66.9989C66.4975 10.1902 66.0922 10.3556 65.7829 10.6862C65.4842 11.0169 65.3349 11.4596 65.3349 12.0142V13.9822C65.3349 14.5369 65.4842 14.9796 65.7829 15.3102C66.0815 15.6409 66.4815 15.8062 66.9829 15.8062H68.3109ZM73.4169 5.79023H74.9049V10.0142C75.1502 9.6729 75.4595 9.4009 75.8329 9.19823C76.2062 8.9849 76.5742 8.87823 76.9369 8.87823H78.0249C78.7929 8.87823 79.4115 9.13423 79.8809 9.64623C80.3609 10.1582 80.6009 10.8302 80.6009 11.6622V16.9902H79.1129V11.6622C79.1129 11.2249 79.0009 10.8729 78.7769 10.6062C78.5529 10.3289 78.2595 10.1902 77.8969 10.1902H76.8729C76.4142 10.1902 75.9982 10.3662 75.6249 10.7182C75.2515 11.0596 75.0115 11.5076 74.9049 12.0622V16.9902H73.4169V5.79023ZM85.129 17.1182C84.329 17.1182 83.689 16.9156 83.209 16.5102C82.729 16.0942 82.489 15.5449 82.489 14.8622V14.3342C82.489 13.6622 82.7397 13.1236 83.241 12.7182C83.7423 12.3022 84.3983 12.0942 85.209 12.0942H86.217C86.537 12.0942 86.8783 12.1422 87.241 12.2382C87.6037 12.3342 87.913 12.4676 88.169 12.6382V11.4702C88.169 11.0756 88.0463 10.7609 87.801 10.5262C87.5557 10.2809 87.2357 10.1582 86.841 10.1582H85.529C85.1237 10.1582 84.7983 10.2542 84.553 10.4462C84.3077 10.6382 84.185 10.8889 84.185 11.1982H82.713C82.713 10.5049 82.969 9.9449 83.481 9.51823C84.0037 9.09157 84.6863 8.87823 85.529 8.87823H86.841C87.6837 8.87823 88.361 9.11823 88.873 9.59823C89.385 10.0676 89.641 10.6916 89.641 11.4702V16.9902H88.249V15.9182C88.0037 16.2809 87.6837 16.5742 87.289 16.7982C86.8943 17.0116 86.4943 17.1182 86.089 17.1182H85.129ZM86.169 15.8862C86.6383 15.8862 87.0543 15.7529 87.417 15.4862C87.7797 15.2089 88.0303 14.8409 88.169 14.3822V13.9022C87.9663 13.7209 87.689 13.5769 87.337 13.4702C86.985 13.3636 86.6223 13.3102 86.249 13.3102H85.225C84.8517 13.3102 84.5477 13.4062 84.313 13.5982C84.0783 13.7902 83.961 14.0462 83.961 14.3662V14.8462C83.961 15.1662 84.073 15.4222 84.297 15.6142C84.5317 15.7956 84.841 15.8862 85.225 15.8862H86.169ZM91.7919 9.00623H93.2159V10.1102C93.4505 9.74757 93.7599 9.45423 94.1439 9.23023C94.5385 8.99557 94.9279 8.87823 95.3119 8.87823H96.3679C97.1359 8.87823 97.7545 9.13423 98.2239 9.64623C98.7039 10.1582 98.9439 10.8302 98.9439 11.6622V16.9902H97.4559V11.6622C97.4559 11.2249 97.3439 10.8729 97.1199 10.6062C96.8959 10.3289 96.6025 10.1902 96.2399 10.1902H95.2479C94.7892 10.1902 94.3732 10.3662 93.9999 10.7182C93.6265 11.0702 93.3865 11.5289 93.2799 12.0942V16.9902H91.7919V9.00623ZM108.474 17.1182C107.439 17.1182 106.612 16.8089 105.994 16.1902C105.375 15.5716 105.066 14.7396 105.066 13.6942H106.554C106.554 14.3236 106.73 14.8249 107.082 15.1982C107.444 15.5716 107.919 15.7582 108.506 15.7582H110.282C110.868 15.7582 111.338 15.6356 111.69 15.3902C112.042 15.1342 112.218 14.7982 112.218 14.3822V13.5182C112.218 13.1876 112.09 12.9102 111.834 12.6862C111.588 12.4622 111.236 12.3129 110.778 12.2382L107.866 11.7582C107.012 11.6196 106.351 11.3262 105.882 10.8782C105.423 10.4302 105.194 9.87023 105.194 9.19823V8.31823C105.194 7.51823 105.498 6.87823 106.106 6.39823C106.724 5.90757 107.535 5.66223 108.538 5.66223H110.346C110.975 5.66223 111.53 5.79557 112.01 6.06223C112.5 6.31823 112.879 6.68623 113.146 7.16623C113.412 7.63557 113.546 8.17957 113.546 8.79823H112.042C112.042 8.2649 111.887 7.83823 111.578 7.51823C111.268 7.18757 110.858 7.02223 110.346 7.02223H108.538C107.994 7.02223 107.551 7.1449 107.21 7.39023C106.879 7.6249 106.714 7.95023 106.714 8.36623V9.08623C106.714 9.42757 106.831 9.71023 107.066 9.93423C107.311 10.1582 107.658 10.3129 108.106 10.3982L110.986 10.8942C111.871 11.0436 112.548 11.3369 113.018 11.7742C113.498 12.2009 113.738 12.7396 113.738 13.3902V14.4302C113.738 15.2409 113.423 15.8916 112.794 16.3822C112.175 16.8729 111.348 17.1182 110.314 17.1182H108.474ZM115.573 5.79023H117.061V10.0142C117.306 9.6729 117.616 9.4009 117.989 9.19823C118.362 8.9849 118.73 8.87823 119.093 8.87823H120.181C120.949 8.87823 121.568 9.13423 122.037 9.64623C122.517 10.1582 122.757 10.8302 122.757 11.6622V16.9902H121.269V11.6622C121.269 11.2249 121.157 10.8729 120.933 10.6062C120.709 10.3289 120.416 10.1902 120.053 10.1902H119.029C118.57 10.1902 118.154 10.3662 117.781 10.7182C117.408 11.0596 117.168 11.5076 117.061 12.0622V16.9902H115.573V5.79023ZM127.285 17.1182C126.485 17.1182 125.845 16.9156 125.365 16.5102C124.885 16.0942 124.645 15.5449 124.645 14.8622V14.3342C124.645 13.6622 124.896 13.1236 125.397 12.7182C125.899 12.3022 126.555 12.0942 127.365 12.0942H128.373C128.693 12.0942 129.035 12.1422 129.397 12.2382C129.76 12.3342 130.069 12.4676 130.325 12.6382V11.4702C130.325 11.0756 130.203 10.7609 129.957 10.5262C129.712 10.2809 129.392 10.1582 128.997 10.1582H127.685C127.28 10.1582 126.955 10.2542 126.709 10.4462C126.464 10.6382 126.341 10.8889 126.341 11.1982H124.869C124.869 10.5049 125.125 9.9449 125.637 9.51823C126.16 9.09157 126.843 8.87823 127.685 8.87823H128.997C129.84 8.87823 130.517 9.11823 131.029 9.59823C131.541 10.0676 131.797 10.6916 131.797 11.4702V16.9902H130.405V15.9182C130.16 16.2809 129.84 16.5742 129.445 16.7982C129.051 17.0116 128.651 17.1182 128.245 17.1182H127.285ZM128.325 15.8862C128.795 15.8862 129.211 15.7529 129.573 15.4862C129.936 15.2089 130.187 14.8409 130.325 14.3822V13.9022C130.123 13.7209 129.845 13.5769 129.493 13.4702C129.141 13.3636 128.779 13.3102 128.405 13.3102H127.381C127.008 13.3102 126.704 13.4062 126.469 13.5982C126.235 13.7902 126.117 14.0462 126.117 14.3662V14.8462C126.117 15.1662 126.229 15.4222 126.453 15.6142C126.688 15.7956 126.997 15.8862 127.381 15.8862H128.325ZM133.948 9.00623H135.372V10.1742C135.585 9.82223 135.895 9.53423 136.3 9.31023C136.716 9.08623 137.148 8.97423 137.596 8.97423H138.428V10.3022H137.596C136.945 10.3022 136.423 10.5049 136.028 10.9102C135.633 11.3049 135.436 11.8276 135.436 12.4782V16.9902H133.948V9.00623ZM141.91 17.1182C141.11 17.1182 140.47 16.9156 139.99 16.5102C139.51 16.0942 139.27 15.5449 139.27 14.8622V14.3342C139.27 13.6622 139.521 13.1236 140.022 12.7182C140.524 12.3022 141.18 12.0942 141.99 12.0942H142.998C143.318 12.0942 143.66 12.1422 144.022 12.2382C144.385 12.3342 144.694 12.4676 144.95 12.6382V11.4702C144.95 11.0756 144.828 10.7609 144.582 10.5262C144.337 10.2809 144.017 10.1582 143.622 10.1582H142.31C141.905 10.1582 141.58 10.2542 141.334 10.4462C141.089 10.6382 140.966 10.8889 140.966 11.1982H139.494C139.494 10.5049 139.75 9.9449 140.262 9.51823C140.785 9.09157 141.468 8.87823 142.31 8.87823H143.622C144.465 8.87823 145.142 9.11823 145.654 9.59823C146.166 10.0676 146.422 10.6916 146.422 11.4702V16.9902H145.03V15.9182C144.785 16.2809 144.465 16.5742 144.07 16.7982C143.676 17.0116 143.276 17.1182 142.87 17.1182H141.91ZM142.95 15.8862C143.42 15.8862 143.836 15.7529 144.198 15.4862C144.561 15.2089 144.812 14.8409 144.95 14.3822V13.9022C144.748 13.7209 144.47 13.5769 144.118 13.4702C143.766 13.3636 143.404 13.3102 143.03 13.3102H142.006C141.633 13.3102 141.329 13.4062 141.094 13.5982C140.86 13.7902 140.742 14.0462 140.742 14.3662V14.8462C140.742 15.1662 140.854 15.4222 141.078 15.6142C141.313 15.7956 141.622 15.8862 142.006 15.8862H142.95ZM148.573 9.00623H149.997V10.1102C150.232 9.74757 150.541 9.45423 150.925 9.23023C151.32 8.99557 151.709 8.87823 152.093 8.87823H153.149C153.917 8.87823 154.536 9.13423 155.005 9.64623C155.485 10.1582 155.725 10.8302 155.725 11.6622V16.9902H154.237V11.6622C154.237 11.2249 154.125 10.8729 153.901 10.6062C153.677 10.3289 153.384 10.1902 153.021 10.1902H152.029C151.57 10.1902 151.154 10.3662 150.781 10.7182C150.408 11.0702 150.168 11.5289 150.061 12.0942V16.9902H148.573V9.00623Z" fill="#333333"/>
<path d="M53.892 39.9902C53.812 39.9902 53.748 39.9662 53.7 39.9182C53.652 39.8702 53.628 39.8062 53.628 39.7262V31.8662C53.628 31.7782 53.652 31.7102 53.7 31.6622C53.748 31.6142 53.812 31.5902 53.892 31.5902H58.524C58.612 31.5902 58.68 31.6142 58.728 31.6622C58.776 31.7102 58.8 31.7782 58.8 31.8662V32.0462C58.8 32.1262 58.776 32.1902 58.728 32.2382C58.68 32.2862 58.612 32.3102 58.524 32.3102H54.384V35.5382H58.284C58.372 35.5382 58.44 35.5622 58.488 35.6102C58.536 35.6582 58.56 35.7262 58.56 35.8142V35.9942C58.56 36.0742 58.536 36.1382 58.488 36.1862C58.44 36.2342 58.372 36.2582 58.284 36.2582H54.384V39.7262C54.384 39.8062 54.36 39.8702 54.312 39.9182C54.264 39.9662 54.196 39.9902 54.108 39.9902H53.892ZM62.5511 40.1102C61.9751 40.1102 61.4911 39.9902 61.0991 39.7502C60.7151 39.5102 60.4191 39.1822 60.2111 38.7662C60.0111 38.3502 59.9031 37.8862 59.8871 37.3742C59.8791 37.2542 59.8751 37.0862 59.8751 36.8702C59.8751 36.6542 59.8791 36.4862 59.8871 36.3662C59.9031 35.8462 60.0111 35.3822 60.2111 34.9742C60.4191 34.5582 60.7151 34.2302 61.0991 33.9902C61.4911 33.7502 61.9751 33.6302 62.5511 33.6302C63.1271 33.6302 63.6071 33.7502 63.9911 33.9902C64.3831 34.2302 64.6791 34.5582 64.8791 34.9742C65.0871 35.3822 65.1991 35.8462 65.2151 36.3662C65.2231 36.4862 65.2271 36.6542 65.2271 36.8702C65.2271 37.0862 65.2231 37.2542 65.2151 37.3742C65.1991 37.8862 65.0871 38.3502 64.8791 38.7662C64.6791 39.1822 64.3831 39.5102 63.9911 39.7502C63.6071 39.9902 63.1271 40.1102 62.5511 40.1102ZM62.5511 39.4142C63.1111 39.4142 63.5671 39.2342 63.9191 38.8742C64.2711 38.5142 64.4591 37.9942 64.4831 37.3142C64.4911 37.1942 64.4951 37.0462 64.4951 36.8702C64.4951 36.6942 64.4911 36.5462 64.4831 36.4262C64.4591 35.7382 64.2711 35.2182 63.9191 34.8662C63.5671 34.5062 63.1111 34.3262 62.5511 34.3262C61.9911 34.3262 61.5351 34.5062 61.1831 34.8662C60.8311 35.2182 60.6431 35.7382 60.6191 36.4262C60.6111 36.5462 60.6071 36.6942 60.6071 36.8702C60.6071 37.0462 60.6111 37.1942 60.6191 37.3142C60.6431 37.9942 60.8311 38.5142 61.1831 38.8742C61.5351 39.2342 61.9911 39.4142 62.5511 39.4142ZM69.2065 40.1102C68.6625 40.1102 68.2105 39.9942 67.8505 39.7622C67.4985 39.5222 67.2345 39.1982 67.0585 38.7902C66.8905 38.3822 66.8065 37.9262 66.8065 37.4222V34.0142C66.8065 33.9342 66.8305 33.8702 66.8785 33.8222C66.9265 33.7742 66.9905 33.7502 67.0705 33.7502H67.2745C67.3545 33.7502 67.4185 33.7742 67.4665 33.8222C67.5145 33.8702 67.5385 33.9342 67.5385 34.0142V37.3622C67.5385 38.7302 68.1345 39.4142 69.3265 39.4142C69.8945 39.4142 70.3505 39.2342 70.6945 38.8742C71.0385 38.5062 71.2105 38.0022 71.2105 37.3622V34.0142C71.2105 33.9342 71.2345 33.8702 71.2825 33.8222C71.3305 33.7742 71.3945 33.7502 71.4745 33.7502H71.6785C71.7585 33.7502 71.8225 33.7742 71.8705 33.8222C71.9185 33.8702 71.9425 33.9342 71.9425 34.0142V39.7262C71.9425 39.8062 71.9185 39.8702 71.8705 39.9182C71.8225 39.9662 71.7585 39.9902 71.6785 39.9902H71.4745C71.3945 39.9902 71.3305 39.9662 71.2825 39.9182C71.2345 39.8702 71.2105 39.8062 71.2105 39.7262V39.1622C70.9945 39.4422 70.7345 39.6702 70.4305 39.8462C70.1345 40.0222 69.7265 40.1102 69.2065 40.1102ZM74.1501 39.9902C74.0701 39.9902 74.0061 39.9662 73.9581 39.9182C73.9101 39.8702 73.8861 39.8062 73.8861 39.7262V34.0142C73.8861 33.9342 73.9101 33.8702 73.9581 33.8222C74.0061 33.7742 74.0701 33.7502 74.1501 33.7502H74.3541C74.4341 33.7502 74.4981 33.7742 74.5461 33.8222C74.5941 33.8702 74.6181 33.9342 74.6181 34.0142V34.5782C74.8341 34.2982 75.0941 34.0702 75.3981 33.8942C75.7101 33.7182 76.1221 33.6302 76.6341 33.6302C77.1781 33.6302 77.6301 33.7502 77.9901 33.9902C78.3581 34.2222 78.6301 34.5422 78.8061 34.9502C78.9901 35.3502 79.0821 35.8062 79.0821 36.3182V39.7262C79.0821 39.8062 79.0581 39.8702 79.0101 39.9182C78.9621 39.9662 78.8981 39.9902 78.8181 39.9902H78.6141C78.5341 39.9902 78.4701 39.9662 78.4221 39.9182C78.3741 39.8702 78.3501 39.8062 78.3501 39.7262V36.3782C78.3501 35.7382 78.1941 35.2382 77.8821 34.8782C77.5701 34.5102 77.1141 34.3262 76.5141 34.3262C75.9461 34.3262 75.4861 34.5102 75.1341 34.8782C74.7901 35.2382 74.6181 35.7382 74.6181 36.3782V39.7262C74.6181 39.8062 74.5941 39.8702 74.5461 39.9182C74.4981 39.9662 74.4341 39.9902 74.3541 39.9902H74.1501ZM83.2202 40.1102C82.7562 40.1102 82.3602 40.0262 82.0322 39.8582C81.7122 39.6902 81.4522 39.4662 81.2522 39.1862C81.0522 38.9062 80.9042 38.5942 80.8082 38.2502C80.7202 37.9062 80.6682 37.5582 80.6522 37.2062C80.6442 37.0862 80.6402 36.9742 80.6402 36.8702C80.6402 36.7662 80.6442 36.6542 80.6522 36.5342C80.6682 36.1822 80.7202 35.8342 80.8082 35.4902C80.9042 35.1462 81.0522 34.8342 81.2522 34.5542C81.4522 34.2742 81.7122 34.0502 82.0322 33.8822C82.3602 33.7142 82.7562 33.6302 83.2202 33.6302C83.7162 33.6302 84.1242 33.7222 84.4442 33.9062C84.7722 34.0902 85.0362 34.3142 85.2362 34.5782V31.7342C85.2362 31.6542 85.2602 31.5902 85.3082 31.5422C85.3562 31.4942 85.4202 31.4702 85.5002 31.4702H85.7042C85.7842 31.4702 85.8482 31.4942 85.8962 31.5422C85.9442 31.5902 85.9682 31.6542 85.9682 31.7342V39.7262C85.9682 39.8062 85.9442 39.8702 85.8962 39.9182C85.8482 39.9662 85.7842 39.9902 85.7042 39.9902H85.5002C85.4202 39.9902 85.3562 39.9662 85.3082 39.9182C85.2602 39.8702 85.2362 39.8062 85.2362 39.7262V39.1622C85.0362 39.4342 84.7722 39.6622 84.4442 39.8462C84.1242 40.0222 83.7162 40.1102 83.2202 40.1102ZM83.2922 39.4142C83.7482 39.4142 84.1162 39.3062 84.3962 39.0902C84.6762 38.8742 84.8842 38.6062 85.0202 38.2862C85.1562 37.9582 85.2282 37.6302 85.2362 37.3022C85.2442 37.1822 85.2482 37.0262 85.2482 36.8342C85.2482 36.6422 85.2442 36.4862 85.2362 36.3662C85.2282 36.0462 85.1522 35.7302 85.0082 35.4182C84.8722 35.1062 84.6642 34.8462 84.3842 34.6382C84.1042 34.4302 83.7402 34.3262 83.2922 34.3262C82.8282 34.3262 82.4562 34.4302 82.1762 34.6382C81.9042 34.8462 81.7082 35.1182 81.5882 35.4542C81.4682 35.7902 81.4002 36.1502 81.3842 36.5342C81.3762 36.7582 81.3762 36.9822 81.3842 37.2062C81.4002 37.5902 81.4682 37.9502 81.5882 38.2862C81.7082 38.6222 81.9042 38.8942 82.1762 39.1022C82.4562 39.3102 82.8282 39.4142 83.2922 39.4142ZM90.2411 40.1102C89.4651 40.1102 88.8491 39.8582 88.3931 39.3542C87.9371 38.8422 87.6771 38.1742 87.6131 37.3502C87.6051 37.2302 87.6011 37.0702 87.6011 36.8702C87.6011 36.6702 87.6051 36.5102 87.6131 36.3902C87.6531 35.8462 87.7811 35.3662 87.9971 34.9502C88.2131 34.5342 88.5091 34.2102 88.8851 33.9782C89.2691 33.7462 89.7211 33.6302 90.2411 33.6302C90.8011 33.6302 91.2771 33.7542 91.6691 34.0022C92.0611 34.2502 92.3611 34.6062 92.5691 35.0702C92.7851 35.5342 92.8931 36.0862 92.8931 36.7262V36.9062C92.8931 36.9862 92.8651 37.0502 92.8091 37.0982C92.7611 37.1462 92.6971 37.1702 92.6171 37.1702H88.3451C88.3451 37.1702 88.3451 37.1862 88.3451 37.2182C88.3451 37.2502 88.3451 37.2742 88.3451 37.2902C88.3611 37.6502 88.4451 37.9942 88.5971 38.3222C88.7491 38.6422 88.9651 38.9062 89.2451 39.1142C89.5251 39.3142 89.8571 39.4142 90.2411 39.4142C90.5851 39.4142 90.8691 39.3622 91.0931 39.2582C91.3251 39.1542 91.5091 39.0422 91.6451 38.9222C91.7811 38.7942 91.8691 38.6982 91.9091 38.6342C91.9811 38.5302 92.0371 38.4702 92.0771 38.4542C92.1171 38.4302 92.1811 38.4182 92.2691 38.4182H92.4611C92.5331 38.4182 92.5931 38.4422 92.6411 38.4902C92.6971 38.5302 92.7211 38.5862 92.7131 38.6582C92.7051 38.7702 92.6411 38.9102 92.5211 39.0782C92.4091 39.2382 92.2451 39.3982 92.0291 39.5582C91.8211 39.7182 91.5651 39.8502 91.2611 39.9542C90.9571 40.0582 90.6171 40.1102 90.2411 40.1102ZM88.3451 36.4982H92.1611V36.4502C92.1611 36.0502 92.0851 35.6902 91.9331 35.3702C91.7811 35.0502 91.5611 34.7982 91.2731 34.6142C90.9851 34.4222 90.6411 34.3262 90.2411 34.3262C89.8411 34.3262 89.4971 34.4222 89.2091 34.6142C88.9291 34.7982 88.7131 35.0502 88.5611 35.3702C88.4171 35.6902 88.3451 36.0502 88.3451 36.4502V36.4982ZM94.7399 39.9902C94.6599 39.9902 94.5959 39.9662 94.5479 39.9182C94.4999 39.8702 94.4759 39.8062 94.4759 39.7262V34.0262C94.4759 33.9462 94.4999 33.8822 94.5479 33.8342C94.5959 33.7782 94.6599 33.7502 94.7399 33.7502H94.9319C95.0119 33.7502 95.0759 33.7782 95.1239 33.8342C95.1799 33.8822 95.2079 33.9462 95.2079 34.0262V34.5782C95.3519 34.2982 95.5599 34.0902 95.8319 33.9542C96.1039 33.8182 96.4399 33.7502 96.8399 33.7502H97.2839C97.3639 33.7502 97.4279 33.7742 97.4759 33.8222C97.5239 33.8702 97.5479 33.9342 97.5479 34.0142V34.1822C97.5479 34.2622 97.5239 34.3262 97.4759 34.3742C97.4279 34.4222 97.3639 34.4462 97.2839 34.4462H96.7679C96.2879 34.4462 95.9079 34.5862 95.6279 34.8662C95.3479 35.1462 95.2079 35.5262 95.2079 36.0062V39.7262C95.2079 39.8062 95.1799 39.8702 95.1239 39.9182C95.0759 39.9662 95.0119 39.9902 94.9319 39.9902H94.7399ZM103.129 40.1102C102.745 40.1102 102.389 40.0302 102.061 39.8702C101.741 39.7102 101.481 39.4982 101.281 39.2342C101.081 38.9622 100.981 38.6582 100.981 38.3222C100.981 37.7782 101.201 37.3422 101.641 37.0142C102.081 36.6862 102.653 36.4742 103.357 36.3782L105.253 36.1142V35.6942C105.253 35.2702 105.121 34.9382 104.857 34.6982C104.601 34.4502 104.189 34.3262 103.621 34.3262C103.205 34.3262 102.869 34.4102 102.613 34.5782C102.357 34.7382 102.181 34.9502 102.085 35.2142C102.045 35.3342 101.969 35.3942 101.857 35.3942H101.665C101.569 35.3942 101.501 35.3702 101.461 35.3222C101.421 35.2662 101.401 35.2022 101.401 35.1302C101.401 35.0182 101.441 34.8782 101.521 34.7102C101.609 34.5422 101.741 34.3782 101.917 34.2182C102.093 34.0502 102.321 33.9102 102.601 33.7982C102.881 33.6862 103.221 33.6302 103.621 33.6302C104.093 33.6302 104.481 33.6942 104.785 33.8222C105.097 33.9502 105.337 34.1182 105.505 34.3262C105.681 34.5262 105.805 34.7502 105.877 34.9982C105.949 35.2462 105.985 35.4902 105.985 35.7302V39.7262C105.985 39.8062 105.961 39.8702 105.913 39.9182C105.865 39.9662 105.801 39.9902 105.721 39.9902H105.517C105.437 39.9902 105.373 39.9662 105.325 39.9182C105.277 39.8702 105.253 39.8062 105.253 39.7262V39.1622C105.157 39.3062 105.021 39.4502 104.845 39.5942C104.669 39.7382 104.441 39.8622 104.161 39.9662C103.889 40.0622 103.545 40.1102 103.129 40.1102ZM103.249 39.4142C103.617 39.4142 103.953 39.3342 104.257 39.1742C104.561 39.0142 104.801 38.7702 104.977 38.4422C105.161 38.1062 105.253 37.6862 105.253 37.1822V36.7742L103.705 36.9902C103.049 37.0782 102.553 37.2302 102.217 37.4462C101.881 37.6622 101.713 37.9342 101.713 38.2622C101.713 38.5262 101.789 38.7422 101.941 38.9102C102.093 39.0782 102.285 39.2062 102.517 39.2942C102.757 39.3742 103.001 39.4142 103.249 39.4142ZM108.146 39.9902C108.066 39.9902 108.002 39.9662 107.954 39.9182C107.906 39.8702 107.882 39.8062 107.882 39.7262V34.0142C107.882 33.9342 107.906 33.8702 107.954 33.8222C108.002 33.7742 108.066 33.7502 108.146 33.7502H108.35C108.43 33.7502 108.494 33.7742 108.542 33.8222C108.59 33.8702 108.614 33.9342 108.614 34.0142V34.5782C108.83 34.2982 109.09 34.0702 109.394 33.8942C109.706 33.7182 110.118 33.6302 110.63 33.6302C111.174 33.6302 111.626 33.7502 111.986 33.9902C112.354 34.2222 112.626 34.5422 112.802 34.9502C112.986 35.3502 113.078 35.8062 113.078 36.3182V39.7262C113.078 39.8062 113.054 39.8702 113.006 39.9182C112.958 39.9662 112.894 39.9902 112.814 39.9902H112.61C112.53 39.9902 112.466 39.9662 112.418 39.9182C112.37 39.8702 112.346 39.8062 112.346 39.7262V36.3782C112.346 35.7382 112.19 35.2382 111.878 34.8782C111.566 34.5102 111.11 34.3262 110.51 34.3262C109.942 34.3262 109.482 34.5102 109.13 34.8782C108.786 35.2382 108.614 35.7382 108.614 36.3782V39.7262C108.614 39.8062 108.59 39.8702 108.542 39.9182C108.494 39.9662 108.43 39.9902 108.35 39.9902H108.146ZM117.216 40.1102C116.752 40.1102 116.356 40.0262 116.028 39.8582C115.708 39.6902 115.448 39.4662 115.248 39.1862C115.048 38.9062 114.9 38.5942 114.804 38.2502C114.716 37.9062 114.664 37.5582 114.648 37.2062C114.64 37.0862 114.636 36.9742 114.636 36.8702C114.636 36.7662 114.64 36.6542 114.648 36.5342C114.664 36.1822 114.716 35.8342 114.804 35.4902C114.9 35.1462 115.048 34.8342 115.248 34.5542C115.448 34.2742 115.708 34.0502 116.028 33.8822C116.356 33.7142 116.752 33.6302 117.216 33.6302C117.712 33.6302 118.12 33.7222 118.44 33.9062C118.768 34.0902 119.032 34.3142 119.232 34.5782V31.7342C119.232 31.6542 119.256 31.5902 119.304 31.5422C119.352 31.4942 119.416 31.4702 119.496 31.4702H119.7C119.78 31.4702 119.844 31.4942 119.892 31.5422C119.94 31.5902 119.964 31.6542 119.964 31.7342V39.7262C119.964 39.8062 119.94 39.8702 119.892 39.9182C119.844 39.9662 119.78 39.9902 119.7 39.9902H119.496C119.416 39.9902 119.352 39.9662 119.304 39.9182C119.256 39.8702 119.232 39.8062 119.232 39.7262V39.1622C119.032 39.4342 118.768 39.6622 118.44 39.8462C118.12 40.0222 117.712 40.1102 117.216 40.1102ZM117.288 39.4142C117.744 39.4142 118.112 39.3062 118.392 39.0902C118.672 38.8742 118.88 38.6062 119.016 38.2862C119.152 37.9582 119.224 37.6302 119.232 37.3022C119.24 37.1822 119.244 37.0262 119.244 36.8342C119.244 36.6422 119.24 36.4862 119.232 36.3662C119.224 36.0462 119.148 35.7302 119.004 35.4182C118.868 35.1062 118.66 34.8462 118.38 34.6382C118.1 34.4302 117.736 34.3262 117.288 34.3262C116.824 34.3262 116.452 34.4302 116.172 34.6382C115.9 34.8462 115.704 35.1182 115.584 35.4542C115.464 35.7902 115.396 36.1502 115.38 36.5342C115.372 36.7582 115.372 36.9822 115.38 37.2062C115.396 37.5902 115.464 37.9502 115.584 38.2862C115.704 38.6222 115.9 38.8942 116.172 39.1022C116.452 39.3102 116.824 39.4142 117.288 39.4142ZM128.015 40.1102C127.287 40.1102 126.691 39.9702 126.227 39.6902C125.771 39.4022 125.431 39.0142 125.207 38.5262C124.983 38.0382 124.859 37.4822 124.835 36.8582C124.827 36.5302 124.823 36.1782 124.823 35.8022C124.823 35.4262 124.827 35.0662 124.835 34.7222C124.859 34.0982 124.983 33.5422 125.207 33.0542C125.431 32.5582 125.771 32.1702 126.227 31.8902C126.691 31.6102 127.287 31.4702 128.015 31.4702C128.583 31.4702 129.067 31.5502 129.467 31.7102C129.867 31.8702 130.191 32.0822 130.439 32.3462C130.695 32.6022 130.883 32.8822 131.003 33.1862C131.131 33.4822 131.203 33.7742 131.219 34.0622C131.227 34.1342 131.203 34.1942 131.147 34.2422C131.099 34.2822 131.039 34.3022 130.967 34.3022H130.727C130.663 34.3022 130.607 34.2862 130.559 34.2542C130.511 34.2142 130.479 34.1462 130.463 34.0502C130.311 33.3382 130.023 32.8502 129.599 32.5862C129.183 32.3222 128.655 32.1902 128.015 32.1902C127.287 32.1902 126.707 32.3982 126.275 32.8142C125.851 33.2222 125.623 33.8782 125.591 34.7822C125.567 35.4382 125.567 36.1102 125.591 36.7982C125.623 37.7022 125.851 38.3622 126.275 38.7782C126.707 39.1862 127.287 39.3902 128.015 39.3902C128.655 39.3902 129.183 39.2582 129.599 38.9942C130.023 38.7302 130.311 38.2422 130.463 37.5302C130.479 37.4342 130.511 37.3702 130.559 37.3382C130.607 37.2982 130.663 37.2782 130.727 37.2782H130.967C131.039 37.2782 131.099 37.3022 131.147 37.3502C131.203 37.3902 131.227 37.4462 131.219 37.5182C131.203 37.8062 131.131 38.1022 131.003 38.4062C130.883 38.7022 130.695 38.9822 130.439 39.2462C130.191 39.5022 129.867 39.7102 129.467 39.8702C129.067 40.0302 128.583 40.1102 128.015 40.1102ZM133.251 39.9902C133.171 39.9902 133.107 39.9662 133.059 39.9182C133.011 39.8702 132.987 39.8062 132.987 39.7262V31.8662C132.987 31.7782 133.011 31.7102 133.059 31.6622C133.107 31.6142 133.171 31.5902 133.251 31.5902H137.931C138.019 31.5902 138.087 31.6142 138.135 31.6622C138.183 31.7102 138.207 31.7782 138.207 31.8662V32.0462C138.207 32.1262 138.183 32.1902 138.135 32.2382C138.087 32.2862 138.019 32.3102 137.931 32.3102H133.743V35.3702H137.667C137.755 35.3702 137.823 35.3942 137.871 35.4422C137.919 35.4902 137.943 35.5582 137.943 35.6462V35.8262C137.943 35.9062 137.919 35.9702 137.871 36.0182C137.823 36.0662 137.755 36.0902 137.667 36.0902H133.743V39.2702H138.027C138.115 39.2702 138.183 39.2942 138.231 39.3422C138.279 39.3902 138.303 39.4582 138.303 39.5462V39.7262C138.303 39.8062 138.279 39.8702 138.231 39.9182C138.183 39.9662 138.115 39.9902 138.027 39.9902H133.251ZM142.851 40.1102C142.187 40.1102 141.623 39.9942 141.159 39.7622C140.695 39.5222 140.339 39.1582 140.091 38.6702C139.843 38.1742 139.707 37.5502 139.683 36.7982C139.675 36.4382 139.671 36.1022 139.671 35.7902C139.671 35.4782 139.675 35.1422 139.683 34.7822C139.707 34.0382 139.851 33.4222 140.115 32.9342C140.379 32.4382 140.743 32.0702 141.207 31.8302C141.679 31.5902 142.227 31.4702 142.851 31.4702C143.475 31.4702 144.019 31.5902 144.483 31.8302C144.955 32.0702 145.323 32.4382 145.587 32.9342C145.859 33.4222 146.003 34.0382 146.019 34.7822C146.035 35.1422 146.043 35.4782 146.043 35.7902C146.043 36.1022 146.035 36.4382 146.019 36.7982C146.003 37.5502 145.867 38.1742 145.611 38.6702C145.363 39.1582 145.007 39.5222 144.543 39.7622C144.079 39.9942 143.515 40.1102 142.851 40.1102ZM142.851 39.3902C143.539 39.3902 144.103 39.1822 144.543 38.7662C144.991 38.3502 145.231 37.6742 145.263 36.7382C145.279 36.3782 145.287 36.0622 145.287 35.7902C145.287 35.5182 145.279 35.2022 145.263 34.8422C145.247 34.2182 145.131 33.7102 144.915 33.3182C144.707 32.9262 144.423 32.6422 144.063 32.4662C143.711 32.2822 143.307 32.1902 142.851 32.1902C142.403 32.1902 141.999 32.2822 141.639 32.4662C141.287 32.6422 141.003 32.9262 140.787 33.3182C140.579 33.7102 140.463 34.2182 140.439 34.8422C140.431 35.2022 140.427 35.5182 140.427 35.7902C140.427 36.0622 140.431 36.3782 140.439 36.7382C140.471 37.6742 140.711 38.3502 141.159 38.7662C141.607 39.1822 142.171 39.3902 142.851 39.3902ZM147.466 40.8902C147.402 40.8902 147.354 40.8662 147.322 40.8182C147.298 40.7702 147.29 40.7102 147.298 40.6382L147.526 39.1982C147.542 39.1022 147.57 39.0262 147.61 38.9702C147.658 38.9062 147.73 38.8742 147.826 38.8742H148.366C148.422 38.8742 148.466 38.8942 148.498 38.9342C148.53 38.9742 148.546 39.0182 148.546 39.0662C148.546 39.1382 148.53 39.2102 148.498 39.2822L147.982 40.6382C147.95 40.7182 147.91 40.7782 147.862 40.8182C147.822 40.8662 147.758 40.8902 147.67 40.8902H147.466ZM155.443 39.9902C155.363 39.9902 155.299 39.9662 155.251 39.9182C155.203 39.8702 155.179 39.8062 155.179 39.7262V32.3102H152.803C152.723 32.3102 152.659 32.2862 152.611 32.2382C152.563 32.1902 152.539 32.1262 152.539 32.0462V31.8662C152.539 31.7782 152.563 31.7102 152.611 31.6622C152.659 31.6142 152.723 31.5902 152.803 31.5902H158.299C158.387 31.5902 158.455 31.6142 158.503 31.6622C158.551 31.7102 158.575 31.7782 158.575 31.8662V32.0462C158.575 32.1262 158.551 32.1902 158.503 32.2382C158.455 32.2862 158.387 32.3102 158.299 32.3102H155.935V39.7262C155.935 39.8062 155.911 39.8702 155.863 39.9182C155.815 39.9662 155.747 39.9902 155.659 39.9902H155.443ZM160.131 39.9902C160.051 39.9902 159.987 39.9662 159.939 39.9182C159.891 39.8702 159.867 39.8062 159.867 39.7262V34.0142C159.867 33.9342 159.891 33.8702 159.939 33.8222C159.987 33.7742 160.051 33.7502 160.131 33.7502H160.335C160.415 33.7502 160.479 33.7742 160.527 33.8222C160.575 33.8702 160.599 33.9342 160.599 34.0142V39.7262C160.599 39.8062 160.575 39.8702 160.527 39.9182C160.479 39.9662 160.415 39.9902 160.335 39.9902H160.131ZM159.999 32.4662C159.919 32.4662 159.855 32.4422 159.807 32.3942C159.759 32.3462 159.735 32.2822 159.735 32.2022V31.7462C159.735 31.6662 159.759 31.6022 159.807 31.5542C159.855 31.4982 159.919 31.4702 159.999 31.4702H160.455C160.535 31.4702 160.599 31.4982 160.647 31.5542C160.703 31.6022 160.731 31.6662 160.731 31.7462V32.2022C160.731 32.2822 160.703 32.3462 160.647 32.3942C160.599 32.4422 160.535 32.4662 160.455 32.4662H159.999ZM162.802 39.9902C162.722 39.9902 162.658 39.9662 162.61 39.9182C162.562 39.8702 162.538 39.8062 162.538 39.7262V34.0142C162.538 33.9342 162.562 33.8702 162.61 33.8222C162.658 33.7742 162.722 33.7502 162.802 33.7502H163.006C163.086 33.7502 163.15 33.7742 163.198 33.8222C163.246 33.8702 163.27 33.9342 163.27 34.0142V34.4342C163.47 34.1782 163.706 33.9822 163.978 33.8462C164.258 33.7022 164.594 33.6302 164.986 33.6302C165.882 33.6302 166.522 34.0062 166.906 34.7582C167.09 34.4142 167.358 34.1422 167.71 33.9422C168.07 33.7342 168.482 33.6302 168.946 33.6302C169.37 33.6302 169.75 33.7302 170.086 33.9302C170.43 34.1222 170.698 34.4102 170.89 34.7942C171.09 35.1782 171.19 35.6582 171.19 36.2342V39.7262C171.19 39.8062 171.166 39.8702 171.118 39.9182C171.07 39.9662 171.006 39.9902 170.926 39.9902H170.722C170.642 39.9902 170.578 39.9662 170.53 39.9182C170.482 39.8702 170.458 39.8062 170.458 39.7262V36.3542C170.458 35.8262 170.382 35.4182 170.23 35.1302C170.078 34.8342 169.878 34.6262 169.63 34.5062C169.382 34.3862 169.114 34.3262 168.826 34.3262C168.586 34.3262 168.342 34.3862 168.094 34.5062C167.846 34.6262 167.638 34.8342 167.47 35.1302C167.31 35.4182 167.23 35.8262 167.23 36.3542V39.7262C167.23 39.8062 167.206 39.8702 167.158 39.9182C167.11 39.9662 167.046 39.9902 166.966 39.9902H166.762C166.682 39.9902 166.618 39.9662 166.57 39.9182C166.522 39.8702 166.498 39.8062 166.498 39.7262V36.3542C166.498 35.8262 166.418 35.4182 166.258 35.1302C166.098 34.8342 165.894 34.6262 165.646 34.5062C165.398 34.3862 165.138 34.3262 164.866 34.3262C164.626 34.3262 164.382 34.3862 164.134 34.5062C163.886 34.6262 163.678 34.8342 163.51 35.1302C163.35 35.4182 163.27 35.8222 163.27 36.3422V39.7262C163.27 39.8062 163.246 39.8702 163.198 39.9182C163.15 39.9662 163.086 39.9902 163.006 39.9902H162.802ZM175.39 40.1102C174.614 40.1102 173.998 39.8582 173.542 39.3542C173.086 38.8422 172.826 38.1742 172.762 37.3502C172.754 37.2302 172.75 37.0702 172.75 36.8702C172.75 36.6702 172.754 36.5102 172.762 36.3902C172.802 35.8462 172.93 35.3662 173.146 34.9502C173.362 34.5342 173.658 34.2102 174.034 33.9782C174.418 33.7462 174.87 33.6302 175.39 33.6302C175.95 33.6302 176.426 33.7542 176.818 34.0022C177.21 34.2502 177.51 34.6062 177.718 35.0702C177.934 35.5342 178.042 36.0862 178.042 36.7262V36.9062C178.042 36.9862 178.014 37.0502 177.958 37.0982C177.91 37.1462 177.846 37.1702 177.766 37.1702H173.494C173.494 37.1702 173.494 37.1862 173.494 37.2182C173.494 37.2502 173.494 37.2742 173.494 37.2902C173.51 37.6502 173.594 37.9942 173.746 38.3222C173.898 38.6422 174.114 38.9062 174.394 39.1142C174.674 39.3142 175.006 39.4142 175.39 39.4142C175.734 39.4142 176.018 39.3622 176.242 39.2582C176.474 39.1542 176.658 39.0422 176.794 38.9222C176.93 38.7942 177.018 38.6982 177.058 38.6342C177.13 38.5302 177.186 38.4702 177.226 38.4542C177.266 38.4302 177.33 38.4182 177.418 38.4182H177.61C177.682 38.4182 177.742 38.4422 177.79 38.4902C177.846 38.5302 177.87 38.5862 177.862 38.6582C177.854 38.7702 177.79 38.9102 177.67 39.0782C177.558 39.2382 177.394 39.3982 177.178 39.5582C176.97 39.7182 176.714 39.8502 176.41 39.9542C176.106 40.0582 175.766 40.1102 175.39 40.1102ZM173.494 36.4982H177.31V36.4502C177.31 36.0502 177.234 35.6902 177.082 35.3702C176.93 35.0502 176.71 34.7982 176.422 34.6142C176.134 34.4222 175.79 34.3262 175.39 34.3262C174.99 34.3262 174.646 34.4222 174.358 34.6142C174.078 34.7982 173.862 35.0502 173.71 35.3702C173.566 35.6902 173.494 36.0502 173.494 36.4502V36.4982ZM181.988 40.1102C181.428 40.1102 180.952 40.0022 180.56 39.7862C180.168 39.5622 179.868 39.2422 179.66 38.8262C179.46 38.4102 179.352 37.9182 179.336 37.3502C179.328 37.2302 179.324 37.0702 179.324 36.8702C179.324 36.6702 179.328 36.5102 179.336 36.3902C179.352 35.8142 179.46 35.3222 179.66 34.9142C179.868 34.4982 180.168 34.1822 180.56 33.9662C180.952 33.7422 181.428 33.6302 181.988 33.6302C182.412 33.6302 182.776 33.6902 183.08 33.8102C183.392 33.9222 183.648 34.0742 183.848 34.2662C184.048 34.4502 184.2 34.6542 184.304 34.8782C184.408 35.1022 184.464 35.3222 184.472 35.5382C184.48 35.6182 184.456 35.6822 184.4 35.7302C184.344 35.7782 184.28 35.8022 184.208 35.8022H184.04C183.96 35.8022 183.9 35.7862 183.86 35.7542C183.828 35.7142 183.792 35.6462 183.752 35.5502C183.584 35.0942 183.352 34.7782 183.056 34.6022C182.768 34.4182 182.412 34.3262 181.988 34.3262C181.444 34.3262 180.992 34.4942 180.632 34.8302C180.28 35.1582 180.092 35.6982 180.068 36.4502C180.052 36.7302 180.052 37.0102 180.068 37.2902C180.092 38.0422 180.28 38.5862 180.632 38.9222C180.992 39.2502 181.444 39.4142 181.988 39.4142C182.412 39.4142 182.768 39.3262 183.056 39.1502C183.352 38.9662 183.584 38.6462 183.752 38.1902C183.792 38.0942 183.828 38.0302 183.86 37.9982C183.9 37.9582 183.96 37.9382 184.04 37.9382H184.208C184.28 37.9382 184.344 37.9622 184.4 38.0102C184.456 38.0582 184.48 38.1222 184.472 38.2022C184.464 38.3782 184.428 38.5542 184.364 38.7302C184.3 38.9062 184.2 39.0782 184.064 39.2462C183.936 39.4142 183.776 39.5622 183.584 39.6902C183.392 39.8182 183.16 39.9182 182.888 39.9902C182.624 40.0702 182.324 40.1102 181.988 40.1102ZM186.334 39.9902C186.254 39.9902 186.19 39.9662 186.142 39.9182C186.094 39.8702 186.07 39.8062 186.07 39.7262V31.7342C186.07 31.6542 186.094 31.5902 186.142 31.5422C186.19 31.4942 186.254 31.4702 186.334 31.4702H186.538C186.618 31.4702 186.682 31.4942 186.73 31.5422C186.778 31.5902 186.802 31.6542 186.802 31.7342V34.5782C187.018 34.2982 187.278 34.0702 187.582 33.8942C187.894 33.7182 188.306 33.6302 188.818 33.6302C189.362 33.6302 189.814 33.7502 190.174 33.9902C190.542 34.2222 190.814 34.5422 190.99 34.9502C191.174 35.3502 191.266 35.8062 191.266 36.3182V39.7262C191.266 39.8062 191.242 39.8702 191.194 39.9182C191.146 39.9662 191.082 39.9902 191.002 39.9902H190.798C190.718 39.9902 190.654 39.9662 190.606 39.9182C190.558 39.8702 190.534 39.8062 190.534 39.7262V36.3782C190.534 35.7382 190.378 35.2382 190.066 34.8782C189.754 34.5102 189.298 34.3262 188.698 34.3262C188.13 34.3262 187.67 34.5102 187.318 34.8782C186.974 35.2382 186.802 35.7382 186.802 36.3782V39.7262C186.802 39.8062 186.778 39.8702 186.73 39.9182C186.682 39.9662 186.618 39.9902 186.538 39.9902H186.334ZM194.828 40.1102C194.444 40.1102 194.088 40.0302 193.76 39.8702C193.44 39.7102 193.18 39.4982 192.98 39.2342C192.78 38.9622 192.68 38.6582 192.68 38.3222C192.68 37.7782 192.9 37.3422 193.34 37.0142C193.78 36.6862 194.352 36.4742 195.056 36.3782L196.952 36.1142V35.6942C196.952 35.2702 196.82 34.9382 196.556 34.6982C196.3 34.4502 195.888 34.3262 195.32 34.3262C194.904 34.3262 194.568 34.4102 194.312 34.5782C194.056 34.7382 193.88 34.9502 193.784 35.2142C193.744 35.3342 193.668 35.3942 193.556 35.3942H193.364C193.268 35.3942 193.2 35.3702 193.16 35.3222C193.12 35.2662 193.1 35.2022 193.1 35.1302C193.1 35.0182 193.14 34.8782 193.22 34.7102C193.308 34.5422 193.44 34.3782 193.616 34.2182C193.792 34.0502 194.02 33.9102 194.3 33.7982C194.58 33.6862 194.92 33.6302 195.32 33.6302C195.792 33.6302 196.18 33.6942 196.484 33.8222C196.796 33.9502 197.036 34.1182 197.204 34.3262C197.38 34.5262 197.504 34.7502 197.576 34.9982C197.648 35.2462 197.684 35.4902 197.684 35.7302V39.7262C197.684 39.8062 197.66 39.8702 197.612 39.9182C197.564 39.9662 197.5 39.9902 197.42 39.9902H197.216C197.136 39.9902 197.072 39.9662 197.024 39.9182C196.976 39.8702 196.952 39.8062 196.952 39.7262V39.1622C196.856 39.3062 196.72 39.4502 196.544 39.5942C196.368 39.7382 196.14 39.8622 195.86 39.9662C195.588 40.0622 195.244 40.1102 194.828 40.1102ZM194.948 39.4142C195.316 39.4142 195.652 39.3342 195.956 39.1742C196.26 39.0142 196.5 38.7702 196.676 38.4422C196.86 38.1062 196.952 37.6862 196.952 37.1822V36.7742L195.404 36.9902C194.748 37.0782 194.252 37.2302 193.916 37.4462C193.58 37.6622 193.412 37.9342 193.412 38.2622C193.412 38.5262 193.488 38.7422 193.64 38.9102C193.792 39.0782 193.984 39.2062 194.216 39.2942C194.456 39.3742 194.7 39.4142 194.948 39.4142ZM199.845 39.9902C199.765 39.9902 199.701 39.9662 199.653 39.9182C199.605 39.8702 199.581 39.8062 199.581 39.7262V34.0142C199.581 33.9342 199.605 33.8702 199.653 33.8222C199.701 33.7742 199.765 33.7502 199.845 33.7502H200.049C200.129 33.7502 200.193 33.7742 200.241 33.8222C200.289 33.8702 200.313 33.9342 200.313 34.0142V39.7262C200.313 39.8062 200.289 39.8702 200.241 39.9182C200.193 39.9662 200.129 39.9902 200.049 39.9902H199.845ZM199.713 32.4662C199.633 32.4662 199.569 32.4422 199.521 32.3942C199.473 32.3462 199.449 32.2822 199.449 32.2022V31.7462C199.449 31.6662 199.473 31.6022 199.521 31.5542C199.569 31.4982 199.633 31.4702 199.713 31.4702H200.169C200.249 31.4702 200.313 31.4982 200.361 31.5542C200.417 31.6022 200.445 31.6662 200.445 31.7462V32.2022C200.445 32.2822 200.417 32.3462 200.361 32.3942C200.313 32.4422 200.249 32.4662 200.169 32.4662H199.713ZM202.517 39.9902C202.437 39.9902 202.373 39.9662 202.325 39.9182C202.277 39.8702 202.253 39.8062 202.253 39.7262V34.0142C202.253 33.9342 202.277 33.8702 202.325 33.8222C202.373 33.7742 202.437 33.7502 202.517 33.7502H202.721C202.801 33.7502 202.865 33.7742 202.913 33.8222C202.961 33.8702 202.985 33.9342 202.985 34.0142V34.5782C203.201 34.2982 203.461 34.0702 203.765 33.8942C204.077 33.7182 204.489 33.6302 205.001 33.6302C205.545 33.6302 205.997 33.7502 206.357 33.9902C206.725 34.2222 206.997 34.5422 207.173 34.9502C207.357 35.3502 207.449 35.8062 207.449 36.3182V39.7262C207.449 39.8062 207.425 39.8702 207.377 39.9182C207.329 39.9662 207.265 39.9902 207.185 39.9902H206.981C206.901 39.9902 206.837 39.9662 206.789 39.9182C206.741 39.8702 206.717 39.8062 206.717 39.7262V36.3782C206.717 35.7382 206.561 35.2382 206.249 34.8782C205.937 34.5102 205.481 34.3262 204.881 34.3262C204.313 34.3262 203.853 34.5102 203.501 34.8782C203.157 35.2382 202.985 35.7382 202.985 36.3782V39.7262C202.985 39.8062 202.961 39.8702 202.913 39.9182C202.865 39.9662 202.801 39.9902 202.721 39.9902H202.517ZM212.845 39.9902C212.765 39.9902 212.701 39.9662 212.653 39.9182C212.605 39.8702 212.581 39.8062 212.581 39.7262V31.8542C212.581 31.7742 212.605 31.7102 212.653 31.6622C212.701 31.6142 212.765 31.5902 212.845 31.5902H213.073C213.153 31.5902 213.217 31.6142 213.265 31.6622C213.313 31.7102 213.337 31.7742 213.337 31.8542V39.2702H217.477C217.565 39.2702 217.633 39.2942 217.681 39.3422C217.729 39.3902 217.753 39.4582 217.753 39.5462V39.7262C217.753 39.8062 217.729 39.8702 217.681 39.9182C217.633 39.9662 217.565 39.9902 217.477 39.9902H212.845ZM220.679 40.1102C220.295 40.1102 219.939 40.0302 219.611 39.8702C219.291 39.7102 219.031 39.4982 218.831 39.2342C218.631 38.9622 218.531 38.6582 218.531 38.3222C218.531 37.7782 218.751 37.3422 219.191 37.0142C219.631 36.6862 220.203 36.4742 220.907 36.3782L222.803 36.1142V35.6942C222.803 35.2702 222.671 34.9382 222.407 34.6982C222.151 34.4502 221.739 34.3262 221.171 34.3262C220.755 34.3262 220.419 34.4102 220.163 34.5782C219.907 34.7382 219.731 34.9502 219.635 35.2142C219.595 35.3342 219.519 35.3942 219.407 35.3942H219.215C219.119 35.3942 219.051 35.3702 219.011 35.3222C218.971 35.2662 218.951 35.2022 218.951 35.1302C218.951 35.0182 218.991 34.8782 219.071 34.7102C219.159 34.5422 219.291 34.3782 219.467 34.2182C219.643 34.0502 219.871 33.9102 220.151 33.7982C220.431 33.6862 220.771 33.6302 221.171 33.6302C221.643 33.6302 222.031 33.6942 222.335 33.8222C222.647 33.9502 222.887 34.1182 223.055 34.3262C223.231 34.5262 223.355 34.7502 223.427 34.9982C223.499 35.2462 223.535 35.4902 223.535 35.7302V39.7262C223.535 39.8062 223.511 39.8702 223.463 39.9182C223.415 39.9662 223.351 39.9902 223.271 39.9902H223.067C222.987 39.9902 222.923 39.9662 222.875 39.9182C222.827 39.8702 222.803 39.8062 222.803 39.7262V39.1622C222.707 39.3062 222.571 39.4502 222.395 39.5942C222.219 39.7382 221.991 39.8622 221.711 39.9662C221.439 40.0622 221.095 40.1102 220.679 40.1102ZM220.799 39.4142C221.167 39.4142 221.503 39.3342 221.807 39.1742C222.111 39.0142 222.351 38.7702 222.527 38.4422C222.711 38.1062 222.803 37.6862 222.803 37.1822V36.7742L221.255 36.9902C220.599 37.0782 220.103 37.2302 219.767 37.4462C219.431 37.6622 219.263 37.9342 219.263 38.2622C219.263 38.5262 219.339 38.7422 219.491 38.9102C219.643 39.0782 219.835 39.2062 220.067 39.2942C220.307 39.3742 220.551 39.4142 220.799 39.4142ZM228.193 40.1102C227.697 40.1102 227.285 40.0222 226.957 39.8462C226.637 39.6622 226.377 39.4342 226.177 39.1622V39.7262C226.177 39.8062 226.153 39.8702 226.105 39.9182C226.057 39.9662 225.993 39.9902 225.913 39.9902H225.709C225.629 39.9902 225.565 39.9662 225.517 39.9182C225.469 39.8702 225.445 39.8062 225.445 39.7262V31.7342C225.445 31.6542 225.469 31.5902 225.517 31.5422C225.565 31.4942 225.629 31.4702 225.709 31.4702H225.913C225.993 31.4702 226.057 31.4942 226.105 31.5422C226.153 31.5902 226.177 31.6542 226.177 31.7342V34.5782C226.377 34.3142 226.637 34.0902 226.957 33.9062C227.285 33.7222 227.697 33.6302 228.193 33.6302C228.665 33.6302 229.061 33.7142 229.381 33.8822C229.701 34.0502 229.961 34.2742 230.161 34.5542C230.361 34.8342 230.509 35.1462 230.605 35.4902C230.701 35.8342 230.753 36.1822 230.761 36.5342C230.769 36.6542 230.773 36.7662 230.773 36.8702C230.773 36.9742 230.769 37.0862 230.761 37.2062C230.753 37.5582 230.701 37.9062 230.605 38.2502C230.509 38.5942 230.361 38.9062 230.161 39.1862C229.961 39.4662 229.701 39.6902 229.381 39.8582C229.061 40.0262 228.665 40.1102 228.193 40.1102ZM228.121 39.4142C228.593 39.4142 228.965 39.3102 229.237 39.1022C229.509 38.8942 229.705 38.6222 229.825 38.2862C229.945 37.9502 230.013 37.5902 230.029 37.2062C230.037 36.9822 230.037 36.7582 230.029 36.5342C230.013 36.1502 229.945 35.7902 229.825 35.4542C229.705 35.1182 229.509 34.8462 229.237 34.6382C228.965 34.4302 228.593 34.3262 228.121 34.3262C227.681 34.3262 227.317 34.4302 227.029 34.6382C226.749 34.8462 226.537 35.1062 226.393 35.4182C226.257 35.7302 226.185 36.0462 226.177 36.3662C226.169 36.4862 226.165 36.6422 226.165 36.8342C226.165 37.0262 226.169 37.1822 226.177 37.3022C226.193 37.6302 226.265 37.9582 226.393 38.2862C226.529 38.6062 226.737 38.8742 227.017 39.0902C227.297 39.3062 227.665 39.4142 228.121 39.4142ZM234.374 40.1102C233.958 40.1102 233.598 40.0542 233.294 39.9422C232.998 39.8302 232.754 39.6982 232.562 39.5462C232.37 39.3862 232.226 39.2302 232.13 39.0782C232.042 38.9262 231.994 38.8102 231.986 38.7302C231.978 38.6422 232.006 38.5782 232.07 38.5382C232.134 38.4902 232.194 38.4662 232.25 38.4662H232.43C232.478 38.4662 232.518 38.4742 232.55 38.4902C232.59 38.5062 232.638 38.5502 232.694 38.6222C232.798 38.7582 232.918 38.8902 233.054 39.0182C233.19 39.1382 233.362 39.2342 233.57 39.3062C233.786 39.3782 234.054 39.4142 234.374 39.4142C234.854 39.4142 235.25 39.3222 235.562 39.1382C235.874 38.9542 236.03 38.6822 236.03 38.3222C236.03 38.0982 235.966 37.9182 235.838 37.7822C235.718 37.6462 235.51 37.5262 235.214 37.4222C234.918 37.3182 234.518 37.2102 234.014 37.0982C233.51 36.9782 233.122 36.8342 232.85 36.6662C232.586 36.4982 232.406 36.3062 232.31 36.0902C232.214 35.8662 232.166 35.6262 232.166 35.3702C232.166 35.0902 232.246 34.8182 232.406 34.5542C232.566 34.2822 232.802 34.0622 233.114 33.8942C233.434 33.7182 233.834 33.6302 234.314 33.6302C234.706 33.6302 235.038 33.6822 235.31 33.7862C235.59 33.8902 235.818 34.0182 235.994 34.1702C236.17 34.3142 236.298 34.4582 236.378 34.6022C236.466 34.7462 236.514 34.8622 236.522 34.9502C236.53 35.0302 236.506 35.0942 236.45 35.1422C236.394 35.1902 236.33 35.2142 236.258 35.2142H236.078C236.014 35.2142 235.962 35.2022 235.922 35.1782C235.882 35.1462 235.846 35.1062 235.814 35.0582C235.734 34.9302 235.638 34.8102 235.526 34.6982C235.414 34.5862 235.262 34.4982 235.07 34.4342C234.886 34.3622 234.634 34.3262 234.314 34.3262C233.834 34.3262 233.478 34.4262 233.246 34.6262C233.014 34.8182 232.898 35.0662 232.898 35.3702C232.898 35.5462 232.946 35.7022 233.042 35.8382C233.138 35.9662 233.318 36.0862 233.582 36.1982C233.846 36.3022 234.23 36.4142 234.734 36.5342C235.246 36.6462 235.65 36.7862 235.946 36.9542C236.242 37.1142 236.45 37.3062 236.57 37.5302C236.698 37.7542 236.762 38.0182 236.762 38.3222C236.762 38.6422 236.67 38.9382 236.486 39.2102C236.31 39.4822 236.042 39.7022 235.682 39.8702C235.33 40.0302 234.894 40.1102 234.374 40.1102Z" fill="#5C5C5C"/>
</svg>
