<svg width="40" height="40" viewBox="0 0 40 40" fill="none" xmlns="http://www.w3.org/2000/svg">
<path d="M21.666 18.3236L29.9993 9.99023" stroke="white" stroke-width="2"/>
<path d="M31.6673 11.6571L28.334 8.32373L32.5007 5.82373L34.1673 7.4904L31.6673 11.6571Z" stroke="white" stroke-width="2" stroke-linejoin="round"/>
<path d="M6.70855 14.9483C5.0236 13.2634 4.58491 10.8042 5.39246 8.71603L7.76246 11.086H11.0958V7.7527L8.7258 5.3827C10.8139 4.57515 13.2732 5.01383 14.9581 6.69878C16.6437 8.38435 17.0822 10.8448 16.2733 12.9334L27.0568 23.7169C29.1455 22.9081 31.6058 23.3466 33.2915 25.0321C34.9763 26.7171 35.4152 29.1762 34.6075 31.2644L32.2375 28.8944H28.9042V32.2277L31.2742 34.5977C29.186 35.4054 26.7268 34.9666 25.0418 33.2817C23.3575 31.5974 22.9185 29.1394 23.7248 27.0517L12.9385 16.2653C10.8509 17.0717 8.39285 16.6327 6.70855 14.9483Z" stroke="white" stroke-width="2" stroke-linejoin="round"/>
<path d="M20.339 24.157L10.9989 33.4972C10.1192 34.3769 8.69298 34.3769 7.81328 33.4972L6.49375 32.1775C5.61406 31.2979 5.61406 29.8717 6.49375 28.992L15.8339 19.6519" stroke="white" stroke-width="2" stroke-linejoin="round"/>
</svg>
