<svg width="40" height="40" viewBox="0 0 40 40" fill="none" xmlns="http://www.w3.org/2000/svg">
<path d="M26.666 23.3232C26.666 24.7039 27.7853 25.8232 29.166 25.8232C30.5467 25.8232 31.666 24.7039 31.666 23.3232C31.666 21.9426 30.5467 20.8232 29.166 20.8232C27.7853 20.8232 26.666 21.9426 26.666 23.3232Z" stroke="white" stroke-width="2"/>
<path d="M6.66732 33.3234C4.82637 33.3234 3.33398 31.8311 3.33398 29.9901C3.33398 28.1491 4.82637 26.6567 6.66732 26.6567C8.50827 26.6567 10.0007 28.8789 10.0007 29.9901C10.0007 31.1012 8.50827 33.3234 6.66732 33.3234Z" stroke="white" stroke-width="2"/>
<path d="M13.3333 33.3234C11.4924 33.3234 10 30.8234 10 29.9901C10 29.1567 11.4924 26.6567 13.3333 26.6567C15.1743 26.6567 16.6667 28.1491 16.6667 29.9901C16.6667 31.8311 15.1743 33.3234 13.3333 33.3234Z" stroke="white" stroke-width="2"/>
<path d="M21.6673 33.3234H26.6673C31.3813 33.3234 33.7383 33.3234 35.2028 31.8589C36.6673 30.3944 36.6673 28.0374 36.6673 23.3234V21.6567C36.6673 16.9427 36.6673 14.5857 35.2028 13.1212C34.134 12.0524 32.5897 11.7636 30.0007 11.6856M30.0007 11.6856C29.0423 11.6567 27.9408 11.6567 26.6673 11.6567H16.6673M30.0007 11.6856C30.0007 10.1054 30.0007 9.31524 29.7382 8.69354C29.4005 7.89357 28.7638 7.25697 27.9638 6.91922C27.3422 6.65674 26.552 6.65674 24.9718 6.65674H16.6673C10.3819 6.65674 7.23923 6.65674 5.2866 8.60935C3.33398 10.562 3.33398 12.038 3.33398 18.3234V21.6567" stroke="white" stroke-width="2" stroke-linecap="round"/>
</svg>
