<svg width="40" height="40" viewBox="0 0 40 40" fill="none" xmlns="http://www.w3.org/2000/svg">
<g clip-path="url(#clip0_468_8116)">
<path d="M9.88477 11.5503L12.0098 18.632M21.3548 27.9803L28.4398 30.1053" stroke="white" stroke-width="2" stroke-linecap="round" stroke-linejoin="round"/>
<path d="M19.4727 20.5192L29.071 10.9209" stroke="white" stroke-width="2" stroke-linecap="round" stroke-linejoin="round"/>
<path d="M6.66602 9.15723C6.66602 9.48553 6.73068 9.81062 6.85632 10.1139C6.98195 10.4172 7.1661 10.6928 7.39825 10.925C7.63039 11.1571 7.90599 11.3413 8.20931 11.4669C8.51262 11.5926 8.83771 11.6572 9.16602 11.6572C9.49432 11.6572 9.81941 11.5926 10.1227 11.4669C10.426 11.3413 10.7016 11.1571 10.9338 10.925C11.1659 10.6928 11.3501 10.4172 11.4757 10.1139C11.6014 9.81062 11.666 9.48553 11.666 9.15723C11.666 8.82892 11.6014 8.50383 11.4757 8.20052C11.3501 7.8972 11.1659 7.62161 10.9338 7.38946C10.7016 7.15731 10.426 6.97316 10.1227 6.84753C9.81941 6.72189 9.49432 6.65723 9.16602 6.65723C8.83771 6.65723 8.51262 6.72189 8.20931 6.84753C7.90599 6.97316 7.63039 7.15731 7.39825 7.38946C7.1661 7.62161 6.98195 7.8972 6.85632 8.20052C6.73068 8.50383 6.66602 8.82892 6.66602 9.15723Z" stroke="white" stroke-width="2" stroke-linecap="round" stroke-linejoin="round"/>
<path d="M28.334 9.15723C28.334 9.82027 28.5974 10.4562 29.0662 10.925C29.5351 11.3938 30.1709 11.6572 30.834 11.6572C31.497 11.6572 32.1329 11.3938 32.6017 10.925C33.0706 10.4562 33.334 9.82027 33.334 9.15723C33.334 8.49419 33.0706 7.8583 32.6017 7.38946C32.1329 6.92062 31.497 6.65723 30.834 6.65723C30.1709 6.65723 29.5351 6.92062 29.0662 7.38946C28.5974 7.8583 28.334 8.49419 28.334 9.15723Z" stroke="white" stroke-width="2" stroke-linecap="round" stroke-linejoin="round"/>
<path d="M28.334 30.8237C28.334 31.4868 28.5974 32.1227 29.0662 32.5915C29.5351 33.0603 30.1709 33.3237 30.834 33.3237C31.497 33.3237 32.1329 33.0603 32.6017 32.5915C33.0706 32.1227 33.334 31.4868 33.334 30.8237C33.334 30.1607 33.0706 29.5248 32.6017 29.056C32.1329 28.5871 31.497 28.3237 30.834 28.3237C30.1709 28.3237 29.5351 28.5871 29.0662 29.056C28.5974 29.5248 28.334 30.1607 28.334 30.8237Z" stroke="white" stroke-width="2" stroke-linecap="round" stroke-linejoin="round"/>
<path d="M6.66602 25.8237C6.66602 27.8129 7.45619 29.7205 8.86271 31.127C10.2692 32.5336 12.1769 33.3237 14.166 33.3237C16.1551 33.3237 18.0628 32.5336 19.4693 31.127C20.8758 29.7205 21.666 27.8129 21.666 25.8237C21.666 23.8346 20.8758 21.927 19.4693 20.5204C18.0628 19.1139 16.1551 18.3237 14.166 18.3237C12.1769 18.3237 10.2692 19.1139 8.86271 20.5204C7.45619 21.927 6.66602 23.8346 6.66602 25.8237Z" stroke="white" stroke-width="2" stroke-linecap="round" stroke-linejoin="round"/>
</g>
<defs>
<clipPath id="clip0_468_8116">
<rect width="40" height="40" fill="white" transform="translate(0 -0.00976562)"/>
</clipPath>
</defs>
</svg>
