<svg width="40" height="40" viewBox="0 0 40 40" fill="none" xmlns="http://www.w3.org/2000/svg">
<g clip-path="url(#clip0_468_8128)">
<path d="M5 21.6564C5 21.2144 5.17559 20.7905 5.48816 20.4779C5.80072 20.1653 6.22464 19.9897 6.66667 19.9897H13.3333C13.7754 19.9897 14.1993 20.1653 14.5118 20.4779C14.8244 20.7905 15 21.2144 15 21.6564V31.6564C15 32.0984 14.8244 32.5224 14.5118 32.8349C14.1993 33.1475 13.7754 33.3231 13.3333 33.3231H6.66667C6.22464 33.3231 5.80072 33.1475 5.48816 32.8349C5.17559 32.5224 5 32.0984 5 31.6564V21.6564Z" stroke="white" stroke-width="2" stroke-linecap="round" stroke-linejoin="round"/>
<path d="M15 14.9899C15 14.5479 15.1756 14.124 15.4882 13.8114C15.8007 13.4988 16.2246 13.3232 16.6667 13.3232H23.3333C23.7754 13.3232 24.1993 13.4988 24.5118 13.8114C24.8244 14.124 25 14.5479 25 14.9899V31.6566C25 32.0986 24.8244 32.5225 24.5118 32.8351C24.1993 33.1476 23.7754 33.3232 23.3333 33.3232H16.6667C16.2246 33.3232 15.8007 33.1476 15.4882 32.8351C15.1756 32.5225 15 32.0986 15 31.6566V14.9899Z" stroke="white" stroke-width="2" stroke-linecap="round" stroke-linejoin="round"/>
<path d="M25 8.32292C25 7.88089 25.1756 7.45697 25.4882 7.14441C25.8007 6.83185 26.2246 6.65625 26.6667 6.65625H33.3333C33.7754 6.65625 34.1993 6.83185 34.5118 7.14441C34.8244 7.45697 35 7.88089 35 8.32292V31.6562C35 32.0983 34.8244 32.5222 34.5118 32.8348C34.1993 33.1473 33.7754 33.3229 33.3333 33.3229H26.6667C26.2246 33.3229 25.8007 33.1473 25.4882 32.8348C25.1756 32.5222 25 32.0983 25 31.6562V8.32292Z" stroke="white" stroke-width="2" stroke-linecap="round" stroke-linejoin="round"/>
<path d="M6.66602 33.3232H29.9994" stroke="white" stroke-width="2" stroke-linecap="round" stroke-linejoin="round"/>
</g>
<defs>
<clipPath id="clip0_468_8128">
<rect width="40" height="40" fill="white" transform="translate(0 -0.00976562)"/>
</clipPath>
</defs>
</svg>
