<svg width="40" height="40" viewBox="0 0 40 40" fill="none" xmlns="http://www.w3.org/2000/svg">
<path d="M26.668 26.6566C27.6948 26.6566 28.5271 25.8037 28.5271 24.7517V22.6836C28.5271 22.1784 28.723 21.6939 29.0716 21.3367L29.729 20.6634C30.0921 20.2914 30.0921 19.6884 29.729 19.3164L29.0716 18.6431C28.723 18.2859 28.5271 17.8014 28.5271 17.2962V15.228C28.5271 14.176 27.6948 13.3232 26.668 13.3232" stroke="white" stroke-width="2" stroke-linecap="round" stroke-linejoin="round"/>
<path d="M13.3333 26.6566C12.3065 26.6566 11.4741 25.8037 11.4741 24.7517V22.6836C11.4741 22.1784 11.2783 21.6939 10.9296 21.3367L10.2723 20.6634C9.90925 20.2914 9.90925 19.6884 10.2723 19.3164L10.9296 18.6431C11.2783 18.2859 11.4741 17.8014 11.4741 17.2962V15.228C11.4741 14.176 12.3065 13.3232 13.3333 13.3232" stroke="white" stroke-width="2" stroke-linecap="round" stroke-linejoin="round"/>
<path d="M16.666 19.9902H16.681M23.3178 19.9902H23.3326" stroke="white" stroke-width="2" stroke-linecap="round" stroke-linejoin="round"/>
<path d="M20.0007 36.6566C29.2054 36.6566 36.6673 29.1947 36.6673 19.9899C36.6673 10.7852 29.2054 3.32324 20.0007 3.32324C10.7959 3.32324 3.33398 10.7852 3.33398 19.9899C3.33398 29.1947 10.7959 36.6566 20.0007 36.6566Z" stroke="white" stroke-width="2"/>
</svg>
