<svg width="159" height="40" viewBox="0 0 159 40" fill="none" xmlns="http://www.w3.org/2000/svg">
<path d="M51.4725 31.4975L53.4471 26.9115C55.5808 28.5039 58.4152 29.3319 61.2178 29.3319C63.2878 29.3319 64.5936 28.5357 64.5936 27.3255C64.5617 23.9497 52.205 26.593 52.1095 18.1216C52.0776 13.8222 55.8993 10.51 61.3133 10.51C64.5299 10.51 67.7464 11.3062 70.0394 13.1215L68.1923 17.8031C66.0904 16.4655 63.4789 15.5101 60.9948 15.5101C59.3069 15.5101 58.1923 16.3063 58.1923 17.3254C58.2241 20.6375 70.6764 18.8222 70.8037 26.9115C70.8037 31.3064 67.0776 34.3957 61.7273 34.3957C57.8101 34.3957 54.2114 33.4721 51.4725 31.4975ZM127.237 25.2554L132.683 28.2809C130.645 31.9434 126.759 34.3957 122.269 34.3957C115.676 34.3957 110.326 29.0453 110.326 22.4528C110.326 15.8604 115.676 10.51 122.269 10.51C126.727 10.51 130.645 12.9941 132.683 16.6248L127.237 19.6503C126.25 17.9305 124.403 16.7521 122.269 16.7521C119.116 16.7521 116.568 19.2999 116.568 22.4528C116.568 25.6057 119.116 28.1535 122.269 28.1535C124.403 28.1535 126.25 26.9752 127.237 25.2554ZM73.5426 0.605469H80.3579V33.9498H73.5426V0.605469ZM135.358 0.605469H142.173V20.1917L149.88 10.9878H158.224L148.702 22.0707L158.988 33.9498H150.262L142.173 23.9497V33.9498H135.358V0.605469ZM100.613 25.3191V19.6821C99.6254 18.026 97.5872 16.7521 95.2942 16.7521C92.1413 16.7521 89.5936 19.2999 89.5936 22.4528C89.5936 25.6057 92.1413 28.1535 95.2942 28.1535C97.5872 28.1535 99.6254 26.9433 100.613 25.3191ZM100.613 10.9878H107.428V33.9179H100.613V31.2109C99.498 33.0899 96.7273 34.3957 93.8292 34.3957C87.842 34.3957 83.1286 29.0453 83.1286 22.421C83.1286 15.7967 87.842 10.51 93.8292 10.51C96.7273 10.51 99.498 11.8158 100.613 13.6948V10.9878Z" fill="black"/>
<path d="M9.34112 25.2859C9.34112 27.6108 7.46214 29.4898 5.1373 29.4898C2.81245 29.4898 0.933472 27.6108 0.933472 25.2859C0.933472 22.961 2.81245 21.082 5.1373 21.082H9.34112V25.2859ZM11.443 25.2859C11.443 22.961 13.322 21.082 15.6469 21.082C17.9717 21.082 19.8507 22.961 19.8507 25.2859V35.7956C19.8507 38.1204 17.9717 39.9994 15.6469 39.9994C13.322 39.9994 11.443 38.1204 11.443 35.7956V25.2859Z" fill="#E01E5A"/>
<path d="M15.6455 8.40774C13.3207 8.40774 11.4417 6.52874 11.4417 4.20387C11.4417 1.879 13.3207 0 15.6455 0C17.9703 0 19.8493 1.879 19.8493 4.20387V8.40774H15.6455ZM15.6455 10.5415C17.9703 10.5415 19.8493 12.4205 19.8493 14.7454C19.8493 17.0703 17.9703 18.9493 15.6455 18.9493H5.10409C2.77925 18.9493 0.900269 17.0703 0.900269 14.7454C0.900269 12.4205 2.77925 10.5415 5.10409 10.5415H15.6455Z" fill="#36C5F0"/>
<path d="M32.4938 14.7454C32.4938 12.4205 34.3728 10.5415 36.6976 10.5415C39.0225 10.5415 40.9015 12.4205 40.9015 14.7454C40.9015 17.0703 39.0225 18.9493 36.6976 18.9493H32.4938V14.7454ZM30.3919 14.7454C30.3919 17.0703 28.5129 18.9493 26.1881 18.9493C23.8632 18.9493 21.9843 17.0703 21.9843 14.7454V4.20387C21.9843 1.879 23.8632 0 26.1881 0C28.5129 0 30.3919 1.879 30.3919 4.20387V14.7454Z" fill="#2EB67D"/>
<path d="M26.1881 31.5917C28.5129 31.5917 30.3919 33.4707 30.3919 35.7956C30.3919 38.1204 28.5129 39.9994 26.1881 39.9994C23.8632 39.9994 21.9843 38.1204 21.9843 35.7956V31.5917H26.1881ZM26.1881 29.4898C23.8632 29.4898 21.9843 27.6108 21.9843 25.2859C21.9843 22.961 23.8632 21.082 26.1881 21.082H36.7295C39.0543 21.082 40.9333 22.961 40.9333 25.2859C40.9333 27.6108 39.0543 29.4898 36.7295 29.4898H26.1881Z" fill="#ECB22E"/>
</svg>
