<svg width="152" height="42" viewBox="0 0 152 42" fill="none" xmlns="http://www.w3.org/2000/svg">
<path d="M42.3258 0H21.4852L16.9943 4.45637H4.49094V16.7376L0 21.194V41.9895H20.8406L25.3316 37.5331H37.819V25.2624L42.31 20.806L42.3258 0ZM35.6634 35.3888H6.67302V6.61902H35.6634V35.3888Z" fill="#00368C"/>
<path d="M54.0155 6.22056H49.4638V4.53238H60.5142V6.22056H55.9625V18.7718H54.0155V6.22056Z" fill="#00368C"/>
<path d="M62.3185 4.53238H64.2654V18.7718H62.3185V4.53238Z" fill="#00368C"/>
<path d="M67.1 4.53238H68.9043L73.8866 13.6653L78.7448 4.53238H80.5491V18.7718H78.6417V8.15253L74.8641 15.1517C74.7486 15.3861 74.593 15.599 74.4044 15.7808C74.2656 15.9013 74.0869 15.9666 73.9025 15.9643H73.3477L69.0232 8.15253V18.7718H67.1V4.53238Z" fill="#00368C"/>
<path d="M83.5871 18.3655C83.4432 18.2176 83.3317 18.0419 83.2594 17.8493C83.1871 17.6567 83.1557 17.4514 83.167 17.2461V4.53238H93.2347V6.22056H85.114V10.656H92.6191V12.3205H85.114V17.0836H93.2347V18.7718H84.7256C84.5182 18.7824 84.3107 18.7519 84.1152 18.6821C83.9197 18.6124 83.7402 18.5047 83.5871 18.3655Z" fill="#00368C"/>
<path d="M97.0255 18.2842C96.288 17.8499 95.6933 17.2125 95.3137 16.4493C94.8964 15.5909 94.6891 14.647 94.7087 13.6942V9.61791C94.6889 8.66308 94.9 7.71744 95.3243 6.86021C95.7114 6.09545 96.3133 5.45817 97.0572 5.02523C97.8468 4.5796 98.7434 4.35492 99.6514 4.37512H101.823C102.685 4.35951 103.537 4.56828 104.293 4.98067C104.999 5.3683 105.576 5.95116 105.955 6.65836C106.355 7.42455 106.556 8.27796 106.538 9.14082H104.631C104.668 8.33713 104.393 7.55007 103.862 6.94147C103.603 6.66491 103.287 6.44724 102.935 6.30336C102.583 6.15948 102.203 6.09279 101.823 6.10787H99.6514C99.2387 6.09324 98.8282 6.17312 98.4516 6.34132C98.075 6.50952 97.7425 6.76152 97.4799 7.07778C96.9252 7.72789 96.6487 8.58858 96.6504 9.65986V13.6444C96.6504 14.7174 96.9146 15.579 97.4429 16.2291C97.6937 16.5446 98.0155 16.7973 98.3825 16.9672C98.7496 17.137 99.1516 17.2191 99.5563 17.2069H101.77C102.168 17.2215 102.565 17.1455 102.929 16.9847C103.293 16.8238 103.615 16.5824 103.87 16.2789C104.422 15.5907 104.704 14.7273 104.663 13.8488H106.57C106.592 14.7709 106.392 15.6848 105.986 16.5148C105.612 17.2611 105.028 17.8832 104.304 18.3052C103.536 18.7359 102.665 18.9533 101.783 18.9344H99.5695C98.6778 18.9509 97.7983 18.7262 97.0255 18.2842Z" fill="#00368C"/>
<path d="M108.425 4.53238H110.372V10.7477H117.877V4.53238H119.845V18.7718H117.877V12.4647H110.372V18.7718H108.425V4.53238Z" fill="#00368C"/>
<path d="M130.689 15.0284H124.703L123.308 18.7718H121.279L126.827 4.53238H127.707C128.296 4.53238 128.713 4.84957 128.959 5.48919L134.105 18.7718H132.095L130.689 15.0284ZM125.276 13.4006H130.116L127.715 6.9729H127.696L125.276 13.4006Z" fill="#00368C"/>
<path d="M135.751 4.53238H137.7V18.7718H135.751V4.53238Z" fill="#00368C"/>
<path d="M140.54 4.53238H142.342L149.918 15.6602V4.53238H151.826V18.7718H150.05L142.434 7.68592V18.7718H140.54V4.53238Z" fill="#00368C"/>
<path d="M59.2831 33.5984H53.2467L51.8413 37.3706H49.794L55.3971 23.0159H56.2847C56.8765 23.0159 57.2992 23.3357 57.5448 23.9779L62.7332 37.3706H60.707L59.2831 33.5984ZM53.8253 31.9574H58.7046L56.2847 25.4774H56.2689L53.8253 31.9574Z" fill="#00368C"/>
<path d="M67.1159 36.8804C66.3703 36.4425 65.7706 35.7972 65.3908 35.0245C64.9693 34.1581 64.7602 33.205 64.7806 32.2432V28.1433C64.7597 27.1802 64.9726 26.2263 65.4014 25.362C65.789 24.5879 66.3959 23.9429 67.1476 23.5061C67.9432 23.0584 68.8458 22.832 69.7602 22.8507H71.9529C72.8214 22.834 73.6792 23.0427 74.4414 23.4563C75.153 23.8468 75.7349 24.4343 76.1162 25.1471C76.5207 25.9194 76.7233 26.7802 76.7053 27.6505H74.7848C74.8254 26.8377 74.547 26.0409 74.0081 25.4275C73.7478 25.1475 73.429 24.9271 73.0741 24.7818C72.7191 24.6365 72.3365 24.5697 71.9529 24.5861H69.7602C69.3451 24.5737 68.9327 24.6562 68.5549 24.8271C68.177 24.998 67.8437 25.2527 67.5808 25.5717C67.0243 26.2271 66.7451 27.0947 66.7434 28.1748V32.196C66.7434 33.276 67.0076 34.1437 67.5359 34.799C67.7882 35.1174 68.1123 35.3724 68.4822 35.5436C68.852 35.7148 69.2572 35.7974 69.6651 35.7847H71.8974C72.2979 35.7984 72.6964 35.7215 73.0625 35.5598C73.4287 35.3981 73.7529 35.1559 74.0108 34.8515C74.5645 34.1562 74.846 33.2856 74.8033 32.4005H76.7265C76.7447 33.3307 76.5392 34.2518 76.1268 35.0874C75.7523 35.8408 75.1624 36.4681 74.4308 36.8909C73.6572 37.3269 72.779 37.547 71.8895 37.5279H69.6572C68.7667 37.5439 67.8885 37.3201 67.1159 36.8804Z" fill="#00368C"/>
<path d="M87.9485 33.5984H81.9148L80.5094 37.3706H78.4594L84.0652 23.0159H84.9528C85.5446 23.0159 85.9646 23.3366 86.2129 23.9779L91.4039 37.3706H89.3777L87.9485 33.5984ZM82.4934 31.9574H87.37L84.9528 25.4774H84.9317L82.4934 31.9574Z" fill="#00368C"/>
<path d="M94.6162 36.962C94.4709 36.8134 94.358 36.6365 94.2848 36.4425C94.2116 36.2486 94.1797 36.0416 94.1909 35.8348V23.0162H100.494C101.449 22.9947 102.395 23.1986 103.255 23.6112C104.025 23.9818 104.669 24.57 105.104 25.302C105.548 26.0647 105.773 26.9329 105.756 27.8133V32.1622C105.756 33.8714 105.316 35.1672 104.436 36.0498C103.555 36.9323 102.27 37.3692 100.581 37.3605H95.7628C95.5545 37.3731 95.3459 37.3444 95.149 37.276C94.9521 37.2076 94.771 37.1008 94.6162 36.962ZM100.515 35.6277C101.591 35.6277 102.404 35.3341 102.954 34.7469C103.503 34.1597 103.779 33.2859 103.78 32.1255V27.8553C103.798 27.4374 103.724 27.0207 103.566 26.6333C103.407 26.2458 103.167 25.8964 102.861 25.6088C102.194 25.0225 101.323 24.7178 100.433 24.7594H96.159V35.6277H100.515Z" fill="#00368C"/>
<path d="M109.785 36.9617C109.64 36.8128 109.528 36.6359 109.455 36.4419C109.382 36.2479 109.351 36.0411 109.362 35.8345V23.0159H119.509V24.7172H111.32V29.1893H118.886V30.8696H111.325V35.6693H119.515V37.3706H110.932C110.723 37.3809 110.514 37.35 110.317 37.2798C110.12 37.2097 109.94 37.1015 109.785 36.9617Z" fill="#00368C"/>
<path d="M123.004 23.0159H124.822L129.841 32.2248L134.744 23.0159H136.562V37.3706H134.639V26.6649L130.837 33.7216C130.72 33.958 130.563 34.1726 130.372 34.356C130.232 34.4778 130.051 34.5441 129.865 34.5421H129.308L124.954 26.6649V37.3706H123.012L123.004 23.0159Z" fill="#00368C"/>
<path d="M144.685 31.8342L139.351 23.0159H141.481L145.676 30.0491L149.873 23.0159H151.987L146.669 31.8342V37.3706H144.685V31.8342Z" fill="#00368C"/>
<path d="M30.9426 16.6095C30.9426 16.6882 30.8501 16.7013 30.792 16.7301L25.7173 19.3987C24.2669 20.1642 22.8113 20.927 21.369 21.7134C21.1497 21.8314 21.0229 21.7134 20.8591 21.6557C20.3308 21.37 19.8024 21.0764 19.2741 20.8012C19.0891 20.7042 19.1235 20.6386 19.2344 20.5049C20.1397 19.4372 21.037 18.3624 21.9264 17.2806C22.0898 17.079 22.1684 16.8226 22.1459 16.5648C22.1234 16.307 22.0015 16.0678 21.8056 15.8971C21.6096 15.7264 21.3549 15.6373 21.0944 15.6484C20.8339 15.6595 20.5878 15.77 20.4074 15.9568C19.8262 16.6122 19.2714 17.2937 18.7087 17.9674C18.2579 18.5022 17.8088 19.0396 17.3615 19.5796C17.345 19.6064 17.323 19.6295 17.297 19.6474C17.271 19.6653 17.2415 19.6776 17.2104 19.6835C17.1793 19.6894 17.1473 19.6889 17.1164 19.6818C17.0856 19.6747 17.0566 19.6613 17.0312 19.6425C15.1961 18.6673 13.3575 17.6948 11.5153 16.7249C11.4651 16.696 11.3911 16.6803 11.3859 16.6148C11.3806 16.5492 11.4651 16.5152 11.5206 16.4837C12.6988 15.8651 13.8823 15.2569 15.0526 14.6251C16.5637 13.8073 18.1038 13.0523 19.599 12.203C20.0851 11.9408 20.5949 11.697 21.0889 11.4401C21.1999 11.3799 21.2633 11.4401 21.3531 11.4952L23.4665 12.6014L28.1582 15.0865L30.7999 16.4837C30.8581 16.5152 30.9452 16.5283 30.9426 16.6095Z" fill="#09E0CF"/>
<path d="M16.3787 27.7081C16.3787 27.9178 16.3444 27.9703 16.1436 27.8549C15.2824 27.3883 14.4133 26.9348 13.5415 26.4813C13.4819 26.4599 13.432 26.418 13.401 26.3631C13.3699 26.3083 13.3598 26.2441 13.3725 26.1825C13.5305 24.8054 13.8378 23.4493 14.2891 22.1377C14.4186 21.7576 14.5824 21.3696 14.7224 20.9712C14.7911 20.7824 14.8809 20.7745 15.0447 20.8637C15.4145 21.0681 15.7896 21.2639 16.17 21.4509C16.2392 21.475 16.2977 21.5221 16.3358 21.5843C16.3738 21.6464 16.389 21.7197 16.3787 21.7916C16.3787 22.7799 16.3787 23.7656 16.3787 24.7512C16.3787 25.7368 16.3787 26.7225 16.3787 27.7081Z" fill="#09E0CF"/>
<path d="M28.9613 26.2144C28.9824 26.3507 28.9084 26.4136 28.8054 26.4766L27.0777 27.394L23.7333 29.1504C23.6725 29.1818 23.617 29.2238 23.5589 29.2579C22.8483 29.6327 22.1324 30.0023 21.4244 30.3851C21.3549 30.4349 21.2721 30.463 21.1864 30.4658C21.1008 30.4686 21.0162 30.4459 20.9436 30.4008C20.1511 29.9709 19.3586 29.5698 18.566 29.1635C18.5124 29.1443 18.4664 29.1085 18.4349 29.0612C18.4035 29.0139 18.3883 28.9579 18.3917 28.9014C18.3917 26.8934 18.3917 24.8836 18.3917 22.8721C18.3917 22.61 18.5 22.6939 18.6294 22.762L20.4787 23.7424C20.5903 23.8205 20.7188 23.8716 20.8538 23.8919C21.2659 24.0518 21.612 23.8473 21.9554 23.6743C22.6502 23.3309 23.337 22.9586 24.0397 22.5943L27.2468 20.9061C27.5294 20.7567 27.5268 20.7619 27.643 21.0424C28.168 22.3399 28.554 23.6886 28.7948 25.0662C28.8688 25.4464 28.9031 25.8291 28.9613 26.2144Z" fill="#09E0CF"/>
</svg>
