<svg width="24" height="25" viewBox="0 0 24 25" fill="none" xmlns="http://www.w3.org/2000/svg">
<path d="M20.45 21.1344H16.894V15.5644C16.894 14.2364 16.87 12.5264 15.044 12.5264C13.192 12.5264 12.908 13.9744 12.908 15.4664V21.1344H9.352V9.68036H12.766V11.2464H12.814C13.51 10.0584 14.806 9.34636 16.182 9.39636C19.786 9.39636 20.452 11.7664 20.452 14.8524L20.45 21.1324V21.1344ZM5.34 8.11436C4.79375 8.11173 4.27059 7.89371 3.88414 7.50763C3.49769 7.12155 3.27915 6.59861 3.276 6.05236C3.276 4.92036 4.208 3.98836 5.34 3.98836C6.472 3.98836 7.402 4.92036 7.404 6.05236C7.404 7.18436 6.472 8.11436 5.34 8.11436ZM7.118 21.1344H3.558V9.68036H7.118V21.1344ZM22.22 0.684356H1.77C1.3063 0.681663 0.860275 0.862075 0.528846 1.18639C0.197418 1.5107 0.00736933 1.95271 0 2.41636V22.9524C0.00736933 23.416 0.197418 23.858 0.528846 24.1823C0.860275 24.5066 1.3063 24.687 1.77 24.6844H22.222C22.6868 24.6881 23.1342 24.5083 23.4672 24.184C23.8001 23.8597 23.9916 23.4171 24 22.9524V2.41436C23.9916 1.95001 23.8 1.50781 23.4669 1.18413C23.1339 0.860453 22.6864 0.68153 22.222 0.686356L22.22 0.684356Z" fill="#0060E7"/>
</svg>
