<svg width="124" height="38" viewBox="0 0 124 38" fill="none" xmlns="http://www.w3.org/2000/svg">
<path d="M4.368 15.1302C3.556 15.1302 2.87467 15.0089 2.324 14.7662C1.77333 14.5142 1.34867 14.1922 1.05 13.8002C0.760667 13.3989 0.606667 12.9742 0.588 12.5262C0.588 12.4516 0.616 12.3862 0.672 12.3302C0.737333 12.2649 0.812 12.2322 0.896 12.2322H1.61C1.722 12.2322 1.806 12.2602 1.862 12.3162C1.918 12.3722 1.95533 12.4376 1.974 12.5122C2.02067 12.7362 2.13267 12.9602 2.31 13.1842C2.49667 13.3989 2.75333 13.5809 3.08 13.7302C3.416 13.8702 3.84533 13.9402 4.368 13.9402C5.17067 13.9402 5.75867 13.8002 6.132 13.5202C6.51467 13.2309 6.706 12.8482 6.706 12.3722C6.706 12.0456 6.60333 11.7842 6.398 11.5882C6.202 11.3829 5.89867 11.2009 5.488 11.0422C5.07733 10.8836 4.54533 10.7109 3.892 10.5242C3.21067 10.3282 2.646 10.1136 2.198 9.88023C1.75 9.6469 1.414 9.35757 1.19 9.01223C0.975333 8.6669 0.868 8.22823 0.868 7.69623C0.868 7.19223 1.00333 6.74423 1.274 6.35223C1.54467 5.9509 1.932 5.63357 2.436 5.40023C2.94933 5.1669 3.57 5.05023 4.298 5.05023C4.87667 5.05023 5.38067 5.12957 5.81 5.28823C6.24867 5.43757 6.61267 5.6429 6.902 5.90423C7.19133 6.15623 7.41067 6.43157 7.56 6.73023C7.70933 7.01957 7.78867 7.30423 7.798 7.58423C7.798 7.64957 7.77467 7.7149 7.728 7.78023C7.68133 7.83623 7.60667 7.86423 7.504 7.86423H6.762C6.69667 7.86423 6.62667 7.84557 6.552 7.80823C6.48667 7.7709 6.43533 7.7009 6.398 7.59823C6.342 7.21557 6.12733 6.89357 5.754 6.63223C5.38067 6.3709 4.89533 6.24023 4.298 6.24023C3.69133 6.24023 3.19667 6.3569 2.814 6.59023C2.44067 6.82357 2.254 7.18757 2.254 7.68223C2.254 7.99957 2.34267 8.26557 2.52 8.48023C2.69733 8.68557 2.97733 8.86757 3.36 9.02623C3.74267 9.1849 4.242 9.3529 4.858 9.53023C5.60467 9.73557 6.216 9.9549 6.692 10.1882C7.168 10.4122 7.518 10.6969 7.742 11.0422C7.97533 11.3782 8.092 11.8122 8.092 12.3442C8.092 12.9322 7.938 13.4362 7.63 13.8562C7.322 14.2669 6.888 14.5842 6.328 14.8082C5.77733 15.0229 5.124 15.1302 4.368 15.1302ZM12.461 15.1302C11.8637 15.1302 11.355 14.9996 10.935 14.7382C10.5243 14.4676 10.2117 14.0942 9.99698 13.6182C9.78232 13.1422 9.67498 12.5962 9.67498 11.9802V8.03223C9.67498 7.9389 9.70298 7.86423 9.75898 7.80823C9.82432 7.7429 9.90365 7.71023 9.99698 7.71023H10.697C10.7903 7.71023 10.865 7.7429 10.921 7.80823C10.9863 7.86423 11.019 7.9389 11.019 8.03223V11.9102C11.019 13.3009 11.6257 13.9962 12.839 13.9962C13.4177 13.9962 13.8797 13.8142 14.225 13.4502C14.5797 13.0769 14.757 12.5636 14.757 11.9102V8.03223C14.757 7.9389 14.785 7.86423 14.841 7.80823C14.9063 7.7429 14.9857 7.71023 15.079 7.71023H15.765C15.8677 7.71023 15.947 7.7429 16.003 7.80823C16.059 7.86423 16.087 7.9389 16.087 8.03223V14.6682C16.087 14.7616 16.059 14.8409 16.003 14.9062C15.947 14.9622 15.8677 14.9902 15.765 14.9902H15.121C15.0277 14.9902 14.9483 14.9622 14.883 14.9062C14.827 14.8409 14.799 14.7616 14.799 14.6682V14.0522C14.547 14.3789 14.239 14.6402 13.875 14.8362C13.5203 15.0322 13.049 15.1302 12.461 15.1302ZM20.8269 15.1302C20.3135 15.1302 19.8702 15.0416 19.4969 14.8642C19.1235 14.6776 18.8155 14.4302 18.5729 14.1222C18.3395 13.8049 18.1622 13.4456 18.0409 13.0442C17.9289 12.6429 17.8635 12.2182 17.8449 11.7702C17.8355 11.6209 17.8309 11.4809 17.8309 11.3502C17.8309 11.2196 17.8355 11.0796 17.8449 10.9302C17.8635 10.4916 17.9289 10.0716 18.0409 9.67023C18.1622 9.2689 18.3395 8.90957 18.5729 8.59223C18.8155 8.2749 19.1235 8.02757 19.4969 7.85023C19.8702 7.66357 20.3135 7.57023 20.8269 7.57023C21.3775 7.57023 21.8349 7.66823 22.1989 7.86423C22.5629 8.06023 22.8615 8.3029 23.0949 8.59223V5.37223C23.0949 5.2789 23.1229 5.20423 23.1789 5.14823C23.2442 5.0829 23.3235 5.05023 23.4169 5.05023H24.0889C24.1822 5.05023 24.2569 5.0829 24.3129 5.14823C24.3782 5.20423 24.4109 5.2789 24.4109 5.37223V14.6682C24.4109 14.7616 24.3782 14.8409 24.3129 14.9062C24.2569 14.9622 24.1822 14.9902 24.0889 14.9902H23.4589C23.3562 14.9902 23.2769 14.9622 23.2209 14.9062C23.1649 14.8409 23.1369 14.7616 23.1369 14.6682V14.0802C22.9035 14.3789 22.6002 14.6309 22.2269 14.8362C21.8535 15.0322 21.3869 15.1302 20.8269 15.1302ZM21.1209 13.9962C21.5875 13.9962 21.9609 13.8889 22.2409 13.6742C22.5209 13.4596 22.7309 13.1889 22.8709 12.8622C23.0109 12.5262 23.0855 12.1856 23.0949 11.8402C23.1042 11.6909 23.1089 11.5136 23.1089 11.3082C23.1089 11.0936 23.1042 10.9116 23.0949 10.7622C23.0855 10.4356 23.0062 10.1136 22.8569 9.79623C22.7169 9.4789 22.5022 9.21757 22.2129 9.01223C21.9329 8.8069 21.5689 8.70423 21.1209 8.70423C20.6449 8.70423 20.2669 8.81157 19.9869 9.02623C19.7069 9.23157 19.5062 9.5069 19.3849 9.85223C19.2635 10.1882 19.1935 10.5522 19.1749 10.9442C19.1655 11.2149 19.1655 11.4856 19.1749 11.7562C19.1935 12.1482 19.2635 12.5169 19.3849 12.8622C19.5062 13.1982 19.7069 13.4736 19.9869 13.6882C20.2669 13.8936 20.6449 13.9962 21.1209 13.9962ZM26.815 14.9902C26.7217 14.9902 26.6424 14.9622 26.577 14.9062C26.521 14.8409 26.493 14.7616 26.493 14.6682V8.03223C26.493 7.9389 26.521 7.86423 26.577 7.80823C26.6424 7.7429 26.7217 7.71023 26.815 7.71023H27.487C27.5804 7.71023 27.655 7.7429 27.711 7.80823C27.767 7.86423 27.795 7.9389 27.795 8.03223V14.6682C27.795 14.7616 27.767 14.8409 27.711 14.9062C27.655 14.9622 27.5804 14.9902 27.487 14.9902H26.815ZM26.703 6.35223C26.6097 6.35223 26.5304 6.32423 26.465 6.26823C26.409 6.2029 26.381 6.12357 26.381 6.03023V5.27423C26.381 5.1809 26.409 5.10623 26.465 5.05023C26.5304 4.9849 26.6097 4.95223 26.703 4.95223H27.585C27.6784 4.95223 27.753 4.9849 27.809 5.05023C27.8744 5.10623 27.907 5.1809 27.907 5.27423V6.03023C27.907 6.12357 27.8744 6.2029 27.809 6.26823C27.753 6.32423 27.6784 6.35223 27.585 6.35223H26.703ZM30.2197 17.6502C30.1263 17.6502 30.047 17.6176 29.9817 17.5522C29.9257 17.4962 29.8977 17.4216 29.8977 17.3282V8.03223C29.8977 7.9389 29.9257 7.86423 29.9817 7.80823C30.047 7.7429 30.1263 7.71023 30.2197 7.71023H30.8637C30.957 7.71023 31.0317 7.7429 31.0877 7.80823C31.153 7.86423 31.1857 7.9389 31.1857 8.03223V8.64823C31.4097 8.34023 31.7083 8.08357 32.0817 7.87823C32.455 7.6729 32.9217 7.57023 33.4817 7.57023C34.0043 7.57023 34.4477 7.6589 34.8117 7.83623C35.185 8.01357 35.4883 8.25623 35.7217 8.56423C35.9643 8.87223 36.1463 9.22223 36.2677 9.61423C36.389 10.0062 36.4543 10.4262 36.4637 10.8742C36.473 11.0236 36.4777 11.1822 36.4777 11.3502C36.4777 11.5182 36.473 11.6769 36.4637 11.8262C36.4543 12.2649 36.389 12.6849 36.2677 13.0862C36.1463 13.4782 35.9643 13.8282 35.7217 14.1362C35.4883 14.4349 35.185 14.6776 34.8117 14.8642C34.4477 15.0416 34.0043 15.1302 33.4817 15.1302C32.9403 15.1302 32.483 15.0322 32.1097 14.8362C31.7457 14.6309 31.447 14.3789 31.2137 14.0802V17.3282C31.2137 17.4216 31.1857 17.4962 31.1297 17.5522C31.0737 17.6176 30.9943 17.6502 30.8917 17.6502H30.2197ZM33.1877 13.9962C33.673 13.9962 34.051 13.8936 34.3217 13.6882C34.6017 13.4736 34.8023 13.1982 34.9237 12.8622C35.045 12.5169 35.115 12.1482 35.1337 11.7562C35.143 11.4856 35.143 11.2149 35.1337 10.9442C35.115 10.5522 35.045 10.1882 34.9237 9.85223C34.8023 9.5069 34.6017 9.23157 34.3217 9.02623C34.051 8.81157 33.673 8.70423 33.1877 8.70423C32.7303 8.70423 32.357 8.81157 32.0677 9.02623C31.7877 9.2409 31.5777 9.51623 31.4377 9.85223C31.307 10.1789 31.2323 10.5149 31.2137 10.8602C31.2043 11.0096 31.1997 11.1869 31.1997 11.3922C31.1997 11.5976 31.2043 11.7796 31.2137 11.9382C31.223 12.2649 31.2977 12.5869 31.4377 12.9042C31.587 13.2216 31.8063 13.4829 32.0957 13.6882C32.385 13.8936 32.749 13.9962 33.1877 13.9962ZM42.1591 14.9902C42.0658 14.9902 41.9865 14.9622 41.9211 14.9062C41.8651 14.8409 41.8371 14.7616 41.8371 14.6682V5.52623C41.8371 5.42357 41.8651 5.34423 41.9211 5.28823C41.9865 5.2229 42.0658 5.19023 42.1591 5.19023H42.8591C42.9711 5.19023 43.0551 5.21823 43.1111 5.27423C43.1671 5.33023 43.1998 5.3769 43.2091 5.41423L46.1771 11.0702L49.1591 5.41423C49.1778 5.3769 49.2105 5.33023 49.2571 5.27423C49.3131 5.21823 49.3971 5.19023 49.5091 5.19023H50.1951C50.2978 5.19023 50.3771 5.2229 50.4331 5.28823C50.4985 5.34423 50.5311 5.42357 50.5311 5.52623V14.6682C50.5311 14.7616 50.4985 14.8409 50.4331 14.9062C50.3771 14.9622 50.2978 14.9902 50.1951 14.9902H49.5091C49.4158 14.9902 49.3365 14.9622 49.2711 14.9062C49.2151 14.8409 49.1871 14.7616 49.1871 14.6682V7.78023L46.8491 12.3442C46.8118 12.4376 46.7558 12.5122 46.6811 12.5682C46.6065 12.6149 46.5131 12.6382 46.4011 12.6382H45.9671C45.8458 12.6382 45.7478 12.6149 45.6731 12.5682C45.6078 12.5122 45.5518 12.4376 45.5051 12.3442L43.1671 7.78023V14.6682C43.1671 14.7616 43.1345 14.8409 43.0691 14.9062C43.0131 14.9622 42.9385 14.9902 42.8451 14.9902H42.1591ZM55.7524 15.1302C55.043 15.1302 54.4504 14.9949 53.9744 14.7242C53.4984 14.4536 53.1344 14.0802 52.8824 13.6042C52.6304 13.1189 52.4904 12.5682 52.4624 11.9522C52.453 11.7936 52.4484 11.5929 52.4484 11.3502C52.4484 11.0982 52.453 10.8976 52.4624 10.7482C52.4904 10.1229 52.6304 9.57223 52.8824 9.09623C53.1437 8.62023 53.5124 8.2469 53.9884 7.97623C54.4644 7.70557 55.0524 7.57023 55.7524 7.57023C56.4524 7.57023 57.0404 7.70557 57.5164 7.97623C57.9924 8.2469 58.3564 8.62023 58.6084 9.09623C58.8697 9.57223 59.0144 10.1229 59.0424 10.7482C59.0517 10.8976 59.0564 11.0982 59.0564 11.3502C59.0564 11.5929 59.0517 11.7936 59.0424 11.9522C59.0144 12.5682 58.8744 13.1189 58.6224 13.6042C58.3704 14.0802 58.0064 14.4536 57.5304 14.7242C57.0544 14.9949 56.4617 15.1302 55.7524 15.1302ZM55.7524 14.0522C56.331 14.0522 56.793 13.8702 57.1384 13.5062C57.4837 13.1329 57.6704 12.5916 57.6984 11.8822C57.7077 11.7422 57.7124 11.5649 57.7124 11.3502C57.7124 11.1356 57.7077 10.9582 57.6984 10.8182C57.6704 10.1089 57.4837 9.57223 57.1384 9.20823C56.793 8.8349 56.331 8.64823 55.7524 8.64823C55.1737 8.64823 54.707 8.8349 54.3524 9.20823C54.007 9.57223 53.825 10.1089 53.8064 10.8182C53.797 10.9582 53.7924 11.1356 53.7924 11.3502C53.7924 11.5649 53.797 11.7422 53.8064 11.8822C53.825 12.5916 54.007 13.1329 54.3524 13.5062C54.707 13.8702 55.1737 14.0522 55.7524 14.0522ZM61.1314 14.9902C61.0381 14.9902 60.9588 14.9622 60.8934 14.9062C60.8374 14.8409 60.8094 14.7616 60.8094 14.6682V8.03223C60.8094 7.9389 60.8374 7.86423 60.8934 7.80823C60.9588 7.7429 61.0381 7.71023 61.1314 7.71023H61.7894C61.8828 7.71023 61.9574 7.7429 62.0134 7.80823C62.0788 7.86423 62.1114 7.9389 62.1114 8.03223V8.64823C62.3541 8.3309 62.6574 8.07423 63.0214 7.87823C63.3948 7.6729 63.8708 7.57023 64.4494 7.57023C65.0561 7.57023 65.5694 7.70557 65.9894 7.97623C66.4188 8.23757 66.7408 8.60623 66.9554 9.08223C67.1701 9.5489 67.2774 10.0949 67.2774 10.7202V14.6682C67.2774 14.7616 67.2494 14.8409 67.1934 14.9062C67.1374 14.9622 67.0628 14.9902 66.9694 14.9902H66.2694C66.1761 14.9902 66.0968 14.9622 66.0314 14.9062C65.9754 14.8409 65.9474 14.7616 65.9474 14.6682V10.7902C65.9474 10.1369 65.7888 9.62823 65.4714 9.26423C65.1541 8.8909 64.6874 8.70423 64.0714 8.70423C63.4928 8.70423 63.0261 8.8909 62.6714 9.26423C62.3261 9.62823 62.1534 10.1369 62.1534 10.7902V14.6682C62.1534 14.7616 62.1208 14.8409 62.0554 14.9062C61.9994 14.9622 61.9248 14.9902 61.8314 14.9902H61.1314ZM71.9597 15.1302C71.4463 15.1302 71.003 15.0416 70.6297 14.8642C70.2563 14.6776 69.9483 14.4302 69.7057 14.1222C69.4723 13.8049 69.295 13.4456 69.1737 13.0442C69.0617 12.6429 68.9963 12.2182 68.9777 11.7702C68.9683 11.6209 68.9637 11.4809 68.9637 11.3502C68.9637 11.2196 68.9683 11.0796 68.9777 10.9302C68.9963 10.4916 69.0617 10.0716 69.1737 9.67023C69.295 9.2689 69.4723 8.90957 69.7057 8.59223C69.9483 8.2749 70.2563 8.02757 70.6297 7.85023C71.003 7.66357 71.4463 7.57023 71.9597 7.57023C72.5103 7.57023 72.9677 7.66823 73.3317 7.86423C73.6957 8.06023 73.9943 8.3029 74.2277 8.59223V5.37223C74.2277 5.2789 74.2557 5.20423 74.3117 5.14823C74.377 5.0829 74.4563 5.05023 74.5497 5.05023H75.2217C75.315 5.05023 75.3897 5.0829 75.4457 5.14823C75.511 5.20423 75.5437 5.2789 75.5437 5.37223V14.6682C75.5437 14.7616 75.511 14.8409 75.4457 14.9062C75.3897 14.9622 75.315 14.9902 75.2217 14.9902H74.5917C74.489 14.9902 74.4097 14.9622 74.3537 14.9062C74.2977 14.8409 74.2697 14.7616 74.2697 14.6682V14.0802C74.0363 14.3789 73.733 14.6309 73.3597 14.8362C72.9863 15.0322 72.5197 15.1302 71.9597 15.1302ZM72.2537 13.9962C72.7203 13.9962 73.0937 13.8889 73.3737 13.6742C73.6537 13.4596 73.8637 13.1889 74.0037 12.8622C74.1437 12.5262 74.2183 12.1856 74.2277 11.8402C74.237 11.6909 74.2417 11.5136 74.2417 11.3082C74.2417 11.0936 74.237 10.9116 74.2277 10.7622C74.2183 10.4356 74.139 10.1136 73.9897 9.79623C73.8497 9.4789 73.635 9.21757 73.3457 9.01223C73.0657 8.8069 72.7017 8.70423 72.2537 8.70423C71.7777 8.70423 71.3997 8.81157 71.1197 9.02623C70.8397 9.23157 70.639 9.5069 70.5177 9.85223C70.3963 10.1882 70.3263 10.5522 70.3077 10.9442C70.2983 11.2149 70.2983 11.4856 70.3077 11.7562C70.3263 12.1482 70.3963 12.5169 70.5177 12.8622C70.639 13.1982 70.8397 13.4736 71.1197 13.6882C71.3997 13.8936 71.7777 13.9962 72.2537 13.9962ZM79.6558 15.1302C79.1892 15.1302 78.7645 15.0369 78.3818 14.8502C77.9992 14.6636 77.6912 14.4116 77.4578 14.0942C77.2245 13.7769 77.1078 13.4176 77.1078 13.0162C77.1078 12.3722 77.3692 11.8589 77.8918 11.4762C78.4145 11.0936 79.0958 10.8416 79.9358 10.7202L82.0218 10.4262V10.0202C82.0218 9.57223 81.8912 9.22223 81.6298 8.97023C81.3778 8.71823 80.9625 8.59223 80.3838 8.59223C79.9638 8.59223 79.6232 8.67623 79.3618 8.84423C79.1098 9.01223 78.9325 9.2269 78.8298 9.48823C78.7738 9.62823 78.6758 9.69823 78.5358 9.69823H77.9058C77.8032 9.69823 77.7238 9.67023 77.6678 9.61423C77.6212 9.5489 77.5978 9.47423 77.5978 9.39023C77.5978 9.25023 77.6492 9.07757 77.7518 8.87223C77.8638 8.6669 78.0318 8.46623 78.2558 8.27023C78.4798 8.07423 78.7645 7.9109 79.1098 7.78023C79.4645 7.64023 79.8938 7.57023 80.3978 7.57023C80.9578 7.57023 81.4292 7.6449 81.8118 7.79423C82.1945 7.93423 82.4932 8.12557 82.7078 8.36823C82.9318 8.6109 83.0905 8.88623 83.1838 9.19423C83.2865 9.50223 83.3378 9.8149 83.3378 10.1322V14.6682C83.3378 14.7616 83.3052 14.8409 83.2398 14.9062C83.1838 14.9622 83.1092 14.9902 83.0158 14.9902H82.3718C82.2692 14.9902 82.1898 14.9622 82.1338 14.9062C82.0778 14.8409 82.0498 14.7616 82.0498 14.6682V14.0662C81.9285 14.2342 81.7652 14.4022 81.5598 14.5702C81.3545 14.7289 81.0978 14.8642 80.7898 14.9762C80.4818 15.0789 80.1038 15.1302 79.6558 15.1302ZM79.9498 14.0802C80.3325 14.0802 80.6825 14.0009 80.9998 13.8422C81.3172 13.6742 81.5645 13.4176 81.7418 13.0722C81.9285 12.7269 82.0218 12.2929 82.0218 11.7702V11.3782L80.3978 11.6162C79.7352 11.7096 79.2358 11.8682 78.8998 12.0922C78.5638 12.3069 78.3958 12.5822 78.3958 12.9182C78.3958 13.1796 78.4705 13.3989 78.6198 13.5762C78.7785 13.7442 78.9745 13.8702 79.2078 13.9542C79.4505 14.0382 79.6978 14.0802 79.9498 14.0802ZM85.6865 14.9902C85.5931 14.9902 85.5138 14.9622 85.4485 14.9062C85.3925 14.8409 85.3645 14.7616 85.3645 14.6682V5.37223C85.3645 5.2789 85.3925 5.20423 85.4485 5.14823C85.5138 5.0829 85.5931 5.05023 85.6865 5.05023H86.3445C86.4471 5.05023 86.5265 5.0829 86.5825 5.14823C86.6385 5.20423 86.6665 5.2789 86.6665 5.37223V14.6682C86.6665 14.7616 86.6385 14.8409 86.5825 14.9062C86.5265 14.9622 86.4471 14.9902 86.3445 14.9902H85.6865Z" fill="#292929"/>
<path d="M1.392 33.9902C1.312 33.9902 1.248 33.9662 1.2 33.9182C1.152 33.8702 1.128 33.8062 1.128 33.7262V25.8662C1.128 25.7782 1.152 25.7102 1.2 25.6622C1.248 25.6142 1.312 25.5902 1.392 25.5902H4.308C4.868 25.5902 5.352 25.6862 5.76 25.8782C6.176 26.0622 6.496 26.3382 6.72 26.7062C6.952 27.0742 7.068 27.5302 7.068 28.0742C7.068 28.6182 6.952 29.0742 6.72 29.4422C6.496 29.8102 6.176 30.0902 5.76 30.2822C5.352 30.4662 4.868 30.5582 4.308 30.5582H1.884V33.7262C1.884 33.8062 1.86 33.8702 1.812 33.9182C1.764 33.9662 1.696 33.9902 1.608 33.9902H1.392ZM1.884 29.8382H4.248C4.944 29.8382 5.46 29.6862 5.796 29.3822C6.14 29.0782 6.312 28.6422 6.312 28.0742C6.312 27.5062 6.14 27.0702 5.796 26.7662C5.46 26.4622 4.944 26.3102 4.248 26.3102H1.884V29.8382ZM10.0817 34.1102C9.69769 34.1102 9.34169 34.0302 9.01369 33.8702C8.69369 33.7102 8.43369 33.4982 8.23369 33.2342C8.03369 32.9622 7.93369 32.6582 7.93369 32.3222C7.93369 31.7782 8.15369 31.3422 8.59369 31.0142C9.03369 30.6862 9.60569 30.4742 10.3097 30.3782L12.2057 30.1142V29.6942C12.2057 29.2702 12.0737 28.9382 11.8097 28.6982C11.5537 28.4502 11.1417 28.3262 10.5737 28.3262C10.1577 28.3262 9.82169 28.4102 9.56569 28.5782C9.30969 28.7382 9.13369 28.9502 9.03769 29.2142C8.99769 29.3342 8.92169 29.3942 8.80969 29.3942H8.61769C8.52169 29.3942 8.45369 29.3702 8.41369 29.3222C8.37369 29.2662 8.35369 29.2022 8.35369 29.1302C8.35369 29.0182 8.39369 28.8782 8.47369 28.7102C8.56169 28.5422 8.69369 28.3782 8.86969 28.2182C9.04569 28.0502 9.27369 27.9102 9.55369 27.7982C9.83369 27.6862 10.1737 27.6302 10.5737 27.6302C11.0457 27.6302 11.4337 27.6942 11.7377 27.8222C12.0497 27.9502 12.2897 28.1182 12.4577 28.3262C12.6337 28.5262 12.7577 28.7502 12.8297 28.9982C12.9017 29.2462 12.9377 29.4902 12.9377 29.7302V33.7262C12.9377 33.8062 12.9137 33.8702 12.8657 33.9182C12.8177 33.9662 12.7537 33.9902 12.6737 33.9902H12.4697C12.3897 33.9902 12.3257 33.9662 12.2777 33.9182C12.2297 33.8702 12.2057 33.8062 12.2057 33.7262V33.1622C12.1097 33.3062 11.9737 33.4502 11.7977 33.5942C11.6217 33.7382 11.3937 33.8622 11.1137 33.9662C10.8417 34.0622 10.4977 34.1102 10.0817 34.1102ZM10.2017 33.4142C10.5697 33.4142 10.9057 33.3342 11.2097 33.1742C11.5137 33.0142 11.7537 32.7702 11.9297 32.4422C12.1137 32.1062 12.2057 31.6862 12.2057 31.1822V30.7742L10.6577 30.9902C10.0017 31.0782 9.50569 31.2302 9.16969 31.4462C8.83369 31.6622 8.66569 31.9342 8.66569 32.2622C8.66569 32.5262 8.74169 32.7422 8.89369 32.9102C9.04569 33.0782 9.23769 33.2062 9.46969 33.2942C9.70969 33.3742 9.95369 33.4142 10.2017 33.4142ZM15.0993 33.9902C15.0193 33.9902 14.9553 33.9662 14.9073 33.9182C14.8593 33.8702 14.8353 33.8062 14.8353 33.7262V28.0262C14.8353 27.9462 14.8593 27.8822 14.9073 27.8342C14.9553 27.7782 15.0193 27.7502 15.0993 27.7502H15.2913C15.3713 27.7502 15.4353 27.7782 15.4833 27.8342C15.5393 27.8822 15.5673 27.9462 15.5673 28.0262V28.5782C15.7113 28.2982 15.9193 28.0902 16.1913 27.9542C16.4633 27.8182 16.7993 27.7502 17.1993 27.7502H17.6433C17.7233 27.7502 17.7873 27.7742 17.8353 27.8222C17.8833 27.8702 17.9073 27.9342 17.9073 28.0142V28.1822C17.9073 28.2622 17.8833 28.3262 17.8353 28.3742C17.7873 28.4222 17.7233 28.4462 17.6433 28.4462H17.1273C16.6473 28.4462 16.2673 28.5862 15.9873 28.8662C15.7073 29.1462 15.5673 29.5262 15.5673 30.0062V33.7262C15.5673 33.8062 15.5393 33.8702 15.4833 33.9182C15.4353 33.9662 15.3713 33.9902 15.2913 33.9902H15.0993ZM21.1072 33.9902C20.6912 33.9902 20.3632 33.9022 20.1232 33.7262C19.8832 33.5502 19.7152 33.3102 19.6192 33.0062C19.5232 32.7022 19.4752 32.3622 19.4752 31.9862V28.4462H18.5392C18.4592 28.4462 18.3952 28.4222 18.3472 28.3742C18.2992 28.3262 18.2752 28.2622 18.2752 28.1822V28.0142C18.2752 27.9342 18.2992 27.8702 18.3472 27.8222C18.3952 27.7742 18.4592 27.7502 18.5392 27.7502H19.4752V25.7342C19.4752 25.6542 19.4992 25.5902 19.5472 25.5422C19.5952 25.4942 19.6592 25.4702 19.7392 25.4702H19.9432C20.0232 25.4702 20.0872 25.4942 20.1352 25.5422C20.1832 25.5902 20.2072 25.6542 20.2072 25.7342V27.7502H21.6952C21.7752 27.7502 21.8392 27.7742 21.8872 27.8222C21.9352 27.8702 21.9592 27.9342 21.9592 28.0142V28.1822C21.9592 28.2622 21.9352 28.3262 21.8872 28.3742C21.8392 28.4222 21.7752 28.4462 21.6952 28.4462H20.2072V31.9382C20.2072 32.3622 20.2752 32.6942 20.4112 32.9342C20.5552 33.1742 20.8072 33.2942 21.1672 33.2942H21.8152C21.8952 33.2942 21.9592 33.3182 22.0072 33.3662C22.0552 33.4142 22.0792 33.4782 22.0792 33.5582V33.7262C22.0792 33.8062 22.0552 33.8702 22.0072 33.9182C21.9592 33.9662 21.8952 33.9902 21.8152 33.9902H21.1072ZM23.5837 33.9902C23.5037 33.9902 23.4397 33.9662 23.3917 33.9182C23.3437 33.8702 23.3197 33.8062 23.3197 33.7262V28.0142C23.3197 27.9342 23.3437 27.8702 23.3917 27.8222C23.4397 27.7742 23.5037 27.7502 23.5837 27.7502H23.7877C23.8677 27.7502 23.9317 27.7742 23.9797 27.8222C24.0277 27.8702 24.0517 27.9342 24.0517 28.0142V33.7262C24.0517 33.8062 24.0277 33.8702 23.9797 33.9182C23.9317 33.9662 23.8677 33.9902 23.7877 33.9902H23.5837ZM23.4517 26.4662C23.3717 26.4662 23.3077 26.4422 23.2597 26.3942C23.2117 26.3462 23.1877 26.2822 23.1877 26.2022V25.7462C23.1877 25.6662 23.2117 25.6022 23.2597 25.5542C23.3077 25.4982 23.3717 25.4702 23.4517 25.4702H23.9077C23.9877 25.4702 24.0517 25.4982 24.0997 25.5542C24.1557 25.6022 24.1837 25.6662 24.1837 25.7462V26.2022C24.1837 26.2822 24.1557 26.3462 24.0997 26.3942C24.0517 26.4422 23.9877 26.4662 23.9077 26.4662H23.4517ZM28.3555 34.1102C27.7955 34.1102 27.3195 34.0022 26.9275 33.7862C26.5355 33.5622 26.2355 33.2422 26.0275 32.8262C25.8275 32.4102 25.7195 31.9182 25.7035 31.3502C25.6955 31.2302 25.6915 31.0702 25.6915 30.8702C25.6915 30.6702 25.6955 30.5102 25.7035 30.3902C25.7195 29.8142 25.8275 29.3222 26.0275 28.9142C26.2355 28.4982 26.5355 28.1822 26.9275 27.9662C27.3195 27.7422 27.7955 27.6302 28.3555 27.6302C28.7795 27.6302 29.1435 27.6902 29.4475 27.8102C29.7595 27.9222 30.0155 28.0742 30.2155 28.2662C30.4155 28.4502 30.5675 28.6542 30.6715 28.8782C30.7755 29.1022 30.8315 29.3222 30.8395 29.5382C30.8475 29.6182 30.8235 29.6822 30.7675 29.7302C30.7115 29.7782 30.6475 29.8022 30.5755 29.8022H30.4075C30.3275 29.8022 30.2675 29.7862 30.2275 29.7542C30.1955 29.7142 30.1595 29.6462 30.1195 29.5502C29.9515 29.0942 29.7195 28.7782 29.4235 28.6022C29.1355 28.4182 28.7795 28.3262 28.3555 28.3262C27.8115 28.3262 27.3595 28.4942 26.9995 28.8302C26.6475 29.1582 26.4595 29.6982 26.4355 30.4502C26.4195 30.7302 26.4195 31.0102 26.4355 31.2902C26.4595 32.0422 26.6475 32.5862 26.9995 32.9222C27.3595 33.2502 27.8115 33.4142 28.3555 33.4142C28.7795 33.4142 29.1355 33.3262 29.4235 33.1502C29.7195 32.9662 29.9515 32.6462 30.1195 32.1902C30.1595 32.0942 30.1955 32.0302 30.2275 31.9982C30.2675 31.9582 30.3275 31.9382 30.4075 31.9382H30.5755C30.6475 31.9382 30.7115 31.9622 30.7675 32.0102C30.8235 32.0582 30.8475 32.1222 30.8395 32.2022C30.8315 32.3782 30.7955 32.5542 30.7315 32.7302C30.6675 32.9062 30.5675 33.0782 30.4315 33.2462C30.3035 33.4142 30.1435 33.5622 29.9515 33.6902C29.7595 33.8182 29.5275 33.9182 29.2555 33.9902C28.9915 34.0702 28.6915 34.1102 28.3555 34.1102ZM32.6891 33.9902C32.6091 33.9902 32.5451 33.9662 32.4971 33.9182C32.4491 33.8702 32.4251 33.8062 32.4251 33.7262V28.0142C32.4251 27.9342 32.4491 27.8702 32.4971 27.8222C32.5451 27.7742 32.6091 27.7502 32.6891 27.7502H32.8931C32.9731 27.7502 33.0371 27.7742 33.0851 27.8222C33.1331 27.8702 33.1571 27.9342 33.1571 28.0142V33.7262C33.1571 33.8062 33.1331 33.8702 33.0851 33.9182C33.0371 33.9662 32.9731 33.9902 32.8931 33.9902H32.6891ZM32.5571 26.4662C32.4771 26.4662 32.4131 26.4422 32.3651 26.3942C32.3171 26.3462 32.2931 26.2822 32.2931 26.2022V25.7462C32.2931 25.6662 32.3171 25.6022 32.3651 25.5542C32.4131 25.4982 32.4771 25.4702 32.5571 25.4702H33.0131C33.0931 25.4702 33.1571 25.4982 33.2051 25.5542C33.2611 25.6022 33.2891 25.6662 33.2891 25.7462V26.2022C33.2891 26.2822 33.2611 26.3462 33.2051 26.3942C33.1571 26.4422 33.0931 26.4662 33.0131 26.4662H32.5571ZM35.373 36.2702C35.293 36.2702 35.229 36.2462 35.181 36.1982C35.133 36.1502 35.109 36.0862 35.109 36.0062V28.0142C35.109 27.9342 35.133 27.8702 35.181 27.8222C35.229 27.7742 35.293 27.7502 35.373 27.7502H35.577C35.657 27.7502 35.721 27.7742 35.769 27.8222C35.817 27.8702 35.841 27.9342 35.841 28.0142V28.5782C36.041 28.3062 36.301 28.0822 36.621 27.9062C36.949 27.7222 37.361 27.6302 37.857 27.6302C38.329 27.6302 38.725 27.7142 39.045 27.8822C39.365 28.0422 39.625 28.2582 39.825 28.5302C40.025 28.8022 40.173 29.1062 40.269 29.4422C40.365 29.7782 40.417 30.1222 40.425 30.4742C40.433 30.5942 40.437 30.7262 40.437 30.8702C40.437 31.0142 40.433 31.1462 40.425 31.2662C40.417 31.6182 40.365 31.9622 40.269 32.2982C40.173 32.6342 40.025 32.9382 39.825 33.2102C39.625 33.4822 39.365 33.7022 39.045 33.8702C38.725 34.0302 38.329 34.1102 37.857 34.1102C37.361 34.1102 36.949 34.0182 36.621 33.8342C36.301 33.6502 36.041 33.4262 35.841 33.1622V36.0062C35.841 36.0862 35.817 36.1502 35.769 36.1982C35.721 36.2462 35.657 36.2702 35.577 36.2702H35.373ZM37.785 33.4142C38.257 33.4142 38.629 33.3102 38.901 33.1022C39.173 32.8942 39.369 32.6222 39.489 32.2862C39.609 31.9502 39.677 31.5902 39.693 31.2062C39.701 30.9822 39.701 30.7582 39.693 30.5342C39.677 30.1502 39.609 29.7902 39.489 29.4542C39.369 29.1182 39.173 28.8462 38.901 28.6382C38.629 28.4302 38.257 28.3262 37.785 28.3262C37.329 28.3262 36.961 28.4342 36.681 28.6502C36.401 28.8662 36.193 29.1382 36.057 29.4662C35.929 29.7862 35.857 30.1102 35.841 30.4382C35.833 30.5582 35.829 30.7142 35.829 30.9062C35.829 31.0982 35.833 31.2542 35.841 31.3742C35.849 31.6942 35.921 32.0102 36.057 32.3222C36.201 32.6342 36.413 32.8942 36.693 33.1022C36.981 33.3102 37.345 33.4142 37.785 33.4142ZM43.7497 34.1102C43.3657 34.1102 43.0097 34.0302 42.6817 33.8702C42.3617 33.7102 42.1017 33.4982 41.9017 33.2342C41.7017 32.9622 41.6017 32.6582 41.6017 32.3222C41.6017 31.7782 41.8217 31.3422 42.2617 31.0142C42.7017 30.6862 43.2737 30.4742 43.9777 30.3782L45.8737 30.1142V29.6942C45.8737 29.2702 45.7417 28.9382 45.4777 28.6982C45.2217 28.4502 44.8097 28.3262 44.2417 28.3262C43.8257 28.3262 43.4897 28.4102 43.2337 28.5782C42.9777 28.7382 42.8017 28.9502 42.7057 29.2142C42.6657 29.3342 42.5897 29.3942 42.4777 29.3942H42.2857C42.1897 29.3942 42.1217 29.3702 42.0817 29.3222C42.0417 29.2662 42.0217 29.2022 42.0217 29.1302C42.0217 29.0182 42.0617 28.8782 42.1417 28.7102C42.2297 28.5422 42.3617 28.3782 42.5377 28.2182C42.7137 28.0502 42.9417 27.9102 43.2217 27.7982C43.5017 27.6862 43.8417 27.6302 44.2417 27.6302C44.7137 27.6302 45.1017 27.6942 45.4057 27.8222C45.7177 27.9502 45.9577 28.1182 46.1257 28.3262C46.3017 28.5262 46.4257 28.7502 46.4977 28.9982C46.5697 29.2462 46.6057 29.4902 46.6057 29.7302V33.7262C46.6057 33.8062 46.5817 33.8702 46.5337 33.9182C46.4857 33.9662 46.4217 33.9902 46.3417 33.9902H46.1377C46.0577 33.9902 45.9937 33.9662 45.9457 33.9182C45.8977 33.8702 45.8737 33.8062 45.8737 33.7262V33.1622C45.7777 33.3062 45.6417 33.4502 45.4657 33.5942C45.2897 33.7382 45.0617 33.8622 44.7817 33.9662C44.5097 34.0622 44.1657 34.1102 43.7497 34.1102ZM43.8697 33.4142C44.2377 33.4142 44.5737 33.3342 44.8777 33.1742C45.1817 33.0142 45.4217 32.7702 45.5977 32.4422C45.7817 32.1062 45.8737 31.6862 45.8737 31.1822V30.7742L44.3257 30.9902C43.6697 31.0782 43.1737 31.2302 42.8377 31.4462C42.5017 31.6622 42.3337 31.9342 42.3337 32.2622C42.3337 32.5262 42.4097 32.7422 42.5617 32.9102C42.7137 33.0782 42.9057 33.2062 43.1377 33.2942C43.3777 33.3742 43.6217 33.4142 43.8697 33.4142ZM48.7673 33.9902C48.6873 33.9902 48.6233 33.9662 48.5753 33.9182C48.5273 33.8702 48.5033 33.8062 48.5033 33.7262V28.0142C48.5033 27.9342 48.5273 27.8702 48.5753 27.8222C48.6233 27.7742 48.6873 27.7502 48.7673 27.7502H48.9713C49.0513 27.7502 49.1153 27.7742 49.1633 27.8222C49.2113 27.8702 49.2353 27.9342 49.2353 28.0142V28.5782C49.4513 28.2982 49.7113 28.0702 50.0153 27.8942C50.3273 27.7182 50.7393 27.6302 51.2513 27.6302C51.7953 27.6302 52.2473 27.7502 52.6073 27.9902C52.9753 28.2222 53.2473 28.5422 53.4233 28.9502C53.6073 29.3502 53.6992 29.8062 53.6992 30.3182V33.7262C53.6992 33.8062 53.6753 33.8702 53.6273 33.9182C53.5793 33.9662 53.5153 33.9902 53.4353 33.9902H53.2313C53.1513 33.9902 53.0873 33.9662 53.0393 33.9182C52.9913 33.8702 52.9673 33.8062 52.9673 33.7262V30.3782C52.9673 29.7382 52.8113 29.2382 52.4993 28.8782C52.1873 28.5102 51.7313 28.3262 51.1313 28.3262C50.5633 28.3262 50.1033 28.5102 49.7513 28.8782C49.4073 29.2382 49.2353 29.7382 49.2353 30.3782V33.7262C49.2353 33.8062 49.2113 33.8702 49.1633 33.9182C49.1153 33.9662 49.0513 33.9902 48.9713 33.9902H48.7673ZM57.5876 33.9902C57.1716 33.9902 56.8436 33.9022 56.6036 33.7262C56.3636 33.5502 56.1956 33.3102 56.0996 33.0062C56.0036 32.7022 55.9556 32.3622 55.9556 31.9862V28.4462H55.0196C54.9396 28.4462 54.8756 28.4222 54.8276 28.3742C54.7796 28.3262 54.7556 28.2622 54.7556 28.1822V28.0142C54.7556 27.9342 54.7796 27.8702 54.8276 27.8222C54.8756 27.7742 54.9396 27.7502 55.0196 27.7502H55.9556V25.7342C55.9556 25.6542 55.9796 25.5902 56.0276 25.5422C56.0756 25.4942 56.1396 25.4702 56.2196 25.4702H56.4236C56.5036 25.4702 56.5676 25.4942 56.6156 25.5422C56.6636 25.5902 56.6876 25.6542 56.6876 25.7342V27.7502H58.1756C58.2556 27.7502 58.3196 27.7742 58.3676 27.8222C58.4156 27.8702 58.4396 27.9342 58.4396 28.0142V28.1822C58.4396 28.2622 58.4156 28.3262 58.3676 28.3742C58.3196 28.4222 58.2556 28.4462 58.1756 28.4462H56.6876V31.9382C56.6876 32.3622 56.7556 32.6942 56.8916 32.9342C57.0356 33.1742 57.2876 33.2942 57.6476 33.2942H58.2956C58.3756 33.2942 58.4396 33.3182 58.4876 33.3662C58.5356 33.4142 58.5596 33.4782 58.5596 33.5582V33.7262C58.5596 33.8062 58.5356 33.8702 58.4876 33.9182C58.4396 33.9662 58.3756 33.9902 58.2956 33.9902H57.5876ZM59.7041 34.8902C59.6401 34.8902 59.5921 34.8662 59.5601 34.8182C59.5361 34.7702 59.5281 34.7102 59.5361 34.6382L59.7641 33.1982C59.7801 33.1022 59.8081 33.0262 59.8481 32.9702C59.8961 32.9062 59.9681 32.8742 60.0641 32.8742H60.6041C60.6601 32.8742 60.7041 32.8942 60.7361 32.9342C60.7681 32.9742 60.7841 33.0182 60.7841 33.0662C60.7841 33.1382 60.7681 33.2102 60.7361 33.2822L60.2201 34.6382C60.1881 34.7182 60.1481 34.7782 60.1001 34.8182C60.0601 34.8662 59.9961 34.8902 59.9081 34.8902H59.7041ZM67.6811 33.9902C67.6011 33.9902 67.5371 33.9662 67.4891 33.9182C67.4411 33.8702 67.4171 33.8062 67.4171 33.7262V26.3102H65.0411C64.9611 26.3102 64.8971 26.2862 64.8491 26.2382C64.8011 26.1902 64.7771 26.1262 64.7771 26.0462V25.8662C64.7771 25.7782 64.8011 25.7102 64.8491 25.6622C64.8971 25.6142 64.9611 25.5902 65.0411 25.5902H70.5371C70.6251 25.5902 70.6931 25.6142 70.7411 25.6622C70.7891 25.7102 70.8131 25.7782 70.8131 25.8662V26.0462C70.8131 26.1262 70.7891 26.1902 70.7411 26.2382C70.6931 26.2862 70.6251 26.3102 70.5371 26.3102H68.1731V33.7262C68.1731 33.8062 68.1491 33.8702 68.1011 33.9182C68.0531 33.9662 67.9851 33.9902 67.8971 33.9902H67.6811ZM74.7222 34.1102C74.0742 34.1102 73.5222 34.0062 73.0662 33.7982C72.6182 33.5902 72.2742 33.3222 72.0342 32.9942C71.7942 32.6662 71.6662 32.3182 71.6502 31.9502C71.6502 31.8862 71.6742 31.8302 71.7222 31.7822C71.7702 31.7342 71.8302 31.7102 71.9022 31.7102H72.1422C72.2222 31.7102 72.2822 31.7342 72.3222 31.7822C72.3702 31.8302 72.3982 31.8862 72.4062 31.9502C72.4382 32.1742 72.5382 32.3982 72.7062 32.6222C72.8742 32.8382 73.1222 33.0222 73.4502 33.1742C73.7782 33.3182 74.2022 33.3902 74.7222 33.3902C75.5062 33.3902 76.0782 33.2502 76.4382 32.9702C76.7982 32.6822 76.9782 32.2982 76.9782 31.8182C76.9782 31.4982 76.8822 31.2422 76.6902 31.0502C76.5062 30.8502 76.2222 30.6742 75.8382 30.5222C75.4542 30.3622 74.9622 30.1862 74.3622 29.9942C73.7942 29.8102 73.3262 29.6222 72.9582 29.4302C72.5902 29.2302 72.3182 28.9902 72.1422 28.7102C71.9742 28.4302 71.8902 28.0702 71.8902 27.6302C71.8902 27.2222 71.9982 26.8582 72.2142 26.5382C72.4302 26.2102 72.7422 25.9502 73.1502 25.7582C73.5662 25.5662 74.0702 25.4702 74.6622 25.4702C75.1342 25.4702 75.5462 25.5342 75.8982 25.6622C76.2502 25.7902 76.5422 25.9622 76.7742 26.1782C77.0062 26.3862 77.1822 26.6142 77.3022 26.8622C77.4222 27.1022 77.4862 27.3382 77.4942 27.5702C77.4942 27.6262 77.4742 27.6822 77.4342 27.7382C77.3942 27.7862 77.3302 27.8102 77.2422 27.8102H77.0022C76.9622 27.8102 76.9102 27.7942 76.8462 27.7622C76.7902 27.7302 76.7542 27.6662 76.7382 27.5702C76.6902 27.1702 76.4782 26.8422 76.1022 26.5862C75.7342 26.3222 75.2542 26.1902 74.6622 26.1902C74.0702 26.1902 73.5862 26.3062 73.2102 26.5382C72.8342 26.7702 72.6462 27.1342 72.6462 27.6302C72.6462 27.9502 72.7302 28.2142 72.8982 28.4222C73.0662 28.6222 73.3302 28.8022 73.6902 28.9622C74.0502 29.1142 74.5142 29.2822 75.0822 29.4662C75.6822 29.6582 76.1782 29.8502 76.5702 30.0422C76.9622 30.2342 77.2542 30.4702 77.4462 30.7502C77.6382 31.0222 77.7342 31.3782 77.7342 31.8182C77.7342 32.3062 77.6102 32.7222 77.3622 33.0662C77.1222 33.4022 76.7782 33.6622 76.3302 33.8462C75.8822 34.0222 75.3462 34.1102 74.7222 34.1102ZM81.6878 34.1102C81.1118 34.1102 80.6278 33.9902 80.2358 33.7502C79.8518 33.5102 79.5558 33.1822 79.3478 32.7662C79.1478 32.3502 79.0398 31.8862 79.0238 31.3742C79.0158 31.2542 79.0118 31.0862 79.0118 30.8702C79.0118 30.6542 79.0158 30.4862 79.0238 30.3662C79.0398 29.8462 79.1478 29.3822 79.3478 28.9742C79.5558 28.5582 79.8518 28.2302 80.2358 27.9902C80.6278 27.7502 81.1118 27.6302 81.6878 27.6302C82.2638 27.6302 82.7438 27.7502 83.1278 27.9902C83.5198 28.2302 83.8158 28.5582 84.0158 28.9742C84.2238 29.3822 84.3358 29.8462 84.3518 30.3662C84.3598 30.4862 84.3638 30.6542 84.3638 30.8702C84.3638 31.0862 84.3598 31.2542 84.3518 31.3742C84.3358 31.8862 84.2238 32.3502 84.0158 32.7662C83.8158 33.1822 83.5198 33.5102 83.1278 33.7502C82.7438 33.9902 82.2638 34.1102 81.6878 34.1102ZM81.6878 33.4142C82.2478 33.4142 82.7038 33.2342 83.0558 32.8742C83.4078 32.5142 83.5958 31.9942 83.6198 31.3142C83.6278 31.1942 83.6318 31.0462 83.6318 30.8702C83.6318 30.6942 83.6278 30.5462 83.6198 30.4262C83.5958 29.7382 83.4078 29.2182 83.0558 28.8662C82.7038 28.5062 82.2478 28.3262 81.6878 28.3262C81.1278 28.3262 80.6718 28.5062 80.3198 28.8662C79.9678 29.2182 79.7798 29.7382 79.7558 30.4262C79.7478 30.5462 79.7438 30.6942 79.7438 30.8702C79.7438 31.0462 79.7478 31.1942 79.7558 31.3142C79.7798 31.9942 79.9678 32.5142 80.3198 32.8742C80.6718 33.2342 81.1278 33.4142 81.6878 33.4142ZM89.0033 34.1102C88.2753 34.1102 87.6793 33.9702 87.2153 33.6902C86.7593 33.4022 86.4193 33.0142 86.1953 32.5262C85.9713 32.0382 85.8473 31.4822 85.8232 30.8582C85.8153 30.5302 85.8113 30.1782 85.8113 29.8022C85.8113 29.4262 85.8153 29.0662 85.8232 28.7222C85.8473 28.0982 85.9713 27.5422 86.1953 27.0542C86.4193 26.5582 86.7593 26.1702 87.2153 25.8902C87.6793 25.6102 88.2753 25.4702 89.0033 25.4702C89.5713 25.4702 90.0553 25.5502 90.4553 25.7102C90.8553 25.8702 91.1793 26.0822 91.4273 26.3462C91.6833 26.6022 91.8713 26.8822 91.9913 27.1862C92.1193 27.4822 92.1913 27.7742 92.2073 28.0622C92.2153 28.1342 92.1913 28.1942 92.1353 28.2422C92.0873 28.2822 92.0273 28.3022 91.9553 28.3022H91.7153C91.6513 28.3022 91.5953 28.2862 91.5473 28.2542C91.4993 28.2142 91.4673 28.1462 91.4513 28.0502C91.2993 27.3382 91.0113 26.8502 90.5873 26.5862C90.1713 26.3222 89.6433 26.1902 89.0033 26.1902C88.2753 26.1902 87.6953 26.3982 87.2633 26.8142C86.8393 27.2222 86.6113 27.8782 86.5793 28.7822C86.5553 29.4382 86.5553 30.1102 86.5793 30.7982C86.6113 31.7022 86.8393 32.3622 87.2633 32.7782C87.6953 33.1862 88.2753 33.3902 89.0033 33.3902C89.6433 33.3902 90.1713 33.2582 90.5873 32.9942C91.0113 32.7302 91.2993 32.2422 91.4513 31.5302C91.4673 31.4342 91.4993 31.3702 91.5473 31.3382C91.5953 31.2982 91.6513 31.2782 91.7153 31.2782H91.9553C92.0273 31.2782 92.0873 31.3022 92.1353 31.3502C92.1913 31.3902 92.2153 31.4462 92.2073 31.5182C92.1913 31.8062 92.1193 32.1022 91.9913 32.4062C91.8713 32.7022 91.6833 32.9822 91.4273 33.2462C91.1793 33.5022 90.8553 33.7102 90.4553 33.8702C90.0553 34.0302 89.5713 34.1102 89.0033 34.1102ZM96.8294 33.9902C96.7494 33.9902 96.6854 33.9662 96.6374 33.9182C96.5894 33.8702 96.5654 33.8062 96.5654 33.7262V33.5462C96.5654 33.4662 96.5854 33.3902 96.6254 33.3182C96.6734 33.2382 96.7534 33.1462 96.8654 33.0422L99.9734 29.9342C100.277 29.6542 100.509 29.4102 100.669 29.2022C100.829 28.9942 100.937 28.7902 100.993 28.5902C101.057 28.3822 101.089 28.1542 101.089 27.9062C101.089 27.3702 100.933 26.9502 100.621 26.6462C100.317 26.3422 99.8814 26.1902 99.3134 26.1902C98.9534 26.1902 98.6414 26.2622 98.3774 26.4062C98.1134 26.5502 97.9054 26.7542 97.7534 27.0182C97.6014 27.2742 97.5014 27.5742 97.4534 27.9182C97.4454 28.0142 97.4094 28.0862 97.3454 28.1342C97.2814 28.1742 97.2254 28.1942 97.1774 28.1942H96.9374C96.8574 28.1942 96.7934 28.1742 96.7454 28.1342C96.7054 28.0862 96.6854 28.0302 96.6854 27.9662C96.6934 27.6942 96.7494 27.4142 96.8534 27.1262C96.9574 26.8302 97.1134 26.5582 97.3214 26.3102C97.5374 26.0622 97.8094 25.8622 98.1374 25.7102C98.4654 25.5502 98.8574 25.4702 99.3134 25.4702C99.9214 25.4702 100.409 25.5862 100.777 25.8182C101.153 26.0502 101.425 26.3502 101.593 26.7182C101.761 27.0862 101.845 27.4822 101.845 27.9062C101.845 28.2342 101.797 28.5382 101.701 28.8182C101.605 29.0902 101.461 29.3582 101.269 29.6222C101.077 29.8782 100.833 30.1422 100.537 30.4142L97.7294 33.2702H101.749C101.837 33.2702 101.905 33.2942 101.953 33.3422C102.001 33.3902 102.025 33.4582 102.025 33.5462V33.7262C102.025 33.8062 102.001 33.8702 101.953 33.9182C101.905 33.9662 101.837 33.9902 101.749 33.9902H96.8294ZM106.352 34.1102C105.808 34.1102 105.352 34.0222 104.984 33.8462C104.624 33.6702 104.332 33.4302 104.108 33.1262C103.892 32.8142 103.736 32.4582 103.64 32.0582C103.544 31.6582 103.488 31.2382 103.472 30.7982C103.472 30.5822 103.468 30.3622 103.46 30.1382C103.46 29.9142 103.46 29.6902 103.46 29.4662C103.468 29.2342 103.472 29.0062 103.472 28.7822C103.48 28.3422 103.532 27.9222 103.628 27.5222C103.732 27.1222 103.892 26.7702 104.108 26.4662C104.332 26.1542 104.624 25.9102 104.984 25.7342C105.352 25.5582 105.808 25.4702 106.352 25.4702C106.896 25.4702 107.348 25.5582 107.708 25.7342C108.076 25.9102 108.368 26.1542 108.584 26.4662C108.808 26.7702 108.968 27.1222 109.064 27.5222C109.168 27.9222 109.224 28.3422 109.232 28.7822C109.24 29.0062 109.244 29.2342 109.244 29.4662C109.244 29.6902 109.244 29.9142 109.244 30.1382C109.244 30.3622 109.24 30.5822 109.232 30.7982C109.224 31.2382 109.168 31.6582 109.064 32.0582C108.968 32.4582 108.808 32.8142 108.584 33.1262C108.368 33.4302 108.076 33.6702 107.708 33.8462C107.348 34.0222 106.896 34.1102 106.352 34.1102ZM106.352 33.3902C107.064 33.3902 107.592 33.1542 107.936 32.6822C108.28 32.2102 108.46 31.5622 108.476 30.7382C108.484 30.5062 108.488 30.2902 108.488 30.0902C108.488 29.8822 108.488 29.6782 108.488 29.4782C108.488 29.2702 108.484 29.0582 108.476 28.8422C108.46 28.0342 108.28 27.3902 107.936 26.9102C107.592 26.4302 107.064 26.1902 106.352 26.1902C105.648 26.1902 105.12 26.4302 104.768 26.9102C104.424 27.3902 104.244 28.0342 104.228 28.8422C104.228 29.0582 104.224 29.2702 104.216 29.4782C104.216 29.6782 104.216 29.8822 104.216 30.0902C104.224 30.2902 104.228 30.5062 104.228 30.7382C104.244 31.5622 104.424 32.2102 104.768 32.6822C105.12 33.1542 105.648 33.3902 106.352 33.3902ZM110.939 33.9902C110.859 33.9902 110.795 33.9662 110.747 33.9182C110.699 33.8702 110.675 33.8062 110.675 33.7262V33.5462C110.675 33.4662 110.695 33.3902 110.735 33.3182C110.783 33.2382 110.863 33.1462 110.975 33.0422L114.083 29.9342C114.387 29.6542 114.619 29.4102 114.779 29.2022C114.939 28.9942 115.047 28.7902 115.103 28.5902C115.167 28.3822 115.199 28.1542 115.199 27.9062C115.199 27.3702 115.043 26.9502 114.731 26.6462C114.427 26.3422 113.991 26.1902 113.423 26.1902C113.063 26.1902 112.751 26.2622 112.487 26.4062C112.223 26.5502 112.015 26.7542 111.863 27.0182C111.711 27.2742 111.611 27.5742 111.563 27.9182C111.555 28.0142 111.519 28.0862 111.455 28.1342C111.391 28.1742 111.335 28.1942 111.287 28.1942H111.047C110.967 28.1942 110.903 28.1742 110.855 28.1342C110.815 28.0862 110.795 28.0302 110.795 27.9662C110.803 27.6942 110.859 27.4142 110.963 27.1262C111.067 26.8302 111.223 26.5582 111.431 26.3102C111.647 26.0622 111.919 25.8622 112.247 25.7102C112.575 25.5502 112.967 25.4702 113.423 25.4702C114.031 25.4702 114.519 25.5862 114.887 25.8182C115.263 26.0502 115.535 26.3502 115.703 26.7182C115.871 27.0862 115.955 27.4822 115.955 27.9062C115.955 28.2342 115.907 28.5382 115.811 28.8182C115.715 29.0902 115.571 29.3582 115.379 29.6222C115.187 29.8782 114.943 30.1422 114.647 30.4142L111.839 33.2702H115.859C115.947 33.2702 116.015 33.2942 116.063 33.3422C116.111 33.3902 116.135 33.4582 116.135 33.5462V33.7262C116.135 33.8062 116.111 33.8702 116.063 33.9182C116.015 33.9662 115.947 33.9902 115.859 33.9902H110.939ZM121.497 33.9902C121.417 33.9902 121.353 33.9662 121.305 33.9182C121.257 33.8702 121.233 33.8062 121.233 33.7262V31.8302H117.273C117.193 31.8302 117.129 31.8062 117.081 31.7582C117.033 31.7102 117.009 31.6462 117.009 31.5662V31.3742C117.009 31.3582 117.017 31.3142 117.033 31.2422C117.049 31.1702 117.085 31.0942 117.141 31.0142L120.789 25.7942C120.885 25.6582 121.033 25.5902 121.233 25.5902H121.725C121.805 25.5902 121.869 25.6142 121.917 25.6622C121.965 25.7102 121.989 25.7742 121.989 25.8542V31.1102H123.081C123.161 31.1102 123.225 31.1342 123.273 31.1822C123.321 31.2302 123.345 31.2942 123.345 31.3742V31.5662C123.345 31.6462 123.321 31.7102 123.273 31.7582C123.225 31.8062 123.161 31.8302 123.081 31.8302H121.989V33.7262C121.989 33.8062 121.965 33.8702 121.917 33.9182C121.869 33.9662 121.805 33.9902 121.725 33.9902H121.497ZM117.957 31.1102H121.233V26.4422L117.957 31.1102Z" fill="#707070"/>
</svg>
