<svg width="124" height="38" viewBox="0 0 124 38" fill="none" xmlns="http://www.w3.org/2000/svg">
<path d="M4.368 15.1302C3.556 15.1302 2.87467 15.0089 2.324 14.7662C1.77333 14.5142 1.34867 14.1922 1.05 13.8002C0.760667 13.3989 0.606667 12.9742 0.588 12.5262C0.588 12.4516 0.616 12.3862 0.672 12.3302C0.737333 12.2649 0.812 12.2322 0.896 12.2322H1.61C1.722 12.2322 1.806 12.2602 1.862 12.3162C1.918 12.3722 1.95533 12.4376 1.974 12.5122C2.02067 12.7362 2.13267 12.9602 2.31 13.1842C2.49667 13.3989 2.75333 13.5809 3.08 13.7302C3.416 13.8702 3.84533 13.9402 4.368 13.9402C5.17067 13.9402 5.75867 13.8002 6.132 13.5202C6.51467 13.2309 6.706 12.8482 6.706 12.3722C6.706 12.0456 6.60333 11.7842 6.398 11.5882C6.202 11.3829 5.89867 11.2009 5.488 11.0422C5.07733 10.8836 4.54533 10.7109 3.892 10.5242C3.21067 10.3282 2.646 10.1136 2.198 9.88023C1.75 9.6469 1.414 9.35757 1.19 9.01223C0.975333 8.6669 0.868 8.22823 0.868 7.69623C0.868 7.19223 1.00333 6.74423 1.274 6.35223C1.54467 5.9509 1.932 5.63357 2.436 5.40023C2.94933 5.1669 3.57 5.05023 4.298 5.05023C4.87667 5.05023 5.38067 5.12957 5.81 5.28823C6.24867 5.43757 6.61267 5.6429 6.902 5.90423C7.19133 6.15623 7.41067 6.43157 7.56 6.73023C7.70933 7.01957 7.78867 7.30423 7.798 7.58423C7.798 7.64957 7.77467 7.7149 7.728 7.78023C7.68133 7.83623 7.60667 7.86423 7.504 7.86423H6.762C6.69667 7.86423 6.62667 7.84557 6.552 7.80823C6.48667 7.7709 6.43533 7.7009 6.398 7.59823C6.342 7.21557 6.12733 6.89357 5.754 6.63223C5.38067 6.3709 4.89533 6.24023 4.298 6.24023C3.69133 6.24023 3.19667 6.3569 2.814 6.59023C2.44067 6.82357 2.254 7.18757 2.254 7.68223C2.254 7.99957 2.34267 8.26557 2.52 8.48023C2.69733 8.68557 2.97733 8.86757 3.36 9.02623C3.74267 9.1849 4.242 9.3529 4.858 9.53023C5.60467 9.73557 6.216 9.9549 6.692 10.1882C7.168 10.4122 7.518 10.6969 7.742 11.0422C7.97533 11.3782 8.092 11.8122 8.092 12.3442C8.092 12.9322 7.938 13.4362 7.63 13.8562C7.322 14.2669 6.888 14.5842 6.328 14.8082C5.77733 15.0229 5.124 15.1302 4.368 15.1302ZM10.081 14.9902C9.98765 14.9902 9.90832 14.9622 9.84298 14.9062C9.78698 14.8409 9.75898 14.7616 9.75898 14.6682V5.37223C9.75898 5.2789 9.78698 5.20423 9.84298 5.14823C9.90832 5.0829 9.98765 5.05023 10.081 5.05023H10.781C10.8837 5.05023 10.963 5.0829 11.019 5.14823C11.075 5.20423 11.103 5.2789 11.103 5.37223V8.63423C11.355 8.3169 11.663 8.06023 12.027 7.86423C12.391 7.66823 12.853 7.57023 13.413 7.57023C14.0197 7.57023 14.533 7.70557 14.953 7.97623C15.3823 8.23757 15.7043 8.60623 15.919 9.08223C16.143 9.5489 16.255 10.0949 16.255 10.7202V14.6682C16.255 14.7616 16.227 14.8409 16.171 14.9062C16.115 14.9622 16.0357 14.9902 15.933 14.9902H15.233C15.1397 14.9902 15.0603 14.9622 14.995 14.9062C14.939 14.8409 14.911 14.7616 14.911 14.6682V10.7902C14.911 10.1369 14.7523 9.62823 14.435 9.26423C14.1177 8.8909 13.651 8.70423 13.035 8.70423C12.4563 8.70423 11.9897 8.8909 11.635 9.26423C11.2803 9.62823 11.103 10.1369 11.103 10.7902V14.6682C11.103 14.7616 11.075 14.8409 11.019 14.9062C10.963 14.9622 10.8837 14.9902 10.781 14.9902H10.081ZM18.5982 14.9902C18.5049 14.9902 18.4256 14.9622 18.3602 14.9062C18.3042 14.8409 18.2762 14.7616 18.2762 14.6682V8.03223C18.2762 7.9389 18.3042 7.86423 18.3602 7.80823C18.4256 7.7429 18.5049 7.71023 18.5982 7.71023H19.2702C19.3636 7.71023 19.4382 7.7429 19.4942 7.80823C19.5502 7.86423 19.5782 7.9389 19.5782 8.03223V14.6682C19.5782 14.7616 19.5502 14.8409 19.4942 14.9062C19.4382 14.9622 19.3636 14.9902 19.2702 14.9902H18.5982ZM18.4862 6.35223C18.3929 6.35223 18.3136 6.32423 18.2482 6.26823C18.1922 6.2029 18.1642 6.12357 18.1642 6.03023V5.27423C18.1642 5.1809 18.1922 5.10623 18.2482 5.05023C18.3136 4.9849 18.3929 4.95223 18.4862 4.95223H19.3682C19.4616 4.95223 19.5362 4.9849 19.5922 5.05023C19.6576 5.10623 19.6902 5.1809 19.6902 5.27423V6.03023C19.6902 6.12357 19.6576 6.2029 19.5922 6.26823C19.5362 6.32423 19.4616 6.35223 19.3682 6.35223H18.4862ZM24.2009 14.9902C24.0609 14.9902 23.9489 14.9576 23.8649 14.8922C23.7902 14.8269 23.7295 14.7429 23.6829 14.6402L21.0929 8.14423C21.0742 8.09757 21.0649 8.0509 21.0649 8.00423C21.0649 7.92023 21.0929 7.85023 21.1489 7.79423C21.2049 7.73823 21.2749 7.71023 21.3589 7.71023H22.0309C22.1335 7.71023 22.2129 7.73823 22.2689 7.79423C22.3249 7.85023 22.3575 7.90157 22.3669 7.94823L24.5089 13.4642L26.6369 7.94823C26.6555 7.90157 26.6882 7.85023 26.7349 7.79423C26.7909 7.73823 26.8702 7.71023 26.9729 7.71023H27.6589C27.7335 7.71023 27.7989 7.73823 27.8549 7.79423C27.9202 7.85023 27.9529 7.92023 27.9529 8.00423C27.9529 8.0509 27.9435 8.09757 27.9249 8.14423L25.3209 14.6402C25.2835 14.7429 25.2229 14.8269 25.1389 14.8922C25.0642 14.9576 24.9522 14.9902 24.8029 14.9902H24.2009ZM31.1754 15.1302C30.7087 15.1302 30.284 15.0369 29.9014 14.8502C29.5187 14.6636 29.2107 14.4116 28.9774 14.0942C28.744 13.7769 28.6274 13.4176 28.6274 13.0162C28.6274 12.3722 28.8887 11.8589 29.4114 11.4762C29.934 11.0936 30.6154 10.8416 31.4554 10.7202L33.5414 10.4262V10.0202C33.5414 9.57223 33.4107 9.22223 33.1494 8.97023C32.8974 8.71823 32.482 8.59223 31.9034 8.59223C31.4834 8.59223 31.1427 8.67623 30.8814 8.84423C30.6294 9.01223 30.452 9.2269 30.3494 9.48823C30.2934 9.62823 30.1954 9.69823 30.0554 9.69823H29.4254C29.3227 9.69823 29.2434 9.67023 29.1874 9.61423C29.1407 9.5489 29.1174 9.47423 29.1174 9.39023C29.1174 9.25023 29.1687 9.07757 29.2714 8.87223C29.3834 8.6669 29.5514 8.46623 29.7754 8.27023C29.9994 8.07423 30.284 7.9109 30.6294 7.78023C30.984 7.64023 31.4134 7.57023 31.9174 7.57023C32.4774 7.57023 32.9487 7.6449 33.3314 7.79423C33.714 7.93423 34.0127 8.12557 34.2274 8.36823C34.4514 8.6109 34.61 8.88623 34.7034 9.19423C34.806 9.50223 34.8574 9.8149 34.8574 10.1322V14.6682C34.8574 14.7616 34.8247 14.8409 34.7594 14.9062C34.7034 14.9622 34.6287 14.9902 34.5354 14.9902H33.8914C33.7887 14.9902 33.7094 14.9622 33.6534 14.9062C33.5974 14.8409 33.5694 14.7616 33.5694 14.6682V14.0662C33.448 14.2342 33.2847 14.4022 33.0794 14.5702C32.874 14.7289 32.6174 14.8642 32.3094 14.9762C32.0014 15.0789 31.6234 15.1302 31.1754 15.1302ZM31.4694 14.0802C31.852 14.0802 32.202 14.0009 32.5194 13.8422C32.8367 13.6742 33.084 13.4176 33.2614 13.0722C33.448 12.7269 33.5414 12.2929 33.5414 11.7702V11.3782L31.9174 11.6162C31.2547 11.7096 30.7554 11.8682 30.4194 12.0922C30.0834 12.3069 29.9154 12.5822 29.9154 12.9182C29.9154 13.1796 29.99 13.3989 30.1394 13.5762C30.298 13.7442 30.494 13.8702 30.7274 13.9542C30.97 14.0382 31.2174 14.0802 31.4694 14.0802ZM37.192 14.9902C37.0987 14.9902 37.0193 14.9622 36.954 14.9062C36.898 14.8409 36.87 14.7616 36.87 14.6682V8.03223C36.87 7.9389 36.898 7.86423 36.954 7.80823C37.0193 7.7429 37.0987 7.71023 37.192 7.71023H37.822C37.9153 7.71023 37.99 7.7429 38.046 7.80823C38.1113 7.86423 38.144 7.9389 38.144 8.03223V8.52223C38.3587 8.2329 38.6293 8.00423 38.956 7.83623C39.2827 7.6589 39.6747 7.57023 40.132 7.57023C41.1867 7.5609 41.9333 7.99023 42.372 8.85823C42.5867 8.46623 42.8993 8.15357 43.31 7.92023C43.7207 7.6869 44.1873 7.57023 44.71 7.57023C45.1953 7.57023 45.634 7.68223 46.026 7.90623C46.4273 8.13023 46.74 8.4709 46.964 8.92823C47.1973 9.37623 47.314 9.9409 47.314 10.6222V14.6682C47.314 14.7616 47.2813 14.8409 47.216 14.9062C47.16 14.9622 47.0853 14.9902 46.992 14.9902H46.334C46.2407 14.9902 46.1613 14.9622 46.096 14.9062C46.04 14.8409 46.012 14.7616 46.012 14.6682V10.7482C46.012 10.2256 45.9373 9.8149 45.788 9.51623C45.6387 9.21757 45.438 9.00757 45.186 8.88623C44.934 8.7649 44.6587 8.70423 44.36 8.70423C44.1173 8.70423 43.87 8.7649 43.618 8.88623C43.366 9.00757 43.156 9.21757 42.988 9.51623C42.8293 9.8149 42.75 10.2256 42.75 10.7482V14.6682C42.75 14.7616 42.7173 14.8409 42.652 14.9062C42.596 14.9622 42.5213 14.9902 42.428 14.9902H41.77C41.6767 14.9902 41.5973 14.9622 41.532 14.9062C41.476 14.8409 41.448 14.7616 41.448 14.6682V10.7482C41.448 10.2256 41.3687 9.8149 41.21 9.51623C41.0513 9.21757 40.846 9.00757 40.594 8.88623C40.342 8.7649 40.076 8.70423 39.796 8.70423C39.5533 8.70423 39.306 8.7649 39.054 8.88623C38.802 9.00757 38.592 9.21757 38.424 9.51623C38.2653 9.8149 38.186 10.2209 38.186 10.7342V14.6682C38.186 14.7616 38.1533 14.8409 38.088 14.9062C38.032 14.9622 37.9573 14.9902 37.864 14.9902H37.192ZM51.3414 15.1302C50.8747 15.1302 50.4501 15.0369 50.0674 14.8502C49.6847 14.6636 49.3767 14.4116 49.1434 14.0942C48.9101 13.7769 48.7934 13.4176 48.7934 13.0162C48.7934 12.3722 49.0547 11.8589 49.5774 11.4762C50.1001 11.0936 50.7814 10.8416 51.6214 10.7202L53.7074 10.4262V10.0202C53.7074 9.57223 53.5767 9.22223 53.3154 8.97023C53.0634 8.71823 52.6481 8.59223 52.0694 8.59223C51.6494 8.59223 51.3087 8.67623 51.0474 8.84423C50.7954 9.01223 50.6181 9.2269 50.5154 9.48823C50.4594 9.62823 50.3614 9.69823 50.2214 9.69823H49.5914C49.4887 9.69823 49.4094 9.67023 49.3534 9.61423C49.3067 9.5489 49.2834 9.47423 49.2834 9.39023C49.2834 9.25023 49.3347 9.07757 49.4374 8.87223C49.5494 8.6669 49.7174 8.46623 49.9414 8.27023C50.1654 8.07423 50.4501 7.9109 50.7954 7.78023C51.1501 7.64023 51.5794 7.57023 52.0834 7.57023C52.6434 7.57023 53.1147 7.6449 53.4974 7.79423C53.8801 7.93423 54.1787 8.12557 54.3934 8.36823C54.6174 8.6109 54.7761 8.88623 54.8694 9.19423C54.9721 9.50223 55.0234 9.8149 55.0234 10.1322V14.6682C55.0234 14.7616 54.9907 14.8409 54.9254 14.9062C54.8694 14.9622 54.7947 14.9902 54.7014 14.9902H54.0574C53.9547 14.9902 53.8754 14.9622 53.8194 14.9062C53.7634 14.8409 53.7354 14.7616 53.7354 14.6682V14.0662C53.6141 14.2342 53.4507 14.4022 53.2454 14.5702C53.0401 14.7289 52.7834 14.8642 52.4754 14.9762C52.1674 15.0789 51.7894 15.1302 51.3414 15.1302ZM51.6354 14.0802C52.0181 14.0802 52.3681 14.0009 52.6854 13.8422C53.0027 13.6742 53.2501 13.4176 53.4274 13.0722C53.6141 12.7269 53.7074 12.2929 53.7074 11.7702V11.3782L52.0834 11.6162C51.4207 11.7096 50.9214 11.8682 50.5854 12.0922C50.2494 12.3069 50.0814 12.5822 50.0814 12.9182C50.0814 13.1796 50.1561 13.3989 50.3054 13.5762C50.4641 13.7442 50.6601 13.8702 50.8934 13.9542C51.1361 14.0382 51.3834 14.0802 51.6354 14.0802ZM57.358 14.9902C57.2647 14.9902 57.1853 14.9622 57.12 14.9062C57.064 14.8409 57.036 14.7616 57.036 14.6682V8.03223C57.036 7.9389 57.064 7.86423 57.12 7.80823C57.1853 7.7429 57.2647 7.71023 57.358 7.71023H58.016C58.1093 7.71023 58.184 7.7429 58.24 7.80823C58.3053 7.86423 58.338 7.9389 58.338 8.03223V8.64823C58.5807 8.3309 58.884 8.07423 59.248 7.87823C59.6213 7.6729 60.0973 7.57023 60.676 7.57023C61.2827 7.57023 61.796 7.70557 62.216 7.97623C62.6453 8.23757 62.9673 8.60623 63.182 9.08223C63.3967 9.5489 63.504 10.0949 63.504 10.7202V14.6682C63.504 14.7616 63.476 14.8409 63.42 14.9062C63.364 14.9622 63.2893 14.9902 63.196 14.9902H62.496C62.4027 14.9902 62.3233 14.9622 62.258 14.9062C62.202 14.8409 62.174 14.7616 62.174 14.6682V10.7902C62.174 10.1369 62.0153 9.62823 61.698 9.26423C61.3807 8.8909 60.914 8.70423 60.298 8.70423C59.7193 8.70423 59.2527 8.8909 58.898 9.26423C58.5527 9.62823 58.38 10.1369 58.38 10.7902V14.6682C58.38 14.7616 58.3473 14.8409 58.282 14.9062C58.226 14.9622 58.1513 14.9902 58.058 14.9902H57.358ZM65.8482 14.9902C65.7549 14.9902 65.6756 14.9622 65.6102 14.9062C65.5542 14.8409 65.5262 14.7616 65.5262 14.6682V8.03223C65.5262 7.9389 65.5542 7.86423 65.6102 7.80823C65.6756 7.7429 65.7549 7.71023 65.8482 7.71023H66.5202C66.6136 7.71023 66.6882 7.7429 66.7442 7.80823C66.8002 7.86423 66.8282 7.9389 66.8282 8.03223V14.6682C66.8282 14.7616 66.8002 14.8409 66.7442 14.9062C66.6882 14.9622 66.6136 14.9902 66.5202 14.9902H65.8482ZM65.7362 6.35223C65.6429 6.35223 65.5636 6.32423 65.4982 6.26823C65.4422 6.2029 65.4142 6.12357 65.4142 6.03023V5.27423C65.4142 5.1809 65.4422 5.10623 65.4982 5.05023C65.5636 4.9849 65.6429 4.95223 65.7362 4.95223H66.6182C66.7116 4.95223 66.7862 4.9849 66.8422 5.05023C66.9076 5.10623 66.9402 5.1809 66.9402 5.27423V6.03023C66.9402 6.12357 66.9076 6.2029 66.8422 6.26823C66.7862 6.32423 66.7116 6.35223 66.6182 6.35223H65.7362ZM75.0603 14.9902C74.967 14.9902 74.8877 14.9622 74.8223 14.9062C74.7663 14.8409 74.7383 14.7616 74.7383 14.6682V11.3642L71.3643 5.65223C71.355 5.62423 71.3457 5.59623 71.3363 5.56823C71.327 5.54023 71.3223 5.50757 71.3223 5.47023C71.3223 5.39557 71.3503 5.33023 71.4063 5.27423C71.4623 5.21823 71.5277 5.19023 71.6023 5.19023H72.3303C72.4143 5.19023 72.489 5.21357 72.5543 5.26023C72.6197 5.29757 72.6663 5.35357 72.6943 5.42823L75.4243 9.96423L78.1543 5.42823C78.201 5.35357 78.2523 5.29757 78.3083 5.26023C78.3737 5.21357 78.4483 5.19023 78.5323 5.19023H79.2463C79.3303 5.19023 79.4003 5.21823 79.4563 5.27423C79.5123 5.33023 79.5403 5.39557 79.5403 5.47023C79.5403 5.50757 79.5357 5.54023 79.5263 5.56823C79.517 5.59623 79.503 5.62423 79.4843 5.65223L76.1243 11.3642V14.6682C76.1243 14.7616 76.0917 14.8409 76.0263 14.9062C75.9703 14.9622 75.891 14.9902 75.7883 14.9902H75.0603ZM81.6656 15.1302C81.1989 15.1302 80.7743 15.0369 80.3916 14.8502C80.0089 14.6636 79.7009 14.4116 79.4676 14.0942C79.2343 13.7769 79.1176 13.4176 79.1176 13.0162C79.1176 12.3722 79.3789 11.8589 79.9016 11.4762C80.4243 11.0936 81.1056 10.8416 81.9456 10.7202L84.0316 10.4262V10.0202C84.0316 9.57223 83.9009 9.22223 83.6396 8.97023C83.3876 8.71823 82.9723 8.59223 82.3936 8.59223C81.9736 8.59223 81.6329 8.67623 81.3716 8.84423C81.1196 9.01223 80.9423 9.2269 80.8396 9.48823C80.7836 9.62823 80.6856 9.69823 80.5456 9.69823H79.9156C79.8129 9.69823 79.7336 9.67023 79.6776 9.61423C79.6309 9.5489 79.6076 9.47423 79.6076 9.39023C79.6076 9.25023 79.6589 9.07757 79.7616 8.87223C79.8736 8.6669 80.0416 8.46623 80.2656 8.27023C80.4896 8.07423 80.7743 7.9109 81.1196 7.78023C81.4743 7.64023 81.9036 7.57023 82.4076 7.57023C82.9676 7.57023 83.4389 7.6449 83.8216 7.79423C84.2043 7.93423 84.5029 8.12557 84.7176 8.36823C84.9416 8.6109 85.1003 8.88623 85.1936 9.19423C85.2963 9.50223 85.3476 9.8149 85.3476 10.1322V14.6682C85.3476 14.7616 85.3149 14.8409 85.2496 14.9062C85.1936 14.9622 85.1189 14.9902 85.0256 14.9902H84.3816C84.2789 14.9902 84.1996 14.9622 84.1436 14.9062C84.0876 14.8409 84.0596 14.7616 84.0596 14.6682V14.0662C83.9383 14.2342 83.7749 14.4022 83.5696 14.5702C83.3643 14.7289 83.1076 14.8642 82.7996 14.9762C82.4916 15.0789 82.1136 15.1302 81.6656 15.1302ZM81.9596 14.0802C82.3423 14.0802 82.6923 14.0009 83.0096 13.8422C83.3269 13.6742 83.5743 13.4176 83.7516 13.0722C83.9383 12.7269 84.0316 12.2929 84.0316 11.7702V11.3782L82.4076 11.6162C81.7449 11.7096 81.2456 11.8682 80.9096 12.0922C80.5736 12.3069 80.4056 12.5822 80.4056 12.9182C80.4056 13.1796 80.4803 13.3989 80.6296 13.5762C80.7883 13.7442 80.9843 13.8702 81.2176 13.9542C81.4603 14.0382 81.7076 14.0802 81.9596 14.0802ZM87.6822 14.9902C87.5889 14.9902 87.5096 14.9622 87.4442 14.9062C87.3882 14.8409 87.3602 14.7616 87.3602 14.6682V8.03223C87.3602 7.9389 87.3882 7.86423 87.4442 7.80823C87.5096 7.7429 87.5889 7.71023 87.6822 7.71023H88.3122C88.4056 7.71023 88.4802 7.7429 88.5362 7.80823C88.6016 7.86423 88.6342 7.9389 88.6342 8.03223V8.52223C88.8489 8.2329 89.1196 8.00423 89.4462 7.83623C89.7729 7.6589 90.1649 7.57023 90.6222 7.57023C91.6769 7.5609 92.4236 7.99023 92.8622 8.85823C93.0769 8.46623 93.3896 8.15357 93.8002 7.92023C94.2109 7.6869 94.6776 7.57023 95.2002 7.57023C95.6856 7.57023 96.1242 7.68223 96.5162 7.90623C96.9176 8.13023 97.2302 8.4709 97.4542 8.92823C97.6876 9.37623 97.8042 9.9409 97.8042 10.6222V14.6682C97.8042 14.7616 97.7716 14.8409 97.7062 14.9062C97.6502 14.9622 97.5756 14.9902 97.4822 14.9902H96.8242C96.7309 14.9902 96.6516 14.9622 96.5862 14.9062C96.5302 14.8409 96.5022 14.7616 96.5022 14.6682V10.7482C96.5022 10.2256 96.4276 9.8149 96.2782 9.51623C96.1289 9.21757 95.9282 9.00757 95.6762 8.88623C95.4242 8.7649 95.1489 8.70423 94.8502 8.70423C94.6076 8.70423 94.3602 8.7649 94.1082 8.88623C93.8562 9.00757 93.6462 9.21757 93.4782 9.51623C93.3196 9.8149 93.2402 10.2256 93.2402 10.7482V14.6682C93.2402 14.7616 93.2076 14.8409 93.1422 14.9062C93.0862 14.9622 93.0116 14.9902 92.9182 14.9902H92.2602C92.1669 14.9902 92.0876 14.9622 92.0222 14.9062C91.9662 14.8409 91.9382 14.7616 91.9382 14.6682V10.7482C91.9382 10.2256 91.8589 9.8149 91.7002 9.51623C91.5416 9.21757 91.3362 9.00757 91.0842 8.88623C90.8322 8.7649 90.5662 8.70423 90.2862 8.70423C90.0436 8.70423 89.7962 8.7649 89.5442 8.88623C89.2922 9.00757 89.0822 9.21757 88.9142 9.51623C88.7556 9.8149 88.6762 10.2209 88.6762 10.7342V14.6682C88.6762 14.7616 88.6436 14.8409 88.5782 14.9062C88.5222 14.9622 88.4476 14.9902 88.3542 14.9902H87.6822ZM101.832 15.1302C101.365 15.1302 100.94 15.0369 100.558 14.8502C100.175 14.6636 99.867 14.4116 99.6336 14.0942C99.4003 13.7769 99.2836 13.4176 99.2836 13.0162C99.2836 12.3722 99.545 11.8589 100.068 11.4762C100.59 11.0936 101.272 10.8416 102.112 10.7202L104.198 10.4262V10.0202C104.198 9.57223 104.067 9.22223 103.806 8.97023C103.554 8.71823 103.138 8.59223 102.56 8.59223C102.14 8.59223 101.799 8.67623 101.538 8.84423C101.286 9.01223 101.108 9.2269 101.006 9.48823C100.95 9.62823 100.852 9.69823 100.712 9.69823H100.082C99.979 9.69823 99.8996 9.67023 99.8436 9.61423C99.797 9.5489 99.7736 9.47423 99.7736 9.39023C99.7736 9.25023 99.825 9.07757 99.9276 8.87223C100.04 8.6669 100.208 8.46623 100.432 8.27023C100.656 8.07423 100.94 7.9109 101.286 7.78023C101.64 7.64023 102.07 7.57023 102.574 7.57023C103.134 7.57023 103.605 7.6449 103.988 7.79423C104.37 7.93423 104.669 8.12557 104.884 8.36823C105.108 8.6109 105.266 8.88623 105.36 9.19423C105.462 9.50223 105.514 9.8149 105.514 10.1322V14.6682C105.514 14.7616 105.481 14.8409 105.416 14.9062C105.36 14.9622 105.285 14.9902 105.192 14.9902H104.548C104.445 14.9902 104.366 14.9622 104.31 14.9062C104.254 14.8409 104.226 14.7616 104.226 14.6682V14.0662C104.104 14.2342 103.941 14.4022 103.736 14.5702C103.53 14.7289 103.274 14.8642 102.966 14.9762C102.658 15.0789 102.28 15.1302 101.832 15.1302ZM102.126 14.0802C102.508 14.0802 102.858 14.0009 103.176 13.8422C103.493 13.6742 103.74 13.4176 103.918 13.0722C104.104 12.7269 104.198 12.2929 104.198 11.7702V11.3782L102.574 11.6162C101.911 11.7096 101.412 11.8682 101.076 12.0922C100.74 12.3069 100.572 12.5822 100.572 12.9182C100.572 13.1796 100.646 13.3989 100.796 13.5762C100.954 13.7442 101.15 13.8702 101.384 13.9542C101.626 14.0382 101.874 14.0802 102.126 14.0802ZM107.848 14.9902C107.755 14.9902 107.676 14.9622 107.61 14.9062C107.554 14.8409 107.526 14.7616 107.526 14.6682V8.03223C107.526 7.9389 107.554 7.86423 107.61 7.80823C107.676 7.7429 107.755 7.71023 107.848 7.71023H108.506C108.6 7.71023 108.674 7.7429 108.73 7.80823C108.796 7.86423 108.828 7.9389 108.828 8.03223V8.64823C109.071 8.3309 109.374 8.07423 109.738 7.87823C110.112 7.6729 110.588 7.57023 111.166 7.57023C111.773 7.57023 112.286 7.70557 112.706 7.97623C113.136 8.23757 113.458 8.60623 113.672 9.08223C113.887 9.5489 113.994 10.0949 113.994 10.7202V14.6682C113.994 14.7616 113.966 14.8409 113.91 14.9062C113.854 14.9622 113.78 14.9902 113.686 14.9902H112.986C112.893 14.9902 112.814 14.9622 112.748 14.9062C112.692 14.8409 112.664 14.7616 112.664 14.6682V10.7902C112.664 10.1369 112.506 9.62823 112.188 9.26423C111.871 8.8909 111.404 8.70423 110.788 8.70423C110.21 8.70423 109.743 8.8909 109.388 9.26423C109.043 9.62823 108.87 10.1369 108.87 10.7902V14.6682C108.87 14.7616 108.838 14.8409 108.772 14.9062C108.716 14.9622 108.642 14.9902 108.548 14.9902H107.848ZM118.046 15.1302C117.58 15.1302 117.155 15.0369 116.772 14.8502C116.39 14.6636 116.082 14.4116 115.848 14.0942C115.615 13.7769 115.498 13.4176 115.498 13.0162C115.498 12.3722 115.76 11.8589 116.282 11.4762C116.805 11.0936 117.486 10.8416 118.326 10.7202L120.412 10.4262V10.0202C120.412 9.57223 120.282 9.22223 120.02 8.97023C119.768 8.71823 119.353 8.59223 118.774 8.59223C118.354 8.59223 118.014 8.67623 117.752 8.84423C117.5 9.01223 117.323 9.2269 117.22 9.48823C117.164 9.62823 117.066 9.69823 116.926 9.69823H116.296C116.194 9.69823 116.114 9.67023 116.058 9.61423C116.012 9.5489 115.988 9.47423 115.988 9.39023C115.988 9.25023 116.04 9.07757 116.142 8.87223C116.254 8.6669 116.422 8.46623 116.646 8.27023C116.87 8.07423 117.155 7.9109 117.5 7.78023C117.855 7.64023 118.284 7.57023 118.788 7.57023C119.348 7.57023 119.82 7.6449 120.202 7.79423C120.585 7.93423 120.884 8.12557 121.098 8.36823C121.322 8.6109 121.481 8.88623 121.574 9.19423C121.677 9.50223 121.728 9.8149 121.728 10.1322V14.6682C121.728 14.7616 121.696 14.8409 121.63 14.9062C121.574 14.9622 121.5 14.9902 121.406 14.9902H120.762C120.66 14.9902 120.58 14.9622 120.524 14.9062C120.468 14.8409 120.44 14.7616 120.44 14.6682V14.0662C120.319 14.2342 120.156 14.4022 119.95 14.5702C119.745 14.7289 119.488 14.8642 119.18 14.9762C118.872 15.0789 118.494 15.1302 118.046 15.1302ZM118.34 14.0802C118.723 14.0802 119.073 14.0009 119.39 13.8422C119.708 13.6742 119.955 13.4176 120.132 13.0722C120.319 12.7269 120.412 12.2929 120.412 11.7702V11.3782L118.788 11.6162C118.126 11.7096 117.626 11.8682 117.29 12.0922C116.954 12.3069 116.786 12.5822 116.786 12.9182C116.786 13.1796 116.861 13.3989 117.01 13.5762C117.169 13.7442 117.365 13.8702 117.598 13.9542C117.841 14.0382 118.088 14.0802 118.34 14.0802Z" fill="#292929"/>
<path d="M1.392 33.9902C1.312 33.9902 1.248 33.9662 1.2 33.9182C1.152 33.8702 1.128 33.8062 1.128 33.7262V25.8662C1.128 25.7782 1.152 25.7102 1.2 25.6622C1.248 25.6142 1.312 25.5902 1.392 25.5902H4.308C4.868 25.5902 5.352 25.6862 5.76 25.8782C6.176 26.0622 6.496 26.3382 6.72 26.7062C6.952 27.0742 7.068 27.5302 7.068 28.0742C7.068 28.6182 6.952 29.0742 6.72 29.4422C6.496 29.8102 6.176 30.0902 5.76 30.2822C5.352 30.4662 4.868 30.5582 4.308 30.5582H1.884V33.7262C1.884 33.8062 1.86 33.8702 1.812 33.9182C1.764 33.9662 1.696 33.9902 1.608 33.9902H1.392ZM1.884 29.8382H4.248C4.944 29.8382 5.46 29.6862 5.796 29.3822C6.14 29.0782 6.312 28.6422 6.312 28.0742C6.312 27.5062 6.14 27.0702 5.796 26.7662C5.46 26.4622 4.944 26.3102 4.248 26.3102H1.884V29.8382ZM10.0817 34.1102C9.69769 34.1102 9.34169 34.0302 9.01369 33.8702C8.69369 33.7102 8.43369 33.4982 8.23369 33.2342C8.03369 32.9622 7.93369 32.6582 7.93369 32.3222C7.93369 31.7782 8.15369 31.3422 8.59369 31.0142C9.03369 30.6862 9.60569 30.4742 10.3097 30.3782L12.2057 30.1142V29.6942C12.2057 29.2702 12.0737 28.9382 11.8097 28.6982C11.5537 28.4502 11.1417 28.3262 10.5737 28.3262C10.1577 28.3262 9.82169 28.4102 9.56569 28.5782C9.30969 28.7382 9.13369 28.9502 9.03769 29.2142C8.99769 29.3342 8.92169 29.3942 8.80969 29.3942H8.61769C8.52169 29.3942 8.45369 29.3702 8.41369 29.3222C8.37369 29.2662 8.35369 29.2022 8.35369 29.1302C8.35369 29.0182 8.39369 28.8782 8.47369 28.7102C8.56169 28.5422 8.69369 28.3782 8.86969 28.2182C9.04569 28.0502 9.27369 27.9102 9.55369 27.7982C9.83369 27.6862 10.1737 27.6302 10.5737 27.6302C11.0457 27.6302 11.4337 27.6942 11.7377 27.8222C12.0497 27.9502 12.2897 28.1182 12.4577 28.3262C12.6337 28.5262 12.7577 28.7502 12.8297 28.9982C12.9017 29.2462 12.9377 29.4902 12.9377 29.7302V33.7262C12.9377 33.8062 12.9137 33.8702 12.8657 33.9182C12.8177 33.9662 12.7537 33.9902 12.6737 33.9902H12.4697C12.3897 33.9902 12.3257 33.9662 12.2777 33.9182C12.2297 33.8702 12.2057 33.8062 12.2057 33.7262V33.1622C12.1097 33.3062 11.9737 33.4502 11.7977 33.5942C11.6217 33.7382 11.3937 33.8622 11.1137 33.9662C10.8417 34.0622 10.4977 34.1102 10.0817 34.1102ZM10.2017 33.4142C10.5697 33.4142 10.9057 33.3342 11.2097 33.1742C11.5137 33.0142 11.7537 32.7702 11.9297 32.4422C12.1137 32.1062 12.2057 31.6862 12.2057 31.1822V30.7742L10.6577 30.9902C10.0017 31.0782 9.50569 31.2302 9.16969 31.4462C8.83369 31.6622 8.66569 31.9342 8.66569 32.2622C8.66569 32.5262 8.74169 32.7422 8.89369 32.9102C9.04569 33.0782 9.23769 33.2062 9.46969 33.2942C9.70969 33.3742 9.95369 33.4142 10.2017 33.4142ZM15.0993 33.9902C15.0193 33.9902 14.9553 33.9662 14.9073 33.9182C14.8593 33.8702 14.8353 33.8062 14.8353 33.7262V28.0262C14.8353 27.9462 14.8593 27.8822 14.9073 27.8342C14.9553 27.7782 15.0193 27.7502 15.0993 27.7502H15.2913C15.3713 27.7502 15.4353 27.7782 15.4833 27.8342C15.5393 27.8822 15.5673 27.9462 15.5673 28.0262V28.5782C15.7113 28.2982 15.9193 28.0902 16.1913 27.9542C16.4633 27.8182 16.7993 27.7502 17.1993 27.7502H17.6433C17.7233 27.7502 17.7873 27.7742 17.8353 27.8222C17.8833 27.8702 17.9073 27.9342 17.9073 28.0142V28.1822C17.9073 28.2622 17.8833 28.3262 17.8353 28.3742C17.7873 28.4222 17.7233 28.4462 17.6433 28.4462H17.1273C16.6473 28.4462 16.2673 28.5862 15.9873 28.8662C15.7073 29.1462 15.5673 29.5262 15.5673 30.0062V33.7262C15.5673 33.8062 15.5393 33.8702 15.4833 33.9182C15.4353 33.9662 15.3713 33.9902 15.2913 33.9902H15.0993ZM21.1072 33.9902C20.6912 33.9902 20.3632 33.9022 20.1232 33.7262C19.8832 33.5502 19.7152 33.3102 19.6192 33.0062C19.5232 32.7022 19.4752 32.3622 19.4752 31.9862V28.4462H18.5392C18.4592 28.4462 18.3952 28.4222 18.3472 28.3742C18.2992 28.3262 18.2752 28.2622 18.2752 28.1822V28.0142C18.2752 27.9342 18.2992 27.8702 18.3472 27.8222C18.3952 27.7742 18.4592 27.7502 18.5392 27.7502H19.4752V25.7342C19.4752 25.6542 19.4992 25.5902 19.5472 25.5422C19.5952 25.4942 19.6592 25.4702 19.7392 25.4702H19.9432C20.0232 25.4702 20.0872 25.4942 20.1352 25.5422C20.1832 25.5902 20.2072 25.6542 20.2072 25.7342V27.7502H21.6952C21.7752 27.7502 21.8392 27.7742 21.8872 27.8222C21.9352 27.8702 21.9592 27.9342 21.9592 28.0142V28.1822C21.9592 28.2622 21.9352 28.3262 21.8872 28.3742C21.8392 28.4222 21.7752 28.4462 21.6952 28.4462H20.2072V31.9382C20.2072 32.3622 20.2752 32.6942 20.4112 32.9342C20.5552 33.1742 20.8072 33.2942 21.1672 33.2942H21.8152C21.8952 33.2942 21.9592 33.3182 22.0072 33.3662C22.0552 33.4142 22.0792 33.4782 22.0792 33.5582V33.7262C22.0792 33.8062 22.0552 33.8702 22.0072 33.9182C21.9592 33.9662 21.8952 33.9902 21.8152 33.9902H21.1072ZM23.5837 33.9902C23.5037 33.9902 23.4397 33.9662 23.3917 33.9182C23.3437 33.8702 23.3197 33.8062 23.3197 33.7262V28.0142C23.3197 27.9342 23.3437 27.8702 23.3917 27.8222C23.4397 27.7742 23.5037 27.7502 23.5837 27.7502H23.7877C23.8677 27.7502 23.9317 27.7742 23.9797 27.8222C24.0277 27.8702 24.0517 27.9342 24.0517 28.0142V33.7262C24.0517 33.8062 24.0277 33.8702 23.9797 33.9182C23.9317 33.9662 23.8677 33.9902 23.7877 33.9902H23.5837ZM23.4517 26.4662C23.3717 26.4662 23.3077 26.4422 23.2597 26.3942C23.2117 26.3462 23.1877 26.2822 23.1877 26.2022V25.7462C23.1877 25.6662 23.2117 25.6022 23.2597 25.5542C23.3077 25.4982 23.3717 25.4702 23.4517 25.4702H23.9077C23.9877 25.4702 24.0517 25.4982 24.0997 25.5542C24.1557 25.6022 24.1837 25.6662 24.1837 25.7462V26.2022C24.1837 26.2822 24.1557 26.3462 24.0997 26.3942C24.0517 26.4422 23.9877 26.4662 23.9077 26.4662H23.4517ZM28.3555 34.1102C27.7955 34.1102 27.3195 34.0022 26.9275 33.7862C26.5355 33.5622 26.2355 33.2422 26.0275 32.8262C25.8275 32.4102 25.7195 31.9182 25.7035 31.3502C25.6955 31.2302 25.6915 31.0702 25.6915 30.8702C25.6915 30.6702 25.6955 30.5102 25.7035 30.3902C25.7195 29.8142 25.8275 29.3222 26.0275 28.9142C26.2355 28.4982 26.5355 28.1822 26.9275 27.9662C27.3195 27.7422 27.7955 27.6302 28.3555 27.6302C28.7795 27.6302 29.1435 27.6902 29.4475 27.8102C29.7595 27.9222 30.0155 28.0742 30.2155 28.2662C30.4155 28.4502 30.5675 28.6542 30.6715 28.8782C30.7755 29.1022 30.8315 29.3222 30.8395 29.5382C30.8475 29.6182 30.8235 29.6822 30.7675 29.7302C30.7115 29.7782 30.6475 29.8022 30.5755 29.8022H30.4075C30.3275 29.8022 30.2675 29.7862 30.2275 29.7542C30.1955 29.7142 30.1595 29.6462 30.1195 29.5502C29.9515 29.0942 29.7195 28.7782 29.4235 28.6022C29.1355 28.4182 28.7795 28.3262 28.3555 28.3262C27.8115 28.3262 27.3595 28.4942 26.9995 28.8302C26.6475 29.1582 26.4595 29.6982 26.4355 30.4502C26.4195 30.7302 26.4195 31.0102 26.4355 31.2902C26.4595 32.0422 26.6475 32.5862 26.9995 32.9222C27.3595 33.2502 27.8115 33.4142 28.3555 33.4142C28.7795 33.4142 29.1355 33.3262 29.4235 33.1502C29.7195 32.9662 29.9515 32.6462 30.1195 32.1902C30.1595 32.0942 30.1955 32.0302 30.2275 31.9982C30.2675 31.9582 30.3275 31.9382 30.4075 31.9382H30.5755C30.6475 31.9382 30.7115 31.9622 30.7675 32.0102C30.8235 32.0582 30.8475 32.1222 30.8395 32.2022C30.8315 32.3782 30.7955 32.5542 30.7315 32.7302C30.6675 32.9062 30.5675 33.0782 30.4315 33.2462C30.3035 33.4142 30.1435 33.5622 29.9515 33.6902C29.7595 33.8182 29.5275 33.9182 29.2555 33.9902C28.9915 34.0702 28.6915 34.1102 28.3555 34.1102ZM32.6891 33.9902C32.6091 33.9902 32.5451 33.9662 32.4971 33.9182C32.4491 33.8702 32.4251 33.8062 32.4251 33.7262V28.0142C32.4251 27.9342 32.4491 27.8702 32.4971 27.8222C32.5451 27.7742 32.6091 27.7502 32.6891 27.7502H32.8931C32.9731 27.7502 33.0371 27.7742 33.0851 27.8222C33.1331 27.8702 33.1571 27.9342 33.1571 28.0142V33.7262C33.1571 33.8062 33.1331 33.8702 33.0851 33.9182C33.0371 33.9662 32.9731 33.9902 32.8931 33.9902H32.6891ZM32.5571 26.4662C32.4771 26.4662 32.4131 26.4422 32.3651 26.3942C32.3171 26.3462 32.2931 26.2822 32.2931 26.2022V25.7462C32.2931 25.6662 32.3171 25.6022 32.3651 25.5542C32.4131 25.4982 32.4771 25.4702 32.5571 25.4702H33.0131C33.0931 25.4702 33.1571 25.4982 33.2051 25.5542C33.2611 25.6022 33.2891 25.6662 33.2891 25.7462V26.2022C33.2891 26.2822 33.2611 26.3462 33.2051 26.3942C33.1571 26.4422 33.0931 26.4662 33.0131 26.4662H32.5571ZM35.373 36.2702C35.293 36.2702 35.229 36.2462 35.181 36.1982C35.133 36.1502 35.109 36.0862 35.109 36.0062V28.0142C35.109 27.9342 35.133 27.8702 35.181 27.8222C35.229 27.7742 35.293 27.7502 35.373 27.7502H35.577C35.657 27.7502 35.721 27.7742 35.769 27.8222C35.817 27.8702 35.841 27.9342 35.841 28.0142V28.5782C36.041 28.3062 36.301 28.0822 36.621 27.9062C36.949 27.7222 37.361 27.6302 37.857 27.6302C38.329 27.6302 38.725 27.7142 39.045 27.8822C39.365 28.0422 39.625 28.2582 39.825 28.5302C40.025 28.8022 40.173 29.1062 40.269 29.4422C40.365 29.7782 40.417 30.1222 40.425 30.4742C40.433 30.5942 40.437 30.7262 40.437 30.8702C40.437 31.0142 40.433 31.1462 40.425 31.2662C40.417 31.6182 40.365 31.9622 40.269 32.2982C40.173 32.6342 40.025 32.9382 39.825 33.2102C39.625 33.4822 39.365 33.7022 39.045 33.8702C38.725 34.0302 38.329 34.1102 37.857 34.1102C37.361 34.1102 36.949 34.0182 36.621 33.8342C36.301 33.6502 36.041 33.4262 35.841 33.1622V36.0062C35.841 36.0862 35.817 36.1502 35.769 36.1982C35.721 36.2462 35.657 36.2702 35.577 36.2702H35.373ZM37.785 33.4142C38.257 33.4142 38.629 33.3102 38.901 33.1022C39.173 32.8942 39.369 32.6222 39.489 32.2862C39.609 31.9502 39.677 31.5902 39.693 31.2062C39.701 30.9822 39.701 30.7582 39.693 30.5342C39.677 30.1502 39.609 29.7902 39.489 29.4542C39.369 29.1182 39.173 28.8462 38.901 28.6382C38.629 28.4302 38.257 28.3262 37.785 28.3262C37.329 28.3262 36.961 28.4342 36.681 28.6502C36.401 28.8662 36.193 29.1382 36.057 29.4662C35.929 29.7862 35.857 30.1102 35.841 30.4382C35.833 30.5582 35.829 30.7142 35.829 30.9062C35.829 31.0982 35.833 31.2542 35.841 31.3742C35.849 31.6942 35.921 32.0102 36.057 32.3222C36.201 32.6342 36.413 32.8942 36.693 33.1022C36.981 33.3102 37.345 33.4142 37.785 33.4142ZM43.7497 34.1102C43.3657 34.1102 43.0097 34.0302 42.6817 33.8702C42.3617 33.7102 42.1017 33.4982 41.9017 33.2342C41.7017 32.9622 41.6017 32.6582 41.6017 32.3222C41.6017 31.7782 41.8217 31.3422 42.2617 31.0142C42.7017 30.6862 43.2737 30.4742 43.9777 30.3782L45.8737 30.1142V29.6942C45.8737 29.2702 45.7417 28.9382 45.4777 28.6982C45.2217 28.4502 44.8097 28.3262 44.2417 28.3262C43.8257 28.3262 43.4897 28.4102 43.2337 28.5782C42.9777 28.7382 42.8017 28.9502 42.7057 29.2142C42.6657 29.3342 42.5897 29.3942 42.4777 29.3942H42.2857C42.1897 29.3942 42.1217 29.3702 42.0817 29.3222C42.0417 29.2662 42.0217 29.2022 42.0217 29.1302C42.0217 29.0182 42.0617 28.8782 42.1417 28.7102C42.2297 28.5422 42.3617 28.3782 42.5377 28.2182C42.7137 28.0502 42.9417 27.9102 43.2217 27.7982C43.5017 27.6862 43.8417 27.6302 44.2417 27.6302C44.7137 27.6302 45.1017 27.6942 45.4057 27.8222C45.7177 27.9502 45.9577 28.1182 46.1257 28.3262C46.3017 28.5262 46.4257 28.7502 46.4977 28.9982C46.5697 29.2462 46.6057 29.4902 46.6057 29.7302V33.7262C46.6057 33.8062 46.5817 33.8702 46.5337 33.9182C46.4857 33.9662 46.4217 33.9902 46.3417 33.9902H46.1377C46.0577 33.9902 45.9937 33.9662 45.9457 33.9182C45.8977 33.8702 45.8737 33.8062 45.8737 33.7262V33.1622C45.7777 33.3062 45.6417 33.4502 45.4657 33.5942C45.2897 33.7382 45.0617 33.8622 44.7817 33.9662C44.5097 34.0622 44.1657 34.1102 43.7497 34.1102ZM43.8697 33.4142C44.2377 33.4142 44.5737 33.3342 44.8777 33.1742C45.1817 33.0142 45.4217 32.7702 45.5977 32.4422C45.7817 32.1062 45.8737 31.6862 45.8737 31.1822V30.7742L44.3257 30.9902C43.6697 31.0782 43.1737 31.2302 42.8377 31.4462C42.5017 31.6622 42.3337 31.9342 42.3337 32.2622C42.3337 32.5262 42.4097 32.7422 42.5617 32.9102C42.7137 33.0782 42.9057 33.2062 43.1377 33.2942C43.3777 33.3742 43.6217 33.4142 43.8697 33.4142ZM48.7673 33.9902C48.6873 33.9902 48.6233 33.9662 48.5753 33.9182C48.5273 33.8702 48.5033 33.8062 48.5033 33.7262V28.0142C48.5033 27.9342 48.5273 27.8702 48.5753 27.8222C48.6233 27.7742 48.6873 27.7502 48.7673 27.7502H48.9713C49.0513 27.7502 49.1153 27.7742 49.1633 27.8222C49.2113 27.8702 49.2353 27.9342 49.2353 28.0142V28.5782C49.4513 28.2982 49.7113 28.0702 50.0153 27.8942C50.3273 27.7182 50.7393 27.6302 51.2513 27.6302C51.7953 27.6302 52.2473 27.7502 52.6073 27.9902C52.9753 28.2222 53.2473 28.5422 53.4233 28.9502C53.6073 29.3502 53.6992 29.8062 53.6992 30.3182V33.7262C53.6992 33.8062 53.6753 33.8702 53.6273 33.9182C53.5793 33.9662 53.5153 33.9902 53.4353 33.9902H53.2313C53.1513 33.9902 53.0873 33.9662 53.0393 33.9182C52.9913 33.8702 52.9673 33.8062 52.9673 33.7262V30.3782C52.9673 29.7382 52.8113 29.2382 52.4993 28.8782C52.1873 28.5102 51.7313 28.3262 51.1313 28.3262C50.5633 28.3262 50.1033 28.5102 49.7513 28.8782C49.4073 29.2382 49.2353 29.7382 49.2353 30.3782V33.7262C49.2353 33.8062 49.2113 33.8702 49.1633 33.9182C49.1153 33.9662 49.0513 33.9902 48.9713 33.9902H48.7673ZM57.5876 33.9902C57.1716 33.9902 56.8436 33.9022 56.6036 33.7262C56.3636 33.5502 56.1956 33.3102 56.0996 33.0062C56.0036 32.7022 55.9556 32.3622 55.9556 31.9862V28.4462H55.0196C54.9396 28.4462 54.8756 28.4222 54.8276 28.3742C54.7796 28.3262 54.7556 28.2622 54.7556 28.1822V28.0142C54.7556 27.9342 54.7796 27.8702 54.8276 27.8222C54.8756 27.7742 54.9396 27.7502 55.0196 27.7502H55.9556V25.7342C55.9556 25.6542 55.9796 25.5902 56.0276 25.5422C56.0756 25.4942 56.1396 25.4702 56.2196 25.4702H56.4236C56.5036 25.4702 56.5676 25.4942 56.6156 25.5422C56.6636 25.5902 56.6876 25.6542 56.6876 25.7342V27.7502H58.1756C58.2556 27.7502 58.3196 27.7742 58.3676 27.8222C58.4156 27.8702 58.4396 27.9342 58.4396 28.0142V28.1822C58.4396 28.2622 58.4156 28.3262 58.3676 28.3742C58.3196 28.4222 58.2556 28.4462 58.1756 28.4462H56.6876V31.9382C56.6876 32.3622 56.7556 32.6942 56.8916 32.9342C57.0356 33.1742 57.2876 33.2942 57.6476 33.2942H58.2956C58.3756 33.2942 58.4396 33.3182 58.4876 33.3662C58.5356 33.4142 58.5596 33.4782 58.5596 33.5582V33.7262C58.5596 33.8062 58.5356 33.8702 58.4876 33.9182C58.4396 33.9662 58.3756 33.9902 58.2956 33.9902H57.5876ZM59.7041 34.8902C59.6401 34.8902 59.5921 34.8662 59.5601 34.8182C59.5361 34.7702 59.5281 34.7102 59.5361 34.6382L59.7641 33.1982C59.7801 33.1022 59.8081 33.0262 59.8481 32.9702C59.8961 32.9062 59.9681 32.8742 60.0641 32.8742H60.6041C60.6601 32.8742 60.7041 32.8942 60.7361 32.9342C60.7681 32.9742 60.7841 33.0182 60.7841 33.0662C60.7841 33.1382 60.7681 33.2102 60.7361 33.2822L60.2201 34.6382C60.1881 34.7182 60.1481 34.7782 60.1001 34.8182C60.0601 34.8662 59.9961 34.8902 59.9081 34.8902H59.7041ZM67.6811 33.9902C67.6011 33.9902 67.5371 33.9662 67.4891 33.9182C67.4411 33.8702 67.4171 33.8062 67.4171 33.7262V26.3102H65.0411C64.9611 26.3102 64.8971 26.2862 64.8491 26.2382C64.8011 26.1902 64.7771 26.1262 64.7771 26.0462V25.8662C64.7771 25.7782 64.8011 25.7102 64.8491 25.6622C64.8971 25.6142 64.9611 25.5902 65.0411 25.5902H70.5371C70.6251 25.5902 70.6931 25.6142 70.7411 25.6622C70.7891 25.7102 70.8131 25.7782 70.8131 25.8662V26.0462C70.8131 26.1262 70.7891 26.1902 70.7411 26.2382C70.6931 26.2862 70.6251 26.3102 70.5371 26.3102H68.1731V33.7262C68.1731 33.8062 68.1491 33.8702 68.1011 33.9182C68.0531 33.9662 67.9851 33.9902 67.8971 33.9902H67.6811ZM74.7222 34.1102C74.0742 34.1102 73.5222 34.0062 73.0662 33.7982C72.6182 33.5902 72.2742 33.3222 72.0342 32.9942C71.7942 32.6662 71.6662 32.3182 71.6502 31.9502C71.6502 31.8862 71.6742 31.8302 71.7222 31.7822C71.7702 31.7342 71.8302 31.7102 71.9022 31.7102H72.1422C72.2222 31.7102 72.2822 31.7342 72.3222 31.7822C72.3702 31.8302 72.3982 31.8862 72.4062 31.9502C72.4382 32.1742 72.5382 32.3982 72.7062 32.6222C72.8742 32.8382 73.1222 33.0222 73.4502 33.1742C73.7782 33.3182 74.2022 33.3902 74.7222 33.3902C75.5062 33.3902 76.0782 33.2502 76.4382 32.9702C76.7982 32.6822 76.9782 32.2982 76.9782 31.8182C76.9782 31.4982 76.8822 31.2422 76.6902 31.0502C76.5062 30.8502 76.2222 30.6742 75.8382 30.5222C75.4542 30.3622 74.9622 30.1862 74.3622 29.9942C73.7942 29.8102 73.3262 29.6222 72.9582 29.4302C72.5902 29.2302 72.3182 28.9902 72.1422 28.7102C71.9742 28.4302 71.8902 28.0702 71.8902 27.6302C71.8902 27.2222 71.9982 26.8582 72.2142 26.5382C72.4302 26.2102 72.7422 25.9502 73.1502 25.7582C73.5662 25.5662 74.0702 25.4702 74.6622 25.4702C75.1342 25.4702 75.5462 25.5342 75.8982 25.6622C76.2502 25.7902 76.5422 25.9622 76.7742 26.1782C77.0062 26.3862 77.1822 26.6142 77.3022 26.8622C77.4222 27.1022 77.4862 27.3382 77.4942 27.5702C77.4942 27.6262 77.4742 27.6822 77.4342 27.7382C77.3942 27.7862 77.3302 27.8102 77.2422 27.8102H77.0022C76.9622 27.8102 76.9102 27.7942 76.8462 27.7622C76.7902 27.7302 76.7542 27.6662 76.7382 27.5702C76.6902 27.1702 76.4782 26.8422 76.1022 26.5862C75.7342 26.3222 75.2542 26.1902 74.6622 26.1902C74.0702 26.1902 73.5862 26.3062 73.2102 26.5382C72.8342 26.7702 72.6462 27.1342 72.6462 27.6302C72.6462 27.9502 72.7302 28.2142 72.8982 28.4222C73.0662 28.6222 73.3302 28.8022 73.6902 28.9622C74.0502 29.1142 74.5142 29.2822 75.0822 29.4662C75.6822 29.6582 76.1782 29.8502 76.5702 30.0422C76.9622 30.2342 77.2542 30.4702 77.4462 30.7502C77.6382 31.0222 77.7342 31.3782 77.7342 31.8182C77.7342 32.3062 77.6102 32.7222 77.3622 33.0662C77.1222 33.4022 76.7782 33.6622 76.3302 33.8462C75.8822 34.0222 75.3462 34.1102 74.7222 34.1102ZM81.6878 34.1102C81.1118 34.1102 80.6278 33.9902 80.2358 33.7502C79.8518 33.5102 79.5558 33.1822 79.3478 32.7662C79.1478 32.3502 79.0398 31.8862 79.0238 31.3742C79.0158 31.2542 79.0118 31.0862 79.0118 30.8702C79.0118 30.6542 79.0158 30.4862 79.0238 30.3662C79.0398 29.8462 79.1478 29.3822 79.3478 28.9742C79.5558 28.5582 79.8518 28.2302 80.2358 27.9902C80.6278 27.7502 81.1118 27.6302 81.6878 27.6302C82.2638 27.6302 82.7438 27.7502 83.1278 27.9902C83.5198 28.2302 83.8158 28.5582 84.0158 28.9742C84.2238 29.3822 84.3358 29.8462 84.3518 30.3662C84.3598 30.4862 84.3638 30.6542 84.3638 30.8702C84.3638 31.0862 84.3598 31.2542 84.3518 31.3742C84.3358 31.8862 84.2238 32.3502 84.0158 32.7662C83.8158 33.1822 83.5198 33.5102 83.1278 33.7502C82.7438 33.9902 82.2638 34.1102 81.6878 34.1102ZM81.6878 33.4142C82.2478 33.4142 82.7038 33.2342 83.0558 32.8742C83.4078 32.5142 83.5958 31.9942 83.6198 31.3142C83.6278 31.1942 83.6318 31.0462 83.6318 30.8702C83.6318 30.6942 83.6278 30.5462 83.6198 30.4262C83.5958 29.7382 83.4078 29.2182 83.0558 28.8662C82.7038 28.5062 82.2478 28.3262 81.6878 28.3262C81.1278 28.3262 80.6718 28.5062 80.3198 28.8662C79.9678 29.2182 79.7798 29.7382 79.7558 30.4262C79.7478 30.5462 79.7438 30.6942 79.7438 30.8702C79.7438 31.0462 79.7478 31.1942 79.7558 31.3142C79.7798 31.9942 79.9678 32.5142 80.3198 32.8742C80.6718 33.2342 81.1278 33.4142 81.6878 33.4142ZM89.0033 34.1102C88.2753 34.1102 87.6793 33.9702 87.2153 33.6902C86.7593 33.4022 86.4193 33.0142 86.1953 32.5262C85.9713 32.0382 85.8473 31.4822 85.8232 30.8582C85.8153 30.5302 85.8113 30.1782 85.8113 29.8022C85.8113 29.4262 85.8153 29.0662 85.8232 28.7222C85.8473 28.0982 85.9713 27.5422 86.1953 27.0542C86.4193 26.5582 86.7593 26.1702 87.2153 25.8902C87.6793 25.6102 88.2753 25.4702 89.0033 25.4702C89.5713 25.4702 90.0553 25.5502 90.4553 25.7102C90.8553 25.8702 91.1793 26.0822 91.4273 26.3462C91.6833 26.6022 91.8713 26.8822 91.9913 27.1862C92.1193 27.4822 92.1913 27.7742 92.2073 28.0622C92.2153 28.1342 92.1913 28.1942 92.1353 28.2422C92.0873 28.2822 92.0273 28.3022 91.9553 28.3022H91.7153C91.6513 28.3022 91.5953 28.2862 91.5473 28.2542C91.4993 28.2142 91.4673 28.1462 91.4513 28.0502C91.2993 27.3382 91.0113 26.8502 90.5873 26.5862C90.1713 26.3222 89.6433 26.1902 89.0033 26.1902C88.2753 26.1902 87.6953 26.3982 87.2633 26.8142C86.8393 27.2222 86.6113 27.8782 86.5793 28.7822C86.5553 29.4382 86.5553 30.1102 86.5793 30.7982C86.6113 31.7022 86.8393 32.3622 87.2633 32.7782C87.6953 33.1862 88.2753 33.3902 89.0033 33.3902C89.6433 33.3902 90.1713 33.2582 90.5873 32.9942C91.0113 32.7302 91.2993 32.2422 91.4513 31.5302C91.4673 31.4342 91.4993 31.3702 91.5473 31.3382C91.5953 31.2982 91.6513 31.2782 91.7153 31.2782H91.9553C92.0273 31.2782 92.0873 31.3022 92.1353 31.3502C92.1913 31.3902 92.2153 31.4462 92.2073 31.5182C92.1913 31.8062 92.1193 32.1022 91.9913 32.4062C91.8713 32.7022 91.6833 32.9822 91.4273 33.2462C91.1793 33.5022 90.8553 33.7102 90.4553 33.8702C90.0553 34.0302 89.5713 34.1102 89.0033 34.1102ZM96.8294 33.9902C96.7494 33.9902 96.6854 33.9662 96.6374 33.9182C96.5894 33.8702 96.5654 33.8062 96.5654 33.7262V33.5462C96.5654 33.4662 96.5854 33.3902 96.6254 33.3182C96.6734 33.2382 96.7534 33.1462 96.8654 33.0422L99.9734 29.9342C100.277 29.6542 100.509 29.4102 100.669 29.2022C100.829 28.9942 100.937 28.7902 100.993 28.5902C101.057 28.3822 101.089 28.1542 101.089 27.9062C101.089 27.3702 100.933 26.9502 100.621 26.6462C100.317 26.3422 99.8814 26.1902 99.3134 26.1902C98.9534 26.1902 98.6414 26.2622 98.3774 26.4062C98.1134 26.5502 97.9054 26.7542 97.7534 27.0182C97.6014 27.2742 97.5014 27.5742 97.4534 27.9182C97.4454 28.0142 97.4094 28.0862 97.3454 28.1342C97.2814 28.1742 97.2254 28.1942 97.1774 28.1942H96.9374C96.8574 28.1942 96.7934 28.1742 96.7454 28.1342C96.7054 28.0862 96.6854 28.0302 96.6854 27.9662C96.6934 27.6942 96.7494 27.4142 96.8534 27.1262C96.9574 26.8302 97.1134 26.5582 97.3214 26.3102C97.5374 26.0622 97.8094 25.8622 98.1374 25.7102C98.4654 25.5502 98.8574 25.4702 99.3134 25.4702C99.9214 25.4702 100.409 25.5862 100.777 25.8182C101.153 26.0502 101.425 26.3502 101.593 26.7182C101.761 27.0862 101.845 27.4822 101.845 27.9062C101.845 28.2342 101.797 28.5382 101.701 28.8182C101.605 29.0902 101.461 29.3582 101.269 29.6222C101.077 29.8782 100.833 30.1422 100.537 30.4142L97.7294 33.2702H101.749C101.837 33.2702 101.905 33.2942 101.953 33.3422C102.001 33.3902 102.025 33.4582 102.025 33.5462V33.7262C102.025 33.8062 102.001 33.8702 101.953 33.9182C101.905 33.9662 101.837 33.9902 101.749 33.9902H96.8294ZM106.352 34.1102C105.808 34.1102 105.352 34.0222 104.984 33.8462C104.624 33.6702 104.332 33.4302 104.108 33.1262C103.892 32.8142 103.736 32.4582 103.64 32.0582C103.544 31.6582 103.488 31.2382 103.472 30.7982C103.472 30.5822 103.468 30.3622 103.46 30.1382C103.46 29.9142 103.46 29.6902 103.46 29.4662C103.468 29.2342 103.472 29.0062 103.472 28.7822C103.48 28.3422 103.532 27.9222 103.628 27.5222C103.732 27.1222 103.892 26.7702 104.108 26.4662C104.332 26.1542 104.624 25.9102 104.984 25.7342C105.352 25.5582 105.808 25.4702 106.352 25.4702C106.896 25.4702 107.348 25.5582 107.708 25.7342C108.076 25.9102 108.368 26.1542 108.584 26.4662C108.808 26.7702 108.968 27.1222 109.064 27.5222C109.168 27.9222 109.224 28.3422 109.232 28.7822C109.24 29.0062 109.244 29.2342 109.244 29.4662C109.244 29.6902 109.244 29.9142 109.244 30.1382C109.244 30.3622 109.24 30.5822 109.232 30.7982C109.224 31.2382 109.168 31.6582 109.064 32.0582C108.968 32.4582 108.808 32.8142 108.584 33.1262C108.368 33.4302 108.076 33.6702 107.708 33.8462C107.348 34.0222 106.896 34.1102 106.352 34.1102ZM106.352 33.3902C107.064 33.3902 107.592 33.1542 107.936 32.6822C108.28 32.2102 108.46 31.5622 108.476 30.7382C108.484 30.5062 108.488 30.2902 108.488 30.0902C108.488 29.8822 108.488 29.6782 108.488 29.4782C108.488 29.2702 108.484 29.0582 108.476 28.8422C108.46 28.0342 108.28 27.3902 107.936 26.9102C107.592 26.4302 107.064 26.1902 106.352 26.1902C105.648 26.1902 105.12 26.4302 104.768 26.9102C104.424 27.3902 104.244 28.0342 104.228 28.8422C104.228 29.0582 104.224 29.2702 104.216 29.4782C104.216 29.6782 104.216 29.8822 104.216 30.0902C104.224 30.2902 104.228 30.5062 104.228 30.7382C104.244 31.5622 104.424 32.2102 104.768 32.6822C105.12 33.1542 105.648 33.3902 106.352 33.3902ZM110.939 33.9902C110.859 33.9902 110.795 33.9662 110.747 33.9182C110.699 33.8702 110.675 33.8062 110.675 33.7262V33.5462C110.675 33.4662 110.695 33.3902 110.735 33.3182C110.783 33.2382 110.863 33.1462 110.975 33.0422L114.083 29.9342C114.387 29.6542 114.619 29.4102 114.779 29.2022C114.939 28.9942 115.047 28.7902 115.103 28.5902C115.167 28.3822 115.199 28.1542 115.199 27.9062C115.199 27.3702 115.043 26.9502 114.731 26.6462C114.427 26.3422 113.991 26.1902 113.423 26.1902C113.063 26.1902 112.751 26.2622 112.487 26.4062C112.223 26.5502 112.015 26.7542 111.863 27.0182C111.711 27.2742 111.611 27.5742 111.563 27.9182C111.555 28.0142 111.519 28.0862 111.455 28.1342C111.391 28.1742 111.335 28.1942 111.287 28.1942H111.047C110.967 28.1942 110.903 28.1742 110.855 28.1342C110.815 28.0862 110.795 28.0302 110.795 27.9662C110.803 27.6942 110.859 27.4142 110.963 27.1262C111.067 26.8302 111.223 26.5582 111.431 26.3102C111.647 26.0622 111.919 25.8622 112.247 25.7102C112.575 25.5502 112.967 25.4702 113.423 25.4702C114.031 25.4702 114.519 25.5862 114.887 25.8182C115.263 26.0502 115.535 26.3502 115.703 26.7182C115.871 27.0862 115.955 27.4822 115.955 27.9062C115.955 28.2342 115.907 28.5382 115.811 28.8182C115.715 29.0902 115.571 29.3582 115.379 29.6222C115.187 29.8782 114.943 30.1422 114.647 30.4142L111.839 33.2702H115.859C115.947 33.2702 116.015 33.2942 116.063 33.3422C116.111 33.3902 116.135 33.4582 116.135 33.5462V33.7262C116.135 33.8062 116.111 33.8702 116.063 33.9182C116.015 33.9662 115.947 33.9902 115.859 33.9902H110.939ZM121.497 33.9902C121.417 33.9902 121.353 33.9662 121.305 33.9182C121.257 33.8702 121.233 33.8062 121.233 33.7262V31.8302H117.273C117.193 31.8302 117.129 31.8062 117.081 31.7582C117.033 31.7102 117.009 31.6462 117.009 31.5662V31.3742C117.009 31.3582 117.017 31.3142 117.033 31.2422C117.049 31.1702 117.085 31.0942 117.141 31.0142L120.789 25.7942C120.885 25.6582 121.033 25.5902 121.233 25.5902H121.725C121.805 25.5902 121.869 25.6142 121.917 25.6622C121.965 25.7102 121.989 25.7742 121.989 25.8542V31.1102H123.081C123.161 31.1102 123.225 31.1342 123.273 31.1822C123.321 31.2302 123.345 31.2942 123.345 31.3742V31.5662C123.345 31.6462 123.321 31.7102 123.273 31.7582C123.225 31.8062 123.161 31.8302 123.081 31.8302H121.989V33.7262C121.989 33.8062 121.965 33.8702 121.917 33.9182C121.869 33.9662 121.805 33.9902 121.725 33.9902H121.497ZM117.957 31.1102H121.233V26.4422L117.957 31.1102Z" fill="#707070"/>
</svg>
