<svg width="124" height="38" viewBox="0 0 124 38" fill="none" xmlns="http://www.w3.org/2000/svg">
<path d="M1.54 14.9902C1.43733 14.9902 1.358 14.9622 1.302 14.9062C1.246 14.8409 1.218 14.7616 1.218 14.6682V5.52623C1.218 5.42357 1.246 5.34423 1.302 5.28823C1.358 5.2229 1.43733 5.19023 1.54 5.19023H2.184C2.296 5.19023 2.38 5.21823 2.436 5.27423C2.492 5.3209 2.52467 5.35823 2.534 5.38623L7.182 12.5262V5.52623C7.182 5.42357 7.21 5.34423 7.266 5.28823C7.322 5.2229 7.40133 5.19023 7.504 5.19023H8.176C8.27867 5.19023 8.358 5.2229 8.414 5.28823C8.47933 5.34423 8.512 5.42357 8.512 5.52623V14.6542C8.512 14.7476 8.47933 14.8269 8.414 14.8922C8.358 14.9576 8.28333 14.9902 8.19 14.9902H7.518C7.41533 14.9902 7.336 14.9622 7.28 14.9062C7.23333 14.8502 7.20067 14.8129 7.182 14.7942L2.548 7.72423V14.6682C2.548 14.7616 2.51533 14.8409 2.45 14.9062C2.394 14.9622 2.31467 14.9902 2.212 14.9902H1.54ZM11.0787 14.9902C10.9854 14.9902 10.906 14.9622 10.8407 14.9062C10.7847 14.8409 10.7567 14.7616 10.7567 14.6682V8.03223C10.7567 7.9389 10.7847 7.86423 10.8407 7.80823C10.906 7.7429 10.9854 7.71023 11.0787 7.71023H11.7507C11.844 7.71023 11.9187 7.7429 11.9747 7.80823C12.0307 7.86423 12.0587 7.9389 12.0587 8.03223V14.6682C12.0587 14.7616 12.0307 14.8409 11.9747 14.9062C11.9187 14.9622 11.844 14.9902 11.7507 14.9902H11.0787ZM10.9667 6.35223C10.8734 6.35223 10.794 6.32423 10.7287 6.26823C10.6727 6.2029 10.6447 6.12357 10.6447 6.03023V5.27423C10.6447 5.1809 10.6727 5.10623 10.7287 5.05023C10.794 4.9849 10.8734 4.95223 10.9667 4.95223H11.8487C11.942 4.95223 12.0167 4.9849 12.0727 5.05023C12.138 5.10623 12.1707 5.1809 12.1707 5.27423V6.03023C12.1707 6.12357 12.138 6.2029 12.0727 6.26823C12.0167 6.32423 11.942 6.35223 11.8487 6.35223H10.9667ZM16.8073 15.1302C16.294 15.1302 15.8507 15.0416 15.4773 14.8642C15.104 14.6776 14.796 14.4302 14.5533 14.1222C14.32 13.8049 14.1427 13.4456 14.0213 13.0442C13.9093 12.6429 13.844 12.2182 13.8253 11.7702C13.816 11.6209 13.8113 11.4809 13.8113 11.3502C13.8113 11.2196 13.816 11.0796 13.8253 10.9302C13.844 10.4916 13.9093 10.0716 14.0213 9.67023C14.1427 9.2689 14.32 8.90957 14.5533 8.59223C14.796 8.2749 15.104 8.02757 15.4773 7.85023C15.8507 7.66357 16.294 7.57023 16.8073 7.57023C17.358 7.57023 17.8153 7.66823 18.1793 7.86423C18.5433 8.06023 18.842 8.3029 19.0753 8.59223V5.37223C19.0753 5.2789 19.1033 5.20423 19.1593 5.14823C19.2247 5.0829 19.304 5.05023 19.3973 5.05023H20.0693C20.1627 5.05023 20.2373 5.0829 20.2933 5.14823C20.3587 5.20423 20.3913 5.2789 20.3913 5.37223V14.6682C20.3913 14.7616 20.3587 14.8409 20.2933 14.9062C20.2373 14.9622 20.1627 14.9902 20.0693 14.9902H19.4393C19.3367 14.9902 19.2573 14.9622 19.2013 14.9062C19.1453 14.8409 19.1173 14.7616 19.1173 14.6682V14.0802C18.884 14.3789 18.5807 14.6309 18.2073 14.8362C17.834 15.0322 17.3673 15.1302 16.8073 15.1302ZM17.1013 13.9962C17.568 13.9962 17.9413 13.8889 18.2213 13.6742C18.5013 13.4596 18.7113 13.1889 18.8513 12.8622C18.9913 12.5262 19.066 12.1856 19.0753 11.8402C19.0847 11.6909 19.0893 11.5136 19.0893 11.3082C19.0893 11.0936 19.0847 10.9116 19.0753 10.7622C19.066 10.4356 18.9867 10.1136 18.8373 9.79623C18.6973 9.4789 18.4827 9.21757 18.1933 9.01223C17.9133 8.8069 17.5493 8.70423 17.1013 8.70423C16.6253 8.70423 16.2473 8.81157 15.9673 9.02623C15.6873 9.23157 15.4867 9.5069 15.3653 9.85223C15.244 10.1882 15.174 10.5522 15.1553 10.9442C15.146 11.2149 15.146 11.4856 15.1553 11.7562C15.174 12.1482 15.244 12.5169 15.3653 12.8622C15.4867 13.1982 15.6873 13.4736 15.9673 13.6882C16.2473 13.8936 16.6253 13.9962 17.1013 13.9962ZM22.8095 14.9902C22.7162 14.9902 22.6368 14.9622 22.5715 14.9062C22.5155 14.8409 22.4875 14.7616 22.4875 14.6682V5.37223C22.4875 5.2789 22.5155 5.20423 22.5715 5.14823C22.6368 5.0829 22.7162 5.05023 22.8095 5.05023H23.5095C23.6122 5.05023 23.6915 5.0829 23.7475 5.14823C23.8035 5.20423 23.8315 5.2789 23.8315 5.37223V8.63423C24.0835 8.3169 24.3915 8.06023 24.7555 7.86423C25.1195 7.66823 25.5815 7.57023 26.1415 7.57023C26.7482 7.57023 27.2615 7.70557 27.6815 7.97623C28.1108 8.23757 28.4328 8.60623 28.6475 9.08223C28.8715 9.5489 28.9835 10.0949 28.9835 10.7202V14.6682C28.9835 14.7616 28.9555 14.8409 28.8995 14.9062C28.8435 14.9622 28.7642 14.9902 28.6615 14.9902H27.9615C27.8682 14.9902 27.7888 14.9622 27.7235 14.9062C27.6675 14.8409 27.6395 14.7616 27.6395 14.6682V10.7902C27.6395 10.1369 27.4808 9.62823 27.1635 9.26423C26.8462 8.8909 26.3795 8.70423 25.7635 8.70423C25.1848 8.70423 24.7182 8.8909 24.3635 9.26423C24.0088 9.62823 23.8315 10.1369 23.8315 10.7902V14.6682C23.8315 14.7616 23.8035 14.8409 23.7475 14.9062C23.6915 14.9622 23.6122 14.9902 23.5095 14.9902H22.8095ZM31.3268 14.9902C31.2334 14.9902 31.1541 14.9622 31.0888 14.9062C31.0328 14.8409 31.0048 14.7616 31.0048 14.6682V8.03223C31.0048 7.9389 31.0328 7.86423 31.0888 7.80823C31.1541 7.7429 31.2334 7.71023 31.3268 7.71023H31.9988C32.0921 7.71023 32.1668 7.7429 32.2228 7.80823C32.2788 7.86423 32.3068 7.9389 32.3068 8.03223V14.6682C32.3068 14.7616 32.2788 14.8409 32.2228 14.9062C32.1668 14.9622 32.0921 14.9902 31.9988 14.9902H31.3268ZM31.2148 6.35223C31.1214 6.35223 31.0421 6.32423 30.9768 6.26823C30.9208 6.2029 30.8927 6.12357 30.8927 6.03023V5.27423C30.8927 5.1809 30.9208 5.10623 30.9768 5.05023C31.0421 4.9849 31.1214 4.95223 31.2148 4.95223H32.0968C32.1901 4.95223 32.2648 4.9849 32.3208 5.05023C32.3861 5.10623 32.4188 5.1809 32.4188 5.27423V6.03023C32.4188 6.12357 32.3861 6.2029 32.3208 6.26823C32.2648 6.32423 32.1901 6.35223 32.0968 6.35223H31.2148ZM38.331 14.9902C38.2283 14.9902 38.149 14.9622 38.093 14.9062C38.037 14.8409 38.009 14.7616 38.009 14.6682V5.52623C38.009 5.42357 38.037 5.34423 38.093 5.28823C38.149 5.2229 38.2283 5.19023 38.331 5.19023H42.167C42.867 5.19023 43.4363 5.3069 43.875 5.54023C44.323 5.76423 44.6497 6.07223 44.855 6.46423C45.0697 6.85623 45.177 7.2949 45.177 7.78023C45.177 8.1629 45.1117 8.49423 44.981 8.77423C44.8597 9.0449 44.7057 9.2689 44.519 9.44623C44.3323 9.61423 44.1503 9.7449 43.973 9.83823C44.337 10.0156 44.659 10.3049 44.939 10.7062C45.2283 11.1076 45.373 11.5929 45.373 12.1622C45.373 12.6756 45.2563 13.1469 45.023 13.5762C44.7897 14.0056 44.4397 14.3509 43.973 14.6122C43.5157 14.8642 42.9463 14.9902 42.265 14.9902H38.331ZM39.381 13.8562H42.083C42.6897 13.8562 43.1563 13.6929 43.483 13.3662C43.8097 13.0396 43.973 12.6382 43.973 12.1622C43.973 11.6676 43.8097 11.2616 43.483 10.9442C43.1563 10.6176 42.6897 10.4542 42.083 10.4542H39.381V13.8562ZM39.381 9.33423H41.957C42.5543 9.33423 43.007 9.1989 43.315 8.92823C43.623 8.64823 43.777 8.27023 43.777 7.79423C43.777 7.31823 43.623 6.95423 43.315 6.70223C43.007 6.45023 42.5543 6.32423 41.957 6.32423H39.381V9.33423ZM47.5146 14.9902C47.4212 14.9902 47.3419 14.9622 47.2766 14.9062C47.2206 14.8409 47.1926 14.7616 47.1926 14.6682V5.37223C47.1926 5.2789 47.2206 5.20423 47.2766 5.14823C47.3419 5.0829 47.4212 5.05023 47.5146 5.05023H48.2146C48.3172 5.05023 48.3966 5.0829 48.4526 5.14823C48.5086 5.20423 48.5366 5.2789 48.5366 5.37223V8.63423C48.7886 8.3169 49.0966 8.06023 49.4606 7.86423C49.8246 7.66823 50.2866 7.57023 50.8466 7.57023C51.4532 7.57023 51.9666 7.70557 52.3866 7.97623C52.8159 8.23757 53.1379 8.60623 53.3526 9.08223C53.5766 9.5489 53.6886 10.0949 53.6886 10.7202V14.6682C53.6886 14.7616 53.6606 14.8409 53.6046 14.9062C53.5486 14.9622 53.4692 14.9902 53.3666 14.9902H52.6666C52.5732 14.9902 52.4939 14.9622 52.4286 14.9062C52.3726 14.8409 52.3446 14.7616 52.3446 14.6682V10.7902C52.3446 10.1369 52.1859 9.62823 51.8686 9.26423C51.5512 8.8909 51.0846 8.70423 50.4686 8.70423C49.8899 8.70423 49.4232 8.8909 49.0686 9.26423C48.7139 9.62823 48.5366 10.1369 48.5366 10.7902V14.6682C48.5366 14.7616 48.5086 14.8409 48.4526 14.9062C48.3966 14.9622 48.3172 14.9902 48.2146 14.9902H47.5146ZM57.7398 15.1302C57.2732 15.1302 56.8485 15.0369 56.4658 14.8502C56.0832 14.6636 55.7752 14.4116 55.5418 14.0942C55.3085 13.7769 55.1918 13.4176 55.1918 13.0162C55.1918 12.3722 55.4532 11.8589 55.9758 11.4762C56.4985 11.0936 57.1798 10.8416 58.0198 10.7202L60.1058 10.4262V10.0202C60.1058 9.57223 59.9752 9.22223 59.7138 8.97023C59.4618 8.71823 59.0465 8.59223 58.4678 8.59223C58.0478 8.59223 57.7072 8.67623 57.4458 8.84423C57.1938 9.01223 57.0165 9.2269 56.9138 9.48823C56.8578 9.62823 56.7598 9.69823 56.6198 9.69823H55.9898C55.8872 9.69823 55.8078 9.67023 55.7518 9.61423C55.7052 9.5489 55.6818 9.47423 55.6818 9.39023C55.6818 9.25023 55.7332 9.07757 55.8358 8.87223C55.9478 8.6669 56.1158 8.46623 56.3398 8.27023C56.5638 8.07423 56.8485 7.9109 57.1938 7.78023C57.5485 7.64023 57.9778 7.57023 58.4818 7.57023C59.0418 7.57023 59.5132 7.6449 59.8958 7.79423C60.2785 7.93423 60.5772 8.12557 60.7918 8.36823C61.0158 8.6109 61.1745 8.88623 61.2678 9.19423C61.3705 9.50223 61.4218 9.8149 61.4218 10.1322V14.6682C61.4218 14.7616 61.3892 14.8409 61.3238 14.9062C61.2678 14.9622 61.1932 14.9902 61.0998 14.9902H60.4558C60.3532 14.9902 60.2738 14.9622 60.2178 14.9062C60.1618 14.8409 60.1338 14.7616 60.1338 14.6682V14.0662C60.0125 14.2342 59.8492 14.4022 59.6438 14.5702C59.4385 14.7289 59.1818 14.8642 58.8738 14.9762C58.5658 15.0789 58.1878 15.1302 57.7398 15.1302ZM58.0338 14.0802C58.4165 14.0802 58.7665 14.0009 59.0838 13.8422C59.4012 13.6742 59.6485 13.4176 59.8258 13.0722C60.0125 12.7269 60.1058 12.2929 60.1058 11.7702V11.3782L58.4818 11.6162C57.8192 11.7096 57.3198 11.8682 56.9838 12.0922C56.6478 12.3069 56.4798 12.5822 56.4798 12.9182C56.4798 13.1796 56.5545 13.3989 56.7038 13.5762C56.8625 13.7442 57.0585 13.8702 57.2918 13.9542C57.5345 14.0382 57.7818 14.0802 58.0338 14.0802ZM66.4164 18.0702C65.7818 18.0702 65.2591 17.9862 64.8484 17.8182C64.4471 17.6502 64.1298 17.4449 63.8964 17.2022C63.6724 16.9689 63.5091 16.7309 63.4064 16.4882C63.3131 16.2549 63.2618 16.0682 63.2524 15.9282C63.2431 15.8349 63.2711 15.7556 63.3364 15.6902C63.4111 15.6249 63.4904 15.5922 63.5744 15.5922H64.2464C64.3304 15.5922 64.4004 15.6109 64.4564 15.6482C64.5124 15.6856 64.5591 15.7649 64.5964 15.8862C64.6524 16.0262 64.7364 16.1802 64.8484 16.3482C64.9604 16.5256 65.1331 16.6749 65.3664 16.7962C65.5998 16.9269 65.9264 16.9922 66.3464 16.9922C66.7851 16.9922 67.1538 16.9316 67.4524 16.8102C67.7511 16.6982 67.9751 16.4929 68.1244 16.1942C68.2831 15.9049 68.3624 15.5036 68.3624 14.9902V14.0382C68.1384 14.3276 67.8444 14.5702 67.4804 14.7662C67.1164 14.9529 66.6591 15.0462 66.1084 15.0462C65.5858 15.0462 65.1378 14.9576 64.7644 14.7802C64.3911 14.5936 64.0831 14.3462 63.8404 14.0382C63.6071 13.7209 63.4298 13.3616 63.3084 12.9602C63.1964 12.5589 63.1311 12.1389 63.1124 11.7002C63.1031 11.4389 63.1031 11.1822 63.1124 10.9302C63.1311 10.4916 63.1964 10.0716 63.3084 9.67023C63.4298 9.2689 63.6071 8.90957 63.8404 8.59223C64.0831 8.2749 64.3911 8.02757 64.7644 7.85023C65.1378 7.66357 65.5858 7.57023 66.1084 7.57023C66.6684 7.57023 67.1304 7.67757 67.4944 7.89223C67.8678 8.09757 68.1711 8.34957 68.4044 8.64823V8.04623C68.4044 7.9529 68.4324 7.87357 68.4884 7.80823C68.5538 7.7429 68.6331 7.71023 68.7264 7.71023H69.3704C69.4638 7.71023 69.5431 7.7429 69.6084 7.80823C69.6738 7.87357 69.7064 7.9529 69.7064 8.04623V14.8362C69.7064 15.4616 69.5991 16.0169 69.3844 16.5022C69.1791 16.9876 68.8338 17.3702 68.3484 17.6502C67.8724 17.9302 67.2284 18.0702 66.4164 18.0702ZM66.3884 13.9262C66.8551 13.9262 67.2284 13.8189 67.5084 13.6042C67.7978 13.3896 68.0078 13.1189 68.1384 12.7922C68.2784 12.4656 68.3531 12.1342 68.3624 11.7982C68.3718 11.6676 68.3764 11.5089 68.3764 11.3222C68.3764 11.1262 68.3718 10.9629 68.3624 10.8322C68.3531 10.4962 68.2784 10.1649 68.1384 9.83823C68.0078 9.51157 67.7978 9.2409 67.5084 9.02623C67.2284 8.81157 66.8551 8.70423 66.3884 8.70423C65.9218 8.70423 65.5484 8.81157 65.2684 9.02623C64.9884 9.23157 64.7878 9.5069 64.6664 9.85223C64.5451 10.1882 64.4751 10.5522 64.4564 10.9442C64.4471 11.1869 64.4471 11.4342 64.4564 11.6862C64.4751 12.0782 64.5451 12.4469 64.6664 12.7922C64.7878 13.1282 64.9884 13.4036 65.2684 13.6182C65.5484 13.8236 65.9218 13.9262 66.3884 13.9262ZM73.818 15.1302C73.3513 15.1302 72.9266 15.0369 72.544 14.8502C72.1613 14.6636 71.8533 14.4116 71.62 14.0942C71.3866 13.7769 71.27 13.4176 71.27 13.0162C71.27 12.3722 71.5313 11.8589 72.054 11.4762C72.5766 11.0936 73.258 10.8416 74.098 10.7202L76.184 10.4262V10.0202C76.184 9.57223 76.0533 9.22223 75.792 8.97023C75.54 8.71823 75.1246 8.59223 74.546 8.59223C74.126 8.59223 73.7853 8.67623 73.524 8.84423C73.272 9.01223 73.0946 9.2269 72.992 9.48823C72.936 9.62823 72.838 9.69823 72.698 9.69823H72.068C71.9653 9.69823 71.886 9.67023 71.83 9.61423C71.7833 9.5489 71.76 9.47423 71.76 9.39023C71.76 9.25023 71.8113 9.07757 71.914 8.87223C72.026 8.6669 72.194 8.46623 72.418 8.27023C72.642 8.07423 72.9266 7.9109 73.272 7.78023C73.6266 7.64023 74.056 7.57023 74.56 7.57023C75.12 7.57023 75.5913 7.6449 75.974 7.79423C76.3566 7.93423 76.6553 8.12557 76.87 8.36823C77.094 8.6109 77.2526 8.88623 77.346 9.19423C77.4486 9.50223 77.5 9.8149 77.5 10.1322V14.6682C77.5 14.7616 77.4673 14.8409 77.402 14.9062C77.346 14.9622 77.2713 14.9902 77.178 14.9902H76.534C76.4313 14.9902 76.352 14.9622 76.296 14.9062C76.24 14.8409 76.212 14.7616 76.212 14.6682V14.0662C76.0906 14.2342 75.9273 14.4022 75.722 14.5702C75.5166 14.7289 75.26 14.8642 74.952 14.9762C74.644 15.0789 74.266 15.1302 73.818 15.1302ZM74.112 14.0802C74.4946 14.0802 74.8446 14.0009 75.162 13.8422C75.4793 13.6742 75.7266 13.4176 75.904 13.0722C76.0906 12.7269 76.184 12.2929 76.184 11.7702V11.3782L74.56 11.6162C73.8973 11.7096 73.398 11.8682 73.062 12.0922C72.726 12.3069 72.558 12.5822 72.558 12.9182C72.558 13.1796 72.6326 13.3989 72.782 13.5762C72.9406 13.7442 73.1366 13.8702 73.37 13.9542C73.6126 14.0382 73.86 14.0802 74.112 14.0802ZM82.2862 14.9902C81.7635 14.9902 81.3389 14.8922 81.0122 14.6962C80.6855 14.4909 80.4475 14.2062 80.2982 13.8422C80.1489 13.4689 80.0742 13.0302 80.0742 12.5262V8.83023H78.9822C78.8889 8.83023 78.8095 8.80223 78.7442 8.74623C78.6882 8.6809 78.6602 8.60157 78.6602 8.50823V8.03223C78.6602 7.9389 78.6882 7.86423 78.7442 7.80823C78.8095 7.7429 78.8889 7.71023 78.9822 7.71023H80.0742V5.37223C80.0742 5.2789 80.1022 5.20423 80.1582 5.14823C80.2235 5.0829 80.3029 5.05023 80.3962 5.05023H81.0542C81.1475 5.05023 81.2222 5.0829 81.2782 5.14823C81.3435 5.20423 81.3762 5.2789 81.3762 5.37223V7.71023H83.1122C83.2055 7.71023 83.2802 7.7429 83.3362 7.80823C83.4015 7.86423 83.4342 7.9389 83.4342 8.03223V8.50823C83.4342 8.60157 83.4015 8.6809 83.3362 8.74623C83.2802 8.80223 83.2055 8.83023 83.1122 8.83023H81.3762V12.4282C81.3762 12.8669 81.4509 13.2122 81.6002 13.4642C81.7495 13.7162 82.0155 13.8422 82.3982 13.8422H83.2522C83.3455 13.8422 83.4202 13.8749 83.4762 13.9402C83.5415 13.9962 83.5742 14.0709 83.5742 14.1642V14.6682C83.5742 14.7616 83.5415 14.8409 83.4762 14.9062C83.4202 14.9622 83.3455 14.9902 83.2522 14.9902H82.2862Z" fill="#333333"/>
<path d="M1.392 33.9902C1.312 33.9902 1.248 33.9662 1.2 33.9182C1.152 33.8702 1.128 33.8062 1.128 33.7262V25.8662C1.128 25.7782 1.152 25.7102 1.2 25.6622C1.248 25.6142 1.312 25.5902 1.392 25.5902H4.308C4.868 25.5902 5.352 25.6862 5.76 25.8782C6.176 26.0622 6.496 26.3382 6.72 26.7062C6.952 27.0742 7.068 27.5302 7.068 28.0742C7.068 28.6182 6.952 29.0742 6.72 29.4422C6.496 29.8102 6.176 30.0902 5.76 30.2822C5.352 30.4662 4.868 30.5582 4.308 30.5582H1.884V33.7262C1.884 33.8062 1.86 33.8702 1.812 33.9182C1.764 33.9662 1.696 33.9902 1.608 33.9902H1.392ZM1.884 29.8382H4.248C4.944 29.8382 5.46 29.6862 5.796 29.3822C6.14 29.0782 6.312 28.6422 6.312 28.0742C6.312 27.5062 6.14 27.0702 5.796 26.7662C5.46 26.4622 4.944 26.3102 4.248 26.3102H1.884V29.8382ZM10.0817 34.1102C9.69769 34.1102 9.34169 34.0302 9.01369 33.8702C8.69369 33.7102 8.43369 33.4982 8.23369 33.2342C8.03369 32.9622 7.93369 32.6582 7.93369 32.3222C7.93369 31.7782 8.15369 31.3422 8.59369 31.0142C9.03369 30.6862 9.60569 30.4742 10.3097 30.3782L12.2057 30.1142V29.6942C12.2057 29.2702 12.0737 28.9382 11.8097 28.6982C11.5537 28.4502 11.1417 28.3262 10.5737 28.3262C10.1577 28.3262 9.82169 28.4102 9.56569 28.5782C9.30969 28.7382 9.13369 28.9502 9.03769 29.2142C8.99769 29.3342 8.92169 29.3942 8.80969 29.3942H8.61769C8.52169 29.3942 8.45369 29.3702 8.41369 29.3222C8.37369 29.2662 8.35369 29.2022 8.35369 29.1302C8.35369 29.0182 8.39369 28.8782 8.47369 28.7102C8.56169 28.5422 8.69369 28.3782 8.86969 28.2182C9.04569 28.0502 9.27369 27.9102 9.55369 27.7982C9.83369 27.6862 10.1737 27.6302 10.5737 27.6302C11.0457 27.6302 11.4337 27.6942 11.7377 27.8222C12.0497 27.9502 12.2897 28.1182 12.4577 28.3262C12.6337 28.5262 12.7577 28.7502 12.8297 28.9982C12.9017 29.2462 12.9377 29.4902 12.9377 29.7302V33.7262C12.9377 33.8062 12.9137 33.8702 12.8657 33.9182C12.8177 33.9662 12.7537 33.9902 12.6737 33.9902H12.4697C12.3897 33.9902 12.3257 33.9662 12.2777 33.9182C12.2297 33.8702 12.2057 33.8062 12.2057 33.7262V33.1622C12.1097 33.3062 11.9737 33.4502 11.7977 33.5942C11.6217 33.7382 11.3937 33.8622 11.1137 33.9662C10.8417 34.0622 10.4977 34.1102 10.0817 34.1102ZM10.2017 33.4142C10.5697 33.4142 10.9057 33.3342 11.2097 33.1742C11.5137 33.0142 11.7537 32.7702 11.9297 32.4422C12.1137 32.1062 12.2057 31.6862 12.2057 31.1822V30.7742L10.6577 30.9902C10.0017 31.0782 9.50569 31.2302 9.16969 31.4462C8.83369 31.6622 8.66569 31.9342 8.66569 32.2622C8.66569 32.5262 8.74169 32.7422 8.89369 32.9102C9.04569 33.0782 9.23769 33.2062 9.46969 33.2942C9.70969 33.3742 9.95369 33.4142 10.2017 33.4142ZM15.0993 33.9902C15.0193 33.9902 14.9553 33.9662 14.9073 33.9182C14.8593 33.8702 14.8353 33.8062 14.8353 33.7262V28.0262C14.8353 27.9462 14.8593 27.8822 14.9073 27.8342C14.9553 27.7782 15.0193 27.7502 15.0993 27.7502H15.2913C15.3713 27.7502 15.4353 27.7782 15.4833 27.8342C15.5393 27.8822 15.5673 27.9462 15.5673 28.0262V28.5782C15.7113 28.2982 15.9193 28.0902 16.1913 27.9542C16.4633 27.8182 16.7993 27.7502 17.1993 27.7502H17.6433C17.7233 27.7502 17.7873 27.7742 17.8353 27.8222C17.8833 27.8702 17.9073 27.9342 17.9073 28.0142V28.1822C17.9073 28.2622 17.8833 28.3262 17.8353 28.3742C17.7873 28.4222 17.7233 28.4462 17.6433 28.4462H17.1273C16.6473 28.4462 16.2673 28.5862 15.9873 28.8662C15.7073 29.1462 15.5673 29.5262 15.5673 30.0062V33.7262C15.5673 33.8062 15.5393 33.8702 15.4833 33.9182C15.4353 33.9662 15.3713 33.9902 15.2913 33.9902H15.0993ZM21.1072 33.9902C20.6912 33.9902 20.3632 33.9022 20.1232 33.7262C19.8832 33.5502 19.7152 33.3102 19.6192 33.0062C19.5232 32.7022 19.4752 32.3622 19.4752 31.9862V28.4462H18.5392C18.4592 28.4462 18.3952 28.4222 18.3472 28.3742C18.2992 28.3262 18.2752 28.2622 18.2752 28.1822V28.0142C18.2752 27.9342 18.2992 27.8702 18.3472 27.8222C18.3952 27.7742 18.4592 27.7502 18.5392 27.7502H19.4752V25.7342C19.4752 25.6542 19.4992 25.5902 19.5472 25.5422C19.5952 25.4942 19.6592 25.4702 19.7392 25.4702H19.9432C20.0232 25.4702 20.0872 25.4942 20.1352 25.5422C20.1832 25.5902 20.2072 25.6542 20.2072 25.7342V27.7502H21.6952C21.7752 27.7502 21.8392 27.7742 21.8872 27.8222C21.9352 27.8702 21.9592 27.9342 21.9592 28.0142V28.1822C21.9592 28.2622 21.9352 28.3262 21.8872 28.3742C21.8392 28.4222 21.7752 28.4462 21.6952 28.4462H20.2072V31.9382C20.2072 32.3622 20.2752 32.6942 20.4112 32.9342C20.5552 33.1742 20.8072 33.2942 21.1672 33.2942H21.8152C21.8952 33.2942 21.9592 33.3182 22.0072 33.3662C22.0552 33.4142 22.0792 33.4782 22.0792 33.5582V33.7262C22.0792 33.8062 22.0552 33.8702 22.0072 33.9182C21.9592 33.9662 21.8952 33.9902 21.8152 33.9902H21.1072ZM23.5837 33.9902C23.5037 33.9902 23.4397 33.9662 23.3917 33.9182C23.3437 33.8702 23.3197 33.8062 23.3197 33.7262V28.0142C23.3197 27.9342 23.3437 27.8702 23.3917 27.8222C23.4397 27.7742 23.5037 27.7502 23.5837 27.7502H23.7877C23.8677 27.7502 23.9317 27.7742 23.9797 27.8222C24.0277 27.8702 24.0517 27.9342 24.0517 28.0142V33.7262C24.0517 33.8062 24.0277 33.8702 23.9797 33.9182C23.9317 33.9662 23.8677 33.9902 23.7877 33.9902H23.5837ZM23.4517 26.4662C23.3717 26.4662 23.3077 26.4422 23.2597 26.3942C23.2117 26.3462 23.1877 26.2822 23.1877 26.2022V25.7462C23.1877 25.6662 23.2117 25.6022 23.2597 25.5542C23.3077 25.4982 23.3717 25.4702 23.4517 25.4702H23.9077C23.9877 25.4702 24.0517 25.4982 24.0997 25.5542C24.1557 25.6022 24.1837 25.6662 24.1837 25.7462V26.2022C24.1837 26.2822 24.1557 26.3462 24.0997 26.3942C24.0517 26.4422 23.9877 26.4662 23.9077 26.4662H23.4517ZM28.3555 34.1102C27.7955 34.1102 27.3195 34.0022 26.9275 33.7862C26.5355 33.5622 26.2355 33.2422 26.0275 32.8262C25.8275 32.4102 25.7195 31.9182 25.7035 31.3502C25.6955 31.2302 25.6915 31.0702 25.6915 30.8702C25.6915 30.6702 25.6955 30.5102 25.7035 30.3902C25.7195 29.8142 25.8275 29.3222 26.0275 28.9142C26.2355 28.4982 26.5355 28.1822 26.9275 27.9662C27.3195 27.7422 27.7955 27.6302 28.3555 27.6302C28.7795 27.6302 29.1435 27.6902 29.4475 27.8102C29.7595 27.9222 30.0155 28.0742 30.2155 28.2662C30.4155 28.4502 30.5675 28.6542 30.6715 28.8782C30.7755 29.1022 30.8315 29.3222 30.8395 29.5382C30.8475 29.6182 30.8235 29.6822 30.7675 29.7302C30.7115 29.7782 30.6475 29.8022 30.5755 29.8022H30.4075C30.3275 29.8022 30.2675 29.7862 30.2275 29.7542C30.1955 29.7142 30.1595 29.6462 30.1195 29.5502C29.9515 29.0942 29.7195 28.7782 29.4235 28.6022C29.1355 28.4182 28.7795 28.3262 28.3555 28.3262C27.8115 28.3262 27.3595 28.4942 26.9995 28.8302C26.6475 29.1582 26.4595 29.6982 26.4355 30.4502C26.4195 30.7302 26.4195 31.0102 26.4355 31.2902C26.4595 32.0422 26.6475 32.5862 26.9995 32.9222C27.3595 33.2502 27.8115 33.4142 28.3555 33.4142C28.7795 33.4142 29.1355 33.3262 29.4235 33.1502C29.7195 32.9662 29.9515 32.6462 30.1195 32.1902C30.1595 32.0942 30.1955 32.0302 30.2275 31.9982C30.2675 31.9582 30.3275 31.9382 30.4075 31.9382H30.5755C30.6475 31.9382 30.7115 31.9622 30.7675 32.0102C30.8235 32.0582 30.8475 32.1222 30.8395 32.2022C30.8315 32.3782 30.7955 32.5542 30.7315 32.7302C30.6675 32.9062 30.5675 33.0782 30.4315 33.2462C30.3035 33.4142 30.1435 33.5622 29.9515 33.6902C29.7595 33.8182 29.5275 33.9182 29.2555 33.9902C28.9915 34.0702 28.6915 34.1102 28.3555 34.1102ZM32.6891 33.9902C32.6091 33.9902 32.5451 33.9662 32.4971 33.9182C32.4491 33.8702 32.4251 33.8062 32.4251 33.7262V28.0142C32.4251 27.9342 32.4491 27.8702 32.4971 27.8222C32.5451 27.7742 32.6091 27.7502 32.6891 27.7502H32.8931C32.9731 27.7502 33.0371 27.7742 33.0851 27.8222C33.1331 27.8702 33.1571 27.9342 33.1571 28.0142V33.7262C33.1571 33.8062 33.1331 33.8702 33.0851 33.9182C33.0371 33.9662 32.9731 33.9902 32.8931 33.9902H32.6891ZM32.5571 26.4662C32.4771 26.4662 32.4131 26.4422 32.3651 26.3942C32.3171 26.3462 32.2931 26.2822 32.2931 26.2022V25.7462C32.2931 25.6662 32.3171 25.6022 32.3651 25.5542C32.4131 25.4982 32.4771 25.4702 32.5571 25.4702H33.0131C33.0931 25.4702 33.1571 25.4982 33.2051 25.5542C33.2611 25.6022 33.2891 25.6662 33.2891 25.7462V26.2022C33.2891 26.2822 33.2611 26.3462 33.2051 26.3942C33.1571 26.4422 33.0931 26.4662 33.0131 26.4662H32.5571ZM35.373 36.2702C35.293 36.2702 35.229 36.2462 35.181 36.1982C35.133 36.1502 35.109 36.0862 35.109 36.0062V28.0142C35.109 27.9342 35.133 27.8702 35.181 27.8222C35.229 27.7742 35.293 27.7502 35.373 27.7502H35.577C35.657 27.7502 35.721 27.7742 35.769 27.8222C35.817 27.8702 35.841 27.9342 35.841 28.0142V28.5782C36.041 28.3062 36.301 28.0822 36.621 27.9062C36.949 27.7222 37.361 27.6302 37.857 27.6302C38.329 27.6302 38.725 27.7142 39.045 27.8822C39.365 28.0422 39.625 28.2582 39.825 28.5302C40.025 28.8022 40.173 29.1062 40.269 29.4422C40.365 29.7782 40.417 30.1222 40.425 30.4742C40.433 30.5942 40.437 30.7262 40.437 30.8702C40.437 31.0142 40.433 31.1462 40.425 31.2662C40.417 31.6182 40.365 31.9622 40.269 32.2982C40.173 32.6342 40.025 32.9382 39.825 33.2102C39.625 33.4822 39.365 33.7022 39.045 33.8702C38.725 34.0302 38.329 34.1102 37.857 34.1102C37.361 34.1102 36.949 34.0182 36.621 33.8342C36.301 33.6502 36.041 33.4262 35.841 33.1622V36.0062C35.841 36.0862 35.817 36.1502 35.769 36.1982C35.721 36.2462 35.657 36.2702 35.577 36.2702H35.373ZM37.785 33.4142C38.257 33.4142 38.629 33.3102 38.901 33.1022C39.173 32.8942 39.369 32.6222 39.489 32.2862C39.609 31.9502 39.677 31.5902 39.693 31.2062C39.701 30.9822 39.701 30.7582 39.693 30.5342C39.677 30.1502 39.609 29.7902 39.489 29.4542C39.369 29.1182 39.173 28.8462 38.901 28.6382C38.629 28.4302 38.257 28.3262 37.785 28.3262C37.329 28.3262 36.961 28.4342 36.681 28.6502C36.401 28.8662 36.193 29.1382 36.057 29.4662C35.929 29.7862 35.857 30.1102 35.841 30.4382C35.833 30.5582 35.829 30.7142 35.829 30.9062C35.829 31.0982 35.833 31.2542 35.841 31.3742C35.849 31.6942 35.921 32.0102 36.057 32.3222C36.201 32.6342 36.413 32.8942 36.693 33.1022C36.981 33.3102 37.345 33.4142 37.785 33.4142ZM43.7497 34.1102C43.3657 34.1102 43.0097 34.0302 42.6817 33.8702C42.3617 33.7102 42.1017 33.4982 41.9017 33.2342C41.7017 32.9622 41.6017 32.6582 41.6017 32.3222C41.6017 31.7782 41.8217 31.3422 42.2617 31.0142C42.7017 30.6862 43.2737 30.4742 43.9777 30.3782L45.8737 30.1142V29.6942C45.8737 29.2702 45.7417 28.9382 45.4777 28.6982C45.2217 28.4502 44.8097 28.3262 44.2417 28.3262C43.8257 28.3262 43.4897 28.4102 43.2337 28.5782C42.9777 28.7382 42.8017 28.9502 42.7057 29.2142C42.6657 29.3342 42.5897 29.3942 42.4777 29.3942H42.2857C42.1897 29.3942 42.1217 29.3702 42.0817 29.3222C42.0417 29.2662 42.0217 29.2022 42.0217 29.1302C42.0217 29.0182 42.0617 28.8782 42.1417 28.7102C42.2297 28.5422 42.3617 28.3782 42.5377 28.2182C42.7137 28.0502 42.9417 27.9102 43.2217 27.7982C43.5017 27.6862 43.8417 27.6302 44.2417 27.6302C44.7137 27.6302 45.1017 27.6942 45.4057 27.8222C45.7177 27.9502 45.9577 28.1182 46.1257 28.3262C46.3017 28.5262 46.4257 28.7502 46.4977 28.9982C46.5697 29.2462 46.6057 29.4902 46.6057 29.7302V33.7262C46.6057 33.8062 46.5817 33.8702 46.5337 33.9182C46.4857 33.9662 46.4217 33.9902 46.3417 33.9902H46.1377C46.0577 33.9902 45.9937 33.9662 45.9457 33.9182C45.8977 33.8702 45.8737 33.8062 45.8737 33.7262V33.1622C45.7777 33.3062 45.6417 33.4502 45.4657 33.5942C45.2897 33.7382 45.0617 33.8622 44.7817 33.9662C44.5097 34.0622 44.1657 34.1102 43.7497 34.1102ZM43.8697 33.4142C44.2377 33.4142 44.5737 33.3342 44.8777 33.1742C45.1817 33.0142 45.4217 32.7702 45.5977 32.4422C45.7817 32.1062 45.8737 31.6862 45.8737 31.1822V30.7742L44.3257 30.9902C43.6697 31.0782 43.1737 31.2302 42.8377 31.4462C42.5017 31.6622 42.3337 31.9342 42.3337 32.2622C42.3337 32.5262 42.4097 32.7422 42.5617 32.9102C42.7137 33.0782 42.9057 33.2062 43.1377 33.2942C43.3777 33.3742 43.6217 33.4142 43.8697 33.4142ZM48.7673 33.9902C48.6873 33.9902 48.6233 33.9662 48.5753 33.9182C48.5273 33.8702 48.5033 33.8062 48.5033 33.7262V28.0142C48.5033 27.9342 48.5273 27.8702 48.5753 27.8222C48.6233 27.7742 48.6873 27.7502 48.7673 27.7502H48.9713C49.0513 27.7502 49.1153 27.7742 49.1633 27.8222C49.2113 27.8702 49.2353 27.9342 49.2353 28.0142V28.5782C49.4513 28.2982 49.7113 28.0702 50.0153 27.8942C50.3273 27.7182 50.7393 27.6302 51.2513 27.6302C51.7953 27.6302 52.2473 27.7502 52.6073 27.9902C52.9753 28.2222 53.2473 28.5422 53.4233 28.9502C53.6073 29.3502 53.6992 29.8062 53.6992 30.3182V33.7262C53.6992 33.8062 53.6753 33.8702 53.6273 33.9182C53.5793 33.9662 53.5153 33.9902 53.4353 33.9902H53.2313C53.1513 33.9902 53.0873 33.9662 53.0393 33.9182C52.9913 33.8702 52.9673 33.8062 52.9673 33.7262V30.3782C52.9673 29.7382 52.8113 29.2382 52.4993 28.8782C52.1873 28.5102 51.7313 28.3262 51.1313 28.3262C50.5633 28.3262 50.1033 28.5102 49.7513 28.8782C49.4073 29.2382 49.2353 29.7382 49.2353 30.3782V33.7262C49.2353 33.8062 49.2113 33.8702 49.1633 33.9182C49.1153 33.9662 49.0513 33.9902 48.9713 33.9902H48.7673ZM57.5876 33.9902C57.1716 33.9902 56.8436 33.9022 56.6036 33.7262C56.3636 33.5502 56.1956 33.3102 56.0996 33.0062C56.0036 32.7022 55.9556 32.3622 55.9556 31.9862V28.4462H55.0196C54.9396 28.4462 54.8756 28.4222 54.8276 28.3742C54.7796 28.3262 54.7556 28.2622 54.7556 28.1822V28.0142C54.7556 27.9342 54.7796 27.8702 54.8276 27.8222C54.8756 27.7742 54.9396 27.7502 55.0196 27.7502H55.9556V25.7342C55.9556 25.6542 55.9796 25.5902 56.0276 25.5422C56.0756 25.4942 56.1396 25.4702 56.2196 25.4702H56.4236C56.5036 25.4702 56.5676 25.4942 56.6156 25.5422C56.6636 25.5902 56.6876 25.6542 56.6876 25.7342V27.7502H58.1756C58.2556 27.7502 58.3196 27.7742 58.3676 27.8222C58.4156 27.8702 58.4396 27.9342 58.4396 28.0142V28.1822C58.4396 28.2622 58.4156 28.3262 58.3676 28.3742C58.3196 28.4222 58.2556 28.4462 58.1756 28.4462H56.6876V31.9382C56.6876 32.3622 56.7556 32.6942 56.8916 32.9342C57.0356 33.1742 57.2876 33.2942 57.6476 33.2942H58.2956C58.3756 33.2942 58.4396 33.3182 58.4876 33.3662C58.5356 33.4142 58.5596 33.4782 58.5596 33.5582V33.7262C58.5596 33.8062 58.5356 33.8702 58.4876 33.9182C58.4396 33.9662 58.3756 33.9902 58.2956 33.9902H57.5876ZM59.7041 34.8902C59.6401 34.8902 59.5921 34.8662 59.5601 34.8182C59.5361 34.7702 59.5281 34.7102 59.5361 34.6382L59.7641 33.1982C59.7801 33.1022 59.8081 33.0262 59.8481 32.9702C59.8961 32.9062 59.9681 32.8742 60.0641 32.8742H60.6041C60.6601 32.8742 60.7041 32.8942 60.7361 32.9342C60.7681 32.9742 60.7841 33.0182 60.7841 33.0662C60.7841 33.1382 60.7681 33.2102 60.7361 33.2822L60.2201 34.6382C60.1881 34.7182 60.1481 34.7782 60.1001 34.8182C60.0601 34.8662 59.9961 34.8902 59.9081 34.8902H59.7041ZM67.6811 33.9902C67.6011 33.9902 67.5371 33.9662 67.4891 33.9182C67.4411 33.8702 67.4171 33.8062 67.4171 33.7262V26.3102H65.0411C64.9611 26.3102 64.8971 26.2862 64.8491 26.2382C64.8011 26.1902 64.7771 26.1262 64.7771 26.0462V25.8662C64.7771 25.7782 64.8011 25.7102 64.8491 25.6622C64.8971 25.6142 64.9611 25.5902 65.0411 25.5902H70.5371C70.6251 25.5902 70.6931 25.6142 70.7411 25.6622C70.7891 25.7102 70.8131 25.7782 70.8131 25.8662V26.0462C70.8131 26.1262 70.7891 26.1902 70.7411 26.2382C70.6931 26.2862 70.6251 26.3102 70.5371 26.3102H68.1731V33.7262C68.1731 33.8062 68.1491 33.8702 68.1011 33.9182C68.0531 33.9662 67.9851 33.9902 67.8971 33.9902H67.6811ZM74.7222 34.1102C74.0742 34.1102 73.5222 34.0062 73.0662 33.7982C72.6182 33.5902 72.2742 33.3222 72.0342 32.9942C71.7942 32.6662 71.6662 32.3182 71.6502 31.9502C71.6502 31.8862 71.6742 31.8302 71.7222 31.7822C71.7702 31.7342 71.8302 31.7102 71.9022 31.7102H72.1422C72.2222 31.7102 72.2822 31.7342 72.3222 31.7822C72.3702 31.8302 72.3982 31.8862 72.4062 31.9502C72.4382 32.1742 72.5382 32.3982 72.7062 32.6222C72.8742 32.8382 73.1222 33.0222 73.4502 33.1742C73.7782 33.3182 74.2022 33.3902 74.7222 33.3902C75.5062 33.3902 76.0782 33.2502 76.4382 32.9702C76.7982 32.6822 76.9782 32.2982 76.9782 31.8182C76.9782 31.4982 76.8822 31.2422 76.6902 31.0502C76.5062 30.8502 76.2222 30.6742 75.8382 30.5222C75.4542 30.3622 74.9622 30.1862 74.3622 29.9942C73.7942 29.8102 73.3262 29.6222 72.9582 29.4302C72.5902 29.2302 72.3182 28.9902 72.1422 28.7102C71.9742 28.4302 71.8902 28.0702 71.8902 27.6302C71.8902 27.2222 71.9982 26.8582 72.2142 26.5382C72.4302 26.2102 72.7422 25.9502 73.1502 25.7582C73.5662 25.5662 74.0702 25.4702 74.6622 25.4702C75.1342 25.4702 75.5462 25.5342 75.8982 25.6622C76.2502 25.7902 76.5422 25.9622 76.7742 26.1782C77.0062 26.3862 77.1822 26.6142 77.3022 26.8622C77.4222 27.1022 77.4862 27.3382 77.4942 27.5702C77.4942 27.6262 77.4742 27.6822 77.4342 27.7382C77.3942 27.7862 77.3302 27.8102 77.2422 27.8102H77.0022C76.9622 27.8102 76.9102 27.7942 76.8462 27.7622C76.7902 27.7302 76.7542 27.6662 76.7382 27.5702C76.6902 27.1702 76.4782 26.8422 76.1022 26.5862C75.7342 26.3222 75.2542 26.1902 74.6622 26.1902C74.0702 26.1902 73.5862 26.3062 73.2102 26.5382C72.8342 26.7702 72.6462 27.1342 72.6462 27.6302C72.6462 27.9502 72.7302 28.2142 72.8982 28.4222C73.0662 28.6222 73.3302 28.8022 73.6902 28.9622C74.0502 29.1142 74.5142 29.2822 75.0822 29.4662C75.6822 29.6582 76.1782 29.8502 76.5702 30.0422C76.9622 30.2342 77.2542 30.4702 77.4462 30.7502C77.6382 31.0222 77.7342 31.3782 77.7342 31.8182C77.7342 32.3062 77.6102 32.7222 77.3622 33.0662C77.1222 33.4022 76.7782 33.6622 76.3302 33.8462C75.8822 34.0222 75.3462 34.1102 74.7222 34.1102ZM81.6878 34.1102C81.1118 34.1102 80.6278 33.9902 80.2358 33.7502C79.8518 33.5102 79.5558 33.1822 79.3478 32.7662C79.1478 32.3502 79.0398 31.8862 79.0238 31.3742C79.0158 31.2542 79.0118 31.0862 79.0118 30.8702C79.0118 30.6542 79.0158 30.4862 79.0238 30.3662C79.0398 29.8462 79.1478 29.3822 79.3478 28.9742C79.5558 28.5582 79.8518 28.2302 80.2358 27.9902C80.6278 27.7502 81.1118 27.6302 81.6878 27.6302C82.2638 27.6302 82.7438 27.7502 83.1278 27.9902C83.5198 28.2302 83.8158 28.5582 84.0158 28.9742C84.2238 29.3822 84.3358 29.8462 84.3518 30.3662C84.3598 30.4862 84.3638 30.6542 84.3638 30.8702C84.3638 31.0862 84.3598 31.2542 84.3518 31.3742C84.3358 31.8862 84.2238 32.3502 84.0158 32.7662C83.8158 33.1822 83.5198 33.5102 83.1278 33.7502C82.7438 33.9902 82.2638 34.1102 81.6878 34.1102ZM81.6878 33.4142C82.2478 33.4142 82.7038 33.2342 83.0558 32.8742C83.4078 32.5142 83.5958 31.9942 83.6198 31.3142C83.6278 31.1942 83.6318 31.0462 83.6318 30.8702C83.6318 30.6942 83.6278 30.5462 83.6198 30.4262C83.5958 29.7382 83.4078 29.2182 83.0558 28.8662C82.7038 28.5062 82.2478 28.3262 81.6878 28.3262C81.1278 28.3262 80.6718 28.5062 80.3198 28.8662C79.9678 29.2182 79.7798 29.7382 79.7558 30.4262C79.7478 30.5462 79.7438 30.6942 79.7438 30.8702C79.7438 31.0462 79.7478 31.1942 79.7558 31.3142C79.7798 31.9942 79.9678 32.5142 80.3198 32.8742C80.6718 33.2342 81.1278 33.4142 81.6878 33.4142ZM89.0033 34.1102C88.2753 34.1102 87.6793 33.9702 87.2153 33.6902C86.7593 33.4022 86.4193 33.0142 86.1953 32.5262C85.9713 32.0382 85.8473 31.4822 85.8232 30.8582C85.8153 30.5302 85.8113 30.1782 85.8113 29.8022C85.8113 29.4262 85.8153 29.0662 85.8232 28.7222C85.8473 28.0982 85.9713 27.5422 86.1953 27.0542C86.4193 26.5582 86.7593 26.1702 87.2153 25.8902C87.6793 25.6102 88.2753 25.4702 89.0033 25.4702C89.5713 25.4702 90.0553 25.5502 90.4553 25.7102C90.8553 25.8702 91.1793 26.0822 91.4273 26.3462C91.6833 26.6022 91.8713 26.8822 91.9913 27.1862C92.1193 27.4822 92.1913 27.7742 92.2073 28.0622C92.2153 28.1342 92.1913 28.1942 92.1353 28.2422C92.0873 28.2822 92.0273 28.3022 91.9553 28.3022H91.7153C91.6513 28.3022 91.5953 28.2862 91.5473 28.2542C91.4993 28.2142 91.4673 28.1462 91.4513 28.0502C91.2993 27.3382 91.0113 26.8502 90.5873 26.5862C90.1713 26.3222 89.6433 26.1902 89.0033 26.1902C88.2753 26.1902 87.6953 26.3982 87.2633 26.8142C86.8393 27.2222 86.6113 27.8782 86.5793 28.7822C86.5553 29.4382 86.5553 30.1102 86.5793 30.7982C86.6113 31.7022 86.8393 32.3622 87.2633 32.7782C87.6953 33.1862 88.2753 33.3902 89.0033 33.3902C89.6433 33.3902 90.1713 33.2582 90.5873 32.9942C91.0113 32.7302 91.2993 32.2422 91.4513 31.5302C91.4673 31.4342 91.4993 31.3702 91.5473 31.3382C91.5953 31.2982 91.6513 31.2782 91.7153 31.2782H91.9553C92.0273 31.2782 92.0873 31.3022 92.1353 31.3502C92.1913 31.3902 92.2153 31.4462 92.2073 31.5182C92.1913 31.8062 92.1193 32.1022 91.9913 32.4062C91.8713 32.7022 91.6833 32.9822 91.4273 33.2462C91.1793 33.5022 90.8553 33.7102 90.4553 33.8702C90.0553 34.0302 89.5713 34.1102 89.0033 34.1102ZM96.8294 33.9902C96.7494 33.9902 96.6854 33.9662 96.6374 33.9182C96.5894 33.8702 96.5654 33.8062 96.5654 33.7262V33.5462C96.5654 33.4662 96.5854 33.3902 96.6254 33.3182C96.6734 33.2382 96.7534 33.1462 96.8654 33.0422L99.9734 29.9342C100.277 29.6542 100.509 29.4102 100.669 29.2022C100.829 28.9942 100.937 28.7902 100.993 28.5902C101.057 28.3822 101.089 28.1542 101.089 27.9062C101.089 27.3702 100.933 26.9502 100.621 26.6462C100.317 26.3422 99.8814 26.1902 99.3134 26.1902C98.9534 26.1902 98.6414 26.2622 98.3774 26.4062C98.1134 26.5502 97.9054 26.7542 97.7534 27.0182C97.6014 27.2742 97.5014 27.5742 97.4534 27.9182C97.4454 28.0142 97.4094 28.0862 97.3454 28.1342C97.2814 28.1742 97.2254 28.1942 97.1774 28.1942H96.9374C96.8574 28.1942 96.7934 28.1742 96.7454 28.1342C96.7054 28.0862 96.6854 28.0302 96.6854 27.9662C96.6934 27.6942 96.7494 27.4142 96.8534 27.1262C96.9574 26.8302 97.1134 26.5582 97.3214 26.3102C97.5374 26.0622 97.8094 25.8622 98.1374 25.7102C98.4654 25.5502 98.8574 25.4702 99.3134 25.4702C99.9214 25.4702 100.409 25.5862 100.777 25.8182C101.153 26.0502 101.425 26.3502 101.593 26.7182C101.761 27.0862 101.845 27.4822 101.845 27.9062C101.845 28.2342 101.797 28.5382 101.701 28.8182C101.605 29.0902 101.461 29.3582 101.269 29.6222C101.077 29.8782 100.833 30.1422 100.537 30.4142L97.7294 33.2702H101.749C101.837 33.2702 101.905 33.2942 101.953 33.3422C102.001 33.3902 102.025 33.4582 102.025 33.5462V33.7262C102.025 33.8062 102.001 33.8702 101.953 33.9182C101.905 33.9662 101.837 33.9902 101.749 33.9902H96.8294ZM106.352 34.1102C105.808 34.1102 105.352 34.0222 104.984 33.8462C104.624 33.6702 104.332 33.4302 104.108 33.1262C103.892 32.8142 103.736 32.4582 103.64 32.0582C103.544 31.6582 103.488 31.2382 103.472 30.7982C103.472 30.5822 103.468 30.3622 103.46 30.1382C103.46 29.9142 103.46 29.6902 103.46 29.4662C103.468 29.2342 103.472 29.0062 103.472 28.7822C103.48 28.3422 103.532 27.9222 103.628 27.5222C103.732 27.1222 103.892 26.7702 104.108 26.4662C104.332 26.1542 104.624 25.9102 104.984 25.7342C105.352 25.5582 105.808 25.4702 106.352 25.4702C106.896 25.4702 107.348 25.5582 107.708 25.7342C108.076 25.9102 108.368 26.1542 108.584 26.4662C108.808 26.7702 108.968 27.1222 109.064 27.5222C109.168 27.9222 109.224 28.3422 109.232 28.7822C109.24 29.0062 109.244 29.2342 109.244 29.4662C109.244 29.6902 109.244 29.9142 109.244 30.1382C109.244 30.3622 109.24 30.5822 109.232 30.7982C109.224 31.2382 109.168 31.6582 109.064 32.0582C108.968 32.4582 108.808 32.8142 108.584 33.1262C108.368 33.4302 108.076 33.6702 107.708 33.8462C107.348 34.0222 106.896 34.1102 106.352 34.1102ZM106.352 33.3902C107.064 33.3902 107.592 33.1542 107.936 32.6822C108.28 32.2102 108.46 31.5622 108.476 30.7382C108.484 30.5062 108.488 30.2902 108.488 30.0902C108.488 29.8822 108.488 29.6782 108.488 29.4782C108.488 29.2702 108.484 29.0582 108.476 28.8422C108.46 28.0342 108.28 27.3902 107.936 26.9102C107.592 26.4302 107.064 26.1902 106.352 26.1902C105.648 26.1902 105.12 26.4302 104.768 26.9102C104.424 27.3902 104.244 28.0342 104.228 28.8422C104.228 29.0582 104.224 29.2702 104.216 29.4782C104.216 29.6782 104.216 29.8822 104.216 30.0902C104.224 30.2902 104.228 30.5062 104.228 30.7382C104.244 31.5622 104.424 32.2102 104.768 32.6822C105.12 33.1542 105.648 33.3902 106.352 33.3902ZM110.939 33.9902C110.859 33.9902 110.795 33.9662 110.747 33.9182C110.699 33.8702 110.675 33.8062 110.675 33.7262V33.5462C110.675 33.4662 110.695 33.3902 110.735 33.3182C110.783 33.2382 110.863 33.1462 110.975 33.0422L114.083 29.9342C114.387 29.6542 114.619 29.4102 114.779 29.2022C114.939 28.9942 115.047 28.7902 115.103 28.5902C115.167 28.3822 115.199 28.1542 115.199 27.9062C115.199 27.3702 115.043 26.9502 114.731 26.6462C114.427 26.3422 113.991 26.1902 113.423 26.1902C113.063 26.1902 112.751 26.2622 112.487 26.4062C112.223 26.5502 112.015 26.7542 111.863 27.0182C111.711 27.2742 111.611 27.5742 111.563 27.9182C111.555 28.0142 111.519 28.0862 111.455 28.1342C111.391 28.1742 111.335 28.1942 111.287 28.1942H111.047C110.967 28.1942 110.903 28.1742 110.855 28.1342C110.815 28.0862 110.795 28.0302 110.795 27.9662C110.803 27.6942 110.859 27.4142 110.963 27.1262C111.067 26.8302 111.223 26.5582 111.431 26.3102C111.647 26.0622 111.919 25.8622 112.247 25.7102C112.575 25.5502 112.967 25.4702 113.423 25.4702C114.031 25.4702 114.519 25.5862 114.887 25.8182C115.263 26.0502 115.535 26.3502 115.703 26.7182C115.871 27.0862 115.955 27.4822 115.955 27.9062C115.955 28.2342 115.907 28.5382 115.811 28.8182C115.715 29.0902 115.571 29.3582 115.379 29.6222C115.187 29.8782 114.943 30.1422 114.647 30.4142L111.839 33.2702H115.859C115.947 33.2702 116.015 33.2942 116.063 33.3422C116.111 33.3902 116.135 33.4582 116.135 33.5462V33.7262C116.135 33.8062 116.111 33.8702 116.063 33.9182C116.015 33.9662 115.947 33.9902 115.859 33.9902H110.939ZM121.497 33.9902C121.417 33.9902 121.353 33.9662 121.305 33.9182C121.257 33.8702 121.233 33.8062 121.233 33.7262V31.8302H117.273C117.193 31.8302 117.129 31.8062 117.081 31.7582C117.033 31.7102 117.009 31.6462 117.009 31.5662V31.3742C117.009 31.3582 117.017 31.3142 117.033 31.2422C117.049 31.1702 117.085 31.0942 117.141 31.0142L120.789 25.7942C120.885 25.6582 121.033 25.5902 121.233 25.5902H121.725C121.805 25.5902 121.869 25.6142 121.917 25.6622C121.965 25.7102 121.989 25.7742 121.989 25.8542V31.1102H123.081C123.161 31.1102 123.225 31.1342 123.273 31.1822C123.321 31.2302 123.345 31.2942 123.345 31.3742V31.5662C123.345 31.6462 123.321 31.7102 123.273 31.7582C123.225 31.8062 123.161 31.8302 123.081 31.8302H121.989V33.7262C121.989 33.8062 121.965 33.8702 121.917 33.9182C121.869 33.9662 121.805 33.9902 121.725 33.9902H121.497ZM117.957 31.1102H121.233V26.4422L117.957 31.1102Z" fill="#707070"/>
</svg>
