<svg width="126" height="42" viewBox="0 0 126 42" fill="none" xmlns="http://www.w3.org/2000/svg">
<rect x="0.808594" y="12.2671" width="137.23" height="29" rx="14.5" transform="rotate(-5 0.808594 12.2671)" fill="#9747FF"/>
<rect x="1.35027" y="12.7216" width="136.23" height="28" rx="14" transform="rotate(-5 1.35027 12.7216)" stroke="black" stroke-opacity="0.05"/>
<path d="M15.6375 30.0421C15.5578 30.0491 15.4876 30.0271 15.427 29.9762C15.3663 29.9253 15.3325 29.86 15.3255 29.7803L14.6436 21.9861C14.6366 21.9064 14.6586 21.8362 14.7095 21.7755C14.7604 21.7149 14.8257 21.681 14.9054 21.6741L16.0291 21.5757C16.1168 21.5681 16.187 21.59 16.2397 21.6416C16.3003 21.6926 16.3342 21.7579 16.3411 21.8375L17.023 29.6318C17.03 29.7115 17.008 29.7817 16.9571 29.8423C16.9142 29.9023 16.8489 29.9361 16.7612 29.9438L15.6375 30.0421ZM19.0664 29.7421C18.9867 29.7491 18.9165 29.7271 18.8558 29.6762C18.7952 29.6253 18.7613 29.56 18.7544 29.4803L18.2607 23.8379C18.2537 23.7582 18.2757 23.688 18.3266 23.6273C18.3775 23.5666 18.4428 23.5328 18.5225 23.5259L19.4549 23.4443C19.5346 23.4373 19.6048 23.4593 19.6655 23.5102C19.7262 23.5611 19.76 23.6264 19.767 23.7061L19.8025 24.1125C19.9504 23.8747 20.1571 23.6679 20.4228 23.4921C20.6958 23.3076 21.0271 23.1943 21.417 23.1522C22.3241 23.0567 22.9887 23.356 23.4108 24.0498C23.5662 23.715 23.8069 23.437 24.1328 23.2157C24.4661 22.9858 24.8439 22.8523 25.2663 22.8154C25.6807 22.7791 26.0636 22.842 26.4151 23.004C26.7745 23.1653 27.0669 23.4328 27.2924 23.8066C27.5251 24.1717 27.6672 24.6491 27.7188 25.2389L28.019 28.6698C28.0259 28.7495 28.004 28.8196 27.9531 28.8803C27.9022 28.941 27.8369 28.9748 27.7572 28.9818L26.7769 29.0675C26.6972 29.0745 26.627 29.0525 26.5664 29.0016C26.5057 28.9507 26.4719 28.8854 26.4649 28.8057L26.1731 25.4705C26.1417 25.1118 26.0652 24.8334 25.9434 24.6353C25.821 24.4292 25.6683 24.29 25.4853 24.2176C25.3023 24.1453 25.1032 24.1186 24.888 24.1374C24.7127 24.1527 24.5412 24.2119 24.3735 24.3149C24.2059 24.4179 24.0757 24.5819 23.9829 24.8068C23.8895 25.0238 23.8585 25.3116 23.8898 25.6702L24.1816 29.0055C24.1886 29.0852 24.1666 29.1554 24.1157 29.216C24.0648 29.2767 23.9995 29.3105 23.9198 29.3175L22.9396 29.4032C22.8519 29.4109 22.7777 29.3893 22.7171 29.3384C22.6644 29.2868 22.6345 29.2211 22.6276 29.1414L22.3358 25.8062C22.3044 25.4476 22.2239 25.1695 22.0941 24.9721C21.9637 24.7667 21.807 24.6278 21.624 24.5555C21.441 24.4831 21.2499 24.4557 21.0507 24.4731C20.8674 24.4892 20.6923 24.5527 20.5253 24.6636C20.3576 24.7666 20.2271 24.9266 20.1336 25.1436C20.0402 25.3606 20.0092 25.6484 20.0405 26.007L20.3323 29.3423C20.3393 29.4219 20.3173 29.4921 20.2664 29.5528C20.2155 29.6135 20.1502 29.6473 20.0705 29.6543L19.0664 29.7421ZM30.064 31.0687C29.9843 31.0756 29.9141 31.0537 29.8534 31.0028C29.7927 30.9518 29.7589 30.8865 29.7519 30.8069L29.0596 22.8931C29.0526 22.8134 29.0746 22.7432 29.1255 22.6825C29.1764 22.6219 29.2417 22.588 29.3214 22.5811L30.2658 22.4985C30.3534 22.4908 30.4236 22.5127 30.4763 22.5644C30.537 22.6153 30.5708 22.6806 30.5778 22.7603L30.6196 23.2384C30.7886 22.9667 31.0211 22.7335 31.3173 22.539C31.6135 22.3444 31.9927 22.2269 32.4549 22.1865C32.8773 22.1495 33.2498 22.1852 33.5725 22.2935C33.8952 22.4018 34.1713 22.5744 34.4008 22.8113C34.6296 23.0402 34.8148 23.3211 34.9563 23.654C35.0979 23.987 35.1948 24.3599 35.247 24.773C35.2668 24.9078 35.283 25.0469 35.2955 25.1903C35.3081 25.3338 35.3166 25.4776 35.3212 25.6217C35.3481 26.0209 35.3208 26.3967 35.2392 26.7492C35.1569 27.0936 35.0193 27.4028 34.8264 27.6767C34.6409 27.9419 34.3989 28.1598 34.1007 28.3304C33.8024 28.5011 33.4421 28.6049 33.0197 28.6418C32.5893 28.6795 32.2161 28.6358 31.9 28.5109C31.5832 28.378 31.318 28.1924 31.1045 27.9541L31.3419 30.6678C31.3488 30.7474 31.3269 30.8176 31.276 30.8783C31.233 30.9383 31.1677 30.9721 31.0801 30.9798L30.064 31.0687ZM32.4655 27.4014C32.8082 27.3714 33.0689 27.2763 33.2476 27.1161C33.4256 26.948 33.544 26.7409 33.6028 26.4948C33.6695 26.2481 33.6983 25.9805 33.6892 25.6922C33.6842 25.4518 33.6633 25.2127 33.6264 24.975C33.5854 24.6895 33.5106 24.431 33.402 24.1996C33.3014 23.9675 33.1491 23.7881 32.9453 23.6613C32.7408 23.5267 32.4672 23.4743 32.1245 23.5043C31.7978 23.5329 31.5374 23.6319 31.3434 23.8015C31.1575 23.9703 31.0271 24.1785 30.9524 24.4259C30.8849 24.6647 30.8541 24.9084 30.8597 25.1568C30.8643 25.301 30.8736 25.4527 30.8875 25.6121C30.9015 25.7715 30.919 25.9266 30.9403 26.0773C30.9691 26.3157 31.0452 26.5419 31.1683 26.756C31.2907 26.9621 31.4578 27.1282 31.6696 27.2542C31.8814 27.3802 32.1467 27.4293 32.4655 27.4014ZM38.725 28.1427C38.3106 28.1789 37.929 28.132 37.5804 28.0019C37.231 27.8638 36.9448 27.668 36.7219 27.4145C36.5062 27.1523 36.3834 26.8498 36.3534 26.5071C36.3046 25.9493 36.4891 25.4874 36.9068 25.1216C37.3317 24.7472 37.9099 24.4717 38.6413 24.2953L40.2582 23.9129L40.2362 23.6619C40.2069 23.3272 40.1006 23.0755 39.9172 22.9068C39.7338 22.7382 39.4389 22.6716 39.0324 22.7072C38.7455 22.7323 38.5156 22.8126 38.3428 22.9482C38.1772 23.0751 38.059 23.238 37.9881 23.437C37.9334 23.5462 37.8462 23.606 37.7267 23.6164L36.7823 23.6991C36.6946 23.7067 36.6248 23.6888 36.5728 23.6451C36.5288 23.6008 36.5033 23.5388 36.4963 23.4591C36.4931 23.3309 36.5313 23.1709 36.6109 22.9793C36.6905 22.7876 36.8266 22.599 37.0192 22.4135C37.211 22.2201 37.4651 22.0493 37.7814 21.9011C38.0977 21.753 38.487 21.6587 38.9492 21.6183C39.4513 21.5744 39.8793 21.6012 40.2331 21.6987C40.5942 21.7876 40.8874 21.9265 41.1128 22.1156C41.3381 22.3047 41.5108 22.5345 41.6308 22.8051C41.7509 23.0757 41.8245 23.3663 41.8517 23.6772L42.1801 27.4308C42.1871 27.5105 42.1651 27.5807 42.1142 27.6414C42.0633 27.702 41.998 27.7359 41.9183 27.7428L40.95 27.8275C40.8623 27.8352 40.7882 27.8136 40.7275 27.7627C40.6748 27.7111 40.645 27.6454 40.638 27.5657L40.5972 27.0995C40.5068 27.26 40.3799 27.4157 40.2164 27.5665C40.0523 27.7093 39.8465 27.8357 39.5991 27.9457C39.3591 28.047 39.0677 28.1127 38.725 28.1427ZM39.0321 26.9714C39.311 26.947 39.5568 26.8653 39.7695 26.7262C39.9902 26.5865 40.1534 26.3875 40.2593 26.1293C40.3725 25.8624 40.4124 25.5377 40.3789 25.1551L40.3569 24.9041L39.1782 25.2C38.7143 25.3128 38.3738 25.4591 38.1566 25.6387C37.9394 25.8183 37.8409 26.0236 37.8612 26.2548C37.8765 26.4301 37.9415 26.577 38.0563 26.6954C38.1783 26.8052 38.3258 26.8847 38.4988 26.9338C38.671 26.9749 38.8488 26.9875 39.0321 26.9714ZM46.439 27.4678C45.8652 27.518 45.3497 27.4547 44.8926 27.2778C44.4434 27.1003 44.0775 26.8191 43.7949 26.4343C43.5195 26.0408 43.3444 25.5542 43.2696 24.9745C43.2512 24.8557 43.2336 24.7006 43.2169 24.5093C43.1995 24.3101 43.1891 24.1464 43.186 24.0182C43.159 23.4343 43.2472 22.9287 43.4508 22.5013C43.6616 22.0653 43.9727 21.7209 44.3843 21.468C44.8038 21.2145 45.3004 21.0626 45.8742 21.0124C46.3843 20.9678 46.8249 21.0015 47.1961 21.1136C47.5672 21.2257 47.8778 21.3792 48.1278 21.5742C48.3777 21.7691 48.5689 21.9813 48.7014 22.2106C48.8412 22.4312 48.9234 22.6369 48.9481 22.8274C48.9637 22.9144 48.9421 22.9886 48.8833 23.0499C48.8316 23.1026 48.766 23.1325 48.6863 23.1394L47.6343 23.2315C47.5546 23.2384 47.4891 23.2241 47.4378 23.1884C47.3945 23.1521 47.3494 23.0958 47.3026 23.0196C47.1552 22.7113 46.9762 22.5021 46.7658 22.392C46.5627 22.2732 46.3097 22.2271 46.0069 22.2536C45.6084 22.2885 45.3008 22.4439 45.084 22.7198C44.8745 22.9871 44.7855 23.3924 44.817 23.9357C44.8275 24.2399 44.8519 24.5189 44.8902 24.7725C44.9542 25.321 45.1126 25.7087 45.3654 25.9355C45.6261 26.1617 45.9556 26.2573 46.3541 26.2224C46.6649 26.1952 46.9104 26.1095 47.0905 25.9653C47.2699 25.8131 47.4055 25.5723 47.4971 25.2431C47.53 25.1599 47.5646 25.0966 47.601 25.0533C47.6453 25.0093 47.7073 24.9838 47.787 24.9768L48.839 24.8848C48.9187 24.8778 48.9889 24.8998 49.0495 24.9507C49.1175 24.9929 49.1513 25.0582 49.151 25.1466C49.1556 25.2907 49.13 25.4576 49.0743 25.6472C49.0259 25.8281 48.9344 26.0208 48.7997 26.2253C48.6723 26.4211 48.504 26.6085 48.2948 26.7874C48.0849 26.9584 47.8247 27.1056 47.5143 27.2291C47.2118 27.352 46.8534 27.4315 46.439 27.4678ZM53.3775 26.7403C52.8993 26.7821 52.4895 26.7336 52.1481 26.5949C51.8067 26.4561 51.542 26.2303 51.354 25.9175C51.1654 25.5967 51.0494 25.1893 51.0062 24.6952L50.7688 21.9815L49.8244 22.0642C49.7447 22.0711 49.6745 22.0492 49.6138 21.9983C49.5532 21.9473 49.5194 21.882 49.5124 21.8024L49.4517 21.109C49.4447 21.0293 49.4667 20.9591 49.5176 20.8985C49.5685 20.8378 49.6338 20.804 49.7135 20.797L50.6579 20.7144L50.4843 18.73C50.4773 18.6503 50.4953 18.5804 50.5382 18.5205C50.5892 18.4598 50.6584 18.4256 50.7461 18.4179L51.7144 18.3332C51.7941 18.3263 51.8643 18.3482 51.9249 18.3991C51.9856 18.45 52.0194 18.5153 52.0264 18.595L52.2 20.5795L53.6943 20.4487C53.774 20.4417 53.8442 20.4637 53.9049 20.5146C53.9655 20.5655 53.9993 20.6308 54.0063 20.7105L54.067 21.4039C54.074 21.4836 54.052 21.5538 54.0011 21.6144C53.9502 21.6751 53.8849 21.7089 53.8052 21.7159L52.3109 21.8466L52.5378 24.4407C52.5664 24.7675 52.6445 25.0176 52.7721 25.1911C52.9077 25.364 53.119 25.4379 53.4059 25.4128L54.2307 25.3406C54.3104 25.3336 54.3806 25.3556 54.4413 25.4065C54.5019 25.4574 54.5357 25.5227 54.5427 25.6024L54.6076 26.3436C54.6145 26.4233 54.5926 26.4934 54.5417 26.5541C54.4908 26.6148 54.4255 26.6486 54.3458 26.6556L53.3775 26.7403ZM56.6495 26.454C56.5698 26.461 56.4996 26.439 56.4389 26.3881C56.3783 26.3372 56.3445 26.2719 56.3375 26.1922L55.9296 21.53L54.9613 21.6147C54.8816 21.6217 54.8114 21.5997 54.7507 21.5488C54.6901 21.4979 54.6563 21.4326 54.6493 21.3529L54.5886 20.6596C54.5817 20.5799 54.6036 20.5097 54.6545 20.449C54.7054 20.3884 54.7707 20.3545 54.8504 20.3476L55.8187 20.2629L55.7759 19.7727C55.734 19.2946 55.7872 18.8924 55.9353 18.5662C56.0827 18.2321 56.3208 17.9704 56.6496 17.781C56.9783 17.5916 57.4057 17.4739 57.9317 17.4279L58.7446 17.3568C58.8323 17.3491 58.9024 17.3711 58.9551 17.4227C59.0158 17.4736 59.0496 17.5389 59.0566 17.6186L59.1173 18.3119C59.1242 18.3916 59.1023 18.4618 59.0514 18.5225C59.0084 18.5825 58.9431 18.6163 58.8554 18.624L58.0904 18.6909C57.7716 18.7188 57.5594 18.8176 57.4538 18.9875C57.3482 19.1573 57.3086 19.3937 57.3351 19.6965L57.3728 20.1269L58.8551 19.9972C58.9428 19.9895 59.013 20.0115 59.0657 20.0631C59.1263 20.114 59.1602 20.1793 59.1671 20.259L59.2278 20.9524C59.2348 21.0321 59.2128 21.1022 59.1619 21.1629C59.119 21.2229 59.0537 21.2567 58.966 21.2644L57.4837 21.3941L57.8915 26.0562C57.8985 26.1359 57.8766 26.2061 57.8256 26.2668C57.7747 26.3275 57.7094 26.3613 57.6297 26.3683L56.6495 26.454ZM62.9606 26.0223C62.4745 26.0648 62.0427 25.9942 61.6652 25.8104C61.295 25.6179 60.9969 25.3308 60.7708 24.9491C60.5439 24.5594 60.4065 24.0896 60.3583 23.5397L60.0645 20.1805C60.0575 20.1008 60.0795 20.0306 60.1304 19.97C60.1813 19.9093 60.2466 19.8755 60.3263 19.8685L61.3782 19.7765C61.4659 19.7688 61.5361 19.7908 61.5888 19.8424C61.6495 19.8933 61.6833 19.9586 61.6903 20.0383L61.9779 23.3257C62.0643 24.3139 62.5419 24.77 63.4106 24.694C63.825 24.6578 64.1402 24.4977 64.3563 24.2138C64.5804 23.9292 64.6722 23.5558 64.6317 23.0935L64.3441 19.8061C64.3371 19.7264 64.3591 19.6562 64.41 19.5955C64.4609 19.5349 64.5262 19.5011 64.6059 19.4941L65.6579 19.402C65.7376 19.3951 65.8078 19.417 65.8684 19.4679C65.9291 19.5188 65.9629 19.5841 65.9699 19.6638L66.4636 25.3063C66.4705 25.386 66.4486 25.4562 66.3977 25.5168C66.3467 25.5775 66.2814 25.6113 66.2017 25.6183L65.2334 25.703C65.1458 25.7107 65.0716 25.6891 65.0109 25.6382C64.9583 25.5866 64.9284 25.5209 64.9214 25.4412L64.8786 24.9511C64.6878 25.2488 64.44 25.4914 64.1351 25.6786C63.8303 25.8659 63.4388 25.9805 62.9606 26.0223ZM68.3666 25.4289C68.2869 25.4359 68.2167 25.4139 68.1561 25.363C68.0954 25.3121 68.0616 25.2468 68.0546 25.1671L67.3622 17.2533C67.3553 17.1736 67.3772 17.1034 67.4281 17.0428C67.479 16.9821 67.5443 16.9483 67.624 16.9413L68.6162 16.8545C68.6959 16.8475 68.7661 16.8695 68.8268 16.9204C68.8875 16.9713 68.9213 17.0366 68.9283 17.1163L69.6206 25.0301C69.6276 25.1098 69.6056 25.18 69.5547 25.2406C69.5038 25.3013 69.4385 25.3351 69.3588 25.3421L68.3666 25.4289ZM74.3936 24.9016C74.3139 24.9086 74.2437 24.8866 74.183 24.8357C74.1223 24.7848 74.0885 24.7195 74.0815 24.6398L73.4007 16.8575C73.393 16.7699 73.4146 16.6957 73.4655 16.635C73.5164 16.5744 73.5817 16.5405 73.6614 16.5336L76.7576 16.2627C77.7219 16.1783 78.5025 16.3349 79.0995 16.7324C79.6964 17.1299 80.0321 17.755 80.1067 18.6077C80.1583 19.1975 80.0538 19.7005 79.7931 20.1168C79.5403 20.5324 79.1786 20.8491 78.7078 21.067L80.7198 23.9627C80.7479 24.0084 80.7637 24.0512 80.7672 24.091C80.7734 24.1628 80.7508 24.225 80.6992 24.2777C80.6555 24.3297 80.6018 24.3585 80.5381 24.364L79.4502 24.4592C79.3148 24.4711 79.208 24.4443 79.13 24.3788C79.052 24.3134 78.9899 24.2465 78.9438 24.1783L77.1538 21.48L75.4922 21.6254L75.7432 24.4944C75.7502 24.5741 75.7282 24.6443 75.6773 24.705C75.6344 24.7649 75.5691 24.7988 75.4814 24.8064L74.3936 24.9016ZM75.374 20.2745L77.0596 20.1271C77.5457 20.0845 77.8989 19.9452 78.1192 19.7091C78.3387 19.4651 78.4311 19.1438 78.3962 18.7453C78.3614 18.3468 78.2146 18.0465 77.956 17.8443C77.7047 17.6334 77.332 17.5495 76.8378 17.5928L75.1523 17.7402L75.374 20.2745ZM84.6249 24.1269C83.7403 24.2043 83.0166 24.0107 82.454 23.5459C81.8913 23.0812 81.5489 22.3804 81.4268 21.4435C81.4119 21.3645 81.3992 21.2652 81.3887 21.1456C81.3776 21.0181 81.3728 20.9182 81.3745 20.8457C81.3541 20.2452 81.4443 19.7154 81.645 19.2561C81.8537 18.7962 82.1631 18.4318 82.5733 18.1631C82.9827 17.8863 83.4783 17.7225 84.0601 17.6716C84.7056 17.6151 85.2594 17.7032 85.7215 17.9358C86.1828 18.1605 86.5459 18.5021 86.8109 18.9608C87.0752 19.4114 87.2345 19.9476 87.2889 20.5692L87.3109 20.8203C87.3179 20.9 87.2959 20.9701 87.245 21.0308C87.1941 21.0915 87.1248 21.1256 87.0371 21.1333L83.0683 21.4805C83.0683 21.4805 83.0693 21.4925 83.0714 21.5164C83.0735 21.5403 83.0753 21.5602 83.0767 21.5762C83.109 21.8544 83.1835 22.1089 83.3001 22.3396C83.4239 22.5617 83.5877 22.736 83.7915 22.8628C84.0033 22.9888 84.2447 23.0399 84.5157 23.0162C84.7388 22.9967 84.9233 22.9484 85.0691 22.8714C85.2143 22.7865 85.3308 22.696 85.4188 22.5999C85.5068 22.5039 85.5682 22.4262 85.6032 22.367C85.6666 22.2651 85.7175 22.2044 85.7559 22.185C85.8016 22.1569 85.8683 22.139 85.956 22.1313L86.9841 22.0414C87.0638 22.0344 87.1296 22.0527 87.1816 22.0964C87.2416 22.1393 87.2707 22.197 87.269 22.2694C87.2722 22.3976 87.2181 22.559 87.1066 22.7534C87.0031 22.9472 86.8435 23.1418 86.6277 23.3374C86.4119 23.5329 86.1339 23.7058 85.7937 23.856C85.4608 23.9976 85.0712 24.0879 84.6249 24.1269ZM82.9804 20.4764L85.6224 20.2452L85.6192 20.2094C85.592 19.8986 85.5165 19.6321 85.3927 19.4101C85.2689 19.188 85.1014 19.018 84.8903 18.8999C84.6792 18.7819 84.4342 18.735 84.1553 18.7594C83.8763 18.7838 83.6432 18.8725 83.4558 19.0254C83.2684 19.1783 83.133 19.3749 83.0496 19.6151C82.9742 19.8545 82.9501 20.1297 82.9773 20.4405L82.9804 20.4764ZM91.2015 23.5516C90.7234 23.5934 90.308 23.5735 89.9556 23.4919C89.6111 23.4096 89.324 23.2942 89.0941 23.1457C88.8643 22.9971 88.6903 22.8437 88.572 22.6854C88.4538 22.5271 88.3858 22.3926 88.3681 22.2817C88.3524 22.1947 88.3704 22.1249 88.422 22.0722C88.4809 22.0108 88.5462 21.977 88.6179 21.9707L89.5623 21.8881C89.5942 21.8853 89.6224 21.8869 89.647 21.8927C89.6716 21.8986 89.7056 21.9197 89.749 21.9561C89.8602 22.0347 89.9758 22.1169 90.0958 22.2028C90.2237 22.288 90.3705 22.3595 90.5361 22.4172C90.7011 22.467 90.9031 22.4815 91.1422 22.4606C91.453 22.4334 91.7068 22.351 91.9036 22.2133C92.1076 22.0669 92.1995 21.8782 92.1793 21.6471C92.1646 21.4797 92.105 21.3484 92.0003 21.2532C91.9035 21.1573 91.7281 21.0803 91.4741 21.0222C91.2194 20.9561 90.8607 20.8952 90.3981 20.8393C89.9427 20.7747 89.5606 20.6756 89.2518 20.542C88.943 20.4084 88.7064 20.2284 88.542 20.0018C88.3777 19.7753 88.2815 19.5026 88.2536 19.1839C88.2265 18.8731 88.2923 18.5702 88.4512 18.2752C88.6174 17.9715 88.8757 17.712 89.2263 17.4967C89.5848 17.2806 90.039 17.1485 90.5889 17.1004C91.0193 17.0627 91.3988 17.0858 91.7273 17.1694C92.0551 17.2452 92.3296 17.3537 92.5508 17.4949C92.7799 17.6355 92.9576 17.7846 93.0838 17.9422C93.2093 18.0918 93.2813 18.226 93.2997 18.3449C93.3154 18.4318 93.2977 18.5057 93.2468 18.5663C93.1952 18.619 93.1336 18.6485 93.0618 18.6548L92.1772 18.7322C92.1374 18.7357 92.1008 18.7308 92.0675 18.7177C92.0343 18.7045 92.0006 18.6874 91.9667 18.6663C91.872 18.5943 91.7691 18.5189 91.6578 18.4403C91.5465 18.3617 91.4124 18.2972 91.2554 18.2467C91.1057 18.1875 90.9113 18.1684 90.6722 18.1893C90.3693 18.2158 90.1441 18.3037 89.9966 18.4532C89.8484 18.5946 89.783 18.765 89.8004 18.9642C89.8122 19.0997 89.8586 19.2161 89.9394 19.3134C90.0274 19.4021 90.1908 19.4802 90.4296 19.5476C90.6684 19.615 91.0271 19.676 91.5057 19.7305C92.048 19.7794 92.4829 19.8859 92.8105 20.05C93.1453 20.2054 93.3873 20.4011 93.5364 20.637C93.6928 20.8642 93.7839 21.1253 93.8097 21.4201C93.8411 21.7788 93.7617 22.1109 93.5716 22.4167C93.3895 22.7217 93.0986 22.976 92.6988 23.1796C92.3063 23.3746 91.8072 23.4986 91.2015 23.5516ZM97.5161 22.9991C97.03 23.0416 96.5982 22.971 96.2207 22.7872C95.8505 22.5947 95.5524 22.3076 95.3263 21.9259C95.0994 21.5362 94.962 21.0664 94.9139 20.5165L94.62 17.1573C94.613 17.0776 94.635 17.0074 94.6859 16.9467C94.7368 16.8861 94.8021 16.8523 94.8818 16.8453L95.9337 16.7532C96.0214 16.7456 96.0916 16.7675 96.1443 16.8191C96.205 16.8701 96.2388 16.9354 96.2458 17.0151L96.5334 20.3025C96.6198 21.2907 97.0974 21.7468 97.9661 21.6708C98.3805 21.6346 98.6957 21.4745 98.9118 21.1906C99.1359 20.906 99.2277 20.5325 99.1872 20.0703L98.8996 16.7829C98.8926 16.7032 98.9146 16.633 98.9655 16.5723C99.0164 16.5117 99.0817 16.4778 99.1614 16.4709L100.213 16.3788C100.293 16.3719 100.363 16.3938 100.424 16.4447C100.485 16.4956 100.518 16.5609 100.525 16.6406L101.019 22.2831C101.026 22.3628 101.004 22.433 100.953 22.4936C100.902 22.5543 100.837 22.5881 100.757 22.5951L99.789 22.6798C99.7013 22.6875 99.6271 22.6658 99.5665 22.6149C99.5138 22.5633 99.4839 22.4977 99.4769 22.418L99.4341 21.9279C99.2433 22.2256 98.9955 22.4681 98.6906 22.6554C98.3858 22.8427 97.9943 22.9573 97.5161 22.9991ZM102.922 22.4057C102.842 22.4127 102.772 22.3907 102.712 22.3398C102.651 22.2889 102.617 22.2236 102.61 22.1439L101.918 14.2301C101.911 14.1504 101.933 14.0802 101.984 14.0196C102.035 13.9589 102.1 13.9251 102.18 13.9181L103.172 13.8313C103.251 13.8243 103.322 13.8463 103.382 13.8972C103.443 13.9481 103.477 14.0134 103.484 14.0931L104.176 22.0069C104.183 22.0866 104.161 22.1567 104.11 22.2174C104.059 22.2781 103.994 22.3119 103.914 22.3189L102.922 22.4057ZM108.596 21.9093C108.118 21.9511 107.708 21.9026 107.367 21.7639C107.025 21.6251 106.761 21.3993 106.573 21.0865C106.384 20.7657 106.268 20.3583 106.225 19.8641L105.988 17.1505L105.043 17.2331C104.963 17.2401 104.893 17.2181 104.833 17.1672C104.772 17.1163 104.738 17.051 104.731 16.9713L104.67 16.278C104.664 16.1983 104.685 16.1281 104.736 16.0674C104.787 16.0068 104.853 15.973 104.932 15.966L105.877 15.8834L105.703 13.8989C105.696 13.8192 105.714 13.7494 105.757 13.6894C105.808 13.6288 105.877 13.5946 105.965 13.5869L106.933 13.5022C107.013 13.4952 107.083 13.5172 107.144 13.5681C107.204 13.619 107.238 13.6843 107.245 13.764L107.419 15.7484L108.913 15.6177C108.993 15.6107 109.063 15.6327 109.124 15.6836C109.184 15.7345 109.218 15.7998 109.225 15.8795L109.286 16.5729C109.293 16.6526 109.271 16.7227 109.22 16.7834C109.169 16.8441 109.104 16.8779 109.024 16.8849L107.53 17.0156L107.757 19.6097C107.785 19.9364 107.863 20.1866 107.991 20.3601C108.126 20.533 108.338 20.6068 108.625 20.5817L109.449 20.5096C109.529 20.5026 109.599 20.5246 109.66 20.5755C109.721 20.6264 109.755 20.6917 109.761 20.7714L109.826 21.5125C109.833 21.5922 109.811 21.6624 109.76 21.7231C109.71 21.7838 109.644 21.8176 109.565 21.8245L108.596 21.9093ZM113.277 21.6202C112.799 21.662 112.384 21.6421 112.031 21.5605C111.687 21.4782 111.4 21.3628 111.17 21.2143C110.94 21.0658 110.766 20.9123 110.648 20.7541C110.53 20.5958 110.462 20.4612 110.444 20.3503C110.428 20.2633 110.446 20.1935 110.498 20.1408C110.557 20.0794 110.622 20.0456 110.694 20.0393L111.638 19.9567C111.67 19.9539 111.698 19.9555 111.723 19.9613C111.747 19.9672 111.781 19.9883 111.825 20.0247C111.936 20.1033 112.052 20.1855 112.172 20.2714C112.3 20.3566 112.446 20.4281 112.612 20.4858C112.777 20.5357 112.979 20.5501 113.218 20.5292C113.529 20.502 113.783 20.4196 113.979 20.2819C114.183 20.1356 114.275 19.9468 114.255 19.7157C114.24 19.5484 114.181 19.4171 114.076 19.3218C113.979 19.2259 113.804 19.1489 113.55 19.0908C113.295 19.0247 112.937 18.9638 112.474 18.9079C112.019 18.8433 111.636 18.7442 111.328 18.6106C111.019 18.4771 110.782 18.297 110.618 18.0705C110.453 17.8439 110.357 17.5713 110.329 17.2525C110.302 16.9417 110.368 16.6388 110.527 16.3438C110.693 16.0402 110.952 15.7807 111.302 15.5653C111.661 15.3492 112.115 15.2171 112.665 15.169C113.095 15.1314 113.475 15.1544 113.803 15.2381C114.131 15.3138 114.405 15.4223 114.627 15.5635C114.856 15.7041 115.033 15.8532 115.16 16.0108C115.285 16.1604 115.357 16.2946 115.376 16.4135C115.391 16.5005 115.374 16.5743 115.323 16.6349C115.271 16.6876 115.209 16.7171 115.138 16.7234L114.253 16.8008C114.213 16.8043 114.177 16.7995 114.143 16.7863C114.11 16.7732 114.076 16.756 114.042 16.7349C113.948 16.6629 113.845 16.5876 113.734 16.509C113.622 16.4304 113.488 16.3658 113.331 16.3153C113.181 16.2561 112.987 16.237 112.748 16.2579C112.445 16.2844 112.22 16.3724 112.072 16.5218C111.924 16.6632 111.859 16.8336 111.876 17.0328C111.888 17.1683 111.934 17.2847 112.015 17.3821C112.103 17.4707 112.267 17.5488 112.505 17.6162C112.744 17.6837 113.103 17.7446 113.581 17.7991C114.124 17.848 114.559 17.9545 114.886 18.1186C115.221 18.274 115.463 18.4697 115.612 18.7056C115.769 18.9328 115.86 19.1939 115.886 19.4887C115.917 19.8474 115.838 20.1796 115.647 20.4853C115.465 20.7903 115.174 21.0446 114.775 21.2483C114.382 21.4432 113.883 21.5672 113.277 21.6202Z" fill="white"/>
</svg>
