<svg width="124" height="38" viewBox="0 0 124 38" fill="none" xmlns="http://www.w3.org/2000/svg">
<path d="M1.54 14.9902C1.44667 14.9902 1.36733 14.9622 1.302 14.9062C1.246 14.8409 1.218 14.7616 1.218 14.6682V5.52623C1.218 5.42357 1.246 5.34423 1.302 5.28823C1.36733 5.2229 1.44667 5.19023 1.54 5.19023H2.24C2.352 5.19023 2.436 5.21823 2.492 5.27423C2.548 5.33023 2.58067 5.3769 2.59 5.41423L5.558 11.0702L8.54 5.41423C8.55867 5.3769 8.59133 5.33023 8.638 5.27423C8.694 5.21823 8.778 5.19023 8.89 5.19023H9.576C9.67867 5.19023 9.758 5.2229 9.814 5.28823C9.87933 5.34423 9.912 5.42357 9.912 5.52623V14.6682C9.912 14.7616 9.87933 14.8409 9.814 14.9062C9.758 14.9622 9.67867 14.9902 9.576 14.9902H8.89C8.79667 14.9902 8.71733 14.9622 8.652 14.9062C8.596 14.8409 8.568 14.7616 8.568 14.6682V7.78023L6.23 12.3442C6.19267 12.4376 6.13667 12.5122 6.062 12.5682C5.98733 12.6149 5.894 12.6382 5.782 12.6382H5.348C5.22667 12.6382 5.12867 12.6149 5.054 12.5682C4.98867 12.5122 4.93267 12.4376 4.886 12.3442L2.548 7.78023V14.6682C2.548 14.7616 2.51533 14.8409 2.45 14.9062C2.394 14.9622 2.31933 14.9902 2.226 14.9902H1.54ZM15.0492 15.1302C14.0879 15.1302 13.3226 14.8362 12.7532 14.2482C12.1839 13.6509 11.8712 12.8389 11.8152 11.8122C11.8059 11.6909 11.8012 11.5369 11.8012 11.3502C11.8012 11.1542 11.8059 10.9956 11.8152 10.8742C11.8526 10.2116 12.0066 9.6329 12.2772 9.13823C12.5479 8.63423 12.9166 8.2469 13.3832 7.97623C13.8592 7.70557 14.4146 7.57023 15.0492 7.57023C15.7586 7.57023 16.3512 7.71957 16.8272 8.01823C17.3126 8.3169 17.6812 8.74157 17.9332 9.29223C18.1852 9.8429 18.3112 10.4869 18.3112 11.2242V11.4622C18.3112 11.5649 18.2786 11.6442 18.2132 11.7002C18.1572 11.7562 18.0826 11.7842 17.9892 11.7842H13.1452C13.1452 11.7936 13.1452 11.8122 13.1452 11.8402C13.1452 11.8682 13.1452 11.8916 13.1452 11.9102C13.1639 12.2929 13.2479 12.6522 13.3972 12.9882C13.5466 13.3149 13.7612 13.5809 14.0412 13.7862C14.3212 13.9916 14.6572 14.0942 15.0492 14.0942C15.3852 14.0942 15.6652 14.0429 15.8892 13.9402C16.1132 13.8376 16.2952 13.7256 16.4352 13.6042C16.5752 13.4736 16.6686 13.3756 16.7152 13.3102C16.7992 13.1889 16.8646 13.1189 16.9112 13.1002C16.9579 13.0722 17.0326 13.0582 17.1352 13.0582H17.8072C17.9006 13.0582 17.9752 13.0862 18.0312 13.1422C18.0966 13.1889 18.1246 13.2589 18.1152 13.3522C18.1059 13.4922 18.0312 13.6649 17.8912 13.8702C17.7512 14.0662 17.5506 14.2622 17.2892 14.4582C17.0279 14.6542 16.7106 14.8176 16.3372 14.9482C15.9639 15.0696 15.5346 15.1302 15.0492 15.1302ZM13.1452 10.8182H16.9812V10.7762C16.9812 10.3562 16.9019 9.9829 16.7432 9.65623C16.5939 9.32957 16.3746 9.0729 16.0852 8.88623C15.7959 8.69023 15.4506 8.59223 15.0492 8.59223C14.6479 8.59223 14.3026 8.69023 14.0132 8.88623C13.7332 9.0729 13.5186 9.32957 13.3692 9.65623C13.2199 9.9829 13.1452 10.3562 13.1452 10.7762V10.8182ZM22.8832 15.1302C21.9219 15.1302 21.1566 14.8362 20.5872 14.2482C20.0179 13.6509 19.7052 12.8389 19.6492 11.8122C19.6399 11.6909 19.6352 11.5369 19.6352 11.3502C19.6352 11.1542 19.6399 10.9956 19.6492 10.8742C19.6866 10.2116 19.8406 9.6329 20.1112 9.13823C20.3819 8.63423 20.7506 8.2469 21.2172 7.97623C21.6932 7.70557 22.2486 7.57023 22.8832 7.57023C23.5926 7.57023 24.1852 7.71957 24.6612 8.01823C25.1466 8.3169 25.5152 8.74157 25.7672 9.29223C26.0192 9.8429 26.1452 10.4869 26.1452 11.2242V11.4622C26.1452 11.5649 26.1126 11.6442 26.0472 11.7002C25.9912 11.7562 25.9166 11.7842 25.8232 11.7842H20.9792C20.9792 11.7936 20.9792 11.8122 20.9792 11.8402C20.9792 11.8682 20.9792 11.8916 20.9792 11.9102C20.9979 12.2929 21.0819 12.6522 21.2312 12.9882C21.3806 13.3149 21.5952 13.5809 21.8752 13.7862C22.1552 13.9916 22.4912 14.0942 22.8832 14.0942C23.2192 14.0942 23.4992 14.0429 23.7232 13.9402C23.9472 13.8376 24.1292 13.7256 24.2692 13.6042C24.4092 13.4736 24.5026 13.3756 24.5492 13.3102C24.6332 13.1889 24.6986 13.1189 24.7452 13.1002C24.7919 13.0722 24.8666 13.0582 24.9692 13.0582H25.6412C25.7346 13.0582 25.8092 13.0862 25.8652 13.1422C25.9306 13.1889 25.9586 13.2589 25.9492 13.3522C25.9399 13.4922 25.8652 13.6649 25.7252 13.8702C25.5852 14.0662 25.3846 14.2622 25.1232 14.4582C24.8619 14.6542 24.5446 14.8176 24.1712 14.9482C23.7979 15.0696 23.3686 15.1302 22.8832 15.1302ZM20.9792 10.8182H24.8152V10.7762C24.8152 10.3562 24.7359 9.9829 24.5772 9.65623C24.4279 9.32957 24.2086 9.0729 23.9192 8.88623C23.6299 8.69023 23.2846 8.59223 22.8832 8.59223C22.4819 8.59223 22.1366 8.69023 21.8472 8.88623C21.5672 9.0729 21.3526 9.32957 21.2032 9.65623C21.0539 9.9829 20.9792 10.3562 20.9792 10.7762V10.8182ZM30.6202 14.9902C30.0975 14.9902 29.6729 14.8922 29.3462 14.6962C29.0195 14.4909 28.7815 14.2062 28.6322 13.8422C28.4829 13.4689 28.4082 13.0302 28.4082 12.5262V8.83023H27.3162C27.2229 8.83023 27.1435 8.80223 27.0782 8.74623C27.0222 8.6809 26.9942 8.60157 26.9942 8.50823V8.03223C26.9942 7.9389 27.0222 7.86423 27.0782 7.80823C27.1435 7.7429 27.2229 7.71023 27.3162 7.71023H28.4082V5.37223C28.4082 5.2789 28.4362 5.20423 28.4922 5.14823C28.5575 5.0829 28.6369 5.05023 28.7302 5.05023H29.3882C29.4815 5.05023 29.5562 5.0829 29.6122 5.14823C29.6775 5.20423 29.7102 5.2789 29.7102 5.37223V7.71023H31.4462C31.5395 7.71023 31.6142 7.7429 31.6702 7.80823C31.7355 7.86423 31.7682 7.9389 31.7682 8.03223V8.50823C31.7682 8.60157 31.7355 8.6809 31.6702 8.74623C31.6142 8.80223 31.5395 8.83023 31.4462 8.83023H29.7102V12.4282C29.7102 12.8669 29.7849 13.2122 29.9342 13.4642C30.0835 13.7162 30.3495 13.8422 30.7322 13.8422H31.5862C31.6795 13.8422 31.7542 13.8749 31.8102 13.9402C31.8755 13.9962 31.9082 14.0709 31.9082 14.1642V14.6682C31.9082 14.7616 31.8755 14.8409 31.8102 14.9062C31.7542 14.9622 31.6795 14.9902 31.5862 14.9902H30.6202ZM39.7726 15.1302C39.2966 15.1302 38.8439 15.0742 38.4146 14.9622C37.9946 14.8409 37.6166 14.6589 37.2806 14.4162C36.9539 14.1642 36.6926 13.8516 36.4966 13.4782C36.3006 13.1049 36.1932 12.6662 36.1746 12.1622C36.1746 12.0782 36.2026 12.0082 36.2586 11.9522C36.3146 11.8869 36.3892 11.8542 36.4826 11.8542H37.2386C37.3412 11.8542 37.4206 11.8869 37.4766 11.9522C37.5419 12.0082 37.5839 12.0829 37.6026 12.1762C37.6399 12.5962 37.7612 12.9369 37.9666 13.1982C38.1719 13.4502 38.4332 13.6369 38.7506 13.7582C39.0679 13.8796 39.4179 13.9402 39.8006 13.9402C40.5099 13.9402 41.0512 13.7069 41.4246 13.2402C41.7979 12.7736 41.9846 12.1529 41.9846 11.3782V6.40823H37.0146C36.9212 6.40823 36.8419 6.38023 36.7766 6.32423C36.7206 6.2589 36.6926 6.17957 36.6926 6.08623V5.51223C36.6926 5.4189 36.7206 5.34423 36.7766 5.28823C36.8419 5.2229 36.9212 5.19023 37.0146 5.19023H43.0486C43.1512 5.19023 43.2306 5.2229 43.2866 5.28823C43.3519 5.34423 43.3846 5.42357 43.3846 5.52623V11.4062C43.3846 12.1622 43.2399 12.8202 42.9506 13.3802C42.6612 13.9402 42.2506 14.3742 41.7186 14.6822C41.1866 14.9809 40.5379 15.1302 39.7726 15.1302ZM47.5269 15.1302C47.0603 15.1302 46.6356 15.0369 46.2529 14.8502C45.8703 14.6636 45.5623 14.4116 45.3289 14.0942C45.0956 13.7769 44.9789 13.4176 44.9789 13.0162C44.9789 12.3722 45.2403 11.8589 45.7629 11.4762C46.2856 11.0936 46.9669 10.8416 47.8069 10.7202L49.8929 10.4262V10.0202C49.8929 9.57223 49.7623 9.22223 49.5009 8.97023C49.2489 8.71823 48.8336 8.59223 48.2549 8.59223C47.8349 8.59223 47.4943 8.67623 47.2329 8.84423C46.9809 9.01223 46.8036 9.2269 46.7009 9.48823C46.6449 9.62823 46.5469 9.69823 46.4069 9.69823H45.7769C45.6743 9.69823 45.5949 9.67023 45.5389 9.61423C45.4923 9.5489 45.4689 9.47423 45.4689 9.39023C45.4689 9.25023 45.5203 9.07757 45.6229 8.87223C45.7349 8.6669 45.9029 8.46623 46.1269 8.27023C46.3509 8.07423 46.6356 7.9109 46.9809 7.78023C47.3356 7.64023 47.7649 7.57023 48.2689 7.57023C48.8289 7.57023 49.3003 7.6449 49.6829 7.79423C50.0656 7.93423 50.3643 8.12557 50.5789 8.36823C50.8029 8.6109 50.9616 8.88623 51.0549 9.19423C51.1576 9.50223 51.2089 9.8149 51.2089 10.1322V14.6682C51.2089 14.7616 51.1763 14.8409 51.1109 14.9062C51.0549 14.9622 50.9803 14.9902 50.8869 14.9902H50.2429C50.1403 14.9902 50.0609 14.9622 50.0049 14.9062C49.9489 14.8409 49.9209 14.7616 49.9209 14.6682V14.0662C49.7996 14.2342 49.6363 14.4022 49.4309 14.5702C49.2256 14.7289 48.9689 14.8642 48.6609 14.9762C48.3529 15.0789 47.9749 15.1302 47.5269 15.1302ZM47.8209 14.0802C48.2036 14.0802 48.5536 14.0009 48.8709 13.8422C49.1883 13.6742 49.4356 13.4176 49.6129 13.0722C49.7996 12.7269 49.8929 12.2929 49.8929 11.7702V11.3782L48.2689 11.6162C47.6063 11.7096 47.1069 11.8682 46.7709 12.0922C46.4349 12.3069 46.2669 12.5822 46.2669 12.9182C46.2669 13.1796 46.3416 13.3989 46.4909 13.5762C46.6496 13.7442 46.8456 13.8702 47.0789 13.9542C47.3216 14.0382 47.5689 14.0802 47.8209 14.0802ZM53.5435 14.9902C53.4502 14.9902 53.3709 14.9622 53.3055 14.9062C53.2495 14.8409 53.2215 14.7616 53.2215 14.6682V8.03223C53.2215 7.9389 53.2495 7.86423 53.3055 7.80823C53.3709 7.7429 53.4502 7.71023 53.5435 7.71023H54.2155C54.3089 7.71023 54.3835 7.7429 54.4395 7.80823C54.4955 7.86423 54.5235 7.9389 54.5235 8.03223V14.6682C54.5235 14.7616 54.4955 14.8409 54.4395 14.9062C54.3835 14.9622 54.3089 14.9902 54.2155 14.9902H53.5435ZM53.4315 6.35223C53.3382 6.35223 53.2589 6.32423 53.1935 6.26823C53.1375 6.2029 53.1095 6.12357 53.1095 6.03023V5.27423C53.1095 5.1809 53.1375 5.10623 53.1935 5.05023C53.2589 4.9849 53.3382 4.95223 53.4315 4.95223H54.3135C54.4069 4.95223 54.4815 4.9849 54.5375 5.05023C54.6029 5.10623 54.6355 5.1809 54.6355 5.27423V6.03023C54.6355 6.12357 54.6029 6.2029 54.5375 6.26823C54.4815 6.32423 54.4069 6.35223 54.3135 6.35223H53.4315ZM56.9342 14.9902C56.8408 14.9902 56.7615 14.9622 56.6962 14.9062C56.6402 14.8409 56.6122 14.7616 56.6122 14.6682V8.03223C56.6122 7.9389 56.6402 7.86423 56.6962 7.80823C56.7615 7.7429 56.8408 7.71023 56.9342 7.71023H57.5922C57.6855 7.71023 57.7602 7.7429 57.8162 7.80823C57.8815 7.86423 57.9142 7.9389 57.9142 8.03223V8.64823C58.1568 8.3309 58.4602 8.07423 58.8242 7.87823C59.1975 7.6729 59.6735 7.57023 60.2522 7.57023C60.8588 7.57023 61.3722 7.70557 61.7922 7.97623C62.2215 8.23757 62.5435 8.60623 62.7582 9.08223C62.9728 9.5489 63.0802 10.0949 63.0802 10.7202V14.6682C63.0802 14.7616 63.0522 14.8409 62.9962 14.9062C62.9402 14.9622 62.8655 14.9902 62.7722 14.9902H62.0722C61.9788 14.9902 61.8995 14.9622 61.8342 14.9062C61.7782 14.8409 61.7502 14.7616 61.7502 14.6682V10.7902C61.7502 10.1369 61.5915 9.62823 61.2742 9.26423C60.9568 8.8909 60.4902 8.70423 59.8742 8.70423C59.2955 8.70423 58.8288 8.8909 58.4742 9.26423C58.1288 9.62823 57.9562 10.1369 57.9562 10.7902V14.6682C57.9562 14.7616 57.9235 14.8409 57.8582 14.9062C57.8022 14.9622 57.7275 14.9902 57.6342 14.9902H56.9342Z" fill="#333333"/>
<path d="M1.392 33.9902C1.312 33.9902 1.248 33.9662 1.2 33.9182C1.152 33.8702 1.128 33.8062 1.128 33.7262V25.8662C1.128 25.7782 1.152 25.7102 1.2 25.6622C1.248 25.6142 1.312 25.5902 1.392 25.5902H4.308C4.868 25.5902 5.352 25.6862 5.76 25.8782C6.176 26.0622 6.496 26.3382 6.72 26.7062C6.952 27.0742 7.068 27.5302 7.068 28.0742C7.068 28.6182 6.952 29.0742 6.72 29.4422C6.496 29.8102 6.176 30.0902 5.76 30.2822C5.352 30.4662 4.868 30.5582 4.308 30.5582H1.884V33.7262C1.884 33.8062 1.86 33.8702 1.812 33.9182C1.764 33.9662 1.696 33.9902 1.608 33.9902H1.392ZM1.884 29.8382H4.248C4.944 29.8382 5.46 29.6862 5.796 29.3822C6.14 29.0782 6.312 28.6422 6.312 28.0742C6.312 27.5062 6.14 27.0702 5.796 26.7662C5.46 26.4622 4.944 26.3102 4.248 26.3102H1.884V29.8382ZM10.0817 34.1102C9.69769 34.1102 9.34169 34.0302 9.01369 33.8702C8.69369 33.7102 8.43369 33.4982 8.23369 33.2342C8.03369 32.9622 7.93369 32.6582 7.93369 32.3222C7.93369 31.7782 8.15369 31.3422 8.59369 31.0142C9.03369 30.6862 9.60569 30.4742 10.3097 30.3782L12.2057 30.1142V29.6942C12.2057 29.2702 12.0737 28.9382 11.8097 28.6982C11.5537 28.4502 11.1417 28.3262 10.5737 28.3262C10.1577 28.3262 9.82169 28.4102 9.56569 28.5782C9.30969 28.7382 9.13369 28.9502 9.03769 29.2142C8.99769 29.3342 8.92169 29.3942 8.80969 29.3942H8.61769C8.52169 29.3942 8.45369 29.3702 8.41369 29.3222C8.37369 29.2662 8.35369 29.2022 8.35369 29.1302C8.35369 29.0182 8.39369 28.8782 8.47369 28.7102C8.56169 28.5422 8.69369 28.3782 8.86969 28.2182C9.04569 28.0502 9.27369 27.9102 9.55369 27.7982C9.83369 27.6862 10.1737 27.6302 10.5737 27.6302C11.0457 27.6302 11.4337 27.6942 11.7377 27.8222C12.0497 27.9502 12.2897 28.1182 12.4577 28.3262C12.6337 28.5262 12.7577 28.7502 12.8297 28.9982C12.9017 29.2462 12.9377 29.4902 12.9377 29.7302V33.7262C12.9377 33.8062 12.9137 33.8702 12.8657 33.9182C12.8177 33.9662 12.7537 33.9902 12.6737 33.9902H12.4697C12.3897 33.9902 12.3257 33.9662 12.2777 33.9182C12.2297 33.8702 12.2057 33.8062 12.2057 33.7262V33.1622C12.1097 33.3062 11.9737 33.4502 11.7977 33.5942C11.6217 33.7382 11.3937 33.8622 11.1137 33.9662C10.8417 34.0622 10.4977 34.1102 10.0817 34.1102ZM10.2017 33.4142C10.5697 33.4142 10.9057 33.3342 11.2097 33.1742C11.5137 33.0142 11.7537 32.7702 11.9297 32.4422C12.1137 32.1062 12.2057 31.6862 12.2057 31.1822V30.7742L10.6577 30.9902C10.0017 31.0782 9.50569 31.2302 9.16969 31.4462C8.83369 31.6622 8.66569 31.9342 8.66569 32.2622C8.66569 32.5262 8.74169 32.7422 8.89369 32.9102C9.04569 33.0782 9.23769 33.2062 9.46969 33.2942C9.70969 33.3742 9.95369 33.4142 10.2017 33.4142ZM15.0993 33.9902C15.0193 33.9902 14.9553 33.9662 14.9073 33.9182C14.8593 33.8702 14.8353 33.8062 14.8353 33.7262V28.0262C14.8353 27.9462 14.8593 27.8822 14.9073 27.8342C14.9553 27.7782 15.0193 27.7502 15.0993 27.7502H15.2913C15.3713 27.7502 15.4353 27.7782 15.4833 27.8342C15.5393 27.8822 15.5673 27.9462 15.5673 28.0262V28.5782C15.7113 28.2982 15.9193 28.0902 16.1913 27.9542C16.4633 27.8182 16.7993 27.7502 17.1993 27.7502H17.6433C17.7233 27.7502 17.7873 27.7742 17.8353 27.8222C17.8833 27.8702 17.9073 27.9342 17.9073 28.0142V28.1822C17.9073 28.2622 17.8833 28.3262 17.8353 28.3742C17.7873 28.4222 17.7233 28.4462 17.6433 28.4462H17.1273C16.6473 28.4462 16.2673 28.5862 15.9873 28.8662C15.7073 29.1462 15.5673 29.5262 15.5673 30.0062V33.7262C15.5673 33.8062 15.5393 33.8702 15.4833 33.9182C15.4353 33.9662 15.3713 33.9902 15.2913 33.9902H15.0993ZM21.1072 33.9902C20.6912 33.9902 20.3632 33.9022 20.1232 33.7262C19.8832 33.5502 19.7152 33.3102 19.6192 33.0062C19.5232 32.7022 19.4752 32.3622 19.4752 31.9862V28.4462H18.5392C18.4592 28.4462 18.3952 28.4222 18.3472 28.3742C18.2992 28.3262 18.2752 28.2622 18.2752 28.1822V28.0142C18.2752 27.9342 18.2992 27.8702 18.3472 27.8222C18.3952 27.7742 18.4592 27.7502 18.5392 27.7502H19.4752V25.7342C19.4752 25.6542 19.4992 25.5902 19.5472 25.5422C19.5952 25.4942 19.6592 25.4702 19.7392 25.4702H19.9432C20.0232 25.4702 20.0872 25.4942 20.1352 25.5422C20.1832 25.5902 20.2072 25.6542 20.2072 25.7342V27.7502H21.6952C21.7752 27.7502 21.8392 27.7742 21.8872 27.8222C21.9352 27.8702 21.9592 27.9342 21.9592 28.0142V28.1822C21.9592 28.2622 21.9352 28.3262 21.8872 28.3742C21.8392 28.4222 21.7752 28.4462 21.6952 28.4462H20.2072V31.9382C20.2072 32.3622 20.2752 32.6942 20.4112 32.9342C20.5552 33.1742 20.8072 33.2942 21.1672 33.2942H21.8152C21.8952 33.2942 21.9592 33.3182 22.0072 33.3662C22.0552 33.4142 22.0792 33.4782 22.0792 33.5582V33.7262C22.0792 33.8062 22.0552 33.8702 22.0072 33.9182C21.9592 33.9662 21.8952 33.9902 21.8152 33.9902H21.1072ZM23.5837 33.9902C23.5037 33.9902 23.4397 33.9662 23.3917 33.9182C23.3437 33.8702 23.3197 33.8062 23.3197 33.7262V28.0142C23.3197 27.9342 23.3437 27.8702 23.3917 27.8222C23.4397 27.7742 23.5037 27.7502 23.5837 27.7502H23.7877C23.8677 27.7502 23.9317 27.7742 23.9797 27.8222C24.0277 27.8702 24.0517 27.9342 24.0517 28.0142V33.7262C24.0517 33.8062 24.0277 33.8702 23.9797 33.9182C23.9317 33.9662 23.8677 33.9902 23.7877 33.9902H23.5837ZM23.4517 26.4662C23.3717 26.4662 23.3077 26.4422 23.2597 26.3942C23.2117 26.3462 23.1877 26.2822 23.1877 26.2022V25.7462C23.1877 25.6662 23.2117 25.6022 23.2597 25.5542C23.3077 25.4982 23.3717 25.4702 23.4517 25.4702H23.9077C23.9877 25.4702 24.0517 25.4982 24.0997 25.5542C24.1557 25.6022 24.1837 25.6662 24.1837 25.7462V26.2022C24.1837 26.2822 24.1557 26.3462 24.0997 26.3942C24.0517 26.4422 23.9877 26.4662 23.9077 26.4662H23.4517ZM28.3555 34.1102C27.7955 34.1102 27.3195 34.0022 26.9275 33.7862C26.5355 33.5622 26.2355 33.2422 26.0275 32.8262C25.8275 32.4102 25.7195 31.9182 25.7035 31.3502C25.6955 31.2302 25.6915 31.0702 25.6915 30.8702C25.6915 30.6702 25.6955 30.5102 25.7035 30.3902C25.7195 29.8142 25.8275 29.3222 26.0275 28.9142C26.2355 28.4982 26.5355 28.1822 26.9275 27.9662C27.3195 27.7422 27.7955 27.6302 28.3555 27.6302C28.7795 27.6302 29.1435 27.6902 29.4475 27.8102C29.7595 27.9222 30.0155 28.0742 30.2155 28.2662C30.4155 28.4502 30.5675 28.6542 30.6715 28.8782C30.7755 29.1022 30.8315 29.3222 30.8395 29.5382C30.8475 29.6182 30.8235 29.6822 30.7675 29.7302C30.7115 29.7782 30.6475 29.8022 30.5755 29.8022H30.4075C30.3275 29.8022 30.2675 29.7862 30.2275 29.7542C30.1955 29.7142 30.1595 29.6462 30.1195 29.5502C29.9515 29.0942 29.7195 28.7782 29.4235 28.6022C29.1355 28.4182 28.7795 28.3262 28.3555 28.3262C27.8115 28.3262 27.3595 28.4942 26.9995 28.8302C26.6475 29.1582 26.4595 29.6982 26.4355 30.4502C26.4195 30.7302 26.4195 31.0102 26.4355 31.2902C26.4595 32.0422 26.6475 32.5862 26.9995 32.9222C27.3595 33.2502 27.8115 33.4142 28.3555 33.4142C28.7795 33.4142 29.1355 33.3262 29.4235 33.1502C29.7195 32.9662 29.9515 32.6462 30.1195 32.1902C30.1595 32.0942 30.1955 32.0302 30.2275 31.9982C30.2675 31.9582 30.3275 31.9382 30.4075 31.9382H30.5755C30.6475 31.9382 30.7115 31.9622 30.7675 32.0102C30.8235 32.0582 30.8475 32.1222 30.8395 32.2022C30.8315 32.3782 30.7955 32.5542 30.7315 32.7302C30.6675 32.9062 30.5675 33.0782 30.4315 33.2462C30.3035 33.4142 30.1435 33.5622 29.9515 33.6902C29.7595 33.8182 29.5275 33.9182 29.2555 33.9902C28.9915 34.0702 28.6915 34.1102 28.3555 34.1102ZM32.6891 33.9902C32.6091 33.9902 32.5451 33.9662 32.4971 33.9182C32.4491 33.8702 32.4251 33.8062 32.4251 33.7262V28.0142C32.4251 27.9342 32.4491 27.8702 32.4971 27.8222C32.5451 27.7742 32.6091 27.7502 32.6891 27.7502H32.8931C32.9731 27.7502 33.0371 27.7742 33.0851 27.8222C33.1331 27.8702 33.1571 27.9342 33.1571 28.0142V33.7262C33.1571 33.8062 33.1331 33.8702 33.0851 33.9182C33.0371 33.9662 32.9731 33.9902 32.8931 33.9902H32.6891ZM32.5571 26.4662C32.4771 26.4662 32.4131 26.4422 32.3651 26.3942C32.3171 26.3462 32.2931 26.2822 32.2931 26.2022V25.7462C32.2931 25.6662 32.3171 25.6022 32.3651 25.5542C32.4131 25.4982 32.4771 25.4702 32.5571 25.4702H33.0131C33.0931 25.4702 33.1571 25.4982 33.2051 25.5542C33.2611 25.6022 33.2891 25.6662 33.2891 25.7462V26.2022C33.2891 26.2822 33.2611 26.3462 33.2051 26.3942C33.1571 26.4422 33.0931 26.4662 33.0131 26.4662H32.5571ZM35.373 36.2702C35.293 36.2702 35.229 36.2462 35.181 36.1982C35.133 36.1502 35.109 36.0862 35.109 36.0062V28.0142C35.109 27.9342 35.133 27.8702 35.181 27.8222C35.229 27.7742 35.293 27.7502 35.373 27.7502H35.577C35.657 27.7502 35.721 27.7742 35.769 27.8222C35.817 27.8702 35.841 27.9342 35.841 28.0142V28.5782C36.041 28.3062 36.301 28.0822 36.621 27.9062C36.949 27.7222 37.361 27.6302 37.857 27.6302C38.329 27.6302 38.725 27.7142 39.045 27.8822C39.365 28.0422 39.625 28.2582 39.825 28.5302C40.025 28.8022 40.173 29.1062 40.269 29.4422C40.365 29.7782 40.417 30.1222 40.425 30.4742C40.433 30.5942 40.437 30.7262 40.437 30.8702C40.437 31.0142 40.433 31.1462 40.425 31.2662C40.417 31.6182 40.365 31.9622 40.269 32.2982C40.173 32.6342 40.025 32.9382 39.825 33.2102C39.625 33.4822 39.365 33.7022 39.045 33.8702C38.725 34.0302 38.329 34.1102 37.857 34.1102C37.361 34.1102 36.949 34.0182 36.621 33.8342C36.301 33.6502 36.041 33.4262 35.841 33.1622V36.0062C35.841 36.0862 35.817 36.1502 35.769 36.1982C35.721 36.2462 35.657 36.2702 35.577 36.2702H35.373ZM37.785 33.4142C38.257 33.4142 38.629 33.3102 38.901 33.1022C39.173 32.8942 39.369 32.6222 39.489 32.2862C39.609 31.9502 39.677 31.5902 39.693 31.2062C39.701 30.9822 39.701 30.7582 39.693 30.5342C39.677 30.1502 39.609 29.7902 39.489 29.4542C39.369 29.1182 39.173 28.8462 38.901 28.6382C38.629 28.4302 38.257 28.3262 37.785 28.3262C37.329 28.3262 36.961 28.4342 36.681 28.6502C36.401 28.8662 36.193 29.1382 36.057 29.4662C35.929 29.7862 35.857 30.1102 35.841 30.4382C35.833 30.5582 35.829 30.7142 35.829 30.9062C35.829 31.0982 35.833 31.2542 35.841 31.3742C35.849 31.6942 35.921 32.0102 36.057 32.3222C36.201 32.6342 36.413 32.8942 36.693 33.1022C36.981 33.3102 37.345 33.4142 37.785 33.4142ZM43.7497 34.1102C43.3657 34.1102 43.0097 34.0302 42.6817 33.8702C42.3617 33.7102 42.1017 33.4982 41.9017 33.2342C41.7017 32.9622 41.6017 32.6582 41.6017 32.3222C41.6017 31.7782 41.8217 31.3422 42.2617 31.0142C42.7017 30.6862 43.2737 30.4742 43.9777 30.3782L45.8737 30.1142V29.6942C45.8737 29.2702 45.7417 28.9382 45.4777 28.6982C45.2217 28.4502 44.8097 28.3262 44.2417 28.3262C43.8257 28.3262 43.4897 28.4102 43.2337 28.5782C42.9777 28.7382 42.8017 28.9502 42.7057 29.2142C42.6657 29.3342 42.5897 29.3942 42.4777 29.3942H42.2857C42.1897 29.3942 42.1217 29.3702 42.0817 29.3222C42.0417 29.2662 42.0217 29.2022 42.0217 29.1302C42.0217 29.0182 42.0617 28.8782 42.1417 28.7102C42.2297 28.5422 42.3617 28.3782 42.5377 28.2182C42.7137 28.0502 42.9417 27.9102 43.2217 27.7982C43.5017 27.6862 43.8417 27.6302 44.2417 27.6302C44.7137 27.6302 45.1017 27.6942 45.4057 27.8222C45.7177 27.9502 45.9577 28.1182 46.1257 28.3262C46.3017 28.5262 46.4257 28.7502 46.4977 28.9982C46.5697 29.2462 46.6057 29.4902 46.6057 29.7302V33.7262C46.6057 33.8062 46.5817 33.8702 46.5337 33.9182C46.4857 33.9662 46.4217 33.9902 46.3417 33.9902H46.1377C46.0577 33.9902 45.9937 33.9662 45.9457 33.9182C45.8977 33.8702 45.8737 33.8062 45.8737 33.7262V33.1622C45.7777 33.3062 45.6417 33.4502 45.4657 33.5942C45.2897 33.7382 45.0617 33.8622 44.7817 33.9662C44.5097 34.0622 44.1657 34.1102 43.7497 34.1102ZM43.8697 33.4142C44.2377 33.4142 44.5737 33.3342 44.8777 33.1742C45.1817 33.0142 45.4217 32.7702 45.5977 32.4422C45.7817 32.1062 45.8737 31.6862 45.8737 31.1822V30.7742L44.3257 30.9902C43.6697 31.0782 43.1737 31.2302 42.8377 31.4462C42.5017 31.6622 42.3337 31.9342 42.3337 32.2622C42.3337 32.5262 42.4097 32.7422 42.5617 32.9102C42.7137 33.0782 42.9057 33.2062 43.1377 33.2942C43.3777 33.3742 43.6217 33.4142 43.8697 33.4142ZM48.7673 33.9902C48.6873 33.9902 48.6233 33.9662 48.5753 33.9182C48.5273 33.8702 48.5033 33.8062 48.5033 33.7262V28.0142C48.5033 27.9342 48.5273 27.8702 48.5753 27.8222C48.6233 27.7742 48.6873 27.7502 48.7673 27.7502H48.9713C49.0513 27.7502 49.1153 27.7742 49.1633 27.8222C49.2113 27.8702 49.2353 27.9342 49.2353 28.0142V28.5782C49.4513 28.2982 49.7113 28.0702 50.0153 27.8942C50.3273 27.7182 50.7393 27.6302 51.2513 27.6302C51.7953 27.6302 52.2473 27.7502 52.6073 27.9902C52.9753 28.2222 53.2473 28.5422 53.4233 28.9502C53.6073 29.3502 53.6992 29.8062 53.6992 30.3182V33.7262C53.6992 33.8062 53.6753 33.8702 53.6273 33.9182C53.5793 33.9662 53.5153 33.9902 53.4353 33.9902H53.2313C53.1513 33.9902 53.0873 33.9662 53.0393 33.9182C52.9913 33.8702 52.9673 33.8062 52.9673 33.7262V30.3782C52.9673 29.7382 52.8113 29.2382 52.4993 28.8782C52.1873 28.5102 51.7313 28.3262 51.1313 28.3262C50.5633 28.3262 50.1033 28.5102 49.7513 28.8782C49.4073 29.2382 49.2353 29.7382 49.2353 30.3782V33.7262C49.2353 33.8062 49.2113 33.8702 49.1633 33.9182C49.1153 33.9662 49.0513 33.9902 48.9713 33.9902H48.7673ZM57.5876 33.9902C57.1716 33.9902 56.8436 33.9022 56.6036 33.7262C56.3636 33.5502 56.1956 33.3102 56.0996 33.0062C56.0036 32.7022 55.9556 32.3622 55.9556 31.9862V28.4462H55.0196C54.9396 28.4462 54.8756 28.4222 54.8276 28.3742C54.7796 28.3262 54.7556 28.2622 54.7556 28.1822V28.0142C54.7556 27.9342 54.7796 27.8702 54.8276 27.8222C54.8756 27.7742 54.9396 27.7502 55.0196 27.7502H55.9556V25.7342C55.9556 25.6542 55.9796 25.5902 56.0276 25.5422C56.0756 25.4942 56.1396 25.4702 56.2196 25.4702H56.4236C56.5036 25.4702 56.5676 25.4942 56.6156 25.5422C56.6636 25.5902 56.6876 25.6542 56.6876 25.7342V27.7502H58.1756C58.2556 27.7502 58.3196 27.7742 58.3676 27.8222C58.4156 27.8702 58.4396 27.9342 58.4396 28.0142V28.1822C58.4396 28.2622 58.4156 28.3262 58.3676 28.3742C58.3196 28.4222 58.2556 28.4462 58.1756 28.4462H56.6876V31.9382C56.6876 32.3622 56.7556 32.6942 56.8916 32.9342C57.0356 33.1742 57.2876 33.2942 57.6476 33.2942H58.2956C58.3756 33.2942 58.4396 33.3182 58.4876 33.3662C58.5356 33.4142 58.5596 33.4782 58.5596 33.5582V33.7262C58.5596 33.8062 58.5356 33.8702 58.4876 33.9182C58.4396 33.9662 58.3756 33.9902 58.2956 33.9902H57.5876ZM59.7041 34.8902C59.6401 34.8902 59.5921 34.8662 59.5601 34.8182C59.5361 34.7702 59.5281 34.7102 59.5361 34.6382L59.7641 33.1982C59.7801 33.1022 59.8081 33.0262 59.8481 32.9702C59.8961 32.9062 59.9681 32.8742 60.0641 32.8742H60.6041C60.6601 32.8742 60.7041 32.8942 60.7361 32.9342C60.7681 32.9742 60.7841 33.0182 60.7841 33.0662C60.7841 33.1382 60.7681 33.2102 60.7361 33.2822L60.2201 34.6382C60.1881 34.7182 60.1481 34.7782 60.1001 34.8182C60.0601 34.8662 59.9961 34.8902 59.9081 34.8902H59.7041ZM67.6811 33.9902C67.6011 33.9902 67.5371 33.9662 67.4891 33.9182C67.4411 33.8702 67.4171 33.8062 67.4171 33.7262V26.3102H65.0411C64.9611 26.3102 64.8971 26.2862 64.8491 26.2382C64.8011 26.1902 64.7771 26.1262 64.7771 26.0462V25.8662C64.7771 25.7782 64.8011 25.7102 64.8491 25.6622C64.8971 25.6142 64.9611 25.5902 65.0411 25.5902H70.5371C70.6251 25.5902 70.6931 25.6142 70.7411 25.6622C70.7891 25.7102 70.8131 25.7782 70.8131 25.8662V26.0462C70.8131 26.1262 70.7891 26.1902 70.7411 26.2382C70.6931 26.2862 70.6251 26.3102 70.5371 26.3102H68.1731V33.7262C68.1731 33.8062 68.1491 33.8702 68.1011 33.9182C68.0531 33.9662 67.9851 33.9902 67.8971 33.9902H67.6811ZM74.7222 34.1102C74.0742 34.1102 73.5222 34.0062 73.0662 33.7982C72.6182 33.5902 72.2742 33.3222 72.0342 32.9942C71.7942 32.6662 71.6662 32.3182 71.6502 31.9502C71.6502 31.8862 71.6742 31.8302 71.7222 31.7822C71.7702 31.7342 71.8302 31.7102 71.9022 31.7102H72.1422C72.2222 31.7102 72.2822 31.7342 72.3222 31.7822C72.3702 31.8302 72.3982 31.8862 72.4062 31.9502C72.4382 32.1742 72.5382 32.3982 72.7062 32.6222C72.8742 32.8382 73.1222 33.0222 73.4502 33.1742C73.7782 33.3182 74.2022 33.3902 74.7222 33.3902C75.5062 33.3902 76.0782 33.2502 76.4382 32.9702C76.7982 32.6822 76.9782 32.2982 76.9782 31.8182C76.9782 31.4982 76.8822 31.2422 76.6902 31.0502C76.5062 30.8502 76.2222 30.6742 75.8382 30.5222C75.4542 30.3622 74.9622 30.1862 74.3622 29.9942C73.7942 29.8102 73.3262 29.6222 72.9582 29.4302C72.5902 29.2302 72.3182 28.9902 72.1422 28.7102C71.9742 28.4302 71.8902 28.0702 71.8902 27.6302C71.8902 27.2222 71.9982 26.8582 72.2142 26.5382C72.4302 26.2102 72.7422 25.9502 73.1502 25.7582C73.5662 25.5662 74.0702 25.4702 74.6622 25.4702C75.1342 25.4702 75.5462 25.5342 75.8982 25.6622C76.2502 25.7902 76.5422 25.9622 76.7742 26.1782C77.0062 26.3862 77.1822 26.6142 77.3022 26.8622C77.4222 27.1022 77.4862 27.3382 77.4942 27.5702C77.4942 27.6262 77.4742 27.6822 77.4342 27.7382C77.3942 27.7862 77.3302 27.8102 77.2422 27.8102H77.0022C76.9622 27.8102 76.9102 27.7942 76.8462 27.7622C76.7902 27.7302 76.7542 27.6662 76.7382 27.5702C76.6902 27.1702 76.4782 26.8422 76.1022 26.5862C75.7342 26.3222 75.2542 26.1902 74.6622 26.1902C74.0702 26.1902 73.5862 26.3062 73.2102 26.5382C72.8342 26.7702 72.6462 27.1342 72.6462 27.6302C72.6462 27.9502 72.7302 28.2142 72.8982 28.4222C73.0662 28.6222 73.3302 28.8022 73.6902 28.9622C74.0502 29.1142 74.5142 29.2822 75.0822 29.4662C75.6822 29.6582 76.1782 29.8502 76.5702 30.0422C76.9622 30.2342 77.2542 30.4702 77.4462 30.7502C77.6382 31.0222 77.7342 31.3782 77.7342 31.8182C77.7342 32.3062 77.6102 32.7222 77.3622 33.0662C77.1222 33.4022 76.7782 33.6622 76.3302 33.8462C75.8822 34.0222 75.3462 34.1102 74.7222 34.1102ZM81.6878 34.1102C81.1118 34.1102 80.6278 33.9902 80.2358 33.7502C79.8518 33.5102 79.5558 33.1822 79.3478 32.7662C79.1478 32.3502 79.0398 31.8862 79.0238 31.3742C79.0158 31.2542 79.0118 31.0862 79.0118 30.8702C79.0118 30.6542 79.0158 30.4862 79.0238 30.3662C79.0398 29.8462 79.1478 29.3822 79.3478 28.9742C79.5558 28.5582 79.8518 28.2302 80.2358 27.9902C80.6278 27.7502 81.1118 27.6302 81.6878 27.6302C82.2638 27.6302 82.7438 27.7502 83.1278 27.9902C83.5198 28.2302 83.8158 28.5582 84.0158 28.9742C84.2238 29.3822 84.3358 29.8462 84.3518 30.3662C84.3598 30.4862 84.3638 30.6542 84.3638 30.8702C84.3638 31.0862 84.3598 31.2542 84.3518 31.3742C84.3358 31.8862 84.2238 32.3502 84.0158 32.7662C83.8158 33.1822 83.5198 33.5102 83.1278 33.7502C82.7438 33.9902 82.2638 34.1102 81.6878 34.1102ZM81.6878 33.4142C82.2478 33.4142 82.7038 33.2342 83.0558 32.8742C83.4078 32.5142 83.5958 31.9942 83.6198 31.3142C83.6278 31.1942 83.6318 31.0462 83.6318 30.8702C83.6318 30.6942 83.6278 30.5462 83.6198 30.4262C83.5958 29.7382 83.4078 29.2182 83.0558 28.8662C82.7038 28.5062 82.2478 28.3262 81.6878 28.3262C81.1278 28.3262 80.6718 28.5062 80.3198 28.8662C79.9678 29.2182 79.7798 29.7382 79.7558 30.4262C79.7478 30.5462 79.7438 30.6942 79.7438 30.8702C79.7438 31.0462 79.7478 31.1942 79.7558 31.3142C79.7798 31.9942 79.9678 32.5142 80.3198 32.8742C80.6718 33.2342 81.1278 33.4142 81.6878 33.4142ZM89.0033 34.1102C88.2753 34.1102 87.6793 33.9702 87.2153 33.6902C86.7593 33.4022 86.4193 33.0142 86.1953 32.5262C85.9713 32.0382 85.8473 31.4822 85.8232 30.8582C85.8153 30.5302 85.8113 30.1782 85.8113 29.8022C85.8113 29.4262 85.8153 29.0662 85.8232 28.7222C85.8473 28.0982 85.9713 27.5422 86.1953 27.0542C86.4193 26.5582 86.7593 26.1702 87.2153 25.8902C87.6793 25.6102 88.2753 25.4702 89.0033 25.4702C89.5713 25.4702 90.0553 25.5502 90.4553 25.7102C90.8553 25.8702 91.1793 26.0822 91.4273 26.3462C91.6833 26.6022 91.8713 26.8822 91.9913 27.1862C92.1193 27.4822 92.1913 27.7742 92.2073 28.0622C92.2153 28.1342 92.1913 28.1942 92.1353 28.2422C92.0873 28.2822 92.0273 28.3022 91.9553 28.3022H91.7153C91.6513 28.3022 91.5953 28.2862 91.5473 28.2542C91.4993 28.2142 91.4673 28.1462 91.4513 28.0502C91.2993 27.3382 91.0113 26.8502 90.5873 26.5862C90.1713 26.3222 89.6433 26.1902 89.0033 26.1902C88.2753 26.1902 87.6953 26.3982 87.2633 26.8142C86.8393 27.2222 86.6113 27.8782 86.5793 28.7822C86.5553 29.4382 86.5553 30.1102 86.5793 30.7982C86.6113 31.7022 86.8393 32.3622 87.2633 32.7782C87.6953 33.1862 88.2753 33.3902 89.0033 33.3902C89.6433 33.3902 90.1713 33.2582 90.5873 32.9942C91.0113 32.7302 91.2993 32.2422 91.4513 31.5302C91.4673 31.4342 91.4993 31.3702 91.5473 31.3382C91.5953 31.2982 91.6513 31.2782 91.7153 31.2782H91.9553C92.0273 31.2782 92.0873 31.3022 92.1353 31.3502C92.1913 31.3902 92.2153 31.4462 92.2073 31.5182C92.1913 31.8062 92.1193 32.1022 91.9913 32.4062C91.8713 32.7022 91.6833 32.9822 91.4273 33.2462C91.1793 33.5022 90.8553 33.7102 90.4553 33.8702C90.0553 34.0302 89.5713 34.1102 89.0033 34.1102ZM96.8294 33.9902C96.7494 33.9902 96.6854 33.9662 96.6374 33.9182C96.5894 33.8702 96.5654 33.8062 96.5654 33.7262V33.5462C96.5654 33.4662 96.5854 33.3902 96.6254 33.3182C96.6734 33.2382 96.7534 33.1462 96.8654 33.0422L99.9734 29.9342C100.277 29.6542 100.509 29.4102 100.669 29.2022C100.829 28.9942 100.937 28.7902 100.993 28.5902C101.057 28.3822 101.089 28.1542 101.089 27.9062C101.089 27.3702 100.933 26.9502 100.621 26.6462C100.317 26.3422 99.8814 26.1902 99.3134 26.1902C98.9534 26.1902 98.6414 26.2622 98.3774 26.4062C98.1134 26.5502 97.9054 26.7542 97.7534 27.0182C97.6014 27.2742 97.5014 27.5742 97.4534 27.9182C97.4454 28.0142 97.4094 28.0862 97.3454 28.1342C97.2814 28.1742 97.2254 28.1942 97.1774 28.1942H96.9374C96.8574 28.1942 96.7934 28.1742 96.7454 28.1342C96.7054 28.0862 96.6854 28.0302 96.6854 27.9662C96.6934 27.6942 96.7494 27.4142 96.8534 27.1262C96.9574 26.8302 97.1134 26.5582 97.3214 26.3102C97.5374 26.0622 97.8094 25.8622 98.1374 25.7102C98.4654 25.5502 98.8574 25.4702 99.3134 25.4702C99.9214 25.4702 100.409 25.5862 100.777 25.8182C101.153 26.0502 101.425 26.3502 101.593 26.7182C101.761 27.0862 101.845 27.4822 101.845 27.9062C101.845 28.2342 101.797 28.5382 101.701 28.8182C101.605 29.0902 101.461 29.3582 101.269 29.6222C101.077 29.8782 100.833 30.1422 100.537 30.4142L97.7294 33.2702H101.749C101.837 33.2702 101.905 33.2942 101.953 33.3422C102.001 33.3902 102.025 33.4582 102.025 33.5462V33.7262C102.025 33.8062 102.001 33.8702 101.953 33.9182C101.905 33.9662 101.837 33.9902 101.749 33.9902H96.8294ZM106.352 34.1102C105.808 34.1102 105.352 34.0222 104.984 33.8462C104.624 33.6702 104.332 33.4302 104.108 33.1262C103.892 32.8142 103.736 32.4582 103.64 32.0582C103.544 31.6582 103.488 31.2382 103.472 30.7982C103.472 30.5822 103.468 30.3622 103.46 30.1382C103.46 29.9142 103.46 29.6902 103.46 29.4662C103.468 29.2342 103.472 29.0062 103.472 28.7822C103.48 28.3422 103.532 27.9222 103.628 27.5222C103.732 27.1222 103.892 26.7702 104.108 26.4662C104.332 26.1542 104.624 25.9102 104.984 25.7342C105.352 25.5582 105.808 25.4702 106.352 25.4702C106.896 25.4702 107.348 25.5582 107.708 25.7342C108.076 25.9102 108.368 26.1542 108.584 26.4662C108.808 26.7702 108.968 27.1222 109.064 27.5222C109.168 27.9222 109.224 28.3422 109.232 28.7822C109.24 29.0062 109.244 29.2342 109.244 29.4662C109.244 29.6902 109.244 29.9142 109.244 30.1382C109.244 30.3622 109.24 30.5822 109.232 30.7982C109.224 31.2382 109.168 31.6582 109.064 32.0582C108.968 32.4582 108.808 32.8142 108.584 33.1262C108.368 33.4302 108.076 33.6702 107.708 33.8462C107.348 34.0222 106.896 34.1102 106.352 34.1102ZM106.352 33.3902C107.064 33.3902 107.592 33.1542 107.936 32.6822C108.28 32.2102 108.46 31.5622 108.476 30.7382C108.484 30.5062 108.488 30.2902 108.488 30.0902C108.488 29.8822 108.488 29.6782 108.488 29.4782C108.488 29.2702 108.484 29.0582 108.476 28.8422C108.46 28.0342 108.28 27.3902 107.936 26.9102C107.592 26.4302 107.064 26.1902 106.352 26.1902C105.648 26.1902 105.12 26.4302 104.768 26.9102C104.424 27.3902 104.244 28.0342 104.228 28.8422C104.228 29.0582 104.224 29.2702 104.216 29.4782C104.216 29.6782 104.216 29.8822 104.216 30.0902C104.224 30.2902 104.228 30.5062 104.228 30.7382C104.244 31.5622 104.424 32.2102 104.768 32.6822C105.12 33.1542 105.648 33.3902 106.352 33.3902ZM110.939 33.9902C110.859 33.9902 110.795 33.9662 110.747 33.9182C110.699 33.8702 110.675 33.8062 110.675 33.7262V33.5462C110.675 33.4662 110.695 33.3902 110.735 33.3182C110.783 33.2382 110.863 33.1462 110.975 33.0422L114.083 29.9342C114.387 29.6542 114.619 29.4102 114.779 29.2022C114.939 28.9942 115.047 28.7902 115.103 28.5902C115.167 28.3822 115.199 28.1542 115.199 27.9062C115.199 27.3702 115.043 26.9502 114.731 26.6462C114.427 26.3422 113.991 26.1902 113.423 26.1902C113.063 26.1902 112.751 26.2622 112.487 26.4062C112.223 26.5502 112.015 26.7542 111.863 27.0182C111.711 27.2742 111.611 27.5742 111.563 27.9182C111.555 28.0142 111.519 28.0862 111.455 28.1342C111.391 28.1742 111.335 28.1942 111.287 28.1942H111.047C110.967 28.1942 110.903 28.1742 110.855 28.1342C110.815 28.0862 110.795 28.0302 110.795 27.9662C110.803 27.6942 110.859 27.4142 110.963 27.1262C111.067 26.8302 111.223 26.5582 111.431 26.3102C111.647 26.0622 111.919 25.8622 112.247 25.7102C112.575 25.5502 112.967 25.4702 113.423 25.4702C114.031 25.4702 114.519 25.5862 114.887 25.8182C115.263 26.0502 115.535 26.3502 115.703 26.7182C115.871 27.0862 115.955 27.4822 115.955 27.9062C115.955 28.2342 115.907 28.5382 115.811 28.8182C115.715 29.0902 115.571 29.3582 115.379 29.6222C115.187 29.8782 114.943 30.1422 114.647 30.4142L111.839 33.2702H115.859C115.947 33.2702 116.015 33.2942 116.063 33.3422C116.111 33.3902 116.135 33.4582 116.135 33.5462V33.7262C116.135 33.8062 116.111 33.8702 116.063 33.9182C116.015 33.9662 115.947 33.9902 115.859 33.9902H110.939ZM121.497 33.9902C121.417 33.9902 121.353 33.9662 121.305 33.9182C121.257 33.8702 121.233 33.8062 121.233 33.7262V31.8302H117.273C117.193 31.8302 117.129 31.8062 117.081 31.7582C117.033 31.7102 117.009 31.6462 117.009 31.5662V31.3742C117.009 31.3582 117.017 31.3142 117.033 31.2422C117.049 31.1702 117.085 31.0942 117.141 31.0142L120.789 25.7942C120.885 25.6582 121.033 25.5902 121.233 25.5902H121.725C121.805 25.5902 121.869 25.6142 121.917 25.6622C121.965 25.7102 121.989 25.7742 121.989 25.8542V31.1102H123.081C123.161 31.1102 123.225 31.1342 123.273 31.1822C123.321 31.2302 123.345 31.2942 123.345 31.3742V31.5662C123.345 31.6462 123.321 31.7102 123.273 31.7582C123.225 31.8062 123.161 31.8302 123.081 31.8302H121.989V33.7262C121.989 33.8062 121.965 33.8702 121.917 33.9182C121.869 33.9662 121.805 33.9902 121.725 33.9902H121.497ZM117.957 31.1102H121.233V26.4422L117.957 31.1102Z" fill="#707070"/>
</svg>
