<svg width="137" height="43" viewBox="0 0 137 43" fill="none" xmlns="http://www.w3.org/2000/svg">
<rect x="-15" y="13.6826" width="149.187" height="29" rx="14.5" transform="rotate(-5 -15 13.6826)" fill="#FFCF00"/>
<rect x="-14.4583" y="14.1371" width="148.187" height="28" rx="14" transform="rotate(-5 -14.4583 14.1371)" stroke="black" stroke-opacity="0.05"/>
<path d="M9.96422 30.6918C9.23102 30.756 8.59425 30.6832 8.05392 30.4735C7.52156 30.2631 7.09101 29.9313 6.76227 29.4783C6.4408 29.0165 6.23883 28.452 6.15635 27.7846C6.1184 27.4426 6.08234 27.0764 6.04818 26.6859C6.01332 26.2874 5.98453 25.9125 5.96182 25.5611C5.92786 24.8976 6.02977 24.3185 6.26757 23.8239C6.51334 23.3286 6.88408 22.9307 7.37979 22.6304C7.88346 22.3293 8.49393 22.1474 9.21119 22.0847C9.79297 22.0338 10.31 22.0689 10.7623 22.1899C11.2138 22.303 11.5939 22.4705 11.9024 22.6924C12.2182 22.9057 12.46 23.1456 12.6279 23.412C12.8037 23.6776 12.9061 23.9297 12.9349 24.1681C12.9492 24.2391 12.9345 24.3006 12.8909 24.3526C12.8472 24.4046 12.7856 24.4341 12.7059 24.4411L11.4746 24.5488C11.3949 24.5558 11.3337 24.5451 11.2911 24.5167C11.2484 24.4883 11.2084 24.4436 11.1709 24.3826C11.0925 24.2209 10.9786 24.0662 10.8292 23.9187C10.6791 23.7631 10.4836 23.6397 10.2427 23.5484C10.0018 23.457 9.69807 23.4274 9.33147 23.4594C8.78954 23.5069 8.36775 23.6883 8.0661 24.0038C7.77242 24.3186 7.64256 24.8078 7.67652 25.4713C7.71327 26.1668 7.77463 26.8681 7.86059 27.5753C7.94377 28.2506 8.16163 28.7214 8.51418 28.9877C8.8747 29.2533 9.32592 29.3624 9.86785 29.315C10.2265 29.2836 10.5397 29.192 10.8075 29.04C11.0832 28.8874 11.2889 28.6687 11.4246 28.3837C11.5683 28.0981 11.6216 27.7441 11.5847 27.3218L11.5522 26.9512L10.0938 27.0788C10.0141 27.0857 9.94394 27.0638 9.88327 27.0129C9.8226 26.962 9.78843 26.8927 9.78076 26.805L9.72533 26.1714C9.71766 26.0838 9.73928 26.0096 9.79019 25.9489C9.84109 25.8883 9.9064 25.8544 9.98609 25.8475L12.8432 25.5975C12.9308 25.5898 13.001 25.6118 13.0537 25.6634C13.1144 25.7143 13.1486 25.7836 13.1562 25.8713L13.266 27.1265C13.3246 27.7959 13.2277 28.3866 12.9754 28.8985C12.731 29.4098 12.3494 29.8206 11.8304 30.131C11.3195 30.4407 10.6974 30.6277 9.96422 30.6918ZM15.216 30.1119C15.1363 30.1189 15.0661 30.0969 15.0055 30.046C14.9448 29.9951 14.911 29.9298 14.904 29.8501L14.4114 24.2196C14.4037 24.1319 14.4253 24.0578 14.4762 23.9971C14.5272 23.9364 14.5925 23.9026 14.6722 23.8956L15.6405 23.8109C15.7201 23.8039 15.7903 23.8259 15.851 23.8768C15.9196 23.927 15.9578 23.996 15.9655 24.0836L16.0083 24.5738C16.1693 24.3027 16.3873 24.0869 16.6624 23.9263C16.9454 23.765 17.2782 23.6676 17.6607 23.6342L18.1509 23.5913C18.2385 23.5836 18.3087 23.6056 18.3614 23.6572C18.4221 23.7081 18.4559 23.7734 18.4629 23.8531L18.5382 24.7138C18.5451 24.7935 18.5232 24.8637 18.4723 24.9243C18.4293 24.9843 18.364 25.0181 18.2764 25.0258L17.3439 25.1074C16.9614 25.1408 16.6719 25.2746 16.4756 25.5086C16.2872 25.7419 16.2094 26.0458 16.2422 26.4204L16.5298 29.7078C16.5368 29.7875 16.5148 29.8577 16.4639 29.9184C16.413 29.9791 16.3437 30.0132 16.256 30.0209L15.216 30.1119ZM22.5205 29.5933C21.6359 29.6707 20.9122 29.477 20.3496 29.0123C19.7869 28.5475 19.4445 27.8467 19.3224 26.9098C19.3075 26.8308 19.2948 26.7315 19.2843 26.612C19.2732 26.4845 19.2684 26.3845 19.2701 26.3121C19.2497 25.7116 19.3399 25.1817 19.5406 24.7225C19.7493 24.2625 20.0587 23.8982 20.4689 23.6294C20.8783 23.3527 21.3739 23.1888 21.9557 23.1379C22.6012 23.0815 23.155 23.1695 23.6171 23.4022C24.0784 23.6268 24.4415 23.9684 24.7065 24.4271C24.9708 24.8778 25.1302 25.4139 25.1845 26.0356L25.2065 26.2866C25.2135 26.3663 25.1915 26.4365 25.1406 26.4971C25.0897 26.5578 25.0204 26.592 24.9327 26.5996L20.9639 26.9469C20.9639 26.9469 20.9649 26.9588 20.967 26.9827C20.9691 27.0066 20.9709 27.0266 20.9723 27.0425C21.0046 27.3207 21.0791 27.5752 21.1957 27.8059C21.3195 28.028 21.4833 28.2024 21.6871 28.3291C21.8989 28.4551 22.1403 28.5063 22.4113 28.4826C22.6344 28.4631 22.8189 28.4148 22.9647 28.3378C23.1099 28.2528 23.2264 28.1623 23.3144 28.0663C23.4024 27.9702 23.4638 27.8926 23.4988 27.8333C23.5622 27.7314 23.6131 27.6707 23.6515 27.6513C23.6973 27.6232 23.7639 27.6053 23.8516 27.5977L24.8797 27.5077C24.9594 27.5008 25.0252 27.5191 25.0772 27.5627C25.1372 27.6057 25.1663 27.6633 25.1646 27.7358C25.1678 27.864 25.1137 28.0253 25.0022 28.2198C24.8987 28.4135 24.7391 28.6082 24.5233 28.8037C24.3075 28.9993 24.0295 29.1722 23.6893 29.3224C23.3564 29.4639 22.9668 29.5542 22.5205 29.5933ZM20.8761 25.9427L23.518 25.7116L23.5148 25.6757C23.4876 25.3649 23.4121 25.0985 23.2883 24.8764C23.1645 24.6544 22.997 24.4843 22.7859 24.3663C22.5748 24.2482 22.3298 24.2014 22.0509 24.2258C21.7719 24.2502 21.5388 24.3388 21.3514 24.4918C21.164 24.6447 21.0286 24.8412 20.9452 25.0814C20.8698 25.3209 20.8457 25.596 20.8729 25.9068L20.8761 25.9427ZM28.5472 29.066C28.1328 29.1023 27.7513 29.0553 27.4026 28.9252C27.0532 28.7872 26.7671 28.5914 26.5441 28.3378C26.3285 28.0756 26.2056 27.7732 26.1757 27.4305C26.1269 26.8726 26.3113 26.4108 26.729 26.045C27.154 25.6705 27.7322 25.3951 28.4636 25.2187L30.0804 24.8363L30.0585 24.5852C30.0292 24.2505 29.9228 23.9988 29.7394 23.8302C29.556 23.6615 29.2611 23.595 28.8547 23.6305C28.5678 23.6556 28.3379 23.736 28.1651 23.8716C27.9995 23.9985 27.8812 24.1614 27.8103 24.3603C27.7556 24.4695 27.6685 24.5293 27.549 24.5398L26.6046 24.6224C26.5169 24.6301 26.4471 24.6121 26.3951 24.5685C26.351 24.5241 26.3255 24.4621 26.3186 24.3824C26.3154 24.2542 26.3536 24.0943 26.4332 23.9026C26.5128 23.7109 26.6489 23.5224 26.8414 23.3369C27.0333 23.1434 27.2874 22.9726 27.6037 22.8245C27.92 22.6764 28.3092 22.5821 28.7715 22.5416C29.2735 22.4977 29.7015 22.5245 30.0553 22.622C30.4165 22.7109 30.7097 22.8499 30.935 23.039C31.1604 23.228 31.3331 23.4579 31.4531 23.7284C31.5731 23.999 31.6467 24.2897 31.6739 24.6005L32.0023 28.3542C32.0093 28.4339 31.9873 28.504 31.9364 28.5647C31.8855 28.6254 31.8202 28.6592 31.7405 28.6662L30.7722 28.7509C30.6846 28.7586 30.6104 28.7369 30.5497 28.686C30.497 28.6344 30.4672 28.5688 30.4602 28.4891L30.4194 28.0229C30.3291 28.1834 30.2022 28.339 30.0387 28.4898C29.8745 28.6327 29.6688 28.7591 29.4214 28.8691C29.1813 28.9704 28.8899 29.036 28.5472 29.066ZM28.8543 27.8948C29.1333 27.8704 29.3791 27.7887 29.5918 27.6496C29.8124 27.5098 29.9757 27.3108 30.0816 27.0526C30.1948 26.7857 30.2346 26.461 30.2012 26.0785L30.1792 25.8275L29.0005 26.1233C28.5366 26.2362 28.196 26.3824 27.9788 26.562C27.7617 26.7416 27.6632 26.947 27.6834 27.1781C27.6987 27.3534 27.7638 27.5003 27.8786 27.6188C28.0006 27.7286 28.1481 27.808 28.321 27.8571C28.4933 27.8983 28.671 27.9108 28.8543 27.8948ZM36.312 28.2662C35.8338 28.3081 35.424 28.2596 35.0826 28.1208C34.7412 27.982 34.4765 27.7563 34.2885 27.4434C34.0999 27.1227 33.9839 26.7152 33.9407 26.2211L33.7033 23.5075L32.7589 23.5901C32.6792 23.5971 32.609 23.5751 32.5483 23.5242C32.4877 23.4733 32.4538 23.408 32.4469 23.3283L32.3862 22.6349C32.3792 22.5553 32.4012 22.4851 32.4521 22.4244C32.503 22.3637 32.5683 22.3299 32.648 22.3229L33.5924 22.2403L33.4188 20.2559C33.4118 20.1762 33.4298 20.1064 33.4727 20.0464C33.5236 19.9857 33.5929 19.9516 33.6806 19.9439L34.6489 19.8592C34.7286 19.8522 34.7988 19.8742 34.8594 19.9251C34.9201 19.976 34.9539 20.0413 34.9609 20.121L35.1345 22.1054L36.6288 21.9747C36.7085 21.9677 36.7787 21.9897 36.8394 22.0406C36.9 22.0915 36.9338 22.1568 36.9408 22.2365L37.0015 22.9298C37.0085 23.0095 36.9865 23.0797 36.9356 23.1404C36.8847 23.201 36.8194 23.2349 36.7397 23.2418L35.2454 23.3726L35.4723 25.9667C35.5009 26.2934 35.579 26.5436 35.7066 26.7171C35.8422 26.8899 36.0535 26.9638 36.3404 26.9387L37.1652 26.8665C37.2449 26.8596 37.3151 26.8815 37.3758 26.9324C37.4364 26.9833 37.4702 27.0486 37.4772 27.1283L37.5421 27.8695C37.549 27.9492 37.5271 28.0194 37.4762 28.0801C37.4253 28.1407 37.3599 28.1745 37.2803 28.1815L36.312 28.2662ZM40.6736 27.8846C40.6098 27.8902 40.548 27.8715 40.488 27.8286C40.436 27.785 40.4069 27.7273 40.4006 27.6556C40.3978 27.6237 40.4026 27.5871 40.4151 27.5459L42.6215 19.5833C42.6384 19.5015 42.6763 19.4299 42.7352 19.3685C42.8014 19.2985 42.8942 19.2583 43.0138 19.2478L44.3168 19.1338C44.4363 19.1233 44.5308 19.1472 44.6001 19.2054C44.6687 19.2556 44.7225 19.3192 44.7613 19.3961L48.3169 26.8546C48.3284 26.8937 48.3355 26.9292 48.3383 26.9611C48.3446 27.0328 48.3259 27.0947 48.2822 27.1467C48.2386 27.1987 48.1849 27.2275 48.1212 27.2331L47.0811 27.324C46.9696 27.3338 46.8838 27.3172 46.8238 27.2743C46.7711 27.2227 46.7347 27.1737 46.7146 27.1272L46.0251 25.718L42.4747 26.0286L42.0404 27.5362C42.0287 27.5854 41.9973 27.6403 41.9464 27.701C41.9028 27.753 41.8252 27.7839 41.7136 27.7936L40.6736 27.8846ZM42.7728 24.6172L45.4865 24.3798L43.8005 20.8052L42.7728 24.6172ZM51.963 27.0174C51.3892 27.0676 50.8737 27.0043 50.4165 26.8275C49.9674 26.6499 49.6015 26.3687 49.3188 25.9839C49.0435 25.5904 48.8684 25.1038 48.7936 24.5241C48.7752 24.4053 48.7576 24.2502 48.7409 24.059C48.7234 23.8597 48.7131 23.696 48.7099 23.5678C48.683 22.9839 48.7712 22.4783 48.9748 22.0509C49.1856 21.6149 49.4967 21.2705 49.9082 21.0176C50.3277 20.7641 50.8244 20.6123 51.3982 20.5621C51.9083 20.5174 52.3489 20.5512 52.7201 20.6632C53.0912 20.7753 53.4018 20.9288 53.6517 21.1238C53.9017 21.3187 54.0929 21.5309 54.2254 21.7602C54.3652 21.9809 54.4474 22.1865 54.4721 22.3771C54.4877 22.464 54.4661 22.5382 54.4072 22.5996C54.3556 22.6523 54.29 22.6821 54.2103 22.6891L53.1583 22.7811C53.0786 22.7881 53.0131 22.7737 52.9618 22.7381C52.9185 22.7017 52.8734 22.6454 52.8266 22.5692C52.6791 22.2609 52.5002 22.0517 52.2898 21.9416C52.0867 21.8228 51.8337 21.7767 51.5309 21.8032C51.1324 21.8381 50.8248 21.9935 50.608 22.2694C50.3985 22.5367 50.3095 22.942 50.341 23.4853C50.3515 23.7896 50.3759 24.0685 50.4142 24.3221C50.4782 24.8706 50.6366 25.2583 50.8893 25.4851C51.1501 25.7113 51.4796 25.8069 51.8781 25.7721C52.1889 25.7449 52.4344 25.6591 52.6145 25.5149C52.7939 25.3627 52.9295 25.122 53.0211 24.7927C53.054 24.7095 53.0886 24.6463 53.125 24.6029C53.1693 24.5589 53.2313 24.5334 53.311 24.5264L54.363 24.4344C54.4427 24.4274 54.5129 24.4494 54.5735 24.5003C54.6415 24.5425 54.6753 24.6078 54.675 24.6962C54.6796 24.8403 54.654 25.0072 54.5983 25.1968C54.5499 25.3777 54.4584 25.5704 54.3237 25.7749C54.1963 25.9708 54.0279 26.1582 53.8187 26.3371C53.6088 26.508 53.3487 26.6552 53.0383 26.7788C52.7358 26.9016 52.3774 26.9811 51.963 27.0174ZM56.391 26.5095C56.3113 26.5165 56.2412 26.4945 56.1805 26.4436C56.1198 26.3927 56.086 26.3274 56.079 26.2477L55.3867 18.334C55.3797 18.2543 55.4017 18.1841 55.4526 18.1234C55.5035 18.0627 55.5688 18.0289 55.6485 18.022L56.7124 17.9289C56.8001 17.9212 56.8703 17.9432 56.9229 17.9948C56.9836 18.0457 57.0174 18.111 57.0244 18.1907L57.2629 20.9163C57.4557 20.6424 57.7006 20.4122 57.9975 20.2256C58.2943 20.039 58.6699 19.9259 59.1242 19.8861C59.6103 19.8436 60.0425 19.9182 60.4206 20.11C60.806 20.2931 61.1158 20.5752 61.3499 20.9562C61.584 21.3373 61.7255 21.8067 61.7743 22.3646L62.0682 25.7238C62.0751 25.8034 62.0532 25.8736 62.0023 25.9343C61.9513 25.995 61.886 26.0288 61.8064 26.0358L60.7305 26.1299C60.6508 26.1369 60.5806 26.1149 60.5199 26.064C60.4592 26.0131 60.4254 25.9478 60.4185 25.8681L60.1308 22.5806C60.0904 22.1184 59.9431 21.7659 59.689 21.5231C59.4428 21.2797 59.1046 21.1767 58.6742 21.2144C58.2598 21.2506 57.9366 21.4114 57.7046 21.6967C57.4805 21.9813 57.3887 22.3548 57.4292 22.817L57.7168 26.1044C57.7237 26.1841 57.7018 26.2543 57.6509 26.315C57.6079 26.375 57.5426 26.4088 57.455 26.4165L56.391 26.5095ZM63.8972 25.8528C63.8175 25.8598 63.7474 25.8378 63.6867 25.7869C63.626 25.736 63.5922 25.6707 63.5852 25.591L63.0916 19.9486C63.0846 19.8689 63.1066 19.7987 63.1575 19.738C63.2084 19.6774 63.2737 19.6435 63.3534 19.6366L64.3456 19.5498C64.4333 19.5421 64.5034 19.5641 64.5561 19.6157C64.6168 19.6666 64.6506 19.7319 64.6576 19.8116L65.1513 25.454C65.1582 25.5337 65.1363 25.6039 65.0854 25.6646C65.0424 25.7245 64.9771 25.7584 64.8894 25.766L63.8972 25.8528ZM63.2156 18.6127C63.128 18.6204 63.0541 18.6027 62.9942 18.5598C62.9415 18.5082 62.9113 18.4385 62.9036 18.3509L62.8283 17.4902C62.8213 17.4105 62.8393 17.3406 62.8823 17.2807C62.9332 17.22 63.0025 17.1858 63.0901 17.1782L64.178 17.083C64.2656 17.0753 64.3398 17.0969 64.4005 17.1478C64.4611 17.1987 64.495 17.2641 64.5019 17.3437L64.5772 18.2045C64.5849 18.2921 64.5633 18.3663 64.5124 18.427C64.4608 18.4797 64.3911 18.5098 64.3035 18.5175L63.2156 18.6127ZM69.4506 25.4874C68.566 25.5648 67.8423 25.3712 67.2797 24.9064C66.717 24.4417 66.3747 23.7409 66.2525 22.8039C66.2376 22.7249 66.2249 22.6257 66.2144 22.5061C66.2033 22.3786 66.1985 22.2787 66.2002 22.2062C66.1798 21.6057 66.27 21.0759 66.4707 20.6166C66.6794 20.1567 66.9889 19.7923 67.399 19.5235C67.8084 19.2468 68.304 19.083 68.8858 19.0321C69.5314 18.9756 70.0851 19.0637 70.5472 19.2963C71.0085 19.5209 71.3717 19.8626 71.6366 20.3212C71.9009 20.7719 72.0603 21.3081 72.1146 21.9297L72.1366 22.1807C72.1436 22.2604 72.1216 22.3306 72.0707 22.3913C72.0198 22.452 71.9505 22.4861 71.8629 22.4938L67.894 22.841C67.894 22.841 67.8951 22.853 67.8972 22.8769C67.8992 22.9008 67.901 22.9207 67.9024 22.9367C67.9348 23.2149 68.0092 23.4694 68.1258 23.7001C68.2496 23.9221 68.4134 24.0965 68.6172 24.2233C68.829 24.3493 69.0704 24.4004 69.3414 24.3767C69.5645 24.3572 69.749 24.3089 69.8949 24.2319C70.04 24.147 70.1566 24.0565 70.2445 23.9604C70.3325 23.8644 70.394 23.7867 70.4289 23.7275C70.4923 23.6256 70.5432 23.5649 70.5816 23.5455C70.6274 23.5174 70.6941 23.4995 70.7817 23.4918L71.8098 23.4019C71.8895 23.3949 71.9553 23.4132 72.0073 23.4569C72.0673 23.4998 72.0964 23.5575 72.0948 23.6299C72.0979 23.7581 72.0438 23.9195 71.9323 24.1139C71.8288 24.3077 71.6692 24.5023 71.4534 24.6979C71.2376 24.8934 70.9596 25.0663 70.6194 25.2165C70.2865 25.3581 69.8969 25.4484 69.4506 25.4874ZM67.8062 21.8369L70.4481 21.6057L70.4449 21.5699C70.4177 21.259 70.3422 20.9926 70.2184 20.7706C70.0946 20.5485 69.9271 20.3785 69.716 20.2604C69.5049 20.1424 69.2599 20.0955 68.981 20.1199C68.7021 20.1443 68.4689 20.233 68.2815 20.3859C68.0941 20.5388 67.9587 20.7354 67.8754 20.9756C67.7999 21.215 67.7758 21.4902 67.803 21.801L67.8062 21.8369ZM75.6396 24.8255C75.5121 24.8367 75.414 24.8171 75.3453 24.7669C75.284 24.7081 75.2299 24.6405 75.1831 24.5643L72.4623 19.2131C72.4429 19.1746 72.4318 19.1394 72.429 19.1076C72.4227 19.0358 72.4414 18.974 72.485 18.922C72.5359 18.8613 72.5973 18.8278 72.669 18.8216L73.6373 18.7368C73.7329 18.7285 73.8071 18.7501 73.8598 18.8017C73.9118 18.8453 73.9479 18.8904 73.968 18.9368L75.925 22.9937L77.1478 18.6586C77.1596 18.6094 77.1873 18.5588 77.2309 18.5068C77.2739 18.4468 77.3431 18.4126 77.4388 18.4043L78.419 18.3185C78.4828 18.3129 78.541 18.3359 78.5937 18.3875C78.6537 18.4305 78.6868 18.4878 78.6931 18.5595C78.6959 18.5914 78.695 18.6276 78.6905 18.6682L76.9284 24.4116C76.9035 24.4941 76.862 24.57 76.8038 24.6393C76.7449 24.7007 76.6517 24.737 76.5242 24.7481L75.6396 24.8255ZM82.7708 24.3221C81.8862 24.3995 81.1625 24.2058 80.5999 23.7411C80.0373 23.2763 79.6949 22.5755 79.5727 21.6386C79.5578 21.5596 79.5451 21.4603 79.5346 21.3408C79.5235 21.2133 79.5188 21.1133 79.5205 21.0409C79.5 20.4404 79.5902 19.9105 79.7909 19.4512C79.9996 18.9913 80.3091 18.6269 80.7192 18.3582C81.1286 18.0814 81.6243 17.9176 82.206 17.8667C82.8516 17.8102 83.4053 17.8983 83.8674 18.1309C84.3287 18.3556 84.6919 18.6972 84.9569 19.1559C85.2211 19.6066 85.3805 20.1427 85.4349 20.7643L85.4568 21.0154C85.4638 21.0951 85.4418 21.1653 85.3909 21.2259C85.34 21.2866 85.2707 21.3208 85.1831 21.3284L81.2142 21.6757C81.2142 21.6757 81.2153 21.6876 81.2174 21.7115C81.2195 21.7354 81.2212 21.7554 81.2226 21.7713C81.255 22.0495 81.3294 22.304 81.446 22.5347C81.5698 22.7568 81.7336 22.9312 81.9374 23.0579C82.1492 23.1839 82.3906 23.2351 82.6616 23.2114C82.8847 23.1918 83.0692 23.1436 83.2151 23.0666C83.3602 22.9816 83.4768 22.8911 83.5647 22.7951C83.6527 22.699 83.7142 22.6214 83.7491 22.5621C83.8125 22.4602 83.8634 22.3995 83.9019 22.3801C83.9476 22.352 84.0143 22.3341 84.1019 22.3265L85.13 22.2365C85.2097 22.2295 85.2756 22.2479 85.3276 22.2915C85.3875 22.3344 85.4167 22.3921 85.415 22.4645C85.4182 22.5928 85.364 22.7541 85.2525 22.9485C85.149 23.1423 84.9894 23.337 84.7736 23.5325C84.5578 23.7281 84.2798 23.9009 83.9396 24.0512C83.6067 24.1927 83.2171 24.283 82.7708 24.3221ZM81.1264 20.6715L83.7683 20.4404L83.7651 20.4045C83.738 20.0937 83.6624 19.8272 83.5386 19.6052C83.4148 19.3831 83.2473 19.2131 83.0362 19.095C82.8252 18.977 82.5801 18.9302 82.3012 18.9546C82.0223 18.979 81.7891 19.0676 81.6017 19.2205C81.4143 19.3735 81.279 19.57 81.1956 19.8102C81.1202 20.0497 81.096 20.3248 81.1232 20.6356L81.1264 20.6715ZM87.2689 23.8081C87.1892 23.815 87.119 23.7931 87.0584 23.7422C86.9977 23.6913 86.9639 23.626 86.9569 23.5463L86.4632 17.9038C86.4563 17.8241 86.4782 17.7539 86.5291 17.6933C86.5801 17.6326 86.6454 17.5988 86.725 17.5918L87.6575 17.5102C87.7372 17.5033 87.8074 17.5252 87.868 17.5761C87.9287 17.627 87.9625 17.6923 87.9695 17.772L88.0051 18.1785C88.1529 17.9407 88.3597 17.7339 88.6253 17.5581C88.8983 17.3736 89.2297 17.2603 89.6195 17.2181C90.5266 17.1227 91.1912 17.4219 91.6133 18.1158C91.7687 17.781 92.0094 17.5029 92.3354 17.2817C92.6686 17.0517 93.0464 16.9183 93.4688 16.8814C93.8832 16.8451 94.2661 16.908 94.6176 17.0699C94.977 17.2312 95.2695 17.4988 95.4949 17.8725C95.7276 18.2377 95.8697 18.7151 95.9213 19.3048L96.2215 22.7357C96.2285 22.8154 96.2065 22.8856 96.1556 22.9463C96.1047 23.0069 96.0394 23.0408 95.9597 23.0477L94.9794 23.1335C94.8998 23.1405 94.8296 23.1185 94.7689 23.0676C94.7082 23.0167 94.6744 22.9514 94.6674 22.8717L94.3756 19.5364C94.3443 19.1778 94.2677 18.8994 94.146 18.7013C94.0236 18.4951 93.8708 18.3559 93.6878 18.2836C93.5048 18.2113 93.3057 18.1845 93.0906 18.2034C92.9152 18.2187 92.7437 18.2779 92.5761 18.3809C92.4084 18.4839 92.2782 18.6478 92.1855 18.8728C92.092 19.0898 92.061 19.3776 92.0924 19.7362L92.3842 23.0714C92.3911 23.1511 92.3692 23.2213 92.3183 23.282C92.2674 23.3427 92.2021 23.3765 92.1224 23.3834L91.1421 23.4692C91.0544 23.4769 90.9803 23.4553 90.9196 23.4044C90.8669 23.3528 90.8371 23.2871 90.8301 23.2074L90.5383 19.8721C90.5069 19.5135 90.4264 19.2355 90.2967 19.038C90.1663 18.8326 90.0096 18.6937 89.8266 18.6214C89.6436 18.5491 89.4525 18.5216 89.2532 18.5391C89.0699 18.5551 88.8948 18.6186 88.7278 18.7296C88.5602 18.8326 88.4296 18.9926 88.3362 19.2096C88.2427 19.4265 88.2117 19.7143 88.2431 20.073L88.5349 23.4082C88.5418 23.4879 88.5199 23.5581 88.469 23.6188C88.4181 23.6794 88.3528 23.7132 88.2731 23.7202L87.2689 23.8081ZM100.457 22.7747C99.5725 22.8521 98.8489 22.6584 98.2862 22.1937C97.7236 21.729 97.3812 21.0281 97.2591 20.0912C97.2442 20.0122 97.2315 19.913 97.221 19.7934C97.2098 19.6659 97.2051 19.5659 97.2068 19.4935C97.1864 18.893 97.2765 18.3631 97.4773 17.9039C97.686 17.4439 97.9954 17.0796 98.4056 16.8108C98.815 16.5341 99.3106 16.3703 99.8924 16.3194C100.538 16.2629 101.092 16.351 101.554 16.5836C102.015 16.8082 102.378 17.1499 102.643 17.6085C102.907 18.0592 103.067 18.5954 103.121 19.217L103.143 19.468C103.15 19.5477 103.128 19.6179 103.077 19.6786C103.026 19.7392 102.957 19.7734 102.869 19.7811L98.9006 20.1283C98.9006 20.1283 98.9016 20.1403 98.9037 20.1642C98.9058 20.1881 98.9075 20.208 98.9089 20.2239C98.9413 20.5022 99.0158 20.7567 99.1323 20.9874C99.2562 21.2094 99.42 21.3838 99.6238 21.5105C99.8356 21.6365 100.077 21.6877 100.348 21.664C100.571 21.6445 100.756 21.5962 100.901 21.5192C101.047 21.4342 101.163 21.3437 101.251 21.2477C101.339 21.1517 101.401 21.074 101.435 21.0147C101.499 20.9128 101.55 20.8522 101.588 20.8327C101.634 20.8046 101.701 20.7868 101.788 20.7791L102.816 20.6892C102.896 20.6822 102.962 20.7005 103.014 20.7441C103.074 20.7871 103.103 20.8448 103.101 20.9172C103.105 21.0454 103.05 21.2067 102.939 21.4012C102.835 21.5949 102.676 21.7896 102.46 21.9851C102.244 22.1807 101.966 22.3536 101.626 22.5038C101.293 22.6454 100.903 22.7357 100.457 22.7747ZM98.8127 19.1241L101.455 18.893L101.451 18.8571C101.424 18.5463 101.349 18.2799 101.225 18.0578C101.101 17.8358 100.934 17.6657 100.723 17.5477C100.512 17.4296 100.266 17.3828 99.9876 17.4072C99.7086 17.4316 99.4755 17.5203 99.2881 17.6732C99.1007 17.8261 98.9653 18.0226 98.8819 18.2628C98.8065 18.5023 98.7824 18.7775 98.8096 19.0883L98.8127 19.1241ZM104.955 22.2607C104.876 22.2677 104.805 22.2457 104.745 22.1948C104.684 22.1439 104.65 22.0786 104.643 21.9989L104.15 16.3565C104.143 16.2768 104.165 16.2066 104.215 16.1459C104.266 16.0853 104.332 16.0514 104.411 16.0445L105.392 15.9587C105.471 15.9517 105.542 15.9737 105.602 16.0246C105.663 16.0755 105.697 16.1408 105.704 16.2205L105.747 16.7106C105.931 16.4375 106.176 16.2033 106.48 16.008C106.792 15.8041 107.186 15.6812 107.664 15.6394C108.151 15.5969 108.583 15.6715 108.961 15.8633C109.338 16.0471 109.64 16.3298 109.866 16.7116C110.1 17.0926 110.242 17.5621 110.291 18.1199L110.585 21.4791C110.592 21.5588 110.57 21.629 110.519 21.6897C110.468 21.7503 110.402 21.7841 110.323 21.7911L109.271 21.8832C109.191 21.8901 109.121 21.8682 109.06 21.8173C109 21.7664 108.966 21.7011 108.959 21.6214L108.671 18.3339C108.631 17.8717 108.483 17.5192 108.229 17.2764C107.983 17.0329 107.645 16.93 107.215 16.9677C106.8 17.0039 106.481 17.1644 106.257 17.449C106.033 17.7336 105.941 18.107 105.981 18.5692L106.269 21.8567C106.276 21.9364 106.254 22.0066 106.203 22.0672C106.152 22.1279 106.087 22.1617 106.007 22.1687L104.955 22.2607ZM114.867 21.3935C114.389 21.4354 113.979 21.3869 113.638 21.2481C113.297 21.1093 113.032 20.8835 112.844 20.5707C112.655 20.25 112.539 19.8425 112.496 19.3484L112.259 16.6348L111.314 16.7174C111.235 16.7244 111.164 16.7024 111.104 16.6515C111.043 16.6006 111.009 16.5353 111.002 16.4556L110.942 15.7622C110.935 15.6825 110.957 15.6124 111.008 15.5517C111.058 15.491 111.124 15.4572 111.203 15.4502L112.148 15.3676L111.974 13.3832C111.967 13.3035 111.985 13.2337 112.028 13.1737C112.079 13.113 112.148 13.0789 112.236 13.0712L113.204 12.9865C113.284 12.9795 113.354 13.0015 113.415 13.0524C113.476 13.1033 113.509 13.1686 113.516 13.2483L113.69 15.2327L115.184 15.102C115.264 15.095 115.334 15.117 115.395 15.1679C115.455 15.2188 115.489 15.2841 115.496 15.3638L115.557 16.0571C115.564 16.1368 115.542 16.207 115.491 16.2677C115.44 16.3283 115.375 16.3621 115.295 16.3691L113.801 16.4999L114.028 19.0939C114.056 19.4207 114.134 19.6708 114.262 19.8444C114.398 20.0172 114.609 20.0911 114.896 20.066L115.721 19.9938C115.8 19.9869 115.87 20.0088 115.931 20.0597C115.992 20.1106 116.026 20.1759 116.033 20.2556L116.097 20.9968C116.104 21.0765 116.082 21.1467 116.032 21.2073C115.981 21.268 115.915 21.3018 115.836 21.3088L114.867 21.3935ZM119.549 21.1044C119.07 21.1463 118.655 21.1264 118.303 21.0448C117.958 20.9625 117.671 20.8471 117.441 20.6986C117.211 20.55 117.037 20.3966 116.919 20.2383C116.801 20.08 116.733 19.9454 116.715 19.8346C116.699 19.7476 116.717 19.6778 116.769 19.6251C116.828 19.5637 116.893 19.5299 116.965 19.5236L117.909 19.441C117.941 19.4382 117.969 19.4397 117.994 19.4456C118.019 19.4515 118.053 19.4726 118.096 19.509C118.207 19.5876 118.323 19.6698 118.443 19.7557C118.571 19.8408 118.717 19.9123 118.883 19.9701C119.048 20.0199 119.25 20.0344 119.489 20.0134C119.8 19.9863 120.054 19.9038 120.251 19.7662C120.455 19.6198 120.546 19.4311 120.526 19.2C120.512 19.0326 120.452 18.9013 120.347 18.8061C120.25 18.7101 120.075 18.6331 119.821 18.575C119.566 18.509 119.208 18.448 118.745 18.3921C118.29 18.3276 117.908 18.2285 117.599 18.0949C117.29 17.9613 117.053 17.7812 116.889 17.5547C116.725 17.3282 116.629 17.0555 116.601 16.7367C116.573 16.4259 116.639 16.123 116.798 15.8281C116.964 15.5244 117.223 15.2649 117.573 15.0495C117.932 14.8335 118.386 14.7014 118.936 14.6533C119.366 14.6156 119.746 14.6386 120.074 14.7223C120.402 14.798 120.677 14.9065 120.898 15.0478C121.127 15.1884 121.305 15.3374 121.431 15.495C121.556 15.6447 121.628 15.7789 121.647 15.8977C121.662 15.9847 121.645 16.0585 121.594 16.1192C121.542 16.1719 121.481 16.2014 121.409 16.2077L120.524 16.2851C120.484 16.2885 120.448 16.2837 120.414 16.2706C120.381 16.2574 120.348 16.2403 120.314 16.2192C120.219 16.1471 120.116 16.0718 120.005 15.9932C119.893 15.9146 119.759 15.8501 119.602 15.7996C119.453 15.7404 119.258 15.7212 119.019 15.7422C118.716 15.7687 118.491 15.8566 118.344 16.006C118.195 16.1475 118.13 16.3179 118.147 16.5171C118.159 16.6526 118.206 16.769 118.286 16.8663C118.374 16.955 118.538 17.033 118.777 17.1005C119.015 17.1679 119.374 17.2289 119.853 17.2834C120.395 17.3323 120.83 17.4388 121.157 17.6029C121.492 17.7583 121.734 17.9539 121.883 18.1898C122.04 18.4171 122.131 18.6781 122.157 18.973C122.188 19.3316 122.109 19.6638 121.919 19.9695C121.737 20.2746 121.446 20.5289 121.046 20.7325C120.653 20.9275 120.154 21.0514 119.549 21.1044Z" fill="#151515"/>
</svg>
