<svg width="327" height="72" viewBox="0 0 327 72" fill="none" xmlns="http://www.w3.org/2000/svg">
<path d="M0.21175 0.284325H3.25175V10.0763H14.9638V0.284325H18.0358V22.6843H14.9638V12.7643H3.25175V22.6843H0.21175V0.284325ZM26.2463 22.9403C24.3689 22.9403 22.8543 22.407 21.7023 21.3403C20.5716 20.2523 20.0063 18.8337 20.0063 17.0843V12.6683C20.0063 10.791 20.5716 9.28699 21.7023 8.15633C22.8543 7.02566 24.3689 6.46033 26.2463 6.46033H28.8703C30.6836 6.46033 32.1449 7.01499 33.2543 8.12433C34.3636 9.23366 34.9183 10.7057 34.9183 12.5403V15.5483H22.9823V17.0843C22.9823 18.0657 23.2809 18.855 23.8783 19.4523C24.4756 20.0497 25.2649 20.3483 26.2463 20.3483H28.7103C29.6703 20.3483 30.4489 20.103 31.0463 19.6123C31.6436 19.1003 31.9423 18.4283 31.9423 17.5963H34.8542C34.8542 19.1963 34.2889 20.487 33.1583 21.4683C32.0276 22.4497 30.5343 22.9403 28.6783 22.9403H26.2463ZM31.9423 13.1803V12.5403C31.9423 11.4737 31.6543 10.6203 31.0783 9.98033C30.5236 9.34033 29.7876 9.02033 28.8703 9.02033H26.2463C25.2649 9.02033 24.4756 9.36166 23.8783 10.0443C23.2809 10.7057 22.9823 11.591 22.9823 12.7003V13.1803H31.9423ZM36.5838 6.71633H39.4318V9.05233C39.8584 8.34833 40.4771 7.77233 41.2878 7.32433C42.1198 6.87632 42.9838 6.65232 43.8798 6.65232H45.5438V9.30833H43.8798C42.5784 9.30833 41.5331 9.71366 40.7438 10.5243C39.9544 11.3137 39.5598 12.359 39.5598 13.6603V22.6843H36.5838V6.71633ZM51.34 22.9403C49.4627 22.9403 47.948 22.407 46.796 21.3403C45.6653 20.2523 45.1 18.8337 45.1 17.0843V12.6683C45.1 10.791 45.6653 9.28699 46.796 8.15633C47.948 7.02566 49.4627 6.46033 51.34 6.46033H53.964C55.7773 6.46033 57.2387 7.01499 58.348 8.12433C59.4573 9.23366 60.012 10.7057 60.012 12.5403V15.5483H48.076V17.0843C48.076 18.0657 48.3747 18.855 48.972 19.4523C49.5693 20.0497 50.3587 20.3483 51.34 20.3483H53.804C54.764 20.3483 55.5427 20.103 56.14 19.6123C56.7373 19.1003 57.036 18.4283 57.036 17.5963H59.948C59.948 19.1963 59.3827 20.487 58.252 21.4683C57.1213 22.4497 55.628 22.9403 53.772 22.9403H51.34ZM57.036 13.1803V12.5403C57.036 11.4737 56.748 10.6203 56.172 9.98033C55.6173 9.34033 54.8813 9.02033 53.964 9.02033H51.34C50.3587 9.02033 49.5693 9.36166 48.972 10.0443C48.3747 10.7057 48.076 11.591 48.076 12.7003V13.1803H57.036ZM61.0375 0.284325H64.0135V7.45233H61.0375V0.284325ZM70.793 22.9403C69.065 22.9403 67.6783 22.471 66.633 21.5323C65.5877 20.5723 65.065 19.3137 65.065 17.7563H67.977C67.977 18.5457 68.233 19.1857 68.745 19.6763C69.257 20.167 69.9397 20.4123 70.793 20.4123H73.609C74.4197 20.4123 75.0703 20.263 75.561 19.9643C76.0517 19.6443 76.297 19.2283 76.297 18.7163V17.7883C76.297 17.447 76.1477 17.1483 75.849 16.8923C75.5717 16.615 75.209 16.4337 74.761 16.3483L69.225 15.3883C68.0517 15.175 67.113 14.7377 66.409 14.0763C65.705 13.3937 65.353 12.6043 65.353 11.7083V10.6523C65.353 9.39366 65.8543 8.38033 66.857 7.61233C67.8597 6.84433 69.2037 6.46033 70.889 6.46033H73.577C75.177 6.46033 76.457 6.89766 77.417 7.77233C78.3983 8.64699 78.889 9.80966 78.889 11.2603H75.977C75.9557 10.5777 75.721 10.0337 75.273 9.62833C74.8463 9.20166 74.281 8.98833 73.577 8.98833H70.921C70.1317 8.98833 69.5023 9.14833 69.033 9.46833C68.585 9.78833 68.361 10.215 68.361 10.7483V11.5483C68.361 11.8897 68.5103 12.1883 68.809 12.4443C69.1077 12.7003 69.4917 12.8817 69.961 12.9883L75.561 13.9803C76.6703 14.1723 77.5663 14.599 78.249 15.2603C78.953 15.9217 79.305 16.6897 79.305 17.5643V18.8123C79.305 20.0497 78.7823 21.0523 77.737 21.8203C76.6917 22.567 75.3157 22.9403 73.609 22.9403H70.793ZM107.78 6.71633L104.42 20.6043C104.249 21.3297 103.982 21.863 103.62 22.2043C103.257 22.5243 102.788 22.6843 102.212 22.6843H100.836L96.9635 11.2603L92.9955 22.6843H91.6195C91.0435 22.6843 90.5742 22.5243 90.2115 22.2043C89.8488 21.863 89.5822 21.3297 89.4115 20.6043L86.0195 6.71633H89.1555L91.7795 19.0043L95.8435 7.13233H96.9635C97.3475 7.13233 97.6568 7.22833 97.8915 7.42033C98.1262 7.59099 98.3075 7.86833 98.4355 8.25233L102.02 19.0363L104.644 6.71633H107.78ZM108.865 0.284325H111.841V8.73233C112.332 8.04966 112.95 7.50566 113.697 7.10033C114.444 6.67366 115.18 6.46033 115.905 6.46033H118.081C119.617 6.46033 120.854 6.97233 121.793 7.99633C122.753 9.02033 123.233 10.3643 123.233 12.0283V22.6843H120.257V12.0283C120.257 11.1537 120.033 10.4497 119.585 9.91633C119.137 9.36166 118.55 9.08433 117.825 9.08433H115.777C114.86 9.08433 114.028 9.43633 113.281 10.1403C112.534 10.823 112.054 11.719 111.841 12.8283V22.6843H108.865V0.284325ZM130.289 22.9403C128.689 22.9403 127.409 22.535 126.449 21.7243C125.489 20.8923 125.009 19.7937 125.009 18.4283V17.3723C125.009 16.0283 125.511 14.951 126.513 14.1403C127.516 13.3083 128.828 12.8923 130.449 12.8923H132.465C133.105 12.8923 133.788 12.9883 134.513 13.1803C135.239 13.3723 135.857 13.639 136.369 13.9803V11.6443C136.369 10.855 136.124 10.2257 135.633 9.75633C135.143 9.26566 134.503 9.02033 133.713 9.02033H131.089C130.279 9.02033 129.628 9.21233 129.137 9.59633C128.647 9.98033 128.401 10.4817 128.401 11.1003H125.457C125.457 9.71366 125.969 8.59366 126.993 7.74033C128.039 6.88699 129.404 6.46033 131.089 6.46033H133.713C135.399 6.46033 136.753 6.94033 137.777 7.90033C138.801 8.83899 139.313 10.087 139.313 11.6443V22.6843H136.529V20.5403C136.039 21.2657 135.399 21.8523 134.609 22.3003C133.82 22.727 133.02 22.9403 132.209 22.9403H130.289ZM132.369 20.4763C133.308 20.4763 134.14 20.2097 134.865 19.6763C135.591 19.1217 136.092 18.3857 136.369 17.4683V16.5083C135.964 16.1457 135.409 15.8577 134.705 15.6443C134.001 15.431 133.276 15.3243 132.529 15.3243H130.481C129.735 15.3243 129.127 15.5163 128.657 15.9003C128.188 16.2843 127.953 16.7963 127.953 17.4363V18.3963C127.953 19.0363 128.177 19.5483 128.625 19.9323C129.095 20.295 129.713 20.4763 130.481 20.4763H132.369ZM148.111 22.6843C146.362 22.6843 145.092 22.3003 144.303 21.5323C143.535 20.7643 143.151 19.527 143.151 17.8203V9.30833H140.335V6.71633H143.183V1.88433H146.127V6.71633H150.287V9.30833H146.127V17.7563C146.127 18.5883 146.287 19.1857 146.607 19.5483C146.948 19.911 147.492 20.0923 148.239 20.0923H150.287V22.6843H148.111ZM164.309 22.9403C162.431 22.9403 160.917 22.375 159.765 21.2443C158.634 20.1137 158.069 18.631 158.069 16.7963V12.6363C158.069 10.7803 158.645 9.28699 159.797 8.15633C160.949 7.02566 162.474 6.46033 164.373 6.46033H167.061C168.959 6.46033 170.485 7.02566 171.637 8.15633C172.789 9.28699 173.365 10.7803 173.365 12.6363V16.7963C173.365 18.631 172.778 20.1137 171.605 21.2443C170.453 22.375 168.927 22.9403 167.029 22.9403H164.309ZM166.997 20.3163C168.021 20.3163 168.842 19.9857 169.461 19.3243C170.079 18.663 170.389 17.7777 170.389 16.6683V12.7323C170.389 11.623 170.079 10.7377 169.461 10.0763C168.863 9.41499 168.063 9.08433 167.061 9.08433H164.373C163.37 9.08433 162.559 9.41499 161.941 10.0763C161.343 10.7377 161.045 11.623 161.045 12.7323V16.6683C161.045 17.7777 161.343 18.663 161.941 19.3243C162.538 19.9857 163.338 20.3163 164.341 20.3163H166.997ZM180.201 22.9403C178.643 22.9403 177.385 22.4177 176.425 21.3723C175.486 20.327 175.017 18.951 175.017 17.2443V6.71633H177.993V17.3083C177.993 18.2043 178.217 18.9297 178.665 19.4843C179.113 20.039 179.699 20.3163 180.425 20.3163H182.345C183.241 20.3163 184.062 19.9537 184.809 19.2283C185.555 18.503 186.046 17.5857 186.281 16.4763V6.71633H189.257V22.6843H186.441V20.3803C185.929 21.127 185.289 21.7457 184.521 22.2363C183.753 22.7057 182.995 22.9403 182.249 22.9403H180.201ZM191.74 6.71633H194.588V9.05233C195.015 8.34833 195.633 7.77233 196.444 7.32433C197.276 6.87632 198.14 6.65232 199.036 6.65232H200.7V9.30833H199.036C197.735 9.30833 196.689 9.71366 195.9 10.5243C195.111 11.3137 194.716 12.359 194.716 13.6603V22.6843H191.74V6.71633ZM214.166 22.9403C212.097 22.9403 210.443 22.3217 209.206 21.0843C207.969 19.847 207.35 18.183 207.35 16.0923H210.326C210.326 17.351 210.678 18.3537 211.382 19.1003C212.107 19.847 213.057 20.2203 214.23 20.2203H217.782C218.955 20.2203 219.894 19.975 220.598 19.4843C221.302 18.9723 221.654 18.3003 221.654 17.4683V15.7403C221.654 15.079 221.398 14.5243 220.886 14.0763C220.395 13.6283 219.691 13.3297 218.774 13.1803L212.95 12.2203C211.243 11.943 209.921 11.3563 208.982 10.4603C208.065 9.56433 207.606 8.44433 207.606 7.10033V5.34032C207.606 3.74032 208.214 2.46032 209.43 1.50032C210.667 0.518992 212.289 0.028326 214.294 0.028326H217.91C219.169 0.028326 220.278 0.294992 221.238 0.828325C222.219 1.34033 222.977 2.07633 223.51 3.03633C224.043 3.97499 224.31 5.06299 224.31 6.30033H221.302C221.302 5.23366 220.993 4.38033 220.374 3.74033C219.755 3.07899 218.934 2.74833 217.91 2.74833H214.294C213.206 2.74833 212.321 2.99366 211.638 3.48433C210.977 3.95366 210.646 4.60433 210.646 5.43633V6.87633C210.646 7.55899 210.881 8.12433 211.35 8.57233C211.841 9.02033 212.534 9.32966 213.43 9.50033L219.19 10.4923C220.961 10.791 222.315 11.3777 223.254 12.2523C224.214 13.1057 224.694 14.183 224.694 15.4843V17.5643C224.694 19.1857 224.065 20.487 222.806 21.4683C221.569 22.4497 219.915 22.9403 217.846 22.9403H214.166ZM232.861 22.6843C231.112 22.6843 229.842 22.3003 229.053 21.5323C228.285 20.7643 227.901 19.527 227.901 17.8203V9.30833H225.085V6.71633H227.933V1.88433H230.877V6.71633H235.037V9.30833H230.877V17.7563C230.877 18.5883 231.037 19.1857 231.357 19.5483C231.698 19.911 232.242 20.0923 232.989 20.0923H235.037V22.6843H232.861ZM241.67 22.9403C240.112 22.9403 238.854 22.4177 237.894 21.3723C236.955 20.327 236.486 18.951 236.486 17.2443V6.71633H239.462V17.3083C239.462 18.2043 239.686 18.9297 240.134 19.4843C240.582 20.039 241.168 20.3163 241.894 20.3163H243.814C244.71 20.3163 245.531 19.9537 246.278 19.2283C247.024 18.503 247.515 17.5857 247.75 16.4763V6.71633H250.726V22.6843H247.91V20.3803C247.398 21.127 246.758 21.7457 245.99 22.2363C245.222 22.7057 244.464 22.9403 243.718 22.9403H241.67ZM258.425 22.9403C256.675 22.9403 255.257 22.375 254.169 21.2443C253.102 20.1137 252.569 18.6203 252.569 16.7643V12.9883C252.569 11.7083 252.825 10.5777 253.337 9.59633C253.849 8.59366 254.563 7.82566 255.481 7.29233C256.419 6.73766 257.497 6.46033 258.713 6.46033H260.889C261.571 6.46033 262.243 6.62033 262.905 6.94033C263.566 7.26033 264.099 7.68699 264.505 8.22033V0.284325H267.513V22.6843H264.665V20.4123C264.195 21.159 263.577 21.767 262.809 22.2363C262.041 22.7057 261.273 22.9403 260.505 22.9403H258.425ZM260.633 20.3163C261.635 20.3163 262.51 19.911 263.257 19.1003C264.003 18.2683 264.419 17.287 264.505 16.1563V12.5403C264.355 11.495 263.961 10.663 263.321 10.0443C262.702 9.40433 261.955 9.08433 261.081 9.08433H258.937C257.934 9.08433 257.113 9.45766 256.473 10.2043C255.854 10.9297 255.545 11.9003 255.545 13.1163V16.6683C255.545 17.7563 255.833 18.6417 256.409 19.3243C257.006 19.9857 257.753 20.3163 258.649 20.3163H260.633ZM275.59 22.9403C273.713 22.9403 272.198 22.407 271.046 21.3403C269.915 20.2523 269.35 18.8337 269.35 17.0843V12.6683C269.35 10.791 269.915 9.28699 271.046 8.15633C272.198 7.02566 273.713 6.46033 275.59 6.46033H278.214C280.027 6.46033 281.489 7.01499 282.598 8.12433C283.707 9.23366 284.262 10.7057 284.262 12.5403V15.5483H272.326V17.0843C272.326 18.0657 272.625 18.855 273.222 19.4523C273.819 20.0497 274.609 20.3483 275.59 20.3483H278.054C279.014 20.3483 279.793 20.103 280.39 19.6123C280.987 19.1003 281.286 18.4283 281.286 17.5963H284.198C284.198 19.1963 283.633 20.487 282.502 21.4683C281.371 22.4497 279.878 22.9403 278.022 22.9403H275.59ZM281.286 13.1803V12.5403C281.286 11.4737 280.998 10.6203 280.422 9.98033C279.867 9.34033 279.131 9.02033 278.214 9.02033H275.59C274.609 9.02033 273.819 9.36166 273.222 10.0443C272.625 10.7057 272.326 11.591 272.326 12.7003V13.1803H281.286ZM285.928 6.71633H288.776V8.92433C289.245 8.19899 289.864 7.61233 290.632 7.16433C291.421 6.69499 292.2 6.46033 292.968 6.46033H295.08C296.616 6.46033 297.853 6.97233 298.792 7.99633C299.752 9.02033 300.232 10.3643 300.232 12.0283V22.6843H297.256V12.0283C297.256 11.1537 297.032 10.4497 296.584 9.91633C296.136 9.36166 295.549 9.08433 294.824 9.08433H292.84C291.922 9.08433 291.09 9.43633 290.344 10.1403C289.597 10.8443 289.117 11.7617 288.904 12.8923V22.6843H285.928V6.71633ZM309.017 22.6843C307.268 22.6843 305.999 22.3003 305.209 21.5323C304.441 20.7643 304.057 19.527 304.057 17.8203V9.30833H301.241V6.71633H304.089V1.88433H307.033V6.71633H311.193V9.30833H307.033V17.7563C307.033 18.5883 307.193 19.1857 307.513 19.5483C307.855 19.911 308.399 20.0923 309.145 20.0923H311.193V22.6843H309.017ZM317.762 22.9403C316.034 22.9403 314.647 22.471 313.602 21.5323C312.556 20.5723 312.034 19.3137 312.034 17.7563H314.946C314.946 18.5457 315.202 19.1857 315.714 19.6763C316.226 20.167 316.908 20.4123 317.762 20.4123H320.578C321.388 20.4123 322.039 20.263 322.53 19.9643C323.02 19.6443 323.266 19.2283 323.266 18.7163V17.7883C323.266 17.447 323.116 17.1483 322.818 16.8923C322.54 16.615 322.178 16.4337 321.73 16.3483L316.194 15.3883C315.02 15.175 314.082 14.7377 313.378 14.0763C312.674 13.3937 312.322 12.6043 312.322 11.7083V10.6523C312.322 9.39366 312.823 8.38033 313.826 7.61233C314.828 6.84433 316.172 6.46033 317.858 6.46033H320.546C322.146 6.46033 323.426 6.89766 324.386 7.77233C325.367 8.64699 325.858 9.80966 325.858 11.2603H322.946C322.924 10.5777 322.69 10.0337 322.242 9.62833C321.815 9.20166 321.25 8.98833 320.546 8.98833H317.89C317.1 8.98833 316.471 9.14833 316.002 9.46833C315.554 9.78833 315.33 10.215 315.33 10.7483V11.5483C315.33 11.8897 315.479 12.1883 315.778 12.4443C316.076 12.7003 316.46 12.8817 316.93 12.9883L322.53 13.9803C323.639 14.1723 324.535 14.599 325.218 15.2603C325.922 15.9217 326.274 16.6897 326.274 17.5643V18.8123C326.274 20.0497 325.751 21.0523 324.706 21.8203C323.66 22.567 322.284 22.9403 320.578 22.9403H317.762ZM92.4431 42.2843H95.4191V50.7323C95.9098 50.0497 96.5285 49.5057 97.2751 49.1003C98.0218 48.6737 98.7578 48.4603 99.4831 48.4603H101.659C103.195 48.4603 104.432 48.9723 105.371 49.9963C106.331 51.0203 106.811 52.3643 106.811 54.0283V64.6843H103.835V54.0283C103.835 53.1537 103.611 52.4497 103.163 51.9163C102.715 51.3617 102.128 51.0843 101.403 51.0843H99.3551C98.4378 51.0843 97.6058 51.4363 96.8591 52.1403C96.1125 52.823 95.6325 53.719 95.4191 54.8283V64.6843H92.4431V42.2843ZM113.867 64.9403C112.267 64.9403 110.987 64.535 110.027 63.7243C109.067 62.8923 108.587 61.7937 108.587 60.4283V59.3723C108.587 58.0283 109.089 56.951 110.091 56.1403C111.094 55.3083 112.406 54.8923 114.027 54.8923H116.043C116.683 54.8923 117.366 54.9883 118.091 55.1803C118.817 55.3723 119.435 55.639 119.947 55.9803V53.6443C119.947 52.855 119.702 52.2257 119.211 51.7563C118.721 51.2657 118.081 51.0203 117.291 51.0203H114.667C113.857 51.0203 113.206 51.2123 112.715 51.5963C112.225 51.9803 111.979 52.4817 111.979 53.1003H109.035C109.035 51.7137 109.547 50.5937 110.571 49.7403C111.617 48.887 112.982 48.4603 114.667 48.4603H117.291C118.977 48.4603 120.331 48.9403 121.355 49.9003C122.379 50.839 122.891 52.087 122.891 53.6443V64.6843H120.107V62.5403C119.617 63.2657 118.977 63.8523 118.187 64.3003C117.398 64.727 116.598 64.9403 115.787 64.9403H113.867ZM115.947 62.4763C116.886 62.4763 117.718 62.2097 118.443 61.6763C119.169 61.1217 119.67 60.3857 119.947 59.4683V58.5083C119.542 58.1457 118.987 57.8577 118.283 57.6443C117.579 57.431 116.854 57.3243 116.107 57.3243H114.059C113.313 57.3243 112.705 57.5163 112.235 57.9003C111.766 58.2843 111.531 58.7963 111.531 59.4363V60.3963C111.531 61.0363 111.755 61.5483 112.203 61.9323C112.673 62.295 113.291 62.4763 114.059 62.4763H115.947ZM130.828 64.6843C130.316 64.6843 129.879 64.5457 129.516 64.2683C129.175 63.9697 128.887 63.511 128.652 62.8923L123.148 48.7163H126.284L130.828 61.3243H130.892L135.436 48.7163H138.572L132.3 64.6843H130.828ZM144.356 64.9403C142.478 64.9403 140.964 64.407 139.812 63.3403C138.681 62.2523 138.116 60.8337 138.116 59.0843V54.6683C138.116 52.791 138.681 51.287 139.812 50.1563C140.964 49.0257 142.478 48.4603 144.356 48.4603H146.98C148.793 48.4603 150.254 49.015 151.364 50.1243C152.473 51.2337 153.028 52.7057 153.028 54.5403V57.5483H141.092V59.0843C141.092 60.0657 141.39 60.855 141.988 61.4523C142.585 62.0497 143.374 62.3483 144.356 62.3483H146.82C147.78 62.3483 148.558 62.103 149.156 61.6123C149.753 61.1003 150.052 60.4283 150.052 59.5963H152.964C152.964 61.1963 152.398 62.487 151.268 63.4683C150.137 64.4497 148.644 64.9403 146.788 64.9403H144.356ZM150.052 55.1803V54.5403C150.052 53.4737 149.764 52.6203 149.188 51.9803C148.633 51.3403 147.897 51.0203 146.98 51.0203H144.356C143.374 51.0203 142.585 51.3617 141.988 52.0443C141.39 52.7057 141.092 53.591 141.092 54.7003V55.1803H150.052ZM167.783 64.6843C166.034 64.6843 164.764 64.3003 163.975 63.5323C163.207 62.7643 162.823 61.527 162.823 59.8203V51.3083H160.007V48.7163H162.855V43.8843H165.799V48.7163H169.959V51.3083H165.799V59.7563C165.799 60.5883 165.959 61.1857 166.279 61.5483C166.62 61.911 167.164 62.0923 167.911 62.0923H169.959V64.6843H167.783ZM176.887 64.9403C175.01 64.9403 173.495 64.375 172.343 63.2443C171.212 62.1137 170.647 60.631 170.647 58.7963V54.6363C170.647 52.7803 171.223 51.287 172.375 50.1563C173.527 49.0257 175.052 48.4603 176.951 48.4603H179.639C181.538 48.4603 183.063 49.0257 184.215 50.1563C185.367 51.287 185.943 52.7803 185.943 54.6363V58.7963C185.943 60.631 185.356 62.1137 184.183 63.2443C183.031 64.375 181.506 64.9403 179.607 64.9403H176.887ZM179.575 62.3163C180.599 62.3163 181.42 61.9857 182.039 61.3243C182.658 60.663 182.967 59.7777 182.967 58.6683V54.7323C182.967 53.623 182.658 52.7377 182.039 52.0763C181.442 51.415 180.642 51.0843 179.639 51.0843H176.951C175.948 51.0843 175.138 51.415 174.519 52.0763C173.922 52.7377 173.623 53.623 173.623 54.7323V58.6683C173.623 59.7777 173.922 60.663 174.519 61.3243C175.116 61.9857 175.916 62.3163 176.919 62.3163H179.575ZM199.309 64.9403C197.581 64.9403 196.194 64.471 195.149 63.5323C194.103 62.5723 193.581 61.3137 193.581 59.7563H196.493C196.493 60.5457 196.749 61.1857 197.261 61.6763C197.773 62.167 198.455 62.4123 199.309 62.4123H202.125C202.935 62.4123 203.586 62.263 204.077 61.9643C204.567 61.6443 204.813 61.2283 204.813 60.7163V59.7883C204.813 59.447 204.663 59.1483 204.365 58.8923C204.087 58.615 203.725 58.4337 203.277 58.3483L197.741 57.3883C196.567 57.175 195.629 56.7377 194.925 56.0763C194.221 55.3937 193.869 54.6043 193.869 53.7083V52.6523C193.869 51.3937 194.37 50.3803 195.373 49.6123C196.375 48.8443 197.719 48.4603 199.405 48.4603H202.093C203.693 48.4603 204.973 48.8977 205.933 49.7723C206.914 50.647 207.405 51.8097 207.405 53.2603H204.493C204.471 52.5777 204.237 52.0337 203.789 51.6283C203.362 51.2017 202.797 50.9883 202.093 50.9883H199.437C198.647 50.9883 198.018 51.1483 197.549 51.4683C197.101 51.7883 196.877 52.215 196.877 52.7483V53.5483C196.877 53.8897 197.026 54.1883 197.325 54.4443C197.623 54.7003 198.007 54.8817 198.477 54.9883L204.077 55.9803C205.186 56.1723 206.082 56.599 206.765 57.2603C207.469 57.9217 207.821 58.6897 207.821 59.5643V60.8123C207.821 62.0497 207.298 63.0523 206.253 63.8203C205.207 64.567 203.831 64.9403 202.125 64.9403H199.309ZM214.117 64.9403C212.517 64.9403 211.237 64.535 210.277 63.7243C209.317 62.8923 208.837 61.7937 208.837 60.4283V59.3723C208.837 58.0283 209.339 56.951 210.341 56.1403C211.344 55.3083 212.656 54.8923 214.277 54.8923H216.293C216.933 54.8923 217.616 54.9883 218.341 55.1803C219.067 55.3723 219.685 55.639 220.197 55.9803V53.6443C220.197 52.855 219.952 52.2257 219.461 51.7563C218.971 51.2657 218.331 51.0203 217.541 51.0203H214.917C214.107 51.0203 213.456 51.2123 212.965 51.5963C212.475 51.9803 212.229 52.4817 212.229 53.1003H209.285C209.285 51.7137 209.797 50.5937 210.821 49.7403C211.867 48.887 213.232 48.4603 214.917 48.4603H217.541C219.227 48.4603 220.581 48.9403 221.605 49.9003C222.629 50.839 223.141 52.087 223.141 53.6443V64.6843H220.357V62.5403C219.867 63.2657 219.227 63.8523 218.437 64.3003C217.648 64.727 216.848 64.9403 216.037 64.9403H214.117ZM216.197 62.4763C217.136 62.4763 217.968 62.2097 218.693 61.6763C219.419 61.1217 219.92 60.3857 220.197 59.4683V58.5083C219.792 58.1457 219.237 57.8577 218.533 57.6443C217.829 57.431 217.104 57.3243 216.357 57.3243H214.309C213.563 57.3243 212.955 57.5163 212.485 57.9003C212.016 58.2843 211.781 58.7963 211.781 59.4363V60.3963C211.781 61.0363 212.005 61.5483 212.453 61.9323C212.923 62.295 213.541 62.4763 214.309 62.4763H216.197ZM230.947 71.1803C229.432 71.1803 228.174 70.7643 227.171 69.9323C226.19 69.1003 225.646 68.0123 225.539 66.6683H228.515C228.579 67.2443 228.835 67.7137 229.283 68.0763C229.731 68.439 230.286 68.6203 230.947 68.6203H233.475C234.435 68.6203 235.182 68.279 235.715 67.5963C236.27 66.935 236.547 66.0177 236.547 64.8443V62.1883C236.056 62.935 235.448 63.5323 234.723 63.9803C233.998 64.4283 233.272 64.6523 232.547 64.6523H230.467C228.91 64.6523 227.651 64.1297 226.691 63.0843C225.731 62.039 225.251 60.663 225.251 58.9563V48.7163H228.227V59.0203C228.227 59.9163 228.451 60.6417 228.899 61.1963C229.368 61.751 229.966 62.0283 230.691 62.0283H232.643C233.539 62.0283 234.35 61.6657 235.075 60.9403C235.822 60.215 236.312 59.2977 236.547 58.1883V48.7163H239.555V64.8443C239.555 66.807 239.011 68.3537 237.923 69.4843C236.835 70.615 235.352 71.1803 233.475 71.1803H230.947Z" fill="#333333"/>
</svg>
