<svg width="118" height="42" viewBox="0 0 118 42" fill="none" xmlns="http://www.w3.org/2000/svg">
<rect x="3.10742" y="0.169922" width="138.513" height="29" rx="14.5" transform="rotate(5 3.10742 0.169922)" fill="#E9295D"/>
<rect x="3.56194" y="0.711597" width="137.513" height="28" rx="14" transform="rotate(5 3.56194 0.711597)" stroke="black" stroke-opacity="0.05"/>
<path d="M16.4663 20.4111C16.3867 20.4042 16.3214 20.3704 16.2704 20.3097C16.2195 20.249 16.1976 20.1788 16.2045 20.0991L16.7829 13.4884L14.5714 13.2949C14.4917 13.2879 14.4264 13.2541 14.3755 13.1934C14.3245 13.1328 14.3026 13.0626 14.3096 12.9829L14.3869 12.0983C14.3946 12.0106 14.4288 11.9413 14.4895 11.8904C14.5501 11.8395 14.6203 11.8175 14.7 11.8245L20.7967 12.3579C20.8844 12.3656 20.9537 12.3998 21.0046 12.4604C21.0555 12.5211 21.0771 12.5953 21.0694 12.6829L20.992 13.5675C20.9851 13.6472 20.9512 13.7125 20.8906 13.7634C20.8299 13.8144 20.7557 13.836 20.6681 13.8283L18.4685 13.6359L17.8901 20.2466C17.8831 20.3263 17.8493 20.3916 17.7886 20.4425C17.728 20.4934 17.6538 20.515 17.5661 20.5074L16.4663 20.4111ZM20.9261 20.8013C20.8464 20.7943 20.7811 20.7605 20.7302 20.6999C20.6793 20.6392 20.6573 20.569 20.6643 20.4893L21.1569 14.8588C21.1645 14.7712 21.1987 14.7019 21.2594 14.651C21.32 14.6001 21.3902 14.5781 21.4699 14.5851L22.4382 14.6698C22.5179 14.6768 22.5832 14.7106 22.6341 14.7712C22.693 14.8326 22.7186 14.9071 22.7109 14.9948L22.668 15.4849C22.8737 15.2459 23.1258 15.0712 23.4246 14.9609C23.7313 14.8512 24.076 14.8131 24.4585 14.8465L24.9486 14.8894C25.0363 14.8971 25.1016 14.9309 25.1445 14.9909C25.1954 15.0515 25.2174 15.1217 25.2104 15.2014L25.1351 16.0621C25.1282 16.1418 25.0943 16.2071 25.0337 16.258C24.981 16.3096 24.9108 16.3316 24.8231 16.3239L23.8907 16.2424C23.5081 16.2089 23.1999 16.2903 22.9659 16.4867C22.7398 16.6837 22.6104 16.9695 22.5777 17.3441L22.29 20.6316C22.2831 20.7112 22.2493 20.7765 22.1886 20.8275C22.1279 20.8784 22.0538 20.9 21.9661 20.8923L20.9261 20.8013ZM27.3253 21.4816C26.9109 21.4454 26.5433 21.3329 26.2225 21.1442C25.9024 20.9476 25.6546 20.7051 25.4791 20.4167C25.3122 20.121 25.2438 19.8018 25.2737 19.4591C25.3226 18.9013 25.5844 18.4785 26.0593 18.1908C26.5428 17.8958 27.1601 17.7249 27.911 17.6782L29.5697 17.5824L29.5916 17.3314C29.6209 16.9966 29.5599 16.7303 29.4086 16.5324C29.2572 16.3344 28.9784 16.2177 28.5719 16.1821C28.285 16.157 28.0447 16.1962 27.8509 16.2997C27.6658 16.396 27.5211 16.5359 27.4167 16.7195C27.3439 16.8175 27.2477 16.8613 27.1281 16.8508L26.1837 16.7682C26.0961 16.7605 26.0304 16.7307 25.9868 16.6787C25.9511 16.6274 25.9368 16.5619 25.9437 16.4822C25.9629 16.3554 26.0283 16.2045 26.1399 16.0296C26.2516 15.8546 26.4184 15.6926 26.6402 15.5433C26.8628 15.3861 27.1427 15.2621 27.4799 15.1711C27.8171 15.0801 28.2168 15.0549 28.679 15.0953C29.1811 15.1392 29.5979 15.24 29.9295 15.3975C30.2697 15.5477 30.5343 15.7355 30.7234 15.9608C30.9125 16.1861 31.0426 16.4424 31.1138 16.7297C31.1851 17.0171 31.2071 17.3161 31.1799 17.6269L30.8515 21.3806C30.8445 21.4603 30.8107 21.5256 30.75 21.5765C30.6894 21.6274 30.6192 21.6494 30.5395 21.6424L29.5712 21.5577C29.4835 21.55 29.4142 21.5158 29.3633 21.4552C29.3204 21.3952 29.3024 21.3254 29.3094 21.2457L29.3502 20.7794C29.2333 20.9218 29.0813 21.0531 28.8941 21.1732C28.7076 21.2854 28.4831 21.3741 28.2204 21.4395C27.9663 21.4976 27.668 21.5116 27.3253 21.4816ZM27.8311 20.3815C28.11 20.4059 28.3663 20.3681 28.5999 20.2681C28.8415 20.1688 29.0368 20.0012 29.1859 19.7653C29.3437 19.5221 29.4394 19.2092 29.4728 18.8267L29.4948 18.5757L28.2826 18.6623C27.8062 18.6929 27.4454 18.7778 27.2003 18.917C26.9553 19.0562 26.8226 19.2413 26.8024 19.4724C26.7871 19.6477 26.8256 19.8037 26.9181 19.9403C27.0192 20.0696 27.1506 20.1734 27.3124 20.2518C27.4749 20.3223 27.6478 20.3655 27.8311 20.3815ZM32.6469 21.8268C32.5672 21.8198 32.5019 21.786 32.451 21.7253C32.4001 21.6646 32.3781 21.5945 32.3851 21.5148L32.8788 15.8723C32.8857 15.7926 32.9196 15.7273 32.9802 15.6764C33.0409 15.6255 33.1111 15.6035 33.1908 15.6105L34.171 15.6963C34.2507 15.7032 34.316 15.7371 34.3669 15.7977C34.4178 15.8584 34.4398 15.9286 34.4328 16.0083L34.3899 16.4984C34.6195 16.2615 34.9009 16.0733 35.2344 15.9338C35.5765 15.7871 35.9866 15.7347 36.4648 15.7765C36.9509 15.819 37.3635 15.9675 37.7026 16.2221C38.0424 16.4686 38.2905 16.7995 38.447 17.2147C38.6113 17.6306 38.6691 18.1175 38.6203 18.6754L38.3264 22.0346C38.3194 22.1142 38.2856 22.1796 38.225 22.2305C38.1643 22.2814 38.0941 22.3033 38.0144 22.2964L36.9624 22.2043C36.8827 22.1973 36.8174 22.1635 36.7665 22.1029C36.7156 22.0422 36.6937 21.972 36.7006 21.8923L36.9882 18.6049C37.0287 18.1426 36.9449 17.7699 36.7367 17.4867C36.5366 17.2042 36.2214 17.0441 35.791 17.0064C35.3766 16.9702 35.0343 17.0727 34.7643 17.3141C34.4942 17.5555 34.339 17.9073 34.2985 18.3696L34.0109 21.657C34.0039 21.7367 33.9701 21.802 33.9094 21.8529C33.8488 21.9038 33.7786 21.9258 33.6989 21.9188L32.6469 21.8268ZM42.1643 22.7799C41.6862 22.7381 41.2806 22.6464 40.9477 22.5048C40.6227 22.3639 40.36 22.2004 40.1594 22.0142C39.9589 21.828 39.8142 21.6467 39.7252 21.4703C39.6362 21.2939 39.5927 21.1495 39.5944 21.0373C39.5941 20.9489 39.624 20.8833 39.684 20.8403C39.7526 20.7901 39.8228 20.7682 39.8945 20.7744L40.8389 20.857C40.8708 20.8598 40.8983 20.8663 40.9215 20.8763C40.9447 20.8864 40.9745 20.9131 41.0109 20.9564C41.1068 21.0531 41.2064 21.1542 41.3096 21.2596C41.4208 21.3657 41.5529 21.4616 41.706 21.5473C41.8598 21.625 42.0563 21.6743 42.2954 21.6952C42.6062 21.7224 42.8704 21.6853 43.0881 21.5838C43.3144 21.4752 43.4377 21.3053 43.4579 21.0741C43.4726 20.9068 43.4366 20.7671 43.35 20.6551C43.2714 20.5439 43.1121 20.4376 42.872 20.3363C42.6326 20.227 42.29 20.1047 41.8441 19.9693C41.4069 19.8266 41.0478 19.6627 40.7668 19.4775C40.4859 19.2923 40.2842 19.0739 40.1617 18.8223C40.0391 18.5706 39.9918 18.2854 40.0197 17.9667C40.0469 17.6558 40.1643 17.369 40.372 17.1061C40.5884 16.8359 40.8879 16.6252 41.2705 16.474C41.6611 16.3235 42.1314 16.2723 42.6813 16.3204C43.1117 16.358 43.4813 16.4466 43.7904 16.586C44.1001 16.7175 44.3516 16.872 44.5448 17.0496C44.7461 17.2278 44.8952 17.4054 44.9921 17.5826C45.0897 17.7517 45.1373 17.8964 45.1348 18.0167C45.1351 18.105 45.1049 18.1746 45.0442 18.2256C44.9843 18.2685 44.9184 18.2868 44.8467 18.2805L43.9621 18.2032C43.9222 18.1997 43.8871 18.1886 43.8566 18.1698C43.8261 18.1511 43.796 18.1284 43.7662 18.1017C43.6855 18.0143 43.5972 17.9223 43.5012 17.8256C43.4053 17.7288 43.2844 17.642 43.1386 17.565C43.0014 17.4807 42.8133 17.4281 42.5742 17.4072C42.2713 17.3807 42.0343 17.4282 41.863 17.5497C41.6925 17.6633 41.5985 17.8197 41.5811 18.0189C41.5692 18.1544 41.5946 18.2771 41.6573 18.387C41.7286 18.4896 41.876 18.5948 42.0994 18.7027C42.3229 18.8106 42.6655 18.9329 43.1274 19.0697C43.653 19.2121 44.0628 19.3925 44.3569 19.6109C44.6596 19.8221 44.864 20.0568 44.9698 20.315C45.0844 20.566 45.1288 20.8389 45.103 21.1337C45.0716 21.4924 44.9358 21.8057 44.6955 22.0738C44.4632 22.3426 44.1325 22.5425 43.7035 22.6736C43.2831 22.7975 42.77 22.8329 42.1643 22.7799ZM47.1152 23.0926C47.0355 23.0856 46.9702 23.0518 46.9193 22.9911C46.8684 22.9304 46.8464 22.8603 46.8534 22.7806L47.2613 18.1184L46.293 18.0337C46.2133 18.0267 46.148 17.9929 46.0971 17.9322C46.0462 17.8715 46.0242 17.8014 46.0312 17.7217L46.0919 17.0283C46.0988 16.9486 46.1326 16.8833 46.1933 16.8324C46.254 16.7815 46.3242 16.7595 46.4039 16.7665L47.3722 16.8512L47.415 16.3611C47.4569 15.8829 47.5791 15.4961 47.7816 15.2006C47.9848 14.8972 48.2647 14.6807 48.6214 14.5513C48.978 14.4219 49.4193 14.3802 49.9453 14.4263L50.7582 14.4974C50.8459 14.505 50.9112 14.5389 50.9541 14.5988C51.005 14.6595 51.027 14.7297 51.02 14.8094L50.9593 15.5027C50.9524 15.5824 50.9185 15.6477 50.8579 15.6986C50.8052 15.7502 50.735 15.7722 50.6473 15.7645L49.8823 15.6976C49.5635 15.6697 49.3373 15.7302 49.2039 15.8792C49.0704 16.0281 48.9904 16.254 48.9639 16.5568L48.9262 16.9872L50.4086 17.1169C50.4962 17.1245 50.5615 17.1584 50.6045 17.2183C50.6554 17.279 50.6773 17.3492 50.6704 17.4289L50.6097 18.1222C50.6027 18.2019 50.5689 18.2672 50.5082 18.3181C50.4555 18.3697 50.3854 18.3917 50.2977 18.384L48.8154 18.2543L48.4075 22.9165C48.4005 22.9962 48.3667 23.0615 48.306 23.1124C48.2453 23.1633 48.1752 23.1853 48.0955 23.1783L47.1152 23.0926ZM53.7544 23.7939C53.1168 23.7381 52.5886 23.5795 52.1698 23.318C51.759 23.0572 51.4558 22.7134 51.2602 22.2868C51.0726 21.8608 50.9866 21.3755 51.0021 20.8307C51.0067 20.6866 51.0181 20.5109 51.0362 20.3037C51.0543 20.0965 51.0737 19.9215 51.0942 19.7788C51.1742 19.2316 51.3471 18.769 51.6131 18.3907C51.8878 18.0052 52.25 17.7197 52.6999 17.5342C53.1578 17.3494 53.6975 17.2842 54.3191 17.3385C54.9408 17.3929 55.457 17.5505 55.8678 17.8113C56.2866 18.0728 56.5938 18.4169 56.7894 18.8436C56.9936 19.263 57.0876 19.749 57.0713 20.3017C57.0668 20.4458 57.0554 20.6215 57.0373 20.8287C57.0192 21.0359 56.9998 21.2109 56.9793 21.3537C56.9 21.8928 56.727 22.3555 56.4604 22.7417C56.2016 23.1286 55.8434 23.4145 55.3855 23.5993C54.9356 23.7848 54.3919 23.8497 53.7544 23.7939ZM53.8579 22.6104C54.2803 22.6474 54.6185 22.5444 54.8727 22.3017C55.1275 22.0509 55.2895 21.6676 55.3587 21.1517C55.3772 21.0328 55.3948 20.8778 55.4115 20.6865C55.4282 20.4952 55.4378 20.3395 55.4403 20.2192C55.461 19.7071 55.3677 19.3054 55.1603 19.0142C54.9529 18.723 54.638 18.559 54.2156 18.522C53.7932 18.4851 53.4546 18.592 53.1998 18.8427C52.9449 19.0935 52.7833 19.4728 52.7147 19.9808C52.6963 20.0996 52.6787 20.2547 52.662 20.4459C52.6453 20.6372 52.6356 20.793 52.6332 20.9132C52.6117 21.4333 52.7047 21.839 52.9122 22.1301C53.1203 22.4134 53.4355 22.5734 53.8579 22.6104ZM58.3768 24.0778C58.2971 24.0709 58.2318 24.037 58.1809 23.9764C58.13 23.9157 58.108 23.8455 58.115 23.7658L58.6076 18.1353C58.6152 18.0477 58.6494 17.9784 58.7101 17.9275C58.7707 17.8766 58.8409 17.8546 58.9206 17.8616L59.8889 17.9463C59.9686 17.9533 60.0339 17.9871 60.0848 18.0478C60.1437 18.1091 60.1693 18.1836 60.1616 18.2713L60.1187 18.7614C60.3244 18.5224 60.5765 18.3477 60.8753 18.2374C61.182 18.1277 61.5267 18.0896 61.9092 18.123L62.3993 18.1659C62.487 18.1736 62.5523 18.2074 62.5952 18.2674C62.6461 18.3281 62.6681 18.3982 62.6611 18.4779L62.5858 19.3386C62.5789 19.4183 62.545 19.4836 62.4844 19.5345C62.4317 19.5861 62.3615 19.6081 62.2738 19.6004L61.3414 19.5189C60.9588 19.4854 60.6506 19.5668 60.4166 19.7632C60.1905 19.9602 60.0611 20.2461 60.0284 20.6206L59.7407 23.9081C59.7338 23.9878 59.7 24.0531 59.6393 24.104C59.5786 24.1549 59.5045 24.1765 59.4168 24.1688L58.3768 24.0778ZM63.3616 24.514C63.2819 24.507 63.2166 24.4732 63.1657 24.4125C63.1148 24.3518 63.0929 24.2816 63.0998 24.2019L63.5935 18.5595C63.6004 18.4798 63.6343 18.4145 63.6949 18.3636C63.7556 18.3127 63.8258 18.2907 63.9055 18.2977L64.8379 18.3793C64.9176 18.3862 64.9829 18.4201 65.0338 18.4807C65.0847 18.5414 65.1067 18.6116 65.0997 18.6913L65.0642 19.0977C65.251 18.8892 65.4906 18.7215 65.7828 18.5944C66.0836 18.4601 66.4296 18.4061 66.8208 18.4323C67.7308 18.4958 68.3333 18.9059 68.6285 19.6625C68.8397 19.3598 69.125 19.1278 69.4844 18.9665C69.8525 18.7979 70.2478 18.7321 70.6701 18.7691C71.0846 18.8053 71.4508 18.9337 71.7687 19.1543C72.0947 19.3755 72.3362 19.6898 72.4933 20.097C72.6591 20.497 72.7162 20.9919 72.6646 21.5816L72.3644 25.0125C72.3575 25.0922 72.3236 25.1575 72.263 25.2084C72.2023 25.2593 72.1321 25.2813 72.0524 25.2743L71.0722 25.1885C70.9925 25.1816 70.9272 25.1477 70.8763 25.0871C70.8254 25.0264 70.8034 24.9562 70.8104 24.8765L71.1022 21.5413C71.1335 21.1826 71.1065 20.8952 71.021 20.6789C70.9362 20.4547 70.81 20.2911 70.6424 20.188C70.4747 20.085 70.2833 20.0241 70.0681 20.0053C69.8928 19.99 69.7136 20.0185 69.5306 20.0908C69.3476 20.1631 69.1909 20.302 69.0605 20.5074C68.9308 20.7048 68.8503 20.9829 68.8189 21.3415L68.5271 24.6768C68.5201 24.7565 68.4863 24.8218 68.4256 24.8727C68.365 24.9236 68.2948 24.9455 68.2151 24.9386L67.2348 24.8528C67.1472 24.8451 67.0779 24.811 67.027 24.7503C66.984 24.6903 66.9661 24.6205 66.973 24.5408L67.2648 21.2055C67.2962 20.8469 67.2652 20.5591 67.1717 20.3421C67.079 20.1172 66.9488 19.9532 66.7811 19.8502C66.6134 19.7472 66.43 19.687 66.2308 19.6696C66.0475 19.6535 65.864 19.6857 65.6803 19.766C65.4973 19.8383 65.3409 19.9732 65.2112 20.1706C65.0815 20.3681 65.001 20.6461 64.9696 21.0047L64.6778 24.34C64.6708 24.4197 64.637 24.485 64.5763 24.5359C64.5157 24.5868 64.4455 24.6088 64.3658 24.6018L63.3616 24.514ZM75.6563 25.7101C75.2419 25.6738 74.8743 25.5613 74.5535 25.3727C74.2334 25.176 73.9856 24.9335 73.8101 24.6451C73.6432 24.3494 73.5748 24.0302 73.6048 23.6876C73.6536 23.1297 73.9154 22.7069 74.3903 22.4192C74.8738 22.1242 75.4911 21.9534 76.242 21.9066L77.9007 21.8108L77.9226 21.5598C77.9519 21.2251 77.8909 20.9587 77.7396 20.7608C77.5883 20.5628 77.3094 20.4461 76.9029 20.4105C76.616 20.3854 76.3757 20.4246 76.1819 20.5281C75.9968 20.6244 75.8521 20.7643 75.7477 20.9479C75.6749 21.0459 75.5787 21.0897 75.4591 21.0792L74.5147 20.9966C74.4271 20.989 74.3614 20.9591 74.3178 20.9071C74.2821 20.8558 74.2678 20.7903 74.2748 20.7106C74.2939 20.5838 74.3593 20.4329 74.471 20.258C74.5826 20.0831 74.7494 19.921 74.9712 19.7717C75.1938 19.6145 75.4737 19.4905 75.8109 19.3995C76.1481 19.3086 76.5478 19.2833 77.01 19.3237C77.5121 19.3677 77.9289 19.4684 78.2605 19.6259C78.6007 19.7761 78.8653 19.9639 79.0544 20.1892C79.2435 20.4145 79.3736 20.6709 79.4449 20.9582C79.5161 21.2455 79.5381 21.5445 79.5109 21.8553L79.1825 25.609C79.1755 25.6887 79.1417 25.754 79.0811 25.8049C79.0204 25.8558 78.9502 25.8778 78.8705 25.8708L77.9022 25.7861C77.8145 25.7784 77.7453 25.7442 77.6944 25.6836C77.6514 25.6236 77.6334 25.5538 77.6404 25.4741L77.6812 25.0079C77.5643 25.1502 77.4123 25.2815 77.2251 25.4016C77.0387 25.5138 76.8141 25.6026 76.5514 25.6679C76.2973 25.726 75.999 25.74 75.6563 25.7101ZM76.1621 24.61C76.441 24.6344 76.6973 24.5965 76.9309 24.4965C77.1725 24.3972 77.3678 24.2296 77.517 23.9937C77.6748 23.7505 77.7704 23.4377 77.8039 23.0551L77.8258 22.8041L76.6137 22.8908C76.1372 22.9214 75.7764 23.0062 75.5313 23.1454C75.2863 23.2846 75.1536 23.4697 75.1334 23.7008C75.1181 23.8762 75.1566 24.0321 75.2491 24.1687C75.3502 24.298 75.4816 24.4019 75.6434 24.4803C75.8059 24.5507 75.9788 24.5939 76.1621 24.61ZM83.4419 26.2707C82.9638 26.2289 82.5686 26.11 82.2565 25.9141C81.9444 25.7181 81.7229 25.4498 81.5921 25.1091C81.462 24.7604 81.4186 24.3391 81.4618 23.8449L81.6992 21.1313L80.7548 21.0487C80.6751 21.0417 80.6098 21.0079 80.5589 20.9472C80.508 20.8866 80.4861 20.8164 80.493 20.7367L80.5537 20.0433C80.5607 19.9636 80.5945 19.8983 80.6551 19.8474C80.7158 19.7965 80.786 19.7745 80.8657 19.7815L81.8101 19.8641L81.9837 17.8797C81.9907 17.8 82.0205 17.7344 82.0732 17.6828C82.1339 17.6319 82.208 17.6103 82.2957 17.6179L83.264 17.7026C83.3437 17.7096 83.409 17.7434 83.4599 17.8041C83.5108 17.8648 83.5328 17.9349 83.5258 18.0146L83.3522 19.9991L84.8465 20.1298C84.9262 20.1368 84.9915 20.1706 85.0424 20.2313C85.0933 20.2919 85.1153 20.3621 85.1083 20.4418L85.0476 21.1352C85.0407 21.2148 85.0068 21.2801 84.9462 21.3311C84.8855 21.382 84.8153 21.4039 84.7356 21.397L83.2413 21.2662L83.0144 23.8603C82.9858 24.1871 83.0193 24.447 83.1148 24.64C83.2183 24.8338 83.4135 24.9432 83.7004 24.9683L84.5253 25.0405C84.605 25.0475 84.6703 25.0813 84.7212 25.1419C84.7721 25.2026 84.794 25.2728 84.7871 25.3525L84.7222 26.0937C84.7153 26.1734 84.6814 26.2387 84.6208 26.2896C84.5601 26.3405 84.4899 26.3624 84.4102 26.3555L83.4419 26.2707ZM86.0445 26.4984C85.9648 26.4915 85.8995 26.4577 85.8486 26.397C85.7977 26.3363 85.7757 26.2661 85.7827 26.1864L86.2764 20.544C86.2833 20.4643 86.3172 20.399 86.3778 20.3481C86.4385 20.2972 86.5087 20.2752 86.5884 20.2822L87.5806 20.369C87.6682 20.3767 87.7335 20.4105 87.7765 20.4705C87.8274 20.5311 87.8494 20.6013 87.8424 20.681L87.3487 26.3234C87.3418 26.4031 87.3079 26.4684 87.2473 26.5194C87.1946 26.571 87.1244 26.5929 87.0367 26.5853L86.0445 26.4984ZM86.6305 19.2499C86.5428 19.2423 86.4732 19.2121 86.4216 19.1594C86.3787 19.0994 86.361 19.0256 86.3687 18.9379L86.444 18.0772C86.451 17.9975 86.4808 17.9319 86.5335 17.8803C86.5942 17.8294 86.6683 17.8077 86.756 17.8154L87.8438 17.9106C87.9315 17.9183 88.0008 17.9524 88.0517 18.0131C88.1026 18.0738 88.1246 18.1439 88.1176 18.2236L88.0423 19.0844C88.0346 19.172 88.0005 19.2413 87.9398 19.2922C87.8798 19.3351 87.806 19.3528 87.7183 19.3451L86.6305 19.2499ZM91.6487 27.1092C91.0111 27.0534 90.4829 26.8948 90.0641 26.6333C89.6533 26.3725 89.3501 26.0288 89.1545 25.6021C88.9669 25.1761 88.8809 24.6908 88.8965 24.1461C88.901 24.0019 88.9124 23.8262 88.9305 23.619C88.9486 23.4118 88.968 23.2368 88.9885 23.0941C89.0685 22.547 89.2415 22.0843 89.5074 21.706C89.7821 21.3205 90.1444 21.035 90.5942 20.8495C91.0521 20.6647 91.5918 20.5995 92.2134 20.6539C92.8351 20.7082 93.3513 20.8658 93.7621 21.1266C94.1809 21.3881 94.4881 21.7322 94.6837 22.1589C94.8879 22.5783 94.9819 23.0643 94.9657 23.617C94.9611 23.7612 94.9497 23.9368 94.9316 24.144C94.9135 24.3513 94.8941 24.5262 94.8736 24.669C94.7943 25.2081 94.6213 25.6708 94.3547 26.057C94.096 26.444 93.7377 26.7298 93.2798 26.9146C92.83 27.1001 92.2862 27.165 91.6487 27.1092ZM91.7522 25.9257C92.1746 25.9627 92.5129 25.8598 92.767 25.617C93.0218 25.3662 93.1838 24.9829 93.2531 24.467C93.2715 24.3481 93.2891 24.1931 93.3058 24.0018C93.3225 23.8105 93.3322 23.6548 93.3346 23.5345C93.3554 23.0224 93.262 22.6207 93.0546 22.3296C92.8472 22.0384 92.5323 21.8743 92.1099 21.8373C91.6875 21.8004 91.3489 21.9073 91.0941 22.158C90.8393 22.4088 90.6776 22.7881 90.6091 23.2961C90.5906 23.4149 90.573 23.57 90.5563 23.7613C90.5396 23.9525 90.53 24.1083 90.5275 24.2285C90.5061 24.7486 90.5991 25.1543 90.8065 25.4455C91.0146 25.7287 91.3298 25.8888 91.7522 25.9257ZM96.2711 27.3932C96.1914 27.3862 96.1261 27.3524 96.0752 27.2917C96.0243 27.231 96.0023 27.1608 96.0093 27.0811L96.5029 21.4387C96.5099 21.359 96.5437 21.2937 96.6044 21.2428C96.6651 21.1919 96.7352 21.1699 96.8149 21.1769L97.7952 21.2627C97.8749 21.2696 97.9402 21.3035 97.9911 21.3641C98.042 21.4248 98.064 21.495 98.057 21.5747L98.0141 22.0648C98.2436 21.8279 98.5251 21.6397 98.8585 21.5002C99.2006 21.3535 99.6107 21.301 100.089 21.3429C100.575 21.3854 100.988 21.5339 101.327 21.7885C101.667 22.035 101.915 22.3659 102.071 22.7811C102.235 23.197 102.293 23.6839 102.244 24.2418L101.951 27.6009C101.944 27.6806 101.91 27.7459 101.849 27.7968C101.788 27.8478 101.718 27.8697 101.639 27.8627L100.587 27.7707C100.507 27.7637 100.442 27.7299 100.391 27.6693C100.34 27.6086 100.318 27.5384 100.325 27.4587L100.612 24.1713C100.653 23.709 100.569 23.3363 100.361 23.0531C100.161 22.7706 99.8455 22.6105 99.4152 22.5728C99.0007 22.5366 98.6585 22.6391 98.3884 22.8805C98.1184 23.1219 97.9631 23.4737 97.9227 23.9359L97.6351 27.2234C97.6281 27.3031 97.5943 27.3684 97.5336 27.4193C97.4729 27.4702 97.4028 27.4922 97.3231 27.4852L96.2711 27.3932Z" fill="white"/>
</svg>
