<svg width="124" height="38" viewBox="0 0 124 38" fill="none" xmlns="http://www.w3.org/2000/svg">
<path d="M1.54 14.9902C1.43733 14.9902 1.358 14.9622 1.302 14.9062C1.246 14.8409 1.218 14.7616 1.218 14.6682V5.52623C1.218 5.42357 1.246 5.34423 1.302 5.28823C1.358 5.2229 1.43733 5.19023 1.54 5.19023H4.956C6.01067 5.19023 6.846 5.43757 7.462 5.93223C8.078 6.4269 8.386 7.15957 8.386 8.13023C8.386 8.8489 8.204 9.4369 7.84 9.89423C7.48533 10.3422 7 10.6549 6.384 10.8322L8.54 14.5562C8.568 14.6122 8.582 14.6636 8.582 14.7102C8.582 14.7849 8.54933 14.8502 8.484 14.9062C8.428 14.9622 8.36267 14.9902 8.288 14.9902H7.616C7.45733 14.9902 7.34067 14.9482 7.266 14.8642C7.19133 14.7802 7.126 14.6962 7.07 14.6122L5.04 11.0562H2.59V14.6682C2.59 14.7616 2.55733 14.8409 2.492 14.9062C2.436 14.9622 2.35667 14.9902 2.254 14.9902H1.54ZM2.59 9.86623H4.9C5.6 9.86623 6.12267 9.72157 6.468 9.43223C6.81333 9.13357 6.986 8.6949 6.986 8.11623C6.986 7.5469 6.81333 7.1129 6.468 6.81423C6.132 6.51557 5.60933 6.36623 4.9 6.36623H2.59V9.86623ZM10.5318 14.9902C10.4385 14.9902 10.3592 14.9622 10.2938 14.9062C10.2378 14.8409 10.2098 14.7616 10.2098 14.6682V8.03223C10.2098 7.9389 10.2378 7.86423 10.2938 7.80823C10.3592 7.7429 10.4385 7.71023 10.5318 7.71023H11.2038C11.2972 7.71023 11.3718 7.7429 11.4278 7.80823C11.4838 7.86423 11.5118 7.9389 11.5118 8.03223V14.6682C11.5118 14.7616 11.4838 14.8409 11.4278 14.9062C11.3718 14.9622 11.2972 14.9902 11.2038 14.9902H10.5318ZM10.4198 6.35223C10.3265 6.35223 10.2472 6.32423 10.1818 6.26823C10.1258 6.2029 10.0978 6.12357 10.0978 6.03023V5.27423C10.0978 5.1809 10.1258 5.10623 10.1818 5.05023C10.2472 4.9849 10.3265 4.95223 10.4198 4.95223H11.3018C11.3952 4.95223 11.4698 4.9849 11.5258 5.05023C11.5912 5.10623 11.6238 5.1809 11.6238 5.27423V6.03023C11.6238 6.12357 11.5912 6.2029 11.5258 6.26823C11.4698 6.32423 11.3952 6.35223 11.3018 6.35223H10.4198ZM16.5405 15.1302C15.8778 15.1302 15.3038 15.0042 14.8185 14.7522C14.3425 14.4909 13.9738 14.1222 13.7125 13.6462C13.4511 13.1609 13.3111 12.5822 13.2925 11.9102C13.2831 11.7702 13.2785 11.5836 13.2785 11.3502C13.2785 11.1169 13.2831 10.9302 13.2925 10.7902C13.3111 10.1182 13.4511 9.54423 13.7125 9.06823C13.9738 8.5829 14.3425 8.21423 14.8185 7.96223C15.3038 7.7009 15.8778 7.57023 16.5405 7.57023C17.0818 7.57023 17.5438 7.6449 17.9265 7.79423C18.3185 7.94357 18.6405 8.1349 18.8925 8.36823C19.1445 8.60157 19.3311 8.85357 19.4525 9.12423C19.5831 9.3949 19.6531 9.65157 19.6625 9.89423C19.6718 9.98757 19.6438 10.0622 19.5785 10.1182C19.5131 10.1742 19.4338 10.2022 19.3405 10.2022H18.6685C18.5751 10.2022 18.5051 10.1836 18.4585 10.1462C18.4118 10.0996 18.3651 10.0249 18.3185 9.92223C18.1505 9.4649 17.9218 9.1429 17.6325 8.95623C17.3431 8.76957 16.9838 8.67623 16.5545 8.67623C15.9945 8.67623 15.5371 8.8489 15.1825 9.19423C14.8371 9.53957 14.6505 10.0949 14.6225 10.8602C14.6131 11.1962 14.6131 11.5229 14.6225 11.8402C14.6505 12.6149 14.8371 13.1749 15.1825 13.5202C15.5371 13.8562 15.9945 14.0242 16.5545 14.0242C16.9838 14.0242 17.3431 13.9309 17.6325 13.7442C17.9218 13.5576 18.1505 13.2356 18.3185 12.7782C18.3651 12.6756 18.4118 12.6056 18.4585 12.5682C18.5051 12.5216 18.5751 12.4982 18.6685 12.4982H19.3405C19.4338 12.4982 19.5131 12.5262 19.5785 12.5822C19.6438 12.6382 19.6718 12.7129 19.6625 12.8062C19.6531 13.0022 19.6111 13.2029 19.5365 13.4082C19.4618 13.6136 19.3405 13.8236 19.1725 14.0382C19.0138 14.2436 18.8131 14.4302 18.5705 14.5982C18.3278 14.7569 18.0338 14.8876 17.6885 14.9902C17.3525 15.0836 16.9698 15.1302 16.5405 15.1302ZM21.6611 14.9902C21.5677 14.9902 21.4884 14.9622 21.4231 14.9062C21.3671 14.8409 21.3391 14.7616 21.3391 14.6682V5.37223C21.3391 5.2789 21.3671 5.20423 21.4231 5.14823C21.4884 5.0829 21.5677 5.05023 21.6611 5.05023H22.3191C22.4124 5.05023 22.4871 5.0829 22.5431 5.14823C22.6084 5.20423 22.6411 5.2789 22.6411 5.37223V10.2442L25.3991 7.94823C25.5111 7.8549 25.5951 7.79423 25.6511 7.76623C25.7164 7.7289 25.8191 7.71023 25.9591 7.71023H26.7011C26.7851 7.71023 26.8551 7.73823 26.9111 7.79423C26.9671 7.85023 26.9951 7.92023 26.9951 8.00423C26.9951 8.04157 26.9811 8.08357 26.9531 8.13023C26.9344 8.1769 26.8924 8.22357 26.8271 8.27023L23.5931 10.9582L27.1771 14.4442C27.2891 14.5376 27.3451 14.6216 27.3451 14.6962C27.3451 14.7802 27.3171 14.8502 27.2611 14.9062C27.2051 14.9622 27.1351 14.9902 27.0511 14.9902H26.3231C26.1831 14.9902 26.0804 14.9762 26.0151 14.9482C25.9497 14.9109 25.8657 14.8456 25.7631 14.7522L22.6411 11.7702V14.6682C22.6411 14.7616 22.6084 14.8409 22.5431 14.9062C22.4871 14.9622 22.4124 14.9902 22.3191 14.9902H21.6611ZM35.5487 15.1302C34.6901 15.1302 33.9761 14.9716 33.4067 14.6542C32.8467 14.3369 32.4221 13.8936 32.1327 13.3242C31.8434 12.7549 31.6847 12.0922 31.6567 11.3362C31.6474 10.9536 31.6427 10.5429 31.6427 10.1042C31.6427 9.66557 31.6474 9.24557 31.6567 8.84423C31.6847 8.08823 31.8434 7.42557 32.1327 6.85623C32.4221 6.2869 32.8467 5.84357 33.4067 5.52623C33.9761 5.2089 34.6901 5.05023 35.5487 5.05023C36.1927 5.05023 36.7574 5.1389 37.2427 5.31623C37.7281 5.49357 38.1294 5.73157 38.4467 6.03023C38.7734 6.3289 39.0207 6.6649 39.1887 7.03823C39.3567 7.40223 39.4501 7.78023 39.4687 8.17223C39.4781 8.25623 39.4501 8.32623 39.3847 8.38223C39.3287 8.43823 39.2587 8.46623 39.1747 8.46623H38.4047C38.3207 8.46623 38.2461 8.4429 38.1807 8.39623C38.1247 8.34957 38.0827 8.26557 38.0547 8.14423C37.8961 7.41623 37.5974 6.9169 37.1587 6.64623C36.7294 6.37557 36.1881 6.24023 35.5347 6.24023C34.7881 6.24023 34.1954 6.4549 33.7567 6.88423C33.3181 7.30423 33.0801 7.9809 33.0427 8.91423C33.0147 9.67957 33.0147 10.4636 33.0427 11.2662C33.0801 12.1996 33.3181 12.8809 33.7567 13.3102C34.1954 13.7302 34.7881 13.9402 35.5347 13.9402C36.1881 13.9402 36.7294 13.8049 37.1587 13.5342C37.5974 13.2636 37.8961 12.7642 38.0547 12.0362C38.0827 11.9149 38.1247 11.8309 38.1807 11.7842C38.2461 11.7376 38.3207 11.7142 38.4047 11.7142H39.1747C39.2587 11.7142 39.3287 11.7422 39.3847 11.7982C39.4501 11.8542 39.4781 11.9242 39.4687 12.0082C39.4501 12.4002 39.3567 12.7829 39.1887 13.1562C39.0207 13.5202 38.7734 13.8516 38.4467 14.1502C38.1294 14.4489 37.7281 14.6869 37.2427 14.8642C36.7574 15.0416 36.1927 15.1302 35.5487 15.1302ZM41.499 14.9902C41.4056 14.9902 41.3263 14.9622 41.261 14.9062C41.205 14.8409 41.177 14.7616 41.177 14.6682V5.37223C41.177 5.2789 41.205 5.20423 41.261 5.14823C41.3263 5.0829 41.4056 5.05023 41.499 5.05023H42.199C42.3016 5.05023 42.381 5.0829 42.437 5.14823C42.493 5.20423 42.521 5.2789 42.521 5.37223V8.63423C42.773 8.3169 43.081 8.06023 43.445 7.86423C43.809 7.66823 44.271 7.57023 44.831 7.57023C45.4376 7.57023 45.951 7.70557 46.371 7.97623C46.8003 8.23757 47.1223 8.60623 47.337 9.08223C47.561 9.5489 47.673 10.0949 47.673 10.7202V14.6682C47.673 14.7616 47.645 14.8409 47.589 14.9062C47.533 14.9622 47.4536 14.9902 47.351 14.9902H46.651C46.5576 14.9902 46.4783 14.9622 46.413 14.9062C46.357 14.8409 46.329 14.7616 46.329 14.6682V10.7902C46.329 10.1369 46.1703 9.62823 45.853 9.26423C45.5356 8.8909 45.069 8.70423 44.453 8.70423C43.8743 8.70423 43.4076 8.8909 43.053 9.26423C42.6983 9.62823 42.521 10.1369 42.521 10.7902V14.6682C42.521 14.7616 42.493 14.8409 42.437 14.9062C42.381 14.9622 42.3016 14.9902 42.199 14.9902H41.499ZM51.7242 15.1302C51.2575 15.1302 50.8329 15.0369 50.4502 14.8502C50.0675 14.6636 49.7595 14.4116 49.5262 14.0942C49.2929 13.7769 49.1762 13.4176 49.1762 13.0162C49.1762 12.3722 49.4375 11.8589 49.9602 11.4762C50.4829 11.0936 51.1642 10.8416 52.0042 10.7202L54.0902 10.4262V10.0202C54.0902 9.57223 53.9595 9.22223 53.6982 8.97023C53.4462 8.71823 53.0309 8.59223 52.4522 8.59223C52.0322 8.59223 51.6915 8.67623 51.4302 8.84423C51.1782 9.01223 51.0009 9.2269 50.8982 9.48823C50.8422 9.62823 50.7442 9.69823 50.6042 9.69823H49.9742C49.8715 9.69823 49.7922 9.67023 49.7362 9.61423C49.6895 9.5489 49.6662 9.47423 49.6662 9.39023C49.6662 9.25023 49.7175 9.07757 49.8202 8.87223C49.9322 8.6669 50.1002 8.46623 50.3242 8.27023C50.5482 8.07423 50.8329 7.9109 51.1782 7.78023C51.5329 7.64023 51.9622 7.57023 52.4662 7.57023C53.0262 7.57023 53.4975 7.6449 53.8802 7.79423C54.2629 7.93423 54.5615 8.12557 54.7762 8.36823C55.0002 8.6109 55.1589 8.88623 55.2522 9.19423C55.3549 9.50223 55.4062 9.8149 55.4062 10.1322V14.6682C55.4062 14.7616 55.3735 14.8409 55.3082 14.9062C55.2522 14.9622 55.1775 14.9902 55.0842 14.9902H54.4402C54.3375 14.9902 54.2582 14.9622 54.2022 14.9062C54.1462 14.8409 54.1182 14.7616 54.1182 14.6682V14.0662C53.9969 14.2342 53.8335 14.4022 53.6282 14.5702C53.4229 14.7289 53.1662 14.8642 52.8582 14.9762C52.5502 15.0789 52.1722 15.1302 51.7242 15.1302ZM52.0182 14.0802C52.4009 14.0802 52.7509 14.0009 53.0682 13.8422C53.3855 13.6742 53.6329 13.4176 53.8102 13.0722C53.9969 12.7269 54.0902 12.2929 54.0902 11.7702V11.3782L52.4662 11.6162C51.8035 11.7096 51.3042 11.8682 50.9682 12.0922C50.6322 12.3069 50.4642 12.5822 50.4642 12.9182C50.4642 13.1796 50.5389 13.3989 50.6882 13.5762C50.8469 13.7442 51.0429 13.8702 51.2762 13.9542C51.5189 14.0382 51.7662 14.0802 52.0182 14.0802ZM60.1348 15.1302C59.5375 15.1302 59.0288 14.9996 58.6088 14.7382C58.1981 14.4676 57.8855 14.0942 57.6708 13.6182C57.4561 13.1422 57.3488 12.5962 57.3488 11.9802V8.03223C57.3488 7.9389 57.3768 7.86423 57.4328 7.80823C57.4981 7.7429 57.5775 7.71023 57.6708 7.71023H58.3708C58.4641 7.71023 58.5388 7.7429 58.5948 7.80823C58.6601 7.86423 58.6928 7.9389 58.6928 8.03223V11.9102C58.6928 13.3009 59.2995 13.9962 60.5128 13.9962C61.0915 13.9962 61.5535 13.8142 61.8988 13.4502C62.2535 13.0769 62.4308 12.5636 62.4308 11.9102V8.03223C62.4308 7.9389 62.4588 7.86423 62.5148 7.80823C62.5801 7.7429 62.6595 7.71023 62.7528 7.71023H63.4388C63.5415 7.71023 63.6208 7.7429 63.6768 7.80823C63.7328 7.86423 63.7608 7.9389 63.7608 8.03223V14.6682C63.7608 14.7616 63.7328 14.8409 63.6768 14.9062C63.6208 14.9622 63.5415 14.9902 63.4388 14.9902H62.7948C62.7015 14.9902 62.6221 14.9622 62.5568 14.9062C62.5008 14.8409 62.4728 14.7616 62.4728 14.6682V14.0522C62.2208 14.3789 61.9128 14.6402 61.5488 14.8362C61.1941 15.0322 60.7228 15.1302 60.1348 15.1302ZM68.5007 15.1302C67.9874 15.1302 67.544 15.0416 67.1707 14.8642C66.7974 14.6776 66.4894 14.4302 66.2467 14.1222C66.0134 13.8049 65.836 13.4456 65.7147 13.0442C65.6027 12.6429 65.5374 12.2182 65.5187 11.7702C65.5094 11.6209 65.5047 11.4809 65.5047 11.3502C65.5047 11.2196 65.5094 11.0796 65.5187 10.9302C65.5374 10.4916 65.6027 10.0716 65.7147 9.67023C65.836 9.2689 66.0134 8.90957 66.2467 8.59223C66.4894 8.2749 66.7974 8.02757 67.1707 7.85023C67.544 7.66357 67.9874 7.57023 68.5007 7.57023C69.0514 7.57023 69.5087 7.66823 69.8727 7.86423C70.2367 8.06023 70.5354 8.3029 70.7687 8.59223V5.37223C70.7687 5.2789 70.7967 5.20423 70.8527 5.14823C70.918 5.0829 70.9974 5.05023 71.0907 5.05023H71.7627C71.856 5.05023 71.9307 5.0829 71.9867 5.14823C72.052 5.20423 72.0847 5.2789 72.0847 5.37223V14.6682C72.0847 14.7616 72.052 14.8409 71.9867 14.9062C71.9307 14.9622 71.856 14.9902 71.7627 14.9902H71.1327C71.03 14.9902 70.9507 14.9622 70.8947 14.9062C70.8387 14.8409 70.8107 14.7616 70.8107 14.6682V14.0802C70.5774 14.3789 70.274 14.6309 69.9007 14.8362C69.5274 15.0322 69.0607 15.1302 68.5007 15.1302ZM68.7947 13.9962C69.2614 13.9962 69.6347 13.8889 69.9147 13.6742C70.1947 13.4596 70.4047 13.1889 70.5447 12.8622C70.6847 12.5262 70.7594 12.1856 70.7687 11.8402C70.778 11.6909 70.7827 11.5136 70.7827 11.3082C70.7827 11.0936 70.778 10.9116 70.7687 10.7622C70.7594 10.4356 70.68 10.1136 70.5307 9.79623C70.3907 9.4789 70.176 9.21757 69.8867 9.01223C69.6067 8.8069 69.2427 8.70423 68.7947 8.70423C68.3187 8.70423 67.9407 8.81157 67.6607 9.02623C67.3807 9.23157 67.18 9.5069 67.0587 9.85223C66.9374 10.1882 66.8674 10.5522 66.8487 10.9442C66.8394 11.2149 66.8394 11.4856 66.8487 11.7562C66.8674 12.1482 66.9374 12.5169 67.0587 12.8622C67.18 13.1982 67.3807 13.4736 67.6607 13.6882C67.9407 13.8936 68.3187 13.9962 68.7947 13.9962ZM74.5029 14.9902C74.4095 14.9902 74.3302 14.9622 74.2649 14.9062C74.2089 14.8409 74.1809 14.7616 74.1809 14.6682V5.37223C74.1809 5.2789 74.2089 5.20423 74.2649 5.14823C74.3302 5.0829 74.4095 5.05023 74.5029 5.05023H75.2029C75.3055 5.05023 75.3849 5.0829 75.4409 5.14823C75.4969 5.20423 75.5249 5.2789 75.5249 5.37223V8.63423C75.7769 8.3169 76.0849 8.06023 76.4489 7.86423C76.8129 7.66823 77.2749 7.57023 77.8349 7.57023C78.4415 7.57023 78.9549 7.70557 79.3749 7.97623C79.8042 8.23757 80.1262 8.60623 80.3409 9.08223C80.5649 9.5489 80.6769 10.0949 80.6769 10.7202V14.6682C80.6769 14.7616 80.6489 14.8409 80.5929 14.9062C80.5369 14.9622 80.4575 14.9902 80.3549 14.9902H79.6549C79.5615 14.9902 79.4822 14.9622 79.4169 14.9062C79.3609 14.8409 79.3329 14.7616 79.3329 14.6682V10.7902C79.3329 10.1369 79.1742 9.62823 78.8569 9.26423C78.5395 8.8909 78.0729 8.70423 77.4569 8.70423C76.8782 8.70423 76.4115 8.8909 76.0569 9.26423C75.7022 9.62823 75.5249 10.1369 75.5249 10.7902V14.6682C75.5249 14.7616 75.4969 14.8409 75.4409 14.9062C75.3849 14.9622 75.3055 14.9902 75.2029 14.9902H74.5029ZM85.4141 15.1302C84.8168 15.1302 84.3081 14.9996 83.8881 14.7382C83.4774 14.4676 83.1648 14.0942 82.9501 13.6182C82.7354 13.1422 82.6281 12.5962 82.6281 11.9802V8.03223C82.6281 7.9389 82.6561 7.86423 82.7121 7.80823C82.7774 7.7429 82.8568 7.71023 82.9501 7.71023H83.6501C83.7434 7.71023 83.8181 7.7429 83.8741 7.80823C83.9394 7.86423 83.9721 7.9389 83.9721 8.03223V11.9102C83.9721 13.3009 84.5788 13.9962 85.7921 13.9962C86.3708 13.9962 86.8328 13.8142 87.1781 13.4502C87.5328 13.0769 87.7101 12.5636 87.7101 11.9102V8.03223C87.7101 7.9389 87.7381 7.86423 87.7941 7.80823C87.8594 7.7429 87.9388 7.71023 88.0321 7.71023H88.7181C88.8208 7.71023 88.9001 7.7429 88.9561 7.80823C89.0121 7.86423 89.0401 7.9389 89.0401 8.03223V14.6682C89.0401 14.7616 89.0121 14.8409 88.9561 14.9062C88.9001 14.9622 88.8208 14.9902 88.7181 14.9902H88.0741C87.9808 14.9902 87.9014 14.9622 87.8361 14.9062C87.7801 14.8409 87.7521 14.7616 87.7521 14.6682V14.0522C87.5001 14.3789 87.1921 14.6402 86.8281 14.8362C86.4734 15.0322 86.0021 15.1302 85.4141 15.1302ZM91.442 14.9902C91.3487 14.9902 91.2693 14.9622 91.204 14.9062C91.148 14.8409 91.12 14.7616 91.12 14.6682V8.04623C91.12 7.9529 91.148 7.87357 91.204 7.80823C91.2693 7.7429 91.3487 7.71023 91.442 7.71023H92.086C92.1793 7.71023 92.2587 7.7429 92.324 7.80823C92.3893 7.87357 92.422 7.9529 92.422 8.04623V8.66223C92.6087 8.3449 92.8653 8.1069 93.192 7.94823C93.5187 7.78957 93.9107 7.71023 94.368 7.71023H94.928C95.0213 7.71023 95.096 7.7429 95.152 7.80823C95.208 7.86423 95.236 7.9389 95.236 8.03223V8.60623C95.236 8.69957 95.208 8.77423 95.152 8.83023C95.096 8.88623 95.0213 8.91423 94.928 8.91423H94.088C93.584 8.91423 93.1873 9.06357 92.898 9.36223C92.6087 9.65157 92.464 10.0482 92.464 10.5522V14.6682C92.464 14.7616 92.4313 14.8409 92.366 14.9062C92.3007 14.9622 92.2213 14.9902 92.128 14.9902H91.442ZM96.7603 14.9902C96.667 14.9902 96.5877 14.9622 96.5223 14.9062C96.4663 14.8409 96.4383 14.7616 96.4383 14.6682V8.03223C96.4383 7.9389 96.4663 7.86423 96.5223 7.80823C96.5877 7.7429 96.667 7.71023 96.7603 7.71023H97.4323C97.5257 7.71023 97.6003 7.7429 97.6563 7.80823C97.7123 7.86423 97.7403 7.9389 97.7403 8.03223V14.6682C97.7403 14.7616 97.7123 14.8409 97.6563 14.9062C97.6003 14.9622 97.5257 14.9902 97.4323 14.9902H96.7603ZM96.6483 6.35223C96.555 6.35223 96.4757 6.32423 96.4103 6.26823C96.3543 6.2029 96.3263 6.12357 96.3263 6.03023V5.27423C96.3263 5.1809 96.3543 5.10623 96.4103 5.05023C96.4757 4.9849 96.555 4.95223 96.6483 4.95223H97.5303C97.6237 4.95223 97.6983 4.9849 97.7543 5.05023C97.8197 5.10623 97.8523 5.1809 97.8523 5.27423V6.03023C97.8523 6.12357 97.8197 6.2029 97.7543 6.26823C97.6983 6.32423 97.6237 6.35223 97.5303 6.35223H96.6483Z" fill="#333333"/>
<path d="M1.392 33.9902C1.312 33.9902 1.248 33.9662 1.2 33.9182C1.152 33.8702 1.128 33.8062 1.128 33.7262V25.8662C1.128 25.7782 1.152 25.7102 1.2 25.6622C1.248 25.6142 1.312 25.5902 1.392 25.5902H4.308C4.868 25.5902 5.352 25.6862 5.76 25.8782C6.176 26.0622 6.496 26.3382 6.72 26.7062C6.952 27.0742 7.068 27.5302 7.068 28.0742C7.068 28.6182 6.952 29.0742 6.72 29.4422C6.496 29.8102 6.176 30.0902 5.76 30.2822C5.352 30.4662 4.868 30.5582 4.308 30.5582H1.884V33.7262C1.884 33.8062 1.86 33.8702 1.812 33.9182C1.764 33.9662 1.696 33.9902 1.608 33.9902H1.392ZM1.884 29.8382H4.248C4.944 29.8382 5.46 29.6862 5.796 29.3822C6.14 29.0782 6.312 28.6422 6.312 28.0742C6.312 27.5062 6.14 27.0702 5.796 26.7662C5.46 26.4622 4.944 26.3102 4.248 26.3102H1.884V29.8382ZM10.0817 34.1102C9.69769 34.1102 9.34169 34.0302 9.01369 33.8702C8.69369 33.7102 8.43369 33.4982 8.23369 33.2342C8.03369 32.9622 7.93369 32.6582 7.93369 32.3222C7.93369 31.7782 8.15369 31.3422 8.59369 31.0142C9.03369 30.6862 9.60569 30.4742 10.3097 30.3782L12.2057 30.1142V29.6942C12.2057 29.2702 12.0737 28.9382 11.8097 28.6982C11.5537 28.4502 11.1417 28.3262 10.5737 28.3262C10.1577 28.3262 9.82169 28.4102 9.56569 28.5782C9.30969 28.7382 9.13369 28.9502 9.03769 29.2142C8.99769 29.3342 8.92169 29.3942 8.80969 29.3942H8.61769C8.52169 29.3942 8.45369 29.3702 8.41369 29.3222C8.37369 29.2662 8.35369 29.2022 8.35369 29.1302C8.35369 29.0182 8.39369 28.8782 8.47369 28.7102C8.56169 28.5422 8.69369 28.3782 8.86969 28.2182C9.04569 28.0502 9.27369 27.9102 9.55369 27.7982C9.83369 27.6862 10.1737 27.6302 10.5737 27.6302C11.0457 27.6302 11.4337 27.6942 11.7377 27.8222C12.0497 27.9502 12.2897 28.1182 12.4577 28.3262C12.6337 28.5262 12.7577 28.7502 12.8297 28.9982C12.9017 29.2462 12.9377 29.4902 12.9377 29.7302V33.7262C12.9377 33.8062 12.9137 33.8702 12.8657 33.9182C12.8177 33.9662 12.7537 33.9902 12.6737 33.9902H12.4697C12.3897 33.9902 12.3257 33.9662 12.2777 33.9182C12.2297 33.8702 12.2057 33.8062 12.2057 33.7262V33.1622C12.1097 33.3062 11.9737 33.4502 11.7977 33.5942C11.6217 33.7382 11.3937 33.8622 11.1137 33.9662C10.8417 34.0622 10.4977 34.1102 10.0817 34.1102ZM10.2017 33.4142C10.5697 33.4142 10.9057 33.3342 11.2097 33.1742C11.5137 33.0142 11.7537 32.7702 11.9297 32.4422C12.1137 32.1062 12.2057 31.6862 12.2057 31.1822V30.7742L10.6577 30.9902C10.0017 31.0782 9.50569 31.2302 9.16969 31.4462C8.83369 31.6622 8.66569 31.9342 8.66569 32.2622C8.66569 32.5262 8.74169 32.7422 8.89369 32.9102C9.04569 33.0782 9.23769 33.2062 9.46969 33.2942C9.70969 33.3742 9.95369 33.4142 10.2017 33.4142ZM15.0993 33.9902C15.0193 33.9902 14.9553 33.9662 14.9073 33.9182C14.8593 33.8702 14.8353 33.8062 14.8353 33.7262V28.0262C14.8353 27.9462 14.8593 27.8822 14.9073 27.8342C14.9553 27.7782 15.0193 27.7502 15.0993 27.7502H15.2913C15.3713 27.7502 15.4353 27.7782 15.4833 27.8342C15.5393 27.8822 15.5673 27.9462 15.5673 28.0262V28.5782C15.7113 28.2982 15.9193 28.0902 16.1913 27.9542C16.4633 27.8182 16.7993 27.7502 17.1993 27.7502H17.6433C17.7233 27.7502 17.7873 27.7742 17.8353 27.8222C17.8833 27.8702 17.9073 27.9342 17.9073 28.0142V28.1822C17.9073 28.2622 17.8833 28.3262 17.8353 28.3742C17.7873 28.4222 17.7233 28.4462 17.6433 28.4462H17.1273C16.6473 28.4462 16.2673 28.5862 15.9873 28.8662C15.7073 29.1462 15.5673 29.5262 15.5673 30.0062V33.7262C15.5673 33.8062 15.5393 33.8702 15.4833 33.9182C15.4353 33.9662 15.3713 33.9902 15.2913 33.9902H15.0993ZM21.1072 33.9902C20.6912 33.9902 20.3632 33.9022 20.1232 33.7262C19.8832 33.5502 19.7152 33.3102 19.6192 33.0062C19.5232 32.7022 19.4752 32.3622 19.4752 31.9862V28.4462H18.5392C18.4592 28.4462 18.3952 28.4222 18.3472 28.3742C18.2992 28.3262 18.2752 28.2622 18.2752 28.1822V28.0142C18.2752 27.9342 18.2992 27.8702 18.3472 27.8222C18.3952 27.7742 18.4592 27.7502 18.5392 27.7502H19.4752V25.7342C19.4752 25.6542 19.4992 25.5902 19.5472 25.5422C19.5952 25.4942 19.6592 25.4702 19.7392 25.4702H19.9432C20.0232 25.4702 20.0872 25.4942 20.1352 25.5422C20.1832 25.5902 20.2072 25.6542 20.2072 25.7342V27.7502H21.6952C21.7752 27.7502 21.8392 27.7742 21.8872 27.8222C21.9352 27.8702 21.9592 27.9342 21.9592 28.0142V28.1822C21.9592 28.2622 21.9352 28.3262 21.8872 28.3742C21.8392 28.4222 21.7752 28.4462 21.6952 28.4462H20.2072V31.9382C20.2072 32.3622 20.2752 32.6942 20.4112 32.9342C20.5552 33.1742 20.8072 33.2942 21.1672 33.2942H21.8152C21.8952 33.2942 21.9592 33.3182 22.0072 33.3662C22.0552 33.4142 22.0792 33.4782 22.0792 33.5582V33.7262C22.0792 33.8062 22.0552 33.8702 22.0072 33.9182C21.9592 33.9662 21.8952 33.9902 21.8152 33.9902H21.1072ZM23.5837 33.9902C23.5037 33.9902 23.4397 33.9662 23.3917 33.9182C23.3437 33.8702 23.3197 33.8062 23.3197 33.7262V28.0142C23.3197 27.9342 23.3437 27.8702 23.3917 27.8222C23.4397 27.7742 23.5037 27.7502 23.5837 27.7502H23.7877C23.8677 27.7502 23.9317 27.7742 23.9797 27.8222C24.0277 27.8702 24.0517 27.9342 24.0517 28.0142V33.7262C24.0517 33.8062 24.0277 33.8702 23.9797 33.9182C23.9317 33.9662 23.8677 33.9902 23.7877 33.9902H23.5837ZM23.4517 26.4662C23.3717 26.4662 23.3077 26.4422 23.2597 26.3942C23.2117 26.3462 23.1877 26.2822 23.1877 26.2022V25.7462C23.1877 25.6662 23.2117 25.6022 23.2597 25.5542C23.3077 25.4982 23.3717 25.4702 23.4517 25.4702H23.9077C23.9877 25.4702 24.0517 25.4982 24.0997 25.5542C24.1557 25.6022 24.1837 25.6662 24.1837 25.7462V26.2022C24.1837 26.2822 24.1557 26.3462 24.0997 26.3942C24.0517 26.4422 23.9877 26.4662 23.9077 26.4662H23.4517ZM28.3555 34.1102C27.7955 34.1102 27.3195 34.0022 26.9275 33.7862C26.5355 33.5622 26.2355 33.2422 26.0275 32.8262C25.8275 32.4102 25.7195 31.9182 25.7035 31.3502C25.6955 31.2302 25.6915 31.0702 25.6915 30.8702C25.6915 30.6702 25.6955 30.5102 25.7035 30.3902C25.7195 29.8142 25.8275 29.3222 26.0275 28.9142C26.2355 28.4982 26.5355 28.1822 26.9275 27.9662C27.3195 27.7422 27.7955 27.6302 28.3555 27.6302C28.7795 27.6302 29.1435 27.6902 29.4475 27.8102C29.7595 27.9222 30.0155 28.0742 30.2155 28.2662C30.4155 28.4502 30.5675 28.6542 30.6715 28.8782C30.7755 29.1022 30.8315 29.3222 30.8395 29.5382C30.8475 29.6182 30.8235 29.6822 30.7675 29.7302C30.7115 29.7782 30.6475 29.8022 30.5755 29.8022H30.4075C30.3275 29.8022 30.2675 29.7862 30.2275 29.7542C30.1955 29.7142 30.1595 29.6462 30.1195 29.5502C29.9515 29.0942 29.7195 28.7782 29.4235 28.6022C29.1355 28.4182 28.7795 28.3262 28.3555 28.3262C27.8115 28.3262 27.3595 28.4942 26.9995 28.8302C26.6475 29.1582 26.4595 29.6982 26.4355 30.4502C26.4195 30.7302 26.4195 31.0102 26.4355 31.2902C26.4595 32.0422 26.6475 32.5862 26.9995 32.9222C27.3595 33.2502 27.8115 33.4142 28.3555 33.4142C28.7795 33.4142 29.1355 33.3262 29.4235 33.1502C29.7195 32.9662 29.9515 32.6462 30.1195 32.1902C30.1595 32.0942 30.1955 32.0302 30.2275 31.9982C30.2675 31.9582 30.3275 31.9382 30.4075 31.9382H30.5755C30.6475 31.9382 30.7115 31.9622 30.7675 32.0102C30.8235 32.0582 30.8475 32.1222 30.8395 32.2022C30.8315 32.3782 30.7955 32.5542 30.7315 32.7302C30.6675 32.9062 30.5675 33.0782 30.4315 33.2462C30.3035 33.4142 30.1435 33.5622 29.9515 33.6902C29.7595 33.8182 29.5275 33.9182 29.2555 33.9902C28.9915 34.0702 28.6915 34.1102 28.3555 34.1102ZM32.6891 33.9902C32.6091 33.9902 32.5451 33.9662 32.4971 33.9182C32.4491 33.8702 32.4251 33.8062 32.4251 33.7262V28.0142C32.4251 27.9342 32.4491 27.8702 32.4971 27.8222C32.5451 27.7742 32.6091 27.7502 32.6891 27.7502H32.8931C32.9731 27.7502 33.0371 27.7742 33.0851 27.8222C33.1331 27.8702 33.1571 27.9342 33.1571 28.0142V33.7262C33.1571 33.8062 33.1331 33.8702 33.0851 33.9182C33.0371 33.9662 32.9731 33.9902 32.8931 33.9902H32.6891ZM32.5571 26.4662C32.4771 26.4662 32.4131 26.4422 32.3651 26.3942C32.3171 26.3462 32.2931 26.2822 32.2931 26.2022V25.7462C32.2931 25.6662 32.3171 25.6022 32.3651 25.5542C32.4131 25.4982 32.4771 25.4702 32.5571 25.4702H33.0131C33.0931 25.4702 33.1571 25.4982 33.2051 25.5542C33.2611 25.6022 33.2891 25.6662 33.2891 25.7462V26.2022C33.2891 26.2822 33.2611 26.3462 33.2051 26.3942C33.1571 26.4422 33.0931 26.4662 33.0131 26.4662H32.5571ZM35.373 36.2702C35.293 36.2702 35.229 36.2462 35.181 36.1982C35.133 36.1502 35.109 36.0862 35.109 36.0062V28.0142C35.109 27.9342 35.133 27.8702 35.181 27.8222C35.229 27.7742 35.293 27.7502 35.373 27.7502H35.577C35.657 27.7502 35.721 27.7742 35.769 27.8222C35.817 27.8702 35.841 27.9342 35.841 28.0142V28.5782C36.041 28.3062 36.301 28.0822 36.621 27.9062C36.949 27.7222 37.361 27.6302 37.857 27.6302C38.329 27.6302 38.725 27.7142 39.045 27.8822C39.365 28.0422 39.625 28.2582 39.825 28.5302C40.025 28.8022 40.173 29.1062 40.269 29.4422C40.365 29.7782 40.417 30.1222 40.425 30.4742C40.433 30.5942 40.437 30.7262 40.437 30.8702C40.437 31.0142 40.433 31.1462 40.425 31.2662C40.417 31.6182 40.365 31.9622 40.269 32.2982C40.173 32.6342 40.025 32.9382 39.825 33.2102C39.625 33.4822 39.365 33.7022 39.045 33.8702C38.725 34.0302 38.329 34.1102 37.857 34.1102C37.361 34.1102 36.949 34.0182 36.621 33.8342C36.301 33.6502 36.041 33.4262 35.841 33.1622V36.0062C35.841 36.0862 35.817 36.1502 35.769 36.1982C35.721 36.2462 35.657 36.2702 35.577 36.2702H35.373ZM37.785 33.4142C38.257 33.4142 38.629 33.3102 38.901 33.1022C39.173 32.8942 39.369 32.6222 39.489 32.2862C39.609 31.9502 39.677 31.5902 39.693 31.2062C39.701 30.9822 39.701 30.7582 39.693 30.5342C39.677 30.1502 39.609 29.7902 39.489 29.4542C39.369 29.1182 39.173 28.8462 38.901 28.6382C38.629 28.4302 38.257 28.3262 37.785 28.3262C37.329 28.3262 36.961 28.4342 36.681 28.6502C36.401 28.8662 36.193 29.1382 36.057 29.4662C35.929 29.7862 35.857 30.1102 35.841 30.4382C35.833 30.5582 35.829 30.7142 35.829 30.9062C35.829 31.0982 35.833 31.2542 35.841 31.3742C35.849 31.6942 35.921 32.0102 36.057 32.3222C36.201 32.6342 36.413 32.8942 36.693 33.1022C36.981 33.3102 37.345 33.4142 37.785 33.4142ZM43.7497 34.1102C43.3657 34.1102 43.0097 34.0302 42.6817 33.8702C42.3617 33.7102 42.1017 33.4982 41.9017 33.2342C41.7017 32.9622 41.6017 32.6582 41.6017 32.3222C41.6017 31.7782 41.8217 31.3422 42.2617 31.0142C42.7017 30.6862 43.2737 30.4742 43.9777 30.3782L45.8737 30.1142V29.6942C45.8737 29.2702 45.7417 28.9382 45.4777 28.6982C45.2217 28.4502 44.8097 28.3262 44.2417 28.3262C43.8257 28.3262 43.4897 28.4102 43.2337 28.5782C42.9777 28.7382 42.8017 28.9502 42.7057 29.2142C42.6657 29.3342 42.5897 29.3942 42.4777 29.3942H42.2857C42.1897 29.3942 42.1217 29.3702 42.0817 29.3222C42.0417 29.2662 42.0217 29.2022 42.0217 29.1302C42.0217 29.0182 42.0617 28.8782 42.1417 28.7102C42.2297 28.5422 42.3617 28.3782 42.5377 28.2182C42.7137 28.0502 42.9417 27.9102 43.2217 27.7982C43.5017 27.6862 43.8417 27.6302 44.2417 27.6302C44.7137 27.6302 45.1017 27.6942 45.4057 27.8222C45.7177 27.9502 45.9577 28.1182 46.1257 28.3262C46.3017 28.5262 46.4257 28.7502 46.4977 28.9982C46.5697 29.2462 46.6057 29.4902 46.6057 29.7302V33.7262C46.6057 33.8062 46.5817 33.8702 46.5337 33.9182C46.4857 33.9662 46.4217 33.9902 46.3417 33.9902H46.1377C46.0577 33.9902 45.9937 33.9662 45.9457 33.9182C45.8977 33.8702 45.8737 33.8062 45.8737 33.7262V33.1622C45.7777 33.3062 45.6417 33.4502 45.4657 33.5942C45.2897 33.7382 45.0617 33.8622 44.7817 33.9662C44.5097 34.0622 44.1657 34.1102 43.7497 34.1102ZM43.8697 33.4142C44.2377 33.4142 44.5737 33.3342 44.8777 33.1742C45.1817 33.0142 45.4217 32.7702 45.5977 32.4422C45.7817 32.1062 45.8737 31.6862 45.8737 31.1822V30.7742L44.3257 30.9902C43.6697 31.0782 43.1737 31.2302 42.8377 31.4462C42.5017 31.6622 42.3337 31.9342 42.3337 32.2622C42.3337 32.5262 42.4097 32.7422 42.5617 32.9102C42.7137 33.0782 42.9057 33.2062 43.1377 33.2942C43.3777 33.3742 43.6217 33.4142 43.8697 33.4142ZM48.7673 33.9902C48.6873 33.9902 48.6233 33.9662 48.5753 33.9182C48.5273 33.8702 48.5033 33.8062 48.5033 33.7262V28.0142C48.5033 27.9342 48.5273 27.8702 48.5753 27.8222C48.6233 27.7742 48.6873 27.7502 48.7673 27.7502H48.9713C49.0513 27.7502 49.1153 27.7742 49.1633 27.8222C49.2113 27.8702 49.2353 27.9342 49.2353 28.0142V28.5782C49.4513 28.2982 49.7113 28.0702 50.0153 27.8942C50.3273 27.7182 50.7393 27.6302 51.2513 27.6302C51.7953 27.6302 52.2473 27.7502 52.6073 27.9902C52.9753 28.2222 53.2473 28.5422 53.4233 28.9502C53.6073 29.3502 53.6992 29.8062 53.6992 30.3182V33.7262C53.6992 33.8062 53.6753 33.8702 53.6273 33.9182C53.5793 33.9662 53.5153 33.9902 53.4353 33.9902H53.2313C53.1513 33.9902 53.0873 33.9662 53.0393 33.9182C52.9913 33.8702 52.9673 33.8062 52.9673 33.7262V30.3782C52.9673 29.7382 52.8113 29.2382 52.4993 28.8782C52.1873 28.5102 51.7313 28.3262 51.1313 28.3262C50.5633 28.3262 50.1033 28.5102 49.7513 28.8782C49.4073 29.2382 49.2353 29.7382 49.2353 30.3782V33.7262C49.2353 33.8062 49.2113 33.8702 49.1633 33.9182C49.1153 33.9662 49.0513 33.9902 48.9713 33.9902H48.7673ZM57.5876 33.9902C57.1716 33.9902 56.8436 33.9022 56.6036 33.7262C56.3636 33.5502 56.1956 33.3102 56.0996 33.0062C56.0036 32.7022 55.9556 32.3622 55.9556 31.9862V28.4462H55.0196C54.9396 28.4462 54.8756 28.4222 54.8276 28.3742C54.7796 28.3262 54.7556 28.2622 54.7556 28.1822V28.0142C54.7556 27.9342 54.7796 27.8702 54.8276 27.8222C54.8756 27.7742 54.9396 27.7502 55.0196 27.7502H55.9556V25.7342C55.9556 25.6542 55.9796 25.5902 56.0276 25.5422C56.0756 25.4942 56.1396 25.4702 56.2196 25.4702H56.4236C56.5036 25.4702 56.5676 25.4942 56.6156 25.5422C56.6636 25.5902 56.6876 25.6542 56.6876 25.7342V27.7502H58.1756C58.2556 27.7502 58.3196 27.7742 58.3676 27.8222C58.4156 27.8702 58.4396 27.9342 58.4396 28.0142V28.1822C58.4396 28.2622 58.4156 28.3262 58.3676 28.3742C58.3196 28.4222 58.2556 28.4462 58.1756 28.4462H56.6876V31.9382C56.6876 32.3622 56.7556 32.6942 56.8916 32.9342C57.0356 33.1742 57.2876 33.2942 57.6476 33.2942H58.2956C58.3756 33.2942 58.4396 33.3182 58.4876 33.3662C58.5356 33.4142 58.5596 33.4782 58.5596 33.5582V33.7262C58.5596 33.8062 58.5356 33.8702 58.4876 33.9182C58.4396 33.9662 58.3756 33.9902 58.2956 33.9902H57.5876ZM59.7041 34.8902C59.6401 34.8902 59.5921 34.8662 59.5601 34.8182C59.5361 34.7702 59.5281 34.7102 59.5361 34.6382L59.7641 33.1982C59.7801 33.1022 59.8081 33.0262 59.8481 32.9702C59.8961 32.9062 59.9681 32.8742 60.0641 32.8742H60.6041C60.6601 32.8742 60.7041 32.8942 60.7361 32.9342C60.7681 32.9742 60.7841 33.0182 60.7841 33.0662C60.7841 33.1382 60.7681 33.2102 60.7361 33.2822L60.2201 34.6382C60.1881 34.7182 60.1481 34.7782 60.1001 34.8182C60.0601 34.8662 59.9961 34.8902 59.9081 34.8902H59.7041ZM67.6811 33.9902C67.6011 33.9902 67.5371 33.9662 67.4891 33.9182C67.4411 33.8702 67.4171 33.8062 67.4171 33.7262V26.3102H65.0411C64.9611 26.3102 64.8971 26.2862 64.8491 26.2382C64.8011 26.1902 64.7771 26.1262 64.7771 26.0462V25.8662C64.7771 25.7782 64.8011 25.7102 64.8491 25.6622C64.8971 25.6142 64.9611 25.5902 65.0411 25.5902H70.5371C70.6251 25.5902 70.6931 25.6142 70.7411 25.6622C70.7891 25.7102 70.8131 25.7782 70.8131 25.8662V26.0462C70.8131 26.1262 70.7891 26.1902 70.7411 26.2382C70.6931 26.2862 70.6251 26.3102 70.5371 26.3102H68.1731V33.7262C68.1731 33.8062 68.1491 33.8702 68.1011 33.9182C68.0531 33.9662 67.9851 33.9902 67.8971 33.9902H67.6811ZM74.7222 34.1102C74.0742 34.1102 73.5222 34.0062 73.0662 33.7982C72.6182 33.5902 72.2742 33.3222 72.0342 32.9942C71.7942 32.6662 71.6662 32.3182 71.6502 31.9502C71.6502 31.8862 71.6742 31.8302 71.7222 31.7822C71.7702 31.7342 71.8302 31.7102 71.9022 31.7102H72.1422C72.2222 31.7102 72.2822 31.7342 72.3222 31.7822C72.3702 31.8302 72.3982 31.8862 72.4062 31.9502C72.4382 32.1742 72.5382 32.3982 72.7062 32.6222C72.8742 32.8382 73.1222 33.0222 73.4502 33.1742C73.7782 33.3182 74.2022 33.3902 74.7222 33.3902C75.5062 33.3902 76.0782 33.2502 76.4382 32.9702C76.7982 32.6822 76.9782 32.2982 76.9782 31.8182C76.9782 31.4982 76.8822 31.2422 76.6902 31.0502C76.5062 30.8502 76.2222 30.6742 75.8382 30.5222C75.4542 30.3622 74.9622 30.1862 74.3622 29.9942C73.7942 29.8102 73.3262 29.6222 72.9582 29.4302C72.5902 29.2302 72.3182 28.9902 72.1422 28.7102C71.9742 28.4302 71.8902 28.0702 71.8902 27.6302C71.8902 27.2222 71.9982 26.8582 72.2142 26.5382C72.4302 26.2102 72.7422 25.9502 73.1502 25.7582C73.5662 25.5662 74.0702 25.4702 74.6622 25.4702C75.1342 25.4702 75.5462 25.5342 75.8982 25.6622C76.2502 25.7902 76.5422 25.9622 76.7742 26.1782C77.0062 26.3862 77.1822 26.6142 77.3022 26.8622C77.4222 27.1022 77.4862 27.3382 77.4942 27.5702C77.4942 27.6262 77.4742 27.6822 77.4342 27.7382C77.3942 27.7862 77.3302 27.8102 77.2422 27.8102H77.0022C76.9622 27.8102 76.9102 27.7942 76.8462 27.7622C76.7902 27.7302 76.7542 27.6662 76.7382 27.5702C76.6902 27.1702 76.4782 26.8422 76.1022 26.5862C75.7342 26.3222 75.2542 26.1902 74.6622 26.1902C74.0702 26.1902 73.5862 26.3062 73.2102 26.5382C72.8342 26.7702 72.6462 27.1342 72.6462 27.6302C72.6462 27.9502 72.7302 28.2142 72.8982 28.4222C73.0662 28.6222 73.3302 28.8022 73.6902 28.9622C74.0502 29.1142 74.5142 29.2822 75.0822 29.4662C75.6822 29.6582 76.1782 29.8502 76.5702 30.0422C76.9622 30.2342 77.2542 30.4702 77.4462 30.7502C77.6382 31.0222 77.7342 31.3782 77.7342 31.8182C77.7342 32.3062 77.6102 32.7222 77.3622 33.0662C77.1222 33.4022 76.7782 33.6622 76.3302 33.8462C75.8822 34.0222 75.3462 34.1102 74.7222 34.1102ZM81.6878 34.1102C81.1118 34.1102 80.6278 33.9902 80.2358 33.7502C79.8518 33.5102 79.5558 33.1822 79.3478 32.7662C79.1478 32.3502 79.0398 31.8862 79.0238 31.3742C79.0158 31.2542 79.0118 31.0862 79.0118 30.8702C79.0118 30.6542 79.0158 30.4862 79.0238 30.3662C79.0398 29.8462 79.1478 29.3822 79.3478 28.9742C79.5558 28.5582 79.8518 28.2302 80.2358 27.9902C80.6278 27.7502 81.1118 27.6302 81.6878 27.6302C82.2638 27.6302 82.7438 27.7502 83.1278 27.9902C83.5198 28.2302 83.8158 28.5582 84.0158 28.9742C84.2238 29.3822 84.3358 29.8462 84.3518 30.3662C84.3598 30.4862 84.3638 30.6542 84.3638 30.8702C84.3638 31.0862 84.3598 31.2542 84.3518 31.3742C84.3358 31.8862 84.2238 32.3502 84.0158 32.7662C83.8158 33.1822 83.5198 33.5102 83.1278 33.7502C82.7438 33.9902 82.2638 34.1102 81.6878 34.1102ZM81.6878 33.4142C82.2478 33.4142 82.7038 33.2342 83.0558 32.8742C83.4078 32.5142 83.5958 31.9942 83.6198 31.3142C83.6278 31.1942 83.6318 31.0462 83.6318 30.8702C83.6318 30.6942 83.6278 30.5462 83.6198 30.4262C83.5958 29.7382 83.4078 29.2182 83.0558 28.8662C82.7038 28.5062 82.2478 28.3262 81.6878 28.3262C81.1278 28.3262 80.6718 28.5062 80.3198 28.8662C79.9678 29.2182 79.7798 29.7382 79.7558 30.4262C79.7478 30.5462 79.7438 30.6942 79.7438 30.8702C79.7438 31.0462 79.7478 31.1942 79.7558 31.3142C79.7798 31.9942 79.9678 32.5142 80.3198 32.8742C80.6718 33.2342 81.1278 33.4142 81.6878 33.4142ZM89.0033 34.1102C88.2753 34.1102 87.6793 33.9702 87.2153 33.6902C86.7593 33.4022 86.4193 33.0142 86.1953 32.5262C85.9713 32.0382 85.8473 31.4822 85.8232 30.8582C85.8153 30.5302 85.8113 30.1782 85.8113 29.8022C85.8113 29.4262 85.8153 29.0662 85.8232 28.7222C85.8473 28.0982 85.9713 27.5422 86.1953 27.0542C86.4193 26.5582 86.7593 26.1702 87.2153 25.8902C87.6793 25.6102 88.2753 25.4702 89.0033 25.4702C89.5713 25.4702 90.0553 25.5502 90.4553 25.7102C90.8553 25.8702 91.1793 26.0822 91.4273 26.3462C91.6833 26.6022 91.8713 26.8822 91.9913 27.1862C92.1193 27.4822 92.1913 27.7742 92.2073 28.0622C92.2153 28.1342 92.1913 28.1942 92.1353 28.2422C92.0873 28.2822 92.0273 28.3022 91.9553 28.3022H91.7153C91.6513 28.3022 91.5953 28.2862 91.5473 28.2542C91.4993 28.2142 91.4673 28.1462 91.4513 28.0502C91.2993 27.3382 91.0113 26.8502 90.5873 26.5862C90.1713 26.3222 89.6433 26.1902 89.0033 26.1902C88.2753 26.1902 87.6953 26.3982 87.2633 26.8142C86.8393 27.2222 86.6113 27.8782 86.5793 28.7822C86.5553 29.4382 86.5553 30.1102 86.5793 30.7982C86.6113 31.7022 86.8393 32.3622 87.2633 32.7782C87.6953 33.1862 88.2753 33.3902 89.0033 33.3902C89.6433 33.3902 90.1713 33.2582 90.5873 32.9942C91.0113 32.7302 91.2993 32.2422 91.4513 31.5302C91.4673 31.4342 91.4993 31.3702 91.5473 31.3382C91.5953 31.2982 91.6513 31.2782 91.7153 31.2782H91.9553C92.0273 31.2782 92.0873 31.3022 92.1353 31.3502C92.1913 31.3902 92.2153 31.4462 92.2073 31.5182C92.1913 31.8062 92.1193 32.1022 91.9913 32.4062C91.8713 32.7022 91.6833 32.9822 91.4273 33.2462C91.1793 33.5022 90.8553 33.7102 90.4553 33.8702C90.0553 34.0302 89.5713 34.1102 89.0033 34.1102ZM96.8294 33.9902C96.7494 33.9902 96.6854 33.9662 96.6374 33.9182C96.5894 33.8702 96.5654 33.8062 96.5654 33.7262V33.5462C96.5654 33.4662 96.5854 33.3902 96.6254 33.3182C96.6734 33.2382 96.7534 33.1462 96.8654 33.0422L99.9734 29.9342C100.277 29.6542 100.509 29.4102 100.669 29.2022C100.829 28.9942 100.937 28.7902 100.993 28.5902C101.057 28.3822 101.089 28.1542 101.089 27.9062C101.089 27.3702 100.933 26.9502 100.621 26.6462C100.317 26.3422 99.8814 26.1902 99.3134 26.1902C98.9534 26.1902 98.6414 26.2622 98.3774 26.4062C98.1134 26.5502 97.9054 26.7542 97.7534 27.0182C97.6014 27.2742 97.5014 27.5742 97.4534 27.9182C97.4454 28.0142 97.4094 28.0862 97.3454 28.1342C97.2814 28.1742 97.2254 28.1942 97.1774 28.1942H96.9374C96.8574 28.1942 96.7934 28.1742 96.7454 28.1342C96.7054 28.0862 96.6854 28.0302 96.6854 27.9662C96.6934 27.6942 96.7494 27.4142 96.8534 27.1262C96.9574 26.8302 97.1134 26.5582 97.3214 26.3102C97.5374 26.0622 97.8094 25.8622 98.1374 25.7102C98.4654 25.5502 98.8574 25.4702 99.3134 25.4702C99.9214 25.4702 100.409 25.5862 100.777 25.8182C101.153 26.0502 101.425 26.3502 101.593 26.7182C101.761 27.0862 101.845 27.4822 101.845 27.9062C101.845 28.2342 101.797 28.5382 101.701 28.8182C101.605 29.0902 101.461 29.3582 101.269 29.6222C101.077 29.8782 100.833 30.1422 100.537 30.4142L97.7294 33.2702H101.749C101.837 33.2702 101.905 33.2942 101.953 33.3422C102.001 33.3902 102.025 33.4582 102.025 33.5462V33.7262C102.025 33.8062 102.001 33.8702 101.953 33.9182C101.905 33.9662 101.837 33.9902 101.749 33.9902H96.8294ZM106.352 34.1102C105.808 34.1102 105.352 34.0222 104.984 33.8462C104.624 33.6702 104.332 33.4302 104.108 33.1262C103.892 32.8142 103.736 32.4582 103.64 32.0582C103.544 31.6582 103.488 31.2382 103.472 30.7982C103.472 30.5822 103.468 30.3622 103.46 30.1382C103.46 29.9142 103.46 29.6902 103.46 29.4662C103.468 29.2342 103.472 29.0062 103.472 28.7822C103.48 28.3422 103.532 27.9222 103.628 27.5222C103.732 27.1222 103.892 26.7702 104.108 26.4662C104.332 26.1542 104.624 25.9102 104.984 25.7342C105.352 25.5582 105.808 25.4702 106.352 25.4702C106.896 25.4702 107.348 25.5582 107.708 25.7342C108.076 25.9102 108.368 26.1542 108.584 26.4662C108.808 26.7702 108.968 27.1222 109.064 27.5222C109.168 27.9222 109.224 28.3422 109.232 28.7822C109.24 29.0062 109.244 29.2342 109.244 29.4662C109.244 29.6902 109.244 29.9142 109.244 30.1382C109.244 30.3622 109.24 30.5822 109.232 30.7982C109.224 31.2382 109.168 31.6582 109.064 32.0582C108.968 32.4582 108.808 32.8142 108.584 33.1262C108.368 33.4302 108.076 33.6702 107.708 33.8462C107.348 34.0222 106.896 34.1102 106.352 34.1102ZM106.352 33.3902C107.064 33.3902 107.592 33.1542 107.936 32.6822C108.28 32.2102 108.46 31.5622 108.476 30.7382C108.484 30.5062 108.488 30.2902 108.488 30.0902C108.488 29.8822 108.488 29.6782 108.488 29.4782C108.488 29.2702 108.484 29.0582 108.476 28.8422C108.46 28.0342 108.28 27.3902 107.936 26.9102C107.592 26.4302 107.064 26.1902 106.352 26.1902C105.648 26.1902 105.12 26.4302 104.768 26.9102C104.424 27.3902 104.244 28.0342 104.228 28.8422C104.228 29.0582 104.224 29.2702 104.216 29.4782C104.216 29.6782 104.216 29.8822 104.216 30.0902C104.224 30.2902 104.228 30.5062 104.228 30.7382C104.244 31.5622 104.424 32.2102 104.768 32.6822C105.12 33.1542 105.648 33.3902 106.352 33.3902ZM110.939 33.9902C110.859 33.9902 110.795 33.9662 110.747 33.9182C110.699 33.8702 110.675 33.8062 110.675 33.7262V33.5462C110.675 33.4662 110.695 33.3902 110.735 33.3182C110.783 33.2382 110.863 33.1462 110.975 33.0422L114.083 29.9342C114.387 29.6542 114.619 29.4102 114.779 29.2022C114.939 28.9942 115.047 28.7902 115.103 28.5902C115.167 28.3822 115.199 28.1542 115.199 27.9062C115.199 27.3702 115.043 26.9502 114.731 26.6462C114.427 26.3422 113.991 26.1902 113.423 26.1902C113.063 26.1902 112.751 26.2622 112.487 26.4062C112.223 26.5502 112.015 26.7542 111.863 27.0182C111.711 27.2742 111.611 27.5742 111.563 27.9182C111.555 28.0142 111.519 28.0862 111.455 28.1342C111.391 28.1742 111.335 28.1942 111.287 28.1942H111.047C110.967 28.1942 110.903 28.1742 110.855 28.1342C110.815 28.0862 110.795 28.0302 110.795 27.9662C110.803 27.6942 110.859 27.4142 110.963 27.1262C111.067 26.8302 111.223 26.5582 111.431 26.3102C111.647 26.0622 111.919 25.8622 112.247 25.7102C112.575 25.5502 112.967 25.4702 113.423 25.4702C114.031 25.4702 114.519 25.5862 114.887 25.8182C115.263 26.0502 115.535 26.3502 115.703 26.7182C115.871 27.0862 115.955 27.4822 115.955 27.9062C115.955 28.2342 115.907 28.5382 115.811 28.8182C115.715 29.0902 115.571 29.3582 115.379 29.6222C115.187 29.8782 114.943 30.1422 114.647 30.4142L111.839 33.2702H115.859C115.947 33.2702 116.015 33.2942 116.063 33.3422C116.111 33.3902 116.135 33.4582 116.135 33.5462V33.7262C116.135 33.8062 116.111 33.8702 116.063 33.9182C116.015 33.9662 115.947 33.9902 115.859 33.9902H110.939ZM121.497 33.9902C121.417 33.9902 121.353 33.9662 121.305 33.9182C121.257 33.8702 121.233 33.8062 121.233 33.7262V31.8302H117.273C117.193 31.8302 117.129 31.8062 117.081 31.7582C117.033 31.7102 117.009 31.6462 117.009 31.5662V31.3742C117.009 31.3582 117.017 31.3142 117.033 31.2422C117.049 31.1702 117.085 31.0942 117.141 31.0142L120.789 25.7942C120.885 25.6582 121.033 25.5902 121.233 25.5902H121.725C121.805 25.5902 121.869 25.6142 121.917 25.6622C121.965 25.7102 121.989 25.7742 121.989 25.8542V31.1102H123.081C123.161 31.1102 123.225 31.1342 123.273 31.1822C123.321 31.2302 123.345 31.2942 123.345 31.3742V31.5662C123.345 31.6462 123.321 31.7102 123.273 31.7582C123.225 31.8062 123.161 31.8302 123.081 31.8302H121.989V33.7262C121.989 33.8062 121.965 33.8702 121.917 33.9182C121.869 33.9662 121.805 33.9902 121.725 33.9902H121.497ZM117.957 31.1102H121.233V26.4422L117.957 31.1102Z" fill="#707070"/>
</svg>
