<svg width="141" height="39" viewBox="0 0 141 39" fill="none" xmlns="http://www.w3.org/2000/svg">
<path d="M0.56 15.6843C0.485333 15.6843 0.42 15.6563 0.364 15.6003C0.308 15.5443 0.28 15.479 0.28 15.4043C0.28 15.3577 0.284667 15.3063 0.294 15.2503L3.766 6.19233C3.80333 6.09899 3.85467 6.02433 3.92 5.96833C3.98533 5.91233 4.08333 5.88433 4.214 5.88433H5.166C5.28733 5.88433 5.38067 5.91233 5.446 5.96833C5.52067 6.02433 5.57667 6.09899 5.614 6.19233L9.072 15.2503C9.09067 15.3063 9.1 15.3577 9.1 15.4043C9.1 15.479 9.072 15.5443 9.016 15.6003C8.96 15.6563 8.89467 15.6843 8.82 15.6843H8.106C7.994 15.6843 7.91 15.6563 7.854 15.6003C7.80733 15.5443 7.77467 15.493 7.756 15.4463L6.986 13.4583H2.394L1.624 15.4463C1.61467 15.493 1.582 15.5443 1.526 15.6003C1.47 15.6563 1.386 15.6843 1.274 15.6843H0.56ZM2.8 12.2543H6.58L4.69 7.28433L2.8 12.2543ZM10.7369 15.6843C10.6436 15.6843 10.5642 15.6563 10.4989 15.6003C10.4429 15.535 10.4149 15.4557 10.4149 15.3623V8.72633C10.4149 8.63299 10.4429 8.55833 10.4989 8.50233C10.5642 8.43699 10.6436 8.40433 10.7369 8.40433H11.3669C11.4602 8.40433 11.5349 8.43699 11.5909 8.50233C11.6562 8.55833 11.6889 8.63299 11.6889 8.72633V9.21633C11.9036 8.92699 12.1742 8.69833 12.5009 8.53033C12.8276 8.35299 13.2196 8.26433 13.6769 8.26433C14.7316 8.25499 15.4782 8.68433 15.9169 9.55233C16.1316 9.16033 16.4442 8.84766 16.8549 8.61433C17.2656 8.38099 17.7322 8.26433 18.2549 8.26433C18.7402 8.26433 19.1789 8.37633 19.5709 8.60033C19.9722 8.82433 20.2849 9.16499 20.5089 9.62233C20.7422 10.0703 20.8589 10.635 20.8589 11.3163V15.3623C20.8589 15.4557 20.8262 15.535 20.7609 15.6003C20.7049 15.6563 20.6302 15.6843 20.5369 15.6843H19.8789C19.7856 15.6843 19.7062 15.6563 19.6409 15.6003C19.5849 15.535 19.5569 15.4557 19.5569 15.3623V11.4423C19.5569 10.9197 19.4822 10.509 19.3329 10.2103C19.1836 9.91166 18.9829 9.70166 18.7309 9.58033C18.4789 9.45899 18.2036 9.39833 17.9049 9.39833C17.6622 9.39833 17.4149 9.45899 17.1629 9.58033C16.9109 9.70166 16.7009 9.91166 16.5329 10.2103C16.3742 10.509 16.2949 10.9197 16.2949 11.4423V15.3623C16.2949 15.4557 16.2622 15.535 16.1969 15.6003C16.1409 15.6563 16.0662 15.6843 15.9729 15.6843H15.3149C15.2216 15.6843 15.1422 15.6563 15.0769 15.6003C15.0209 15.535 14.9929 15.4557 14.9929 15.3623V11.4423C14.9929 10.9197 14.9136 10.509 14.7549 10.2103C14.5962 9.91166 14.3909 9.70166 14.1389 9.58033C13.8869 9.45899 13.6209 9.39833 13.3409 9.39833C13.0982 9.39833 12.8509 9.45899 12.5989 9.58033C12.3469 9.70166 12.1369 9.91166 11.9689 10.2103C11.8102 10.509 11.7309 10.915 11.7309 11.4283V15.3623C11.7309 15.4557 11.6982 15.535 11.6329 15.6003C11.5769 15.6563 11.5022 15.6843 11.4089 15.6843H10.7369ZM23.1783 15.6843C23.085 15.6843 23.0056 15.6563 22.9403 15.6003C22.8843 15.535 22.8563 15.4557 22.8563 15.3623V8.72633C22.8563 8.63299 22.8843 8.55833 22.9403 8.50233C23.0056 8.43699 23.085 8.40433 23.1783 8.40433H23.8503C23.9436 8.40433 24.0183 8.43699 24.0743 8.50233C24.1303 8.55833 24.1583 8.63299 24.1583 8.72633V15.3623C24.1583 15.4557 24.1303 15.535 24.0743 15.6003C24.0183 15.6563 23.9436 15.6843 23.8503 15.6843H23.1783ZM23.0663 7.04633C22.973 7.04633 22.8936 7.01833 22.8283 6.96233C22.7723 6.89699 22.7443 6.81766 22.7443 6.72433V5.96833C22.7443 5.87499 22.7723 5.80033 22.8283 5.74433C22.8936 5.67899 22.973 5.64633 23.0663 5.64633H23.9483C24.0416 5.64633 24.1163 5.67899 24.1723 5.74433C24.2376 5.80033 24.2703 5.87499 24.2703 5.96833V6.72433C24.2703 6.81766 24.2376 6.89699 24.1723 6.96233C24.1163 7.01833 24.0416 7.04633 23.9483 7.04633H23.0663ZM28.7669 15.8243C28.2443 15.8243 27.7963 15.759 27.4229 15.6283C27.0496 15.4977 26.7463 15.339 26.5129 15.1523C26.2796 14.9657 26.1023 14.779 25.9809 14.5923C25.8689 14.4057 25.8083 14.2563 25.7989 14.1443C25.7896 14.0417 25.8223 13.9623 25.8969 13.9063C25.9716 13.8503 26.0463 13.8223 26.1209 13.8223H26.7369C26.7929 13.8223 26.8349 13.8317 26.8629 13.8503C26.9003 13.8597 26.9469 13.897 27.0029 13.9623C27.1243 14.093 27.2596 14.2237 27.4089 14.3543C27.5583 14.485 27.7403 14.5923 27.9549 14.6763C28.1789 14.7603 28.4543 14.8023 28.7809 14.8023C29.2569 14.8023 29.6489 14.7137 29.9569 14.5363C30.2649 14.3497 30.4189 14.079 30.4189 13.7243C30.4189 13.491 30.3536 13.3043 30.2229 13.1643C30.1016 13.0243 29.8776 12.8983 29.5509 12.7863C29.2336 12.6743 28.7949 12.5577 28.2349 12.4363C27.6749 12.3057 27.2316 12.147 26.9049 11.9603C26.5783 11.7643 26.3449 11.5357 26.2049 11.2743C26.0649 11.0037 25.9949 10.7003 25.9949 10.3643C25.9949 10.019 26.0976 9.68766 26.3029 9.37033C26.5083 9.04366 26.8069 8.77766 27.1989 8.57233C27.6003 8.36699 28.0996 8.26433 28.6969 8.26433C29.1823 8.26433 29.5976 8.32499 29.9429 8.44633C30.2883 8.56766 30.5729 8.72166 30.7969 8.90833C31.0209 9.08566 31.1889 9.26299 31.3009 9.44033C31.4129 9.61766 31.4736 9.76699 31.4829 9.88833C31.4923 9.98166 31.4643 10.061 31.3989 10.1263C31.3336 10.1823 31.2589 10.2103 31.1749 10.2103H30.5869C30.5216 10.2103 30.4656 10.1963 30.4189 10.1683C30.3816 10.1403 30.3443 10.1077 30.3069 10.0703C30.2136 9.94899 30.1016 9.82766 29.9709 9.70633C29.8496 9.58499 29.6863 9.48699 29.4809 9.41233C29.2849 9.32833 29.0236 9.28633 28.6969 9.28633C28.2303 9.28633 27.8803 9.38433 27.6469 9.58033C27.4136 9.77633 27.2969 10.0237 27.2969 10.3223C27.2969 10.4997 27.3483 10.6583 27.4509 10.7983C27.5536 10.9383 27.7496 11.0643 28.0389 11.1763C28.3283 11.2883 28.7576 11.4097 29.3269 11.5403C29.9429 11.6617 30.4283 11.825 30.7829 12.0303C31.1376 12.2357 31.3896 12.4737 31.5389 12.7443C31.6883 13.015 31.7629 13.3277 31.7629 13.6823C31.7629 14.0743 31.6463 14.4337 31.4129 14.7603C31.1889 15.087 30.8529 15.3483 30.4049 15.5443C29.9663 15.731 29.4203 15.8243 28.7669 15.8243ZM33.7197 15.6843C33.6263 15.6843 33.547 15.6563 33.4817 15.6003C33.4257 15.535 33.3977 15.4557 33.3977 15.3623V6.06633C33.3977 5.97299 33.4257 5.89833 33.4817 5.84233C33.547 5.77699 33.6263 5.74433 33.7197 5.74433H34.4197C34.5223 5.74433 34.6017 5.77699 34.6577 5.84233C34.7137 5.89833 34.7417 5.97299 34.7417 6.06633V9.32833C34.9937 9.01099 35.3017 8.75433 35.6657 8.55833C36.0297 8.36233 36.4917 8.26433 37.0517 8.26433C37.6583 8.26433 38.1717 8.39966 38.5917 8.67033C39.021 8.93166 39.343 9.30033 39.5577 9.77633C39.7817 10.243 39.8937 10.789 39.8937 11.4143V15.3623C39.8937 15.4557 39.8657 15.535 39.8097 15.6003C39.7537 15.6563 39.6743 15.6843 39.5717 15.6843H38.8717C38.7783 15.6843 38.699 15.6563 38.6337 15.6003C38.5777 15.535 38.5497 15.4557 38.5497 15.3623V11.4843C38.5497 10.831 38.391 10.3223 38.0737 9.95833C37.7563 9.58499 37.2897 9.39833 36.6737 9.39833C36.095 9.39833 35.6283 9.58499 35.2737 9.95833C34.919 10.3223 34.7417 10.831 34.7417 11.4843V15.3623C34.7417 15.4557 34.7137 15.535 34.6577 15.6003C34.6017 15.6563 34.5223 15.6843 34.4197 15.6843H33.7197ZM43.9449 15.8243C43.4782 15.8243 43.0536 15.731 42.6709 15.5443C42.2882 15.3577 41.9802 15.1057 41.7469 14.7883C41.5136 14.471 41.3969 14.1117 41.3969 13.7103C41.3969 13.0663 41.6582 12.553 42.1809 12.1703C42.7036 11.7877 43.3849 11.5357 44.2249 11.4143L46.3109 11.1203V10.7143C46.3109 10.2663 46.1802 9.91633 45.9189 9.66433C45.6669 9.41233 45.2516 9.28633 44.6729 9.28633C44.2529 9.28633 43.9122 9.37033 43.6509 9.53833C43.3989 9.70633 43.2216 9.92099 43.1189 10.1823C43.0629 10.3223 42.9649 10.3923 42.8249 10.3923H42.1949C42.0922 10.3923 42.0129 10.3643 41.9569 10.3083C41.9102 10.243 41.8869 10.1683 41.8869 10.0843C41.8869 9.94433 41.9382 9.77166 42.0409 9.56633C42.1529 9.36099 42.3209 9.16033 42.5449 8.96433C42.7689 8.76833 43.0536 8.60499 43.3989 8.47433C43.7536 8.33433 44.1829 8.26433 44.6869 8.26433C45.2469 8.26433 45.7182 8.33899 46.1009 8.48833C46.4836 8.62833 46.7822 8.81966 46.9969 9.06233C47.2209 9.30499 47.3796 9.58033 47.4729 9.88833C47.5756 10.1963 47.6269 10.509 47.6269 10.8263V15.3623C47.6269 15.4557 47.5942 15.535 47.5289 15.6003C47.4729 15.6563 47.3982 15.6843 47.3049 15.6843H46.6609C46.5582 15.6843 46.4789 15.6563 46.4229 15.6003C46.3669 15.535 46.3389 15.4557 46.3389 15.3623V14.7603C46.2176 14.9283 46.0542 15.0963 45.8489 15.2643C45.6436 15.423 45.3869 15.5583 45.0789 15.6703C44.7709 15.773 44.3929 15.8243 43.9449 15.8243ZM44.2389 14.7743C44.6216 14.7743 44.9716 14.695 45.2889 14.5363C45.6062 14.3683 45.8536 14.1117 46.0309 13.7663C46.2176 13.421 46.3109 12.987 46.3109 12.4643V12.0723L44.6869 12.3103C44.0242 12.4037 43.5249 12.5623 43.1889 12.7863C42.8529 13.001 42.6849 13.2763 42.6849 13.6123C42.6849 13.8737 42.7596 14.093 42.9089 14.2703C43.0676 14.4383 43.2636 14.5643 43.4969 14.6483C43.7396 14.7323 43.9869 14.7743 44.2389 14.7743ZM52.226 15.6843C52.1513 15.6843 52.086 15.6563 52.03 15.6003C51.974 15.5443 51.946 15.479 51.946 15.4043C51.946 15.3577 51.9507 15.3063 51.96 15.2503L55.432 6.19233C55.4693 6.09899 55.5207 6.02433 55.586 5.96833C55.6513 5.91233 55.7493 5.88433 55.88 5.88433H56.832C56.9533 5.88433 57.0467 5.91233 57.112 5.96833C57.1867 6.02433 57.2427 6.09899 57.28 6.19233L60.738 15.2503C60.7567 15.3063 60.766 15.3577 60.766 15.4043C60.766 15.479 60.738 15.5443 60.682 15.6003C60.626 15.6563 60.5607 15.6843 60.486 15.6843H59.772C59.66 15.6843 59.576 15.6563 59.52 15.6003C59.4733 15.5443 59.4407 15.493 59.422 15.4463L58.652 13.4583H54.06L53.29 15.4463C53.2807 15.493 53.248 15.5443 53.192 15.6003C53.136 15.6563 53.052 15.6843 52.94 15.6843H52.226ZM54.466 12.2543H58.246L56.356 7.28433L54.466 12.2543ZM62.4169 15.6843C62.3236 15.6843 62.2443 15.6563 62.1789 15.6003C62.1229 15.535 62.0949 15.4557 62.0949 15.3623V6.06633C62.0949 5.97299 62.1229 5.89833 62.1789 5.84233C62.2443 5.77699 62.3236 5.74433 62.4169 5.74433H63.0749C63.1683 5.74433 63.2429 5.77699 63.2989 5.84233C63.3643 5.89833 63.3969 5.97299 63.3969 6.06633V10.9383L66.1549 8.64233C66.2669 8.54899 66.3509 8.48833 66.4069 8.46033C66.4723 8.42299 66.5749 8.40433 66.7149 8.40433H67.4569C67.5409 8.40433 67.6109 8.43233 67.6669 8.48833C67.7229 8.54433 67.7509 8.61433 67.7509 8.69833C67.7509 8.73566 67.7369 8.77766 67.7089 8.82433C67.6903 8.87099 67.6483 8.91766 67.5829 8.96433L64.3489 11.6523L67.9329 15.1383C68.0449 15.2317 68.1009 15.3157 68.1009 15.3903C68.1009 15.4743 68.0729 15.5443 68.0169 15.6003C67.9609 15.6563 67.8909 15.6843 67.8069 15.6843H67.0789C66.9389 15.6843 66.8363 15.6703 66.7709 15.6423C66.7056 15.605 66.6216 15.5397 66.5189 15.4463L63.3969 12.4643V15.3623C63.3969 15.4557 63.3643 15.535 63.2989 15.6003C63.2429 15.6563 63.1683 15.6843 63.0749 15.6843H62.4169ZM69.6357 15.6843C69.5423 15.6843 69.463 15.6563 69.3977 15.6003C69.3417 15.535 69.3137 15.4557 69.3137 15.3623V6.06633C69.3137 5.97299 69.3417 5.89833 69.3977 5.84233C69.463 5.77699 69.5423 5.74433 69.6357 5.74433H70.3357C70.4383 5.74433 70.5177 5.77699 70.5737 5.84233C70.6297 5.89833 70.6577 5.97299 70.6577 6.06633V9.32833C70.9097 9.01099 71.2177 8.75433 71.5817 8.55833C71.9457 8.36233 72.4077 8.26433 72.9677 8.26433C73.5743 8.26433 74.0877 8.39966 74.5077 8.67033C74.937 8.93166 75.259 9.30033 75.4737 9.77633C75.6977 10.243 75.8097 10.789 75.8097 11.4143V15.3623C75.8097 15.4557 75.7817 15.535 75.7257 15.6003C75.6697 15.6563 75.5903 15.6843 75.4877 15.6843H74.7877C74.6943 15.6843 74.615 15.6563 74.5497 15.6003C74.4937 15.535 74.4657 15.4557 74.4657 15.3623V11.4843C74.4657 10.831 74.307 10.3223 73.9897 9.95833C73.6723 9.58499 73.2057 9.39833 72.5897 9.39833C72.011 9.39833 71.5443 9.58499 71.1897 9.95833C70.835 10.3223 70.6577 10.831 70.6577 11.4843V15.3623C70.6577 15.4557 70.6297 15.535 70.5737 15.6003C70.5177 15.6563 70.4383 15.6843 70.3357 15.6843H69.6357ZM80.5772 15.6843C80.0546 15.6843 79.6299 15.5863 79.3032 15.3903C78.9766 15.185 78.7386 14.9003 78.5892 14.5363C78.4399 14.163 78.3652 13.7243 78.3652 13.2203V9.52433H77.2732C77.1799 9.52433 77.1006 9.49633 77.0352 9.44033C76.9792 9.37499 76.9512 9.29566 76.9512 9.20233V8.72633C76.9512 8.63299 76.9792 8.55833 77.0352 8.50233C77.1006 8.43699 77.1799 8.40433 77.2732 8.40433H78.3652V6.06633C78.3652 5.97299 78.3932 5.89833 78.4492 5.84233C78.5146 5.77699 78.5939 5.74433 78.6872 5.74433H79.3452C79.4386 5.74433 79.5132 5.77699 79.5692 5.84233C79.6346 5.89833 79.6672 5.97299 79.6672 6.06633V8.40433H81.4032C81.4966 8.40433 81.5712 8.43699 81.6272 8.50233C81.6926 8.55833 81.7252 8.63299 81.7252 8.72633V9.20233C81.7252 9.29566 81.6926 9.37499 81.6272 9.44033C81.5712 9.49633 81.4966 9.52433 81.4032 9.52433H79.6672V13.1223C79.6672 13.561 79.7419 13.9063 79.8912 14.1583C80.0406 14.4103 80.3066 14.5363 80.6892 14.5363H81.5432C81.6366 14.5363 81.7112 14.569 81.7672 14.6343C81.8326 14.6903 81.8652 14.765 81.8652 14.8583V15.3623C81.8652 15.4557 81.8326 15.535 81.7672 15.6003C81.7112 15.6563 81.6366 15.6843 81.5432 15.6843H80.5772ZM85.234 15.8243C84.7673 15.8243 84.3426 15.731 83.96 15.5443C83.5773 15.3577 83.2693 15.1057 83.036 14.7883C82.8026 14.471 82.686 14.1117 82.686 13.7103C82.686 13.0663 82.9473 12.553 83.47 12.1703C83.9926 11.7877 84.674 11.5357 85.514 11.4143L87.6 11.1203V10.7143C87.6 10.2663 87.4693 9.91633 87.208 9.66433C86.956 9.41233 86.5406 9.28633 85.962 9.28633C85.542 9.28633 85.2013 9.37033 84.94 9.53833C84.688 9.70633 84.5106 9.92099 84.408 10.1823C84.352 10.3223 84.254 10.3923 84.114 10.3923H83.484C83.3813 10.3923 83.302 10.3643 83.246 10.3083C83.1993 10.243 83.176 10.1683 83.176 10.0843C83.176 9.94433 83.2273 9.77166 83.33 9.56633C83.442 9.36099 83.61 9.16033 83.834 8.96433C84.058 8.76833 84.3426 8.60499 84.688 8.47433C85.0426 8.33433 85.472 8.26433 85.976 8.26433C86.536 8.26433 87.0073 8.33899 87.39 8.48833C87.7726 8.62833 88.0713 8.81966 88.286 9.06233C88.51 9.30499 88.6686 9.58033 88.762 9.88833C88.8646 10.1963 88.916 10.509 88.916 10.8263V15.3623C88.916 15.4557 88.8833 15.535 88.818 15.6003C88.762 15.6563 88.6873 15.6843 88.594 15.6843H87.95C87.8473 15.6843 87.768 15.6563 87.712 15.6003C87.656 15.535 87.628 15.4557 87.628 15.3623V14.7603C87.5066 14.9283 87.3433 15.0963 87.138 15.2643C86.9326 15.423 86.676 15.5583 86.368 15.6703C86.06 15.773 85.682 15.8243 85.234 15.8243ZM85.528 14.7743C85.9106 14.7743 86.2606 14.695 86.578 14.5363C86.8953 14.3683 87.1426 14.1117 87.32 13.7663C87.5066 13.421 87.6 12.987 87.6 12.4643V12.0723L85.976 12.3103C85.3133 12.4037 84.814 12.5623 84.478 12.7863C84.142 13.001 83.974 13.2763 83.974 13.6123C83.974 13.8737 84.0486 14.093 84.198 14.2703C84.3566 14.4383 84.5526 14.5643 84.786 14.6483C85.0286 14.7323 85.276 14.7743 85.528 14.7743ZM91.2506 15.6843C91.1572 15.6843 91.0779 15.6563 91.0126 15.6003C90.9566 15.535 90.9286 15.4557 90.9286 15.3623V8.74033C90.9286 8.64699 90.9566 8.56766 91.0126 8.50233C91.0779 8.43699 91.1572 8.40433 91.2506 8.40433H91.8946C91.9879 8.40433 92.0672 8.43699 92.1326 8.50233C92.1979 8.56766 92.2306 8.64699 92.2306 8.74033V9.35633C92.4172 9.03899 92.6739 8.80099 93.0006 8.64233C93.3272 8.48366 93.7192 8.40433 94.1766 8.40433H94.7366C94.8299 8.40433 94.9046 8.43699 94.9606 8.50233C95.0166 8.55833 95.0446 8.63299 95.0446 8.72633V9.30033C95.0446 9.39366 95.0166 9.46833 94.9606 9.52433C94.9046 9.58033 94.8299 9.60833 94.7366 9.60833H93.8966C93.3926 9.60833 92.9959 9.75766 92.7066 10.0563C92.4172 10.3457 92.2726 10.7423 92.2726 11.2463V15.3623C92.2726 15.4557 92.2399 15.535 92.1746 15.6003C92.1092 15.6563 92.0299 15.6843 91.9366 15.6843H91.2506ZM99.8545 15.6843C99.7611 15.6843 99.6818 15.6563 99.6165 15.6003C99.5605 15.535 99.5325 15.4557 99.5325 15.3623V6.22033C99.5325 6.11766 99.5605 6.03833 99.6165 5.98233C99.6818 5.91699 99.7611 5.88433 99.8545 5.88433H100.554C100.666 5.88433 100.75 5.91233 100.806 5.96833C100.862 6.02433 100.895 6.07099 100.904 6.10833L103.872 11.7643L106.854 6.10833C106.873 6.07099 106.906 6.02433 106.952 5.96833C107.008 5.91233 107.092 5.88433 107.204 5.88433H107.89C107.993 5.88433 108.072 5.91699 108.128 5.98233C108.194 6.03833 108.226 6.11766 108.226 6.22033V15.3623C108.226 15.4557 108.194 15.535 108.128 15.6003C108.072 15.6563 107.993 15.6843 107.89 15.6843H107.204C107.111 15.6843 107.032 15.6563 106.966 15.6003C106.91 15.535 106.882 15.4557 106.882 15.3623V8.47433L104.544 13.0383C104.507 13.1317 104.451 13.2063 104.376 13.2623C104.302 13.309 104.208 13.3323 104.096 13.3323H103.662C103.541 13.3323 103.443 13.309 103.368 13.2623C103.303 13.2063 103.247 13.1317 103.2 13.0383L100.862 8.47433V15.3623C100.862 15.4557 100.83 15.535 100.764 15.6003C100.708 15.6563 100.634 15.6843 100.54 15.6843H99.8545ZM113.182 15.8243C112.584 15.8243 112.076 15.6937 111.656 15.4323C111.245 15.1617 110.932 14.7883 110.718 14.3123C110.503 13.8363 110.396 13.2903 110.396 12.6743V8.72633C110.396 8.63299 110.424 8.55833 110.48 8.50233C110.545 8.43699 110.624 8.40433 110.718 8.40433H111.418C111.511 8.40433 111.586 8.43699 111.642 8.50233C111.707 8.55833 111.74 8.63299 111.74 8.72633V12.6043C111.74 13.995 112.346 14.6903 113.56 14.6903C114.138 14.6903 114.6 14.5083 114.946 14.1443C115.3 13.771 115.478 13.2577 115.478 12.6043V8.72633C115.478 8.63299 115.506 8.55833 115.562 8.50233C115.627 8.43699 115.706 8.40433 115.8 8.40433H116.486C116.588 8.40433 116.668 8.43699 116.724 8.50233C116.78 8.55833 116.808 8.63299 116.808 8.72633V15.3623C116.808 15.4557 116.78 15.535 116.724 15.6003C116.668 15.6563 116.588 15.6843 116.486 15.6843H115.842C115.748 15.6843 115.669 15.6563 115.604 15.6003C115.548 15.535 115.52 15.4557 115.52 15.3623V14.7463C115.268 15.073 114.96 15.3343 114.596 15.5303C114.241 15.7263 113.77 15.8243 113.182 15.8243ZM119.224 15.6843C119.13 15.6843 119.051 15.6563 118.986 15.6003C118.93 15.535 118.902 15.4557 118.902 15.3623V6.06633C118.902 5.97299 118.93 5.89833 118.986 5.84233C119.051 5.77699 119.13 5.74433 119.224 5.74433H119.882C119.984 5.74433 120.064 5.77699 120.12 5.84233C120.176 5.89833 120.204 5.97299 120.204 6.06633V15.3623C120.204 15.4557 120.176 15.535 120.12 15.6003C120.064 15.6563 119.984 15.6843 119.882 15.6843H119.224ZM124.322 15.8243C123.855 15.8243 123.431 15.731 123.048 15.5443C122.665 15.3577 122.357 15.1057 122.124 14.7883C121.891 14.471 121.774 14.1117 121.774 13.7103C121.774 13.0663 122.035 12.553 122.558 12.1703C123.081 11.7877 123.762 11.5357 124.602 11.4143L126.688 11.1203V10.7143C126.688 10.2663 126.557 9.91633 126.296 9.66433C126.044 9.41233 125.629 9.28633 125.05 9.28633C124.63 9.28633 124.289 9.37033 124.028 9.53833C123.776 9.70633 123.599 9.92099 123.496 10.1823C123.44 10.3223 123.342 10.3923 123.202 10.3923H122.572C122.469 10.3923 122.39 10.3643 122.334 10.3083C122.287 10.243 122.264 10.1683 122.264 10.0843C122.264 9.94433 122.315 9.77166 122.418 9.56633C122.53 9.36099 122.698 9.16033 122.922 8.96433C123.146 8.76833 123.431 8.60499 123.776 8.47433C124.131 8.33433 124.56 8.26433 125.064 8.26433C125.624 8.26433 126.095 8.33899 126.478 8.48833C126.861 8.62833 127.159 8.81966 127.374 9.06233C127.598 9.30499 127.757 9.58033 127.85 9.88833C127.953 10.1963 128.004 10.509 128.004 10.8263V15.3623C128.004 15.4557 127.971 15.535 127.906 15.6003C127.85 15.6563 127.775 15.6843 127.682 15.6843H127.038C126.935 15.6843 126.856 15.6563 126.8 15.6003C126.744 15.535 126.716 15.4557 126.716 15.3623V14.7603C126.595 14.9283 126.431 15.0963 126.226 15.2643C126.021 15.423 125.764 15.5583 125.456 15.6703C125.148 15.773 124.77 15.8243 124.322 15.8243ZM124.616 14.7743C124.999 14.7743 125.349 14.695 125.666 14.5363C125.983 14.3683 126.231 14.1117 126.408 13.7663C126.595 13.421 126.688 12.987 126.688 12.4643V12.0723L125.064 12.3103C124.401 12.4037 123.902 12.5623 123.566 12.7863C123.23 13.001 123.062 13.2763 123.062 13.6123C123.062 13.8737 123.137 14.093 123.286 14.2703C123.445 14.4383 123.641 14.5643 123.874 14.6483C124.117 14.7323 124.364 14.7743 124.616 14.7743ZM130.338 15.6843C130.245 15.6843 130.166 15.6563 130.1 15.6003C130.044 15.535 130.016 15.4557 130.016 15.3623V8.72633C130.016 8.63299 130.044 8.55833 130.1 8.50233C130.166 8.43699 130.245 8.40433 130.338 8.40433H130.996C131.09 8.40433 131.164 8.43699 131.22 8.50233C131.286 8.55833 131.318 8.63299 131.318 8.72633V9.34233C131.561 9.02499 131.864 8.76833 132.228 8.57233C132.602 8.36699 133.078 8.26433 133.656 8.26433C134.263 8.26433 134.776 8.39966 135.196 8.67033C135.626 8.93166 135.948 9.30033 136.162 9.77633C136.377 10.243 136.484 10.789 136.484 11.4143V15.3623C136.484 15.4557 136.456 15.535 136.4 15.6003C136.344 15.6563 136.27 15.6843 136.176 15.6843H135.476C135.383 15.6843 135.304 15.6563 135.238 15.6003C135.182 15.535 135.154 15.4557 135.154 15.3623V11.4843C135.154 10.831 134.996 10.3223 134.678 9.95833C134.361 9.58499 133.894 9.39833 133.278 9.39833C132.7 9.39833 132.233 9.58499 131.878 9.95833C131.533 10.3223 131.36 10.831 131.36 11.4843V15.3623C131.36 15.4557 131.328 15.535 131.262 15.6003C131.206 15.6563 131.132 15.6843 131.038 15.6843H130.338ZM138.829 15.6843C138.735 15.6843 138.656 15.6563 138.591 15.6003C138.535 15.535 138.507 15.4557 138.507 15.3623V8.72633C138.507 8.63299 138.535 8.55833 138.591 8.50233C138.656 8.43699 138.735 8.40433 138.829 8.40433H139.501C139.594 8.40433 139.669 8.43699 139.725 8.50233C139.781 8.55833 139.809 8.63299 139.809 8.72633V15.3623C139.809 15.4557 139.781 15.535 139.725 15.6003C139.669 15.6563 139.594 15.6843 139.501 15.6843H138.829ZM138.717 7.04633C138.623 7.04633 138.544 7.01833 138.479 6.96233C138.423 6.89699 138.395 6.81766 138.395 6.72433V5.96833C138.395 5.87499 138.423 5.80033 138.479 5.74433C138.544 5.67899 138.623 5.64633 138.717 5.64633H139.599C139.692 5.64633 139.767 5.67899 139.823 5.74433C139.888 5.80033 139.921 5.87499 139.921 5.96833V6.72433C139.921 6.81766 139.888 6.89699 139.823 6.96233C139.767 7.01833 139.692 7.04633 139.599 7.04633H138.717Z" fill="#333333"/>
<path d="M1.392 34.6843C1.312 34.6843 1.248 34.6603 1.2 34.6123C1.152 34.5643 1.128 34.5003 1.128 34.4203V26.5603C1.128 26.4723 1.152 26.4043 1.2 26.3563C1.248 26.3083 1.312 26.2843 1.392 26.2843H4.308C4.868 26.2843 5.352 26.3803 5.76 26.5723C6.176 26.7563 6.496 27.0323 6.72 27.4003C6.952 27.7683 7.068 28.2243 7.068 28.7683C7.068 29.3123 6.952 29.7683 6.72 30.1363C6.496 30.5043 6.176 30.7843 5.76 30.9763C5.352 31.1603 4.868 31.2523 4.308 31.2523H1.884V34.4203C1.884 34.5003 1.86 34.5643 1.812 34.6123C1.764 34.6603 1.696 34.6843 1.608 34.6843H1.392ZM1.884 30.5323H4.248C4.944 30.5323 5.46 30.3803 5.796 30.0763C6.14 29.7723 6.312 29.3363 6.312 28.7683C6.312 28.2003 6.14 27.7643 5.796 27.4603C5.46 27.1563 4.944 27.0043 4.248 27.0043H1.884V30.5323ZM10.0817 34.8043C9.69769 34.8043 9.34169 34.7243 9.01369 34.5643C8.69369 34.4043 8.43369 34.1923 8.23369 33.9283C8.03369 33.6563 7.93369 33.3523 7.93369 33.0163C7.93369 32.4723 8.15369 32.0363 8.59369 31.7083C9.03369 31.3803 9.60569 31.1683 10.3097 31.0723L12.2057 30.8083V30.3883C12.2057 29.9643 12.0737 29.6323 11.8097 29.3923C11.5537 29.1443 11.1417 29.0203 10.5737 29.0203C10.1577 29.0203 9.82169 29.1043 9.56569 29.2723C9.30969 29.4323 9.13369 29.6443 9.03769 29.9083C8.99769 30.0283 8.92169 30.0883 8.80969 30.0883H8.61769C8.52169 30.0883 8.45369 30.0643 8.41369 30.0163C8.37369 29.9603 8.35369 29.8963 8.35369 29.8243C8.35369 29.7123 8.39369 29.5723 8.47369 29.4043C8.56169 29.2363 8.69369 29.0723 8.86969 28.9123C9.04569 28.7443 9.27369 28.6043 9.55369 28.4923C9.83369 28.3803 10.1737 28.3243 10.5737 28.3243C11.0457 28.3243 11.4337 28.3883 11.7377 28.5163C12.0497 28.6443 12.2897 28.8123 12.4577 29.0203C12.6337 29.2203 12.7577 29.4443 12.8297 29.6923C12.9017 29.9403 12.9377 30.1843 12.9377 30.4243V34.4203C12.9377 34.5003 12.9137 34.5643 12.8657 34.6123C12.8177 34.6603 12.7537 34.6843 12.6737 34.6843H12.4697C12.3897 34.6843 12.3257 34.6603 12.2777 34.6123C12.2297 34.5643 12.2057 34.5003 12.2057 34.4203V33.8563C12.1097 34.0003 11.9737 34.1443 11.7977 34.2883C11.6217 34.4323 11.3937 34.5563 11.1137 34.6603C10.8417 34.7563 10.4977 34.8043 10.0817 34.8043ZM10.2017 34.1083C10.5697 34.1083 10.9057 34.0283 11.2097 33.8683C11.5137 33.7083 11.7537 33.4643 11.9297 33.1363C12.1137 32.8003 12.2057 32.3803 12.2057 31.8763V31.4683L10.6577 31.6843C10.0017 31.7723 9.50569 31.9243 9.16969 32.1403C8.83369 32.3563 8.66569 32.6283 8.66569 32.9563C8.66569 33.2203 8.74169 33.4363 8.89369 33.6043C9.04569 33.7723 9.23769 33.9003 9.46969 33.9883C9.70969 34.0683 9.95369 34.1083 10.2017 34.1083ZM15.0993 34.6843C15.0193 34.6843 14.9553 34.6603 14.9073 34.6123C14.8593 34.5643 14.8353 34.5003 14.8353 34.4203V28.7203C14.8353 28.6403 14.8593 28.5763 14.9073 28.5283C14.9553 28.4723 15.0193 28.4443 15.0993 28.4443H15.2913C15.3713 28.4443 15.4353 28.4723 15.4833 28.5283C15.5393 28.5763 15.5673 28.6403 15.5673 28.7203V29.2723C15.7113 28.9923 15.9193 28.7843 16.1913 28.6483C16.4633 28.5123 16.7993 28.4443 17.1993 28.4443H17.6433C17.7233 28.4443 17.7873 28.4683 17.8353 28.5163C17.8833 28.5643 17.9073 28.6283 17.9073 28.7083V28.8763C17.9073 28.9563 17.8833 29.0203 17.8353 29.0683C17.7873 29.1163 17.7233 29.1403 17.6433 29.1403H17.1273C16.6473 29.1403 16.2673 29.2803 15.9873 29.5603C15.7073 29.8403 15.5673 30.2203 15.5673 30.7003V34.4203C15.5673 34.5003 15.5393 34.5643 15.4833 34.6123C15.4353 34.6603 15.3713 34.6843 15.2913 34.6843H15.0993ZM21.1072 34.6843C20.6912 34.6843 20.3632 34.5963 20.1232 34.4203C19.8832 34.2443 19.7152 34.0043 19.6192 33.7003C19.5232 33.3963 19.4752 33.0563 19.4752 32.6803V29.1403H18.5392C18.4592 29.1403 18.3952 29.1163 18.3472 29.0683C18.2992 29.0203 18.2752 28.9563 18.2752 28.8763V28.7083C18.2752 28.6283 18.2992 28.5643 18.3472 28.5163C18.3952 28.4683 18.4592 28.4443 18.5392 28.4443H19.4752V26.4283C19.4752 26.3483 19.4992 26.2843 19.5472 26.2363C19.5952 26.1883 19.6592 26.1643 19.7392 26.1643H19.9432C20.0232 26.1643 20.0872 26.1883 20.1352 26.2363C20.1832 26.2843 20.2072 26.3483 20.2072 26.4283V28.4443H21.6952C21.7752 28.4443 21.8392 28.4683 21.8872 28.5163C21.9352 28.5643 21.9592 28.6283 21.9592 28.7083V28.8763C21.9592 28.9563 21.9352 29.0203 21.8872 29.0683C21.8392 29.1163 21.7752 29.1403 21.6952 29.1403H20.2072V32.6323C20.2072 33.0563 20.2752 33.3883 20.4112 33.6283C20.5552 33.8683 20.8072 33.9883 21.1672 33.9883H21.8152C21.8952 33.9883 21.9592 34.0123 22.0072 34.0603C22.0552 34.1083 22.0792 34.1723 22.0792 34.2523V34.4203C22.0792 34.5003 22.0552 34.5643 22.0072 34.6123C21.9592 34.6603 21.8952 34.6843 21.8152 34.6843H21.1072ZM23.5837 34.6843C23.5037 34.6843 23.4397 34.6603 23.3917 34.6123C23.3437 34.5643 23.3197 34.5003 23.3197 34.4203V28.7083C23.3197 28.6283 23.3437 28.5643 23.3917 28.5163C23.4397 28.4683 23.5037 28.4443 23.5837 28.4443H23.7877C23.8677 28.4443 23.9317 28.4683 23.9797 28.5163C24.0277 28.5643 24.0517 28.6283 24.0517 28.7083V34.4203C24.0517 34.5003 24.0277 34.5643 23.9797 34.6123C23.9317 34.6603 23.8677 34.6843 23.7877 34.6843H23.5837ZM23.4517 27.1603C23.3717 27.1603 23.3077 27.1363 23.2597 27.0883C23.2117 27.0403 23.1877 26.9763 23.1877 26.8963V26.4403C23.1877 26.3603 23.2117 26.2963 23.2597 26.2483C23.3077 26.1923 23.3717 26.1643 23.4517 26.1643H23.9077C23.9877 26.1643 24.0517 26.1923 24.0997 26.2483C24.1557 26.2963 24.1837 26.3603 24.1837 26.4403V26.8963C24.1837 26.9763 24.1557 27.0403 24.0997 27.0883C24.0517 27.1363 23.9877 27.1603 23.9077 27.1603H23.4517ZM28.3555 34.8043C27.7955 34.8043 27.3195 34.6963 26.9275 34.4803C26.5355 34.2563 26.2355 33.9363 26.0275 33.5203C25.8275 33.1043 25.7195 32.6123 25.7035 32.0443C25.6955 31.9243 25.6915 31.7643 25.6915 31.5643C25.6915 31.3643 25.6955 31.2043 25.7035 31.0843C25.7195 30.5083 25.8275 30.0163 26.0275 29.6083C26.2355 29.1923 26.5355 28.8763 26.9275 28.6603C27.3195 28.4363 27.7955 28.3243 28.3555 28.3243C28.7795 28.3243 29.1435 28.3843 29.4475 28.5043C29.7595 28.6163 30.0155 28.7683 30.2155 28.9603C30.4155 29.1443 30.5675 29.3483 30.6715 29.5723C30.7755 29.7963 30.8315 30.0163 30.8395 30.2323C30.8475 30.3123 30.8235 30.3763 30.7675 30.4243C30.7115 30.4723 30.6475 30.4963 30.5755 30.4963H30.4075C30.3275 30.4963 30.2675 30.4803 30.2275 30.4483C30.1955 30.4083 30.1595 30.3403 30.1195 30.2443C29.9515 29.7883 29.7195 29.4723 29.4235 29.2963C29.1355 29.1123 28.7795 29.0203 28.3555 29.0203C27.8115 29.0203 27.3595 29.1883 26.9995 29.5243C26.6475 29.8523 26.4595 30.3923 26.4355 31.1443C26.4195 31.4243 26.4195 31.7043 26.4355 31.9843C26.4595 32.7363 26.6475 33.2803 26.9995 33.6163C27.3595 33.9443 27.8115 34.1083 28.3555 34.1083C28.7795 34.1083 29.1355 34.0203 29.4235 33.8443C29.7195 33.6603 29.9515 33.3403 30.1195 32.8843C30.1595 32.7883 30.1955 32.7243 30.2275 32.6923C30.2675 32.6523 30.3275 32.6323 30.4075 32.6323H30.5755C30.6475 32.6323 30.7115 32.6563 30.7675 32.7043C30.8235 32.7523 30.8475 32.8163 30.8395 32.8963C30.8315 33.0723 30.7955 33.2483 30.7315 33.4243C30.6675 33.6003 30.5675 33.7723 30.4315 33.9403C30.3035 34.1083 30.1435 34.2563 29.9515 34.3843C29.7595 34.5123 29.5275 34.6123 29.2555 34.6843C28.9915 34.7643 28.6915 34.8043 28.3555 34.8043ZM32.6891 34.6843C32.6091 34.6843 32.5451 34.6603 32.4971 34.6123C32.4491 34.5643 32.4251 34.5003 32.4251 34.4203V28.7083C32.4251 28.6283 32.4491 28.5643 32.4971 28.5163C32.5451 28.4683 32.6091 28.4443 32.6891 28.4443H32.8931C32.9731 28.4443 33.0371 28.4683 33.0851 28.5163C33.1331 28.5643 33.1571 28.6283 33.1571 28.7083V34.4203C33.1571 34.5003 33.1331 34.5643 33.0851 34.6123C33.0371 34.6603 32.9731 34.6843 32.8931 34.6843H32.6891ZM32.5571 27.1603C32.4771 27.1603 32.4131 27.1363 32.3651 27.0883C32.3171 27.0403 32.2931 26.9763 32.2931 26.8963V26.4403C32.2931 26.3603 32.3171 26.2963 32.3651 26.2483C32.4131 26.1923 32.4771 26.1643 32.5571 26.1643H33.0131C33.0931 26.1643 33.1571 26.1923 33.2051 26.2483C33.2611 26.2963 33.2891 26.3603 33.2891 26.4403V26.8963C33.2891 26.9763 33.2611 27.0403 33.2051 27.0883C33.1571 27.1363 33.0931 27.1603 33.0131 27.1603H32.5571ZM35.373 36.9643C35.293 36.9643 35.229 36.9403 35.181 36.8923C35.133 36.8443 35.109 36.7803 35.109 36.7003V28.7083C35.109 28.6283 35.133 28.5643 35.181 28.5163C35.229 28.4683 35.293 28.4443 35.373 28.4443H35.577C35.657 28.4443 35.721 28.4683 35.769 28.5163C35.817 28.5643 35.841 28.6283 35.841 28.7083V29.2723C36.041 29.0003 36.301 28.7763 36.621 28.6003C36.949 28.4163 37.361 28.3243 37.857 28.3243C38.329 28.3243 38.725 28.4083 39.045 28.5763C39.365 28.7363 39.625 28.9523 39.825 29.2243C40.025 29.4963 40.173 29.8003 40.269 30.1363C40.365 30.4723 40.417 30.8163 40.425 31.1683C40.433 31.2883 40.437 31.4203 40.437 31.5643C40.437 31.7083 40.433 31.8403 40.425 31.9603C40.417 32.3123 40.365 32.6563 40.269 32.9923C40.173 33.3283 40.025 33.6323 39.825 33.9043C39.625 34.1763 39.365 34.3963 39.045 34.5643C38.725 34.7243 38.329 34.8043 37.857 34.8043C37.361 34.8043 36.949 34.7123 36.621 34.5283C36.301 34.3443 36.041 34.1203 35.841 33.8563V36.7003C35.841 36.7803 35.817 36.8443 35.769 36.8923C35.721 36.9403 35.657 36.9643 35.577 36.9643H35.373ZM37.785 34.1083C38.257 34.1083 38.629 34.0043 38.901 33.7963C39.173 33.5883 39.369 33.3163 39.489 32.9803C39.609 32.6443 39.677 32.2843 39.693 31.9003C39.701 31.6763 39.701 31.4523 39.693 31.2283C39.677 30.8443 39.609 30.4843 39.489 30.1483C39.369 29.8123 39.173 29.5403 38.901 29.3323C38.629 29.1243 38.257 29.0203 37.785 29.0203C37.329 29.0203 36.961 29.1283 36.681 29.3443C36.401 29.5603 36.193 29.8323 36.057 30.1603C35.929 30.4803 35.857 30.8043 35.841 31.1323C35.833 31.2523 35.829 31.4083 35.829 31.6003C35.829 31.7923 35.833 31.9483 35.841 32.0683C35.849 32.3883 35.921 32.7043 36.057 33.0163C36.201 33.3283 36.413 33.5883 36.693 33.7963C36.981 34.0043 37.345 34.1083 37.785 34.1083ZM43.7497 34.8043C43.3657 34.8043 43.0097 34.7243 42.6817 34.5643C42.3617 34.4043 42.1017 34.1923 41.9017 33.9283C41.7017 33.6563 41.6017 33.3523 41.6017 33.0163C41.6017 32.4723 41.8217 32.0363 42.2617 31.7083C42.7017 31.3803 43.2737 31.1683 43.9777 31.0723L45.8737 30.8083V30.3883C45.8737 29.9643 45.7417 29.6323 45.4777 29.3923C45.2217 29.1443 44.8097 29.0203 44.2417 29.0203C43.8257 29.0203 43.4897 29.1043 43.2337 29.2723C42.9777 29.4323 42.8017 29.6443 42.7057 29.9083C42.6657 30.0283 42.5897 30.0883 42.4777 30.0883H42.2857C42.1897 30.0883 42.1217 30.0643 42.0817 30.0163C42.0417 29.9603 42.0217 29.8963 42.0217 29.8243C42.0217 29.7123 42.0617 29.5723 42.1417 29.4043C42.2297 29.2363 42.3617 29.0723 42.5377 28.9123C42.7137 28.7443 42.9417 28.6043 43.2217 28.4923C43.5017 28.3803 43.8417 28.3243 44.2417 28.3243C44.7137 28.3243 45.1017 28.3883 45.4057 28.5163C45.7177 28.6443 45.9577 28.8123 46.1257 29.0203C46.3017 29.2203 46.4257 29.4443 46.4977 29.6923C46.5697 29.9403 46.6057 30.1843 46.6057 30.4243V34.4203C46.6057 34.5003 46.5817 34.5643 46.5337 34.6123C46.4857 34.6603 46.4217 34.6843 46.3417 34.6843H46.1377C46.0577 34.6843 45.9937 34.6603 45.9457 34.6123C45.8977 34.5643 45.8737 34.5003 45.8737 34.4203V33.8563C45.7777 34.0003 45.6417 34.1443 45.4657 34.2883C45.2897 34.4323 45.0617 34.5563 44.7817 34.6603C44.5097 34.7563 44.1657 34.8043 43.7497 34.8043ZM43.8697 34.1083C44.2377 34.1083 44.5737 34.0283 44.8777 33.8683C45.1817 33.7083 45.4217 33.4643 45.5977 33.1363C45.7817 32.8003 45.8737 32.3803 45.8737 31.8763V31.4683L44.3257 31.6843C43.6697 31.7723 43.1737 31.9243 42.8377 32.1403C42.5017 32.3563 42.3337 32.6283 42.3337 32.9563C42.3337 33.2203 42.4097 33.4363 42.5617 33.6043C42.7137 33.7723 42.9057 33.9003 43.1377 33.9883C43.3777 34.0683 43.6217 34.1083 43.8697 34.1083ZM48.7673 34.6843C48.6873 34.6843 48.6233 34.6603 48.5753 34.6123C48.5273 34.5643 48.5033 34.5003 48.5033 34.4203V28.7083C48.5033 28.6283 48.5273 28.5643 48.5753 28.5163C48.6233 28.4683 48.6873 28.4443 48.7673 28.4443H48.9713C49.0513 28.4443 49.1153 28.4683 49.1633 28.5163C49.2113 28.5643 49.2353 28.6283 49.2353 28.7083V29.2723C49.4513 28.9923 49.7113 28.7643 50.0153 28.5883C50.3273 28.4123 50.7393 28.3243 51.2513 28.3243C51.7953 28.3243 52.2473 28.4443 52.6073 28.6843C52.9753 28.9163 53.2473 29.2363 53.4233 29.6443C53.6073 30.0443 53.6992 30.5003 53.6992 31.0123V34.4203C53.6992 34.5003 53.6753 34.5643 53.6273 34.6123C53.5793 34.6603 53.5153 34.6843 53.4353 34.6843H53.2313C53.1513 34.6843 53.0873 34.6603 53.0393 34.6123C52.9913 34.5643 52.9673 34.5003 52.9673 34.4203V31.0723C52.9673 30.4323 52.8113 29.9323 52.4993 29.5723C52.1873 29.2043 51.7313 29.0203 51.1313 29.0203C50.5633 29.0203 50.1033 29.2043 49.7513 29.5723C49.4073 29.9323 49.2353 30.4323 49.2353 31.0723V34.4203C49.2353 34.5003 49.2113 34.5643 49.1633 34.6123C49.1153 34.6603 49.0513 34.6843 48.9713 34.6843H48.7673ZM57.5876 34.6843C57.1716 34.6843 56.8436 34.5963 56.6036 34.4203C56.3636 34.2443 56.1956 34.0043 56.0996 33.7003C56.0036 33.3963 55.9556 33.0563 55.9556 32.6803V29.1403H55.0196C54.9396 29.1403 54.8756 29.1163 54.8276 29.0683C54.7796 29.0203 54.7556 28.9563 54.7556 28.8763V28.7083C54.7556 28.6283 54.7796 28.5643 54.8276 28.5163C54.8756 28.4683 54.9396 28.4443 55.0196 28.4443H55.9556V26.4283C55.9556 26.3483 55.9796 26.2843 56.0276 26.2363C56.0756 26.1883 56.1396 26.1643 56.2196 26.1643H56.4236C56.5036 26.1643 56.5676 26.1883 56.6156 26.2363C56.6636 26.2843 56.6876 26.3483 56.6876 26.4283V28.4443H58.1756C58.2556 28.4443 58.3196 28.4683 58.3676 28.5163C58.4156 28.5643 58.4396 28.6283 58.4396 28.7083V28.8763C58.4396 28.9563 58.4156 29.0203 58.3676 29.0683C58.3196 29.1163 58.2556 29.1403 58.1756 29.1403H56.6876V32.6323C56.6876 33.0563 56.7556 33.3883 56.8916 33.6283C57.0356 33.8683 57.2876 33.9883 57.6476 33.9883H58.2956C58.3756 33.9883 58.4396 34.0123 58.4876 34.0603C58.5356 34.1083 58.5596 34.1723 58.5596 34.2523V34.4203C58.5596 34.5003 58.5356 34.5643 58.4876 34.6123C58.4396 34.6603 58.3756 34.6843 58.2956 34.6843H57.5876ZM59.7041 35.5843C59.6401 35.5843 59.5921 35.5603 59.5601 35.5123C59.5361 35.4643 59.5281 35.4043 59.5361 35.3323L59.7641 33.8923C59.7801 33.7963 59.8081 33.7203 59.8481 33.6643C59.8961 33.6003 59.9681 33.5683 60.0641 33.5683H60.6041C60.6601 33.5683 60.7041 33.5883 60.7361 33.6283C60.7681 33.6683 60.7841 33.7123 60.7841 33.7603C60.7841 33.8323 60.7681 33.9043 60.7361 33.9763L60.2201 35.3323C60.1881 35.4123 60.1481 35.4723 60.1001 35.5123C60.0601 35.5603 59.9961 35.5843 59.9081 35.5843H59.7041ZM67.6811 34.6843C67.6011 34.6843 67.5371 34.6603 67.4891 34.6123C67.4411 34.5643 67.4171 34.5003 67.4171 34.4203V27.0043H65.0411C64.9611 27.0043 64.8971 26.9803 64.8491 26.9323C64.8011 26.8843 64.7771 26.8203 64.7771 26.7403V26.5603C64.7771 26.4723 64.8011 26.4043 64.8491 26.3563C64.8971 26.3083 64.9611 26.2843 65.0411 26.2843H70.5371C70.6251 26.2843 70.6931 26.3083 70.7411 26.3563C70.7891 26.4043 70.8131 26.4723 70.8131 26.5603V26.7403C70.8131 26.8203 70.7891 26.8843 70.7411 26.9323C70.6931 26.9803 70.6251 27.0043 70.5371 27.0043H68.1731V34.4203C68.1731 34.5003 68.1491 34.5643 68.1011 34.6123C68.0531 34.6603 67.9851 34.6843 67.8971 34.6843H67.6811ZM74.7222 34.8043C74.0742 34.8043 73.5222 34.7003 73.0662 34.4923C72.6182 34.2843 72.2742 34.0163 72.0342 33.6883C71.7942 33.3603 71.6662 33.0123 71.6502 32.6443C71.6502 32.5803 71.6742 32.5243 71.7222 32.4763C71.7702 32.4283 71.8302 32.4043 71.9022 32.4043H72.1422C72.2222 32.4043 72.2822 32.4283 72.3222 32.4763C72.3702 32.5243 72.3982 32.5803 72.4062 32.6443C72.4382 32.8683 72.5382 33.0923 72.7062 33.3163C72.8742 33.5323 73.1222 33.7163 73.4502 33.8683C73.7782 34.0123 74.2022 34.0843 74.7222 34.0843C75.5062 34.0843 76.0782 33.9443 76.4382 33.6643C76.7982 33.3763 76.9782 32.9923 76.9782 32.5123C76.9782 32.1923 76.8822 31.9363 76.6902 31.7443C76.5062 31.5443 76.2222 31.3683 75.8382 31.2163C75.4542 31.0563 74.9622 30.8803 74.3622 30.6883C73.7942 30.5043 73.3262 30.3163 72.9582 30.1243C72.5902 29.9243 72.3182 29.6843 72.1422 29.4043C71.9742 29.1243 71.8902 28.7643 71.8902 28.3243C71.8902 27.9163 71.9982 27.5523 72.2142 27.2323C72.4302 26.9043 72.7422 26.6443 73.1502 26.4523C73.5662 26.2603 74.0702 26.1643 74.6622 26.1643C75.1342 26.1643 75.5462 26.2283 75.8982 26.3563C76.2502 26.4843 76.5422 26.6563 76.7742 26.8723C77.0062 27.0803 77.1822 27.3083 77.3022 27.5563C77.4222 27.7963 77.4862 28.0323 77.4942 28.2643C77.4942 28.3203 77.4742 28.3763 77.4342 28.4323C77.3942 28.4803 77.3302 28.5043 77.2422 28.5043H77.0022C76.9622 28.5043 76.9102 28.4883 76.8462 28.4563C76.7902 28.4243 76.7542 28.3603 76.7382 28.2643C76.6902 27.8643 76.4782 27.5363 76.1022 27.2803C75.7342 27.0163 75.2542 26.8843 74.6622 26.8843C74.0702 26.8843 73.5862 27.0003 73.2102 27.2323C72.8342 27.4643 72.6462 27.8283 72.6462 28.3243C72.6462 28.6443 72.7302 28.9083 72.8982 29.1163C73.0662 29.3163 73.3302 29.4963 73.6902 29.6563C74.0502 29.8083 74.5142 29.9763 75.0822 30.1603C75.6822 30.3523 76.1782 30.5443 76.5702 30.7363C76.9622 30.9283 77.2542 31.1643 77.4462 31.4443C77.6382 31.7163 77.7342 32.0723 77.7342 32.5123C77.7342 33.0003 77.6102 33.4163 77.3622 33.7603C77.1222 34.0963 76.7782 34.3563 76.3302 34.5403C75.8822 34.7163 75.3462 34.8043 74.7222 34.8043ZM81.6878 34.8043C81.1118 34.8043 80.6278 34.6843 80.2358 34.4443C79.8518 34.2043 79.5558 33.8763 79.3478 33.4603C79.1478 33.0443 79.0398 32.5803 79.0238 32.0683C79.0158 31.9483 79.0118 31.7803 79.0118 31.5643C79.0118 31.3483 79.0158 31.1803 79.0238 31.0603C79.0398 30.5403 79.1478 30.0763 79.3478 29.6683C79.5558 29.2523 79.8518 28.9243 80.2358 28.6843C80.6278 28.4443 81.1118 28.3243 81.6878 28.3243C82.2638 28.3243 82.7438 28.4443 83.1278 28.6843C83.5198 28.9243 83.8158 29.2523 84.0158 29.6683C84.2238 30.0763 84.3358 30.5403 84.3518 31.0603C84.3598 31.1803 84.3638 31.3483 84.3638 31.5643C84.3638 31.7803 84.3598 31.9483 84.3518 32.0683C84.3358 32.5803 84.2238 33.0443 84.0158 33.4603C83.8158 33.8763 83.5198 34.2043 83.1278 34.4443C82.7438 34.6843 82.2638 34.8043 81.6878 34.8043ZM81.6878 34.1083C82.2478 34.1083 82.7038 33.9283 83.0558 33.5683C83.4078 33.2083 83.5958 32.6883 83.6198 32.0083C83.6278 31.8883 83.6318 31.7403 83.6318 31.5643C83.6318 31.3883 83.6278 31.2403 83.6198 31.1203C83.5958 30.4323 83.4078 29.9123 83.0558 29.5603C82.7038 29.2003 82.2478 29.0203 81.6878 29.0203C81.1278 29.0203 80.6718 29.2003 80.3198 29.5603C79.9678 29.9123 79.7798 30.4323 79.7558 31.1203C79.7478 31.2403 79.7438 31.3883 79.7438 31.5643C79.7438 31.7403 79.7478 31.8883 79.7558 32.0083C79.7798 32.6883 79.9678 33.2083 80.3198 33.5683C80.6718 33.9283 81.1278 34.1083 81.6878 34.1083ZM89.0033 34.8043C88.2753 34.8043 87.6793 34.6643 87.2153 34.3843C86.7593 34.0963 86.4193 33.7083 86.1953 33.2203C85.9713 32.7323 85.8473 32.1763 85.8232 31.5523C85.8153 31.2243 85.8113 30.8723 85.8113 30.4963C85.8113 30.1203 85.8153 29.7603 85.8232 29.4163C85.8473 28.7923 85.9713 28.2363 86.1953 27.7483C86.4193 27.2523 86.7593 26.8643 87.2153 26.5843C87.6793 26.3043 88.2753 26.1643 89.0033 26.1643C89.5713 26.1643 90.0553 26.2443 90.4553 26.4043C90.8553 26.5643 91.1793 26.7763 91.4273 27.0403C91.6833 27.2963 91.8713 27.5763 91.9913 27.8803C92.1193 28.1763 92.1913 28.4683 92.2073 28.7563C92.2153 28.8283 92.1913 28.8883 92.1353 28.9363C92.0873 28.9763 92.0273 28.9963 91.9553 28.9963H91.7153C91.6513 28.9963 91.5953 28.9803 91.5473 28.9483C91.4993 28.9083 91.4673 28.8403 91.4513 28.7443C91.2993 28.0323 91.0113 27.5443 90.5873 27.2803C90.1713 27.0163 89.6433 26.8843 89.0033 26.8843C88.2753 26.8843 87.6953 27.0923 87.2633 27.5083C86.8393 27.9163 86.6113 28.5723 86.5793 29.4763C86.5553 30.1323 86.5553 30.8043 86.5793 31.4923C86.6113 32.3963 86.8393 33.0563 87.2633 33.4723C87.6953 33.8803 88.2753 34.0843 89.0033 34.0843C89.6433 34.0843 90.1713 33.9523 90.5873 33.6883C91.0113 33.4243 91.2993 32.9363 91.4513 32.2243C91.4673 32.1283 91.4993 32.0643 91.5473 32.0323C91.5953 31.9923 91.6513 31.9723 91.7153 31.9723H91.9553C92.0273 31.9723 92.0873 31.9963 92.1353 32.0443C92.1913 32.0843 92.2153 32.1403 92.2073 32.2123C92.1913 32.5003 92.1193 32.7963 91.9913 33.1003C91.8713 33.3963 91.6833 33.6763 91.4273 33.9403C91.1793 34.1963 90.8553 34.4043 90.4553 34.5643C90.0553 34.7243 89.5713 34.8043 89.0033 34.8043ZM96.8294 34.6843C96.7494 34.6843 96.6854 34.6603 96.6374 34.6123C96.5894 34.5643 96.5654 34.5003 96.5654 34.4203V34.2403C96.5654 34.1603 96.5854 34.0843 96.6254 34.0123C96.6734 33.9323 96.7534 33.8403 96.8654 33.7363L99.9734 30.6283C100.277 30.3483 100.509 30.1043 100.669 29.8963C100.829 29.6883 100.937 29.4843 100.993 29.2843C101.057 29.0763 101.089 28.8483 101.089 28.6003C101.089 28.0643 100.933 27.6443 100.621 27.3403C100.317 27.0363 99.8814 26.8843 99.3134 26.8843C98.9534 26.8843 98.6414 26.9563 98.3774 27.1003C98.1134 27.2443 97.9054 27.4483 97.7534 27.7123C97.6014 27.9683 97.5014 28.2683 97.4534 28.6123C97.4454 28.7083 97.4094 28.7803 97.3454 28.8283C97.2814 28.8683 97.2254 28.8883 97.1774 28.8883H96.9374C96.8574 28.8883 96.7934 28.8683 96.7454 28.8283C96.7054 28.7803 96.6854 28.7243 96.6854 28.6603C96.6934 28.3883 96.7494 28.1083 96.8534 27.8203C96.9574 27.5243 97.1134 27.2523 97.3214 27.0043C97.5374 26.7563 97.8094 26.5563 98.1374 26.4043C98.4654 26.2443 98.8574 26.1643 99.3134 26.1643C99.9214 26.1643 100.409 26.2803 100.777 26.5123C101.153 26.7443 101.425 27.0443 101.593 27.4123C101.761 27.7803 101.845 28.1763 101.845 28.6003C101.845 28.9283 101.797 29.2323 101.701 29.5123C101.605 29.7843 101.461 30.0523 101.269 30.3163C101.077 30.5723 100.833 30.8363 100.537 31.1083L97.7294 33.9643H101.749C101.837 33.9643 101.905 33.9883 101.953 34.0363C102.001 34.0843 102.025 34.1523 102.025 34.2403V34.4203C102.025 34.5003 102.001 34.5643 101.953 34.6123C101.905 34.6603 101.837 34.6843 101.749 34.6843H96.8294ZM106.352 34.8043C105.808 34.8043 105.352 34.7163 104.984 34.5403C104.624 34.3643 104.332 34.1243 104.108 33.8203C103.892 33.5083 103.736 33.1523 103.64 32.7523C103.544 32.3523 103.488 31.9323 103.472 31.4923C103.472 31.2763 103.468 31.0563 103.46 30.8323C103.46 30.6083 103.46 30.3843 103.46 30.1603C103.468 29.9283 103.472 29.7003 103.472 29.4763C103.48 29.0363 103.532 28.6163 103.628 28.2163C103.732 27.8163 103.892 27.4643 104.108 27.1603C104.332 26.8483 104.624 26.6043 104.984 26.4283C105.352 26.2523 105.808 26.1643 106.352 26.1643C106.896 26.1643 107.348 26.2523 107.708 26.4283C108.076 26.6043 108.368 26.8483 108.584 27.1603C108.808 27.4643 108.968 27.8163 109.064 28.2163C109.168 28.6163 109.224 29.0363 109.232 29.4763C109.24 29.7003 109.244 29.9283 109.244 30.1603C109.244 30.3843 109.244 30.6083 109.244 30.8323C109.244 31.0563 109.24 31.2763 109.232 31.4923C109.224 31.9323 109.168 32.3523 109.064 32.7523C108.968 33.1523 108.808 33.5083 108.584 33.8203C108.368 34.1243 108.076 34.3643 107.708 34.5403C107.348 34.7163 106.896 34.8043 106.352 34.8043ZM106.352 34.0843C107.064 34.0843 107.592 33.8483 107.936 33.3763C108.28 32.9043 108.46 32.2563 108.476 31.4323C108.484 31.2003 108.488 30.9843 108.488 30.7843C108.488 30.5763 108.488 30.3723 108.488 30.1723C108.488 29.9643 108.484 29.7523 108.476 29.5363C108.46 28.7283 108.28 28.0843 107.936 27.6043C107.592 27.1243 107.064 26.8843 106.352 26.8843C105.648 26.8843 105.12 27.1243 104.768 27.6043C104.424 28.0843 104.244 28.7283 104.228 29.5363C104.228 29.7523 104.224 29.9643 104.216 30.1723C104.216 30.3723 104.216 30.5763 104.216 30.7843C104.224 30.9843 104.228 31.2003 104.228 31.4323C104.244 32.2563 104.424 32.9043 104.768 33.3763C105.12 33.8483 105.648 34.0843 106.352 34.0843ZM110.939 34.6843C110.859 34.6843 110.795 34.6603 110.747 34.6123C110.699 34.5643 110.675 34.5003 110.675 34.4203V34.2403C110.675 34.1603 110.695 34.0843 110.735 34.0123C110.783 33.9323 110.863 33.8403 110.975 33.7363L114.083 30.6283C114.387 30.3483 114.619 30.1043 114.779 29.8963C114.939 29.6883 115.047 29.4843 115.103 29.2843C115.167 29.0763 115.199 28.8483 115.199 28.6003C115.199 28.0643 115.043 27.6443 114.731 27.3403C114.427 27.0363 113.991 26.8843 113.423 26.8843C113.063 26.8843 112.751 26.9563 112.487 27.1003C112.223 27.2443 112.015 27.4483 111.863 27.7123C111.711 27.9683 111.611 28.2683 111.563 28.6123C111.555 28.7083 111.519 28.7803 111.455 28.8283C111.391 28.8683 111.335 28.8883 111.287 28.8883H111.047C110.967 28.8883 110.903 28.8683 110.855 28.8283C110.815 28.7803 110.795 28.7243 110.795 28.6603C110.803 28.3883 110.859 28.1083 110.963 27.8203C111.067 27.5243 111.223 27.2523 111.431 27.0043C111.647 26.7563 111.919 26.5563 112.247 26.4043C112.575 26.2443 112.967 26.1643 113.423 26.1643C114.031 26.1643 114.519 26.2803 114.887 26.5123C115.263 26.7443 115.535 27.0443 115.703 27.4123C115.871 27.7803 115.955 28.1763 115.955 28.6003C115.955 28.9283 115.907 29.2323 115.811 29.5123C115.715 29.7843 115.571 30.0523 115.379 30.3163C115.187 30.5723 114.943 30.8363 114.647 31.1083L111.839 33.9643H115.859C115.947 33.9643 116.015 33.9883 116.063 34.0363C116.111 34.0843 116.135 34.1523 116.135 34.2403V34.4203C116.135 34.5003 116.111 34.5643 116.063 34.6123C116.015 34.6603 115.947 34.6843 115.859 34.6843H110.939ZM121.497 34.6843C121.417 34.6843 121.353 34.6603 121.305 34.6123C121.257 34.5643 121.233 34.5003 121.233 34.4203V32.5243H117.273C117.193 32.5243 117.129 32.5003 117.081 32.4523C117.033 32.4043 117.009 32.3403 117.009 32.2603V32.0683C117.009 32.0523 117.017 32.0083 117.033 31.9363C117.049 31.8643 117.085 31.7883 117.141 31.7083L120.789 26.4883C120.885 26.3523 121.033 26.2843 121.233 26.2843H121.725C121.805 26.2843 121.869 26.3083 121.917 26.3563C121.965 26.4043 121.989 26.4683 121.989 26.5483V31.8043H123.081C123.161 31.8043 123.225 31.8283 123.273 31.8763C123.321 31.9243 123.345 31.9883 123.345 32.0683V32.2603C123.345 32.3403 123.321 32.4043 123.273 32.4523C123.225 32.5003 123.161 32.5243 123.081 32.5243H121.989V34.4203C121.989 34.5003 121.965 34.5643 121.917 34.6123C121.869 34.6603 121.805 34.6843 121.725 34.6843H121.497ZM117.957 31.8043H121.233V27.1363L117.957 31.8043Z" fill="#707070"/>
</svg>
