<svg width="138" height="43" viewBox="0 0 138 43" fill="none" xmlns="http://www.w3.org/2000/svg">
<rect x="-19" y="14.3066" width="154.967" height="29" rx="14.5" transform="rotate(-5 -19 14.3066)" fill="#17A9AC"/>
<rect x="-18.4583" y="14.7612" width="153.967" height="28" rx="14" transform="rotate(-5 -18.4583 14.7612)" stroke="black" stroke-opacity="0.05"/>
<path d="M9.93815 30.8475C9.87439 30.8531 9.81253 30.8344 9.75255 30.7915C9.70055 30.7478 9.67142 30.6902 9.66514 30.6184C9.66235 30.5866 9.66718 30.55 9.67964 30.5088L11.886 22.5462C11.903 22.4644 11.9409 22.3928 11.9998 22.3314C12.0659 22.2614 12.1588 22.2212 12.2783 22.2107L13.5813 22.0967C13.7009 22.0862 13.7953 22.1101 13.8646 22.1683C13.9333 22.2185 13.987 22.282 14.0259 22.3589L17.5815 29.8174C17.5929 29.8566 17.6 29.8921 17.6028 29.924C17.6091 29.9957 17.5904 30.0576 17.5468 30.1096C17.5031 30.1616 17.4495 30.1904 17.3857 30.1959L16.3457 30.2869C16.2341 30.2967 16.1483 30.2801 16.0884 30.2372C16.0357 30.1856 15.9992 30.1366 15.9791 30.0901L15.2897 28.6809L11.7392 28.9915L11.305 30.4991C11.2932 30.5483 11.2619 30.6032 11.211 30.6639C11.1674 30.7159 11.0897 30.7468 10.9782 30.7565L9.93815 30.8475ZM12.0374 27.5801L14.751 27.3427L13.065 23.7681L12.0374 27.5801ZM20.9628 30.0034C20.4847 30.0453 20.0694 30.0254 19.7169 29.9438C19.3724 29.8615 19.0853 29.7461 18.8554 29.5976C18.6256 29.449 18.4516 29.2956 18.3334 29.1373C18.2151 28.979 18.1471 28.8444 18.1294 28.7336C18.1137 28.6466 18.1317 28.5768 18.1833 28.5241C18.2422 28.4627 18.3075 28.4289 18.3792 28.4226L19.3236 28.34C19.3555 28.3372 19.3837 28.3387 19.4084 28.3446C19.433 28.3505 19.4669 28.3716 19.5103 28.408C19.6215 28.4866 19.7371 28.5688 19.8571 28.6547C19.985 28.7399 20.1318 28.8113 20.2974 28.8691C20.4624 28.9189 20.6644 28.9334 20.9035 28.9125C21.2143 28.8853 21.4681 28.8028 21.6649 28.6652C21.8689 28.5188 21.9608 28.3301 21.9406 28.099C21.9259 27.9316 21.8663 27.8003 21.7616 27.7051C21.6648 27.6091 21.4895 27.5321 21.2354 27.4741C20.9807 27.408 20.622 27.347 20.1594 27.2911C19.704 27.2266 19.3219 27.1275 19.0131 26.9939C18.7043 26.8603 18.4677 26.6803 18.3033 26.4537C18.139 26.2272 18.0428 25.9545 18.015 25.6357C17.9878 25.3249 18.0536 25.022 18.2125 24.7271C18.3787 24.4234 18.637 24.1639 18.9876 23.9486C19.3461 23.7325 19.8004 23.6004 20.3503 23.5523C20.7806 23.5146 21.1601 23.5376 21.4886 23.6213C21.8165 23.697 22.091 23.8055 22.3121 23.9468C22.5412 24.0874 22.7189 24.2364 22.8451 24.394C22.9706 24.5437 23.0426 24.6779 23.061 24.7968C23.0767 24.8837 23.059 24.9575 23.0081 25.0182C22.9565 25.0709 22.8949 25.1004 22.8231 25.1067L21.9385 25.1841C21.8987 25.1876 21.8621 25.1827 21.8288 25.1696C21.7956 25.1564 21.7619 25.1393 21.728 25.1182C21.6333 25.0461 21.5304 24.9708 21.4191 24.8922C21.3078 24.8136 21.1737 24.7491 21.0167 24.6986C20.867 24.6394 20.6726 24.6203 20.4335 24.6412C20.1306 24.6677 19.9054 24.7556 19.7579 24.9051C19.6097 25.0465 19.5443 25.2169 19.5617 25.4161C19.5736 25.5516 19.6199 25.668 19.7007 25.7653C19.7887 25.854 19.9522 25.932 20.1909 25.9995C20.4297 26.0669 20.7884 26.1279 21.267 26.1824C21.8093 26.2313 22.2442 26.3378 22.5718 26.5019C22.9066 26.6573 23.1486 26.853 23.2977 27.0889C23.4541 27.3161 23.5452 27.5771 23.571 27.872C23.6024 28.2306 23.523 28.5628 23.333 28.8686C23.1508 29.1736 22.8599 29.4279 22.4601 29.6315C22.0676 29.8265 21.5685 29.9505 20.9628 30.0034ZM25.4574 31.7785C25.3777 31.7854 25.3075 31.7635 25.2468 31.7126C25.1862 31.6617 25.1523 31.5964 25.1454 31.5167L24.453 23.6029C24.446 23.5232 24.468 23.453 24.5189 23.3924C24.5698 23.3317 24.6351 23.2979 24.7148 23.2909L25.6592 23.2083C25.7469 23.2006 25.817 23.2226 25.8697 23.2742C25.9304 23.3251 25.9642 23.3904 25.9712 23.4701L26.013 23.9482C26.182 23.6765 26.4146 23.4433 26.7107 23.2488C27.0069 23.0542 27.3861 22.9367 27.8483 22.8963C28.2707 22.8593 28.6432 22.895 28.9659 23.0033C29.2886 23.1116 29.5647 23.2842 29.7942 23.5211C30.023 23.75 30.2082 24.0309 30.3498 24.3639C30.4913 24.6968 30.5882 25.0698 30.6404 25.4828C30.6602 25.6176 30.6764 25.7567 30.6889 25.9001C30.7015 26.0436 30.7101 26.1874 30.7146 26.3315C30.7415 26.7307 30.7142 27.1065 30.6326 27.459C30.5503 27.8035 30.4127 28.1126 30.2199 28.3865C30.0343 28.6517 29.7923 28.8696 29.4941 29.0402C29.1958 29.2109 28.8355 29.3147 28.4131 29.3516C27.9827 29.3893 27.6095 29.3456 27.2934 29.2207C26.9766 29.0878 26.7115 28.9022 26.4979 28.6639L26.7353 31.3776C26.7423 31.4573 26.7203 31.5274 26.6694 31.5881C26.6265 31.6481 26.5612 31.6819 26.4735 31.6896L25.4574 31.7785ZM27.8589 28.1112C28.2016 28.0812 28.4623 27.9861 28.641 27.826C28.819 27.6578 28.9374 27.4507 28.9962 27.2046C29.0629 26.9579 29.0917 26.6904 29.0826 26.4021C29.0776 26.1616 29.0567 25.9225 29.0198 25.6848C28.9788 25.3993 28.904 25.1408 28.7954 24.9094C28.6948 24.6773 28.5426 24.4979 28.3387 24.3712C28.1342 24.2365 27.8606 24.1841 27.5179 24.2141C27.1912 24.2427 26.9308 24.3418 26.7369 24.5113C26.5509 24.6802 26.4205 24.8883 26.3458 25.1358C26.2784 25.3745 26.2475 25.6182 26.2531 25.8666C26.2577 26.0108 26.267 26.1625 26.2809 26.3219C26.2949 26.4813 26.3125 26.6364 26.3337 26.7871C26.3626 27.0255 26.4386 27.2517 26.5617 27.4658C26.6841 27.6719 26.8512 27.838 27.063 27.964C27.2748 28.09 27.5401 28.1391 27.8589 28.1112ZM32.5897 28.8658C32.51 28.8727 32.4399 28.8508 32.3792 28.7999C32.3185 28.749 32.2847 28.6837 32.2777 28.604L31.7841 22.9615C31.7771 22.8818 31.7991 22.8116 31.85 22.751C31.9009 22.6903 31.9662 22.6565 32.0459 22.6495L33.0381 22.5627C33.1258 22.555 33.1959 22.577 33.2486 22.6286C33.3093 22.6795 33.3431 22.7448 33.3501 22.8245L33.8438 28.4669C33.8507 28.5466 33.8288 28.6168 33.7779 28.6775C33.7349 28.7375 33.6696 28.7713 33.582 28.779L32.5897 28.8658ZM31.9081 21.6256C31.8205 21.6333 31.7466 21.6157 31.6867 21.5727C31.634 21.5211 31.6038 21.4515 31.5961 21.3638L31.5208 20.5031C31.5139 20.4234 31.5318 20.3536 31.5748 20.2936C31.6257 20.2329 31.695 20.1988 31.7826 20.1911L32.8705 20.0959C32.9581 20.0883 33.0323 20.1099 33.093 20.1608C33.1536 20.2117 33.1875 20.277 33.1944 20.3567L33.2697 21.2174C33.2774 21.3051 33.2558 21.3792 33.2049 21.4399C33.1533 21.4926 33.0836 21.5228 32.996 21.5304L31.9081 21.6256ZM35.7418 28.59C35.6621 28.597 35.5919 28.575 35.5312 28.5241C35.4706 28.4732 35.4367 28.4079 35.4298 28.3282L34.9372 22.6977C34.9295 22.61 34.9511 22.5359 35.002 22.4752C35.0529 22.4145 35.1182 22.3807 35.1979 22.3737L36.1662 22.289C36.2459 22.2821 36.3161 22.304 36.3768 22.3549C36.4454 22.4051 36.4836 22.4741 36.4912 22.5617L36.5341 23.0519C36.6951 22.7808 36.9131 22.565 37.1882 22.4044C37.4712 22.2431 37.804 22.1457 38.1865 22.1123L38.6766 22.0694C38.7643 22.0617 38.8345 22.0837 38.8872 22.1353C38.9478 22.1862 38.9817 22.2515 38.9886 22.3312L39.0639 23.1919C39.0709 23.2716 39.0489 23.3418 38.998 23.4025C38.9551 23.4624 38.8898 23.4962 38.8021 23.5039L37.8697 23.5855C37.4872 23.619 37.1977 23.7527 37.0014 23.9867C36.813 24.22 36.7352 24.5239 36.7679 24.8985L37.0556 28.186C37.0625 28.2656 37.0406 28.3358 36.9897 28.3965C36.9387 28.4572 36.8695 28.4913 36.7818 28.499L35.7418 28.59ZM40.7266 28.1539C40.6469 28.1608 40.5768 28.1389 40.5161 28.088C40.4554 28.0371 40.4216 27.9718 40.4146 27.8921L39.921 22.2496C39.914 22.1699 39.936 22.0997 39.9869 22.0391C40.0378 21.9784 40.1031 21.9446 40.1828 21.9376L41.175 21.8508C41.2627 21.8431 41.3328 21.8651 41.3855 21.9167C41.4462 21.9676 41.48 22.0329 41.487 22.1126L41.9806 27.7551C41.9876 27.8348 41.9656 27.9049 41.9147 27.9656C41.8718 28.0256 41.8065 28.0594 41.7188 28.0671L40.7266 28.1539ZM40.045 20.9137C39.9574 20.9214 39.8835 20.9038 39.8236 20.8608C39.7709 20.8092 39.7407 20.7396 39.733 20.6519L39.6577 19.7912C39.6507 19.7115 39.6687 19.6417 39.7117 19.5817C39.7626 19.521 39.8318 19.4869 39.9195 19.4792L41.0074 19.384C41.095 19.3764 41.1692 19.398 41.2299 19.4489C41.2905 19.4998 41.3243 19.5651 41.3313 19.6448L41.4066 20.5055C41.4143 20.5932 41.3927 20.6673 41.3418 20.728C41.2902 20.7807 41.2205 20.8109 41.1329 20.8186L40.045 20.9137ZM43.8787 27.8781C43.799 27.8851 43.7288 27.8631 43.6681 27.8122C43.6074 27.7613 43.5736 27.696 43.5666 27.6163L43.073 21.9739C43.066 21.8942 43.088 21.824 43.1389 21.7633C43.1898 21.7026 43.2551 21.6688 43.3348 21.6619L44.3151 21.5761C44.3948 21.5691 44.4649 21.5911 44.5256 21.642C44.5863 21.6929 44.6201 21.7582 44.6271 21.8379L44.6699 22.328C44.8548 22.0549 45.0994 21.8207 45.4035 21.6254C45.7149 21.4215 46.1097 21.2986 46.5879 21.2568C47.074 21.2143 47.5062 21.2889 47.8843 21.4806C48.2618 21.6645 48.5636 21.9472 48.7897 22.329C49.0238 22.71 49.1653 23.1795 49.2141 23.7373L49.508 27.0965C49.5149 27.1762 49.493 27.2464 49.4421 27.3071C49.3911 27.3677 49.3258 27.4015 49.2462 27.4085L48.1942 27.5006C48.1145 27.5075 48.0443 27.4856 47.9836 27.4347C47.923 27.3837 47.8891 27.3184 47.8822 27.2387L47.5945 23.9513C47.5541 23.4891 47.4068 23.1366 47.1527 22.8938C46.9065 22.6503 46.5683 22.5474 46.1379 22.5851C45.7235 22.6213 45.4043 22.7817 45.1802 23.0664C44.9562 23.351 44.8644 23.7244 44.9048 24.1866L45.1924 27.4741C45.1994 27.5538 45.1774 27.6239 45.1265 27.6846C45.0756 27.7453 45.0103 27.7791 44.9306 27.7861L43.8787 27.8781ZM54.0909 29.6347C53.5091 29.6856 53.0243 29.6518 52.6365 29.5331C52.2487 29.4145 51.9378 29.257 51.7038 29.0606C51.4698 28.8643 51.2955 28.6627 51.1811 28.4559C51.0753 28.2563 51.0132 28.0971 50.9947 27.9783C50.9798 27.8993 50.9974 27.8255 51.0476 27.7568C51.1065 27.6955 51.1758 27.6613 51.2555 27.6543L52.2955 27.5633C52.3752 27.5564 52.4404 27.5667 52.491 27.5944C52.5423 27.6301 52.5881 27.6943 52.6283 27.7872C52.6852 27.8866 52.7587 27.9926 52.8489 28.1052C52.939 28.2177 53.0673 28.3069 53.2336 28.3727C53.4087 28.4457 53.6396 28.4696 53.9265 28.4445C54.2294 28.418 54.4806 28.3519 54.6801 28.2461C54.8796 28.1403 55.0222 27.9793 55.1076 27.763C55.2011 27.546 55.2318 27.2542 55.1997 26.8876L55.1286 26.0748C54.9575 26.3226 54.7269 26.5315 54.4366 26.7014C54.1542 26.8707 53.7939 26.9745 53.3556 27.0128C52.9252 27.0505 52.5487 27.0152 52.2261 26.9069C51.9027 26.7906 51.6266 26.618 51.3978 26.3891C51.1683 26.1522 50.9827 25.8673 50.8412 25.5344C50.7076 25.2007 50.6147 24.8274 50.5625 24.4144C50.5357 24.1999 50.5169 23.9847 50.506 23.7689C50.4871 23.369 50.5144 22.9932 50.5881 22.6414C50.6617 22.2897 50.7909 21.9772 50.9758 21.7041C51.168 21.4222 51.4132 21.196 51.7115 21.0254C52.0097 20.8547 52.3741 20.7506 52.8044 20.7129C53.2587 20.6732 53.6489 20.7274 53.975 20.8755C54.3005 21.0157 54.574 21.2046 54.7955 21.4421L54.7537 20.964C54.746 20.8763 54.7677 20.8021 54.8186 20.7415C54.8695 20.6808 54.9348 20.647 55.0145 20.64L55.9828 20.5553C56.0625 20.5483 56.1326 20.5703 56.1933 20.6212C56.254 20.6721 56.2882 20.7414 56.2958 20.8291L56.8119 26.59C56.8621 27.1638 56.7977 27.6673 56.6188 28.1006C56.4399 28.5338 56.141 28.8812 55.7222 29.1427C55.3121 29.4115 54.7683 29.5755 54.0909 29.6347ZM53.687 25.707C54.0138 25.6784 54.2705 25.5837 54.4572 25.4228C54.6439 25.2619 54.7749 25.0617 54.8503 24.8222C54.9258 24.5828 54.961 24.3428 54.956 24.1023C54.9549 23.998 54.9474 23.8661 54.9334 23.7067C54.9195 23.5474 54.9044 23.4202 54.888 23.3253C54.8505 23.0796 54.7741 22.8494 54.659 22.6346C54.5431 22.4118 54.3793 22.2375 54.1675 22.1114C53.955 21.9774 53.6854 21.9247 53.3586 21.9533C53.0319 21.9819 52.7755 22.0806 52.5895 22.2495C52.4028 22.4104 52.2761 22.6142 52.2094 22.8609C52.1506 23.107 52.1258 23.3742 52.1349 23.6625C52.1357 23.8551 52.1528 24.0504 52.1862 24.2482C52.2265 24.5258 52.2974 24.7846 52.3987 25.0247C52.5072 25.2561 52.6674 25.4348 52.8792 25.5608C53.091 25.6869 53.3603 25.7356 53.687 25.707ZM61.58 26.3294C61.5003 26.3364 61.4302 26.3144 61.3695 26.2635C61.3088 26.2126 61.275 26.1473 61.268 26.0676L60.5872 18.2854C60.5795 18.1977 60.6011 18.1235 60.652 18.0629C60.7029 18.0022 60.7682 17.9684 60.8479 17.9614L63.7648 17.7062C64.5697 17.6358 65.242 17.7014 65.7816 17.9032C66.3292 18.1042 66.7558 18.4363 67.0613 18.8994C67.3748 19.3619 67.5662 19.9434 67.6356 20.644C67.6822 20.9933 67.7173 21.3034 67.741 21.5744C67.7648 21.8453 67.7836 22.1529 67.7977 22.497C67.8466 23.2395 67.7648 23.865 67.5523 24.3735C67.3391 24.874 66.984 25.2664 66.4868 25.5508C65.997 25.8266 65.3536 25.9993 64.5567 26.069L61.58 26.3294ZM62.8345 24.8344L64.3766 24.6995C64.8229 24.6605 65.18 24.565 65.4477 24.4131C65.7155 24.2611 65.901 24.0401 66.0041 23.75C66.1144 23.4513 66.1534 23.0704 66.1209 22.6075C66.108 22.3677 66.0938 22.1602 66.0785 21.9848C66.0704 21.8008 66.0547 21.6215 66.0314 21.4469C66.0154 21.2636 65.9933 21.0567 65.9651 20.8263C65.892 20.1742 65.6864 19.7063 65.3484 19.4227C65.0104 19.1391 64.5027 19.0269 63.8253 19.0862L62.343 19.2159L62.8345 24.8344ZM72.2433 25.517C71.3587 25.5944 70.635 25.4007 70.0724 24.936C69.5098 24.4712 69.1674 23.7704 69.0453 22.8335C69.0303 22.7545 69.0176 22.6552 69.0072 22.5357C68.996 22.4082 68.9913 22.3082 68.993 22.2358C68.9725 21.6353 69.0627 21.1054 69.2634 20.6462C69.4722 20.1862 69.7816 19.8219 70.1917 19.5531C70.6011 19.2764 71.0968 19.1125 71.6785 19.0616C72.3241 19.0052 72.8779 19.0932 73.3399 19.3259C73.8012 19.5505 74.1644 19.8921 74.4294 20.3508C74.6936 20.8015 74.853 21.3376 74.9074 21.9593L74.9293 22.2103C74.9363 22.29 74.9143 22.3602 74.8634 22.4208C74.8125 22.4815 74.7432 22.5157 74.6556 22.5233L70.6867 22.8706C70.6867 22.8706 70.6878 22.8825 70.6899 22.9064C70.692 22.9303 70.6937 22.9503 70.6951 22.9662C70.7275 23.2444 70.8019 23.4989 70.9185 23.7296C71.0423 23.9517 71.2061 24.1261 71.41 24.2528C71.6217 24.3788 71.8631 24.43 72.1341 24.4063C72.3572 24.3868 72.5417 24.3385 72.6876 24.2615C72.8327 24.1765 72.9493 24.086 73.0372 23.99C73.1252 23.8939 73.1867 23.8163 73.2216 23.757C73.285 23.6551 73.3359 23.5944 73.3744 23.575C73.4201 23.5469 73.4868 23.529 73.5744 23.5214L74.6025 23.4314C74.6822 23.4245 74.7481 23.4428 74.8001 23.4864C74.86 23.5294 74.8892 23.587 74.8875 23.6595C74.8907 23.7877 74.8365 23.949 74.725 24.1435C74.6215 24.3372 74.4619 24.5319 74.2461 24.7274C74.0303 24.923 73.7523 25.0959 73.4121 25.2461C73.0792 25.3876 72.6896 25.4779 72.2433 25.517ZM70.5989 21.8664L73.2408 21.6353L73.2376 21.5994C73.2105 21.2886 73.1349 21.0222 73.0111 20.8001C72.8873 20.5781 72.7198 20.408 72.5087 20.29C72.2977 20.1719 72.0526 20.1251 71.7737 20.1495C71.4948 20.1739 71.2616 20.2625 71.0742 20.4155C70.8868 20.5684 70.7515 20.7649 70.6681 21.0051C70.5927 21.2446 70.5685 21.5197 70.5957 21.8305L70.5989 21.8664ZM78.4323 24.8551C78.3048 24.8662 78.2067 24.8467 78.1381 24.7965C78.0767 24.7376 78.0226 24.6701 77.9758 24.5939L75.255 19.2426C75.2356 19.2042 75.2245 19.169 75.2217 19.1371C75.2154 19.0654 75.2341 19.0035 75.2778 18.9515C75.3287 18.8909 75.39 18.8574 75.4617 18.8511L76.43 18.7664C76.5256 18.758 76.5998 18.7797 76.6525 18.8313C76.7045 18.8749 76.7406 18.9199 76.7607 18.9663L78.7177 23.0232L79.9405 18.6881C79.9523 18.6389 79.98 18.5883 80.0236 18.5363C80.0666 18.4763 80.1359 18.4422 80.2315 18.4338L81.2117 18.3481C81.2755 18.3425 81.3337 18.3655 81.3864 18.4171C81.4464 18.46 81.4795 18.5174 81.4858 18.5891C81.4886 18.621 81.4877 18.6572 81.4832 18.6977L79.7211 24.4412C79.6962 24.5236 79.6547 24.5995 79.5965 24.6689C79.5376 24.7302 79.4444 24.7665 79.3169 24.7777L78.4323 24.8551ZM85.5635 24.3516C84.6789 24.429 83.9553 24.2353 83.3926 23.7706C82.83 23.3059 82.4876 22.6051 82.3655 21.6681C82.3505 21.5891 82.3378 21.4899 82.3274 21.3703C82.3162 21.2428 82.3115 21.1428 82.3132 21.0704C82.2928 20.4699 82.3829 19.94 82.5837 19.4808C82.7924 19.0209 83.1018 18.6565 83.5119 18.3877C83.9214 18.111 84.417 17.9472 84.9987 17.8963C85.6443 17.8398 86.1981 17.9279 86.6601 18.1605C87.1214 18.3851 87.4846 18.7268 87.7496 19.1854C88.0139 19.6361 88.1732 20.1723 88.2276 20.7939L88.2495 21.0449C88.2565 21.1246 88.2345 21.1948 88.1836 21.2555C88.1327 21.3161 88.0634 21.3503 87.9758 21.358L84.0069 21.7052C84.0069 21.7052 84.008 21.7172 84.0101 21.7411C84.0122 21.765 84.0139 21.7849 84.0153 21.8008C84.0477 22.0791 84.1221 22.3336 84.2387 22.5643C84.3625 22.7863 84.5263 22.9607 84.7302 23.0874C84.942 23.2135 85.1833 23.2646 85.4543 23.2409C85.6774 23.2214 85.8619 23.1731 86.0078 23.0961C86.1529 23.0111 86.2695 22.9206 86.3574 22.8246C86.4454 22.7286 86.5069 22.6509 86.5418 22.5917C86.6052 22.4897 86.6561 22.4291 86.6946 22.4096C86.7403 22.3816 86.807 22.3637 86.8947 22.356L87.9227 22.2661C88.0024 22.2591 88.0683 22.2774 88.1203 22.3211C88.1802 22.364 88.2094 22.4217 88.2077 22.4941C88.2109 22.6223 88.1567 22.7836 88.0452 22.9781C87.9417 23.1718 87.7821 23.3665 87.5663 23.5621C87.3505 23.7576 87.0726 23.9305 86.7324 24.0807C86.3994 24.2223 86.0098 24.3126 85.5635 24.3516ZM83.9191 20.701L86.561 20.4699L86.5579 20.434C86.5307 20.1232 86.4552 19.8568 86.3313 19.6347C86.2075 19.4127 86.0401 19.2426 85.829 19.1246C85.6179 19.0065 85.3729 18.9597 85.0939 18.9841C84.815 19.0085 84.5818 19.0972 84.3944 19.2501C84.2071 19.403 84.0717 19.5996 83.9883 19.8397C83.9129 20.0792 83.8888 20.3544 83.916 20.6652L83.9191 20.701ZM90.0736 23.8366C89.9939 23.8436 89.9237 23.8216 89.863 23.7707C89.8024 23.7198 89.7685 23.6545 89.7616 23.5748L89.0692 15.661C89.0622 15.5813 89.0842 15.5111 89.1351 15.4505C89.186 15.3898 89.2513 15.356 89.331 15.349L90.3232 15.2622C90.4029 15.2552 90.4731 15.2772 90.5338 15.3281C90.5944 15.379 90.6282 15.4443 90.6352 15.524L91.3276 23.4378C91.3346 23.5175 91.3126 23.5876 91.2617 23.6483C91.2108 23.709 91.1455 23.7428 91.0658 23.7498L90.0736 23.8366ZM95.6984 23.4649C95.0608 23.5207 94.5131 23.4562 94.0552 23.2714C93.6054 23.0859 93.2471 22.8 92.9804 22.4138C92.7217 22.0269 92.5527 21.5639 92.4734 21.0247C92.4529 20.882 92.4336 20.707 92.4154 20.4998C92.3973 20.2926 92.386 20.1169 92.3814 19.9727C92.3651 19.42 92.4552 18.9344 92.6514 18.5157C92.8549 18.0883 93.1621 17.7442 93.573 17.4834C93.9918 17.2219 94.512 17.064 95.1336 17.0096C95.7552 16.9552 96.291 17.0208 96.7409 17.2063C97.1987 17.3911 97.561 17.6766 97.8276 18.0628C98.1016 18.4404 98.2786 18.9027 98.3585 19.4498C98.3791 19.5926 98.3984 19.7675 98.4165 19.9747C98.4346 20.182 98.446 20.3576 98.4506 20.5018C98.4661 21.0465 98.3761 21.5322 98.1805 21.9589C97.993 22.3848 97.6898 22.7286 97.271 22.9901C96.8601 23.2509 96.3359 23.4092 95.6984 23.4649ZM95.5948 22.2815C96.0172 22.2445 96.3325 22.0844 96.5406 21.8012C96.748 21.51 96.841 21.1044 96.8196 20.5842C96.8171 20.464 96.8075 20.3083 96.7907 20.117C96.774 19.9257 96.7564 19.7707 96.738 19.6518C96.6695 19.1439 96.5078 18.7645 96.253 18.5138C95.9981 18.263 95.6595 18.1561 95.2371 18.1931C94.8147 18.23 94.4998 18.3941 94.2924 18.6853C94.085 18.9765 93.9917 19.3781 94.0124 19.8903C94.0149 20.0105 94.0245 20.1663 94.0412 20.3575C94.058 20.5488 94.0755 20.7039 94.094 20.8227C94.1632 21.3386 94.3252 21.722 94.5801 21.9727C94.8342 22.2155 95.1724 22.3184 95.5948 22.2815ZM100.511 25.2122C100.431 25.2191 100.361 25.1972 100.3 25.1463C100.239 25.0954 100.205 25.0301 100.199 24.9504L99.5061 17.0366C99.4992 16.9569 99.5211 16.8867 99.572 16.8261C99.623 16.7654 99.6883 16.7316 99.768 16.7246L100.712 16.642C100.8 16.6343 100.87 16.6563 100.923 16.7079C100.984 16.7588 101.017 16.8241 101.024 16.9038L101.066 17.3819C101.235 17.1102 101.468 16.877 101.764 16.6825C102.06 16.4879 102.439 16.3704 102.901 16.33C103.324 16.293 103.696 16.3287 104.019 16.437C104.342 16.5453 104.618 16.7179 104.847 16.9548C105.076 17.1837 105.261 17.4646 105.403 17.7976C105.544 18.1305 105.641 18.5035 105.694 18.9165C105.713 19.0513 105.73 19.1904 105.742 19.3338C105.755 19.4773 105.763 19.6211 105.768 19.7652C105.795 20.1644 105.767 20.5402 105.686 20.8927C105.603 21.2372 105.466 21.5463 105.273 21.8202C105.087 22.0854 104.845 22.3033 104.547 22.4739C104.249 22.6446 103.889 22.7484 103.466 22.7853C103.036 22.823 102.663 22.7793 102.347 22.6544C102.03 22.5215 101.765 22.3359 101.551 22.0976L101.788 24.8113C101.795 24.891 101.773 24.9611 101.723 25.0218C101.68 25.0818 101.614 25.1156 101.527 25.1233L100.511 25.2122ZM102.912 21.5449C103.255 21.5149 103.515 21.4198 103.694 21.2597C103.872 21.0915 103.991 20.8844 104.049 20.6383C104.116 20.3916 104.145 20.1241 104.136 19.8358C104.131 19.5953 104.11 19.3562 104.073 19.1185C104.032 18.833 103.957 18.5745 103.849 18.3431C103.748 18.111 103.596 17.9316 103.392 17.8049C103.187 17.6702 102.914 17.6178 102.571 17.6478C102.244 17.6764 101.984 17.7755 101.79 17.945C101.604 18.1139 101.474 18.322 101.399 18.5695C101.332 18.8083 101.301 19.0519 101.306 19.3003C101.311 19.4445 101.32 19.5962 101.334 19.7556C101.348 19.915 101.366 20.0701 101.387 20.2208C101.416 20.4592 101.492 20.6854 101.615 20.8995C101.737 21.1056 101.904 21.2717 102.116 21.3977C102.328 21.5237 102.593 21.5728 102.912 21.5449ZM110.044 22.2098C109.16 22.2872 108.436 22.0936 107.873 21.6288C107.311 21.1641 106.968 20.4633 106.846 19.5263C106.831 19.4473 106.819 19.3481 106.808 19.2285C106.797 19.101 106.792 19.0011 106.794 18.9286C106.773 18.3281 106.864 17.7983 107.064 17.339C107.273 16.8791 107.582 16.5147 107.993 16.2459C108.402 15.9692 108.898 15.8054 109.479 15.7545C110.125 15.698 110.679 15.7861 111.141 16.0187C111.602 16.2433 111.965 16.585 112.23 17.0436C112.495 17.4943 112.654 18.0305 112.708 18.6521L112.73 18.9031C112.737 18.9828 112.715 19.053 112.664 19.1137C112.613 19.1744 112.544 19.2085 112.456 19.2162L108.488 19.5634C108.488 19.5634 108.489 19.5754 108.491 19.5993C108.493 19.6232 108.495 19.6431 108.496 19.6591C108.528 19.9373 108.603 20.1918 108.719 20.4225C108.843 20.6445 109.007 20.8189 109.211 20.9457C109.423 21.0717 109.664 21.1228 109.935 21.0991C110.158 21.0796 110.343 21.0313 110.488 20.9543C110.634 20.8694 110.75 20.7789 110.838 20.6828C110.926 20.5868 110.988 20.5091 111.023 20.4499C111.086 20.348 111.137 20.2873 111.175 20.2679C111.221 20.2398 111.288 20.2219 111.375 20.2142L112.403 20.1243C112.483 20.1173 112.549 20.1356 112.601 20.1793C112.661 20.2222 112.69 20.2799 112.688 20.3523C112.692 20.4805 112.637 20.6419 112.526 20.8363C112.422 21.0301 112.263 21.2247 112.047 21.4203C111.831 21.6158 111.553 21.7887 111.213 21.9389C110.88 22.0805 110.491 22.1708 110.044 22.2098ZM108.4 18.5593L111.042 18.3281L111.039 18.2923C111.011 17.9814 110.936 17.715 110.812 17.493C110.688 17.2709 110.521 17.1009 110.31 16.9828C110.099 16.8648 109.854 16.8179 109.575 16.8423C109.296 16.8667 109.063 16.9554 108.875 17.1083C108.688 17.2612 108.552 17.4578 108.469 17.698C108.394 17.9374 108.369 18.2126 108.397 18.5234L108.4 18.5593ZM114.542 21.6958C114.463 21.7028 114.392 21.6808 114.332 21.6299C114.271 21.579 114.237 21.5137 114.23 21.434L113.738 15.8035C113.73 15.7159 113.752 15.6417 113.803 15.581C113.853 15.5204 113.919 15.4866 113.998 15.4796L114.967 15.3949C115.046 15.3879 115.117 15.4099 115.177 15.4608C115.246 15.511 115.284 15.5799 115.292 15.6676L115.335 16.1577C115.496 15.8866 115.714 15.6708 115.989 15.5102C116.272 15.349 116.605 15.2516 116.987 15.2181L117.477 15.1752C117.565 15.1676 117.635 15.1895 117.688 15.2411C117.748 15.292 117.782 15.3573 117.789 15.437L117.864 16.2978C117.871 16.3774 117.849 16.4476 117.799 16.5083C117.756 16.5683 117.69 16.6021 117.603 16.6098L116.67 16.6913C116.288 16.7248 115.998 16.8585 115.802 17.0925C115.614 17.3258 115.536 17.6298 115.568 18.0044L115.856 21.2918C115.863 21.3715 115.841 21.4417 115.79 21.5023C115.739 21.563 115.67 21.5972 115.582 21.6048L114.542 21.6958ZM121.606 21.1983C121.128 21.2402 120.712 21.2203 120.36 21.1387C120.015 21.0564 119.728 20.941 119.498 20.7925C119.269 20.6439 119.094 20.4905 118.976 20.3322C118.858 20.1739 118.79 20.0393 118.772 19.9284C118.757 19.8415 118.775 19.7716 118.826 19.7189C118.885 19.6576 118.95 19.6238 119.022 19.6175L119.967 19.5349C119.998 19.5321 120.027 19.5336 120.051 19.5395C120.076 19.5454 120.11 19.5665 120.153 19.6029C120.264 19.6815 120.38 19.7637 120.5 19.8496C120.628 19.9347 120.775 20.0062 120.94 20.064C121.105 20.1138 121.307 20.1283 121.546 20.1073C121.857 20.0802 122.111 19.9977 122.308 19.86C122.512 19.7137 122.604 19.525 122.583 19.2939C122.569 19.1265 122.509 18.9952 122.404 18.9C122.308 18.804 122.132 18.727 121.878 18.6689C121.624 18.6029 121.265 18.5419 120.802 18.486C120.347 18.4215 119.965 18.3224 119.656 18.1888C119.347 18.0552 119.111 17.8751 118.946 17.6486C118.782 17.4221 118.686 17.1494 118.658 16.8306C118.631 16.5198 118.697 16.2169 118.855 15.922C119.022 15.6183 119.28 15.3588 119.631 15.1434C119.989 14.9274 120.443 14.7953 120.993 14.7472C121.424 14.7095 121.803 14.7325 122.132 14.8162C122.459 14.8919 122.734 15.0004 122.955 15.1417C123.184 15.2823 123.362 15.4313 123.488 15.5889C123.614 15.7386 123.686 15.8728 123.704 15.9916C123.72 16.0786 123.702 16.1524 123.651 16.2131C123.599 16.2658 123.538 16.2953 123.466 16.3016L122.581 16.379C122.542 16.3824 122.505 16.3776 122.472 16.3645C122.438 16.3513 122.405 16.3342 122.371 16.3131C122.276 16.241 122.173 16.1657 122.062 16.0871C121.951 16.0085 121.817 15.944 121.66 15.8934C121.51 15.8343 121.315 15.8151 121.076 15.8361C120.774 15.8626 120.548 15.9505 120.401 16.0999C120.253 16.2414 120.187 16.4118 120.205 16.611C120.216 16.7465 120.263 16.8629 120.344 16.9602C120.432 17.0489 120.595 17.1269 120.834 17.1944C121.073 17.2618 121.431 17.3228 121.91 17.3773C122.452 17.4262 122.887 17.5327 123.215 17.6968C123.55 17.8522 123.791 18.0478 123.941 18.2837C124.097 18.511 124.188 18.772 124.214 19.0669C124.245 19.4255 124.166 19.7577 123.976 20.0634C123.794 20.3685 123.503 20.6228 123.103 20.8264C122.711 21.0214 122.211 21.1453 121.606 21.1983Z" fill="white"/>
</svg>
