<svg width="182" height="63" viewBox="0 0 182 63" fill="none" xmlns="http://www.w3.org/2000/svg">
<rect x="4.57715" y="0.740723" width="204.4" height="44" rx="22" transform="rotate(5 4.57715 0.740723)" fill="#E9295D"/>
<rect x="5.03167" y="1.2824" width="203.4" height="43" rx="21.5" transform="rotate(5 5.03167 1.2824)" stroke="black" stroke-opacity="0.05"/>
<path d="M22.6227 30.9284C22.5032 30.918 22.4052 30.8672 22.3289 30.7762C22.2525 30.6852 22.2196 30.58 22.23 30.4604L23.0976 20.5443L19.7803 20.2541C19.6607 20.2436 19.5628 20.1929 19.4864 20.1019C19.41 20.0109 19.3771 19.9056 19.3875 19.7861L19.5036 18.4591C19.5151 18.3276 19.5664 18.2237 19.6574 18.1474C19.7484 18.071 19.8537 18.038 19.9732 18.0485L29.1183 18.8486C29.2498 18.8601 29.3537 18.9113 29.4301 19.0023C29.5064 19.0934 29.5389 19.2046 29.5274 19.3361L29.4113 20.663C29.4008 20.7826 29.3501 20.8805 29.2591 20.9569C29.1681 21.0332 29.0568 21.0657 28.9253 21.0542L25.6259 20.7655L24.7584 30.6816C24.7479 30.8012 24.6972 30.8991 24.6062 30.9755C24.5152 31.0518 24.4039 31.0843 24.2724 31.0728L22.6227 30.9284ZM29.3123 31.5137C29.1928 31.5032 29.0948 31.4525 29.0185 31.3615C28.9421 31.2705 28.9091 31.1652 28.9196 31.0457L29.6585 22.5999C29.67 22.4685 29.7213 22.3645 29.8123 22.2882C29.9033 22.2118 30.0085 22.1789 30.1281 22.1893L31.5805 22.3164C31.7001 22.3268 31.798 22.3776 31.8744 22.4686C31.9627 22.5606 32.0011 22.6724 31.9896 22.8039L31.9253 23.5391C32.2337 23.1806 32.612 22.9186 33.0601 22.753C33.5202 22.5885 34.0372 22.5313 34.611 22.5815L35.3462 22.6458C35.4777 22.6573 35.5756 22.7081 35.64 22.798C35.7164 22.889 35.7493 22.9943 35.7389 23.1138L35.6259 24.4049C35.6155 24.5245 35.5647 24.6224 35.4737 24.6988C35.3947 24.7762 35.2894 24.8091 35.1579 24.7976L33.7592 24.6752C33.1854 24.625 32.723 24.7472 32.372 25.0417C32.033 25.3373 31.8389 25.766 31.7897 26.3279L31.3583 31.259C31.3478 31.3786 31.2971 31.4765 31.2061 31.5529C31.1151 31.6293 31.0039 31.6617 30.8724 31.6502L29.3123 31.5137ZM38.9111 32.5342C38.2895 32.4798 37.7381 32.3111 37.2569 32.0281C36.7768 31.7331 36.4051 31.3693 36.1418 30.9367C35.8915 30.4932 35.7889 30.0145 35.8338 29.5004C35.907 28.6636 36.2998 28.0294 37.0121 27.5979C37.7375 27.1554 38.6633 26.8991 39.7897 26.829L42.2777 26.6853L42.3106 26.3088C42.3546 25.8067 42.263 25.4072 42.0361 25.1103C41.8091 24.8134 41.3907 24.6382 40.7811 24.5849C40.3507 24.5472 39.9902 24.6061 39.6996 24.7613C39.4219 24.9057 39.2048 25.1155 39.0482 25.3909C38.939 25.538 38.7947 25.6037 38.6154 25.588L37.1988 25.464C37.0673 25.4525 36.9688 25.4078 36.9034 25.3298C36.8499 25.2528 36.8284 25.1546 36.8388 25.035C36.8675 24.8448 36.9656 24.6185 37.1331 24.3561C37.3006 24.0937 37.5508 23.8506 37.8836 23.6267C38.2174 23.3909 38.6372 23.2048 39.143 23.0684C39.6488 22.9319 40.2484 22.894 40.9418 22.9547C41.6949 23.0206 42.3201 23.1717 42.8174 23.4079C43.3277 23.6332 43.7247 23.9149 44.0083 24.2529C44.2919 24.5909 44.4871 24.9754 44.594 25.4063C44.7008 25.8373 44.7339 26.2859 44.6931 26.7521L44.2005 32.3826C44.19 32.5021 44.1393 32.6001 44.0483 32.6764C43.9573 32.7528 43.852 32.7858 43.7325 32.7753L42.28 32.6482C42.1485 32.6367 42.0446 32.5855 41.9682 32.4945C41.9038 32.4045 41.8768 32.2998 41.8873 32.1802L41.9485 31.4809C41.7732 31.6944 41.5452 31.8913 41.2644 32.0715C40.9847 32.2398 40.6478 32.3729 40.2538 32.4709C39.8727 32.5581 39.4252 32.5791 38.9111 32.5342ZM39.6698 30.884C40.0882 30.9206 40.4726 30.8639 40.8231 30.7139C41.1854 30.5649 41.4784 30.3135 41.7021 29.9596C41.9388 29.5949 42.0823 29.1256 42.1325 28.5518L42.1654 28.1752L40.3472 28.3052C39.6325 28.3511 39.0913 28.4784 38.7237 28.6872C38.3561 28.896 38.1572 29.1737 38.1268 29.5203C38.1038 29.7833 38.1616 30.0173 38.3003 30.2221C38.452 30.4161 38.6492 30.5719 38.8918 30.6895C39.1356 30.7951 39.3949 30.86 39.6698 30.884ZM46.8936 33.0519C46.774 33.0414 46.6761 32.9907 46.5997 32.8997C46.5234 32.8087 46.4904 32.7034 46.5009 32.5839L47.2414 24.1202C47.2518 24.0006 47.3026 23.9027 47.3936 23.8263C47.4846 23.75 47.5898 23.717 47.7094 23.7275L49.1798 23.8561C49.2993 23.8666 49.3972 23.9173 49.4736 24.0083C49.55 24.0993 49.5829 24.2046 49.5725 24.3241L49.5081 25.0593C49.8524 24.704 50.2746 24.4217 50.7748 24.2125C51.2879 23.9924 51.9031 23.9137 52.6204 23.9764C53.3496 24.0402 53.9685 24.263 54.4772 24.6448C54.9869 25.0147 55.359 25.511 55.5936 26.1338C55.8402 26.7577 55.9269 27.488 55.8537 28.3248L55.4128 33.3635C55.4024 33.4831 55.3517 33.581 55.2607 33.6574C55.1697 33.7338 55.0644 33.7667 54.9448 33.7563L53.3669 33.6182C53.2473 33.6077 53.1494 33.557 53.073 33.466C52.9967 33.375 52.9637 33.2697 52.9742 33.1502L53.4056 28.219C53.4662 27.5257 53.3405 26.9666 53.0283 26.5418C52.7281 26.118 52.2553 25.8779 51.6097 25.8214C50.9881 25.767 50.4747 25.9208 50.0696 26.2829C49.6645 26.645 49.4317 27.1727 49.371 27.866L48.9396 32.7972C48.9291 32.9168 48.8784 33.0147 48.7874 33.0911C48.6964 33.1674 48.5911 33.2004 48.4716 33.1899L46.8936 33.0519ZM61.1697 34.4815C60.4525 34.4188 59.8441 34.2813 59.3448 34.0689C58.8573 33.8576 58.4632 33.6123 58.1624 33.3331C57.8616 33.0538 57.6445 32.7818 57.511 32.5172C57.3776 32.2526 57.3122 32.036 57.3149 31.8676C57.3144 31.7351 57.3592 31.6366 57.4491 31.5722C57.5521 31.4969 57.6574 31.4639 57.765 31.4734L59.1815 31.5973C59.2294 31.6015 59.2707 31.6111 59.3055 31.6262C59.3403 31.6413 59.385 31.6813 59.4395 31.7463C59.5834 31.8914 59.7328 32.043 59.8876 32.2011C60.0544 32.3603 60.2526 32.5041 60.4823 32.6326C60.713 32.7491 61.0077 32.8231 61.3663 32.8545C61.8325 32.8953 62.2289 32.8396 62.5554 32.6875C62.8949 32.5245 63.0798 32.2696 63.1101 31.9229C63.1321 31.6719 63.0781 31.4624 62.9483 31.2944C62.8304 31.1275 62.5914 30.9681 62.2312 30.8161C61.8722 30.6522 61.3582 30.4687 60.6893 30.2656C60.0335 30.0517 59.4949 29.8058 59.0735 29.528C58.6521 29.2502 58.3495 28.9226 58.1657 28.5451C57.9819 28.1677 57.9109 27.7399 57.9527 27.2617C57.9935 26.7955 58.1697 26.3652 58.4813 25.9708C58.8058 25.5656 59.2551 25.2495 59.829 25.0227C60.4149 24.7969 61.1203 24.7201 61.9452 24.7923C62.5907 24.8487 63.1452 24.9816 63.6088 25.1908C64.0733 25.388 64.4506 25.6198 64.7405 25.886C65.0423 26.1534 65.2659 26.4199 65.4113 26.6856C65.5578 26.9393 65.6291 27.1563 65.6254 27.3367C65.6259 27.4692 65.5806 27.5737 65.4896 27.6501C65.3996 27.7145 65.3009 27.742 65.1933 27.7325L63.8663 27.6164C63.8066 27.6112 63.7538 27.5946 63.7081 27.5665C63.6624 27.5384 63.6172 27.5043 63.5725 27.4643C63.4514 27.3332 63.319 27.1951 63.1751 27.05C63.0312 26.905 62.8498 26.7746 62.6311 26.6591C62.4253 26.5327 62.1431 26.4538 61.7845 26.4225C61.3302 26.3827 60.9746 26.454 60.7178 26.6363C60.462 26.8067 60.321 27.0413 60.2948 27.3401C60.277 27.5433 60.3151 27.7274 60.4091 27.8922C60.5161 28.0461 60.7372 28.204 61.0724 28.3658C61.4076 28.5276 61.9215 28.7111 62.6143 28.9163C63.4027 29.1298 64.0174 29.4004 64.4585 29.7281C64.9127 30.0449 65.2191 30.3969 65.378 30.7843C65.5498 31.1607 65.6164 31.57 65.5777 32.0123C65.5307 32.5503 65.3269 33.0203 64.9665 33.4224C64.618 33.8256 64.122 34.1255 63.4784 34.3222C62.8478 34.5079 62.0783 34.561 61.1697 34.4815ZM68.596 34.9506C68.4765 34.9401 68.3785 34.8894 68.3022 34.7984C68.2258 34.7074 68.1929 34.6021 68.2033 34.4826L68.8152 27.4893L67.3627 27.3622C67.2432 27.3518 67.1452 27.301 67.0689 27.21C66.9925 27.119 66.9596 27.0137 66.97 26.8942L67.061 25.8542C67.0715 25.7346 67.1222 25.6367 67.2132 25.5603C67.3042 25.484 67.4095 25.451 67.529 25.4615L68.9815 25.5885L69.0458 24.8534C69.1085 24.1361 69.2918 23.5559 69.5956 23.1126C69.9004 22.6575 70.3203 22.3328 70.8553 22.1387C71.3902 21.9446 72.0522 21.8821 72.8412 21.9511L74.0605 22.0578C74.192 22.0693 74.29 22.12 74.3544 22.21C74.4307 22.301 74.4637 22.4062 74.4532 22.5258L74.3622 23.5658C74.3518 23.6854 74.301 23.7833 74.21 23.8597C74.131 23.9371 74.0257 23.97 73.8942 23.9585L72.7466 23.8581C72.2684 23.8163 71.9292 23.9071 71.729 24.1305C71.5288 24.3539 71.4088 24.6927 71.369 25.147L71.3126 25.7925L73.5361 25.987C73.6676 25.9985 73.7655 26.0493 73.8299 26.1392C73.9063 26.2302 73.9392 26.3355 73.9288 26.455L73.8378 27.4951C73.8273 27.6146 73.7766 27.7125 73.6856 27.7889C73.6065 27.8663 73.5013 27.8993 73.3698 27.8878L71.1463 27.6932L70.5344 34.6865C70.524 34.8061 70.4732 34.904 70.3822 34.9804C70.2912 35.0567 70.186 35.0897 70.0664 35.0792L68.596 34.9506ZM78.5548 36.0025C77.5984 35.9189 76.8061 35.6809 76.1779 35.2887C75.5617 34.8975 75.1069 34.3819 74.8135 33.7419C74.5322 33.1029 74.4031 32.3749 74.4264 31.5578C74.4333 31.3416 74.4503 31.0781 74.4775 30.7673C74.5047 30.4565 74.5337 30.194 74.5645 29.9798C74.6845 29.1592 74.9439 28.4652 75.3429 27.8978C75.7549 27.3195 76.2983 26.8912 76.9731 26.613C77.6599 26.3358 78.4695 26.2379 79.4019 26.3195C80.3343 26.4011 81.1087 26.6375 81.7249 27.0287C82.3531 27.4209 82.8139 27.9371 83.1072 28.5771C83.4136 29.2062 83.5546 29.9352 83.5302 30.7642C83.5234 30.9805 83.5063 31.244 83.4791 31.5548C83.4519 31.8656 83.423 32.1281 83.3922 32.3422C83.2732 33.1509 83.0138 33.845 82.6137 34.4243C82.2257 35.0047 81.6883 35.4335 81.0015 35.7107C80.3267 35.9889 79.5111 36.0862 78.5548 36.0025ZM78.7101 34.2273C79.3436 34.2828 79.851 34.1284 80.2322 33.7642C80.6145 33.3881 80.8575 32.8131 80.9613 32.0392C80.989 31.8609 81.0154 31.6283 81.0405 31.3414C81.0656 31.0545 81.08 30.8209 81.0837 30.6405C81.1148 29.8723 80.9748 29.2698 80.6636 28.8331C80.3525 28.3963 79.8802 28.1502 79.2466 28.0947C78.613 28.0393 78.1051 28.1997 77.7229 28.5758C77.3406 28.9519 77.0981 29.5209 76.9953 30.2829C76.9677 30.4611 76.9413 30.6937 76.9162 30.9806C76.8911 31.2675 76.8767 31.5012 76.873 31.6815C76.8408 32.4617 76.9803 33.0702 77.2914 33.5069C77.6036 33.9318 78.0765 34.1719 78.7101 34.2273ZM85.4884 36.4285C85.3688 36.418 85.2709 36.3673 85.1945 36.2763C85.1181 36.1853 85.0852 36.08 85.0957 35.9605L85.8346 27.5147C85.8461 27.3832 85.8973 27.2793 85.9883 27.2029C86.0793 27.1266 86.1846 27.0936 86.3041 27.1041L87.7566 27.2312C87.8761 27.2416 87.9741 27.2923 88.0504 27.3833C88.1388 27.4754 88.1772 27.5872 88.1657 27.7187L88.1013 28.4539C88.4098 28.0954 88.788 27.8333 89.2362 27.6678C89.6963 27.5032 90.2132 27.4461 90.787 27.4963L91.5222 27.5606C91.6537 27.5721 91.7517 27.6228 91.8161 27.7128C91.8924 27.8038 91.9254 27.9091 91.9149 28.0286L91.802 29.3197C91.7915 29.4392 91.7408 29.5372 91.6498 29.6135C91.5707 29.6909 91.4654 29.7239 91.3339 29.7124L89.9353 29.59C89.3615 29.5398 88.8991 29.662 88.5481 29.9565C88.209 30.2521 88.0149 30.6808 87.9658 31.2426L87.5343 36.1738C87.5239 36.2934 87.4731 36.3913 87.3821 36.4677C87.2911 36.544 87.1799 36.5765 87.0484 36.565L85.4884 36.4285ZM92.9657 37.0826C92.8461 37.0722 92.7482 37.0215 92.6718 36.9305C92.5954 36.8395 92.5625 36.7342 92.573 36.6146L93.3134 28.151C93.3239 28.0314 93.3746 27.9335 93.4656 27.8571C93.5566 27.7808 93.6619 27.7478 93.7814 27.7583L95.1801 27.8806C95.2996 27.8911 95.3976 27.9418 95.4739 28.0328C95.5503 28.1238 95.5833 28.2291 95.5728 28.3486L95.5195 28.9583C95.7998 28.6455 96.1591 28.3939 96.5974 28.2034C97.0486 28.0019 97.5677 27.9209 98.1545 27.9602C99.5194 28.0555 100.423 28.6706 100.866 29.8055C101.183 29.3514 101.611 29.0034 102.15 28.7614C102.702 28.5086 103.295 28.4099 103.928 28.4653C104.55 28.5197 105.099 28.7123 105.576 29.0431C106.065 29.375 106.428 29.8464 106.663 30.4573C106.912 31.0572 106.998 31.7995 106.92 32.6841L106.47 37.8305C106.459 37.95 106.409 38.048 106.318 38.1243C106.227 38.2007 106.121 38.2336 106.002 38.2232L104.531 38.0945C104.412 38.0841 104.314 38.0333 104.238 37.9423C104.161 37.8513 104.128 37.7461 104.139 37.6265L104.576 32.6236C104.624 32.0857 104.583 31.6545 104.455 31.3301C104.328 30.9937 104.138 30.7483 103.887 30.5938C103.635 30.4393 103.348 30.3479 103.025 30.3197C102.762 30.2967 102.494 30.3394 102.219 30.4479C101.945 30.5564 101.71 30.7647 101.514 31.0728C101.319 31.369 101.199 31.786 101.152 32.324L100.714 37.3269C100.703 37.4464 100.653 37.5444 100.562 37.6207C100.471 37.6971 100.365 37.73 100.246 37.7196L98.7755 37.5909C98.644 37.5794 98.54 37.5282 98.4637 37.4372C98.3993 37.3472 98.3723 37.2425 98.3828 37.1229L98.8205 32.12C98.8675 31.5821 98.821 31.1504 98.6808 30.8249C98.5417 30.4875 98.3464 30.2416 98.0949 30.0871C97.8434 29.9326 97.5682 29.8422 97.2694 29.8161C96.9944 29.792 96.7192 29.8402 96.4436 29.9607C96.1691 30.0692 95.9346 30.2715 95.74 30.5677C95.5455 30.8638 95.4247 31.2809 95.3776 31.8188L94.9399 36.8217C94.9295 36.9413 94.8787 37.0392 94.7877 37.1156C94.6967 37.1919 94.5914 37.2249 94.4719 37.2144L92.9657 37.0826ZM111.408 38.8768C110.786 38.8224 110.235 38.6537 109.753 38.3707C109.273 38.0757 108.902 37.7119 108.638 37.2794C108.388 36.8359 108.285 36.3571 108.33 35.843C108.404 35.0062 108.796 34.3721 109.509 33.9405C110.234 33.498 111.16 33.2418 112.286 33.1717L114.774 33.028L114.807 32.6514C114.851 32.1493 114.76 31.7498 114.533 31.4529C114.306 31.156 113.887 30.9809 113.278 30.9275C112.847 30.8899 112.487 30.9487 112.196 31.1039C111.918 31.2483 111.701 31.4582 111.545 31.7336C111.436 31.8806 111.291 31.9463 111.112 31.9306L109.695 31.8067C109.564 31.7951 109.465 31.7504 109.4 31.6724C109.346 31.5954 109.325 31.4972 109.335 31.3776C109.364 31.1874 109.462 30.9611 109.63 30.6987C109.797 30.4363 110.047 30.1932 110.38 29.9693C110.714 29.7335 111.134 29.5474 111.64 29.411C112.145 29.2745 112.745 29.2367 113.438 29.2973C114.191 29.3632 114.817 29.5143 115.314 29.7505C115.824 29.9759 116.221 30.2575 116.505 30.5955C116.788 30.9335 116.984 31.318 117.091 31.749C117.197 32.1799 117.23 32.6285 117.19 33.0947L116.697 38.7252C116.687 38.8448 116.636 38.9427 116.545 39.0191C116.454 39.0954 116.349 39.1284 116.229 39.1179L114.777 38.9908C114.645 38.9793 114.541 38.9281 114.465 38.8371C114.4 38.7471 114.373 38.6424 114.384 38.5228L114.445 37.8235C114.27 38.037 114.042 38.2339 113.761 38.4141C113.481 38.5824 113.144 38.7155 112.75 38.8136C112.369 38.9007 111.922 38.9218 111.408 38.8768ZM112.166 37.2266C112.585 37.2632 112.969 37.2065 113.32 37.0565C113.682 36.9075 113.975 36.6561 114.199 36.3023C114.435 35.9375 114.579 35.4682 114.629 34.8944L114.662 34.5178L112.844 34.6479C112.129 34.6937 111.588 34.8211 111.22 35.0298C110.853 35.2386 110.654 35.5163 110.623 35.863C110.6 36.126 110.658 36.3599 110.797 36.5648C110.949 36.7587 111.146 36.9145 111.388 37.0321C111.632 37.1377 111.891 37.2026 112.166 37.2266ZM123.086 39.7178C122.369 39.6551 121.776 39.4768 121.308 39.1828C120.84 38.8889 120.508 38.4864 120.311 37.9754C120.116 37.4524 120.051 36.8203 120.116 36.0791L120.472 32.0087L119.055 31.8847C118.936 31.8743 118.838 31.8235 118.762 31.7325C118.685 31.6415 118.652 31.5363 118.663 31.4167L118.754 30.3767C118.764 30.2572 118.815 30.1592 118.906 30.0829C118.997 30.0065 119.102 29.9735 119.222 29.984L120.638 30.1079L120.899 27.1313C120.909 27.0118 120.954 26.9133 121.033 26.8359C121.124 26.7595 121.235 26.7271 121.367 26.7386L122.819 26.8657C122.939 26.8761 123.037 26.9269 123.113 27.0179C123.189 27.1089 123.222 27.2141 123.212 27.3337L122.952 30.3103L125.193 30.5064C125.312 30.5169 125.41 30.5676 125.487 30.6586C125.563 30.7496 125.596 30.8549 125.586 30.9744L125.495 32.0144C125.484 32.134 125.433 32.2319 125.342 32.3083C125.251 32.3847 125.146 32.4176 125.027 32.4072L122.785 32.211L122.445 36.1022C122.402 36.5923 122.452 36.9822 122.595 37.2718C122.751 37.5624 123.043 37.7265 123.474 37.7642L124.711 37.8724C124.831 37.8829 124.929 37.9336 125.005 38.0246C125.081 38.1156 125.114 38.2209 125.104 38.3405L125.007 39.4522C124.996 39.5718 124.945 39.6697 124.854 39.7461C124.763 39.8224 124.658 39.8554 124.539 39.8449L123.086 39.7178ZM126.99 40.0594C126.87 40.0489 126.772 39.9982 126.696 39.9072C126.62 39.8162 126.587 39.7109 126.597 39.5914L127.338 31.1277C127.348 31.0082 127.399 30.9102 127.49 30.8339C127.581 30.7575 127.686 30.7245 127.806 30.735L129.294 30.8652C129.426 30.8767 129.524 30.9274 129.588 31.0174C129.664 31.1084 129.697 31.2137 129.687 31.3332L128.946 39.7969C128.936 39.9164 128.885 40.0144 128.794 40.0907C128.715 40.1682 128.61 40.2011 128.478 40.1896L126.99 40.0594ZM127.869 29.1866C127.737 29.1751 127.633 29.1298 127.556 29.0508C127.491 28.9608 127.465 28.8501 127.476 28.7186L127.589 27.4275C127.6 27.308 127.644 27.2095 127.723 27.1321C127.814 27.0558 127.926 27.0233 128.057 27.0348L129.689 27.1776C129.82 27.1891 129.924 27.2404 130.001 27.3314C130.077 27.4224 130.11 27.5276 130.1 27.6472L129.987 28.9382C129.975 29.0697 129.924 29.1737 129.833 29.25C129.743 29.3144 129.632 29.3409 129.501 29.3294L127.869 29.1866ZM135.396 40.9755C134.44 40.8919 133.648 40.6539 133.019 40.2617C132.403 39.8705 131.948 39.3549 131.655 38.7149C131.374 38.0759 131.245 37.3479 131.268 36.5308C131.275 36.3146 131.292 36.0511 131.319 35.7402C131.346 35.4294 131.375 35.167 131.406 34.9528C131.526 34.1322 131.785 33.4381 132.184 32.8708C132.596 32.2925 133.14 31.8642 133.815 31.5859C134.501 31.3087 135.311 31.2109 136.243 31.2925C137.176 31.3741 137.95 31.6105 138.566 32.0017C139.195 32.3939 139.655 32.91 139.949 33.55C140.255 34.1791 140.396 34.9082 140.372 35.7372C140.365 35.9535 140.348 36.217 140.321 36.5278C140.293 36.8386 140.264 37.1011 140.234 37.3152C140.115 38.1239 139.855 38.8179 139.455 39.3973C139.067 39.9777 138.53 40.4065 137.843 40.6837C137.168 40.9619 136.353 41.0592 135.396 40.9755ZM135.552 39.2003C136.185 39.2557 136.693 39.1014 137.074 38.7372C137.456 38.3611 137.699 37.7861 137.803 37.0122C137.83 36.8339 137.857 36.6013 137.882 36.3144C137.907 36.0275 137.921 35.7939 137.925 35.6135C137.956 34.8453 137.816 34.2428 137.505 33.806C137.194 33.3693 136.722 33.1232 136.088 33.0677C135.454 33.0123 134.947 33.1726 134.564 33.5488C134.182 33.9249 133.94 34.4939 133.837 35.2558C133.809 35.4341 133.783 35.6667 133.758 35.9536C133.733 36.2405 133.718 36.4741 133.714 36.6545C133.682 37.4347 133.822 38.0431 134.133 38.4799C134.445 38.9047 134.918 39.1449 135.552 39.2003ZM142.33 41.4014C142.21 41.391 142.112 41.3403 142.036 41.2493C141.96 41.1583 141.927 41.053 141.937 40.9334L142.678 32.4698C142.688 32.3502 142.739 32.2523 142.83 32.1759C142.921 32.0996 143.026 32.0666 143.146 32.0771L144.616 32.2057C144.736 32.2162 144.833 32.2669 144.91 32.3579C144.986 32.4489 145.019 32.5542 145.009 32.6737L144.944 33.4089C145.289 33.0536 145.711 32.7713 146.211 32.5621C146.724 32.342 147.339 32.2633 148.057 32.326C148.786 32.3898 149.405 32.6126 149.913 32.9944C150.423 33.3642 150.795 33.8606 151.03 34.4834C151.276 35.1072 151.363 35.8376 151.29 36.6744L150.849 41.7131C150.839 41.8327 150.788 41.9306 150.697 42.007C150.606 42.0833 150.501 42.1163 150.381 42.1058L148.803 41.9678C148.684 41.9573 148.586 41.9066 148.509 41.8156C148.433 41.7246 148.4 41.6193 148.41 41.4998L148.842 36.5686C148.902 35.8753 148.777 35.3162 148.465 34.8914C148.164 34.4676 147.691 34.2274 147.046 34.171C146.424 34.1166 145.911 34.2704 145.506 34.6325C145.101 34.9946 144.868 35.5223 144.807 36.2156L144.376 41.1468C144.365 41.2663 144.315 41.3643 144.224 41.4407C144.133 41.517 144.027 41.55 143.908 41.5395L142.33 41.4014Z" fill="white"/>
</svg>
