<svg width="25" height="18" viewBox="0 0 25 18" fill="none" xmlns="http://www.w3.org/2000/svg">
<g clip-path="url(#clip0_597_28658)">
<path d="M24.186 3.20509C23.91 2.16929 23.0968 1.35365 22.0641 1.07683C20.1925 0.573742 12.6875 0.573742 12.6875 0.573742C12.6875 0.573742 5.1825 0.573742 3.31085 1.07683C2.27826 1.35365 1.46499 2.16929 1.18901 3.20509C0.6875 5.08239 0.6875 8.99927 0.6875 8.99927C0.6875 8.99927 0.6875 12.9161 1.18901 14.7936C1.46499 15.8293 2.27826 16.6449 3.31085 16.9218C5.1825 17.4248 12.6875 17.4248 12.6875 17.4248C12.6875 17.4248 20.1925 17.4248 22.0641 16.9218C23.0968 16.6449 23.91 15.8293 24.186 14.7936C24.6875 12.9161 24.6875 8.99927 24.6875 8.99927C24.6875 8.99927 24.6875 5.08239 24.186 3.20509Z" fill="#ED1D24"/>
<path d="M10.2329 12.5557L16.5056 8.99961L10.2329 5.44322V12.5557Z" fill="white"/>
</g>
<defs>
<clipPath id="clip0_597_28658">
<rect width="24" height="16.8511" fill="white" transform="translate(0.6875 0.574219)"/>
</clipPath>
</defs>
</svg>
