<svg width="24" height="24" viewBox="0 0 24 24" fill="none" xmlns="http://www.w3.org/2000/svg">
<path d="M20.45 20.4505H16.894V14.8805C16.894 13.5525 16.87 11.8425 15.044 11.8425C13.192 11.8425 12.908 13.2905 12.908 14.7825V20.4505H9.352V8.99652H12.766V10.5625H12.814C13.51 9.37452 14.806 8.66252 16.182 8.71252C19.786 8.71252 20.452 11.0825 20.452 14.1685L20.45 20.4485V20.4505ZM5.34 7.43052C4.79375 7.42789 4.27059 7.20987 3.88414 6.82379C3.49769 6.43772 3.27915 5.91477 3.276 5.36852C3.276 4.23652 4.208 3.30452 5.34 3.30452C6.472 3.30452 7.402 4.23652 7.404 5.36852C7.404 6.50052 6.472 7.43052 5.34 7.43052ZM7.118 20.4505H3.558V8.99652H7.118V20.4505ZM22.22 0.000518008H1.77C1.3063 -0.00217525 0.860275 0.178237 0.528846 0.50255C0.197418 0.826863 0.00736933 1.26887 0 1.73252V22.2685C0.00736933 22.7322 0.197418 23.1742 0.528846 23.4985C0.860275 23.8228 1.3063 24.0032 1.77 24.0005H22.222C22.6868 24.0043 23.1342 23.8245 23.4672 23.5002C23.8001 23.1758 23.9916 22.7332 24 22.2685V1.73052C23.9916 1.26617 23.8 0.823975 23.4669 0.500295C23.1339 0.176616 22.6864 -0.00230822 22.222 0.00251786L22.22 0.000518008Z" fill="#0060E7"/>
</svg>
