<svg width="1200" height="83" viewBox="0 0 1200 83" fill="none" xmlns="http://www.w3.org/2000/svg">
<path d="M0 10.6033C0 5.08042 4.47715 0.603271 10 0.603271H1190C1195.52 0.603271 1200 5.08042 1200 10.6033V82.6033H0V10.6033Z" fill="#151515"/>
<circle cx="32" cy="41.6033" r="8" fill="#ED6A5E"/>
<circle cx="32" cy="41.6033" r="7.5" stroke="black" stroke-opacity="0.1"/>
<circle cx="56" cy="41.6033" r="8" fill="#F4BD50"/>
<circle cx="56" cy="41.6033" r="7.5" stroke="black" stroke-opacity="0.1"/>
<circle cx="80" cy="41.6033" r="8" fill="#61C454"/>
<circle cx="80" cy="41.6033" r="7.5" stroke="black" stroke-opacity="0.1"/>
<rect x="363" y="24.6033" width="450" height="34" rx="17" fill="#242424"/>
<path d="M481.474 46.6033C481.38 46.6033 481.306 46.5753 481.25 46.5193C481.194 46.4633 481.166 46.3886 481.166 46.2953V36.9713C481.166 36.8779 481.194 36.8033 481.25 36.7473C481.306 36.6913 481.38 36.6633 481.474 36.6633H481.712C481.805 36.6633 481.88 36.6913 481.936 36.7473C481.992 36.8033 482.02 36.8779 482.02 36.9713V40.2893C482.272 39.9626 482.575 39.6966 482.93 39.4913C483.294 39.2859 483.774 39.1833 484.372 39.1833C485.006 39.1833 485.534 39.3233 485.954 39.6033C486.383 39.8739 486.7 40.2473 486.906 40.7233C487.12 41.1899 487.228 41.7219 487.228 42.3193V46.2953C487.228 46.3886 487.2 46.4633 487.144 46.5193C487.088 46.5753 487.013 46.6033 486.92 46.6033H486.682C486.588 46.6033 486.514 46.5753 486.458 46.5193C486.402 46.4633 486.374 46.3886 486.374 46.2953V42.3893C486.374 41.6426 486.192 41.0593 485.828 40.6393C485.464 40.2099 484.932 39.9953 484.232 39.9953C483.569 39.9953 483.032 40.2099 482.622 40.6393C482.22 41.0593 482.02 41.6426 482.02 42.3893V46.2953C482.02 46.3886 481.992 46.4633 481.936 46.5193C481.88 46.5753 481.805 46.6033 481.712 46.6033H481.474ZM491.764 46.6033C491.278 46.6033 490.896 46.5006 490.616 46.2953C490.336 46.0899 490.14 45.8099 490.028 45.4553C489.916 45.1006 489.86 44.7039 489.86 44.2653V40.1353H488.768C488.674 40.1353 488.6 40.1073 488.544 40.0513C488.488 39.9953 488.46 39.9206 488.46 39.8273V39.6313C488.46 39.5379 488.488 39.4633 488.544 39.4073C488.6 39.3513 488.674 39.3233 488.768 39.3233H489.86V36.9713C489.86 36.8779 489.888 36.8033 489.944 36.7473C490 36.6913 490.074 36.6633 490.168 36.6633H490.406C490.499 36.6633 490.574 36.6913 490.63 36.7473C490.686 36.8033 490.714 36.8779 490.714 36.9713V39.3233H492.45C492.543 39.3233 492.618 39.3513 492.674 39.4073C492.73 39.4633 492.758 39.5379 492.758 39.6313V39.8273C492.758 39.9206 492.73 39.9953 492.674 40.0513C492.618 40.1073 492.543 40.1353 492.45 40.1353H490.714V44.2093C490.714 44.7039 490.793 45.0913 490.952 45.3713C491.12 45.6513 491.414 45.7913 491.834 45.7913H492.59C492.683 45.7913 492.758 45.8193 492.814 45.8753C492.87 45.9313 492.898 46.0059 492.898 46.0993V46.2953C492.898 46.3886 492.87 46.4633 492.814 46.5193C492.758 46.5753 492.683 46.6033 492.59 46.6033H491.764ZM496.795 46.6033C496.31 46.6033 495.927 46.5006 495.647 46.2953C495.367 46.0899 495.171 45.8099 495.059 45.4553C494.947 45.1006 494.891 44.7039 494.891 44.2653V40.1353H493.799C493.706 40.1353 493.631 40.1073 493.575 40.0513C493.519 39.9953 493.491 39.9206 493.491 39.8273V39.6313C493.491 39.5379 493.519 39.4633 493.575 39.4073C493.631 39.3513 493.706 39.3233 493.799 39.3233H494.891V36.9713C494.891 36.8779 494.919 36.8033 494.975 36.7473C495.031 36.6913 495.106 36.6633 495.199 36.6633H495.437C495.53 36.6633 495.605 36.6913 495.661 36.7473C495.717 36.8033 495.745 36.8779 495.745 36.9713V39.3233H497.481C497.574 39.3233 497.649 39.3513 497.705 39.4073C497.761 39.4633 497.789 39.5379 497.789 39.6313V39.8273C497.789 39.9206 497.761 39.9953 497.705 40.0513C497.649 40.1073 497.574 40.1353 497.481 40.1353H495.745V44.2093C495.745 44.7039 495.824 45.0913 495.983 45.3713C496.151 45.6513 496.445 45.7913 496.865 45.7913H497.621C497.714 45.7913 497.789 45.8193 497.845 45.8753C497.901 45.9313 497.929 46.0059 497.929 46.0993V46.2953C497.929 46.3886 497.901 46.4633 497.845 46.5193C497.789 46.5753 497.714 46.6033 497.621 46.6033H496.795ZM499.698 49.2633C499.605 49.2633 499.53 49.2353 499.474 49.1793C499.418 49.1233 499.39 49.0486 499.39 48.9553V39.6313C499.39 39.5379 499.418 39.4633 499.474 39.4073C499.53 39.3513 499.605 39.3233 499.698 39.3233H499.936C500.03 39.3233 500.104 39.3513 500.16 39.4073C500.216 39.4633 500.244 39.5379 500.244 39.6313V40.2893C500.478 39.9719 500.781 39.7106 501.154 39.5053C501.537 39.2906 502.018 39.1833 502.596 39.1833C503.147 39.1833 503.609 39.2813 503.982 39.4773C504.356 39.6639 504.659 39.9159 504.892 40.2333C505.126 40.5506 505.298 40.9053 505.41 41.2973C505.522 41.6893 505.583 42.0906 505.592 42.5013C505.602 42.6413 505.606 42.7953 505.606 42.9633C505.606 43.1313 505.602 43.2853 505.592 43.4253C505.583 43.8359 505.522 44.2373 505.41 44.6293C505.298 45.0213 505.126 45.3759 504.892 45.6933C504.659 46.0106 504.356 46.2673 503.982 46.4633C503.609 46.6499 503.147 46.7433 502.596 46.7433C502.018 46.7433 501.537 46.6359 501.154 46.4213C500.781 46.2066 500.478 45.9453 500.244 45.6373V48.9553C500.244 49.0486 500.216 49.1233 500.16 49.1793C500.104 49.2353 500.03 49.2633 499.936 49.2633H499.698ZM502.512 45.9313C503.063 45.9313 503.497 45.8099 503.814 45.5673C504.132 45.3246 504.36 45.0073 504.5 44.6153C504.64 44.2233 504.72 43.8033 504.738 43.3553C504.748 43.0939 504.748 42.8326 504.738 42.5713C504.72 42.1233 504.64 41.7033 504.5 41.3113C504.36 40.9193 504.132 40.6019 503.814 40.3593C503.497 40.1166 503.063 39.9953 502.512 39.9953C501.98 39.9953 501.551 40.1213 501.224 40.3733C500.898 40.6253 500.655 40.9426 500.496 41.3253C500.347 41.6986 500.263 42.0766 500.244 42.4593C500.235 42.5993 500.23 42.7813 500.23 43.0053C500.23 43.2293 500.235 43.4113 500.244 43.5513C500.254 43.9246 500.338 44.2933 500.496 44.6573C500.664 45.0213 500.912 45.3246 501.238 45.5673C501.574 45.8099 501.999 45.9313 502.512 45.9313ZM509.821 46.7433C509.336 46.7433 508.916 46.6779 508.561 46.5473C508.216 46.4166 507.931 46.2626 507.707 46.0853C507.483 45.8986 507.315 45.7166 507.203 45.5393C507.1 45.3619 507.044 45.2266 507.035 45.1333C507.026 45.0306 507.058 44.9559 507.133 44.9093C507.208 44.8533 507.278 44.8253 507.343 44.8253H507.553C507.609 44.8253 507.656 44.8346 507.693 44.8533C507.74 44.8719 507.796 44.9233 507.861 45.0073C507.982 45.1659 508.122 45.3199 508.281 45.4693C508.44 45.6093 508.64 45.7213 508.883 45.8053C509.135 45.8893 509.448 45.9313 509.821 45.9313C510.381 45.9313 510.843 45.8239 511.207 45.6093C511.571 45.3946 511.753 45.0773 511.753 44.6573C511.753 44.3959 511.678 44.1859 511.529 44.0273C511.389 43.8686 511.146 43.7286 510.801 43.6073C510.456 43.4859 509.989 43.3599 509.401 43.2293C508.813 43.0893 508.36 42.9213 508.043 42.7253C507.735 42.5293 507.525 42.3053 507.413 42.0533C507.301 41.7919 507.245 41.5119 507.245 41.2133C507.245 40.8866 507.338 40.5693 507.525 40.2613C507.712 39.9439 507.987 39.6873 508.351 39.4913C508.724 39.2859 509.191 39.1833 509.751 39.1833C510.208 39.1833 510.596 39.2439 510.913 39.3653C511.24 39.4866 511.506 39.6359 511.711 39.8133C511.916 39.9813 512.066 40.1493 512.159 40.3173C512.262 40.4853 512.318 40.6206 512.327 40.7233C512.336 40.8166 512.308 40.8913 512.243 40.9473C512.178 41.0033 512.103 41.0313 512.019 41.0313H511.809C511.734 41.0313 511.674 41.0173 511.627 40.9893C511.58 40.9519 511.538 40.9053 511.501 40.8493C511.408 40.6999 511.296 40.5599 511.165 40.4293C511.034 40.2986 510.857 40.1959 510.633 40.1213C510.418 40.0373 510.124 39.9953 509.751 39.9953C509.191 39.9953 508.776 40.1119 508.505 40.3453C508.234 40.5693 508.099 40.8586 508.099 41.2133C508.099 41.4186 508.155 41.6006 508.267 41.7593C508.379 41.9086 508.589 42.0486 508.897 42.1793C509.205 42.3006 509.653 42.4313 510.241 42.5713C510.838 42.7019 511.31 42.8653 511.655 43.0613C512 43.2479 512.243 43.4719 512.383 43.7333C512.532 43.9946 512.607 44.3026 512.607 44.6573C512.607 45.0306 512.5 45.3759 512.285 45.6933C512.08 46.0106 511.767 46.2673 511.347 46.4633C510.936 46.6499 510.428 46.7433 509.821 46.7433ZM514.612 41.7033C514.518 41.7033 514.444 41.6753 514.388 41.6193C514.332 41.5633 514.304 41.4886 514.304 41.3953V40.7233C514.304 40.6299 514.332 40.5553 514.388 40.4993C514.444 40.4339 514.518 40.4013 514.612 40.4013H515.284C515.377 40.4013 515.452 40.4339 515.508 40.4993C515.573 40.5553 515.606 40.6299 515.606 40.7233V41.3953C515.606 41.4886 515.573 41.5633 515.508 41.6193C515.452 41.6753 515.377 41.7033 515.284 41.7033H514.612ZM514.612 46.6033C514.518 46.6033 514.444 46.5753 514.388 46.5193C514.332 46.4633 514.304 46.3886 514.304 46.2953V45.6233C514.304 45.5299 514.332 45.4553 514.388 45.3993C514.444 45.3339 514.518 45.3013 514.612 45.3013H515.284C515.377 45.3013 515.452 45.3339 515.508 45.3993C515.573 45.4553 515.606 45.5299 515.606 45.6233V46.2953C515.606 46.3886 515.573 46.4633 515.508 46.5193C515.452 46.5753 515.377 46.6033 515.284 46.6033H514.612ZM517.303 47.7793C517.228 47.7793 517.163 47.7513 517.107 47.6953C517.051 47.6393 517.023 47.5739 517.023 47.4993C517.023 47.4526 517.037 47.3966 517.065 47.3313L521.881 35.8093C521.899 35.7719 521.932 35.7299 521.979 35.6833C522.025 35.6273 522.095 35.5993 522.189 35.5993H522.427C522.501 35.5993 522.567 35.6273 522.623 35.6833C522.679 35.7393 522.707 35.8046 522.707 35.8793C522.707 35.9166 522.693 35.9726 522.665 36.0473L517.849 47.5693C517.839 47.6066 517.807 47.6486 517.751 47.6953C517.704 47.7513 517.634 47.7793 517.541 47.7793H517.303ZM526.654 46.6033C526.169 46.6033 525.786 46.5006 525.506 46.2953C525.226 46.0899 525.03 45.8099 524.918 45.4553C524.806 45.1006 524.75 44.7039 524.75 44.2653V40.1353H523.658C523.565 40.1353 523.49 40.1073 523.434 40.0513C523.378 39.9953 523.35 39.9206 523.35 39.8273V39.6313C523.35 39.5379 523.378 39.4633 523.434 39.4073C523.49 39.3513 523.565 39.3233 523.658 39.3233H524.75V36.9713C524.75 36.8779 524.778 36.8033 524.834 36.7473C524.89 36.6913 524.965 36.6633 525.058 36.6633H525.296C525.39 36.6633 525.464 36.6913 525.52 36.7473C525.576 36.8033 525.604 36.8779 525.604 36.9713V39.3233H527.34C527.434 39.3233 527.508 39.3513 527.564 39.4073C527.62 39.4633 527.648 39.5379 527.648 39.6313V39.8273C527.648 39.9206 527.62 39.9953 527.564 40.0513C527.508 40.1073 527.434 40.1353 527.34 40.1353H525.604V44.2093C525.604 44.7039 525.684 45.0913 525.842 45.3713C526.01 45.6513 526.304 45.7913 526.724 45.7913H527.48C527.574 45.7913 527.648 45.8193 527.704 45.8753C527.76 45.9313 527.788 46.0059 527.788 46.0993V46.2953C527.788 46.3886 527.76 46.4633 527.704 46.5193C527.648 46.5753 527.574 46.6033 527.48 46.6033H526.654ZM529.544 46.6033C529.45 46.6033 529.376 46.5753 529.32 46.5193C529.264 46.4633 529.236 46.3886 529.236 46.2953V39.6313C529.236 39.5379 529.264 39.4633 529.32 39.4073C529.376 39.3513 529.45 39.3233 529.544 39.3233H529.782C529.875 39.3233 529.95 39.3513 530.006 39.4073C530.062 39.4633 530.09 39.5379 530.09 39.6313V46.2953C530.09 46.3886 530.062 46.4633 530.006 46.5193C529.95 46.5753 529.875 46.6033 529.782 46.6033H529.544ZM529.39 37.8253C529.296 37.8253 529.222 37.7973 529.166 37.7413C529.11 37.6853 529.082 37.6106 529.082 37.5173V36.9853C529.082 36.8919 529.11 36.8173 529.166 36.7613C529.222 36.6959 529.296 36.6633 529.39 36.6633H529.922C530.015 36.6633 530.09 36.6959 530.146 36.7613C530.211 36.8173 530.244 36.8919 530.244 36.9853V37.5173C530.244 37.6106 530.211 37.6853 530.146 37.7413C530.09 37.7973 530.015 37.8253 529.922 37.8253H529.39ZM532.661 46.6033C532.567 46.6033 532.493 46.5753 532.437 46.5193C532.381 46.4633 532.353 46.3886 532.353 46.2953V39.6313C532.353 39.5379 532.381 39.4633 532.437 39.4073C532.493 39.3513 532.567 39.3233 532.661 39.3233H532.899C532.992 39.3233 533.067 39.3513 533.123 39.4073C533.179 39.4633 533.207 39.5379 533.207 39.6313V40.1213C533.44 39.8226 533.715 39.5939 534.033 39.4353C534.359 39.2673 534.751 39.1833 535.209 39.1833C536.254 39.1833 537.001 39.6219 537.449 40.4993C537.663 40.0979 537.976 39.7806 538.387 39.5473C538.807 39.3046 539.287 39.1833 539.829 39.1833C540.323 39.1833 540.767 39.2999 541.159 39.5333C541.56 39.7573 541.873 40.0933 542.097 40.5413C542.33 40.9893 542.447 41.5493 542.447 42.2213V46.2953C542.447 46.3886 542.419 46.4633 542.363 46.5193C542.307 46.5753 542.232 46.6033 542.139 46.6033H541.901C541.807 46.6033 541.733 46.5753 541.677 46.5193C541.621 46.4633 541.593 46.3886 541.593 46.2953V42.3613C541.593 41.7453 541.504 41.2693 541.327 40.9333C541.149 40.5879 540.916 40.3453 540.627 40.2053C540.337 40.0653 540.025 39.9953 539.689 39.9953C539.409 39.9953 539.124 40.0653 538.835 40.2053C538.545 40.3453 538.303 40.5879 538.107 40.9333C537.92 41.2693 537.827 41.7453 537.827 42.3613V46.2953C537.827 46.3886 537.799 46.4633 537.743 46.5193C537.687 46.5753 537.612 46.6033 537.519 46.6033H537.281C537.187 46.6033 537.113 46.5753 537.057 46.5193C537.001 46.4633 536.973 46.3886 536.973 46.2953V42.3613C536.973 41.7453 536.879 41.2693 536.693 40.9333C536.506 40.5879 536.268 40.3453 535.979 40.2053C535.689 40.0653 535.386 39.9953 535.069 39.9953C534.789 39.9953 534.504 40.0653 534.215 40.2053C533.925 40.3453 533.683 40.5879 533.487 40.9333C533.3 41.2693 533.207 41.7406 533.207 42.3473V46.2953C533.207 46.3886 533.179 46.4633 533.123 46.5193C533.067 46.5753 532.992 46.6033 532.899 46.6033H532.661ZM547.346 46.7433C546.44 46.7433 545.722 46.4493 545.19 45.8613C544.658 45.2639 544.354 44.4846 544.28 43.5233C544.27 43.3833 544.266 43.1966 544.266 42.9633C544.266 42.7299 544.27 42.5433 544.28 42.4033C544.326 41.7686 544.476 41.2086 544.728 40.7233C544.98 40.2379 545.325 39.8599 545.764 39.5893C546.212 39.3186 546.739 39.1833 547.346 39.1833C547.999 39.1833 548.554 39.3279 549.012 39.6173C549.469 39.9066 549.819 40.3219 550.062 40.8633C550.314 41.4046 550.44 42.0486 550.44 42.7953V43.0053C550.44 43.0986 550.407 43.1733 550.342 43.2293C550.286 43.2853 550.211 43.3133 550.118 43.3133H545.134C545.134 43.3133 545.134 43.3319 545.134 43.3693C545.134 43.4066 545.134 43.4346 545.134 43.4533C545.152 43.8733 545.25 44.2746 545.428 44.6573C545.605 45.0306 545.857 45.3386 546.184 45.5813C546.51 45.8146 546.898 45.9313 547.346 45.9313C547.747 45.9313 548.078 45.8706 548.34 45.7493C548.61 45.6279 548.825 45.4973 548.984 45.3573C549.142 45.2079 549.245 45.0959 549.292 45.0213C549.376 44.8999 549.441 44.8299 549.488 44.8113C549.534 44.7833 549.609 44.7693 549.712 44.7693H549.936C550.02 44.7693 550.09 44.7973 550.146 44.8533C550.211 44.8999 550.239 44.9653 550.23 45.0493C550.22 45.1799 550.146 45.3433 550.006 45.5393C549.875 45.7259 549.684 45.9126 549.432 46.0993C549.189 46.2859 548.89 46.4399 548.536 46.5613C548.181 46.6826 547.784 46.7433 547.346 46.7433ZM545.134 42.5293H549.586V42.4733C549.586 42.0066 549.497 41.5866 549.32 41.2133C549.142 40.8399 548.886 40.5459 548.55 40.3313C548.214 40.1073 547.812 39.9953 547.346 39.9953C546.879 39.9953 546.478 40.1073 546.142 40.3313C545.815 40.5459 545.563 40.8399 545.386 41.2133C545.218 41.5866 545.134 42.0066 545.134 42.4733V42.5293ZM555.044 46.7433C554.391 46.7433 553.836 46.6173 553.378 46.3653C552.921 46.1039 552.571 45.7306 552.328 45.2453C552.095 44.7599 551.969 44.1859 551.95 43.5233C551.941 43.3833 551.936 43.1966 551.936 42.9633C551.936 42.7299 551.941 42.5433 551.95 42.4033C551.969 41.7313 552.095 41.1573 552.328 40.6813C552.571 40.1959 552.921 39.8273 553.378 39.5753C553.836 39.3139 554.391 39.1833 555.044 39.1833C555.539 39.1833 555.964 39.2533 556.318 39.3933C556.682 39.5239 556.981 39.7013 557.214 39.9253C557.448 40.1399 557.625 40.3779 557.746 40.6393C557.868 40.9006 557.933 41.1573 557.942 41.4093C557.952 41.5026 557.924 41.5773 557.858 41.6333C557.793 41.6893 557.718 41.7173 557.634 41.7173H557.438C557.345 41.7173 557.275 41.6986 557.228 41.6613C557.191 41.6146 557.149 41.5353 557.102 41.4233C556.906 40.8913 556.636 40.5226 556.29 40.3173C555.954 40.1026 555.539 39.9953 555.044 39.9953C554.41 39.9953 553.882 40.1913 553.462 40.5833C553.052 40.9659 552.832 41.5959 552.804 42.4733C552.786 42.7999 552.786 43.1266 552.804 43.4533C552.832 44.3306 553.052 44.9653 553.462 45.3573C553.882 45.7399 554.41 45.9313 555.044 45.9313C555.539 45.9313 555.954 45.8286 556.29 45.6233C556.636 45.4086 556.906 45.0353 557.102 44.5033C557.149 44.3913 557.191 44.3166 557.228 44.2793C557.275 44.2326 557.345 44.2093 557.438 44.2093H557.634C557.718 44.2093 557.793 44.2373 557.858 44.2933C557.924 44.3493 557.952 44.4239 557.942 44.5173C557.933 44.7226 557.891 44.9279 557.816 45.1333C557.742 45.3386 557.625 45.5393 557.466 45.7353C557.317 45.9313 557.13 46.1039 556.906 46.2533C556.682 46.4026 556.412 46.5193 556.094 46.6033C555.786 46.6966 555.436 46.7433 555.044 46.7433ZM560.114 46.6033C560.021 46.6033 559.946 46.5753 559.89 46.5193C559.834 46.4633 559.806 46.3886 559.806 46.2953V36.9713C559.806 36.8779 559.834 36.8033 559.89 36.7473C559.946 36.6913 560.021 36.6633 560.114 36.6633H560.352C560.446 36.6633 560.52 36.6913 560.576 36.7473C560.632 36.8033 560.66 36.8779 560.66 36.9713V40.2893C560.912 39.9626 561.216 39.6966 561.57 39.4913C561.934 39.2859 562.415 39.1833 563.012 39.1833C563.647 39.1833 564.174 39.3233 564.594 39.6033C565.024 39.8739 565.341 40.2473 565.546 40.7233C565.761 41.1899 565.868 41.7219 565.868 42.3193V46.2953C565.868 46.3886 565.84 46.4633 565.784 46.5193C565.728 46.5753 565.654 46.6033 565.56 46.6033H565.322C565.229 46.6033 565.154 46.5753 565.098 46.5193C565.042 46.4633 565.014 46.3886 565.014 46.2953V42.3893C565.014 41.6426 564.832 41.0593 564.468 40.6393C564.104 40.2099 563.572 39.9953 562.872 39.9953C562.21 39.9953 561.673 40.2099 561.262 40.6393C560.861 41.0593 560.66 41.6426 560.66 42.3893V46.2953C560.66 46.3886 560.632 46.4633 560.576 46.5193C560.52 46.5753 560.446 46.6033 560.352 46.6033H560.114ZM570.024 46.7433C569.576 46.7433 569.16 46.6499 568.778 46.4633C568.404 46.2766 568.101 46.0293 567.868 45.7213C567.634 45.4039 567.518 45.0493 567.518 44.6573C567.518 44.0226 567.774 43.5139 568.288 43.1313C568.801 42.7486 569.468 42.5013 570.29 42.3893L572.502 42.0813V41.5913C572.502 41.0966 572.348 40.7093 572.04 40.4293C571.741 40.1399 571.26 39.9953 570.598 39.9953C570.112 39.9953 569.72 40.0933 569.422 40.2893C569.123 40.4759 568.918 40.7233 568.806 41.0313C568.759 41.1713 568.67 41.2413 568.54 41.2413H568.316C568.204 41.2413 568.124 41.2133 568.078 41.1573C568.031 41.0919 568.008 41.0173 568.008 40.9333C568.008 40.8026 568.054 40.6393 568.148 40.4433C568.25 40.2473 568.404 40.0559 568.61 39.8693C568.815 39.6733 569.081 39.5099 569.408 39.3793C569.734 39.2486 570.131 39.1833 570.598 39.1833C571.148 39.1833 571.601 39.2579 571.956 39.4073C572.32 39.5566 572.6 39.7526 572.796 39.9953C573.001 40.2286 573.146 40.4899 573.23 40.7793C573.314 41.0686 573.356 41.3533 573.356 41.6333V46.2953C573.356 46.3886 573.328 46.4633 573.272 46.5193C573.216 46.5753 573.141 46.6033 573.048 46.6033H572.81C572.716 46.6033 572.642 46.5753 572.586 46.5193C572.53 46.4633 572.502 46.3886 572.502 46.2953V45.6373C572.39 45.8053 572.231 45.9733 572.026 46.1413C571.82 46.3093 571.554 46.4539 571.228 46.5753C570.91 46.6873 570.509 46.7433 570.024 46.7433ZM570.164 45.9313C570.593 45.9313 570.985 45.8379 571.34 45.6513C571.694 45.4646 571.974 45.1799 572.18 44.7973C572.394 44.4053 572.502 43.9153 572.502 43.3273V42.8513L570.696 43.1033C569.93 43.2059 569.352 43.3833 568.96 43.6353C568.568 43.8873 568.372 44.2046 568.372 44.5873C568.372 44.8953 568.46 45.1473 568.638 45.3433C568.815 45.5393 569.039 45.6886 569.31 45.7913C569.59 45.8846 569.874 45.9313 570.164 45.9313ZM575.878 46.6033C575.784 46.6033 575.71 46.5753 575.654 46.5193C575.598 46.4633 575.57 46.3886 575.57 46.2953V39.6313C575.57 39.5379 575.598 39.4633 575.654 39.4073C575.71 39.3513 575.784 39.3233 575.878 39.3233H576.116C576.209 39.3233 576.284 39.3513 576.34 39.4073C576.396 39.4633 576.424 39.5379 576.424 39.6313V46.2953C576.424 46.3886 576.396 46.4633 576.34 46.5193C576.284 46.5753 576.209 46.6033 576.116 46.6033H575.878ZM575.724 37.8253C575.63 37.8253 575.556 37.7973 575.5 37.7413C575.444 37.6853 575.416 37.6106 575.416 37.5173V36.9853C575.416 36.8919 575.444 36.8173 575.5 36.7613C575.556 36.6959 575.63 36.6633 575.724 36.6633H576.256C576.349 36.6633 576.424 36.6959 576.48 36.7613C576.545 36.8173 576.578 36.8919 576.578 36.9853V37.5173C576.578 37.6106 576.545 37.6853 576.48 37.7413C576.424 37.7973 576.349 37.8253 576.256 37.8253H575.724ZM578.995 46.6033C578.901 46.6033 578.827 46.5753 578.771 46.5193C578.715 46.4633 578.687 46.3886 578.687 46.2953V39.6313C578.687 39.5379 578.715 39.4633 578.771 39.4073C578.827 39.3513 578.901 39.3233 578.995 39.3233H579.233C579.326 39.3233 579.401 39.3513 579.457 39.4073C579.513 39.4633 579.541 39.5379 579.541 39.6313V40.2893C579.793 39.9626 580.096 39.6966 580.451 39.4913C580.815 39.2859 581.295 39.1833 581.893 39.1833C582.527 39.1833 583.055 39.3233 583.475 39.6033C583.904 39.8739 584.221 40.2473 584.427 40.7233C584.641 41.1899 584.749 41.7219 584.749 42.3193V46.2953C584.749 46.3886 584.721 46.4633 584.665 46.5193C584.609 46.5753 584.534 46.6033 584.441 46.6033H584.203C584.109 46.6033 584.035 46.5753 583.979 46.5193C583.923 46.4633 583.895 46.3886 583.895 46.2953V42.3893C583.895 41.6426 583.713 41.0593 583.349 40.6393C582.985 40.2099 582.453 39.9953 581.753 39.9953C581.09 39.9953 580.553 40.2099 580.143 40.6393C579.741 41.0593 579.541 41.6426 579.541 42.3893V46.2953C579.541 46.3886 579.513 46.4633 579.457 46.5193C579.401 46.5753 579.326 46.6033 579.233 46.6033H578.995ZM588.905 46.7433C588.457 46.7433 588.041 46.6499 587.659 46.4633C587.285 46.2766 586.982 46.0293 586.749 45.7213C586.515 45.4039 586.399 45.0493 586.399 44.6573C586.399 44.0226 586.655 43.5139 587.169 43.1313C587.682 42.7486 588.349 42.5013 589.171 42.3893L591.383 42.0813V41.5913C591.383 41.0966 591.229 40.7093 590.921 40.4293C590.622 40.1399 590.141 39.9953 589.479 39.9953C588.993 39.9953 588.601 40.0933 588.303 40.2893C588.004 40.4759 587.799 40.7233 587.687 41.0313C587.64 41.1713 587.551 41.2413 587.421 41.2413H587.197C587.085 41.2413 587.005 41.2133 586.959 41.1573C586.912 41.0919 586.889 41.0173 586.889 40.9333C586.889 40.8026 586.935 40.6393 587.029 40.4433C587.131 40.2473 587.285 40.0559 587.491 39.8693C587.696 39.6733 587.962 39.5099 588.289 39.3793C588.615 39.2486 589.012 39.1833 589.479 39.1833C590.029 39.1833 590.482 39.2579 590.837 39.4073C591.201 39.5566 591.481 39.7526 591.677 39.9953C591.882 40.2286 592.027 40.4899 592.111 40.7793C592.195 41.0686 592.237 41.3533 592.237 41.6333V46.2953C592.237 46.3886 592.209 46.4633 592.153 46.5193C592.097 46.5753 592.022 46.6033 591.929 46.6033H591.691C591.597 46.6033 591.523 46.5753 591.467 46.5193C591.411 46.4633 591.383 46.3886 591.383 46.2953V45.6373C591.271 45.8053 591.112 45.9733 590.907 46.1413C590.701 46.3093 590.435 46.4539 590.109 46.5753C589.791 46.6873 589.39 46.7433 588.905 46.7433ZM589.045 45.9313C589.474 45.9313 589.866 45.8379 590.221 45.6513C590.575 45.4646 590.855 45.1799 591.061 44.7973C591.275 44.4053 591.383 43.9153 591.383 43.3273V42.8513L589.577 43.1033C588.811 43.2059 588.233 43.3833 587.841 43.6353C587.449 43.8873 587.253 44.2046 587.253 44.5873C587.253 44.8953 587.341 45.1473 587.519 45.3433C587.696 45.5393 587.92 45.6886 588.191 45.7913C588.471 45.8846 588.755 45.9313 589.045 45.9313ZM597.208 46.7433C596.555 46.7433 596 46.6173 595.542 46.3653C595.085 46.1039 594.735 45.7306 594.492 45.2453C594.259 44.7599 594.133 44.1859 594.114 43.5233C594.105 43.3833 594.1 43.1966 594.1 42.9633C594.1 42.7299 594.105 42.5433 594.114 42.4033C594.133 41.7313 594.259 41.1573 594.492 40.6813C594.735 40.1959 595.085 39.8273 595.542 39.5753C596 39.3139 596.555 39.1833 597.208 39.1833C597.703 39.1833 598.128 39.2533 598.482 39.3933C598.846 39.5239 599.145 39.7013 599.378 39.9253C599.612 40.1399 599.789 40.3779 599.91 40.6393C600.032 40.9006 600.097 41.1573 600.106 41.4093C600.116 41.5026 600.088 41.5773 600.022 41.6333C599.957 41.6893 599.882 41.7173 599.798 41.7173H599.602C599.509 41.7173 599.439 41.6986 599.392 41.6613C599.355 41.6146 599.313 41.5353 599.266 41.4233C599.07 40.8913 598.8 40.5226 598.454 40.3173C598.118 40.1026 597.703 39.9953 597.208 39.9953C596.574 39.9953 596.046 40.1913 595.626 40.5833C595.216 40.9659 594.996 41.5959 594.968 42.4733C594.95 42.7999 594.95 43.1266 594.968 43.4533C594.996 44.3306 595.216 44.9653 595.626 45.3573C596.046 45.7399 596.574 45.9313 597.208 45.9313C597.703 45.9313 598.118 45.8286 598.454 45.6233C598.8 45.4086 599.07 45.0353 599.266 44.5033C599.313 44.3913 599.355 44.3166 599.392 44.2793C599.439 44.2326 599.509 44.2093 599.602 44.2093H599.798C599.882 44.2093 599.957 44.2373 600.022 44.2933C600.088 44.3493 600.116 44.4239 600.106 44.5173C600.097 44.7226 600.055 44.9279 599.98 45.1333C599.906 45.3386 599.789 45.5393 599.63 45.7353C599.481 45.9313 599.294 46.1039 599.07 46.2533C598.846 46.4026 598.576 46.5193 598.258 46.6033C597.95 46.6966 597.6 46.7433 597.208 46.7433ZM603.916 46.7433C603.468 46.7433 603.053 46.6499 602.67 46.4633C602.297 46.2766 601.994 46.0293 601.76 45.7213C601.527 45.4039 601.41 45.0493 601.41 44.6573C601.41 44.0226 601.667 43.5139 602.18 43.1313C602.694 42.7486 603.361 42.5013 604.182 42.3893L606.394 42.0813V41.5913C606.394 41.0966 606.24 40.7093 605.932 40.4293C605.634 40.1399 605.153 39.9953 604.49 39.9953C604.005 39.9953 603.613 40.0933 603.314 40.2893C603.016 40.4759 602.81 40.7233 602.698 41.0313C602.652 41.1713 602.563 41.2413 602.432 41.2413H602.208C602.096 41.2413 602.017 41.2133 601.97 41.1573C601.924 41.0919 601.9 41.0173 601.9 40.9333C601.9 40.8026 601.947 40.6393 602.04 40.4433C602.143 40.2473 602.297 40.0559 602.502 39.8693C602.708 39.6733 602.974 39.5099 603.3 39.3793C603.627 39.2486 604.024 39.1833 604.49 39.1833C605.041 39.1833 605.494 39.2579 605.848 39.4073C606.212 39.5566 606.492 39.7526 606.688 39.9953C606.894 40.2286 607.038 40.4899 607.122 40.7793C607.206 41.0686 607.248 41.3533 607.248 41.6333V46.2953C607.248 46.3886 607.22 46.4633 607.164 46.5193C607.108 46.5753 607.034 46.6033 606.94 46.6033H606.702C606.609 46.6033 606.534 46.5753 606.478 46.5193C606.422 46.4633 606.394 46.3886 606.394 46.2953V45.6373C606.282 45.8053 606.124 45.9733 605.918 46.1413C605.713 46.3093 605.447 46.4539 605.12 46.5753C604.803 46.6873 604.402 46.7433 603.916 46.7433ZM604.056 45.9313C604.486 45.9313 604.878 45.8379 605.232 45.6513C605.587 45.4646 605.867 45.1799 606.072 44.7973C606.287 44.4053 606.394 43.9153 606.394 43.3273V42.8513L604.588 43.1033C603.823 43.2059 603.244 43.3833 602.852 43.6353C602.46 43.8873 602.264 44.2046 602.264 44.5873C602.264 44.8953 602.353 45.1473 602.53 45.3433C602.708 45.5393 602.932 45.6886 603.202 45.7913C603.482 45.8846 603.767 45.9313 604.056 45.9313ZM612.094 46.7433C611.553 46.7433 611.091 46.6453 610.708 46.4493C610.335 46.2533 610.031 45.9919 609.798 45.6653C609.565 45.3386 609.392 44.9746 609.28 44.5733C609.177 44.1719 609.117 43.7659 609.098 43.3553C609.089 43.2153 609.084 43.0846 609.084 42.9633C609.084 42.8419 609.089 42.7113 609.098 42.5713C609.117 42.1606 609.177 41.7546 609.28 41.3533C609.392 40.9519 609.565 40.5879 609.798 40.2613C610.031 39.9346 610.335 39.6733 610.708 39.4773C611.091 39.2813 611.553 39.1833 612.094 39.1833C612.673 39.1833 613.149 39.2906 613.522 39.5053C613.905 39.7199 614.213 39.9813 614.446 40.2893V36.9713C614.446 36.8779 614.474 36.8033 614.53 36.7473C614.586 36.6913 614.661 36.6633 614.754 36.6633H614.992C615.085 36.6633 615.16 36.6913 615.216 36.7473C615.272 36.8033 615.3 36.8779 615.3 36.9713V46.2953C615.3 46.3886 615.272 46.4633 615.216 46.5193C615.16 46.5753 615.085 46.6033 614.992 46.6033H614.754C614.661 46.6033 614.586 46.5753 614.53 46.5193C614.474 46.4633 614.446 46.3886 614.446 46.2953V45.6373C614.213 45.9546 613.905 46.2206 613.522 46.4353C613.149 46.6406 612.673 46.7433 612.094 46.7433ZM612.178 45.9313C612.71 45.9313 613.139 45.8053 613.466 45.5533C613.793 45.3013 614.035 44.9886 614.194 44.6153C614.353 44.2326 614.437 43.8499 614.446 43.4673C614.455 43.3273 614.46 43.1453 614.46 42.9213C614.46 42.6973 614.455 42.5153 614.446 42.3753C614.437 42.0019 614.348 41.6333 614.18 41.2693C614.021 40.9053 613.779 40.6019 613.452 40.3593C613.125 40.1166 612.701 39.9953 612.178 39.9953C611.637 39.9953 611.203 40.1166 610.876 40.3593C610.559 40.6019 610.33 40.9193 610.19 41.3113C610.05 41.7033 609.971 42.1233 609.952 42.5713C609.943 42.8326 609.943 43.0939 609.952 43.3553C609.971 43.8033 610.05 44.2233 610.19 44.6153C610.33 45.0073 610.559 45.3246 610.876 45.5673C611.203 45.8099 611.637 45.9313 612.178 45.9313ZM620.285 46.7433C619.38 46.7433 618.661 46.4493 618.129 45.8613C617.597 45.2639 617.294 44.4846 617.219 43.5233C617.21 43.3833 617.205 43.1966 617.205 42.9633C617.205 42.7299 617.21 42.5433 617.219 42.4033C617.266 41.7686 617.415 41.2086 617.667 40.7233C617.919 40.2379 618.265 39.8599 618.703 39.5893C619.151 39.3186 619.679 39.1833 620.285 39.1833C620.939 39.1833 621.494 39.3279 621.951 39.6173C622.409 39.9066 622.759 40.3219 623.001 40.8633C623.253 41.4046 623.379 42.0486 623.379 42.7953V43.0053C623.379 43.0986 623.347 43.1733 623.281 43.2293C623.225 43.2853 623.151 43.3133 623.057 43.3133H618.073C618.073 43.3133 618.073 43.3319 618.073 43.3693C618.073 43.4066 618.073 43.4346 618.073 43.4533C618.092 43.8733 618.19 44.2746 618.367 44.6573C618.545 45.0306 618.797 45.3386 619.123 45.5813C619.45 45.8146 619.837 45.9313 620.285 45.9313C620.687 45.9313 621.018 45.8706 621.279 45.7493C621.55 45.6279 621.765 45.4973 621.923 45.3573C622.082 45.2079 622.185 45.0959 622.231 45.0213C622.315 44.8999 622.381 44.8299 622.427 44.8113C622.474 44.7833 622.549 44.7693 622.651 44.7693H622.875C622.959 44.7693 623.029 44.7973 623.085 44.8533C623.151 44.8999 623.179 44.9653 623.169 45.0493C623.16 45.1799 623.085 45.3433 622.945 45.5393C622.815 45.7259 622.623 45.9126 622.371 46.0993C622.129 46.2859 621.83 46.4399 621.475 46.5613C621.121 46.6826 620.724 46.7433 620.285 46.7433ZM618.073 42.5293H622.525V42.4733C622.525 42.0066 622.437 41.5866 622.259 41.2133C622.082 40.8399 621.825 40.5459 621.489 40.3313C621.153 40.1073 620.752 39.9953 620.285 39.9953C619.819 39.9953 619.417 40.1073 619.081 40.3313C618.755 40.5459 618.503 40.8399 618.325 41.2133C618.157 41.5866 618.073 42.0066 618.073 42.4733V42.5293ZM625.534 46.6033C625.44 46.6033 625.366 46.5753 625.31 46.5193C625.254 46.4633 625.226 46.3886 625.226 46.2953V39.6313C625.226 39.5379 625.254 39.4633 625.31 39.4073C625.366 39.3513 625.44 39.3233 625.534 39.3233H625.772C625.865 39.3233 625.94 39.3513 625.996 39.4073C626.052 39.4633 626.08 39.5379 626.08 39.6313V40.1213C626.313 39.8226 626.588 39.5939 626.906 39.4353C627.232 39.2673 627.624 39.1833 628.082 39.1833C629.127 39.1833 629.874 39.6219 630.322 40.4993C630.536 40.0979 630.849 39.7806 631.26 39.5473C631.68 39.3046 632.16 39.1833 632.702 39.1833C633.196 39.1833 633.64 39.2999 634.032 39.5333C634.433 39.7573 634.746 40.0933 634.97 40.5413C635.203 40.9893 635.32 41.5493 635.32 42.2213V46.2953C635.32 46.3886 635.292 46.4633 635.236 46.5193C635.18 46.5753 635.105 46.6033 635.012 46.6033H634.774C634.68 46.6033 634.606 46.5753 634.55 46.5193C634.494 46.4633 634.466 46.3886 634.466 46.2953V42.3613C634.466 41.7453 634.377 41.2693 634.2 40.9333C634.022 40.5879 633.789 40.3453 633.5 40.2053C633.21 40.0653 632.898 39.9953 632.562 39.9953C632.282 39.9953 631.997 40.0653 631.708 40.2053C631.418 40.3453 631.176 40.5879 630.98 40.9333C630.793 41.2693 630.7 41.7453 630.7 42.3613V46.2953C630.7 46.3886 630.672 46.4633 630.616 46.5193C630.56 46.5753 630.485 46.6033 630.392 46.6033H630.154C630.06 46.6033 629.986 46.5753 629.93 46.5193C629.874 46.4633 629.846 46.3886 629.846 46.2953V42.3613C629.846 41.7453 629.752 41.2693 629.566 40.9333C629.379 40.5879 629.141 40.3453 628.852 40.2053C628.562 40.0653 628.259 39.9953 627.942 39.9953C627.662 39.9953 627.377 40.0653 627.088 40.2053C626.798 40.3453 626.556 40.5879 626.36 40.9333C626.173 41.2693 626.08 41.7406 626.08 42.3473V46.2953C626.08 46.3886 626.052 46.4633 625.996 46.5193C625.94 46.5753 625.865 46.6033 625.772 46.6033H625.534ZM638.544 49.2633C638.469 49.2633 638.404 49.2353 638.348 49.1793C638.292 49.1233 638.264 49.0579 638.264 48.9833C638.264 48.9459 638.268 48.9039 638.278 48.8573C638.296 48.8199 638.32 48.7686 638.348 48.7033L639.426 46.1833L636.752 39.8833C636.696 39.7433 636.668 39.6499 636.668 39.6033C636.668 39.5286 636.696 39.4633 636.752 39.4073C636.808 39.3513 636.873 39.3233 636.948 39.3233H637.242C637.335 39.3233 637.405 39.3466 637.452 39.3933C637.508 39.4306 637.545 39.4773 637.564 39.5333L639.916 45.0773L642.324 39.5333C642.352 39.4773 642.389 39.4306 642.436 39.3933C642.482 39.3466 642.552 39.3233 642.646 39.3233H642.926C643 39.3233 643.066 39.3513 643.122 39.4073C643.178 39.4633 643.206 39.5286 643.206 39.6033C643.206 39.6499 643.178 39.7433 643.122 39.8833L639.146 49.0533C639.118 49.1093 639.08 49.1559 639.034 49.1933C638.987 49.2399 638.917 49.2633 638.824 49.2633H638.544ZM644.111 46.6033C644.018 46.6033 643.943 46.5753 643.887 46.5193C643.831 46.4633 643.803 46.3886 643.803 46.2953V45.6233C643.803 45.5299 643.831 45.4553 643.887 45.3993C643.943 45.3339 644.018 45.3013 644.111 45.3013H644.783C644.877 45.3013 644.951 45.3339 645.007 45.3993C645.073 45.4553 645.105 45.5299 645.105 45.6233V46.2953C645.105 46.3886 645.073 46.4633 645.007 46.5193C644.951 46.5753 644.877 46.6033 644.783 46.6033H644.111ZM649.845 46.7433C649.192 46.7433 648.636 46.6173 648.179 46.3653C647.722 46.1039 647.372 45.7306 647.129 45.2453C646.896 44.7599 646.77 44.1859 646.751 43.5233C646.742 43.3833 646.737 43.1966 646.737 42.9633C646.737 42.7299 646.742 42.5433 646.751 42.4033C646.77 41.7313 646.896 41.1573 647.129 40.6813C647.372 40.1959 647.722 39.8273 648.179 39.5753C648.636 39.3139 649.192 39.1833 649.845 39.1833C650.34 39.1833 650.764 39.2533 651.119 39.3933C651.483 39.5239 651.782 39.7013 652.015 39.9253C652.248 40.1399 652.426 40.3779 652.547 40.6393C652.668 40.9006 652.734 41.1573 652.743 41.4093C652.752 41.5026 652.724 41.5773 652.659 41.6333C652.594 41.6893 652.519 41.7173 652.435 41.7173H652.239C652.146 41.7173 652.076 41.6986 652.029 41.6613C651.992 41.6146 651.95 41.5353 651.903 41.4233C651.707 40.8913 651.436 40.5226 651.091 40.3173C650.755 40.1026 650.34 39.9953 649.845 39.9953C649.21 39.9953 648.683 40.1913 648.263 40.5833C647.852 40.9659 647.633 41.5959 647.605 42.4733C647.586 42.7999 647.586 43.1266 647.605 43.4533C647.633 44.3306 647.852 44.9653 648.263 45.3573C648.683 45.7399 649.21 45.9313 649.845 45.9313C650.34 45.9313 650.755 45.8286 651.091 45.6233C651.436 45.4086 651.707 45.0353 651.903 44.5033C651.95 44.3913 651.992 44.3166 652.029 44.2793C652.076 44.2326 652.146 44.2093 652.239 44.2093H652.435C652.519 44.2093 652.594 44.2373 652.659 44.2933C652.724 44.3493 652.752 44.4239 652.743 44.5173C652.734 44.7226 652.692 44.9279 652.617 45.1333C652.542 45.3386 652.426 45.5393 652.267 45.7353C652.118 45.9313 651.931 46.1039 651.707 46.2533C651.483 46.4026 651.212 46.5193 650.895 46.6033C650.587 46.6966 650.237 46.7433 649.845 46.7433ZM657.365 46.7433C656.693 46.7433 656.128 46.6033 655.671 46.3233C655.223 46.0433 654.878 45.6606 654.635 45.1753C654.402 44.6899 654.276 44.1486 654.257 43.5513C654.248 43.4113 654.243 43.2153 654.243 42.9633C654.243 42.7113 654.248 42.5153 654.257 42.3753C654.276 41.7686 654.402 41.2273 654.635 40.7513C654.878 40.2659 655.223 39.8833 655.671 39.6033C656.128 39.3233 656.693 39.1833 657.365 39.1833C658.037 39.1833 658.597 39.3233 659.045 39.6033C659.502 39.8833 659.848 40.2659 660.081 40.7513C660.324 41.2273 660.454 41.7686 660.473 42.3753C660.482 42.5153 660.487 42.7113 660.487 42.9633C660.487 43.2153 660.482 43.4113 660.473 43.5513C660.454 44.1486 660.324 44.6899 660.081 45.1753C659.848 45.6606 659.502 46.0433 659.045 46.3233C658.597 46.6033 658.037 46.7433 657.365 46.7433ZM657.365 45.9313C658.018 45.9313 658.55 45.7213 658.961 45.3013C659.372 44.8813 659.591 44.2746 659.619 43.4813C659.628 43.3413 659.633 43.1686 659.633 42.9633C659.633 42.7579 659.628 42.5853 659.619 42.4453C659.591 41.6426 659.372 41.0359 658.961 40.6253C658.55 40.2053 658.018 39.9953 657.365 39.9953C656.712 39.9953 656.18 40.2053 655.769 40.6253C655.358 41.0359 655.139 41.6426 655.111 42.4453C655.102 42.5853 655.097 42.7579 655.097 42.9633C655.097 43.1686 655.102 43.3413 655.111 43.4813C655.139 44.2746 655.358 44.8813 655.769 45.3013C656.18 45.7213 656.712 45.9313 657.365 45.9313ZM662.708 46.6033C662.614 46.6033 662.54 46.5753 662.484 46.5193C662.428 46.4633 662.4 46.3886 662.4 46.2953V39.6313C662.4 39.5379 662.428 39.4633 662.484 39.4073C662.54 39.3513 662.614 39.3233 662.708 39.3233H662.946C663.039 39.3233 663.114 39.3513 663.17 39.4073C663.226 39.4633 663.254 39.5379 663.254 39.6313V40.1213C663.487 39.8226 663.762 39.5939 664.08 39.4353C664.406 39.2673 664.798 39.1833 665.256 39.1833C666.301 39.1833 667.048 39.6219 667.496 40.4993C667.71 40.0979 668.023 39.7806 668.434 39.5473C668.854 39.3046 669.334 39.1833 669.876 39.1833C670.37 39.1833 670.814 39.2999 671.206 39.5333C671.607 39.7573 671.92 40.0933 672.144 40.5413C672.377 40.9893 672.494 41.5493 672.494 42.2213V46.2953C672.494 46.3886 672.466 46.4633 672.41 46.5193C672.354 46.5753 672.279 46.6033 672.186 46.6033H671.948C671.854 46.6033 671.78 46.5753 671.724 46.5193C671.668 46.4633 671.64 46.3886 671.64 46.2953V42.3613C671.64 41.7453 671.551 41.2693 671.374 40.9333C671.196 40.5879 670.963 40.3453 670.674 40.2053C670.384 40.0653 670.072 39.9953 669.736 39.9953C669.456 39.9953 669.171 40.0653 668.882 40.2053C668.592 40.3453 668.35 40.5879 668.154 40.9333C667.967 41.2693 667.874 41.7453 667.874 42.3613V46.2953C667.874 46.3886 667.846 46.4633 667.79 46.5193C667.734 46.5753 667.659 46.6033 667.566 46.6033H667.328C667.234 46.6033 667.16 46.5753 667.104 46.5193C667.048 46.4633 667.02 46.3886 667.02 46.2953V42.3613C667.02 41.7453 666.926 41.2693 666.74 40.9333C666.553 40.5879 666.315 40.3453 666.026 40.2053C665.736 40.0653 665.433 39.9953 665.116 39.9953C664.836 39.9953 664.551 40.0653 664.262 40.2053C663.972 40.3453 663.73 40.5879 663.534 40.9333C663.347 41.2693 663.254 41.7406 663.254 42.3473V46.2953C663.254 46.3886 663.226 46.4633 663.17 46.5193C663.114 46.5753 663.039 46.6033 662.946 46.6033H662.708ZM674.215 47.7793C674.14 47.7793 674.075 47.7513 674.019 47.6953C673.963 47.6393 673.935 47.5739 673.935 47.4993C673.935 47.4526 673.949 47.3966 673.977 47.3313L678.793 35.8093C678.811 35.7719 678.844 35.7299 678.891 35.6833C678.937 35.6273 679.007 35.5993 679.101 35.5993H679.339C679.413 35.5993 679.479 35.6273 679.535 35.6833C679.591 35.7393 679.619 35.8046 679.619 35.8793C679.619 35.9166 679.605 35.9726 679.577 36.0473L674.761 47.5693C674.751 47.6066 674.719 47.6486 674.663 47.6953C674.616 47.7513 674.546 47.7793 674.453 47.7793H674.215Z" fill="white"/>
<path d="M794.152 35.8994L795.325 38.2652C795.485 38.5946 795.911 38.9104 796.271 38.9709L798.398 39.3271C799.758 39.5557 800.078 40.5504 799.098 41.5316L797.445 43.1984C797.165 43.4807 797.011 44.0251 797.098 44.415L797.571 46.4783C797.945 48.1115 797.085 48.7433 795.652 47.8897L793.658 46.7001C793.298 46.485 792.705 46.485 792.339 46.7001L790.345 47.8897C788.919 48.7433 788.052 48.1048 788.426 46.4783L788.899 44.415C788.986 44.0251 788.832 43.4807 788.552 43.1984L786.899 41.5316C785.926 40.5504 786.239 39.5557 787.599 39.3271L789.725 38.9709C790.079 38.9104 790.505 38.5946 790.665 38.2652L791.839 35.8994C792.479 34.6157 793.518 34.6157 794.152 35.8994Z" stroke="white" stroke-linecap="round" stroke-linejoin="round"/>
<path d="M1100.01 43.9769C1100.43 43.9769 1100.78 43.6286 1100.78 43.2139V34.8708L1100.72 33.6434L1101.23 34.2488L1102.39 35.4845C1102.52 35.6338 1102.71 35.7085 1102.9 35.7085C1103.28 35.7085 1103.6 35.4348 1103.6 35.045C1103.6 34.8377 1103.51 34.6884 1103.37 34.5474L1100.6 31.8687C1100.4 31.6696 1100.21 31.6033 1100.01 31.6033C1099.8 31.6033 1099.62 31.6696 1099.42 31.8687L1096.64 34.5474C1096.49 34.6884 1096.41 34.8377 1096.41 35.045C1096.41 35.4348 1096.72 35.7085 1097.1 35.7085C1097.29 35.7085 1097.49 35.6338 1097.62 35.4845L1098.78 34.2488L1099.3 33.6351L1099.23 34.8708V43.2139C1099.23 43.6286 1099.58 43.9769 1100.01 43.9769ZM1095.23 50.6033H1104.77C1106.57 50.6033 1107.5 49.6744 1107.5 47.8996V39.7473C1107.5 37.9725 1106.57 37.0437 1104.77 37.0437H1102.54V38.6941H1104.67C1105.42 38.6941 1105.85 39.0921 1105.85 39.8883V47.7504C1105.85 48.5465 1105.42 48.9446 1104.67 48.9446H1095.33C1094.57 48.9446 1094.15 48.5465 1094.15 47.7504V39.8883C1094.15 39.0921 1094.57 38.6941 1095.33 38.6941H1097.49V37.0437H1095.23C1093.44 37.0437 1092.5 37.9642 1092.5 39.7473V47.8996C1092.5 49.6744 1093.44 50.6033 1095.23 50.6033Z" fill="white"/>
<path d="M1132 48.6033C1132.53 48.6033 1132.95 48.1755 1132.95 47.6902V42.541H1138.05C1138.57 42.541 1139 42.1215 1139 41.6033C1139 41.0933 1138.57 40.6656 1138.05 40.6656H1132.95V35.5163C1132.95 35.0228 1132.53 34.6033 1132 34.6033C1131.48 34.6033 1131.05 35.0228 1131.05 35.5163V40.6656H1125.95C1125.45 40.6656 1125 41.0933 1125 41.6033C1125 42.1215 1125.45 42.541 1125.95 42.541H1131.05V47.6902C1131.05 48.1755 1131.48 48.6033 1132 48.6033Z" fill="white"/>
<path d="M1157.73 46.638H1159.14V47.89C1159.14 49.6643 1160.07 50.5929 1161.87 50.5929H1170.27C1172.06 50.5929 1173 49.6643 1173 47.89V39.4247C1173 37.6504 1172.06 36.7218 1170.27 36.7218H1168.86V35.4782C1168.86 33.7039 1167.93 32.7753 1166.13 32.7753H1157.73C1155.93 32.7753 1155 33.7039 1155 35.4782V43.9351C1155 45.7177 1155.93 46.638 1157.73 46.638ZM1157.84 44.9881C1157.07 44.9881 1156.65 44.5901 1156.65 43.7859V35.6274C1156.65 34.8232 1157.07 34.4335 1157.84 34.4335H1166.03C1166.78 34.4335 1167.21 34.8232 1167.21 35.6274V36.7218H1161.87C1160.07 36.7218 1159.14 37.6504 1159.14 39.4247V44.9881H1157.84ZM1161.97 48.9346C1161.21 48.9346 1160.8 48.5367 1160.8 47.7407V39.574C1160.8 38.778 1161.21 38.3801 1161.97 38.3801H1170.16C1170.93 38.3801 1171.35 38.778 1171.35 39.574V47.7407C1171.35 48.5367 1170.93 48.9346 1170.16 48.9346H1161.97Z" fill="white"/>
</svg>
