<svg xmlns="http://www.w3.org/2000/svg" width="1440" height="472" viewBox="0 0 1440 472" fill="none">
<g clip-path="url(#clip0_1126_7047)">
<rect width="1440" height="471" transform="translate(0 0.599609)" fill="white"/>
<g opacity="0.3">
<g filter="url(#filter0_f_1126_7047)">
<circle cx="178.484" cy="178.484" r="178.484" transform="matrix(0 -1 -1 0 -73.4543 609.203)" fill="#FF3E00"/>
</g>
<g filter="url(#filter1_f_1126_7047)">
<circle cx="178.484" cy="178.484" r="178.484" transform="matrix(0 -1 -1 0 -243.036 423.512)" fill="#EA2845"/>
</g>
<g filter="url(#filter2_f_1126_7047)">
<circle cx="178.484" cy="178.484" r="178.484" transform="matrix(0 -1 -1 0 73.2336 261.562)" fill="#0070F3"/>
</g>
<g filter="url(#filter3_f_1126_7047)">
<circle cx="178.484" cy="178.484" r="178.484" transform="matrix(0 -1 -1 0 375.089 219.166)" fill="#63F655"/>
</g>
</g>
<g opacity="0.3">
<g filter="url(#filter4_f_1126_7047)">
<circle cx="920.484" cy="618.752" r="178.484" fill="#FF3E00" fill-opacity="0.7"/>
</g>
<g filter="url(#filter5_f_1126_7047)">
<circle cx="1106.18" cy="788.333" r="178.484" fill="#EA2845" fill-opacity="0.7"/>
</g>
<g filter="url(#filter6_f_1126_7047)">
<circle cx="1268.13" cy="472.065" r="178.484" fill="#0070F3" fill-opacity="0.7"/>
</g>
<g filter="url(#filter7_f_1126_7047)">
<circle cx="1310.52" cy="170.209" r="178.484" fill="#63F655" fill-opacity="0.7"/>
</g>
</g>













<path d="M1324.04 350.987L1387.35 338.244C1404.56 334.78 1413.16 333.048 1420.18 335.934C1423.21 337.184 1425.97 339.019 1428.3 341.335C1433.68 346.685 1435.41 355.291 1438.87 372.501C1444.65 401.186 1447.53 415.528 1442.72 427.217C1440.64 432.276 1437.58 436.877 1433.72 440.754C1424.8 449.712 1410.46 452.599 1381.78 458.372L1371.56 460.427C1333.05 468.179 1313.8 472.054 1299.43 462.498C1285.05 452.943 1281.18 433.686 1273.43 395.175L1268.4 370.212C1265.41 355.372 1263.92 347.952 1265.91 341.759C1267.32 337.345 1269.94 333.411 1273.46 330.397C1278.4 326.17 1285.82 324.676 1300.66 321.69C1310.17 319.776 1314.93 318.819 1319.4 319.542C1329.62 321.193 1335.27 329.035 1341.29 336.746L1348.54 346.054" stroke="#E9295D" stroke-opacity="0.15" stroke-width="12.5" stroke-linecap="round"/>
<path d="M1385.36 381.147L1394.18 386.112C1397.88 388.2 1399.74 389.243 1400.08 390.935C1400.42 392.627 1399.11 394.307 1396.5 397.666L1390.29 405.656" stroke="#E9295D" stroke-opacity="0.15" stroke-width="12.5" stroke-linecap="round" stroke-linejoin="round"/>
<path d="M1328.17 392.658L1321.96 400.648C1319.35 404.007 1318.04 405.686 1318.38 407.378C1318.72 409.07 1320.58 410.114 1324.29 412.201L1333.11 417.166" stroke="#E9295D" stroke-opacity="0.15" stroke-width="12.5" stroke-linecap="round" stroke-linejoin="round"/>
<path d="M1363.29 377.088L1355.17 421.224" stroke="#E9295D" stroke-opacity="0.15" stroke-width="12.5" stroke-linecap="round" stroke-linejoin="round"/>
<path d="M24.4028 7.13086L93.8436 -6.84563C100.611 -8.20776 107.202 -3.82568 108.564 2.94218L111.031 15.1964" stroke="#9747FF" stroke-opacity="0.15" stroke-width="12.5" stroke-linecap="round" stroke-linejoin="round"/>
<path d="M98.8284 60.1548L49.8114 70.0205" stroke="#9747FF" stroke-opacity="0.15" stroke-width="12.5" stroke-linecap="round" stroke-linejoin="round"/>
<path d="M80.8971 97.7654L56.3885 102.698" stroke="#9747FF" stroke-opacity="0.15" stroke-width="12.5" stroke-linecap="round" stroke-linejoin="round"/>
<path d="M109.4 -35.013L9.81914 -14.97C5.75922 -14.1528 1.72657 -12.7213 -1.07033 -9.65177C-9.93863 0.0808366 -14.529 18.7301 4.76051 30.8505C10.1766 34.2537 16.8472 34.54 23.0948 33.2825L117.506 14.2801C123.989 12.9753 135.801 11.5633 139.785 31.3573L152.041 92.2519C155.691 110.384 144.028 128.026 125.992 131.656L52.2207 146.505C34.2184 150.128 18.5646 140.04 13.6312 120.876L-7.86187 15.5042" stroke="#9747FF" stroke-opacity="0.15" stroke-width="12.5" stroke-linecap="round"/>
<path d="M101.522 372.667L110.116 383.722C113.73 388.369 115.537 390.693 115.066 393.034C114.595 395.374 112.03 396.819 106.9 399.707L94.699 406.577" stroke="#059E93" stroke-opacity="0.15" stroke-width="12.9713" stroke-linecap="round" stroke-linejoin="round"/>
<path d="M33.7009 359.022L21.4995 365.892C16.3701 368.78 13.8052 370.225 13.3343 372.566C12.8633 374.906 14.6698 377.231 18.2832 381.878L26.8781 392.932" stroke="#059E93" stroke-opacity="0.15" stroke-width="12.9713" stroke-linecap="round" stroke-linejoin="round"/>
<path d="M77.7948 359.073L50.6053 406.527" stroke="#059E93" stroke-opacity="0.15" stroke-width="12.9713" stroke-linecap="round" stroke-linejoin="round"/>
<path d="M-16.3373 366.595C-8.69849 328.629 -4.87909 309.646 9.28839 300.225C23.4559 290.804 42.4387 294.623 80.4044 302.262C118.37 309.901 137.353 313.72 146.775 327.888C156.196 342.055 152.376 361.038 144.737 399.004C137.099 436.969 133.279 455.952 119.112 465.374C104.944 474.795 85.9609 470.975 47.9956 463.337C10.03 455.698 -8.9528 451.878 -18.3743 437.711C-27.7955 423.543 -23.976 404.56 -16.3373 366.595Z" stroke="#059E93" stroke-opacity="0.15" stroke-width="12.9713"/>
<path d="M1405.22 155.215L1294.93 133.017C1283.65 130.747 1276.34 119.762 1278.61 108.483M1278.61 108.483L1293.11 36.4571C1298.02 12.0747 1300.47 -0.11676 1308.38 -7.43633C1310.99 -9.86023 1313.98 -11.8481 1317.23 -13.3243C1327.04 -17.7819 1339.23 -15.3281 1363.61 -10.4205C1371.59 -8.81506 1381.22 -6.43951 1389.26 -4.70893C1396.58 -3.13104 1400.24 -2.34201 1407.33 -2.17392C1414.42 -2.00599 1415.2 -2.13684 1416.78 -2.39852C1423.55 -3.52428 1430.25 -6.04558 1438.1 -8.17569L1422.48 69.4354C1419.42 84.6617 1417.88 92.2748 1414.19 97.7796C1409.26 105.119 1401.62 110.2 1392.94 111.905C1386.44 113.183 1378.82 111.651 1363.6 108.587L1298.24 95.4323C1289.22 93.616 1280.43 99.4595 1278.61 108.483Z" stroke="#055EE5" stroke-opacity="0.15" stroke-width="12.5" stroke-linecap="round" stroke-linejoin="round"/>
<path d="M1397.1 111.078L1388.88 151.926" stroke="#055EE5" stroke-opacity="0.15" stroke-width="12.5" stroke-linejoin="round"/>
<path d="M1336.78 -11.5684L1330.2 21.1096" stroke="#055EE5" stroke-opacity="0.15" stroke-width="12.5" stroke-linecap="round" stroke-linejoin="round"/>
</g>
<defs>
<filter id="filter0_f_1126_7047" x="-727.191" y="-44.5332" width="950.504" height="950.504" filterUnits="userSpaceOnUse" color-interpolation-filters="sRGB">
<feFlood flood-opacity="0" result="BackgroundImageFix"/>
<feBlend mode="normal" in="SourceGraphic" in2="BackgroundImageFix" result="shape"/>
<feGaussianBlur stdDeviation="148.384" result="effect1_foregroundBlur_1126_7047"/>
</filter>
<filter id="filter1_f_1126_7047" x="-896.772" y="-230.225" width="950.504" height="950.504" filterUnits="userSpaceOnUse" color-interpolation-filters="sRGB">
<feFlood flood-opacity="0" result="BackgroundImageFix"/>
<feBlend mode="normal" in="SourceGraphic" in2="BackgroundImageFix" result="shape"/>
<feGaussianBlur stdDeviation="148.384" result="effect1_foregroundBlur_1126_7047"/>
</filter>
<filter id="filter2_f_1126_7047" x="-580.503" y="-392.175" width="950.504" height="950.504" filterUnits="userSpaceOnUse" color-interpolation-filters="sRGB">
<feFlood flood-opacity="0" result="BackgroundImageFix"/>
<feBlend mode="normal" in="SourceGraphic" in2="BackgroundImageFix" result="shape"/>
<feGaussianBlur stdDeviation="148.384" result="effect1_foregroundBlur_1126_7047"/>
</filter>
<filter id="filter3_f_1126_7047" x="-278.648" y="-434.57" width="950.504" height="950.504" filterUnits="userSpaceOnUse" color-interpolation-filters="sRGB">
<feFlood flood-opacity="0" result="BackgroundImageFix"/>
<feBlend mode="normal" in="SourceGraphic" in2="BackgroundImageFix" result="shape"/>
<feGaussianBlur stdDeviation="148.384" result="effect1_foregroundBlur_1126_7047"/>
</filter>
<filter id="filter4_f_1126_7047" x="445.232" y="143.5" width="950.504" height="950.504" filterUnits="userSpaceOnUse" color-interpolation-filters="sRGB">
<feFlood flood-opacity="0" result="BackgroundImageFix"/>
<feBlend mode="normal" in="SourceGraphic" in2="BackgroundImageFix" result="shape"/>
<feGaussianBlur stdDeviation="148.384" result="effect1_foregroundBlur_1126_7047"/>
</filter>
<filter id="filter5_f_1126_7047" x="630.924" y="313.081" width="950.504" height="950.504" filterUnits="userSpaceOnUse" color-interpolation-filters="sRGB">
<feFlood flood-opacity="0" result="BackgroundImageFix"/>
<feBlend mode="normal" in="SourceGraphic" in2="BackgroundImageFix" result="shape"/>
<feGaussianBlur stdDeviation="148.384" result="effect1_foregroundBlur_1126_7047"/>
</filter>
<filter id="filter6_f_1126_7047" x="792.874" y="-3.18747" width="950.504" height="950.504" filterUnits="userSpaceOnUse" color-interpolation-filters="sRGB">
<feFlood flood-opacity="0" result="BackgroundImageFix"/>
<feBlend mode="normal" in="SourceGraphic" in2="BackgroundImageFix" result="shape"/>
<feGaussianBlur stdDeviation="148.384" result="effect1_foregroundBlur_1126_7047"/>
</filter>
<filter id="filter7_f_1126_7047" x="835.27" y="-305.043" width="950.504" height="950.504" filterUnits="userSpaceOnUse" color-interpolation-filters="sRGB">
<feFlood flood-opacity="0" result="BackgroundImageFix"/>
<feBlend mode="normal" in="SourceGraphic" in2="BackgroundImageFix" result="shape"/>
<feGaussianBlur stdDeviation="148.384" result="effect1_foregroundBlur_1126_7047"/>
</filter>
<clipPath id="clip0_1126_7047">
<rect width="1440" height="471" fill="white" transform="translate(0 0.599609)"/>
</clipPath>
</defs>
</svg>