<svg width="312" height="56" viewBox="0 0 312 56" fill="none" xmlns="http://www.w3.org/2000/svg">
<path d="M282.944 4.00098H7.5C5.29086 4.00098 3.5 5.79184 3.5 8.00098V52.001C3.5 54.2101 5.29086 56.001 7.49999 56.001H282.944C283.98 56.001 284.976 55.5988 285.721 54.8792L308.518 32.8792C310.147 31.3064 310.147 28.6955 308.518 27.1227L285.721 5.12274C284.976 4.40313 283.98 4.00098 282.944 4.00098Z" fill="#B9431D"/>
<path d="M305.17 28.5194L305.518 28.8792L305.17 28.5194L282.374 50.5194C281.722 51.1491 280.85 51.501 279.944 51.501H4.49999C2.567 51.501 1 49.934 1 48.001V4.00098C1 2.06798 2.567 0.500977 4.5 0.500977H279.944C280.85 0.500977 281.722 0.852856 282.374 1.48252L305.17 23.4825C306.596 24.8587 306.596 27.1432 305.17 28.5194Z" fill="#EB714A" stroke="#B9431D"/>
<path d="M14.4607 31.001C14.358 31.001 14.2787 30.973 14.2227 30.917C14.1667 30.8516 14.1387 30.7723 14.1387 30.679V21.537C14.1387 21.4343 14.1667 21.355 14.2227 21.299C14.2787 21.2336 14.358 21.201 14.4607 21.201H18.0167C18.7073 21.201 19.3047 21.313 19.8087 21.537C20.322 21.761 20.7187 22.097 20.9987 22.545C21.2787 22.9836 21.4187 23.5343 21.4187 24.197C21.4187 24.8596 21.2787 25.4103 20.9987 25.849C20.7187 26.2876 20.322 26.619 19.8087 26.843C19.3047 27.067 18.7073 27.179 18.0167 27.179H15.5387V30.679C15.5387 30.7723 15.506 30.8516 15.4407 30.917C15.3847 30.973 15.3053 31.001 15.2027 31.001H14.4607ZM15.5247 26.003H17.9467C18.6373 26.003 19.1553 25.849 19.5007 25.541C19.846 25.233 20.0187 24.785 20.0187 24.197C20.0187 23.6183 19.8507 23.1703 19.5147 22.853C19.1787 22.5356 18.656 22.377 17.9467 22.377H15.5247V26.003ZM25.5454 31.141C24.8361 31.141 24.2434 31.0056 23.7674 30.735C23.2914 30.4643 22.9274 30.091 22.6754 29.615C22.4234 29.1296 22.2834 28.579 22.2554 27.963C22.2461 27.8043 22.2414 27.6036 22.2414 27.361C22.2414 27.109 22.2461 26.9083 22.2554 26.759C22.2834 26.1336 22.4234 25.583 22.6754 25.107C22.9367 24.631 23.3054 24.2576 23.7814 23.987C24.2574 23.7163 24.8454 23.581 25.5454 23.581C26.2454 23.581 26.8334 23.7163 27.3094 23.987C27.7854 24.2576 28.1494 24.631 28.4014 25.107C28.6627 25.583 28.8074 26.1336 28.8354 26.759C28.8447 26.9083 28.8494 27.109 28.8494 27.361C28.8494 27.6036 28.8447 27.8043 28.8354 27.963C28.8074 28.579 28.6674 29.1296 28.4154 29.615C28.1634 30.091 27.7994 30.4643 27.3234 30.735C26.8474 31.0056 26.2547 31.141 25.5454 31.141ZM25.5454 30.063C26.1241 30.063 26.5861 29.881 26.9314 29.517C27.2767 29.1436 27.4634 28.6023 27.4914 27.893C27.5007 27.753 27.5054 27.5756 27.5054 27.361C27.5054 27.1463 27.5007 26.969 27.4914 26.829C27.4634 26.1196 27.2767 25.583 26.9314 25.219C26.5861 24.8456 26.1241 24.659 25.5454 24.659C24.9667 24.659 24.5001 24.8456 24.1454 25.219C23.8001 25.583 23.6181 26.1196 23.5994 26.829C23.5901 26.969 23.5854 27.1463 23.5854 27.361C23.5854 27.5756 23.5901 27.753 23.5994 27.893C23.6181 28.6023 23.8001 29.1436 24.1454 29.517C24.5001 29.881 24.9667 30.063 25.5454 30.063ZM30.6444 31.001C30.5511 31.001 30.4718 30.973 30.4064 30.917C30.3504 30.8516 30.3224 30.7723 30.3224 30.679V24.057C30.3224 23.9636 30.3504 23.8843 30.4064 23.819C30.4718 23.7536 30.5511 23.721 30.6444 23.721H31.2884C31.3818 23.721 31.4611 23.7536 31.5264 23.819C31.5918 23.8843 31.6244 23.9636 31.6244 24.057V24.673C31.8111 24.3556 32.0678 24.1176 32.3944 23.959C32.7211 23.8003 33.1131 23.721 33.5704 23.721H34.1304C34.2238 23.721 34.2984 23.7536 34.3544 23.819C34.4104 23.875 34.4384 23.9496 34.4384 24.043V24.617C34.4384 24.7103 34.4104 24.785 34.3544 24.841C34.2984 24.897 34.2238 24.925 34.1304 24.925H33.2904C32.7864 24.925 32.3898 25.0743 32.1004 25.373C31.8111 25.6623 31.6664 26.059 31.6664 26.563V30.679C31.6664 30.7723 31.6338 30.8516 31.5684 30.917C31.5031 30.973 31.4238 31.001 31.3304 31.001H30.6444ZM38.2028 31.001C37.6801 31.001 37.2555 30.903 36.9288 30.707C36.6021 30.5016 36.3641 30.217 36.2148 29.853C36.0655 29.4796 35.9908 29.041 35.9908 28.537V24.841H34.8988C34.8055 24.841 34.7261 24.813 34.6608 24.757C34.6048 24.6916 34.5768 24.6123 34.5768 24.519V24.043C34.5768 23.9496 34.6048 23.875 34.6608 23.819C34.7261 23.7536 34.8055 23.721 34.8988 23.721H35.9908V21.383C35.9908 21.2896 36.0188 21.215 36.0748 21.159C36.1401 21.0936 36.2195 21.061 36.3128 21.061H36.9708C37.0641 21.061 37.1388 21.0936 37.1948 21.159C37.2601 21.215 37.2928 21.2896 37.2928 21.383V23.721H39.0288C39.1221 23.721 39.1968 23.7536 39.2528 23.819C39.3181 23.875 39.3508 23.9496 39.3508 24.043V24.519C39.3508 24.6123 39.3181 24.6916 39.2528 24.757C39.1968 24.813 39.1221 24.841 39.0288 24.841H37.2928V28.439C37.2928 28.8776 37.3675 29.223 37.5168 29.475C37.6661 29.727 37.9321 29.853 38.3148 29.853H39.1688C39.2621 29.853 39.3368 29.8856 39.3928 29.951C39.4581 30.007 39.4908 30.0816 39.4908 30.175V30.679C39.4908 30.7723 39.4581 30.8516 39.3928 30.917C39.3368 30.973 39.2621 31.001 39.1688 31.001H38.2028ZM41.5996 31.001C41.5062 31.001 41.4269 30.973 41.3616 30.917C41.3056 30.8516 41.2776 30.7723 41.2776 30.679V24.841H40.0876C39.9942 24.841 39.9149 24.813 39.8496 24.757C39.7936 24.6916 39.7656 24.6123 39.7656 24.519V24.043C39.7656 23.9496 39.7936 23.875 39.8496 23.819C39.9149 23.7536 39.9942 23.721 40.0876 23.721H41.2776V23.021C41.2776 22.545 41.3569 22.1296 41.5156 21.775C41.6742 21.411 41.9262 21.131 42.2716 20.935C42.6262 20.739 43.0976 20.641 43.6856 20.641H44.5256C44.6189 20.641 44.6936 20.6736 44.7496 20.739C44.8056 20.795 44.8336 20.8696 44.8336 20.963V21.439C44.8336 21.5323 44.8056 21.6116 44.7496 21.677C44.6936 21.733 44.6189 21.761 44.5256 21.761H43.7136C43.2749 21.761 42.9762 21.8776 42.8176 22.111C42.6589 22.335 42.5796 22.6616 42.5796 23.091V23.721H44.3856C44.4789 23.721 44.5536 23.7536 44.6096 23.819C44.6656 23.875 44.6936 23.9496 44.6936 24.043V24.519C44.6936 24.6123 44.6656 24.6916 44.6096 24.757C44.5536 24.813 44.4789 24.841 44.3856 24.841H42.5796V30.679C42.5796 30.7723 42.5469 30.8516 42.4816 30.917C42.4256 30.973 42.3509 31.001 42.2576 31.001H41.5996ZM48.5016 31.141C47.7922 31.141 47.1996 31.0056 46.7236 30.735C46.2476 30.4643 45.8836 30.091 45.6316 29.615C45.3796 29.1296 45.2396 28.579 45.2116 27.963C45.2022 27.8043 45.1976 27.6036 45.1976 27.361C45.1976 27.109 45.2022 26.9083 45.2116 26.759C45.2396 26.1336 45.3796 25.583 45.6316 25.107C45.8929 24.631 46.2616 24.2576 46.7376 23.987C47.2136 23.7163 47.8016 23.581 48.5016 23.581C49.2016 23.581 49.7896 23.7163 50.2656 23.987C50.7416 24.2576 51.1056 24.631 51.3576 25.107C51.6189 25.583 51.7636 26.1336 51.7916 26.759C51.8009 26.9083 51.8056 27.109 51.8056 27.361C51.8056 27.6036 51.8009 27.8043 51.7916 27.963C51.7636 28.579 51.6236 29.1296 51.3716 29.615C51.1196 30.091 50.7556 30.4643 50.2796 30.735C49.8036 31.0056 49.2109 31.141 48.5016 31.141ZM48.5016 30.063C49.0802 30.063 49.5422 29.881 49.8876 29.517C50.2329 29.1436 50.4196 28.6023 50.4476 27.893C50.4569 27.753 50.4616 27.5756 50.4616 27.361C50.4616 27.1463 50.4569 26.969 50.4476 26.829C50.4196 26.1196 50.2329 25.583 49.8876 25.219C49.5422 24.8456 49.0802 24.659 48.5016 24.659C47.9229 24.659 47.4562 24.8456 47.1016 25.219C46.7562 25.583 46.5742 26.1196 46.5556 26.829C46.5462 26.969 46.5416 27.1463 46.5416 27.361C46.5416 27.5756 46.5462 27.753 46.5556 27.893C46.5742 28.6023 46.7562 29.1436 47.1016 29.517C47.4562 29.881 47.9229 30.063 48.5016 30.063ZM53.6146 31.001C53.5213 31.001 53.442 30.973 53.3766 30.917C53.3206 30.8516 53.2926 30.7723 53.2926 30.679V21.383C53.2926 21.2896 53.3206 21.215 53.3766 21.159C53.442 21.0936 53.5213 21.061 53.6146 21.061H54.2726C54.3753 21.061 54.4546 21.0936 54.5106 21.159C54.5666 21.215 54.5946 21.2896 54.5946 21.383V30.679C54.5946 30.7723 54.5666 30.8516 54.5106 30.917C54.4546 30.973 54.3753 31.001 54.2726 31.001H53.6146ZM56.7249 31.001C56.6316 31.001 56.5523 30.973 56.4869 30.917C56.4309 30.8516 56.4029 30.7723 56.4029 30.679V24.043C56.4029 23.9496 56.4309 23.875 56.4869 23.819C56.5523 23.7536 56.6316 23.721 56.7249 23.721H57.3969C57.4903 23.721 57.5649 23.7536 57.6209 23.819C57.6769 23.875 57.7049 23.9496 57.7049 24.043V30.679C57.7049 30.7723 57.6769 30.8516 57.6209 30.917C57.5649 30.973 57.4903 31.001 57.3969 31.001H56.7249ZM56.6129 22.363C56.5196 22.363 56.4403 22.335 56.3749 22.279C56.3189 22.2136 56.2909 22.1343 56.2909 22.041V21.285C56.2909 21.1916 56.3189 21.117 56.3749 21.061C56.4403 20.9956 56.5196 20.963 56.6129 20.963H57.4949C57.5883 20.963 57.6629 20.9956 57.7189 21.061C57.7843 21.117 57.8169 21.1916 57.8169 21.285V22.041C57.8169 22.1343 57.7843 22.2136 57.7189 22.279C57.6629 22.335 57.5883 22.363 57.4949 22.363H56.6129ZM62.4955 31.141C61.7862 31.141 61.1935 31.0056 60.7175 30.735C60.2415 30.4643 59.8775 30.091 59.6255 29.615C59.3735 29.1296 59.2335 28.579 59.2055 27.963C59.1962 27.8043 59.1915 27.6036 59.1915 27.361C59.1915 27.109 59.1962 26.9083 59.2055 26.759C59.2335 26.1336 59.3735 25.583 59.6255 25.107C59.8869 24.631 60.2555 24.2576 60.7315 23.987C61.2075 23.7163 61.7955 23.581 62.4955 23.581C63.1955 23.581 63.7835 23.7163 64.2595 23.987C64.7355 24.2576 65.0995 24.631 65.3515 25.107C65.6129 25.583 65.7575 26.1336 65.7855 26.759C65.7949 26.9083 65.7995 27.109 65.7995 27.361C65.7995 27.6036 65.7949 27.8043 65.7855 27.963C65.7575 28.579 65.6175 29.1296 65.3655 29.615C65.1135 30.091 64.7495 30.4643 64.2735 30.735C63.7975 31.0056 63.2049 31.141 62.4955 31.141ZM62.4955 30.063C63.0742 30.063 63.5362 29.881 63.8815 29.517C64.2269 29.1436 64.4135 28.6023 64.4415 27.893C64.4509 27.753 64.4555 27.5756 64.4555 27.361C64.4555 27.1463 64.4509 26.969 64.4415 26.829C64.4135 26.1196 64.2269 25.583 63.8815 25.219C63.5362 24.8456 63.0742 24.659 62.4955 24.659C61.9169 24.659 61.4502 24.8456 61.0955 25.219C60.7502 25.583 60.5682 26.1196 60.5495 26.829C60.5402 26.969 60.5355 27.1463 60.5355 27.361C60.5355 27.5756 60.5402 27.753 60.5495 27.893C60.5682 28.6023 60.7502 29.1436 61.0955 29.517C61.4502 29.881 61.9169 30.063 62.4955 30.063ZM70.9282 31.001C70.8349 31.001 70.7556 30.973 70.6902 30.917C70.6342 30.8516 70.6062 30.7723 70.6062 30.679V21.537C70.6062 21.4343 70.6342 21.355 70.6902 21.299C70.7556 21.2336 70.8349 21.201 70.9282 21.201H71.6282C71.7402 21.201 71.8242 21.229 71.8802 21.285C71.9362 21.341 71.9689 21.3876 71.9782 21.425L74.9462 27.081L77.9282 21.425C77.9469 21.3876 77.9796 21.341 78.0262 21.285C78.0822 21.229 78.1662 21.201 78.2782 21.201H78.9642C79.0669 21.201 79.1462 21.2336 79.2022 21.299C79.2676 21.355 79.3002 21.4343 79.3002 21.537V30.679C79.3002 30.7723 79.2676 30.8516 79.2022 30.917C79.1462 30.973 79.0669 31.001 78.9642 31.001H78.2782C78.1849 31.001 78.1056 30.973 78.0402 30.917C77.9842 30.8516 77.9562 30.7723 77.9562 30.679V23.791L75.6182 28.355C75.5809 28.4483 75.5249 28.523 75.4502 28.579C75.3756 28.6256 75.2822 28.649 75.1702 28.649H74.7362C74.6149 28.649 74.5169 28.6256 74.4422 28.579C74.3769 28.523 74.3209 28.4483 74.2742 28.355L71.9362 23.791V30.679C71.9362 30.7723 71.9036 30.8516 71.8382 30.917C71.7822 30.973 71.7076 31.001 71.6142 31.001H70.9282ZM83.2895 31.141C82.8228 31.141 82.3981 31.0476 82.0155 30.861C81.6328 30.6743 81.3248 30.4223 81.0915 30.105C80.8581 29.7876 80.7415 29.4283 80.7415 29.027C80.7415 28.383 81.0028 27.8696 81.5255 27.487C82.0481 27.1043 82.7295 26.8523 83.5695 26.731L85.6555 26.437V26.031C85.6555 25.583 85.5248 25.233 85.2635 24.981C85.0115 24.729 84.5961 24.603 84.0175 24.603C83.5975 24.603 83.2568 24.687 82.9955 24.855C82.7435 25.023 82.5661 25.2376 82.4635 25.499C82.4075 25.639 82.3095 25.709 82.1695 25.709H81.5395C81.4368 25.709 81.3575 25.681 81.3015 25.625C81.2548 25.5596 81.2315 25.485 81.2315 25.401C81.2315 25.261 81.2828 25.0883 81.3855 24.883C81.4975 24.6776 81.6655 24.477 81.8895 24.281C82.1135 24.085 82.3981 23.9216 82.7435 23.791C83.0981 23.651 83.5275 23.581 84.0315 23.581C84.5915 23.581 85.0628 23.6556 85.4455 23.805C85.8281 23.945 86.1268 24.1363 86.3415 24.379C86.5655 24.6216 86.7241 24.897 86.8175 25.205C86.9201 25.513 86.9715 25.8256 86.9715 26.143V30.679C86.9715 30.7723 86.9388 30.8516 86.8735 30.917C86.8175 30.973 86.7428 31.001 86.6495 31.001H86.0055C85.9028 31.001 85.8235 30.973 85.7675 30.917C85.7115 30.8516 85.6835 30.7723 85.6835 30.679V30.077C85.5621 30.245 85.3988 30.413 85.1935 30.581C84.9881 30.7396 84.7315 30.875 84.4235 30.987C84.1155 31.0896 83.7375 31.141 83.2895 31.141ZM83.5835 30.091C83.9661 30.091 84.3161 30.0116 84.6335 29.853C84.9508 29.685 85.1981 29.4283 85.3755 29.083C85.5621 28.7376 85.6555 28.3036 85.6555 27.781V27.389L84.0315 27.627C83.3688 27.7203 82.8695 27.879 82.5335 28.103C82.1975 28.3176 82.0295 28.593 82.0295 28.929C82.0295 29.1903 82.1041 29.4096 82.2535 29.587C82.4121 29.755 82.6081 29.881 82.8415 29.965C83.0841 30.049 83.3315 30.091 83.5835 30.091ZM88.3681 31.001C88.2934 31.001 88.2234 30.973 88.1581 30.917C88.1021 30.861 88.0741 30.791 88.0741 30.707C88.0741 30.679 88.0788 30.6463 88.0881 30.609C88.1068 30.5623 88.1348 30.511 88.1721 30.455L90.6081 27.277L88.3261 24.267C88.2888 24.211 88.2608 24.1643 88.2421 24.127C88.2328 24.0896 88.2281 24.0523 88.2281 24.015C88.2281 23.931 88.2561 23.861 88.3121 23.805C88.3681 23.749 88.4381 23.721 88.5221 23.721H89.2361C89.3388 23.721 89.4134 23.749 89.4601 23.805C89.5161 23.8516 89.5628 23.8983 89.6001 23.945L91.4621 26.367L93.3241 23.959C93.3614 23.9123 93.4034 23.861 93.4501 23.805C93.5061 23.749 93.5854 23.721 93.6881 23.721H94.3741C94.4581 23.721 94.5281 23.749 94.5841 23.805C94.6401 23.861 94.6681 23.931 94.6681 24.015C94.6681 24.0523 94.6588 24.0896 94.6401 24.127C94.6308 24.1643 94.6074 24.211 94.5701 24.267L92.2601 27.305L94.6961 30.455C94.7334 30.511 94.7568 30.5576 94.7661 30.595C94.7848 30.6323 94.7941 30.6696 94.7941 30.707C94.7941 30.791 94.7661 30.861 94.7101 30.917C94.6541 30.973 94.5841 31.001 94.5001 31.001H93.7581C93.6648 31.001 93.5901 30.9776 93.5341 30.931C93.4781 30.8843 93.4314 30.8376 93.3941 30.791L91.4201 28.229L89.4461 30.791C89.4088 30.8283 89.3621 30.875 89.3061 30.931C89.2594 30.9776 89.1848 31.001 89.0821 31.001H88.3681ZM96.293 31.001C96.1996 31.001 96.1203 30.973 96.055 30.917C95.999 30.8516 95.971 30.7723 95.971 30.679V24.043C95.971 23.9496 95.999 23.875 96.055 23.819C96.1203 23.7536 96.1996 23.721 96.293 23.721H96.965C97.0583 23.721 97.133 23.7536 97.189 23.819C97.245 23.875 97.273 23.9496 97.273 24.043V30.679C97.273 30.7723 97.245 30.8516 97.189 30.917C97.133 30.973 97.0583 31.001 96.965 31.001H96.293ZM96.181 22.363C96.0876 22.363 96.0083 22.335 95.943 22.279C95.887 22.2136 95.859 22.1343 95.859 22.041V21.285C95.859 21.1916 95.887 21.117 95.943 21.061C96.0083 20.9956 96.0876 20.963 96.181 20.963H97.063C97.1563 20.963 97.231 20.9956 97.287 21.061C97.3523 21.117 97.385 21.1916 97.385 21.285V22.041C97.385 22.1343 97.3523 22.2136 97.287 22.279C97.231 22.335 97.1563 22.363 97.063 22.363H96.181ZM99.4036 31.001C99.3103 31.001 99.2309 30.973 99.1656 30.917C99.1096 30.8516 99.0816 30.7723 99.0816 30.679V24.043C99.0816 23.9496 99.1096 23.875 99.1656 23.819C99.2309 23.7536 99.3103 23.721 99.4036 23.721H100.034C100.127 23.721 100.202 23.7536 100.258 23.819C100.323 23.875 100.356 23.9496 100.356 24.043V24.533C100.57 24.2436 100.841 24.015 101.168 23.847C101.494 23.6696 101.886 23.581 102.344 23.581C103.398 23.5716 104.145 24.001 104.584 24.869C104.798 24.477 105.111 24.1643 105.522 23.931C105.932 23.6976 106.399 23.581 106.922 23.581C107.407 23.581 107.846 23.693 108.238 23.917C108.639 24.141 108.952 24.4816 109.176 24.939C109.409 25.387 109.526 25.9516 109.526 26.633V30.679C109.526 30.7723 109.493 30.8516 109.428 30.917C109.372 30.973 109.297 31.001 109.204 31.001H108.546C108.452 31.001 108.373 30.973 108.308 30.917C108.252 30.8516 108.224 30.7723 108.224 30.679V26.759C108.224 26.2363 108.149 25.8256 108 25.527C107.85 25.2283 107.65 25.0183 107.398 24.897C107.146 24.7756 106.87 24.715 106.572 24.715C106.329 24.715 106.082 24.7756 105.83 24.897C105.578 25.0183 105.368 25.2283 105.2 25.527C105.041 25.8256 104.962 26.2363 104.962 26.759V30.679C104.962 30.7723 104.929 30.8516 104.864 30.917C104.808 30.973 104.733 31.001 104.64 31.001H103.982C103.888 31.001 103.809 30.973 103.744 30.917C103.688 30.8516 103.66 30.7723 103.66 30.679V26.759C103.66 26.2363 103.58 25.8256 103.422 25.527C103.263 25.2283 103.058 25.0183 102.806 24.897C102.554 24.7756 102.288 24.715 102.008 24.715C101.765 24.715 101.518 24.7756 101.266 24.897C101.014 25.0183 100.804 25.2283 100.636 25.527C100.477 25.8256 100.398 26.2316 100.398 26.745V30.679C100.398 30.7723 100.365 30.8516 100.3 30.917C100.244 30.973 100.169 31.001 100.076 31.001H99.4036ZM114.141 31.141C113.18 31.141 112.414 30.847 111.845 30.259C111.276 29.6616 110.963 28.8496 110.907 27.823C110.898 27.7016 110.893 27.5476 110.893 27.361C110.893 27.165 110.898 27.0063 110.907 26.885C110.944 26.2223 111.098 25.6436 111.369 25.149C111.64 24.645 112.008 24.2576 112.475 23.987C112.951 23.7163 113.506 23.581 114.141 23.581C114.85 23.581 115.443 23.7303 115.919 24.029C116.404 24.3276 116.773 24.7523 117.025 25.303C117.277 25.8536 117.403 26.4976 117.403 27.235V27.473C117.403 27.5756 117.37 27.655 117.305 27.711C117.249 27.767 117.174 27.795 117.081 27.795H112.237C112.237 27.8043 112.237 27.823 112.237 27.851C112.237 27.879 112.237 27.9023 112.237 27.921C112.256 28.3036 112.34 28.663 112.489 28.999C112.638 29.3256 112.853 29.5916 113.133 29.797C113.413 30.0023 113.749 30.105 114.141 30.105C114.477 30.105 114.757 30.0536 114.981 29.951C115.205 29.8483 115.387 29.7363 115.527 29.615C115.667 29.4843 115.76 29.3863 115.807 29.321C115.891 29.1996 115.956 29.1296 116.003 29.111C116.05 29.083 116.124 29.069 116.227 29.069H116.899C116.992 29.069 117.067 29.097 117.123 29.153C117.188 29.1996 117.216 29.2696 117.207 29.363C117.198 29.503 117.123 29.6756 116.983 29.881C116.843 30.077 116.642 30.273 116.381 30.469C116.12 30.665 115.802 30.8283 115.429 30.959C115.056 31.0803 114.626 31.141 114.141 31.141ZM112.237 26.829H116.073V26.787C116.073 26.367 115.994 25.9936 115.835 25.667C115.686 25.3403 115.466 25.0836 115.177 24.897C114.888 24.701 114.542 24.603 114.141 24.603C113.74 24.603 113.394 24.701 113.105 24.897C112.825 25.0836 112.61 25.3403 112.461 25.667C112.312 25.9936 112.237 26.367 112.237 26.787V26.829ZM119.119 31.001C119.026 31.001 118.946 30.973 118.881 30.917C118.825 30.8516 118.797 30.7723 118.797 30.679V24.057C118.797 23.9636 118.825 23.8843 118.881 23.819C118.946 23.7536 119.026 23.721 119.119 23.721H119.763C119.856 23.721 119.936 23.7536 120.001 23.819C120.066 23.8843 120.099 23.9636 120.099 24.057V24.673C120.286 24.3556 120.542 24.1176 120.869 23.959C121.196 23.8003 121.588 23.721 122.045 23.721H122.605C122.698 23.721 122.773 23.7536 122.829 23.819C122.885 23.875 122.913 23.9496 122.913 24.043V24.617C122.913 24.7103 122.885 24.785 122.829 24.841C122.773 24.897 122.698 24.925 122.605 24.925H121.765C121.261 24.925 120.864 25.0743 120.575 25.373C120.286 25.6623 120.141 26.059 120.141 26.563V30.679C120.141 30.7723 120.108 30.8516 120.043 30.917C119.978 30.973 119.898 31.001 119.805 31.001H119.119Z" fill="white"/>
<rect x="248.5" y="12.001" width="28" height="28" rx="14" fill="white"/>
<path d="M264.266 31.001C264.173 31.001 264.094 30.973 264.028 30.917C263.972 30.8516 263.944 30.7723 263.944 30.679V28.663H259.408C259.315 28.663 259.236 28.635 259.17 28.579C259.114 28.5136 259.086 28.4343 259.086 28.341V27.781C259.086 27.7436 259.096 27.6876 259.114 27.613C259.142 27.529 259.184 27.445 259.24 27.361L263.44 21.439C263.552 21.2803 263.725 21.201 263.958 21.201H264.966C265.06 21.201 265.134 21.2336 265.19 21.299C265.256 21.355 265.288 21.4296 265.288 21.523V27.445H266.548C266.651 27.445 266.73 27.4776 266.786 27.543C266.852 27.599 266.884 27.6736 266.884 27.767V28.341C266.884 28.4343 266.852 28.5136 266.786 28.579C266.73 28.635 266.656 28.663 266.562 28.663H265.288V30.679C265.288 30.7723 265.256 30.8516 265.19 30.917C265.134 30.973 265.06 31.001 264.966 31.001H264.266ZM260.584 27.473H263.958V22.671L260.584 27.473Z" fill="#EB714A"/>
</svg>
