<svg width="304" height="79" viewBox="0 0 304 79" fill="none" xmlns="http://www.w3.org/2000/svg">
<path d="M275.692 5H8C5.79086 5 4 6.79086 4 9V75C4 77.2091 5.79087 79 8.00001 79H275.692C276.988 79 278.205 78.3716 278.955 77.314L302.359 44.314C303.342 42.9279 303.342 41.0721 302.359 39.686L278.955 6.68601C278.205 5.62843 276.988 5 275.692 5Z" fill="#B9431D"/>
<path d="M4.07971 0.900391H271.772C272.906 0.900391 273.97 1.45027 274.626 2.37565L298.031 35.3756C298.891 36.5884 298.891 38.2123 298.031 39.4251L274.626 72.4251C273.97 73.3505 272.906 73.9004 271.772 73.9004H4.07972C2.14672 73.9004 0.579712 72.3334 0.579712 70.4004V4.40039C0.579712 2.4674 2.14672 0.900391 4.07971 0.900391Z" fill="#EB714A" stroke="#B9431D"/>
<path d="M14.8932 43.9004C14.7612 43.9004 14.6592 43.8644 14.5872 43.7924C14.5152 43.7084 14.4792 43.6064 14.4792 43.4864V31.7324C14.4792 31.6004 14.5152 31.4984 14.5872 31.4264C14.6592 31.3424 14.7612 31.3004 14.8932 31.3004H19.4652C20.3532 31.3004 21.1212 31.4444 21.7692 31.7324C22.4292 32.0204 22.9392 32.4524 23.2992 33.0284C23.6592 33.5924 23.8392 34.3004 23.8392 35.1524C23.8392 36.0044 23.6592 36.7124 23.2992 37.2764C22.9392 37.8404 22.4292 38.2664 21.7692 38.5544C21.1212 38.8424 20.3532 38.9864 19.4652 38.9864H16.2792V43.4864C16.2792 43.6064 16.2372 43.7084 16.1532 43.7924C16.0812 43.8644 15.9792 43.9004 15.8472 43.9004H14.8932ZM16.2612 37.4744H19.3752C20.2632 37.4744 20.9292 37.2764 21.3732 36.8804C21.8172 36.4844 22.0392 35.9084 22.0392 35.1524C22.0392 34.4084 21.8232 33.8324 21.3912 33.4244C20.9592 33.0164 20.2872 32.8124 19.3752 32.8124H16.2612V37.4744ZM29.145 44.0804C28.233 44.0804 27.471 43.9064 26.859 43.5584C26.247 43.2104 25.779 42.7304 25.455 42.1184C25.131 41.4944 24.951 40.7864 24.915 39.9944C24.903 39.7904 24.897 39.5324 24.897 39.2204C24.897 38.8964 24.903 38.6384 24.915 38.4464C24.951 37.6424 25.131 36.9344 25.455 36.3224C25.791 35.7104 26.265 35.2304 26.877 34.8824C27.489 34.5344 28.245 34.3604 29.145 34.3604C30.045 34.3604 30.801 34.5344 31.413 34.8824C32.025 35.2304 32.493 35.7104 32.817 36.3224C33.153 36.9344 33.339 37.6424 33.375 38.4464C33.387 38.6384 33.393 38.8964 33.393 39.2204C33.393 39.5324 33.387 39.7904 33.375 39.9944C33.339 40.7864 33.159 41.4944 32.835 42.1184C32.511 42.7304 32.043 43.2104 31.431 43.5584C30.819 43.9064 30.057 44.0804 29.145 44.0804ZM29.145 42.6944C29.889 42.6944 30.483 42.4604 30.927 41.9924C31.371 41.5124 31.611 40.8164 31.647 39.9044C31.659 39.7244 31.665 39.4964 31.665 39.2204C31.665 38.9444 31.659 38.7164 31.647 38.5364C31.611 37.6244 31.371 36.9344 30.927 36.4664C30.483 35.9864 29.889 35.7464 29.145 35.7464C28.401 35.7464 27.801 35.9864 27.345 36.4664C26.901 36.9344 26.667 37.6244 26.643 38.5364C26.631 38.7164 26.625 38.9444 26.625 39.2204C26.625 39.4964 26.631 39.7244 26.643 39.9044C26.667 40.8164 26.901 41.5124 27.345 41.9924C27.801 42.4604 28.401 42.6944 29.145 42.6944ZM35.7009 43.9004C35.5809 43.9004 35.4789 43.8644 35.3949 43.7924C35.3229 43.7084 35.2869 43.6064 35.2869 43.4864V34.9724C35.2869 34.8524 35.3229 34.7504 35.3949 34.6664C35.4789 34.5824 35.5809 34.5404 35.7009 34.5404H36.5289C36.6489 34.5404 36.7509 34.5824 36.8349 34.6664C36.9189 34.7504 36.9609 34.8524 36.9609 34.9724V35.7644C37.2009 35.3564 37.5309 35.0504 37.9509 34.8464C38.3709 34.6424 38.8809 34.5404 39.4809 34.5404H40.1829C40.3029 34.5404 40.3989 34.5824 40.4709 34.6664C40.5549 34.7384 40.5969 34.8344 40.5969 34.9544V35.6924C40.5969 35.8124 40.5549 35.9084 40.4709 35.9804C40.3989 36.0524 40.3029 36.0884 40.1829 36.0884H39.1029C38.4549 36.0884 37.9449 36.2804 37.5729 36.6644C37.2009 37.0364 37.0149 37.5464 37.0149 38.1944V43.4864C37.0149 43.6064 36.9729 43.7084 36.8889 43.7924C36.8049 43.8644 36.7029 43.9004 36.5829 43.9004H35.7009ZM45.4188 43.9004C44.7468 43.9004 44.2008 43.7744 43.7808 43.5224C43.3608 43.2584 43.0548 42.8924 42.8628 42.4244C42.6708 41.9444 42.5748 41.3804 42.5748 40.7324V35.9804H41.1708C41.0508 35.9804 40.9488 35.9444 40.8648 35.8724C40.7928 35.7884 40.7568 35.6864 40.7568 35.5664V34.9544C40.7568 34.8344 40.7928 34.7384 40.8648 34.6664C40.9488 34.5824 41.0508 34.5404 41.1708 34.5404H42.5748V31.5344C42.5748 31.4144 42.6108 31.3184 42.6828 31.2464C42.7668 31.1624 42.8688 31.1204 42.9888 31.1204H43.8348C43.9548 31.1204 44.0508 31.1624 44.1228 31.2464C44.2068 31.3184 44.2488 31.4144 44.2488 31.5344V34.5404H46.4808C46.6128 34.5404 46.7148 34.5824 46.7868 34.6664C46.8588 34.7384 46.8948 34.8344 46.8948 34.9544V35.5664C46.8948 35.6864 46.8588 35.7884 46.7868 35.8724C46.7148 35.9444 46.6128 35.9804 46.4808 35.9804H44.2488V40.6064C44.2488 41.1704 44.3448 41.6144 44.5368 41.9384C44.7288 42.2624 45.0708 42.4244 45.5628 42.4244H46.6608C46.7808 42.4244 46.8768 42.4664 46.9488 42.5504C47.0328 42.6224 47.0748 42.7184 47.0748 42.8384V43.4864C47.0748 43.6064 47.0328 43.7084 46.9488 43.7924C46.8768 43.8644 46.7808 43.9004 46.6608 43.9004H45.4188ZM49.7861 43.9004C49.6661 43.9004 49.5641 43.8644 49.4801 43.7924C49.4081 43.7084 49.3721 43.6064 49.3721 43.4864V35.9804H47.8421C47.7221 35.9804 47.6201 35.9444 47.5361 35.8724C47.4641 35.7884 47.4281 35.6864 47.4281 35.5664V34.9544C47.4281 34.8344 47.4641 34.7384 47.5361 34.6664C47.6201 34.5824 47.7221 34.5404 47.8421 34.5404H49.3721V33.6404C49.3721 33.0284 49.4741 32.4944 49.6781 32.0384C49.8821 31.5704 50.2061 31.2104 50.6501 30.9584C51.1061 30.7064 51.7121 30.5804 52.4681 30.5804H53.5481C53.6681 30.5804 53.7641 30.6224 53.8361 30.7064C53.9201 30.7784 53.9621 30.8744 53.9621 30.9944V31.6064C53.9621 31.7264 53.9201 31.8284 53.8361 31.9124C53.7641 31.9844 53.6681 32.0204 53.5481 32.0204H52.5041C51.9401 32.0204 51.5561 32.1704 51.3521 32.4704C51.1481 32.7584 51.0461 33.1784 51.0461 33.7304V34.5404H53.3681C53.4881 34.5404 53.5841 34.5824 53.6561 34.6664C53.7401 34.7384 53.7821 34.8344 53.7821 34.9544V35.5664C53.7821 35.6864 53.7401 35.7884 53.6561 35.8724C53.5841 35.9444 53.4881 35.9804 53.3681 35.9804H51.0461V43.4864C51.0461 43.6064 51.0041 43.7084 50.9201 43.7924C50.8481 43.8644 50.7521 43.9004 50.6321 43.9004H49.7861ZM58.6601 44.0804C57.7481 44.0804 56.9861 43.9064 56.3741 43.5584C55.7621 43.2104 55.2941 42.7304 54.9701 42.1184C54.6461 41.4944 54.4661 40.7864 54.4301 39.9944C54.4181 39.7904 54.4121 39.5324 54.4121 39.2204C54.4121 38.8964 54.4181 38.6384 54.4301 38.4464C54.4661 37.6424 54.6461 36.9344 54.9701 36.3224C55.3061 35.7104 55.7801 35.2304 56.3921 34.8824C57.0041 34.5344 57.7601 34.3604 58.6601 34.3604C59.5601 34.3604 60.3161 34.5344 60.9281 34.8824C61.5401 35.2304 62.0081 35.7104 62.3321 36.3224C62.6681 36.9344 62.8541 37.6424 62.8901 38.4464C62.9021 38.6384 62.9081 38.8964 62.9081 39.2204C62.9081 39.5324 62.9021 39.7904 62.8901 39.9944C62.8541 40.7864 62.6741 41.4944 62.3501 42.1184C62.0261 42.7304 61.5581 43.2104 60.9461 43.5584C60.3341 43.9064 59.5721 44.0804 58.6601 44.0804ZM58.6601 42.6944C59.4041 42.6944 59.9981 42.4604 60.4421 41.9924C60.8861 41.5124 61.1261 40.8164 61.1621 39.9044C61.1741 39.7244 61.1801 39.4964 61.1801 39.2204C61.1801 38.9444 61.1741 38.7164 61.1621 38.5364C61.1261 37.6244 60.8861 36.9344 60.4421 36.4664C59.9981 35.9864 59.4041 35.7464 58.6601 35.7464C57.9161 35.7464 57.3161 35.9864 56.8601 36.4664C56.4161 36.9344 56.1821 37.6244 56.1581 38.5364C56.1461 38.7164 56.1401 38.9444 56.1401 39.2204C56.1401 39.4964 56.1461 39.7244 56.1581 39.9044C56.1821 40.8164 56.4161 41.5124 56.8601 41.9924C57.3161 42.4604 57.9161 42.6944 58.6601 42.6944ZM65.234 43.9004C65.114 43.9004 65.012 43.8644 64.928 43.7924C64.856 43.7084 64.82 43.6064 64.82 43.4864V31.5344C64.82 31.4144 64.856 31.3184 64.928 31.2464C65.012 31.1624 65.114 31.1204 65.234 31.1204H66.08C66.212 31.1204 66.314 31.1624 66.386 31.2464C66.458 31.3184 66.494 31.4144 66.494 31.5344V43.4864C66.494 43.6064 66.458 43.7084 66.386 43.7924C66.314 43.8644 66.212 43.9004 66.08 43.9004H65.234ZM69.233 43.9004C69.113 43.9004 69.011 43.8644 68.927 43.7924C68.855 43.7084 68.819 43.6064 68.819 43.4864V34.9544C68.819 34.8344 68.855 34.7384 68.927 34.6664C69.011 34.5824 69.113 34.5404 69.233 34.5404H70.097C70.217 34.5404 70.313 34.5824 70.385 34.6664C70.469 34.7384 70.511 34.8344 70.511 34.9544V43.4864C70.511 43.6064 70.469 43.7084 70.385 43.7924C70.313 43.8644 70.217 43.9004 70.097 43.9004H69.233ZM69.089 32.7944C68.969 32.7944 68.867 32.7584 68.783 32.6864C68.711 32.6024 68.675 32.5004 68.675 32.3804V31.4084C68.675 31.2884 68.711 31.1864 68.783 31.1024C68.867 31.0184 68.969 30.9764 69.089 30.9764H70.223C70.343 30.9764 70.445 31.0184 70.529 31.1024C70.613 31.1864 70.655 31.2884 70.655 31.4084V32.3804C70.655 32.5004 70.613 32.6024 70.529 32.6864C70.445 32.7584 70.343 32.7944 70.223 32.7944H69.089ZM76.6523 44.0804C75.7403 44.0804 74.9783 43.9064 74.3663 43.5584C73.7543 43.2104 73.2863 42.7304 72.9623 42.1184C72.6383 41.4944 72.4583 40.7864 72.4223 39.9944C72.4103 39.7904 72.4043 39.5324 72.4043 39.2204C72.4043 38.8964 72.4103 38.6384 72.4223 38.4464C72.4583 37.6424 72.6383 36.9344 72.9623 36.3224C73.2983 35.7104 73.7723 35.2304 74.3843 34.8824C74.9963 34.5344 75.7523 34.3604 76.6523 34.3604C77.5523 34.3604 78.3083 34.5344 78.9203 34.8824C79.5323 35.2304 80.0003 35.7104 80.3243 36.3224C80.6603 36.9344 80.8463 37.6424 80.8823 38.4464C80.8943 38.6384 80.9003 38.8964 80.9003 39.2204C80.9003 39.5324 80.8943 39.7904 80.8823 39.9944C80.8463 40.7864 80.6663 41.4944 80.3423 42.1184C80.0183 42.7304 79.5503 43.2104 78.9383 43.5584C78.3263 43.9064 77.5643 44.0804 76.6523 44.0804ZM76.6523 42.6944C77.3963 42.6944 77.9903 42.4604 78.4343 41.9924C78.8783 41.5124 79.1183 40.8164 79.1543 39.9044C79.1663 39.7244 79.1723 39.4964 79.1723 39.2204C79.1723 38.9444 79.1663 38.7164 79.1543 38.5364C79.1183 37.6244 78.8783 36.9344 78.4343 36.4664C77.9903 35.9864 77.3963 35.7464 76.6523 35.7464C75.9083 35.7464 75.3083 35.9864 74.8523 36.4664C74.4083 36.9344 74.1743 37.6244 74.1503 38.5364C74.1383 38.7164 74.1323 38.9444 74.1323 39.2204C74.1323 39.4964 74.1383 39.7244 74.1503 39.9044C74.1743 40.8164 74.4083 41.5124 74.8523 41.9924C75.3083 42.4604 75.9083 42.6944 76.6523 42.6944ZM87.4944 43.9004C87.3744 43.9004 87.2724 43.8644 87.1884 43.7924C87.1164 43.7084 87.0804 43.6064 87.0804 43.4864V31.7324C87.0804 31.6004 87.1164 31.4984 87.1884 31.4264C87.2724 31.3424 87.3744 31.3004 87.4944 31.3004H88.3944C88.5384 31.3004 88.6464 31.3364 88.7184 31.4084C88.7904 31.4804 88.8384 31.5404 88.8624 31.5884L92.6604 38.8604L96.4944 31.5884C96.5184 31.5404 96.5604 31.4804 96.6204 31.4084C96.6924 31.3364 96.8004 31.3004 96.9444 31.3004H97.8264C97.9584 31.3004 98.0604 31.3424 98.1324 31.4264C98.2164 31.4984 98.2584 31.6004 98.2584 31.7324V43.4864C98.2584 43.6064 98.2164 43.7084 98.1324 43.7924C98.0604 43.8644 97.9584 43.9004 97.8264 43.9004H96.9444C96.8244 43.9004 96.7224 43.8644 96.6384 43.7924C96.5664 43.7084 96.5304 43.6064 96.5304 43.4864V34.6304L93.5244 40.4984C93.4764 40.6184 93.4044 40.7144 93.3084 40.7864C93.2124 40.8464 93.0924 40.8764 92.9484 40.8764H92.3904C92.2344 40.8764 92.1144 40.8464 92.0304 40.7864C91.9464 40.7144 91.8744 40.6184 91.8144 40.4984L88.7904 34.6304V43.4864C88.7904 43.6064 88.7484 43.7084 88.6644 43.7924C88.5924 43.8644 88.4964 43.9004 88.3764 43.9004H87.4944ZM103.387 44.0804C102.787 44.0804 102.241 43.9604 101.749 43.7204C101.257 43.4804 100.861 43.1564 100.561 42.7484C100.261 42.3404 100.111 41.8784 100.111 41.3624C100.111 40.5344 100.447 39.8744 101.119 39.3824C101.791 38.8904 102.667 38.5664 103.747 38.4104L106.429 38.0324V37.5104C106.429 36.9344 106.261 36.4844 105.925 36.1604C105.601 35.8364 105.067 35.6744 104.323 35.6744C103.795 35.6744 103.363 35.7824 103.027 35.9984C102.691 36.2144 102.457 36.4904 102.325 36.8264C102.253 37.0064 102.127 37.0964 101.947 37.0964H101.137C101.005 37.0964 100.903 37.0604 100.831 36.9884C100.771 36.9044 100.741 36.8084 100.741 36.7004C100.741 36.5204 100.807 36.2984 100.939 36.0344C101.083 35.7704 101.299 35.5124 101.587 35.2604C101.875 35.0084 102.241 34.7984 102.685 34.6304C103.141 34.4504 103.693 34.3604 104.341 34.3604C105.061 34.3604 105.667 34.4564 106.159 34.6484C106.651 34.8284 107.035 35.0744 107.311 35.3864C107.599 35.6984 107.803 36.0524 107.923 36.4484C108.055 36.8444 108.121 37.2464 108.121 37.6544V43.4864C108.121 43.6064 108.079 43.7084 107.995 43.7924C107.923 43.8644 107.827 43.9004 107.707 43.9004H106.879C106.747 43.9004 106.645 43.8644 106.573 43.7924C106.501 43.7084 106.465 43.6064 106.465 43.4864V42.7124C106.309 42.9284 106.099 43.1444 105.835 43.3604C105.571 43.5644 105.241 43.7384 104.845 43.8824C104.449 44.0144 103.963 44.0804 103.387 44.0804ZM103.765 42.7304C104.257 42.7304 104.707 42.6284 105.115 42.4244C105.523 42.2084 105.841 41.8784 106.069 41.4344C106.309 40.9904 106.429 40.4324 106.429 39.7604V39.2564L104.341 39.5624C103.489 39.6824 102.847 39.8864 102.415 40.1744C101.983 40.4504 101.767 40.8044 101.767 41.2364C101.767 41.5724 101.863 41.8544 102.055 42.0824C102.259 42.2984 102.511 42.4604 102.811 42.5684C103.123 42.6764 103.441 42.7304 103.765 42.7304ZM109.917 43.9004C109.821 43.9004 109.731 43.8644 109.647 43.7924C109.575 43.7204 109.539 43.6304 109.539 43.5224C109.539 43.4864 109.545 43.4444 109.557 43.3964C109.581 43.3364 109.617 43.2704 109.665 43.1984L112.797 39.1124L109.863 35.2424C109.815 35.1704 109.779 35.1104 109.755 35.0624C109.743 35.0144 109.737 34.9664 109.737 34.9184C109.737 34.8104 109.773 34.7204 109.845 34.6484C109.917 34.5764 110.007 34.5404 110.115 34.5404H111.033C111.165 34.5404 111.267 34.5764 111.339 34.6484C111.411 34.7084 111.465 34.7684 111.501 34.8284L113.895 37.9424L116.289 34.8464C116.337 34.7864 116.391 34.7204 116.451 34.6484C116.523 34.5764 116.625 34.5404 116.757 34.5404H117.639C117.747 34.5404 117.837 34.5764 117.909 34.6484C117.981 34.7204 118.017 34.8104 118.017 34.9184C118.017 34.9664 118.005 35.0144 117.981 35.0624C117.969 35.1104 117.939 35.1704 117.891 35.2424L114.921 39.1484L118.053 43.1984C118.101 43.2704 118.131 43.3304 118.143 43.3784C118.167 43.4264 118.179 43.4744 118.179 43.5224C118.179 43.6304 118.143 43.7204 118.071 43.7924C117.999 43.8644 117.909 43.9004 117.801 43.9004H116.847C116.727 43.9004 116.631 43.8704 116.559 43.8104C116.487 43.7504 116.427 43.6904 116.379 43.6304L113.859 40.3364L111.303 43.6304C111.255 43.6784 111.195 43.7384 111.123 43.8104C111.063 43.8704 110.967 43.9004 110.835 43.9004H109.917ZM120.106 43.9004C119.986 43.9004 119.884 43.8644 119.8 43.7924C119.728 43.7084 119.692 43.6064 119.692 43.4864V34.9544C119.692 34.8344 119.728 34.7384 119.8 34.6664C119.884 34.5824 119.986 34.5404 120.106 34.5404H120.97C121.09 34.5404 121.186 34.5824 121.258 34.6664C121.342 34.7384 121.384 34.8344 121.384 34.9544V43.4864C121.384 43.6064 121.342 43.7084 121.258 43.7924C121.186 43.8644 121.09 43.9004 120.97 43.9004H120.106ZM119.962 32.7944C119.842 32.7944 119.74 32.7584 119.656 32.6864C119.584 32.6024 119.548 32.5004 119.548 32.3804V31.4084C119.548 31.2884 119.584 31.1864 119.656 31.1024C119.74 31.0184 119.842 30.9764 119.962 30.9764H121.096C121.216 30.9764 121.318 31.0184 121.402 31.1024C121.486 31.1864 121.528 31.2884 121.528 31.4084V32.3804C121.528 32.5004 121.486 32.6024 121.402 32.6864C121.318 32.7584 121.216 32.7944 121.096 32.7944H119.962ZM124.106 43.9004C123.986 43.9004 123.884 43.8644 123.8 43.7924C123.728 43.7084 123.692 43.6064 123.692 43.4864V34.9544C123.692 34.8344 123.728 34.7384 123.8 34.6664C123.884 34.5824 123.986 34.5404 124.106 34.5404H124.916C125.036 34.5404 125.132 34.5824 125.204 34.6664C125.288 34.7384 125.33 34.8344 125.33 34.9544V35.5844C125.606 35.2124 125.954 34.9184 126.374 34.7024C126.794 34.4744 127.298 34.3604 127.886 34.3604C129.242 34.3484 130.202 34.9004 130.766 36.0164C131.042 35.5124 131.444 35.1104 131.972 34.8104C132.5 34.5104 133.1 34.3604 133.772 34.3604C134.396 34.3604 134.96 34.5044 135.464 34.7924C135.98 35.0804 136.382 35.5184 136.67 36.1064C136.97 36.6824 137.12 37.4084 137.12 38.2844V43.4864C137.12 43.6064 137.078 43.7084 136.994 43.7924C136.922 43.8644 136.826 43.9004 136.706 43.9004H135.86C135.74 43.9004 135.638 43.8644 135.554 43.7924C135.482 43.7084 135.446 43.6064 135.446 43.4864V38.4464C135.446 37.7744 135.35 37.2464 135.158 36.8624C134.966 36.4784 134.708 36.2084 134.384 36.0524C134.06 35.8964 133.706 35.8184 133.322 35.8184C133.01 35.8184 132.692 35.8964 132.368 36.0524C132.044 36.2084 131.774 36.4784 131.558 36.8624C131.354 37.2464 131.252 37.7744 131.252 38.4464V43.4864C131.252 43.6064 131.21 43.7084 131.126 43.7924C131.054 43.8644 130.958 43.9004 130.838 43.9004H129.992C129.872 43.9004 129.77 43.8644 129.686 43.7924C129.614 43.7084 129.578 43.6064 129.578 43.4864V38.4464C129.578 37.7744 129.476 37.2464 129.272 36.8624C129.068 36.4784 128.804 36.2084 128.48 36.0524C128.156 35.8964 127.814 35.8184 127.454 35.8184C127.142 35.8184 126.824 35.8964 126.5 36.0524C126.176 36.2084 125.906 36.4784 125.69 36.8624C125.486 37.2464 125.384 37.7684 125.384 38.4284V43.4864C125.384 43.6064 125.342 43.7084 125.258 43.7924C125.186 43.8644 125.09 43.9004 124.97 43.9004H124.106ZM139.742 43.9004C139.622 43.9004 139.52 43.8644 139.436 43.7924C139.364 43.7084 139.328 43.6064 139.328 43.4864V34.9544C139.328 34.8344 139.364 34.7384 139.436 34.6664C139.52 34.5824 139.622 34.5404 139.742 34.5404H140.606C140.726 34.5404 140.822 34.5824 140.894 34.6664C140.978 34.7384 141.02 34.8344 141.02 34.9544V43.4864C141.02 43.6064 140.978 43.7084 140.894 43.7924C140.822 43.8644 140.726 43.9004 140.606 43.9004H139.742ZM139.598 32.7944C139.478 32.7944 139.376 32.7584 139.292 32.6864C139.22 32.6024 139.184 32.5004 139.184 32.3804V31.4084C139.184 31.2884 139.22 31.1864 139.292 31.1024C139.376 31.0184 139.478 30.9764 139.598 30.9764H140.732C140.852 30.9764 140.954 31.0184 141.038 31.1024C141.122 31.1864 141.164 31.2884 141.164 31.4084V32.3804C141.164 32.5004 141.122 32.6024 141.038 32.6864C140.954 32.7584 140.852 32.7944 140.732 32.7944H139.598ZM143.147 43.9004C143.027 43.9004 142.925 43.8644 142.841 43.7924C142.769 43.7084 142.733 43.6064 142.733 43.4864V42.8564C142.733 42.7484 142.757 42.6464 142.805 42.5504C142.865 42.4544 142.925 42.3644 142.985 42.2804L147.953 35.9624H143.309C143.189 35.9624 143.087 35.9264 143.003 35.8544C142.931 35.7824 142.895 35.6804 142.895 35.5484V34.9544C142.895 34.8344 142.931 34.7384 143.003 34.6664C143.087 34.5824 143.189 34.5404 143.309 34.5404H149.717C149.837 34.5404 149.933 34.5824 150.005 34.6664C150.089 34.7384 150.131 34.8344 150.131 34.9544V35.6204C150.131 35.7284 150.101 35.8244 150.041 35.9084C149.993 35.9924 149.939 36.0824 149.879 36.1784L144.965 42.4784H150.077C150.209 42.4784 150.311 42.5144 150.383 42.5864C150.455 42.6584 150.491 42.7604 150.491 42.8924V43.4864C150.491 43.6064 150.455 43.7084 150.383 43.7924C150.311 43.8644 150.209 43.9004 150.077 43.9004H143.147ZM155.764 44.0804C154.516 44.0804 153.526 43.7024 152.794 42.9464C152.062 42.1784 151.66 41.1344 151.588 39.8144C151.576 39.6584 151.57 39.4604 151.57 39.2204C151.57 38.9684 151.576 38.7644 151.588 38.6084C151.636 37.7564 151.834 37.0124 152.182 36.3764C152.53 35.7284 153.004 35.2304 153.604 34.8824C154.216 34.5344 154.93 34.3604 155.746 34.3604C156.658 34.3604 157.42 34.5524 158.032 34.9364C158.656 35.3204 159.13 35.8664 159.454 36.5744C159.778 37.2824 159.94 38.1104 159.94 39.0584V39.3644C159.94 39.4964 159.898 39.5984 159.814 39.6704C159.742 39.7424 159.646 39.7784 159.526 39.7784H153.298C153.298 39.7904 153.298 39.8144 153.298 39.8504C153.298 39.8864 153.298 39.9164 153.298 39.9404C153.322 40.4324 153.43 40.8944 153.622 41.3264C153.814 41.7464 154.09 42.0884 154.45 42.3524C154.822 42.6164 155.254 42.7484 155.746 42.7484C156.178 42.7484 156.538 42.6824 156.826 42.5504C157.114 42.4184 157.348 42.2744 157.528 42.1184C157.708 41.9504 157.828 41.8184 157.888 41.7224C157.996 41.5784 158.08 41.4944 158.14 41.4704C158.2 41.4344 158.296 41.4164 158.428 41.4164H159.31C159.418 41.4164 159.508 41.4524 159.58 41.5244C159.664 41.5844 159.7 41.6744 159.688 41.7944C159.676 41.9744 159.58 42.1964 159.4 42.4604C159.22 42.7124 158.962 42.9644 158.626 43.2164C158.302 43.4684 157.894 43.6784 157.402 43.8464C156.922 44.0024 156.376 44.0804 155.764 44.0804ZM153.298 38.5364H158.23V38.4824C158.23 37.9424 158.128 37.4624 157.924 37.0424C157.732 36.6224 157.45 36.2924 157.078 36.0524C156.706 35.8004 156.262 35.6744 155.746 35.6744C155.23 35.6744 154.786 35.8004 154.414 36.0524C154.054 36.2924 153.778 36.6224 153.586 37.0424C153.394 37.4624 153.298 37.9424 153.298 38.4824V38.5364ZM162.146 43.9004C162.026 43.9004 161.924 43.8644 161.84 43.7924C161.768 43.7084 161.732 43.6064 161.732 43.4864V34.9724C161.732 34.8524 161.768 34.7504 161.84 34.6664C161.924 34.5824 162.026 34.5404 162.146 34.5404H162.974C163.094 34.5404 163.196 34.5824 163.28 34.6664C163.364 34.7504 163.406 34.8524 163.406 34.9724V35.7644C163.646 35.3564 163.976 35.0504 164.396 34.8464C164.816 34.6424 165.326 34.5404 165.926 34.5404H166.628C166.748 34.5404 166.844 34.5824 166.916 34.6664C167 34.7384 167.042 34.8344 167.042 34.9544V35.6924C167.042 35.8124 167 35.9084 166.916 35.9804C166.844 36.0524 166.748 36.0884 166.628 36.0884H165.548C164.9 36.0884 164.39 36.2804 164.018 36.6644C163.646 37.0364 163.46 37.5464 163.46 38.1944V43.4864C163.46 43.6064 163.418 43.7084 163.334 43.7924C163.25 43.8644 163.148 43.9004 163.028 43.9004H162.146Z" fill="white"/>
<rect x="226.576" y="17.4004" width="40" height="40" rx="20" fill="white"/>
<path d="M248.204 43.4004C248.084 43.4004 247.982 43.3644 247.898 43.2924C247.826 43.2084 247.79 43.1064 247.79 42.9864V40.3944H241.958C241.838 40.3944 241.736 40.3584 241.652 40.2864C241.58 40.2024 241.544 40.1004 241.544 39.9804V39.2604C241.544 39.2124 241.556 39.1404 241.58 39.0444C241.616 38.9364 241.67 38.8284 241.742 38.7204L247.142 31.1064C247.286 30.9024 247.508 30.8004 247.808 30.8004H249.104C249.224 30.8004 249.32 30.8424 249.392 30.9264C249.476 30.9984 249.518 31.0944 249.518 31.2144V38.8284H251.138C251.27 38.8284 251.372 38.8704 251.444 38.9544C251.528 39.0264 251.57 39.1224 251.57 39.2424V39.9804C251.57 40.1004 251.528 40.2024 251.444 40.2864C251.372 40.3584 251.276 40.3944 251.156 40.3944H249.518V42.9864C249.518 43.1064 249.476 43.2084 249.392 43.2924C249.32 43.3644 249.224 43.4004 249.104 43.4004H248.204ZM243.47 38.8644H247.808V32.6904L243.47 38.8644Z" fill="#EB714A"/>
</svg>
