<svg xmlns="http://www.w3.org/2000/svg" width="576" height="136" viewBox="0 0 576 136" fill="none">
<g clip-path="url(#clip0_1348_9339)">
<path d="M0 10C0 4.47715 4.47715 0 10 0H566C571.523 0 576 4.47715 576 10V136H0V10Z" fill="#0863D8"/>

<g style="mix-blend-mode:overlay">
<path d="M576 136L4.27641e-05 136L0 0L576 0L576 136Z" fill="url(#paint0_linear_1348_9339)" fill-opacity="0.5"/>
</g>
<g style="mix-blend-mode:soft-light">
<path d="M13.6475 114.803L23.1137 124.269L42.046 105.337M-14.751 114.803C-14.751 120.397 -13.6492 125.936 -11.5084 131.104C-9.36768 136.272 -6.22996 140.968 -2.27439 144.924C1.68117 148.879 6.37711 152.017 11.5453 154.158C16.7135 156.299 22.2527 157.401 27.8467 157.401C33.4408 157.401 38.98 156.299 44.1482 154.158C49.3164 152.017 54.0123 148.879 57.9679 144.924C61.9234 140.968 65.0612 136.272 67.2019 131.104C69.3426 125.936 70.4445 120.397 70.4445 114.803C70.4445 109.209 69.3426 103.67 67.2019 98.5014C65.0612 93.3332 61.9234 88.6372 57.9679 84.6817C54.0123 80.7261 49.3164 77.5884 44.1482 75.4476C38.98 73.3069 33.4408 72.2051 27.8467 72.2051C22.2527 72.2051 16.7135 73.3069 11.5453 75.4476C6.37711 77.5884 1.68117 80.7261 -2.27439 84.6817C-6.22996 88.6372 -9.36768 93.3332 -11.5084 98.5014C-13.6492 103.67 -14.751 109.209 -14.751 114.803Z" stroke="#30C9BE" stroke-width="6.19394" stroke-linecap="round" stroke-linejoin="round"/>
</g>
<g style="mix-blend-mode:soft-light">
<path d="M580.851 -6.4537L542.1 -16.8987L513.051 10.7939M580.851 -6.4537L590.553 31.6839L561.504 59.3764M580.851 -6.4537L551.802 21.2389M561.504 59.3764L522.753 48.9314L513.051 10.7939M561.504 59.3764L551.802 21.2389M513.051 10.7939L551.802 21.2389" stroke="#30C9BE" stroke-width="6" stroke-linecap="round" stroke-linejoin="round"/>
</g>
</g>
<defs>
<linearGradient id="paint0_linear_1348_9339" x1="-155.472" y1="14.4206" x2="176.769" y2="469.72" gradientUnits="userSpaceOnUse">
<stop stop-color="#286BC1"/>
<stop offset="1" stop-color="#A2FFD5"/>
</linearGradient>
<clipPath id="clip0_1348_9339">
<path d="M0 10C0 4.47715 4.47715 0 10 0H566C571.523 0 576 4.47715 576 10V136H0V10Z" fill="white"/>
</clipPath>
</defs>
</svg>