<svg width="33" height="32" viewBox="0 0 33 32" fill="none" xmlns="http://www.w3.org/2000/svg">
<path d="M16.3995 2.88295C20.6716 2.88295 21.1778 2.89921 22.8648 2.97615C24.4248 3.04735 25.272 3.30801 25.8359 3.52708C26.5827 3.81735 27.1157 4.16402 27.6755 4.72389C28.2355 5.28389 28.5822 5.81683 28.8725 6.56363C29.0915 7.1275 29.3522 7.9747 29.4234 9.53457C29.5003 11.2218 29.5166 11.7278 29.5166 15.9999C29.5166 20.2722 29.5003 20.7782 29.4234 22.4654C29.3522 24.0254 29.0915 24.8725 28.8725 25.4364C28.5822 26.1832 28.2355 26.7162 27.6757 27.2761C27.1157 27.836 26.5827 28.1826 25.8359 28.4729C25.272 28.6921 24.4248 28.9527 22.8648 29.0239C21.178 29.1008 20.672 29.1172 16.3995 29.1172C12.1269 29.1172 11.6211 29.1008 9.93412 29.0239C8.37411 28.9527 7.52691 28.6921 6.96304 28.4729C6.21624 28.1826 5.6833 27.836 5.12343 27.2761C4.56356 26.7162 4.21676 26.1832 3.9265 25.4364C3.70743 24.8725 3.44676 24.0254 3.37556 22.4654C3.29863 20.7782 3.28236 20.2722 3.28236 15.9999C3.28236 11.7278 3.29863 11.2218 3.37556 9.53457C3.44676 7.9747 3.70743 7.1275 3.9265 6.56363C4.21676 5.81683 4.56343 5.28389 5.12343 4.72402C5.6833 4.16402 6.21624 3.81735 6.96304 3.52708C7.52691 3.30801 8.37411 3.04735 9.93412 2.97615C11.6212 2.89921 12.1273 2.88295 16.3995 2.88295ZM16.3995 0C12.0541 0 11.5092 0.0183998 9.80265 0.0962668C8.09971 0.174 6.93651 0.444402 5.91877 0.840004C4.86663 1.24881 3.97436 1.79587 3.08489 2.68548C2.19529 3.57495 1.64822 4.46722 1.23942 5.51936C0.843816 6.53709 0.573415 7.70017 0.495681 9.40324C0.417814 11.1098 0.399414 11.6547 0.399414 15.9999C0.399414 20.3454 0.417814 20.8902 0.495681 22.5968C0.573415 24.2998 0.843816 25.4629 1.23942 26.4806C1.64822 27.5328 2.19529 28.4251 3.08489 29.3147C3.97436 30.2041 4.86663 30.7512 5.91877 31.16C6.93651 31.5556 8.09971 31.826 9.80265 31.9037C11.5092 31.9816 12.0541 32 16.3995 32C20.7448 32 21.2898 31.9816 22.9963 31.9037C24.6992 31.826 25.8625 31.5556 26.8802 31.16C27.9323 30.7512 28.8246 30.2041 29.7141 29.3147C30.6035 28.4251 31.1507 27.5328 31.5595 26.4806C31.9551 25.4629 32.2255 24.2998 32.3033 22.5968C32.3811 20.8902 32.3995 20.3454 32.3995 15.9999C32.3995 11.6547 32.3811 11.1098 32.3033 9.40324C32.2255 7.70017 31.9551 6.53709 31.5595 5.51936C31.1507 4.46722 30.6035 3.57495 29.7141 2.68548C28.8246 1.79587 27.9323 1.24881 26.8802 0.840004C25.8625 0.444402 24.6992 0.174 22.9963 0.0962668C21.2898 0.0183998 20.7448 0 16.3995 0Z" fill="#333333"/>
<path d="M16.4076 7.7915C11.8698 7.7915 8.19141 11.4699 8.19141 16.0077C8.19141 20.5454 11.8698 24.2238 16.4076 24.2238C20.9453 24.2238 24.6239 20.5454 24.6239 16.0077C24.6239 11.4699 20.9453 7.7915 16.4076 7.7915ZM16.4076 21.341C13.4621 21.341 11.0742 18.9531 11.0742 16.0077C11.0742 13.0622 13.4621 10.6743 16.4076 10.6743C19.3532 10.6743 21.7409 13.0622 21.7409 16.0077C21.7409 18.9531 19.3532 21.341 16.4076 21.341Z" fill="#333333"/>
<path d="M26.8664 7.46213C26.8664 8.5224 26.0068 9.38214 24.9464 9.38214C23.886 9.38214 23.0264 8.5224 23.0264 7.46213C23.0264 6.40173 23.886 5.54199 24.9464 5.54199C26.0068 5.54199 26.8664 6.40173 26.8664 7.46213Z" fill="#333333"/>
</svg>
