<svg width="30" height="30" viewBox="0 0 30 30" fill="none" xmlns="http://www.w3.org/2000/svg">
<g clip-path="url(#clip0_1348_9528)">
<path d="M28.0006 -4.20068H1.60059C-1.71312 -4.20068 -4.39941 -1.51439 -4.39941 1.79932V28.1993C-4.39941 31.513 -1.71312 34.1993 1.60059 34.1993H28.0006C31.3143 34.1993 34.0006 31.513 34.0006 28.1993V1.79932C34.0006 -1.51439 31.3143 -4.20068 28.0006 -4.20068Z" fill="#333333"/>
<path d="M9.5202 24.5994H5.44019V11.7594H9.5202V24.5994ZM7.4802 9.95941C6.1602 9.95941 5.2002 8.99941 5.2002 7.67941C5.2002 6.35941 6.2802 5.39941 7.4802 5.39941C8.8002 5.39941 9.7602 6.35941 9.7602 7.67941C9.7602 8.99941 8.8002 9.95941 7.4802 9.95941ZM24.4002 24.5994H20.3202V17.6394C20.3202 15.5994 19.4802 14.9994 18.2802 14.9994C17.0802 14.9994 15.8802 15.9594 15.8802 17.7594V24.5994H11.8002V11.7594H15.6402V13.5594C16.0002 12.7194 17.4402 11.3994 19.4802 11.3994C21.7602 11.3994 24.1602 12.7194 24.1602 16.6794V24.5994H24.4002Z" fill="#F8F8FC"/>
</g>
<defs>
<clipPath id="clip0_1348_9528">
<rect x="0.399414" y="0.600098" width="28.8" height="28.8" rx="3.2" fill="white"/>
</clipPath>
</defs>
</svg>
