<svg width="20" height="20" viewBox="0 0 20 20" fill="none" xmlns="http://www.w3.org/2000/svg">
<path d="M10 0.25C8.07164 0.25 6.18657 0.821828 4.58319 1.89317C2.97982 2.96451 1.73013 4.48726 0.992179 6.26884C0.254225 8.05042 0.061142 10.0108 0.437348 11.9021C0.813554 13.7934 1.74215 15.5307 3.10571 16.8943C4.46928 18.2579 6.20656 19.1865 8.09787 19.5627C9.98919 19.9389 11.9496 19.7458 13.7312 19.0078C15.5127 18.2699 17.0355 17.0202 18.1068 15.4168C19.1782 13.8134 19.75 11.9284 19.75 10C19.747 7.41505 18.7188 4.93683 16.891 3.109C15.0632 1.28116 12.585 0.252977 10 0.25ZM17.3463 6.25H14.0041C13.5832 4.70585 12.8738 3.25532 11.9134 1.975C13.0738 2.25375 14.1602 2.7801 15.098 3.51799C16.0359 4.25588 16.8032 5.18784 17.3472 6.25H17.3463ZM18.25 10C18.2507 10.7608 18.1456 11.5181 17.9378 12.25H14.3275C14.5575 10.7588 14.5575 9.24118 14.3275 7.75H17.9378C18.1456 8.48192 18.2507 9.23916 18.25 10ZM10 2.03125C11.1231 3.23361 11.9567 4.67653 12.4375 6.25H7.5625C8.04277 4.67632 8.87652 3.2333 10 2.03125ZM7.5625 13.75H12.4375C11.9572 15.3237 11.1235 16.7667 10 17.9688C8.87695 16.7664 8.04326 15.3235 7.5625 13.75ZM7.19688 12.25C6.93939 10.7611 6.93939 9.23895 7.19688 7.75H12.8106C13.0681 9.23895 13.0681 10.7611 12.8106 12.25H7.19688ZM11.9172 18.025C12.8776 16.7447 13.5869 15.2941 14.0078 13.75H17.3509C16.8065 14.8126 16.0387 15.7448 15.1001 16.4827C14.1616 17.2206 13.0745 17.7467 11.9134 18.025H11.9172Z" fill="#039200"/>
</svg>
