<svg width="24" height="24" viewBox="0 0 24 24" fill="none" xmlns="http://www.w3.org/2000/svg">
<path d="M9.54751 17.9196C9.1247 18.844 7.71376 21.0002 3.74908 21.0002C3.55016 21.0002 3.3594 20.9212 3.21875 20.7805C3.07809 20.6399 2.99908 20.4491 2.99908 20.2502C2.99908 16.2855 5.15533 14.8746 6.0797 14.4518C6.16933 14.4109 6.26613 14.3881 6.36458 14.3846C6.46302 14.3812 6.56119 14.3971 6.65346 14.4316C6.74574 14.4661 6.83033 14.5184 6.90239 14.5855C6.97445 14.6527 7.03258 14.7334 7.07345 14.823C7.11432 14.9126 7.13715 15.0094 7.14061 15.1079C7.14407 15.2063 7.12811 15.3045 7.09364 15.3968C7.05916 15.4891 7.00685 15.5736 6.93969 15.6457C6.87253 15.7178 6.79183 15.7759 6.7022 15.8168C6.09939 16.0915 4.76908 16.9755 4.5347 19.4646C7.02376 19.2302 7.9097 17.8999 8.18251 17.2971C8.22339 17.2075 8.28151 17.1268 8.35358 17.0596C8.42564 16.9924 8.51022 16.9401 8.6025 16.9056C8.69478 16.8712 8.79294 16.8552 8.89139 16.8587C8.98984 16.8621 9.08664 16.885 9.17626 16.9258C9.26589 16.9667 9.34659 17.0248 9.41375 17.0969C9.48092 17.169 9.53323 17.2535 9.5677 17.3458C9.60217 17.4381 9.61814 17.5363 9.61467 17.6347C9.61121 17.7332 9.58839 17.83 9.54751 17.9196ZM20.985 4.41958C20.9628 4.05389 20.8075 3.70897 20.5484 3.44991C20.2894 3.19085 19.9445 3.03556 19.5788 3.01333C18.3994 2.94302 15.3853 3.05083 12.885 5.55115L8.24908 10.1908C8.17945 10.2606 8.09678 10.3159 8.00577 10.3537C7.91476 10.3915 7.81719 10.411 7.71865 10.4111C7.51962 10.4113 7.32868 10.3324 7.18783 10.1918C7.04697 10.0512 6.96774 9.86036 6.96757 9.66134C6.96739 9.46232 7.04628 9.27138 7.18689 9.13052L9.67689 6.63958C9.72902 6.58715 9.76448 6.52047 9.77882 6.44793C9.79316 6.3754 9.78574 6.30024 9.75748 6.23191C9.72923 6.16359 9.68141 6.10513 9.62003 6.06391C9.55865 6.02268 9.48645 6.00052 9.41251 6.00021H6.96939C6.7718 5.99917 6.57597 6.03742 6.3933 6.11274C6.21063 6.18806 6.04476 6.29895 5.90533 6.43896L2.6897 9.65646C2.4925 9.85353 2.35412 10.1017 2.29009 10.373C2.22606 10.6444 2.23893 10.9282 2.32724 11.1926C2.41555 11.457 2.57581 11.6916 2.79003 11.8701C3.00425 12.0485 3.26396 12.1637 3.54001 12.2027L7.14658 12.7061L11.2913 16.8508L11.7947 20.4593C11.8334 20.7353 11.9486 20.9951 12.1272 21.2091C12.3058 21.4232 12.5407 21.583 12.8053 21.6705C12.9595 21.722 13.1209 21.7483 13.2835 21.7483C13.4802 21.7487 13.6752 21.7101 13.857 21.6348C14.0388 21.5595 14.2039 21.449 14.3428 21.3096L17.5603 18.094C17.6999 17.9542 17.8105 17.7883 17.8858 17.6057C17.9611 17.4231 17.9996 17.2274 17.9991 17.0299V14.5868C17.9989 14.5126 17.9769 14.4402 17.9356 14.3786C17.8943 14.3171 17.8357 14.2691 17.7672 14.2408C17.6987 14.2125 17.6233 14.2052 17.5506 14.2197C17.4779 14.2342 17.4112 14.2699 17.3588 14.3224L14.8678 16.8124C14.795 16.8853 14.7079 16.9425 14.6119 16.9802C14.516 17.018 14.4134 17.0356 14.3103 17.0319C14.2073 17.0282 14.1062 17.0033 14.0132 16.9587C13.9202 16.9142 13.8375 16.851 13.77 16.773C13.647 16.6242 13.5845 16.4345 13.5949 16.2417C13.6053 16.0489 13.6879 15.8671 13.8263 15.7324L18.4453 11.1133C20.9475 8.61208 21.0553 5.59802 20.985 4.41771V4.41958Z" fill="#093BAA"/>
</svg>
