<svg width="748" height="170" viewBox="0 0 748 170" fill="none" xmlns="http://www.w3.org/2000/svg">
<rect x="279.5" y="0.000488281" width="189" height="38" rx="19" fill="#E6EBF4"/>
<path d="M300.707 13.8005H308.403V15.1445H302.227V18.8725H307.811V20.2165H302.227V25.0005H300.707V13.8005ZM311.283 25.0005C310.909 25.0005 310.611 24.8938 310.387 24.6805C310.173 24.4672 310.067 24.1738 310.067 23.8005V13.8005H317.923V15.1285H311.587V18.6165H317.443V19.9285H311.587V23.6725H317.923V25.0005H311.283ZM326.233 22.0565H321.561L320.473 25.0005H318.889L323.225 13.8005H323.913C324.371 13.8005 324.697 14.0512 324.889 14.5525L328.905 25.0005H327.337L326.233 22.0565ZM322.009 20.7765H325.785L323.913 15.7205H323.897L322.009 20.7765ZM331.506 15.1285H327.954V13.8005H336.578V15.1285H333.026V25.0005H331.506V15.1285ZM341.713 25.1285C340.988 25.1285 340.348 24.9738 339.793 24.6645C339.249 24.3445 338.828 23.8965 338.529 23.3205C338.23 22.7445 338.081 22.0832 338.081 21.3365V13.8005H339.601V21.3365C339.601 22.0618 339.793 22.6485 340.177 23.0965C340.572 23.5445 341.084 23.7685 341.713 23.7685H343.425C344.054 23.7685 344.561 23.5445 344.945 23.0965C345.34 22.6485 345.537 22.0618 345.537 21.3365V13.8005H347.057V21.3365C347.057 22.0832 346.908 22.7445 346.609 23.3205C346.31 23.8965 345.884 24.3445 345.329 24.6645C344.785 24.9738 344.15 25.1285 343.425 25.1285H341.713ZM349.364 13.8005H354.98C355.844 13.8005 356.537 14.0458 357.06 14.5365C357.593 15.0165 357.86 15.6512 357.86 16.4405V17.5925C357.86 18.1472 357.684 18.6378 357.332 19.0645C356.99 19.4912 356.521 19.8005 355.924 19.9925V20.0085C356.553 20.3818 357.022 21.0645 357.332 22.0565L358.212 25.0005H356.644L355.78 22.1205C355.63 21.6192 355.39 21.2245 355.06 20.9365C354.74 20.6485 354.372 20.5045 353.956 20.5045H350.884V25.0005H349.364V13.8005ZM354.564 19.1605C355.097 19.1605 355.524 19.0165 355.844 18.7285C356.174 18.4405 356.34 18.0618 356.34 17.5925V16.4245C356.34 16.0405 356.212 15.7312 355.956 15.4965C355.7 15.2618 355.364 15.1445 354.948 15.1445H350.884V19.1605H354.564ZM361.127 25.0005C360.753 25.0005 360.455 24.8938 360.231 24.6805C360.017 24.4672 359.911 24.1738 359.911 23.8005V13.8005H367.767V15.1285H361.431V18.6165H367.287V19.9285H361.431V23.6725H367.767V25.0005H361.127ZM370.877 25.0005C370.503 25.0005 370.205 24.8938 369.981 24.6805C369.767 24.4672 369.661 24.1738 369.661 23.8005V13.8005H374.541C375.351 13.8005 376.061 13.9552 376.669 14.2645C377.287 14.5738 377.762 15.0165 378.093 15.5925C378.434 16.1578 378.605 16.8085 378.605 17.5445V20.9365C378.605 22.2698 378.263 23.2832 377.581 23.9765C376.909 24.6592 375.917 25.0005 374.605 25.0005H370.877ZM374.557 23.6405C375.389 23.6405 376.018 23.4112 376.445 22.9525C376.871 22.4938 377.085 21.8112 377.085 20.9045V17.5765C377.085 16.8512 376.845 16.2698 376.365 15.8325C375.895 15.3845 375.271 15.1605 374.493 15.1605H371.181V23.6405H374.557ZM387.903 25.1285C386.869 25.1285 386.042 24.8192 385.423 24.2005C384.805 23.5818 384.495 22.7498 384.495 21.7045H385.983C385.983 22.3338 386.159 22.8352 386.511 23.2085C386.874 23.5818 387.349 23.7685 387.935 23.7685H389.711C390.298 23.7685 390.767 23.6458 391.119 23.4005C391.471 23.1445 391.647 22.8085 391.647 22.3925V21.5285C391.647 21.1978 391.519 20.9205 391.263 20.6965C391.018 20.4725 390.666 20.3232 390.207 20.2485L387.295 19.7685C386.442 19.6298 385.781 19.3365 385.311 18.8885C384.853 18.4405 384.623 17.8805 384.623 17.2085V16.3285C384.623 15.5285 384.927 14.8885 385.535 14.4085C386.154 13.9178 386.965 13.6725 387.967 13.6725H389.775C390.405 13.6725 390.959 13.8058 391.439 14.0725C391.93 14.3285 392.309 14.6965 392.575 15.1765C392.842 15.6458 392.975 16.1898 392.975 16.8085H391.471C391.471 16.2752 391.317 15.8485 391.007 15.5285C390.698 15.1978 390.287 15.0325 389.775 15.0325H387.967C387.423 15.0325 386.981 15.1552 386.639 15.4005C386.309 15.6352 386.143 15.9605 386.143 16.3765V17.0965C386.143 17.4378 386.261 17.7205 386.495 17.9445C386.741 18.1685 387.087 18.3232 387.535 18.4085L390.415 18.9045C391.301 19.0538 391.978 19.3472 392.447 19.7845C392.927 20.2112 393.167 20.7498 393.167 21.4005V22.4405C393.167 23.2512 392.853 23.9018 392.223 24.3925C391.605 24.8832 390.778 25.1285 389.743 25.1285H387.903ZM397.569 15.1285H394.017V13.8005H402.641V15.1285H399.089V25.0005H397.569V15.1285ZM407.292 25.1285C406.513 25.1285 405.825 24.9578 405.228 24.6165C404.641 24.2752 404.182 23.7952 403.852 23.1765C403.532 22.5578 403.372 21.8378 403.372 21.0165V17.7845C403.372 16.9632 403.532 16.2432 403.852 15.6245C404.182 15.0058 404.646 14.5258 405.244 14.1845C405.841 13.8432 406.529 13.6725 407.308 13.6725H409.004C409.782 13.6725 410.465 13.8432 411.052 14.1845C411.649 14.5258 412.108 15.0058 412.428 15.6245C412.758 16.2432 412.924 16.9632 412.924 17.7845V21.0165C412.924 21.8378 412.758 22.5578 412.428 23.1765C412.108 23.7952 411.649 24.2752 411.052 24.6165C410.454 24.9578 409.772 25.1285 409.004 25.1285H407.292ZM408.972 23.7685C409.697 23.7685 410.284 23.5178 410.732 23.0165C411.18 22.5045 411.404 21.8272 411.404 20.9845V17.8165C411.404 16.9738 411.18 16.3018 410.732 15.8005C410.284 15.2885 409.697 15.0325 408.972 15.0325H407.324C406.598 15.0325 406.012 15.2885 405.564 15.8005C405.116 16.3018 404.892 16.9738 404.892 17.8165V20.9845C404.892 21.8272 405.11 22.5045 405.548 23.0165C405.996 23.5178 406.582 23.7685 407.308 23.7685H408.972ZM414.973 13.8005H420.589C421.453 13.8005 422.146 14.0458 422.669 14.5365C423.202 15.0165 423.469 15.6512 423.469 16.4405V17.5925C423.469 18.1472 423.293 18.6378 422.941 19.0645C422.6 19.4912 422.13 19.8005 421.533 19.9925V20.0085C422.162 20.3818 422.632 21.0645 422.941 22.0565L423.821 25.0005H422.253L421.389 22.1205C421.24 21.6192 421 21.2245 420.669 20.9365C420.349 20.6485 419.981 20.5045 419.565 20.5045H416.493V25.0005H414.973V13.8005ZM420.173 19.1605C420.706 19.1605 421.133 19.0165 421.453 18.7285C421.784 18.4405 421.949 18.0618 421.949 17.5925V16.4245C421.949 16.0405 421.821 15.7312 421.565 15.4965C421.309 15.2618 420.973 15.1445 420.557 15.1445H416.493V19.1605H420.173ZM425.68 13.8005H427.2V25.0005H425.68V13.8005ZM430.939 25.0005C430.566 25.0005 430.267 24.8938 430.043 24.6805C429.83 24.4672 429.723 24.1738 429.723 23.8005V13.8005H437.579V15.1285H431.243V18.6165H437.099V19.9285H431.243V23.6725H437.579V25.0005H430.939ZM442.497 25.1285C441.462 25.1285 440.636 24.8192 440.017 24.2005C439.398 23.5818 439.089 22.7498 439.089 21.7045H440.577C440.577 22.3338 440.753 22.8352 441.105 23.2085C441.468 23.5818 441.942 23.7685 442.529 23.7685H444.305C444.892 23.7685 445.361 23.6458 445.713 23.4005C446.065 23.1445 446.241 22.8085 446.241 22.3925V21.5285C446.241 21.1978 446.113 20.9205 445.857 20.6965C445.612 20.4725 445.26 20.3232 444.801 20.2485L441.889 19.7685C441.036 19.6298 440.374 19.3365 439.905 18.8885C439.446 18.4405 439.217 17.8805 439.217 17.2085V16.3285C439.217 15.5285 439.521 14.8885 440.129 14.4085C440.748 13.9178 441.558 13.6725 442.561 13.6725H444.369C444.998 13.6725 445.553 13.8058 446.033 14.0725C446.524 14.3285 446.902 14.6965 447.169 15.1765C447.436 15.6458 447.569 16.1898 447.569 16.8085H446.065C446.065 16.2752 445.91 15.8485 445.601 15.5285C445.292 15.1978 444.881 15.0325 444.369 15.0325H442.561C442.017 15.0325 441.574 15.1552 441.233 15.4005C440.902 15.6352 440.737 15.9605 440.737 16.3765V17.0965C440.737 17.4378 440.854 17.7205 441.089 17.9445C441.334 18.1685 441.681 18.3232 442.129 18.4085L445.009 18.9045C445.894 19.0538 446.572 19.3472 447.041 19.7845C447.521 20.2112 447.761 20.7498 447.761 21.4005V22.4405C447.761 23.2512 447.446 23.9018 446.817 24.3925C446.198 24.8832 445.372 25.1285 444.337 25.1285H442.497Z" fill="#093BAA"/>
<path d="M14.0345 97.3685C11.7959 97.3685 9.81788 96.8778 8.10055 95.8965C6.41388 94.9152 5.09521 93.5352 4.14455 91.7565C3.22455 89.9778 2.76455 87.9078 2.76455 85.5465V76.2545C2.76455 73.8932 3.22455 71.8232 4.14455 70.0445C5.09521 68.2658 6.42921 66.8858 8.14655 65.9045C9.86388 64.9232 11.8419 64.4325 14.0805 64.4325H18.9565C21.1952 64.4325 23.1579 64.9232 24.8445 65.9045C26.5619 66.8858 27.8805 68.2658 28.8005 70.0445C29.7512 71.8232 30.2265 73.8932 30.2265 76.2545V85.5465C30.2265 87.9078 29.7512 89.9778 28.8005 91.7565C27.8805 93.5352 26.5619 94.9152 24.8445 95.8965C23.1272 96.8778 21.1645 97.3685 18.9565 97.3685H14.0345ZM18.8645 93.4585C20.9499 93.4585 22.6365 92.7378 23.9245 91.2965C25.2125 89.8245 25.8566 87.8772 25.8566 85.4545V76.3465C25.8566 73.9238 25.2125 71.9918 23.9245 70.5505C22.6365 69.0785 20.9499 68.3425 18.8645 68.3425H14.1265C12.0412 68.3425 10.3545 69.0785 9.06655 70.5505C7.77855 71.9918 7.13455 73.9238 7.13455 76.3465V85.4545C7.13455 87.8772 7.76322 89.8245 9.02055 91.2965C10.3085 92.7378 11.9952 93.4585 14.0805 93.4585H18.8645ZM43.2941 97.0005C42.5581 97.0005 41.9295 96.8012 41.4081 96.4025C40.9175 95.9732 40.5035 95.3138 40.1661 94.4245L32.2541 74.0465H36.7621L43.2941 92.1705H43.3861L49.9181 74.0465H54.4261L45.4101 97.0005H43.2941ZM64.6949 97.3685C61.9963 97.3685 59.8189 96.6018 58.1629 95.0685C56.5376 93.5045 55.7249 91.4652 55.7249 88.9505V82.6025C55.7249 79.9038 56.5376 77.7418 58.1629 76.1165C59.8189 74.4912 61.9963 73.6785 64.6949 73.6785H68.4669C71.0736 73.6785 73.1743 74.4758 74.7689 76.0705C76.3636 77.6652 77.1609 79.7812 77.1609 82.4185V86.7425H60.0029V88.9505C60.0029 90.3612 60.4323 91.4958 61.2909 92.3545C62.1496 93.2132 63.2843 93.6425 64.6949 93.6425H68.2369C69.6169 93.6425 70.7363 93.2898 71.5949 92.5845C72.4536 91.8485 72.8829 90.8825 72.8829 89.6865H77.0689C77.0689 91.9865 76.2563 93.8418 74.6309 95.2525C73.0056 96.6632 70.8589 97.3685 68.1909 97.3685H64.6949ZM72.8829 83.3385V82.4185C72.8829 80.8852 72.4689 79.6585 71.6409 78.7385C70.8436 77.8185 69.7856 77.3585 68.4669 77.3585H64.6949C63.2843 77.3585 62.1496 77.8492 61.2909 78.8305C60.4323 79.7812 60.0029 81.0538 60.0029 82.6485V83.3385H72.8829ZM81.5101 74.0465H85.6041V77.4045C86.2174 76.3925 87.1067 75.5645 88.2721 74.9205C89.4681 74.2765 90.7101 73.9545 91.9981 73.9545H94.3901V77.7725H91.9981C90.1274 77.7725 88.6247 78.3552 87.4901 79.5205C86.3554 80.6552 85.7881 82.1578 85.7881 84.0285V97.0005H81.5101V74.0465ZM435.419 64.8005H439.697V76.9445C440.402 75.9632 441.292 75.1812 442.365 74.5985C443.438 73.9852 444.496 73.6785 445.539 73.6785H448.667C450.875 73.6785 452.654 74.4145 454.003 75.8865C455.383 77.3585 456.073 79.2905 456.073 81.6825V97.0005H451.795V81.6825C451.795 80.4252 451.473 79.4132 450.829 78.6465C450.185 77.8492 449.342 77.4505 448.299 77.4505H445.355C444.036 77.4505 442.84 77.9565 441.767 78.9685C440.694 79.9498 440.004 81.2378 439.697 82.8325V97.0005H435.419V64.8005ZM468.171 97.3685C465.871 97.3685 464.031 96.7858 462.651 95.6205C461.271 94.4245 460.581 92.8452 460.581 90.8825V89.3645C460.581 87.4325 461.302 85.8838 462.743 84.7185C464.185 83.5225 466.071 82.9245 468.401 82.9245H471.299C472.219 82.9245 473.201 83.0625 474.243 83.3385C475.286 83.6145 476.175 83.9978 476.911 84.4885V81.1305C476.911 79.9958 476.559 79.0912 475.853 78.4165C475.148 77.7112 474.228 77.3585 473.093 77.3585H469.321C468.156 77.3585 467.221 77.6345 466.515 78.1865C465.81 78.7385 465.457 79.4592 465.457 80.3485H461.225C461.225 78.3552 461.961 76.7452 463.433 75.5185C464.936 74.2918 466.899 73.6785 469.321 73.6785H473.093C475.516 73.6785 477.463 74.3685 478.935 75.7485C480.407 77.0978 481.143 78.8918 481.143 81.1305V97.0005H477.141V93.9185C476.436 94.9612 475.516 95.8045 474.381 96.4485C473.247 97.0618 472.097 97.3685 470.931 97.3685H468.171ZM471.161 93.8265C472.511 93.8265 473.707 93.4432 474.749 92.6765C475.792 91.8792 476.513 90.8212 476.911 89.5025V88.1225C476.329 87.6012 475.531 87.1872 474.519 86.8805C473.507 86.5738 472.465 86.4205 471.391 86.4205H468.447C467.374 86.4205 466.5 86.6965 465.825 87.2485C465.151 87.8005 464.813 88.5365 464.813 89.4565V90.8365C464.813 91.7565 465.135 92.4925 465.779 93.0445C466.454 93.5658 467.343 93.8265 468.447 93.8265H471.161ZM494.507 97.0005C493.771 97.0005 493.143 96.8012 492.621 96.4025C492.131 95.9732 491.717 95.3138 491.379 94.4245L483.467 74.0465H487.975L494.507 92.1705H494.599L501.131 74.0465H505.639L496.623 97.0005H494.507ZM515.908 97.3685C513.21 97.3685 511.032 96.6018 509.376 95.0685C507.751 93.5045 506.938 91.4652 506.938 88.9505V82.6025C506.938 79.9038 507.751 77.7418 509.376 76.1165C511.032 74.4912 513.21 73.6785 515.908 73.6785H519.68C522.287 73.6785 524.388 74.4758 525.982 76.0705C527.577 77.6652 528.374 79.7812 528.374 82.4185V86.7425H511.216V88.9505C511.216 90.3612 511.646 91.4958 512.504 92.3545C513.363 93.2132 514.498 93.6425 515.908 93.6425H519.45C520.83 93.6425 521.95 93.2898 522.808 92.5845C523.667 91.8485 524.096 90.8825 524.096 89.6865H528.282C528.282 91.9865 527.47 93.8418 525.844 95.2525C524.219 96.6632 522.072 97.3685 519.404 97.3685H515.908ZM524.096 83.3385V82.4185C524.096 80.8852 523.682 79.6585 522.854 78.7385C522.057 77.8185 520.999 77.3585 519.68 77.3585H515.908C514.498 77.3585 513.363 77.8492 512.504 78.8305C511.646 79.7812 511.216 81.0538 511.216 82.6485V83.3385H524.096ZM553.909 97.3685C552.897 97.3685 551.854 97.0618 550.781 96.4485C549.708 95.8045 548.864 95.0072 548.251 94.0565V97.0005H544.157V64.8005H548.435V76.4385C549.11 75.6105 549.953 74.9512 550.965 74.4605C551.977 73.9392 552.989 73.6785 554.001 73.6785H557.267C558.892 73.6785 560.334 74.0465 561.591 74.7825C562.879 75.5185 563.876 76.5458 564.581 77.8645C565.286 79.1832 565.639 80.7165 565.639 82.4645V88.1685C565.639 89.9778 565.271 91.5878 564.535 92.9985C563.83 94.3785 562.833 95.4518 561.545 96.2185C560.257 96.9852 558.77 97.3685 557.083 97.3685H553.909ZM556.807 93.5965C558.156 93.5965 559.245 93.0905 560.073 92.0785C560.901 91.0358 561.315 89.6712 561.315 87.9845V82.6025C561.315 81.0692 560.901 79.8272 560.073 78.8765C559.276 77.9258 558.233 77.4505 556.945 77.4505H553.955C552.483 77.4505 551.226 77.9872 550.183 79.0605C549.14 80.1338 548.558 81.5292 548.435 83.2465V88.3065C548.558 89.7785 549.14 91.0358 550.183 92.0785C551.226 93.0905 552.406 93.5965 553.725 93.5965H556.807ZM578.285 97.3685C575.586 97.3685 573.409 96.6018 571.753 95.0685C570.128 93.5045 569.315 91.4652 569.315 88.9505V82.6025C569.315 79.9038 570.128 77.7418 571.753 76.1165C573.409 74.4912 575.586 73.6785 578.285 73.6785H582.057C584.664 73.6785 586.764 74.4758 588.359 76.0705C589.954 77.6652 590.751 79.7812 590.751 82.4185V86.7425H573.593V88.9505C573.593 90.3612 574.022 91.4958 574.881 92.3545C575.74 93.2132 576.874 93.6425 578.285 93.6425H581.827C583.207 93.6425 584.326 93.2898 585.185 92.5845C586.044 91.8485 586.473 90.8825 586.473 89.6865H590.659C590.659 91.9865 589.846 93.8418 588.221 95.2525C586.596 96.6632 584.449 97.3685 581.781 97.3685H578.285ZM586.473 83.3385V82.4185C586.473 80.8852 586.059 79.6585 585.231 78.7385C584.434 77.8185 583.376 77.3585 582.057 77.3585H578.285C576.874 77.3585 575.74 77.8492 574.881 78.8305C574.022 79.7812 573.593 81.0538 573.593 82.6485V83.3385H586.473ZM595.1 74.0465H599.194V77.2205C599.869 76.1778 600.758 75.3345 601.862 74.6905C602.997 74.0158 604.116 73.6785 605.22 73.6785H608.256C610.464 73.6785 612.243 74.4145 613.592 75.8865C614.972 77.3585 615.662 79.2905 615.662 81.6825V97.0005H611.384V81.6825C611.384 80.4252 611.062 79.4132 610.418 78.6465C609.774 77.8492 608.931 77.4505 607.888 77.4505H605.036C603.717 77.4505 602.521 77.9565 601.448 78.9685C600.375 79.9805 599.685 81.2992 599.378 82.9245V97.0005H595.1V74.0465ZM628.959 97.3685C626.26 97.3685 624.083 96.6018 622.427 95.0685C620.801 93.5045 619.989 91.4652 619.989 88.9505V82.6025C619.989 79.9038 620.801 77.7418 622.427 76.1165C624.083 74.4912 626.26 73.6785 628.959 73.6785H632.731C635.337 73.6785 637.438 74.4758 639.033 76.0705C640.627 77.6652 641.425 79.7812 641.425 82.4185V86.7425H624.267V88.9505C624.267 90.3612 624.696 91.4958 625.555 92.3545C626.413 93.2132 627.548 93.6425 628.959 93.6425H632.501C633.881 93.6425 635 93.2898 635.859 92.5845C636.717 91.8485 637.147 90.8825 637.147 89.6865H641.333C641.333 91.9865 640.52 93.8418 638.895 95.2525C637.269 96.6632 635.123 97.3685 632.455 97.3685H628.959ZM637.147 83.3385V82.4185C637.147 80.8852 636.733 79.6585 635.905 78.7385C635.107 77.8185 634.049 77.3585 632.731 77.3585H628.959C627.548 77.3585 626.413 77.8492 625.555 78.8305C624.696 79.7812 624.267 81.0538 624.267 82.6485V83.3385H637.147ZM665.784 97.0005H661.506V77.7265H652.306V97.0005H648.028V77.7265H644.072V74.0005H648.028V72.3445C648.028 69.8298 648.718 67.9132 650.098 66.5945C651.478 65.2758 653.471 64.6165 656.078 64.6165H662.334V68.2965H656.078C654.79 68.2965 653.839 68.6338 653.226 69.3085C652.612 69.9525 652.306 70.9798 652.306 72.3905V74.0005H665.784V97.0005ZM680.651 97.0005C678.136 97.0005 676.311 96.4485 675.177 95.3445C674.073 94.2405 673.521 92.4618 673.521 90.0085V77.7725H669.473V74.0465H673.567V67.1005H677.799V74.0465H683.779V77.7725H677.799V89.9165C677.799 91.1125 678.029 91.9712 678.489 92.4925C678.979 93.0138 679.761 93.2745 680.835 93.2745H683.779V97.0005H680.651ZM695.693 97.3685C692.994 97.3685 690.817 96.6018 689.161 95.0685C687.535 93.5045 686.723 91.4652 686.723 88.9505V82.6025C686.723 79.9038 687.535 77.7418 689.161 76.1165C690.817 74.4912 692.994 73.6785 695.693 73.6785H699.465C702.071 73.6785 704.172 74.4758 705.767 76.0705C707.361 77.6652 708.159 79.7812 708.159 82.4185V86.7425H691.001V88.9505C691.001 90.3612 691.43 91.4958 692.289 92.3545C693.147 93.2132 694.282 93.6425 695.693 93.6425H699.235C700.615 93.6425 701.734 93.2898 702.593 92.5845C703.451 91.8485 703.881 90.8825 703.881 89.6865H708.067C708.067 91.9865 707.254 93.8418 705.629 95.2525C704.003 96.6632 701.857 97.3685 699.189 97.3685H695.693ZM703.881 83.3385V82.4185C703.881 80.8852 703.467 79.6585 702.639 78.7385C701.841 77.8185 700.783 77.3585 699.465 77.3585H695.693C694.282 77.3585 693.147 77.8492 692.289 78.8305C691.43 79.7812 691.001 81.0538 691.001 82.6485V83.3385H703.881ZM720.006 97.3685C717.491 97.3685 715.452 96.5558 713.888 94.9305C712.355 93.3052 711.588 91.1585 711.588 88.4905V83.0625C711.588 81.2225 711.956 79.5972 712.692 78.1865C713.428 76.7452 714.455 75.6412 715.774 74.8745C717.123 74.0772 718.672 73.6785 720.42 73.6785H723.548C724.529 73.6785 725.495 73.9085 726.446 74.3685C727.397 74.8285 728.163 75.4418 728.746 76.2085V64.8005H733.07V97.0005H728.976V93.7345C728.301 94.8078 727.412 95.6818 726.308 96.3565C725.204 97.0312 724.1 97.3685 722.996 97.3685H720.006ZM723.18 93.5965C724.621 93.5965 725.879 93.0138 726.952 91.8485C728.025 90.6525 728.623 89.2418 728.746 87.6165V82.4185C728.531 80.9158 727.964 79.7198 727.044 78.8305C726.155 77.9105 725.081 77.4505 723.824 77.4505H720.742C719.301 77.4505 718.12 77.9872 717.2 79.0605C716.311 80.1032 715.866 81.4985 715.866 83.2465V88.3525C715.866 89.9165 716.28 91.1892 717.108 92.1705C717.967 93.1212 719.04 93.5965 720.328 93.5965H723.18ZM26.5767 137.772H22.6207V134.046H26.5767V132.344C26.5767 129.83 27.2667 127.913 28.6467 126.594C30.0267 125.276 32.0201 124.616 34.6267 124.616H36.8807V128.296H34.6267C33.3387 128.296 32.3881 128.634 31.7747 129.308C31.1614 129.952 30.8547 130.98 30.8547 132.39V134.046H36.3747V137.772H30.8547V157H26.5767V137.772ZM40.2484 134.046H44.3424V137.404C44.9558 136.392 45.8451 135.564 47.0104 134.92C48.2064 134.276 49.4484 133.954 50.7364 133.954H53.1284V137.772H50.7364C48.8658 137.772 47.3631 138.355 46.2284 139.52C45.0938 140.655 44.5264 142.158 44.5264 144.028V157H40.2484V134.046ZM63.4155 157.368C60.7169 157.368 58.5395 156.556 56.8835 154.93C55.2582 153.305 54.4455 151.174 54.4455 148.536V142.556C54.4455 139.888 55.2735 137.742 56.9295 136.116C58.5855 134.491 60.7782 133.678 63.5075 133.678H67.3715C70.1009 133.678 72.2935 134.491 73.9495 136.116C75.6055 137.742 76.4335 139.888 76.4335 142.556V148.536C76.4335 151.174 75.5902 153.305 73.9035 154.93C72.2475 156.556 70.0549 157.368 67.3255 157.368H63.4155ZM67.2795 153.596C68.7515 153.596 69.9322 153.121 70.8215 152.17C71.7109 151.22 72.1555 149.947 72.1555 148.352V142.694C72.1555 141.1 71.7109 139.827 70.8215 138.876C69.9629 137.926 68.8129 137.45 67.3715 137.45H63.5075C62.0662 137.45 60.9009 137.926 60.0115 138.876C59.1529 139.827 58.7235 141.1 58.7235 142.694V148.352C58.7235 149.947 59.1529 151.22 60.0115 152.17C60.8702 153.121 62.0202 153.596 63.4615 153.596H67.2795ZM106.569 133.678C108.685 133.678 110.372 134.368 111.629 135.748C112.887 137.098 113.515 138.953 113.515 141.314V157H109.237V141.268C109.237 140.103 108.961 139.183 108.409 138.508C107.857 137.803 107.137 137.45 106.247 137.45H103.855C102.69 137.45 101.709 137.864 100.911 138.692C100.145 139.49 99.654 140.594 99.4393 142.004V157H95.1153V141.452C95.1153 140.195 94.8546 139.214 94.3333 138.508C93.8426 137.803 93.168 137.45 92.3093 137.45H89.9633C88.798 137.45 87.786 137.956 86.9273 138.968C86.0686 139.95 85.532 141.253 85.3173 142.878V157H81.0393V134.046H85.1333V137.128C85.7466 136.055 86.498 135.212 87.3873 134.598C88.3073 133.985 89.2426 133.678 90.1933 133.678H92.8613C94.088 133.678 95.146 133.985 96.0353 134.598C96.9553 135.212 97.676 136.086 98.1973 137.22C98.872 136.055 99.7 135.181 100.681 134.598C101.663 133.985 102.721 133.678 103.855 133.678H106.569ZM138.282 128.618H128.07V124.8H152.864V128.618H142.652V157H138.282V128.618ZM158.041 131.01C157.151 131.01 156.431 130.75 155.879 130.228C155.327 129.676 155.051 128.971 155.051 128.112C155.051 127.254 155.327 126.564 155.879 126.042C156.431 125.49 157.151 125.214 158.041 125.214C158.93 125.214 159.635 125.49 160.157 126.042C160.709 126.564 160.985 127.254 160.985 128.112C160.985 128.971 160.709 129.676 160.157 130.228C159.635 130.75 158.93 131.01 158.041 131.01ZM155.879 134.046H160.157V157H155.879V134.046ZM192.014 133.678C194.13 133.678 195.817 134.368 197.074 135.748C198.332 137.098 198.96 138.953 198.96 141.314V157H194.682V141.268C194.682 140.103 194.406 139.183 193.854 138.508C193.302 137.803 192.582 137.45 191.692 137.45H189.3C188.135 137.45 187.154 137.864 186.356 138.692C185.59 139.49 185.099 140.594 184.884 142.004V157H180.56V141.452C180.56 140.195 180.3 139.214 179.778 138.508C179.288 137.803 178.613 137.45 177.754 137.45H175.408C174.243 137.45 173.231 137.956 172.372 138.968C171.514 139.95 170.977 141.253 170.762 142.878V157H166.484V134.046H170.578V137.128C171.192 136.055 171.943 135.212 172.832 134.598C173.752 133.985 174.688 133.678 175.638 133.678H178.306C179.533 133.678 180.591 133.985 181.48 134.598C182.4 135.212 183.121 136.086 183.642 137.22C184.317 136.055 185.145 135.181 186.126 134.598C187.108 133.985 188.166 133.678 189.3 133.678H192.014ZM212.247 157.368C209.548 157.368 207.371 156.602 205.715 155.068C204.09 153.504 203.277 151.465 203.277 148.95V142.602C203.277 139.904 204.09 137.742 205.715 136.116C207.371 134.491 209.548 133.678 212.247 133.678H216.019C218.626 133.678 220.726 134.476 222.321 136.07C223.916 137.665 224.713 139.781 224.713 142.418V146.742H207.555V148.95C207.555 150.361 207.984 151.496 208.843 152.354C209.702 153.213 210.836 153.642 212.247 153.642H215.789C217.169 153.642 218.288 153.29 219.147 152.584C220.006 151.848 220.435 150.882 220.435 149.686H224.621C224.621 151.986 223.808 153.842 222.183 155.252C220.558 156.663 218.411 157.368 215.743 157.368H212.247ZM220.435 143.338V142.418C220.435 140.885 220.021 139.658 219.193 138.738C218.396 137.818 217.338 137.358 216.019 137.358H212.247C210.836 137.358 209.702 137.849 208.843 138.83C207.984 139.781 207.555 141.054 207.555 142.648V143.338H220.435ZM236.974 157.368C234.337 157.368 232.206 156.586 230.58 155.022C228.955 153.428 228.142 151.342 228.142 148.766V142.602C228.142 139.904 228.94 137.742 230.534 136.116C232.16 134.491 234.291 133.678 236.928 133.678H240.654C243.169 133.678 245.193 134.384 246.726 135.794C248.26 137.205 249.026 139.076 249.026 141.406H244.794C244.794 140.21 244.411 139.26 243.644 138.554C242.908 137.818 241.912 137.45 240.654 137.45H236.974C235.625 137.45 234.521 137.941 233.662 138.922C232.834 139.873 232.42 141.146 232.42 142.74V148.628C232.42 150.131 232.85 151.342 233.708 152.262C234.567 153.152 235.671 153.596 237.02 153.596H240.7C241.988 153.596 243.016 153.152 243.782 152.262C244.58 151.342 244.978 150.131 244.978 148.628H249.21C249.21 151.235 248.428 153.351 246.864 154.976C245.3 156.571 243.246 157.368 240.7 157.368H236.974ZM253.164 124.8H257.442V136.944C258.147 135.963 259.036 135.181 260.11 134.598C261.183 133.985 262.241 133.678 263.284 133.678H266.412C268.62 133.678 270.398 134.414 271.748 135.886C273.128 137.358 273.818 139.29 273.818 141.682V157H269.54V141.682C269.54 140.425 269.218 139.413 268.574 138.646C267.93 137.849 267.086 137.45 266.044 137.45H263.1C261.781 137.45 260.585 137.956 259.512 138.968C258.438 139.95 257.748 141.238 257.442 142.832V157H253.164V124.8ZM285.916 157.368C283.616 157.368 281.776 156.786 280.396 155.62C279.016 154.424 278.326 152.845 278.326 150.882V149.364C278.326 147.432 279.047 145.884 280.488 144.718C281.929 143.522 283.815 142.924 286.146 142.924H289.044C289.964 142.924 290.945 143.062 291.988 143.338C293.031 143.614 293.92 143.998 294.656 144.488V141.13C294.656 139.996 294.303 139.091 293.598 138.416C292.893 137.711 291.973 137.358 290.838 137.358H287.066C285.901 137.358 284.965 137.634 284.26 138.186C283.555 138.738 283.202 139.459 283.202 140.348H278.97C278.97 138.355 279.706 136.745 281.178 135.518C282.681 134.292 284.643 133.678 287.066 133.678H290.838C293.261 133.678 295.208 134.368 296.68 135.748C298.152 137.098 298.888 138.892 298.888 141.13V157H294.886V153.918C294.181 154.961 293.261 155.804 292.126 156.448C290.991 157.062 289.841 157.368 288.676 157.368H285.916ZM288.906 153.826C290.255 153.826 291.451 153.443 292.494 152.676C293.537 151.879 294.257 150.821 294.656 149.502V148.122C294.073 147.601 293.276 147.187 292.264 146.88C291.252 146.574 290.209 146.42 289.136 146.42H286.192C285.119 146.42 284.245 146.696 283.57 147.248C282.895 147.8 282.558 148.536 282.558 149.456V150.836C282.558 151.756 282.88 152.492 283.524 153.044C284.199 153.566 285.088 153.826 286.192 153.826H288.906ZM307.142 131.01C306.253 131.01 305.532 130.75 304.98 130.228C304.428 129.676 304.152 128.971 304.152 128.112C304.152 127.254 304.428 126.564 304.98 126.042C305.532 125.49 306.253 125.214 307.142 125.214C308.031 125.214 308.737 125.49 309.258 126.042C309.81 126.564 310.086 127.254 310.086 128.112C310.086 128.971 309.81 129.676 309.258 130.228C308.737 130.75 308.031 131.01 307.142 131.01ZM304.98 134.046H309.258V157H304.98V134.046ZM315.585 134.046H319.679V137.22C320.354 136.178 321.243 135.334 322.347 134.69C323.482 134.016 324.601 133.678 325.705 133.678H328.741C330.949 133.678 332.728 134.414 334.077 135.886C335.457 137.358 336.147 139.29 336.147 141.682V157H331.869V141.682C331.869 140.425 331.547 139.413 330.903 138.646C330.259 137.849 329.416 137.45 328.373 137.45H325.521C324.203 137.45 323.007 137.956 321.933 138.968C320.86 139.98 320.17 141.299 319.863 142.924V157H315.585V134.046ZM371.457 148.536H358.025L354.897 157H350.343L362.809 124.8H364.787C366.106 124.8 367.041 125.521 367.593 126.962L379.139 157H374.631L371.457 148.536ZM359.313 144.856H370.169L364.787 130.32H364.741L359.313 144.856ZM389.378 157.368C386.741 157.368 384.609 156.586 382.984 155.022C381.359 153.428 380.546 151.342 380.546 148.766V142.602C380.546 139.904 381.343 137.742 382.938 136.116C384.563 134.491 386.695 133.678 389.332 133.678H393.058C395.573 133.678 397.597 134.384 399.13 135.794C400.663 137.205 401.43 139.076 401.43 141.406H397.198C397.198 140.21 396.815 139.26 396.048 138.554C395.312 137.818 394.315 137.45 393.058 137.45H389.378C388.029 137.45 386.925 137.941 386.066 138.922C385.238 139.873 384.824 141.146 384.824 142.74V148.628C384.824 150.131 385.253 151.342 386.112 152.262C386.971 153.152 388.075 153.596 389.424 153.596H393.104C394.392 153.596 395.419 153.152 396.186 152.262C396.983 151.342 397.382 150.131 397.382 148.628H401.614C401.614 151.235 400.832 153.351 399.268 154.976C397.704 156.571 395.649 157.368 393.104 157.368H389.378ZM412.421 157.368C410.121 157.368 408.281 156.786 406.901 155.62C405.521 154.424 404.831 152.845 404.831 150.882V149.364C404.831 147.432 405.552 145.884 406.993 144.718C408.435 143.522 410.321 142.924 412.651 142.924H415.549C416.469 142.924 417.451 143.062 418.493 143.338C419.536 143.614 420.425 143.998 421.161 144.488V141.13C421.161 139.996 420.809 139.091 420.103 138.416C419.398 137.711 418.478 137.358 417.343 137.358H413.571C412.406 137.358 411.471 137.634 410.765 138.186C410.06 138.738 409.707 139.459 409.707 140.348H405.475C405.475 138.355 406.211 136.745 407.683 135.518C409.186 134.292 411.149 133.678 413.571 133.678H417.343C419.766 133.678 421.713 134.368 423.185 135.748C424.657 137.098 425.393 138.892 425.393 141.13V157H421.391V153.918C420.686 154.961 419.766 155.804 418.631 156.448C417.497 157.062 416.347 157.368 415.181 157.368H412.421ZM415.411 153.826C416.761 153.826 417.957 153.443 418.999 152.676C420.042 151.879 420.763 150.821 421.161 149.502V148.122C420.579 147.601 419.781 147.187 418.769 146.88C417.757 146.574 416.715 146.42 415.641 146.42H412.697C411.624 146.42 410.75 146.696 410.075 147.248C409.401 147.8 409.063 148.536 409.063 149.456V150.836C409.063 151.756 409.385 152.492 410.029 153.044C410.704 153.566 411.593 153.826 412.697 153.826H415.411ZM438.155 157.368C435.641 157.368 433.601 156.556 432.037 154.93C430.504 153.305 429.737 151.158 429.737 148.49V143.062C429.737 141.222 430.105 139.597 430.841 138.186C431.577 136.745 432.605 135.641 433.923 134.874C435.273 134.077 436.821 133.678 438.569 133.678H441.697C442.679 133.678 443.645 133.908 444.595 134.368C445.546 134.828 446.313 135.442 446.895 136.208V124.8H451.219V157H447.125V153.734C446.451 154.808 445.561 155.682 444.457 156.356C443.353 157.031 442.249 157.368 441.145 157.368H438.155ZM441.329 153.596C442.771 153.596 444.028 153.014 445.101 151.848C446.175 150.652 446.773 149.242 446.895 147.616V142.418C446.681 140.916 446.113 139.72 445.193 138.83C444.304 137.91 443.231 137.45 441.973 137.45H438.891C437.45 137.45 436.269 137.987 435.349 139.06C434.46 140.103 434.015 141.498 434.015 143.246V148.352C434.015 149.916 434.429 151.189 435.257 152.17C436.116 153.121 437.189 153.596 438.477 153.596H441.329ZM464.785 157.368C462.087 157.368 459.909 156.602 458.253 155.068C456.628 153.504 455.815 151.465 455.815 148.95V142.602C455.815 139.904 456.628 137.742 458.253 136.116C459.909 134.491 462.087 133.678 464.785 133.678H468.557C471.164 133.678 473.265 134.476 474.859 136.07C476.454 137.665 477.251 139.781 477.251 142.418V146.742H460.093V148.95C460.093 150.361 460.523 151.496 461.381 152.354C462.24 153.213 463.375 153.642 464.785 153.642H468.327C469.707 153.642 470.827 153.29 471.685 152.584C472.544 151.848 472.973 150.882 472.973 149.686H477.159C477.159 151.986 476.347 153.842 474.721 155.252C473.096 156.663 470.949 157.368 468.281 157.368H464.785ZM472.973 143.338V142.418C472.973 140.885 472.559 139.658 471.731 138.738C470.934 137.818 469.876 137.358 468.557 137.358H464.785C463.375 137.358 462.24 137.849 461.381 138.83C460.523 139.781 460.093 141.054 460.093 142.648V143.338H472.973ZM507.13 133.678C509.246 133.678 510.933 134.368 512.19 135.748C513.448 137.098 514.076 138.953 514.076 141.314V157H509.798V141.268C509.798 140.103 509.522 139.183 508.97 138.508C508.418 137.803 507.698 137.45 506.808 137.45H504.416C503.251 137.45 502.27 137.864 501.472 138.692C500.706 139.49 500.215 140.594 500 142.004V157H495.676V141.452C495.676 140.195 495.416 139.214 494.894 138.508C494.404 137.803 493.729 137.45 492.87 137.45H490.524C489.359 137.45 488.347 137.956 487.488 138.968C486.63 139.95 486.093 141.253 485.878 142.878V157H481.6V134.046H485.694V137.128C486.308 136.055 487.059 135.212 487.948 134.598C488.868 133.985 489.804 133.678 490.754 133.678H493.422C494.649 133.678 495.707 133.985 496.596 134.598C497.516 135.212 498.237 136.086 498.758 137.22C499.433 136.055 500.261 135.181 501.242 134.598C502.224 133.985 503.282 133.678 504.416 133.678H507.13ZM527.225 166.338C525.048 166.338 523.239 165.74 521.797 164.544C520.387 163.348 519.605 161.784 519.451 159.852H523.729C523.821 160.68 524.189 161.355 524.833 161.876C525.477 162.398 526.275 162.658 527.225 162.658H530.859C532.239 162.658 533.313 162.168 534.079 161.186C534.877 160.236 535.275 158.917 535.275 157.23V153.412C534.57 154.486 533.696 155.344 532.653 155.988C531.611 156.632 530.568 156.954 529.525 156.954H526.535C524.297 156.954 522.487 156.203 521.107 154.7C519.727 153.198 519.037 151.22 519.037 148.766V134.046H523.315V148.858C523.315 150.146 523.637 151.189 524.281 151.986C524.956 152.784 525.815 153.182 526.857 153.182H529.663C530.951 153.182 532.117 152.661 533.159 151.618C534.233 150.576 534.938 149.257 535.275 147.662V134.046H539.599V157.23C539.599 160.052 538.817 162.275 537.253 163.9C535.689 165.526 533.558 166.338 530.859 166.338H527.225ZM564.467 157.368C561.83 157.368 559.699 156.586 558.073 155.022C556.448 153.428 555.635 151.342 555.635 148.766V142.602C555.635 139.904 556.433 137.742 558.027 136.116C559.653 134.491 561.784 133.678 564.421 133.678H568.147C570.662 133.678 572.686 134.384 574.219 135.794C575.753 137.205 576.519 139.076 576.519 141.406H572.287C572.287 140.21 571.904 139.26 571.137 138.554C570.401 137.818 569.405 137.45 568.147 137.45H564.467C563.118 137.45 562.014 137.941 561.155 138.922C560.327 139.873 559.913 141.146 559.913 142.74V148.628C559.913 150.131 560.343 151.342 561.201 152.262C562.06 153.152 563.164 153.596 564.513 153.596H568.193C569.481 153.596 570.509 153.152 571.275 152.262C572.073 151.342 572.471 150.131 572.471 148.628H576.703C576.703 151.235 575.921 153.351 574.357 154.976C572.793 156.571 570.739 157.368 568.193 157.368H564.467ZM588.707 157.368C586.008 157.368 583.831 156.556 582.175 154.93C580.549 153.305 579.737 151.174 579.737 148.536V142.556C579.737 139.888 580.565 137.742 582.221 136.116C583.877 134.491 586.069 133.678 588.799 133.678H592.663C595.392 133.678 597.585 134.491 599.241 136.116C600.897 137.742 601.725 139.888 601.725 142.556V148.536C601.725 151.174 600.881 153.305 599.195 154.93C597.539 156.556 595.346 157.368 592.617 157.368H588.707ZM592.571 153.596C594.043 153.596 595.223 153.121 596.113 152.17C597.002 151.22 597.447 149.947 597.447 148.352V142.694C597.447 141.1 597.002 139.827 596.113 138.876C595.254 137.926 594.104 137.45 592.663 137.45H588.799C587.357 137.45 586.192 137.926 585.303 138.876C584.444 139.827 584.015 141.1 584.015 142.694V148.352C584.015 149.947 584.444 151.22 585.303 152.17C586.161 153.121 587.311 153.596 588.753 153.596H592.571ZM613.507 157.368C611.268 157.368 609.459 156.617 608.079 155.114C606.729 153.612 606.055 151.634 606.055 149.18V134.046H610.333V149.272C610.333 150.56 610.655 151.603 611.299 152.4C611.943 153.198 612.786 153.596 613.829 153.596H616.589C617.877 153.596 619.057 153.075 620.131 152.032C621.204 150.99 621.909 149.671 622.247 148.076V134.046H626.525V157H622.477V153.688C621.741 154.762 620.821 155.651 619.717 156.356C618.613 157.031 617.524 157.368 616.451 157.368H613.507ZM632.049 134.046H636.143V137.404C636.757 136.392 637.646 135.564 638.811 134.92C640.007 134.276 641.249 133.954 642.537 133.954H644.929V137.772H642.537C640.667 137.772 639.164 138.355 638.029 139.52C636.895 140.655 636.327 142.158 636.327 144.028V157H632.049V134.046ZM654.969 157.368C652.485 157.368 650.492 156.694 648.989 155.344C647.486 153.964 646.735 152.155 646.735 149.916H650.921C650.921 151.051 651.289 151.971 652.025 152.676C652.761 153.382 653.742 153.734 654.969 153.734H659.017C660.182 153.734 661.118 153.52 661.823 153.09C662.528 152.63 662.881 152.032 662.881 151.296V149.962C662.881 149.472 662.666 149.042 662.237 148.674C661.838 148.276 661.317 148.015 660.673 147.892L652.715 146.512C651.028 146.206 649.679 145.577 648.667 144.626C647.655 143.645 647.149 142.51 647.149 141.222V139.704C647.149 137.895 647.87 136.438 649.311 135.334C650.752 134.23 652.684 133.678 655.107 133.678H658.971C661.271 133.678 663.111 134.307 664.491 135.564C665.902 136.822 666.607 138.493 666.607 140.578H662.421C662.39 139.597 662.053 138.815 661.409 138.232C660.796 137.619 659.983 137.312 658.971 137.312H655.153C654.018 137.312 653.114 137.542 652.439 138.002C651.795 138.462 651.473 139.076 651.473 139.842V140.992C651.473 141.483 651.688 141.912 652.117 142.28C652.546 142.648 653.098 142.909 653.773 143.062L661.823 144.488C663.418 144.764 664.706 145.378 665.687 146.328C666.699 147.279 667.205 148.383 667.205 149.64V151.434C667.205 153.213 666.454 154.654 664.951 155.758C663.448 156.832 661.47 157.368 659.017 157.368H654.969ZM679.408 157.368C676.709 157.368 674.532 156.602 672.876 155.068C671.25 153.504 670.438 151.465 670.438 148.95V142.602C670.438 139.904 671.25 137.742 672.876 136.116C674.532 134.491 676.709 133.678 679.408 133.678H683.18C685.786 133.678 687.887 134.476 689.482 136.07C691.076 137.665 691.874 139.781 691.874 142.418V146.742H674.716V148.95C674.716 150.361 675.145 151.496 676.004 152.354C676.862 153.213 677.997 153.642 679.408 153.642H682.95C684.33 153.642 685.449 153.29 686.308 152.584C687.166 151.848 687.596 150.882 687.596 149.686H691.782C691.782 151.986 690.969 153.842 689.344 155.252C687.718 156.663 685.572 157.368 682.904 157.368H679.408ZM687.596 143.338V142.418C687.596 140.885 687.182 139.658 686.354 138.738C685.556 137.818 684.498 137.358 683.18 137.358H679.408C677.997 137.358 676.862 137.849 676.004 138.83C675.145 139.781 674.716 141.054 674.716 142.648V143.338H687.596ZM703.307 157.368C700.823 157.368 698.829 156.694 697.327 155.344C695.824 153.964 695.073 152.155 695.073 149.916H699.259C699.259 151.051 699.627 151.971 700.363 152.676C701.099 153.382 702.08 153.734 703.307 153.734H707.355C708.52 153.734 709.455 153.52 710.161 153.09C710.866 152.63 711.219 152.032 711.219 151.296V149.962C711.219 149.472 711.004 149.042 710.575 148.674C710.176 148.276 709.655 148.015 709.011 147.892L701.053 146.512C699.366 146.206 698.017 145.577 697.005 144.626C695.993 143.645 695.487 142.51 695.487 141.222V139.704C695.487 137.895 696.207 136.438 697.649 135.334C699.09 134.23 701.022 133.678 703.445 133.678H707.309C709.609 133.678 711.449 134.307 712.829 135.564C714.239 136.822 714.945 138.493 714.945 140.578H710.759C710.728 139.597 710.391 138.815 709.747 138.232C709.133 137.619 708.321 137.312 707.309 137.312H703.491C702.356 137.312 701.451 137.542 700.777 138.002C700.133 138.462 699.811 139.076 699.811 139.842V140.992C699.811 141.483 700.025 141.912 700.455 142.28C700.884 142.648 701.436 142.909 702.111 143.062L710.161 144.488C711.755 144.764 713.043 145.378 714.025 146.328C715.037 147.279 715.543 148.383 715.543 149.64V151.434C715.543 153.213 714.791 154.654 713.289 155.758C711.786 156.832 709.808 157.368 707.355 157.368H703.307ZM721.673 157.46C720.815 157.46 720.109 157.2 719.557 156.678C719.036 156.126 718.775 155.421 718.775 154.562C718.775 153.704 719.036 152.998 719.557 152.446C720.109 151.894 720.815 151.618 721.673 151.618C722.563 151.618 723.268 151.894 723.789 152.446C724.341 152.968 724.617 153.673 724.617 154.562C724.617 155.421 724.341 156.126 723.789 156.678C723.237 157.2 722.532 157.46 721.673 157.46Z" fill="#333333"/>
<path d="M123.085 90.8365H109.975C108.687 90.8365 107.691 90.5605 106.985 90.0085C106.28 89.4565 105.927 88.6592 105.927 87.6165V86.3285L123.039 64.8005H129.433V85.2245H133.481V90.8365H129.433V97.0005H123.085V90.8365ZM123.269 85.5005V72.7585H123.223L113.149 85.5005H123.269ZM146.366 97.3685C144.219 97.3685 142.318 96.9085 140.662 95.9885C139.006 95.0378 137.718 93.7038 136.798 91.9865C135.878 90.2692 135.418 88.2912 135.418 86.0525V75.7485C135.418 73.5098 135.862 71.5318 136.752 69.8145C137.672 68.0972 138.96 66.7785 140.616 65.8585C142.272 64.9078 144.188 64.4325 146.366 64.4325H151.242C153.358 64.4325 155.228 64.9078 156.854 65.8585C158.479 66.7785 159.736 68.0972 160.626 69.8145C161.546 71.5318 162.006 73.5098 162.006 75.7485V86.0525C162.006 88.2912 161.561 90.2692 160.672 91.9865C159.782 93.7038 158.525 95.0378 156.9 95.9885C155.274 96.9085 153.388 97.3685 151.242 97.3685H146.366ZM151.15 91.7565C152.499 91.7565 153.572 91.2505 154.37 90.2385C155.198 89.1958 155.612 87.8312 155.612 86.1445V75.6565C155.612 73.9698 155.198 72.6205 154.37 71.6085C153.572 70.5658 152.499 70.0445 151.15 70.0445H146.458C145.047 70.0445 143.912 70.5658 143.054 71.6085C142.195 72.6205 141.766 73.9698 141.766 75.6565V86.1445C141.766 87.8312 142.195 89.1958 143.054 90.2385C143.912 91.2505 145.047 91.7565 146.458 91.7565H151.15ZM176.442 97.3685C174.295 97.3685 172.394 96.9085 170.738 95.9885C169.082 95.0378 167.794 93.7038 166.874 91.9865C165.954 90.2692 165.494 88.2912 165.494 86.0525V75.7485C165.494 73.5098 165.939 71.5318 166.828 69.8145C167.748 68.0972 169.036 66.7785 170.692 65.8585C172.348 64.9078 174.265 64.4325 176.442 64.4325H181.318C183.434 64.4325 185.305 64.9078 186.93 65.8585C188.555 66.7785 189.813 68.0972 190.702 69.8145C191.622 71.5318 192.082 73.5098 192.082 75.7485V86.0525C192.082 88.2912 191.637 90.2692 190.748 91.9865C189.859 93.7038 188.601 95.0378 186.976 95.9885C185.351 96.9085 183.465 97.3685 181.318 97.3685H176.442ZM181.226 91.7565C182.575 91.7565 183.649 91.2505 184.446 90.2385C185.274 89.1958 185.688 87.8312 185.688 86.1445V75.6565C185.688 73.9698 185.274 72.6205 184.446 71.6085C183.649 70.5658 182.575 70.0445 181.226 70.0445H176.534C175.123 70.0445 173.989 70.5658 173.13 71.6085C172.271 72.6205 171.842 73.9698 171.842 75.6565V86.1445C171.842 87.8312 172.271 89.1958 173.13 90.2385C173.989 91.2505 175.123 91.7565 176.534 91.7565H181.226ZM203.482 84.8105H195.11V79.3825H203.482V71.0105H209.738V79.3825H218.11V84.8105H209.738V93.1825H203.482V84.8105ZM242.088 97.3685C239.297 97.3685 237.058 96.6325 235.372 95.1605C233.685 93.6885 232.842 91.7565 232.842 89.3645H239.006C239.006 90.1925 239.282 90.8672 239.834 91.3885C240.416 91.8792 241.168 92.1245 242.088 92.1245H246.228C248.068 92.1245 248.988 91.6185 248.988 90.6065V89.8245C248.988 89.5178 248.834 89.2418 248.528 88.9965C248.221 88.7205 247.807 88.5365 247.286 88.4445L239.328 87.0645C237.457 86.7578 235.97 86.0985 234.866 85.0865C233.792 84.0438 233.256 82.8325 233.256 81.4525V79.9345C233.256 77.9718 234.053 76.4385 235.648 75.3345C237.273 74.2305 239.527 73.6785 242.41 73.6785H245.998C248.574 73.6785 250.644 74.3685 252.208 75.7485C253.802 77.0978 254.6 78.8918 254.6 81.1305H248.436C248.436 80.4558 248.206 79.9192 247.746 79.5205C247.316 79.1218 246.734 78.9225 245.998 78.9225H242.502C240.508 78.9225 239.512 79.3825 239.512 80.3025V81.0385C239.512 81.3758 239.634 81.6672 239.88 81.9125C240.156 82.1272 240.539 82.2805 241.03 82.3725L249.402 83.8905C251.15 84.1972 252.56 84.8565 253.634 85.8685C254.707 86.8498 255.244 87.9692 255.244 89.2265V90.8825C255.244 92.8758 254.416 94.4552 252.76 95.6205C251.134 96.7858 248.957 97.3685 246.228 97.3685H242.088ZM268.03 97.0005C265.332 97.0005 263.354 96.3872 262.096 95.1605C260.839 93.9338 260.21 92.0325 260.21 89.4565V79.3825H256.162V74.0465H260.394V67.1005H266.466V74.0465H272.446V79.3825H266.466V89.1805C266.466 90.0392 266.62 90.6678 266.926 91.0665C267.264 91.4652 267.785 91.6645 268.49 91.6645H272.446V97.0005H268.03ZM283.454 97.3685C281.031 97.3685 279.084 96.5558 277.612 94.9305C276.14 93.2745 275.404 91.1125 275.404 88.4445V74.0465H281.66V88.5365C281.66 89.5485 281.905 90.3765 282.396 91.0205C282.917 91.6338 283.592 91.9405 284.42 91.9405H287.088C288.1 91.9405 289.02 91.5265 289.848 90.6985C290.676 89.8398 291.259 88.7205 291.596 87.3405V74.0465H297.852V97.0005H292.056V94.0565C291.351 95.0378 290.477 95.8352 289.434 96.4485C288.422 97.0618 287.441 97.3685 286.49 97.3685H283.454ZM310.44 97.3685C307.711 97.3685 305.503 96.5405 303.816 94.8845C302.16 93.2285 301.332 91.0512 301.332 88.3525V83.1085C301.332 81.2378 301.731 79.5972 302.528 78.1865C303.326 76.7452 304.445 75.6412 305.886 74.8745C307.328 74.0772 308.999 73.6785 310.9 73.6785H313.43C314.32 73.6785 315.224 73.8778 316.144 74.2765C317.064 74.6445 317.831 75.1505 318.444 75.7945V64.8005H324.7V97.0005H318.904V93.9645C318.291 94.9765 317.463 95.8045 316.42 96.4485C315.378 97.0618 314.289 97.3685 313.154 97.3685H310.44ZM313.844 91.9865C315.102 91.9865 316.144 91.5418 316.972 90.6525C317.831 89.7325 318.322 88.5212 318.444 87.0185V83.0165C318.23 81.8205 317.754 80.8698 317.018 80.1645C316.313 79.4285 315.47 79.0605 314.488 79.0605H311.682C310.456 79.0605 309.459 79.4745 308.692 80.3025C307.956 81.1305 307.588 82.2192 307.588 83.5685V87.8925C307.588 89.1192 307.926 90.1158 308.6 90.8825C309.275 91.6185 310.149 91.9865 311.222 91.9865H313.844ZM338.018 97.3685C336.086 97.3685 334.369 97.0158 332.866 96.3105C331.394 95.5745 330.244 94.5625 329.416 93.2745C328.588 91.9558 328.174 90.4532 328.174 88.7665V82.8325C328.174 81.0232 328.588 79.4285 329.416 78.0485C330.244 76.6685 331.394 75.5952 332.866 74.8285C334.369 74.0618 336.086 73.6785 338.018 73.6785H341.698C344.642 73.6785 347.003 74.5065 348.782 76.1625C350.561 77.8185 351.45 80.0265 351.45 82.7865V87.6625H334.43V88.7665C334.43 89.7785 334.752 90.5912 335.396 91.2045C336.04 91.8178 336.914 92.1245 338.018 92.1245H341.606C342.679 92.1245 343.538 91.8945 344.182 91.4345C344.857 90.9438 345.194 90.3152 345.194 89.5485H351.358C351.358 91.0818 350.944 92.4465 350.116 93.6425C349.288 94.8385 348.123 95.7585 346.62 96.4025C345.148 97.0465 343.446 97.3685 341.514 97.3685H338.018ZM345.286 83.1545V82.7865C345.286 81.5905 344.964 80.6398 344.32 79.9345C343.676 79.1985 342.817 78.8305 341.744 78.8305H338.018C336.914 78.8305 336.025 79.2138 335.35 79.9805C334.675 80.7472 334.338 81.7592 334.338 83.0165V83.1545H345.286ZM354.768 74.0465H360.564V76.8065C361.238 75.8558 362.112 75.1045 363.186 74.5525C364.259 73.9698 365.332 73.6785 366.406 73.6785H369.166C371.619 73.6785 373.582 74.4452 375.054 75.9785C376.556 77.5118 377.308 79.5358 377.308 82.0505V97.0005H371.052V82.2805C371.052 81.3298 370.791 80.5632 370.27 79.9805C369.779 79.3978 369.135 79.1065 368.338 79.1065H365.578C364.504 79.1065 363.538 79.5052 362.68 80.3025C361.852 81.0692 361.3 82.0812 361.024 83.3385V97.0005H354.768V74.0465ZM391.458 97.0005C388.759 97.0005 386.781 96.3872 385.524 95.1605C384.266 93.9338 383.638 92.0325 383.638 89.4565V79.3825H379.59V74.0465H383.822V67.1005H389.894V74.0465H395.874V79.3825H389.894V89.1805C389.894 90.0392 390.047 90.6678 390.354 91.0665C390.691 91.4652 391.212 91.6645 391.918 91.6645H395.874V97.0005H391.458ZM407.249 97.3685C404.459 97.3685 402.22 96.6325 400.533 95.1605C398.847 93.6885 398.003 91.7565 398.003 89.3645H404.167C404.167 90.1925 404.443 90.8672 404.995 91.3885C405.578 91.8792 406.329 92.1245 407.249 92.1245H411.389C413.229 92.1245 414.149 91.6185 414.149 90.6065V89.8245C414.149 89.5178 413.996 89.2418 413.689 88.9965C413.383 88.7205 412.969 88.5365 412.447 88.4445L404.489 87.0645C402.619 86.7578 401.131 86.0985 400.027 85.0865C398.954 84.0438 398.417 82.8325 398.417 81.4525V79.9345C398.417 77.9718 399.215 76.4385 400.809 75.3345C402.435 74.2305 404.689 73.6785 407.571 73.6785H411.159C413.735 73.6785 415.805 74.3685 417.369 75.7485C418.964 77.0978 419.761 78.8918 419.761 81.1305H413.597C413.597 80.4558 413.367 79.9192 412.907 79.5205C412.478 79.1218 411.895 78.9225 411.159 78.9225H407.663C405.67 78.9225 404.673 79.3825 404.673 80.3025V81.0385C404.673 81.3758 404.796 81.6672 405.041 81.9125C405.317 82.1272 405.701 82.2805 406.191 82.3725L414.563 83.8905C416.311 84.1972 417.722 84.8565 418.795 85.8685C419.869 86.8498 420.405 87.9692 420.405 89.2265V90.8825C420.405 92.8758 419.577 94.4552 417.921 95.6205C416.296 96.7858 414.119 97.3685 411.389 97.3685H407.249Z" fill="#093BAA"/>
</svg>
