<svg width="284" height="143" viewBox="0 0 284 143" fill="none" xmlns="http://www.w3.org/2000/svg">
<rect x="74" y="-0.0100098" width="136" height="29" rx="14.5" fill="#E6EBF4"/>
<path d="M87.0306 10.59H92.8026V11.598H88.1706V14.394H92.3586V15.402H88.1706V18.99H87.0306V10.59ZM94.9621 18.99C94.6821 18.99 94.4581 18.91 94.2901 18.75C94.1301 18.59 94.0501 18.37 94.0501 18.09V10.59H99.9421V11.586H95.1901V14.202H99.5821V15.186H95.1901V17.994H99.9421V18.99H94.9621ZM106.175 16.782H102.671L101.855 18.99H100.667L103.919 10.59H104.435C104.779 10.59 105.023 10.778 105.167 11.154L108.179 18.99H107.003L106.175 16.782ZM103.007 15.822H105.839L104.435 12.03H104.423L103.007 15.822ZM110.13 11.586H107.466V10.59H113.934V11.586H111.27V18.99H110.13V11.586ZM117.785 19.086C117.241 19.086 116.761 18.97 116.345 18.738C115.937 18.498 115.621 18.162 115.397 17.73C115.173 17.298 115.061 16.802 115.061 16.242V10.59H116.201V16.242C116.201 16.786 116.345 17.226 116.633 17.562C116.929 17.898 117.313 18.066 117.785 18.066H119.069C119.541 18.066 119.921 17.898 120.209 17.562C120.505 17.226 120.653 16.786 120.653 16.242V10.59H121.793V16.242C121.793 16.802 121.681 17.298 121.457 17.73C121.233 18.162 120.913 18.498 120.497 18.738C120.089 18.97 119.613 19.086 119.069 19.086H117.785ZM123.523 10.59H127.735C128.383 10.59 128.903 10.774 129.295 11.142C129.695 11.502 129.895 11.978 129.895 12.57V13.434C129.895 13.85 129.763 14.218 129.499 14.538C129.243 14.858 128.891 15.09 128.443 15.234V15.246C128.915 15.526 129.267 16.038 129.499 16.782L130.159 18.99H128.983L128.335 16.83C128.223 16.454 128.043 16.158 127.795 15.942C127.555 15.726 127.279 15.618 126.967 15.618H124.663V18.99H123.523V10.59ZM127.423 14.61C127.823 14.61 128.143 14.502 128.383 14.286C128.631 14.07 128.755 13.786 128.755 13.434V12.558C128.755 12.27 128.659 12.038 128.467 11.862C128.275 11.686 128.023 11.598 127.711 11.598H124.663V14.61H127.423ZM132.345 18.99C132.065 18.99 131.841 18.91 131.673 18.75C131.513 18.59 131.433 18.37 131.433 18.09V10.59H137.325V11.586H132.573V14.202H136.965V15.186H132.573V17.994H137.325V18.99H132.345ZM139.657 18.99C139.377 18.99 139.153 18.91 138.985 18.75C138.825 18.59 138.745 18.37 138.745 18.09V10.59H142.405C143.013 10.59 143.545 10.706 144.001 10.938C144.465 11.17 144.821 11.502 145.069 11.934C145.325 12.358 145.453 12.846 145.453 13.398V15.942C145.453 16.942 145.197 17.702 144.685 18.222C144.181 18.734 143.437 18.99 142.453 18.99H139.657ZM142.417 17.97C143.041 17.97 143.513 17.798 143.833 17.454C144.153 17.11 144.313 16.598 144.313 15.918V13.422C144.313 12.878 144.133 12.442 143.773 12.114C143.421 11.778 142.953 11.61 142.369 11.61H139.885V17.97H142.417ZM152.427 19.086C151.651 19.086 151.031 18.854 150.567 18.39C150.103 17.926 149.871 17.302 149.871 16.518H150.987C150.987 16.99 151.119 17.366 151.383 17.646C151.655 17.926 152.011 18.066 152.451 18.066H153.783C154.223 18.066 154.575 17.974 154.839 17.79C155.103 17.598 155.235 17.346 155.235 17.034V16.386C155.235 16.138 155.139 15.93 154.947 15.762C154.763 15.594 154.499 15.482 154.155 15.426L151.971 15.066C151.331 14.962 150.835 14.742 150.483 14.406C150.139 14.07 149.967 13.65 149.967 13.146V12.486C149.967 11.886 150.195 11.406 150.651 11.046C151.115 10.678 151.723 10.494 152.475 10.494H153.831C154.303 10.494 154.719 10.594 155.079 10.794C155.447 10.986 155.731 11.262 155.931 11.622C156.131 11.974 156.231 12.382 156.231 12.846H155.103C155.103 12.446 154.987 12.126 154.755 11.886C154.523 11.638 154.215 11.514 153.831 11.514H152.475C152.067 11.514 151.735 11.606 151.479 11.79C151.231 11.966 151.107 12.21 151.107 12.522V13.062C151.107 13.318 151.195 13.53 151.371 13.698C151.555 13.866 151.815 13.982 152.151 14.046L154.311 14.418C154.975 14.53 155.483 14.75 155.835 15.078C156.195 15.398 156.375 15.802 156.375 16.29V17.07C156.375 17.678 156.139 18.166 155.667 18.534C155.203 18.902 154.583 19.086 153.807 19.086H152.427ZM159.677 11.586H157.013V10.59H163.481V11.586H160.817V18.99H159.677V11.586ZM166.969 19.086C166.385 19.086 165.869 18.958 165.421 18.702C164.981 18.446 164.637 18.086 164.389 17.622C164.149 17.158 164.029 16.618 164.029 16.002V13.578C164.029 12.962 164.149 12.422 164.389 11.958C164.637 11.494 164.985 11.134 165.433 10.878C165.881 10.622 166.397 10.494 166.981 10.494H168.253C168.837 10.494 169.349 10.622 169.789 10.878C170.237 11.134 170.581 11.494 170.821 11.958C171.069 12.422 171.193 12.962 171.193 13.578V16.002C171.193 16.618 171.069 17.158 170.821 17.622C170.581 18.086 170.237 18.446 169.789 18.702C169.341 18.958 168.829 19.086 168.253 19.086H166.969ZM168.229 18.066C168.773 18.066 169.213 17.878 169.549 17.502C169.885 17.118 170.053 16.61 170.053 15.978V13.602C170.053 12.97 169.885 12.466 169.549 12.09C169.213 11.706 168.773 11.514 168.229 11.514H166.993C166.449 11.514 166.009 11.706 165.673 12.09C165.337 12.466 165.169 12.97 165.169 13.602V15.978C165.169 16.61 165.333 17.118 165.661 17.502C165.997 17.878 166.437 18.066 166.981 18.066H168.229ZM172.73 10.59H176.942C177.59 10.59 178.11 10.774 178.502 11.142C178.902 11.502 179.102 11.978 179.102 12.57V13.434C179.102 13.85 178.97 14.218 178.706 14.538C178.45 14.858 178.098 15.09 177.65 15.234V15.246C178.122 15.526 178.474 16.038 178.706 16.782L179.366 18.99H178.19L177.542 16.83C177.43 16.454 177.25 16.158 177.002 15.942C176.762 15.726 176.486 15.618 176.174 15.618H173.87V18.99H172.73V10.59ZM176.63 14.61C177.03 14.61 177.35 14.502 177.59 14.286C177.838 14.07 177.962 13.786 177.962 13.434V12.558C177.962 12.27 177.866 12.038 177.674 11.862C177.482 11.686 177.23 11.598 176.918 11.598H173.87V14.61H176.63ZM180.76 10.59H181.9V18.99H180.76V10.59ZM184.704 18.99C184.424 18.99 184.2 18.91 184.032 18.75C183.872 18.59 183.792 18.37 183.792 18.09V10.59H189.684V11.586H184.932V14.202H189.324V15.186H184.932V17.994H189.684V18.99H184.704ZM193.373 19.086C192.597 19.086 191.977 18.854 191.513 18.39C191.049 17.926 190.817 17.302 190.817 16.518H191.933C191.933 16.99 192.065 17.366 192.329 17.646C192.601 17.926 192.957 18.066 193.397 18.066H194.729C195.169 18.066 195.521 17.974 195.785 17.79C196.049 17.598 196.181 17.346 196.181 17.034V16.386C196.181 16.138 196.085 15.93 195.893 15.762C195.709 15.594 195.445 15.482 195.101 15.426L192.917 15.066C192.277 14.962 191.781 14.742 191.429 14.406C191.085 14.07 190.913 13.65 190.913 13.146V12.486C190.913 11.886 191.141 11.406 191.597 11.046C192.061 10.678 192.669 10.494 193.421 10.494H194.777C195.249 10.494 195.665 10.594 196.025 10.794C196.393 10.986 196.677 11.262 196.877 11.622C197.077 11.974 197.177 12.382 197.177 12.846H196.049C196.049 12.446 195.933 12.126 195.701 11.886C195.469 11.638 195.161 11.514 194.777 11.514H193.421C193.013 11.514 192.681 11.606 192.425 11.79C192.177 11.966 192.053 12.21 192.053 12.522V13.062C192.053 13.318 192.141 13.53 192.317 13.698C192.501 13.866 192.761 13.982 193.097 14.046L195.257 14.418C195.921 14.53 196.429 14.75 196.781 15.078C197.141 15.398 197.321 15.802 197.321 16.29V17.07C197.321 17.678 197.085 18.166 196.613 18.534C196.149 18.902 195.529 19.086 194.753 19.086H193.373Z" fill="#093BAA"/>
<path d="M7.89522 67.182C6.72722 67.182 5.69522 66.926 4.79922 66.414C3.91922 65.902 3.23122 65.182 2.73522 64.254C2.25522 63.326 2.01522 62.246 2.01522 61.014V56.166C2.01522 54.934 2.25522 53.854 2.73522 52.926C3.23122 51.998 3.92722 51.278 4.82322 50.766C5.71922 50.254 6.75122 49.998 7.91922 49.998H10.4632C11.6312 49.998 12.6552 50.254 13.5352 50.766C14.4312 51.278 15.1192 51.998 15.5992 52.926C16.0952 53.854 16.3432 54.934 16.3432 56.166V61.014C16.3432 62.246 16.0952 63.326 15.5992 64.254C15.1192 65.182 14.4312 65.902 13.5352 66.414C12.6392 66.926 11.6152 67.182 10.4632 67.182H7.89522ZM10.4152 65.142C11.5032 65.142 12.3832 64.766 13.0552 64.014C13.7272 63.246 14.0632 62.23 14.0632 60.966V56.214C14.0632 54.95 13.7272 53.942 13.0552 53.19C12.3832 52.422 11.5032 52.038 10.4152 52.038H7.94322C6.85522 52.038 5.97522 52.422 5.30322 53.19C4.63122 53.942 4.29522 54.95 4.29522 56.214V60.966C4.29522 62.23 4.62322 63.246 5.27922 64.014C5.95122 64.766 6.83122 65.142 7.91922 65.142H10.4152ZM23.1611 66.99C22.7771 66.99 22.4491 66.886 22.1771 66.678C21.9211 66.454 21.7051 66.11 21.5291 65.646L17.4011 55.014H19.7531L23.1611 64.47H23.2091L26.6171 55.014H28.9691L24.2651 66.99H23.1611ZM34.3267 67.182C32.9187 67.182 31.7827 66.782 30.9187 65.982C30.0707 65.166 29.6467 64.102 29.6467 62.79V59.478C29.6467 58.07 30.0707 56.942 30.9187 56.094C31.7827 55.246 32.9187 54.822 34.3267 54.822H36.2947C37.6547 54.822 38.7507 55.238 39.5827 56.07C40.4147 56.902 40.8307 58.006 40.8307 59.382V61.638H31.8787V62.79C31.8787 63.526 32.1027 64.118 32.5507 64.566C32.9987 65.014 33.5907 65.238 34.3267 65.238H36.1747C36.8947 65.238 37.4787 65.054 37.9267 64.686C38.3747 64.302 38.5987 63.798 38.5987 63.174H40.7827C40.7827 64.374 40.3587 65.342 39.5107 66.078C38.6627 66.814 37.5427 67.182 36.1507 67.182H34.3267ZM38.5987 59.862V59.382C38.5987 58.582 38.3827 57.942 37.9507 57.462C37.5347 56.982 36.9827 56.742 36.2947 56.742H34.3267C33.5907 56.742 32.9987 56.998 32.5507 57.51C32.1027 58.006 31.8787 58.67 31.8787 59.502V59.862H38.5987ZM43.0998 55.014H45.2358V56.766C45.5558 56.238 46.0198 55.806 46.6278 55.47C47.2518 55.134 47.8998 54.966 48.5718 54.966H49.8198V56.958H48.5718C47.5958 56.958 46.8118 57.262 46.2198 57.87C45.6278 58.462 45.3318 59.246 45.3318 60.222V66.99H43.0998V55.014ZM227.748 50.19H229.98V56.526C230.348 56.014 230.812 55.606 231.372 55.302C231.932 54.982 232.484 54.822 233.028 54.822H234.66C235.812 54.822 236.74 55.206 237.444 55.974C238.164 56.742 238.524 57.75 238.524 58.998V66.99H236.292V58.998C236.292 58.342 236.124 57.814 235.788 57.414C235.452 56.998 235.012 56.79 234.468 56.79H232.932C232.244 56.79 231.62 57.054 231.06 57.582C230.5 58.094 230.14 58.766 229.98 59.598V66.99H227.748V50.19ZM244.836 67.182C243.636 67.182 242.676 66.878 241.956 66.27C241.236 65.646 240.876 64.822 240.876 63.798V63.006C240.876 61.998 241.252 61.19 242.004 60.582C242.756 59.958 243.74 59.646 244.956 59.646H246.468C246.948 59.646 247.46 59.718 248.004 59.862C248.548 60.006 249.012 60.206 249.396 60.462V58.71C249.396 58.118 249.212 57.646 248.844 57.294C248.476 56.926 247.996 56.742 247.404 56.742H245.436C244.828 56.742 244.34 56.886 243.972 57.174C243.604 57.462 243.42 57.838 243.42 58.302H241.212C241.212 57.262 241.596 56.422 242.364 55.782C243.148 55.142 244.172 54.822 245.436 54.822H247.404C248.668 54.822 249.684 55.182 250.452 55.902C251.22 56.606 251.604 57.542 251.604 58.71V66.99H249.516V65.382C249.148 65.926 248.668 66.366 248.076 66.702C247.484 67.022 246.884 67.182 246.276 67.182H244.836ZM246.396 65.334C247.1 65.334 247.724 65.134 248.268 64.734C248.812 64.318 249.188 63.766 249.396 63.078V62.358C249.092 62.086 248.676 61.87 248.148 61.71C247.62 61.55 247.076 61.47 246.516 61.47H244.98C244.42 61.47 243.964 61.614 243.612 61.902C243.26 62.19 243.084 62.574 243.084 63.054V63.774C243.084 64.254 243.252 64.638 243.588 64.926C243.94 65.198 244.404 65.334 244.98 65.334H246.396ZM258.577 66.99C258.193 66.99 257.865 66.886 257.593 66.678C257.337 66.454 257.121 66.11 256.945 65.646L252.817 55.014H255.169L258.577 64.47H258.625L262.033 55.014H264.385L259.681 66.99H258.577ZM269.742 67.182C268.334 67.182 267.198 66.782 266.334 65.982C265.486 65.166 265.062 64.102 265.062 62.79V59.478C265.062 58.07 265.486 56.942 266.334 56.094C267.198 55.246 268.334 54.822 269.742 54.822H271.71C273.07 54.822 274.166 55.238 274.998 56.07C275.83 56.902 276.246 58.006 276.246 59.382V61.638H267.294V62.79C267.294 63.526 267.518 64.118 267.966 64.566C268.414 65.014 269.006 65.238 269.742 65.238H271.59C272.31 65.238 272.894 65.054 273.342 64.686C273.79 64.302 274.014 63.798 274.014 63.174H276.198C276.198 64.374 275.774 65.342 274.926 66.078C274.078 66.814 272.958 67.182 271.566 67.182H269.742ZM274.014 59.862V59.382C274.014 58.582 273.798 57.942 273.366 57.462C272.95 56.982 272.398 56.742 271.71 56.742H269.742C269.006 56.742 268.414 56.998 267.966 57.51C267.518 58.006 267.294 58.67 267.294 59.502V59.862H274.014ZM9.12785 101.182C8.59985 101.182 8.05585 101.022 7.49585 100.702C6.93585 100.366 6.49585 99.95 6.17585 99.454V100.99H4.03985V84.19H6.27185V90.262C6.62385 89.83 7.06385 89.486 7.59185 89.23C8.11985 88.958 8.64785 88.822 9.17585 88.822H10.8798C11.7278 88.822 12.4798 89.014 13.1358 89.398C13.8078 89.782 14.3278 90.318 14.6958 91.006C15.0638 91.694 15.2478 92.494 15.2478 93.406V96.382C15.2478 97.326 15.0558 98.166 14.6718 98.902C14.3038 99.622 13.7838 100.182 13.1118 100.582C12.4398 100.982 11.6638 101.182 10.7838 101.182H9.12785ZM10.6398 99.214C11.3438 99.214 11.9118 98.95 12.3438 98.422C12.7758 97.878 12.9918 97.166 12.9918 96.286V93.478C12.9918 92.678 12.7758 92.03 12.3438 91.534C11.9278 91.038 11.3838 90.79 10.7118 90.79H9.15185C8.38385 90.79 7.72785 91.07 7.18385 91.63C6.63985 92.19 6.33585 92.918 6.27185 93.814V96.454C6.33585 97.222 6.63985 97.878 7.18385 98.422C7.72785 98.95 8.34385 99.214 9.03185 99.214H10.6398ZM21.8458 101.182C20.4378 101.182 19.3018 100.782 18.4378 99.982C17.5898 99.166 17.1658 98.102 17.1658 96.79V93.478C17.1658 92.07 17.5898 90.942 18.4378 90.094C19.3018 89.246 20.4378 88.822 21.8458 88.822H23.8138C25.1738 88.822 26.2698 89.238 27.1018 90.07C27.9338 90.902 28.3498 92.006 28.3498 93.382V95.638H19.3978V96.79C19.3978 97.526 19.6218 98.118 20.0698 98.566C20.5178 99.014 21.1098 99.238 21.8458 99.238H23.6938C24.4138 99.238 24.9978 99.054 25.4458 98.686C25.8938 98.302 26.1178 97.798 26.1178 97.174H28.3018C28.3018 98.374 27.8778 99.342 27.0298 100.078C26.1818 100.814 25.0618 101.182 23.6698 101.182H21.8458ZM26.1178 93.862V93.382C26.1178 92.582 25.9018 91.942 25.4698 91.462C25.0538 90.982 24.5018 90.742 23.8138 90.742H21.8458C21.1098 90.742 20.5178 90.998 20.0698 91.51C19.6218 92.006 19.3978 92.67 19.3978 93.502V93.862H26.1178ZM30.6189 89.014H32.7549V90.67C33.1069 90.126 33.5709 89.686 34.1469 89.35C34.7389 88.998 35.3229 88.822 35.8989 88.822H37.4829C38.6349 88.822 39.5629 89.206 40.2669 89.974C40.9869 90.742 41.3469 91.75 41.3469 92.998V100.99H39.1149V92.998C39.1149 92.342 38.9469 91.814 38.6109 91.414C38.2749 90.998 37.8349 90.79 37.2909 90.79H35.8029C35.1149 90.79 34.4909 91.054 33.9309 91.582C33.3709 92.11 33.0109 92.798 32.8509 93.646V100.99H30.6189V89.014ZM48.2842 101.182C46.8762 101.182 45.7402 100.782 44.8762 99.982C44.0282 99.166 43.6042 98.102 43.6042 96.79V93.478C43.6042 92.07 44.0282 90.942 44.8762 90.094C45.7402 89.246 46.8762 88.822 48.2842 88.822H50.2522C51.6122 88.822 52.7082 89.238 53.5402 90.07C54.3722 90.902 54.7882 92.006 54.7882 93.382V95.638H45.8362V96.79C45.8362 97.526 46.0602 98.118 46.5082 98.566C46.9562 99.014 47.5482 99.238 48.2842 99.238H50.1322C50.8522 99.238 51.4362 99.054 51.8842 98.686C52.3322 98.302 52.5562 97.798 52.5562 97.174H54.7402C54.7402 98.374 54.3162 99.342 53.4682 100.078C52.6202 100.814 51.5002 101.182 50.1082 101.182H48.2842ZM52.5562 93.862V93.382C52.5562 92.582 52.3402 91.942 51.9082 91.462C51.4922 90.982 50.9402 90.742 50.2522 90.742H48.2842C47.5482 90.742 46.9562 90.998 46.5082 91.51C46.0602 92.006 45.8362 92.67 45.8362 93.502V93.862H52.5562ZM67.4973 100.99H65.2654V90.934H60.4654V100.99H58.2333V90.934H56.1693V88.99H58.2333V88.126C58.2333 86.814 58.5933 85.814 59.3133 85.126C60.0333 84.438 61.0733 84.094 62.4333 84.094H65.6974V86.014H62.4333C61.7613 86.014 61.2653 86.19 60.9454 86.542C60.6254 86.878 60.4654 87.414 60.4654 88.15V88.99H67.4973V100.99ZM75.254 100.99C73.942 100.99 72.99 100.702 72.398 100.126C71.822 99.55 71.534 98.622 71.534 97.342V90.958H69.422V89.014H71.558V85.39H73.766V89.014H76.886V90.958H73.766V97.294C73.766 97.918 73.886 98.366 74.126 98.638C74.382 98.91 74.79 99.046 75.35 99.046H76.886V100.99H75.254ZM83.102 101.182C81.694 101.182 80.558 100.782 79.694 99.982C78.846 99.166 78.422 98.102 78.422 96.79V93.478C78.422 92.07 78.846 90.942 79.694 90.094C80.558 89.246 81.694 88.822 83.102 88.822H85.07C86.43 88.822 87.526 89.238 88.358 90.07C89.19 90.902 89.606 92.006 89.606 93.382V95.638H80.654V96.79C80.654 97.526 80.878 98.118 81.326 98.566C81.774 99.014 82.366 99.238 83.102 99.238H84.95C85.67 99.238 86.254 99.054 86.702 98.686C87.15 98.302 87.374 97.798 87.374 97.174H89.558C89.558 98.374 89.134 99.342 88.286 100.078C87.438 100.814 86.318 101.182 84.926 101.182H83.102ZM87.374 93.862V93.382C87.374 92.582 87.158 91.942 86.726 91.462C86.31 90.982 85.758 90.742 85.07 90.742H83.102C82.366 90.742 81.774 90.998 81.326 91.51C80.878 92.006 80.654 92.67 80.654 93.502V93.862H87.374ZM95.7872 101.182C94.4752 101.182 93.4112 100.758 92.5952 99.91C91.7952 99.062 91.3952 97.942 91.3952 96.55V93.718C91.3952 92.758 91.5872 91.91 91.9712 91.174C92.3552 90.422 92.8912 89.846 93.5792 89.446C94.2832 89.03 95.0912 88.822 96.0032 88.822H97.6352C98.1472 88.822 98.6512 88.942 99.1472 89.182C99.6432 89.422 100.043 89.742 100.347 90.142V84.19H102.603V100.99H100.467V99.286C100.115 99.846 99.6512 100.302 99.0752 100.654C98.4992 101.006 97.9232 101.182 97.3472 101.182H95.7872ZM97.4432 99.214C98.1952 99.214 98.8512 98.91 99.4112 98.302C99.9712 97.678 100.283 96.942 100.347 96.094V93.382C100.235 92.598 99.9392 91.974 99.4592 91.51C98.9952 91.03 98.4352 90.79 97.7792 90.79H96.1712C95.4192 90.79 94.8032 91.07 94.3232 91.63C93.8592 92.174 93.6272 92.902 93.6272 93.814V96.478C93.6272 97.294 93.8432 97.958 94.2752 98.47C94.7232 98.966 95.2832 99.214 95.9552 99.214H97.4432ZM112.622 90.958H110.558V89.014H112.622V88.126C112.622 86.814 112.982 85.814 113.702 85.126C114.422 84.438 115.462 84.094 116.822 84.094H117.998V86.014H116.822C116.15 86.014 115.654 86.19 115.334 86.542C115.014 86.878 114.854 87.414 114.854 88.15V89.014H117.734V90.958H114.854V100.99H112.622V90.958ZM119.755 89.014H121.891V90.766C122.211 90.238 122.675 89.806 123.283 89.47C123.907 89.134 124.555 88.966 125.227 88.966H126.475V90.958H125.227C124.251 90.958 123.467 91.262 122.875 91.87C122.283 92.462 121.987 93.246 121.987 94.222V100.99H119.755V89.014ZM131.843 101.182C130.435 101.182 129.299 100.758 128.435 99.91C127.587 99.062 127.163 97.95 127.163 96.574V93.454C127.163 92.062 127.595 90.942 128.459 90.094C129.323 89.246 130.467 88.822 131.891 88.822H133.907C135.331 88.822 136.475 89.246 137.339 90.094C138.203 90.942 138.635 92.062 138.635 93.454V96.574C138.635 97.95 138.195 99.062 137.315 99.91C136.451 100.758 135.307 101.182 133.883 101.182H131.843ZM133.859 99.214C134.627 99.214 135.243 98.966 135.707 98.47C136.171 97.974 136.403 97.31 136.403 96.478V93.526C136.403 92.694 136.171 92.03 135.707 91.534C135.259 91.038 134.659 90.79 133.907 90.79H131.891C131.139 90.79 130.531 91.038 130.067 91.534C129.619 92.03 129.395 92.694 129.395 93.526V96.478C129.395 97.31 129.619 97.974 130.067 98.47C130.515 98.966 131.115 99.214 131.867 99.214H133.859ZM154.358 88.822C155.462 88.822 156.342 89.182 156.998 89.902C157.654 90.606 157.982 91.574 157.982 92.806V100.99H155.75V92.782C155.75 92.174 155.606 91.694 155.318 91.342C155.03 90.974 154.654 90.79 154.19 90.79H152.942C152.334 90.79 151.822 91.006 151.406 91.438C151.006 91.854 150.75 92.43 150.638 93.166V100.99H148.382V92.878C148.382 92.222 148.246 91.71 147.974 91.342C147.718 90.974 147.366 90.79 146.918 90.79H145.694C145.086 90.79 144.558 91.054 144.11 91.582C143.662 92.094 143.382 92.774 143.27 93.622V100.99H141.038V89.014H143.174V90.622C143.494 90.062 143.886 89.622 144.35 89.302C144.83 88.982 145.318 88.822 145.814 88.822H147.206C147.846 88.822 148.398 88.982 148.862 89.302C149.342 89.622 149.718 90.078 149.99 90.67C150.342 90.062 150.774 89.606 151.286 89.302C151.798 88.982 152.35 88.822 152.942 88.822H154.358ZM170.903 86.182H165.575V84.19H178.511V86.182H173.183V100.99H170.903V86.182ZM181.212 87.43C180.748 87.43 180.372 87.294 180.084 87.022C179.796 86.734 179.652 86.366 179.652 85.918C179.652 85.47 179.796 85.11 180.084 84.838C180.372 84.55 180.748 84.406 181.212 84.406C181.676 84.406 182.044 84.55 182.316 84.838C182.604 85.11 182.748 85.47 182.748 85.918C182.748 86.366 182.604 86.734 182.316 87.022C182.044 87.294 181.676 87.43 181.212 87.43ZM180.084 89.014H182.316V100.99H180.084V89.014ZM198.938 88.822C200.042 88.822 200.922 89.182 201.578 89.902C202.234 90.606 202.562 91.574 202.562 92.806V100.99H200.33V92.782C200.33 92.174 200.186 91.694 199.898 91.342C199.61 90.974 199.234 90.79 198.77 90.79H197.522C196.914 90.79 196.402 91.006 195.986 91.438C195.586 91.854 195.33 92.43 195.218 93.166V100.99H192.962V92.878C192.962 92.222 192.826 91.71 192.554 91.342C192.298 90.974 191.946 90.79 191.498 90.79H190.274C189.666 90.79 189.138 91.054 188.69 91.582C188.242 92.094 187.962 92.774 187.85 93.622V100.99H185.618V89.014H187.754V90.622C188.074 90.062 188.466 89.622 188.93 89.302C189.41 88.982 189.898 88.822 190.394 88.822H191.786C192.426 88.822 192.978 88.982 193.442 89.302C193.922 89.622 194.298 90.078 194.57 90.67C194.922 90.062 195.354 89.606 195.866 89.302C196.378 88.982 196.93 88.822 197.522 88.822H198.938ZM209.494 101.182C208.086 101.182 206.95 100.782 206.086 99.982C205.238 99.166 204.814 98.102 204.814 96.79V93.478C204.814 92.07 205.238 90.942 206.086 90.094C206.95 89.246 208.086 88.822 209.494 88.822H211.462C212.822 88.822 213.918 89.238 214.75 90.07C215.582 90.902 215.998 92.006 215.998 93.382V95.638H207.046V96.79C207.046 97.526 207.27 98.118 207.718 98.566C208.166 99.014 208.758 99.238 209.494 99.238H211.342C212.062 99.238 212.646 99.054 213.094 98.686C213.542 98.302 213.766 97.798 213.766 97.174H215.95C215.95 98.374 215.526 99.342 214.678 100.078C213.83 100.814 212.71 101.182 211.318 101.182H209.494ZM213.766 93.862V93.382C213.766 92.582 213.55 91.942 213.118 91.462C212.702 90.982 212.15 90.742 211.462 90.742H209.494C208.758 90.742 208.166 90.998 207.718 91.51C207.27 92.006 207.046 92.67 207.046 93.502V93.862H213.766ZM222.395 101.182C221.019 101.182 219.907 100.774 219.059 99.958C218.211 99.126 217.787 98.038 217.787 96.694V93.478C217.787 92.07 218.203 90.942 219.035 90.094C219.883 89.246 220.995 88.822 222.371 88.822H224.315C225.627 88.822 226.683 89.19 227.483 89.926C228.283 90.662 228.683 91.638 228.683 92.854H226.475C226.475 92.23 226.275 91.734 225.875 91.366C225.491 90.982 224.971 90.79 224.315 90.79H222.395C221.691 90.79 221.115 91.046 220.667 91.558C220.235 92.054 220.019 92.718 220.019 93.55V96.622C220.019 97.406 220.243 98.038 220.691 98.518C221.139 98.982 221.715 99.214 222.419 99.214H224.339C225.011 99.214 225.547 98.982 225.947 98.518C226.363 98.038 226.571 97.406 226.571 96.622H228.779C228.779 97.982 228.371 99.086 227.555 99.934C226.739 100.766 225.667 101.182 224.339 101.182H222.395ZM230.842 84.19H233.074V90.526C233.442 90.014 233.906 89.606 234.466 89.302C235.026 88.982 235.578 88.822 236.122 88.822H237.754C238.906 88.822 239.834 89.206 240.538 89.974C241.258 90.742 241.618 91.75 241.618 92.998V100.99H239.386V92.998C239.386 92.342 239.218 91.814 238.882 91.414C238.546 90.998 238.106 90.79 237.562 90.79H236.026C235.338 90.79 234.714 91.054 234.154 91.582C233.594 92.094 233.234 92.766 233.074 93.598V100.99H230.842V84.19ZM247.93 101.182C246.73 101.182 245.77 100.878 245.05 100.27C244.33 99.646 243.97 98.822 243.97 97.798V97.006C243.97 95.998 244.346 95.19 245.098 94.582C245.85 93.958 246.834 93.646 248.05 93.646H249.562C250.042 93.646 250.554 93.718 251.098 93.862C251.642 94.006 252.106 94.206 252.49 94.462V92.71C252.49 92.118 252.306 91.646 251.938 91.294C251.57 90.926 251.09 90.742 250.498 90.742H248.53C247.922 90.742 247.434 90.886 247.066 91.174C246.698 91.462 246.514 91.838 246.514 92.302H244.306C244.306 91.262 244.69 90.422 245.458 89.782C246.242 89.142 247.266 88.822 248.53 88.822H250.498C251.762 88.822 252.778 89.182 253.546 89.902C254.314 90.606 254.698 91.542 254.698 92.71V100.99H252.61V99.382C252.242 99.926 251.762 100.366 251.17 100.702C250.578 101.022 249.978 101.182 249.37 101.182H247.93ZM249.49 99.334C250.194 99.334 250.818 99.134 251.362 98.734C251.906 98.318 252.282 97.766 252.49 97.078V96.358C252.186 96.086 251.77 95.87 251.242 95.71C250.714 95.55 250.17 95.47 249.61 95.47H248.074C247.514 95.47 247.058 95.614 246.706 95.902C246.354 96.19 246.178 96.574 246.178 97.054V97.774C246.178 98.254 246.346 98.638 246.682 98.926C247.034 99.198 247.498 99.334 248.074 99.334H249.49ZM259.004 87.43C258.54 87.43 258.164 87.294 257.876 87.022C257.588 86.734 257.444 86.366 257.444 85.918C257.444 85.47 257.588 85.11 257.876 84.838C258.164 84.55 258.54 84.406 259.004 84.406C259.468 84.406 259.836 84.55 260.108 84.838C260.396 85.11 260.54 85.47 260.54 85.918C260.54 86.366 260.396 86.734 260.108 87.022C259.836 87.294 259.468 87.43 259.004 87.43ZM257.876 89.014H260.108V100.99H257.876V89.014ZM263.41 89.014H265.546V90.67C265.898 90.126 266.362 89.686 266.938 89.35C267.53 88.998 268.114 88.822 268.69 88.822H270.274C271.426 88.822 272.354 89.206 273.058 89.974C273.778 90.742 274.138 91.75 274.138 92.998V100.99H271.906V92.998C271.906 92.342 271.738 91.814 271.402 91.414C271.066 90.998 270.626 90.79 270.082 90.79H268.594C267.906 90.79 267.282 91.054 266.722 91.582C266.162 92.11 265.802 92.798 265.642 93.646V100.99H263.41V89.014ZM54.9766 130.574H47.9686L46.3366 134.99H43.9606L50.4646 118.19H51.4966C52.1846 118.19 52.6726 118.566 52.9606 119.318L58.9846 134.99H56.6326L54.9766 130.574ZM48.6406 128.654H54.3046L51.4966 121.07H51.4726L48.6406 128.654ZM64.3264 135.182C62.9504 135.182 61.8384 134.774 60.9904 133.958C60.1424 133.126 59.7184 132.038 59.7184 130.694V127.478C59.7184 126.07 60.1344 124.942 60.9664 124.094C61.8144 123.246 62.9264 122.822 64.3024 122.822H66.2464C67.5584 122.822 68.6144 123.19 69.4144 123.926C70.2144 124.662 70.6144 125.638 70.6144 126.854H68.4064C68.4064 126.23 68.2064 125.734 67.8064 125.366C67.4224 124.982 66.9024 124.79 66.2464 124.79H64.3264C63.6224 124.79 63.0464 125.046 62.5984 125.558C62.1664 126.054 61.9504 126.718 61.9504 127.55V130.622C61.9504 131.406 62.1744 132.038 62.6224 132.518C63.0704 132.982 63.6464 133.214 64.3504 133.214H66.2704C66.9424 133.214 67.4784 132.982 67.8784 132.518C68.2944 132.038 68.5024 131.406 68.5024 130.622H70.7104C70.7104 131.982 70.3024 133.086 69.4864 133.934C68.6704 134.766 67.5984 135.182 66.2704 135.182H64.3264ZM76.3491 135.182C75.1491 135.182 74.1891 134.878 73.4691 134.27C72.7491 133.646 72.3891 132.822 72.3891 131.798V131.006C72.3891 129.998 72.7651 129.19 73.5171 128.582C74.2691 127.958 75.2531 127.646 76.4691 127.646H77.9811C78.4611 127.646 78.9731 127.718 79.5171 127.862C80.0611 128.006 80.5251 128.206 80.9091 128.462V126.71C80.9091 126.118 80.7251 125.646 80.3571 125.294C79.9891 124.926 79.5091 124.742 78.9171 124.742H76.9491C76.3411 124.742 75.8531 124.886 75.4851 125.174C75.1171 125.462 74.9331 125.838 74.9331 126.302H72.7251C72.7251 125.262 73.1091 124.422 73.8771 123.782C74.6611 123.142 75.6851 122.822 76.9491 122.822H78.9171C80.1811 122.822 81.1971 123.182 81.9651 123.902C82.7331 124.606 83.1171 125.542 83.1171 126.71V134.99H81.0291V133.382C80.6611 133.926 80.1811 134.366 79.5891 134.702C78.9971 135.022 78.3971 135.182 77.7891 135.182H76.3491ZM77.9091 133.334C78.6131 133.334 79.2371 133.134 79.7811 132.734C80.3251 132.318 80.7011 131.766 80.9091 131.078V130.358C80.6051 130.086 80.1891 129.87 79.6611 129.71C79.1331 129.55 78.5891 129.47 78.0291 129.47H76.4931C75.9331 129.47 75.4771 129.614 75.1251 129.902C74.7731 130.19 74.5971 130.574 74.5971 131.054V131.774C74.5971 132.254 74.7651 132.638 75.1011 132.926C75.4531 133.198 75.9171 133.334 76.4931 133.334H77.9091ZM89.7754 135.182C88.4634 135.182 87.3994 134.758 86.5834 133.91C85.7834 133.062 85.3834 131.942 85.3834 130.55V127.718C85.3834 126.758 85.5754 125.91 85.9594 125.174C86.3434 124.422 86.8794 123.846 87.5674 123.446C88.2714 123.03 89.0794 122.822 89.9914 122.822H91.6234C92.1354 122.822 92.6394 122.942 93.1354 123.182C93.6314 123.422 94.0314 123.742 94.3354 124.142V118.19H96.5914V134.99H94.4554V133.286C94.1034 133.846 93.6394 134.302 93.0634 134.654C92.4874 135.006 91.9114 135.182 91.3354 135.182H89.7754ZM91.4314 133.214C92.1834 133.214 92.8394 132.91 93.3994 132.302C93.9594 131.678 94.2714 130.942 94.3354 130.094V127.382C94.2234 126.598 93.9274 125.974 93.4474 125.51C92.9834 125.03 92.4234 124.79 91.7674 124.79H90.1594C89.4074 124.79 88.7914 125.07 88.3114 125.63C87.8474 126.174 87.6154 126.902 87.6154 127.814V130.478C87.6154 131.294 87.8314 131.958 88.2634 132.47C88.7114 132.966 89.2714 133.214 89.9434 133.214H91.4314ZM103.669 135.182C102.261 135.182 101.125 134.782 100.261 133.982C99.4134 133.166 98.9894 132.102 98.9894 130.79V127.478C98.9894 126.07 99.4134 124.942 100.261 124.094C101.125 123.246 102.261 122.822 103.669 122.822H105.637C106.997 122.822 108.093 123.238 108.925 124.07C109.757 124.902 110.173 126.006 110.173 127.382V129.638H101.221V130.79C101.221 131.526 101.445 132.118 101.893 132.566C102.341 133.014 102.933 133.238 103.669 133.238H105.517C106.237 133.238 106.821 133.054 107.269 132.686C107.717 132.302 107.941 131.798 107.941 131.174H110.125C110.125 132.374 109.701 133.342 108.853 134.078C108.005 134.814 106.885 135.182 105.493 135.182H103.669ZM107.941 127.862V127.382C107.941 126.582 107.725 125.942 107.293 125.462C106.877 124.982 106.325 124.742 105.637 124.742H103.669C102.933 124.742 102.341 124.998 101.893 125.51C101.445 126.006 101.221 126.67 101.221 127.502V127.862H107.941ZM125.762 122.822C126.866 122.822 127.746 123.182 128.402 123.902C129.058 124.606 129.386 125.574 129.386 126.806V134.99H127.154V126.782C127.154 126.174 127.01 125.694 126.722 125.342C126.434 124.974 126.058 124.79 125.594 124.79H124.346C123.738 124.79 123.226 125.006 122.81 125.438C122.41 125.854 122.154 126.43 122.042 127.166V134.99H119.786V126.878C119.786 126.222 119.65 125.71 119.378 125.342C119.122 124.974 118.77 124.79 118.322 124.79H117.098C116.49 124.79 115.962 125.054 115.514 125.582C115.066 126.094 114.786 126.774 114.674 127.622V134.99H112.442V123.014H114.578V124.622C114.898 124.062 115.29 123.622 115.754 123.302C116.234 122.982 116.722 122.822 117.218 122.822H118.61C119.25 122.822 119.802 122.982 120.266 123.302C120.746 123.622 121.122 124.078 121.394 124.67C121.746 124.062 122.178 123.606 122.69 123.302C123.202 122.982 123.754 122.822 124.346 122.822H125.762ZM136.247 139.862C135.111 139.862 134.167 139.55 133.415 138.926C132.679 138.302 132.271 137.486 132.191 136.478H134.423C134.471 136.91 134.663 137.262 134.999 137.534C135.335 137.806 135.751 137.942 136.247 137.942H138.143C138.863 137.942 139.423 137.686 139.823 137.174C140.239 136.678 140.447 135.99 140.447 135.11V133.118C140.079 133.678 139.623 134.126 139.079 134.462C138.535 134.798 137.991 134.966 137.447 134.966H135.887C134.719 134.966 133.775 134.574 133.055 133.79C132.335 133.006 131.975 131.974 131.975 130.694V123.014H134.207V130.742C134.207 131.414 134.375 131.958 134.711 132.374C135.063 132.79 135.511 132.998 136.055 132.998H137.519C138.191 132.998 138.799 132.726 139.343 132.182C139.903 131.638 140.271 130.95 140.447 130.118V123.014H142.703V135.11C142.703 136.582 142.295 137.742 141.479 138.59C140.663 139.438 139.551 139.862 138.143 139.862H136.247ZM155.677 135.182C154.301 135.182 153.189 134.774 152.341 133.958C151.493 133.126 151.069 132.038 151.069 130.694V127.478C151.069 126.07 151.485 124.942 152.317 124.094C153.165 123.246 154.277 122.822 155.653 122.822H157.597C158.909 122.822 159.965 123.19 160.765 123.926C161.565 124.662 161.965 125.638 161.965 126.854H159.757C159.757 126.23 159.557 125.734 159.157 125.366C158.773 124.982 158.253 124.79 157.597 124.79H155.677C154.973 124.79 154.397 125.046 153.949 125.558C153.517 126.054 153.301 126.718 153.301 127.55V130.622C153.301 131.406 153.525 132.038 153.973 132.518C154.421 132.982 154.997 133.214 155.701 133.214H157.621C158.293 133.214 158.829 132.982 159.229 132.518C159.645 132.038 159.853 131.406 159.853 130.622H162.061C162.061 131.982 161.653 133.086 160.837 133.934C160.021 134.766 158.949 135.182 157.621 135.182H155.677ZM168.324 135.182C166.916 135.182 165.78 134.758 164.916 133.91C164.068 133.062 163.644 131.95 163.644 130.574V127.454C163.644 126.062 164.076 124.942 164.94 124.094C165.804 123.246 166.948 122.822 168.372 122.822H170.388C171.812 122.822 172.956 123.246 173.82 124.094C174.684 124.942 175.116 126.062 175.116 127.454V130.574C175.116 131.95 174.676 133.062 173.796 133.91C172.932 134.758 171.788 135.182 170.364 135.182H168.324ZM170.34 133.214C171.108 133.214 171.724 132.966 172.188 132.47C172.652 131.974 172.884 131.31 172.884 130.478V127.526C172.884 126.694 172.652 126.03 172.188 125.534C171.74 125.038 171.14 124.79 170.388 124.79H168.372C167.62 124.79 167.012 125.038 166.548 125.534C166.1 126.03 165.876 126.694 165.876 127.526V130.478C165.876 131.31 166.1 131.974 166.548 132.47C166.996 132.966 167.596 133.214 168.348 133.214H170.34ZM181.263 135.182C180.095 135.182 179.151 134.79 178.431 134.006C177.727 133.222 177.375 132.19 177.375 130.91V123.014H179.607V130.958C179.607 131.63 179.775 132.174 180.111 132.59C180.447 133.006 180.887 133.214 181.431 133.214H182.871C183.543 133.214 184.159 132.942 184.719 132.398C185.279 131.854 185.647 131.166 185.823 130.334V123.014H188.055V134.99H185.943V133.262C185.559 133.822 185.079 134.286 184.503 134.654C183.927 135.006 183.359 135.182 182.799 135.182H181.263ZM190.938 123.014H193.074V124.766C193.394 124.238 193.858 123.806 194.466 123.47C195.09 123.134 195.738 122.966 196.41 122.966H197.658V124.958H196.41C195.434 124.958 194.65 125.262 194.058 125.87C193.466 126.462 193.17 127.246 193.17 128.222V134.99H190.938V123.014ZM202.896 135.182C201.6 135.182 200.56 134.83 199.776 134.126C198.992 133.406 198.6 132.462 198.6 131.294H200.784C200.784 131.886 200.976 132.366 201.36 132.734C201.744 133.102 202.256 133.286 202.896 133.286H205.008C205.616 133.286 206.104 133.174 206.472 132.95C206.84 132.71 207.024 132.398 207.024 132.014V131.318C207.024 131.062 206.912 130.838 206.688 130.646C206.48 130.438 206.208 130.302 205.872 130.238L201.72 129.518C200.84 129.358 200.136 129.03 199.608 128.534C199.08 128.022 198.816 127.43 198.816 126.758V125.966C198.816 125.022 199.192 124.262 199.944 123.686C200.696 123.11 201.704 122.822 202.968 122.822H204.984C206.184 122.822 207.144 123.15 207.864 123.806C208.6 124.462 208.968 125.334 208.968 126.422H206.784C206.768 125.91 206.592 125.502 206.256 125.198C205.936 124.878 205.512 124.718 204.984 124.718H202.992C202.4 124.718 201.928 124.838 201.576 125.078C201.24 125.318 201.072 125.638 201.072 126.038V126.638C201.072 126.894 201.184 127.118 201.408 127.31C201.632 127.502 201.92 127.638 202.272 127.718L206.472 128.462C207.304 128.606 207.976 128.926 208.488 129.422C209.016 129.918 209.28 130.494 209.28 131.15V132.086C209.28 133.014 208.888 133.766 208.104 134.342C207.32 134.902 206.288 135.182 205.008 135.182H202.896ZM215.646 135.182C214.238 135.182 213.102 134.782 212.238 133.982C211.39 133.166 210.966 132.102 210.966 130.79V127.478C210.966 126.07 211.39 124.942 212.238 124.094C213.102 123.246 214.238 122.822 215.646 122.822H217.614C218.974 122.822 220.07 123.238 220.902 124.07C221.734 124.902 222.15 126.006 222.15 127.382V129.638H213.198V130.79C213.198 131.526 213.422 132.118 213.87 132.566C214.318 133.014 214.91 133.238 215.646 133.238H217.494C218.214 133.238 218.798 133.054 219.246 132.686C219.694 132.302 219.918 131.798 219.918 131.174H222.102C222.102 132.374 221.678 133.342 220.83 134.078C219.982 134.814 218.862 135.182 217.47 135.182H215.646ZM219.918 127.862V127.382C219.918 126.582 219.702 125.942 219.27 125.462C218.854 124.982 218.302 124.742 217.614 124.742H215.646C214.91 124.742 214.318 124.998 213.87 125.51C213.422 126.006 213.198 126.67 213.198 127.502V127.862H219.918ZM228.115 135.182C226.819 135.182 225.779 134.83 224.995 134.126C224.211 133.406 223.819 132.462 223.819 131.294H226.003C226.003 131.886 226.195 132.366 226.579 132.734C226.963 133.102 227.475 133.286 228.115 133.286H230.227C230.835 133.286 231.323 133.174 231.691 132.95C232.059 132.71 232.243 132.398 232.243 132.014V131.318C232.243 131.062 232.131 130.838 231.907 130.646C231.699 130.438 231.427 130.302 231.091 130.238L226.939 129.518C226.059 129.358 225.355 129.03 224.827 128.534C224.299 128.022 224.035 127.43 224.035 126.758V125.966C224.035 125.022 224.411 124.262 225.163 123.686C225.915 123.11 226.923 122.822 228.187 122.822H230.203C231.403 122.822 232.363 123.15 233.083 123.806C233.819 124.462 234.187 125.334 234.187 126.422H232.003C231.987 125.91 231.811 125.502 231.475 125.198C231.155 124.878 230.731 124.718 230.203 124.718H228.211C227.619 124.718 227.147 124.838 226.795 125.078C226.459 125.318 226.291 125.638 226.291 126.038V126.638C226.291 126.894 226.403 127.118 226.627 127.31C226.851 127.502 227.139 127.638 227.491 127.718L231.691 128.462C232.523 128.606 233.195 128.926 233.707 129.422C234.235 129.918 234.499 130.494 234.499 131.15V132.086C234.499 133.014 234.107 133.766 233.323 134.342C232.539 134.902 231.507 135.182 230.227 135.182H228.115ZM237.698 135.23C237.25 135.23 236.882 135.094 236.594 134.822C236.322 134.534 236.186 134.166 236.186 133.718C236.186 133.27 236.322 132.902 236.594 132.614C236.882 132.326 237.25 132.182 237.698 132.182C238.162 132.182 238.53 132.326 238.802 132.614C239.09 132.886 239.234 133.254 239.234 133.718C239.234 134.166 239.09 134.534 238.802 134.822C238.514 135.094 238.146 135.23 237.698 135.23Z" fill="#333333"/>
<path d="M64.7913 63.774H57.9513C57.2793 63.774 56.7593 63.63 56.3913 63.342C56.0233 63.054 55.8393 62.638 55.8393 62.094V61.422L64.7673 50.19H68.1033V60.846H70.2153V63.774H68.1033V66.99H64.7913V63.774ZM64.8873 60.99V54.342H64.8633L59.6073 60.99H64.8873ZM76.9376 67.182C75.8176 67.182 74.8256 66.942 73.9616 66.462C73.0976 65.966 72.4256 65.27 71.9456 64.374C71.4656 63.478 71.2256 62.446 71.2256 61.278V55.902C71.2256 54.734 71.4576 53.702 71.9216 52.806C72.4016 51.91 73.0736 51.222 73.9376 50.742C74.8016 50.246 75.8016 49.998 76.9376 49.998H79.4816C80.5856 49.998 81.5616 50.246 82.4096 50.742C83.2576 51.222 83.9136 51.91 84.3776 52.806C84.8576 53.702 85.0976 54.734 85.0976 55.902V61.278C85.0976 62.446 84.8656 63.478 84.4016 64.374C83.9376 65.27 83.2816 65.966 82.4336 66.462C81.5856 66.942 80.6016 67.182 79.4816 67.182H76.9376ZM79.4336 64.254C80.1376 64.254 80.6976 63.99 81.1136 63.462C81.5456 62.918 81.7616 62.206 81.7616 61.326V55.854C81.7616 54.974 81.5456 54.27 81.1136 53.742C80.6976 53.198 80.1376 52.926 79.4336 52.926H76.9856C76.2496 52.926 75.6576 53.198 75.2096 53.742C74.7616 54.27 74.5376 54.974 74.5376 55.854V61.326C74.5376 62.206 74.7616 62.918 75.2096 63.462C75.6576 63.99 76.2496 64.254 76.9856 64.254H79.4336ZM92.6295 67.182C91.5095 67.182 90.5175 66.942 89.6535 66.462C88.7895 65.966 88.1175 65.27 87.6375 64.374C87.1575 63.478 86.9175 62.446 86.9175 61.278V55.902C86.9175 54.734 87.1495 53.702 87.6135 52.806C88.0935 51.91 88.7655 51.222 89.6295 50.742C90.4935 50.246 91.4935 49.998 92.6295 49.998H95.1735C96.2775 49.998 97.2535 50.246 98.1015 50.742C98.9495 51.222 99.6055 51.91 100.069 52.806C100.549 53.702 100.789 54.734 100.789 55.902V61.278C100.789 62.446 100.557 63.478 100.093 64.374C99.6295 65.27 98.9735 65.966 98.1255 66.462C97.2775 66.942 96.2935 67.182 95.1735 67.182H92.6295ZM95.1255 64.254C95.8295 64.254 96.3895 63.99 96.8055 63.462C97.2375 62.918 97.4535 62.206 97.4535 61.326V55.854C97.4535 54.974 97.2375 54.27 96.8055 53.742C96.3895 53.198 95.8295 52.926 95.1255 52.926H92.6775C91.9415 52.926 91.3495 53.198 90.9015 53.742C90.4535 54.27 90.2295 54.974 90.2295 55.854V61.326C90.2295 62.206 90.4535 62.918 90.9015 63.462C91.3495 63.99 91.9415 64.254 92.6775 64.254H95.1255ZM106.737 60.63H102.369V57.798H106.737V53.43H110.001V57.798H114.369V60.63H110.001V64.998H106.737V60.63ZM126.88 67.182C125.424 67.182 124.256 66.798 123.376 66.03C122.496 65.262 122.056 64.254 122.056 63.006H125.272C125.272 63.438 125.416 63.79 125.704 64.062C126.008 64.318 126.4 64.446 126.88 64.446H129.04C130 64.446 130.48 64.182 130.48 63.654V63.246C130.48 63.086 130.4 62.942 130.24 62.814C130.08 62.67 129.864 62.574 129.592 62.526L125.44 61.806C124.464 61.646 123.688 61.302 123.112 60.774C122.552 60.23 122.272 59.598 122.272 58.878V58.086C122.272 57.062 122.688 56.262 123.52 55.686C124.368 55.11 125.544 54.822 127.048 54.822H128.92C130.264 54.822 131.344 55.182 132.16 55.902C132.992 56.606 133.408 57.542 133.408 58.71H130.192C130.192 58.358 130.072 58.078 129.832 57.87C129.608 57.662 129.304 57.558 128.92 57.558H127.096C126.056 57.558 125.536 57.798 125.536 58.278V58.662C125.536 58.838 125.6 58.99 125.728 59.118C125.872 59.23 126.072 59.31 126.328 59.358L130.696 60.15C131.608 60.31 132.344 60.654 132.904 61.182C133.464 61.694 133.744 62.278 133.744 62.934V63.798C133.744 64.838 133.312 65.662 132.448 66.27C131.6 66.878 130.464 67.182 129.04 67.182H126.88ZM140.415 66.99C139.007 66.99 137.975 66.67 137.319 66.03C136.663 65.39 136.335 64.398 136.335 63.054V57.798H134.223V55.014H136.431V51.39H139.599V55.014H142.719V57.798H139.599V62.91C139.599 63.358 139.679 63.686 139.839 63.894C140.015 64.102 140.287 64.206 140.655 64.206H142.719V66.99H140.415ZM148.462 67.182C147.198 67.182 146.182 66.758 145.414 65.91C144.646 65.046 144.262 63.918 144.262 62.526V55.014H147.526V62.574C147.526 63.102 147.654 63.534 147.91 63.87C148.182 64.19 148.534 64.35 148.966 64.35H150.358C150.886 64.35 151.366 64.134 151.798 63.702C152.23 63.254 152.534 62.67 152.71 61.95V55.014H155.974V66.99H152.95V65.454C152.582 65.966 152.126 66.382 151.582 66.702C151.054 67.022 150.542 67.182 150.046 67.182H148.462ZM162.542 67.182C161.118 67.182 159.966 66.75 159.086 65.886C158.222 65.022 157.79 63.886 157.79 62.478V59.742C157.79 58.766 157.998 57.91 158.414 57.174C158.83 56.422 159.414 55.846 160.166 55.446C160.918 55.03 161.79 54.822 162.782 54.822H164.102C164.566 54.822 165.038 54.926 165.518 55.134C165.998 55.326 166.398 55.59 166.718 55.926V50.19H169.982V66.99H166.958V65.406C166.638 65.934 166.206 66.366 165.662 66.702C165.118 67.022 164.55 67.182 163.958 67.182H162.542ZM164.318 64.374C164.974 64.374 165.518 64.142 165.95 63.678C166.398 63.198 166.654 62.566 166.718 61.782V59.694C166.606 59.07 166.358 58.574 165.974 58.206C165.606 57.822 165.166 57.63 164.654 57.63H163.19C162.55 57.63 162.03 57.846 161.63 58.278C161.246 58.71 161.054 59.278 161.054 59.982V62.238C161.054 62.878 161.23 63.398 161.582 63.798C161.934 64.182 162.39 64.374 162.95 64.374H164.318ZM176.93 67.182C175.922 67.182 175.026 66.998 174.242 66.63C173.474 66.246 172.874 65.718 172.442 65.046C172.01 64.358 171.794 63.574 171.794 62.694V59.598C171.794 58.654 172.01 57.822 172.442 57.102C172.874 56.382 173.474 55.822 174.242 55.422C175.026 55.022 175.922 54.822 176.93 54.822H178.85C180.386 54.822 181.618 55.254 182.546 56.118C183.474 56.982 183.938 58.134 183.938 59.574V62.118H175.058V62.694C175.058 63.222 175.226 63.646 175.562 63.966C175.898 64.286 176.354 64.446 176.93 64.446H178.802C179.362 64.446 179.81 64.326 180.146 64.086C180.498 63.83 180.674 63.502 180.674 63.102H183.89C183.89 63.902 183.674 64.614 183.242 65.238C182.81 65.862 182.202 66.342 181.418 66.678C180.65 67.014 179.762 67.182 178.754 67.182H176.93ZM180.722 59.766V59.574C180.722 58.95 180.554 58.454 180.218 58.086C179.882 57.702 179.434 57.51 178.874 57.51H176.93C176.354 57.51 175.89 57.71 175.538 58.11C175.186 58.51 175.01 59.038 175.01 59.694V59.766H180.722ZM185.669 55.014H188.693V56.454C189.045 55.958 189.501 55.566 190.061 55.278C190.621 54.974 191.181 54.822 191.741 54.822H193.181C194.461 54.822 195.485 55.222 196.253 56.022C197.037 56.822 197.429 57.878 197.429 59.19V66.99H194.165V59.31C194.165 58.814 194.029 58.414 193.757 58.11C193.501 57.806 193.165 57.654 192.749 57.654H191.309C190.749 57.654 190.245 57.862 189.797 58.278C189.365 58.678 189.077 59.206 188.933 59.862V66.99H185.669V55.014ZM204.812 66.99C203.404 66.99 202.372 66.67 201.716 66.03C201.06 65.39 200.732 64.398 200.732 63.054V57.798H198.62V55.014H200.828V51.39H203.996V55.014H207.116V57.798H203.996V62.91C203.996 63.358 204.076 63.686 204.236 63.894C204.412 64.102 204.684 64.206 205.052 64.206H207.116V66.99H204.812ZM213.051 67.182C211.595 67.182 210.427 66.798 209.547 66.03C208.667 65.262 208.227 64.254 208.227 63.006H211.443C211.443 63.438 211.587 63.79 211.875 64.062C212.179 64.318 212.571 64.446 213.051 64.446H215.211C216.171 64.446 216.651 64.182 216.651 63.654V63.246C216.651 63.086 216.571 62.942 216.411 62.814C216.251 62.67 216.035 62.574 215.763 62.526L211.611 61.806C210.635 61.646 209.859 61.302 209.283 60.774C208.723 60.23 208.443 59.598 208.443 58.878V58.086C208.443 57.062 208.859 56.262 209.691 55.686C210.539 55.11 211.715 54.822 213.219 54.822H215.091C216.435 54.822 217.515 55.182 218.331 55.902C219.163 56.606 219.579 57.542 219.579 58.71H216.363C216.363 58.358 216.243 58.078 216.003 57.87C215.779 57.662 215.475 57.558 215.091 57.558H213.267C212.227 57.558 211.707 57.798 211.707 58.278V58.662C211.707 58.838 211.771 58.99 211.899 59.118C212.043 59.23 212.243 59.31 212.499 59.358L216.867 60.15C217.779 60.31 218.515 60.654 219.075 61.182C219.635 61.694 219.915 62.278 219.915 62.934V63.798C219.915 64.838 219.483 65.662 218.619 66.27C217.771 66.878 216.635 67.182 215.211 67.182H213.051Z" fill="#093BAA"/>
</svg>
