<svg width="238" height="45" viewBox="0 0 238 45" fill="none" xmlns="http://www.w3.org/2000/svg">
<path d="M37.9917 38.1763H31.4723V27.9646C31.4723 25.53 31.4283 22.395 28.0807 22.395C24.6853 22.395 24.1647 25.0496 24.1647 27.785V38.1763H17.6453V17.1773H23.9043V20.0483H23.9923C25.2683 17.8703 27.6443 16.565 30.167 16.6566C36.7743 16.6566 37.9953 21.0016 37.9953 26.6593L37.9917 38.1726V38.1763ZM10.29 14.3063C9.28854 14.3015 8.32941 13.9018 7.62092 13.194C6.91243 12.4862 6.51178 11.5274 6.506 10.526C6.506 8.45062 8.21467 6.74196 10.29 6.74196C12.3653 6.74196 14.0703 8.45062 14.074 10.526C14.074 12.6013 12.3653 14.3063 10.29 14.3063ZM13.5497 38.1763H7.023V17.1773H13.5497V38.1763ZM41.2367 0.684625H3.745C2.89489 0.679687 2.07717 1.01044 1.46955 1.60502C0.861933 2.19959 0.51351 3.00994 0.5 3.85996V41.5093C0.51351 42.3593 0.861933 43.1697 1.46955 43.7642C2.07717 44.3588 2.89489 44.6896 3.745 44.6846H41.2403C42.0924 44.6915 42.9128 44.3619 43.5232 43.7673C44.1335 43.1727 44.4846 42.3613 44.5 41.5093V3.85629C44.4846 3.00499 44.1333 2.1943 43.5227 1.60088C42.9121 1.00747 42.0917 0.679443 41.2403 0.688291L41.2367 0.684625Z" fill="#0A66C2"/>
<path d="M53.684 6.48457H59.3C60.164 6.48457 60.8573 6.7299 61.38 7.22057C61.9133 7.70057 62.18 8.33524 62.18 9.12457V10.2766C62.18 10.8312 62.004 11.3219 61.652 11.7486C61.3107 12.1752 60.8413 12.4846 60.244 12.6766V12.6926C60.8733 13.0659 61.3427 13.7486 61.652 14.7406L62.532 17.6846H60.964L60.1 14.8046C59.9507 14.3032 59.7107 13.9086 59.38 13.6206C59.06 13.3326 58.692 13.1886 58.276 13.1886H55.204V17.6846H53.684V6.48457ZM58.884 11.8446C59.4173 11.8446 59.844 11.7006 60.164 11.4126C60.4947 11.1246 60.66 10.7459 60.66 10.2766V9.10857C60.66 8.72457 60.532 8.41524 60.276 8.18057C60.02 7.9459 59.684 7.82857 59.268 7.82857H55.204V11.8446H58.884ZM66.9669 17.8126C66.0282 17.8126 65.2709 17.5299 64.6949 16.9646C64.1295 16.3992 63.8469 15.6579 63.8469 14.7406V12.6606C63.8469 11.7326 64.1349 10.9859 64.7109 10.4206C65.2869 9.85524 66.0495 9.57257 66.9989 9.57257H68.3429C69.2922 9.57257 70.0549 9.85524 70.6309 10.4206C71.2069 10.9859 71.4949 11.7326 71.4949 12.6606V14.7406C71.4949 15.6579 71.2015 16.3992 70.6149 16.9646C70.0389 17.5299 69.2762 17.8126 68.3269 17.8126H66.9669ZM68.3109 16.5006C68.8229 16.5006 69.2335 16.3352 69.5429 16.0046C69.8522 15.6739 70.0069 15.2312 70.0069 14.6766V12.7086C70.0069 12.1539 69.8522 11.7112 69.5429 11.3806C69.2442 11.0499 68.8442 10.8846 68.3429 10.8846H66.9989C66.4975 10.8846 66.0922 11.0499 65.7829 11.3806C65.4842 11.7112 65.3349 12.1539 65.3349 12.7086V14.6766C65.3349 15.2312 65.4842 15.6739 65.7829 16.0046C66.0815 16.3352 66.4815 16.5006 66.9829 16.5006H68.3109ZM73.4169 6.48457H74.9049V10.7086C75.1502 10.3672 75.4595 10.0952 75.8329 9.89257C76.2062 9.67924 76.5742 9.57257 76.9369 9.57257H78.0249C78.7929 9.57257 79.4115 9.82857 79.8809 10.3406C80.3609 10.8526 80.6009 11.5246 80.6009 12.3566V17.6846H79.1129V12.3566C79.1129 11.9192 79.0009 11.5672 78.7769 11.3006C78.5529 11.0232 78.2595 10.8846 77.8969 10.8846H76.8729C76.4142 10.8846 75.9982 11.0606 75.6249 11.4126C75.2515 11.7539 75.0115 12.2019 74.9049 12.7566V17.6846H73.4169V6.48457ZM85.129 17.8126C84.329 17.8126 83.689 17.6099 83.209 17.2046C82.729 16.7886 82.489 16.2392 82.489 15.5566V15.0286C82.489 14.3566 82.7397 13.8179 83.241 13.4126C83.7423 12.9966 84.3983 12.7886 85.209 12.7886H86.217C86.537 12.7886 86.8783 12.8366 87.241 12.9326C87.6037 13.0286 87.913 13.1619 88.169 13.3326V12.1646C88.169 11.7699 88.0463 11.4552 87.801 11.2206C87.5557 10.9752 87.2357 10.8526 86.841 10.8526H85.529C85.1237 10.8526 84.7983 10.9486 84.553 11.1406C84.3077 11.3326 84.185 11.5832 84.185 11.8926H82.713C82.713 11.1992 82.969 10.6392 83.481 10.2126C84.0037 9.7859 84.6863 9.57257 85.529 9.57257H86.841C87.6837 9.57257 88.361 9.81257 88.873 10.2926C89.385 10.7619 89.641 11.3859 89.641 12.1646V17.6846H88.249V16.6126C88.0037 16.9752 87.6837 17.2686 87.289 17.4926C86.8943 17.7059 86.4943 17.8126 86.089 17.8126H85.129ZM86.169 16.5806C86.6383 16.5806 87.0543 16.4472 87.417 16.1806C87.7797 15.9032 88.0303 15.5352 88.169 15.0766V14.5966C87.9663 14.4152 87.689 14.2712 87.337 14.1646C86.985 14.0579 86.6223 14.0046 86.249 14.0046H85.225C84.8517 14.0046 84.5477 14.1006 84.313 14.2926C84.0783 14.4846 83.961 14.7406 83.961 15.0606V15.5406C83.961 15.8606 84.073 16.1166 84.297 16.3086C84.5317 16.4899 84.841 16.5806 85.225 16.5806H86.169ZM91.7919 9.70057H93.2159V10.8046C93.4505 10.4419 93.7599 10.1486 94.1439 9.92457C94.5385 9.6899 94.9279 9.57257 95.3119 9.57257H96.3679C97.1359 9.57257 97.7545 9.82857 98.2239 10.3406C98.7039 10.8526 98.9439 11.5246 98.9439 12.3566V17.6846H97.4559V12.3566C97.4559 11.9192 97.3439 11.5672 97.1199 11.3006C96.8959 11.0232 96.6025 10.8846 96.2399 10.8846H95.2479C94.7892 10.8846 94.3732 11.0606 93.9999 11.4126C93.6265 11.7646 93.3865 12.2232 93.2799 12.7886V17.6846H91.7919V9.70057ZM108.474 17.8126C107.439 17.8126 106.612 17.5032 105.994 16.8846C105.375 16.2659 105.066 15.4339 105.066 14.3886H106.554C106.554 15.0179 106.73 15.5192 107.082 15.8926C107.444 16.2659 107.919 16.4526 108.506 16.4526H110.282C110.868 16.4526 111.338 16.3299 111.69 16.0846C112.042 15.8286 112.218 15.4926 112.218 15.0766V14.2126C112.218 13.8819 112.09 13.6046 111.834 13.3806C111.588 13.1566 111.236 13.0072 110.778 12.9326L107.866 12.4526C107.012 12.3139 106.351 12.0206 105.882 11.5726C105.423 11.1246 105.194 10.5646 105.194 9.89257V9.01257C105.194 8.21257 105.498 7.57257 106.106 7.09257C106.724 6.6019 107.535 6.35657 108.538 6.35657H110.346C110.975 6.35657 111.53 6.4899 112.01 6.75657C112.5 7.01257 112.879 7.38057 113.146 7.86057C113.412 8.3299 113.546 8.8739 113.546 9.49257H112.042C112.042 8.95924 111.887 8.53257 111.578 8.21257C111.268 7.8819 110.858 7.71657 110.346 7.71657H108.538C107.994 7.71657 107.551 7.83924 107.21 8.08457C106.879 8.31924 106.714 8.64457 106.714 9.06057V9.78057C106.714 10.1219 106.831 10.4046 107.066 10.6286C107.311 10.8526 107.658 11.0072 108.106 11.0926L110.986 11.5886C111.871 11.7379 112.548 12.0312 113.018 12.4686C113.498 12.8952 113.738 13.4339 113.738 14.0846V15.1246C113.738 15.9352 113.423 16.5859 112.794 17.0766C112.175 17.5672 111.348 17.8126 110.314 17.8126H108.474ZM115.573 6.48457H117.061V10.7086C117.306 10.3672 117.616 10.0952 117.989 9.89257C118.362 9.67924 118.73 9.57257 119.093 9.57257H120.181C120.949 9.57257 121.568 9.82857 122.037 10.3406C122.517 10.8526 122.757 11.5246 122.757 12.3566V17.6846H121.269V12.3566C121.269 11.9192 121.157 11.5672 120.933 11.3006C120.709 11.0232 120.416 10.8846 120.053 10.8846H119.029C118.57 10.8846 118.154 11.0606 117.781 11.4126C117.408 11.7539 117.168 12.2019 117.061 12.7566V17.6846H115.573V6.48457ZM127.285 17.8126C126.485 17.8126 125.845 17.6099 125.365 17.2046C124.885 16.7886 124.645 16.2392 124.645 15.5566V15.0286C124.645 14.3566 124.896 13.8179 125.397 13.4126C125.899 12.9966 126.555 12.7886 127.365 12.7886H128.373C128.693 12.7886 129.035 12.8366 129.397 12.9326C129.76 13.0286 130.069 13.1619 130.325 13.3326V12.1646C130.325 11.7699 130.203 11.4552 129.957 11.2206C129.712 10.9752 129.392 10.8526 128.997 10.8526H127.685C127.28 10.8526 126.955 10.9486 126.709 11.1406C126.464 11.3326 126.341 11.5832 126.341 11.8926H124.869C124.869 11.1992 125.125 10.6392 125.637 10.2126C126.16 9.7859 126.843 9.57257 127.685 9.57257H128.997C129.84 9.57257 130.517 9.81257 131.029 10.2926C131.541 10.7619 131.797 11.3859 131.797 12.1646V17.6846H130.405V16.6126C130.16 16.9752 129.84 17.2686 129.445 17.4926C129.051 17.7059 128.651 17.8126 128.245 17.8126H127.285ZM128.325 16.5806C128.795 16.5806 129.211 16.4472 129.573 16.1806C129.936 15.9032 130.187 15.5352 130.325 15.0766V14.5966C130.123 14.4152 129.845 14.2712 129.493 14.1646C129.141 14.0579 128.779 14.0046 128.405 14.0046H127.381C127.008 14.0046 126.704 14.1006 126.469 14.2926C126.235 14.4846 126.117 14.7406 126.117 15.0606V15.5406C126.117 15.8606 126.229 16.1166 126.453 16.3086C126.688 16.4899 126.997 16.5806 127.381 16.5806H128.325ZM133.948 9.70057H135.372V10.8686C135.585 10.5166 135.895 10.2286 136.3 10.0046C136.716 9.78057 137.148 9.66857 137.596 9.66857H138.428V10.9966H137.596C136.945 10.9966 136.423 11.1992 136.028 11.6046C135.633 11.9992 135.436 12.5219 135.436 13.1726V17.6846H133.948V9.70057ZM141.91 17.8126C141.11 17.8126 140.47 17.6099 139.99 17.2046C139.51 16.7886 139.27 16.2392 139.27 15.5566V15.0286C139.27 14.3566 139.521 13.8179 140.022 13.4126C140.524 12.9966 141.18 12.7886 141.99 12.7886H142.998C143.318 12.7886 143.66 12.8366 144.022 12.9326C144.385 13.0286 144.694 13.1619 144.95 13.3326V12.1646C144.95 11.7699 144.828 11.4552 144.582 11.2206C144.337 10.9752 144.017 10.8526 143.622 10.8526H142.31C141.905 10.8526 141.58 10.9486 141.334 11.1406C141.089 11.3326 140.966 11.5832 140.966 11.8926H139.494C139.494 11.1992 139.75 10.6392 140.262 10.2126C140.785 9.7859 141.468 9.57257 142.31 9.57257H143.622C144.465 9.57257 145.142 9.81257 145.654 10.2926C146.166 10.7619 146.422 11.3859 146.422 12.1646V17.6846H145.03V16.6126C144.785 16.9752 144.465 17.2686 144.07 17.4926C143.676 17.7059 143.276 17.8126 142.87 17.8126H141.91ZM142.95 16.5806C143.42 16.5806 143.836 16.4472 144.198 16.1806C144.561 15.9032 144.812 15.5352 144.95 15.0766V14.5966C144.748 14.4152 144.47 14.2712 144.118 14.1646C143.766 14.0579 143.404 14.0046 143.03 14.0046H142.006C141.633 14.0046 141.329 14.1006 141.094 14.2926C140.86 14.4846 140.742 14.7406 140.742 15.0606V15.5406C140.742 15.8606 140.854 16.1166 141.078 16.3086C141.313 16.4899 141.622 16.5806 142.006 16.5806H142.95ZM148.573 9.70057H149.997V10.8046C150.232 10.4419 150.541 10.1486 150.925 9.92457C151.32 9.6899 151.709 9.57257 152.093 9.57257H153.149C153.917 9.57257 154.536 9.82857 155.005 10.3406C155.485 10.8526 155.725 11.5246 155.725 12.3566V17.6846H154.237V12.3566C154.237 11.9192 154.125 11.5672 153.901 11.3006C153.677 11.0232 153.384 10.8846 153.021 10.8846H152.029C151.57 10.8846 151.154 11.0606 150.781 11.4126C150.408 11.7646 150.168 12.2232 150.061 12.7886V17.6846H148.573V9.70057Z" fill="#333333"/>
<path d="M53.892 40.6846C53.812 40.6846 53.748 40.6606 53.7 40.6126C53.652 40.5646 53.628 40.5006 53.628 40.4206V32.5606C53.628 32.4726 53.652 32.4046 53.7 32.3566C53.748 32.3086 53.812 32.2846 53.892 32.2846H58.524C58.612 32.2846 58.68 32.3086 58.728 32.3566C58.776 32.4046 58.8 32.4726 58.8 32.5606V32.7406C58.8 32.8206 58.776 32.8846 58.728 32.9326C58.68 32.9806 58.612 33.0046 58.524 33.0046H54.384V36.2326H58.284C58.372 36.2326 58.44 36.2566 58.488 36.3046C58.536 36.3526 58.56 36.4206 58.56 36.5086V36.6886C58.56 36.7686 58.536 36.8326 58.488 36.8806C58.44 36.9286 58.372 36.9526 58.284 36.9526H54.384V40.4206C54.384 40.5006 54.36 40.5646 54.312 40.6126C54.264 40.6606 54.196 40.6846 54.108 40.6846H53.892ZM62.5511 40.8046C61.9751 40.8046 61.4911 40.6846 61.0991 40.4446C60.7151 40.2046 60.4191 39.8766 60.2111 39.4606C60.0111 39.0446 59.9031 38.5806 59.8871 38.0686C59.8791 37.9486 59.8751 37.7806 59.8751 37.5646C59.8751 37.3486 59.8791 37.1806 59.8871 37.0606C59.9031 36.5406 60.0111 36.0766 60.2111 35.6686C60.4191 35.2526 60.7151 34.9246 61.0991 34.6846C61.4911 34.4446 61.9751 34.3246 62.5511 34.3246C63.1271 34.3246 63.6071 34.4446 63.9911 34.6846C64.3831 34.9246 64.6791 35.2526 64.8791 35.6686C65.0871 36.0766 65.1991 36.5406 65.2151 37.0606C65.2231 37.1806 65.2271 37.3486 65.2271 37.5646C65.2271 37.7806 65.2231 37.9486 65.2151 38.0686C65.1991 38.5806 65.0871 39.0446 64.8791 39.4606C64.6791 39.8766 64.3831 40.2046 63.9911 40.4446C63.6071 40.6846 63.1271 40.8046 62.5511 40.8046ZM62.5511 40.1086C63.1111 40.1086 63.5671 39.9286 63.9191 39.5686C64.2711 39.2086 64.4591 38.6886 64.4831 38.0086C64.4911 37.8886 64.4951 37.7406 64.4951 37.5646C64.4951 37.3886 64.4911 37.2406 64.4831 37.1206C64.4591 36.4326 64.2711 35.9126 63.9191 35.5606C63.5671 35.2006 63.1111 35.0206 62.5511 35.0206C61.9911 35.0206 61.5351 35.2006 61.1831 35.5606C60.8311 35.9126 60.6431 36.4326 60.6191 37.1206C60.6111 37.2406 60.6071 37.3886 60.6071 37.5646C60.6071 37.7406 60.6111 37.8886 60.6191 38.0086C60.6431 38.6886 60.8311 39.2086 61.1831 39.5686C61.5351 39.9286 61.9911 40.1086 62.5511 40.1086ZM69.2065 40.8046C68.6625 40.8046 68.2105 40.6886 67.8505 40.4566C67.4985 40.2166 67.2345 39.8926 67.0585 39.4846C66.8905 39.0766 66.8065 38.6206 66.8065 38.1166V34.7086C66.8065 34.6286 66.8305 34.5646 66.8785 34.5166C66.9265 34.4686 66.9905 34.4446 67.0705 34.4446H67.2745C67.3545 34.4446 67.4185 34.4686 67.4665 34.5166C67.5145 34.5646 67.5385 34.6286 67.5385 34.7086V38.0566C67.5385 39.4246 68.1345 40.1086 69.3265 40.1086C69.8945 40.1086 70.3505 39.9286 70.6945 39.5686C71.0385 39.2006 71.2105 38.6966 71.2105 38.0566V34.7086C71.2105 34.6286 71.2345 34.5646 71.2825 34.5166C71.3305 34.4686 71.3945 34.4446 71.4745 34.4446H71.6785C71.7585 34.4446 71.8225 34.4686 71.8705 34.5166C71.9185 34.5646 71.9425 34.6286 71.9425 34.7086V40.4206C71.9425 40.5006 71.9185 40.5646 71.8705 40.6126C71.8225 40.6606 71.7585 40.6846 71.6785 40.6846H71.4745C71.3945 40.6846 71.3305 40.6606 71.2825 40.6126C71.2345 40.5646 71.2105 40.5006 71.2105 40.4206V39.8566C70.9945 40.1366 70.7345 40.3646 70.4305 40.5406C70.1345 40.7166 69.7265 40.8046 69.2065 40.8046ZM74.1501 40.6846C74.0701 40.6846 74.0061 40.6606 73.9581 40.6126C73.9101 40.5646 73.8861 40.5006 73.8861 40.4206V34.7086C73.8861 34.6286 73.9101 34.5646 73.9581 34.5166C74.0061 34.4686 74.0701 34.4446 74.1501 34.4446H74.3541C74.4341 34.4446 74.4981 34.4686 74.5461 34.5166C74.5941 34.5646 74.6181 34.6286 74.6181 34.7086V35.2726C74.8341 34.9926 75.0941 34.7646 75.3981 34.5886C75.7101 34.4126 76.1221 34.3246 76.6341 34.3246C77.1781 34.3246 77.6301 34.4446 77.9901 34.6846C78.3581 34.9166 78.6301 35.2366 78.8061 35.6446C78.9901 36.0446 79.0821 36.5006 79.0821 37.0126V40.4206C79.0821 40.5006 79.0581 40.5646 79.0101 40.6126C78.9621 40.6606 78.8981 40.6846 78.8181 40.6846H78.6141C78.5341 40.6846 78.4701 40.6606 78.4221 40.6126C78.3741 40.5646 78.3501 40.5006 78.3501 40.4206V37.0726C78.3501 36.4326 78.1941 35.9326 77.8821 35.5726C77.5701 35.2046 77.1141 35.0206 76.5141 35.0206C75.9461 35.0206 75.4861 35.2046 75.1341 35.5726C74.7901 35.9326 74.6181 36.4326 74.6181 37.0726V40.4206C74.6181 40.5006 74.5941 40.5646 74.5461 40.6126C74.4981 40.6606 74.4341 40.6846 74.3541 40.6846H74.1501ZM83.2202 40.8046C82.7562 40.8046 82.3602 40.7206 82.0322 40.5526C81.7122 40.3846 81.4522 40.1606 81.2522 39.8806C81.0522 39.6006 80.9042 39.2886 80.8082 38.9446C80.7202 38.6006 80.6682 38.2526 80.6522 37.9006C80.6442 37.7806 80.6402 37.6686 80.6402 37.5646C80.6402 37.4606 80.6442 37.3486 80.6522 37.2286C80.6682 36.8766 80.7202 36.5286 80.8082 36.1846C80.9042 35.8406 81.0522 35.5286 81.2522 35.2486C81.4522 34.9686 81.7122 34.7446 82.0322 34.5766C82.3602 34.4086 82.7562 34.3246 83.2202 34.3246C83.7162 34.3246 84.1242 34.4166 84.4442 34.6006C84.7722 34.7846 85.0362 35.0086 85.2362 35.2726V32.4286C85.2362 32.3486 85.2602 32.2846 85.3082 32.2366C85.3562 32.1886 85.4202 32.1646 85.5002 32.1646H85.7042C85.7842 32.1646 85.8482 32.1886 85.8962 32.2366C85.9442 32.2846 85.9682 32.3486 85.9682 32.4286V40.4206C85.9682 40.5006 85.9442 40.5646 85.8962 40.6126C85.8482 40.6606 85.7842 40.6846 85.7042 40.6846H85.5002C85.4202 40.6846 85.3562 40.6606 85.3082 40.6126C85.2602 40.5646 85.2362 40.5006 85.2362 40.4206V39.8566C85.0362 40.1286 84.7722 40.3566 84.4442 40.5406C84.1242 40.7166 83.7162 40.8046 83.2202 40.8046ZM83.2922 40.1086C83.7482 40.1086 84.1162 40.0006 84.3962 39.7846C84.6762 39.5686 84.8842 39.3006 85.0202 38.9806C85.1562 38.6526 85.2282 38.3246 85.2362 37.9966C85.2442 37.8766 85.2482 37.7206 85.2482 37.5286C85.2482 37.3366 85.2442 37.1806 85.2362 37.0606C85.2282 36.7406 85.1522 36.4246 85.0082 36.1126C84.8722 35.8006 84.6642 35.5406 84.3842 35.3326C84.1042 35.1246 83.7402 35.0206 83.2922 35.0206C82.8282 35.0206 82.4562 35.1246 82.1762 35.3326C81.9042 35.5406 81.7082 35.8126 81.5882 36.1486C81.4682 36.4846 81.4002 36.8446 81.3842 37.2286C81.3762 37.4526 81.3762 37.6766 81.3842 37.9006C81.4002 38.2846 81.4682 38.6446 81.5882 38.9806C81.7082 39.3166 81.9042 39.5886 82.1762 39.7966C82.4562 40.0046 82.8282 40.1086 83.2922 40.1086ZM90.2411 40.8046C89.4651 40.8046 88.8491 40.5526 88.3931 40.0486C87.9371 39.5366 87.6771 38.8686 87.6131 38.0446C87.6051 37.9246 87.6011 37.7646 87.6011 37.5646C87.6011 37.3646 87.6051 37.2046 87.6131 37.0846C87.6531 36.5406 87.7811 36.0606 87.9971 35.6446C88.2131 35.2286 88.5091 34.9046 88.8851 34.6726C89.2691 34.4406 89.7211 34.3246 90.2411 34.3246C90.8011 34.3246 91.2771 34.4486 91.6691 34.6966C92.0611 34.9446 92.3611 35.3006 92.5691 35.7646C92.7851 36.2286 92.8931 36.7806 92.8931 37.4206V37.6006C92.8931 37.6806 92.8651 37.7446 92.8091 37.7926C92.7611 37.8406 92.6971 37.8646 92.6171 37.8646H88.3451C88.3451 37.8646 88.3451 37.8806 88.3451 37.9126C88.3451 37.9446 88.3451 37.9686 88.3451 37.9846C88.3611 38.3446 88.4451 38.6886 88.5971 39.0166C88.7491 39.3366 88.9651 39.6006 89.2451 39.8086C89.5251 40.0086 89.8571 40.1086 90.2411 40.1086C90.5851 40.1086 90.8691 40.0566 91.0931 39.9526C91.3251 39.8486 91.5091 39.7366 91.6451 39.6166C91.7811 39.4886 91.8691 39.3926 91.9091 39.3286C91.9811 39.2246 92.0371 39.1646 92.0771 39.1486C92.1171 39.1246 92.1811 39.1126 92.2691 39.1126H92.4611C92.5331 39.1126 92.5931 39.1366 92.6411 39.1846C92.6971 39.2246 92.7211 39.2806 92.7131 39.3526C92.7051 39.4646 92.6411 39.6046 92.5211 39.7726C92.4091 39.9326 92.2451 40.0926 92.0291 40.2526C91.8211 40.4126 91.5651 40.5446 91.2611 40.6486C90.9571 40.7526 90.6171 40.8046 90.2411 40.8046ZM88.3451 37.1926H92.1611V37.1446C92.1611 36.7446 92.0851 36.3846 91.9331 36.0646C91.7811 35.7446 91.5611 35.4926 91.2731 35.3086C90.9851 35.1166 90.6411 35.0206 90.2411 35.0206C89.8411 35.0206 89.4971 35.1166 89.2091 35.3086C88.9291 35.4926 88.7131 35.7446 88.5611 36.0646C88.4171 36.3846 88.3451 36.7446 88.3451 37.1446V37.1926ZM94.7399 40.6846C94.6599 40.6846 94.5959 40.6606 94.5479 40.6126C94.4999 40.5646 94.4759 40.5006 94.4759 40.4206V34.7206C94.4759 34.6406 94.4999 34.5766 94.5479 34.5286C94.5959 34.4726 94.6599 34.4446 94.7399 34.4446H94.9319C95.0119 34.4446 95.0759 34.4726 95.1239 34.5286C95.1799 34.5766 95.2079 34.6406 95.2079 34.7206V35.2726C95.3519 34.9926 95.5599 34.7846 95.8319 34.6486C96.1039 34.5126 96.4399 34.4446 96.8399 34.4446H97.2839C97.3639 34.4446 97.4279 34.4686 97.4759 34.5166C97.5239 34.5646 97.5479 34.6286 97.5479 34.7086V34.8766C97.5479 34.9566 97.5239 35.0206 97.4759 35.0686C97.4279 35.1166 97.3639 35.1406 97.2839 35.1406H96.7679C96.2879 35.1406 95.9079 35.2806 95.6279 35.5606C95.3479 35.8406 95.2079 36.2206 95.2079 36.7006V40.4206C95.2079 40.5006 95.1799 40.5646 95.1239 40.6126C95.0759 40.6606 95.0119 40.6846 94.9319 40.6846H94.7399ZM103.129 40.8046C102.745 40.8046 102.389 40.7246 102.061 40.5646C101.741 40.4046 101.481 40.1926 101.281 39.9286C101.081 39.6566 100.981 39.3526 100.981 39.0166C100.981 38.4726 101.201 38.0366 101.641 37.7086C102.081 37.3806 102.653 37.1686 103.357 37.0726L105.253 36.8086V36.3886C105.253 35.9646 105.121 35.6326 104.857 35.3926C104.601 35.1446 104.189 35.0206 103.621 35.0206C103.205 35.0206 102.869 35.1046 102.613 35.2726C102.357 35.4326 102.181 35.6446 102.085 35.9086C102.045 36.0286 101.969 36.0886 101.857 36.0886H101.665C101.569 36.0886 101.501 36.0646 101.461 36.0166C101.421 35.9606 101.401 35.8966 101.401 35.8246C101.401 35.7126 101.441 35.5726 101.521 35.4046C101.609 35.2366 101.741 35.0726 101.917 34.9126C102.093 34.7446 102.321 34.6046 102.601 34.4926C102.881 34.3806 103.221 34.3246 103.621 34.3246C104.093 34.3246 104.481 34.3886 104.785 34.5166C105.097 34.6446 105.337 34.8126 105.505 35.0206C105.681 35.2206 105.805 35.4446 105.877 35.6926C105.949 35.9406 105.985 36.1846 105.985 36.4246V40.4206C105.985 40.5006 105.961 40.5646 105.913 40.6126C105.865 40.6606 105.801 40.6846 105.721 40.6846H105.517C105.437 40.6846 105.373 40.6606 105.325 40.6126C105.277 40.5646 105.253 40.5006 105.253 40.4206V39.8566C105.157 40.0006 105.021 40.1446 104.845 40.2886C104.669 40.4326 104.441 40.5566 104.161 40.6606C103.889 40.7566 103.545 40.8046 103.129 40.8046ZM103.249 40.1086C103.617 40.1086 103.953 40.0286 104.257 39.8686C104.561 39.7086 104.801 39.4646 104.977 39.1366C105.161 38.8006 105.253 38.3806 105.253 37.8766V37.4686L103.705 37.6846C103.049 37.7726 102.553 37.9246 102.217 38.1406C101.881 38.3566 101.713 38.6286 101.713 38.9566C101.713 39.2206 101.789 39.4366 101.941 39.6046C102.093 39.7726 102.285 39.9006 102.517 39.9886C102.757 40.0686 103.001 40.1086 103.249 40.1086ZM108.146 40.6846C108.066 40.6846 108.002 40.6606 107.954 40.6126C107.906 40.5646 107.882 40.5006 107.882 40.4206V34.7086C107.882 34.6286 107.906 34.5646 107.954 34.5166C108.002 34.4686 108.066 34.4446 108.146 34.4446H108.35C108.43 34.4446 108.494 34.4686 108.542 34.5166C108.59 34.5646 108.614 34.6286 108.614 34.7086V35.2726C108.83 34.9926 109.09 34.7646 109.394 34.5886C109.706 34.4126 110.118 34.3246 110.63 34.3246C111.174 34.3246 111.626 34.4446 111.986 34.6846C112.354 34.9166 112.626 35.2366 112.802 35.6446C112.986 36.0446 113.078 36.5006 113.078 37.0126V40.4206C113.078 40.5006 113.054 40.5646 113.006 40.6126C112.958 40.6606 112.894 40.6846 112.814 40.6846H112.61C112.53 40.6846 112.466 40.6606 112.418 40.6126C112.37 40.5646 112.346 40.5006 112.346 40.4206V37.0726C112.346 36.4326 112.19 35.9326 111.878 35.5726C111.566 35.2046 111.11 35.0206 110.51 35.0206C109.942 35.0206 109.482 35.2046 109.13 35.5726C108.786 35.9326 108.614 36.4326 108.614 37.0726V40.4206C108.614 40.5006 108.59 40.5646 108.542 40.6126C108.494 40.6606 108.43 40.6846 108.35 40.6846H108.146ZM117.216 40.8046C116.752 40.8046 116.356 40.7206 116.028 40.5526C115.708 40.3846 115.448 40.1606 115.248 39.8806C115.048 39.6006 114.9 39.2886 114.804 38.9446C114.716 38.6006 114.664 38.2526 114.648 37.9006C114.64 37.7806 114.636 37.6686 114.636 37.5646C114.636 37.4606 114.64 37.3486 114.648 37.2286C114.664 36.8766 114.716 36.5286 114.804 36.1846C114.9 35.8406 115.048 35.5286 115.248 35.2486C115.448 34.9686 115.708 34.7446 116.028 34.5766C116.356 34.4086 116.752 34.3246 117.216 34.3246C117.712 34.3246 118.12 34.4166 118.44 34.6006C118.768 34.7846 119.032 35.0086 119.232 35.2726V32.4286C119.232 32.3486 119.256 32.2846 119.304 32.2366C119.352 32.1886 119.416 32.1646 119.496 32.1646H119.7C119.78 32.1646 119.844 32.1886 119.892 32.2366C119.94 32.2846 119.964 32.3486 119.964 32.4286V40.4206C119.964 40.5006 119.94 40.5646 119.892 40.6126C119.844 40.6606 119.78 40.6846 119.7 40.6846H119.496C119.416 40.6846 119.352 40.6606 119.304 40.6126C119.256 40.5646 119.232 40.5006 119.232 40.4206V39.8566C119.032 40.1286 118.768 40.3566 118.44 40.5406C118.12 40.7166 117.712 40.8046 117.216 40.8046ZM117.288 40.1086C117.744 40.1086 118.112 40.0006 118.392 39.7846C118.672 39.5686 118.88 39.3006 119.016 38.9806C119.152 38.6526 119.224 38.3246 119.232 37.9966C119.24 37.8766 119.244 37.7206 119.244 37.5286C119.244 37.3366 119.24 37.1806 119.232 37.0606C119.224 36.7406 119.148 36.4246 119.004 36.1126C118.868 35.8006 118.66 35.5406 118.38 35.3326C118.1 35.1246 117.736 35.0206 117.288 35.0206C116.824 35.0206 116.452 35.1246 116.172 35.3326C115.9 35.5406 115.704 35.8126 115.584 36.1486C115.464 36.4846 115.396 36.8446 115.38 37.2286C115.372 37.4526 115.372 37.6766 115.38 37.9006C115.396 38.2846 115.464 38.6446 115.584 38.9806C115.704 39.3166 115.9 39.5886 116.172 39.7966C116.452 40.0046 116.824 40.1086 117.288 40.1086ZM128.015 40.8046C127.287 40.8046 126.691 40.6646 126.227 40.3846C125.771 40.0966 125.431 39.7086 125.207 39.2206C124.983 38.7326 124.859 38.1766 124.835 37.5526C124.827 37.2246 124.823 36.8726 124.823 36.4966C124.823 36.1206 124.827 35.7606 124.835 35.4166C124.859 34.7926 124.983 34.2366 125.207 33.7486C125.431 33.2526 125.771 32.8646 126.227 32.5846C126.691 32.3046 127.287 32.1646 128.015 32.1646C128.583 32.1646 129.067 32.2446 129.467 32.4046C129.867 32.5646 130.191 32.7766 130.439 33.0406C130.695 33.2966 130.883 33.5766 131.003 33.8806C131.131 34.1766 131.203 34.4686 131.219 34.7566C131.227 34.8286 131.203 34.8886 131.147 34.9366C131.099 34.9766 131.039 34.9966 130.967 34.9966H130.727C130.663 34.9966 130.607 34.9806 130.559 34.9486C130.511 34.9086 130.479 34.8406 130.463 34.7446C130.311 34.0326 130.023 33.5446 129.599 33.2806C129.183 33.0166 128.655 32.8846 128.015 32.8846C127.287 32.8846 126.707 33.0926 126.275 33.5086C125.851 33.9166 125.623 34.5726 125.591 35.4766C125.567 36.1326 125.567 36.8046 125.591 37.4926C125.623 38.3966 125.851 39.0566 126.275 39.4726C126.707 39.8806 127.287 40.0846 128.015 40.0846C128.655 40.0846 129.183 39.9526 129.599 39.6886C130.023 39.4246 130.311 38.9366 130.463 38.2246C130.479 38.1286 130.511 38.0646 130.559 38.0326C130.607 37.9926 130.663 37.9726 130.727 37.9726H130.967C131.039 37.9726 131.099 37.9966 131.147 38.0446C131.203 38.0846 131.227 38.1406 131.219 38.2126C131.203 38.5006 131.131 38.7966 131.003 39.1006C130.883 39.3966 130.695 39.6766 130.439 39.9406C130.191 40.1966 129.867 40.4046 129.467 40.5646C129.067 40.7246 128.583 40.8046 128.015 40.8046ZM133.251 40.6846C133.171 40.6846 133.107 40.6606 133.059 40.6126C133.011 40.5646 132.987 40.5006 132.987 40.4206V32.5606C132.987 32.4726 133.011 32.4046 133.059 32.3566C133.107 32.3086 133.171 32.2846 133.251 32.2846H137.931C138.019 32.2846 138.087 32.3086 138.135 32.3566C138.183 32.4046 138.207 32.4726 138.207 32.5606V32.7406C138.207 32.8206 138.183 32.8846 138.135 32.9326C138.087 32.9806 138.019 33.0046 137.931 33.0046H133.743V36.0646H137.667C137.755 36.0646 137.823 36.0886 137.871 36.1366C137.919 36.1846 137.943 36.2526 137.943 36.3406V36.5206C137.943 36.6006 137.919 36.6646 137.871 36.7126C137.823 36.7606 137.755 36.7846 137.667 36.7846H133.743V39.9646H138.027C138.115 39.9646 138.183 39.9886 138.231 40.0366C138.279 40.0846 138.303 40.1526 138.303 40.2406V40.4206C138.303 40.5006 138.279 40.5646 138.231 40.6126C138.183 40.6606 138.115 40.6846 138.027 40.6846H133.251ZM142.851 40.8046C142.187 40.8046 141.623 40.6886 141.159 40.4566C140.695 40.2166 140.339 39.8526 140.091 39.3646C139.843 38.8686 139.707 38.2446 139.683 37.4926C139.675 37.1326 139.671 36.7966 139.671 36.4846C139.671 36.1726 139.675 35.8366 139.683 35.4766C139.707 34.7326 139.851 34.1166 140.115 33.6286C140.379 33.1326 140.743 32.7646 141.207 32.5246C141.679 32.2846 142.227 32.1646 142.851 32.1646C143.475 32.1646 144.019 32.2846 144.483 32.5246C144.955 32.7646 145.323 33.1326 145.587 33.6286C145.859 34.1166 146.003 34.7326 146.019 35.4766C146.035 35.8366 146.043 36.1726 146.043 36.4846C146.043 36.7966 146.035 37.1326 146.019 37.4926C146.003 38.2446 145.867 38.8686 145.611 39.3646C145.363 39.8526 145.007 40.2166 144.543 40.4566C144.079 40.6886 143.515 40.8046 142.851 40.8046ZM142.851 40.0846C143.539 40.0846 144.103 39.8766 144.543 39.4606C144.991 39.0446 145.231 38.3686 145.263 37.4326C145.279 37.0726 145.287 36.7566 145.287 36.4846C145.287 36.2126 145.279 35.8966 145.263 35.5366C145.247 34.9126 145.131 34.4046 144.915 34.0126C144.707 33.6206 144.423 33.3366 144.063 33.1606C143.711 32.9766 143.307 32.8846 142.851 32.8846C142.403 32.8846 141.999 32.9766 141.639 33.1606C141.287 33.3366 141.003 33.6206 140.787 34.0126C140.579 34.4046 140.463 34.9126 140.439 35.5366C140.431 35.8966 140.427 36.2126 140.427 36.4846C140.427 36.7566 140.431 37.0726 140.439 37.4326C140.471 38.3686 140.711 39.0446 141.159 39.4606C141.607 39.8766 142.171 40.0846 142.851 40.0846ZM147.466 41.5846C147.402 41.5846 147.354 41.5606 147.322 41.5126C147.298 41.4646 147.29 41.4046 147.298 41.3326L147.526 39.8926C147.542 39.7966 147.57 39.7206 147.61 39.6646C147.658 39.6006 147.73 39.5686 147.826 39.5686H148.366C148.422 39.5686 148.466 39.5886 148.498 39.6286C148.53 39.6686 148.546 39.7126 148.546 39.7606C148.546 39.8326 148.53 39.9046 148.498 39.9766L147.982 41.3326C147.95 41.4126 147.91 41.4726 147.862 41.5126C147.822 41.5606 147.758 41.5846 147.67 41.5846H147.466ZM155.443 40.6846C155.363 40.6846 155.299 40.6606 155.251 40.6126C155.203 40.5646 155.179 40.5006 155.179 40.4206V33.0046H152.803C152.723 33.0046 152.659 32.9806 152.611 32.9326C152.563 32.8846 152.539 32.8206 152.539 32.7406V32.5606C152.539 32.4726 152.563 32.4046 152.611 32.3566C152.659 32.3086 152.723 32.2846 152.803 32.2846H158.299C158.387 32.2846 158.455 32.3086 158.503 32.3566C158.551 32.4046 158.575 32.4726 158.575 32.5606V32.7406C158.575 32.8206 158.551 32.8846 158.503 32.9326C158.455 32.9806 158.387 33.0046 158.299 33.0046H155.935V40.4206C155.935 40.5006 155.911 40.5646 155.863 40.6126C155.815 40.6606 155.747 40.6846 155.659 40.6846H155.443ZM160.131 40.6846C160.051 40.6846 159.987 40.6606 159.939 40.6126C159.891 40.5646 159.867 40.5006 159.867 40.4206V34.7086C159.867 34.6286 159.891 34.5646 159.939 34.5166C159.987 34.4686 160.051 34.4446 160.131 34.4446H160.335C160.415 34.4446 160.479 34.4686 160.527 34.5166C160.575 34.5646 160.599 34.6286 160.599 34.7086V40.4206C160.599 40.5006 160.575 40.5646 160.527 40.6126C160.479 40.6606 160.415 40.6846 160.335 40.6846H160.131ZM159.999 33.1606C159.919 33.1606 159.855 33.1366 159.807 33.0886C159.759 33.0406 159.735 32.9766 159.735 32.8966V32.4406C159.735 32.3606 159.759 32.2966 159.807 32.2486C159.855 32.1926 159.919 32.1646 159.999 32.1646H160.455C160.535 32.1646 160.599 32.1926 160.647 32.2486C160.703 32.2966 160.731 32.3606 160.731 32.4406V32.8966C160.731 32.9766 160.703 33.0406 160.647 33.0886C160.599 33.1366 160.535 33.1606 160.455 33.1606H159.999ZM162.802 40.6846C162.722 40.6846 162.658 40.6606 162.61 40.6126C162.562 40.5646 162.538 40.5006 162.538 40.4206V34.7086C162.538 34.6286 162.562 34.5646 162.61 34.5166C162.658 34.4686 162.722 34.4446 162.802 34.4446H163.006C163.086 34.4446 163.15 34.4686 163.198 34.5166C163.246 34.5646 163.27 34.6286 163.27 34.7086V35.1286C163.47 34.8726 163.706 34.6766 163.978 34.5406C164.258 34.3966 164.594 34.3246 164.986 34.3246C165.882 34.3246 166.522 34.7006 166.906 35.4526C167.09 35.1086 167.358 34.8366 167.71 34.6366C168.07 34.4286 168.482 34.3246 168.946 34.3246C169.37 34.3246 169.75 34.4246 170.086 34.6246C170.43 34.8166 170.698 35.1046 170.89 35.4886C171.09 35.8726 171.19 36.3526 171.19 36.9286V40.4206C171.19 40.5006 171.166 40.5646 171.118 40.6126C171.07 40.6606 171.006 40.6846 170.926 40.6846H170.722C170.642 40.6846 170.578 40.6606 170.53 40.6126C170.482 40.5646 170.458 40.5006 170.458 40.4206V37.0486C170.458 36.5206 170.382 36.1126 170.23 35.8246C170.078 35.5286 169.878 35.3206 169.63 35.2006C169.382 35.0806 169.114 35.0206 168.826 35.0206C168.586 35.0206 168.342 35.0806 168.094 35.2006C167.846 35.3206 167.638 35.5286 167.47 35.8246C167.31 36.1126 167.23 36.5206 167.23 37.0486V40.4206C167.23 40.5006 167.206 40.5646 167.158 40.6126C167.11 40.6606 167.046 40.6846 166.966 40.6846H166.762C166.682 40.6846 166.618 40.6606 166.57 40.6126C166.522 40.5646 166.498 40.5006 166.498 40.4206V37.0486C166.498 36.5206 166.418 36.1126 166.258 35.8246C166.098 35.5286 165.894 35.3206 165.646 35.2006C165.398 35.0806 165.138 35.0206 164.866 35.0206C164.626 35.0206 164.382 35.0806 164.134 35.2006C163.886 35.3206 163.678 35.5286 163.51 35.8246C163.35 36.1126 163.27 36.5166 163.27 37.0366V40.4206C163.27 40.5006 163.246 40.5646 163.198 40.6126C163.15 40.6606 163.086 40.6846 163.006 40.6846H162.802ZM175.39 40.8046C174.614 40.8046 173.998 40.5526 173.542 40.0486C173.086 39.5366 172.826 38.8686 172.762 38.0446C172.754 37.9246 172.75 37.7646 172.75 37.5646C172.75 37.3646 172.754 37.2046 172.762 37.0846C172.802 36.5406 172.93 36.0606 173.146 35.6446C173.362 35.2286 173.658 34.9046 174.034 34.6726C174.418 34.4406 174.87 34.3246 175.39 34.3246C175.95 34.3246 176.426 34.4486 176.818 34.6966C177.21 34.9446 177.51 35.3006 177.718 35.7646C177.934 36.2286 178.042 36.7806 178.042 37.4206V37.6006C178.042 37.6806 178.014 37.7446 177.958 37.7926C177.91 37.8406 177.846 37.8646 177.766 37.8646H173.494C173.494 37.8646 173.494 37.8806 173.494 37.9126C173.494 37.9446 173.494 37.9686 173.494 37.9846C173.51 38.3446 173.594 38.6886 173.746 39.0166C173.898 39.3366 174.114 39.6006 174.394 39.8086C174.674 40.0086 175.006 40.1086 175.39 40.1086C175.734 40.1086 176.018 40.0566 176.242 39.9526C176.474 39.8486 176.658 39.7366 176.794 39.6166C176.93 39.4886 177.018 39.3926 177.058 39.3286C177.13 39.2246 177.186 39.1646 177.226 39.1486C177.266 39.1246 177.33 39.1126 177.418 39.1126H177.61C177.682 39.1126 177.742 39.1366 177.79 39.1846C177.846 39.2246 177.87 39.2806 177.862 39.3526C177.854 39.4646 177.79 39.6046 177.67 39.7726C177.558 39.9326 177.394 40.0926 177.178 40.2526C176.97 40.4126 176.714 40.5446 176.41 40.6486C176.106 40.7526 175.766 40.8046 175.39 40.8046ZM173.494 37.1926H177.31V37.1446C177.31 36.7446 177.234 36.3846 177.082 36.0646C176.93 35.7446 176.71 35.4926 176.422 35.3086C176.134 35.1166 175.79 35.0206 175.39 35.0206C174.99 35.0206 174.646 35.1166 174.358 35.3086C174.078 35.4926 173.862 35.7446 173.71 36.0646C173.566 36.3846 173.494 36.7446 173.494 37.1446V37.1926ZM181.988 40.8046C181.428 40.8046 180.952 40.6966 180.56 40.4806C180.168 40.2566 179.868 39.9366 179.66 39.5206C179.46 39.1046 179.352 38.6126 179.336 38.0446C179.328 37.9246 179.324 37.7646 179.324 37.5646C179.324 37.3646 179.328 37.2046 179.336 37.0846C179.352 36.5086 179.46 36.0166 179.66 35.6086C179.868 35.1926 180.168 34.8766 180.56 34.6606C180.952 34.4366 181.428 34.3246 181.988 34.3246C182.412 34.3246 182.776 34.3846 183.08 34.5046C183.392 34.6166 183.648 34.7686 183.848 34.9606C184.048 35.1446 184.2 35.3486 184.304 35.5726C184.408 35.7966 184.464 36.0166 184.472 36.2326C184.48 36.3126 184.456 36.3766 184.4 36.4246C184.344 36.4726 184.28 36.4966 184.208 36.4966H184.04C183.96 36.4966 183.9 36.4806 183.86 36.4486C183.828 36.4086 183.792 36.3406 183.752 36.2446C183.584 35.7886 183.352 35.4726 183.056 35.2966C182.768 35.1126 182.412 35.0206 181.988 35.0206C181.444 35.0206 180.992 35.1886 180.632 35.5246C180.28 35.8526 180.092 36.3926 180.068 37.1446C180.052 37.4246 180.052 37.7046 180.068 37.9846C180.092 38.7366 180.28 39.2806 180.632 39.6166C180.992 39.9446 181.444 40.1086 181.988 40.1086C182.412 40.1086 182.768 40.0206 183.056 39.8446C183.352 39.6606 183.584 39.3406 183.752 38.8846C183.792 38.7886 183.828 38.7246 183.86 38.6926C183.9 38.6526 183.96 38.6326 184.04 38.6326H184.208C184.28 38.6326 184.344 38.6566 184.4 38.7046C184.456 38.7526 184.48 38.8166 184.472 38.8966C184.464 39.0726 184.428 39.2486 184.364 39.4246C184.3 39.6006 184.2 39.7726 184.064 39.9406C183.936 40.1086 183.776 40.2566 183.584 40.3846C183.392 40.5126 183.16 40.6126 182.888 40.6846C182.624 40.7646 182.324 40.8046 181.988 40.8046ZM186.334 40.6846C186.254 40.6846 186.19 40.6606 186.142 40.6126C186.094 40.5646 186.07 40.5006 186.07 40.4206V32.4286C186.07 32.3486 186.094 32.2846 186.142 32.2366C186.19 32.1886 186.254 32.1646 186.334 32.1646H186.538C186.618 32.1646 186.682 32.1886 186.73 32.2366C186.778 32.2846 186.802 32.3486 186.802 32.4286V35.2726C187.018 34.9926 187.278 34.7646 187.582 34.5886C187.894 34.4126 188.306 34.3246 188.818 34.3246C189.362 34.3246 189.814 34.4446 190.174 34.6846C190.542 34.9166 190.814 35.2366 190.99 35.6446C191.174 36.0446 191.266 36.5006 191.266 37.0126V40.4206C191.266 40.5006 191.242 40.5646 191.194 40.6126C191.146 40.6606 191.082 40.6846 191.002 40.6846H190.798C190.718 40.6846 190.654 40.6606 190.606 40.6126C190.558 40.5646 190.534 40.5006 190.534 40.4206V37.0726C190.534 36.4326 190.378 35.9326 190.066 35.5726C189.754 35.2046 189.298 35.0206 188.698 35.0206C188.13 35.0206 187.67 35.2046 187.318 35.5726C186.974 35.9326 186.802 36.4326 186.802 37.0726V40.4206C186.802 40.5006 186.778 40.5646 186.73 40.6126C186.682 40.6606 186.618 40.6846 186.538 40.6846H186.334ZM194.828 40.8046C194.444 40.8046 194.088 40.7246 193.76 40.5646C193.44 40.4046 193.18 40.1926 192.98 39.9286C192.78 39.6566 192.68 39.3526 192.68 39.0166C192.68 38.4726 192.9 38.0366 193.34 37.7086C193.78 37.3806 194.352 37.1686 195.056 37.0726L196.952 36.8086V36.3886C196.952 35.9646 196.82 35.6326 196.556 35.3926C196.3 35.1446 195.888 35.0206 195.32 35.0206C194.904 35.0206 194.568 35.1046 194.312 35.2726C194.056 35.4326 193.88 35.6446 193.784 35.9086C193.744 36.0286 193.668 36.0886 193.556 36.0886H193.364C193.268 36.0886 193.2 36.0646 193.16 36.0166C193.12 35.9606 193.1 35.8966 193.1 35.8246C193.1 35.7126 193.14 35.5726 193.22 35.4046C193.308 35.2366 193.44 35.0726 193.616 34.9126C193.792 34.7446 194.02 34.6046 194.3 34.4926C194.58 34.3806 194.92 34.3246 195.32 34.3246C195.792 34.3246 196.18 34.3886 196.484 34.5166C196.796 34.6446 197.036 34.8126 197.204 35.0206C197.38 35.2206 197.504 35.4446 197.576 35.6926C197.648 35.9406 197.684 36.1846 197.684 36.4246V40.4206C197.684 40.5006 197.66 40.5646 197.612 40.6126C197.564 40.6606 197.5 40.6846 197.42 40.6846H197.216C197.136 40.6846 197.072 40.6606 197.024 40.6126C196.976 40.5646 196.952 40.5006 196.952 40.4206V39.8566C196.856 40.0006 196.72 40.1446 196.544 40.2886C196.368 40.4326 196.14 40.5566 195.86 40.6606C195.588 40.7566 195.244 40.8046 194.828 40.8046ZM194.948 40.1086C195.316 40.1086 195.652 40.0286 195.956 39.8686C196.26 39.7086 196.5 39.4646 196.676 39.1366C196.86 38.8006 196.952 38.3806 196.952 37.8766V37.4686L195.404 37.6846C194.748 37.7726 194.252 37.9246 193.916 38.1406C193.58 38.3566 193.412 38.6286 193.412 38.9566C193.412 39.2206 193.488 39.4366 193.64 39.6046C193.792 39.7726 193.984 39.9006 194.216 39.9886C194.456 40.0686 194.7 40.1086 194.948 40.1086ZM199.845 40.6846C199.765 40.6846 199.701 40.6606 199.653 40.6126C199.605 40.5646 199.581 40.5006 199.581 40.4206V34.7086C199.581 34.6286 199.605 34.5646 199.653 34.5166C199.701 34.4686 199.765 34.4446 199.845 34.4446H200.049C200.129 34.4446 200.193 34.4686 200.241 34.5166C200.289 34.5646 200.313 34.6286 200.313 34.7086V40.4206C200.313 40.5006 200.289 40.5646 200.241 40.6126C200.193 40.6606 200.129 40.6846 200.049 40.6846H199.845ZM199.713 33.1606C199.633 33.1606 199.569 33.1366 199.521 33.0886C199.473 33.0406 199.449 32.9766 199.449 32.8966V32.4406C199.449 32.3606 199.473 32.2966 199.521 32.2486C199.569 32.1926 199.633 32.1646 199.713 32.1646H200.169C200.249 32.1646 200.313 32.1926 200.361 32.2486C200.417 32.2966 200.445 32.3606 200.445 32.4406V32.8966C200.445 32.9766 200.417 33.0406 200.361 33.0886C200.313 33.1366 200.249 33.1606 200.169 33.1606H199.713ZM202.517 40.6846C202.437 40.6846 202.373 40.6606 202.325 40.6126C202.277 40.5646 202.253 40.5006 202.253 40.4206V34.7086C202.253 34.6286 202.277 34.5646 202.325 34.5166C202.373 34.4686 202.437 34.4446 202.517 34.4446H202.721C202.801 34.4446 202.865 34.4686 202.913 34.5166C202.961 34.5646 202.985 34.6286 202.985 34.7086V35.2726C203.201 34.9926 203.461 34.7646 203.765 34.5886C204.077 34.4126 204.489 34.3246 205.001 34.3246C205.545 34.3246 205.997 34.4446 206.357 34.6846C206.725 34.9166 206.997 35.2366 207.173 35.6446C207.357 36.0446 207.449 36.5006 207.449 37.0126V40.4206C207.449 40.5006 207.425 40.5646 207.377 40.6126C207.329 40.6606 207.265 40.6846 207.185 40.6846H206.981C206.901 40.6846 206.837 40.6606 206.789 40.6126C206.741 40.5646 206.717 40.5006 206.717 40.4206V37.0726C206.717 36.4326 206.561 35.9326 206.249 35.5726C205.937 35.2046 205.481 35.0206 204.881 35.0206C204.313 35.0206 203.853 35.2046 203.501 35.5726C203.157 35.9326 202.985 36.4326 202.985 37.0726V40.4206C202.985 40.5006 202.961 40.5646 202.913 40.6126C202.865 40.6606 202.801 40.6846 202.721 40.6846H202.517ZM212.845 40.6846C212.765 40.6846 212.701 40.6606 212.653 40.6126C212.605 40.5646 212.581 40.5006 212.581 40.4206V32.5486C212.581 32.4686 212.605 32.4046 212.653 32.3566C212.701 32.3086 212.765 32.2846 212.845 32.2846H213.073C213.153 32.2846 213.217 32.3086 213.265 32.3566C213.313 32.4046 213.337 32.4686 213.337 32.5486V39.9646H217.477C217.565 39.9646 217.633 39.9886 217.681 40.0366C217.729 40.0846 217.753 40.1526 217.753 40.2406V40.4206C217.753 40.5006 217.729 40.5646 217.681 40.6126C217.633 40.6606 217.565 40.6846 217.477 40.6846H212.845ZM220.679 40.8046C220.295 40.8046 219.939 40.7246 219.611 40.5646C219.291 40.4046 219.031 40.1926 218.831 39.9286C218.631 39.6566 218.531 39.3526 218.531 39.0166C218.531 38.4726 218.751 38.0366 219.191 37.7086C219.631 37.3806 220.203 37.1686 220.907 37.0726L222.803 36.8086V36.3886C222.803 35.9646 222.671 35.6326 222.407 35.3926C222.151 35.1446 221.739 35.0206 221.171 35.0206C220.755 35.0206 220.419 35.1046 220.163 35.2726C219.907 35.4326 219.731 35.6446 219.635 35.9086C219.595 36.0286 219.519 36.0886 219.407 36.0886H219.215C219.119 36.0886 219.051 36.0646 219.011 36.0166C218.971 35.9606 218.951 35.8966 218.951 35.8246C218.951 35.7126 218.991 35.5726 219.071 35.4046C219.159 35.2366 219.291 35.0726 219.467 34.9126C219.643 34.7446 219.871 34.6046 220.151 34.4926C220.431 34.3806 220.771 34.3246 221.171 34.3246C221.643 34.3246 222.031 34.3886 222.335 34.5166C222.647 34.6446 222.887 34.8126 223.055 35.0206C223.231 35.2206 223.355 35.4446 223.427 35.6926C223.499 35.9406 223.535 36.1846 223.535 36.4246V40.4206C223.535 40.5006 223.511 40.5646 223.463 40.6126C223.415 40.6606 223.351 40.6846 223.271 40.6846H223.067C222.987 40.6846 222.923 40.6606 222.875 40.6126C222.827 40.5646 222.803 40.5006 222.803 40.4206V39.8566C222.707 40.0006 222.571 40.1446 222.395 40.2886C222.219 40.4326 221.991 40.5566 221.711 40.6606C221.439 40.7566 221.095 40.8046 220.679 40.8046ZM220.799 40.1086C221.167 40.1086 221.503 40.0286 221.807 39.8686C222.111 39.7086 222.351 39.4646 222.527 39.1366C222.711 38.8006 222.803 38.3806 222.803 37.8766V37.4686L221.255 37.6846C220.599 37.7726 220.103 37.9246 219.767 38.1406C219.431 38.3566 219.263 38.6286 219.263 38.9566C219.263 39.2206 219.339 39.4366 219.491 39.6046C219.643 39.7726 219.835 39.9006 220.067 39.9886C220.307 40.0686 220.551 40.1086 220.799 40.1086ZM228.193 40.8046C227.697 40.8046 227.285 40.7166 226.957 40.5406C226.637 40.3566 226.377 40.1286 226.177 39.8566V40.4206C226.177 40.5006 226.153 40.5646 226.105 40.6126C226.057 40.6606 225.993 40.6846 225.913 40.6846H225.709C225.629 40.6846 225.565 40.6606 225.517 40.6126C225.469 40.5646 225.445 40.5006 225.445 40.4206V32.4286C225.445 32.3486 225.469 32.2846 225.517 32.2366C225.565 32.1886 225.629 32.1646 225.709 32.1646H225.913C225.993 32.1646 226.057 32.1886 226.105 32.2366C226.153 32.2846 226.177 32.3486 226.177 32.4286V35.2726C226.377 35.0086 226.637 34.7846 226.957 34.6006C227.285 34.4166 227.697 34.3246 228.193 34.3246C228.665 34.3246 229.061 34.4086 229.381 34.5766C229.701 34.7446 229.961 34.9686 230.161 35.2486C230.361 35.5286 230.509 35.8406 230.605 36.1846C230.701 36.5286 230.753 36.8766 230.761 37.2286C230.769 37.3486 230.773 37.4606 230.773 37.5646C230.773 37.6686 230.769 37.7806 230.761 37.9006C230.753 38.2526 230.701 38.6006 230.605 38.9446C230.509 39.2886 230.361 39.6006 230.161 39.8806C229.961 40.1606 229.701 40.3846 229.381 40.5526C229.061 40.7206 228.665 40.8046 228.193 40.8046ZM228.121 40.1086C228.593 40.1086 228.965 40.0046 229.237 39.7966C229.509 39.5886 229.705 39.3166 229.825 38.9806C229.945 38.6446 230.013 38.2846 230.029 37.9006C230.037 37.6766 230.037 37.4526 230.029 37.2286C230.013 36.8446 229.945 36.4846 229.825 36.1486C229.705 35.8126 229.509 35.5406 229.237 35.3326C228.965 35.1246 228.593 35.0206 228.121 35.0206C227.681 35.0206 227.317 35.1246 227.029 35.3326C226.749 35.5406 226.537 35.8006 226.393 36.1126C226.257 36.4246 226.185 36.7406 226.177 37.0606C226.169 37.1806 226.165 37.3366 226.165 37.5286C226.165 37.7206 226.169 37.8766 226.177 37.9966C226.193 38.3246 226.265 38.6526 226.393 38.9806C226.529 39.3006 226.737 39.5686 227.017 39.7846C227.297 40.0006 227.665 40.1086 228.121 40.1086ZM234.374 40.8046C233.958 40.8046 233.598 40.7486 233.294 40.6366C232.998 40.5246 232.754 40.3926 232.562 40.2406C232.37 40.0806 232.226 39.9246 232.13 39.7726C232.042 39.6206 231.994 39.5046 231.986 39.4246C231.978 39.3366 232.006 39.2726 232.07 39.2326C232.134 39.1846 232.194 39.1606 232.25 39.1606H232.43C232.478 39.1606 232.518 39.1686 232.55 39.1846C232.59 39.2006 232.638 39.2446 232.694 39.3166C232.798 39.4526 232.918 39.5846 233.054 39.7126C233.19 39.8326 233.362 39.9286 233.57 40.0006C233.786 40.0726 234.054 40.1086 234.374 40.1086C234.854 40.1086 235.25 40.0166 235.562 39.8326C235.874 39.6486 236.03 39.3766 236.03 39.0166C236.03 38.7926 235.966 38.6126 235.838 38.4766C235.718 38.3406 235.51 38.2206 235.214 38.1166C234.918 38.0126 234.518 37.9046 234.014 37.7926C233.51 37.6726 233.122 37.5286 232.85 37.3606C232.586 37.1926 232.406 37.0006 232.31 36.7846C232.214 36.5606 232.166 36.3206 232.166 36.0646C232.166 35.7846 232.246 35.5126 232.406 35.2486C232.566 34.9766 232.802 34.7566 233.114 34.5886C233.434 34.4126 233.834 34.3246 234.314 34.3246C234.706 34.3246 235.038 34.3766 235.31 34.4806C235.59 34.5846 235.818 34.7126 235.994 34.8646C236.17 35.0086 236.298 35.1526 236.378 35.2966C236.466 35.4406 236.514 35.5566 236.522 35.6446C236.53 35.7246 236.506 35.7886 236.45 35.8366C236.394 35.8846 236.33 35.9086 236.258 35.9086H236.078C236.014 35.9086 235.962 35.8966 235.922 35.8726C235.882 35.8406 235.846 35.8006 235.814 35.7526C235.734 35.6246 235.638 35.5046 235.526 35.3926C235.414 35.2806 235.262 35.1926 235.07 35.1286C234.886 35.0566 234.634 35.0206 234.314 35.0206C233.834 35.0206 233.478 35.1206 233.246 35.3206C233.014 35.5126 232.898 35.7606 232.898 36.0646C232.898 36.2406 232.946 36.3966 233.042 36.5326C233.138 36.6606 233.318 36.7806 233.582 36.8926C233.846 36.9966 234.23 37.1086 234.734 37.2286C235.246 37.3406 235.65 37.4806 235.946 37.6486C236.242 37.8086 236.45 38.0006 236.57 38.2246C236.698 38.4486 236.762 38.7126 236.762 39.0166C236.762 39.3366 236.67 39.6326 236.486 39.9046C236.31 40.1766 236.042 40.3966 235.682 40.5646C235.33 40.7246 234.894 40.8046 234.374 40.8046Z" fill="#5C5C5C"/>
</svg>
