<svg width="50" height="50" viewBox="0 0 50 50" fill="none" xmlns="http://www.w3.org/2000/svg">
<path d="M42.604 42.6041H35.1957V30.9999C35.1957 28.2333 35.1457 24.6708 31.3416 24.6708C27.4832 24.6708 26.8916 27.6875 26.8916 30.7958V42.6041H19.4833V18.7417H26.5957V22.0041H26.6957C28.1457 19.5292 30.8457 18.0458 33.7124 18.15C41.2207 18.15 42.6082 23.0875 42.6082 29.5166L42.604 42.5999V42.6041ZM11.125 15.4792C9.98694 15.4737 8.89702 15.0195 8.09192 14.2152C7.28682 13.4108 6.83155 12.3214 6.82498 11.1834C6.82498 8.82503 8.76663 6.88337 11.125 6.88337C13.4833 6.88337 15.4208 8.82503 15.4249 11.1834C15.4249 13.5417 13.4833 15.4792 11.125 15.4792ZM14.8291 42.6041H7.41247V18.7417H14.8291V42.6041ZM46.2915 6.19299e-05H3.68749C2.72145 -0.005549 1.79223 0.370309 1.10176 1.04596C0.411286 1.72161 0.0153527 2.64245 0 3.60838V46.3916C0.0153527 47.3575 0.411286 48.2783 1.10176 48.954C1.79223 49.6296 2.72145 50.0055 3.68749 49.9999H46.2957C47.2639 50.0077 48.1962 49.6331 48.8898 48.9574C49.5834 48.2818 49.9823 47.3597 49.9998 46.3916V3.60422C49.9823 2.63683 49.5831 1.71559 48.8892 1.04126C48.1954 0.36693 47.2632 -0.00582603 46.2957 0.00422828L46.2915 6.19299e-05Z" fill="#0A66C2"/>
</svg>
