<svg width="523" height="184" viewBox="0 0 523 184" fill="none" xmlns="http://www.w3.org/2000/svg">
<path d="M9.2 47.1132C8.112 47.1132 7.232 46.7932 6.56 46.1532C5.888 45.4812 5.552 44.6012 5.552 43.5132V13.5132H20.576C23.488 13.5132 25.824 14.2172 27.584 15.6252C29.376 17.0012 30.272 18.8412 30.272 21.1452V23.6412C30.272 24.7932 30 25.8812 29.456 26.9052C28.944 27.9292 28.208 28.7612 27.248 29.4012V29.4492C28.784 29.8972 30.016 30.7292 30.944 31.9452C31.904 33.1292 32.384 34.5052 32.384 36.0732V38.4732C32.384 41.0972 31.504 43.1932 29.744 44.7612C28.016 46.3292 25.664 47.1132 22.688 47.1132H9.2ZM21.248 28.2492C22.592 28.2492 23.664 27.8332 24.464 27.0012C25.296 26.1372 25.712 25.0012 25.712 23.5932V21.3852C25.712 20.2332 25.232 19.3052 24.272 18.6012C23.312 17.8972 22.064 17.5452 20.528 17.5452H10.112V28.2492H21.248ZM22.208 43.0812C23.936 43.0812 25.296 42.6492 26.288 41.7852C27.312 40.9212 27.824 39.7692 27.824 38.3292V36.0732C27.824 34.8892 27.392 33.9292 26.528 33.1932C25.664 32.4572 24.528 32.0892 23.12 32.0892H10.112V43.0812H22.208ZM44.0911 47.4972C41.7551 47.4972 39.8671 46.7132 38.4271 45.1452C37.0191 43.5772 36.3151 41.5132 36.3151 38.9532V23.1612H40.7791V39.0492C40.7791 40.3932 41.1151 41.4812 41.7871 42.3132C42.4591 43.1452 43.3391 43.5612 44.4271 43.5612H47.3071C48.6511 43.5612 49.8831 43.0172 51.0031 41.9292C52.1231 40.8412 52.8591 39.4652 53.2111 37.8012V23.1612H57.6751V47.1132H53.4511V43.6572C52.6831 44.7772 51.7231 45.7052 50.5711 46.4412C49.4191 47.1452 48.2831 47.4972 47.1631 47.4972H44.0911ZM66.56 19.9932C65.632 19.9932 64.88 19.7212 64.304 19.1772C63.728 18.6012 63.44 17.8652 63.44 16.9692C63.44 16.0732 63.728 15.3532 64.304 14.8092C64.88 14.2332 65.632 13.9452 66.56 13.9452C67.488 13.9452 68.224 14.2332 68.768 14.8092C69.344 15.3532 69.632 16.0732 69.632 16.9692C69.632 17.8652 69.344 18.6012 68.768 19.1772C68.224 19.7212 67.488 19.9932 66.56 19.9932ZM64.304 23.1612H68.768V47.1132H64.304V23.1612ZM82.5226 47.1132C79.9946 47.1132 78.1706 46.5852 77.0506 45.5292C75.9306 44.4412 75.3706 42.6972 75.3706 40.2972V13.5132H79.8346V40.1532C79.8346 41.2412 80.0586 42.0252 80.5066 42.5052C80.9546 42.9852 81.6906 43.2252 82.7146 43.2252H84.6346V47.1132H82.5226ZM95.5471 47.4972C92.9231 47.4972 90.7951 46.6492 89.1631 44.9532C87.5631 43.2572 86.7631 41.0172 86.7631 38.2332V32.5692C86.7631 30.6492 87.1471 28.9532 87.9151 27.4812C88.6831 25.9772 89.7551 24.8252 91.1311 24.0252C92.5391 23.1932 94.1551 22.7772 95.9791 22.7772H99.2431C100.267 22.7772 101.275 23.0172 102.267 23.4972C103.259 23.9772 104.059 24.6172 104.667 25.4172V13.5132H109.179V47.1132H104.907V43.7052C104.203 44.8252 103.275 45.7372 102.123 46.4412C100.971 47.1452 99.8191 47.4972 98.6671 47.4972H95.5471ZM98.8591 43.5612C100.363 43.5612 101.675 42.9532 102.795 41.7372C103.915 40.4892 104.539 39.0172 104.667 37.3212V31.8972C104.443 30.3292 103.851 29.0812 102.891 28.1532C101.963 27.1932 100.843 26.7132 99.5311 26.7132H96.3151C94.8111 26.7132 93.5791 27.2732 92.6191 28.3932C91.6911 29.4812 91.2271 30.9372 91.2271 32.7612V38.0892C91.2271 39.7212 91.6591 41.0492 92.5231 42.0732C93.4191 43.0652 94.5391 43.5612 95.8831 43.5612H98.8591ZM127.058 13.5132H150.146V17.5452H131.618V28.7292H148.37V32.7612H131.618V47.1132H127.058V13.5132ZM159.737 47.4972C157.401 47.4972 155.513 46.7132 154.073 45.1452C152.665 43.5772 151.961 41.5132 151.961 38.9532V23.1612H156.425V39.0492C156.425 40.3932 156.761 41.4812 157.433 42.3132C158.105 43.1452 158.985 43.5612 160.073 43.5612H162.953C164.297 43.5612 165.529 43.0172 166.649 41.9292C167.769 40.8412 168.505 39.4652 168.857 37.8012V23.1612H173.321V47.1132H169.097V43.6572C168.329 44.7772 167.369 45.7052 166.217 46.4412C165.065 47.1452 163.929 47.4972 162.809 47.4972H159.737ZM188.83 47.1132C186.206 47.1132 184.302 46.5372 183.118 45.3852C181.966 44.2332 181.39 42.3772 181.39 39.8172V27.0492H177.166V23.1612H181.438V15.9132H185.854V23.1612H192.094V27.0492H185.854V39.7212C185.854 40.9692 186.094 41.8652 186.574 42.4092C187.086 42.9532 187.902 43.2252 189.022 43.2252H192.094V47.1132H188.83ZM204.083 47.4972C201.747 47.4972 199.859 46.7132 198.419 45.1452C197.011 43.5772 196.307 41.5132 196.307 38.9532V23.1612H200.771V39.0492C200.771 40.3932 201.107 41.4812 201.779 42.3132C202.451 43.1452 203.331 43.5612 204.419 43.5612H207.299C208.643 43.5612 209.875 43.0172 210.995 41.9292C212.115 40.8412 212.851 39.4652 213.203 37.8012V23.1612H217.667V47.1132H213.443V43.6572C212.675 44.7772 211.715 45.7052 210.563 46.4412C209.411 47.1452 208.275 47.4972 207.155 47.4972H204.083ZM223.432 23.1612H227.704V26.6652C228.344 25.6092 229.272 24.7452 230.488 24.0732C231.736 23.4012 233.032 23.0652 234.376 23.0652H236.872V27.0492H234.376C232.424 27.0492 230.856 27.6572 229.672 28.8732C228.488 30.0572 227.896 31.6252 227.896 33.5772V47.1132H223.432V23.1612ZM247.606 47.4972C244.79 47.4972 242.518 46.6972 240.79 45.0972C239.094 43.4652 238.246 41.3372 238.246 38.7132V32.0892C238.246 29.2732 239.094 27.0172 240.79 25.3212C242.518 23.6252 244.79 22.7772 247.606 22.7772H251.542C254.262 22.7772 256.454 23.6092 258.118 25.2732C259.782 26.9372 260.614 29.1452 260.614 31.8972V36.4092H242.71V38.7132C242.71 40.1852 243.158 41.3692 244.054 42.2652C244.95 43.1612 246.134 43.6092 247.606 43.6092H251.302C252.742 43.6092 253.91 43.2412 254.806 42.5052C255.702 41.7372 256.15 40.7292 256.15 39.4812H260.518C260.518 41.8812 259.67 43.8172 257.974 45.2892C256.278 46.7612 254.038 47.4972 251.254 47.4972H247.606ZM256.15 32.8572V31.8972C256.15 30.2972 255.718 29.0172 254.854 28.0572C254.022 27.0972 252.918 26.6172 251.542 26.6172H247.606C246.134 26.6172 244.95 27.1292 244.054 28.1532C243.158 29.1452 242.71 30.4732 242.71 32.1372V32.8572H256.15ZM264.193 32.8572H277.921V36.7932H264.193V32.8572ZM282.9 13.5132H299.652C302.308 13.5132 304.436 14.2652 306.036 15.7692C307.668 17.2412 308.484 19.2092 308.484 21.6732V26.4732C308.484 29.0652 307.62 31.1612 305.892 32.7612C304.196 34.3292 301.94 35.1132 299.124 35.1132H287.46V47.1132H282.9V13.5132ZM299.028 31.0812C300.5 31.0812 301.684 30.6492 302.58 29.7852C303.476 28.8892 303.924 27.7212 303.924 26.2812V21.7212C303.924 20.4732 303.524 19.4652 302.724 18.6972C301.924 17.9292 300.868 17.5452 299.556 17.5452H287.46V31.0812H299.028ZM312.123 23.1612H316.395V26.6652C317.035 25.6092 317.963 24.7452 319.179 24.0732C320.427 23.4012 321.723 23.0652 323.067 23.0652H325.563V27.0492H323.067C321.115 27.0492 319.547 27.6572 318.363 28.8732C317.179 30.0572 316.587 31.6252 316.587 33.5772V47.1132H312.123V23.1612ZM336.298 47.4972C333.482 47.4972 331.21 46.6492 329.482 44.9532C327.786 43.2572 326.938 41.0332 326.938 38.2812V32.0412C326.938 29.2572 327.802 27.0172 329.53 25.3212C331.258 23.6252 333.546 22.7772 336.394 22.7772H340.426C343.274 22.7772 345.562 23.6252 347.29 25.3212C349.018 27.0172 349.882 29.2572 349.882 32.0412V38.2812C349.882 41.0332 349.002 43.2572 347.242 44.9532C345.514 46.6492 343.226 47.4972 340.378 47.4972H336.298ZM340.33 43.5612C341.866 43.5612 343.098 43.0652 344.026 42.0732C344.954 41.0812 345.418 39.7532 345.418 38.0892V32.1852C345.418 30.5212 344.954 29.1932 344.026 28.2012C343.13 27.2092 341.93 26.7132 340.426 26.7132H336.394C334.89 26.7132 333.674 27.2092 332.746 28.2012C331.85 29.1932 331.402 30.5212 331.402 32.1852V38.0892C331.402 39.7532 331.85 41.0812 332.746 42.0732C333.642 43.0652 334.842 43.5612 336.346 43.5612H340.33ZM363.088 47.4972C360.272 47.4972 358 46.6492 356.272 44.9532C354.576 43.2572 353.728 41.0332 353.728 38.2812V32.0412C353.728 29.2572 354.592 27.0172 356.32 25.3212C358.048 23.6252 360.336 22.7772 363.184 22.7772H367.216C370.064 22.7772 372.352 23.6252 374.08 25.3212C375.808 27.0172 376.672 29.2572 376.672 32.0412V38.2812C376.672 41.0332 375.792 43.2572 374.032 44.9532C372.304 46.6492 370.016 47.4972 367.168 47.4972H363.088ZM367.12 43.5612C368.656 43.5612 369.888 43.0652 370.816 42.0732C371.744 41.0812 372.208 39.7532 372.208 38.0892V32.1852C372.208 30.5212 371.744 29.1932 370.816 28.2012C369.92 27.2092 368.72 26.7132 367.216 26.7132H363.184C361.68 26.7132 360.464 27.2092 359.536 28.2012C358.64 29.1932 358.192 30.5212 358.192 32.1852V38.0892C358.192 39.7532 358.64 41.0812 359.536 42.0732C360.432 43.0652 361.632 43.5612 363.136 43.5612H367.12ZM383.548 27.0492H379.42V23.1612H383.548V21.3852C383.548 18.7612 384.268 16.7612 385.708 15.3852C387.148 14.0092 389.228 13.3212 391.948 13.3212H394.3V17.1612H391.948C390.604 17.1612 389.612 17.5132 388.972 18.2172C388.332 18.8892 388.012 19.9612 388.012 21.4332V23.1612H393.772V27.0492H388.012V47.1132H383.548V27.0492ZM419.009 47.4972C415.905 47.4972 413.425 46.5692 411.569 44.7132C409.713 42.8572 408.785 40.3612 408.785 37.2252H413.249C413.249 39.1132 413.777 40.6172 414.833 41.7372C415.921 42.8572 417.345 43.4172 419.105 43.4172H424.433C426.193 43.4172 427.601 43.0492 428.657 42.3132C429.713 41.5452 430.241 40.5372 430.241 39.2892V36.6972C430.241 35.7052 429.857 34.8732 429.089 34.2012C428.353 33.5292 427.297 33.0812 425.921 32.8572L417.185 31.4172C414.625 31.0012 412.641 30.1212 411.233 28.7772C409.857 27.4332 409.169 25.7532 409.169 23.7372V21.0972C409.169 18.6972 410.081 16.7772 411.905 15.3372C413.761 13.8652 416.193 13.1292 419.201 13.1292H424.625C426.513 13.1292 428.177 13.5292 429.617 14.3292C431.089 15.0972 432.225 16.2012 433.025 17.6412C433.825 19.0492 434.225 20.6812 434.225 22.5372H429.713C429.713 20.9372 429.249 19.6572 428.321 18.6972C427.393 17.7052 426.161 17.2092 424.625 17.2092H419.201C417.569 17.2092 416.241 17.5772 415.217 18.3132C414.225 19.0172 413.729 19.9932 413.729 21.2412V23.4012C413.729 24.4252 414.081 25.2732 414.785 25.9452C415.521 26.6172 416.561 27.0812 417.905 27.3372L426.545 28.8252C429.201 29.2732 431.233 30.1532 432.641 31.4652C434.081 32.7452 434.801 34.3612 434.801 36.3132V39.4332C434.801 41.8652 433.857 43.8172 431.969 45.2892C430.113 46.7612 427.633 47.4972 424.529 47.4972H419.009ZM455.667 47.1132L446.931 36.3612L443.811 39.4332V47.1132H439.347V13.5132H443.811V34.1532L454.899 23.1612H460.227L449.859 33.4332L460.851 47.1132H455.667ZM466.773 19.9932C465.845 19.9932 465.093 19.7212 464.517 19.1772C463.941 18.6012 463.653 17.8652 463.653 16.9692C463.653 16.0732 463.941 15.3532 464.517 14.8092C465.093 14.2332 465.845 13.9452 466.773 13.9452C467.701 13.9452 468.437 14.2332 468.981 14.8092C469.557 15.3532 469.845 16.0732 469.845 16.9692C469.845 17.8652 469.557 18.6012 468.981 19.1772C468.437 19.7212 467.701 19.9932 466.773 19.9932ZM464.517 23.1612H468.981V47.1132H464.517V23.1612ZM482.736 47.1132C480.208 47.1132 478.384 46.5852 477.264 45.5292C476.144 44.4412 475.584 42.6972 475.584 40.2972V13.5132H480.048V40.1532C480.048 41.2412 480.272 42.0252 480.72 42.5052C481.168 42.9852 481.904 43.2252 482.928 43.2252H484.848V47.1132H482.736ZM494.807 47.1132C492.279 47.1132 490.455 46.5852 489.335 45.5292C488.215 44.4412 487.655 42.6972 487.655 40.2972V13.5132H492.119V40.1532C492.119 41.2412 492.343 42.0252 492.791 42.5052C493.239 42.9852 493.975 43.2252 494.999 43.2252H496.919V47.1132H494.807ZM507.399 47.4972C504.807 47.4972 502.727 46.7932 501.159 45.3852C499.591 43.9452 498.807 42.0572 498.807 39.7212H503.175C503.175 40.9052 503.559 41.8652 504.327 42.6012C505.095 43.3372 506.119 43.7052 507.399 43.7052H511.623C512.839 43.7052 513.815 43.4812 514.551 43.0332C515.287 42.5532 515.655 41.9292 515.655 41.1612V39.7692C515.655 39.2572 515.431 38.8092 514.983 38.4252C514.567 38.0092 514.023 37.7372 513.351 37.6092L505.047 36.1692C503.287 35.8492 501.879 35.1932 500.823 34.2012C499.767 33.1772 499.239 31.9932 499.239 30.6492V29.0652C499.239 27.1772 499.991 25.6572 501.495 24.5052C502.999 23.3532 505.015 22.7772 507.543 22.7772H511.575C513.975 22.7772 515.895 23.4332 517.335 24.7452C518.807 26.0572 519.543 27.8012 519.543 29.9772H515.175C515.143 28.9532 514.791 28.1372 514.119 27.5292C513.479 26.8892 512.631 26.5692 511.575 26.5692H507.591C506.407 26.5692 505.463 26.8092 504.759 27.2892C504.087 27.7692 503.751 28.4092 503.751 29.2092V30.4092C503.751 30.9212 503.975 31.3692 504.423 31.7532C504.871 32.1372 505.447 32.4092 506.151 32.5692L514.551 34.0572C516.215 34.3452 517.559 34.9852 518.583 35.9772C519.639 36.9692 520.167 38.1212 520.167 39.4332V41.3052C520.167 43.1612 519.383 44.6652 517.815 45.8172C516.247 46.9372 514.183 47.4972 511.623 47.4972H507.399ZM15.104 105.113C12.48 105.113 10.576 104.537 9.392 103.385C8.24 102.233 7.664 100.377 7.664 97.8172V85.0492H3.44V81.1612H7.712V73.9132H12.128V81.1612H18.368V85.0492H12.128V97.7212C12.128 98.9692 12.368 99.8652 12.848 100.409C13.36 100.953 14.176 101.225 15.296 101.225H18.368V105.113H15.104ZM30.8 105.497C27.984 105.497 25.712 104.649 23.984 102.953C22.288 101.257 21.44 99.0332 21.44 96.2812V90.0412C21.44 87.2572 22.304 85.0172 24.032 83.3212C25.76 81.6252 28.048 80.7772 30.896 80.7772H34.928C37.776 80.7772 40.064 81.6252 41.792 83.3212C43.52 85.0172 44.384 87.2572 44.384 90.0412V96.2812C44.384 99.0332 43.504 101.257 41.744 102.953C40.016 104.649 37.728 105.497 34.88 105.497H30.8ZM34.832 101.561C36.368 101.561 37.6 101.065 38.528 100.073C39.456 99.0812 39.92 97.7532 39.92 96.0892V90.1852C39.92 88.5212 39.456 87.1932 38.528 86.2012C37.632 85.2092 36.432 84.7132 34.928 84.7132H30.896C29.392 84.7132 28.176 85.2092 27.248 86.2012C26.352 87.1932 25.904 88.5212 25.904 90.1852V96.0892C25.904 97.7532 26.352 99.0812 27.248 100.073C28.144 101.065 29.344 101.561 30.848 101.561H34.832ZM64.9606 105.113C63.8726 105.113 62.9926 104.793 62.3206 104.153C61.6486 103.481 61.3126 102.601 61.3126 101.513V71.5132H76.3366C79.2486 71.5132 81.5846 72.2172 83.3446 73.6252C85.1366 75.0012 86.0326 76.8412 86.0326 79.1452V81.6412C86.0326 82.7932 85.7606 83.8812 85.2166 84.9052C84.7046 85.9292 83.9686 86.7612 83.0086 87.4012V87.4492C84.5446 87.8972 85.7766 88.7292 86.7046 89.9452C87.6646 91.1292 88.1446 92.5052 88.1446 94.0732V96.4732C88.1446 99.0972 87.2646 101.193 85.5046 102.761C83.7766 104.329 81.4246 105.113 78.4486 105.113H64.9606ZM77.0086 86.2492C78.3526 86.2492 79.4246 85.8332 80.2246 85.0012C81.0566 84.1372 81.4726 83.0012 81.4726 81.5932V79.3852C81.4726 78.2332 80.9926 77.3052 80.0326 76.6012C79.0726 75.8972 77.8246 75.5452 76.2886 75.5452H65.8726V86.2492H77.0086ZM77.9686 101.081C79.6966 101.081 81.0566 100.649 82.0486 99.7852C83.0726 98.9212 83.5846 97.7692 83.5846 96.3292V94.0732C83.5846 92.8892 83.1526 91.9292 82.2886 91.1932C81.4246 90.4572 80.2886 90.0892 78.8806 90.0892H65.8726V101.081H77.9686ZM100.764 105.497C97.9478 105.497 95.6758 104.649 93.9478 102.953C92.2518 101.257 91.4038 99.0332 91.4038 96.2812V90.0412C91.4038 87.2572 92.2678 85.0172 93.9958 83.3212C95.7238 81.6252 98.0118 80.7772 100.86 80.7772H104.892C107.74 80.7772 110.028 81.6252 111.756 83.3212C113.484 85.0172 114.348 87.2572 114.348 90.0412V96.2812C114.348 99.0332 113.468 101.257 111.708 102.953C109.98 104.649 107.692 105.497 104.844 105.497H100.764ZM104.796 101.561C106.332 101.561 107.564 101.065 108.492 100.073C109.42 99.0812 109.884 97.7532 109.884 96.0892V90.1852C109.884 88.5212 109.42 87.1932 108.492 86.2012C107.596 85.2092 106.396 84.7132 104.892 84.7132H100.86C99.3558 84.7132 98.1398 85.2092 97.2118 86.2012C96.3158 87.1932 95.8678 88.5212 95.8678 90.1852V96.0892C95.8678 97.7532 96.3158 99.0812 97.2118 100.073C98.1078 101.065 99.3078 101.561 100.812 101.561H104.796ZM127.554 105.497C124.738 105.497 122.466 104.649 120.738 102.953C119.042 101.257 118.194 99.0332 118.194 96.2812V90.0412C118.194 87.2572 119.058 85.0172 120.786 83.3212C122.514 81.6252 124.802 80.7772 127.65 80.7772H131.682C134.53 80.7772 136.818 81.6252 138.546 83.3212C140.274 85.0172 141.138 87.2572 141.138 90.0412V96.2812C141.138 99.0332 140.258 101.257 138.498 102.953C136.77 104.649 134.482 105.497 131.634 105.497H127.554ZM131.586 101.561C133.122 101.561 134.354 101.065 135.282 100.073C136.21 99.0812 136.674 97.7532 136.674 96.0892V90.1852C136.674 88.5212 136.21 87.1932 135.282 86.2012C134.386 85.2092 133.186 84.7132 131.682 84.7132H127.65C126.146 84.7132 124.93 85.2092 124.002 86.2012C123.106 87.1932 122.658 88.5212 122.658 90.1852V96.0892C122.658 97.7532 123.106 99.0812 124.002 100.073C124.898 101.065 126.098 101.561 127.602 101.561H131.586ZM153.336 105.497C150.744 105.497 148.664 104.793 147.096 103.385C145.528 101.945 144.744 100.057 144.744 97.7212H149.112C149.112 98.9052 149.496 99.8652 150.264 100.601C151.032 101.337 152.056 101.705 153.336 101.705H157.56C158.776 101.705 159.752 101.481 160.488 101.033C161.224 100.553 161.592 99.9292 161.592 99.1612V97.7692C161.592 97.2572 161.368 96.8092 160.92 96.4252C160.504 96.0092 159.96 95.7372 159.288 95.6092L150.984 94.1692C149.224 93.8492 147.816 93.1932 146.76 92.2012C145.704 91.1772 145.176 89.9932 145.176 88.6492V87.0652C145.176 85.1772 145.928 83.6572 147.432 82.5052C148.936 81.3532 150.952 80.7772 153.48 80.7772H157.512C159.912 80.7772 161.832 81.4332 163.272 82.7452C164.744 84.0572 165.48 85.8012 165.48 87.9772H161.112C161.08 86.9532 160.728 86.1372 160.056 85.5292C159.416 84.8892 158.568 84.5692 157.512 84.5692H153.528C152.344 84.5692 151.4 84.8092 150.696 85.2892C150.024 85.7692 149.688 86.4092 149.688 87.2092V88.4092C149.688 88.9212 149.912 89.3692 150.36 89.7532C150.808 90.1372 151.384 90.4092 152.088 90.5692L160.488 92.0572C162.152 92.3452 163.496 92.9852 164.52 93.9772C165.576 94.9692 166.104 96.1212 166.104 97.4332V99.3052C166.104 101.161 165.32 102.665 163.752 103.817C162.184 104.937 160.12 105.497 157.56 105.497H153.336ZM179.9 105.113C177.276 105.113 175.372 104.537 174.188 103.385C173.036 102.233 172.46 100.377 172.46 97.8172V85.0492H168.236V81.1612H172.508V73.9132H176.924V81.1612H183.164V85.0492H176.924V97.7212C176.924 98.9692 177.164 99.8652 177.644 100.409C178.156 100.953 178.972 101.225 180.092 101.225H183.164V105.113H179.9ZM209.38 92.1532L196.996 71.5132H201.94L211.684 87.9772L221.428 71.5132H226.372L213.988 92.1532V105.113H209.38V92.1532ZM232.535 105.497C229.719 105.497 227.447 104.649 225.719 102.953C224.023 101.257 223.175 99.0332 223.175 96.2812V90.0412C223.175 87.2572 224.039 85.0172 225.767 83.3212C227.495 81.6252 229.783 80.7772 232.631 80.7772H236.663C239.511 80.7772 241.799 81.6252 243.527 83.3212C245.255 85.0172 246.119 87.2572 246.119 90.0412V96.2812C246.119 99.0332 245.239 101.257 243.479 102.953C241.751 104.649 239.463 105.497 236.615 105.497H232.535ZM236.567 101.561C238.103 101.561 239.335 101.065 240.263 100.073C241.191 99.0812 241.655 97.7532 241.655 96.0892V90.1852C241.655 88.5212 241.191 87.1932 240.263 86.2012C239.367 85.2092 238.167 84.7132 236.663 84.7132H232.631C231.127 84.7132 229.911 85.2092 228.983 86.2012C228.087 87.1932 227.639 88.5212 227.639 90.1852V96.0892C227.639 97.7532 228.087 99.0812 228.983 100.073C229.879 101.065 231.079 101.561 232.583 101.561H236.567ZM258.413 105.497C256.077 105.497 254.189 104.713 252.749 103.145C251.341 101.577 250.637 99.5132 250.637 96.9532V81.1612H255.101V97.0492C255.101 98.3932 255.437 99.4812 256.109 100.313C256.781 101.145 257.661 101.561 258.749 101.561H261.629C262.973 101.561 264.205 101.017 265.325 99.9292C266.445 98.8412 267.181 97.4652 267.533 95.8012V81.1612H271.997V105.113H267.773V101.657C267.005 102.777 266.045 103.705 264.893 104.441C263.741 105.145 262.605 105.497 261.485 105.497H258.413ZM277.762 81.1612H282.034V84.6652C282.674 83.6092 283.602 82.7452 284.818 82.0732C286.066 81.4012 287.362 81.0652 288.706 81.0652H291.202V85.0492H288.706C286.754 85.0492 285.186 85.6572 284.002 86.8732C282.818 88.0572 282.226 89.6252 282.226 91.5772V105.113H277.762V81.1612ZM316.825 105.497C314.585 105.497 312.601 104.985 310.873 103.961C309.145 102.937 307.801 101.497 306.841 99.6412C305.913 97.7532 305.449 95.5772 305.449 93.1132V83.5132C305.449 81.0492 305.929 78.8892 306.889 77.0332C307.849 75.1452 309.193 73.6892 310.921 72.6652C312.681 71.6412 314.713 71.1292 317.017 71.1292H322.105C324.281 71.1292 326.201 71.6092 327.865 72.5692C329.561 73.4972 330.857 74.8092 331.753 76.5052C332.681 78.2012 333.145 80.1532 333.145 82.3612H328.681C328.681 80.2172 328.073 78.4892 326.857 77.1772C325.673 75.8652 324.089 75.2092 322.105 75.2092H317.017C314.937 75.2092 313.241 75.9772 311.929 77.5132C310.649 79.0492 310.009 81.0812 310.009 83.6092V93.0172C310.009 95.5452 310.633 97.5772 311.881 99.1132C313.129 100.649 314.777 101.417 316.825 101.417H322.009C324.057 101.417 325.689 100.697 326.905 99.2572C328.153 97.7852 328.777 95.8652 328.777 93.4972H333.241C333.241 95.8652 332.777 97.9612 331.849 99.7852C330.921 101.609 329.609 103.017 327.913 104.009C326.217 105.001 324.249 105.497 322.009 105.497H316.825ZM344.518 105.497C342.118 105.497 340.198 104.889 338.758 103.673C337.318 102.425 336.598 100.777 336.598 98.7292V97.1452C336.598 95.1292 337.35 93.5132 338.854 92.2972C340.358 91.0492 342.326 90.4252 344.758 90.4252H347.782C348.742 90.4252 349.766 90.5692 350.854 90.8572C351.942 91.1452 352.87 91.5452 353.638 92.0572V88.5532C353.638 87.3692 353.27 86.4252 352.534 85.7212C351.798 84.9852 350.838 84.6172 349.654 84.6172H345.718C344.502 84.6172 343.526 84.9052 342.79 85.4812C342.054 86.0572 341.686 86.8092 341.686 87.7372H337.27C337.27 85.6572 338.038 83.9772 339.574 82.6972C341.142 81.4172 343.19 80.7772 345.718 80.7772H349.654C352.182 80.7772 354.214 81.4972 355.75 82.9372C357.286 84.3452 358.054 86.2172 358.054 88.5532V105.113H353.878V101.897C353.142 102.985 352.182 103.865 350.998 104.537C349.814 105.177 348.614 105.497 347.398 105.497H344.518ZM347.638 101.801C349.046 101.801 350.294 101.401 351.382 100.601C352.47 99.7692 353.222 98.6652 353.638 97.2892V95.8492C353.03 95.3052 352.198 94.8732 351.142 94.5532C350.086 94.2332 348.998 94.0732 347.878 94.0732H344.806C343.686 94.0732 342.774 94.3612 342.07 94.9372C341.366 95.5132 341.014 96.2812 341.014 97.2412V98.6812C341.014 99.6412 341.35 100.409 342.022 100.985C342.726 101.529 343.654 101.801 344.806 101.801H347.638ZM363.547 81.1612H367.819V84.6652C368.459 83.6092 369.387 82.7452 370.603 82.0732C371.851 81.4012 373.147 81.0652 374.491 81.0652H376.987V85.0492H374.491C372.539 85.0492 370.971 85.6572 369.787 86.8732C368.603 88.0572 368.011 89.6252 368.011 91.5772V105.113H363.547V81.1612ZM387.721 105.497C384.905 105.497 382.633 104.697 380.905 103.097C379.209 101.465 378.361 99.3372 378.361 96.7132V90.0892C378.361 87.2732 379.209 85.0172 380.905 83.3212C382.633 81.6252 384.905 80.7772 387.721 80.7772H391.657C394.377 80.7772 396.569 81.6092 398.233 83.2732C399.897 84.9372 400.729 87.1452 400.729 89.8972V94.4092H382.825V96.7132C382.825 98.1852 383.273 99.3692 384.169 100.265C385.065 101.161 386.249 101.609 387.721 101.609H391.417C392.857 101.609 394.025 101.241 394.921 100.505C395.817 99.7372 396.265 98.7292 396.265 97.4812H400.633C400.633 99.8812 399.785 101.817 398.089 103.289C396.393 104.761 394.153 105.497 391.369 105.497H387.721ZM396.265 90.8572V89.8972C396.265 88.2972 395.833 87.0172 394.969 86.0572C394.137 85.0972 393.033 84.6172 391.657 84.6172H387.721C386.249 84.6172 385.065 85.1292 384.169 86.1532C383.273 87.1452 382.825 88.4732 382.825 90.1372V90.8572H396.265ZM413.668 105.497C410.852 105.497 408.58 104.697 406.852 103.097C405.156 101.465 404.308 99.3372 404.308 96.7132V90.0892C404.308 87.2732 405.156 85.0172 406.852 83.3212C408.58 81.6252 410.852 80.7772 413.668 80.7772H417.604C420.324 80.7772 422.516 81.6092 424.18 83.2732C425.844 84.9372 426.676 87.1452 426.676 89.8972V94.4092H408.772V96.7132C408.772 98.1852 409.22 99.3692 410.116 100.265C411.012 101.161 412.196 101.609 413.668 101.609H417.364C418.804 101.609 419.972 101.241 420.868 100.505C421.764 99.7372 422.212 98.7292 422.212 97.4812H426.58C426.58 99.8812 425.732 101.817 424.036 103.289C422.34 104.761 420.1 105.497 417.316 105.497H413.668ZM422.212 90.8572V89.8972C422.212 88.2972 421.78 87.0172 420.916 86.0572C420.084 85.0972 418.98 84.6172 417.604 84.6172H413.668C412.196 84.6172 411.012 85.1292 410.116 86.1532C409.22 87.1452 408.772 88.4732 408.772 90.1372V90.8572H422.212ZM431.214 81.1612H435.486V84.6652C436.126 83.6092 437.054 82.7452 438.27 82.0732C439.518 81.4012 440.814 81.0652 442.158 81.0652H444.654V85.0492H442.158C440.206 85.0492 438.638 85.6572 437.454 86.8732C436.27 88.0572 435.678 89.6252 435.678 91.5772V105.113H431.214V81.1612ZM462.789 77.9932C461.861 77.9932 461.109 77.7212 460.533 77.1772C459.957 76.6012 459.669 75.8652 459.669 74.9692C459.669 74.0732 459.957 73.3532 460.533 72.8092C461.109 72.2332 461.861 71.9452 462.789 71.9452C463.717 71.9452 464.453 72.2332 464.997 72.8092C465.573 73.3532 465.861 74.0732 465.861 74.9692C465.861 75.8652 465.573 76.6012 464.997 77.1772C464.453 77.7212 463.717 77.9932 462.789 77.9932ZM460.533 81.1612H464.997V105.113H460.533V81.1612ZM471.599 81.1612H475.871V84.4732C476.575 83.3852 477.503 82.5052 478.655 81.8332C479.839 81.1292 481.007 80.7772 482.159 80.7772H485.327C487.631 80.7772 489.487 81.5452 490.895 83.0812C492.335 84.6172 493.055 86.6332 493.055 89.1292V105.113H488.591V89.1292C488.591 87.8172 488.255 86.7612 487.583 85.9612C486.911 85.1292 486.031 84.7132 484.943 84.7132H481.967C480.591 84.7132 479.343 85.2412 478.223 86.2972C477.103 87.3532 476.383 88.7292 476.063 90.4252V105.113H471.599V81.1612ZM8.864 135.993C7.936 135.993 7.184 135.721 6.608 135.177C6.032 134.601 5.744 133.865 5.744 132.969C5.744 132.073 6.032 131.353 6.608 130.809C7.184 130.233 7.936 129.945 8.864 129.945C9.792 129.945 10.528 130.233 11.072 130.809C11.648 131.353 11.936 132.073 11.936 132.969C11.936 133.865 11.648 134.601 11.072 135.177C10.528 135.721 9.792 135.993 8.864 135.993ZM0.272 168.777H2.384C3.888 168.777 4.96 168.345 5.6 167.481C6.272 166.649 6.608 165.289 6.608 163.401V139.161H11.072V163.161C11.072 166.489 10.384 168.905 9.008 170.409C7.664 171.913 5.456 172.665 2.384 172.665H0.272V168.777ZM25.2005 163.497C22.8645 163.497 20.9765 162.713 19.5365 161.145C18.1285 159.577 17.4245 157.513 17.4245 154.953V139.161H21.8885V155.049C21.8885 156.393 22.2245 157.481 22.8965 158.313C23.5685 159.145 24.4485 159.561 25.5365 159.561H28.4165C29.7605 159.561 30.9925 159.017 32.1125 157.929C33.2325 156.841 33.9685 155.465 34.3205 153.801V139.161H38.7845V163.113H34.5605V159.657C33.7925 160.777 32.8325 161.705 31.6805 162.441C30.5285 163.145 29.3925 163.497 28.2725 163.497H25.2005ZM51.9414 163.497C49.3494 163.497 47.2694 162.793 45.7014 161.385C44.1334 159.945 43.3494 158.057 43.3494 155.721H47.7174C47.7174 156.905 48.1014 157.865 48.8694 158.601C49.6374 159.337 50.6614 159.705 51.9414 159.705H56.1654C57.3814 159.705 58.3574 159.481 59.0934 159.033C59.8294 158.553 60.1974 157.929 60.1974 157.161V155.769C60.1974 155.257 59.9734 154.809 59.5254 154.425C59.1094 154.009 58.5654 153.737 57.8934 153.609L49.5894 152.169C47.8294 151.849 46.4214 151.193 45.3654 150.201C44.3094 149.177 43.7814 147.993 43.7814 146.649V145.065C43.7814 143.177 44.5334 141.657 46.0374 140.505C47.5414 139.353 49.5574 138.777 52.0854 138.777H56.1174C58.5174 138.777 60.4374 139.433 61.8774 140.745C63.3494 142.057 64.0854 143.801 64.0854 145.977H59.7174C59.6854 144.953 59.3334 144.137 58.6614 143.529C58.0214 142.889 57.1734 142.569 56.1174 142.569H52.1334C50.9494 142.569 50.0054 142.809 49.3014 143.289C48.6294 143.769 48.2934 144.409 48.2934 145.209V146.409C48.2934 146.921 48.5174 147.369 48.9654 147.753C49.4134 148.137 49.9894 148.409 50.6934 148.569L59.0934 150.057C60.7574 150.345 62.1014 150.985 63.1254 151.977C64.1814 152.969 64.7094 154.121 64.7094 155.433V157.305C64.7094 159.161 63.9254 160.665 62.3574 161.817C60.7894 162.937 58.7254 163.497 56.1654 163.497H51.9414ZM78.5052 163.113C75.8812 163.113 73.9772 162.537 72.7932 161.385C71.6412 160.233 71.0652 158.377 71.0652 155.817V143.049H66.8412V139.161H71.1132V131.913H75.5292V139.161H81.7692V143.049H75.5292V155.721C75.5292 156.969 75.7692 157.865 76.2492 158.409C76.7612 158.953 77.5772 159.225 78.6972 159.225H81.7692V163.113H78.5052Z" fill="#333333"/>
<g filter="url(#filter0_d_171_2340)">
<path d="M252.816 162.955C252.916 165.81 250.682 168.205 247.827 168.305L103.088 173.359C100.233 173.459 97.838 171.225 97.7383 168.37L96.3543 128.739C96.2546 125.885 98.4882 123.489 101.343 123.39L232.35 118.815C233.697 118.768 235.01 119.249 236.008 120.156L250.208 133.057C251.241 133.995 251.851 135.31 251.899 136.705L252.816 162.955Z" fill="#059E93"/>
<g filter="url(#filter1_d_171_2340)">
<path d="M251.823 134.524L234.452 118.741L234.607 135.557L251.823 134.524Z" fill="#B2F5F0"/>
</g>
<path d="M121.948 160.28C120.409 160.334 119.042 160.048 117.847 159.423C116.675 158.797 115.746 157.886 115.06 156.691C114.374 155.473 114.003 154.071 113.947 152.486L113.648 143.905C113.591 142.274 113.851 140.85 114.43 139.634C115.031 138.393 115.894 137.432 117.02 136.748C118.146 136.042 119.467 135.662 120.983 135.609L123.947 135.506C125.923 135.437 127.541 135.99 128.801 137.165C130.061 138.34 130.726 139.927 130.796 141.926L127.591 142.038C127.552 140.912 127.199 140.027 126.532 139.383C125.888 138.716 125.06 138.4 124.049 138.435L121.085 138.538C119.753 138.585 118.712 139.081 117.963 140.028C117.213 140.951 116.866 142.205 116.921 143.79L117.053 147.547C117.619 146.653 118.377 145.948 119.325 145.432C120.295 144.892 121.286 144.604 122.297 144.569L124.537 144.491C126.673 144.416 128.396 145 129.704 146.242C131.035 147.461 131.737 149.104 131.809 151.172L131.856 152.516C131.907 153.986 131.631 155.296 131.027 156.444C130.445 157.568 129.579 158.461 128.429 159.122C127.302 159.783 125.98 160.139 124.464 160.192L121.948 160.28ZM124.364 157.332C125.674 157.286 126.716 156.836 127.491 155.981C128.266 155.126 128.63 154.009 128.582 152.63L128.534 151.252C128.491 150.034 128.112 149.07 127.398 148.359C126.683 147.648 125.751 147.312 124.602 147.352L122.328 147.432C121.041 147.477 119.942 147.94 119.029 148.823C118.14 149.706 117.591 150.783 117.383 152.055L117.426 153.296C117.471 154.582 117.897 155.603 118.706 156.357C119.537 157.11 120.608 157.463 121.917 157.418L124.364 157.332ZM164.959 141.285L161.863 156.368C161.707 157.155 161.44 157.74 161.062 158.121C160.683 158.479 160.184 158.669 159.564 158.691L158.082 158.742L153.482 146.585L149.639 159.037L148.157 159.089C147.536 159.111 147.025 158.956 146.622 158.625C146.219 158.271 145.912 157.707 145.701 156.932L141.525 142.103L144.903 141.985L148.191 155.12L152.121 142.182L153.327 142.14C153.74 142.125 154.077 142.217 154.337 142.415C154.596 142.59 154.802 142.882 154.954 143.29L159.22 154.769L161.582 141.403L164.959 141.285ZM173.83 158.468C171.808 158.539 170.157 158.022 168.876 156.916C167.618 155.787 166.956 154.281 166.89 152.397L166.724 147.641C166.653 145.619 167.205 143.978 168.381 142.718C169.579 141.457 171.189 140.791 173.21 140.721L176.036 140.622C177.989 140.554 179.584 141.096 180.82 142.249C182.056 143.402 182.709 144.966 182.778 146.942L182.891 150.182L170.037 150.631L170.095 152.285C170.132 153.342 170.483 154.18 171.149 154.801C171.815 155.422 172.676 155.714 173.733 155.677L176.386 155.584C177.42 155.548 178.249 155.255 178.874 154.704C179.498 154.13 179.795 153.395 179.763 152.499L182.899 152.39C182.96 154.113 182.399 155.524 181.218 156.623C180.038 157.723 178.448 158.307 176.449 158.377L173.83 158.468ZM179.597 147.743L179.573 147.054C179.533 145.905 179.191 144.997 178.546 144.33C177.925 143.661 177.12 143.344 176.132 143.379L173.307 143.478C172.25 143.515 171.413 143.912 170.795 144.669C170.177 145.404 169.888 146.369 169.93 147.563L169.948 148.08L179.597 147.743ZM192.458 157.818C190.437 157.889 188.785 157.371 187.505 156.266C186.246 155.137 185.584 153.63 185.518 151.746L185.352 146.99C185.281 144.969 185.834 143.328 187.009 142.068C188.207 140.807 189.817 140.141 191.839 140.07L194.664 139.972C196.617 139.903 198.212 140.446 199.448 141.599C200.685 142.752 201.337 144.316 201.406 146.292L201.519 149.531L188.665 149.98L188.723 151.634C188.76 152.691 189.111 153.53 189.777 154.151C190.443 154.772 191.304 155.063 192.361 155.027L195.014 154.934C196.048 154.898 196.878 154.604 197.502 154.053C198.126 153.48 198.423 152.745 198.392 151.849L201.528 151.739C201.588 153.462 201.027 154.873 199.847 155.973C198.666 157.072 197.076 157.657 195.077 157.727L192.458 157.818ZM198.225 147.093L198.201 146.404C198.161 145.255 197.819 144.347 197.175 143.679C196.553 143.011 195.749 142.694 194.761 142.728L191.935 142.827C190.878 142.864 190.041 143.261 189.423 144.019C188.805 144.754 188.516 145.718 188.558 146.913L188.576 147.43L198.225 147.093ZM216.763 156.693L210.221 149.193L208.058 151.477L208.251 156.99L205.046 157.102L204.204 132.979L207.409 132.867L207.926 147.686L215.611 139.516L219.436 139.382L212.25 147.017L220.485 156.563L216.763 156.693ZM227.275 156.602C225.414 156.667 223.903 156.214 222.742 155.242C221.58 154.248 220.97 152.912 220.911 151.235L224.047 151.125C224.077 151.975 224.376 152.655 224.946 153.164C225.516 153.673 226.261 153.912 227.18 153.88L230.212 153.774C231.085 153.743 231.78 153.558 232.298 153.218C232.814 152.855 233.062 152.398 233.043 151.846L233.008 150.847C232.995 150.479 232.823 150.163 232.492 149.899C232.183 149.611 231.786 149.429 231.3 149.354L225.302 148.528C224.03 148.343 223.003 147.907 222.22 147.221C221.436 146.512 221.027 145.676 220.994 144.711L220.954 143.573C220.907 142.218 221.408 141.108 222.459 140.243C223.51 139.378 224.943 138.914 226.758 138.851L229.653 138.75C231.376 138.69 232.771 139.112 233.838 140.018C234.928 140.923 235.5 142.157 235.554 143.719L232.418 143.829C232.37 143.094 232.096 142.517 231.599 142.098C231.123 141.654 230.506 141.446 229.748 141.472L226.888 141.572C226.038 141.602 225.366 141.798 224.873 142.16C224.402 142.521 224.177 142.989 224.197 143.564L224.227 144.425C224.24 144.793 224.412 145.109 224.743 145.373C225.075 145.638 225.495 145.819 226.004 145.916L232.072 146.774C233.274 146.939 234.255 147.364 235.015 148.051C235.798 148.737 236.206 149.551 236.239 150.492L236.286 151.836C236.333 153.169 235.808 154.268 234.711 155.135C233.613 155.978 232.145 156.432 230.307 156.496L227.275 156.602Z" fill="white"/>
</g>
<path d="M231.089 175.756L252.75 160.888L262.655 154.089C265.168 152.364 265.785 148.918 264.026 146.429V146.429C262.315 144.008 258.986 143.393 256.523 145.041L226.879 164.878L218.608 170.705C217.115 171.757 216.582 173.723 217.34 175.385V175.385C218.346 177.591 221.133 178.302 223.073 176.848L234.398 168.356L249.013 157.694" stroke="#093BAA" stroke-width="1.94793" stroke-linecap="round"/>
<path d="M252.785 163.392L252.615 158.4L239.27 168.554L244.092 168.486L252.785 163.392Z" fill="#059E93"/>
<defs>
<filter id="filter0_d_171_2340" x="88.3511" y="112.741" width="172.468" height="70.621" filterUnits="userSpaceOnUse" color-interpolation-filters="sRGB">
<feFlood flood-opacity="0" result="BackgroundImageFix"/>
<feColorMatrix in="SourceAlpha" type="matrix" values="0 0 0 0 0 0 0 0 0 0 0 0 0 0 0 0 0 0 127 0" result="hardAlpha"/>
<feOffset dy="2"/>
<feGaussianBlur stdDeviation="4"/>
<feComposite in2="hardAlpha" operator="out"/>
<feColorMatrix type="matrix" values="0 0 0 0 0 0 0 0 0 0 0 0 0 0 0 0 0 0 0.15 0"/>
<feBlend mode="normal" in2="BackgroundImageFix" result="effect1_dropShadow_171_2340"/>
<feBlend mode="normal" in="SourceGraphic" in2="effect1_dropShadow_171_2340" result="shape"/>
</filter>
<filter id="filter1_d_171_2340" x="229.279" y="117.017" width="31.1648" height="30.6083" filterUnits="userSpaceOnUse" color-interpolation-filters="sRGB">
<feFlood flood-opacity="0" result="BackgroundImageFix"/>
<feColorMatrix in="SourceAlpha" type="matrix" values="0 0 0 0 0 0 0 0 0 0 0 0 0 0 0 0 0 0 127 0" result="hardAlpha"/>
<feOffset dx="1.72414" dy="5.17241"/>
<feGaussianBlur stdDeviation="3.44828"/>
<feComposite in2="hardAlpha" operator="out"/>
<feColorMatrix type="matrix" values="0 0 0 0 0 0 0 0 0 0 0 0 0 0 0 0 0 0 0.35 0"/>
<feBlend mode="normal" in2="BackgroundImageFix" result="effect1_dropShadow_171_2340"/>
<feBlend mode="normal" in="SourceGraphic" in2="effect1_dropShadow_171_2340" result="shape"/>
</filter>
</defs>
</svg>
