<svg width="620" height="116" viewBox="0 0 620 116" fill="none" xmlns="http://www.w3.org/2000/svg">
<g filter="url(#filter0_d_146_43)">
<rect y="0.000488281" width="110" height="110" rx="6" fill="white" shape-rendering="crispEdges"/>
<rect x="0.5" y="0.500488" width="109" height="109" rx="5.5" stroke="#151515" shape-rendering="crispEdges"/>
<path d="M45.5441 49.5145H31.7901C29.7355 49.5145 28.7081 48.7325 28.7081 47.1685V46.1105L45.6821 23.8005H49.9601V45.6505H54.0081V49.5145H49.9601V56.0005H45.5441V49.5145ZM45.6821 45.7425V29.8265H45.6361L33.6301 45.7425H45.6821ZM65.7245 56.3685C62.9338 56.3685 60.7105 55.5405 59.0545 53.8845C57.3985 52.2285 56.5705 50.0052 56.5705 47.2145H60.8485C60.8485 48.8092 61.2931 50.0818 62.1825 51.0325C63.0718 51.9832 64.2525 52.4585 65.7245 52.4585H70.1405C71.7658 52.4585 73.0845 51.9832 74.0965 51.0325C75.1085 50.0818 75.6145 48.8245 75.6145 47.2605V44.5465C75.6145 43.1052 75.0931 41.9398 74.0505 41.0505C73.0385 40.1612 71.6891 39.7165 70.0025 39.7165H57.7205V23.8005H78.7885V27.7105H62.0905V35.8525H70.0025C73.0078 35.8525 75.4151 36.6498 77.2245 38.2445C79.0645 39.8085 79.9845 41.9092 79.9845 44.5465V47.2605C79.9845 49.0698 79.5705 50.6645 78.7425 52.0445C77.9451 53.4245 76.7951 54.4978 75.2925 55.2645C73.8205 56.0005 72.1031 56.3685 70.1405 56.3685H65.7245Z" fill="#151515"/>
<path d="M39.1451 80.0005C39.0384 80.0005 38.9531 79.9685 38.8891 79.9045C38.8251 79.8405 38.7931 79.7552 38.7931 79.6485V69.1685C38.7931 69.0512 38.8251 68.9605 38.8891 68.8965C38.9531 68.8325 39.0384 68.8005 39.1451 68.8005H42.5531C43.6837 68.8005 44.5691 68.9658 45.2091 69.2965C45.8491 69.6272 46.3024 70.1178 46.5691 70.7685C46.8464 71.4085 46.9904 72.1925 47.0011 73.1205C47.0117 73.6005 47.0171 74.0272 47.0171 74.4005C47.0171 74.7632 47.0117 75.1845 47.0011 75.6645C46.9797 76.6458 46.8357 77.4565 46.5691 78.0965C46.3024 78.7365 45.8544 79.2165 45.2251 79.5365C44.5957 79.8458 43.7317 80.0005 42.6331 80.0005H39.1451ZM39.8011 79.0405H42.5531C43.4064 79.0405 44.0784 78.9285 44.5691 78.7045C45.0704 78.4698 45.4277 78.1018 45.6411 77.6005C45.8651 77.0885 45.9824 76.4165 45.9931 75.5845C46.0037 75.2645 46.0091 74.9872 46.0091 74.7525C46.0091 74.5072 46.0091 74.2672 46.0091 74.0325C46.0091 73.7978 46.0037 73.5205 45.9931 73.2005C45.9717 72.0272 45.6997 71.1632 45.1771 70.6085C44.6544 70.0432 43.7531 69.7605 42.4731 69.7605H39.8011V79.0405ZM51.6532 80.1605C51.1412 80.1605 50.6665 80.0538 50.2292 79.8405C49.8025 79.6272 49.4559 79.3445 49.1892 78.9925C48.9225 78.6298 48.7892 78.2245 48.7892 77.7765C48.7892 77.0512 49.0825 76.4698 49.6692 76.0325C50.2559 75.5952 51.0185 75.3125 51.9572 75.1845L54.4852 74.8325V74.2725C54.4852 73.7072 54.3092 73.2645 53.9572 72.9445C53.6159 72.6138 53.0665 72.4485 52.3092 72.4485C51.7545 72.4485 51.3065 72.5605 50.9652 72.7845C50.6239 72.9978 50.3892 73.2805 50.2612 73.6325C50.2079 73.7925 50.1065 73.8725 49.9572 73.8725H49.7012C49.5732 73.8725 49.4825 73.8405 49.4292 73.7765C49.3759 73.7018 49.3492 73.6165 49.3492 73.5205C49.3492 73.3712 49.4025 73.1845 49.5092 72.9605C49.6265 72.7365 49.8025 72.5178 50.0372 72.3045C50.2719 72.0805 50.5759 71.8938 50.9492 71.7445C51.3225 71.5952 51.7759 71.5205 52.3092 71.5205C52.9385 71.5205 53.4559 71.6058 53.8612 71.7765C54.2772 71.9472 54.5972 72.1712 54.8212 72.4485C55.0559 72.7152 55.2212 73.0138 55.3172 73.3445C55.4132 73.6752 55.4612 74.0005 55.4612 74.3205V79.6485C55.4612 79.7552 55.4292 79.8405 55.3652 79.9045C55.3012 79.9685 55.2159 80.0005 55.1092 80.0005H54.8372C54.7305 80.0005 54.6452 79.9685 54.5812 79.9045C54.5172 79.8405 54.4852 79.7552 54.4852 79.6485V78.8965C54.3572 79.0885 54.1759 79.2805 53.9412 79.4725C53.7065 79.6645 53.4025 79.8298 53.0292 79.9685C52.6665 80.0965 52.2079 80.1605 51.6532 80.1605ZM51.8132 79.2325C52.3039 79.2325 52.7519 79.1258 53.1572 78.9125C53.5625 78.6992 53.8825 78.3738 54.1172 77.9365C54.3625 77.4885 54.4852 76.9285 54.4852 76.2565V75.7125L52.4212 76.0005C51.5465 76.1178 50.8852 76.3205 50.4372 76.6085C49.9892 76.8965 49.7652 77.2592 49.7652 77.6965C49.7652 78.0485 49.8665 78.3365 50.0692 78.5605C50.2719 78.7845 50.5279 78.9552 50.8372 79.0725C51.1572 79.1792 51.4825 79.2325 51.8132 79.2325ZM59.2587 83.0405C59.1734 83.0405 59.0987 83.0085 59.0347 82.9445C58.9707 82.8805 58.9387 82.8058 58.9387 82.7205C58.9387 82.6778 58.944 82.6298 58.9547 82.5765C58.976 82.5338 59.0027 82.4752 59.0347 82.4005L60.2667 79.5205L57.2107 72.3205C57.1467 72.1605 57.1147 72.0538 57.1147 72.0005C57.1147 71.9152 57.1467 71.8405 57.2107 71.7765C57.2747 71.7125 57.3494 71.6805 57.4347 71.6805H57.7707C57.8774 71.6805 57.9574 71.7072 58.0107 71.7605C58.0747 71.8032 58.1174 71.8565 58.1387 71.9205L60.8267 78.2565L63.5787 71.9205C63.6107 71.8565 63.6534 71.8032 63.7067 71.7605C63.76 71.7072 63.84 71.6805 63.9467 71.6805H64.2667C64.352 71.6805 64.4267 71.7125 64.4907 71.7765C64.5547 71.8405 64.5867 71.9152 64.5867 72.0005C64.5867 72.0538 64.5547 72.1605 64.4907 72.3205L59.9467 82.8005C59.9147 82.8645 59.872 82.9178 59.8187 82.9605C59.7654 83.0138 59.6854 83.0405 59.5787 83.0405H59.2587ZM68.7719 80.1605C68.2173 80.1605 67.7373 80.0858 67.3319 79.9365C66.9373 79.7872 66.6119 79.6112 66.3559 79.4085C66.0999 79.1952 65.9079 78.9872 65.7799 78.7845C65.6626 78.5818 65.5986 78.4272 65.5879 78.3205C65.5773 78.2032 65.6146 78.1178 65.6999 78.0645C65.7853 78.0005 65.8653 77.9685 65.9399 77.9685H66.1799C66.2439 77.9685 66.2973 77.9792 66.3399 78.0005C66.3933 78.0218 66.4573 78.0805 66.5319 78.1765C66.6706 78.3578 66.8306 78.5338 67.0119 78.7045C67.1933 78.8645 67.4226 78.9925 67.6999 79.0885C67.9879 79.1845 68.3453 79.2325 68.7719 79.2325C69.4119 79.2325 69.9399 79.1098 70.3559 78.8645C70.7719 78.6192 70.9799 78.2565 70.9799 77.7765C70.9799 77.4778 70.8946 77.2378 70.7239 77.0565C70.5639 76.8752 70.2866 76.7152 69.8919 76.5765C69.4973 76.4378 68.9639 76.2938 68.2919 76.1445C67.6199 75.9845 67.1026 75.7925 66.7399 75.5685C66.3879 75.3445 66.1479 75.0885 66.0199 74.8005C65.8919 74.5018 65.8279 74.1818 65.8279 73.8405C65.8279 73.4672 65.9346 73.1045 66.1479 72.7525C66.3613 72.3898 66.6759 72.0965 67.0919 71.8725C67.5186 71.6378 68.0519 71.5205 68.6919 71.5205C69.2146 71.5205 69.6573 71.5898 70.0199 71.7285C70.3933 71.8672 70.6973 72.0378 70.9319 72.2405C71.1666 72.4325 71.3373 72.6245 71.4439 72.8165C71.5613 73.0085 71.6253 73.1632 71.6359 73.2805C71.6466 73.3872 71.6146 73.4725 71.5399 73.5365C71.4653 73.6005 71.3799 73.6325 71.2839 73.6325H71.0439C70.9586 73.6325 70.8893 73.6165 70.8359 73.5845C70.7826 73.5418 70.7346 73.4885 70.6919 73.4245C70.5853 73.2538 70.4573 73.0938 70.3079 72.9445C70.1586 72.7952 69.9559 72.6778 69.6999 72.5925C69.4546 72.4965 69.1186 72.4485 68.6919 72.4485C68.0519 72.4485 67.5773 72.5818 67.2679 72.8485C66.9586 73.1045 66.8039 73.4352 66.8039 73.8405C66.8039 74.0752 66.8679 74.2832 66.9959 74.4645C67.1239 74.6352 67.3639 74.7952 67.7159 74.9445C68.0679 75.0832 68.5799 75.2325 69.2519 75.3925C69.9346 75.5418 70.4733 75.7285 70.8679 75.9525C71.2626 76.1658 71.5399 76.4218 71.6999 76.7205C71.8706 77.0192 71.9559 77.3712 71.9559 77.7765C71.9559 78.2032 71.8333 78.5978 71.5879 78.9605C71.3533 79.3232 70.9959 79.6165 70.5159 79.8405C70.0466 80.0538 69.4653 80.1605 68.7719 80.1605Z" fill="#5C5C5C"/>
</g>
<path d="M139.487 54.6245C138.628 54.6245 137.923 54.3485 137.371 53.7965C136.85 53.2445 136.589 52.5392 136.589 51.6805C136.589 50.8218 136.85 50.1318 137.371 49.6105C137.923 49.0585 138.628 48.7825 139.487 48.7825C140.346 48.7825 141.051 49.0585 141.603 49.6105C142.155 50.1318 142.431 50.8218 142.431 51.6805C142.431 52.5392 142.155 53.2445 141.603 53.7965C141.082 54.3485 140.376 54.6245 139.487 54.6245ZM139.487 70.1265C138.628 70.1265 137.923 69.8505 137.371 69.2985C136.85 68.7465 136.589 68.0412 136.589 67.1825C136.589 66.3238 136.85 65.6338 137.371 65.1125C137.923 64.5605 138.628 64.2845 139.487 64.2845C140.346 64.2845 141.051 64.5605 141.603 65.1125C142.155 65.6338 142.431 66.3238 142.431 67.1825C142.431 68.0412 142.155 68.7465 141.603 69.2985C141.082 69.8505 140.376 70.1265 139.487 70.1265Z" fill="#333333"/>
<g filter="url(#filter1_d_146_43)">
<rect x="169" y="0.000488281" width="110" height="110" rx="6" fill="white" shape-rendering="crispEdges"/>
<rect x="169.5" y="0.500488" width="109" height="109" rx="5.5" stroke="black" shape-rendering="crispEdges"/>
<path d="M198.5 52.4585C198.5 50.7105 198.806 49.1925 199.42 47.9045C200.064 46.6165 201.106 45.4818 202.548 44.5005L213.956 36.4505C214.661 35.9598 215.198 35.3925 215.566 34.7485C215.964 34.0738 216.164 33.3838 216.164 32.6785V31.2065C216.164 30.0412 215.765 29.1058 214.968 28.4005C214.17 27.6952 213.097 27.3425 211.748 27.3425H207.516C206.044 27.3425 204.863 27.8638 203.974 28.9065C203.115 29.9185 202.686 31.3138 202.686 33.0925H198.316C198.316 30.1178 199.128 27.7718 200.754 26.0545C202.41 24.3065 204.633 23.4325 207.424 23.4325H211.748C214.385 23.4325 216.501 24.1532 218.096 25.5945C219.721 27.0052 220.534 28.8758 220.534 31.2065V32.6785C220.534 35.4692 219.246 37.7385 216.67 39.4865L205.584 47.1225C204.602 47.7972 203.897 48.5025 203.468 49.2385C203.069 49.9745 202.87 50.9405 202.87 52.1365H220.902V56.0005H198.5V52.4585ZM234.17 56.3685C232.207 56.3685 230.474 55.9238 228.972 55.0345C227.469 54.1452 226.304 52.9032 225.476 51.3085C224.648 49.6832 224.234 47.8278 224.234 45.7425V34.0585C224.234 31.9732 224.648 30.1332 225.476 28.5385C226.304 26.9132 227.469 25.6558 228.972 24.7665C230.474 23.8772 232.207 23.4325 234.17 23.4325H239.046C240.978 23.4325 242.68 23.8772 244.152 24.7665C245.654 25.6558 246.804 26.9132 247.602 28.5385C248.43 30.1332 248.844 31.9732 248.844 34.0585V45.7425C248.844 47.8278 248.43 49.6832 247.602 51.3085C246.804 52.9032 245.67 54.1452 244.198 55.0345C242.726 55.9238 241.008 56.3685 239.046 56.3685H234.17ZM238.954 52.4585C240.61 52.4585 241.944 51.8452 242.956 50.6185C243.968 49.3918 244.474 47.7665 244.474 45.7425V34.0585C244.474 32.0345 243.968 30.4092 242.956 29.1825C241.944 27.9558 240.61 27.3425 238.954 27.3425H234.262C232.575 27.3425 231.21 27.9558 230.168 29.1825C229.125 30.4092 228.604 32.0345 228.604 34.0585V45.7425C228.604 47.7665 229.125 49.3918 230.168 50.6185C231.21 51.8452 232.575 52.4585 234.262 52.4585H238.954Z" fill="#151515"/>
<path d="M204.395 80.0005C204.288 80.0005 204.203 79.9685 204.139 79.9045C204.075 79.8405 204.043 79.7552 204.043 79.6485V69.1685C204.043 69.0512 204.075 68.9605 204.139 68.8965C204.203 68.8325 204.288 68.8005 204.395 68.8005H204.683C204.8 68.8005 204.891 68.8325 204.955 68.8965C205.019 68.9605 205.051 69.0512 205.051 69.1685V73.8405H211.227V69.1685C211.227 69.0512 211.259 68.9605 211.323 68.8965C211.387 68.8325 211.472 68.8005 211.579 68.8005H211.867C211.984 68.8005 212.075 68.8325 212.139 68.8965C212.203 68.9605 212.235 69.0512 212.235 69.1685V79.6485C212.235 79.7552 212.203 79.8405 212.139 79.9045C212.075 79.9685 211.984 80.0005 211.867 80.0005H211.579C211.472 80.0005 211.387 79.9685 211.323 79.9045C211.259 79.8405 211.227 79.7552 211.227 79.6485V74.8005H205.051V79.6485C205.051 79.7552 205.019 79.8405 204.955 79.9045C204.891 79.9685 204.8 80.0005 204.683 80.0005H204.395ZM218.206 80.1605C217.438 80.1605 216.793 80.0005 216.27 79.6805C215.758 79.3605 215.364 78.9232 215.086 78.3685C214.82 77.8138 214.676 77.1952 214.654 76.5125C214.644 76.3525 214.638 76.1285 214.638 75.8405C214.638 75.5525 214.644 75.3285 214.654 75.1685C214.676 74.4752 214.82 73.8565 215.086 73.3125C215.364 72.7578 215.758 72.3205 216.27 72.0005C216.793 71.6805 217.438 71.5205 218.206 71.5205C218.974 71.5205 219.614 71.6805 220.126 72.0005C220.649 72.3205 221.044 72.7578 221.31 73.3125C221.588 73.8565 221.737 74.4752 221.758 75.1685C221.769 75.3285 221.774 75.5525 221.774 75.8405C221.774 76.1285 221.769 76.3525 221.758 76.5125C221.737 77.1952 221.588 77.8138 221.31 78.3685C221.044 78.9232 220.649 79.3605 220.126 79.6805C219.614 80.0005 218.974 80.1605 218.206 80.1605ZM218.206 79.2325C218.953 79.2325 219.561 78.9925 220.03 78.5125C220.5 78.0325 220.75 77.3392 220.782 76.4325C220.793 76.2725 220.798 76.0752 220.798 75.8405C220.798 75.6058 220.793 75.4085 220.782 75.2485C220.75 74.3312 220.5 73.6378 220.03 73.1685C219.561 72.6885 218.953 72.4485 218.206 72.4485C217.46 72.4485 216.852 72.6885 216.382 73.1685C215.913 73.6378 215.662 74.3312 215.63 75.2485C215.62 75.4085 215.614 75.6058 215.614 75.8405C215.614 76.0752 215.62 76.2725 215.63 76.4325C215.662 77.3392 215.913 78.0325 216.382 78.5125C216.852 78.9925 217.46 79.2325 218.206 79.2325ZM227.08 80.1605C226.355 80.1605 225.752 80.0058 225.272 79.6965C224.803 79.3765 224.451 78.9445 224.216 78.4005C223.992 77.8565 223.88 77.2485 223.88 76.5765V72.0325C223.88 71.9258 223.912 71.8405 223.976 71.7765C224.04 71.7125 224.125 71.6805 224.232 71.6805H224.504C224.611 71.6805 224.696 71.7125 224.76 71.7765C224.824 71.8405 224.856 71.9258 224.856 72.0325V76.4965C224.856 78.3205 225.651 79.2325 227.24 79.2325C227.997 79.2325 228.605 78.9925 229.064 78.5125C229.523 78.0218 229.752 77.3498 229.752 76.4965V72.0325C229.752 71.9258 229.784 71.8405 229.848 71.7765C229.912 71.7125 229.997 71.6805 230.104 71.6805H230.376C230.483 71.6805 230.568 71.7125 230.632 71.7765C230.696 71.8405 230.728 71.9258 230.728 72.0325V79.6485C230.728 79.7552 230.696 79.8405 230.632 79.9045C230.568 79.9685 230.483 80.0005 230.376 80.0005H230.104C229.997 80.0005 229.912 79.9685 229.848 79.9045C229.784 79.8405 229.752 79.7552 229.752 79.6485V78.8965C229.464 79.2698 229.117 79.5738 228.712 79.8085C228.317 80.0432 227.773 80.1605 227.08 80.1605ZM233.671 80.0005C233.565 80.0005 233.479 79.9685 233.415 79.9045C233.351 79.8405 233.319 79.7552 233.319 79.6485V72.0485C233.319 71.9418 233.351 71.8565 233.415 71.7925C233.479 71.7178 233.565 71.6805 233.671 71.6805H233.927C234.034 71.6805 234.119 71.7178 234.183 71.7925C234.258 71.8565 234.295 71.9418 234.295 72.0485V72.7845C234.487 72.4112 234.765 72.1338 235.127 71.9525C235.49 71.7712 235.938 71.6805 236.471 71.6805H237.063C237.17 71.6805 237.255 71.7125 237.319 71.7765C237.383 71.8405 237.415 71.9258 237.415 72.0325V72.2565C237.415 72.3632 237.383 72.4485 237.319 72.5125C237.255 72.5765 237.17 72.6085 237.063 72.6085H236.375C235.735 72.6085 235.229 72.7952 234.855 73.1685C234.482 73.5418 234.295 74.0485 234.295 74.6885V79.6485C234.295 79.7552 234.258 79.8405 234.183 79.9045C234.119 79.9685 234.034 80.0005 233.927 80.0005H233.671ZM241.522 80.1605C240.967 80.1605 240.487 80.0858 240.082 79.9365C239.687 79.7872 239.362 79.6112 239.106 79.4085C238.85 79.1952 238.658 78.9872 238.53 78.7845C238.413 78.5818 238.349 78.4272 238.338 78.3205C238.327 78.2032 238.365 78.1178 238.45 78.0645C238.535 78.0005 238.615 77.9685 238.69 77.9685H238.93C238.994 77.9685 239.047 77.9792 239.09 78.0005C239.143 78.0218 239.207 78.0805 239.282 78.1765C239.421 78.3578 239.581 78.5338 239.762 78.7045C239.943 78.8645 240.173 78.9925 240.45 79.0885C240.738 79.1845 241.095 79.2325 241.522 79.2325C242.162 79.2325 242.69 79.1098 243.106 78.8645C243.522 78.6192 243.73 78.2565 243.73 77.7765C243.73 77.4778 243.645 77.2378 243.474 77.0565C243.314 76.8752 243.037 76.7152 242.642 76.5765C242.247 76.4378 241.714 76.2938 241.042 76.1445C240.37 75.9845 239.853 75.7925 239.49 75.5685C239.138 75.3445 238.898 75.0885 238.77 74.8005C238.642 74.5018 238.578 74.1818 238.578 73.8405C238.578 73.4672 238.685 73.1045 238.898 72.7525C239.111 72.3898 239.426 72.0965 239.842 71.8725C240.269 71.6378 240.802 71.5205 241.442 71.5205C241.965 71.5205 242.407 71.5898 242.77 71.7285C243.143 71.8672 243.447 72.0378 243.682 72.2405C243.917 72.4325 244.087 72.6245 244.194 72.8165C244.311 73.0085 244.375 73.1632 244.386 73.2805C244.397 73.3872 244.365 73.4725 244.29 73.5365C244.215 73.6005 244.13 73.6325 244.034 73.6325H243.794C243.709 73.6325 243.639 73.6165 243.586 73.5845C243.533 73.5418 243.485 73.4885 243.442 73.4245C243.335 73.2538 243.207 73.0938 243.058 72.9445C242.909 72.7952 242.706 72.6778 242.45 72.5925C242.205 72.4965 241.869 72.4485 241.442 72.4485C240.802 72.4485 240.327 72.5818 240.018 72.8485C239.709 73.1045 239.554 73.4352 239.554 73.8405C239.554 74.0752 239.618 74.2832 239.746 74.4645C239.874 74.6352 240.114 74.7952 240.466 74.9445C240.818 75.0832 241.33 75.2325 242.002 75.3925C242.685 75.5418 243.223 75.7285 243.618 75.9525C244.013 76.1658 244.29 76.4218 244.45 76.7205C244.621 77.0192 244.706 77.3712 244.706 77.7765C244.706 78.2032 244.583 78.5978 244.338 78.9605C244.103 79.3232 243.746 79.6165 243.266 79.8405C242.797 80.0538 242.215 80.1605 241.522 80.1605Z" fill="#5C5C5C"/>
</g>
<path d="M308.487 54.6245C307.628 54.6245 306.923 54.3485 306.371 53.7965C305.85 53.2445 305.589 52.5392 305.589 51.6805C305.589 50.8218 305.85 50.1318 306.371 49.6105C306.923 49.0585 307.628 48.7825 308.487 48.7825C309.346 48.7825 310.051 49.0585 310.603 49.6105C311.155 50.1318 311.431 50.8218 311.431 51.6805C311.431 52.5392 311.155 53.2445 310.603 53.7965C310.082 54.3485 309.376 54.6245 308.487 54.6245ZM308.487 70.1265C307.628 70.1265 306.923 69.8505 306.371 69.2985C305.85 68.7465 305.589 68.0412 305.589 67.1825C305.589 66.3238 305.85 65.6338 306.371 65.1125C306.923 64.5605 307.628 64.2845 308.487 64.2845C309.346 64.2845 310.051 64.5605 310.603 65.1125C311.155 65.6338 311.431 66.3238 311.431 67.1825C311.431 68.0412 311.155 68.7465 310.603 69.2985C310.082 69.8505 309.376 70.1265 308.487 70.1265Z" fill="#333333"/>
<g filter="url(#filter2_d_146_43)">
<rect x="338" y="0.000488281" width="110" height="110" rx="6" fill="white" shape-rendering="crispEdges"/>
<rect x="338.5" y="0.500488" width="109" height="109" rx="5.5" stroke="black" shape-rendering="crispEdges"/>
<path d="M378.752 28.5385L371.346 32.2645V28.1705L379.58 23.8005H383.122V56.0005H378.752V28.5385ZM398.588 56.3685C396.625 56.3685 394.892 55.9238 393.39 55.0345C391.887 54.1452 390.722 52.9032 389.894 51.3085C389.066 49.6832 388.652 47.8278 388.652 45.7425V34.0585C388.652 31.9732 389.066 30.1332 389.894 28.5385C390.722 26.9132 391.887 25.6558 393.39 24.7665C394.892 23.8772 396.625 23.4325 398.588 23.4325H403.464C405.396 23.4325 407.098 23.8772 408.57 24.7665C410.072 25.6558 411.222 26.9132 412.02 28.5385C412.848 30.1332 413.262 31.9732 413.262 34.0585V45.7425C413.262 47.8278 412.848 49.6832 412.02 51.3085C411.222 52.9032 410.088 54.1452 408.616 55.0345C407.144 55.9238 405.426 56.3685 403.464 56.3685H398.588ZM403.372 52.4585C405.028 52.4585 406.362 51.8452 407.374 50.6185C408.386 49.3918 408.892 47.7665 408.892 45.7425V34.0585C408.892 32.0345 408.386 30.4092 407.374 29.1825C406.362 27.9558 405.028 27.3425 403.372 27.3425H398.68C396.993 27.3425 395.628 27.9558 394.586 29.1825C393.543 30.4092 393.022 32.0345 393.022 34.0585V45.7425C393.022 47.7665 393.543 49.3918 394.586 50.6185C395.628 51.8452 396.993 52.4585 398.68 52.4585H403.372Z" fill="#151515"/>
<path d="M366.27 80.0005C366.164 80.0005 366.073 79.9685 365.998 79.9045C365.934 79.8405 365.902 79.7552 365.902 79.6485V69.1685C365.902 69.0512 365.934 68.9605 365.998 68.8965C366.073 68.8325 366.164 68.8005 366.27 68.8005H366.67C366.777 68.8005 366.857 68.8272 366.91 68.8805C366.964 68.9338 366.996 68.9765 367.006 69.0085L370.638 76.0805L374.286 69.0085C374.308 68.9765 374.34 68.9338 374.382 68.8805C374.436 68.8272 374.516 68.8005 374.622 68.8005H375.006C375.124 68.8005 375.214 68.8325 375.278 68.8965C375.342 68.9605 375.374 69.0512 375.374 69.1685V79.6485C375.374 79.7552 375.342 79.8405 375.278 79.9045C375.214 79.9685 375.124 80.0005 375.006 80.0005H374.718C374.612 80.0005 374.526 79.9685 374.462 79.9045C374.398 79.8405 374.366 79.7552 374.366 79.6485V70.9765L371.31 76.9925C371.268 77.0992 371.204 77.1792 371.118 77.2325C371.044 77.2858 370.942 77.3125 370.814 77.3125H370.462C370.334 77.3125 370.233 77.2858 370.158 77.2325C370.084 77.1792 370.02 77.0992 369.966 76.9925L366.91 70.9765V79.6485C366.91 79.7552 366.878 79.8405 366.814 79.9045C366.75 79.9685 366.665 80.0005 366.558 80.0005H366.27ZM378.531 80.0005C378.424 80.0005 378.339 79.9685 378.275 79.9045C378.211 79.8405 378.179 79.7552 378.179 79.6485V72.0325C378.179 71.9258 378.211 71.8405 378.275 71.7765C378.339 71.7125 378.424 71.6805 378.531 71.6805H378.803C378.909 71.6805 378.995 71.7125 379.059 71.7765C379.123 71.8405 379.155 71.9258 379.155 72.0325V79.6485C379.155 79.7552 379.123 79.8405 379.059 79.9045C378.995 79.9685 378.909 80.0005 378.803 80.0005H378.531ZM378.355 69.9685C378.248 69.9685 378.163 69.9365 378.099 69.8725C378.035 69.8085 378.003 69.7232 378.003 69.6165V69.0085C378.003 68.9018 378.035 68.8165 378.099 68.7525C378.163 68.6778 378.248 68.6405 378.355 68.6405H378.963C379.069 68.6405 379.155 68.6778 379.219 68.7525C379.293 68.8165 379.331 68.9018 379.331 69.0085V69.6165C379.331 69.7232 379.293 69.8085 379.219 69.8725C379.155 69.9365 379.069 69.9685 378.963 69.9685H378.355ZM382.093 80.0005C381.987 80.0005 381.901 79.9685 381.837 79.9045C381.773 79.8405 381.741 79.7552 381.741 79.6485V72.0325C381.741 71.9258 381.773 71.8405 381.837 71.7765C381.901 71.7125 381.987 71.6805 382.093 71.6805H382.365C382.472 71.6805 382.557 71.7125 382.621 71.7765C382.685 71.8405 382.717 71.9258 382.717 72.0325V72.7845C383.005 72.4112 383.352 72.1072 383.757 71.8725C384.173 71.6378 384.723 71.5205 385.405 71.5205C386.131 71.5205 386.733 71.6805 387.213 72.0005C387.704 72.3098 388.067 72.7365 388.301 73.2805C388.547 73.8138 388.669 74.4218 388.669 75.1045V79.6485C388.669 79.7552 388.637 79.8405 388.573 79.9045C388.509 79.9685 388.424 80.0005 388.317 80.0005H388.045C387.939 80.0005 387.853 79.9685 387.789 79.9045C387.725 79.8405 387.693 79.7552 387.693 79.6485V75.1845C387.693 74.3312 387.485 73.6645 387.069 73.1845C386.653 72.6938 386.045 72.4485 385.245 72.4485C384.488 72.4485 383.875 72.6938 383.405 73.1845C382.947 73.6645 382.717 74.3312 382.717 75.1845V79.6485C382.717 79.7552 382.685 79.8405 382.621 79.9045C382.557 79.9685 382.472 80.0005 382.365 80.0005H382.093ZM394.299 80.1605C393.573 80.1605 392.971 80.0058 392.491 79.6965C392.021 79.3765 391.669 78.9445 391.435 78.4005C391.211 77.8565 391.099 77.2485 391.099 76.5765V72.0325C391.099 71.9258 391.131 71.8405 391.195 71.7765C391.259 71.7125 391.344 71.6805 391.451 71.6805H391.723C391.829 71.6805 391.915 71.7125 391.979 71.7765C392.043 71.8405 392.075 71.9258 392.075 72.0325V76.4965C392.075 78.3205 392.869 79.2325 394.459 79.2325C395.216 79.2325 395.824 78.9925 396.283 78.5125C396.741 78.0218 396.971 77.3498 396.971 76.4965V72.0325C396.971 71.9258 397.003 71.8405 397.067 71.7765C397.131 71.7125 397.216 71.6805 397.323 71.6805H397.595C397.701 71.6805 397.787 71.7125 397.851 71.7765C397.915 71.8405 397.947 71.9258 397.947 72.0325V79.6485C397.947 79.7552 397.915 79.8405 397.851 79.9045C397.787 79.9685 397.701 80.0005 397.595 80.0005H397.323C397.216 80.0005 397.131 79.9685 397.067 79.9045C397.003 79.8405 396.971 79.7552 396.971 79.6485V78.8965C396.683 79.2698 396.336 79.5738 395.931 79.8085C395.536 80.0432 394.992 80.1605 394.299 80.1605ZM403.338 80.0005C402.784 80.0005 402.346 79.8832 402.026 79.6485C401.706 79.4138 401.482 79.0938 401.354 78.6885C401.226 78.2832 401.162 77.8298 401.162 77.3285V72.6085H399.914C399.808 72.6085 399.722 72.5765 399.658 72.5125C399.594 72.4485 399.562 72.3632 399.562 72.2565V72.0325C399.562 71.9258 399.594 71.8405 399.658 71.7765C399.722 71.7125 399.808 71.6805 399.914 71.6805H401.162V68.9925C401.162 68.8858 401.194 68.8005 401.258 68.7365C401.322 68.6725 401.408 68.6405 401.514 68.6405H401.786C401.893 68.6405 401.978 68.6725 402.042 68.7365C402.106 68.8005 402.138 68.8858 402.138 68.9925V71.6805H404.122C404.229 71.6805 404.314 71.7125 404.378 71.7765C404.442 71.8405 404.474 71.9258 404.474 72.0325V72.2565C404.474 72.3632 404.442 72.4485 404.378 72.5125C404.314 72.5765 404.229 72.6085 404.122 72.6085H402.138V77.2645C402.138 77.8298 402.229 78.2725 402.41 78.5925C402.602 78.9125 402.938 79.0725 403.418 79.0725H404.282C404.389 79.0725 404.474 79.1045 404.538 79.1685C404.602 79.2325 404.634 79.3178 404.634 79.4245V79.6485C404.634 79.7552 404.602 79.8405 404.538 79.9045C404.474 79.9685 404.389 80.0005 404.282 80.0005H403.338ZM409.376 80.1605C408.342 80.1605 407.52 79.8245 406.912 79.1525C406.304 78.4698 405.958 77.5792 405.872 76.4805C405.862 76.3205 405.856 76.1072 405.856 75.8405C405.856 75.5738 405.862 75.3605 405.872 75.2005C405.926 74.4752 406.096 73.8352 406.384 73.2805C406.672 72.7258 407.067 72.2938 407.568 71.9845C408.08 71.6752 408.683 71.5205 409.376 71.5205C410.123 71.5205 410.758 71.6858 411.28 72.0165C411.803 72.3472 412.203 72.8218 412.48 73.4405C412.768 74.0592 412.912 74.7952 412.912 75.6485V75.8885C412.912 75.9952 412.875 76.0805 412.8 76.1445C412.736 76.2085 412.651 76.2405 412.544 76.2405H406.848C406.848 76.2405 406.848 76.2618 406.848 76.3045C406.848 76.3472 406.848 76.3792 406.848 76.4005C406.87 76.8805 406.982 77.3392 407.184 77.7765C407.387 78.2032 407.675 78.5552 408.048 78.8325C408.422 79.0992 408.864 79.2325 409.376 79.2325C409.835 79.2325 410.214 79.1632 410.512 79.0245C410.822 78.8858 411.067 78.7365 411.248 78.5765C411.43 78.4058 411.547 78.2778 411.6 78.1925C411.696 78.0538 411.771 77.9738 411.824 77.9525C411.878 77.9205 411.963 77.9045 412.08 77.9045H412.336C412.432 77.9045 412.512 77.9365 412.576 78.0005C412.651 78.0538 412.683 78.1285 412.672 78.2245C412.662 78.3738 412.576 78.5605 412.416 78.7845C412.267 78.9978 412.048 79.2112 411.76 79.4245C411.483 79.6378 411.142 79.8138 410.736 79.9525C410.331 80.0912 409.878 80.1605 409.376 80.1605ZM406.848 75.3445H411.936V75.2805C411.936 74.7472 411.835 74.2672 411.632 73.8405C411.43 73.4138 411.136 73.0778 410.752 72.8325C410.368 72.5765 409.91 72.4485 409.376 72.4485C408.843 72.4485 408.384 72.5765 408 72.8325C407.627 73.0778 407.339 73.4138 407.136 73.8405C406.944 74.2672 406.848 74.7472 406.848 75.2805V75.3445ZM417.663 80.1605C417.108 80.1605 416.628 80.0858 416.223 79.9365C415.828 79.7872 415.503 79.6112 415.247 79.4085C414.991 79.1952 414.799 78.9872 414.671 78.7845C414.553 78.5818 414.489 78.4272 414.479 78.3205C414.468 78.2032 414.505 78.1178 414.591 78.0645C414.676 78.0005 414.756 77.9685 414.831 77.9685H415.071C415.135 77.9685 415.188 77.9792 415.231 78.0005C415.284 78.0218 415.348 78.0805 415.423 78.1765C415.561 78.3578 415.721 78.5338 415.903 78.7045C416.084 78.8645 416.313 78.9925 416.591 79.0885C416.879 79.1845 417.236 79.2325 417.663 79.2325C418.303 79.2325 418.831 79.1098 419.247 78.8645C419.663 78.6192 419.871 78.2565 419.871 77.7765C419.871 77.4778 419.785 77.2378 419.615 77.0565C419.455 76.8752 419.177 76.7152 418.783 76.5765C418.388 76.4378 417.855 76.2938 417.183 76.1445C416.511 75.9845 415.993 75.7925 415.631 75.5685C415.279 75.3445 415.039 75.0885 414.911 74.8005C414.783 74.5018 414.719 74.1818 414.719 73.8405C414.719 73.4672 414.825 73.1045 415.039 72.7525C415.252 72.3898 415.567 72.0965 415.983 71.8725C416.409 71.6378 416.943 71.5205 417.583 71.5205C418.105 71.5205 418.548 71.5898 418.911 71.7285C419.284 71.8672 419.588 72.0378 419.823 72.2405C420.057 72.4325 420.228 72.6245 420.335 72.8165C420.452 73.0085 420.516 73.1632 420.527 73.2805C420.537 73.3872 420.505 73.4725 420.431 73.5365C420.356 73.6005 420.271 73.6325 420.175 73.6325H419.935C419.849 73.6325 419.78 73.6165 419.727 73.5845C419.673 73.5418 419.625 73.4885 419.583 73.4245C419.476 73.2538 419.348 73.0938 419.199 72.9445C419.049 72.7952 418.847 72.6778 418.591 72.5925C418.345 72.4965 418.009 72.4485 417.583 72.4485C416.943 72.4485 416.468 72.5818 416.159 72.8485C415.849 73.1045 415.695 73.4352 415.695 73.8405C415.695 74.0752 415.759 74.2832 415.887 74.4645C416.015 74.6352 416.255 74.7952 416.607 74.9445C416.959 75.0832 417.471 75.2325 418.143 75.3925C418.825 75.5418 419.364 75.7285 419.759 75.9525C420.153 76.1658 420.431 76.4218 420.591 76.7205C420.761 77.0192 420.847 77.3712 420.847 77.7765C420.847 78.2032 420.724 78.5978 420.479 78.9605C420.244 79.3232 419.887 79.6165 419.407 79.8405C418.937 80.0538 418.356 80.1605 417.663 80.1605Z" fill="#5C5C5C"/>
</g>
<path d="M477.487 54.6245C476.628 54.6245 475.923 54.3485 475.371 53.7965C474.85 53.2445 474.589 52.5392 474.589 51.6805C474.589 50.8218 474.85 50.1318 475.371 49.6105C475.923 49.0585 476.628 48.7825 477.487 48.7825C478.346 48.7825 479.051 49.0585 479.603 49.6105C480.155 50.1318 480.431 50.8218 480.431 51.6805C480.431 52.5392 480.155 53.2445 479.603 53.7965C479.082 54.3485 478.376 54.6245 477.487 54.6245ZM477.487 70.1265C476.628 70.1265 475.923 69.8505 475.371 69.2985C474.85 68.7465 474.589 68.0412 474.589 67.1825C474.589 66.3238 474.85 65.6338 475.371 65.1125C475.923 64.5605 476.628 64.2845 477.487 64.2845C478.346 64.2845 479.051 64.5605 479.603 65.1125C480.155 65.6338 480.431 66.3238 480.431 67.1825C480.431 68.0412 480.155 68.7465 479.603 69.2985C479.082 69.8505 478.376 70.1265 477.487 70.1265Z" fill="#333333"/>
<g filter="url(#filter3_d_146_43)">
<rect x="507" y="0.000488281" width="110" height="110" rx="6" fill="white" shape-rendering="crispEdges"/>
<rect x="507.5" y="0.500488" width="109" height="109" rx="5.5" stroke="black" shape-rendering="crispEdges"/>
<path d="M556.019 39.4405C557.337 40.1152 558.365 41.0198 559.101 42.1545C559.867 43.2585 560.251 44.5005 560.251 45.8805V47.7205C560.251 49.4378 559.852 50.9558 559.055 52.2745C558.257 53.5625 557.123 54.5745 555.651 55.3105C554.179 56.0158 552.477 56.3685 550.545 56.3685H546.083C543.2 56.3685 540.885 55.4945 539.137 53.7465C537.419 51.9678 536.561 49.5912 536.561 46.6165H540.839C540.839 48.3952 541.314 49.8212 542.265 50.8945C543.215 51.9372 544.488 52.4585 546.083 52.4585H550.545C552.139 52.4585 553.427 52.0292 554.409 51.1705C555.39 50.3118 555.881 49.1618 555.881 47.7205V45.8805C555.881 44.4392 555.39 43.3352 554.409 42.5685C553.458 41.8018 552.124 41.4185 550.407 41.4185H545.209V37.6465H550.407C551.94 37.6465 553.136 37.2632 553.995 36.4965C554.853 35.7298 555.283 34.6565 555.283 33.2765V31.4365C555.283 30.1792 554.853 29.1825 553.995 28.4465C553.167 27.7105 552.047 27.3425 550.637 27.3425H546.175C544.672 27.3425 543.461 27.8792 542.541 28.9525C541.651 29.9952 541.207 31.4058 541.207 33.1845H536.791C536.791 30.2098 537.634 27.8485 539.321 26.1005C541.038 24.3218 543.323 23.4325 546.175 23.4325H550.637C553.366 23.4325 555.543 24.1685 557.169 25.6405C558.825 27.0818 559.653 29.0138 559.653 31.4365V33.2765C559.653 34.5645 559.331 35.7605 558.687 36.8645C558.043 37.9378 557.153 38.7965 556.019 39.4405ZM572.792 56.3685C570.001 56.3685 567.778 55.5405 566.122 53.8845C564.466 52.2285 563.638 50.0052 563.638 47.2145H567.916C567.916 48.8092 568.361 50.0818 569.25 51.0325C570.139 51.9832 571.32 52.4585 572.792 52.4585H577.208C578.833 52.4585 580.152 51.9832 581.164 51.0325C582.176 50.0818 582.682 48.8245 582.682 47.2605V44.5465C582.682 43.1052 582.161 41.9398 581.118 41.0505C580.106 40.1612 578.757 39.7165 577.07 39.7165H564.788V23.8005H585.856V27.7105H569.158V35.8525H577.07C580.075 35.8525 582.483 36.6498 584.292 38.2445C586.132 39.8085 587.052 41.9092 587.052 44.5465V47.2605C587.052 49.0698 586.638 50.6645 585.81 52.0445C585.013 53.4245 583.863 54.4978 582.36 55.2645C580.888 56.0005 579.171 56.3685 577.208 56.3685H572.792Z" fill="#151515"/>
<path d="M535.606 80.1605C534.742 80.1605 534.006 80.0218 533.398 79.7445C532.801 79.4672 532.342 79.1098 532.022 78.6725C531.702 78.2352 531.532 77.7712 531.51 77.2805C531.51 77.1952 531.542 77.1205 531.606 77.0565C531.67 76.9925 531.75 76.9605 531.846 76.9605H532.166C532.273 76.9605 532.353 76.9925 532.406 77.0565C532.47 77.1205 532.508 77.1952 532.518 77.2805C532.561 77.5792 532.694 77.8778 532.918 78.1765C533.142 78.4645 533.473 78.7098 533.91 78.9125C534.348 79.1045 534.913 79.2005 535.606 79.2005C536.652 79.2005 537.414 79.0138 537.894 78.6405C538.374 78.2565 538.614 77.7445 538.614 77.1045C538.614 76.6778 538.486 76.3365 538.23 76.0805C537.985 75.8138 537.606 75.5792 537.094 75.3765C536.582 75.1632 535.926 74.9285 535.126 74.6725C534.369 74.4272 533.745 74.1765 533.254 73.9205C532.764 73.6538 532.401 73.3338 532.166 72.9605C531.942 72.5872 531.83 72.1072 531.83 71.5205C531.83 70.9765 531.974 70.4912 532.262 70.0645C532.55 69.6272 532.966 69.2805 533.51 69.0245C534.065 68.7685 534.737 68.6405 535.526 68.6405C536.156 68.6405 536.705 68.7258 537.174 68.8965C537.644 69.0672 538.033 69.2965 538.342 69.5845C538.652 69.8618 538.886 70.1658 539.046 70.4965C539.206 70.8165 539.292 71.1312 539.302 71.4405C539.302 71.5152 539.276 71.5898 539.222 71.6645C539.169 71.7285 539.084 71.7605 538.966 71.7605H538.646C538.593 71.7605 538.524 71.7392 538.438 71.6965C538.364 71.6538 538.316 71.5685 538.294 71.4405C538.23 70.9072 537.948 70.4698 537.446 70.1285C536.956 69.7765 536.316 69.6005 535.526 69.6005C534.737 69.6005 534.092 69.7552 533.59 70.0645C533.089 70.3738 532.838 70.8592 532.838 71.5205C532.838 71.9472 532.95 72.2992 533.174 72.5765C533.398 72.8432 533.75 73.0832 534.23 73.2965C534.71 73.4992 535.329 73.7232 536.086 73.9685C536.886 74.2245 537.548 74.4805 538.07 74.7365C538.593 74.9925 538.982 75.3072 539.238 75.6805C539.494 76.0432 539.622 76.5178 539.622 77.1045C539.622 77.7552 539.457 78.3098 539.126 78.7685C538.806 79.2165 538.348 79.5632 537.75 79.8085C537.153 80.0432 536.438 80.1605 535.606 80.1605ZM544.814 80.1605C543.779 80.1605 542.958 79.8245 542.35 79.1525C541.742 78.4698 541.395 77.5792 541.31 76.4805C541.299 76.3205 541.294 76.1072 541.294 75.8405C541.294 75.5738 541.299 75.3605 541.31 75.2005C541.363 74.4752 541.534 73.8352 541.822 73.2805C542.11 72.7258 542.504 72.2938 543.006 71.9845C543.518 71.6752 544.12 71.5205 544.814 71.5205C545.56 71.5205 546.195 71.6858 546.718 72.0165C547.24 72.3472 547.64 72.8218 547.918 73.4405C548.206 74.0592 548.35 74.7952 548.35 75.6485V75.8885C548.35 75.9952 548.312 76.0805 548.238 76.1445C548.174 76.2085 548.088 76.2405 547.982 76.2405H542.286C542.286 76.2405 542.286 76.2618 542.286 76.3045C542.286 76.3472 542.286 76.3792 542.286 76.4005C542.307 76.8805 542.419 77.3392 542.622 77.7765C542.824 78.2032 543.112 78.5552 543.486 78.8325C543.859 79.0992 544.302 79.2325 544.814 79.2325C545.272 79.2325 545.651 79.1632 545.95 79.0245C546.259 78.8858 546.504 78.7365 546.686 78.5765C546.867 78.4058 546.984 78.2778 547.038 78.1925C547.134 78.0538 547.208 77.9738 547.262 77.9525C547.315 77.9205 547.4 77.9045 547.518 77.9045H547.774C547.87 77.9045 547.95 77.9365 548.014 78.0005C548.088 78.0538 548.12 78.1285 548.11 78.2245C548.099 78.3738 548.014 78.5605 547.854 78.7845C547.704 78.9978 547.486 79.2112 547.198 79.4245C546.92 79.6378 546.579 79.8138 546.174 79.9525C545.768 80.0912 545.315 80.1605 544.814 80.1605ZM542.286 75.3445H547.374V75.2805C547.374 74.7472 547.272 74.2672 547.07 73.8405C546.867 73.4138 546.574 73.0778 546.19 72.8325C545.806 72.5765 545.347 72.4485 544.814 72.4485C544.28 72.4485 543.822 72.5765 543.438 72.8325C543.064 73.0778 542.776 73.4138 542.574 73.8405C542.382 74.2672 542.286 74.7472 542.286 75.2805V75.3445ZM553.612 80.1605C552.865 80.1605 552.231 80.0165 551.708 79.7285C551.185 79.4298 550.785 79.0032 550.508 78.4485C550.241 77.8938 550.097 77.2378 550.076 76.4805C550.065 76.3205 550.06 76.1072 550.06 75.8405C550.06 75.5738 550.065 75.3605 550.076 75.2005C550.097 74.4325 550.241 73.7765 550.508 73.2325C550.785 72.6778 551.185 72.2565 551.708 71.9685C552.231 71.6698 552.865 71.5205 553.612 71.5205C554.177 71.5205 554.663 71.6005 555.068 71.7605C555.484 71.9098 555.825 72.1125 556.092 72.3685C556.359 72.6138 556.561 72.8858 556.7 73.1845C556.839 73.4832 556.913 73.7765 556.924 74.0645C556.935 74.1712 556.903 74.2565 556.828 74.3205C556.753 74.3845 556.668 74.4165 556.572 74.4165H556.348C556.241 74.4165 556.161 74.3952 556.108 74.3525C556.065 74.2992 556.017 74.2085 555.964 74.0805C555.74 73.4725 555.431 73.0512 555.036 72.8165C554.652 72.5712 554.177 72.4485 553.612 72.4485C552.887 72.4485 552.284 72.6725 551.804 73.1205C551.335 73.5578 551.084 74.2778 551.052 75.2805C551.031 75.6538 551.031 76.0272 551.052 76.4005C551.084 77.4032 551.335 78.1285 551.804 78.5765C552.284 79.0138 552.887 79.2325 553.612 79.2325C554.177 79.2325 554.652 79.1152 555.036 78.8805C555.431 78.6352 555.74 78.2085 555.964 77.6005C556.017 77.4725 556.065 77.3872 556.108 77.3445C556.161 77.2912 556.241 77.2645 556.348 77.2645H556.572C556.668 77.2645 556.753 77.2965 556.828 77.3605C556.903 77.4245 556.935 77.5098 556.924 77.6165C556.913 77.8512 556.865 78.0858 556.78 78.3205C556.695 78.5552 556.561 78.7845 556.38 79.0085C556.209 79.2325 555.996 79.4298 555.74 79.6005C555.484 79.7712 555.175 79.9045 554.812 80.0005C554.46 80.1072 554.06 80.1605 553.612 80.1605ZM562.206 80.1605C561.438 80.1605 560.793 80.0005 560.27 79.6805C559.758 79.3605 559.364 78.9232 559.086 78.3685C558.82 77.8138 558.676 77.1952 558.654 76.5125C558.644 76.3525 558.638 76.1285 558.638 75.8405C558.638 75.5525 558.644 75.3285 558.654 75.1685C558.676 74.4752 558.82 73.8565 559.086 73.3125C559.364 72.7578 559.758 72.3205 560.27 72.0005C560.793 71.6805 561.438 71.5205 562.206 71.5205C562.974 71.5205 563.614 71.6805 564.126 72.0005C564.649 72.3205 565.044 72.7578 565.31 73.3125C565.588 73.8565 565.737 74.4752 565.758 75.1685C565.769 75.3285 565.774 75.5525 565.774 75.8405C565.774 76.1285 565.769 76.3525 565.758 76.5125C565.737 77.1952 565.588 77.8138 565.31 78.3685C565.044 78.9232 564.649 79.3605 564.126 79.6805C563.614 80.0005 562.974 80.1605 562.206 80.1605ZM562.206 79.2325C562.953 79.2325 563.561 78.9925 564.03 78.5125C564.5 78.0325 564.75 77.3392 564.782 76.4325C564.793 76.2725 564.798 76.0752 564.798 75.8405C564.798 75.6058 564.793 75.4085 564.782 75.2485C564.75 74.3312 564.5 73.6378 564.03 73.1685C563.561 72.6885 562.953 72.4485 562.206 72.4485C561.46 72.4485 560.852 72.6885 560.382 73.1685C559.913 73.6378 559.662 74.3312 559.63 75.2485C559.62 75.4085 559.614 75.6058 559.614 75.8405C559.614 76.0752 559.62 76.2725 559.63 76.4325C559.662 77.3392 559.913 78.0325 560.382 78.5125C560.852 78.9925 561.46 79.2325 562.206 79.2325ZM568.312 80.0005C568.205 80.0005 568.12 79.9685 568.056 79.9045C567.992 79.8405 567.96 79.7552 567.96 79.6485V72.0325C567.96 71.9258 567.992 71.8405 568.056 71.7765C568.12 71.7125 568.205 71.6805 568.312 71.6805H568.584C568.691 71.6805 568.776 71.7125 568.84 71.7765C568.904 71.8405 568.936 71.9258 568.936 72.0325V72.7845C569.224 72.4112 569.571 72.1072 569.976 71.8725C570.392 71.6378 570.941 71.5205 571.624 71.5205C572.349 71.5205 572.952 71.6805 573.432 72.0005C573.923 72.3098 574.285 72.7365 574.52 73.2805C574.765 73.8138 574.888 74.4218 574.888 75.1045V79.6485C574.888 79.7552 574.856 79.8405 574.792 79.9045C574.728 79.9685 574.643 80.0005 574.536 80.0005H574.264C574.157 80.0005 574.072 79.9685 574.008 79.9045C573.944 79.8405 573.912 79.7552 573.912 79.6485V75.1845C573.912 74.3312 573.704 73.6645 573.288 73.1845C572.872 72.6938 572.264 72.4485 571.464 72.4485C570.707 72.4485 570.093 72.6938 569.624 73.1845C569.165 73.6645 568.936 74.3312 568.936 75.1845V79.6485C568.936 79.7552 568.904 79.8405 568.84 79.9045C568.776 79.9685 568.691 80.0005 568.584 80.0005H568.312ZM580.406 80.1605C579.787 80.1605 579.259 80.0485 578.822 79.8245C578.395 79.6005 578.048 79.3018 577.782 78.9285C577.515 78.5552 577.318 78.1392 577.19 77.6805C577.072 77.2218 577.003 76.7578 576.982 76.2885C576.971 76.1285 576.966 75.9792 576.966 75.8405C576.966 75.7018 576.971 75.5525 576.982 75.3925C577.003 74.9232 577.072 74.4592 577.19 74.0005C577.318 73.5418 577.515 73.1258 577.782 72.7525C578.048 72.3792 578.395 72.0805 578.822 71.8565C579.259 71.6325 579.787 71.5205 580.406 71.5205C581.067 71.5205 581.611 71.6432 582.038 71.8885C582.475 72.1338 582.827 72.4325 583.094 72.7845V68.9925C583.094 68.8858 583.126 68.8005 583.19 68.7365C583.254 68.6725 583.339 68.6405 583.446 68.6405H583.718C583.824 68.6405 583.91 68.6725 583.974 68.7365C584.038 68.8005 584.07 68.8858 584.07 68.9925V79.6485C584.07 79.7552 584.038 79.8405 583.974 79.9045C583.91 79.9685 583.824 80.0005 583.718 80.0005H583.446C583.339 80.0005 583.254 79.9685 583.19 79.9045C583.126 79.8405 583.094 79.7552 583.094 79.6485V78.8965C582.827 79.2592 582.475 79.5632 582.038 79.8085C581.611 80.0432 581.067 80.1605 580.406 80.1605ZM580.502 79.2325C581.11 79.2325 581.6 79.0885 581.974 78.8005C582.347 78.5125 582.624 78.1552 582.806 77.7285C582.987 77.2912 583.083 76.8538 583.094 76.4165C583.104 76.2565 583.11 76.0485 583.11 75.7925C583.11 75.5365 583.104 75.3285 583.094 75.1685C583.083 74.7418 582.982 74.3205 582.79 73.9045C582.608 73.4885 582.331 73.1418 581.958 72.8645C581.584 72.5872 581.099 72.4485 580.502 72.4485C579.883 72.4485 579.387 72.5872 579.014 72.8645C578.651 73.1418 578.39 73.5045 578.23 73.9525C578.07 74.4005 577.979 74.8805 577.958 75.3925C577.947 75.6912 577.947 75.9898 577.958 76.2885C577.979 76.8005 578.07 77.2805 578.23 77.7285C578.39 78.1765 578.651 78.5392 579.014 78.8165C579.387 79.0938 579.883 79.2325 580.502 79.2325ZM589.319 80.1605C588.764 80.1605 588.284 80.0858 587.879 79.9365C587.484 79.7872 587.159 79.6112 586.903 79.4085C586.647 79.1952 586.455 78.9872 586.327 78.7845C586.209 78.5818 586.145 78.4272 586.135 78.3205C586.124 78.2032 586.161 78.1178 586.247 78.0645C586.332 78.0005 586.412 77.9685 586.487 77.9685H586.727C586.791 77.9685 586.844 77.9792 586.887 78.0005C586.94 78.0218 587.004 78.0805 587.079 78.1765C587.217 78.3578 587.377 78.5338 587.559 78.7045C587.74 78.8645 587.969 78.9925 588.247 79.0885C588.535 79.1845 588.892 79.2325 589.319 79.2325C589.959 79.2325 590.487 79.1098 590.903 78.8645C591.319 78.6192 591.527 78.2565 591.527 77.7765C591.527 77.4778 591.441 77.2378 591.271 77.0565C591.111 76.8752 590.833 76.7152 590.439 76.5765C590.044 76.4378 589.511 76.2938 588.839 76.1445C588.167 75.9845 587.649 75.7925 587.287 75.5685C586.935 75.3445 586.695 75.0885 586.567 74.8005C586.439 74.5018 586.375 74.1818 586.375 73.8405C586.375 73.4672 586.481 73.1045 586.695 72.7525C586.908 72.3898 587.223 72.0965 587.639 71.8725C588.065 71.6378 588.599 71.5205 589.239 71.5205C589.761 71.5205 590.204 71.5898 590.567 71.7285C590.94 71.8672 591.244 72.0378 591.479 72.2405C591.713 72.4325 591.884 72.6245 591.991 72.8165C592.108 73.0085 592.172 73.1632 592.183 73.2805C592.193 73.3872 592.161 73.4725 592.087 73.5365C592.012 73.6005 591.927 73.6325 591.831 73.6325H591.591C591.505 73.6325 591.436 73.6165 591.383 73.5845C591.329 73.5418 591.281 73.4885 591.239 73.4245C591.132 73.2538 591.004 73.0938 590.855 72.9445C590.705 72.7952 590.503 72.6778 590.247 72.5925C590.001 72.4965 589.665 72.4485 589.239 72.4485C588.599 72.4485 588.124 72.5818 587.815 72.8485C587.505 73.1045 587.351 73.4352 587.351 73.8405C587.351 74.0752 587.415 74.2832 587.543 74.4645C587.671 74.6352 587.911 74.7952 588.263 74.9445C588.615 75.0832 589.127 75.2325 589.799 75.3925C590.481 75.5418 591.02 75.7285 591.415 75.9525C591.809 76.1658 592.087 76.4218 592.247 76.7205C592.417 77.0192 592.503 77.3712 592.503 77.7765C592.503 78.2032 592.38 78.5978 592.135 78.9605C591.9 79.3232 591.543 79.6165 591.063 79.8405C590.593 80.0538 590.012 80.1605 589.319 80.1605Z" fill="#5C5C5C"/>
</g>
<defs>
<filter id="filter0_d_146_43" x="0" y="0.000488281" width="113" height="116" filterUnits="userSpaceOnUse" color-interpolation-filters="sRGB">
<feFlood flood-opacity="0" result="BackgroundImageFix"/>
<feColorMatrix in="SourceAlpha" type="matrix" values="0 0 0 0 0 0 0 0 0 0 0 0 0 0 0 0 0 0 127 0" result="hardAlpha"/>
<feOffset dx="3" dy="6"/>
<feComposite in2="hardAlpha" operator="out"/>
<feColorMatrix type="matrix" values="0 0 0 0 0 0 0 0 0 0 0 0 0 0 0 0 0 0 1 0"/>
<feBlend mode="normal" in2="BackgroundImageFix" result="effect1_dropShadow_146_43"/>
<feBlend mode="normal" in="SourceGraphic" in2="effect1_dropShadow_146_43" result="shape"/>
</filter>
<filter id="filter1_d_146_43" x="169" y="0.000488281" width="113" height="116" filterUnits="userSpaceOnUse" color-interpolation-filters="sRGB">
<feFlood flood-opacity="0" result="BackgroundImageFix"/>
<feColorMatrix in="SourceAlpha" type="matrix" values="0 0 0 0 0 0 0 0 0 0 0 0 0 0 0 0 0 0 127 0" result="hardAlpha"/>
<feOffset dx="3" dy="6"/>
<feComposite in2="hardAlpha" operator="out"/>
<feColorMatrix type="matrix" values="0 0 0 0 0 0 0 0 0 0 0 0 0 0 0 0 0 0 1 0"/>
<feBlend mode="normal" in2="BackgroundImageFix" result="effect1_dropShadow_146_43"/>
<feBlend mode="normal" in="SourceGraphic" in2="effect1_dropShadow_146_43" result="shape"/>
</filter>
<filter id="filter2_d_146_43" x="338" y="0.000488281" width="113" height="116" filterUnits="userSpaceOnUse" color-interpolation-filters="sRGB">
<feFlood flood-opacity="0" result="BackgroundImageFix"/>
<feColorMatrix in="SourceAlpha" type="matrix" values="0 0 0 0 0 0 0 0 0 0 0 0 0 0 0 0 0 0 127 0" result="hardAlpha"/>
<feOffset dx="3" dy="6"/>
<feComposite in2="hardAlpha" operator="out"/>
<feColorMatrix type="matrix" values="0 0 0 0 0 0 0 0 0 0 0 0 0 0 0 0 0 0 1 0"/>
<feBlend mode="normal" in2="BackgroundImageFix" result="effect1_dropShadow_146_43"/>
<feBlend mode="normal" in="SourceGraphic" in2="effect1_dropShadow_146_43" result="shape"/>
</filter>
<filter id="filter3_d_146_43" x="507" y="0.000488281" width="113" height="116" filterUnits="userSpaceOnUse" color-interpolation-filters="sRGB">
<feFlood flood-opacity="0" result="BackgroundImageFix"/>
<feColorMatrix in="SourceAlpha" type="matrix" values="0 0 0 0 0 0 0 0 0 0 0 0 0 0 0 0 0 0 127 0" result="hardAlpha"/>
<feOffset dx="3" dy="6"/>
<feComposite in2="hardAlpha" operator="out"/>
<feColorMatrix type="matrix" values="0 0 0 0 0 0 0 0 0 0 0 0 0 0 0 0 0 0 1 0"/>
<feBlend mode="normal" in2="BackgroundImageFix" result="effect1_dropShadow_146_43"/>
<feBlend mode="normal" in="SourceGraphic" in2="effect1_dropShadow_146_43" result="shape"/>
</filter>
</defs>
</svg>
