<svg width="30" height="30" viewBox="0 0 30 30" fill="none" xmlns="http://www.w3.org/2000/svg">
<g id="Frame 427321180">
<rect width="30" height="30" rx="15" fill="#0EDDBA"/>
<g id="Group 38449">
<g id="Group 38418">
<path id="Vector" d="M19.4081 19.41C21.8381 16.98 21.8381 12.93 19.4081 10.5M10.5881 10.59C8.15813 13.02 8.15813 17.07 10.5881 19.5" stroke="#093BAA" stroke-width="1.5" stroke-miterlimit="10" stroke-linecap="round" stroke-linejoin="round"/>
<path id="Vector_2" d="M15 24C19.9707 24 24 19.9707 24 15C24 10.0293 19.9707 6 15 6C10.0293 6 6 10.0293 6 15C6 19.9707 10.0293 24 15 24Z" stroke="#093BAA" stroke-width="1.5" stroke-miterlimit="10" stroke-linecap="round" stroke-linejoin="round"/>
</g>
<path id="&#194;&#162;" d="M16.9798 13.5325C16.9798 13.6204 16.9359 13.6643 16.848 13.6643L16.1756 13.6907C16.0877 13.6907 16.0437 13.6468 16.0437 13.5589V13.4666C16.0437 13.1765 15.9339 12.926 15.7141 12.715C15.5032 12.4953 15.2307 12.3854 14.8967 12.3854C14.5626 12.3854 14.2902 12.5041 14.0792 12.7414C13.877 12.9699 13.776 13.2732 13.776 13.6511V16.3672C13.776 16.7452 13.877 17.0528 14.0792 17.2901C14.2902 17.5187 14.5626 17.6329 14.8967 17.6329C15.2307 17.6329 15.5032 17.5275 15.7141 17.3165C15.9339 17.0968 16.0437 16.8418 16.0437 16.5518V16.4595C16.0437 16.3716 16.0877 16.3276 16.1756 16.3276L16.848 16.3408C16.9359 16.3408 16.9798 16.3848 16.9798 16.4727V16.6177C16.9798 17.0748 16.8304 17.4703 16.5316 17.8043C16.2327 18.1296 15.8328 18.3317 15.3318 18.4108C15.2966 18.4196 15.279 18.4416 15.279 18.4768L15.3054 19.3865C15.3054 19.4744 15.2614 19.5183 15.1735 19.5183H14.6198C14.5319 19.5183 14.4879 19.4744 14.4879 19.3865L14.5143 18.4768C14.5143 18.4416 14.4967 18.4196 14.4616 18.4108C13.9605 18.3317 13.565 18.1164 13.2749 17.7648C12.9849 17.4132 12.8398 16.9693 12.8398 16.4331V13.5852C12.8398 13.0666 12.9849 12.6315 13.2749 12.2799C13.565 11.9196 13.9605 11.6954 14.4616 11.6075C14.4967 11.5987 14.5143 11.5768 14.5143 11.5416L14.4879 10.6318C14.4879 10.5439 14.5319 10.5 14.6198 10.5H15.1735C15.2614 10.5 15.3054 10.5439 15.3054 10.6318L15.279 11.5416C15.279 11.5768 15.2966 11.5987 15.3318 11.6075C15.8328 11.6954 16.2327 11.9064 16.5316 12.2404C16.8304 12.5744 16.9798 12.9611 16.9798 13.4006V13.5325Z" fill="#093BAA"/>
</g>
</g>
</svg>
