<svg width="30" height="30" viewBox="0 0 30 30" fill="none" xmlns="http://www.w3.org/2000/svg">
<rect width="30" height="30" rx="15" fill="#0EDDBA"/>
<path d="M17.9823 15C17.9823 16.65 16.649 17.9833 14.999 17.9833C13.349 17.9833 12.0156 16.65 12.0156 15C12.0156 13.35 13.349 12.0167 14.999 12.0167C16.649 12.0167 17.9823 13.35 17.9823 15Z" stroke="#093BAA" stroke-width="1.5" stroke-linecap="round" stroke-linejoin="round"/>
<path d="M15.0018 21.8916C17.9435 21.8916 20.6852 20.1583 22.5935 17.1583C23.3435 15.9833 23.3435 14.0083 22.5935 12.8333C20.6852 9.83331 17.9435 8.09998 15.0018 8.09998C12.0602 8.09998 9.31849 9.83331 7.41016 12.8333C6.66016 14.0083 6.66016 15.9833 7.41016 17.1583C9.31849 20.1583 12.0602 21.8916 15.0018 21.8916Z" stroke="#093BAA" stroke-width="1.5" stroke-linecap="round" stroke-linejoin="round"/>
</svg>
