<svg width="26" height="26" viewBox="0 0 26 26" fill="none" xmlns="http://www.w3.org/2000/svg">
<g id="Group 38351">
<g id="Group 38344">
<path id="Vector" d="M16.5956 17.2063C16.5956 21.5137 13.1075 25 8.79781 25C4.48816 25 1 21.5137 1 17.2063C1 12.8989 4.48816 9.4126 8.79781 9.4126C9.00002 9.4126 9.1896 9.42523 9.40445 9.43786C13.2338 9.72839 16.2923 12.7852 16.583 16.6126C16.583 16.8021 16.5956 16.9915 16.5956 17.2063Z" stroke="#093BAA" stroke-width="1.5" stroke-miterlimit="10" stroke-linecap="round" stroke-linejoin="round"/>
<path id="Vector_2" d="M24.9999 8.79368C24.9999 13.1011 21.5118 16.5874 17.2021 16.5874H16.5828C16.4394 14.7322 15.637 12.9894 14.3206 11.6737C13.0042 10.3579 11.2605 9.55598 9.4043 9.41263V8.79368C9.4043 4.48632 12.8925 1 17.2021 1C21.5118 1 24.9999 4.48632 24.9999 8.79368Z" stroke="#093BAA" stroke-width="1.5" stroke-miterlimit="10" stroke-linecap="round" stroke-linejoin="round"/>
</g>
<path id="&#226;&#130;&#185;" d="M8.62955 20.7431L6.59863 17.2753V16.8129H6.83504C7.21471 16.8129 7.5335 16.7779 7.79139 16.7078C8.05645 16.6378 8.2642 16.5222 8.41464 16.3611C8.56507 16.1999 8.65462 15.9792 8.68327 15.699H6.59863V15.0265H8.67253C8.62238 14.7672 8.52209 14.5571 8.37165 14.3959C8.22122 14.2278 8.01705 14.1052 7.75916 14.0281C7.50843 13.9511 7.20039 13.9125 6.83504 13.9125H6.59863V13.24H11.0473V13.9125H9.01639C9.18115 14.0457 9.31726 14.2033 9.42472 14.3854C9.53218 14.5676 9.60023 14.7813 9.62889 15.0265H11.0473V15.699H9.65038C9.60023 16.2104 9.39965 16.6098 9.04862 16.897C8.70477 17.1772 8.24629 17.3559 7.67319 17.4329L9.7256 20.7431H8.62955Z" fill="#093BAA"/>
<path id="Vector_3" d="M14.9258 10.4424C14.9258 11.306 15.5939 12.0005 16.4135 12.0005H18.0882C18.8008 12.0005 19.3799 11.395 19.3799 10.6382C19.3799 9.82803 19.0236 9.53421 18.498 9.34724L15.8166 8.41237C15.291 8.2254 14.9347 7.94049 14.9347 7.12137C14.9347 6.37347 15.5137 5.75913 16.2264 5.75913H17.9011C18.7207 5.75913 19.3888 6.4536 19.3888 7.31724M17.1528 4.87769V12.8908" stroke="#093BAA" stroke-linecap="round" stroke-linejoin="round"/>
</g>
</svg>
