<svg width="29" height="26" viewBox="0 0 29 26" fill="none" xmlns="http://www.w3.org/2000/svg">
<path d="M4.61627 20.1783V11.7403M9.43797 20.1783V11.7403M14.2597 20.1783V11.7403M19.0814 20.1783V11.7403M23.9031 20.1783V11.7403M1 25H27.5193M14.7057 1.07233L25.5545 5.41185C25.9764 5.58061 26.3139 6.08689 26.3139 6.5329V10.5349C26.3139 11.1979 25.7715 11.7403 25.1085 11.7403H3.41085C2.74787 11.7403 2.20542 11.1979 2.20542 10.5349V6.5329C2.20542 6.08689 2.54294 5.58061 2.96484 5.41185L13.8137 1.07233C14.0547 0.975892 14.4646 0.975892 14.7057 1.07233ZM26.3139 25H2.20542V21.3837C2.20542 20.7207 2.74787 20.1783 3.41085 20.1783H25.1085C25.7715 20.1783 26.3139 20.7207 26.3139 21.3837V25Z" stroke="#093BAA" stroke-width="1.5" stroke-miterlimit="10" stroke-linecap="round" stroke-linejoin="round"/>
<path d="M14.2583 8.72662C14.4958 8.72662 14.7309 8.67986 14.9503 8.58899C15.1696 8.49812 15.369 8.36494 15.5369 8.19703C15.7048 8.02913 15.838 7.82981 15.9288 7.61043C16.0197 7.39106 16.0665 7.15594 16.0665 6.91849C16.0665 6.68104 16.0197 6.44592 15.9288 6.22654C15.838 6.00717 15.7048 5.80784 15.5369 5.63994C15.369 5.47204 15.1696 5.33885 14.9503 5.24799C14.7309 5.15712 14.4958 5.11035 14.2583 5.11035C13.7788 5.11035 13.3189 5.30085 12.9798 5.63994C12.6407 5.97903 12.4502 6.43894 12.4502 6.91849C12.4502 7.39804 12.6407 7.85794 12.9798 8.19703C13.3189 8.53613 13.7788 8.72662 14.2583 8.72662Z" stroke="#093BAA" stroke-width="1.5" stroke-miterlimit="10" stroke-linecap="round" stroke-linejoin="round"/>
</svg>
