<svg width="26" height="26" viewBox="0 0 26 26" fill="none" xmlns="http://www.w3.org/2000/svg">
<g id="Group 38449">
<g id="Group 38418">
<path id="Vector" d="M18.8795 18.88C22.1195 15.64 22.1195 10.24 18.8795 7M7.11945 7.12C3.87945 10.36 3.87945 15.76 7.11945 19" stroke="#093BAA" stroke-width="2" stroke-miterlimit="10" stroke-linecap="round" stroke-linejoin="round"/>
<path id="Vector_2" d="M13 25C19.6276 25 25 19.6276 25 13C25 6.3724 19.6276 1 13 1C6.3724 1 1 6.3724 1 13C1 19.6276 6.3724 25 13 25Z" stroke="#093BAA" stroke-width="2" stroke-miterlimit="10" stroke-linecap="round" stroke-linejoin="round"/>
</g>
<path id="&#194;&#162;" d="M15.6401 11.0433C15.6401 11.1605 15.5815 11.2191 15.4643 11.2191L14.5678 11.2543C14.4506 11.2543 14.392 11.1957 14.392 11.0785V10.9554C14.392 10.5687 14.2455 10.2346 13.9525 9.95338C13.6712 9.66038 13.3079 9.51389 12.8625 9.51389C12.4172 9.51389 12.0539 9.6721 11.7726 9.98854C11.503 10.2932 11.3683 10.6976 11.3683 11.2015V14.8229C11.3683 15.3269 11.503 15.7371 11.7726 16.0535C12.0539 16.3582 12.4172 16.5106 12.8625 16.5106C13.3079 16.5106 13.6712 16.3699 13.9525 16.0887C14.2455 15.7957 14.392 15.4558 14.392 15.069V14.946C14.392 14.8288 14.4506 14.7702 14.5678 14.7702L15.4643 14.7878C15.5815 14.7878 15.6401 14.8464 15.6401 14.9636V15.1569C15.6401 15.7664 15.4409 16.2938 15.0424 16.7391C14.6439 17.1727 14.1107 17.4423 13.4427 17.5478C13.3958 17.5595 13.3723 17.5888 13.3723 17.6357L13.4075 18.8487C13.4075 18.9659 13.3489 19.0245 13.2317 19.0245H12.4934C12.3762 19.0245 12.3176 18.9659 12.3176 18.8487L12.3527 17.6357C12.3527 17.5888 12.3293 17.5595 12.2824 17.5478C11.6144 17.4423 11.087 17.1552 10.7002 16.6864C10.3135 16.2176 10.1201 15.6257 10.1201 14.9108V11.1136C10.1201 10.4222 10.3135 9.84204 10.7002 9.37325C11.087 8.89274 11.6144 8.59389 12.2824 8.47669C12.3293 8.46497 12.3527 8.43567 12.3527 8.38879L12.3176 7.1758C12.3176 7.0586 12.3762 7 12.4934 7H13.2317C13.3489 7 13.4075 7.0586 13.4075 7.1758L13.3723 8.38879C13.3723 8.43567 13.3958 8.46497 13.4427 8.47669C14.1107 8.59389 14.6439 8.87516 15.0424 9.32051C15.4409 9.76586 15.6401 10.2815 15.6401 10.8675V11.0433Z" fill="#093BAA"/>
</g>
</svg>
