<svg width="24" height="26" viewBox="0 0 24 26" fill="none" xmlns="http://www.w3.org/2000/svg">
<g id="Group 38408">
<path id="Vector" d="M22.804 8.896V17.104C22.804 18.448 22.084 19.696 20.92 20.38L13.792 24.496C12.628 25.168 11.188 25.168 10.012 24.496L2.884 20.38C2.31013 20.0473 1.83393 19.5694 1.50322 18.9943C1.17252 18.4193 0.99897 17.7674 1 17.104V8.896C1 7.552 1.72 6.304 2.884 5.62L10.012 1.504C11.176 0.832 12.616 0.832 13.792 1.504L20.92 5.62C22.084 6.304 22.804 7.54 22.804 8.896Z" stroke="#093BAA" stroke-width="1.5" stroke-linecap="round" stroke-linejoin="round"/>
<path id="Vector_2" d="M16.7074 18.592C16.7074 16.432 14.5594 14.68 11.9074 14.68C9.25542 14.68 7.10742 16.432 7.10742 18.592M11.9074 11.8C12.649 11.8 13.3601 11.5054 13.8845 10.9811C14.4088 10.4567 14.7034 9.74555 14.7034 9.00401C14.7034 8.26246 14.4088 7.55129 13.8845 7.02694C13.3601 6.50259 12.649 6.20801 11.9074 6.20801C11.1659 6.20801 10.4547 6.50259 9.93035 7.02694C9.406 7.55129 9.11142 8.26246 9.11142 9.00401C9.11142 9.74555 9.406 10.4567 9.93035 10.9811C10.4547 11.5054 11.1659 11.8 11.9074 11.8Z" stroke="#093BAA" stroke-width="1.5" stroke-linecap="round" stroke-linejoin="round"/>
</g>
</svg>
