<svg width="26" height="26" viewBox="0 0 26 26" fill="none" xmlns="http://www.w3.org/2000/svg">
<path d="M10.1199 22.5999H15.8799C20.6799 22.5999 22.5999 20.6799 22.5999 15.8799V10.1199C22.5999 5.3199 20.6799 3.3999 15.8799 3.3999H10.1199C5.3199 3.3999 3.3999 5.3199 3.3999 10.1199V15.8799C3.3999 20.6799 5.3199 22.5999 10.1199 22.5999Z" stroke="#093BAA" stroke-width="1.5" stroke-linecap="round" stroke-linejoin="round"/>
<path d="M8.212 3.4V1M13 3.4V1M17.8 3.4V1M22.6 8.2H25M22.6 13H25M22.6 17.8H25M17.8 22.6V25M13.012 22.6V25M8.212 22.6V25M1 8.2H3.4M1 13H3.4M1 17.8H3.4M11.2 19H14.8C17.8 19 19 17.8 19 14.8V11.2C19 8.2 17.8 7 14.8 7H11.2C8.2 7 7 8.2 7 11.2V14.8C7 17.8 8.2 19 11.2 19Z" stroke="#093BAA" stroke-width="1.5" stroke-linecap="round" stroke-linejoin="round"/>
<path d="M14.3666 10.1966C14.7746 10.6002 15.1795 11.0102 15.5851 11.4209C15.6435 11.48 15.7018 11.539 15.7602 11.5981C15.8106 11.6441 15.8582 11.6932 15.9027 11.745M14.3666 10.1966L13.8888 10.7789M14.3666 10.1966C14.0454 9.87648 13.6631 9.80071 13.2445 9.96166L14.3666 10.1966ZM15.9027 11.745L15.7142 11.8948C15.6916 11.8399 15.6649 11.7869 15.6343 11.7361C15.6326 11.7333 15.6309 11.7305 15.6291 11.7277C15.5917 11.6669 15.5487 11.6094 15.5005 11.5562C15.4937 11.5487 15.4868 11.5414 15.4797 11.5342C15.1579 11.2066 14.8329 10.882 14.5047 10.5603L14.4896 10.5459C14.4063 10.4687 14.3129 10.4038 14.2121 10.3529C14.2118 10.3527 14.2116 10.3526 14.2113 10.3525C14.1614 10.3273 14.1096 10.3055 14.0564 10.2874L13.9421 10.6227L13.9405 10.6274L13.8888 10.7789M15.9027 11.745C15.9876 11.8519 16.0498 11.9751 16.0853 12.107C16.1208 12.2389 16.1289 12.3767 16.1091 12.5118C16.0893 12.647 16.0421 12.7767 15.9702 12.8928C15.8984 13.0089 15.8036 13.1091 15.6916 13.187L15.7034 12.674C15.7361 12.6067 15.7603 12.5359 15.7756 12.463C15.7857 12.4146 15.7919 12.3654 15.7941 12.3158C15.796 12.2725 15.7947 12.2292 15.7905 12.1863C15.7836 12.1175 15.7689 12.0495 15.7465 11.9838C15.7379 11.9568 15.7283 11.93 15.7178 11.9037L15.9027 11.745ZM13.8888 10.7789C13.8723 10.7625 13.8557 10.7462 13.8392 10.7298L13.8373 10.7279L13.8373 10.7279C13.7633 10.6542 13.7139 10.6381 13.6904 10.6332C13.6707 10.6292 13.6321 10.6254 13.5658 10.6442C13.55 10.6486 13.5327 10.6544 13.5137 10.6617L13.5089 10.6635L13.5089 10.6635C13.4806 10.6742 13.4693 10.6847 13.4606 10.6949C13.4494 10.7081 13.4283 10.7391 13.4086 10.8027M13.8888 10.7789C13.8889 10.779 13.889 10.7792 13.8891 10.7793L13.9417 10.6262L13.9433 10.6215L14.0577 10.2878C13.8583 10.2194 13.6417 10.2198 13.4425 10.2889L13.4425 10.2889C13.4212 10.2963 13.4003 10.3044 13.3797 10.3132C13.3789 10.3136 13.3781 10.3139 13.3773 10.3143C13.2122 10.3857 13.0707 10.5029 12.9698 10.6524M13.4086 10.8027C13.4092 10.8004 13.4098 10.7981 13.4105 10.7957L13.0634 10.6998L12.9789 10.6395C12.9758 10.6438 12.9728 10.6481 12.9698 10.6524M13.4086 10.8027C13.4079 10.805 13.4072 10.8073 13.4065 10.8096L13.0821 10.7132L13.3881 10.9318C13.3906 10.8882 13.3974 10.8449 13.4086 10.8027ZM12.9698 10.6524C12.9656 10.6584 12.9615 10.6645 12.9575 10.6706L12.9657 10.6729L12.9591 10.6686C12.9626 10.6632 12.9662 10.6578 12.9698 10.6524ZM15.2418 12.1401L15.0344 12.2196L15.2567 12.154M15.2418 12.1401L14.187 13.4195C14.0742 13.4042 13.9882 13.3044 13.9944 13.1865L14.008 12.9302C14.0162 12.776 14.1 12.6438 14.2228 12.5672L14.2184 12.6711M15.2418 12.1401C15.246 12.1442 15.2504 12.1482 15.2547 12.1522C15.2554 12.1528 15.256 12.1534 15.2567 12.154M15.2418 12.1401L15.2786 12.126L15.5582 12.0188L15.5151 12.0777L15.3336 12.2335C15.3299 12.2292 15.3262 12.2249 15.3224 12.2207M15.2567 12.154C15.2797 12.1751 15.3016 12.1974 15.3224 12.2207M15.2567 12.154L15.4656 12.0923L15.3155 12.2116C15.3179 12.2146 15.3202 12.2176 15.3224 12.2207M15.3224 12.2207C15.339 12.2437 15.3517 12.2695 15.3597 12.297C15.3601 12.2986 15.3606 12.3002 15.361 12.3019L15.3766 12.2977L15.361 12.3019C15.3699 12.3349 15.372 12.3694 15.367 12.4032C15.3623 12.4356 15.3512 12.4667 15.3346 12.4946M15.3346 12.4946L15.0289 12.346L15.3346 12.4946M15.3346 12.4946C15.3346 12.4946 15.3346 12.4946 15.3346 12.4946M15.3346 12.4946L15.7034 12.674L15.3346 12.4946M15.3346 12.4946C15.3339 12.4959 15.3331 12.4971 15.3323 12.4984C15.3144 12.5273 15.2909 12.5522 15.2632 12.5715L15.2631 12.5715L15.2581 12.575C15.2332 12.5927 15.2062 12.6068 15.1779 12.6171C15.1433 12.6297 15.1067 12.6367 15.0695 12.6375C15.0624 12.6377 15.0553 12.638 15.0482 12.6383C15.0352 12.639 15.0221 12.6396 15.0091 12.6403M15.0091 12.6403L14.933 12.4281L14.9982 12.6408M15.0091 12.6403L15.0549 12.768L15.0736 12.8204L15.1861 13.1341C15.1823 13.1355 15.1784 13.1369 15.1745 13.1382C15.1673 13.1406 15.1602 13.1429 15.1529 13.1452L15.0753 12.892L15.0584 12.837L14.9982 12.6408M15.0091 12.6403C15.0055 12.6405 15.0018 12.6406 14.9982 12.6408M14.9982 12.6408C14.8889 12.6461 14.7804 12.6505 14.6709 12.6546C14.6704 12.6547 14.6699 12.6547 14.6694 12.6547C14.6048 12.6571 14.5398 12.6594 14.474 12.6618C14.4689 12.662 14.4638 12.6621 14.4587 12.6623C14.38 12.6651 14.3001 12.668 14.2184 12.6711M14.2184 12.6711L14.2184 12.6716L14.1971 12.672C14.2042 12.6717 14.2113 12.6714 14.2184 12.6711ZM14.2174 13.1983L14.4785 13.2122L14.2174 13.1983ZM12.4765 14.726L12.632 14.7324L12.4765 14.726Z" fill="#093BAA" stroke="#093BAA" stroke-width="1.5" stroke-linejoin="round"/>
</svg>
