<svg width="24" height="26" viewBox="0 0 24 26" fill="none" xmlns="http://www.w3.org/2000/svg">
<g id="Group 38414">
<path id="Vector" d="M22.3947 11.9405C22.3947 17.8114 18.1326 23.3102 12.3097 24.919C11.9135 25.027 11.4812 25.027 11.085 24.919C5.26213 23.3102 1 17.8114 1 11.9405V6.66983C1 5.68534 1.74437 4.56878 2.66883 4.1966L9.35618 1.45923C10.8569 0.846923 12.5498 0.846923 14.0505 1.45923L20.7379 4.1966C21.6503 4.56878 22.4067 5.68534 22.4067 6.66983L22.3947 11.9405Z" stroke="#093BAA" stroke-width="1.5" stroke-linecap="round" stroke-linejoin="round"/>
<path id="Vector_2" d="M11.6971 13.5973C12.3339 13.5973 12.9447 13.3443 13.395 12.894C13.8453 12.4437 14.0983 11.833 14.0983 11.1961C14.0983 10.5593 13.8453 9.94853 13.395 9.49822C12.9447 9.04791 12.3339 8.79492 11.6971 8.79492C11.0603 8.79492 10.4495 9.04791 9.99919 9.49822C9.54888 9.94853 9.2959 10.5593 9.2959 11.1961C9.2959 11.833 9.54888 12.4437 9.99919 12.894C10.4495 13.3443 11.0603 13.5973 11.6971 13.5973ZM11.6971 13.5973V17.1991" stroke="#093BAA" stroke-width="1.5" stroke-miterlimit="10" stroke-linecap="round" stroke-linejoin="round"/>
</g>
</svg>
