<svg width="342" height="293" viewBox="0 0 342 293" fill="none" xmlns="http://www.w3.org/2000/svg">
<path fill-rule="evenodd" clip-rule="evenodd" d="M17.6027 79.9003C17.6027 51.432 21.4234 37.1623 29.3834 29.2919C37.378 21.3872 51.8924 17.6027 80.7101 17.6027H191.488C196.349 17.6027 200.29 13.6622 200.29 8.80133C200.29 3.94049 196.349 0 191.488 0H80.7101C52.0331 0 30.5931 3.34155 17.0071 16.7747C3.38635 30.2421 0 51.5218 0 79.9003V89.7784V213.029C0 241.407 3.38635 262.687 17.0071 276.154C30.5931 289.587 52.0331 292.929 80.7101 292.929H260.806C289.483 292.929 310.923 289.587 324.509 276.154C338.13 262.687 341.516 241.407 341.516 213.029V135.613C341.516 130.753 337.575 126.812 332.715 126.812C327.854 126.812 323.913 130.753 323.913 135.613V213.029C323.913 241.497 320.093 255.767 312.133 263.637C304.138 271.542 289.624 275.326 260.806 275.326H80.7101C51.8924 275.326 37.378 271.542 29.3834 263.637C21.4234 255.767 17.6027 241.497 17.6027 213.029V98.5797H186.954C191.814 98.5797 195.755 94.6392 195.755 89.7784C195.755 84.9175 191.814 80.9771 186.954 80.9771H17.6027V79.9003ZM73.584 210.542C68.7232 210.542 64.7827 214.483 64.7827 219.344C64.7827 224.205 68.7232 228.145 73.584 228.145H105.975C110.836 228.145 114.777 224.205 114.777 219.344C114.777 214.483 110.836 210.542 105.975 210.542H73.584ZM146.464 210.542C141.604 210.542 137.663 214.483 137.663 219.344C137.663 224.205 141.604 228.145 146.464 228.145H211.247C216.108 228.145 220.048 224.205 220.048 219.344C220.048 214.483 216.108 210.542 211.247 210.542H146.464Z" fill="#093BAA"/>
<path fill-rule="evenodd" clip-rule="evenodd" d="M264.778 89.5736C264.714 91.0929 264.651 92.6122 264.588 94.1315C264.576 94.408 264.565 94.6846 264.553 94.9611C264.48 96.7132 264.408 98.4653 264.336 100.217C264.318 100.686 264.271 101.153 264.194 101.615C263.437 105.915 259.654 107.467 256.237 104.79C254.634 103.433 253.114 101.982 251.685 100.442C251.438 100.196 251.191 99.9493 250.944 99.7027C250.931 99.6899 250.918 99.6772 250.905 99.6644C250.806 99.5657 250.707 99.467 250.608 99.3682C250.55 99.3101 250.492 99.2519 250.433 99.1936C249.471 98.2327 248.509 97.2712 247.547 96.3092C247.333 96.0956 247.12 95.882 246.906 95.6684C246.081 94.8425 245.256 94.0162 244.431 93.1895C244.354 93.1122 244.277 93.0349 244.2 92.9577C244.098 92.8564 243.997 92.7551 243.896 92.6538C243.586 92.3427 243.276 92.0315 242.966 91.7202C242.306 91.0582 241.646 90.396 240.987 89.7334C240.948 89.6943 240.909 89.6551 240.87 89.6159C239.275 88.0141 237.682 86.4107 236.09 84.8059C235.074 83.8614 234.334 82.6574 233.95 81.3232C233.672 80.4584 233.735 79.5198 234.127 78.7002C234.518 77.8806 235.208 77.2424 236.055 76.9166C238.254 76.0829 240.585 75.6535 242.936 75.6491L254.617 74.7962C254.623 74.5049 254.629 74.2137 254.636 73.9226C254.636 73.921 254.636 73.9193 254.636 73.9177C254.636 73.9137 254.636 73.9098 254.636 73.9059C254.682 71.7251 254.728 69.5496 254.774 67.374C254.852 63.681 254.929 59.9879 255.007 56.2693L248.635 56.6366L233.075 57.5605C228.601 57.6517 224.258 59.0925 220.613 61.6947C208.79 70.5791 210.445 84.5808 217.492 91.9845C219.66 94.2692 221.897 96.4838 224.135 98.6984C224.948 99.5037 225.762 100.309 226.572 101.118C228.752 103.301 230.932 105.494 233.114 107.69C238.036 112.641 242.973 117.607 247.961 122.523C251.114 125.604 255.178 127.579 259.545 128.153C263.911 128.728 268.346 127.87 272.187 125.71C278.713 121.919 281.763 115.901 282.201 108.521C282.502 103.446 282.702 98.2426 282.901 93.0564C282.974 91.1566 283.047 89.2592 283.125 87.3713C283.144 86.9184 283.163 86.466 283.182 86.0142L285.346 34.5086C285.346 33.4914 285.395 32.4742 285.445 31.4515C285.46 31.1522 285.474 30.8525 285.488 30.5521C285.502 29.132 285.952 27.7506 286.776 26.5956C287.249 25.8631 287.953 25.3101 288.776 25.0246C289.598 24.7391 290.493 24.7375 291.317 25.0201C292.555 25.4422 293.691 26.1202 294.651 27.0102C295.896 28.2312 297.14 29.4544 298.381 30.6797C298.539 30.8357 298.697 30.9917 298.855 31.1477C299.987 32.2662 301.117 33.3865 302.245 34.5086C302.272 34.5352 302.298 34.5618 302.325 34.5884C302.528 34.7907 302.732 34.9931 302.935 35.1956C303.74 35.9974 304.544 36.8002 305.347 37.6038C305.552 37.8082 305.756 38.0126 305.96 38.217C306.349 38.6071 306.738 38.9973 307.127 39.3878C307.177 39.4375 307.226 39.4873 307.276 39.5371C308.037 40.3018 308.798 41.0674 309.557 41.8337C309.859 42.1379 310.16 42.4422 310.461 42.7467C311.681 43.9787 312.897 45.2129 314.112 46.4492C314.949 47.3731 315.567 48.4745 315.921 49.6712C316.078 50.0808 316.149 50.5184 316.13 50.9568C316.111 51.3952 316.002 51.8249 315.811 52.2194C315.619 52.6138 315.348 52.9645 315.015 53.2496C314.682 53.5346 314.294 53.748 313.875 53.8765C312.088 54.5174 310.223 54.9158 308.33 55.0611C307.278 55.1325 306.226 55.1875 305.172 55.2317C304.91 55.2427 304.648 55.253 304.386 55.2627C303.622 55.2911 302.856 55.3145 302.089 55.3351C301.754 55.3442 301.419 55.3526 301.083 55.3607C300.488 55.3751 299.892 55.3884 299.294 55.4016C299.289 55.4017 299.284 55.4018 299.28 55.4019C299.279 55.4019 299.278 55.4019 299.277 55.4019C299.191 55.4038 299.105 55.4057 299.019 55.4076C298.76 55.4133 298.502 55.4189 298.243 55.4247C297.388 55.4437 296.53 55.4637 295.668 55.4875C295.651 55.8071 295.635 56.1265 295.618 56.4458C295.402 60.6233 295.181 64.7778 294.959 68.96C294.868 70.6667 294.777 72.378 294.686 74.0973L299.617 73.9078C300.182 73.8858 300.747 73.8644 301.312 73.8434C302.548 73.7975 303.783 73.7534 305.018 73.7093C307.463 73.622 309.906 73.5348 312.349 73.4334C313.89 73.3694 315.432 73.2997 316.973 73.2207C321.351 73.1207 325.599 71.7142 329.175 69.1813C331.433 67.6093 333.345 65.5898 334.793 63.2477C336.241 60.9056 337.194 58.2907 337.593 55.5648C337.992 52.8388 337.829 50.0599 337.113 47.3998C336.397 44.7398 335.144 42.2552 333.431 40.0998C332.534 39.0551 331.575 38.0661 330.558 37.1384C329.38 35.9464 328.203 34.7545 327.026 33.5629C318.846 25.2805 310.682 17.014 302.454 8.87423C295.975 2.41826 288.266 0.890155 279.824 4.13591C273.913 6.36292 270.366 10.9591 268.592 16.9294C267.991 19.1078 267.653 21.351 267.587 23.6104C267.292 30.1196 267.008 36.6288 266.731 43.1387C266.541 47.5931 266.354 52.0479 266.168 56.5032C266.074 58.7582 265.98 61.0134 265.887 63.2688C265.733 66.9686 265.579 70.6689 265.424 74.3698C265.414 74.5875 265.405 74.8052 265.396 75.0229C265.2 79.5854 265.006 84.1478 264.814 88.7103C264.808 88.86 264.802 89.0098 264.795 89.1595C264.79 89.2976 264.784 89.4356 264.778 89.5736Z" fill="#093BAA"/>
</svg>
