<svg width="126" height="126" viewBox="0 0 126 126" fill="none" xmlns="http://www.w3.org/2000/svg">
<path fill-rule="evenodd" clip-rule="evenodd" d="M52.8123 87.0868C52.7486 88.6061 52.6851 90.1254 52.6219 91.6447C52.6104 91.9212 52.5989 92.1978 52.5874 92.4743C52.5146 94.2264 52.4422 95.9784 52.3701 97.7305C52.3521 98.199 52.3047 98.6658 52.2282 99.1283C51.4715 103.428 47.6881 104.98 44.2711 102.303C42.6681 100.947 41.1481 99.4949 39.7192 97.9556C39.472 97.709 39.2248 97.4625 38.9777 97.2159C38.9649 97.2031 38.9521 97.1903 38.9393 97.1776C38.8404 97.0789 38.7415 96.9802 38.6426 96.8814C38.5843 96.8232 38.526 96.765 38.4677 96.7068C37.505 95.7459 36.5427 94.7844 35.5809 93.8224C35.3673 93.6088 35.1538 93.3952 34.9403 93.1816C34.1149 92.3557 33.2898 91.5293 32.465 90.7026C32.3879 90.6254 32.3108 90.5481 32.2337 90.4709C32.1327 90.3696 32.0316 90.2683 31.9306 90.167C31.6203 89.8559 31.31 89.5447 30.9998 89.2334C30.34 88.5714 29.6803 87.9091 29.0209 87.2466C28.9819 87.2074 28.9429 87.1683 28.9039 87.1291C27.3096 85.5273 25.7164 83.9239 24.1243 82.3191C23.1083 81.3746 22.3685 80.1706 21.9843 78.8364C21.7063 77.9716 21.7696 77.0329 22.161 76.2134C22.5524 75.3938 23.2423 74.7555 24.0888 74.4298C26.2878 73.596 28.6188 73.1667 30.97 73.1623L42.6513 72.3094C42.6575 72.0181 42.6636 71.7269 42.6697 71.4358C42.6698 71.4342 42.6698 71.4325 42.6698 71.4308C42.6699 71.4269 42.67 71.423 42.6701 71.4191C42.716 69.2383 42.7619 67.0628 42.8078 64.8872C42.8857 61.1942 42.9636 57.5011 43.0415 53.7825L36.6688 54.1497L21.1094 55.0737C16.635 55.1649 12.2921 56.6057 8.64763 59.2079C-3.17563 68.0923 -1.52038 82.094 5.52629 89.4977C7.69391 91.7823 9.93148 93.997 12.169 96.2116C12.9827 97.0169 13.7963 97.8221 14.6066 98.6308C16.7861 100.815 18.9657 103.007 21.1483 105.203C26.0697 110.154 31.0067 115.121 35.9948 120.036C39.1481 123.117 43.212 125.092 47.5788 125.666C51.9456 126.241 56.3806 125.384 60.2207 123.223C66.7472 119.432 69.7976 113.414 70.235 106.034C70.5358 100.96 70.736 95.7558 70.9356 90.5695C71.0086 88.6698 71.0816 86.7724 71.1594 84.8845C71.1781 84.4315 71.1971 83.9791 71.2164 83.5274L73.38 32.0218C73.38 31.0046 73.4295 29.9874 73.4793 28.9647C73.4939 28.6654 73.5085 28.3656 73.5219 28.0653C73.5359 26.6452 73.9859 25.2638 74.8106 24.1088C75.2834 23.3763 75.9872 22.8233 76.8099 22.5378C77.6327 22.2523 78.527 22.2507 79.3508 22.5333C80.589 22.9554 81.7249 23.6334 82.6849 24.5234C83.9306 25.7444 85.174 26.9676 86.4152 28.1929C86.5731 28.3488 86.7311 28.5048 86.889 28.6609C88.0209 29.7794 89.1509 30.8997 90.279 32.0218C90.3058 32.0484 90.3325 32.075 90.3593 32.1016C90.5626 32.3039 90.766 32.5063 90.9693 32.7088C91.7743 33.5106 92.5784 34.3133 93.3816 35.117C93.5858 35.3213 93.7899 35.5258 93.994 35.7302C94.3833 36.1203 94.7724 36.5105 95.1613 36.9009C95.2108 36.9507 95.2604 37.0005 95.31 37.0503C96.0713 37.815 96.8319 38.5805 97.5915 39.3469C97.893 39.6511 98.1944 39.9554 98.4956 40.2599C99.7147 41.4919 100.931 42.7261 102.146 43.9623C102.983 44.8863 103.602 45.9877 103.955 47.1844C104.112 47.594 104.183 48.0316 104.164 48.47C104.145 48.9083 104.037 49.3381 103.845 49.7325C103.653 50.127 103.382 50.4776 103.049 50.7627C102.716 51.0478 102.328 51.2612 101.91 51.3897C100.122 52.0306 98.2573 52.429 96.3645 52.5743C95.3123 52.6457 94.2602 52.7007 93.2064 52.7449C92.9445 52.7559 92.6825 52.7662 92.4204 52.7759C91.656 52.8043 90.8906 52.8277 90.1233 52.8483C89.7883 52.8573 89.4529 52.8658 89.1172 52.8739C88.522 52.8883 87.9257 52.9016 87.3278 52.9147C87.3231 52.9148 87.3184 52.9149 87.3137 52.915C87.3129 52.9151 87.3121 52.9151 87.3113 52.9151C87.2251 52.917 87.1389 52.9189 87.0527 52.9208C86.7944 52.9265 86.5358 52.9321 86.2769 52.9379C85.4222 52.9569 84.5641 52.9769 83.7017 53.0007C83.6853 53.3203 83.6688 53.6397 83.6523 53.959C83.4365 58.1365 83.2156 62.291 82.9932 66.4732C82.9024 68.1799 82.8114 69.8912 82.7204 71.6105L87.6507 71.421C88.2158 71.399 88.7809 71.3776 89.3458 71.3566C90.5818 71.3106 91.8173 71.2665 93.0524 71.2225C95.4971 71.1352 97.9403 71.048 100.383 70.9466C101.925 70.8825 103.466 70.8128 105.007 70.7339C109.385 70.6339 113.633 69.2274 117.209 66.6945C119.467 65.1225 121.38 63.103 122.828 60.7609C124.276 58.4188 125.229 55.8039 125.628 53.0779C126.027 50.352 125.863 47.5731 125.147 44.913C124.431 42.2529 123.178 39.7684 121.465 37.613C120.568 36.5683 119.609 35.5793 118.592 34.6515C117.414 33.4596 116.237 32.2677 115.06 31.0761C106.88 22.7936 98.7159 14.5272 90.4883 6.38742C84.0091 -0.0685515 76.3004 -1.59666 67.8586 1.64909C61.9469 3.87611 58.3999 8.47228 56.6265 14.4426C56.0247 16.621 55.6873 18.8642 55.6215 21.1236C55.3257 27.6328 55.0423 34.142 54.765 40.6519C54.5753 45.1063 54.3884 49.5611 54.2026 54.0164C54.1085 56.2714 54.0147 58.5266 53.9208 60.7819C53.7669 64.4818 53.6129 68.1821 53.4578 71.8829C53.4485 72.1007 53.4391 72.3184 53.4297 72.5361C53.2338 77.0985 53.04 81.661 52.8485 86.2234C52.8422 86.3732 52.8359 86.523 52.8296 86.6727C52.8238 86.8108 52.818 86.9488 52.8123 87.0868Z" fill="#093BAA"/>
</svg>
