<svg width="26" height="26" viewBox="0 0 26 26" fill="none" xmlns="http://www.w3.org/2000/svg">
<g id="Group 38499">
<g id="Group 38417">
<g id="Group 38416">
<path id="Vector" d="M18.3995 11.296V14.572C18.3995 17.308 17.3075 18.4 14.5715 18.4H11.3075C8.58349 18.4 7.47949 17.308 7.47949 14.572V11.296C7.47949 8.57198 8.57149 7.47998 11.3075 7.47998H14.5835C17.3075 7.47998 18.3995 8.57198 18.3995 11.296Z" stroke="#093BAA" stroke-width="1.5" stroke-linecap="round" stroke-linejoin="round"/>
<path id="Vector_2" d="M25 16.6C25 21.244 21.244 25 16.6 25L17.86 22.9M1 9.4C1 4.756 4.756 1 9.4 1L8.14 3.1" stroke="#093BAA" stroke-width="1.5" stroke-linecap="round" stroke-linejoin="round"/>
</g>
<path id="Vector_3" d="M11.0801 14.446C11.0801 15.1919 11.6568 15.7916 12.3642 15.7916H13.8098C14.425 15.7916 14.9248 15.2688 14.9248 14.6152C14.9248 13.9154 14.6172 13.6617 14.1635 13.5002L11.849 12.6928C11.3953 12.5313 11.0878 12.2853 11.0878 11.5779C11.0878 10.932 11.5876 10.4014 12.2027 10.4014H13.6483C14.3558 10.4014 14.9325 11.0012 14.9325 11.747M13.0024 9.64014V16.5606" stroke="#093BAA" stroke-linecap="round" stroke-linejoin="round"/>
</g>
</g>
</svg>
