<svg width="25" height="24" viewBox="0 0 25 24" fill="none" xmlns="http://www.w3.org/2000/svg">
<g id="api 1">
<path id="Vector" d="M22.6133 21V3H2.61328V21H22.6133Z" stroke="#0EDDBA" stroke-width="1.5" stroke-linejoin="round"/>
<path id="Vector_2" d="M8.61335 9L9.32486 8.76283L9.15392 8.25H8.61335V9ZM7.61335 9V8.25H7.02777L6.88574 8.8181L7.61335 9ZM13.1134 9V8.25H12.3634V9H13.1134ZM8.61335 8.25H7.61335V9.75H8.61335V8.25ZM6.88574 8.8181L5.88574 12.8181L7.34096 13.1819L8.34096 9.1819L6.88574 8.8181ZM5.88574 12.8181L5.38574 14.8181L6.84096 15.1819L7.34096 13.1819L5.88574 12.8181ZM7.90184 9.23717L9.23517 13.2372L10.6582 12.7628L9.32486 8.76283L7.90184 9.23717ZM9.23517 13.2372L9.90184 15.2372L11.3249 14.7628L10.6582 12.7628L9.23517 13.2372ZM6.61335 13.75H9.94668V12.25H6.61335V13.75ZM13.1134 9.75H15.1134V8.25H13.1134V9.75ZM12.3634 9V12H13.8634V9H12.3634ZM12.3634 12V15H13.8634V12H12.3634ZM15.1134 11.25H13.1134V12.75H15.1134V11.25ZM15.8634 10.5C15.8634 10.9142 15.5276 11.25 15.1134 11.25V12.75C16.356 12.75 17.3634 11.7426 17.3634 10.5H15.8634ZM15.1134 9.75C15.5276 9.75 15.8634 10.0858 15.8634 10.5H17.3634C17.3634 9.25736 16.356 8.25 15.1134 8.25V9.75ZM18.3634 8.5V15.5H19.8634V8.5H18.3634Z" fill="#0EDDBA"/>
</g>
</svg>
