<svg xmlns="http://www.w3.org/2000/svg" width="27" height="26" viewBox="0 0 27 26" fill="none">
  <mask id="mask0_5064_3657" style="mask-type:luminance" maskUnits="userSpaceOnUse" x="0" y="0" width="27" height="26">
    <path d="M26.8327 0.153946H0.582031V25.8467H26.8327V0.153946Z" fill="white"/>
  </mask>
  <g mask="url(#mask0_5064_3657)">
    <path fill-rule="evenodd" clip-rule="evenodd" d="M3.91469 4.65358L12.8448 0.350778C13.1138 0.221202 13.4086 0.153946 13.7072 0.153946C14.0058 0.153946 14.3006 0.221202 14.5695 0.350778L23.5033 4.65358C23.7724 4.78337 24.0087 4.97198 24.1949 5.20553C24.3811 5.43908 24.5124 5.71157 24.579 6.00272L26.7851 15.6658C26.8508 15.957 26.8502 16.2593 26.7833 16.5503C26.7164 16.8413 26.5849 17.1134 26.3985 17.3467L20.2179 25.099C20.0302 25.3293 19.7932 25.5145 19.5243 25.6407C19.2554 25.767 18.9615 25.8311 18.6645 25.8283H8.74984C8.45282 25.8311 8.15896 25.767 7.89003 25.6407C7.62116 25.5145 7.3841 25.3293 7.19645 25.099L1.01579 17.3467C0.829131 17.1136 0.697701 16.8414 0.631388 16.5502C0.565075 16.2591 0.565586 15.9567 0.632902 15.6658L2.82076 6.00272C2.88907 5.70971 3.02303 5.43604 3.21253 5.20233C3.40203 4.96861 3.64211 4.78098 3.91469 4.65358ZM19.7257 20.129L13.7091 16.5336L7.68881 20.129L7.7034 17.3431L10.6607 15.5382L13.7091 13.7551L16.7575 15.5382L19.7111 17.3431L19.7257 20.129ZM19.7148 15.1881V9.45959L13.7091 5.87147L7.69978 9.45959V15.1881L10.1247 13.7186L10.1101 10.6118L13.7091 8.46407L17.3081 10.6118L17.2899 13.7186L19.7148 15.1881Z" fill="#A1A9AE"/>
  </g>
</svg>