<svg xmlns="http://www.w3.org/2000/svg" width="19" height="22" viewBox="0 0 19 22" fill="none">
  <path fill-rule="evenodd" clip-rule="evenodd" d="M8.35139 10.2681C7.70659 11.0319 6.56095 11.1315 5.79251 10.4906C5.02408 9.84977 4.92384 8.7111 5.56864 7.94734L11.5417 0.872236C11.249 0.849532 10.9487 0.838181 10.6408 0.838181H0.888672V18.4326C0.888672 19.2456 1.15145 19.9037 1.67702 20.4069C1.94474 20.6633 2.25286 20.8543 2.60139 20.9801L10.2914 11.8713C10.9362 11.1076 12.0819 11.0079 12.8503 11.6488C13.6187 12.2897 13.719 13.4283 13.0742 14.1921L7.19005 21.1618H10.7576C13.2881 21.1618 15.2054 20.5231 16.5096 19.2456C17.8138 17.9487 18.4659 16.0519 18.4659 13.555V7.86435C18.4659 6.47073 18.135 5.24163 17.4731 4.17706C16.9398 3.29325 16.2187 2.5762 15.3098 2.02591L8.35139 10.2681ZM13.6138 10.9182C14.3823 11.559 15.5279 11.4594 16.1727 10.6957C16.8175 9.93191 16.7173 8.79324 15.9488 8.15237C15.1804 7.51151 14.0348 7.61113 13.39 8.37488C12.7452 9.13864 12.8454 10.2773 13.6138 10.9182ZM5.20096 11.3649C4.43252 10.724 3.28687 10.8237 2.64208 11.5874C1.99729 12.3512 2.09752 13.4898 2.86595 14.1307C3.63439 14.7716 4.78004 14.672 5.42483 13.9082C6.06962 13.1444 5.96939 12.0058 5.20096 11.3649Z" fill="#A1A9AE"/>
</svg>