<svg width="30" height="30" viewBox="0 0 30 30" fill="none" xmlns="http://www.w3.org/2000/svg">
<g id="user-group 1">
<path id="Vector" d="M21.25 13.125C22.9759 13.125 24.375 11.7259 24.375 10C24.375 8.27411 22.9759 6.875 21.25 6.875M27.5 22.5C27.5 19.0483 24.7017 16.25 21.25 16.25" stroke="#A1A9AE" stroke-width="1.5"/>
<path id="Vector_2" d="M8.74997 13.125C7.02409 13.125 5.62497 11.7259 5.62497 10C5.62497 8.27411 7.02409 6.875 8.74997 6.875M2.5 22.5C2.5 19.0483 5.29822 16.25 8.75 16.25" stroke="#A1A9AE" stroke-width="1.5"/>
<path id="Vector_3" d="M19.375 9.375C19.375 11.7912 17.4162 13.75 15 13.75C12.5838 13.75 10.625 11.7912 10.625 9.375C10.625 6.95875 12.5838 5 15 5C17.4162 5 19.375 6.95875 19.375 9.375Z" stroke="#A1A9AE" stroke-width="1.5"/>
<path id="Vector_4" d="M6.25 25H23.75C23.75 20.8579 19.8325 17.5 15 17.5C10.1675 17.5 6.25 20.8579 6.25 25Z" stroke="#A1A9AE" stroke-width="1.5"/>
</g>
</svg>
