<svg xmlns="http://www.w3.org/2000/svg" width="14" height="15" viewBox="0 0 14 15" fill="none">
  <path d="M7 5.25488V7.58822L7.875 8.46322" stroke="#292929" stroke-linecap="round" stroke-linejoin="round"/>
  <path d="M11.4002 10.1861C12.3548 10.7015 12.832 10.9593 12.832 11.3799C12.832 11.8005 12.3548 12.0583 11.4002 12.5738L10.7502 12.9248C10.0171 13.3207 9.6506 13.5186 9.47432 13.3747C9.04271 13.0222 9.71512 12.1126 9.88055 11.7904C10.0482 11.4639 10.0452 11.29 9.88055 10.9694C9.71512 10.6472 9.04271 9.73759 9.47432 9.38514C9.6506 9.24123 10.0171 9.43915 10.7502 9.835L11.4002 10.1861Z" stroke="#292929"/>
  <path d="M7.59986 13.3911C7.4031 13.4112 7.20337 13.4214 7.0013 13.4214C3.77964 13.4214 1.16797 10.8097 1.16797 7.58809C1.16797 4.36643 3.77964 1.75476 7.0013 1.75476C10.2229 1.75476 12.8346 4.36643 12.8346 7.58809C12.8346 7.98762 12.7944 8.37781 12.718 8.75476" stroke="#292929" stroke-linecap="round"/>
</svg>