<svg width="20" height="20" viewBox="0 0 20 20" fill="none" xmlns="http://www.w3.org/2000/svg">
<g clip-path="url(#clip0_4025_4352)">
<path d="M9.99935 18.3334C14.6017 18.3334 18.3327 14.6025 18.3327 10.0001C18.3327 5.39771 14.6017 1.66675 9.99935 1.66675C5.39698 1.66675 1.66602 5.39771 1.66602 10.0001C1.66602 14.6025 5.39698 18.3334 9.99935 18.3334Z" stroke="#093BAA" stroke-width="1.5"/>
<path d="M6.38881 9.97119C5.9148 9.14464 5.68592 8.46974 5.54792 7.7856C5.34381 6.77379 5.8109 5.7854 6.58469 5.15474C6.91172 4.88819 7.28661 4.97926 7.48 5.3262L7.91659 6.10945C8.26264 6.73028 8.43566 7.04069 8.40135 7.36979C8.36703 7.69889 8.13368 7.96693 7.66698 8.503L6.38881 9.97119ZM6.38881 9.97119C7.34825 11.6441 8.85391 13.1506 10.5288 14.1112M10.5288 14.1112C11.3553 14.5852 12.0302 14.8141 12.7144 14.9521C13.7262 15.1562 14.7146 14.6891 15.3452 13.9153C15.6118 13.5883 15.5207 13.2134 15.1738 13.02L14.3905 12.5834C13.7697 12.2373 13.4593 12.0643 13.1302 12.0986C12.8011 12.1329 12.533 12.3663 11.997 12.833L10.5288 14.1112Z" stroke="#093BAA" stroke-width="1.5" stroke-linejoin="round"/>
</g>
<defs>
<clipPath id="clip0_4025_4352">
<rect width="20" height="20" fill="white"/>
</clipPath>
</defs>
</svg>
