<svg width="32" height="32" viewBox="0 0 32 32" fill="none" xmlns="http://www.w3.org/2000/svg">
<g id="Frame">
<path id="Vector" d="M29.3327 16.6669C29.3327 16.0117 29.3256 14.6897 29.3116 14.0326C29.2245 9.94523 29.1809 7.90154 27.6728 6.38763C26.1645 4.87372 24.0656 4.82099 19.8676 4.71551C17.2803 4.6505 14.7184 4.6505 12.1311 4.7155C7.93312 4.82096 5.83412 4.8737 4.32595 6.38762C2.81778 7.90152 2.7742 9.94522 2.68703 14.0326C2.659 15.3469 2.65902 16.6533 2.68704 17.9675C2.7742 22.055 2.81779 24.0986 4.32596 25.6126C5.83412 27.1265 7.93312 27.1791 12.1311 27.2846C13.2015 27.3115 14.2675 27.3273 15.3327 27.3319" stroke="white" stroke-width="1.5" stroke-linecap="round" stroke-linejoin="round"/>
<path id="Vector_2" d="M2.66602 8L11.8834 13.2328C15.2509 15.1447 16.7477 15.1447 20.1153 13.2328L29.3327 8" stroke="white" stroke-width="1.5" stroke-linejoin="round"/>
<path id="Vector_3" d="M29.3327 23.3333H18.666M29.3327 23.3333C29.3327 22.3997 26.6736 20.6553 25.9993 20M29.3327 23.3333C29.3327 24.2669 26.6736 26.0113 25.9993 26.6667" stroke="white" stroke-width="1.5" stroke-linecap="round" stroke-linejoin="round"/>
</g>
</svg>
