<svg width="20" height="20" viewBox="0 0 20 20" fill="none" xmlns="http://www.w3.org/2000/svg">
<path d="M1.14154 0H18.8585C19.459 0 20 0.540982 20 1.14154V18.8585C20 19.459 19.459 20 18.8585 20H1.14154C0.540982 20 0 19.459 0 18.8585V1.14154C0 0.540982 0.540982 0 1.14154 0ZM14.2029 11.2299H16.9655L17.0856 8.58749H14.2029V6.63592C14.2029 5.88546 14.3528 5.46459 15.3137 5.46459H16.9953L17.0558 3.00183C17.0558 3.00183 16.3054 2.88171 15.2244 2.88171C12.5819 2.88171 11.4106 4.53349 11.4106 6.30537V8.58749H9.45902V11.2299H11.4106V18.5567H14.2029V11.2299Z" fill="white"/>
</svg>
