<svg width="240" height="240" viewBox="0 0 240 240" fill="none" xmlns="http://www.w3.org/2000/svg">
<g id="Frame">
<path id="Vector" d="M118.013 64.8949L132.869 50.0392C149.596 33.312 171.495 26.3737 194.671 25.2399C203.686 24.7989 208.193 24.5784 211.807 28.1928C215.422 31.8071 215.201 36.3143 214.76 45.3289C213.626 68.505 206.688 90.4042 189.961 107.131L175.105 121.987C162.871 134.221 159.393 137.7 161.961 150.97C164.496 161.107 166.949 170.923 159.578 178.294C150.637 187.235 142.481 187.235 133.54 178.294L61.7058 106.46C52.7649 97.5188 52.7646 89.363 61.7058 80.4219C69.0767 73.0509 78.8929 75.5044 89.0297 78.0389C102.3 80.6073 105.779 77.1289 118.013 64.8949Z" stroke="#0EDDBA" stroke-width="4" stroke-linejoin="round"/>
<path id="Vector_2" d="M169.961 70H170.051" stroke="#141B34" stroke-width="2" stroke-linecap="round" stroke-linejoin="round"/>
<path id="Vector_3" d="M25 215L75 165" stroke="#0EDDBA" stroke-width="4" stroke-linecap="round"/>
<path id="Vector_4" d="M85 215L105 195" stroke="#0EDDBA" stroke-width="4" stroke-linecap="round"/>
<path id="Vector_5" d="M25 155L45 135" stroke="#0EDDBA" stroke-width="4" stroke-linecap="round"/>
</g>
</svg>
