<svg width="172" height="159" viewBox="0 0 172 159" fill="none" xmlns="http://www.w3.org/2000/svg">
<g opacity="0.3" clip-path="url(#clip0_1204_16560)">
<path d="M100.007 25C119.472 42.2215 144.877 51.1881 170.84 50C174.62 62.8585 175.777 76.3456 174.241 89.6598C172.706 102.974 168.509 115.844 161.902 127.504C155.294 139.165 146.41 149.378 135.777 157.537C125.144 165.696 112.98 171.635 100.007 175C87.0335 171.635 74.8691 165.696 64.2363 157.537C53.6035 149.378 44.7193 139.165 38.1117 127.504C31.5041 115.844 27.3079 102.974 25.7724 89.6598C24.2369 76.3456 25.3935 62.8585 29.1734 50C55.1362 51.1881 80.5415 42.2215 100.007 25Z" stroke="#093BAA" stroke-width="12.5" stroke-linecap="round" stroke-linejoin="round"/>
</g>
<defs>
<clipPath id="clip0_1204_16560">
<rect width="200" height="200" fill="white"/>
</clipPath>
</defs>
</svg>
