<svg width="144" height="40" viewBox="0 0 144 40" fill="none" xmlns="http://www.w3.org/2000/svg">
<path d="M51.2307 1.76327H46.9141V0.154785H57.3942V1.76248H53.0776V13.7154H51.2307V1.76327Z" fill="white"/>
<path d="M59.1055 0.154785H60.9524V13.7161H59.1055V0.154785Z" fill="white"/>
<path d="M63.6375 0.155273H65.3489L70.0738 8.85427L74.6813 0.155273H76.3926V13.7166H74.5843V3.60393L71.0063 10.268C70.851 10.5523 70.7052 10.7526 70.5688 10.8688C70.4324 10.985 70.274 11.0432 70.0927 11.0432H69.5677L65.4647 3.60393V13.7166H63.6367V0.155273H63.6375Z" fill="white"/>
<path d="M79.2778 13.3294C79.0121 13.071 78.8789 12.716 78.8789 12.2637V0.155273H88.4257V1.76297H80.7258V5.98602H87.8424V7.57487H80.7258V12.1082H88.4257V13.7158H80.3561C79.9029 13.7166 79.5426 13.5878 79.2778 13.3294Z" fill="white"/>
<path d="M92.0258 13.2513C91.3259 12.8382 90.7843 12.2539 90.402 11.4983C90.0197 10.7428 89.8281 9.86785 89.8281 8.87355V4.99842C89.8281 4.00412 90.022 3.12919 90.4114 2.37364C90.8001 1.6181 91.3479 1.03377 92.0542 0.620651C92.7605 0.207535 93.5803 0.000976562 94.5136 0.000976562H96.575C97.4563 0.000976562 98.2375 0.191827 98.9177 0.572742C99.598 0.953657 100.124 1.48694 100.493 2.17101C100.862 2.85588 101.047 3.64362 101.047 4.53426H99.2386C99.2386 3.66876 98.9958 2.97133 98.5094 2.44197C98.023 1.91262 97.3782 1.64794 96.575 1.64794H94.5136C93.671 1.64794 92.9875 1.95817 92.4625 2.57785C91.9375 3.19752 91.6751 4.01826 91.6751 5.03848V8.83585C91.6751 9.85607 91.9281 10.676 92.4334 11.2965C92.9387 11.9162 93.6063 12.2264 94.4364 12.2264H96.5364C97.3656 12.2264 98.0301 11.9326 98.5291 11.3452C99.0281 10.7577 99.278 9.98566 99.278 9.02984H101.086C101.086 9.98566 100.898 10.8315 100.523 11.5674C100.147 12.3034 99.6154 12.872 98.9288 13.2725C98.2414 13.6731 97.4445 13.8734 96.5371 13.8734H94.4364C93.5291 13.871 92.7258 13.6652 92.0258 13.2513Z" fill="white"/>
<path d="M102.836 0.155273H104.684V6.08341H111.8V0.155273H113.667V13.7166H111.8V7.71074H104.684V13.7166H102.837V0.155273H102.836Z" fill="white"/>
<path d="M123.952 10.1517H118.274L116.952 13.7166H115.027L120.297 0.155273H121.133C121.691 0.155273 122.086 0.45922 122.32 1.06554L127.2 13.7158H125.295L123.952 10.1517ZM118.819 8.60216H123.408L121.133 2.48003H121.114L118.819 8.60216Z" fill="white"/>
<path d="M128.754 0.155273H130.601V13.7166H128.754V0.155273Z" fill="white"/>
<path d="M133.281 0.155273H134.993L142.187 10.7526V0.155273H143.996V13.7166H142.304L135.09 3.15861V13.7166H133.282V0.155273H133.281Z" fill="white"/>
<path d="M50.9887 31.1346C50.7231 30.8762 50.5898 30.5275 50.5898 30.0885V17.9604H52.4368V29.8945H59.8253V31.5218H52.0671C51.6138 31.5218 51.2544 31.393 50.9887 31.1346Z" fill="white"/>
<path d="M69.9796 27.9579H64.3016L62.9797 31.5228H61.0547L66.3243 17.9614H67.1607C67.718 17.9614 68.1137 18.2654 68.347 18.8717L73.2273 31.522H71.322L69.9796 27.9579ZM64.8455 26.4075H69.4349L67.1599 20.2854H67.141L64.8455 26.4075Z" fill="white"/>
<path d="M74.8771 31.1252C74.6051 30.8605 74.4688 30.5087 74.4688 30.0696V17.9604H80.555C81.7343 17.9604 82.6842 18.2416 83.4039 18.8032C84.1236 19.3647 84.483 20.1109 84.483 21.0408V22.0484C84.483 22.5134 84.3758 22.9524 84.1622 23.3655C83.9486 23.7786 83.6467 24.1148 83.258 24.3732V24.3928C83.88 24.5742 84.3821 24.9065 84.7652 25.3903C85.1475 25.8748 85.3391 26.4333 85.3391 27.0663V28.0347C85.3391 29.0934 84.9859 29.94 84.2796 30.5723C83.5726 31.2053 82.6172 31.5218 81.4111 31.5218H75.9476C75.5061 31.5218 75.1498 31.3899 74.8771 31.1252ZM80.8278 23.9082C81.3717 23.9082 81.81 23.737 82.1403 23.3946C82.4713 23.0521 82.6361 22.5974 82.6361 22.0288V21.1374C82.6361 20.6724 82.4414 20.2978 82.0528 20.0135C81.6641 19.7292 81.1581 19.587 80.5361 19.587H76.3165V23.9074H80.8278V23.9082ZM81.2164 29.8945C81.9164 29.8945 82.4706 29.7201 82.8789 29.3714C83.2872 29.0227 83.4914 28.5577 83.4914 27.9766V27.0663C83.4914 26.5888 83.3164 26.2008 82.9664 25.9039C82.6164 25.607 82.156 25.4586 81.5861 25.4586H76.3165V29.8953H81.2164V29.8945Z" fill="white"/>
<path d="M87.7882 30.5532C87.0362 29.8047 86.6602 28.797 86.6602 27.531H88.4685C88.4685 28.2928 88.6852 28.8999 89.1196 29.3523C89.5539 29.8047 90.1278 30.0301 90.8404 30.0301H92.9987C93.7113 30.0301 94.282 29.8785 94.71 29.5746C95.1381 29.2714 95.3517 28.8677 95.3517 28.3635V27.3174C95.3517 26.9168 95.1988 26.5814 94.8945 26.3097C94.5902 26.0387 94.159 25.8581 93.6017 25.767L90.0631 25.1858C89.0258 25.0177 88.2257 24.6627 87.6613 24.12C87.0976 23.5773 86.8154 22.8995 86.8154 22.0859V21.0201C86.8154 20.0517 87.1875 19.2734 87.9332 18.6859C88.6781 18.0984 89.6603 17.8047 90.879 17.8047H93.0759C93.8406 17.8047 94.5177 17.9633 95.1081 18.2791C95.6978 18.5956 96.1549 19.0409 96.4789 19.6158C96.8029 20.1907 96.9653 20.8528 96.9653 21.6013H95.1373C95.1373 20.9557 94.9489 20.4357 94.5737 20.0415C94.1977 19.6472 93.6987 19.4509 93.0767 19.4509H90.8798C90.2184 19.4509 89.684 19.5962 89.2757 19.8868C88.8673 20.1774 88.6632 20.5748 88.6632 21.0782V21.95C88.6632 22.3631 88.809 22.7055 89.1007 22.9765C89.3923 23.2475 89.8101 23.4352 90.3548 23.538L93.8548 24.1389C94.9308 24.3203 95.7569 24.6714 96.3339 25.1944C96.9109 25.7175 97.1994 26.3733 97.1994 27.1611V28.42C97.1994 29.4018 96.8203 30.1895 96.0619 30.7833C95.3036 31.3778 94.2954 31.6747 93.0381 31.6747H90.8018C89.5445 31.6771 88.5394 31.3024 87.7882 30.5532Z" fill="white"/>
<path d="M40.1446 0H20.3769L16.1092 4.2529H4.26852V15.9411L0 20.1924V39.9984H19.7668L24.0346 35.7455H35.876V24.0573L40.1438 19.8052V0H40.1446ZM33.8163 33.6933H6.32828V6.30434H33.8171V33.6933H33.8163Z" fill="white"/>
<path d="M30.686 16.7603C30.6324 16.8137 30.5757 16.8734 30.5158 16.9299C29.5509 17.8944 28.5853 18.8588 27.6118 19.8154C27.5353 19.8948 27.4107 19.9647 27.3059 19.9647C24.9395 19.9733 22.5699 19.9702 20.2004 19.9702C20.1665 19.9702 20.135 19.9615 20.0703 19.9529C20.0735 18.7316 20.0735 17.5355 20.0758 16.3369C20.0758 15.1667 20.0703 13.9957 20.0813 12.8223C20.0845 12.7014 20.1405 12.5514 20.2256 12.4642C21.1912 11.4879 22.1679 10.5211 23.1383 9.55352C23.1864 9.50561 23.24 9.46085 23.3022 9.4043C25.7569 11.8524 28.2061 14.2894 30.686 16.7603Z" fill="white"/>
<path d="M20.0696 27.1291C20.0696 27.3097 20.0184 27.4338 19.8914 27.5602C18.9376 28.4996 17.9917 29.4468 17.0434 30.3924C16.9811 30.4513 16.922 30.5133 16.8455 30.5871C14.383 28.1336 11.9314 25.691 9.45703 23.2225C10.4195 22.2636 11.3765 21.3297 12.3074 20.3684C12.5652 20.1029 12.823 20.0071 13.1903 20.0103C15.3754 20.0275 17.5613 20.0189 19.7464 20.0158C19.8426 20.0158 19.9364 19.9875 20.0491 19.9702C20.0578 20.1171 20.0633 20.1988 20.0633 20.2836C20.0664 22.5651 20.0633 24.8475 20.0696 27.1291Z" fill="white"/>
<path d="M52.3259 36.0532C52.6057 36.0532 52.8469 36.1027 53.0503 36.2009C53.2529 36.2991 53.4113 36.4389 53.5264 36.6195C53.6407 36.8001 53.6975 37.0185 53.6975 37.2729C53.6975 37.5243 53.6407 37.741 53.5264 37.924C53.4121 38.107 53.2537 38.2468 53.0503 38.345C52.8469 38.4432 52.6057 38.4926 52.3259 38.4926H51.4572V39.9417H50.8242V36.054H52.3259V36.0532ZM52.2258 37.9499C52.5056 37.9499 52.7114 37.8918 52.8438 37.7764C52.9754 37.6609 53.0416 37.4928 53.0416 37.2729C53.0416 37.0491 52.9754 36.8795 52.8438 36.7632C52.7114 36.6478 52.5056 36.5896 52.2258 36.5896H51.4572V37.9507H52.2258V37.9499Z" fill="white"/>
<path d="M57.9032 36.0532C58.321 36.0532 58.6529 36.1577 58.8996 36.365C59.1456 36.5732 59.2693 36.8535 59.2693 37.2077C59.2693 37.573 59.1464 37.8549 58.8996 38.0528C58.6537 38.2515 58.321 38.3505 57.9032 38.3505L57.8441 38.3858H56.9392V39.9409H56.3125V36.0532H57.9032ZM57.8559 37.862C58.1121 37.862 58.3021 37.8101 58.4267 37.7057C58.5512 37.602 58.6127 37.4418 58.6127 37.2258C58.6127 37.0138 58.5504 36.8543 58.4267 36.7491C58.3021 36.6431 58.1121 36.5896 57.8559 36.5896H56.9392V37.862H57.8559ZM58.228 37.9916L59.4987 39.9417H58.7711L57.6833 38.239L58.228 37.9916Z" fill="white"/>
<path d="M63.6469 35.9941C64.0252 35.9941 64.3524 36.075 64.6283 36.2353C64.9042 36.3963 65.117 36.6264 65.2668 36.9248C65.4165 37.2233 65.4914 37.5806 65.4914 37.9969C65.4914 38.4131 65.4165 38.7705 65.2668 39.069C65.117 39.3674 64.9042 39.5975 64.6283 39.7585C64.3524 39.9195 64.0252 40.0004 63.6469 40.0004C63.2724 40.0004 62.9469 39.9203 62.6718 39.7585C62.3959 39.5975 62.183 39.3682 62.0333 39.069C61.8835 38.7705 61.8086 38.4131 61.8086 37.9969C61.8086 37.5806 61.8835 37.2233 62.0333 36.9248C62.183 36.6264 62.3959 36.397 62.6718 36.2353C62.9469 36.075 63.2724 35.9941 63.6469 35.9941ZM63.6469 36.5423C63.4025 36.5423 63.1928 36.5997 63.017 36.7128C62.8412 36.8267 62.7064 36.9916 62.6118 37.2076C62.5173 37.4236 62.47 37.6867 62.47 37.9969C62.47 38.3032 62.5173 38.5655 62.6118 38.7831C62.7064 39.0006 62.8412 39.1671 63.017 39.281C63.1928 39.3949 63.4025 39.4514 63.6469 39.4514C63.8952 39.4514 64.1072 39.3949 64.2822 39.281C64.458 39.1671 64.5928 39.0014 64.6874 38.7831C64.782 38.5655 64.8293 38.3032 64.8293 37.9969C64.8293 37.6867 64.782 37.4236 64.6874 37.2076C64.5928 36.9916 64.458 36.8267 64.2822 36.7128C64.1072 36.5989 63.8952 36.5423 63.6469 36.5423Z" fill="white"/>
<path d="M69.795 39.9999C69.4284 39.9999 69.1108 39.9198 68.8435 39.758C68.5755 39.597 68.3666 39.3685 68.2168 39.0716C68.0671 38.7755 67.9922 38.4166 67.9922 37.9964C67.9922 37.5841 68.0702 37.2283 68.2255 36.9298C68.3816 36.6314 68.6023 36.4005 68.8877 36.2379C69.1738 36.0753 69.5017 35.9937 69.8722 35.9937C70.2782 35.9937 70.6061 36.0683 70.8568 36.2175C71.1075 36.3667 71.3069 36.5984 71.4567 36.9126L70.8718 37.1898C70.7969 36.9738 70.6739 36.812 70.5021 36.7036C70.331 36.596 70.1229 36.5419 69.8785 36.5419C69.6342 36.5419 69.4205 36.5992 69.2369 36.7123C69.054 36.8262 68.9105 36.9919 68.8081 37.2102C68.7056 37.4278 68.6543 37.6901 68.6543 37.9964C68.6543 38.3066 68.6993 38.5705 68.7899 38.7889C68.8806 39.0064 69.0177 39.1729 69.2006 39.2868C69.3835 39.4007 69.6097 39.4572 69.8777 39.4572C70.0236 39.4572 70.1599 39.4384 70.2861 39.4015C70.4122 39.3646 70.5226 39.3096 70.6171 39.2365C70.7117 39.1643 70.7858 39.0716 70.8387 38.9593C70.8915 38.847 70.9183 38.715 70.9183 38.5619V38.4504H69.7832V37.9375H71.4803V39.9402H71.0073L70.9719 39.1564L71.0901 39.2153C70.9955 39.4627 70.8387 39.6551 70.6203 39.7926C70.4012 39.9316 70.1261 39.9999 69.795 39.9999Z" fill="white"/>
<path d="M75.8642 36.0532C76.282 36.0532 76.6138 36.1577 76.8606 36.365C77.1065 36.5732 77.2303 36.8535 77.2303 37.2077C77.2303 37.573 77.1073 37.8549 76.8606 38.0528C76.6146 38.2515 76.282 38.3505 75.8642 38.3505L75.8051 38.3858H74.9001V39.9409H74.2734V36.0532H75.8642ZM75.8169 37.862C76.0731 37.862 76.263 37.8101 76.3876 37.7057C76.5121 37.602 76.5736 37.4418 76.5736 37.2258C76.5736 37.0138 76.5114 36.8543 76.3876 36.7491C76.263 36.6431 76.0731 36.5896 75.8169 36.5896H74.9001V37.862H75.8169ZM76.1897 37.9916L77.4604 39.9417H76.7329L75.645 38.239L76.1897 37.9916Z" fill="white"/>
<path d="M79.5625 39.9409L81.0342 36.0532H81.791L83.2627 39.9409H82.595L81.5899 37.1606L81.4126 36.6014H81.3944L81.2289 37.1488L80.212 39.9409H79.5625ZM80.3492 38.9223V38.4102H82.4602V38.9223H80.3492Z" fill="white"/>
<path d="M89.7254 36.0532V39.9409H89.1405V37.6908L89.1878 36.6187H89.1815L87.9928 39.9409H87.467L86.2783 36.6187H86.272L86.3193 37.6908V39.9409H85.7344V36.0532H86.6748L87.4607 38.3034L87.7327 39.2286H87.7445L88.022 38.3034L88.8024 36.0532H89.7254Z" fill="white"/>
<path d="M96.6551 36.0532V39.9409H96.0702V37.6908L96.1175 36.6187H96.1112L94.9225 39.9409H94.3967L93.208 36.6187H93.2017L93.249 37.6908V39.9409H92.6641V36.0532H93.6045L94.3912 38.3034L94.6631 39.2286H94.675L94.9524 38.3034L95.7328 36.0532H96.6551Z" fill="white"/>
<path d="M100.227 36.0532V39.9409H99.5938V36.0532H100.227Z" fill="white"/>
<path d="M106.362 36.0532V39.9409H105.611L104.104 37.4905L103.725 36.8009H103.72L103.743 37.4316V39.9409H103.164V36.0532H103.909L105.411 38.4981L105.795 39.1987H105.801L105.777 38.5626V36.0532H106.362Z" fill="white"/>
<path d="M110.881 39.9999C110.514 39.9999 110.197 39.9198 109.929 39.758C109.661 39.597 109.453 39.3685 109.303 39.0716C109.153 38.7755 109.078 38.4166 109.078 37.9964C109.078 37.5841 109.156 37.2283 109.311 36.9298C109.468 36.6314 109.688 36.4005 109.974 36.2379C110.26 36.0753 110.588 35.9937 110.958 35.9937C111.364 35.9937 111.692 36.0683 111.943 36.2175C112.193 36.3667 112.393 36.5984 112.543 36.9126L111.958 37.1898C111.883 36.9738 111.76 36.812 111.588 36.7036C111.417 36.596 111.209 36.5419 110.964 36.5419C110.72 36.5419 110.506 36.5992 110.323 36.7123C110.14 36.8262 109.996 36.9919 109.894 37.2102C109.792 37.4278 109.74 37.6901 109.74 37.9964C109.74 38.3066 109.785 38.5705 109.876 38.7889C109.967 39.0064 110.104 39.1729 110.287 39.2868C110.469 39.4007 110.696 39.4572 110.964 39.4572C111.11 39.4572 111.246 39.4384 111.372 39.4015C111.498 39.3646 111.608 39.3096 111.703 39.2365C111.798 39.1643 111.872 39.0716 111.925 38.9593C111.977 38.847 112.004 38.715 112.004 38.5619V38.4504H110.869V37.9375H112.566V39.9402H112.093L112.058 39.1564L112.176 39.2153C112.081 39.4627 111.925 39.6551 111.706 39.7926C111.487 39.9316 111.212 39.9999 110.881 39.9999Z" fill="white"/>
<path d="M122.053 36.0532L120.605 39.9409H119.866L118.418 36.0532H119.092L120.002 38.6395L120.239 39.4116L120.475 38.6458L121.386 36.054H122.053V36.0532Z" fill="white"/>
<path d="M123.703 39.9409L125.176 36.0532H125.932L127.404 39.9409H126.736L125.731 37.1606L125.554 36.6014H125.536L125.37 37.1488L124.353 39.9409H123.703ZM124.489 38.9223V38.4102H126.6V38.9223H124.489Z" fill="white"/>
<path d="M130.508 39.399H132.66V39.9409H129.875V36.0532H130.508V39.399Z" fill="white"/>
<path d="M138.23 36.0532V38.451C138.23 38.9655 138.094 39.3519 137.822 39.611C137.55 39.8702 137.154 39.9998 136.633 39.9998C136.121 39.9998 135.727 39.8702 135.454 39.611C135.179 39.3519 135.043 38.9655 135.043 38.451V36.0532H135.676V38.3741C135.676 38.7393 135.755 39.0102 135.912 39.1869C136.07 39.3637 136.311 39.4516 136.634 39.4516C136.961 39.4516 137.203 39.3629 137.361 39.1869C137.518 39.0102 137.597 38.7393 137.597 38.3741V36.0532H138.23Z" fill="white"/>
<path d="M141.09 39.9409V36.0532H143.916V36.5951H141.722V37.7143H143.437V38.2445H141.722V39.399H143.999V39.9409H141.09Z" fill="white"/>
</svg>
