<svg width="30" height="30" viewBox="0 0 30 30" fill="none" xmlns="http://www.w3.org/2000/svg">
<g id="building-04 1">
<path id="Vector" d="M13.75 2.5V22.5H3.75" stroke="#A1A9AE" stroke-width="1.5" stroke-linejoin="round"/>
<path id="Vector_2" d="M6.25 15H13.75" stroke="#A1A9AE" stroke-width="1.5" stroke-linejoin="round"/>
<path id="Vector_3" d="M17.5003 27.5V28.4375C18.018 28.4375 18.4378 28.0177 18.4378 27.5H17.5003ZM17.5003 2.5H18.4378C18.4378 1.98224 18.018 1.5625 17.5003 1.5625V2.5ZM10.6253 2.5V1.5625H9.9442L9.73369 2.21024L10.6253 2.5ZM2.50041 27.5L1.60881 27.2103L1.20996 28.4375H2.50041V27.5ZM18.4378 27.5V2.5H16.5628V27.5H18.4378ZM17.5003 1.5625H10.6253V3.4375H17.5003V1.5625ZM9.73369 2.21024L1.60881 27.2103L3.39201 27.7897L11.5169 2.78976L9.73369 2.21024ZM2.50041 28.4375H17.5003V26.5625H2.50041V28.4375Z" fill="#A1A9AE"/>
<path id="Vector_4" d="M17.5 12.5L27.5 16.25V27.5H17.5" stroke="#A1A9AE" stroke-width="1.5"/>
<path id="Vector_5" d="M20.625 19.375H24.375M20.625 23.125H24.375" stroke="#A1A9AE" stroke-width="1.5" stroke-linejoin="round"/>
</g>
</svg>
