<svg width="200" height="200" viewBox="0 0 200 200" fill="none" xmlns="http://www.w3.org/2000/svg">
<g id="idea 1" opacity="0.3">
<path id="Vector" d="M50.7445 125C47.5911 117.912 45.833 110.026 45.833 101.716C45.833 70.8527 70.0843 45.8333 99.9997 45.8333C129.916 45.8333 154.166 70.8527 154.166 101.716C154.166 110.026 152.408 117.912 149.255 125" stroke="#18C718" stroke-width="10"/>
<path id="Vector_2" d="M133.334 137.5H66.667L70.8337 158.333H129.167L133.334 137.5Z" stroke="#18C718" stroke-width="10" stroke-linejoin="round"/>
<path id="Vector_3" d="M120.834 158.333L116.667 183.333H83.3337L79.167 158.333" stroke="#18C718" stroke-width="10" stroke-linejoin="round"/>
<path id="Vector_4" d="M100 16.6667V25.0001" stroke="#18C718" stroke-width="10" stroke-linecap="square" stroke-linejoin="round"/>
<path id="Vector_5" d="M183.333 100H175" stroke="#18C718" stroke-width="10" stroke-linecap="square" stroke-linejoin="round"/>
<path id="Vector_6" d="M25.0003 100H16.667" stroke="#18C718" stroke-width="10" stroke-linecap="square" stroke-linejoin="round"/>
<path id="Vector_7" d="M158.919 41.0747L153.026 46.9672" stroke="#18C718" stroke-width="10" stroke-linecap="square" stroke-linejoin="round"/>
<path id="Vector_8" d="M46.9727 46.9706L41.0801 41.0781" stroke="#18C718" stroke-width="10" stroke-linecap="square" stroke-linejoin="round"/>
</g>
</svg>
