<svg width="25" height="24" viewBox="0 0 25 24" fill="none" xmlns="http://www.w3.org/2000/svg">
<g id="Frame">
<path id="Vector" d="M6.70266 15C6.32425 14.1494 6.11328 13.2031 6.11328 12.2059C6.11328 8.50233 9.02343 5.5 12.6133 5.5C16.2032 5.5 19.1133 8.50233 19.1133 12.2059C19.1133 13.2031 18.9023 14.1494 18.5239 15" stroke="#0EDDBA" stroke-width="1.5"/>
<path id="Vector_2" d="M16.6133 16.5H8.61328L9.11328 19H16.1133L16.6133 16.5Z" stroke="#0EDDBA" stroke-width="1.5" stroke-linejoin="round"/>
<path id="Vector_3" d="M15.1133 19L14.6133 22H10.6133L10.1133 19" stroke="#0EDDBA" stroke-width="1.5" stroke-linejoin="round"/>
<path id="Vector_4" d="M12.6133 2V3" stroke="#0EDDBA" stroke-width="1.5" stroke-linecap="square" stroke-linejoin="round"/>
<path id="Vector_5" d="M22.6133 12H21.6133" stroke="#0EDDBA" stroke-width="1.5" stroke-linecap="square" stroke-linejoin="round"/>
<path id="Vector_6" d="M3.61328 12H2.61328" stroke="#0EDDBA" stroke-width="1.5" stroke-linecap="square" stroke-linejoin="round"/>
<path id="Vector_7" d="M19.6837 4.92896L18.9766 5.63606" stroke="#0EDDBA" stroke-width="1.5" stroke-linecap="square" stroke-linejoin="round"/>
<path id="Vector_8" d="M6.25008 5.63642L5.54297 4.92932" stroke="#0EDDBA" stroke-width="1.5" stroke-linecap="square" stroke-linejoin="round"/>
</g>
</svg>
