<svg width="21" height="20" viewBox="0 0 21 20" fill="none" xmlns="http://www.w3.org/2000/svg">
<path d="M16.144 0H4.7154C2.34847 0 0.429688 1.91878 0.429688 4.28571V15.7143C0.429688 18.0812 2.34847 20 4.7154 20H16.144C18.5109 20 20.4297 18.0812 20.4297 15.7143V4.28571C20.4297 1.91878 18.5109 0 16.144 0Z" fill="url(#paint0_radial_1935_3206)"/>
<path d="M16.144 0H4.7154C2.34847 0 0.429688 1.91878 0.429688 4.28571V15.7143C0.429688 18.0812 2.34847 20 4.7154 20H16.144C18.5109 20 20.4297 18.0812 20.4297 15.7143V4.28571C20.4297 1.91878 18.5109 0 16.144 0Z" fill="url(#paint1_radial_1935_3206)"/>
<path d="M16.144 0H4.7154C2.34847 0 0.429688 1.91878 0.429688 4.28571V15.7143C0.429688 18.0812 2.34847 20 4.7154 20H16.144C18.5109 20 20.4297 18.0812 20.4297 15.7143V4.28571C20.4297 1.91878 18.5109 0 16.144 0Z" fill="url(#paint2_radial_1935_3206)"/>
<path d="M15.428 6.07143C15.428 6.66314 14.9483 7.14286 14.3566 7.14286C13.7649 7.14286 13.2852 6.66314 13.2852 6.07143C13.2852 5.47969 13.7649 5 14.3566 5C14.9483 5 15.428 5.47969 15.428 6.07143Z" fill="white"/>
<path fill-rule="evenodd" clip-rule="evenodd" d="M10.4308 13.5713C12.4032 13.5713 14.0022 11.9723 14.0022 9.9999C14.0022 8.02747 12.4032 6.42847 10.4308 6.42847C8.45838 6.42847 6.85938 8.02747 6.85938 9.9999C6.85938 11.9723 8.45838 13.5713 10.4308 13.5713ZM10.4308 12.1428C11.6143 12.1428 12.5737 11.1834 12.5737 9.9999C12.5737 8.8164 11.6143 7.85704 10.4308 7.85704C9.2473 7.85704 8.28795 8.8164 8.28795 9.9999C8.28795 11.1834 9.2473 12.1428 10.4308 12.1428Z" fill="white"/>
<path fill-rule="evenodd" clip-rule="evenodd" d="M3.28516 9.71438C3.28516 7.31417 3.28516 6.11402 3.75227 5.19728C4.16316 4.39087 4.81878 3.73524 5.6252 3.32435C6.54194 2.85724 7.74209 2.85724 10.1423 2.85724H10.7137C13.1139 2.85724 14.3141 2.85724 15.2308 3.32435C16.0372 3.73524 16.6929 4.39087 17.1037 5.19728C17.5709 6.11402 17.5709 7.31417 17.5709 9.71438V10.2858C17.5709 12.686 17.5709 13.8862 17.1037 14.8029C16.6929 15.6093 16.0372 16.265 15.2308 16.6758C14.3141 17.143 13.1139 17.143 10.7137 17.143H10.1423C7.74209 17.143 6.54194 17.143 5.6252 16.6758C4.81878 16.265 4.16316 15.6093 3.75227 14.8029C3.28516 13.8862 3.28516 12.686 3.28516 10.2858V9.71438ZM10.1423 4.28581H10.7137C11.9374 4.28581 12.7692 4.28692 13.4122 4.33945C14.0386 4.39062 14.3589 4.48337 14.5823 4.59722C15.1199 4.87115 15.5569 5.30823 15.8309 5.84581C15.9447 6.06924 16.0375 6.38952 16.0887 7.01588C16.1412 7.65888 16.1423 8.49067 16.1423 9.71438V10.2858C16.1423 11.5095 16.1412 12.3413 16.0887 12.9843C16.0375 13.6107 15.9447 13.931 15.8309 14.1544C15.5569 14.692 15.1199 15.129 14.5823 15.403C14.3589 15.5168 14.0386 15.6096 13.4122 15.6607C12.7692 15.7132 11.9374 15.7144 10.7137 15.7144H10.1423C8.91859 15.7144 8.0868 15.7132 7.4438 15.6607C6.81744 15.6096 6.49716 15.5168 6.27373 15.403C5.73615 15.129 5.29906 14.692 5.02514 14.1544C4.91129 13.931 4.81854 13.6107 4.76737 12.9843C4.71484 12.3413 4.71373 11.5095 4.71373 10.2858V9.71438C4.71373 8.49067 4.71484 7.65888 4.76737 7.01588C4.81854 6.38952 4.91129 6.06924 5.02514 5.84581C5.29906 5.30823 5.73615 4.87115 6.27373 4.59722C6.49716 4.48337 6.81744 4.39062 7.4438 4.33945C8.0868 4.28692 8.91859 4.28581 10.1423 4.28581Z" fill="white"/>
<defs>
<radialGradient id="paint0_radial_1935_3206" cx="0" cy="0" r="1" gradientUnits="userSpaceOnUse" gradientTransform="translate(7.57254 15) rotate(-55.3758) scale(18.2283)">
<stop stop-color="#B13589"/>
<stop offset="0.79309" stop-color="#C62F94"/>
<stop offset="1" stop-color="#8A3AC8"/>
</radialGradient>
<radialGradient id="paint1_radial_1935_3206" cx="0" cy="0" r="1" gradientUnits="userSpaceOnUse" gradientTransform="translate(6.85826 20.7143) rotate(-65.1363) scale(16.1387)">
<stop stop-color="#E0E8B7"/>
<stop offset="0.444662" stop-color="#FB8A2E"/>
<stop offset="0.71474" stop-color="#E2425C"/>
<stop offset="1" stop-color="#E2425C" stop-opacity="0"/>
</radialGradient>
<radialGradient id="paint2_radial_1935_3206" cx="0" cy="0" r="1" gradientUnits="userSpaceOnUse" gradientTransform="translate(-0.641741 0.714286) rotate(-8.1301) scale(27.7792 5.94169)">
<stop offset="0.156701" stop-color="#406ADC"/>
<stop offset="0.467799" stop-color="#6A45BE"/>
<stop offset="1" stop-color="#6A45BE" stop-opacity="0"/>
</radialGradient>
</defs>
</svg>
