<svg width="205" height="210" viewBox="0 0 205 210" fill="none" xmlns="http://www.w3.org/2000/svg">
<g id="Group 1000002586" opacity="0.3">
<path id="Vector" d="M105.499 50.8448C118.328 50.8448 128.728 40.5821 128.728 27.9224C128.728 15.2627 118.328 5 105.499 5C92.6704 5 82.2705 15.2627 82.2705 27.9224C82.2705 40.5821 92.6704 50.8448 105.499 50.8448Z" stroke="#FFA1AA" stroke-width="10"/>
<path id="Vector_2" d="M181.772 130.285C194.601 130.285 205.001 120.023 205.001 107.363C205.001 94.7034 194.601 84.4407 181.772 84.4407C168.943 84.4407 158.543 94.7034 158.543 107.363C158.543 120.023 168.943 130.285 181.772 130.285Z" stroke="#FFA1AA" stroke-width="10"/>
<path id="Vector_3" d="M105.499 205C118.328 205 128.728 194.737 128.728 182.078C128.728 169.418 118.328 159.155 105.499 159.155C92.6704 159.155 82.2705 169.418 82.2705 182.078C82.2705 194.737 92.6704 205 105.499 205Z" stroke="#FFA1AA" stroke-width="10"/>
<path id="Vector_4" d="M28.2289 171.365C41.0579 171.365 51.4578 161.102 51.4578 148.442C51.4578 135.782 41.0579 125.52 28.2289 125.52C15.3999 125.52 5 135.782 5 148.442C5 161.102 15.3999 171.365 28.2289 171.365Z" stroke="#FFA1AA" stroke-width="10"/>
<path id="Vector_5" d="M28.2289 81.723C41.0579 81.723 51.4578 71.4603 51.4578 58.8006C51.4578 46.1409 41.0579 35.8782 28.2289 35.8782C15.3999 35.8782 5 46.1409 5 58.8006C5 71.4603 15.3999 81.723 28.2289 81.723Z" stroke="#FFA1AA" stroke-width="10"/>
<path id="Vector_6" d="M105.459 116.698C115.819 116.698 124.218 108.41 124.218 98.1863C124.218 87.9628 115.819 79.675 105.459 79.675C95.0988 79.675 86.7002 87.9628 86.7002 98.1863C86.7002 108.41 95.0988 116.698 105.459 116.698Z" stroke="#FFA1AA" stroke-width="10"/>
<path id="Vector_7" d="M48.2246 47.1033L83.068 33.8303" stroke="#FFA1AA" stroke-width="10"/>
<path id="Vector_8" d="M121.782 44.3069L165.207 91.2939" stroke="#FFA1AA" stroke-width="10"/>
<path id="Vector_9" d="M167.561 125.48L122.062 166.008" stroke="#FFA1AA" stroke-width="10"/>
<path id="Vector_10" d="M41.001 77.9421L91.0908 164.118" stroke="#FFA1AA" stroke-width="10"/>
<path id="Vector_11" d="M48.7832 159.116L82.2695 174.437" stroke="#FFA1AA" stroke-width="10"/>
<path id="Vector_12" d="M36.9297 127.174L92.9265 47.1819" stroke="#FFA1AA" stroke-width="10"/>
<path id="Vector_13" d="M49.6211 67.7805L88.8149 89.6395" stroke="#FFA1AA" stroke-width="10"/>
<path id="Vector_14" d="M124.258 100.274L158.542 102.834" stroke="#FFA1AA" stroke-width="10"/>
<path id="Vector_15" d="M105.459 116.737L105.498 159.116" stroke="#FFA1AA" stroke-width="10"/>
</g>
</svg>
