<svg width="70" height="70" viewBox="0 0 70 70" fill="none" xmlns="http://www.w3.org/2000/svg">
<rect width="70" height="70" rx="4" fill="#FFF8E7"/>
<path d="M19.8945 30.25C21.9171 23.8263 27.9333 19.1667 35.0404 19.1667C43.2709 19.1667 50.0382 25.4156 50.8345 33.4167L47.6678 32.7721" stroke="#D99C07" stroke-width="2.5" stroke-linecap="round" stroke-linejoin="round"/>
<path d="M50.1079 39.75C48.0853 46.1737 42.0691 50.8333 34.962 50.8333C26.7317 50.8333 19.9643 44.5844 19.168 36.5833L22.3347 37.2279" stroke="#D99C07" stroke-width="2.5" stroke-linecap="round" stroke-linejoin="round"/>
<path d="M30.2513 37.4192V40.5728C30.2513 41.0901 30.498 41.5824 30.9354 41.856C32.2711 42.6915 33.2871 42.9364 35.0068 42.9895C36.5912 43.0321 37.5847 42.783 39.064 41.8583C39.5077 41.5809 39.7623 41.0843 39.7623 40.5595V37.4192M42.9326 33.4402V38.2148M27.1595 33.169C27.7321 31.9593 31.2831 29.8535 34.5246 28.8132C34.8373 28.7128 35.1733 28.7227 35.4816 28.8357C38.3476 29.8849 41.5355 31.4718 42.6927 32.76C43.2971 33.4325 42.7062 34.2906 41.9756 34.8217C40.493 35.8996 38.8558 36.7382 35.551 38.0077C35.2012 38.1419 34.8126 38.1465 34.4611 38.0161C31.0717 36.7576 27.9033 35.1333 27.1858 33.7043C27.1013 33.5357 27.0789 33.3394 27.1595 33.169Z" stroke="#D99C07" stroke-width="2.5" stroke-linecap="round" stroke-linejoin="round"/>
</svg>
