<svg width="180" height="159" viewBox="0 0 180 159" fill="none" xmlns="http://www.w3.org/2000/svg">
<g opacity="0.3" clip-path="url(#clip0_1204_16567)">
<path d="M25 100H33.3333M100 25V33.3333M166.667 100H175M46.6667 46.6667L52.5 52.5M153.333 46.6667L147.5 52.5" stroke="#FFA1AA" stroke-width="12.5" stroke-linecap="round" stroke-linejoin="round"/>
<path d="M75.0052 133.332C68.0091 128.085 62.8413 120.77 60.2338 112.422C57.6263 104.075 57.7113 95.1189 60.4768 86.8225C63.2422 78.5262 68.5479 71.3103 75.6423 66.1969C82.7367 61.0836 91.2601 58.332 100.005 58.332C108.75 58.332 117.274 61.0836 124.368 66.1969C131.463 71.3103 136.768 78.5262 139.534 86.8225C142.299 95.1189 142.384 104.075 139.777 112.422C137.169 120.77 132.001 128.085 125.005 133.332C121.752 136.553 119.302 140.494 117.854 144.837C116.406 149.18 116.001 153.803 116.672 158.332C116.672 162.752 114.916 166.992 111.79 170.117C108.665 173.243 104.426 174.999 100.005 174.999C95.585 174.999 91.3457 173.243 88.2201 170.117C85.0945 166.992 83.3386 162.752 83.3386 158.332C84.009 153.803 83.604 149.18 82.1563 144.837C80.7086 140.494 78.2588 136.553 75.0052 133.332Z" stroke="#FFA1AA" stroke-width="12.5" stroke-linecap="round" stroke-linejoin="round"/>
<path d="M80.8333 141.668H119.167" stroke="#FFA1AA" stroke-width="12.5" stroke-linecap="round" stroke-linejoin="round"/>
</g>
<defs>
<clipPath id="clip0_1204_16567">
<rect width="200" height="200" fill="white"/>
</clipPath>
</defs>
</svg>
