<svg width="15" height="18" viewBox="0 0 15 18" fill="none" xmlns="http://www.w3.org/2000/svg">
<g clip-path="url(#clip0_1935_3203)">
<path d="M3.45536 6.42916V15.8304H0.324777V6.42916H3.45536ZM3.65458 3.52625C3.6609 3.98794 3.50121 4.37372 3.1755 4.68362C2.8498 4.99352 2.42132 5.14846 1.89007 5.14846H1.87109C1.35249 5.14846 0.935082 4.99352 0.618862 4.68362C0.302641 4.37372 0.144531 3.98794 0.144531 3.52625C0.144531 3.05825 0.307385 2.67088 0.633092 2.36414C0.958798 2.05741 1.38411 1.90404 1.90904 1.90404C2.43397 1.90404 2.85454 2.05741 3.17076 2.36414C3.48698 2.67088 3.64825 3.05825 3.65458 3.52625ZM14.716 10.442V15.8304H11.5949V10.8025C11.5949 10.1384 11.4668 9.61824 11.2107 9.24193C10.9545 8.86563 10.5545 8.67748 10.0106 8.67748C9.61217 8.67748 9.27855 8.78658 9.00977 9.00477C8.74098 9.22296 8.54018 9.49333 8.40737 9.81587C8.3378 10.0056 8.30301 10.2617 8.30301 10.5843V15.8304H5.18192C5.19457 13.3069 5.20089 11.261 5.20089 9.69255C5.20089 8.1241 5.19773 7.18808 5.19141 6.88451L5.18192 6.42916H8.30301V7.79523H8.28404C8.41053 7.59285 8.54018 7.41576 8.67299 7.26398C8.8058 7.11219 8.98447 6.94776 9.20898 6.77067C9.4335 6.59359 9.70861 6.45603 10.0343 6.35801C10.36 6.25998 10.7221 6.21096 11.1205 6.21096C12.202 6.21096 13.0716 6.56987 13.7294 7.28769C14.3871 8.00551 14.716 9.05695 14.716 10.442Z" fill="#02669A"/>
</g>
<defs>
<clipPath id="clip0_1935_3203">
<rect width="14.58" height="17" fill="white" transform="matrix(1 0 0 -1 0.140625 17.5)"/>
</clipPath>
</defs>
</svg>
