<svg width="266" height="65" viewBox="0 0 266 65" fill="none" xmlns="http://www.w3.org/2000/svg">
<g clip-path="url(#clip0_1206_18115)">
<path d="M11.4075 20.6016H0.647461V22.1448H11.4075V20.6016Z" fill="black"/>
<path d="M11.4075 17.6543H0.647461V19.1975H11.4075V17.6543Z" fill="black"/>
<path d="M8.34443 14.707H3.72559V16.2503H8.34443V14.707Z" fill="black"/>
<path d="M8.34443 11.7754H3.72559V13.3186H8.34443V11.7754Z" fill="black"/>
<path d="M8.34443 8.82617H3.72559V10.3694H8.34443V8.82617Z" fill="black"/>
<path d="M8.34443 5.87891H3.72559V7.42214H8.34443V5.87891Z" fill="black"/>
<path d="M11.4075 2.94922H0.647461V4.49245H11.4075V2.94922Z" fill="black"/>
<path d="M11.4075 0.00195312H0.647461V1.54519H11.4075V0.00195312Z" fill="black"/>
<path d="M12.9473 19.1975H29.3641C29.6409 18.712 29.8484 18.1918 29.9868 17.6543H12.9473V19.1975Z" fill="black"/>
<path d="M28.0665 11.7754H16.0264V13.3186H29.3639C29.018 12.7291 28.5855 12.2089 28.0665 11.7754Z" fill="black"/>
<path d="M16.0264 8.82617V10.3694H28.0665C28.5855 9.93591 29.018 9.41572 29.3466 8.82617H16.0264Z" fill="black"/>
<path d="M29.3641 2.94922H12.9473V4.49245H29.9695C29.8484 3.93758 29.6409 3.41739 29.3641 2.94922Z" fill="black"/>
<path d="M24.2781 0.00195312H12.9473V1.54519H28.2396C27.1498 0.556823 25.7313 0.00195312 24.2781 0.00195312Z" fill="black"/>
<path d="M20.6452 5.87891H16.0264V7.42214H20.6452V5.87891Z" fill="black"/>
<path d="M24.9707 7.42214H29.9355C30.0739 6.91929 30.1431 6.3991 30.1431 5.87891H24.9707V7.42214Z" fill="black"/>
<path d="M20.6452 14.707H16.0264V16.2503H20.6452V14.707Z" fill="black"/>
<path d="M24.9707 14.707V16.2503H30.1431C30.1431 15.7301 30.0739 15.2099 29.9355 14.707H24.9707Z" fill="black"/>
<path d="M12.9473 22.1275L24.2781 22.1448C25.7486 22.1448 27.1671 21.5899 28.2396 20.6016H12.9473V22.1275Z" fill="black"/>
<path d="M43.7042 22.1448L44.2405 20.6016H43.168L43.7042 22.1448Z" fill="black"/>
<path d="M42.6835 19.1975H44.7247L45.261 17.6543H42.1299L42.6835 19.1975Z" fill="black"/>
<path d="M41.6456 16.2503H45.7628L46.2991 14.707H41.1094L41.6456 16.2503Z" fill="black"/>
<path d="M40.6085 13.3186H46.7843L47.3379 11.7754H40.0723L40.6085 13.3186Z" fill="black"/>
<path d="M34.4854 7.42214H42.7889L42.2526 5.87891H34.4854V7.42214Z" fill="black"/>
<path d="M45.6436 4.49245H56.0057V2.94922H46.1798L45.6436 4.49245Z" fill="black"/>
<path d="M47.1994 0.00195312L46.6631 1.54519H56.0046V0.00195312H47.1994Z" fill="black"/>
<path d="M39.0851 20.6016H31.4043V22.1448H39.0851V20.6016Z" fill="black"/>
<path d="M39.0851 17.6543H31.4043V19.1975H39.0851V17.6543Z" fill="black"/>
<path d="M39.1042 14.707H34.4854V16.2503H39.1042V14.707Z" fill="black"/>
<path d="M39.1042 11.7754H34.4854V13.3186H39.1042V11.7754Z" fill="black"/>
<path d="M52.9237 5.87891H45.1564L44.6201 7.42214H52.9237V5.87891Z" fill="black"/>
<path d="M48.3246 10.3694H52.9261V8.82617H48.3246H44.1382L43.7057 10.0746L43.2733 8.82617H39.0869H34.4854V10.3694H39.0869V8.94755L39.5886 10.3694H47.8229L48.3246 8.94755V10.3694Z" fill="black"/>
<path d="M52.9431 11.7754H48.3242V13.3186H52.9431V11.7754Z" fill="black"/>
<path d="M52.9431 14.707H48.3242V16.2503H52.9431V14.707Z" fill="black"/>
<path d="M56.005 17.6543H48.3242V19.1975H56.005V17.6543Z" fill="black"/>
<path d="M56.005 20.6016H48.3242V22.1448H56.005V20.6016Z" fill="black"/>
<path d="M41.7664 4.49245L41.2302 2.94922H31.4043V4.49245H41.7664Z" fill="black"/>
<path d="M40.7458 1.54519L40.2095 0.00195312H31.4043V1.54519H40.7458Z" fill="black"/>
</g>
<g clip-path="url(#clip1_1206_18115)">
<path d="M97.4092 7.90095V10.2662H103.117C102.966 11.5746 102.511 12.5811 101.804 13.2353C100.996 14.0405 99.6823 14.9464 97.4092 14.9464C93.9238 14.9464 91.196 12.1282 91.196 8.65582C91.196 5.18343 93.8733 2.36525 97.4092 2.36525C99.2782 2.36525 100.693 3.12012 101.703 4.07629L103.37 2.41558C101.955 1.05682 100.036 0 97.4092 0C92.6104 0 88.5693 3.87499 88.5693 8.65582C88.5693 13.4366 92.6104 17.3116 97.4092 17.3116C99.9854 17.3116 101.955 16.4561 103.471 14.8961C105.037 13.336 105.542 11.1217 105.542 9.36036C105.542 8.80679 105.491 8.30355 105.441 7.90095H97.4092Z" fill="#4285F4"/>
<path d="M112.613 5.93945C109.531 5.93945 106.955 8.30471 106.955 11.5255C106.955 14.7462 109.481 17.1115 112.613 17.1115C115.744 17.1115 118.27 14.7966 118.27 11.5758C118.27 8.30471 115.744 5.93945 112.613 5.93945ZM112.613 14.9475C110.895 14.9475 109.43 13.5385 109.43 11.5758C109.43 9.56282 110.895 8.20406 112.613 8.20406C114.33 8.20406 115.795 9.56282 115.795 11.5758C115.795 13.5385 114.33 14.9475 112.613 14.9475Z" fill="#EA4335"/>
<path d="M140.244 7.19757H140.143C139.587 6.54335 138.526 5.93945 137.163 5.93945C134.334 5.93945 131.909 8.35503 131.909 11.5255C131.909 14.6456 134.334 17.1115 137.163 17.1115C138.526 17.1115 139.587 16.5076 140.143 15.8534H140.244V16.6586C140.244 18.7722 139.082 19.9297 137.264 19.9297C135.748 19.9297 134.839 18.8729 134.435 17.9167L132.313 18.8225C132.919 20.2819 134.586 22.1439 137.314 22.1439C140.193 22.1439 142.669 20.4329 142.669 16.3063V6.2414H140.345V7.19757H140.244ZM137.415 14.9475C135.698 14.9475 134.435 13.4881 134.435 11.5758C134.435 9.61314 135.748 8.20406 137.415 8.20406C139.082 8.20406 140.395 9.66347 140.395 11.6261C140.446 13.5385 139.133 14.9475 137.415 14.9475Z" fill="#4285F4"/>
<path d="M125.19 5.93945C122.108 5.93945 119.532 8.30471 119.532 11.5255C119.532 14.7462 122.058 17.1115 125.19 17.1115C128.322 17.1115 130.847 14.7966 130.847 11.5758C130.847 8.30471 128.322 5.93945 125.19 5.93945ZM125.19 14.9475C123.472 14.9475 122.007 13.5385 122.007 11.5758C122.007 9.56282 123.472 8.20406 125.19 8.20406C126.907 8.20406 128.372 9.56282 128.372 11.5758C128.372 13.5385 126.907 14.9475 125.19 14.9475Z" fill="#FBBC05"/>
<path d="M144.537 0.251953H146.962V17.161H144.537V0.251953Z" fill="#34A853"/>
<path d="M154.439 14.9475C153.176 14.9475 152.318 14.394 151.712 13.2365L159.238 10.1667L158.986 9.51249C158.531 8.25438 157.066 5.93945 154.187 5.93945C151.307 5.93945 148.883 8.20406 148.883 11.5255C148.883 14.6456 151.257 17.1115 154.439 17.1115C157.015 17.1115 158.48 15.5514 159.137 14.6456L157.218 13.3875C156.561 14.3436 155.702 14.9475 154.439 14.9475ZM154.288 8.05308C155.298 8.05308 156.157 8.55633 156.409 9.26087L151.358 11.3745C151.307 9.05957 153.025 8.05308 154.288 8.05308Z" fill="#EA4335"/>
</g>
<path fill-rule="evenodd" clip-rule="evenodd" d="M237.429 17.3165C233.171 20.4651 226.977 22.1426 221.635 22.1426C214.151 22.1426 207.441 19.3811 202.331 14.7873C201.944 14.426 202.279 13.9357 202.769 14.2196C208.266 17.4197 215.054 19.3295 222.073 19.3295C226.796 19.3295 232.009 18.3488 236.81 16.31C237.532 16.0261 238.126 16.8003 237.429 17.3165Z" fill="#FF9900"/>
<path fill-rule="evenodd" clip-rule="evenodd" d="M239.21 15.2783C238.668 14.5815 235.597 14.9428 234.229 15.1235C233.817 15.1751 233.739 14.8138 234.126 14.5557C236.578 12.8266 240.578 13.3427 241.043 13.9105C241.507 14.4783 240.914 18.5043 238.617 20.4141C238.255 20.698 237.92 20.5431 238.075 20.156C238.591 18.8656 239.752 16.001 239.21 15.2783Z" fill="#FF9900"/>
<path fill-rule="evenodd" clip-rule="evenodd" d="M234.306 2.42594V0.748426C234.306 0.490348 234.486 0.335499 234.719 0.335499H242.203C242.435 0.335499 242.641 0.516156 242.641 0.748426V2.16786C242.641 2.40013 242.435 2.70983 242.074 3.22598L238.203 8.74886C239.648 8.72306 241.17 8.92952 242.461 9.65214C242.745 9.80699 242.822 10.0651 242.848 10.2973V12.0781C242.848 12.3362 242.59 12.62 242.306 12.4652C240.009 11.2522 236.938 11.1232 234.409 12.491C234.151 12.62 233.867 12.362 233.867 12.1039V10.4006C233.867 10.1425 233.867 9.67795 234.151 9.26502L238.641 2.83887H234.744C234.512 2.83887 234.306 2.65821 234.306 2.42594ZM207.027 12.8265H204.756C204.55 12.8007 204.369 12.6458 204.343 12.4394V0.774236C204.343 0.541965 204.55 0.361309 204.782 0.361309H206.898C207.13 0.361309 207.285 0.541964 207.311 0.748426V2.27109H207.363C207.905 0.800041 208.963 0.10323 210.356 0.10323C211.776 0.10323 212.679 0.800041 213.298 2.27109C213.84 0.800041 215.105 0.10323 216.447 0.10323C217.402 0.10323 218.434 0.490348 219.079 1.39362C219.802 2.37432 219.647 3.79376 219.647 5.05834V12.4394C219.647 12.6717 219.441 12.8523 219.208 12.8523H216.963C216.731 12.8265 216.55 12.6458 216.55 12.4394V6.2455C216.55 5.75515 216.602 4.51637 216.499 4.05183C216.318 3.27759 215.828 3.04532 215.157 3.04532C214.615 3.04532 214.021 3.40664 213.789 4.00022C213.556 4.5938 213.582 5.57449 213.582 6.2455V12.4394C213.582 12.6717 213.376 12.8523 213.144 12.8523H210.872C210.64 12.8265 210.46 12.6458 210.46 12.4394V6.2455C210.46 4.9551 210.666 3.01952 209.066 3.01952C207.44 3.01952 207.492 4.87768 207.492 6.2455V12.4394C207.466 12.6458 207.285 12.8265 207.027 12.8265ZM249.093 0.10323C252.474 0.10323 254.306 2.99371 254.306 6.68424C254.306 10.2457 252.293 13.0846 249.093 13.0846C245.79 13.0846 243.983 10.1941 243.983 6.58101C243.958 2.9421 245.79 0.10323 249.093 0.10323ZM249.093 2.50336C247.416 2.50336 247.313 4.80026 247.313 6.2197C247.313 7.63913 247.287 10.6845 249.068 10.6845C250.822 10.6845 250.926 8.23271 250.926 6.73585C250.926 5.75516 250.874 4.56799 250.59 3.63891C250.332 2.81306 249.816 2.50336 249.093 2.50336ZM258.668 12.8265H256.397C256.165 12.8007 255.984 12.62 255.984 12.4136V0.722617C256.01 0.516154 256.19 0.335499 256.423 0.335499H258.539C258.745 0.335499 258.9 0.490351 258.952 0.671006V2.45175H259.003C259.649 0.85166 260.526 0.10323 262.1 0.10323C263.107 0.10323 264.113 0.464537 264.758 1.47104C265.352 2.40013 265.352 3.97441 265.352 5.10995V12.4652C265.326 12.6717 265.146 12.8265 264.913 12.8265H262.642C262.436 12.8007 262.255 12.6459 262.229 12.4652V6.11646C262.229 4.82607 262.384 2.9679 260.81 2.9679C260.268 2.9679 259.752 3.32922 259.494 3.89699C259.184 4.61961 259.132 5.31642 259.132 6.11646V12.4136C259.107 12.6459 258.9 12.8265 258.668 12.8265ZM228.344 7.25201C228.344 8.12948 228.37 8.8779 227.931 9.67795C227.57 10.3231 227.002 10.7103 226.357 10.7103C225.48 10.7103 224.963 10.0393 224.963 9.05856C224.963 7.12297 226.692 6.76166 228.344 6.76166V7.25201ZM230.641 12.8007C230.486 12.9297 230.28 12.9555 230.099 12.8523C229.351 12.2329 229.196 11.9232 228.783 11.3297C227.544 12.5942 226.641 12.9814 225.041 12.9814C223.131 12.9814 221.634 11.7942 221.634 9.44568C221.634 7.58751 222.641 6.34873 224.06 5.72934C225.299 5.18738 227.028 5.08415 228.344 4.9293V4.64542C228.344 4.10345 228.396 3.45826 228.06 2.99371C227.776 2.58079 227.26 2.40013 226.796 2.40013C225.918 2.40013 225.144 2.83887 224.963 3.76795C224.912 3.97441 224.783 4.18087 224.576 4.18087L222.383 3.9486C222.202 3.89698 221.996 3.76795 222.047 3.48406C222.563 0.800044 224.963 0 227.131 0C228.241 0 229.686 0.283885 230.564 1.13554C231.673 2.16786 231.57 3.56149 231.57 5.05834V8.59402C231.57 9.65214 232.009 10.1167 232.422 10.7103C232.577 10.9167 232.602 11.1748 232.422 11.3038C231.931 11.691 231.106 12.4136 230.641 12.8007ZM198.537 7.25201C198.537 8.12948 198.562 8.8779 198.124 9.67795C197.762 10.3231 197.195 10.7103 196.549 10.7103C195.672 10.7103 195.156 10.0393 195.156 9.05856C195.156 7.12297 196.885 6.76166 198.537 6.76166V7.25201ZM200.808 12.8007C200.653 12.9297 200.446 12.9555 200.266 12.8523C199.517 12.2329 199.362 11.9232 198.949 11.3297C197.711 12.5942 196.807 12.9814 195.207 12.9814C193.298 12.9814 191.801 11.7942 191.801 9.44568C191.801 7.58751 192.807 6.34873 194.227 5.72934C195.465 5.18738 197.195 5.08415 198.511 4.9293V4.64542C198.511 4.10345 198.562 3.45826 198.227 2.99371C197.943 2.58079 197.427 2.40013 196.962 2.40013C196.085 2.40013 195.311 2.83887 195.13 3.76795C195.078 3.97441 194.949 4.18087 194.743 4.18087L192.549 3.9486C192.369 3.89698 192.162 3.76795 192.214 3.48406C192.73 0.800044 195.13 0 197.298 0C198.407 0 199.853 0.283885 200.73 1.13554C201.84 2.16786 201.737 3.56149 201.737 5.05834V8.59402C201.737 9.65214 202.175 10.1167 202.588 10.7103C202.743 10.9167 202.769 11.1748 202.588 11.3038C202.098 11.691 201.272 12.4136 200.808 12.8007Z" fill="black"/>
<path d="M124.17 52.1589V50.3348H121.905V47.4991L121.829 47.5225L119.702 48.1734L119.66 48.1862V50.3348H116.302V49.138C116.302 48.5806 116.426 48.1541 116.672 47.8697C116.916 47.5886 117.265 47.4458 117.71 47.4458C118.029 47.4458 118.361 47.5211 118.694 47.6697L118.777 47.707V45.786L118.738 45.7716C118.427 45.6598 118.004 45.6035 117.48 45.6035C116.819 45.6035 116.219 45.7472 115.696 46.0322C115.172 46.3175 114.76 46.7249 114.471 47.2428C114.183 47.7602 114.037 48.3577 114.037 49.0189V50.3348H112.46V52.1589H114.037V59.8433H116.302V52.1589H119.66V57.0422C119.66 59.0534 120.608 60.0727 122.479 60.0727C122.787 60.0727 123.11 60.0365 123.441 59.9659C123.777 59.8936 124.006 59.8212 124.141 59.744L124.17 59.7264V57.8854L124.078 57.9464C123.956 58.0284 123.803 58.0952 123.623 58.1449C123.443 58.1956 123.292 58.221 123.176 58.221C122.737 58.221 122.413 58.1029 122.212 57.8699C122.009 57.6347 121.905 57.2233 121.905 56.6481V52.1589H124.17ZM107.404 58.2212C106.582 58.2212 105.934 57.9487 105.477 57.4119C105.018 56.8723 104.785 56.1032 104.785 55.1259C104.785 54.1177 105.018 53.3286 105.478 52.7795C105.934 52.2341 106.576 51.9573 107.385 51.9573C108.17 51.9573 108.795 52.2217 109.243 52.7435C109.693 53.268 109.921 54.0509 109.921 55.0709C109.921 56.1034 109.706 56.8966 109.283 57.4271C108.863 57.9537 108.23 58.2212 107.404 58.2212ZM107.505 50.1058C105.937 50.1058 104.691 50.5652 103.803 51.4713C102.916 52.3776 102.466 53.6316 102.466 55.199C102.466 56.6877 102.905 57.8852 103.772 58.7576C104.638 59.6304 105.817 60.0725 107.275 60.0725C108.795 60.0725 110.016 59.6067 110.903 58.688C111.791 57.7702 112.24 56.5281 112.24 54.9972C112.24 53.4852 111.818 52.2788 110.986 51.4122C110.153 50.5452 108.981 50.1058 107.505 50.1058ZM98.8154 50.1057C97.7489 50.1057 96.8667 50.3785 96.1927 50.9164C95.5147 51.4574 95.1709 52.1672 95.1709 53.0259C95.1709 53.4723 95.2451 53.8688 95.3912 54.2051C95.5382 54.5426 95.7657 54.8395 96.0678 55.0889C96.3678 55.3362 96.8306 55.5953 97.4441 55.8588C97.9597 56.071 98.3444 56.2506 98.5887 56.3921C98.8275 56.5307 98.997 56.6701 99.0927 56.8058C99.1857 56.9386 99.2329 57.1204 99.2329 57.3449C99.2329 57.9836 98.7546 58.2944 97.7702 58.2944C97.4051 58.2944 96.9886 58.2183 96.5324 58.0679C96.0759 57.9178 95.6493 57.7019 95.2648 57.4251L95.1709 57.3578V59.5376L95.2053 59.5537C95.5258 59.7016 95.9296 59.8262 96.4057 59.9244C96.8809 60.0226 97.3126 60.0727 97.6877 60.0727C98.845 60.0727 99.777 59.7985 100.457 59.2575C101.141 58.7127 101.488 57.9862 101.488 57.0977C101.488 56.4568 101.302 55.9071 100.933 55.4639C100.568 55.0242 99.9336 54.6206 99.0487 54.2638C98.3438 53.9808 97.8921 53.7459 97.7059 53.5657C97.5263 53.3915 97.4351 53.1452 97.4351 52.8333C97.4351 52.5567 97.5476 52.3352 97.7788 52.1558C98.0116 51.9754 98.3357 51.8837 98.7423 51.8837C99.1196 51.8837 99.5056 51.9433 99.8894 52.0601C100.273 52.1768 100.61 52.3332 100.891 52.5246L100.984 52.5878V50.52L100.948 50.5047C100.689 50.3934 100.347 50.2982 99.931 50.221C99.5171 50.1445 99.1418 50.1057 98.8154 50.1057ZM89.268 58.2212C88.4464 58.2212 87.7983 57.9487 87.3418 57.4119C86.8823 56.8723 86.6499 56.1034 86.6499 55.1259C86.6499 54.1177 86.8825 53.3286 87.3423 52.7795C87.7988 52.2341 88.4404 51.9573 89.2499 51.9573C90.0347 51.9573 90.6597 52.2217 91.1074 52.7435C91.5574 53.268 91.7856 54.0509 91.7856 55.0709C91.7856 56.1034 91.5708 56.8966 91.1474 57.4271C90.727 57.9537 90.095 58.2212 89.268 58.2212ZM89.3691 50.1058C87.8008 50.1058 86.5554 50.5652 85.668 51.4713C84.7807 52.3776 84.3304 53.6316 84.3304 55.199C84.3304 56.6884 84.7699 57.8852 85.6361 58.7576C86.5024 59.6304 87.6812 60.0725 89.1397 60.0725C90.6593 60.0725 91.8802 59.6067 92.7678 58.688C93.655 57.7702 94.1048 56.5281 94.1048 54.9972C94.1048 53.4852 93.6828 52.2788 92.8502 51.4122C92.017 50.5452 90.8458 50.1058 89.3691 50.1058ZM80.8934 51.9814V50.3348H78.6567V59.843H80.8934V54.9793C80.8934 54.1521 81.0809 53.4728 81.4508 52.9596C81.8162 52.4525 82.303 52.1955 82.8974 52.1955C83.0988 52.1955 83.3249 52.2288 83.5698 52.2945C83.8123 52.3598 83.9879 52.4307 84.0915 52.5053L84.1854 52.5734V50.3185L84.1491 50.303C83.9408 50.2144 83.6462 50.1698 83.2734 50.1698C82.7114 50.1698 82.2083 50.3504 81.7775 50.706C81.3994 51.0185 81.126 51.447 80.9171 51.9814H80.8934ZM74.6514 50.1057C73.6253 50.1057 72.71 50.3258 71.9315 50.7595C71.1514 51.1942 70.5481 51.8149 70.1376 52.6041C69.729 53.3915 69.5216 54.3112 69.5216 55.3367C69.5216 56.2351 69.7228 57.0595 70.1203 57.7861C70.5182 58.5139 71.0813 59.0833 71.794 59.4782C72.5057 59.8726 73.3283 60.0727 74.2391 60.0727C75.302 60.0727 76.2095 59.8601 76.9372 59.4411L76.9665 59.4241V57.3751L76.8726 57.4437C76.543 57.6837 76.1747 57.8754 75.7783 58.0135C75.383 58.1514 75.0226 58.2211 74.7067 58.2211C73.829 58.2211 73.1245 57.9465 72.6131 57.4052C72.1005 56.863 71.8407 56.1019 71.8407 55.1439C71.8407 54.18 72.1117 53.3993 72.6458 52.8231C73.1782 52.2487 73.8841 51.9574 74.7435 51.9574C75.4787 51.9574 76.1951 52.2063 76.8728 52.6979L76.9665 52.766V50.607L76.9363 50.5899C76.6812 50.4472 76.3334 50.3293 75.9015 50.2399C75.4716 50.1507 75.0511 50.1057 74.6514 50.1057ZM67.9812 50.3349H65.7445V59.8431H67.9812V50.3349ZM66.8857 46.2843C66.5176 46.2843 66.1965 46.4096 65.9328 46.6579C65.6679 46.907 65.5334 47.2205 65.5334 47.5905C65.5334 47.9547 65.6662 48.2625 65.9285 48.5049C66.1891 48.7466 66.5112 48.8691 66.8857 48.8691C67.26 48.8691 67.5833 48.7466 67.8471 48.5053C68.1126 48.2625 68.2472 47.9547 68.2472 47.5905C68.2472 47.2335 68.1162 46.923 67.858 46.6679C67.6002 46.4134 67.2729 46.2843 66.8857 46.2843ZM61.3052 49.6334V59.843H63.5877V46.5755H60.4286L56.4131 56.4302L52.5163 46.5755H49.2285V59.843H51.3735V49.6324H51.4472L55.5621 59.843H57.1809L61.2316 49.6334H61.3052Z" fill="#111111"/>
<path d="M30.9748 52.6643H20.4531V42.1426H30.9748V52.6643Z" fill="#F1511B"/>
<path d="M42.5928 52.6643H32.0713V42.1426H42.5928V52.6643Z" fill="#80CC28"/>
<path d="M30.9745 64.2853H20.4531V53.7637H30.9745V64.2853Z" fill="#00ADEF"/>
<path d="M42.5928 64.2853H32.0713V53.7637H42.5928V64.2853Z" fill="#FBBC09"/>
<path d="M186.03 59.5775L187.123 57.0388C188.304 57.9203 189.874 58.3786 191.425 58.3786C192.571 58.3786 193.294 57.9379 193.294 57.268C193.276 55.3992 186.436 56.8625 186.383 52.173C186.365 49.7929 188.481 47.9594 191.478 47.9594C193.258 47.9594 195.039 48.4002 196.308 49.4051L195.286 51.9967C194.122 51.2562 192.677 50.7273 191.302 50.7273C190.367 50.7273 189.75 51.1681 189.75 51.7322C189.768 53.5657 196.661 52.5608 196.731 57.0388C196.731 59.4717 194.669 61.1818 191.707 61.1818C189.539 61.1818 187.546 60.6705 186.03 59.5775ZM227.971 56.122L230.986 57.7969C229.857 59.8243 227.707 61.1818 225.221 61.1818C221.572 61.1818 218.61 58.22 218.61 54.5706C218.61 50.9212 221.572 47.9594 225.221 47.9594C227.689 47.9594 229.857 49.3346 230.986 51.3444L227.971 53.0192C227.425 52.0672 226.402 51.4149 225.221 51.4149C223.476 51.4149 222.065 52.8253 222.065 54.5706C222.065 56.316 223.476 57.7263 225.221 57.7263C226.402 57.7263 227.425 57.074 227.971 56.122ZM198.248 42.4766H202.02V60.935H198.248V42.4766ZM232.467 42.4766H236.239V53.3189L240.506 48.2239H245.125L239.853 54.3591L245.548 60.935H240.717L236.239 55.3992V60.935H232.467V42.4766ZM213.233 56.1573V53.0368C212.686 52.1201 211.558 51.4149 210.289 51.4149C208.543 51.4149 207.133 52.8253 207.133 54.5706C207.133 56.316 208.543 57.7263 210.289 57.7263C211.558 57.7263 212.686 57.0564 213.233 56.1573ZM213.233 48.2239H217.006V60.9173H213.233V59.4188C212.616 60.459 211.082 61.1818 209.478 61.1818C206.163 61.1818 203.554 58.22 203.554 54.553C203.554 50.886 206.163 47.9594 209.478 47.9594C211.082 47.9594 212.616 48.6823 213.233 49.7224V48.2239Z" fill="black"/>
<path d="M162.708 56.1396C162.708 57.4266 161.668 58.4668 160.381 58.4668C159.094 58.4668 158.054 57.4266 158.054 56.1396C158.054 54.8527 159.094 53.8125 160.381 53.8125H162.708V56.1396ZM163.871 56.1396C163.871 54.8527 164.912 53.8125 166.199 53.8125C167.486 53.8125 168.526 54.8527 168.526 56.1396V61.9575C168.526 63.2444 167.486 64.2846 166.199 64.2846C164.912 64.2846 163.871 63.2444 163.871 61.9575V56.1396Z" fill="#E01E5A"/>
<path d="M166.199 46.7968C164.912 46.7968 163.872 45.7567 163.872 44.4697C163.872 43.1827 164.912 42.1426 166.199 42.1426C167.486 42.1426 168.526 43.1827 168.526 44.4697V46.7968H166.199ZM166.199 47.978C167.486 47.978 168.526 49.0182 168.526 50.3052C168.526 51.5922 167.486 52.6323 166.199 52.6323H160.363C159.076 52.6323 158.036 51.5922 158.036 50.3052C158.036 49.0182 159.076 47.978 160.363 47.978H166.199Z" fill="#36C5F0"/>
<path d="M175.526 50.3052C175.526 49.0182 176.566 47.978 177.853 47.978C179.14 47.978 180.18 49.0182 180.18 50.3052C180.18 51.5922 179.14 52.6323 177.853 52.6323H175.526V50.3052ZM174.362 50.3052C174.362 51.5922 173.322 52.6323 172.035 52.6323C170.748 52.6323 169.708 51.5922 169.708 50.3052V44.4697C169.708 43.1827 170.748 42.1426 172.035 42.1426C173.322 42.1426 174.362 43.1827 174.362 44.4697V50.3052Z" fill="#2EB67D"/>
<path d="M172.035 59.6303C173.322 59.6303 174.362 60.6705 174.362 61.9575C174.362 63.2444 173.322 64.2846 172.035 64.2846C170.748 64.2846 169.708 63.2444 169.708 61.9575V59.6303H172.035ZM172.035 58.4668C170.748 58.4668 169.708 57.4266 169.708 56.1396C169.708 54.8527 170.748 53.8125 172.035 53.8125H177.871C179.157 53.8125 180.198 54.8527 180.198 56.1396C180.198 57.4266 179.157 58.4668 177.871 58.4668H172.035Z" fill="#ECB22E"/>
<defs>
<clipPath id="clip0_1206_18115">
<rect width="55.357" height="22.1428" fill="white" transform="translate(0.648438)"/>
</clipPath>
<clipPath id="clip1_1206_18115">
<rect width="70.6685" height="22.1428" fill="white" transform="translate(88.5684)"/>
</clipPath>
</defs>
</svg>
