<svg width="18" height="18" viewBox="0 0 18 18" fill="none" xmlns="http://www.w3.org/2000/svg">
<g clip-path="url(#clip0_1935_3215)">
<path d="M16.7154 14.7678V7.48213C16.513 7.70981 16.2948 7.91852 16.0608 8.10825C14.3659 9.41108 13.0188 10.4799 12.0195 11.3147C11.697 11.5867 11.4345 11.7985 11.2321 11.9503C11.0298 12.1021 10.7562 12.2555 10.4116 12.4104C10.0669 12.5654 9.74275 12.6428 9.43917 12.6428H9.42969H9.4202C9.11663 12.6428 8.7925 12.5654 8.44782 12.4104C8.10314 12.2555 7.82961 12.1021 7.62723 11.9503C7.42485 11.7985 7.16239 11.5867 6.83984 11.3147C5.84059 10.4799 4.49349 9.41108 2.79855 8.10825C2.56455 7.91852 2.34635 7.70981 2.14397 7.48213V14.7678C2.14397 14.8501 2.17401 14.9212 2.2341 14.9813C2.29418 15.0414 2.36533 15.0714 2.44754 15.0714H16.4118C16.494 15.0714 16.5652 15.0414 16.6253 14.9813C16.6854 14.9212 16.7154 14.8501 16.7154 14.7678ZM16.7154 4.79742C16.7154 4.78478 16.7154 4.74999 16.7154 4.69307C16.7154 4.63615 16.7154 4.59346 16.7154 4.565C16.7154 4.53654 16.7138 4.49543 16.7107 4.44168C16.7075 4.38792 16.698 4.34839 16.6822 4.32309C16.6664 4.2978 16.649 4.26934 16.63 4.23771C16.611 4.20609 16.5826 4.18238 16.5446 4.16656C16.5067 4.15075 16.4624 4.14285 16.4118 4.14285H2.44754C2.36533 4.14285 2.29418 4.17289 2.2341 4.23297C2.17401 4.29305 2.14397 4.3642 2.14397 4.44642C2.14397 5.50892 2.60882 6.40699 3.5385 7.14062C4.75911 8.10193 6.02716 9.10434 7.34263 10.1479C7.38058 10.1795 7.49126 10.2728 7.67467 10.4277C7.85807 10.5827 8.00353 10.7013 8.11105 10.7835C8.21856 10.8657 8.35928 10.9653 8.5332 11.0823C8.70712 11.1993 8.86682 11.2863 9.01228 11.3432C9.15774 11.4001 9.29371 11.4286 9.4202 11.4286H9.42969H9.43917C9.56566 11.4286 9.70164 11.4001 9.8471 11.3432C9.99256 11.2863 10.1523 11.1993 10.3262 11.0823C10.5001 10.9653 10.6408 10.8657 10.7483 10.7835C10.8558 10.7013 11.0013 10.5827 11.1847 10.4277C11.3681 10.2728 11.4788 10.1795 11.5167 10.1479C12.8322 9.10434 14.1003 8.10193 15.3209 7.14062C15.6624 6.86867 15.9802 6.50343 16.2743 6.04491C16.5684 5.58639 16.7154 5.17056 16.7154 4.79742ZM17.9297 4.44642V14.7678C17.9297 15.1853 17.7811 15.5426 17.4838 15.8398C17.1866 16.1371 16.8292 16.2857 16.4118 16.2857H2.44754C2.03013 16.2857 1.67281 16.1371 1.37556 15.8398C1.07831 15.5426 0.929688 15.1853 0.929688 14.7678V4.44642C0.929688 4.02901 1.07831 3.67168 1.37556 3.37443C1.67281 3.07719 2.03013 2.92856 2.44754 2.92856H16.4118C16.8292 2.92856 17.1866 3.07719 17.4838 3.37443C17.7811 3.67168 17.9297 4.02901 17.9297 4.44642Z" fill="#111111"/>
</g>
<defs>
<clipPath id="clip0_1935_3215">
<rect width="17.02" height="17" fill="white" transform="matrix(1 0 0 -1 0.917969 17.5)"/>
</clipPath>
</defs>
</svg>
