<svg width="30" height="30" viewBox="0 0 30 30" fill="none" xmlns="http://www.w3.org/2000/svg">
<g id="money-02 1">
<path id="Vector" d="M15 24.375C13.3344 25.153 11.1463 25.625 8.75 25.625C7.4176 25.625 6.14961 25.4791 5 25.2157C3.12446 24.7861 2.5 23.658 2.5 21.7325V8.26746C2.5 7.03642 3.80004 6.19091 5 6.46575C6.14961 6.72906 7.4176 6.875 8.75 6.875C11.1463 6.875 13.3344 6.40295 15 5.625C16.6656 4.84705 18.8536 4.375 21.25 4.375C22.5824 4.375 23.8504 4.52094 25 4.78425C26.9771 5.2371 27.5 6.40045 27.5 8.26746V21.7325C27.5 22.9636 26.2 23.8091 25 23.5343C23.8504 23.2709 22.5824 23.125 21.25 23.125C18.8536 23.125 16.6656 23.597 15 24.375Z" stroke="#A1A9AE" stroke-width="1.5"/>
<path id="Vector_2" d="M18.125 15C18.125 16.7259 16.7259 18.125 15 18.125C13.2741 18.125 11.875 16.7259 11.875 15C11.875 13.2741 13.2741 11.875 15 11.875C16.7259 11.875 18.125 13.2741 18.125 15Z" stroke="#A1A9AE" stroke-width="1.5"/>
<path id="Vector_3" d="M23.75 13.9269C23.3436 13.868 22.9262 13.8232 22.5 13.7934M7.5 16.2066C7.07371 16.1769 6.65639 16.132 6.25 16.0731" stroke="#A1A9AE" stroke-width="1.5" stroke-linecap="round" stroke-linejoin="round"/>
</g>
</svg>
