<svg width="29" height="20" viewBox="0 0 29 20" fill="none" xmlns="http://www.w3.org/2000/svg">
<path fill-rule="evenodd" clip-rule="evenodd" d="M11.6113 13.6944V5.67757C14.4573 7.01675 16.6615 8.31043 19.2684 9.70519C17.1183 10.8976 14.4573 12.2356 11.6113 13.6944ZM27.4721 1.6904C26.9811 1.04361 26.1444 0.540127 25.2536 0.373441C22.6353 -0.123773 6.30062 -0.125187 3.68372 0.373441C2.96937 0.507355 2.33327 0.831046 1.78684 1.33396C-0.515585 3.47096 0.205885 14.931 0.760857 16.7874C0.994229 17.5909 1.29592 18.1704 1.67586 18.5507C2.16537 19.0536 2.8356 19.3999 3.60544 19.5552C5.76129 20.0011 16.8678 20.2505 25.2081 19.6222C25.9765 19.4883 26.6567 19.1308 27.1931 18.6066C29.322 16.4781 29.1768 4.37448 27.4721 1.6904Z" fill="white"/>
</svg>
