<svg width="60" height="60" viewBox="0 0 60 60" fill="none" xmlns="http://www.w3.org/2000/svg">
<path d="M22.8984 27.175C22.6484 27.15 22.3484 27.15 22.0734 27.175C16.1234 26.975 11.3984 22.1 11.3984 16.1C11.3984 9.975 16.3484 5 22.4984 5C28.6234 5 33.5984 9.975 33.5984 16.1C33.5734 22.1 28.8484 26.975 22.8984 27.175Z" stroke="white" stroke-opacity="0.8" stroke-width="2" stroke-linecap="round" stroke-linejoin="round"/>
<path d="M41.0242 10C45.8742 10 49.7742 13.925 49.7742 18.75C49.7742 23.475 46.0242 27.325 41.3492 27.5C41.1492 27.475 40.9242 27.475 40.6992 27.5" stroke="white" stroke-opacity="0.8" stroke-width="2" stroke-linecap="round" stroke-linejoin="round"/>
<path d="M10.4008 36.4C4.35078 40.45 4.35078 47.05 10.4008 51.075C17.2758 55.675 28.5508 55.675 35.4258 51.075C41.4758 47.025 41.4758 40.425 35.4258 36.4C28.5758 31.825 17.3008 31.825 10.4008 36.4Z" stroke="white" stroke-opacity="0.8" stroke-width="2" stroke-linecap="round" stroke-linejoin="round"/>
<path d="M45.8516 50C47.6516 49.625 49.3516 48.9 50.7516 47.825C54.6516 44.9 54.6516 40.075 50.7516 37.15C49.3766 36.1 47.7016 35.4 45.9266 35" stroke="white" stroke-opacity="0.8" stroke-width="2" stroke-linecap="round" stroke-linejoin="round"/>
</svg>
