<svg width="200" height="200" viewBox="0 0 200 200" fill="none" xmlns="http://www.w3.org/2000/svg">
<g id="quotation-marks-svgrepo-com 1">
<g id="Group">
<path id="Vector" d="M170.384 25C135.769 25 109.23 51.9231 109.23 86.5385V169.231C109.23 172.308 111.923 175 115 175H180.384C183.461 175 186.154 172.308 186.154 169.231V103.846C186.154 100.769 183.461 98.0769 180.384 98.0769H132.307V86.5385C132.307 67.3077 151.154 48.0769 170.384 48.0769H180.384C183.461 48.0769 186.154 45.3846 186.154 42.3077V30.7692C186.154 27.6923 183.461 25 180.384 25H170.384Z" fill="#093BAA" fill-opacity="0.05"/>
<path id="Vector_2" d="M74.9995 25C40.3842 25 13.8457 51.9231 13.8457 86.5385V169.231C13.8457 172.308 16.538 175 19.6149 175H84.9995C88.0765 175 90.7688 172.308 90.7688 169.231V103.846C90.7688 100.769 88.0765 98.0769 84.9995 98.0769H36.9226V86.5385C36.9226 67.3077 55.7688 48.0769 74.9995 48.0769H84.9995C88.0765 48.0769 90.7688 45.3846 90.7688 42.3077V30.7692C90.7688 27.6923 88.0765 25 84.9995 25H74.9995Z" fill="#093BAA" fill-opacity="0.05"/>
</g>
</g>
</svg>
