<svg width="25" height="24" viewBox="0 0 25 24" fill="none" xmlns="http://www.w3.org/2000/svg">
<path d="M21.6133 22L19.4662 19.8529M19.4662 19.8529C19.5808 19.7384 19.6872 19.6158 19.7847 19.486C20.2153 18.913 20.4704 18.2006 20.4704 17.4286C20.4704 15.535 18.9354 14 17.0419 14C15.1483 14 13.6133 15.535 13.6133 17.4286C13.6133 19.3221 15.1483 20.8571 17.0419 20.8571C17.9886 20.8571 18.8458 20.4734 19.4662 19.8529Z" stroke="#0EDDBA" stroke-width="1.5" stroke-linejoin="round"/>
<path d="M3.61328 22H2.86328C2.86328 22.4142 3.19907 22.75 3.61328 22.75V22ZM20.6133 2H21.3633C21.3633 1.58579 21.0275 1.25 20.6133 1.25V2ZM10.6133 2V1.25H10.3026L10.083 1.46967L10.6133 2ZM3.61328 9L3.08295 8.46967L2.86328 8.68934V9H3.61328ZM10.6133 9V9.75H11.3633V9H10.6133ZM12.6133 21.25H3.61328V22.75H12.6133V21.25ZM20.6133 1.25H10.6133V2.75H20.6133V1.25ZM2.86328 9V22H4.36328V9H2.86328ZM10.083 1.46967L3.08295 8.46967L4.14361 9.53033L11.1436 2.53033L10.083 1.46967ZM9.86328 2V9H11.3633V2H9.86328ZM10.6133 8.25H3.61328V9.75H10.6133V8.25ZM19.8633 2V12H21.3633V2H19.8633Z" fill="#0EDDBA"/>
</svg>
