<svg width="60" height="60" viewBox="0 0 60 60" fill="none" xmlns="http://www.w3.org/2000/svg">
<path d="M52.2766 27.8C52.2766 40.025 43.4016 51.475 31.2766 54.825C30.4516 55.05 29.5515 55.05 28.7265 54.825C16.6015 51.475 7.72656 40.025 7.72656 27.8V16.8249C7.72656 14.7749 9.2766 12.4499 11.2016 11.6749L25.1265 5.97502C28.2515 4.70002 31.7766 4.70002 34.9016 5.97502L48.8266 11.6749C50.7266 12.4499 52.3016 14.7749 52.3016 16.8249L52.2766 27.8Z" stroke="white" stroke-opacity="0.8" stroke-width="2" stroke-linecap="round" stroke-linejoin="round"/>
<path d="M30 31.25C32.7614 31.25 35 29.0114 35 26.25C35 23.4886 32.7614 21.25 30 21.25C27.2386 21.25 25 23.4886 25 26.25C25 29.0114 27.2386 31.25 30 31.25Z" stroke="white" stroke-opacity="0.8" stroke-width="2" stroke-miterlimit="10" stroke-linecap="round" stroke-linejoin="round"/>
<path d="M30 31.25V38.75" stroke="white" stroke-opacity="0.8" stroke-width="2" stroke-miterlimit="10" stroke-linecap="round" stroke-linejoin="round"/>
</svg>
