<svg width="70" height="70" viewBox="0 0 70 70" fill="none" xmlns="http://www.w3.org/2000/svg">
<rect width="70" height="70" rx="4" fill="#EDE8F7"/>
<path d="M32.2846 28.2143H29.5703V43.1429H32.2846V28.2143Z" fill="#AA82FC"/>
<path d="M40.4291 28.2143H37.7148V43.1429H40.4291V28.2143Z" fill="#AA82FC"/>
<path d="M35 16C37.5318 15.9992 40.0379 16.5075 42.3693 17.4946C44.7008 18.4818 46.8099 19.9276 48.5714 21.7461V16H51.2857V26.8571H40.4286V24.1429H47.1084C44.5658 21.3192 41.1147 19.4752 37.3542 18.9308C33.5936 18.3864 29.7612 19.1761 26.5223 21.1628C23.2833 23.1495 20.8423 26.2076 19.6231 29.8064C18.4038 33.4052 18.4833 37.3173 19.8477 40.8636C21.2122 44.4099 23.7754 47.3664 27.0924 49.2198C30.4094 51.0733 34.2707 51.7066 38.006 51.0099C41.7413 50.3133 45.1146 48.3305 47.5405 45.406C49.9663 42.4814 51.2914 38.7997 51.2857 35H54C54 38.7578 52.8857 42.4313 50.7979 45.5558C48.7102 48.6804 45.7428 51.1156 42.271 52.5537C38.7992 53.9918 34.9789 54.368 31.2933 53.6349C27.6076 52.9018 24.2222 51.0922 21.565 48.435C18.9078 45.7778 17.0982 42.3923 16.3651 38.7067C15.632 35.0211 16.0082 31.2008 17.4463 27.729C18.8844 24.2572 21.3196 21.2898 24.4442 19.2021C27.5687 17.1143 31.2422 16 35 16Z" fill="#AA82FC"/>
</svg>
