<svg width="161" height="157" viewBox="0 0 161 157" fill="none" xmlns="http://www.w3.org/2000/svg">
<g opacity="0.3">
<path d="M66.6667 58.3333V41.6667C66.6667 37.2464 68.4226 33.0072 71.5482 29.8816C74.6738 26.7559 78.9131 25 83.3333 25H116.667C121.087 25 125.326 26.7559 128.452 29.8816C131.577 33.0072 133.333 37.2464 133.333 41.6667V58.3333M100 100V100.083M25 108.333C48.2632 120.056 73.9502 126.162 100 126.162C126.05 126.162 151.737 120.056 175 108.333M25 75C25 70.5797 26.7559 66.3405 29.8816 63.2149C33.0072 60.0893 37.2464 58.3333 41.6667 58.3333H158.333C162.754 58.3333 166.993 60.0893 170.118 63.2149C173.244 66.3405 175 70.5797 175 75V150C175 154.42 173.244 158.66 170.118 161.785C166.993 164.911 162.754 166.667 158.333 166.667H41.6667C37.2464 166.667 33.0072 164.911 29.8816 161.785C26.7559 158.66 25 154.42 25 150V75Z" stroke="#F3B809" stroke-width="10" stroke-linecap="round" stroke-linejoin="round"/>
</g>
</svg>
