<svg width="90" height="25" viewBox="0 0 90 25" fill="none" xmlns="http://www.w3.org/2000/svg">
<path d="M21.74 0H2.30627C1.03255 0 0 1.0322 0 2.30548V21.7326C0 23.0059 1.03255 24.0381 2.30627 24.0381H21.74C23.0138 24.0381 24.0463 23.0059 24.0463 21.7326V2.30548C24.0463 1.0322 23.0138 0 21.74 0Z" fill="#B5B5B5"/>
<path d="M9.71094 7.54501V4.92671L11.9481 3.61475L14.2536 4.92671V7.54501L11.9481 6.23445L9.71094 7.54501Z" fill="white"/>
<path d="M9.76697 13.3672L7.49809 12.0573L7.48047 9.46508L9.76979 8.12423L12.038 9.43337L9.75006 10.7749L9.76697 13.3672Z" fill="white"/>
<path d="M14.3713 13.3672L16.6395 12.0573L16.6571 9.46508L14.3678 8.12423L12.0996 9.43337L14.3882 10.7749L14.3713 13.3672Z" fill="white"/>
<path d="M9.76758 13.415V16.0333L12.0047 17.3446L14.3103 16.0333V13.415L12.0047 14.7256L9.76758 13.415Z" fill="white"/>
<path d="M9.76758 16.5624V19.1807L12.0047 20.4926L14.3103 19.1807V16.5624L12.0047 17.8729L9.76758 16.5624Z" fill="white"/>
<path d="M17.0686 11.7769L19.3368 10.4677L19.3544 7.87552L17.0651 6.53467L14.7969 7.84382L17.0848 9.18467L17.0686 11.7769Z" fill="white"/>
<path d="M6.97916 11.7769L4.71098 10.4677L4.69336 7.87552L6.98269 6.53467L9.25086 7.84382L6.96224 9.18467L6.97916 11.7769Z" fill="white"/>
<path d="M9.24301 16.388L6.97413 17.6971L4.71934 16.4162L4.70312 13.7641L6.9713 12.4549L6.98892 15.1063L9.24301 16.388Z" fill="white"/>
<path d="M14.8066 16.388L17.0755 17.6971L19.3303 16.4162L19.3465 13.7641L17.0783 12.4549L17.0607 15.1063L14.8066 16.388Z" fill="white"/>
<path d="M37.673 18.5596C36.7956 18.5596 36.0157 18.3891 35.3333 18.048C34.663 17.6947 34.139 17.2013 33.7613 16.5679C33.3957 15.9222 33.2129 15.1852 33.2129 14.3568V9.679C33.2129 8.83844 33.3957 8.10144 33.7613 7.46798C34.139 6.83452 34.663 6.34724 35.3333 6.00615C36.0157 5.65287 36.7956 5.47624 37.673 5.47624C38.5504 5.47624 39.3242 5.64678 39.9944 5.98788C40.6647 6.32897 41.1826 6.80406 41.5482 7.41316C41.9259 8.01007 42.1148 8.68617 42.1148 9.44145V9.64245C42.1148 9.76427 42.0539 9.82518 41.932 9.82518H40.5428C40.4209 9.82518 40.36 9.76427 40.36 9.64245V9.47799C40.36 8.74708 40.1102 8.15626 39.6106 7.70553C39.1231 7.24261 38.4773 7.01116 37.673 7.01116C36.8565 7.01116 36.1985 7.2487 35.6988 7.7238C35.2114 8.19889 34.9677 8.83235 34.9677 9.62418V14.4117C34.9677 15.2035 35.2236 15.837 35.7354 16.312C36.2472 16.7871 36.9175 17.0247 37.7461 17.0247C38.5504 17.0247 39.1841 16.8176 39.6471 16.4034C40.1224 15.977 40.36 15.3984 40.36 14.6675V13.2605C40.36 13.2118 40.3356 13.1874 40.2869 13.1874H37.8192C37.6974 13.1874 37.6364 13.1265 37.6364 13.0047V11.8717C37.6364 11.7499 37.6974 11.689 37.8192 11.689H41.932C42.0539 11.689 42.1148 11.7499 42.1148 11.8717V14.1924C42.1148 15.5933 41.7127 16.6714 40.9084 17.4267C40.1163 18.182 39.0378 18.5596 37.673 18.5596Z" fill="#A1A9AE"/>
<path d="M52.4319 18.4134C52.3223 18.4134 52.2491 18.3647 52.2126 18.2672L51.5545 16.1293C51.5424 16.0928 51.518 16.0745 51.4814 16.0745H46.345C46.3084 16.0745 46.2841 16.0928 46.2719 16.1293L45.6138 18.2672C45.5773 18.3647 45.5042 18.4134 45.3945 18.4134H43.9139C43.7798 18.4134 43.7311 18.3464 43.7676 18.2124L47.7708 5.7686C47.8073 5.67115 47.8804 5.62242 47.9901 5.62242H49.818C49.9277 5.62242 50.0008 5.67115 50.0374 5.7686L54.0771 18.2124L54.0953 18.2855C54.0953 18.3708 54.0405 18.4134 53.9308 18.4134H52.4319ZM46.7289 14.5944C46.7167 14.6188 46.7167 14.6431 46.7289 14.6675C46.7532 14.6797 46.7776 14.6858 46.802 14.6858H51.0062C51.0305 14.6858 51.0488 14.6797 51.061 14.6675C51.0854 14.6431 51.0915 14.6188 51.0793 14.5944L48.9589 7.81516C48.9467 7.7908 48.9284 7.77862 48.9041 7.77862C48.8797 7.77862 48.8614 7.7908 48.8492 7.81516L46.7289 14.5944Z" fill="#A1A9AE"/>
<path d="M63.708 5.80515C63.708 5.68333 63.7689 5.62242 63.8908 5.62242H65.28C65.4019 5.62242 65.4628 5.68333 65.4628 5.80515V18.2307C65.4628 18.3525 65.4019 18.4134 65.28 18.4134H63.9456C63.8603 18.4134 63.7872 18.3708 63.7263 18.2855L58.0049 8.94808C57.9927 8.91153 57.9745 8.89935 57.9501 8.91153C57.9257 8.91153 57.9135 8.92981 57.9135 8.96635L57.9318 18.2307C57.9318 18.3525 57.8709 18.4134 57.749 18.4134H56.3598C56.2379 18.4134 56.177 18.3525 56.177 18.2307V5.80515C56.177 5.68333 56.2379 5.62242 56.3598 5.62242H57.7125C57.7978 5.62242 57.8709 5.66506 57.9318 5.75033L63.6349 15.0878C63.6471 15.1243 63.6653 15.1426 63.6897 15.1426C63.7141 15.1304 63.7263 15.106 63.7263 15.0695L63.708 5.80515Z" fill="#A1A9AE"/>
<path d="M76.2447 18.4134C76.1351 18.4134 76.062 18.3647 76.0254 18.2672L75.3673 16.1293C75.3552 16.0928 75.3308 16.0745 75.2942 16.0745H70.1578C70.1212 16.0745 70.0969 16.0928 70.0847 16.1293L69.4266 18.2672C69.3901 18.3647 69.317 18.4134 69.2073 18.4134H67.7267C67.5926 18.4134 67.5439 18.3464 67.5804 18.2124L71.5836 5.7686C71.6201 5.67115 71.6932 5.62242 71.8029 5.62242H73.6308C73.7405 5.62242 73.8136 5.67115 73.8502 5.7686L77.8899 18.2124L77.9081 18.2855C77.9081 18.3708 77.8533 18.4134 77.7436 18.4134H76.2447ZM70.5417 14.5944C70.5295 14.6188 70.5295 14.6431 70.5417 14.6675C70.566 14.6797 70.5904 14.6858 70.6148 14.6858H74.819C74.8433 14.6858 74.8616 14.6797 74.8738 14.6675C74.8982 14.6431 74.9043 14.6188 74.8921 14.5944L72.7717 7.81516C72.7595 7.7908 72.7412 7.77862 72.7169 7.77862C72.6925 7.77862 72.6742 7.7908 72.662 7.81516L70.5417 14.5944Z" fill="#A1A9AE"/>
<path d="M80.1726 18.4134C80.0507 18.4134 79.9898 18.3525 79.9898 18.2307V5.80515C79.9898 5.68333 80.0507 5.62242 80.1726 5.62242H81.5618C81.6837 5.62242 81.7446 5.68333 81.7446 5.80515V11.6342C81.7446 11.6586 81.7568 11.6768 81.7812 11.689C81.8055 11.689 81.8238 11.6768 81.836 11.6525L87.0638 5.73206C87.1126 5.65896 87.1857 5.62242 87.2832 5.62242H88.8735C88.9466 5.62242 88.9953 5.64678 89.0197 5.69551C89.0441 5.73206 89.0319 5.78078 88.9831 5.84169L84.6327 10.9764C84.6205 11.0129 84.6205 11.0495 84.6327 11.086L89.2939 18.1942C89.3183 18.2429 89.3304 18.2794 89.3304 18.3038C89.3304 18.3769 89.2817 18.4134 89.1842 18.4134H87.5939C87.5086 18.4134 87.4355 18.3769 87.3746 18.3038L83.4263 12.3286C83.4141 12.3042 83.3958 12.292 83.3715 12.292C83.3471 12.292 83.3288 12.2981 83.3166 12.3103L81.7812 14.0279C81.7568 14.0767 81.7446 14.1071 81.7446 14.1193V18.2307C81.7446 18.3525 81.6837 18.4134 81.5618 18.4134H80.1726Z" fill="#A1A9AE"/>
</svg>
