<svg xmlns="http://www.w3.org/2000/svg" width="26" height="26" viewBox="0 0 26 26" fill="none">
  <path d="M1.02407 0.250273H24.9848C25.1574 0.250273 25.3448 0.355658 25.5004 0.59002C25.6549 0.822549 25.7586 1.15828 25.7586 1.54165V24.4583C25.7586 24.8417 25.6549 25.1775 25.5004 25.41C25.3448 25.6443 25.1574 25.7497 24.9848 25.7497H1.02407C0.851421 25.7497 0.664093 25.6443 0.508414 25.41C0.353952 25.1775 0.250273 24.8417 0.250273 24.4583V1.54165C0.250273 1.15828 0.353952 0.822549 0.508414 0.59002C0.664093 0.355658 0.851421 0.250273 1.02407 0.250273Z" stroke="#B5B5B5" stroke-width="0.500546"/>
  <path d="M13.2536 13.9999L18.0052 6.99988H8.50195L13.2536 13.9999Z" fill="#B5B5B5"/>
  <path d="M7.75357 10.5006L3.00195 17.5006H12.5052L7.75357 10.5006Z" fill="#B5B5B5"/>
  <path d="M18.2555 10.5006L13.5039 17.5006H23.0071L18.2555 10.5006Z" fill="#B5B5B5"/>
</svg>