<svg width="129" height="40" viewBox="0 0 129 40" fill="none" xmlns="http://www.w3.org/2000/svg">
<g id="TCL_Full_Logo_Blue_Color 2">
<path id="Vector" d="M37.2456 3.02335H20.527L16.9176 6.63335H6.9023V16.5547L3.29297 20.164V36.9767H20.011L23.6203 33.3667H33.6356V23.4453L37.2456 19.836V3.02335ZM31.8936 31.6233H8.6443V8.37535H31.8936V31.6233Z" fill="white"/>
<path id="Vector_2" d="M29.2462 17.2507C29.2009 17.296 29.1529 17.3467 29.1029 17.394C28.2865 18.2131 27.4676 19.0296 26.6462 19.8433C26.5787 19.9162 26.4865 19.9615 26.3876 19.9707C24.3876 19.9773 22.3822 19.9753 20.3782 19.9753C20.3411 19.9724 20.3042 19.9675 20.2676 19.9607C20.2676 18.924 20.2676 17.9087 20.2729 16.894C20.2729 15.9007 20.2676 14.9067 20.2776 13.9107C20.2822 13.7984 20.3253 13.691 20.3996 13.6067C21.2162 12.7787 22.0422 11.9573 22.8662 11.136C22.9069 11.0953 22.9522 11.0567 23.0049 11.0093C25.0782 13.0847 27.1489 15.1533 29.2462 17.2507Z" fill="white"/>
<path id="Vector_3" d="M20.267 26.052C20.2704 26.1204 20.2586 26.1888 20.2326 26.2521C20.2065 26.3155 20.1668 26.3724 20.1163 26.4187C19.3097 27.2187 18.5097 28.0187 17.7077 28.8227C17.655 28.8727 17.605 28.9253 17.5403 28.988C15.457 26.9047 13.3837 24.8313 11.291 22.736C12.105 21.922 12.9143 21.13 13.7023 20.3133C13.9203 20.088 14.1377 20.0067 14.449 20.0093C16.2977 20.0233 18.1457 20.016 19.9943 20.014C20.0805 20.0073 20.1661 19.9944 20.2503 19.9753C20.2577 20.1 20.2623 20.1693 20.2623 20.242C20.267 22.1787 20.267 24.1153 20.267 26.052Z" fill="white"/>
<path id="Vector_4" d="M46.623 8.05134H42.9717V6.68668H51.8383V8.05134H48.185V18.2H46.623V8.05134Z" fill="white"/>
<path id="Vector_5" d="M53.2832 6.68668H54.8459V18.2H53.2832V6.68668Z" fill="white"/>
<path id="Vector_6" d="M57.1152 6.68668H58.5619L62.5619 14.0707L66.4559 6.68668H67.9032V18.2H66.3739V9.61401L63.3479 15.2713C63.2146 15.5127 63.0932 15.6827 62.9779 15.7807C62.8672 15.8773 62.7249 15.93 62.5779 15.9287H62.1332L58.6632 9.61401V18.2H57.1152V6.68668Z" fill="white"/>
<path id="Vector_7" d="M70.3452 17.8667C70.1198 17.648 70.0074 17.3467 70.0078 16.9627V6.68668H78.0825V8.05134H71.5698V11.6367H77.5891V12.9853H71.5698V16.8333H78.0825V18.2H71.2578C70.8738 18.2 70.5696 18.0889 70.3452 17.8667Z" fill="white"/>
<path id="Vector_8" d="M81.1246 17.804C80.5319 17.4519 80.0549 16.9346 79.7519 16.3153C79.4284 15.674 79.2666 14.9313 79.2666 14.0873V10.8C79.2666 9.95556 79.431 9.21268 79.7599 8.57134C80.069 7.95094 80.552 7.43392 81.1499 7.08334C81.7473 6.73268 82.4406 6.55734 83.2299 6.55734H84.9733C85.7186 6.55734 86.379 6.7189 86.9546 7.04201C87.5209 7.35578 87.984 7.82703 88.2879 8.39868C88.599 8.98001 88.7546 9.6489 88.7546 10.4053H87.2246C87.2246 9.67068 87.019 9.07868 86.6079 8.62934C86.1968 8.18001 85.6515 7.95512 84.9719 7.95468H83.2286C82.5175 7.95468 81.9397 8.21779 81.4953 8.74401C81.0508 9.27023 80.8286 9.96645 80.8286 10.8327V14.056C80.8286 14.9227 81.0422 15.6189 81.4693 16.1447C81.8964 16.6705 82.4613 16.9333 83.1639 16.9333H84.9406C85.6419 16.9333 86.2037 16.684 86.6259 16.1853C87.0482 15.6867 87.2593 15.0316 87.2593 14.22H88.7886C88.7886 15.0311 88.6295 15.7491 88.3113 16.374C88.0133 16.978 87.5446 17.4812 86.9633 17.8213C86.3819 18.1613 85.7077 18.3313 84.9406 18.3313H83.1639C82.3968 18.3327 81.717 18.1569 81.1246 17.804Z" fill="white"/>
<path id="Vector_9" d="M90.2666 6.68668H91.8286V11.7187H97.8479V6.68668H99.4266V18.2H97.8479V13.1H91.8286V18.2H90.2666V6.68668Z" fill="white"/>
<path id="Vector_10" d="M108.128 15.1727H103.328L102.208 18.2H100.58L105.037 6.68799H105.743C106.215 6.68799 106.548 6.94554 106.743 7.46066L110.875 18.2H109.267L108.128 15.1727ZM103.787 13.8567H107.667L105.742 8.65999H105.726L103.787 13.8567Z" fill="white"/>
<path id="Vector_11" d="M112.19 6.68668H113.752V18.2H112.19V6.68668Z" fill="white"/>
<path id="Vector_12" d="M116.022 6.68668H117.467L123.552 15.6827V6.68668H125.081V18.2H123.65L117.549 9.23734V18.2H116.02L116.022 6.68668Z" fill="white"/>
<path id="Vector_13" d="M46.4194 32.9847C46.1945 32.7655 46.082 32.4695 46.082 32.0967V21.8H47.6447V31.9333H53.8934V33.3133H47.3334C46.9485 33.3133 46.6438 33.2038 46.4194 32.9847Z" fill="white"/>
<path id="Vector_14" d="M62.4796 30.2873H57.6796L56.5589 33.3133H54.9336L59.3876 21.8H60.0949C60.5665 21.8 60.9009 22.0578 61.0983 22.5733L65.2263 33.3133H63.6143L62.4796 30.2873ZM58.1376 28.972H62.0189L60.0949 23.7753H60.0783L58.1376 28.972Z" fill="white"/>
<path id="Vector_15" d="M66.6237 32.976C66.3934 32.7538 66.2783 32.4551 66.2783 32.08V21.8H71.4257C72.423 21.8 73.2261 22.0384 73.835 22.5153C74.4439 22.9922 74.7481 23.6255 74.7477 24.4153V25.27C74.7493 25.6594 74.6562 26.0433 74.4763 26.3887C74.2997 26.7351 74.0362 27.0298 73.7117 27.244V27.26C74.2161 27.3991 74.6628 27.696 74.9863 28.1073C75.3073 28.5111 75.4788 29.0135 75.4717 29.5293V30.3533C75.4717 31.252 75.1728 31.97 74.575 32.5073C73.9772 33.0447 73.1688 33.3133 72.1497 33.3133H67.5283C67.1559 33.3133 66.8543 33.2009 66.6237 32.976ZM71.6563 26.85C72.1163 26.85 72.4863 26.7049 72.7663 26.4147C73.0463 26.1244 73.1861 25.738 73.1857 25.2553V24.4987C73.1891 24.3112 73.1459 24.1258 73.0597 23.9592C72.9736 23.7927 72.8473 23.6502 72.6923 23.5447C72.363 23.3038 71.9354 23.1833 71.4097 23.1833H67.841V26.85H71.6563ZM71.985 31.932C72.577 31.932 73.0457 31.784 73.391 31.488C73.7363 31.192 73.909 30.7973 73.909 30.304V29.5333C73.9147 29.346 73.8777 29.1597 73.8008 28.9888C73.7238 28.8178 73.609 28.6667 73.465 28.5467C73.169 28.2947 72.7799 28.1687 72.2977 28.1687H67.841V31.9333L71.985 31.932Z" fill="white"/>
<path id="Vector_16" d="M77.5429 32.4913C76.9069 31.8553 76.5889 31 76.5889 29.9253H78.1182C78.1182 30.5725 78.3018 31.0878 78.6689 31.4713C79.036 31.8549 79.5211 32.0469 80.1242 32.0473H81.9502C82.5529 32.0473 83.0351 31.9185 83.3969 31.6607C83.7586 31.4029 83.9398 31.0602 83.9402 30.6327V29.7447C83.9426 29.5825 83.9091 29.4217 83.8423 29.2739C83.7755 29.126 83.6769 28.9947 83.5535 28.8893C83.2958 28.6591 82.9311 28.5058 82.4595 28.4293L79.4662 27.9333C78.5889 27.7907 77.9118 27.4891 77.4349 27.0287C76.958 26.5682 76.7195 25.9927 76.7195 25.302V24.4C76.7195 23.5778 77.0349 22.9171 77.6655 22.418C78.2962 21.9189 79.1266 21.6696 80.1569 21.67H82.0149C82.6624 21.67 83.2353 21.8033 83.7335 22.07C84.2212 22.3281 84.6238 22.7217 84.8929 23.2033C85.1666 23.6922 85.3038 24.2542 85.3042 24.8893H83.7582C83.7582 24.3413 83.5993 23.9 83.2815 23.5653C82.9638 23.2307 82.5415 23.0636 82.0149 23.064H80.1569C79.5978 23.064 79.1455 23.1873 78.8002 23.434C78.6355 23.5452 78.5017 23.6962 78.4111 23.8731C78.3206 24.0499 78.2762 24.2468 78.2822 24.4453V25.1853C78.2778 25.3486 78.3086 25.5109 78.3724 25.6613C78.4363 25.8116 78.5317 25.9465 78.6522 26.0567C78.8989 26.2873 79.2524 26.4465 79.7129 26.534L82.6729 27.044C83.5831 27.1973 84.282 27.496 84.7695 27.94C85.0056 28.1478 85.1935 28.4046 85.3202 28.6924C85.4468 28.9803 85.5092 29.2923 85.5029 29.6067V30.6733C85.5029 31.5067 85.1822 32.1756 84.5409 32.68C83.8995 33.1845 83.0471 33.4365 81.9835 33.436H80.0922C79.0286 33.4418 78.1789 33.1269 77.5429 32.4913Z" fill="white"/>
</g>
</svg>
