<svg width="70" height="70" viewBox="0 0 70 70" fill="none" xmlns="http://www.w3.org/2000/svg">
<rect width="70" height="70" rx="4" fill="#E7F2FF"/>
<path d="M49.8294 43.9255C48.6405 42.7357 47.2513 41.7645 45.7254 41.0566C47.8772 39.3134 49.2499 36.6535 49.2499 33.6706C49.2499 28.4078 44.8609 24.0901 39.598 24.1709C34.4158 24.2516 30.2405 28.4742 30.2405 33.6706C30.2405 36.6535 31.618 39.3134 33.765 41.0566C32.2389 41.764 30.8496 42.7352 29.661 43.9255C27.0675 46.5237 25.5951 49.9531 25.5001 53.6105C25.4988 53.6612 25.5077 53.7116 25.5262 53.7588C25.5447 53.806 25.5725 53.8491 25.6079 53.8854C25.6434 53.9217 25.6857 53.9505 25.7324 53.9702C25.7791 53.9899 25.8293 54 25.8801 54H28.54C28.7443 54 28.9153 53.8385 28.92 53.6343C29.0103 50.8793 30.1265 48.3002 32.0883 46.3432C33.0921 45.3341 34.2862 44.534 35.6013 43.9894C36.9164 43.4447 38.3265 43.1664 39.75 43.1703C42.6427 43.1703 45.3644 44.296 47.4117 46.3432C49.3687 48.3002 50.4849 50.8793 50.5799 53.6343C50.5847 53.8385 50.7556 54 50.9599 54H53.6199C53.6706 54 53.7208 53.9899 53.7675 53.9702C53.8143 53.9505 53.8566 53.9217 53.892 53.8854C53.9274 53.8491 53.9552 53.806 53.9737 53.7588C53.9923 53.7116 54.0011 53.6612 53.9999 53.6105C53.9049 49.9531 52.4324 46.5237 49.8294 43.9255ZM39.75 39.7504C38.1255 39.7504 36.596 39.1187 35.4512 37.9692C34.8768 37.3993 34.423 36.7194 34.1169 35.9703C33.8109 35.2211 33.6589 34.418 33.67 33.6089C33.6843 32.0509 34.3065 30.5452 35.3942 29.429C36.5342 28.2605 38.059 27.6098 39.6882 27.5908C41.2985 27.5765 42.8612 28.2035 44.0107 29.3292C45.1887 30.4834 45.8347 32.0271 45.8347 33.6706C45.8347 35.295 45.2029 36.8198 44.0534 37.9692C43.4895 38.5359 42.8188 38.985 42.0801 39.2908C41.3414 39.5965 40.5494 39.7527 39.75 39.7504ZM27.8513 34.9246C27.8085 34.5113 27.7848 34.0933 27.7848 33.6706C27.7848 32.9154 27.856 32.1791 27.989 31.4619C28.0223 31.2909 27.932 31.1152 27.7753 31.0439C27.1293 30.7542 26.5356 30.3552 26.0226 29.8517C25.4181 29.2656 24.9424 28.5599 24.6259 27.7797C24.3094 26.9995 24.159 26.1619 24.1843 25.3203C24.2271 23.7956 24.8398 22.3469 25.9086 21.2545C27.0818 20.0527 28.6588 19.3973 30.3355 19.4163C31.8508 19.4305 33.3138 20.0147 34.4205 21.0502C34.7957 21.4017 35.1187 21.7912 35.3895 22.2092C35.4845 22.3564 35.6697 22.4182 35.8312 22.3612C36.6672 22.0714 37.5507 21.8672 38.458 21.7722C38.724 21.7437 38.876 21.4587 38.7572 21.2212C37.2135 18.1671 34.0595 16.0581 30.4115 16.0011C25.1438 15.9204 20.7548 20.238 20.7548 25.4961C20.7548 28.479 22.1276 31.1389 24.2793 32.8821C22.7688 33.5803 21.3771 34.5446 20.1706 35.751C17.5676 38.3492 16.0951 41.7786 16.0001 45.4408C15.9989 45.4914 16.0077 45.5419 16.0263 45.5891C16.0448 45.6363 16.0726 45.6793 16.108 45.7156C16.1434 45.7519 16.1857 45.7807 16.2325 45.8004C16.2792 45.8201 16.3294 45.8303 16.3801 45.8302H19.0449C19.2491 45.8302 19.4201 45.6687 19.4248 45.4645C19.5151 42.7096 20.6313 40.1304 22.5931 38.1735C23.9896 36.777 25.6996 35.808 27.5663 35.3378C27.7515 35.2903 27.875 35.1146 27.8513 34.9246Z" fill="#0C53A7"/>
</svg>
