<svg xmlns="http://www.w3.org/2000/svg" width="24" height="24" viewBox="0 0 24 24" fill="none">
  <path d="M21.6982 0.000705719H2.30183C1.03056 0.000705719 0 1.03127 0 2.30253V21.6989C0 22.9701 1.03056 24.0007 2.30183 24.0007H21.6982C22.9694 24.0007 24 22.9701 24 21.6989V2.30253C24 1.03127 22.9694 0.000705719 21.6982 0.000705719Z" fill="#B5B5B5"/>
  <path d="M9.28842 13.0597C9.30503 12.2713 9.32164 11.489 9.33826 10.6975L8.52416 10.7443L6.5365 10.8621C5.96491 10.8738 5.41012 11.0575 4.94455 11.3893C3.43417 12.5221 3.64562 14.3073 4.54581 15.2513C4.92341 15.6485 5.31762 16.0292 5.70578 16.4158C6.61201 17.3221 7.51825 18.2404 8.43807 19.1451C8.84089 19.5379 9.36004 19.7897 9.91788 19.863C10.4757 19.9362 11.0423 19.8269 11.5328 19.5514C12.3666 19.0681 12.7563 18.3008 12.8121 17.3598C12.868 16.4188 12.8967 15.4431 12.9375 14.4901L13.2139 7.92294C13.2139 7.75528 13.2245 7.58763 13.232 7.41847C13.2338 7.2374 13.2913 7.06127 13.3967 6.914C13.4571 6.8206 13.547 6.75009 13.6521 6.71369C13.7572 6.67729 13.8714 6.67709 13.9766 6.71312C14.1348 6.76694 14.2799 6.85339 14.4026 6.96686C15.2393 7.78549 16.068 8.61167 16.8887 9.4454C16.9956 9.56321 17.0746 9.70364 17.1198 9.85623C17.1398 9.90845 17.1489 9.96425 17.1465 10.0201C17.1441 10.076 17.1302 10.1308 17.1057 10.1811C17.0812 10.2314 17.0466 10.2761 17.004 10.3125C16.9615 10.3488 16.912 10.376 16.8585 10.3924C16.6301 10.4741 16.3919 10.5249 16.1501 10.5435C15.6154 10.5797 15.0807 10.5827 14.5325 10.5978C14.4917 11.3893 14.4494 12.1732 14.4071 12.9706L15.0369 12.9465C15.777 12.9178 16.5156 12.8966 17.2542 12.8589C17.8134 12.8461 18.3562 12.6668 18.8129 12.3438C19.1014 12.1434 19.3457 11.8859 19.5307 11.5873C19.7157 11.2886 19.8374 10.9552 19.8884 10.6077C19.9393 10.2601 19.9184 9.90578 19.827 9.56661C19.7355 9.22745 19.5754 8.91065 19.3566 8.63584C19.2421 8.50263 19.1195 8.37653 18.9896 8.25824C17.7934 7.04993 16.6017 5.84163 15.3994 4.65446C14.5717 3.83131 13.587 3.63647 12.5086 4.05031C11.7534 4.33426 11.3002 4.92029 11.0737 5.68153C10.9968 5.95929 10.9537 6.2453 10.9453 6.53338C10.8471 8.69021 10.7595 10.847 10.6689 13.0054C10.6216 14.1039 10.5753 15.2025 10.53 16.301C10.5277 16.3608 10.5216 16.4203 10.5118 16.4793C10.4152 17.0275 9.93184 17.2254 9.49534 16.884C9.29056 16.7111 9.09638 16.526 8.91384 16.3297C8.24826 15.6672 7.5842 15.0026 6.92164 14.336C6.79186 14.2156 6.69735 14.0621 6.64826 13.892C6.61276 13.7817 6.62084 13.662 6.67084 13.5575C6.72084 13.453 6.80897 13.3716 6.91711 13.3301C7.19802 13.2238 7.49581 13.1691 7.79616 13.1685L9.28842 13.0597Z" fill="white"/>
</svg>