<svg width="27" height="20" viewBox="0 0 27 20" fill="none" xmlns="http://www.w3.org/2000/svg">
<path d="M17.4582 13.6424C16.1388 13.556 15.1015 12.4645 15.1015 11.1303C15.1015 11.0858 15.1024 11.0413 15.105 10.9967V11.0028C15.1024 10.9609 15.1006 10.912 15.1006 10.8623C15.1006 9.53067 16.1397 8.4427 17.4512 8.36324H17.4582C18.7758 8.43484 19.8166 9.52019 19.8166 10.8492C19.8166 10.9033 19.8149 10.9566 19.8114 11.0098V11.0028C19.814 11.0465 19.8158 11.098 19.8158 11.1495C19.8158 12.4794 18.7758 13.5665 17.4643 13.6416H17.4573L17.4582 13.6424ZM8.75617 13.6424C7.4368 13.556 6.39948 12.4645 6.39948 11.1303C6.39948 11.0858 6.40035 11.0413 6.40297 10.9967V11.0028C6.40035 10.9609 6.3986 10.912 6.3986 10.8623C6.3986 9.53067 7.43768 8.4427 8.74918 8.36324H8.75617C10.0738 8.43484 11.1146 9.52019 11.1146 10.8492C11.1146 10.9033 11.1129 10.9566 11.1094 11.0098V11.0028C11.112 11.0447 11.1137 11.0936 11.1137 11.1434C11.1137 12.475 10.0747 13.563 8.76315 13.6424H8.75617ZM22.1742 1.68173C20.6348 0.95525 18.8465 0.380703 16.9745 0.0480243L16.8444 0.0288147C16.84 0.0279415 16.8348 0.0270684 16.8295 0.0270684C16.799 0.0270684 16.7728 0.0436586 16.7588 0.0681075C16.5545 0.426981 16.3327 0.874918 16.1327 1.33421L16.0952 1.43113C15.1958 1.28706 14.1585 1.20498 13.1019 1.20498C12.0454 1.20498 11.0081 1.28705 9.99607 1.4451L10.1087 1.43026C9.87295 0.880157 9.64767 0.433093 9.39882 0L9.43462 0.0672343C9.41978 0.0419124 9.39271 0.0261949 9.36215 0.0261949C9.35778 0.0261949 9.35254 0.0261953 9.34818 0.0270684C7.34599 0.378957 5.55774 0.95263 3.88649 1.73587L4.01834 1.67998C4.00349 1.68609 3.99127 1.69657 3.98341 1.70967C1.49138 5.23816 0 9.62847 0 14.3672C0 15.1591 0.0419123 15.9406 0.123117 16.7108L0.115259 16.6147C0.117878 16.64 0.130976 16.661 0.149312 16.6758C2.0179 18.0738 4.19035 19.2002 6.53482 19.9398L6.6885 19.9817C6.69548 19.9843 6.70421 19.9852 6.71294 19.9852C6.74089 19.9852 6.76533 19.9721 6.78018 19.952C7.24732 19.3233 7.69177 18.6108 8.07684 17.8633L8.11788 17.776C8.12312 17.7656 8.12661 17.7525 8.12661 17.7385C8.12661 17.7027 8.10391 17.673 8.07247 17.6608H8.0716C7.27527 17.3534 6.60205 17.026 5.96114 16.6505L6.02838 16.6872C6.00306 16.6723 5.98646 16.6453 5.98646 16.6147C5.98646 16.5876 5.99956 16.5632 6.01965 16.5484C6.15673 16.4453 6.29469 16.3388 6.42567 16.2305C6.43964 16.2192 6.45798 16.2122 6.47719 16.2122C6.48941 16.2122 6.50076 16.2148 6.51037 16.2192H6.50949C8.43746 17.1456 10.7007 17.687 13.0897 17.687C15.4787 17.687 17.7428 17.1456 19.7634 16.179L19.6699 16.2192C19.6804 16.2139 19.6918 16.2113 19.7049 16.2113C19.7241 16.2113 19.7424 16.2183 19.7564 16.2296C19.8874 16.3379 20.0244 16.4462 20.1633 16.5484C20.1834 16.5641 20.1965 16.5885 20.1965 16.6156C20.1965 16.6461 20.1799 16.6723 20.1563 16.6872C19.5791 17.0321 18.9059 17.3587 18.2048 17.6285L18.1131 17.6599C18.0816 17.6721 18.0589 17.7027 18.0589 17.7376C18.0589 17.7516 18.0624 17.7647 18.0685 17.776C18.506 18.6143 18.9496 19.325 19.4403 20L19.4054 19.9502C19.4202 19.9712 19.4455 19.9852 19.4726 19.9852C19.4813 19.9852 19.4901 19.9834 19.4979 19.9817C21.9996 19.2028 24.1755 18.0764 26.1035 16.6357L26.0467 16.6767C26.0659 16.6627 26.0781 16.6409 26.0808 16.6165C26.1567 15.9319 26.1995 15.1373 26.1995 14.3331C26.1995 9.60489 24.7046 5.22593 22.1628 1.64244L22.2082 1.71054C22.2013 1.69657 22.189 1.68522 22.1751 1.67911L22.1742 1.68173Z" fill="white"/>
</svg>
